# Baked ultra-low Key West silhouette; generated by bake_key_west_far_city.py
mtllib far_city.mtl
usemtl massing
v -252.716 1.457 -224.688
v -237.765 1.457 -240.949
v -224.044 1.457 -228.332
v -238.995 1.457 -212.071
v -252.716 5.357 -224.688
v -237.765 5.357 -240.949
v -224.044 5.357 -228.332
v -238.995 5.357 -212.071
f 8 7 6 5
f 1 2 6 5
f 2 3 7 6
f 3 4 8 7
f 4 1 5 8
v -177.536 1.354 -239.036
v -175.450 1.354 -215.810
v -194.444 1.354 -214.104
v -196.530 1.354 -237.330
v -177.536 5.254 -239.036
v -175.450 5.254 -215.810
v -194.444 5.254 -214.104
v -196.530 5.254 -237.330
f 16 15 14 13
f 9 10 14 13
f 10 11 15 14
f 11 12 16 15
f 12 9 13 16
v -223.182 1.446 -213.816
v -199.178 1.446 -214.691
v -198.458 1.446 -194.944
v -222.462 1.446 -194.069
v -223.182 7.246 -213.816
v -199.178 7.246 -214.691
v -198.458 7.246 -194.944
v -222.462 7.246 -194.069
f 24 23 22 21
f 17 18 22 21
f 18 19 23 22
f 19 20 24 23
f 20 17 21 24
usemtl road
v -254.018 0.831 -241.880
v -242.266 1.186 -254.093
v -246.229 1.187 -257.907
v -257.982 0.834 -245.694
f 25 26 27 28
v -258.047 0.658 -205.962
v -19.257 0.641 60.097
v -15.163 0.561 56.423
v -253.953 0.546 -209.635
f 29 30 31 32
v -19.246 0.641 60.108
v 160.251 0.989 257.848
v 164.324 0.902 254.152
v -15.174 0.561 56.412
f 33 34 35 36
v -235.988 1.356 -254.806
v -221.628 1.433 -238.936
v -219.032 1.408 -241.284
v -233.392 1.367 -257.154
f 37 38 39 40
v -221.633 1.433 -238.941
v -207.743 1.457 -223.461
v -205.137 1.462 -225.799
v -219.027 1.408 -241.279
f 41 42 43 44
usemtl asphalt
