# Baked ultra-low Key West silhouette; generated by bake_key_west_far_city.py
mtllib far_city.mtl
usemtl massing
v -143.387 0.842 121.506
v -125.612 0.842 117.368
v -122.613 0.842 130.254
v -140.388 0.842 134.392
v -143.387 4.742 121.506
v -125.612 4.742 117.368
v -122.613 4.742 130.254
v -140.388 4.742 134.392
f 8 7 6 5
f 1 2 6 5
f 2 3 7 6
f 3 4 8 7
f 4 1 5 8
v -155.686 1.174 126.372
v -135.202 1.174 151.888
v -141.854 1.174 157.228
v -162.338 1.174 131.712
v -155.686 5.074 126.372
v -135.202 5.074 151.888
v -141.854 5.074 157.228
v -162.338 5.074 131.712
f 16 15 14 13
f 9 10 14 13
f 10 11 15 14
f 11 12 16 15
f 12 9 13 16
v -150.524 0.959 122.677
v -140.564 0.959 132.316
v -145.216 0.959 137.123
v -155.176 0.959 127.484
v -150.524 4.859 122.677
v -140.564 4.859 132.316
v -145.216 4.859 137.123
v -155.176 4.859 127.484
f 24 23 22 21
f 17 18 22 21
f 18 19 23 22
f 19 20 24 23
f 20 17 21 24
v -169.313 0.965 146.730
v -155.193 0.965 155.130
v -162.427 0.965 167.290
v -176.547 0.965 158.890
v -169.313 4.865 146.730
v -155.193 4.865 155.130
v -162.427 4.865 167.290
v -176.547 4.865 158.890
f 32 31 30 29
f 25 26 30 29
f 26 27 31 30
f 27 28 32 31
f 28 25 29 32
v -83.411 0.878 241.082
v -70.662 0.878 220.973
v -57.089 0.878 229.578
v -69.838 0.878 249.687
v -83.411 4.778 241.082
v -70.662 4.778 220.973
v -57.089 4.778 229.578
v -69.838 4.778 249.687
f 40 39 38 37
f 33 34 38 37
f 34 35 39 38
f 35 36 40 39
f 36 33 37 40
v -118.585 1.575 162.035
v -109.559 1.575 156.477
v -104.715 1.575 164.345
v -113.741 1.575 169.903
v -118.585 5.475 162.035
v -109.559 5.475 156.477
v -104.715 5.475 164.345
v -113.741 5.475 169.903
f 48 47 46 45
f 41 42 46 45
f 42 43 47 46
f 43 44 48 47
f 44 41 45 48
v 229.518 0.390 183.920
v 240.110 0.390 187.830
v 239.102 0.390 190.560
v 228.510 0.390 186.650
v 229.518 4.290 183.920
v 240.110 4.290 187.830
v 239.102 4.290 190.560
v 228.510 4.290 186.650
f 56 55 54 53
f 49 50 54 53
f 50 51 55 54
f 51 52 56 55
f 52 49 53 56
usemtl road
v -107.417 1.434 180.856
v -125.867 1.458 169.046
v -127.753 1.478 171.994
v -109.303 1.460 183.804
f 57 58 59 60
v -126.174 1.457 168.890
v -144.664 1.450 161.680
v -145.936 1.446 164.940
v -127.446 1.479 172.150
f 61 62 63 64
v -145.794 1.447 161.631
v -159.314 1.327 165.611
v -158.326 1.342 168.969
v -144.806 1.452 164.989
f 65 66 67 68
v -160.002 1.319 166.000
v -176.972 1.331 181.550
v -174.608 1.331 184.130
v -157.638 1.346 168.580
f 69 70 71 72
v -177.028 1.331 181.604
v -250.068 0.851 254.764
v -247.591 0.819 257.236
v -174.552 1.331 184.076
f 73 74 75 76
v 255.471 1.444 236.427
v 249.941 1.434 237.511
v 250.999 1.428 242.909
v 256.529 1.442 241.825
f 77 78 79 80
v 249.629 1.434 237.592
v 225.819 1.378 245.242
v 227.501 1.356 250.478
v 251.311 1.429 242.828
f 81 82 83 84
v 225.737 1.378 245.269
v 213.527 1.380 249.619
v 215.373 1.338 254.801
v 227.583 1.357 250.451
f 85 86 87 88
v -106.919 1.446 183.322
v -96.929 1.333 168.812
v -99.811 1.329 166.828
v -109.801 1.458 181.338
f 89 90 91 92
v -96.620 1.339 167.845
v -96.410 1.338 153.265
v -99.910 1.316 153.215
v -100.120 1.331 167.795
f 93 94 95 96
v -96.423 1.338 153.454
v -91.723 1.546 115.394
v -95.197 1.549 114.966
v -99.897 1.317 153.026
f 97 98 99 100
v -92.261 1.552 116.455
v -76.561 1.474 101.695
v -78.959 1.546 99.145
v -94.659 1.538 113.905
f 101 102 103 104
v -77.441 1.481 102.141
v -50.521 1.281 97.151
v -51.159 1.423 93.709
v -78.079 1.535 98.699
f 105 106 107 108
v -50.471 1.280 97.141
v -21.791 1.268 90.961
v -22.529 1.433 87.539
v -51.209 1.423 93.719
f 109 110 111 112
v -22.083 1.270 90.998
v 21.787 1.070 89.078
v 21.633 1.292 85.582
v -22.237 1.437 87.502
f 113 114 115 116
v 21.554 1.061 89.073
v 36.084 1.266 90.373
v 36.396 1.320 86.887
v 21.866 1.291 85.587
f 117 118 119 120
v 35.170 1.264 90.015
v 48.560 1.223 100.355
v 50.700 1.301 97.585
v 37.310 1.320 87.245
f 121 122 123 124
v 154.313 1.550 257.519
v 176.739 1.627 244.699
v 175.001 1.632 241.661
v 152.576 1.579 254.481
f 125 126 127 128
v 176.661 1.626 244.741
v 229.891 1.641 217.771
v 228.309 1.640 214.649
v 175.079 1.632 241.619
f 129 130 131 132
v 229.546 1.641 217.902
v 247.206 1.581 213.242
v 246.314 1.569 209.858
v 228.654 1.641 214.518
f 133 134 135 136
v 245.022 1.574 211.754
v 247.512 1.468 232.974
v 250.988 1.461 232.566
v 248.498 1.563 211.346
f 137 138 139 140
v 247.523 1.467 233.053
v 248.743 1.465 240.493
v 252.197 1.466 239.927
v 250.977 1.462 232.487
f 141 142 143 144
v -109.599 1.460 183.565
v -94.449 1.368 198.765
v -91.971 1.335 196.295
v -107.121 1.433 181.095
f 145 146 147 148
v -94.926 1.366 197.873
v -90.906 1.347 218.013
v -87.474 1.329 217.327
v -91.494 1.335 197.187
f 149 150 151 152
v -90.848 1.353 217.109
v -98.378 1.104 239.359
v -95.062 1.107 240.481
v -87.532 1.326 218.231
f 153 154 155 156
v -98.063 1.112 238.798
v -108.133 0.797 250.858
v -105.447 0.825 253.102
v -95.377 1.100 241.042
f 157 158 159 160
v 102.587 0.920 257.520
v 146.286 0.816 232.620
v 144.554 0.513 229.580
v 100.855 0.603 254.480
f 161 162 163 164
v 146.220 0.816 232.656
v 203.310 0.833 203.306
v 201.710 0.664 200.194
v 144.620 0.513 229.544
f 165 166 167 168
v 202.832 0.830 203.470
v 219.982 1.224 200.260
v 219.338 0.990 196.820
v 202.188 0.668 200.030
f 169 170 171 172
v 219.576 1.215 200.288
v 245.546 1.466 201.538
v 245.714 1.378 198.042
v 219.744 1.010 196.792
f 173 174 175 176
v 243.888 1.429 199.957
v 245.018 1.574 211.717
v 248.502 1.563 211.383
v 247.372 1.411 199.623
f 177 178 179 180
v -110.491 0.127 257.335
v -105.671 0.808 253.325
v -107.909 0.812 250.635
v -112.729 0.167 254.645
f 181 182 183 184
v -175.467 1.330 184.560
v -162.407 1.325 182.110
v -163.053 1.358 178.670
v -176.113 1.332 181.120
f 185 186 187 188
v -162.943 1.324 182.127
v -149.103 1.343 183.827
v -148.677 1.384 180.353
v -162.517 1.360 178.653
f 189 190 191 192
v -149.983 1.344 183.457
v -131.453 1.295 198.277
v -129.267 1.339 195.543
v -147.797 1.386 180.723
f 193 194 195 196
v -131.605 1.294 198.140
v -107.715 1.247 222.320
v -105.225 1.302 219.860
v -129.115 1.340 195.680
f 197 198 199 200
v -107.859 1.248 222.155
v -100.169 1.197 232.185
v -97.391 1.238 230.055
v -105.081 1.302 220.025
f 201 202 203 204
v -100.484 1.207 231.519
v -98.424 1.093 240.319
v -95.016 1.116 239.521
v -97.076 1.230 230.721
f 205 206 207 208
v 247.355 1.424 200.084
v 249.335 1.145 188.484
v 245.885 1.058 187.896
v 243.905 1.418 199.496
f 209 210 211 212
v 249.310 1.149 188.606
v 253.470 0.649 171.616
v 250.070 0.489 170.784
v 245.910 1.052 187.774
f 213 214 215 216
v 253.412 0.651 171.806
v 257.642 0.586 160.342
v 254.358 0.409 159.131
v 250.128 0.487 170.594
f 217 218 219 220
v 254.780 0.418 129.047
v 241.650 0.379 121.407
v 239.890 0.285 124.433
v 253.020 0.341 132.073
f 221 222 223 224
v 241.236 0.383 121.233
v 223.746 0.352 116.403
v 222.814 0.280 119.777
v 240.304 0.286 124.607
f 225 226 227 228
v 223.648 0.352 116.379
v 201.818 0.520 111.679
v 201.082 0.461 115.101
v 222.912 0.276 119.801
f 229 230 231 232
usemtl asphalt
