# Baked ultra-low Key West silhouette; generated by bake_key_west_far_city.py
mtllib far_city.mtl
usemtl massing
v 157.972 1.100 -269.754
v 174.035 1.100 -252.890
v 160.908 1.100 -240.386
v 144.845 1.100 -257.250
v 157.972 5.000 -269.754
v 174.035 5.000 -252.890
v 160.908 5.000 -240.386
v 144.845 5.000 -257.250
f 8 7 6 5
f 1 2 6 5
f 2 3 7 6
f 3 4 8 7
f 4 1 5 8
v 138.152 1.113 -248.844
v 154.215 1.113 -231.980
v 141.088 1.113 -219.476
v 125.025 1.113 -236.340
v 138.152 5.013 -248.844
v 154.215 5.013 -231.980
v 141.088 5.013 -219.476
v 125.025 5.013 -236.340
f 16 15 14 13
f 9 10 14 13
f 10 11 15 14
f 11 12 16 15
f 12 9 13 16
v 113.972 1.110 -219.384
v 130.035 1.110 -202.520
v 116.908 1.110 -190.016
v 100.845 1.110 -206.880
v 113.972 5.010 -219.384
v 130.035 5.010 -202.520
v 116.908 5.010 -190.016
v 100.845 5.010 -206.880
f 24 23 22 21
f 17 18 22 21
f 18 19 23 22
f 19 20 24 23
f 20 17 21 24
v 91.622 1.198 -195.994
v 107.686 1.198 -179.130
v 94.558 1.198 -166.626
v 78.494 1.198 -183.490
v 91.622 5.098 -195.994
v 107.686 5.098 -179.130
v 94.558 5.098 -166.626
v 78.494 5.098 -183.490
f 32 31 30 29
f 25 26 30 29
f 26 27 31 30
f 27 28 32 31
f 28 25 29 32
v 66.782 1.155 -176.174
v 82.846 1.155 -159.310
v 69.718 1.155 -146.806
v 53.654 1.155 -163.670
v 66.782 5.055 -176.174
v 82.846 5.055 -159.310
v 69.718 5.055 -146.806
v 53.654 5.055 -163.670
f 40 39 38 37
f 33 34 38 37
f 34 35 39 38
f 35 36 40 39
f 36 33 37 40
v 50.882 0.878 -153.104
v 66.946 0.878 -136.240
v 53.818 0.878 -123.736
v 37.754 0.878 -140.600
v 50.882 4.778 -153.104
v 66.946 4.778 -136.240
v 53.818 4.778 -123.736
v 37.754 4.778 -140.600
f 48 47 46 45
f 41 42 46 45
f 42 43 47 46
f 43 44 48 47
f 44 41 45 48
v 27.122 0.982 -133.624
v 43.186 0.982 -116.760
v 30.058 0.982 -104.256
v 13.994 0.982 -121.120
v 27.122 4.882 -133.624
v 43.186 4.882 -116.760
v 30.058 4.882 -104.256
v 13.994 4.882 -121.120
f 56 55 54 53
f 49 50 54 53
f 50 51 55 54
f 51 52 56 55
f 52 49 53 56
v 8.012 1.058 -114.134
v 24.076 1.058 -97.270
v 10.948 1.058 -84.766
v -5.116 1.058 -101.630
v 8.012 4.958 -114.134
v 24.076 4.958 -97.270
v 10.948 4.958 -84.766
v -5.116 4.958 -101.630
f 64 63 62 61
f 57 58 62 61
f 58 59 63 62
f 59 60 64 63
f 60 57 61 64
v -10.028 1.121 -91.424
v 6.036 1.121 -74.561
v -7.092 1.121 -62.056
v -23.156 1.121 -78.919
v -10.028 5.021 -91.424
v 6.036 5.021 -74.561
v -7.092 5.021 -62.056
v -23.156 5.021 -78.919
f 72 71 70 69
f 65 66 70 69
f 66 67 71 70
f 67 68 72 71
f 68 65 69 72
v -43.538 1.021 -60.254
v -27.474 1.021 -43.391
v -40.602 1.021 -30.886
v -56.666 1.021 -47.749
v -43.538 4.921 -60.254
v -27.474 4.921 -43.391
v -40.602 4.921 -30.886
v -56.666 4.921 -47.749
f 80 79 78 77
f 73 74 78 77
f 74 75 79 78
f 75 76 80 79
f 76 73 77 80
v -63.718 0.860 -40.414
v -47.654 0.860 -23.551
v -60.782 0.860 -11.046
v -76.846 0.860 -27.909
v -63.718 4.760 -40.414
v -47.654 4.760 -23.551
v -60.782 4.760 -11.046
v -76.846 4.760 -27.909
f 88 87 86 85
f 81 82 86 85
f 82 83 87 86
f 83 84 88 87
f 84 81 85 88
v -81.398 0.810 -18.054
v -65.334 0.810 -1.191
v -78.462 0.810 11.314
v -94.526 0.810 -5.549
v -81.398 4.710 -18.054
v -65.334 4.710 -1.191
v -78.462 4.710 11.314
v -94.526 4.710 -5.549
f 96 95 94 93
f 89 90 94 93
f 90 91 95 94
f 91 92 96 95
f 92 89 93 96
v -104.448 0.881 1.066
v -88.384 0.881 17.929
v -101.512 0.881 30.434
v -117.576 0.881 13.571
v -104.448 4.781 1.066
v -88.384 4.781 17.929
v -101.512 4.781 30.434
v -117.576 4.781 13.571
f 104 103 102 101
f 97 98 102 101
f 98 99 103 102
f 99 100 104 103
f 100 97 101 104
v -123.918 1.014 22.686
v -107.854 1.014 39.549
v -120.982 1.014 52.054
v -137.046 1.014 35.191
v -123.918 4.914 22.686
v -107.854 4.914 39.549
v -120.982 4.914 52.054
v -137.046 4.914 35.191
f 112 111 110 109
f 105 106 110 109
f 106 107 111 110
f 107 108 112 111
f 108 105 109 112
v -141.599 1.087 44.696
v -125.534 1.087 61.559
v -138.661 1.087 74.064
v -154.726 1.087 57.201
v -141.599 4.987 44.696
v -125.534 4.987 61.559
v -138.661 4.987 74.064
v -154.726 4.987 57.201
f 120 119 118 117
f 113 114 118 117
f 114 115 119 118
f 115 116 120 119
f 116 113 117 120
v -163.569 1.040 63.456
v -147.504 1.040 80.319
v -160.631 1.040 92.824
v -176.696 1.040 75.961
v -163.569 4.940 63.456
v -147.504 4.940 80.319
v -160.631 4.940 92.824
v -176.696 4.940 75.961
f 128 127 126 125
f 121 122 126 125
f 122 123 127 126
f 123 124 128 127
f 124 121 125 128
v -110.240 1.168 76.588
v -94.190 1.168 93.465
v -107.320 1.168 105.952
v -123.370 1.168 89.075
v -110.240 5.068 76.588
v -94.190 5.068 93.465
v -107.320 5.068 105.952
v -123.370 5.068 89.075
f 136 135 134 133
f 129 130 134 133
f 130 131 135 134
f 131 132 136 135
f 132 129 133 136
v -88.599 1.158 52.826
v -72.534 1.158 69.689
v -85.661 1.158 82.194
v -101.726 1.158 65.331
v -88.599 5.058 52.826
v -72.534 5.058 69.689
v -85.661 5.058 82.194
v -101.726 5.058 65.331
f 144 143 142 141
f 137 138 142 141
f 138 139 143 142
f 139 140 144 143
f 140 137 141 144
v -66.288 0.812 34.786
v -50.224 0.812 51.649
v -63.352 0.812 64.154
v -79.416 0.812 47.291
v -66.288 4.712 34.786
v -50.224 4.712 51.649
v -63.352 4.712 64.154
v -79.416 4.712 47.291
f 152 151 150 149
f 145 146 150 149
f 146 147 151 150
f 147 148 152 151
f 148 145 149 152
v -46.798 0.930 9.946
v -30.734 0.930 26.809
v -43.862 0.930 39.314
v -59.926 0.930 22.451
v -46.798 4.830 9.946
v -30.734 4.830 26.809
v -43.862 4.830 39.314
v -59.926 4.830 22.451
f 160 159 158 157
f 153 154 158 157
f 154 155 159 158
f 155 156 160 159
f 156 153 157 160
v -24.448 0.995 -13.814
v -8.384 0.995 3.049
v -21.512 0.995 15.554
v -37.576 0.995 -1.309
v -24.448 4.895 -13.814
v -8.384 4.895 3.049
v -21.512 4.895 15.554
v -37.576 4.895 -1.309
f 168 167 166 165
f 161 162 166 165
f 162 163 167 166
f 163 164 168 167
f 164 161 165 168
v -2.488 1.085 -31.154
v 13.576 1.085 -14.291
v 0.448 1.085 -1.786
v -15.616 1.085 -18.649
v -2.488 4.985 -31.154
v 13.576 4.985 -14.291
v 0.448 4.985 -1.786
v -15.616 4.985 -18.649
f 176 175 174 173
f 169 170 174 173
f 170 171 175 174
f 171 172 176 175
f 172 169 173 176
v 18.452 1.080 -56.694
v 34.516 1.080 -39.831
v 21.388 1.080 -27.326
v 5.324 1.080 -44.189
v 18.452 4.980 -56.694
v 34.516 4.980 -39.831
v 21.388 4.980 -27.326
v 5.324 4.980 -44.189
f 184 183 182 181
f 177 178 182 181
f 178 179 183 182
f 179 180 184 183
f 180 177 181 184
v 39.002 1.083 -79.384
v 55.066 1.083 -62.521
v 41.938 1.083 -50.016
v 25.874 1.083 -66.879
v 39.002 4.983 -79.384
v 55.066 4.983 -62.521
v 41.938 4.983 -50.016
v 25.874 4.983 -66.879
f 192 191 190 189
f 185 186 190 189
f 186 187 191 190
f 187 188 192 191
f 188 185 189 192
v 61.692 1.183 -98.504
v 77.756 1.183 -81.640
v 64.628 1.183 -69.136
v 48.564 1.183 -86.000
v 61.692 5.083 -98.504
v 77.756 5.083 -81.640
v 64.628 5.083 -69.136
v 48.564 5.083 -86.000
f 200 199 198 197
f 193 194 198 197
f 194 195 199 198
f 195 196 200 199
f 196 193 197 200
v 81.542 1.036 -122.634
v 97.606 1.036 -105.770
v 84.478 1.036 -93.266
v 68.414 1.036 -110.130
v 81.542 4.936 -122.634
v 97.606 4.936 -105.770
v 84.478 4.936 -93.266
v 68.414 4.936 -110.130
f 208 207 206 205
f 201 202 206 205
f 202 203 207 206
f 203 204 208 207
f 204 201 205 208
v 119.022 1.128 -161.264
v 135.086 1.128 -144.400
v 121.958 1.128 -131.896
v 105.894 1.128 -148.760
v 119.022 5.028 -161.264
v 135.086 5.028 -144.400
v 121.958 5.028 -131.896
v 105.894 5.028 -148.760
f 216 215 214 213
f 209 210 214 213
f 210 211 215 214
f 211 212 216 215
f 212 209 213 216
v 140.992 1.096 -181.104
v 157.055 1.096 -164.240
v 143.928 1.096 -151.736
v 127.865 1.096 -168.600
v 140.992 4.996 -181.104
v 157.055 4.996 -164.240
v 143.928 4.996 -151.736
v 127.865 4.996 -168.600
f 224 223 222 221
f 217 218 222 221
f 218 219 223 222
f 219 220 224 223
f 220 217 221 224
v 160.462 1.070 -201.664
v 176.525 1.070 -184.800
v 163.398 1.070 -172.296
v 147.335 1.070 -189.160
v 160.462 4.970 -201.664
v 176.525 4.970 -184.800
v 163.398 4.970 -172.296
v 147.335 4.970 -189.160
f 232 231 230 229
f 225 226 230 229
f 226 227 231 230
f 227 228 232 231
f 228 225 229 232
v 180.672 1.003 -226.504
v 196.735 1.003 -209.640
v 183.608 1.003 -197.136
v 167.545 1.003 -214.000
v 180.672 4.903 -226.504
v 196.735 4.903 -209.640
v 183.608 4.903 -197.136
v 167.545 4.903 -214.000
f 240 239 238 237
f 233 234 238 237
f 234 235 239 238
f 235 236 240 239
f 236 233 237 240
v 206.232 0.860 -246.674
v 222.295 0.860 -229.810
v 209.168 0.860 -217.306
v 193.105 0.860 -234.170
v 206.232 4.760 -246.674
v 222.295 4.760 -229.810
v 209.168 4.760 -217.306
v 193.105 4.760 -234.170
f 248 247 246 245
f 241 242 246 245
f 242 243 247 246
f 243 244 248 247
f 244 241 245 248
v 226.423 0.983 -269.004
v 242.485 0.983 -252.140
v 229.357 0.983 -239.636
v 213.295 0.983 -256.500
v 226.423 4.883 -269.004
v 242.485 4.883 -252.140
v 229.357 4.883 -239.636
v 213.295 4.883 -256.500
f 256 255 254 253
f 249 250 254 253
f 250 251 255 254
f 251 252 256 255
f 252 249 253 256
v 238.382 0.924 -229.744
v 254.445 0.924 -212.880
v 241.318 0.924 -200.376
v 225.255 0.924 -217.240
v 238.382 4.824 -229.744
v 254.445 4.824 -212.880
v 241.318 4.824 -200.376
v 225.255 4.824 -217.240
f 264 263 262 261
f 257 258 262 261
f 258 259 263 262
f 259 260 264 263
f 260 257 261 264
v 215.322 1.085 -207.064
v 231.385 1.085 -190.200
v 218.258 1.085 -177.696
v 202.195 1.085 -194.560
v 215.322 4.985 -207.064
v 231.385 4.985 -190.200
v 218.258 4.985 -177.696
v 202.195 4.985 -194.560
f 272 271 270 269
f 265 266 270 269
f 266 267 271 270
f 267 268 272 271
f 268 265 269 272
v 191.552 1.118 -185.454
v 207.615 1.118 -168.590
v 194.488 1.118 -156.086
v 178.425 1.118 -172.950
v 191.552 5.018 -185.454
v 207.615 5.018 -168.590
v 194.488 5.018 -156.086
v 178.425 5.018 -172.950
f 280 279 278 277
f 273 274 278 277
f 274 275 279 278
f 275 276 280 279
f 276 273 277 280
v 174.592 1.080 -164.164
v 190.655 1.080 -147.300
v 177.528 1.080 -134.796
v 161.465 1.080 -151.660
v 174.592 4.980 -164.164
v 190.655 4.980 -147.300
v 177.528 4.980 -134.796
v 161.465 4.980 -151.660
f 288 287 286 285
f 281 282 286 285
f 282 283 287 286
f 283 284 288 287
f 284 281 285 288
v 153.312 1.121 -140.404
v 169.376 1.121 -123.540
v 156.248 1.121 -111.036
v 140.184 1.121 -127.900
v 153.312 5.021 -140.404
v 169.376 5.021 -123.540
v 156.248 5.021 -111.036
v 140.184 5.021 -127.900
f 296 295 294 293
f 289 290 294 293
f 290 291 295 294
f 291 292 296 295
f 292 289 293 296
v 114.402 0.829 -102.854
v 130.466 0.829 -85.990
v 117.338 0.829 -73.486
v 101.274 0.829 -90.350
v 114.402 4.729 -102.854
v 130.466 4.729 -85.990
v 117.338 4.729 -73.486
v 101.274 4.729 -90.350
f 304 303 302 301
f 297 298 302 301
f 298 299 303 302
f 299 300 304 303
f 300 297 301 304
v 91.702 1.067 -82.304
v 107.766 1.067 -65.440
v 94.638 1.067 -52.936
v 78.574 1.067 -69.800
v 91.702 4.967 -82.304
v 107.766 4.967 -65.440
v 94.638 4.967 -52.936
v 78.574 4.967 -69.800
f 312 311 310 309
f 305 306 310 309
f 306 307 311 310
f 307 308 312 311
f 308 305 309 312
v 71.872 1.015 -61.384
v 87.936 1.015 -44.521
v 74.808 1.015 -32.016
v 58.744 1.015 -48.879
v 71.872 4.915 -61.384
v 87.936 4.915 -44.521
v 74.808 4.915 -32.016
v 58.744 4.915 -48.879
f 320 319 318 317
f 313 314 318 317
f 314 315 319 318
f 315 316 320 319
f 316 313 317 320
v 52.752 1.021 -37.254
v 68.816 1.021 -20.391
v 55.688 1.021 -7.886
v 39.624 1.021 -24.749
v 52.752 4.921 -37.254
v 68.816 4.921 -20.391
v 55.688 4.921 -7.886
v 39.624 4.921 -24.749
f 328 327 326 325
f 321 322 326 325
f 322 323 327 326
f 323 324 328 327
f 324 321 325 328
v 28.972 1.062 -16.004
v 45.036 1.062 0.859
v 31.908 1.062 13.364
v 15.844 1.062 -3.499
v 28.972 4.962 -16.004
v 45.036 4.962 0.859
v 31.908 4.962 13.364
v 15.844 4.962 -3.499
f 336 335 334 333
f 329 330 334 333
f 330 331 335 334
f 331 332 336 335
f 332 329 333 336
v 7.722 0.906 3.826
v 23.786 0.906 20.689
v 10.658 0.906 33.194
v -5.406 0.906 16.331
v 7.722 4.806 3.826
v 23.786 4.806 20.689
v 10.658 4.806 33.194
v -5.406 4.806 16.331
f 344 343 342 341
f 337 338 342 341
f 338 339 343 342
f 339 340 344 343
f 340 337 341 344
v -9.258 0.919 26.196
v 6.806 0.919 43.059
v -6.322 0.919 55.564
v -22.386 0.919 38.701
v -9.258 4.819 26.196
v 6.806 4.819 43.059
v -6.322 4.819 55.564
v -22.386 4.819 38.701
f 352 351 350 349
f 345 346 350 349
f 346 347 351 350
f 347 348 352 351
f 348 345 349 352
v -32.328 0.930 49.936
v -16.264 0.930 66.799
v -29.392 0.930 79.304
v -45.456 0.930 62.441
v -32.328 4.830 49.936
v -16.264 4.830 66.799
v -29.392 4.830 79.304
v -45.456 4.830 62.441
f 360 359 358 357
f 353 354 358 357
f 354 355 359 358
f 355 356 360 359
f 356 353 357 360
v -55.369 1.145 69.776
v -39.304 1.145 86.639
v -52.431 1.145 99.144
v -68.496 1.145 82.281
v -55.369 5.045 69.776
v -39.304 5.045 86.639
v -52.431 5.045 99.144
v -68.496 5.045 82.281
f 368 367 366 365
f 361 362 366 365
f 362 363 367 366
f 363 364 368 367
f 364 361 365 368
v -73.069 1.032 93.546
v -57.004 1.032 110.409
v -70.131 1.032 122.914
v -86.196 1.032 106.051
v -73.069 4.932 93.546
v -57.004 4.932 110.409
v -70.131 4.932 122.914
v -86.196 4.932 106.051
f 376 375 374 373
f 369 370 374 373
f 370 371 375 374
f 371 372 376 375
f 372 369 373 376
v -95.749 1.093 111.956
v -79.684 1.093 128.819
v -92.811 1.093 141.324
v -108.876 1.093 124.461
v -95.749 4.993 111.956
v -79.684 4.993 128.819
v -92.811 4.993 141.324
v -108.876 4.993 124.461
f 384 383 382 381
f 377 378 382 381
f 378 379 383 382
f 379 380 384 383
f 380 377 381 384
v -54.329 1.032 140.706
v -38.264 1.032 157.569
v -51.391 1.032 170.074
v -67.456 1.032 153.211
v -54.329 4.932 140.706
v -38.264 4.932 157.569
v -51.391 4.932 170.074
v -67.456 4.932 153.211
f 392 391 390 389
f 385 386 390 389
f 386 387 391 390
f 387 388 392 391
f 388 385 389 392
v -34.509 0.991 119.786
v -18.444 0.991 136.649
v -31.571 0.991 149.154
v -47.636 0.991 132.291
v -34.509 4.891 119.786
v -18.444 4.891 136.649
v -31.571 4.891 149.154
v -47.636 4.891 132.291
f 400 399 398 397
f 393 394 398 397
f 394 395 399 398
f 395 396 400 399
f 396 393 397 400
v -16.449 0.936 95.996
v -0.384 0.936 112.859
v -13.511 0.936 125.364
v -29.576 0.936 108.501
v -16.449 4.836 95.996
v -0.384 4.836 112.859
v -13.511 4.836 125.364
v -29.576 4.836 108.501
f 408 407 406 405
f 401 402 406 405
f 402 403 407 406
f 403 404 408 407
f 404 401 405 408
v 7.302 0.902 77.966
v 23.366 0.902 94.829
v 10.238 0.902 107.334
v -5.826 0.902 90.471
v 7.302 4.802 77.966
v 23.366 4.802 94.829
v 10.238 4.802 107.334
v -5.826 4.802 90.471
f 416 415 414 413
f 409 410 414 413
f 410 411 415 414
f 411 412 416 415
f 412 409 413 416
v 26.052 0.911 57.396
v 42.116 0.911 74.259
v 28.988 0.911 86.764
v 12.924 0.911 69.901
v 26.052 4.811 57.396
v 42.116 4.811 74.259
v 28.988 4.811 86.764
v 12.924 4.811 69.901
f 424 423 422 421
f 417 418 422 421
f 418 419 423 422
f 419 420 424 423
f 420 417 421 424
v 42.662 0.911 35.026
v 58.726 0.911 51.889
v 45.598 0.911 64.394
v 29.534 0.911 47.531
v 42.662 4.811 35.026
v 58.726 4.811 51.889
v 45.598 4.811 64.394
v 29.534 4.811 47.531
f 432 431 430 429
f 425 426 430 429
f 426 427 431 430
f 427 428 432 431
f 428 425 429 432
v 65.702 1.162 15.916
v 81.766 1.162 32.779
v 68.638 1.162 45.284
v 52.574 1.162 28.421
v 65.702 5.062 15.916
v 81.766 5.062 32.779
v 68.638 5.062 45.284
v 52.574 5.062 28.421
f 440 439 438 437
f 433 434 438 437
f 434 435 439 438
f 435 436 440 439
f 436 433 437 440
v 85.892 0.990 -4.284
v 101.956 0.990 12.579
v 88.828 0.990 25.084
v 72.764 0.990 8.221
v 85.892 4.890 -4.284
v 101.956 4.890 12.579
v 88.828 4.890 25.084
v 72.764 4.890 8.221
f 448 447 446 445
f 441 442 446 445
f 442 443 447 446
f 443 444 448 447
f 444 441 445 448
v 103.232 1.068 -28.424
v 119.296 1.068 -11.561
v 106.168 1.068 0.944
v 90.104 1.068 -15.919
v 103.232 4.968 -28.424
v 119.296 4.968 -11.561
v 106.168 4.968 0.944
v 90.104 4.968 -15.919
f 456 455 454 453
f 449 450 454 453
f 450 451 455 454
f 451 452 456 455
f 452 449 453 456
v 125.902 1.167 -45.404
v 141.966 1.167 -28.540
v 128.838 1.167 -16.036
v 112.774 1.167 -32.900
v 125.902 5.067 -45.404
v 141.966 5.067 -28.540
v 128.838 5.067 -16.036
v 112.774 5.067 -32.900
f 464 463 462 461
f 457 458 462 461
f 458 459 463 462
f 459 460 464 463
f 460 457 461 464
v 168.832 1.000 -95.764
v 184.896 1.000 -78.900
v 171.768 1.000 -66.396
v 155.704 1.000 -83.260
v 168.832 4.900 -95.764
v 184.896 4.900 -78.900
v 171.768 4.900 -66.396
v 155.704 4.900 -83.260
f 472 471 470 469
f 465 466 470 469
f 466 467 471 470
f 467 468 472 471
f 468 465 469 472
v 190.432 1.148 -112.404
v 206.496 1.148 -95.540
v 193.368 1.148 -83.036
v 177.304 1.148 -99.900
v 190.432 5.048 -112.404
v 206.496 5.048 -95.540
v 193.368 5.048 -83.036
v 177.304 5.048 -99.900
f 480 479 478 477
f 473 474 478 477
f 474 475 479 478
f 475 476 480 479
f 476 473 477 480
v 211.713 0.991 -134.728
v 227.757 0.991 -117.859
v 214.627 0.991 -105.372
v 198.583 0.991 -122.241
v 211.713 4.891 -134.728
v 227.757 4.891 -117.859
v 214.627 4.891 -105.372
v 198.583 4.891 -122.241
f 488 487 486 485
f 481 482 486 485
f 482 483 487 486
f 483 484 488 487
f 484 481 485 488
v 229.382 1.157 -158.164
v 245.445 1.157 -141.300
v 232.318 1.157 -128.796
v 216.255 1.157 -145.660
v 229.382 5.057 -158.164
v 245.445 5.057 -141.300
v 232.318 5.057 -128.796
v 216.255 5.057 -145.660
f 496 495 494 493
f 489 490 494 493
f 490 491 495 494
f 491 492 496 495
f 492 489 493 496
v 251.352 0.972 -177.284
v 267.415 0.972 -160.420
v 254.288 0.972 -147.916
v 238.225 0.972 -164.780
v 251.352 4.872 -177.284
v 267.415 4.872 -160.420
v 254.288 4.872 -147.916
v 238.225 4.872 -164.780
f 504 503 502 501
f 497 498 502 501
f 498 499 503 502
f 499 500 504 503
f 500 497 501 504
v -225.868 1.293 -202.054
v -209.804 1.293 -185.191
v -222.932 1.293 -172.686
v -238.996 1.293 -189.549
v -225.868 5.193 -202.054
v -209.804 5.193 -185.191
v -222.932 5.193 -172.686
v -238.996 5.193 -189.549
f 512 511 510 509
f 505 506 510 509
f 506 507 511 510
f 507 508 512 511
f 508 505 509 512
v -203.138 1.298 -164.864
v -187.074 1.298 -148.001
v -200.202 1.298 -135.496
v -216.266 1.298 -152.359
v -203.138 5.198 -164.864
v -187.074 5.198 -148.001
v -200.202 5.198 -135.496
v -216.266 5.198 -152.359
f 520 519 518 517
f 513 514 518 517
f 514 515 519 518
f 515 516 520 519
f 516 513 517 520
v -220.478 1.339 -141.434
v -204.414 1.339 -124.571
v -217.542 1.339 -112.066
v -233.606 1.339 -128.929
v -220.478 5.239 -141.434
v -204.414 5.239 -124.571
v -217.542 5.239 -112.066
v -233.606 5.239 -128.929
f 528 527 526 525
f 521 522 526 525
f 522 523 527 526
f 523 524 528 527
f 524 521 525 528
v -239.588 1.195 -120.874
v -223.524 1.195 -104.011
v -236.652 1.195 -91.506
v -252.716 1.195 -108.369
v -239.588 5.095 -120.874
v -223.524 5.095 -104.011
v -236.652 5.095 -91.506
v -252.716 5.095 -108.369
f 536 535 534 533
f 529 530 534 533
f 530 531 535 534
f 531 532 536 535
f 532 529 533 536
v -178.238 1.229 -133.714
v -162.174 1.229 -116.851
v -175.302 1.229 -104.346
v -191.366 1.229 -121.209
v -178.238 5.129 -133.714
v -162.174 5.129 -116.851
v -175.302 5.129 -104.346
v -191.366 5.129 -121.209
f 544 543 542 541
f 537 538 542 541
f 538 539 543 542
f 539 540 544 543
f 540 537 541 544
v -131.758 1.309 -113.854
v -115.694 1.309 -96.991
v -128.822 1.309 -84.486
v -144.886 1.309 -101.349
v -131.758 5.209 -113.854
v -115.694 5.209 -96.991
v -128.822 5.209 -84.486
v -144.886 5.209 -101.349
f 552 551 550 549
f 545 546 550 549
f 546 547 551 550
f 547 548 552 551
f 548 545 549 552
v -203.798 1.319 -111.754
v -187.734 1.319 -94.891
v -200.862 1.319 -82.386
v -216.926 1.319 -99.249
v -203.798 5.219 -111.754
v -187.734 5.219 -94.891
v -200.862 5.219 -82.386
v -216.926 5.219 -99.249
f 560 559 558 557
f 553 554 558 557
f 554 555 559 558
f 555 556 560 559
f 556 553 557 560
v -220.778 1.203 -88.684
v -204.714 1.203 -71.821
v -217.842 1.203 -59.316
v -233.906 1.203 -76.179
v -220.778 5.103 -88.684
v -204.714 5.103 -71.821
v -217.842 5.103 -59.316
v -233.906 5.103 -76.179
f 568 567 566 565
f 561 562 566 565
f 562 563 567 566
f 563 564 568 567
f 564 561 565 568
v -152.998 1.264 -96.514
v -136.934 1.264 -79.651
v -150.062 1.264 -67.146
v -166.126 1.264 -84.009
v -152.998 5.164 -96.514
v -136.934 5.164 -79.651
v -150.062 5.164 -67.146
v -166.126 5.164 -84.009
f 576 575 574 573
f 569 570 574 573
f 570 571 575 574
f 571 572 576 575
f 572 569 573 576
v -170.678 1.164 -74.154
v -154.614 1.164 -57.291
v -167.742 1.164 -44.786
v -183.806 1.164 -61.649
v -170.678 5.064 -74.154
v -154.614 5.064 -57.291
v -167.742 5.064 -44.786
v -183.806 5.064 -61.649
f 584 583 582 581
f 577 578 582 581
f 578 579 583 582
f 579 580 584 583
f 580 577 581 584
v -189.438 1.148 -52.874
v -173.374 1.148 -36.011
v -186.502 1.148 -23.506
v -202.566 1.148 -40.369
v -189.438 5.048 -52.874
v -173.374 5.048 -36.011
v -186.502 5.048 -23.506
v -202.566 5.048 -40.369
f 592 591 590 589
f 585 586 590 589
f 586 587 591 590
f 587 588 592 591
f 588 585 589 592
v -214.998 1.287 -32.704
v -198.934 1.287 -15.841
v -212.062 1.287 -3.336
v -228.126 1.287 -20.199
v -214.998 5.187 -32.704
v -198.934 5.187 -15.841
v -212.062 5.187 -3.336
v -228.126 5.187 -20.199
f 600 599 598 597
f 593 594 598 597
f 594 595 599 598
f 595 596 600 599
f 596 593 597 600
v -243.458 1.158 -70.644
v -227.394 1.158 -53.781
v -240.522 1.158 -41.276
v -256.586 1.158 -58.139
v -243.458 5.058 -70.644
v -227.394 5.058 -53.781
v -240.522 5.058 -41.276
v -256.586 5.058 -58.139
f 608 607 606 605
f 601 602 606 605
f 602 603 607 606
f 603 604 608 607
f 604 601 605 608
v -231.599 1.052 -11.054
v -215.534 1.052 5.809
v -228.661 1.052 18.314
v -244.726 1.052 1.451
v -231.599 4.952 -11.054
v -215.534 4.952 5.809
v -228.661 4.952 18.314
v -244.726 4.952 1.451
f 616 615 614 613
f 609 610 614 613
f 610 611 615 614
f 611 612 616 615
f 612 609 613 616
v -251.439 1.112 9.856
v -235.374 1.112 26.719
v -248.501 1.112 39.224
v -264.566 1.112 22.361
v -251.439 5.012 9.856
v -235.374 5.012 26.719
v -248.501 5.012 39.224
v -264.566 5.012 22.361
f 624 623 622 621
f 617 618 622 621
f 618 619 623 622
f 619 620 624 623
f 620 617 621 624
v -79.455 0.978 161.200
v -59.808 0.978 174.491
v -70.285 0.978 189.980
v -89.932 0.978 176.689
v -79.455 4.878 161.200
v -59.808 4.878 174.491
v -70.285 4.878 189.980
v -89.932 4.878 176.689
f 632 631 630 629
f 625 626 630 629
f 626 627 631 630
f 627 628 632 631
f 628 625 629 632
v -115.782 1.128 177.674
v -90.881 1.128 180.212
v -92.778 1.128 198.826
v -117.679 1.128 196.288
v -115.782 6.928 177.674
v -90.881 6.928 180.212
v -92.778 6.928 198.826
v -117.679 6.928 196.288
f 640 639 638 637
f 633 634 638 637
f 634 635 639 638
f 635 636 640 639
f 636 633 637 640
v -150.342 0.978 179.941
v -128.681 0.978 172.297
v -122.618 0.978 189.479
v -144.279 0.978 197.123
v -150.342 4.878 179.941
v -128.681 4.878 172.297
v -122.618 4.878 189.479
v -144.279 4.878 197.123
f 648 647 646 645
f 641 642 646 645
f 642 643 647 646
f 643 644 648 647
f 644 641 645 648
v -188.556 1.097 151.432
v -181.435 1.097 127.186
v -163.724 1.097 132.388
v -170.845 1.097 156.634
v -188.556 6.897 151.432
v -181.435 6.897 127.186
v -163.724 6.897 132.388
v -170.845 6.897 156.634
f 656 655 654 653
f 649 650 654 653
f 650 651 655 654
f 651 652 656 655
f 652 649 653 656
v -171.638 1.129 94.640
v -166.372 1.129 117.112
v -185.182 1.129 121.520
v -190.448 1.129 99.048
v -171.638 5.029 94.640
v -166.372 5.029 117.112
v -185.182 5.029 121.520
v -190.448 5.029 99.048
f 664 663 662 661
f 657 658 662 661
f 658 659 663 662
f 659 660 664 663
f 660 657 661 664
v -143.895 0.816 136.515
v -141.822 0.816 132.725
v -139.445 0.816 134.025
v -141.518 0.816 137.815
v -143.895 4.716 136.515
v -141.822 4.716 132.725
v -139.445 4.716 134.025
v -141.518 4.716 137.815
f 672 671 670 669
f 665 666 670 669
f 666 667 671 670
f 667 668 672 671
f 668 665 669 672
v -12.424 0.488 -160.498
v -6.597 0.488 -154.365
v -9.736 0.488 -151.382
v -15.563 0.488 -157.515
v -12.424 4.388 -160.498
v -6.597 4.388 -154.365
v -9.736 4.388 -151.382
v -15.563 4.388 -157.515
f 680 679 678 677
f 673 674 678 677
f 674 675 679 678
f 675 676 680 679
f 676 673 677 680
v -89.613 1.586 -230.231
v -77.983 1.586 -232.845
v -75.687 1.586 -222.629
v -87.317 1.586 -220.015
v -89.613 5.486 -230.231
v -77.983 5.486 -232.845
v -75.687 5.486 -222.629
v -87.317 5.486 -220.015
f 688 687 686 685
f 681 682 686 685
f 682 683 687 686
f 683 684 688 687
f 684 681 685 688
v -104.190 1.434 -249.779
v -92.983 1.434 -252.696
v -91.230 1.434 -245.961
v -102.437 1.434 -243.044
v -104.190 5.334 -249.779
v -92.983 5.334 -252.696
v -91.230 5.334 -245.961
v -102.437 5.334 -243.044
f 696 695 694 693
f 689 690 694 693
f 690 691 695 694
f 691 692 696 695
f 692 689 693 696
v -169.893 0.721 -162.923
v -162.744 0.721 -171.829
v -154.407 0.721 -165.137
v -161.556 0.721 -156.231
v -169.893 4.621 -162.923
v -162.744 4.621 -171.829
v -154.407 4.621 -165.137
v -161.556 4.621 -156.231
f 704 703 702 701
f 697 698 702 701
f 698 699 703 702
f 699 700 704 703
f 700 697 701 704
v -258.839 1.328 -166.603
v -248.255 1.328 -185.605
v -230.861 1.328 -175.917
v -241.445 1.328 -156.915
v -258.839 5.228 -166.603
v -248.255 5.228 -185.605
v -230.861 5.228 -175.917
v -241.445 5.228 -156.915
f 712 711 710 709
f 705 706 710 709
f 706 707 711 710
f 707 708 712 711
f 708 705 709 712
v -251.103 1.190 219.143
v -236.179 1.190 202.871
v -222.457 1.190 215.457
v -237.381 1.190 231.729
v -251.103 5.090 219.143
v -236.179 5.090 202.871
v -222.457 5.090 215.457
v -237.381 5.090 231.729
f 720 719 718 717
f 713 714 718 717
f 714 715 719 718
f 715 716 720 719
f 716 713 717 720
v -218.830 1.416 257.367
v -203.943 1.416 241.102
v -190.230 1.416 253.653
v -205.117 1.416 269.918
v -218.830 5.316 257.367
v -203.943 5.316 241.102
v -190.230 5.316 253.653
v -205.117 5.316 269.918
f 728 727 726 725
f 721 722 726 725
f 722 723 727 726
f 723 724 728 727
f 724 721 725 728
usemtl road
v 87.018 1.087 -144.703
v 92.438 1.091 -139.353
v 96.302 1.030 -143.267
v 90.882 1.104 -148.617
f 729 730 731 732
v 92.439 1.091 -139.352
v 140.569 1.067 -91.882
v 144.431 1.071 -95.798
v 96.301 1.030 -143.268
f 733 734 735 736
v 140.568 1.067 -91.883
v 145.298 1.069 -87.213
v 149.162 1.086 -91.127
v 144.432 1.071 -95.797
f 737 738 739 740
v -231.850 1.239 -27.791
v -151.730 1.405 -109.201
v -155.650 1.467 -113.059
v -235.770 1.288 -31.649
f 741 742 743 744
v -151.647 1.406 -109.289
v -144.457 1.397 -117.269
v -148.543 1.494 -120.951
v -155.733 1.467 -112.971
f 745 746 747 748
v -143.759 1.415 -118.888
v -143.219 1.451 -125.568
v -148.701 1.484 -126.012
v -149.241 1.498 -119.332
f 749 750 751 752
v -143.534 1.453 -127.085
v -147.304 1.475 -134.145
v -152.156 1.481 -131.555
v -148.386 1.488 -124.495
f 753 754 755 756
v -147.839 1.477 -134.847
v -163.259 1.531 -149.447
v -167.041 1.504 -145.453
v -151.621 1.479 -130.853
f 757 758 759 760
v -143.166 1.116 152.370
v -146.606 1.101 145.280
v -151.554 1.093 147.680
v -148.114 1.089 154.770
f 761 762 763 764
v -146.601 1.101 145.289
v -147.581 1.099 143.249
v -152.539 1.077 145.631
v -151.559 1.093 147.671
f 765 766 767 768
v -147.436 1.099 143.616
v -150.526 1.087 133.776
v -155.774 1.143 135.424
v -152.684 1.077 145.264
f 769 770 771 772
v -150.427 1.087 134.219
v -151.827 1.104 124.219
v -157.273 1.194 124.981
v -155.873 1.146 134.981
f 773 774 775 776
v -151.810 1.103 124.836
v -151.020 1.124 115.646
v -156.500 1.208 115.174
v -157.290 1.194 124.364
f 777 778 779 780
v -151.124 1.121 116.194
v -147.084 1.194 102.614
v -152.356 1.188 101.046
v -156.396 1.208 114.626
f 781 782 783 784
v -147.491 1.188 103.441
v -139.851 1.170 92.871
v -144.309 1.179 89.649
v -151.949 1.180 100.219
f 785 786 787 788
v -140.107 1.172 93.176
v 90.923 1.111 -144.744
v 86.977 1.073 -148.576
v -144.053 1.179 89.344
f 789 790 791 792
v 90.929 1.111 -144.751
v 145.069 1.083 -200.881
v 141.111 1.097 -204.699
v 86.971 1.073 -148.569
f 793 794 795 796
v -254.032 1.301 -121.863
v -201.272 1.508 -175.899
v -205.208 1.469 -179.741
v -257.968 1.339 -125.705
f 797 798 799 800
v -203.942 1.498 -175.161
v -195.642 1.481 -172.971
v -194.238 1.454 -178.289
v -202.538 1.482 -180.479
f 801 802 803 804
v -196.821 1.479 -173.624
v -186.481 1.518 -163.924
v -182.719 1.489 -167.936
v -193.059 1.451 -177.636
f 805 806 807 808
v -186.494 1.518 -163.936
v -167.044 1.504 -145.456
v -163.256 1.532 -149.444
v -182.706 1.488 -167.924
f 809 810 811 812
v -167.970 1.062 175.162
v -213.750 1.192 222.662
v -209.790 1.170 226.478
v -164.010 1.021 178.978
f 813 814 815 816
v -237.430 1.358 252.878
v -232.510 1.304 248.178
v -236.310 1.297 244.202
v -241.230 1.361 248.902
f 817 818 819 820
v -232.511 1.304 248.179
v -209.871 1.170 226.559
v -213.669 1.192 222.581
v -236.309 1.297 244.201
f 821 822 823 824
v -147.719 1.116 151.770
v -168.069 1.062 175.270
v -163.911 1.022 178.870
v -143.561 1.095 155.370
f 825 826 827 828
v 254.030 1.037 -202.801
v 145.260 1.085 -91.088
v 149.200 1.021 -87.252
v 257.970 1.008 -198.964
f 829 830 831 832
v 145.248 1.085 -91.076
v 28.578 1.051 30.214
v 32.542 1.000 34.026
v 149.212 1.021 -87.264
f 833 834 835 836
v 28.567 1.051 30.225
v -40.253 1.102 102.625
v -36.267 1.025 106.415
v 32.553 1.000 34.015
f 837 838 839 840
v -40.233 1.102 102.604
v -89.753 1.217 153.614
v -85.807 1.066 157.446
v -36.287 1.025 106.436
f 841 842 843 844
v -89.006 1.226 153.069
v -102.516 1.193 159.799
v -100.064 1.084 164.721
v -86.554 1.065 157.991
f 845 846 847 848
v -101.729 1.197 159.545
v -113.169 1.145 161.395
v -112.291 1.040 166.825
v -100.851 1.080 164.975
f 849 850 851 852
v -112.250 1.150 161.402
v -129.570 1.107 158.332
v -130.530 1.050 163.748
v -113.210 1.038 166.818
f 853 854 855 856
v -129.228 1.105 158.416
v -138.998 1.117 155.356
v -140.642 1.029 160.604
v -130.872 1.049 163.664
f 857 858 859 860
v -138.159 1.115 155.788
v -143.979 1.117 151.378
v -147.301 1.076 155.762
v -141.481 1.032 160.172
f 861 862 863 864
v -240.628 1.338 252.064
v -236.006 1.356 257.174
v -233.410 1.367 254.826
v -238.032 1.358 249.716
f 865 866 867 868
v -237.301 1.354 249.034
v -253.971 1.283 230.810
v -258.029 1.288 234.522
v -241.359 1.318 252.746
f 869 870 871 872
v -254.399 1.692 -203.691
v -196.903 1.593 -254.691
v -199.226 1.562 -257.309
v -256.721 1.685 -206.309
f 873 874 875 876
v -144.993 1.505 -124.331
v -112.263 0.580 -146.021
v -114.197 0.612 -148.939
v -146.927 1.519 -127.249
f 877 878 879 880
v -114.048 0.593 -145.933
v -96.688 0.400 -136.753
v -95.052 0.408 -139.847
v -112.412 0.602 -149.027
f 881 882 883 884
v -94.695 0.369 -137.003
v -80.915 0.361 -149.493
v -83.265 0.425 -152.087
v -97.045 0.420 -139.597
f 885 886 887 888
v -81.029 0.361 -149.398
v -67.539 0.298 -159.678
v -69.661 0.408 -162.462
v -83.151 0.425 -152.182
f 889 890 891 892
v -67.293 0.298 -159.907
v -55.913 0.440 -172.697
v -58.527 0.460 -175.023
v -69.907 0.406 -162.233
f 893 894 895 896
v -55.878 0.441 -172.737
v -38.098 0.521 -193.987
v -40.782 0.543 -196.233
v -58.562 0.459 -174.983
f 897 898 899 900
v -39.307 0.545 -196.855
v -76.467 0.634 -199.695
v -76.733 0.629 -196.205
v -39.573 0.518 -193.365
f 901 902 903 904
v -78.231 0.634 -198.585
v -84.531 0.619 -182.395
v -81.269 0.581 -181.125
v -74.969 0.626 -197.315
f 905 906 907 908
v -84.422 0.618 -182.623
v -91.042 0.607 -170.943
v -87.998 0.572 -169.217
v -81.378 0.582 -180.897
f 909 910 911 912
v -90.975 0.607 -171.053
v -97.885 0.593 -160.723
v -94.975 0.551 -158.777
v -88.065 0.572 -169.107
f 913 914 915 916
v -97.462 0.592 -161.163
v -114.262 0.612 -148.893
v -112.198 0.580 -146.067
v -95.398 0.551 -158.337
f 917 918 919 920
v -83.415 0.600 -180.087
v -57.735 0.448 -172.187
v -56.705 0.468 -175.533
v -82.385 0.596 -183.433
f 921 922 923 924
v -90.212 0.583 -168.473
v -69.292 0.303 -159.463
v -67.908 0.380 -162.677
v -88.828 0.591 -171.687
f 925 926 927 928
v -97.357 0.568 -158.266
v -83.017 0.401 -149.306
v -81.163 0.417 -152.274
v -95.503 0.574 -161.234
f 929 930 931 932
usemtl asphalt
