# Baked ultra-low Key West silhouette; generated by bake_key_west_far_city.py
mtllib far_city.mtl
usemtl massing
v 221.428 1.277 -149.856
v 241.135 1.277 -134.149
v 229.112 1.277 -119.064
v 209.405 1.277 -134.771
v 221.428 5.177 -149.856
v 241.135 5.177 -134.149
v 229.112 5.177 -119.064
v 209.405 5.177 -134.771
f 8 7 6 5
f 1 2 6 5
f 2 3 7 6
f 3 4 8 7
f 4 1 5 8
v 242.756 1.259 -103.902
v 261.991 1.259 -89.750
v 250.784 1.259 -74.518
v 231.549 1.259 -88.670
v 242.756 5.159 -103.902
v 261.991 5.159 -89.750
v 250.784 5.159 -74.518
v 231.549 5.159 -88.670
f 16 15 14 13
f 9 10 14 13
f 10 11 15 14
f 11 12 16 15
f 12 9 13 16
v 173.508 1.347 -103.604
v 189.940 1.347 -86.167
v 176.112 1.347 -73.136
v 159.680 1.347 -90.573
v 173.508 5.247 -103.604
v 189.940 5.247 -86.167
v 176.112 5.247 -73.136
v 159.680 5.247 -90.573
f 24 23 22 21
f 17 18 22 21
f 18 19 23 22
f 19 20 24 23
f 20 17 21 24
v 157.058 1.329 -120.181
v 171.508 1.329 -146.460
v 187.622 1.329 -137.599
v 173.172 1.329 -111.320
v 157.058 7.129 -120.181
v 171.508 7.129 -146.460
v 187.622 7.129 -137.599
v 173.172 7.129 -111.320
f 32 31 30 29
f 25 26 30 29
f 26 27 31 30
f 27 28 32 31
f 28 25 29 32
v 138.926 1.427 -150.143
v 151.850 1.427 -171.415
v 168.174 1.427 -161.497
v 155.250 1.427 -140.225
v 138.926 5.327 -150.143
v 151.850 5.327 -171.415
v 168.174 5.327 -161.497
v 155.250 5.327 -140.225
f 40 39 38 37
f 33 34 38 37
f 34 35 39 38
f 35 36 40 39
f 36 33 37 40
v 200.403 1.584 -175.498
v 221.120 1.584 -164.726
v 212.217 1.584 -147.602
v 191.500 1.584 -158.374
v 200.403 5.484 -175.498
v 221.120 5.484 -164.726
v 212.217 5.484 -147.602
v 191.500 5.484 -158.374
f 48 47 46 45
f 41 42 46 45
f 42 43 47 46
f 43 44 48 47
f 44 41 45 48
v 225.011 1.556 -189.707
v 245.601 1.556 -178.610
v 236.829 1.556 -162.333
v 216.239 1.556 -173.430
v 225.011 5.456 -189.707
v 245.601 5.456 -178.610
v 236.829 5.456 -162.333
v 216.239 5.456 -173.430
f 56 55 54 53
f 49 50 54 53
f 50 51 55 54
f 51 52 56 55
f 52 49 53 56
v 126.851 1.519 -178.680
v 138.964 1.519 -199.387
v 155.149 1.519 -189.920
v 143.036 1.519 -169.213
v 126.851 5.419 -178.680
v 138.964 5.419 -199.387
v 155.149 5.419 -189.920
v 143.036 5.419 -169.213
f 64 63 62 61
f 57 58 62 61
f 58 59 63 62
f 59 60 64 63
f 60 57 61 64
v 200.770 1.452 -234.548
v 221.764 1.452 -223.571
v 212.970 1.452 -206.752
v 191.976 1.452 -217.729
v 200.770 5.352 -234.548
v 221.764 5.352 -223.571
v 212.970 5.352 -206.752
v 191.976 5.352 -217.729
f 72 71 70 69
f 65 66 70 69
f 66 67 71 70
f 67 68 72 71
f 68 65 69 72
v 226.974 1.443 -201.893
v 242.707 1.443 -229.586
v 259.566 1.443 -220.007
v 243.833 1.443 -192.314
v 226.974 7.243 -201.893
v 242.707 7.243 -229.586
v 259.566 7.243 -220.007
v 243.833 7.243 -192.314
f 80 79 78 77
f 73 74 78 77
f 74 75 79 78
f 75 76 80 79
f 76 73 77 80
v 200.754 1.238 -42.656
v 212.561 1.238 -63.320
v 229.006 1.238 -53.924
v 217.199 1.238 -33.260
v 200.754 5.138 -42.656
v 212.561 5.138 -63.320
v 229.006 5.138 -53.924
v 217.199 5.138 -33.260
f 88 87 86 85
f 81 82 86 85
f 82 83 87 86
f 83 84 88 87
f 84 81 85 88
v 155.251 1.392 -80.536
v 171.664 1.392 -63.231
v 157.929 1.392 -50.204
v 141.516 1.392 -67.509
v 155.251 5.292 -80.536
v 171.664 5.292 -63.231
v 157.929 5.292 -50.204
v 141.516 5.292 -67.509
f 96 95 94 93
f 89 90 94 93
f 90 91 95 94
f 91 92 96 95
f 92 89 93 96
v 181.024 1.449 -36.957
v 196.552 1.449 -18.854
v 182.176 1.449 -6.523
v 166.648 1.449 -24.626
v 181.024 5.349 -36.957
v 196.552 5.349 -18.854
v 182.176 5.349 -6.523
v 166.648 5.349 -24.626
f 104 103 102 101
f 97 98 102 101
f 98 99 103 102
f 99 100 104 103
f 100 97 101 104
v 155.658 1.370 -18.226
v 173.628 1.370 -2.499
v 161.162 1.370 11.746
v 143.192 1.370 -3.981
v 155.658 5.270 -18.226
v 173.628 5.270 -2.499
v 161.162 5.270 11.746
v 143.192 5.270 -3.981
f 112 111 110 109
f 105 106 110 109
f 106 107 111 110
f 107 108 112 111
f 108 105 109 112
v 133.624 1.416 -61.787
v 149.475 1.416 -43.980
v 135.336 1.416 -31.393
v 119.485 1.416 -49.200
v 133.624 5.316 -61.787
v 149.475 5.316 -43.980
v 135.336 5.316 -31.393
v 119.485 5.316 -49.200
f 120 119 118 117
f 113 114 118 117
f 114 115 119 118
f 115 116 120 119
f 116 113 117 120
v 140.393 1.638 3.899
v 156.486 1.638 21.501
v 142.507 1.638 34.281
v 126.414 1.638 16.679
v 140.393 5.538 3.899
v 156.486 5.538 21.501
v 142.507 5.538 34.281
v 126.414 5.538 16.679
f 128 127 126 125
f 121 122 126 125
f 122 123 127 126
f 123 124 128 127
f 124 121 125 128
v 154.673 1.351 42.095
v 171.268 1.351 59.239
v 157.667 1.351 72.405
v 141.072 1.351 55.261
v 154.673 5.251 42.095
v 171.268 5.251 59.239
v 157.667 5.251 72.405
v 141.072 5.251 55.261
f 136 135 134 133
f 129 130 134 133
f 130 131 135 134
f 131 132 136 135
f 132 129 133 136
v 171.594 1.190 18.226
v 188.855 1.190 34.699
v 175.786 1.190 48.394
v 158.525 1.190 31.921
v 171.594 5.090 18.226
v 188.855 5.090 34.699
v 175.786 5.090 48.394
v 158.525 5.090 31.921
f 144 143 142 141
f 137 138 142 141
f 138 139 143 142
f 139 140 144 143
f 140 137 141 144
v 192.313 1.206 -2.978
v 209.608 1.206 13.445
v 196.587 1.206 27.158
v 179.292 1.206 10.735
v 192.313 5.106 -2.978
v 209.608 5.106 13.445
v 196.587 5.106 27.158
v 179.292 5.106 10.735
f 152 151 150 149
f 145 146 150 149
f 146 147 151 150
f 147 148 152 151
f 148 145 149 152
v 215.802 1.201 -22.141
v 232.166 1.201 -4.764
v 218.378 1.201 8.221
v 202.014 1.201 -9.156
v 215.802 5.101 -22.141
v 232.166 5.101 -4.764
v 218.378 5.101 8.221
v 202.014 5.101 -9.156
f 160 159 158 157
f 153 154 158 157
f 154 155 159 158
f 155 156 160 159
f 156 153 157 160
v 234.639 1.115 22.475
v 249.974 1.115 40.741
v 235.461 1.115 52.925
v 220.126 1.115 34.659
v 234.639 5.015 22.475
v 249.974 5.015 40.741
v 235.461 5.015 52.925
v 220.126 5.015 34.659
f 168 167 166 165
f 161 162 166 165
f 162 163 167 166
f 163 164 168 167
f 164 161 165 168
v 213.291 1.183 44.513
v 228.002 1.183 63.261
v 213.109 1.183 74.947
v 198.398 1.183 56.199
v 213.291 5.083 44.513
v 228.002 5.083 63.261
v 213.109 5.083 74.947
v 198.398 5.083 56.199
f 176 175 174 173
f 169 170 174 173
f 170 171 175 174
f 171 172 176 175
f 172 169 173 176
v 193.912 1.277 67.629
v 209.578 1.277 85.652
v 195.268 1.277 98.091
v 179.602 1.277 80.068
v 193.912 5.177 67.629
v 209.578 5.177 85.652
v 195.268 5.177 98.091
v 179.602 5.177 80.068
f 184 183 182 181
f 177 178 182 181
f 178 179 183 182
f 179 180 184 183
f 180 177 181 184
v 131.212 1.271 61.639
v 147.171 1.271 79.349
v 133.108 1.271 92.021
v 117.149 1.271 74.311
v 131.212 5.171 61.639
v 147.171 5.171 79.349
v 133.108 5.171 92.021
v 117.149 5.171 74.311
f 192 191 190 189
f 185 186 190 189
f 186 187 191 190
f 187 188 192 191
f 188 185 189 192
v 172.570 1.299 87.832
v 189.221 1.299 104.935
v 175.650 1.299 118.148
v 158.999 1.299 101.045
v 172.570 5.199 87.832
v 189.221 5.199 104.935
v 175.650 5.199 118.148
v 158.999 5.199 101.045
f 200 199 198 197
f 193 194 198 197
f 194 195 199 198
f 195 196 200 199
f 196 193 197 200
v 148.188 1.312 107.785
v 166.952 1.312 122.523
v 155.272 1.312 137.395
v 136.508 1.312 122.657
v 148.188 5.212 107.785
v 166.952 5.212 122.523
v 155.272 5.212 137.395
v 136.508 5.212 122.657
f 208 207 206 205
f 201 202 206 205
f 202 203 207 206
f 203 204 208 207
f 204 201 205 208
v 131.027 1.436 131.430
v 149.719 1.436 146.274
v 137.953 1.436 161.090
v 119.261 1.436 146.246
v 131.027 5.336 131.430
v 149.719 5.336 146.274
v 137.953 5.336 161.090
v 119.261 5.336 146.246
f 216 215 214 213
f 209 210 214 213
f 210 211 215 214
f 211 212 216 215
f 212 209 213 216
v 239.433 1.011 161.146
v 255.495 1.011 178.010
v 242.367 1.011 190.514
v 226.305 1.011 173.650
v 239.433 4.911 161.146
v 255.495 4.911 178.010
v 242.367 4.911 190.514
v 226.305 4.911 173.650
f 224 223 222 221
f 217 218 222 221
f 218 219 223 222
f 219 220 224 223
f 220 217 221 224
v 27.755 1.211 -91.891
v 37.225 1.211 -83.963
v 31.705 1.211 -77.369
v 22.235 1.211 -85.297
v 27.755 5.111 -91.891
v 37.225 5.111 -83.963
v 31.705 5.111 -77.369
v 22.235 5.111 -85.297
f 232 231 230 229
f 225 226 230 229
f 226 227 231 230
f 227 228 232 231
f 228 225 229 232
v -50.628 1.691 -50.149
v -23.320 1.691 -38.522
v -32.232 1.691 -17.591
v -59.540 1.691 -29.218
v -50.628 5.591 -50.149
v -23.320 5.591 -38.522
v -32.232 5.591 -17.591
v -59.540 5.591 -29.218
f 240 239 238 237
f 233 234 238 237
f 234 235 239 238
f 235 236 240 239
f 236 233 237 240
v -119.372 1.368 67.970
v -114.667 1.368 63.470
v -112.448 1.368 65.790
v -117.153 1.368 70.290
v -119.372 5.268 67.970
v -114.667 5.268 63.470
v -112.448 5.268 65.790
v -117.153 5.268 70.290
f 248 247 246 245
f 241 242 246 245
f 242 243 247 246
f 243 244 248 247
f 244 241 245 248
v -126.881 1.419 59.559
v -124.110 1.419 57.422
v -122.199 1.419 59.901
v -124.970 1.419 62.038
v -126.881 5.319 59.559
v -124.110 5.319 57.422
v -122.199 5.319 59.901
v -124.970 5.319 62.038
f 256 255 254 253
f 249 250 254 253
f 250 251 255 254
f 251 252 256 255
f 252 249 253 256
v -130.576 1.511 53.004
v -128.195 1.511 55.112
v -130.004 1.511 57.156
v -132.385 1.511 55.048
v -130.576 5.411 53.004
v -128.195 5.411 55.112
v -130.004 5.411 57.156
v -132.385 5.411 55.048
f 264 263 262 261
f 257 258 262 261
f 258 259 263 262
f 259 260 264 263
f 260 257 261 264
v 109.937 1.403 81.376
v 126.686 1.403 98.607
v 112.883 1.403 112.024
v 96.134 1.403 94.793
v 109.937 7.203 81.376
v 126.686 7.203 98.607
v 112.883 7.203 112.024
v 96.134 7.203 94.793
f 272 271 270 269
f 265 266 270 269
f 266 267 271 270
f 267 268 272 271
f 268 265 269 272
v 97.447 1.523 43.606
v 114.196 1.523 60.837
v 100.393 1.523 74.254
v 83.644 1.523 57.023
v 97.447 7.323 43.606
v 114.196 7.323 60.837
v 100.393 7.323 74.254
v 83.644 7.323 57.023
f 280 279 278 277
f 273 274 278 277
f 274 275 279 278
f 275 276 280 279
f 276 273 277 280
v 119.411 1.583 24.362
v 136.127 1.583 41.584
v 122.329 1.583 54.978
v 105.613 1.583 37.756
v 119.411 7.383 24.362
v 136.127 7.383 41.584
v 122.329 7.383 54.978
v 105.613 7.383 37.756
f 288 287 286 285
f 281 282 286 285
f 282 283 287 286
f 283 284 288 287
f 284 281 285 288
v 78.945 1.593 66.018
v 95.639 1.593 83.247
v 81.835 1.593 96.622
v 65.141 1.593 79.393
v 78.945 7.393 66.018
v 95.639 7.393 83.247
v 81.835 7.393 96.622
v 65.141 7.393 79.393
f 296 295 294 293
f 289 290 294 293
f 290 291 295 294
f 291 292 296 295
f 292 289 293 296
v 59.175 1.684 86.848
v 75.869 1.684 104.077
v 62.065 1.684 117.452
v 45.371 1.684 100.223
v 59.175 7.484 86.848
v 75.869 7.484 104.077
v 62.065 7.484 117.452
v 45.371 7.484 100.223
f 304 303 302 301
f 297 298 302 301
f 298 299 303 302
f 299 300 304 303
f 300 297 301 304
v 90.882 1.401 105.022
v 107.597 1.401 122.245
v 93.798 1.401 135.638
v 77.083 1.401 118.415
v 90.882 7.201 105.022
v 107.597 7.201 122.245
v 93.798 7.201 135.638
v 77.083 7.201 118.415
f 312 311 310 309
f 305 306 310 309
f 306 307 311 310
f 307 308 312 311
f 308 305 309 312
v 68.779 1.431 124.443
v 85.498 1.431 141.662
v 71.701 1.431 155.057
v 54.982 1.431 137.838
v 68.779 7.231 124.443
v 85.498 7.231 141.662
v 71.701 7.231 155.057
v 54.982 7.231 137.838
f 320 319 318 317
f 313 314 318 317
f 314 315 319 318
f 315 316 320 319
f 316 313 317 320
v 49.310 1.406 149.012
v 66.005 1.406 166.239
v 52.210 1.406 179.608
v 35.515 1.406 162.381
v 49.310 7.206 149.012
v 66.005 7.206 166.239
v 52.210 7.206 179.608
v 35.515 7.206 162.381
f 328 327 326 325
f 321 322 326 325
f 322 323 327 326
f 323 324 328 327
f 324 321 325 328
v 113.400 1.454 150.439
v 130.121 1.454 167.669
v 116.320 1.454 181.061
v 99.599 1.454 163.831
v 113.400 7.254 150.439
v 130.121 7.254 167.669
v 116.320 7.254 181.061
v 99.599 7.254 163.831
f 336 335 334 333
f 329 330 334 333
f 330 331 335 334
f 331 332 336 335
f 332 329 333 336
v 37.531 1.634 105.803
v 54.247 1.634 123.023
v 40.449 1.634 136.417
v 23.733 1.634 119.197
v 37.531 7.434 105.803
v 54.247 7.434 123.023
v 40.449 7.434 136.417
v 23.733 7.434 119.197
f 344 343 342 341
f 337 338 342 341
f 338 339 343 342
f 339 340 344 343
f 340 337 341 344
v -25.191 1.659 107.163
v -8.472 1.659 124.382
v -22.269 1.659 137.777
v -38.988 1.659 120.558
v -25.191 7.459 107.163
v -8.472 7.459 124.382
v -22.269 7.459 137.777
v -38.988 7.459 120.558
f 352 351 350 349
f 345 346 350 349
f 346 347 351 350
f 347 348 352 351
f 348 345 349 352
v -7.120 1.653 83.829
v 9.601 1.653 101.059
v -4.200 1.653 114.451
v -20.921 1.653 97.221
v -7.120 7.453 83.829
v 9.601 7.453 101.059
v -4.200 7.453 114.451
v -20.921 7.453 97.221
f 360 359 358 357
f 353 354 358 357
f 354 355 359 358
f 355 356 360 359
f 356 353 357 360
v 12.975 1.635 63.638
v 29.669 1.635 80.867
v 15.865 1.635 94.242
v -0.829 1.635 77.013
v 12.975 7.435 63.638
v 29.669 7.435 80.867
v 15.865 7.435 94.242
v -0.829 7.435 77.013
f 368 367 366 365
f 361 362 366 365
f 362 363 367 366
f 363 364 368 367
f 364 361 365 368
v 35.840 1.596 45.299
v 52.561 1.596 62.529
v 38.760 1.596 75.921
v 22.039 1.596 58.691
v 35.840 7.396 45.299
v 52.561 7.396 62.529
v 38.760 7.396 75.921
v 22.039 7.396 58.691
f 376 375 374 373
f 369 370 374 373
f 370 371 375 374
f 371 372 376 375
f 372 369 373 376
v 52.346 1.527 21.816
v 69.064 1.527 39.036
v 55.274 1.527 52.424
v 38.556 1.527 35.204
v 52.346 7.327 21.816
v 69.064 7.327 39.036
v 55.274 7.327 52.424
v 38.556 7.327 35.204
f 384 383 382 381
f 377 378 382 381
f 378 379 383 382
f 379 380 384 383
f 380 377 381 384
v 73.060 1.510 0.979
v 89.781 1.510 18.210
v 75.980 1.510 31.601
v 59.259 1.510 14.370
v 73.060 7.310 0.979
v 89.781 7.310 18.210
v 75.980 7.310 31.601
v 59.259 7.310 14.370
f 392 391 390 389
f 385 386 390 389
f 386 387 391 390
f 387 388 392 391
f 388 385 389 392
v 94.850 1.503 -17.038
v 111.545 1.503 0.190
v 97.750 1.503 13.558
v 81.055 1.503 -3.670
v 94.850 7.303 -17.038
v 111.545 7.303 0.190
v 97.750 7.303 13.558
v 81.055 7.303 -3.670
f 400 399 398 397
f 393 394 398 397
f 394 395 399 398
f 395 396 400 399
f 396 393 397 400
v 112.600 1.464 -40.991
v 129.321 1.464 -23.760
v 115.520 1.464 -10.369
v 98.799 1.464 -27.600
v 112.600 7.264 -40.991
v 129.321 7.264 -23.760
v 115.520 7.264 -10.369
v 98.799 7.264 -27.600
f 408 407 406 405
f 401 402 406 405
f 402 403 407 406
f 403 404 408 407
f 404 401 405 408
v 4.219 1.794 146.606
v 21.053 1.794 130.861
v 34.141 1.794 144.854
v 17.307 1.794 160.599
v 4.219 5.694 146.606
v 21.053 5.694 130.861
v 34.141 5.694 144.854
v 17.307 5.694 160.599
f 416 415 414 413
f 409 410 414 413
f 410 411 415 414
f 411 412 416 415
f 412 409 413 416
v -173.224 1.319 52.106
v -156.276 1.319 36.058
v -149.916 1.319 42.774
v -166.864 1.319 58.822
v -173.224 5.219 52.106
v -156.276 5.219 36.058
v -149.916 5.219 42.774
v -166.864 5.219 58.822
f 424 423 422 421
f 417 418 422 421
f 418 419 423 422
f 419 420 424 423
f 420 417 421 424
v -197.345 1.765 174.211
v -184.912 1.765 184.455
v -191.615 1.765 192.589
v -204.048 1.765 182.345
v -197.345 5.665 174.211
v -184.912 5.665 184.455
v -191.615 5.665 192.589
v -204.048 5.665 182.345
f 432 431 430 429
f 425 426 430 429
f 426 427 431 430
f 427 428 432 431
f 428 425 429 432
v -226.565 1.811 159.221
v -175.340 1.811 256.939
v -243.555 1.811 292.699
v -294.780 1.811 194.981
v -226.565 10.111 159.221
v -175.340 10.111 256.939
v -243.555 10.111 292.699
v -294.780 10.111 194.981
f 440 439 438 437
f 433 434 438 437
f 434 435 439 438
f 435 436 440 439
f 436 433 437 440
v 219.603 1.057 180.226
v 235.665 1.057 197.090
v 222.537 1.057 209.594
v 206.475 1.057 192.730
v 219.603 4.957 180.226
v 235.665 4.957 197.090
v 222.537 4.957 209.594
v 206.475 4.957 192.730
f 448 447 446 445
f 441 442 446 445
f 442 443 447 446
f 443 444 448 447
f 444 441 445 448
v 198.713 0.991 200.776
v 214.775 0.991 217.640
v 201.647 0.991 230.144
v 185.585 0.991 213.280
v 198.713 4.891 200.776
v 214.775 4.891 217.640
v 201.647 4.891 230.144
v 185.585 4.891 213.280
f 456 455 454 453
f 449 450 454 453
f 450 451 455 454
f 451 452 456 455
f 452 449 453 456
v 180.663 0.962 223.486
v 196.725 0.962 240.350
v 183.597 0.962 252.854
v 167.535 0.962 235.990
v 180.663 4.862 223.486
v 196.725 4.862 240.350
v 183.597 4.862 252.854
v 167.535 4.862 235.990
f 464 463 462 461
f 457 458 462 461
f 458 459 463 462
f 459 460 464 463
f 460 457 461 464
v 244.463 1.047 221.706
v 260.525 1.047 238.570
v 247.397 1.047 251.074
v 231.335 1.047 234.210
v 244.463 4.947 221.706
v 260.525 4.947 238.570
v 247.397 4.947 251.074
v 231.335 4.947 234.210
f 472 471 470 469
f 465 466 470 469
f 466 467 471 470
f 467 468 472 471
f 468 465 469 472
v 69.722 1.541 194.706
v 85.785 1.541 211.570
v 72.658 1.541 224.074
v 56.595 1.541 207.210
v 69.722 5.441 194.706
v 85.785 5.441 211.570
v 72.658 5.441 224.074
v 56.595 5.441 207.210
f 480 479 478 477
f 473 474 478 477
f 474 475 479 478
f 475 476 480 479
f 476 473 477 480
v 89.213 1.517 170.576
v 105.275 1.517 187.440
v 92.147 1.517 199.944
v 76.085 1.517 183.080
v 89.213 5.417 170.576
v 105.275 5.417 187.440
v 92.147 5.417 199.944
v 76.085 5.417 183.080
f 488 487 486 485
f 481 482 486 485
f 482 483 487 486
f 483 484 488 487
f 484 481 485 488
v 61.322 1.049 245.706
v 67.248 1.049 251.827
v 63.418 1.049 255.534
v 57.492 1.049 249.413
v 61.322 4.949 245.706
v 67.248 4.949 251.827
v 63.418 4.949 255.534
v 57.492 4.949 249.413
f 496 495 494 493
f 489 490 494 493
f 490 491 495 494
f 491 492 496 495
f 492 489 493 496
v 59.241 0.929 238.008
v 63.982 0.929 242.980
v 60.299 0.929 246.492
v 55.558 0.929 241.520
v 59.241 4.829 238.008
v 63.982 4.829 242.980
v 60.299 4.829 246.492
v 55.558 4.829 241.520
f 504 503 502 501
f 497 498 502 501
f 498 499 503 502
f 499 500 504 503
f 500 497 501 504
v 53.144 0.755 255.737
v 56.582 0.755 252.849
v 58.576 0.755 255.223
v 55.138 0.755 258.111
v 53.144 4.655 255.737
v 56.582 4.655 252.849
v 58.576 4.655 255.223
v 55.138 4.655 258.111
f 512 511 510 509
f 505 506 510 509
f 506 507 511 510
f 507 508 512 511
f 508 505 509 512
v -69.343 1.561 232.361
v -60.391 1.561 267.746
v -79.577 1.561 272.599
v -88.529 1.561 237.214
v -69.343 7.361 232.361
v -60.391 7.361 267.746
v -79.577 7.361 272.599
v -88.529 7.361 237.214
f 520 519 518 517
f 513 514 518 517
f 514 515 519 518
f 515 516 520 519
f 516 513 517 520
v -49.180 1.548 215.993
v -35.007 1.548 273.853
v -44.700 1.548 276.227
v -58.873 1.548 218.367
v -49.180 7.348 215.993
v -35.007 7.348 273.853
v -44.700 7.348 276.227
v -58.873 7.348 218.367
f 528 527 526 525
f 521 522 526 525
f 522 523 527 526
f 523 524 528 527
f 524 521 525 528
v -30.266 1.477 221.873
v -16.124 1.477 279.184
v -25.454 1.477 281.487
v -39.596 1.477 224.176
v -30.266 7.277 221.873
v -16.124 7.277 279.184
v -25.454 7.277 281.487
v -39.596 7.277 224.176
f 536 535 534 533
f 529 530 534 533
f 530 531 535 534
f 531 532 536 535
f 532 529 533 536
v -59.044 1.661 210.388
v -54.731 1.661 227.059
v -68.236 1.661 230.552
v -72.549 1.661 213.881
v -59.044 5.561 210.388
v -54.731 5.561 227.059
v -68.236 5.561 230.552
v -72.549 5.561 213.881
f 544 543 542 541
f 537 538 542 541
f 538 539 543 542
f 539 540 544 543
f 540 537 541 544
v -72.513 1.647 207.791
v -68.201 1.647 224.111
v -78.787 1.647 226.909
v -83.099 1.647 210.589
v -72.513 5.547 207.791
v -68.201 5.547 224.111
v -78.787 5.547 226.909
v -83.099 5.547 210.589
f 552 551 550 549
f 545 546 550 549
f 546 547 551 550
f 547 548 552 551
f 548 545 549 552
v -82.974 1.624 205.417
v -78.865 1.624 220.963
v -89.606 1.624 223.803
v -93.715 1.624 208.257
v -82.974 5.524 205.417
v -78.865 5.524 220.963
v -89.606 5.524 223.803
v -93.715 5.524 208.257
f 560 559 558 557
f 553 554 558 557
f 554 555 559 558
f 555 556 560 559
f 556 553 557 560
v -96.600 1.542 232.047
v -85.193 1.542 229.586
v -83.660 1.542 236.693
v -95.067 1.542 239.154
v -96.600 5.442 232.047
v -85.193 5.442 229.586
v -83.660 5.442 236.693
v -95.067 5.442 239.154
f 568 567 566 565
f 561 562 566 565
f 562 563 567 566
f 563 564 568 567
f 564 561 565 568
v -90.662 1.708 240.231
v -86.294 1.708 257.281
v -93.898 1.708 259.229
v -98.266 1.708 242.179
v -90.662 5.608 240.231
v -86.294 5.608 257.281
v -93.898 5.608 259.229
v -98.266 5.608 242.179
f 576 575 574 573
f 569 570 574 573
f 570 571 575 574
f 571 572 576 575
f 572 569 573 576
v -118.494 1.526 206.316
v -113.055 1.526 222.105
v -119.786 1.526 224.424
v -125.225 1.526 208.635
v -118.494 5.426 206.316
v -113.055 5.426 222.105
v -119.786 5.426 224.424
v -125.225 5.426 208.635
f 584 583 582 581
f 577 578 582 581
f 578 579 583 582
f 579 580 584 583
f 580 577 581 584
v -105.444 1.478 195.008
v -103.920 1.478 200.790
v -109.316 1.478 202.212
v -110.840 1.478 196.430
v -105.444 5.378 195.008
v -103.920 5.378 200.790
v -109.316 5.378 202.212
v -110.840 5.378 196.430
f 592 591 590 589
f 585 586 590 589
f 586 587 591 590
f 587 588 592 591
f 588 585 589 592
v -127.353 1.600 252.051
v -110.570 1.600 247.728
v -108.607 1.600 255.349
v -125.390 1.600 259.672
v -127.353 5.500 252.051
v -110.570 5.500 247.728
v -108.607 5.500 255.349
v -125.390 5.500 259.672
f 600 599 598 597
f 593 594 598 597
f 594 595 599 598
f 595 596 600 599
f 596 593 597 600
v 0.013 1.600 215.255
v 14.826 1.600 276.313
v -5.173 1.600 281.165
v -19.986 1.600 220.107
v 0.013 9.900 215.255
v 14.826 9.900 276.313
v -5.173 9.900 281.165
v -19.986 9.900 220.107
f 608 607 606 605
f 601 602 606 605
f 602 603 607 606
f 603 604 608 607
f 604 601 605 608
v -60.091 1.645 199.364
v -40.569 1.645 180.552
v -28.829 1.645 192.736
v -48.351 1.645 211.548
v -60.091 7.445 199.364
v -40.569 7.445 180.552
v -28.829 7.445 192.736
v -48.351 7.445 211.548
f 616 615 614 613
f 609 610 614 613
f 610 611 615 614
f 611 612 616 615
f 612 609 613 616
v -39.885 1.541 194.707
v -29.205 1.541 180.492
v -18.715 1.541 188.373
v -29.395 1.541 202.588
v -39.885 5.441 194.707
v -29.205 5.441 180.492
v -18.715 5.441 188.373
v -29.395 5.441 202.588
f 624 623 622 621
f 617 618 622 621
f 618 619 623 622
f 619 620 624 623
f 620 617 621 624
v -39.660 1.729 212.787
v -27.710 1.729 205.135
v -22.000 1.729 214.053
v -33.950 1.729 221.705
v -39.660 5.629 212.787
v -27.710 5.629 205.135
v -22.000 5.629 214.053
v -33.950 5.629 221.705
f 632 631 630 629
f 625 626 630 629
f 626 627 631 630
f 627 628 632 631
f 628 625 629 632
v -124.891 1.525 226.227
v -120.571 1.525 243.309
v -127.309 1.525 245.013
v -131.629 1.525 227.931
v -124.891 5.425 226.227
v -120.571 5.425 243.309
v -127.309 5.425 245.013
v -131.629 5.425 227.931
f 640 639 638 637
f 633 634 638 637
f 634 635 639 638
f 635 636 640 639
f 636 633 637 640
usemtl road
v 196.391 1.037 257.909
v 257.979 1.150 194.054
v 254.021 1.154 190.236
v 192.432 1.062 254.091
f 641 642 643 644
v 254.018 1.256 -18.932
v 244.728 1.216 -9.277
v 248.692 1.173 -5.463
v 257.982 1.174 -15.118
f 645 646 647 648
v 244.727 1.216 -9.275
v 58.607 1.595 184.435
v 62.573 1.514 188.245
v 248.693 1.173 -5.465
f 649 650 651 652
v 58.738 1.594 184.307
v 45.778 1.676 196.117
v 49.482 1.640 200.183
v 62.442 1.514 188.373
f 653 654 655 656
v 47.366 1.678 195.413
v 43.326 1.661 195.803
v 43.854 1.666 201.277
v 47.894 1.647 200.887
f 657 658 659 660
v 43.320 1.661 195.803
v 38.250 1.692 196.303
v 38.790 1.658 201.777
v 43.860 1.666 201.277
f 661 662 663 664
v 40.664 1.694 197.318
v 39.604 1.672 195.998
v 35.316 1.698 199.442
v 36.376 1.668 200.762
f 665 666 667 668
v 39.405 1.668 195.775
v 21.435 1.701 177.805
v 17.545 1.767 181.695
v 35.515 1.691 199.665
f 669 670 671 672
v 21.371 1.701 177.744
v -6.739 1.760 151.394
v -10.501 1.793 155.406
v 17.609 1.766 181.756
f 673 674 675 676
v -6.199 1.755 152.095
v -8.749 1.774 147.365
v -13.591 1.810 149.975
v -11.041 1.806 154.705
f 677 678 679 680
v -8.422 1.769 148.770
v -8.322 1.783 146.030
v -13.818 1.840 145.830
v -13.918 1.811 148.570
f 681 682 683 684
v -8.390 1.779 146.548
v -7.090 1.802 140.908
v -12.450 1.831 139.672
v -13.750 1.846 145.312
f 685 686 687 688
v -7.789 1.800 142.197
v 212.831 1.360 -86.993
v 208.869 1.335 -90.807
v -11.751 1.825 138.383
f 689 690 691 692
v 212.829 1.360 -86.991
v 218.289 1.400 -92.651
v 214.331 1.426 -96.469
v 208.871 1.335 -90.809
f 693 694 695 696
v 144.445 1.324 -220.603
v 147.605 1.317 -214.693
v 152.455 1.297 -217.287
v 149.295 1.347 -223.197
f 697 698 699 700
v 147.604 1.317 -214.694
v 170.324 1.481 -172.164
v 175.176 1.508 -174.756
v 152.456 1.297 -217.286
f 701 702 703 704
v 170.342 1.481 -172.131
v 209.452 1.393 -101.281
v 214.268 1.350 -103.939
v 175.158 1.508 -174.789
f 705 706 707 708
v 209.453 1.393 -101.280
v 213.903 1.406 -93.230
v 218.717 1.404 -95.890
v 214.267 1.350 -103.940
f 709 710 711 712
v 213.901 1.406 -93.233
v 249.201 1.232 -29.143
v 254.019 1.154 -31.797
v 218.719 1.404 -95.887
f 713 714 715 716
v 249.200 1.232 -29.145
v 253.590 1.254 -21.160
v 258.410 1.227 -23.809
v 254.020 1.154 -31.795
f 717 718 719 720
v -230.276 1.183 83.176
v -236.676 1.160 77.036
v -240.484 1.147 81.004
v -234.084 1.181 87.144
f 721 722 723 724
v -236.683 1.160 77.029
v -254.103 1.280 60.434
v -257.897 1.299 64.416
v -240.477 1.147 81.011
f 725 726 727 728
v 41.776 1.168 -162.744
v 63.166 1.268 -126.774
v 67.894 1.293 -129.586
v 46.504 1.173 -165.556
f 729 730 731 732
v 63.095 1.267 -126.902
v 72.765 1.351 -108.482
v 77.635 1.350 -111.038
v 67.965 1.293 -129.458
f 733 734 735 736
v 72.518 1.348 -109.152
v 75.708 1.385 -95.082
v 81.072 1.415 -96.298
v 77.882 1.356 -110.368
f 737 738 739 740
v 75.697 1.381 -96.249
v 72.337 1.398 -80.069
v 77.723 1.437 -78.951
v 81.083 1.420 -95.131
f 741 742 743 744
v 72.917 1.395 -81.269
v 63.077 1.416 -69.449
v 67.303 1.487 -65.931
v 77.143 1.444 -77.751
f 745 746 747 748
v 63.252 1.416 -69.641
v -122.808 1.613 115.149
v -118.932 1.564 119.051
v 67.128 1.486 -65.739
f 749 750 751 752
v -122.407 1.616 114.820
v -126.977 1.565 117.900
v -123.903 1.571 122.460
v -119.333 1.563 119.380
f 753 754 755 756
v -127.117 1.566 118.001
v -144.707 1.740 131.541
v -141.353 1.704 135.899
v -123.763 1.571 122.359
f 757 758 759 760
v -143.599 1.743 131.029
v -156.659 1.618 133.789
v -155.521 1.601 139.171
v -142.461 1.699 136.411
f 761 762 763 764
v -155.952 1.627 133.733
v -174.012 1.469 132.823
v -174.288 1.438 138.317
v -156.228 1.594 139.227
f 765 766 767 768
v -172.954 1.473 133.094
v -189.224 1.502 125.234
v -191.616 1.489 130.186
v -175.346 1.430 138.046
f 769 770 771 772
v -188.464 1.499 125.777
v -216.144 1.300 97.767
v -220.056 1.308 101.633
v -192.376 1.488 129.643
f 773 774 775 776
v -216.124 1.301 97.788
v -223.634 1.174 90.028
v -227.586 1.198 93.852
v -220.076 1.308 101.612
f 777 778 779 780
v -223.635 1.174 90.026
v -230.205 1.182 83.246
v -234.155 1.182 87.074
v -227.585 1.198 93.854
f 781 782 783 784
v 206.345 1.360 -258.399
v 145.525 1.328 -224.299
v 148.215 1.261 -219.501
v 209.035 1.349 -253.601
f 785 786 787 788
v 145.467 1.328 -224.265
v 138.777 1.307 -220.295
v 141.583 1.215 -215.565
v 148.273 1.261 -219.535
f 789 790 791 792
v 138.836 1.307 -220.329
v 42.796 1.161 -166.549
v 45.484 1.135 -161.751
v 141.524 1.214 -215.531
f 793 794 795 796
v 42.733 1.161 -166.513
v 4.873 1.207 -143.963
v 7.687 1.225 -139.237
v 45.547 1.135 -161.787
f 797 798 799 800
v 4.720 1.207 -143.864
v -28.370 1.239 -121.064
v -25.250 1.239 -116.536
v 7.840 1.226 -139.336
f 801 802 803 804
v -28.597 1.239 -120.890
v -50.507 1.222 -102.150
v -46.933 1.243 -97.970
v -25.023 1.237 -116.710
f 805 806 807 808
v -50.665 1.221 -102.004
v -81.345 1.276 -71.304
v -77.455 1.265 -67.416
v -46.775 1.243 -98.116
f 809 810 811 812
v -81.383 1.276 -71.265
v -104.523 1.337 -47.175
v -100.557 1.314 -43.365
v -77.417 1.265 -67.455
f 813 814 815 816
v -104.495 1.337 -47.204
v -224.395 1.196 73.966
v -220.485 1.179 77.834
v -100.585 1.314 -43.336
f 817 818 819 820
v -224.335 1.196 73.907
v -234.075 1.189 83.167
v -230.285 1.143 87.153
v -220.545 1.179 77.893
f 821 822 823 824
v -234.152 1.189 83.244
v -241.672 1.192 90.984
v -237.728 1.175 94.816
v -230.208 1.142 87.076
f 825 826 827 828
v 174.049 1.518 -171.036
v 222.189 1.702 -196.826
v 219.591 1.715 -201.674
v 171.451 1.514 -175.884
f 829 830 831 832
v 217.977 1.404 -92.373
v 243.537 1.395 -111.863
v 240.203 1.417 -116.237
v 214.643 1.429 -96.747
f 833 834 835 836
v -47.014 1.248 -100.451
v -55.094 1.220 -135.721
v -58.506 1.268 -134.939
v -50.426 1.245 -99.669
f 837 838 839 840
v -55.189 1.233 -134.646
v -52.989 1.207 -139.826
v -56.211 1.217 -141.194
v -58.411 1.261 -136.014
f 841 842 843 844
v -53.623 1.204 -139.058
v 8.837 1.447 -181.118
v 6.883 1.435 -184.022
v -55.577 1.229 -141.962
f 845 846 847 848
v 8.548 1.452 -180.961
v 73.978 1.466 -208.941
v 72.602 1.344 -212.159
v 7.172 1.431 -184.179
f 849 850 851 852
v 74.151 1.466 -209.027
v 134.381 1.464 -243.087
v 132.659 1.508 -246.133
v 72.429 1.341 -212.073
f 853 854 855 856
v -122.024 1.579 118.416
v -99.224 1.693 138.406
v -96.916 1.671 135.774
v -119.716 1.610 115.784
f 857 858 859 860
v -97.636 1.693 138.785
v -89.346 1.438 136.665
v -90.214 1.600 133.275
v -98.504 1.675 135.395
f 861 862 863 864
v -90.167 1.481 136.677
v -72.567 1.156 140.667
v -71.793 1.170 137.253
v -89.393 1.567 133.263
f 865 866 867 868
v -99.503 1.692 138.095
v -80.393 1.773 165.355
v -77.527 1.783 163.345
v -96.637 1.671 136.085
f 869 870 871 872
v -80.393 1.773 165.354
v -78.753 1.801 167.694
v -75.887 1.807 165.686
v -77.527 1.783 163.346
f 873 874 875 876
v -77.957 1.813 168.320
v -62.237 1.845 174.460
v -60.963 1.832 171.200
v -76.683 1.797 165.060
f 877 878 879 880
v -61.814 1.842 174.567
v -56.614 1.870 175.207
v -56.186 1.842 171.733
v -61.386 1.831 171.093
f 881 882 883 884
v -56.612 1.870 175.207
v -37.812 1.862 177.497
v -37.388 1.805 174.023
v -56.188 1.842 171.733
f 885 886 887 888
v -38.449 1.858 177.290
v -20.099 1.856 187.470
v -18.401 1.834 184.410
v -36.751 1.808 174.230
f 889 890 891 892
v -20.645 1.858 186.997
v -17.325 1.838 191.377
v -14.535 1.829 189.263
v -17.855 1.836 184.883
f 893 894 895 896
v -104.513 1.354 -43.354
v -90.823 1.458 -29.254
v -86.877 1.491 -33.086
v -100.567 1.333 -47.186
f 897 898 899 900
v -87.703 1.551 -28.671
v -80.033 1.527 -32.191
v -82.327 1.466 -37.189
v -89.997 1.456 -33.669
f 901 902 903 904
v -82.143 1.531 -32.114
v -72.033 1.581 -28.334
v -70.107 1.650 -33.486
v -80.217 1.487 -37.266
f 905 906 907 908
v -73.769 1.564 -30.384
v -71.799 1.632 -20.284
v -66.401 1.776 -21.336
v -68.371 1.673 -31.436
f 909 910 911 912
v -71.308 1.625 -22.449
v -76.808 1.651 -15.039
v -72.392 1.798 -11.761
v -66.892 1.796 -19.171
f 913 914 915 916
v -76.472 1.654 -15.414
v -80.432 1.665 -11.734
v -76.688 1.848 -7.706
v -72.728 1.806 -11.386
f 917 918 919 920
v -80.438 1.665 -11.729
v -82.278 1.664 -10.009
v -78.522 1.854 -5.991
v -76.682 1.848 -7.711
f 921 922 923 924
v -82.136 1.665 -10.133
v -87.626 1.730 -5.663
v -84.154 1.866 -1.397
v -78.664 1.855 -5.867
f 925 926 927 928
v -87.570 1.730 -5.707
v -90.460 1.733 -3.477
v -87.100 1.820 0.877
v -84.210 1.866 -1.353
f 929 930 931 932
v -90.800 1.449 -33.109
v -98.170 1.522 -25.699
v -94.270 1.515 -21.821
v -86.900 1.567 -29.231
f 933 934 935 936
v -98.168 1.522 -25.701
v -105.608 1.659 -18.231
v -101.712 1.680 -14.349
v -94.272 1.515 -21.819
f 937 938 939 940
v -98.356 1.534 -22.028
v -91.536 1.635 -13.618
v -87.264 1.616 -17.082
v -94.084 1.480 -25.492
f 941 942 943 944
v -90.668 1.642 -12.910
v -79.828 1.737 -7.280
v -77.292 1.690 -12.160
v -88.132 1.606 -17.790
f 945 946 947 948
v -207.924 1.542 2.305
v -198.274 1.648 -10.465
v -201.066 1.553 -12.575
v -210.716 1.551 0.195
f 949 950 951 952
v -197.963 1.648 -11.134
v -190.403 0.896 -44.604
v -193.817 0.471 -45.376
v -201.377 1.559 -11.906
f 953 954 955 956
v -190.796 0.920 -43.834
v -154.086 0.339 -85.584
v -156.714 0.254 -87.896
v -193.424 0.465 -46.146
f 957 958 959 960
v -154.130 0.339 -85.536
v -120.770 0.316 -120.706
v -123.310 0.281 -123.114
v -156.670 0.254 -87.944
f 961 962 963 964
v -120.760 0.316 -120.716
v -100.190 0.623 -142.766
v -102.750 0.439 -145.154
v -123.320 0.281 -123.104
f 965 966 967 968
v -100.308 0.618 -142.651
v -77.538 0.968 -162.871
v -79.862 0.914 -165.489
v -102.632 0.444 -145.269
f 969 970 971 972
v -77.819 0.970 -162.668
v -19.589 1.248 -196.588
v -21.351 1.196 -199.612
v -79.581 0.922 -165.692
f 973 974 975 976
v -19.774 1.248 -196.494
v 36.176 1.194 -220.734
v 34.784 0.895 -223.946
v -21.166 1.197 -199.706
f 977 978 979 980
v 36.260 1.195 -220.774
v 93.340 1.031 -249.214
v 91.780 0.780 -252.346
v 34.700 0.893 -223.906
f 981 982 983 984
v 41.896 1.707 198.978
v 44.346 1.556 208.458
v 47.734 1.614 207.582
v 45.284 1.690 198.102
f 985 986 987 988
v 44.720 1.551 209.169
v 51.330 1.511 216.759
v 53.970 1.702 214.461
v 47.360 1.608 206.871
f 989 990 991 992
v 51.402 1.511 216.837
v 62.082 1.468 227.697
v 64.578 1.630 225.243
v 53.898 1.702 214.383
f 993 994 995 996
v 61.687 1.477 227.073
v 65.957 1.348 238.713
v 69.243 1.431 237.507
v 64.973 1.623 225.867
f 997 998 999 1000
v 65.913 1.349 238.576
v 67.783 1.280 245.346
v 71.157 1.377 244.414
v 69.287 1.429 237.644
f 1001 1002 1003 1004
v 69.498 1.290 246.630
v 75.748 1.387 246.530
v 75.692 1.432 243.030
v 69.442 1.364 243.130
f 1005 1006 1007 1008
v 74.516 1.387 246.050
v 86.358 1.384 257.270
v 88.765 1.306 254.730
v 76.924 1.421 243.510
f 1009 1010 1011 1012
v -80.560 1.765 163.640
v -86.720 1.794 177.520
v -83.520 1.844 178.940
v -77.360 1.793 165.060
f 1013 1014 1015 1016
v -86.848 1.795 178.510
v -84.748 1.819 191.480
v -81.292 1.836 190.920
v -83.392 1.834 177.950
f 1017 1018 1019 1020
v -83.917 1.824 192.703
v -74.987 1.880 198.033
v -73.193 1.894 195.027
v -82.123 1.835 189.697
f 1021 1022 1023 1024
v -73.213 1.894 198.044
v -62.583 2.011 191.884
v -64.337 1.918 188.856
v -74.967 1.878 195.016
f 1025 1026 1027 1028
v -61.977 2.012 191.299
v -55.817 1.907 181.469
v -58.783 1.859 179.611
v -64.943 1.916 189.441
f 1029 1030 1031 1032
v -55.564 1.894 180.761
v -54.664 1.867 173.691
v -58.136 1.849 173.249
v -59.036 1.863 180.319
f 1033 1034 1035 1036
v -112.699 0.170 -257.380
v -115.416 0.120 -255.260
v -113.264 0.120 -252.500
v -110.546 0.120 -254.620
f 1037 1038 1039 1040
v -115.417 0.120 -255.260
v -118.967 0.120 -252.490
v -116.813 0.120 -249.730
v -113.263 0.120 -252.500
f 1041 1042 1043 1044
v -254.738 1.461 140.350
v -221.768 1.215 106.032
v -224.292 1.216 103.608
v -257.262 1.489 137.925
f 1045 1046 1047 1048
v -221.769 1.215 106.034
v -216.839 1.343 100.914
v -219.361 1.310 98.486
v -224.291 1.216 103.606
f 1049 1050 1051 1052
v -249.604 1.653 177.749
v -209.344 1.682 136.279
v -211.856 1.612 133.841
v -252.116 1.577 175.311
f 1053 1054 1055 1056
v -201.809 1.766 143.467
v -193.099 1.502 133.437
v -195.741 1.495 131.143
v -204.451 1.740 141.173
f 1057 1058 1059 1060
v -193.102 1.502 133.441
v -189.102 1.507 128.861
v -191.738 1.511 126.559
v -195.738 1.495 131.139
f 1061 1062 1063 1064
v -256.523 1.479 173.511
v -252.073 1.636 177.791
v -249.647 1.610 175.269
v -254.097 1.472 170.989
f 1065 1066 1067 1068
v -211.820 1.629 136.315
v -204.350 1.772 143.575
v -201.910 1.735 141.065
v -209.380 1.655 133.805
f 1069 1070 1071 1072
v -204.351 1.772 143.574
v -178.881 1.713 168.384
v -176.439 1.746 165.876
v -201.909 1.735 141.066
f 1073 1074 1075 1076
v -178.910 1.713 168.355
v -146.770 1.838 201.135
v -144.270 1.810 198.685
v -176.410 1.746 165.905
f 1077 1078 1079 1080
usemtl asphalt
