# Baked ultra-low Key West silhouette; generated by bake_key_west_far_city.py
mtllib far_city.mtl
usemtl massing
v 82.693 -0.300 -92.302
v 111.095 -0.300 45.205
v -16.413 -0.300 71.542
v -44.815 -0.300 -65.965
v 82.693 6.500 -92.302
v 111.095 6.500 45.205
v -16.413 6.500 71.542
v -44.815 6.500 -65.965
f 8 7 6 5
f 1 2 6 5
f 2 3 7 6
f 3 4 8 7
f 4 1 5 8
v -76.823 1.603 78.059
v -40.903 1.603 41.307
v -8.557 1.603 72.921
v -44.477 1.603 109.673
v -76.823 9.903 78.059
v -40.903 9.903 41.307
v -8.557 9.903 72.921
v -44.477 9.903 109.673
f 16 15 14 13
f 9 10 14 13
f 10 11 15 14
f 11 12 16 15
f 12 9 13 16
v -8.828 1.732 214.978
v 2.106 1.732 199.171
v 12.328 1.732 206.242
v 1.394 1.732 222.049
v -8.828 5.632 214.978
v 2.106 5.632 199.171
v 12.328 5.632 206.242
v 1.394 5.632 222.049
f 24 23 22 21
f 17 18 22 21
f 18 19 23 22
f 19 20 24 23
f 20 17 21 24
v 168.382 1.450 -37.821
v 200.546 1.450 -114.629
v 256.498 1.450 -91.199
v 224.334 1.450 -14.391
v 168.382 9.750 -37.821
v 200.546 9.750 -114.629
v 256.498 9.750 -91.199
v 224.334 9.750 -14.391
f 32 31 30 29
f 25 26 30 29
f 26 27 31 30
f 27 28 32 31
f 28 25 29 32
v 133.188 -0.300 248.306
v 266.688 -0.300 66.918
v 318.232 -0.300 104.854
v 184.732 -0.300 286.242
v 133.188 6.500 248.306
v 266.688 6.500 66.918
v 318.232 6.500 104.854
v 184.732 6.500 286.242
f 40 39 38 37
f 33 34 38 37
f 34 35 39 38
f 35 36 40 39
f 36 33 37 40
v -201.896 2.195 16.322
v -132.748 2.195 68.225
v -141.224 2.195 79.518
v -210.372 2.195 27.615
v -201.896 10.495 16.322
v -132.748 10.495 68.225
v -141.224 10.495 79.518
v -210.372 10.495 27.615
f 48 47 46 45
f 41 42 46 45
f 42 43 47 46
f 43 44 48 47
f 44 41 45 48
v -197.481 1.752 178.253
v -99.763 1.752 73.384
v -88.299 1.752 84.067
v -186.017 1.752 188.936
v -197.481 10.052 178.253
v -99.763 10.052 73.384
v -88.299 10.052 84.067
v -186.017 10.052 188.936
f 56 55 54 53
f 49 50 54 53
f 50 51 55 54
f 51 52 56 55
f 52 49 53 56
v -155.842 1.667 79.533
v -126.204 1.667 45.525
v -113.878 1.667 56.267
v -143.516 1.667 90.275
v -155.842 7.467 79.533
v -126.204 7.467 45.525
v -113.878 7.467 56.267
v -143.516 7.467 90.275
f 64 63 62 61
f 57 58 62 61
f 58 59 63 62
f 59 60 64 63
f 60 57 61 64
v -122.615 2.286 123.865
v -83.262 2.286 83.114
v -72.285 2.286 93.715
v -111.638 2.286 134.466
v -122.615 8.086 123.865
v -83.262 8.086 83.114
v -72.285 8.086 93.715
v -111.638 8.086 134.466
f 72 71 70 69
f 65 66 70 69
f 66 67 71 70
f 67 68 72 71
f 68 65 69 72
v -168.349 2.160 55.839
v -150.267 2.160 71.190
v -160.531 2.160 83.281
v -178.613 2.160 67.930
v -168.349 6.060 55.839
v -150.267 6.060 71.190
v -160.531 6.060 83.281
v -178.613 6.060 67.930
f 80 79 78 77
f 73 74 78 77
f 74 75 79 78
f 75 76 80 79
f 76 73 77 80
v -105.285 1.631 175.041
v -93.793 1.631 135.966
v -61.855 1.631 145.359
v -73.347 1.631 184.434
v -105.285 7.431 175.041
v -93.793 7.431 135.966
v -61.855 7.431 145.359
v -73.347 7.431 184.434
f 88 87 86 85
f 81 82 86 85
f 82 83 87 86
f 83 84 88 87
f 84 81 85 88
v 58.145 1.709 149.440
v 82.596 1.709 164.658
v 68.255 1.709 187.700
v 43.804 1.709 172.482
v 58.145 7.509 149.440
v 82.596 7.509 164.658
v 68.255 7.509 187.700
v 43.804 7.509 172.482
f 96 95 94 93
f 89 90 94 93
f 90 91 95 94
f 91 92 96 95
f 92 89 93 96
v 101.709 0.748 157.986
v 111.719 0.748 164.836
v 106.151 0.748 172.974
v 96.141 0.748 166.124
v 101.709 4.648 157.986
v 111.719 4.648 164.836
v 106.151 4.648 172.974
v 96.141 4.648 166.124
f 104 103 102 101
f 97 98 102 101
f 98 99 103 102
f 99 100 104 103
f 100 97 101 104
v 88.189 0.672 152.802
v 95.483 0.672 142.626
v 103.171 0.672 148.138
v 95.877 0.672 158.314
v 88.189 4.572 152.802
v 95.483 4.572 142.626
v 103.171 4.572 148.138
v 95.877 4.572 158.314
f 112 111 110 109
f 105 106 110 109
f 106 107 111 110
f 107 108 112 111
f 108 105 109 112
v 69.176 0.664 138.376
v 80.258 0.664 122.808
v 89.244 0.664 129.204
v 78.162 0.664 144.772
v 69.176 4.564 138.376
v 80.258 4.564 122.808
v 89.244 4.564 129.204
v 78.162 4.564 144.772
f 120 119 118 117
f 113 114 118 117
f 114 115 119 118
f 115 116 120 119
f 116 113 117 120
v 86.420 0.973 146.824
v 120.765 0.973 110.033
v 142.900 0.973 130.696
v 108.555 0.973 167.487
v 86.420 6.773 146.824
v 120.765 6.773 110.033
v 142.900 6.773 130.696
v 108.555 6.773 167.487
f 128 127 126 125
f 121 122 126 125
f 122 123 127 126
f 123 124 128 127
f 124 121 125 128
v 203.459 1.888 -245.097
v 210.310 1.888 -237.689
v 206.001 1.888 -233.703
v 199.150 1.888 -241.111
v 203.459 5.788 -245.097
v 210.310 5.788 -237.689
v 206.001 5.788 -233.703
v 199.150 5.788 -241.111
f 136 135 134 133
f 129 130 134 133
f 130 131 135 134
f 131 132 136 135
f 132 129 133 136
v -265.437 1.028 215.186
v -235.017 1.028 212.598
v -233.743 1.028 227.574
v -264.163 1.028 230.162
v -265.437 4.928 215.186
v -235.017 4.928 212.598
v -233.743 4.928 227.574
v -264.163 4.928 230.162
f 144 143 142 141
f 137 138 142 141
f 138 139 143 142
f 139 140 144 143
f 140 137 141 144
v -236.389 1.007 234.880
v -198.307 1.007 219.500
v -192.491 1.007 233.900
v -230.573 1.007 249.280
v -236.389 4.907 234.880
v -198.307 4.907 219.500
v -192.491 4.907 233.900
v -230.573 4.907 249.280
f 152 151 150 149
f 145 146 150 149
f 146 147 151 150
f 147 148 152 151
f 148 145 149 152
v -182.632 0.860 228.415
v -177.605 0.860 246.872
v -189.328 0.860 250.065
v -194.355 0.860 231.608
v -182.632 4.760 228.415
v -177.605 4.760 246.872
v -189.328 4.760 250.065
v -194.355 4.760 231.608
f 160 159 158 157
f 153 154 158 157
f 154 155 159 158
f 155 156 160 159
f 156 153 157 160
v -232.500 1.187 200.429
v -194.033 1.187 187.854
v -189.680 1.187 201.171
v -228.147 1.187 213.746
v -232.500 5.087 200.429
v -194.033 5.087 187.854
v -189.680 5.087 201.171
v -228.147 5.087 213.746
f 168 167 166 165
f 161 162 166 165
f 162 163 167 166
f 163 164 168 167
f 164 161 165 168
v -262.605 1.054 187.375
v -233.649 1.054 181.335
v -231.515 1.054 191.565
v -260.471 1.054 197.605
v -262.605 4.954 187.375
v -233.649 4.954 181.335
v -231.515 4.954 191.565
v -260.471 4.954 197.605
f 176 175 174 173
f 169 170 174 173
f 170 171 175 174
f 171 172 176 175
f 172 169 173 176
v -113.586 1.414 132.774
v -92.254 1.414 134.203
v -93.374 1.414 150.926
v -114.706 1.414 149.497
v -113.586 5.314 132.774
v -92.254 5.314 134.203
v -93.374 5.314 150.926
v -114.706 5.314 149.497
f 184 183 182 181
f 177 178 182 181
f 178 179 183 182
f 179 180 184 183
f 180 177 181 184
v -127.919 0.836 -7.067
v -114.603 0.836 2.472
v -121.061 0.836 11.487
v -134.377 0.836 1.948
v -127.919 4.736 -7.067
v -114.603 4.736 2.472
v -121.061 4.736 11.487
v -134.377 4.736 1.948
f 192 191 190 189
f 185 186 190 189
f 186 187 191 190
f 187 188 192 191
f 188 185 189 192
v -110.915 0.777 -18.226
v -97.146 0.777 -7.951
v -103.905 0.777 1.106
v -117.674 0.777 -9.169
v -110.915 4.677 -18.226
v -97.146 4.677 -7.951
v -103.905 4.677 1.106
v -117.674 4.677 -9.169
f 200 199 198 197
f 193 194 198 197
f 194 195 199 198
f 195 196 200 199
f 196 193 197 200
v -94.731 0.747 -30.484
v -80.746 0.747 -20.031
v -87.649 0.747 -10.796
v -101.634 0.747 -21.249
v -94.731 4.647 -30.484
v -80.746 4.647 -20.031
v -87.649 4.647 -10.796
v -101.634 4.647 -21.249
f 208 207 206 205
f 201 202 206 205
f 202 203 207 206
f 203 204 208 207
f 204 201 205 208
v -77.557 0.768 -40.822
v -64.906 0.768 -32.470
v -72.823 0.768 -20.478
v -85.474 0.768 -28.830
v -77.557 4.668 -40.822
v -64.906 4.668 -32.470
v -72.823 4.668 -20.478
v -85.474 4.668 -28.830
f 216 215 214 213
f 209 210 214 213
f 210 211 215 214
f 211 212 216 215
f 212 209 213 216
v -62.388 0.806 -52.009
v -49.079 0.806 -43.775
v -57.012 0.806 -30.951
v -70.321 0.806 -39.185
v -62.388 4.706 -52.009
v -49.079 4.706 -43.775
v -57.012 4.706 -30.951
v -70.321 4.706 -39.185
f 224 223 222 221
f 217 218 222 221
f 218 219 223 222
f 219 220 224 223
f 220 217 221 224
v -46.581 0.793 -62.144
v -33.832 0.793 -53.294
v -41.759 0.793 -41.876
v -54.508 0.793 -50.726
v -46.581 4.693 -62.144
v -33.832 4.693 -53.294
v -41.759 4.693 -41.876
v -54.508 4.693 -50.726
f 232 231 230 229
f 225 226 230 229
f 226 227 231 230
f 227 228 232 231
f 228 225 229 232
v -28.425 0.789 -75.441
v -16.389 0.789 -66.897
v -24.395 0.789 -55.619
v -36.431 0.789 -64.163
v -28.425 4.689 -75.441
v -16.389 4.689 -66.897
v -24.395 4.689 -55.619
v -36.431 4.689 -64.163
f 240 239 238 237
f 233 234 238 237
f 234 235 239 238
f 235 236 240 239
f 236 233 237 240
v -13.828 0.788 -86.666
v -0.562 0.788 -79.063
v -7.892 0.788 -66.274
v -21.158 0.788 -73.877
v -13.828 4.688 -86.666
v -0.562 4.688 -79.063
v -7.892 4.688 -66.274
v -21.158 4.688 -73.877
f 248 247 246 245
f 241 242 246 245
f 242 243 247 246
f 243 244 248 247
f 244 241 245 248
v 2.890 0.803 -96.137
v 14.356 0.803 -87.999
v 7.190 0.803 -77.903
v -4.276 0.803 -86.041
v 2.890 4.703 -96.137
v 14.356 4.703 -87.999
v 7.190 4.703 -77.903
v -4.276 4.703 -86.041
f 256 255 254 253
f 249 250 254 253
f 250 251 255 254
f 251 252 256 255
f 252 249 253 256
v 17.363 0.756 -106.415
v 29.791 0.756 -98.791
v 22.977 0.756 -87.685
v 10.549 0.756 -95.309
v 17.363 4.656 -106.415
v 29.791 4.656 -98.791
v 22.977 4.656 -87.685
v 10.549 4.656 -95.309
f 264 263 262 261
f 257 258 262 261
f 258 259 263 262
f 259 260 264 263
f 260 257 261 264
v 29.055 0.735 -111.848
v 39.297 0.735 -122.600
v 48.565 0.735 -113.772
v 38.323 0.735 -103.020
v 29.055 4.635 -111.848
v 39.297 4.635 -122.600
v 48.565 4.635 -113.772
v 38.323 4.635 -103.020
f 272 271 270 269
f 265 266 270 269
f 266 267 271 270
f 267 268 272 271
f 268 265 269 272
v 41.166 0.695 -120.214
v 50.126 0.695 -132.530
v 60.194 0.695 -125.206
v 51.234 0.695 -112.890
v 41.166 4.595 -120.214
v 50.126 4.595 -132.530
v 60.194 4.595 -125.206
v 51.234 4.595 -112.890
f 280 279 278 277
f 273 274 278 277
f 274 275 279 278
f 275 276 280 279
f 276 273 277 280
v 53.103 0.845 -127.690
v 61.096 0.845 -140.371
v 71.697 0.845 -133.690
v 63.704 0.845 -121.009
v 53.103 4.745 -127.690
v 61.096 4.745 -140.371
v 71.697 4.745 -133.690
v 63.704 4.745 -121.009
f 288 287 286 285
f 281 282 286 285
f 282 283 287 286
f 283 284 288 287
f 284 281 285 288
v 64.464 0.846 -135.391
v 72.851 0.846 -148.473
v 82.996 0.846 -141.969
v 74.609 0.846 -128.887
v 64.464 4.746 -135.391
v 72.851 4.746 -148.473
v 82.996 4.746 -141.969
v 74.609 4.746 -128.887
f 296 295 294 293
f 289 290 294 293
f 290 291 295 294
f 291 292 296 295
f 292 289 293 296
v 78.380 0.835 -109.083
v 99.326 0.835 -133.049
v 111.720 0.835 -122.217
v 90.774 0.835 -98.251
v 78.380 6.635 -109.083
v 99.326 6.635 -133.049
v 111.720 6.635 -122.217
v 90.774 6.635 -98.251
f 304 303 302 301
f 297 298 302 301
f 298 299 303 302
f 299 300 304 303
f 300 297 301 304
v 61.102 0.867 -85.366
v 75.617 0.867 -108.759
v 87.938 0.867 -101.114
v 73.423 0.867 -77.721
v 61.102 4.767 -85.366
v 75.617 4.767 -108.759
v 87.938 4.767 -101.114
v 73.423 4.767 -77.721
f 312 311 310 309
f 305 306 310 309
f 306 307 311 310
f 307 308 312 311
f 308 305 309 312
v 77.335 0.883 -66.318
v 91.458 0.883 -85.673
v 101.725 0.883 -78.182
v 87.602 0.883 -58.827
v 77.335 4.783 -66.318
v 91.458 4.783 -85.673
v 101.725 4.783 -78.182
v 87.602 4.783 -58.827
f 320 319 318 317
f 313 314 318 317
f 314 315 319 318
f 315 316 320 319
f 316 313 317 320
v 104.883 0.838 -67.274
v 120.843 0.838 -94.768
v 127.977 0.838 -90.626
v 112.017 0.838 -63.132
v 104.883 4.738 -67.274
v 120.843 4.738 -94.768
v 127.977 4.738 -90.626
v 112.017 4.738 -63.132
f 328 327 326 325
f 321 322 326 325
f 322 323 327 326
f 323 324 328 327
f 324 321 325 328
v 91.927 0.870 -38.105
v 122.159 0.870 -62.489
v 128.493 0.870 -54.635
v 98.261 0.870 -30.251
v 91.927 4.770 -38.105
v 122.159 4.770 -62.489
v 128.493 4.770 -54.635
v 98.261 4.770 -30.251
f 336 335 334 333
f 329 330 334 333
f 330 331 335 334
f 331 332 336 335
f 332 329 333 336
v 122.226 0.878 -38.604
v 149.622 0.878 -63.681
v 155.374 0.878 -57.396
v 127.978 0.878 -32.319
v 122.226 4.778 -38.604
v 149.622 4.778 -63.681
v 155.374 4.778 -57.396
v 127.978 4.778 -32.319
f 344 343 342 341
f 337 338 342 341
f 338 339 343 342
f 339 340 344 343
f 340 337 341 344
v 126.695 0.664 6.415
v 151.384 0.664 -36.696
v 158.265 0.664 -32.755
v 133.576 0.664 10.356
v 126.695 4.564 6.415
v 151.384 4.564 -36.696
v 158.265 4.564 -32.755
v 133.576 4.564 10.356
f 352 351 350 349
f 345 346 350 349
f 346 347 351 350
f 347 348 352 351
f 348 345 349 352
v 163.890 0.758 -8.422
v 173.414 0.758 0.010
v 169.330 0.758 4.622
v 159.806 0.758 -3.810
v 163.890 4.658 -8.422
v 173.414 4.658 0.010
v 169.330 4.658 4.622
v 159.806 4.658 -3.810
f 360 359 358 357
f 353 354 358 357
f 354 355 359 358
f 355 356 360 359
f 356 353 357 360
v 153.533 0.703 -10.011
v 178.975 0.703 -38.880
v 185.727 0.703 -32.929
v 160.285 0.703 -4.060
v 153.533 4.603 -10.011
v 178.975 4.603 -38.880
v 185.727 4.603 -32.929
v 160.285 4.603 -4.060
f 368 367 366 365
f 361 362 366 365
f 362 363 367 366
f 363 364 368 367
f 364 361 365 368
v 213.877 0.949 -31.128
v 223.628 0.949 -24.411
v 219.703 0.949 -18.712
v 209.952 0.949 -25.429
v 213.877 4.849 -31.128
v 223.628 4.849 -24.411
v 219.703 4.849 -18.712
v 209.952 4.849 -25.429
f 376 375 374 373
f 369 370 374 373
f 370 371 375 374
f 371 372 376 375
f 372 369 373 376
v 239.096 1.403 -108.450
v 274.072 1.403 -84.394
v 257.604 1.403 -60.450
v 222.628 1.403 -84.506
v 239.096 7.203 -108.450
v 274.072 7.203 -84.394
v 257.604 7.203 -60.450
v 222.628 7.203 -84.506
f 384 383 382 381
f 377 378 382 381
f 378 379 383 382
f 379 380 384 383
f 380 377 381 384
usemtl road
v -63.907 1.552 239.438
v -15.887 1.600 206.848
v -17.853 1.548 203.952
v -65.873 1.553 236.542
f 385 386 387 388
v 169.783 1.179 33.373
v 171.833 1.187 36.673
v 174.807 1.180 34.827
v 172.757 1.190 31.527
f 389 390 391 392
v 171.935 1.185 36.820
v 177.375 0.966 43.860
v 180.145 0.965 41.720
v 174.705 1.182 34.680
f 393 394 395 396
v 177.339 0.967 43.812
v 220.219 0.777 103.422
v 223.061 0.779 101.378
v 180.181 0.964 41.768
f 397 398 399 400
v 220.219 0.777 103.421
v 232.979 0.824 121.171
v 235.821 0.822 119.129
v 223.061 0.779 101.379
f 401 402 403 404
v 232.980 0.824 121.172
v 245.320 0.797 138.322
v 248.160 0.800 136.278
v 235.820 0.822 119.128
f 405 406 407 408
v 245.319 0.797 138.322
v 254.579 0.788 151.194
v 257.421 0.790 149.150
v 248.161 0.800 136.278
f 409 410 411 412
v 222.673 0.783 103.813
v 239.073 0.710 91.823
v 237.007 0.711 88.997
v 220.607 0.765 100.987
f 413 414 415 416
v 239.073 0.710 91.823
v 257.033 0.629 78.687
v 254.967 0.609 75.862
v 237.007 0.711 88.997
f 417 418 419 420
v 257.433 0.598 74.457
v 249.033 0.628 62.466
v 246.167 0.651 64.474
v 254.567 0.613 76.465
f 421 422 423 424
v 249.034 0.628 62.467
v 238.364 0.629 47.207
v 235.496 0.629 49.213
v 246.166 0.651 64.473
f 425 426 427 428
v 238.364 0.629 47.207
v 226.124 0.689 29.697
v 223.256 0.623 31.703
v 235.496 0.629 49.213
f 429 430 431 432
v 226.101 0.689 29.665
v 223.951 0.680 26.735
v 221.129 0.662 28.805
v 223.279 0.623 31.735
f 433 434 435 436
v 223.492 0.652 29.238
v 256.952 0.738 7.530
v 255.048 0.762 4.594
v 221.588 0.684 26.302
f 437 438 439 440
v 213.897 0.705 66.551
v 237.937 0.633 49.641
v 235.923 0.622 46.779
v 211.883 0.714 63.689
f 441 442 443 444
v 108.290 1.904 244.611
v 103.280 1.861 241.371
v 101.380 1.726 244.309
v 106.390 1.759 247.549
f 445 446 447 448
v 102.890 1.856 241.182
v 73.780 1.556 231.352
v 72.660 1.485 234.668
v 101.770 1.729 244.498
f 449 450 451 452
v 26.762 1.635 215.219
v -0.098 1.221 176.149
v -2.982 1.223 178.131
v 23.878 1.662 217.201
f 453 454 455 456
v 0.190 1.276 177.401
v 0.430 1.227 175.811
v -3.030 1.141 175.289
v -3.270 1.180 176.879
f 457 458 459 460
v -66.406 1.542 238.864
v -56.716 1.745 255.664
v -53.684 1.705 253.916
v -63.374 1.530 237.116
f 461 462 463 464
v -129.618 2.873 260.922
v -77.668 2.618 224.702
v -84.532 2.620 214.858
v -136.481 1.807 251.078
f 465 466 467 468
v -43.460 1.543 130.706
v -40.710 1.368 138.686
v -35.510 1.250 136.894
v -38.260 1.480 128.914
f 469 470 471 472
v -40.242 1.369 139.526
v -21.172 1.103 162.946
v -16.908 1.141 159.474
v -35.978 1.275 136.054
f 473 474 475 476
v -21.174 1.103 162.945
v -14.224 1.168 171.495
v -9.956 1.148 168.025
v -16.906 1.141 159.475
f 477 478 479 480
v -38.883 1.508 127.898
v -46.833 1.702 119.678
v -50.787 1.669 123.502
v -42.837 1.510 131.722
f 481 482 483 484
v -46.808 1.701 119.705
v -120.428 1.755 41.495
v -124.432 1.707 45.265
v -50.812 1.669 123.475
f 485 486 487 488
v -120.015 1.751 44.695
v -114.645 1.473 34.835
v -119.475 1.482 32.205
v -124.845 1.706 42.065
f 489 490 491 492
v -114.677 1.474 34.893
v -100.087 1.096 9.563
v -104.853 1.212 6.817
v -119.443 1.481 32.147
f 493 494 495 496
v -100.323 1.098 9.908
v -91.713 0.997 -0.852
v -96.007 0.975 -4.288
v -104.617 1.210 6.472
f 497 498 499 500
v -92.319 0.999 -0.292
v -78.159 1.392 -9.872
v -81.241 1.038 -14.428
v -95.401 0.975 -4.848
f 501 502 503 504
v -78.108 1.398 -9.908
v 41.732 1.088 -94.978
v 38.548 1.025 -99.462
v -81.292 1.038 -14.392
f 505 506 507 508
v 41.145 1.146 -94.660
v 48.505 0.847 -97.550
v 46.495 1.102 -102.670
v 39.135 1.038 -99.780
f 509 510 511 512
v 47.584 0.879 -97.361
v 55.424 0.833 -97.601
v 55.256 0.835 -103.099
v 47.416 1.053 -102.859
f 513 514 515 516
v 172.559 1.188 31.266
v 168.929 1.115 27.316
v 166.351 1.107 29.684
v 169.981 1.182 33.634
f 517 518 519 520
v 169.143 1.121 27.604
v 162.623 0.900 16.664
v 159.617 0.958 18.456
v 166.137 1.103 29.396
f 521 522 523 524
v 95.899 1.129 90.535
v 90.339 1.015 83.285
v 87.561 1.020 85.415
v 93.121 1.137 92.665
f 525 526 527 528
v 90.358 1.015 83.310
v 78.608 1.204 67.400
v 75.792 1.183 69.480
v 87.542 1.019 85.390
f 529 530 531 532
v 78.608 1.204 67.400
v 55.908 2.483 36.670
v 53.092 2.486 38.750
v 75.792 1.183 69.480
f 533 534 535 536
v -9.013 1.022 134.050
v 16.287 1.032 115.450
v 14.213 1.032 112.630
v -11.087 1.082 131.230
f 537 538 539 540
v 16.289 1.032 115.448
v 24.009 0.982 109.748
v 21.931 0.980 106.932
v 14.211 1.032 112.632
f 541 542 543 544
v 24.007 0.982 109.750
v 32.927 0.941 103.190
v 30.853 0.952 100.370
v 21.933 0.980 106.930
f 545 546 547 548
v 32.927 0.941 103.189
v 44.817 0.974 94.439
v 42.743 0.936 91.621
v 30.853 0.952 100.371
f 549 550 551 552
v 44.817 0.974 94.440
v 61.227 1.045 82.370
v 59.153 1.081 79.550
v 42.743 0.936 91.620
f 553 554 555 556
v 61.227 1.045 82.369
v 78.237 1.173 69.849
v 76.163 1.222 67.031
v 59.153 1.081 79.551
f 557 558 559 560
v 78.224 1.173 69.859
v 92.884 1.109 59.279
v 90.836 1.143 56.441
v 76.176 1.222 67.021
f 561 562 563 564
v 92.885 1.109 59.279
v 109.375 1.257 47.369
v 107.325 1.317 44.531
v 90.835 1.143 56.441
f 565 566 567 568
v 109.374 1.257 47.369
v 124.924 1.398 36.149
v 122.876 1.413 33.311
v 107.326 1.317 44.531
f 569 570 571 572
v 149.523 0.958 21.358
v 154.133 0.997 21.588
v 154.307 0.968 18.092
v 149.697 0.945 17.862
f 573 574 575 576
v 154.538 0.993 21.561
v 158.598 0.955 20.811
v 157.962 0.972 17.369
v 153.902 0.965 18.119
f 577 578 579 580
v 159.110 0.954 20.631
v 161.950 0.931 19.101
v 160.290 0.938 16.019
v 157.450 0.976 17.549
f 581 582 583 584
v 162.028 0.929 19.056
v 167.778 1.035 15.566
v 165.962 0.893 12.574
v 160.212 0.940 16.064
f 585 586 587 588
v 167.950 1.028 15.447
v 188.620 0.753 -0.753
v 186.460 0.885 -3.507
v 165.790 0.893 12.693
f 589 590 591 592
v 189.032 0.749 -1.215
v 191.172 0.826 -4.705
v 188.188 0.894 -6.535
v 186.048 0.888 -3.045
f 593 594 595 596
v 191.377 0.831 -5.194
v 192.287 0.865 -8.824
v 188.893 0.913 -9.676
v 187.983 0.890 -6.046
f 597 598 599 600
v 192.337 0.870 -9.347
v 192.017 0.861 -15.097
v 188.523 0.913 -14.903
v 188.843 0.911 -9.153
f 601 602 603 604
v 191.893 0.860 -15.655
v 189.383 0.845 -21.875
v 186.137 0.913 -20.565
v 188.647 0.915 -14.345
f 605 606 607 608
v 189.058 0.850 -22.394
v 174.008 0.862 -39.034
v 171.412 0.933 -36.686
v 186.462 0.915 -20.046
f 609 610 611 612
v 173.828 0.860 -39.207
v 142.928 0.878 -64.857
v 140.692 0.946 -62.163
v 171.592 0.935 -36.513
f 613 614 615 616
v 143.189 0.878 -64.587
v 137.339 0.895 -72.077
v 134.581 0.946 -69.923
v 140.431 0.947 -62.433
f 617 618 619 620
v 137.598 0.895 -71.616
v 134.458 0.852 -79.966
v 131.182 0.908 -78.734
v 134.322 0.950 -70.384
f 621 622 623 624
v 134.470 0.852 -79.933
v 130.480 0.807 -91.233
v 127.180 0.865 -90.067
v 131.170 0.908 -78.767
f 625 626 627 628
v 130.341 0.806 -91.533
v 128.681 0.799 -94.373
v 125.659 0.870 -92.607
v 127.319 0.865 -89.767
f 629 630 631 632
v 128.369 0.802 -94.764
v 125.319 0.821 -97.634
v 122.921 0.891 -95.086
v 125.971 0.866 -92.216
f 633 634 635 636
v 124.953 0.822 -97.899
v 121.793 0.825 -99.609
v 120.127 0.908 -96.531
v 123.287 0.888 -94.821
f 637 638 639 640
v 121.398 0.826 -99.764
v 116.638 0.846 -100.994
v 115.762 0.910 -97.606
v 120.522 0.906 -96.376
f 641 642 643 644
v 115.924 0.852 -101.028
v 109.214 0.901 -99.958
v 109.766 0.974 -96.502
v 116.476 0.907 -97.572
f 645 646 647 648
v 108.986 0.903 -99.906
v 96.216 0.973 -96.066
v 97.224 0.976 -92.714
v 109.994 0.972 -96.554
f 649 650 651 652
v 96.733 0.967 -96.140
v 92.693 1.024 -96.170
v 92.667 1.028 -92.670
v 96.707 0.980 -92.640
f 653 654 655 656
v 93.464 1.012 -95.985
v 87.914 1.079 -98.765
v 86.346 1.081 -95.635
v 91.896 1.033 -92.855
f 657 658 659 660
v 88.560 1.071 -98.209
v 78.050 1.110 -113.099
v 75.190 1.100 -111.081
v 85.700 1.087 -96.191
f 661 662 663 664
v 77.586 1.092 -113.549
v 73.826 1.084 -116.039
v 71.894 1.112 -113.121
v 75.654 1.100 -110.631
f 665 666 667 668
v 72.948 1.092 -116.328
v 67.758 1.091 -116.588
v 67.582 1.090 -113.092
v 72.772 1.118 -112.832
f 669 670 671 672
v 66.887 1.091 -116.405
v 60.187 1.022 -113.055
v 61.753 1.003 -109.925
v 68.453 1.092 -113.275
f 673 674 675 676
v 59.572 1.009 -112.543
v 55.732 0.912 -107.443
v 58.528 0.901 -105.337
v 62.368 1.017 -110.437
f 677 678 679 680
v 55.452 0.893 -106.887
v 53.662 0.790 -100.847
v 57.018 0.869 -99.853
v 58.808 0.913 -105.893
f 681 682 683 684
v 53.591 0.788 -100.285
v 53.811 0.774 -94.385
v 57.309 0.858 -94.515
v 57.089 0.873 -100.415
f 685 686 687 688
v 54.140 0.776 -93.427
v 90.990 0.881 -42.247
v 93.830 0.888 -44.293
v 56.980 0.858 -95.473
f 689 690 691 692
v 91.257 0.877 -41.954
v 95.367 0.834 -38.354
v 97.673 0.878 -40.986
v 93.563 0.890 -44.586
f 693 694 695 696
v 95.620 0.829 -38.169
v 121.110 0.795 -22.889
v 122.910 0.980 -25.891
v 97.420 0.883 -41.171
f 697 698 699 700
v 120.649 0.817 -23.290
v 122.959 0.869 -20.430
v 125.681 1.016 -22.630
v 123.371 0.986 -25.490
f 701 702 703 704
v 122.770 0.847 -20.717
v 132.120 0.907 -2.887
v 135.220 0.988 -4.513
v 125.870 1.020 -22.343
f 705 706 707 708
v 132.052 0.908 -3.034
v 136.272 0.960 7.226
v 139.508 1.004 5.894
v 135.288 0.988 -4.366
f 709 710 711 712
v 136.314 0.961 7.320
v 138.914 0.952 12.710
v 142.066 0.962 11.190
v 139.466 1.005 5.800
f 713 714 715 716
v 139.154 0.948 13.081
v 143.184 0.895 17.841
v 145.856 0.954 15.579
v 141.826 0.965 10.819
f 717 718 719 720
v 143.654 0.896 18.231
v 148.744 0.936 21.131
v 150.476 0.942 18.089
v 145.386 0.949 15.189
f 721 722 723 724
v 202.013 1.166 -208.146
v 253.933 1.176 -148.973
v 258.067 0.977 -152.601
v 206.147 1.090 -211.774
f 725 726 727 728
v -188.029 1.151 257.692
v -179.091 1.132 255.322
v -179.989 1.083 251.938
v -188.926 1.150 254.308
f 729 730 731 732
v -178.407 1.135 254.964
v -171.777 1.150 249.334
v -174.043 1.110 246.666
v -180.673 1.078 252.296
f 733 734 735 736
v -171.424 1.149 248.924
v -167.694 1.180 242.924
v -170.666 1.138 241.076
v -174.396 1.106 247.076
f 737 738 739 740
v -167.468 1.184 242.365
v -166.098 1.228 235.935
v -169.522 1.185 235.205
v -170.892 1.133 241.635
f 741 742 743 744
v -166.101 1.231 235.195
v -167.181 1.270 230.275
v -170.599 1.205 231.025
v -169.519 1.178 235.945
f 745 746 747 748
v -167.455 1.274 229.649
v -169.785 1.282 226.309
v -172.655 1.252 228.311
v -170.325 1.204 231.651
f 749 750 751 752
v -170.237 1.283 225.862
v -174.037 1.301 223.282
v -176.003 1.294 226.178
v -172.203 1.245 228.758
f 753 754 755 756
v -174.565 1.304 223.040
v -180.475 1.307 221.450
v -181.385 1.320 224.830
v -175.475 1.290 226.420
f 757 758 759 760
v -180.528 1.307 221.437
v -255.598 1.226 203.711
v -256.402 1.229 207.117
v -181.332 1.320 224.843
f 761 762 763 764
v 16.620 1.564 253.956
v -23.550 1.733 241.726
v -24.570 1.737 245.074
v 15.600 1.570 257.304
f 765 766 767 768
v -28.027 1.799 236.772
v -56.087 1.712 253.282
v -54.313 1.767 256.298
v -26.253 1.685 239.788
f 769 770 771 772
v 87.567 1.653 175.510
v 95.677 1.580 179.630
v 97.263 1.612 176.510
v 89.153 1.543 172.390
f 773 774 775 776
v 95.012 1.567 179.038
v 112.882 1.745 205.948
v 115.798 1.749 204.012
v 97.928 1.613 177.102
f 777 778 779 780
v 113.629 1.752 206.579
v 119.989 1.816 209.409
v 121.411 1.797 206.211
v 115.051 1.734 203.381
f 781 782 783 784
v 120.884 1.821 209.550
v 126.934 1.766 208.910
v 126.566 1.727 205.430
v 120.516 1.800 206.070
f 785 786 787 788
v 127.573 1.760 208.714
v 136.883 1.681 203.754
v 135.237 1.631 200.666
v 125.927 1.737 205.626
f 789 790 791 792
v 136.368 1.679 203.933
v 142.968 1.718 202.753
v 142.352 1.666 199.307
v 135.752 1.632 200.487
f 793 794 795 796
v 142.286 1.713 202.740
v 147.996 1.782 203.990
v 148.744 1.751 200.570
v 143.034 1.673 199.320
f 797 798 799 800
v 147.350 1.777 203.702
v 154.700 1.837 208.972
v 156.740 1.845 206.128
v 149.390 1.759 200.858
f 801 802 803 804
v 154.898 1.838 209.095
v 173.088 1.596 218.775
v 174.732 1.604 215.685
v 156.542 1.843 206.005
f 805 806 807 808
v 172.575 1.606 218.362
v 180.065 1.439 227.192
v 182.735 1.463 224.928
v 175.245 1.593 216.098
f 809 810 811 812
v 179.971 1.440 227.070
v 200.691 1.086 256.390
v 203.549 1.086 254.370
v 182.829 1.461 225.050
f 813 814 815 816
v 197.753 1.109 -115.318
v 158.453 1.099 -88.088
v 160.447 1.147 -85.212
v 199.747 1.158 -112.442
f 817 818 819 820
v 223.691 0.652 29.263
v 199.261 0.665 46.253
v 201.259 0.680 49.127
v 225.689 0.624 32.137
f 821 822 823 824
v 198.843 0.683 48.717
v 211.473 0.719 66.147
v 214.307 0.708 64.093
v 201.677 0.662 46.663
f 825 826 827 828
v 211.467 0.719 66.138
v 222.277 0.756 81.248
v 225.123 0.746 79.212
v 214.313 0.708 64.102
f 829 830 831 832
v 224.705 0.775 81.663
v 248.605 0.617 64.903
v 246.595 0.652 62.037
v 222.695 0.744 78.797
f 833 834 835 836
v 125.315 1.405 33.701
v 103.215 2.441 3.311
v 100.385 2.447 5.369
v 122.485 1.403 35.759
f 837 838 839 840
v 100.796 2.506 2.906
v 85.896 2.541 13.336
v 87.904 2.415 16.204
v 102.804 2.368 5.774
f 841 842 843 844
v 85.897 2.541 13.336
v 69.137 2.538 25.066
v 71.143 2.406 27.934
v 87.903 2.415 16.204
f 845 846 847 848
v 69.121 2.538 25.078
v 53.481 2.549 36.288
v 55.519 2.414 39.132
v 71.159 2.406 27.922
f 849 850 851 852
v 53.497 2.548 36.276
v 36.687 2.547 48.026
v 38.693 2.429 50.894
v 55.503 2.414 39.144
f 853 854 855 856
v 36.688 2.547 48.026
v 29.948 2.541 52.736
v 31.952 2.443 55.604
v 38.692 2.429 50.894
f 857 858 859 860
v 85.458 2.478 15.762
v 106.908 1.252 46.942
v 109.792 1.293 44.958
v 88.342 2.476 13.778
f 861 862 863 864
v 68.701 2.475 27.496
v 90.421 1.116 58.856
v 93.299 1.113 56.864
v 71.579 2.471 25.504
f 865 866 867 868
v -8.775 1.056 131.442
v -31.915 1.485 106.812
v -34.465 1.431 109.208
v -11.325 1.039 133.838
f 869 870 871 872
v -60.086 1.672 11.104
v -40.916 1.768 38.064
v -38.064 1.793 36.036
v -57.234 1.701 9.076
f 873 874 875 876
v -40.916 1.768 38.064
v -4.906 1.515 88.714
v -2.054 1.589 86.686
v -38.064 1.793 36.036
f 877 878 879 880
v -4.906 1.515 88.714
v 13.824 1.050 115.054
v 16.676 1.003 113.026
v -2.054 1.589 86.686
f 881 882 883 884
v -57.686 1.683 11.544
v -41.846 1.979 0.934
v -43.794 1.982 -1.974
v -59.634 1.697 8.636
f 885 886 887 888
v 20.921 2.355 64.354
v 42.361 0.946 94.054
v 45.199 0.945 92.006
v 23.759 2.375 62.306
f 889 890 891 892
v 36.266 2.480 50.477
v 58.766 1.036 81.977
v 61.614 1.061 79.943
v 39.114 2.480 48.443
f 893 894 895 896
v -44.233 1.966 0.512
v 5.087 1.989 68.042
v 7.913 2.126 65.978
v -41.407 1.987 -1.552
f 897 898 899 900
v 5.086 1.989 68.041
v 10.486 2.025 75.451
v 13.314 2.125 73.389
v 7.914 2.126 65.979
f 901 902 903 904
v 10.487 2.025 75.452
v 30.477 0.937 102.812
v 33.303 0.936 100.748
v 13.313 2.125 73.388
f 905 906 907 908
v 30.477 0.937 102.812
v 41.587 0.979 118.032
v 44.413 0.998 115.968
v 33.303 0.936 100.748
f 909 910 911 912
v 41.587 0.979 118.032
v 44.567 1.054 122.112
v 47.393 1.076 120.048
v 44.413 0.998 115.968
f 913 914 915 916
v 44.546 1.053 122.083
v 47.226 1.066 125.913
v 50.094 1.084 123.907
v 47.414 1.076 120.077
f 917 918 919 920
v -40.399 1.762 35.555
v -55.829 1.820 44.935
v -54.011 1.974 47.925
v -38.581 1.798 38.545
f 921 922 923 924
v -55.829 1.820 44.935
v -73.459 1.649 55.655
v -71.641 1.821 58.645
v -54.011 1.974 47.925
f 925 926 927 928
v -71.271 1.745 55.955
v -85.361 1.095 40.875
v -87.919 1.086 43.265
v -73.829 1.724 58.345
f 929 930 931 932
v -85.502 1.122 43.399
v -69.952 1.163 30.089
v -72.228 1.080 27.431
v -87.778 1.056 40.741
f 933 934 935 936
v -72.381 1.128 29.941
v -56.211 1.915 47.611
v -53.629 1.872 45.249
v -69.799 1.111 27.579
f 937 938 939 940
v -47.630 1.677 122.882
v -35.020 1.362 111.362
v -37.380 1.476 108.778
v -49.990 1.678 120.298
f 941 942 943 944
v -35.212 1.361 111.514
v -32.202 1.407 109.454
v -34.178 1.524 106.566
v -37.188 1.481 108.626
f 945 946 947 948
v -32.202 1.407 109.455
v -2.492 1.537 89.145
v -4.468 1.567 86.255
v -34.178 1.524 106.565
f 949 950 951 952
v -2.479 1.538 89.136
v 5.011 1.780 83.916
v 3.009 1.815 81.044
v -4.481 1.567 86.264
f 953 954 955 956
v 5.261 1.791 83.704
v 13.151 2.038 75.644
v 10.649 2.082 73.196
v 2.759 1.803 81.256
f 957 958 959 960
v 13.174 2.040 75.620
v 23.614 2.314 64.530
v 21.066 2.422 62.130
v 10.626 2.081 73.220
f 961 962 963 964
v 23.615 2.314 64.529
v 32.225 2.443 55.369
v 29.675 2.540 52.971
v 21.065 2.422 62.131
f 965 966 967 968
v 254.977 1.107 -44.418
v 212.167 1.057 -13.590
v 214.213 1.025 -10.750
v 257.023 1.071 -41.578
f 969 970 971 972
v 158.031 1.106 -85.626
v 211.771 1.062 -11.146
v 214.609 1.057 -13.194
v 160.869 1.138 -87.674
f 973 974 975 976
v 211.770 1.062 -11.147
v 215.380 0.979 -6.137
v 218.220 0.965 -8.183
v 214.610 1.057 -13.193
f 977 978 979 980
v 215.381 0.979 -6.136
v 218.681 1.073 -1.566
v 221.519 1.061 -3.614
v 218.219 0.965 -8.184
f 981 982 983 984
v 218.687 1.073 -1.557
v 221.217 1.117 1.903
v 224.043 1.104 -0.163
v 221.513 1.060 -3.623
f 985 986 987 988
v 254.548 1.301 -64.400
v 253.328 1.318 -62.587
v 256.232 1.342 -60.633
v 257.452 1.360 -62.447
f 989 990 991 992
v 253.129 1.320 -62.189
v 252.329 1.344 -59.909
v 255.631 1.286 -58.751
v 256.431 1.355 -61.031
f 993 994 995 996
v 252.234 1.342 -59.216
v 252.434 1.295 -56.156
v 255.926 1.210 -56.384
v 255.726 1.304 -59.444
f 997 998 999 1000
v 252.645 1.274 -55.430
v 253.975 1.221 -53.000
v 257.045 1.143 -54.680
v 255.715 1.232 -57.110
f 1001 1002 1003 1004
v 257.401 0.767 2.651
v 249.861 0.836 -7.428
v 247.059 0.858 -5.332
v 254.599 0.761 4.748
f 1005 1006 1007 1008
v 249.947 0.836 -7.302
v 245.087 0.997 -15.142
v 242.113 1.010 -13.298
v 246.973 0.858 -5.458
f 1009 1010 1011 1012
v 227.011 1.015 6.958
v 247.981 0.850 -8.132
v 239.219 0.907 -20.308
v 218.249 0.998 -5.218
f 1013 1014 1015 1016
v 74.871 1.553 232.431
v 71.701 1.692 223.391
v 68.399 1.634 224.549
v 71.569 1.488 233.589
f 1017 1018 1019 1020
v 71.435 1.696 222.901
v 53.385 1.752 199.511
v 50.615 1.737 201.649
v 68.665 1.631 225.039
f 1021 1022 1023 1024
v 87.336 1.579 172.531
v 55.516 1.761 195.491
v 57.564 1.873 198.329
v 89.384 1.609 175.369
f 1025 1026 1027 1028
v 55.440 1.761 195.549
v 50.900 1.723 199.219
v 53.100 1.768 201.941
v 57.640 1.874 198.271
f 1029 1030 1031 1032
v 51.261 1.725 198.994
v 50.531 1.720 199.334
v 52.009 1.760 202.506
v 52.739 1.765 202.166
f 1033 1034 1035 1036
v -46.431 1.764 206.771
v -11.671 1.182 181.011
v -22.389 1.131 166.549
v -57.149 1.875 192.309
f 1037 1038 1039 1040
v -11.349 1.186 180.761
v -6.409 1.162 176.741
v -17.771 1.110 162.779
v -22.711 1.134 166.799
f 1041 1042 1043 1044
v -13.390 1.150 172.183
v -2.600 1.224 177.973
v 0.000 1.142 173.127
v -10.790 1.152 167.337
f 1045 1046 1047 1048
v -2.121 1.127 161.969
v -9.271 1.062 153.799
v -13.409 1.105 157.421
v -6.259 1.141 165.591
f 1049 1050 1051 1052
v -9.270 1.062 153.800
v -29.640 1.223 130.500
v -33.780 1.287 134.120
v -13.410 1.105 157.420
f 1053 1054 1055 1056
v -30.985 1.289 129.657
v -40.135 1.557 127.157
v -41.585 1.470 132.463
v -32.435 1.258 134.963
f 1057 1058 1059 1060
v 192.523 1.135 27.928
v 204.813 1.118 18.908
v 199.487 1.146 11.652
v 187.197 1.168 20.672
f 1061 1062 1063 1064
v 204.879 1.118 18.860
v 225.219 1.012 4.550
v 220.041 1.062 -2.810
v 199.701 1.146 11.500
f 1065 1066 1067 1068
v 44.729 0.937 136.793
v 52.949 1.014 131.063
v 44.371 1.009 118.757
v 36.151 0.936 124.487
f 1069 1070 1071 1072
v 53.240 1.018 130.849
v 59.880 0.972 125.729
v 50.720 1.047 113.851
v 44.080 1.005 118.971
f 1073 1074 1075 1076
v 59.678 0.971 125.880
v 85.438 1.008 107.360
v 76.682 1.057 95.180
v 50.922 1.047 113.700
f 1077 1078 1079 1080
v 85.438 1.008 107.360
v 98.888 1.011 97.690
v 90.132 1.045 85.510
v 76.682 1.057 95.180
f 1081 1082 1083 1084
v 98.679 1.014 97.835
v 110.569 0.920 89.885
v 102.231 0.964 77.415
v 90.341 1.045 85.365
f 1085 1086 1087 1088
v 110.735 0.919 89.770
v 142.955 0.978 66.950
v 134.285 1.083 54.710
v 102.065 0.966 77.530
f 1089 1090 1091 1092
v 142.977 0.978 66.934
v 146.087 0.989 64.714
v 137.373 1.096 52.506
v 134.263 1.083 54.726
f 1093 1094 1095 1096
v 146.080 0.989 64.720
v 153.960 1.052 59.110
v 145.260 1.074 46.890
v 137.380 1.096 52.500
f 1097 1098 1099 1100
v 154.022 1.052 59.065
v 177.732 0.993 41.815
v 168.908 1.144 29.685
v 145.198 1.074 46.935
f 1101 1102 1103 1104
v 177.529 0.993 41.957
v 184.799 1.010 37.027
v 176.381 1.155 24.613
v 169.111 1.145 29.543
f 1105 1106 1107 1108
v 184.905 1.009 36.955
v 194.175 1.137 30.435
v 185.545 1.119 18.165
v 176.275 1.155 24.685
f 1109 1110 1111 1112
v 25.674 0.902 149.664
v 44.114 0.908 135.384
v 36.766 0.965 125.896
v 18.326 0.955 140.176
f 1113 1114 1115 1116
v -0.032 1.091 170.022
v 10.718 0.988 162.862
v 2.402 1.010 150.378
v -8.348 1.077 157.538
f 1117 1118 1119 1120
v 11.090 0.981 162.598
v 26.530 0.963 150.898
v 17.470 0.921 138.942
v 2.030 1.014 150.642
f 1121 1122 1123 1124
v -75.986 2.651 227.186
v -46.676 1.766 206.946
v -56.904 1.869 192.134
v -86.214 2.535 212.374
f 1125 1126 1127 1128
v 1.414 1.215 175.107
v 0.334 1.076 168.497
v -5.094 1.107 169.383
v -4.014 1.156 175.993
f 1129 1130 1131 1132
v 0.215 1.073 168.030
v -1.595 1.111 162.870
v -6.785 1.147 164.690
v -4.975 1.103 169.850
f 1133 1134 1135 1136
v 104.973 1.103 84.662
v 110.193 0.938 92.022
v 113.047 0.903 89.998
v 107.827 1.077 82.638
f 1137 1138 1139 1140
v 110.229 0.939 92.072
v 142.689 0.991 134.592
v 145.471 1.173 132.468
v 113.011 0.903 89.948
f 1141 1142 1143 1144
v 142.512 1.014 134.306
v 146.972 0.833 143.316
v 150.108 0.833 141.764
v 145.648 1.176 132.754
f 1145 1146 1147 1148
v 147.011 0.832 143.392
v 155.321 0.826 158.302
v 158.379 0.841 156.598
v 150.069 0.834 141.688
f 1149 1150 1151 1152
v 155.322 0.826 158.303
v 168.302 0.891 181.553
v 171.358 0.792 179.847
v 158.378 0.841 156.597
f 1153 1154 1155 1156
v 149.465 0.804 144.026
v 166.745 1.365 133.266
v 164.895 1.180 130.294
v 147.615 0.851 141.054
f 1157 1158 1159 1160
v 167.380 1.330 132.574
v 175.520 0.993 116.584
v 172.400 0.999 114.996
v 164.260 1.180 130.986
f 1161 1162 1163 1164
v 175.500 0.987 114.959
v 162.200 0.858 90.309
v 159.120 0.803 91.971
v 172.420 1.029 116.621
f 1165 1166 1167 1168
v 162.067 0.857 90.099
v 145.087 0.971 67.149
v 142.273 0.965 69.231
v 159.253 0.807 92.181
f 1169 1170 1171 1172
v 145.122 0.969 67.199
v 140.062 1.148 59.839
v 137.178 1.130 61.821
v 142.238 0.967 69.181
f 1173 1174 1175 1176
v -3.401 1.109 172.825
v 0.559 1.089 169.585
v -8.939 1.078 157.975
v -12.899 1.098 161.215
f 1177 1178 1179 1180
v -6.952 1.167 177.149
v -3.012 1.127 174.409
v -13.288 1.091 159.631
v -17.228 1.111 162.371
f 1181 1182 1183 1184
v -58.231 1.744 136.433
v -58.281 1.719 134.553
v -61.779 1.736 134.647
v -61.729 1.749 136.527
f 1185 1186 1187 1188
v -58.393 1.708 133.980
v -59.063 1.688 132.210
v -62.337 1.736 133.450
v -61.667 1.739 135.220
f 1189 1190 1191 1192
v -59.352 1.691 131.713
v -60.512 1.709 130.313
v -63.208 1.747 132.547
v -62.048 1.736 133.947
f 1193 1194 1195 1196
v -60.939 1.718 129.942
v -62.489 1.744 128.982
v -64.331 1.775 131.958
v -62.781 1.738 132.918
f 1197 1198 1199 1200
v -63.017 1.765 128.765
v -64.797 1.779 128.355
v -65.583 1.813 131.765
v -63.803 1.763 132.175
f 1201 1202 1203 1204
v -65.353 1.777 128.318
v -67.173 1.771 128.488
v -66.847 1.883 131.972
v -65.027 1.791 131.802
f 1205 1206 1207 1208
v -67.723 1.780 128.632
v -69.383 1.814 129.372
v -67.957 1.922 132.568
v -66.297 1.847 131.828
f 1209 1210 1211 1212
v -69.848 1.822 129.676
v -71.188 1.839 130.896
v -68.832 1.948 133.484
v -67.492 1.910 132.264
f 1213 1214 1215 1216
v -71.543 1.840 131.347
v -72.423 1.839 132.947
v -69.357 1.980 134.633
v -68.477 1.934 133.033
f 1217 1218 1219 1220
v -72.611 1.837 133.471
v -72.941 1.832 135.251
v -69.499 1.940 135.889
v -69.169 1.967 134.109
f 1221 1222 1223 1224
v -72.952 1.833 135.820
v -72.692 1.836 137.620
v -69.228 1.888 137.120
v -69.488 1.970 135.320
f 1225 1226 1227 1228
v -72.514 1.834 138.176
v -71.674 1.826 139.796
v -68.566 1.845 138.184
v -69.406 1.910 136.564
f 1229 1230 1231 1232
v -71.329 1.824 140.255
v -69.969 1.815 141.555
v -67.551 1.794 139.025
v -68.911 1.865 137.725
f 1233 1234 1235 1236
v -69.498 1.810 141.877
v -67.778 1.797 142.677
v -66.302 1.790 139.503
v -68.022 1.816 138.703
f 1237 1238 1239 1240
v -67.206 1.791 142.832
v -65.316 1.781 143.012
v -64.984 1.786 139.528
v -66.874 1.793 139.348
f 1241 1242 1243 1244
v -64.726 1.781 142.968
v -62.886 1.799 142.508
v -63.734 1.789 139.112
v -65.574 1.787 139.572
f 1245 1246 1247 1248
v -62.352 1.834 142.275
v -60.762 1.963 141.235
v -62.678 1.784 138.305
v -64.268 1.788 139.345
f 1249 1250 1251 1252
v -60.331 1.956 140.835
v -59.181 1.840 139.335
v -61.959 1.761 137.205
v -63.109 1.786 138.705
f 1253 1254 1255 1256
v -58.908 1.807 138.818
v -58.318 1.751 137.028
v -61.642 1.744 135.932
v -62.232 1.775 137.722
f 1257 1258 1259 1260
v -50.012 1.677 120.318
v -61.902 1.723 131.558
v -59.498 1.709 134.102
v -47.608 1.677 122.862
f 1261 1262 1263 1264
v -64.694 1.776 141.881
v -51.844 1.895 158.481
v -49.076 1.918 156.339
v -61.926 1.837 139.739
f 1265 1266 1267 1268
v 168.430 0.891 181.750
v 219.650 0.723 250.030
v 222.450 0.698 247.930
v 171.230 0.792 179.650
f 1269 1270 1271 1272
v 105.627 1.285 138.700
v 124.877 0.858 168.050
v 127.803 0.884 166.130
v 108.553 1.290 136.780
f 1273 1274 1275 1276
v 125.498 0.848 168.624
v 129.908 0.768 171.044
v 131.592 0.822 167.976
v 127.182 0.901 165.556
f 1277 1278 1279 1280
v 130.825 0.768 171.258
v 135.955 0.805 171.038
v 135.805 0.839 167.542
v 130.675 0.828 167.762
f 1281 1282 1283 1284
v 136.740 0.801 170.814
v 157.710 0.822 158.974
v 155.990 0.827 155.926
v 135.020 0.839 167.766
f 1285 1286 1287 1288
v 79.634 1.165 102.284
v 85.094 0.996 109.964
v 87.946 0.988 107.936
v 82.486 1.163 100.256
f 1289 1290 1291 1292
v 85.094 0.996 109.964
v 101.674 1.295 133.294
v 104.526 1.305 131.266
v 87.946 0.988 107.936
f 1293 1294 1295 1296
v 101.687 1.295 133.313
v 105.677 1.283 138.773
v 108.503 1.291 136.707
v 104.513 1.305 131.247
f 1297 1298 1299 1300
v 89.613 1.598 175.172
v 92.703 1.554 172.002
v 90.197 1.522 169.558
v 87.107 1.587 172.728
f 1301 1302 1303 1304
v 93.016 1.575 169.999
v 90.786 1.566 165.529
v 87.654 1.490 167.091
v 89.884 1.529 171.561
f 1305 1306 1307 1308
v 90.639 1.563 165.286
v 72.039 1.506 139.506
v 69.201 1.514 141.554
v 87.801 1.493 167.334
f 1309 1310 1311 1312
v 72.039 1.506 139.506
v 62.409 0.979 126.166
v 59.571 0.977 128.214
v 69.201 1.514 141.554
f 1313 1314 1315 1316
v 62.377 0.979 126.123
v 56.687 1.128 118.723
v 53.913 1.120 120.857
v 59.603 0.978 128.257
f 1317 1318 1319 1320
v 69.614 1.509 139.098
v 33.354 1.427 164.588
v 35.366 1.376 167.452
v 71.626 1.533 141.962
f 1321 1322 1323 1324
v 33.354 1.427 164.588
v 21.174 1.599 173.148
v 23.186 1.529 176.012
v 35.366 1.376 167.452
f 1325 1326 1327 1328
v 20.731 1.595 175.562
v 41.501 1.700 206.212
v 44.399 1.699 204.248
v 23.629 1.537 173.598
f 1329 1330 1331 1332
v 32.938 1.408 167.041
v 55.118 1.769 197.931
v 57.962 1.821 195.889
v 35.782 1.365 164.999
f 1333 1334 1335 1336
v 180.328 1.465 224.677
v 163.468 1.689 237.737
v 165.612 1.643 240.503
v 182.472 1.432 227.443
f 1337 1338 1339 1340
v 163.106 1.718 240.123
v 174.903 1.575 257.003
v 177.772 1.485 254.997
v 165.974 1.623 238.117
f 1341 1342 1343 1344
v 46.591 1.811 214.311
v 47.011 1.841 210.271
v 43.529 1.887 209.909
v 43.109 1.788 213.949
f 1345 1346 1347 1348
v 46.864 1.860 210.813
v 48.424 1.803 207.373
v 45.236 1.753 205.927
v 43.676 1.868 209.367
f 1349 1350 1351 1352
v 48.031 1.804 207.923
v 51.571 1.780 204.583
v 49.169 1.724 202.037
v 45.629 1.741 205.377
f 1353 1354 1355 1356
v 52.008 1.774 203.927
v 52.908 1.763 201.537
v 49.632 1.715 200.303
v 48.732 1.726 202.693
f 1357 1358 1359 1360
v 22.098 1.844 226.332
v 23.318 1.847 229.482
v 26.582 1.809 228.218
v 25.362 1.896 225.068
f 1361 1362 1363 1364
v 23.501 1.830 229.832
v 24.741 1.725 231.662
v 27.639 1.732 229.698
v 26.399 1.833 227.868
f 1365 1366 1367 1368
v 24.937 1.712 231.901
v 26.477 1.661 233.481
v 28.983 1.688 231.039
v 27.443 1.740 229.459
f 1369 1370 1371 1372
v 26.817 1.652 233.753
v 30.187 1.576 235.813
v 32.013 1.619 232.827
v 28.643 1.696 230.767
f 1373 1374 1375 1376
v 30.576 1.570 235.990
v 32.806 1.540 236.690
v 33.854 1.590 233.350
v 31.624 1.627 232.650
f 1377 1378 1379 1380
v 33.136 1.537 236.759
v 35.466 1.522 237.019
v 35.854 1.571 233.541
v 33.524 1.595 233.281
f 1381 1382 1383 1384
v 35.857 1.521 237.019
v 39.207 1.513 236.639
v 38.813 1.557 233.161
v 35.463 1.573 233.541
f 1385 1386 1387 1388
v 39.626 1.509 236.538
v 42.206 1.493 235.568
v 40.974 1.539 232.292
v 38.394 1.559 233.262
f 1389 1390 1391 1392
v 42.540 1.490 235.399
v 44.720 1.486 233.989
v 42.820 1.537 231.051
v 40.640 1.541 232.461
f 1393 1394 1395 1396
v 45.036 1.486 233.728
v 47.336 1.519 231.318
v 44.804 1.533 228.902
v 42.504 1.536 231.312
f 1397 1398 1399 1400
v 47.573 1.529 231.007
v 48.653 1.531 229.197
v 45.647 1.545 227.403
v 44.567 1.532 229.213
f 1401 1402 1403 1404
v 48.780 1.527 228.937
v 49.550 1.528 226.967
v 46.290 1.557 225.693
v 45.520 1.543 227.663
f 1405 1406 1407 1408
v 49.637 1.532 226.670
v 50.087 1.571 224.400
v 46.653 1.581 223.720
v 46.203 1.555 225.990
f 1409 1410 1411 1412
v 50.120 1.579 224.060
v 50.120 1.715 221.730
v 46.620 1.643 221.730
v 46.620 1.576 224.060
f 1413 1414 1415 1416
v 51.776 1.305 244.098
v 45.196 1.445 239.868
v 43.304 1.404 242.812
v 49.884 1.307 247.042
f 1417 1418 1419 1420
v 45.897 1.450 240.749
v 43.237 1.502 233.339
v 39.943 1.530 234.521
v 42.603 1.419 241.931
f 1421 1422 1423 1424
v 27.361 1.499 244.058
v 31.941 1.464 244.608
v 32.359 1.484 241.132
v 27.779 1.519 240.582
f 1425 1426 1427 1428
v 31.681 1.466 244.556
v 42.601 1.403 247.596
v 43.539 1.390 244.224
v 32.619 1.483 241.184
f 1429 1430 1431 1432
v 42.966 1.406 247.657
v 45.656 1.384 247.817
v 45.864 1.357 244.323
v 43.174 1.395 244.163
f 1433 1434 1435 1436
v 45.932 1.375 247.812
v 51.002 1.296 247.312
v 50.658 1.319 243.828
v 45.588 1.360 244.328
f 1437 1438 1439 1440
v 23.540 1.546 256.534
v 26.056 1.499 248.684
v 22.724 1.526 247.616
v 20.207 1.563 255.466
f 1441 1442 1443 1444
v 25.926 1.500 248.988
v 29.106 1.487 243.158
v 26.034 1.530 241.482
v 22.854 1.526 247.312
f 1445 1446 1447 1448
v 28.888 1.487 243.471
v 32.268 1.499 239.601
v 29.632 1.551 237.299
v 26.252 1.530 241.169
f 1449 1450 1451 1452
v 31.927 1.497 239.902
v 36.637 1.523 236.732
v 34.683 1.574 233.828
v 29.973 1.555 236.998
f 1453 1454 1455 1456
v 8.664 1.820 230.270
v 4.934 1.787 229.100
v 3.886 1.799 232.440
v 7.616 1.872 233.610
f 1457 1458 1459 1460
v 4.929 1.787 229.099
v 0.419 1.850 227.699
v -0.619 1.773 231.041
v 3.891 1.799 232.441
f 1461 1462 1463 1464
v -0.017 1.855 227.622
v -10.767 1.857 227.112
v -10.933 1.851 230.608
v -0.183 1.770 231.118
f 1465 1466 1467 1468
v -11.726 1.840 227.345
v -28.016 1.799 236.765
v -26.264 1.684 239.795
v -9.974 1.860 230.375
f 1469 1470 1471 1472
v -28.640 1.630 239.182
v -25.560 1.713 244.302
v -22.560 1.749 242.498
v -25.640 1.839 237.378
f 1473 1474 1475 1476
v -25.584 1.713 244.260
v -18.472 1.858 256.860
v -15.424 1.875 255.140
v -22.536 1.748 242.540
f 1477 1478 1479 1480
v 50.092 1.741 221.420
v 49.702 1.886 219.250
v 46.258 1.709 219.870
v 46.648 1.631 222.040
f 1481 1482 1483 1484
v 49.621 1.902 218.952
v 48.851 1.892 216.872
v 45.569 1.718 218.088
v 46.339 1.700 220.168
f 1485 1486 1487 1488
v 48.719 1.880 216.593
v 47.679 1.815 214.823
v 44.661 1.717 216.597
v 45.701 1.721 218.367
f 1489 1490 1491 1492
v 47.513 1.816 214.588
v 46.193 1.877 213.008
v 43.507 1.741 215.252
v 44.827 1.713 216.832
f 1493 1494 1495 1496
v 45.984 1.877 212.797
v 44.304 1.919 211.367
v 42.036 1.781 214.033
v 43.716 1.737 215.463
f 1497 1498 1499 1500
v 44.059 1.926 211.192
v 42.159 1.848 210.072
v 40.381 1.812 213.088
v 42.281 1.776 214.208
f 1501 1502 1503 1504
v 41.842 1.827 209.926
v 39.382 1.719 209.076
v 38.238 1.806 212.384
v 40.698 1.801 213.234
f 1505 1506 1507 1508
v 39.037 1.710 208.995
v 36.437 1.670 208.655
v 35.983 1.737 212.125
v 38.583 1.818 212.465
f 1509 1510 1511 1512
v 36.001 1.665 208.652
v 32.421 1.627 209.082
v 32.839 1.681 212.558
v 36.419 1.749 212.128
f 1513 1514 1515 1516
v 32.001 1.625 209.187
v 29.561 1.597 210.127
v 30.819 1.656 213.393
v 33.259 1.686 212.453
f 1517 1518 1519 1520
v 29.226 1.593 210.299
v 26.846 1.578 211.869
v 28.774 1.655 214.791
v 31.154 1.658 213.221
f 1521 1522 1523 1524
v 26.486 1.582 212.185
v 23.996 1.634 215.065
v 26.644 1.688 217.355
v 29.134 1.653 214.475
f 1525 1526 1527 1528
v 23.740 1.640 215.458
v 22.460 1.686 218.148
v 25.620 1.741 219.652
v 26.900 1.680 216.962
f 1529 1530 1531 1532
v 22.326 1.694 218.547
v 21.716 1.759 221.507
v 25.144 1.809 222.213
v 25.754 1.731 219.253
f 1533 1534 1535 1536
v 21.685 1.771 221.996
v 21.985 1.836 225.836
v 25.475 1.902 225.564
v 25.175 1.797 221.724
f 1537 1538 1539 1540
v 23.290 1.870 228.297
v 16.630 1.594 248.307
v 19.950 1.551 249.413
v 26.610 1.756 229.403
f 1541 1542 1543 1544
v 16.624 1.595 248.324
v 14.444 1.571 255.094
v 17.776 1.561 256.166
v 19.956 1.550 249.396
f 1545 1546 1547 1548
v 6.856 1.857 233.129
v 10.256 1.830 236.799
v 12.824 1.823 234.421
v 9.424 1.834 230.751
f 1549 1550 1551 1552
v 10.465 1.821 236.991
v 14.205 1.754 239.901
v 16.355 1.730 237.139
v 12.615 1.830 234.229
f 1553 1554 1555 1556
v 13.824 1.747 239.492
v 16.474 1.669 243.462
v 19.386 1.590 241.518
v 16.736 1.723 237.548
f 1557 1558 1559 1560
v 16.183 1.705 242.589
v 16.543 1.590 248.959
v 20.037 1.549 248.761
v 19.677 1.573 242.391
f 1561 1562 1563 1564
v -18.304 1.552 206.403
v -1.534 1.796 230.373
v 1.334 1.823 228.367
v -15.436 1.565 204.397
f 1565 1566 1567 1568
v 46.110 1.502 231.860
v 52.220 1.538 231.720
v 52.140 1.520 228.220
v 46.030 1.533 228.360
f 1569 1570 1571 1572
v 51.830 1.565 231.685
v 60.060 1.433 233.365
v 60.760 1.484 229.935
v 52.530 1.516 228.255
f 1573 1574 1575 1576
v 60.225 1.432 233.390
v 73.035 1.488 234.750
v 73.405 1.551 231.270
v 60.595 1.484 229.910
f 1577 1578 1579 1580
v 74.153 1.559 231.529
v 66.803 1.570 226.899
v 64.937 1.501 229.861
v 72.287 1.483 234.491
f 1581 1582 1583 1584
v 66.492 1.569 226.744
v 48.992 1.817 220.094
v 47.748 1.585 223.366
v 65.248 1.499 230.016
f 1585 1586 1587 1588
v 51.007 1.724 199.190
v 48.577 1.705 199.560
v 49.103 1.735 203.020
v 51.533 1.757 202.650
f 1589 1590 1591 1592
v 47.867 1.703 199.835
v 41.977 1.686 203.775
v 43.923 1.748 206.685
v 49.813 1.739 202.745
f 1593 1594 1595 1596
v 42.039 1.686 203.736
v 38.249 1.681 206.046
v 40.071 1.731 209.034
v 43.861 1.747 206.724
f 1597 1598 1599 1600
v 37.944 1.678 206.281
v 34.994 1.651 209.131
v 37.426 1.755 211.649
v 40.376 1.731 208.799
f 1601 1602 1603 1604
v 6.078 1.811 231.300
v 7.758 1.811 226.010
v 4.422 1.898 224.950
v 2.742 1.779 230.240
f 1605 1606 1607 1608
v 7.201 1.795 226.832
v 15.481 1.813 220.032
v 13.259 1.903 217.328
v 4.979 1.902 224.128
f 1609 1610 1611 1612
v 16.088 1.823 219.015
v 16.838 1.822 215.165
v 13.402 1.890 214.495
v 12.652 1.906 218.345
f 1613 1614 1615 1616
v 16.515 1.825 213.773
v 1.705 1.962 194.223
v -1.085 1.934 196.337
v 13.725 1.899 215.887
f 1617 1618 1619 1620
v 0.502 1.913 193.541
v -2.218 1.763 193.241
v -2.602 1.903 196.719
v 0.118 1.970 197.019
f 1621 1622 1623 1624
v -3.429 1.723 193.557
v -4.839 1.683 194.567
v -2.801 1.952 197.413
v -1.391 1.926 196.403
f 1625 1626 1627 1628
v -4.844 1.682 194.571
v -17.894 1.548 203.981
v -15.846 1.600 206.819
v -2.796 1.952 197.409
f 1629 1630 1631 1632
v 22.496 1.825 224.459
v 17.396 1.813 229.529
v 19.864 1.776 232.011
v 24.964 1.933 226.941
f 1633 1634 1635 1636
v 18.057 1.813 229.116
v 13.407 1.856 230.726
v 14.553 1.801 234.034
v 19.203 1.759 232.424
f 1637 1638 1639 1640
v 14.111 1.850 230.635
v 8.271 1.815 230.195
v 8.009 1.874 233.685
v 13.849 1.811 234.125
f 1641 1642 1643 1644
usemtl asphalt
