# Baked ultra-low Key West silhouette; generated by bake_key_west_far_city.py
mtllib far_city.mtl
usemtl massing
v -36.962 0.866 -338.556
v 221.934 0.866 -312.937
v 200.322 0.866 -94.544
v -58.574 0.866 -120.163
v -36.962 7.666 -338.556
v 221.934 7.666 -312.937
v 200.322 7.666 -94.544
v -58.574 7.666 -120.163
f 8 7 6 5
f 1 2 6 5
f 2 3 7 6
f 3 4 8 7
f 4 1 5 8
v -243.029 0.549 -122.580
v -225.486 0.549 -107.397
v -230.191 0.549 -101.960
v -247.734 0.549 -117.143
v -243.029 4.449 -122.580
v -225.486 4.449 -107.397
v -230.191 4.449 -101.960
v -247.734 4.449 -117.143
f 16 15 14 13
f 9 10 14 13
f 10 11 15 14
f 11 12 16 15
f 12 9 13 16
v -85.851 0.665 123.862
v -79.586 0.665 106.125
v -69.129 0.665 109.818
v -75.394 0.665 127.555
v -85.851 4.565 123.862
v -79.586 4.565 106.125
v -69.129 4.565 109.818
v -75.394 4.565 127.555
f 24 23 22 21
f 17 18 22 21
f 18 19 23 22
f 19 20 24 23
f 20 17 21 24
v -258.742 0.484 180.920
v -253.927 0.484 163.929
v -242.738 0.484 167.100
v -247.553 0.484 184.091
v -258.742 6.784 180.920
v -253.927 6.784 163.929
v -242.738 6.784 167.100
v -247.553 6.784 184.091
f 32 31 30 29
f 25 26 30 29
f 26 27 31 30
f 27 28 32 31
f 28 25 29 32
v 231.695 0.851 174.010
v 243.849 0.851 157.452
v 258.505 0.851 168.210
v 246.351 0.851 184.768
v 231.695 7.151 174.010
v 243.849 7.151 157.452
v 258.505 7.151 168.210
v 246.351 7.151 184.768
f 40 39 38 37
f 33 34 38 37
f 34 35 39 38
f 35 36 40 39
f 36 33 37 40
v -52.113 -0.244 210.571
v -26.223 -0.244 219.541
v -32.947 -0.244 238.949
v -58.837 -0.244 229.979
v -52.113 9.056 210.571
v -26.223 9.056 219.541
v -32.947 9.056 238.949
v -58.837 9.056 229.979
f 48 47 46 45
f 41 42 46 45
f 42 43 47 46
f 43 44 48 47
f 44 41 45 48
v 229.795 0.668 205.669
v 249.756 0.668 203.489
v 251.925 0.668 223.351
v 231.964 0.668 225.531
v 229.795 4.568 205.669
v 249.756 4.568 203.489
v 251.925 4.568 223.351
v 231.964 4.568 225.531
f 56 55 54 53
f 49 50 54 53
f 50 51 55 54
f 51 52 56 55
f 52 49 53 56
v 60.305 0.582 239.173
v 62.509 0.582 262.288
v 39.235 0.582 264.507
v 37.031 0.582 241.392
v 60.305 12.882 239.173
v 62.509 12.882 262.288
v 39.235 12.882 264.507
v 37.031 12.882 241.392
f 64 63 62 61
f 57 58 62 61
f 58 59 63 62
f 59 60 64 63
f 60 57 61 64
v 101.445 0.464 123.833
v 129.263 0.464 124.658
v 128.495 0.464 150.547
v 100.677 0.464 149.722
v 101.445 4.364 123.833
v 129.263 4.364 124.658
v 128.495 4.364 150.547
v 100.677 4.364 149.722
f 72 71 70 69
f 65 66 70 69
f 66 67 71 70
f 67 68 72 71
f 68 65 69 72
v 5.316 0.547 128.243
v 21.696 0.547 136.755
v 14.544 0.547 150.517
v -1.836 0.547 142.005
v 5.316 4.447 128.243
v 21.696 4.447 136.755
v 14.544 4.447 150.517
v -1.836 4.447 142.005
f 80 79 78 77
f 73 74 78 77
f 74 75 79 78
f 75 76 80 79
f 76 73 77 80
v 153.192 0.880 21.723
v 168.665 0.880 25.063
v 165.428 0.880 40.057
v 149.955 0.880 36.717
v 153.192 4.780 21.723
v 168.665 4.780 25.063
v 165.428 4.780 40.057
v 149.955 4.780 36.717
f 88 87 86 85
f 81 82 86 85
f 82 83 87 86
f 83 84 88 87
f 84 81 85 88
v 196.171 0.595 61.353
v 201.409 0.595 43.715
v 213.909 0.595 47.427
v 208.671 0.595 65.065
v 196.171 9.895 61.353
v 201.409 9.895 43.715
v 213.909 9.895 47.427
v 208.671 9.895 65.065
f 96 95 94 93
f 89 90 94 93
f 90 91 95 94
f 91 92 96 95
f 92 89 93 96
v -178.282 0.798 236.686
v -172.140 0.798 217.779
v -157.998 0.798 222.374
v -164.140 0.798 241.281
v -178.282 4.698 236.686
v -172.140 4.698 217.779
v -157.998 4.698 222.374
v -164.140 4.698 241.281
f 104 103 102 101
f 97 98 102 101
f 98 99 103 102
f 99 100 104 103
f 100 97 101 104
v 221.827 0.864 81.152
v 237.463 0.864 99.544
v 219.673 0.864 114.668
v 204.037 0.864 96.276
v 221.827 4.764 81.152
v 237.463 4.764 99.544
v 219.673 4.764 114.668
v 204.037 4.764 96.276
f 112 111 110 109
f 105 106 110 109
f 106 107 111 110
f 107 108 112 111
f 108 105 109 112
v -216.944 1.020 -108.444
v -195.660 1.020 -181.767
v -150.216 1.020 -168.576
v -171.500 1.020 -95.253
v -216.944 9.320 -108.444
v -195.660 9.320 -181.767
v -150.216 9.320 -168.576
v -171.500 9.320 -95.253
f 120 119 118 117
f 113 114 118 117
f 114 115 119 118
f 115 116 120 119
f 116 113 117 120
v -142.374 0.555 91.578
v -133.923 0.555 79.758
v -120.126 0.555 89.622
v -128.577 0.555 101.442
v -142.374 4.455 91.578
v -133.923 4.455 79.758
v -120.126 4.455 89.622
v -128.577 4.455 101.442
f 128 127 126 125
f 121 122 126 125
f 122 123 127 126
f 123 124 128 127
f 124 121 125 128
v -123.383 0.685 66.782
v -98.710 0.685 69.655
v -101.077 0.685 89.978
v -125.750 0.685 87.105
v -123.383 4.585 66.782
v -98.710 4.585 69.655
v -101.077 4.585 89.978
v -125.750 4.585 87.105
f 136 135 134 133
f 129 130 134 133
f 130 131 135 134
f 131 132 136 135
f 132 129 133 136
v -101.877 0.627 82.575
v -95.656 0.627 62.969
v -81.863 0.627 67.345
v -88.084 0.627 86.951
v -101.877 4.527 82.575
v -95.656 4.527 62.969
v -81.863 4.527 67.345
v -88.084 4.527 86.951
f 144 143 142 141
f 137 138 142 141
f 138 139 143 142
f 139 140 144 143
f 140 137 141 144
v -87.572 0.689 74.419
v -80.515 0.689 60.608
v -66.908 0.689 67.561
v -73.965 0.689 81.372
v -87.572 4.589 74.419
v -80.515 4.589 60.608
v -66.908 4.589 67.561
v -73.965 4.589 81.372
f 152 151 150 149
f 145 146 150 149
f 146 147 151 150
f 147 148 152 151
f 148 145 149 152
v -102.187 0.415 123.486
v -98.767 0.415 109.159
v -86.473 0.415 112.094
v -89.893 0.415 126.421
v -102.187 4.315 123.486
v -98.767 4.315 109.159
v -86.473 4.315 112.094
v -89.893 4.315 126.421
f 160 159 158 157
f 153 154 158 157
f 154 155 159 158
f 155 156 160 159
f 156 153 157 160
v -87.863 0.188 127.466
v -80.650 0.188 130.044
v -82.497 0.188 135.214
v -89.710 0.188 132.636
v -87.863 4.088 127.466
v -80.650 4.088 130.044
v -82.497 4.088 135.214
v -89.710 4.088 132.636
f 168 167 166 165
f 161 162 166 165
f 162 163 167 166
f 163 164 168 167
f 164 161 165 168
v -145.228 0.789 143.590
v -136.964 0.789 123.072
v -123.412 0.789 128.530
v -131.676 0.789 149.048
v -145.228 4.689 143.590
v -136.964 4.689 123.072
v -123.412 4.689 128.530
v -131.676 4.689 149.048
f 176 175 174 173
f 169 170 174 173
f 170 171 175 174
f 171 172 176 175
f 172 169 173 176
v -122.630 0.546 135.496
v -112.412 0.546 137.435
v -114.330 0.546 147.544
v -124.548 0.546 145.605
v -122.630 4.446 135.496
v -112.412 4.446 137.435
v -114.330 4.446 147.544
v -124.548 4.446 145.605
f 184 183 182 181
f 177 178 182 181
f 178 179 183 182
f 179 180 184 183
f 180 177 181 184
v -126.424 0.425 132.024
v -120.642 0.425 116.271
v -112.456 0.425 119.276
v -118.238 0.425 135.029
v -126.424 4.325 132.024
v -120.642 4.325 116.271
v -112.456 4.325 119.276
v -118.238 4.325 135.029
f 192 191 190 189
f 185 186 190 189
f 186 187 191 190
f 187 188 192 191
f 188 185 189 192
v -60.229 1.079 89.419
v -33.336 1.079 108.214
v -48.591 1.079 130.041
v -75.484 1.079 111.246
v -60.229 6.879 89.419
v -33.336 6.879 108.214
v -48.591 6.879 130.041
v -75.484 6.879 111.246
f 200 199 198 197
f 193 194 198 197
f 194 195 199 198
f 195 196 200 199
f 196 193 197 200
v -72.396 0.818 72.431
v -69.307 0.818 46.374
v -52.644 0.818 48.349
v -55.733 0.818 74.406
v -72.396 4.718 72.431
v -69.307 4.718 46.374
v -52.644 4.718 48.349
v -55.733 4.718 74.406
f 208 207 206 205
f 201 202 206 205
f 202 203 207 206
f 203 204 208 207
f 204 201 205 208
v -154.175 0.698 104.360
v -148.922 0.698 92.337
v -140.125 0.698 96.180
v -145.378 0.698 108.203
v -154.175 4.598 104.360
v -148.922 4.598 92.337
v -140.125 4.598 96.180
v -145.378 4.598 108.203
f 216 215 214 213
f 209 210 214 213
f 210 211 215 214
f 211 212 216 215
f 212 209 213 216
v -110.941 0.268 136.609
v -105.858 0.268 122.305
v -98.019 0.268 125.091
v -103.102 0.268 139.395
v -110.941 4.168 136.609
v -105.858 4.168 122.305
v -98.019 4.168 125.091
v -103.102 4.168 139.395
f 224 223 222 221
f 217 218 222 221
f 218 219 223 222
f 219 220 224 223
f 220 217 221 224
v -126.889 0.823 157.249
v -109.601 0.823 163.250
v -114.691 0.823 177.911
v -131.979 0.823 171.910
v -126.889 4.723 157.249
v -109.601 4.723 163.250
v -114.691 4.723 177.911
v -131.979 4.723 171.910
f 232 231 230 229
f 225 226 230 229
f 226 227 231 230
f 227 228 232 231
f 228 225 229 232
v -120.124 0.835 155.566
v -118.383 0.835 151.072
v -114.196 0.835 152.694
v -115.937 0.835 157.188
v -120.124 4.735 155.566
v -118.383 4.735 151.072
v -114.196 4.735 152.694
v -115.937 4.735 157.188
f 240 239 238 237
f 233 234 238 237
f 234 235 239 238
f 235 236 240 239
f 236 233 237 240
v -118.494 0.643 159.743
v -94.910 0.643 138.115
v -79.906 0.643 154.477
v -103.490 0.643 176.105
v -118.494 4.543 159.743
v -94.910 4.543 138.115
v -79.906 4.543 154.477
v -103.490 4.543 176.105
f 248 247 246 245
f 241 242 246 245
f 242 243 247 246
f 243 244 248 247
f 244 241 245 248
v -73.436 0.298 155.247
v -68.764 0.298 143.041
v -60.424 0.298 146.233
v -65.096 0.298 158.439
v -73.436 4.198 155.247
v -68.764 4.198 143.041
v -60.424 4.198 146.233
v -65.096 4.198 158.439
f 256 255 254 253
f 249 250 254 253
f 250 251 255 254
f 251 252 256 255
f 252 249 253 256
v -88.925 0.444 162.337
v -85.302 0.444 145.309
v -71.795 0.444 148.183
v -75.418 0.444 165.211
v -88.925 4.344 162.337
v -85.302 4.344 145.309
v -71.795 4.344 148.183
v -75.418 4.344 165.211
f 264 263 262 261
f 257 258 262 261
f 258 259 263 262
f 259 260 264 263
f 260 257 261 264
v -49.812 1.069 144.298
v -38.993 1.069 124.319
v -23.068 1.069 132.942
v -33.887 1.069 152.921
v -49.812 4.969 144.298
v -38.993 4.969 124.319
v -23.068 4.969 132.942
v -33.887 4.969 152.921
f 272 271 270 269
f 265 266 270 269
f 266 267 271 270
f 267 268 272 271
f 268 265 269 272
v -75.700 0.050 199.999
v -69.510 0.050 185.040
v -60.760 0.050 188.661
v -66.950 0.050 203.620
v -75.700 3.950 199.999
v -69.510 3.950 185.040
v -60.760 3.950 188.661
v -66.950 3.950 203.620
f 280 279 278 277
f 273 274 278 277
f 274 275 279 278
f 275 276 280 279
f 276 273 277 280
v -29.274 1.128 221.079
v -17.862 1.128 203.153
v -1.606 1.128 213.501
v -13.018 1.128 231.427
v -29.274 5.028 221.079
v -17.862 5.028 203.153
v -1.606 5.028 213.501
v -13.018 5.028 231.427
f 288 287 286 285
f 281 282 286 285
f 282 283 287 286
f 283 284 288 287
f 284 281 285 288
v -40.178 1.259 189.217
v -28.994 1.259 169.635
v -11.402 1.259 179.683
v -22.586 1.259 199.265
v -40.178 5.159 189.217
v -28.994 5.159 169.635
v -11.402 5.159 179.683
v -22.586 5.159 199.265
f 296 295 294 293
f 289 290 294 293
f 290 291 295 294
f 291 292 296 295
f 292 289 293 296
v -99.891 0.570 237.443
v -79.347 0.570 239.716
v -80.969 0.570 254.377
v -101.513 0.570 252.104
v -99.891 4.470 237.443
v -79.347 4.470 239.716
v -80.969 4.470 254.377
v -101.513 4.470 252.104
f 304 303 302 301
f 297 298 302 301
f 298 299 303 302
f 299 300 304 303
f 300 297 301 304
v -102.544 0.411 225.066
v -85.395 0.411 231.133
v -88.416 0.411 239.674
v -105.565 0.411 233.607
v -102.544 4.311 225.066
v -85.395 4.311 231.133
v -88.416 4.311 239.674
v -105.565 4.311 233.607
f 312 311 310 309
f 305 306 310 309
f 306 307 311 310
f 307 308 312 311
f 308 305 309 312
v -90.935 0.610 211.868
v -83.453 0.610 214.813
v -85.885 0.610 220.992
v -93.367 0.610 218.047
v -90.935 4.510 211.868
v -83.453 4.510 214.813
v -85.885 4.510 220.992
v -93.367 4.510 218.047
f 320 319 318 317
f 313 314 318 317
f 314 315 319 318
f 315 316 320 319
f 316 313 317 320
v -110.767 0.614 197.575
v -94.257 0.614 209.145
v -105.413 0.614 225.065
v -121.923 0.614 213.495
v -110.767 4.514 197.575
v -94.257 4.514 209.145
v -105.413 4.514 225.065
v -121.923 4.514 213.495
f 328 327 326 325
f 321 322 326 325
f 322 323 327 326
f 323 324 328 327
f 324 321 325 328
v 5.029 0.441 101.600
v 17.625 0.441 118.776
v 2.811 0.441 129.640
v -9.785 0.441 112.464
v 5.029 4.341 101.600
v 17.625 4.341 118.776
v 2.811 4.341 129.640
v -9.785 4.341 112.464
f 336 335 334 333
f 329 330 334 333
f 330 331 335 334
f 331 332 336 335
f 332 329 333 336
v 33.182 0.450 115.478
v 41.556 0.450 93.960
v 53.178 0.450 98.482
v 44.804 0.450 120.000
v 33.182 4.350 115.478
v 41.556 4.350 93.960
v 53.178 4.350 98.482
v 44.804 4.350 120.000
f 344 343 342 341
f 337 338 342 341
f 338 339 343 342
f 339 340 344 343
f 340 337 341 344
v 51.760 0.458 111.926
v 57.160 0.458 97.899
v 69.460 0.458 102.634
v 64.060 0.458 116.661
v 51.760 4.358 111.926
v 57.160 4.358 97.899
v 69.460 4.358 102.634
v 64.060 4.358 116.661
f 352 351 350 349
f 345 346 350 349
f 346 347 351 350
f 347 348 352 351
f 348 345 349 352
v 65.021 0.455 101.830
v 79.069 0.455 85.740
v 91.679 0.455 96.750
v 77.631 0.455 112.840
v 65.021 4.355 101.830
v 79.069 4.355 85.740
v 91.679 4.355 96.750
v 77.631 4.355 112.840
f 360 359 358 357
f 353 354 358 357
f 354 355 359 358
f 355 356 360 359
f 356 353 357 360
v 93.624 0.645 97.255
v 98.733 0.645 83.589
v 110.976 0.645 88.165
v 105.867 0.645 101.831
v 93.624 4.545 97.255
v 98.733 4.545 83.589
v 110.976 4.545 88.165
v 105.867 4.545 101.831
f 368 367 366 365
f 361 362 366 365
f 362 363 367 366
f 363 364 368 367
f 364 361 365 368
v 102.105 0.432 84.481
v 125.289 0.432 72.470
v 134.815 0.432 90.859
v 111.631 0.432 102.870
v 102.105 4.332 84.481
v 125.289 4.332 72.470
v 134.815 4.332 90.859
v 111.631 4.332 102.870
f 376 375 374 373
f 369 370 374 373
f 370 371 375 374
f 371 372 376 375
f 372 369 373 376
v 6.433 0.412 146.119
v 17.322 0.412 149.722
v 15.887 0.412 154.061
v 4.998 0.412 150.458
v 6.433 4.312 146.119
v 17.322 4.312 149.722
v 15.887 4.312 154.061
v 4.998 4.312 150.458
f 384 383 382 381
f 377 378 382 381
f 378 379 383 382
f 379 380 384 383
f 380 377 381 384
v 10.633 0.322 168.591
v 13.904 0.322 151.400
v 30.447 0.322 154.549
v 27.176 0.322 171.740
v 10.633 4.222 168.591
v 13.904 4.222 151.400
v 30.447 4.222 154.549
v 27.176 4.222 171.740
f 392 391 390 389
f 385 386 390 389
f 386 387 391 390
f 387 388 392 391
f 388 385 389 392
v 18.553 0.455 192.080
v 22.982 0.455 174.984
v 36.167 0.455 178.400
v 31.738 0.455 195.496
v 18.553 4.355 192.080
v 22.982 4.355 174.984
v 36.167 4.355 178.400
v 31.738 4.355 195.496
f 400 399 398 397
f 393 394 398 397
f 394 395 399 398
f 395 396 400 399
f 396 393 397 400
v 25.857 0.519 218.231
v 30.275 0.519 196.424
v 47.083 0.519 199.829
v 42.665 0.519 221.636
v 25.857 4.419 218.231
v 30.275 4.419 196.424
v 47.083 4.419 199.829
v 42.665 4.419 221.636
f 408 407 406 405
f 401 402 406 405
f 402 403 407 406
f 403 404 408 407
f 404 401 405 408
v 18.643 0.429 202.157
v 25.043 0.429 204.070
v 23.497 0.429 209.243
v 17.097 0.429 207.330
v 18.643 4.329 202.157
v 25.043 4.329 204.070
v 23.497 4.329 209.243
v 17.097 4.329 207.330
f 416 415 414 413
f 409 410 414 413
f 410 411 415 414
f 411 412 416 415
f 412 409 413 416
v -147.134 1.070 234.291
v -139.550 1.070 211.901
v -126.006 1.070 216.489
v -133.590 1.070 238.879
v -147.134 4.970 234.291
v -139.550 4.970 211.901
v -126.006 4.970 216.489
v -133.590 4.970 238.879
f 424 423 422 421
f 417 418 422 421
f 418 419 423 422
f 419 420 424 423
f 420 417 421 424
v -135.662 0.560 261.063
v -129.791 0.560 244.810
v -117.978 0.560 249.077
v -123.849 0.560 265.330
v -135.662 4.460 261.063
v -129.791 4.460 244.810
v -117.978 4.460 249.077
v -123.849 4.460 265.330
f 432 431 430 429
f 425 426 430 429
f 426 427 431 430
f 427 428 432 431
f 428 425 429 432
v -137.730 0.752 246.161
v -135.287 0.752 240.256
v -130.010 0.752 242.439
v -132.453 0.752 248.344
v -137.730 4.652 246.161
v -135.287 4.652 240.256
v -130.010 4.652 242.439
v -132.453 4.652 248.344
f 440 439 438 437
f 433 434 438 437
f 434 435 439 438
f 435 436 440 439
f 436 433 437 440
v 90.489 1.171 149.302
v 97.098 1.171 130.605
v 104.151 1.171 133.098
v 97.542 1.171 151.795
v 90.489 5.071 149.302
v 97.098 5.071 130.605
v 104.151 5.071 133.098
v 97.542 5.071 151.795
f 448 447 446 445
f 441 442 446 445
f 442 443 447 446
f 443 444 448 447
f 444 441 445 448
v 73.308 0.615 146.260
v 81.782 0.615 131.998
v 94.712 0.615 139.680
v 86.238 0.615 153.942
v 73.308 4.515 146.260
v 81.782 4.515 131.998
v 94.712 4.515 139.680
v 86.238 4.515 153.942
f 456 455 454 453
f 449 450 454 453
f 450 451 455 454
f 451 452 456 455
f 452 449 453 456
v 44.938 0.480 152.576
v 58.654 0.480 136.780
v 72.502 0.480 148.804
v 58.786 0.480 164.600
v 44.938 4.380 152.576
v 58.654 4.380 136.780
v 72.502 4.380 148.804
v 58.786 4.380 164.600
f 464 463 462 461
f 457 458 462 461
f 458 459 463 462
f 459 460 464 463
f 460 457 461 464
v 54.748 0.426 170.761
v 62.617 0.426 156.853
v 75.072 0.426 163.899
v 67.203 0.426 177.807
v 54.748 4.326 170.761
v 62.617 4.326 156.853
v 75.072 4.326 163.899
v 67.203 4.326 177.807
f 472 471 470 469
f 465 466 470 469
f 466 467 471 470
f 467 468 472 471
f 468 465 469 472
v 85.878 0.910 182.432
v 90.169 0.910 163.799
v 109.922 0.910 168.348
v 105.631 0.910 186.981
v 85.878 4.810 182.432
v 90.169 4.810 163.799
v 109.922 4.810 168.348
v 105.631 4.810 186.981
f 480 479 478 477
f 473 474 478 477
f 474 475 479 478
f 475 476 480 479
f 476 473 477 480
v 67.660 0.574 172.765
v 87.753 0.574 183.688
v 78.540 0.574 200.635
v 58.447 0.574 189.712
v 67.660 4.474 172.765
v 87.753 4.474 183.688
v 78.540 4.474 200.635
v 58.447 4.474 189.712
f 488 487 486 485
f 481 482 486 485
f 482 483 487 486
f 483 484 488 487
f 484 481 485 488
v 95.082 0.967 216.154
v 123.461 0.967 200.960
v 135.478 0.967 223.406
v 107.099 0.967 238.600
v 95.082 4.867 216.154
v 123.461 4.867 200.960
v 135.478 4.867 223.406
v 107.099 4.867 238.600
f 496 495 494 493
f 489 490 494 493
f 490 491 495 494
f 491 492 496 495
f 492 489 493 496
v 68.712 0.536 201.698
v 93.626 0.536 195.513
v 97.888 0.536 212.682
v 72.974 0.536 218.867
v 68.712 4.436 201.698
v 93.626 4.436 195.513
v 97.888 4.436 212.682
v 72.974 4.436 218.867
f 504 503 502 501
f 497 498 502 501
f 498 499 503 502
f 499 500 504 503
f 500 497 501 504
v 84.453 0.807 207.148
v 106.663 0.807 225.198
v 94.087 0.807 240.672
v 71.877 0.807 222.622
v 84.453 4.707 207.148
v 106.663 4.707 225.198
v 94.087 4.707 240.672
v 71.877 4.707 222.622
f 512 511 510 509
f 505 506 510 509
f 506 507 511 510
f 507 508 512 511
f 508 505 509 512
v 83.491 0.600 249.118
v 88.752 0.600 235.167
v 101.309 0.600 239.902
v 96.048 0.600 253.853
v 83.491 4.500 249.118
v 88.752 4.500 235.167
v 101.309 4.500 239.902
v 96.048 4.500 253.853
f 520 519 518 517
f 513 514 518 517
f 514 515 519 518
f 515 516 520 519
f 516 513 517 520
v 112.914 0.827 266.296
v 117.842 0.827 241.950
v 128.486 0.827 244.104
v 123.558 0.827 268.450
v 112.914 4.727 266.296
v 117.842 4.727 241.950
v 128.486 4.727 244.104
v 123.558 4.727 268.450
f 528 527 526 525
f 521 522 526 525
f 522 523 527 526
f 523 524 528 527
f 524 521 525 528
v 26.684 0.572 227.063
v 49.940 0.572 213.406
v 61.116 0.572 232.437
v 37.860 0.572 246.094
v 26.684 4.472 227.063
v 49.940 4.472 213.406
v 61.116 4.472 232.437
v 37.860 4.472 246.094
f 536 535 534 533
f 529 530 534 533
f 530 531 535 534
f 531 532 536 535
f 532 529 533 536
v 118.429 0.680 -32.878
v 125.839 0.680 -63.216
v 144.811 0.680 -58.582
v 137.401 0.680 -28.244
v 118.429 4.580 -32.878
v 125.839 4.580 -63.216
v 144.811 4.580 -58.582
v 137.401 4.580 -28.244
f 544 543 542 541
f 537 538 542 541
f 538 539 543 542
f 539 540 544 543
f 540 537 541 544
v 131.101 0.771 -57.972
v 152.372 0.771 -71.127
v 162.439 0.771 -54.848
v 141.168 0.771 -41.693
v 131.101 4.671 -57.972
v 152.372 4.671 -71.127
v 162.439 4.671 -54.848
v 141.168 4.671 -41.693
f 552 551 550 549
f 545 546 550 549
f 546 547 551 550
f 547 548 552 551
f 548 545 549 552
v 145.324 0.647 -36.655
v 146.819 0.647 -41.026
v 150.736 0.647 -39.685
v 149.241 0.647 -35.314
v 145.324 4.547 -36.655
v 146.819 4.547 -41.026
v 150.736 4.547 -39.685
v 149.241 4.547 -35.314
f 560 559 558 557
f 553 554 558 557
f 554 555 559 558
f 555 556 560 559
f 556 553 557 560
v 159.300 0.406 -44.061
v 163.109 0.406 -42.746
v 161.960 0.406 -39.419
v 158.151 0.406 -40.734
v 159.300 4.306 -44.061
v 163.109 4.306 -42.746
v 161.960 4.306 -39.419
v 158.151 4.306 -40.734
f 568 567 566 565
f 561 562 566 565
f 562 563 567 566
f 563 564 568 567
f 564 561 565 568
v 140.547 0.646 -34.667
v 142.039 0.646 -39.029
v 145.653 0.646 -37.793
v 144.161 0.646 -33.431
v 140.547 4.546 -34.667
v 142.039 4.546 -39.029
v 145.653 4.546 -37.793
v 144.161 4.546 -33.431
f 576 575 574 573
f 569 570 574 573
f 570 571 575 574
f 571 572 576 575
f 572 569 573 576
v 161.535 0.613 -70.474
v 174.635 0.613 -65.977
v 170.985 0.613 -55.346
v 157.885 0.613 -59.843
v 161.535 4.513 -70.474
v 174.635 4.513 -65.977
v 170.985 4.513 -55.346
v 157.885 4.513 -59.843
f 584 583 582 581
f 577 578 582 581
f 578 579 583 582
f 579 580 584 583
f 580 577 581 584
v 189.002 0.540 -77.898
v 191.917 0.540 -59.194
v 176.058 0.540 -56.722
v 173.143 0.540 -75.426
v 189.002 4.440 -77.898
v 191.917 4.440 -59.194
v 176.058 4.440 -56.722
v 173.143 4.440 -75.426
f 592 591 590 589
f 585 586 590 589
f 586 587 591 590
f 587 588 592 591
f 588 585 589 592
v 183.850 0.738 -68.174
v 201.604 0.738 -89.942
v 215.870 0.738 -78.306
v 198.116 0.738 -56.538
v 183.850 4.638 -68.174
v 201.604 4.638 -89.942
v 215.870 4.638 -78.306
v 198.116 4.638 -56.538
f 600 599 598 597
f 593 594 598 597
f 594 595 599 598
f 595 596 600 599
f 596 593 597 600
v 200.807 0.720 -79.590
v 216.600 0.720 -95.404
v 231.133 0.720 -80.890
v 215.340 0.720 -65.076
v 200.807 4.620 -79.590
v 216.600 4.620 -95.404
v 231.133 4.620 -80.890
v 215.340 4.620 -65.076
f 608 607 606 605
f 601 602 606 605
f 602 603 607 606
f 603 604 608 607
f 604 601 605 608
v 213.638 0.679 -60.481
v 216.307 0.679 -67.200
v 222.302 0.679 -64.819
v 219.633 0.679 -58.100
v 213.638 4.579 -60.481
v 216.307 4.579 -67.200
v 222.302 4.579 -64.819
v 219.633 4.579 -58.100
f 616 615 614 613
f 609 610 614 613
f 610 611 615 614
f 611 612 616 615
f 612 609 613 616
v 208.432 0.949 -58.570
v 210.242 0.949 -63.753
v 214.028 0.949 -62.430
v 212.218 0.949 -57.247
v 208.432 4.849 -58.570
v 210.242 4.849 -63.753
v 214.028 4.849 -62.430
v 212.218 4.849 -57.247
f 624 623 622 621
f 617 618 622 621
f 618 619 623 622
f 619 620 624 623
f 620 617 621 624
v 227.894 0.616 -80.797
v 235.619 0.616 -95.275
v 246.586 0.616 -89.423
v 238.861 0.616 -74.945
v 227.894 4.516 -80.797
v 235.619 4.516 -95.275
v 246.586 4.516 -89.423
v 238.861 4.516 -74.945
f 632 631 630 629
f 625 626 630 629
f 626 627 631 630
f 627 628 632 631
f 628 625 629 632
v 126.815 0.791 -85.535
v 129.126 0.791 -105.280
v 145.325 0.791 -103.385
v 143.014 0.791 -83.640
v 126.815 4.691 -85.535
v 129.126 4.691 -105.280
v 145.325 4.691 -103.385
v 143.014 4.691 -83.640
f 640 639 638 637
f 633 634 638 637
f 634 635 639 638
f 635 636 640 639
f 636 633 637 640
v 142.364 0.582 -104.316
v 160.038 0.582 -112.171
v 166.556 0.582 -97.504
v 148.882 0.582 -89.649
v 142.364 4.482 -104.316
v 160.038 4.482 -112.171
v 166.556 4.482 -97.504
v 148.882 4.482 -89.649
f 648 647 646 645
f 641 642 646 645
f 642 643 647 646
f 643 644 648 647
f 644 641 645 648
v 179.295 0.745 -117.931
v 179.394 0.745 -90.861
v 159.805 0.745 -90.789
v 159.706 0.745 -117.859
v 179.295 4.645 -117.931
v 179.394 4.645 -90.861
v 159.805 4.645 -90.789
v 159.706 4.645 -117.859
f 656 655 654 653
f 649 650 654 653
f 650 651 655 654
f 651 652 656 655
f 652 649 653 656
v 188.195 0.579 -122.376
v 202.141 0.579 -110.965
v 189.425 0.579 -95.424
v 175.479 0.579 -106.835
v 188.195 4.479 -122.376
v 202.141 4.479 -110.965
v 189.425 4.479 -95.424
v 175.479 4.479 -106.835
f 664 663 662 661
f 657 658 662 661
f 658 659 663 662
f 659 660 664 663
f 660 657 661 664
v 213.149 0.702 -129.650
v 215.862 0.702 -103.198
v 195.111 0.702 -101.070
v 192.398 0.702 -127.522
v 213.149 4.602 -129.650
v 215.862 4.602 -103.198
v 195.111 4.602 -101.070
v 192.398 4.602 -127.522
f 672 671 670 669
f 665 666 670 669
f 666 667 671 670
f 667 668 672 671
f 668 665 669 672
v 217.186 0.671 -135.991
v 235.321 0.671 -131.996
v 231.434 0.671 -114.349
v 213.299 0.671 -118.344
v 217.186 4.571 -135.991
v 235.321 4.571 -131.996
v 231.434 4.571 -114.349
v 213.299 4.571 -118.344
f 680 679 678 677
f 673 674 678 677
f 674 675 679 678
f 675 676 680 679
f 676 673 677 680
v 117.881 1.003 -5.496
v 139.622 1.003 -4.030
v 138.599 1.003 11.136
v 116.858 1.003 9.670
v 117.881 4.903 -5.496
v 139.622 4.903 -4.030
v 138.599 4.903 11.136
v 116.858 4.903 9.670
f 688 687 686 685
f 681 682 686 685
f 682 683 687 686
f 683 684 688 687
f 684 681 685 688
v 139.346 0.818 -10.592
v 156.463 0.818 -7.948
v 154.514 0.818 4.672
v 137.397 0.818 2.028
v 139.346 4.718 -10.592
v 156.463 4.718 -7.948
v 154.514 4.718 4.672
v 137.397 4.718 2.028
f 696 695 694 693
f 689 690 694 693
f 690 691 695 694
f 691 692 696 695
f 692 689 693 696
v 154.581 0.773 -7.439
v 160.241 0.773 -21.665
v 173.119 0.773 -16.541
v 167.459 0.773 -2.315
v 154.581 4.673 -7.439
v 160.241 4.673 -21.665
v 173.119 4.673 -16.541
v 167.459 4.673 -2.315
f 704 703 702 701
f 697 698 702 701
f 698 699 703 702
f 699 700 704 703
f 700 697 701 704
v 170.897 0.811 -21.478
v 172.457 0.811 -26.059
v 176.443 0.811 -24.702
v 174.883 0.811 -20.121
v 170.897 4.711 -21.478
v 172.457 4.711 -26.059
v 176.443 4.711 -24.702
v 174.883 4.711 -20.121
f 712 711 710 709
f 705 706 710 709
f 706 707 711 710
f 707 708 712 711
f 708 705 709 712
v 175.925 0.798 -23.584
v 191.055 0.798 -17.852
v 186.935 0.798 -6.976
v 171.805 0.798 -12.708
v 175.925 4.698 -23.584
v 191.055 4.698 -17.852
v 186.935 4.698 -6.976
v 171.805 4.698 -12.708
f 720 719 718 717
f 713 714 718 717
f 714 715 719 718
f 715 716 720 719
f 716 713 717 720
v 205.789 0.680 -37.802
v 212.740 0.680 -16.645
v 192.751 0.680 -10.078
v 185.800 0.680 -31.235
v 205.789 4.580 -37.802
v 212.740 4.580 -16.645
v 192.751 4.580 -10.078
v 185.800 4.580 -31.235
f 728 727 726 725
f 721 722 726 725
f 722 723 727 726
f 723 724 728 727
f 724 721 725 728
v 206.685 0.875 -33.012
v 223.931 0.875 -36.470
v 226.935 0.875 -21.488
v 209.689 0.875 -18.030
v 206.685 4.775 -33.012
v 223.931 4.775 -36.470
v 226.935 4.775 -21.488
v 209.689 4.775 -18.030
f 736 735 734 733
f 729 730 734 733
f 730 731 735 734
f 731 732 736 735
f 732 729 733 736
v 217.888 0.599 -32.944
v 229.737 0.599 -48.405
v 244.572 0.599 -37.036
v 232.723 0.599 -21.575
v 217.888 4.499 -32.944
v 229.737 4.499 -48.405
v 244.572 4.499 -37.036
v 232.723 4.499 -21.575
f 744 743 742 741
f 737 738 742 741
f 738 739 743 742
f 739 740 744 743
f 740 737 741 744
v 238.128 0.564 -56.386
v 242.156 0.564 -55.306
v 241.112 0.564 -51.414
v 237.084 0.564 -52.494
v 238.128 4.464 -56.386
v 242.156 4.464 -55.306
v 241.112 4.464 -51.414
v 237.084 4.464 -52.494
f 752 751 750 749
f 745 746 750 749
f 746 747 751 750
f 747 748 752 751
f 748 745 749 752
v 244.154 0.517 -36.650
v 248.452 0.517 -53.387
v 260.666 0.517 -50.250
v 256.368 0.517 -33.513
v 244.154 4.417 -36.650
v 248.452 4.417 -53.387
v 260.666 4.417 -50.250
v 256.368 4.417 -33.513
f 760 759 758 757
f 753 754 758 757
f 754 755 759 758
f 755 756 760 759
f 756 753 757 760
v 132.600 0.665 46.497
v 140.200 0.665 29.696
v 152.200 0.665 35.123
v 144.600 0.665 51.924
v 132.600 4.565 46.497
v 140.200 4.565 29.696
v 152.200 4.565 35.123
v 144.600 4.565 51.924
f 768 767 766 765
f 761 762 766 765
f 762 763 767 766
f 763 764 768 767
f 764 761 765 768
v 160.474 0.645 23.411
v 180.505 0.645 11.846
v 189.526 0.645 27.469
v 169.495 0.645 39.034
v 160.474 4.545 23.411
v 180.505 4.545 11.846
v 189.526 4.545 27.469
v 169.495 4.545 39.034
f 776 775 774 773
f 769 770 774 773
f 770 771 775 774
f 771 772 776 775
f 772 769 773 776
v 181.537 0.844 15.080
v 197.633 0.844 7.433
v 205.143 0.844 23.240
v 189.047 0.844 30.887
v 181.537 4.744 15.080
v 197.633 4.744 7.433
v 205.143 4.744 23.240
v 189.047 4.744 30.887
f 784 783 782 781
f 777 778 782 781
f 778 779 783 782
f 779 780 784 783
f 780 777 781 784
v 199.527 0.708 29.772
v 202.025 0.708 23.340
v 206.733 0.708 25.168
v 204.235 0.708 31.600
v 199.527 4.608 29.772
v 202.025 4.608 23.340
v 206.733 4.608 25.168
v 204.235 4.608 31.600
f 792 791 790 789
f 785 786 790 789
f 786 787 791 790
f 787 788 792 791
f 788 785 789 792
v 198.589 0.620 17.171
v 208.409 0.620 2.915
v 224.311 0.620 13.869
v 214.491 0.620 28.125
v 198.589 4.520 17.171
v 208.409 4.520 2.915
v 224.311 4.520 13.869
v 214.491 4.520 28.125
f 800 799 798 797
f 793 794 798 797
f 794 795 799 798
f 795 796 800 799
f 796 793 797 800
v 207.827 0.464 26.843
v 215.889 0.464 26.055
v 216.673 0.464 34.077
v 208.611 0.464 34.865
v 207.827 4.364 26.843
v 215.889 4.364 26.055
v 216.673 4.364 34.077
v 208.611 4.364 34.865
f 808 807 806 805
f 801 802 806 805
f 802 803 807 806
f 803 804 808 807
f 804 801 805 808
v 230.893 0.531 -4.715
v 240.661 0.531 17.611
v 223.007 0.531 25.335
v 213.239 0.531 3.009
v 230.893 4.431 -4.715
v 240.661 4.431 17.611
v 223.007 4.431 25.335
v 213.239 4.431 3.009
f 816 815 814 813
f 809 810 814 813
f 810 811 815 814
f 811 812 816 815
f 812 809 813 816
v 243.021 0.836 -9.349
v 259.477 0.836 0.484
v 250.619 0.836 15.309
v 234.163 0.836 5.476
v 243.021 4.736 -9.349
v 259.477 4.736 0.484
v 250.619 4.736 15.309
v 234.163 4.736 5.476
f 824 823 822 821
f 817 818 822 821
f 818 819 823 822
f 819 820 824 823
f 820 817 821 824
v 243.256 0.728 20.319
v 245.541 0.728 15.492
v 250.124 0.728 17.661
v 247.839 0.728 22.488
v 243.256 4.628 20.319
v 245.541 4.628 15.492
v 250.124 4.628 17.661
v 247.839 4.628 22.488
f 832 831 830 829
f 825 826 830 829
f 826 827 831 830
f 827 828 832 831
f 828 825 829 832
v 161.696 0.273 76.927
v 162.438 0.273 58.072
v 180.264 0.273 58.773
v 179.522 0.273 77.628
v 161.696 4.173 76.927
v 162.438 4.173 58.072
v 180.264 4.173 58.773
v 179.522 4.173 77.628
f 840 839 838 837
f 833 834 838 837
f 834 835 839 838
f 835 836 840 839
f 836 833 837 840
v 188.015 0.797 50.547
v 199.980 0.797 59.173
v 189.325 0.797 73.953
v 177.360 0.797 65.327
v 188.015 4.697 50.547
v 199.980 4.697 59.173
v 189.325 4.697 73.953
v 177.360 4.697 65.327
f 848 847 846 845
f 841 842 846 845
f 842 843 847 846
f 843 844 848 847
f 844 841 845 848
v 217.918 1.044 41.873
v 231.389 1.044 47.783
v 226.262 1.044 59.467
v 212.791 1.044 53.557
v 217.918 4.944 41.873
v 231.389 4.944 47.783
v 226.262 4.944 59.467
v 212.791 4.944 53.557
f 856 855 854 853
f 849 850 854 853
f 850 851 855 854
f 851 852 856 855
f 852 849 853 856
v 225.033 0.867 47.352
v 236.875 0.867 25.414
v 250.647 0.867 32.848
v 238.805 0.867 54.786
v 225.033 4.767 47.352
v 236.875 4.767 25.414
v 250.647 4.767 32.848
v 238.805 4.767 54.786
f 864 863 862 861
f 857 858 862 861
f 858 859 863 862
f 859 860 864 863
f 860 857 861 864
v 243.863 0.494 33.149
v 246.527 0.494 24.510
v 250.617 0.494 25.771
v 247.953 0.494 34.410
v 243.863 4.394 33.149
v 246.527 4.394 24.510
v 250.617 4.394 25.771
v 247.953 4.394 34.410
f 872 871 870 869
f 865 866 870 869
f 866 867 871 870
f 867 868 872 871
f 868 865 869 872
v 162.666 0.797 241.254
v 166.157 0.797 224.514
v 178.874 0.797 227.166
v 175.383 0.797 243.906
v 162.666 4.697 241.254
v 166.157 4.697 224.514
v 178.874 4.697 227.166
v 175.383 4.697 243.906
f 880 879 878 877
f 873 874 878 877
f 874 875 879 878
f 875 876 880 879
f 876 873 877 880
v 152.032 1.057 210.254
v 155.608 1.057 193.767
v 169.808 1.057 196.846
v 166.232 1.057 213.333
v 152.032 4.957 210.254
v 155.608 4.957 193.767
v 169.808 4.957 196.846
v 166.232 4.957 213.333
f 888 887 886 885
f 881 882 886 885
f 882 883 887 886
f 883 884 888 887
f 884 881 885 888
v 134.947 0.978 202.497
v 150.963 0.978 206.026
v 147.993 0.978 219.503
v 131.977 0.978 215.974
v 134.947 4.878 202.497
v 150.963 4.878 206.026
v 147.993 4.878 219.503
v 131.977 4.878 215.974
f 896 895 894 893
f 889 890 894 893
f 890 891 895 894
f 891 892 896 895
f 892 889 893 896
v 200.106 0.323 227.810
v 204.607 0.323 215.326
v 214.494 0.323 218.890
v 209.993 0.323 231.374
v 200.106 4.223 227.810
v 204.607 4.223 215.326
v 214.494 4.223 218.890
v 209.993 4.223 231.374
f 904 903 902 901
f 897 898 902 901
f 898 899 903 902
f 899 900 904 903
f 900 897 901 904
v 212.723 0.850 226.036
v 215.815 0.850 206.448
v 233.397 0.850 209.224
v 230.305 0.850 228.812
v 212.723 4.750 226.036
v 215.815 4.750 206.448
v 233.397 4.750 209.224
v 230.305 4.750 228.812
f 912 911 910 909
f 905 906 910 909
f 906 907 911 910
f 907 908 912 911
f 908 905 909 912
v 193.971 0.691 170.518
v 221.726 0.691 183.985
v 214.449 0.691 198.982
v 186.694 0.691 185.515
v 193.971 4.591 170.518
v 221.726 4.591 183.985
v 214.449 4.591 198.982
v 186.694 4.591 185.515
f 920 919 918 917
f 913 914 918 917
f 914 915 919 918
f 915 916 920 919
f 916 913 917 920
v 220.985 0.777 179.416
v 226.533 0.777 166.595
v 237.555 0.777 171.364
v 232.007 0.777 184.185
v 220.985 4.677 179.416
v 226.533 4.677 166.595
v 237.555 4.677 171.364
v 232.007 4.677 184.185
f 928 927 926 925
f 921 922 926 925
f 922 923 927 926
f 923 924 928 927
f 924 921 925 928
v -224.475 0.930 110.796
v -222.095 0.930 104.566
v -217.545 0.930 106.304
v -219.925 0.930 112.534
v -224.475 4.830 110.796
v -222.095 4.830 104.566
v -217.545 4.830 106.304
v -219.925 4.830 112.534
f 936 935 934 933
f 929 930 934 933
f 930 931 935 934
f 931 932 936 935
f 932 929 933 936
v -226.361 0.641 41.488
v -220.894 0.641 26.207
v -209.699 0.641 30.212
v -215.166 0.641 45.493
v -226.361 4.541 41.488
v -220.894 4.541 26.207
v -209.699 4.541 30.212
v -215.166 4.541 45.493
f 944 943 942 941
f 937 938 942 941
f 938 939 943 942
f 939 940 944 943
f 940 937 941 944
v -254.643 0.504 52.437
v -250.232 0.504 39.498
v -241.477 0.504 42.483
v -245.888 0.504 55.422
v -254.643 4.404 52.437
v -250.232 4.404 39.498
v -241.477 4.404 42.483
v -245.888 4.404 55.422
f 952 951 950 949
f 945 946 950 949
f 946 947 951 950
f 947 948 952 951
f 948 945 949 952
v -228.018 0.544 130.044
v -224.025 0.544 117.327
v -215.782 0.544 119.916
v -219.775 0.544 132.633
v -228.018 4.444 130.044
v -224.025 4.444 117.327
v -215.782 4.444 119.916
v -219.775 4.444 132.633
f 960 959 958 957
f 953 954 958 957
f 954 955 959 958
f 955 956 960 959
f 956 953 957 960
v -196.255 0.668 103.648
v -193.780 0.668 97.015
v -187.625 0.668 99.312
v -190.100 0.668 105.945
v -196.255 4.568 103.648
v -193.780 4.568 97.015
v -187.625 4.568 99.312
v -190.100 4.568 105.945
f 968 967 966 965
f 961 962 966 965
f 962 963 967 966
f 963 964 968 967
f 964 961 965 968
v -223.337 0.565 96.141
v -218.896 0.565 88.858
v -212.663 0.565 92.659
v -217.104 0.565 99.942
v -223.337 4.465 96.141
v -218.896 4.465 88.858
v -212.663 4.465 92.659
v -217.104 4.465 99.942
f 976 975 974 973
f 969 970 974 973
f 970 971 975 974
f 971 972 976 975
f 972 969 973 976
v -225.477 0.573 85.559
v -219.903 0.573 71.450
v -209.803 0.573 75.441
v -215.377 0.573 89.550
v -225.477 4.473 85.559
v -219.903 4.473 71.450
v -209.803 4.473 75.441
v -215.377 4.473 89.550
f 984 983 982 981
f 977 978 982 981
f 978 979 983 982
f 979 980 984 983
f 980 977 981 984
v -196.822 0.752 105.187
v -183.611 0.752 109.035
v -187.338 0.752 121.833
v -200.549 0.752 117.985
v -196.822 4.652 105.187
v -183.611 4.652 109.035
v -187.338 4.652 121.833
v -200.549 4.652 117.985
f 992 991 990 989
f 985 986 990 989
f 986 987 991 990
f 987 988 992 991
f 988 985 989 992
v -237.959 0.455 46.499
v -232.623 0.455 31.819
v -223.761 0.455 35.041
v -229.097 0.455 49.721
v -237.959 4.355 46.499
v -232.623 4.355 31.819
v -223.761 4.355 35.041
v -229.097 4.355 49.721
f 1000 999 998 997
f 993 994 998 997
f 994 995 999 998
f 995 996 1000 999
f 996 993 997 1000
v -259.412 0.986 -236.750
v -226.809 0.986 -244.141
v -224.408 0.986 -233.550
v -257.011 0.986 -226.159
v -259.412 4.886 -236.750
v -226.809 4.886 -244.141
v -224.408 4.886 -233.550
v -257.011 4.886 -226.159
f 1008 1007 1006 1005
f 1001 1002 1006 1005
f 1002 1003 1007 1006
f 1003 1004 1008 1007
f 1004 1001 1005 1008
v 112.350 0.787 -57.737
v 123.363 0.787 -42.686
v 109.910 0.787 -32.843
v 98.897 0.787 -47.894
v 112.350 4.687 -57.737
v 123.363 4.687 -42.686
v 109.910 4.687 -32.843
v 98.897 4.687 -47.894
f 1016 1015 1014 1013
f 1009 1010 1014 1013
f 1010 1011 1015 1014
f 1011 1012 1016 1015
f 1012 1009 1013 1016
v 115.071 0.794 -90.548
v 127.883 0.794 -85.810
v 124.689 0.794 -77.172
v 111.877 0.794 -81.910
v 115.071 4.694 -90.548
v 127.883 4.694 -85.810
v 124.689 4.694 -77.172
v 111.877 4.694 -81.910
f 1024 1023 1022 1021
f 1017 1018 1022 1021
f 1018 1019 1023 1022
f 1019 1020 1024 1023
f 1020 1017 1021 1024
v 90.811 0.679 -76.688
v 95.607 0.679 -90.742
v 108.649 0.679 -86.292
v 103.853 0.679 -72.238
v 90.811 4.579 -76.688
v 95.607 4.579 -90.742
v 108.649 4.579 -86.292
v 103.853 4.579 -72.238
f 1032 1031 1030 1029
f 1025 1026 1030 1029
f 1026 1027 1031 1030
f 1027 1028 1032 1031
f 1028 1025 1029 1032
v -214.080 0.633 34.820
v -205.908 0.633 17.667
v -194.840 0.633 22.940
v -203.012 0.633 40.093
v -214.080 4.533 34.820
v -205.908 4.533 17.667
v -194.840 4.533 22.940
v -203.012 4.533 40.093
f 1040 1039 1038 1037
f 1033 1034 1038 1037
f 1034 1035 1039 1038
f 1035 1036 1040 1039
f 1036 1033 1037 1040
v -175.294 0.735 6.661
v -152.821 0.735 15.083
v -158.306 0.735 29.719
v -180.779 0.735 21.297
v -175.294 4.635 6.661
v -152.821 4.635 15.083
v -158.306 4.635 29.719
v -180.779 4.635 21.297
f 1048 1047 1046 1045
f 1041 1042 1046 1045
f 1042 1043 1047 1046
f 1043 1044 1048 1047
f 1044 1041 1045 1048
v -232.306 0.372 -125.139
v -223.573 0.372 -135.435
v -221.034 0.372 -133.281
v -229.767 0.372 -122.985
v -232.306 4.272 -125.139
v -223.573 4.272 -135.435
v -221.034 4.272 -133.281
v -229.767 4.272 -122.985
f 1056 1055 1054 1053
f 1049 1050 1054 1053
f 1050 1051 1055 1054
f 1051 1052 1056 1055
f 1052 1049 1053 1056
v 162.090 0.284 118.109
v 167.133 0.284 103.760
v 177.350 0.284 107.351
v 172.307 0.284 121.700
v 162.090 4.184 118.109
v 167.133 4.184 103.760
v 177.350 4.184 107.351
v 172.307 4.184 121.700
f 1064 1063 1062 1061
f 1057 1058 1062 1061
f 1058 1059 1063 1062
f 1059 1060 1064 1063
f 1060 1057 1061 1064
v 158.044 0.365 131.653
v 164.560 0.365 118.332
v 172.196 0.365 122.067
v 165.680 0.365 135.388
v 158.044 4.265 131.653
v 164.560 4.265 118.332
v 172.196 4.265 122.067
v 165.680 4.265 135.388
f 1072 1071 1070 1069
f 1065 1066 1070 1069
f 1066 1067 1071 1070
f 1067 1068 1072 1071
f 1068 1065 1069 1072
v 180.779 0.410 101.088
v 194.407 0.410 105.802
v 190.121 0.410 118.192
v 176.493 0.410 113.478
v 180.779 4.310 101.088
v 194.407 4.310 105.802
v 190.121 4.310 118.192
v 176.493 4.310 113.478
f 1080 1079 1078 1077
f 1073 1074 1078 1077
f 1074 1075 1079 1078
f 1075 1076 1080 1079
f 1076 1073 1077 1080
v 194.847 0.843 114.830
v 198.494 0.843 93.195
v 213.413 0.843 95.710
v 209.766 0.843 117.345
v 194.847 4.743 114.830
v 198.494 4.743 93.195
v 213.413 4.743 95.710
v 209.766 4.743 117.345
f 1088 1087 1086 1085
f 1081 1082 1086 1085
f 1082 1083 1087 1086
f 1083 1084 1088 1087
f 1084 1081 1085 1088
v 171.963 0.250 157.617
v 172.410 0.250 135.222
v 189.497 0.250 135.563
v 189.050 0.250 157.958
v 171.963 4.150 157.617
v 172.410 4.150 135.222
v 189.497 4.150 135.563
v 189.050 4.150 157.958
f 1096 1095 1094 1093
f 1089 1090 1094 1093
f 1090 1091 1095 1094
f 1091 1092 1096 1095
f 1092 1089 1093 1096
v 179.793 0.510 134.471
v 181.444 0.510 129.879
v 184.587 0.510 131.009
v 182.936 0.510 135.601
v 179.793 4.410 134.471
v 181.444 4.410 129.879
v 184.587 4.410 131.009
v 182.936 4.410 135.601
f 1104 1103 1102 1101
f 1097 1098 1102 1101
f 1098 1099 1103 1102
f 1099 1100 1104 1103
f 1100 1097 1101 1104
v 201.130 0.961 129.409
v 210.554 0.961 147.637
v 195.710 0.961 155.311
v 186.286 0.961 137.083
v 201.130 4.861 129.409
v 210.554 4.861 147.637
v 195.710 4.861 155.311
v 186.286 4.861 137.083
f 1112 1111 1110 1109
f 1105 1106 1110 1109
f 1106 1107 1111 1110
f 1107 1108 1112 1111
f 1108 1105 1109 1112
v 186.785 0.741 125.564
v 193.884 0.741 128.103
v 192.055 0.741 133.216
v 184.956 0.741 130.677
v 186.785 4.641 125.564
v 193.884 4.641 128.103
v 192.055 4.641 133.216
v 184.956 4.641 130.677
f 1120 1119 1118 1117
f 1113 1114 1118 1117
f 1114 1115 1119 1118
f 1115 1116 1120 1119
f 1116 1113 1117 1120
v 201.612 1.091 132.039
v 222.039 1.091 126.111
v 226.888 1.091 142.821
v 206.461 1.091 148.749
v 201.612 4.991 132.039
v 222.039 4.991 126.111
v 226.888 4.991 142.821
v 206.461 4.991 148.749
f 1128 1127 1126 1125
f 1121 1122 1126 1125
f 1122 1123 1127 1126
f 1123 1124 1128 1127
f 1124 1121 1125 1128
v 214.310 1.361 127.213
v 216.185 1.361 122.406
v 220.750 1.361 124.187
v 218.875 1.361 128.994
v 214.310 5.261 127.213
v 216.185 5.261 122.406
v 220.750 5.261 124.187
v 218.875 5.261 128.994
f 1136 1135 1134 1133
f 1129 1130 1134 1133
f 1130 1131 1135 1134
f 1131 1132 1136 1135
f 1132 1129 1133 1136
v 240.221 0.762 122.255
v 240.477 0.762 140.853
v 223.639 0.762 141.085
v 223.383 0.762 122.487
v 240.221 4.662 122.255
v 240.477 4.662 140.853
v 223.639 4.662 141.085
v 223.383 4.662 122.487
f 1144 1143 1142 1141
f 1137 1138 1142 1141
f 1138 1139 1143 1142
f 1139 1140 1144 1143
f 1140 1137 1141 1144
v 244.811 0.888 117.830
v 257.984 0.888 122.076
v 254.189 0.888 133.850
v 241.016 0.888 129.604
v 244.811 4.788 117.830
v 257.984 4.788 122.076
v 254.189 4.788 133.850
v 241.016 4.788 129.604
f 1152 1151 1150 1149
f 1145 1146 1150 1149
f 1146 1147 1151 1150
f 1147 1148 1152 1151
f 1148 1145 1149 1152
v 229.295 0.946 105.807
v 234.247 0.946 107.752
v 232.825 0.946 111.373
v 227.873 0.946 109.428
v 229.295 4.846 105.807
v 234.247 4.846 107.752
v 232.825 4.846 111.373
v 227.873 4.846 109.428
f 1160 1159 1158 1157
f 1153 1154 1158 1157
f 1154 1155 1159 1158
f 1155 1156 1160 1159
f 1156 1153 1157 1160
v 227.572 1.050 96.684
v 234.196 1.050 80.054
v 250.268 1.050 86.456
v 243.644 1.050 103.086
v 227.572 4.950 96.684
v 234.196 4.950 80.054
v 250.268 4.950 86.456
v 243.644 4.950 103.086
f 1168 1167 1166 1165
f 1161 1162 1166 1165
f 1162 1163 1167 1166
f 1163 1164 1168 1167
f 1164 1161 1165 1168
v 244.765 0.708 80.637
v 259.267 0.708 74.142
v 264.875 0.708 86.663
v 250.373 0.708 93.158
v 244.765 4.608 80.637
v 259.267 4.608 74.142
v 264.875 4.608 86.663
v 250.373 4.608 93.158
f 1176 1175 1174 1173
f 1169 1170 1174 1173
f 1170 1171 1175 1174
f 1171 1172 1176 1175
f 1172 1169 1173 1176
v -170.051 0.674 247.392
v -168.433 0.674 243.022
v -165.769 0.674 244.008
v -167.387 0.674 248.378
v -170.051 4.574 247.392
v -168.433 4.574 243.022
v -165.769 4.574 244.008
v -167.387 4.574 248.378
f 1184 1183 1182 1181
f 1177 1178 1182 1181
f 1178 1179 1183 1182
f 1179 1180 1184 1183
f 1180 1177 1181 1184
v -231.389 0.763 252.491
v -227.017 0.763 240.015
v -220.071 0.763 242.449
v -224.443 0.763 254.925
v -231.389 4.663 252.491
v -227.017 4.663 240.015
v -220.071 4.663 242.449
v -224.443 4.663 254.925
f 1192 1191 1190 1189
f 1185 1186 1190 1189
f 1186 1187 1191 1190
f 1187 1188 1192 1191
f 1188 1185 1189 1192
v -215.994 0.645 251.224
v -210.799 0.645 235.163
v -204.386 0.645 237.236
v -209.581 0.645 253.297
v -215.994 4.545 251.224
v -210.799 4.545 235.163
v -204.386 4.545 237.236
v -209.581 4.545 253.297
f 1200 1199 1198 1197
f 1193 1194 1198 1197
f 1194 1195 1199 1198
f 1195 1196 1200 1199
f 1196 1193 1197 1200
v -185.860 0.688 246.602
v -178.908 0.688 227.221
v -171.500 0.688 229.878
v -178.452 0.688 249.259
v -185.860 4.588 246.602
v -178.908 4.588 227.221
v -171.500 4.588 229.878
v -178.452 4.588 249.259
f 1208 1207 1206 1205
f 1201 1202 1206 1205
f 1202 1203 1207 1206
f 1203 1204 1208 1207
f 1204 1201 1205 1208
v -193.547 0.656 223.952
v -185.867 0.656 240.132
v -200.313 0.656 246.988
v -207.993 0.656 230.808
v -193.547 4.556 223.952
v -185.867 4.556 240.132
v -200.313 4.556 246.988
v -207.993 4.556 230.808
f 1216 1215 1214 1213
f 1209 1210 1214 1213
f 1210 1211 1215 1214
f 1211 1212 1216 1215
f 1212 1209 1213 1216
v -161.680 0.925 228.824
v -156.660 0.925 215.327
v -144.860 0.925 219.716
v -149.880 0.925 233.213
v -161.680 4.825 228.824
v -156.660 4.825 215.327
v -144.860 4.825 219.716
v -149.880 4.825 233.213
f 1224 1223 1222 1221
f 1217 1218 1222 1221
f 1218 1219 1223 1222
f 1219 1220 1224 1223
f 1220 1217 1221 1224
v -174.021 0.689 167.415
v -153.655 0.689 174.907
v -157.039 0.689 184.105
v -177.405 0.689 176.613
v -174.021 4.589 167.415
v -153.655 4.589 174.907
v -157.039 4.589 184.105
v -177.405 4.589 176.613
f 1232 1231 1230 1229
f 1225 1226 1230 1229
f 1226 1227 1231 1230
f 1227 1228 1232 1231
f 1228 1225 1229 1232
v -172.926 0.506 167.435
v -167.123 0.506 169.072
v -167.894 0.506 171.805
v -173.697 0.506 170.168
v -172.926 4.406 167.435
v -167.123 4.406 169.072
v -167.894 4.406 171.805
v -173.697 4.406 170.168
f 1240 1239 1238 1237
f 1233 1234 1238 1237
f 1234 1235 1239 1238
f 1235 1236 1240 1239
f 1236 1233 1237 1240
v -169.335 0.825 178.283
v -148.515 0.825 186.602
v -152.285 0.825 196.037
v -173.105 0.825 187.718
v -169.335 4.725 178.283
v -148.515 4.725 186.602
v -152.285 4.725 196.037
v -173.105 4.725 187.718
f 1248 1247 1246 1245
f 1241 1242 1246 1245
f 1242 1243 1247 1246
f 1243 1244 1248 1247
f 1244 1241 1245 1248
v -188.180 0.913 202.337
v -184.093 0.913 186.341
v -174.540 0.913 188.783
v -178.627 0.913 204.779
v -188.180 4.813 202.337
v -184.093 4.813 186.341
v -174.540 4.813 188.783
v -178.627 4.813 204.779
f 1256 1255 1254 1253
f 1249 1250 1254 1253
f 1250 1251 1255 1254
f 1251 1252 1256 1255
f 1252 1249 1253 1256
v -187.486 0.507 173.573
v -177.418 0.507 176.794
v -179.514 0.507 183.347
v -189.582 0.507 180.126
v -187.486 4.407 173.573
v -177.418 4.407 176.794
v -179.514 4.407 183.347
v -189.582 4.407 180.126
f 1264 1263 1262 1261
f 1257 1258 1262 1261
f 1258 1259 1263 1262
f 1259 1260 1264 1263
f 1260 1257 1261 1264
v -168.054 0.856 147.555
v -163.660 0.856 135.820
v -157.826 0.856 138.005
v -162.220 0.856 149.740
v -168.054 4.756 147.555
v -163.660 4.756 135.820
v -157.826 4.756 138.005
v -162.220 4.756 149.740
f 1272 1271 1270 1269
f 1265 1266 1270 1269
f 1266 1267 1271 1270
f 1267 1268 1272 1271
f 1268 1265 1269 1272
v -186.004 0.501 155.851
v -181.847 0.501 144.551
v -172.556 0.501 147.969
v -176.713 0.501 159.269
v -186.004 4.401 155.851
v -181.847 4.401 144.551
v -172.556 4.401 147.969
v -176.713 4.401 159.269
f 1280 1279 1278 1277
f 1273 1274 1278 1277
f 1274 1275 1279 1278
f 1275 1276 1280 1279
f 1276 1273 1277 1280
v -200.760 0.696 167.340
v -192.027 0.696 147.529
v -180.480 0.696 152.620
v -189.213 0.696 172.431
v -200.760 4.596 167.340
v -192.027 4.596 147.529
v -180.480 4.596 152.620
v -189.213 4.596 172.431
f 1288 1287 1286 1285
f 1281 1282 1286 1285
f 1282 1283 1287 1286
f 1283 1284 1288 1287
f 1284 1281 1285 1288
v -213.251 0.486 154.455
v -207.813 0.486 173.795
v -227.269 0.486 179.265
v -232.707 0.486 159.925
v -213.251 4.386 154.455
v -207.813 4.386 173.795
v -227.269 4.386 179.265
v -232.707 4.386 159.925
f 1296 1295 1294 1293
f 1289 1290 1294 1293
f 1290 1291 1295 1294
f 1291 1292 1296 1295
f 1292 1289 1293 1296
v -205.782 0.733 194.997
v -200.180 0.733 180.223
v -187.678 0.733 184.963
v -193.280 0.733 199.737
v -205.782 4.633 194.997
v -200.180 4.633 180.223
v -187.678 4.633 184.963
v -193.280 4.633 199.737
f 1304 1303 1302 1301
f 1297 1298 1302 1301
f 1298 1299 1303 1302
f 1299 1300 1304 1303
f 1300 1297 1301 1304
v -196.407 0.639 201.680
v -187.788 0.639 204.474
v -189.333 0.639 209.240
v -197.952 0.639 206.446
v -196.407 4.539 201.680
v -187.788 4.539 204.474
v -189.333 4.539 209.240
v -197.952 4.539 206.446
f 1312 1311 1310 1309
f 1305 1306 1310 1309
f 1306 1307 1311 1310
f 1307 1308 1312 1311
f 1308 1305 1309 1312
v -213.695 0.674 184.221
v -204.576 0.674 189.178
v -208.545 0.674 196.479
v -217.664 0.674 191.522
v -213.695 4.574 184.221
v -204.576 4.574 189.178
v -208.545 4.574 196.479
v -217.664 4.574 191.522
f 1320 1319 1318 1317
f 1313 1314 1318 1317
f 1314 1315 1319 1318
f 1315 1316 1320 1319
f 1316 1313 1317 1320
v -213.265 0.609 207.141
v -208.425 0.609 192.142
v -200.935 0.609 194.559
v -205.775 0.609 209.558
v -213.265 4.509 207.141
v -208.425 4.509 192.142
v -200.935 4.509 194.559
v -205.775 4.509 209.558
f 1328 1327 1326 1325
f 1321 1322 1326 1325
f 1322 1323 1327 1326
f 1323 1324 1328 1327
f 1324 1321 1325 1328
v -228.691 0.683 198.286
v -225.166 0.683 188.109
v -217.069 0.683 190.914
v -220.594 0.683 201.091
v -228.691 4.583 198.286
v -225.166 4.583 188.109
v -217.069 4.583 190.914
v -220.594 4.583 201.091
f 1336 1335 1334 1333
f 1329 1330 1334 1333
f 1330 1331 1335 1334
f 1331 1332 1336 1335
f 1332 1329 1333 1336
v -243.732 0.562 210.867
v -238.966 0.562 197.916
v -229.028 0.562 201.573
v -233.794 0.562 214.524
v -243.732 4.462 210.867
v -238.966 4.462 197.916
v -229.028 4.462 201.573
v -233.794 4.462 214.524
f 1344 1343 1342 1341
f 1337 1338 1342 1341
f 1338 1339 1343 1342
f 1339 1340 1344 1343
f 1340 1337 1341 1344
v -154.835 0.607 79.189
v -144.221 0.607 82.793
v -147.385 0.607 92.111
v -157.999 0.607 88.507
v -154.835 4.507 79.189
v -144.221 4.507 82.793
v -147.385 4.507 92.111
v -157.999 4.507 88.507
f 1352 1351 1350 1349
f 1345 1346 1350 1349
f 1346 1347 1351 1350
f 1347 1348 1352 1351
f 1348 1345 1349 1352
v -132.910 0.467 75.069
v -131.504 0.467 71.314
v -128.470 0.467 72.451
v -129.876 0.467 76.206
v -132.910 4.367 75.069
v -131.504 4.367 71.314
v -128.470 4.367 72.451
v -129.876 4.367 76.206
f 1360 1359 1358 1357
f 1353 1354 1358 1357
f 1354 1355 1359 1358
f 1355 1356 1360 1359
f 1356 1353 1357 1360
v -124.934 0.561 67.046
v -120.800 0.561 68.301
v -121.526 0.561 70.694
v -125.660 0.561 69.439
v -124.934 4.461 67.046
v -120.800 4.461 68.301
v -121.526 4.461 70.694
v -125.660 4.461 69.439
f 1368 1367 1366 1365
f 1361 1362 1366 1365
f 1362 1363 1367 1366
f 1363 1364 1368 1367
f 1364 1361 1365 1368
v -186.916 0.708 113.409
v -181.874 0.708 94.841
v -169.464 0.708 98.211
v -174.506 0.708 116.779
v -186.916 4.608 113.409
v -181.874 4.608 94.841
v -169.464 4.608 98.211
v -174.506 4.608 116.779
f 1376 1375 1374 1373
f 1369 1370 1374 1373
f 1370 1371 1375 1374
f 1371 1372 1376 1375
f 1372 1369 1373 1376
v -215.089 0.486 126.211
v -212.185 0.486 107.070
v -198.611 0.486 109.129
v -201.515 0.486 128.270
v -215.089 4.386 126.211
v -212.185 4.386 107.070
v -198.611 4.386 109.129
v -201.515 4.386 128.270
f 1384 1383 1382 1381
f 1377 1378 1382 1381
f 1378 1379 1383 1382
f 1379 1380 1384 1383
f 1380 1377 1381 1384
v -198.543 0.803 59.980
v -196.984 0.803 86.575
v -212.757 0.803 87.500
v -214.316 0.803 60.905
v -198.543 4.703 59.980
v -196.984 4.703 86.575
v -212.757 4.703 87.500
v -214.316 4.703 60.905
f 1392 1391 1390 1389
f 1385 1386 1390 1389
f 1386 1387 1391 1390
f 1387 1388 1392 1391
f 1388 1385 1389 1392
v -203.928 0.922 72.342
v -193.269 0.922 54.855
v -180.632 0.922 62.558
v -191.291 0.922 80.045
v -203.928 4.822 72.342
v -193.269 4.822 54.855
v -180.632 4.822 62.558
v -191.291 4.822 80.045
f 1400 1399 1398 1397
f 1393 1394 1398 1397
f 1394 1395 1399 1398
f 1395 1396 1400 1399
f 1396 1393 1397 1400
v -243.772 1.492 129.984
v -238.697 1.492 116.894
v -226.828 1.492 121.496
v -231.903 1.492 134.586
v -243.772 5.392 129.984
v -238.697 5.392 116.894
v -226.828 5.392 121.496
v -231.903 5.392 134.586
f 1408 1407 1406 1405
f 1401 1402 1406 1405
f 1402 1403 1407 1406
f 1403 1404 1408 1407
f 1404 1401 1405 1408
v -262.759 0.892 136.114
v -251.318 0.892 117.171
v -237.981 0.892 125.226
v -249.422 0.892 144.169
v -262.759 4.792 136.114
v -251.318 4.792 117.171
v -237.981 4.792 125.226
v -249.422 4.792 144.169
f 1416 1415 1414 1413
f 1409 1410 1414 1413
f 1410 1411 1415 1414
f 1411 1412 1416 1415
f 1412 1409 1413 1416
v -256.739 0.677 99.945
v -250.750 0.677 81.146
v -237.601 0.677 85.335
v -243.590 0.677 104.134
v -256.739 4.577 99.945
v -250.750 4.577 81.146
v -237.601 4.577 85.335
v -243.590 4.577 104.134
f 1424 1423 1422 1421
f 1417 1418 1422 1421
f 1418 1419 1423 1422
f 1419 1420 1424 1423
f 1420 1417 1421 1424
v -240.542 0.329 94.391
v -234.108 0.329 77.602
v -222.818 0.329 81.929
v -229.252 0.329 98.718
v -240.542 4.229 94.391
v -234.108 4.229 77.602
v -222.818 4.229 81.929
v -229.252 4.229 98.718
f 1432 1431 1430 1429
f 1425 1426 1430 1429
f 1426 1427 1431 1430
f 1427 1428 1432 1431
f 1428 1425 1429 1432
v -171.157 1.164 65.096
v -161.043 1.164 48.893
v -149.523 1.164 56.084
v -159.637 1.164 72.287
v -171.157 5.064 65.096
v -161.043 5.064 48.893
v -149.523 5.064 56.084
v -159.637 5.064 72.287
f 1440 1439 1438 1437
f 1433 1434 1438 1437
f 1434 1435 1439 1438
f 1435 1436 1440 1439
f 1436 1433 1437 1440
v -154.515 0.710 63.408
v -151.281 0.710 49.807
v -143.605 0.710 51.632
v -146.839 0.710 65.233
v -154.515 4.610 63.408
v -151.281 4.610 49.807
v -143.605 4.610 51.632
v -146.839 4.610 65.233
f 1448 1447 1446 1445
f 1441 1442 1446 1445
f 1442 1443 1447 1446
f 1443 1444 1448 1447
f 1444 1441 1445 1448
v -139.977 0.535 69.962
v -137.752 0.535 64.057
v -133.503 0.535 65.658
v -135.728 0.535 71.563
v -139.977 4.435 69.962
v -137.752 4.435 64.057
v -133.503 4.435 65.658
v -135.728 4.435 71.563
f 1456 1455 1454 1453
f 1449 1450 1454 1453
f 1450 1451 1455 1454
f 1451 1452 1456 1455
f 1452 1449 1453 1456
v -141.011 0.718 66.077
v -137.398 0.718 41.349
v -122.249 0.718 43.563
v -125.862 0.718 68.291
v -141.011 4.618 66.077
v -137.398 4.618 41.349
v -122.249 4.618 43.563
v -125.862 4.618 68.291
f 1464 1463 1462 1461
f 1457 1458 1462 1461
f 1458 1459 1463 1462
f 1459 1460 1464 1463
f 1460 1457 1461 1464
v -131.198 0.593 52.002
v -117.825 0.593 30.549
v -103.662 0.593 39.378
v -117.035 0.593 60.831
v -131.198 4.493 52.002
v -117.825 4.493 30.549
v -103.662 4.493 39.378
v -117.035 4.493 60.831
f 1472 1471 1470 1469
f 1465 1466 1470 1469
f 1466 1467 1471 1470
f 1467 1468 1472 1471
f 1468 1465 1469 1472
v -111.234 0.692 49.862
v -104.896 0.692 31.527
v -95.606 0.692 34.738
v -101.944 0.692 53.073
v -111.234 4.592 49.862
v -104.896 4.592 31.527
v -95.606 4.592 34.738
v -101.944 4.592 53.073
f 1480 1479 1478 1477
f 1473 1474 1478 1477
f 1474 1475 1479 1478
f 1475 1476 1480 1479
f 1476 1473 1477 1480
v -97.626 0.352 46.102
v -90.986 0.352 25.947
v -80.634 0.352 29.358
v -87.274 0.352 49.513
v -97.626 4.252 46.102
v -90.986 4.252 25.947
v -80.634 4.252 29.358
v -87.274 4.252 49.513
f 1488 1487 1486 1485
f 1481 1482 1486 1485
f 1482 1483 1487 1486
f 1483 1484 1488 1487
f 1484 1481 1485 1488
v -84.682 0.267 54.350
v -81.889 0.267 55.497
v -82.838 0.267 57.810
v -85.631 0.267 56.663
v -84.682 4.167 54.350
v -81.889 4.167 55.497
v -82.838 4.167 57.810
v -85.631 4.167 56.663
f 1496 1495 1494 1493
f 1489 1490 1494 1493
f 1490 1491 1495 1494
f 1491 1492 1496 1495
f 1492 1489 1493 1496
v -80.516 0.339 52.396
v -77.760 0.339 53.231
v -78.484 0.339 55.624
v -81.240 0.339 54.789
v -80.516 4.239 52.396
v -77.760 4.239 53.231
v -78.484 4.239 55.624
v -81.240 4.239 54.789
f 1504 1503 1502 1501
f 1497 1498 1502 1501
f 1498 1499 1503 1502
f 1499 1500 1504 1503
f 1500 1497 1501 1504
v -84.029 0.893 41.779
v -81.971 0.893 21.674
v -68.611 0.893 23.041
v -70.669 0.893 43.146
v -84.029 4.793 41.779
v -81.971 4.793 21.674
v -68.611 4.793 23.041
v -70.669 4.793 43.146
f 1512 1511 1510 1509
f 1505 1506 1510 1509
f 1506 1507 1511 1510
f 1507 1508 1512 1511
f 1508 1505 1509 1512
v -99.513 1.269 -5.007
v -90.993 1.269 -25.193
v -73.507 1.269 -17.813
v -82.027 1.269 2.373
v -99.513 5.169 -5.007
v -90.993 5.169 -25.193
v -73.507 5.169 -17.813
v -82.027 5.169 2.373
f 1520 1519 1518 1517
f 1513 1514 1518 1517
f 1514 1515 1519 1518
f 1515 1516 1520 1519
f 1516 1513 1517 1520
v -120.202 -0.133 -4.548
v -101.664 -0.133 1.067
v -105.238 -0.133 12.868
v -123.776 -0.133 7.253
v -120.202 3.767 -4.548
v -101.664 3.767 1.067
v -105.238 3.767 12.868
v -123.776 3.767 7.253
f 1528 1527 1526 1525
f 1521 1522 1526 1525
f 1522 1523 1527 1526
f 1523 1524 1528 1527
f 1524 1521 1525 1528
v -156.081 0.170 7.526
v -136.365 0.170 -11.067
v -119.899 0.170 6.394
v -139.615 0.170 24.987
v -156.081 4.070 7.526
v -136.365 4.070 -11.067
v -119.899 4.070 6.394
v -139.615 4.070 24.987
f 1536 1535 1534 1533
f 1529 1530 1534 1533
f 1530 1531 1535 1534
f 1531 1532 1536 1535
f 1532 1529 1533 1536
v 123.822 0.646 134.833
v 128.214 0.646 114.328
v 140.818 0.646 117.027
v 136.426 0.646 137.532
v 123.822 4.546 134.833
v 128.214 4.546 114.328
v 140.818 4.546 117.027
v 136.426 4.546 137.532
f 1544 1543 1542 1541
f 1537 1538 1542 1541
f 1538 1539 1543 1542
f 1539 1540 1544 1543
f 1540 1537 1541 1544
v 136.213 0.854 166.987
v 142.010 0.854 146.887
v 155.347 0.854 150.733
v 149.550 0.854 170.833
v 136.213 4.754 166.987
v 142.010 4.754 146.887
v 155.347 4.754 150.733
v 149.550 4.754 170.833
f 1552 1551 1550 1549
f 1545 1546 1550 1549
f 1546 1547 1551 1550
f 1547 1548 1552 1551
f 1548 1545 1549 1552
v 122.006 0.844 171.996
v 124.340 0.844 154.229
v 138.914 0.844 156.144
v 136.580 0.844 173.911
v 122.006 4.744 171.996
v 124.340 4.744 154.229
v 138.914 4.744 156.144
v 136.580 4.744 173.911
f 1560 1559 1558 1557
f 1553 1554 1558 1557
f 1554 1555 1559 1558
f 1555 1556 1560 1559
f 1556 1553 1557 1560
v 119.722 0.921 234.269
v 126.136 0.921 236.437
v 124.698 0.921 240.691
v 118.284 0.921 238.523
v 119.722 4.821 234.269
v 126.136 4.821 236.437
v 124.698 4.821 240.691
v 118.284 4.821 238.523
f 1568 1567 1566 1565
f 1561 1562 1566 1565
f 1562 1563 1567 1566
f 1563 1564 1568 1567
f 1564 1561 1565 1568
v 204.216 0.602 210.293
v 206.249 0.602 204.627
v 210.484 0.602 206.147
v 208.451 0.602 211.813
v 204.216 4.502 210.293
v 206.249 4.502 204.627
v 210.484 4.502 206.147
v 208.451 4.502 211.813
f 1576 1575 1574 1573
f 1569 1570 1574 1573
f 1570 1571 1575 1574
f 1571 1572 1576 1575
f 1572 1569 1573 1576
v 193.590 0.422 196.745
v 199.363 0.422 198.837
v 198.270 0.422 201.855
v 192.497 0.422 199.763
v 193.590 4.322 196.745
v 199.363 4.322 198.837
v 198.270 4.322 201.855
v 192.497 4.322 199.763
f 1584 1583 1582 1581
f 1577 1578 1582 1581
f 1578 1579 1583 1582
f 1579 1580 1584 1583
f 1580 1577 1581 1584
v 204.262 0.596 198.023
v 207.774 0.596 199.338
v 206.718 0.596 202.157
v 203.206 0.596 200.842
v 204.262 4.496 198.023
v 207.774 4.496 199.338
v 206.718 4.496 202.157
v 203.206 4.496 200.842
f 1592 1591 1590 1589
f 1585 1586 1590 1589
f 1586 1587 1591 1590
f 1587 1588 1592 1591
f 1588 1585 1589 1592
v 206.464 0.663 198.605
v 209.445 0.663 190.677
v 213.536 0.663 192.215
v 210.555 0.663 200.143
v 206.464 4.563 198.605
v 209.445 4.563 190.677
v 213.536 4.563 192.215
v 210.555 4.563 200.143
f 1600 1599 1598 1597
f 1593 1594 1598 1597
f 1594 1595 1599 1598
f 1595 1596 1600 1599
f 1596 1593 1597 1600
v 220.445 0.677 188.350
v 232.678 0.677 181.750
v 238.775 0.677 193.050
v 226.542 0.677 199.650
v 220.445 4.577 188.350
v 232.678 4.577 181.750
v 238.775 4.577 193.050
v 226.542 4.577 199.650
f 1608 1607 1606 1605
f 1601 1602 1606 1605
f 1602 1603 1607 1606
f 1603 1604 1608 1607
f 1604 1601 1605 1608
v -158.066 0.500 7.099
v -156.321 0.500 2.031
v -153.154 0.500 3.121
v -154.899 0.500 8.189
v -158.066 4.400 7.099
v -156.321 4.400 2.031
v -153.154 4.400 3.121
v -154.899 4.400 8.189
f 1616 1615 1614 1613
f 1609 1610 1614 1613
f 1610 1611 1615 1614
f 1611 1612 1616 1615
f 1612 1609 1613 1616
v -207.955 0.270 3.306
v -203.814 0.270 4.636
v -204.725 0.270 7.474
v -208.866 0.270 6.144
v -207.955 4.170 3.306
v -203.814 4.170 4.636
v -204.725 4.170 7.474
v -208.866 4.170 6.144
f 1624 1623 1622 1621
f 1617 1618 1622 1621
f 1618 1619 1623 1622
f 1619 1620 1624 1623
f 1620 1617 1621 1624
v -65.140 0.070 26.473
v -61.861 0.070 16.225
v -59.480 0.070 16.987
v -62.759 0.070 27.235
v -65.140 3.970 26.473
v -61.861 3.970 16.225
v -59.480 3.970 16.987
v -62.759 3.970 27.235
f 1632 1631 1630 1629
f 1625 1626 1630 1629
f 1626 1627 1631 1630
f 1627 1628 1632 1631
f 1628 1625 1629 1632
v -61.952 0.223 39.252
v -59.026 0.223 29.303
v -56.628 0.223 30.008
v -59.554 0.223 39.957
v -61.952 4.123 39.252
v -59.026 4.123 29.303
v -56.628 4.123 30.008
v -59.554 4.123 39.957
f 1640 1639 1638 1637
f 1633 1634 1638 1637
f 1634 1635 1639 1638
f 1635 1636 1640 1639
f 1636 1633 1637 1640
v -75.710 0.738 43.650
v -72.206 0.738 44.383
v -72.910 0.738 47.750
v -76.414 0.738 47.017
v -75.710 4.638 43.650
v -72.206 4.638 44.383
v -72.910 4.638 47.750
v -76.414 4.638 47.017
f 1648 1647 1646 1645
f 1641 1642 1646 1645
f 1642 1643 1647 1646
f 1643 1644 1648 1647
f 1644 1641 1645 1648
v 86.450 0.658 -96.158
v 92.251 0.658 -94.588
v 91.470 0.658 -91.702
v 85.669 0.658 -93.272
v 86.450 4.558 -96.158
v 92.251 4.558 -94.588
v 91.470 4.558 -91.702
v 85.669 4.558 -93.272
f 1656 1655 1654 1653
f 1649 1650 1654 1653
f 1650 1651 1655 1654
f 1651 1652 1656 1655
f 1652 1649 1653 1656
v 112.662 0.580 -25.551
v 114.144 0.580 -30.000
v 118.318 0.580 -28.609
v 116.836 0.580 -24.160
v 112.662 4.480 -25.551
v 114.144 4.480 -30.000
v 118.318 4.480 -28.609
v 116.836 4.480 -24.160
f 1664 1663 1662 1661
f 1657 1658 1662 1661
f 1658 1659 1663 1662
f 1659 1660 1664 1663
f 1660 1657 1661 1664
v 114.507 0.715 -13.572
v 122.528 0.715 -11.438
v 121.233 0.715 -6.568
v 113.212 0.715 -8.702
v 114.507 4.615 -13.572
v 122.528 4.615 -11.438
v 121.233 4.615 -6.568
v 113.212 4.615 -8.702
f 1672 1671 1670 1669
f 1665 1666 1670 1669
f 1666 1667 1671 1670
f 1667 1668 1672 1671
f 1668 1665 1669 1672
v 17.420 0.961 -138.037
v 19.399 0.961 -131.615
v 15.920 0.961 -130.543
v 13.941 0.961 -136.965
v 17.420 4.861 -138.037
v 19.399 4.861 -131.615
v 15.920 4.861 -130.543
v 13.941 4.861 -136.965
f 1680 1679 1678 1677
f 1673 1674 1678 1677
f 1674 1675 1679 1678
f 1675 1676 1680 1679
f 1676 1673 1677 1680
usemtl road
v 255.103 1.167 143.451
v 165.843 0.894 174.260
v 167.637 0.890 179.460
v 256.897 1.155 148.650
f 1681 1682 1683 1684
v 2.160 0.497 230.638
v -64.390 0.733 253.398
v -62.611 0.739 258.602
v 3.940 0.379 235.842
f 1685 1686 1687 1688
v -258.596 0.825 205.410
v -248.236 1.058 235.067
v -243.044 1.056 233.253
v -253.404 0.755 203.596
f 1689 1690 1691 1692
v -67.970 0.588 4.705
v -183.310 0.756 42.195
v -181.610 0.780 47.425
v -66.270 0.611 9.935
f 1693 1694 1695 1696
v -183.372 0.756 42.216
v -256.912 0.962 68.080
v -255.088 0.939 73.269
v -181.548 0.779 47.404
f 1697 1698 1699 1700
v 246.545 0.611 -111.480
v 87.215 0.572 -56.640
v 89.005 0.544 -51.440
v 248.335 0.600 -106.280
f 1701 1702 1703 1704
v 233.452 0.578 -142.069
v 244.832 0.594 -108.009
v 250.048 0.593 -109.751
v 238.668 0.525 -143.811
f 1705 1706 1707 1708
v 244.839 0.594 -107.986
v 253.399 0.592 -83.096
v 258.601 0.629 -84.885
v 250.041 0.594 -109.774
f 1709 1710 1711 1712
v 255.122 0.877 60.561
v 140.402 0.469 99.194
v 142.158 0.515 104.406
v 256.878 1.058 65.774
f 1713 1714 1715 1716
v 140.413 0.469 99.190
v 33.143 0.516 134.840
v 34.877 0.524 140.060
v 142.147 0.515 104.410
f 1717 1718 1719 1720
v -27.713 0.536 157.382
v -131.103 0.893 193.312
v -129.297 0.871 198.508
v -25.907 0.499 162.578
f 1721 1722 1723 1724
v -131.065 0.893 193.300
v -246.505 1.043 231.550
v -244.775 1.064 236.770
v -129.335 0.871 198.520
f 1725 1726 1727 1728
v 74.757 0.494 -84.662
v 85.507 0.421 -53.152
v 90.713 0.602 -54.928
v 79.963 0.570 -86.438
f 1729 1730 1731 1732
v 85.536 0.421 -53.073
v 100.826 0.469 -12.383
v 105.974 0.479 -14.317
v 90.684 0.603 -55.007
f 1733 1734 1735 1736
v 100.795 0.469 -12.469
v 114.935 0.381 29.351
v 120.145 0.436 27.589
v 106.005 0.479 -14.231
f 1737 1738 1739 1740
v 114.924 0.381 29.319
v 116.174 0.359 33.169
v 121.406 0.413 31.471
v 120.156 0.436 27.621
f 1741 1742 1743 1744
v 116.174 0.359 33.167
v 138.664 0.486 102.647
v 143.896 0.505 100.953
v 121.406 0.413 31.473
f 1745 1746 1747 1748
v 138.676 0.486 102.683
v 164.136 0.880 177.743
v 169.344 0.877 175.977
v 143.884 0.505 100.917
f 1749 1750 1751 1752
v 20.442 0.436 105.501
v 31.402 0.534 138.321
v 36.618 0.454 136.579
v 25.658 0.409 103.759
f 1753 1754 1755 1756
v 31.406 0.534 138.334
v 71.636 0.687 256.884
v 76.845 0.618 255.116
v 36.614 0.454 136.566
f 1757 1758 1759 1760
v -54.185 0.453 82.860
v -157.345 0.849 118.370
v -155.555 0.806 123.570
v -52.395 0.493 88.060
f 1761 1762 1763 1764
v -157.332 0.849 118.365
v -256.882 0.788 152.065
v -255.118 0.704 157.274
v -155.568 0.806 123.575
f 1765 1766 1767 1768
v 118.472 0.446 31.057
v 256.932 0.582 -18.801
v 255.068 0.590 -23.976
v 116.608 0.473 25.883
f 1769 1770 1771 1772
v -185.062 0.772 45.699
v -171.892 0.849 84.259
v -166.688 0.827 82.481
v -179.858 0.742 43.921
f 1773 1774 1775 1776
v -171.892 0.849 84.259
v -159.052 0.837 121.859
v -153.848 0.806 120.081
v -166.688 0.827 82.481
f 1777 1778 1779 1780
v -159.045 0.837 121.879
v -146.205 0.813 158.539
v -141.015 0.798 156.721
v -153.855 0.806 120.061
f 1781 1782 1783 1784
v -146.205 0.813 158.539
v -132.795 0.883 196.819
v -127.605 0.873 195.001
v -141.015 0.798 156.721
f 1785 1786 1787 1788
v -132.801 0.883 196.804
v -112.144 0.667 256.894
v -106.943 0.685 255.106
v -127.599 0.873 195.016
f 1789 1790 1791 1792
v 255.426 0.570 -68.033
v 102.826 0.518 -15.003
v 103.974 0.506 -11.697
v 256.574 0.641 -64.727
f 1793 1794 1795 1796
v 125.676 1.829 -243.179
v 82.492 1.287 -257.659
v 81.379 1.280 -254.341
v 124.564 1.812 -239.861
f 1797 1798 1799 1800
v 126.863 1.845 -202.327
v 15.893 1.491 -237.807
v 14.827 1.491 -234.473
v 125.797 1.853 -198.993
f 1801 1802 1803 1804
v 15.894 1.491 -237.806
v 10.684 1.516 -239.476
v 9.616 1.530 -236.144
v 14.826 1.491 -234.474
f 1805 1806 1807 1808
v 114.489 1.859 -164.975
v 17.079 1.687 -196.535
v 16.001 1.761 -193.205
v 113.411 1.869 -161.645
f 1809 1810 1811 1812
v -251.333 0.832 -162.267
v -235.833 0.840 -174.589
v -245.167 0.835 -186.331
v -260.667 0.825 -174.009
f 1813 1814 1815 1816
v -236.186 0.839 -174.325
v -133.426 2.825 -246.595
v -142.054 2.751 -258.865
v -244.814 0.832 -186.595
f 1817 1818 1819 1820
v 1.917 1.736 -218.515
v 14.997 1.777 -194.045
v 18.083 1.670 -195.695
v 5.003 1.668 -220.165
f 1821 1822 1823 1824
v 15.027 1.777 -193.990
v 26.827 1.943 -173.710
v 29.853 1.883 -175.470
v 18.053 1.671 -195.750
f 1825 1826 1827 1828
v 27.817 1.948 -172.920
v 97.397 1.937 -151.140
v 98.443 1.820 -154.480
v 28.863 1.881 -176.260
f 1829 1830 1831 1832
v 98.491 1.938 -151.156
v 112.811 1.942 -156.096
v 111.669 1.846 -159.404
v 97.349 1.813 -154.464
f 1833 1834 1835 1836
v 113.913 1.915 -157.236
v 115.623 1.907 -162.796
v 112.277 1.840 -163.824
v 110.567 1.852 -158.264
f 1837 1838 1839 1840
v 115.609 1.907 -162.753
v 121.789 1.833 -181.163
v 118.471 1.779 -182.277
v 112.291 1.840 -163.867
f 1841 1842 1843 1844
v 121.793 1.833 -181.176
v 127.993 1.877 -200.116
v 124.667 1.821 -201.204
v 118.467 1.779 -182.264
f 1845 1846 1847 1848
v 127.994 1.877 -200.118
v 131.934 1.878 -212.218
v 128.606 1.838 -213.302
v 124.666 1.821 -201.202
f 1849 1850 1851 1852
v 131.949 1.878 -212.267
v 133.819 1.908 -218.637
v 130.461 1.872 -219.623
v 128.591 1.837 -213.253
f 1853 1854 1855 1856
v 133.812 1.908 -218.613
v 136.262 1.943 -226.543
v 132.918 1.871 -227.577
v 130.468 1.872 -219.647
f 1857 1858 1859 1860
v 136.054 1.924 -228.019
v 126.584 1.835 -242.479
v 123.656 1.797 -240.561
v 133.126 1.879 -226.101
f 1861 1862 1863 1864
v 126.534 1.835 -242.551
v 115.983 1.885 -257.031
v 113.154 1.723 -254.969
v 123.706 1.798 -240.489
f 1865 1866 1867 1868
v 120.667 1.802 -183.386
v 3.997 1.675 -221.006
v 2.923 1.731 -217.674
v 119.593 1.803 -180.054
f 1869 1870 1871 1872
v -256.417 1.107 -218.735
v -237.277 1.273 -214.040
v -236.443 1.239 -217.440
v -255.583 1.111 -222.134
f 1873 1874 1875 1876
v -236.797 1.282 -213.991
v -228.727 1.346 -214.281
v -228.853 1.239 -217.779
v -236.923 1.236 -217.489
f 1877 1878 1879 1880
v -228.060 1.351 -214.440
v -222.330 1.307 -217.070
v -223.790 1.205 -220.250
v -229.520 1.241 -217.620
f 1881 1882 1883 1884
v -221.832 1.302 -217.414
v -217.672 1.257 -221.514
v -220.128 1.173 -224.006
v -224.288 1.210 -219.906
f 1885 1886 1887 1888
v -217.329 1.245 -221.989
v -214.719 1.140 -227.309
v -217.861 1.107 -228.851
v -220.471 1.177 -223.531
f 1889 1890 1891 1892
v -214.750 1.140 -227.249
v -210.800 1.207 -234.569
v -213.880 1.161 -236.231
v -217.830 1.106 -228.911
f 1893 1894 1895 1896
v -210.914 1.203 -234.386
v -205.154 1.321 -242.486
v -208.006 1.275 -244.514
v -213.766 1.163 -236.414
f 1897 1898 1899 1900
v -205.330 1.317 -242.275
v -198.930 1.230 -248.805
v -201.430 1.231 -251.255
v -207.830 1.277 -244.725
f 1901 1902 1903 1904
v -199.302 1.239 -248.516
v -190.202 1.166 -253.796
v -191.958 1.159 -256.824
v -201.058 1.228 -251.544
f 1905 1906 1907 1908
v 132.676 1.887 -220.796
v 22.006 1.556 -256.406
v 20.934 1.563 -253.074
v 131.604 1.879 -217.464
f 1909 1910 1911 1912
v 21.979 1.556 -256.414
v 17.836 1.561 -257.674
v 16.818 1.561 -254.326
v 20.961 1.563 -253.066
f 1913 1914 1915 1916
v 239.372 0.930 -164.865
v 178.162 0.925 -142.615
v 179.358 0.902 -139.325
v 240.568 0.950 -161.575
f 1917 1918 1919 1920
v 178.186 0.925 -142.623
v 64.556 0.910 -103.203
v 65.704 0.899 -99.897
v 179.334 0.901 -139.317
f 1921 1922 1923 1924
v 64.557 0.910 -103.204
v 41.177 0.768 -95.104
v 42.323 0.879 -91.796
v 65.703 0.899 -99.896
f 1925 1926 1927 1928
v 42.084 0.774 -95.168
v 28.004 0.886 -97.908
v 27.336 0.882 -94.472
v 41.416 0.867 -91.732
f 1929 1930 1931 1932
v 28.581 0.885 -97.684
v 18.991 0.892 -103.534
v 17.169 0.947 -100.546
v 26.759 0.880 -94.696
f 1933 1934 1935 1936
v 19.559 0.890 -102.976
v 11.789 0.970 -115.256
v 8.831 0.813 -113.384
v 16.601 0.877 -101.104
f 1937 1938 1939 1940
v 11.866 0.971 -115.120
v -56.434 2.002 -247.900
v -59.546 1.941 -246.300
v 8.754 0.817 -113.520
f 1941 1942 1943 1944
v -56.303 2.051 -246.634
v -53.847 1.783 -255.534
v -57.221 1.747 -256.466
v -59.677 1.919 -247.566
f 1945 1946 1947 1948
v 201.089 1.079 -255.020
v 217.090 0.937 -231.340
v 219.990 0.980 -233.300
v 203.989 1.070 -256.980
f 1949 1950 1951 1952
v 216.869 0.939 -231.802
v 238.299 0.928 -162.702
v 241.641 0.945 -163.738
v 220.211 0.985 -232.838
f 1953 1954 1955 1956
v 240.173 0.948 -161.482
v 255.623 1.036 -163.282
v 255.217 1.020 -166.758
v 239.767 0.933 -164.958
f 1957 1958 1959 1960
v -181.630 1.148 -66.780
v -181.840 1.280 -54.360
v -178.340 1.289 -54.300
v -178.130 1.189 -66.720
f 1961 1962 1963 1964
v -181.435 1.273 -55.450
v -204.265 1.248 -28.030
v -201.575 1.276 -25.790
v -178.745 1.298 -53.210
f 1965 1966 1967 1968
v -162.617 1.315 -205.297
v -181.847 1.498 -191.357
v -179.793 1.502 -188.523
v -160.563 1.301 -202.463
f 1969 1970 1971 1972
v -182.281 1.504 -190.903
v -185.631 1.581 -185.823
v -182.709 1.612 -183.897
v -179.359 1.492 -188.977
f 1973 1974 1975 1976
v -169.853 2.002 -165.381
v -171.273 1.713 -177.051
v -174.747 1.683 -176.629
v -173.327 2.001 -164.959
f 1977 1978 1979 1980
v -171.703 1.678 -178.004
v -178.123 1.520 -185.214
v -180.737 1.585 -182.886
v -174.317 1.712 -175.676
f 1981 1982 1983 1984
v -179.135 1.524 -185.775
v -183.875 1.559 -186.585
v -184.465 1.684 -183.135
v -179.725 1.581 -182.325
f 1985 1986 1987 1988
v -183.870 1.559 -186.584
v -192.490 1.589 -188.084
v -193.090 1.547 -184.636
v -184.470 1.684 -183.136
f 1989 1990 1991 1992
v -193.273 1.583 -188.042
v -203.883 1.432 -184.992
v -202.917 1.451 -181.628
v -192.307 1.554 -184.678
f 1993 1994 1995 1996
v -204.464 1.425 -184.700
v -210.604 1.317 -180.000
v -208.476 1.318 -177.220
v -202.336 1.455 -181.920
f 1997 1998 1999 2000
v -210.934 1.305 -179.668
v -215.724 1.187 -173.358
v -212.936 1.227 -171.242
v -208.146 1.333 -177.552
f 2001 2002 2003 2004
v -215.790 1.186 -173.265
v -219.080 1.195 -168.285
v -216.160 1.192 -166.355
v -212.870 1.229 -171.335
f 2005 2006 2007 2008
v -218.501 1.190 -168.832
v -226.531 1.249 -164.152
v -224.769 1.237 -161.128
v -216.739 1.188 -165.808
f 2009 2010 2011 2012
v -241.818 0.959 -179.309
v -235.288 0.867 -171.829
v -232.652 0.888 -174.131
v -239.182 0.957 -181.611
f 2013 2014 2015 2016
v -235.333 0.865 -171.883
v -227.013 1.243 -161.543
v -224.287 1.241 -163.737
v -232.607 0.892 -174.077
f 2017 2018 2019 2020
v -227.111 1.243 -161.677
v -215.131 1.173 -143.507
v -212.209 1.216 -145.433
v -224.189 1.240 -163.603
f 2021 2022 2023 2024
v -215.261 1.172 -143.742
v -205.471 1.450 -122.342
v -202.289 1.534 -123.798
v -212.079 1.218 -145.198
f 2025 2026 2027 2028
v -205.612 1.449 -122.817
v -199.462 1.279 -80.647
v -195.998 1.349 -81.153
v -202.148 1.536 -123.323
f 2029 2030 2031 2032
v -199.149 1.289 -79.876
v -192.009 1.331 -69.976
v -189.171 1.322 -72.024
v -196.311 1.348 -81.924
f 2033 2034 2035 2036
v -191.235 1.322 -69.373
v -180.525 1.163 -65.123
v -179.235 1.163 -68.377
v -189.945 1.333 -72.627
f 2037 2038 2039 2040
v -179.487 1.182 -65.045
v -174.327 1.259 -66.235
v -175.113 1.250 -69.645
v -180.273 1.151 -68.455
f 2041 2042 2043 2044
v -173.478 1.273 -66.707
v -168.278 1.427 -71.947
v -170.762 1.375 -74.413
v -175.962 1.231 -69.173
f 2045 2046 2047 2048
v -167.880 1.444 -72.570
v -163.470 1.526 -84.430
v -166.750 1.506 -85.650
v -171.160 1.362 -73.790
f 2049 2050 2051 2052
v -163.380 1.527 -84.779
v -161.830 1.680 -95.039
v -165.290 1.694 -95.561
v -166.840 1.500 -85.301
f 2053 2054 2055 2056
v -161.820 1.684 -95.483
v -163.620 2.009 -112.643
v -167.100 1.993 -112.277
v -165.300 1.687 -95.117
f 2057 2058 2059 2060
v -254.783 0.833 -83.777
v -251.183 0.813 -87.263
v -253.617 0.856 -89.777
v -257.217 0.868 -86.291
f 2061 2062 2063 2064
v -250.833 0.814 -87.741
v -249.303 0.823 -90.821
v -252.437 0.838 -92.379
v -253.967 0.859 -89.299
f 2065 2066 2067 2068
v -249.156 0.821 -91.247
v -248.156 0.723 -96.097
v -251.584 0.764 -96.803
v -252.584 0.841 -91.953
f 2069 2070 2071 2072
v -248.208 0.694 -96.997
v -249.428 0.707 -100.707
v -252.752 0.761 -99.613
v -251.532 0.782 -95.903
f 2073 2074 2075 2076
v -238.201 0.951 -124.380
v -254.681 0.911 -143.281
v -257.319 0.917 -140.980
v -240.839 0.916 -122.080
f 2077 2078 2079 2080
v -215.822 0.962 -6.329
v -256.982 0.860 21.560
v -255.018 0.797 24.458
v -213.858 0.907 -3.431
f 2081 2082 2083 2084
v 164.155 0.880 177.799
v 191.235 0.772 252.379
v 196.405 0.705 250.501
v 169.325 0.877 175.921
f 2085 2086 2087 2088
v 165.903 0.894 174.241
v 99.083 0.961 195.601
v 100.757 0.920 200.839
v 167.577 0.891 179.479
f 2089 2090 2091 2092
v 224.322 0.698 -255.023
v 238.358 0.739 -234.163
v 241.262 0.638 -236.117
v 227.226 0.663 -256.977
f 2093 2094 2095 2096
v 238.358 0.739 -234.163
v 254.548 0.664 -210.099
v 257.452 0.669 -212.053
v 241.262 0.638 -236.117
f 2097 2098 2099 2100
v 252.550 0.499 -245.870
v 238.830 0.679 -236.590
v 240.790 0.691 -233.690
v 254.510 0.499 -242.970
f 2101 2102 2103 2104
v 186.048 1.456 -242.226
v 202.361 1.069 -254.606
v 200.245 1.106 -257.394
v 183.932 1.436 -245.014
f 2105 2106 2107 2108
v 4.271 1.706 -217.789
v 11.671 1.606 -221.659
v 10.049 1.606 -224.761
v 2.649 1.692 -220.891
f 2109 2110 2111 2112
v 12.513 1.596 -222.635
v 17.013 1.469 -235.565
v 13.707 1.482 -236.715
v 9.207 1.624 -223.785
f 2113 2114 2115 2116
v 17.023 1.469 -235.594
v 23.133 1.551 -254.194
v 19.807 1.563 -255.286
v 13.697 1.482 -236.686
f 2117 2118 2119 2120
v -11.921 1.764 -243.532
v -9.651 1.763 -239.432
v -6.589 1.713 -241.128
v -8.859 1.724 -245.228
f 2121 2122 2123 2124
v -9.652 1.763 -239.433
v -0.452 1.709 -222.793
v 2.612 1.680 -224.487
v -6.588 1.713 -241.127
f 2125 2126 2127 2128
v -0.451 1.709 -222.793
v 1.929 1.736 -218.493
v 4.991 1.669 -220.187
v 2.611 1.680 -224.487
f 2129 2130 2131 2132
v 14.325 1.573 -256.535
v 10.694 1.582 -245.225
v 14.026 1.551 -244.155
v 17.657 1.561 -255.465
f 2133 2134 2135 2136
v 10.694 1.582 -245.225
v 8.484 1.515 -238.345
v 11.816 1.496 -237.275
v 14.026 1.551 -244.155
f 2137 2138 2139 2140
v 8.484 1.515 -238.344
v 4.934 1.802 -227.274
v 8.266 1.695 -226.206
v 11.816 1.496 -237.276
f 2141 2142 2143 2144
v 5.743 1.735 -228.266
v 0.223 1.676 -225.166
v 1.937 1.688 -222.114
v 7.457 1.750 -225.214
f 2145 2146 2147 2148
v 11.536 1.579 -246.234
v 8.386 1.672 -244.554
v 10.034 1.540 -241.466
v 13.184 1.546 -243.146
f 2149 2150 2151 2152
v 9.059 1.646 -244.753
v 1.559 1.626 -244.103
v 1.861 1.589 -240.617
v 9.361 1.537 -241.267
f 2153 2154 2155 2156
v 1.426 1.627 -244.087
v -2.594 1.674 -243.427
v -2.026 1.668 -239.973
v 1.994 1.587 -240.633
f 2157 2158 2159 2160
v -2.725 1.676 -243.400
v -8.535 1.729 -241.980
v -7.705 1.741 -238.580
v -1.895 1.666 -240.000
f 2161 2162 2163 2164
usemtl asphalt
