# Baked ultra-low Key West silhouette; generated by bake_key_west_far_city.py
mtllib far_city.mtl
usemtl massing
v 187.508 0.625 -216.785
v 198.285 0.625 -195.846
v 178.172 0.625 -185.495
v 167.395 0.625 -206.434
v 187.508 6.425 -216.785
v 198.285 6.425 -195.846
v 178.172 6.425 -185.495
v 167.395 6.425 -206.434
f 8 7 6 5
f 1 2 6 5
f 2 3 7 6
f 3 4 8 7
f 4 1 5 8
v 122.957 0.226 -249.067
v 204.016 0.226 -208.912
v 184.103 0.226 -168.713
v 103.044 0.226 -208.868
v 122.957 6.026 -249.067
v 204.016 6.026 -208.912
v 184.103 6.026 -168.713
v 103.044 6.026 -208.868
f 16 15 14 13
f 9 10 14 13
f 10 11 15 14
f 11 12 16 15
f 12 9 13 16
v 114.826 0.374 -92.025
v 125.191 0.374 -120.784
v 137.534 0.374 -116.335
v 127.169 0.374 -87.576
v 114.826 4.274 -92.025
v 125.191 4.274 -120.784
v 137.534 4.274 -116.335
v 127.169 4.274 -87.576
f 24 23 22 21
f 17 18 22 21
f 18 19 23 22
f 19 20 24 23
f 20 17 21 24
v -24.915 0.557 -19.260
v -11.258 0.557 -72.713
v 31.295 0.557 -61.840
v 17.638 0.557 -8.387
v -24.915 6.357 -19.260
v -11.258 6.357 -72.713
v 31.295 6.357 -61.840
v 17.638 6.357 -8.387
f 32 31 30 29
f 25 26 30 29
f 26 27 31 30
f 27 28 32 31
f 28 25 29 32
v 105.875 0.388 -85.956
v 146.068 0.388 -71.512
v 142.385 0.388 -61.264
v 102.192 0.388 -75.708
v 105.875 6.688 -85.956
v 146.068 6.688 -71.512
v 142.385 6.688 -61.264
v 102.192 6.688 -75.708
f 40 39 38 37
f 33 34 38 37
f 34 35 39 38
f 35 36 40 39
f 36 33 37 40
v -260.000 0.734 84.563
v -241.973 0.734 87.591
v -244.540 0.734 102.877
v -262.567 0.734 99.849
v -260.000 4.634 84.563
v -241.973 4.634 87.591
v -244.540 4.634 102.877
v -262.567 4.634 99.849
f 48 47 46 45
f 41 42 46 45
f 42 43 47 46
f 43 44 48 47
f 44 41 45 48
v -197.517 0.773 84.482
v -194.477 0.773 71.174
v -182.203 0.773 73.978
v -185.243 0.773 87.286
v -197.517 4.673 84.482
v -194.477 4.673 71.174
v -182.203 4.673 73.978
v -185.243 4.673 87.286
f 56 55 54 53
f 49 50 54 53
f 50 51 55 54
f 51 52 56 55
f 52 49 53 56
v -138.021 0.689 54.602
v -119.829 0.689 62.493
v -126.259 0.689 77.318
v -144.451 0.689 69.427
v -138.021 4.589 54.602
v -119.829 4.589 62.493
v -126.259 4.589 77.318
v -144.451 4.589 69.427
f 64 63 62 61
f 57 58 62 61
f 58 59 63 62
f 59 60 64 63
f 60 57 61 64
v 210.454 0.239 -239.733
v 216.082 0.239 -256.113
v 230.826 0.239 -251.047
v 225.198 0.239 -234.667
v 210.454 4.139 -239.733
v 216.082 4.139 -256.113
v 230.826 4.139 -251.047
v 225.198 4.139 -234.667
f 72 71 70 69
f 65 66 70 69
f 66 67 71 70
f 67 68 72 71
f 68 65 69 72
v -211.806 0.659 -94.929
v -204.459 0.659 -112.884
v -193.334 0.659 -108.331
v -200.681 0.659 -90.376
v -211.806 4.559 -94.929
v -204.459 4.559 -112.884
v -193.334 4.559 -108.331
v -200.681 4.559 -90.376
f 80 79 78 77
f 73 74 78 77
f 74 75 79 78
f 75 76 80 79
f 76 73 77 80
v -206.390 0.753 -3.494
v -198.117 0.753 -19.401
v -183.630 0.753 -11.866
v -191.903 0.753 4.041
v -206.390 4.653 -3.494
v -198.117 4.653 -19.401
v -183.630 4.653 -11.866
v -191.903 4.653 4.041
f 88 87 86 85
f 81 82 86 85
f 82 83 87 86
f 83 84 88 87
f 84 81 85 88
v -2.289 0.459 -182.513
v 13.658 0.459 -177.261
v 9.569 0.459 -164.847
v -6.378 0.459 -170.099
v -2.289 4.359 -182.513
v 13.658 4.359 -177.261
v 9.569 4.359 -164.847
v -6.378 4.359 -170.099
f 96 95 94 93
f 89 90 94 93
f 90 91 95 94
f 91 92 96 95
f 92 89 93 96
v -96.794 0.539 -132.176
v -89.071 0.539 -154.074
v -76.906 0.539 -149.784
v -84.629 0.539 -127.886
v -96.794 12.839 -132.176
v -89.071 12.839 -154.074
v -76.906 12.839 -149.784
v -84.629 12.839 -127.886
f 104 103 102 101
f 97 98 102 101
f 98 99 103 102
f 99 100 104 103
f 100 97 101 104
v -120.398 1.003 -211.466
v -115.631 1.003 -227.231
v -104.202 1.003 -223.774
v -108.969 1.003 -208.009
v -120.398 4.903 -211.466
v -115.631 4.903 -227.231
v -104.202 4.903 -223.774
v -108.969 4.903 -208.009
f 112 111 110 109
f 105 106 110 109
f 106 107 111 110
f 107 108 112 111
f 108 105 109 112
v -85.292 0.538 -119.344
v -71.036 0.538 -114.907
v -73.728 0.538 -106.256
v -87.984 0.538 -110.693
v -85.292 4.438 -119.344
v -71.036 4.438 -114.907
v -73.728 4.438 -106.256
v -87.984 4.438 -110.693
f 120 119 118 117
f 113 114 118 117
f 114 115 119 118
f 115 116 120 119
f 116 113 117 120
v 236.912 0.719 -30.690
v 252.873 0.719 -27.142
v 251.248 0.719 -19.830
v 235.287 0.719 -23.378
v 236.912 4.619 -30.690
v 252.873 4.619 -27.142
v 251.248 4.619 -19.830
v 235.287 4.619 -23.378
f 128 127 126 125
f 121 122 126 125
f 122 123 127 126
f 123 124 128 127
f 124 121 125 128
v 226.648 0.368 -252.026
v 241.546 0.368 -262.323
v 251.712 0.368 -247.614
v 236.814 0.368 -237.317
v 226.648 4.268 -252.026
v 241.546 4.268 -262.323
v 251.712 4.268 -247.614
v 236.814 4.268 -237.317
f 136 135 134 133
f 129 130 134 133
f 130 131 135 134
f 131 132 136 135
f 132 129 133 136
v -190.583 0.772 -16.238
v -174.860 0.772 -27.975
v -163.817 0.772 -13.182
v -179.540 0.772 -1.445
v -190.583 4.672 -16.238
v -174.860 4.672 -27.975
v -163.817 4.672 -13.182
v -179.540 4.672 -1.445
f 144 143 142 141
f 137 138 142 141
f 138 139 143 142
f 139 140 144 143
f 140 137 141 144
v -217.992 0.706 -11.514
v -201.596 0.706 -7.990
v -204.288 0.706 4.534
v -220.684 0.706 1.010
v -217.992 4.606 -11.514
v -201.596 4.606 -7.990
v -204.288 4.606 4.534
v -220.684 4.606 1.010
f 152 151 150 149
f 145 146 150 149
f 146 147 151 150
f 147 148 152 151
f 148 145 149 152
v -153.907 0.677 -25.759
v -153.499 0.677 -10.124
v -169.713 0.677 -9.701
v -170.121 0.677 -25.336
v -153.907 4.577 -25.759
v -153.499 4.577 -10.124
v -169.713 4.577 -9.701
v -170.121 4.577 -25.336
f 160 159 158 157
f 153 154 158 157
f 154 155 159 158
f 155 156 160 159
f 156 153 157 160
v -152.757 0.692 -11.252
v -148.717 0.692 -29.202
v -135.683 0.692 -26.268
v -139.723 0.692 -8.318
v -152.757 4.592 -11.252
v -148.717 4.592 -29.202
v -135.683 4.592 -26.268
v -139.723 4.592 -8.318
f 168 167 166 165
f 161 162 166 165
f 162 163 167 166
f 163 164 168 167
f 164 161 165 168
v -239.570 0.674 5.244
v -230.554 0.674 -9.533
v -217.690 0.674 -1.684
v -226.706 0.674 13.093
v -239.570 4.574 5.244
v -230.554 4.574 -9.533
v -217.690 4.574 -1.684
v -226.706 4.574 13.093
f 176 175 174 173
f 169 170 174 173
f 170 171 175 174
f 171 172 176 175
f 172 169 173 176
v -256.285 0.810 11.799
v -249.144 0.810 -2.831
v -235.395 0.810 3.881
v -242.536 0.810 18.511
v -256.285 4.710 11.799
v -249.144 4.710 -2.831
v -235.395 4.710 3.881
v -242.536 4.710 18.511
f 184 183 182 181
f 177 178 182 181
f 178 179 183 182
f 179 180 184 183
f 180 177 181 184
v -266.424 0.672 54.472
v -259.289 0.672 38.537
v -245.416 0.672 44.748
v -252.551 0.672 60.683
v -266.424 4.572 54.472
v -259.289 4.572 38.537
v -245.416 4.572 44.748
v -252.551 4.572 60.683
f 192 191 190 189
f 185 186 190 189
f 186 187 191 190
f 187 188 192 191
f 188 185 189 192
v -246.326 0.699 35.352
v -228.807 0.699 36.210
v -229.694 0.699 54.328
v -247.213 0.699 53.470
v -246.326 4.599 35.352
v -228.807 4.599 36.210
v -229.694 4.599 54.328
v -247.213 4.599 53.470
f 200 199 198 197
f 193 194 198 197
f 194 195 199 198
f 195 196 200 199
f 196 193 197 200
v -225.573 0.826 36.647
v -213.213 0.826 39.145
v -215.527 0.826 50.593
v -227.887 0.826 48.095
v -225.573 4.726 36.647
v -213.213 4.726 39.145
v -215.527 4.726 50.593
v -227.887 4.726 48.095
f 208 207 206 205
f 201 202 206 205
f 202 203 207 206
f 203 204 208 207
f 204 201 205 208
v -214.748 0.736 36.938
v -198.486 0.736 29.924
v -192.372 0.736 44.102
v -208.634 0.736 51.116
v -214.748 4.636 36.938
v -198.486 4.636 29.924
v -192.372 4.636 44.102
v -208.634 4.636 51.116
f 216 215 214 213
f 209 210 214 213
f 210 211 215 214
f 211 212 216 215
f 212 209 213 216
v -192.375 0.652 42.812
v -191.767 0.652 25.072
v -179.625 0.652 25.488
v -180.233 0.652 43.228
v -192.375 4.552 42.812
v -191.767 4.552 25.072
v -179.625 4.552 25.488
v -180.233 4.552 43.228
f 224 223 222 221
f 217 218 222 221
f 218 219 223 222
f 219 220 224 223
f 220 217 221 224
v -180.818 0.623 22.653
v -164.114 0.623 14.842
v -155.002 0.623 34.327
v -171.706 0.623 42.138
v -180.818 4.523 22.653
v -164.114 4.523 14.842
v -155.002 4.523 34.327
v -171.706 4.523 42.138
f 232 231 230 229
f 225 226 230 229
f 226 227 231 230
f 227 228 232 231
f 228 225 229 232
v -157.180 0.754 31.442
v -156.168 0.754 15.665
v -140.680 0.754 16.658
v -141.692 0.754 32.435
v -157.180 4.654 31.442
v -156.168 4.654 15.665
v -140.680 4.654 16.658
v -141.692 4.654 32.435
f 240 239 238 237
f 233 234 238 237
f 234 235 239 238
f 235 236 240 239
f 236 233 237 240
v -141.186 0.910 16.538
v -122.133 0.910 6.752
v -114.814 0.910 21.002
v -133.867 0.910 30.788
v -141.186 4.810 16.538
v -122.133 4.810 6.752
v -114.814 4.810 21.002
v -133.867 4.810 30.788
f 248 247 246 245
f 241 242 246 245
f 242 243 247 246
f 243 244 248 247
f 244 241 245 248
v -121.678 0.623 56.113
v -101.780 0.623 54.425
v -100.402 0.623 70.667
v -120.300 0.623 72.355
v -121.678 4.523 56.113
v -101.780 4.523 54.425
v -100.402 4.523 70.667
v -120.300 4.523 72.355
f 256 255 254 253
f 249 250 254 253
f 250 251 255 254
f 251 252 256 255
f 252 249 253 256
v -158.618 0.649 61.077
v -141.269 0.649 66.412
v -145.522 0.649 80.243
v -162.871 0.649 74.908
v -158.618 4.549 61.077
v -141.269 4.549 66.412
v -145.522 4.549 80.243
v -162.871 4.549 74.908
f 264 263 262 261
f 257 258 262 261
f 258 259 263 262
f 259 260 264 263
f 260 257 261 264
v -181.130 0.667 82.897
v -177.403 0.667 66.413
v -163.650 0.667 69.523
v -167.377 0.667 86.007
v -181.130 4.567 82.897
v -177.403 4.567 66.413
v -163.650 4.567 69.523
v -167.377 4.567 86.007
f 272 271 270 269
f 265 266 270 269
f 266 267 271 270
f 267 268 272 271
f 268 265 269 272
v -214.294 0.922 76.695
v -201.184 0.922 79.913
v -204.226 0.922 92.305
v -217.336 0.922 89.087
v -214.294 4.822 76.695
v -201.184 4.822 79.913
v -204.226 4.822 92.305
v -217.336 4.822 89.087
f 280 279 278 277
f 273 274 278 277
f 274 275 279 278
f 275 276 280 279
f 276 273 277 280
v -236.735 0.747 96.301
v -235.969 0.747 80.779
v -223.405 0.747 81.399
v -224.171 0.747 96.921
v -236.735 4.647 96.301
v -235.969 4.647 80.779
v -223.405 4.647 81.399
v -224.171 4.647 96.921
f 288 287 286 285
f 281 282 286 285
f 282 283 287 286
f 283 284 288 287
f 284 281 285 288
v -84.082 0.815 159.216
v -82.726 0.815 155.549
v -79.818 0.815 156.624
v -81.174 0.815 160.291
v -84.082 4.715 159.216
v -82.726 4.715 155.549
v -79.818 4.715 156.624
v -81.174 4.715 160.291
f 296 295 294 293
f 289 290 294 293
f 290 291 295 294
f 291 292 296 295
f 292 289 293 296
v -53.496 0.634 37.026
v -51.014 0.634 53.136
v -64.504 0.634 55.214
v -66.986 0.634 39.104
v -53.496 4.534 37.026
v -51.014 4.534 53.136
v -64.504 4.534 55.214
v -66.986 4.534 39.104
f 304 303 302 301
f 297 298 302 301
f 298 299 303 302
f 299 300 304 303
f 300 297 301 304
v -64.793 0.579 34.458
v -55.766 0.579 37.634
v -57.007 0.579 41.162
v -66.034 0.579 37.986
v -64.793 4.479 34.458
v -55.766 4.479 37.634
v -57.007 4.479 41.162
v -66.034 4.479 37.986
f 312 311 310 309
f 305 306 310 309
f 306 307 311 310
f 307 308 312 311
f 308 305 309 312
v -51.783 0.849 47.320
v -50.003 0.849 31.017
v -34.217 0.849 32.740
v -35.997 0.849 49.043
v -51.783 4.749 47.320
v -50.003 4.749 31.017
v -34.217 4.749 32.740
v -35.997 4.749 49.043
f 320 319 318 317
f 313 314 318 317
f 314 315 319 318
f 315 316 320 319
f 316 313 317 320
v -28.157 0.495 48.929
v -25.552 0.495 42.142
v -19.223 0.495 44.571
v -21.828 0.495 51.358
v -28.157 4.395 48.929
v -25.552 4.395 42.142
v -19.223 4.395 44.571
v -21.828 4.395 51.358
f 328 327 326 325
f 321 322 326 325
f 322 323 327 326
f 323 324 328 327
f 324 321 325 328
v -32.769 0.694 24.093
v -13.324 0.694 27.254
v -15.771 0.694 42.307
v -35.216 0.694 39.146
v -32.769 4.594 24.093
v -13.324 4.594 27.254
v -15.771 4.594 42.307
v -35.216 4.594 39.146
f 336 335 334 333
f 329 330 334 333
f 330 331 335 334
f 331 332 336 335
f 332 329 333 336
v -18.895 0.738 21.623
v 0.369 0.738 16.670
v 5.055 0.738 34.897
v -14.209 0.738 39.850
v -18.895 4.638 21.623
v 0.369 4.638 16.670
v 5.055 4.638 34.897
v -14.209 4.638 39.850
f 344 343 342 341
f 337 338 342 341
f 338 339 343 342
f 339 340 344 343
f 340 337 341 344
v -3.594 -0.300 36.664
v 4.268 -0.300 38.440
v 3.334 -0.300 42.576
v -4.528 -0.300 40.800
v -3.594 3.600 36.664
v 4.268 3.600 38.440
v 3.334 3.600 42.576
v -4.528 3.600 40.800
f 352 351 350 349
f 345 346 350 349
f 346 347 351 350
f 347 348 352 351
f 348 345 349 352
v 19.696 0.636 8.404
v 27.904 0.636 34.755
v 7.224 0.636 41.196
v -0.984 0.636 14.845
v 19.696 4.536 8.404
v 27.904 4.536 34.755
v 7.224 4.536 41.196
v -0.984 4.536 14.845
f 360 359 358 357
f 353 354 358 357
f 354 355 359 358
f 355 356 360 359
f 356 353 357 360
v -90.772 0.752 -6.128
v -72.220 0.752 -14.684
v -65.528 0.752 -0.172
v -84.080 0.752 8.384
v -90.772 4.652 -6.128
v -72.220 4.652 -14.684
v -65.528 4.652 -0.172
v -84.080 4.652 8.384
f 368 367 366 365
f 361 362 366 365
f 362 363 367 366
f 363 364 368 367
f 364 361 365 368
v -69.866 0.855 3.650
v -67.450 0.855 -20.248
v -48.874 0.855 -18.370
v -51.290 0.855 5.528
v -69.866 4.755 3.650
v -67.450 4.755 -20.248
v -48.874 4.755 -18.370
v -51.290 4.755 5.528
f 376 375 374 373
f 369 370 374 373
f 370 371 375 374
f 371 372 376 375
f 372 369 373 376
v -51.226 0.870 -2.774
v -48.402 0.870 -29.546
v -31.714 0.870 -27.786
v -34.538 0.870 -1.014
v -51.226 4.770 -2.774
v -48.402 4.770 -29.546
v -31.714 4.770 -27.786
v -34.538 4.770 -1.014
f 384 383 382 381
f 377 378 382 381
f 378 379 383 382
f 379 380 384 383
f 380 377 381 384
v -37.146 0.603 -25.235
v -15.960 0.603 -32.033
v -9.174 0.603 -10.885
v -30.360 0.603 -4.087
v -37.146 4.503 -25.235
v -15.960 4.503 -32.033
v -9.174 4.503 -10.885
v -30.360 4.503 -4.087
f 392 391 390 389
f 385 386 390 389
f 386 387 391 390
f 387 388 392 391
f 388 385 389 392
v 93.623 0.738 -114.965
v 108.353 0.738 -109.248
v 103.457 0.738 -96.635
v 88.727 0.738 -102.352
v 93.623 4.638 -114.965
v 108.353 4.638 -109.248
v 103.457 4.638 -96.635
v 88.727 4.638 -102.352
f 400 399 398 397
f 393 394 398 397
f 394 395 399 398
f 395 396 400 399
f 396 393 397 400
v 107.554 0.462 -98.727
v 111.592 0.462 -106.838
v 117.026 0.462 -104.133
v 112.988 0.462 -96.022
v 107.554 4.362 -98.727
v 111.592 4.362 -106.838
v 117.026 4.362 -104.133
v 112.988 4.362 -96.022
f 408 407 406 405
f 401 402 406 405
f 402 403 407 406
f 403 404 408 407
f 404 401 405 408
v 145.785 0.057 -78.298
v 150.106 0.057 -90.442
v 158.595 0.057 -87.422
v 154.274 0.057 -75.278
v 145.785 3.957 -78.298
v 150.106 3.957 -90.442
v 158.595 3.957 -87.422
v 154.274 3.957 -75.278
f 416 415 414 413
f 409 410 414 413
f 410 411 415 414
f 411 412 416 415
f 412 409 413 416
v -49.230 0.618 -72.889
v -29.815 0.618 -75.715
v -27.250 0.618 -58.091
v -46.665 0.618 -55.265
v -49.230 4.518 -72.889
v -29.815 4.518 -75.715
v -27.250 4.518 -58.091
v -46.665 4.518 -55.265
f 424 423 422 421
f 417 418 422 421
f 418 419 423 422
f 419 420 424 423
f 420 417 421 424
v -45.821 0.635 -52.345
v -44.137 0.635 -57.623
v -40.479 0.635 -56.455
v -42.163 0.635 -51.177
v -45.821 4.535 -52.345
v -44.137 4.535 -57.623
v -40.479 4.535 -56.455
v -42.163 4.535 -51.177
f 432 431 430 429
f 425 426 430 429
f 426 427 431 430
f 427 428 432 431
f 428 425 429 432
v -68.439 0.729 -64.602
v -48.875 0.729 -64.133
v -49.261 0.729 -48.038
v -68.825 0.729 -48.507
v -68.439 4.629 -64.602
v -48.875 4.629 -64.133
v -49.261 4.629 -48.038
v -68.825 4.629 -48.507
f 440 439 438 437
f 433 434 438 437
f 434 435 439 438
f 435 436 440 439
f 436 433 437 440
v -82.272 0.818 -59.435
v -62.664 0.818 -53.914
v -67.808 0.818 -35.645
v -87.416 0.818 -41.166
v -82.272 4.718 -59.435
v -62.664 4.718 -53.914
v -67.808 4.718 -35.645
v -87.416 4.718 -41.166
f 448 447 446 445
f 441 442 446 445
f 442 443 447 446
f 443 444 448 447
f 444 441 445 448
v -103.371 0.634 -26.280
v -99.468 0.634 -51.227
v -83.829 0.634 -48.780
v -87.732 0.634 -23.833
v -103.371 4.534 -26.280
v -99.468 4.534 -51.227
v -83.829 4.534 -48.780
v -87.732 4.534 -23.833
f 456 455 454 453
f 449 450 454 453
f 450 451 455 454
f 451 452 456 455
f 452 449 453 456
v -149.844 0.548 -244.381
v -143.303 0.548 -265.292
v -131.116 0.548 -261.479
v -137.657 0.548 -240.568
v -149.844 4.448 -244.381
v -143.303 4.448 -265.292
v -131.116 4.448 -261.479
v -137.657 4.448 -240.568
f 464 463 462 461
f 457 458 462 461
f 458 459 463 462
f 459 460 464 463
f 460 457 461 464
v -148.271 0.722 -198.458
v -141.928 0.722 -217.014
v -131.889 0.722 -213.582
v -138.232 0.722 -195.026
v -148.271 4.622 -198.458
v -141.928 4.622 -217.014
v -131.889 4.622 -213.582
v -138.232 4.622 -195.026
f 472 471 470 469
f 465 466 470 469
f 466 467 471 470
f 467 468 472 471
f 468 465 469 472
v -118.565 0.524 -174.853
v -113.083 0.524 -194.783
v -94.995 0.524 -189.807
v -100.477 0.524 -169.877
v -118.565 4.424 -174.853
v -113.083 4.424 -194.783
v -94.995 4.424 -189.807
v -100.477 4.424 -169.877
f 480 479 478 477
f 473 474 478 477
f 474 475 479 478
f 475 476 480 479
f 476 473 477 480
v -137.759 0.368 -163.405
v -130.839 0.368 -181.988
v -118.881 0.368 -177.535
v -125.801 0.368 -158.952
v -137.759 4.268 -163.405
v -130.839 4.268 -181.988
v -118.881 4.268 -177.535
v -125.801 4.268 -158.952
f 488 487 486 485
f 481 482 486 485
f 482 483 487 486
f 483 484 488 487
f 484 481 485 488
v -81.094 0.477 -184.587
v -73.344 0.477 -206.072
v -61.426 0.477 -201.773
v -69.176 0.477 -180.288
v -81.094 4.377 -184.587
v -73.344 4.377 -206.072
v -61.426 4.377 -201.773
v -69.176 4.377 -180.288
f 496 495 494 493
f 489 490 494 493
f 490 491 495 494
f 491 492 496 495
f 492 489 493 496
v 89.149 0.663 -240.680
v 92.985 0.663 -257.580
v 108.051 0.663 -254.160
v 104.215 0.663 -237.260
v 89.149 4.563 -240.680
v 92.985 4.563 -257.580
v 108.051 4.563 -254.160
v 104.215 4.563 -237.260
f 504 503 502 501
f 497 498 502 501
f 498 499 503 502
f 499 500 504 503
f 500 497 501 504
v 47.623 0.581 -230.979
v 55.141 0.581 -248.297
v 69.277 0.581 -242.161
v 61.759 0.581 -224.843
v 47.623 4.481 -230.979
v 55.141 4.481 -248.297
v 69.277 4.481 -242.161
v 61.759 4.481 -224.843
f 512 511 510 509
f 505 506 510 509
f 506 507 511 510
f 507 508 512 511
f 508 505 509 512
v 62.188 0.591 -205.298
v 75.768 0.591 -200.881
v 71.852 0.591 -188.842
v 58.272 0.591 -193.259
v 62.188 4.491 -205.298
v 75.768 4.491 -200.881
v 71.852 4.491 -188.842
v 58.272 4.491 -193.259
f 520 519 518 517
f 513 514 518 517
f 514 515 519 518
f 515 516 520 519
f 516 513 517 520
v 75.441 0.643 -211.557
v 95.012 0.643 -209.389
v 93.299 0.643 -193.923
v 73.728 0.643 -196.091
v 75.441 4.543 -211.557
v 95.012 4.543 -209.389
v 93.299 4.543 -193.923
v 73.728 4.543 -196.091
f 528 527 526 525
f 521 522 526 525
f 522 523 527 526
f 523 524 528 527
f 524 521 525 528
v 19.421 0.491 -191.574
v 35.549 0.491 -185.653
v 31.479 0.491 -174.566
v 15.351 0.491 -180.487
v 19.421 4.391 -191.574
v 35.549 4.391 -185.653
v 31.479 4.391 -174.566
v 15.351 4.391 -180.487
f 536 535 534 533
f 529 530 534 533
f 530 531 535 534
f 531 532 536 535
f 532 529 533 536
v -26.310 0.432 -163.683
v -15.023 0.432 -178.138
v -2.010 0.432 -167.977
v -13.297 0.432 -153.522
v -26.310 4.332 -163.683
v -15.023 4.332 -178.138
v -2.010 4.332 -167.977
v -13.297 4.332 -153.522
f 544 543 542 541
f 537 538 542 541
f 538 539 543 542
f 539 540 544 543
f 540 537 541 544
v 18.477 0.570 -234.726
v 27.244 0.570 -218.720
v 10.983 0.570 -209.814
v 2.216 0.570 -225.820
v 18.477 4.470 -234.726
v 27.244 4.470 -218.720
v 10.983 4.470 -209.814
v 2.216 4.470 -225.820
f 552 551 550 549
f 545 546 550 549
f 546 547 551 550
f 547 548 552 551
f 548 545 549 552
v 7.499 0.398 -226.093
v 10.269 0.398 -210.629
v -3.699 0.398 -208.127
v -6.469 0.398 -223.591
v 7.499 4.298 -226.093
v 10.269 4.298 -210.629
v -3.699 4.298 -208.127
v -6.469 4.298 -223.591
f 560 559 558 557
f 553 554 558 557
f 554 555 559 558
f 555 556 560 559
f 556 553 557 560
v -25.994 0.467 -208.980
v -15.308 0.467 -222.611
v -1.646 0.467 -211.900
v -12.332 0.467 -198.269
v -25.994 4.367 -208.980
v -15.308 4.367 -222.611
v -1.646 4.367 -211.900
v -12.332 4.367 -198.269
f 568 567 566 565
f 561 562 566 565
f 562 563 567 566
f 563 564 568 567
f 564 561 565 568
v -42.453 0.503 -202.179
v -30.482 0.503 -218.858
v -17.167 0.503 -209.301
v -29.138 0.503 -192.622
v -42.453 4.403 -202.179
v -30.482 4.403 -218.858
v -17.167 4.403 -209.301
v -29.138 4.403 -192.622
f 576 575 574 573
f 569 570 574 573
f 570 571 575 574
f 571 572 576 575
f 572 569 573 576
v -36.879 0.383 -215.347
v -33.324 0.383 -193.352
v -52.001 0.383 -190.333
v -55.556 0.383 -212.328
v -36.879 4.283 -215.347
v -33.324 4.283 -193.352
v -52.001 4.283 -190.333
v -55.556 4.283 -212.328
f 584 583 582 581
f 577 578 582 581
f 578 579 583 582
f 579 580 584 583
f 580 577 581 584
v -59.609 0.416 -215.381
v -52.620 0.416 -212.801
v -54.791 0.416 -206.919
v -61.780 0.416 -209.499
v -59.609 4.316 -215.381
v -52.620 4.316 -212.801
v -54.791 4.316 -206.919
v -61.780 4.316 -209.499
f 592 591 590 589
f 585 586 590 589
f 586 587 591 590
f 587 588 592 591
f 588 585 589 592
v -66.448 0.472 -187.427
v -59.592 0.472 -205.682
v -49.772 0.472 -201.993
v -56.628 0.472 -183.738
v -66.448 4.372 -187.427
v -59.592 4.372 -205.682
v -49.772 4.372 -201.993
v -56.628 4.372 -183.738
f 600 599 598 597
f 593 594 598 597
f 594 595 599 598
f 595 596 600 599
f 596 593 597 600
v -72.018 0.894 -246.997
v -57.678 0.894 -225.309
v -74.202 0.894 -214.383
v -88.542 0.894 -236.071
v -72.018 4.794 -246.997
v -57.678 4.794 -225.309
v -74.202 4.794 -214.383
v -88.542 4.794 -236.071
f 608 607 606 605
f 601 602 606 605
f 602 603 607 606
f 603 604 608 607
f 604 601 605 608
v -63.625 0.316 -228.672
v -58.025 0.316 -245.315
v -46.235 0.316 -241.348
v -51.835 0.316 -224.705
v -63.625 4.216 -228.672
v -58.025 4.216 -245.315
v -46.235 4.216 -241.348
v -51.835 4.216 -224.705
f 616 615 614 613
f 609 610 614 613
f 610 611 615 614
f 611 612 616 615
f 612 609 613 616
v -49.146 0.412 -233.967
v -42.356 0.412 -252.289
v -30.654 0.412 -247.953
v -37.444 0.412 -229.631
v -49.146 4.312 -233.967
v -42.356 4.312 -252.289
v -30.654 4.312 -247.953
v -37.444 4.312 -229.631
f 624 623 622 621
f 617 618 622 621
f 618 619 623 622
f 619 620 624 623
f 620 617 621 624
v -33.599 0.449 -244.869
v -27.824 0.449 -258.050
v -17.281 0.449 -253.431
v -23.056 0.449 -240.250
v -33.599 4.349 -244.869
v -27.824 4.349 -258.050
v -17.281 4.349 -253.431
v -23.056 4.349 -240.250
f 632 631 630 629
f 625 626 630 629
f 626 627 631 630
f 627 628 632 631
f 628 625 629 632
v 4.467 0.728 -265.752
v 12.222 0.728 -246.182
v -7.747 0.728 -238.268
v -15.502 0.728 -257.838
v 4.467 4.628 -265.752
v 12.222 4.628 -246.182
v -7.747 4.628 -238.268
v -15.502 4.628 -257.838
f 640 639 638 637
f 633 634 638 637
f 634 635 639 638
f 635 636 640 639
f 636 633 637 640
v -40.953 0.562 -157.196
v -29.037 0.562 -175.487
v -15.647 0.562 -166.764
v -27.563 0.562 -148.473
v -40.953 4.462 -157.196
v -29.037 4.462 -175.487
v -15.647 4.462 -166.764
v -27.563 4.462 -148.473
f 648 647 646 645
f 641 642 646 645
f 642 643 647 646
f 643 644 648 647
f 644 641 645 648
v -49.302 0.399 -150.069
v -42.711 0.399 -167.409
v -33.298 0.399 -163.831
v -39.889 0.399 -146.491
v -49.302 4.299 -150.069
v -42.711 4.299 -167.409
v -33.298 4.299 -163.831
v -39.889 4.299 -146.491
f 656 655 654 653
f 649 650 654 653
f 650 651 655 654
f 651 652 656 655
f 652 649 653 656
v -64.531 0.570 -149.269
v -60.095 0.570 -161.605
v -49.989 0.570 -157.971
v -54.425 0.570 -145.635
v -64.531 4.470 -149.269
v -60.095 4.470 -161.605
v -49.989 4.470 -157.971
v -54.425 4.470 -145.635
f 664 663 662 661
f 657 658 662 661
f 658 659 663 662
f 659 660 664 663
f 660 657 661 664
v -54.021 0.395 -144.724
v -45.398 0.395 -141.518
v -47.719 0.395 -135.276
v -56.342 0.395 -138.482
v -54.021 4.295 -144.724
v -45.398 4.295 -141.518
v -47.719 4.295 -135.276
v -56.342 4.295 -138.482
f 672 671 670 669
f 665 666 670 669
f 666 667 671 670
f 667 668 672 671
f 668 665 669 672
v -53.319 0.647 -117.468
v -48.554 0.647 -131.046
v -40.421 0.647 -128.192
v -45.186 0.647 -114.614
v -53.319 4.547 -117.468
v -48.554 4.547 -131.046
v -40.421 4.547 -128.192
v -45.186 4.547 -114.614
f 680 679 678 677
f 673 674 678 677
f 674 675 679 678
f 675 676 680 679
f 676 673 677 680
v -39.218 0.551 -116.614
v -33.772 0.551 -132.781
v -24.702 0.551 -129.726
v -30.148 0.551 -113.559
v -39.218 4.451 -116.614
v -33.772 4.451 -132.781
v -24.702 4.451 -129.726
v -30.148 4.451 -113.559
f 688 687 686 685
f 681 682 686 685
f 682 683 687 686
f 683 684 688 687
f 684 681 685 688
v -26.085 0.609 -123.193
v -18.469 0.609 -137.434
v -5.815 0.609 -130.667
v -13.431 0.609 -116.426
v -26.085 4.509 -123.193
v -18.469 4.509 -137.434
v -5.815 4.509 -130.667
v -13.431 4.509 -116.426
f 696 695 694 693
f 689 690 694 693
f 690 691 695 694
f 691 692 696 695
f 692 689 693 696
v -13.527 0.450 -126.992
v -5.289 0.450 -144.413
v 7.747 0.450 -138.248
v -0.491 0.450 -120.827
v -13.527 4.350 -126.992
v -5.289 4.350 -144.413
v 7.747 4.350 -138.248
v -0.491 4.350 -120.827
f 704 703 702 701
f 697 698 702 701
f 698 699 703 702
f 699 700 704 703
f 700 697 701 704
v 9.719 0.644 -139.830
v 20.393 0.644 -136.247
v 17.561 0.644 -127.810
v 6.887 0.644 -131.393
v 9.719 4.544 -139.830
v 20.393 4.544 -136.247
v 17.561 4.544 -127.810
v 6.887 4.544 -131.393
f 712 711 710 709
f 705 706 710 709
f 706 707 711 710
f 707 708 712 711
f 708 705 709 712
v 24.960 0.467 -144.588
v 35.364 0.467 -140.953
v 32.540 0.467 -132.872
v 22.136 0.467 -136.507
v 24.960 4.367 -144.588
v 35.364 4.367 -140.953
v 32.540 4.367 -132.872
v 22.136 4.367 -136.507
f 720 719 718 717
f 713 714 718 717
f 714 715 719 718
f 715 716 720 719
f 716 713 717 720
v 68.151 0.408 -167.863
v 85.819 0.408 -169.851
v 87.529 0.408 -154.657
v 69.861 0.408 -152.669
v 68.151 4.308 -167.863
v 85.819 4.308 -169.851
v 87.529 4.308 -154.657
v 69.861 4.308 -152.669
f 728 727 726 725
f 721 722 726 725
f 722 723 727 726
f 723 724 728 727
f 724 721 725 728
v 101.101 0.498 -176.352
v 110.279 0.498 -164.767
v 99.979 0.498 -156.608
v 90.801 0.498 -168.193
v 101.101 4.398 -176.352
v 110.279 4.398 -164.767
v 99.979 4.398 -156.608
v 90.801 4.398 -168.193
f 736 735 734 733
f 729 730 734 733
f 730 731 735 734
f 731 732 736 735
f 732 729 733 736
v 243.854 0.229 -225.767
v 256.296 0.229 -222.284
v 253.606 0.229 -212.673
v 241.164 0.229 -216.156
v 243.854 4.129 -225.767
v 256.296 4.129 -222.284
v 253.606 4.129 -212.673
v 241.164 4.129 -216.156
f 744 743 742 741
f 737 738 742 741
f 738 739 743 742
f 739 740 744 743
f 740 737 741 744
v -97.838 0.456 -95.558
v -92.383 0.456 -110.759
v -82.302 0.456 -107.142
v -87.757 0.456 -91.941
v -97.838 4.356 -95.558
v -92.383 4.356 -110.759
v -82.302 4.356 -107.142
v -87.757 4.356 -91.941
f 752 751 750 749
f 745 746 750 749
f 746 747 751 750
f 747 748 752 751
f 748 745 749 752
v -176.443 0.310 -168.320
v -174.650 0.310 -173.593
v -170.437 0.310 -172.160
v -172.230 0.310 -166.887
v -176.443 4.210 -168.320
v -174.650 4.210 -173.593
v -170.437 4.210 -172.160
v -172.230 4.210 -166.887
f 760 759 758 757
f 753 754 758 757
f 754 755 759 758
f 755 756 760 759
f 756 753 757 760
v -125.865 0.240 -201.581
v -124.707 0.240 -204.446
v -122.315 0.240 -203.479
v -123.473 0.240 -200.614
v -125.865 4.140 -201.581
v -124.707 4.140 -204.446
v -122.315 4.140 -203.479
v -123.473 4.140 -200.614
f 768 767 766 765
f 761 762 766 765
f 762 763 767 766
f 763 764 768 767
f 764 761 765 768
v -167.750 0.160 -170.356
v -159.245 0.160 -167.383
v -161.670 0.160 -160.444
v -170.175 0.160 -163.417
v -167.750 4.060 -170.356
v -159.245 4.060 -167.383
v -161.670 4.060 -160.444
v -170.175 4.060 -163.417
f 776 775 774 773
f 769 770 774 773
f 770 771 775 774
f 771 772 776 775
f 772 769 773 776
v 245.505 1.402 198.395
v 254.593 1.402 188.507
v 262.295 1.402 195.585
v 253.207 1.402 205.473
v 245.505 5.302 198.395
v 254.593 5.302 188.507
v 262.295 5.302 195.585
v 253.207 5.302 205.473
f 784 783 782 781
f 777 778 782 781
f 778 779 783 782
f 779 780 784 783
f 780 777 781 784
v -248.611 0.914 -183.210
v -235.551 0.914 -179.006
v -238.569 0.914 -169.630
v -251.629 0.914 -173.834
v -248.611 4.814 -183.210
v -235.551 4.814 -179.006
v -238.569 4.814 -169.630
v -251.629 4.814 -173.834
f 792 791 790 789
f 785 786 790 789
f 786 787 791 790
f 787 788 792 791
f 788 785 789 792
v -236.471 0.674 -175.112
v -229.570 0.674 -186.994
v -221.329 0.674 -182.208
v -228.230 0.674 -170.326
v -236.471 4.574 -175.112
v -229.570 4.574 -186.994
v -221.329 4.574 -182.208
v -228.230 4.574 -170.326
f 800 799 798 797
f 793 794 798 797
f 794 795 799 798
f 795 796 800 799
f 796 793 797 800
v -223.317 0.680 -136.469
v -216.707 0.680 -154.464
v -207.743 0.680 -151.171
v -214.353 0.680 -133.176
v -223.317 4.580 -136.469
v -216.707 4.580 -154.464
v -207.743 4.580 -151.171
v -214.353 4.580 -133.176
f 808 807 806 805
f 801 802 806 805
f 802 803 807 806
f 803 804 808 807
f 804 801 805 808
v -238.695 0.543 -130.818
v -231.962 0.543 -149.055
v -222.665 0.543 -145.622
v -229.398 0.543 -127.385
v -238.695 4.443 -130.818
v -231.962 4.443 -149.055
v -222.665 4.443 -145.622
v -229.398 4.443 -127.385
f 816 815 814 813
f 809 810 814 813
f 810 811 815 814
f 811 812 816 815
f 812 809 813 816
v -254.032 0.993 -133.899
v -239.118 0.993 -128.714
v -242.828 0.993 -118.041
v -257.742 0.993 -123.226
v -254.032 4.893 -133.899
v -239.118 4.893 -128.714
v -242.828 4.893 -118.041
v -257.742 4.893 -123.226
f 824 823 822 821
f 817 818 822 821
f 818 819 823 822
f 819 820 824 823
f 820 817 821 824
v -232.046 0.201 33.271
v -230.595 0.201 27.727
v -227.074 0.201 28.649
v -228.525 0.201 34.193
v -232.046 4.101 33.271
v -230.595 4.101 27.727
v -227.074 4.101 28.649
v -228.525 4.101 34.193
f 832 831 830 829
f 825 826 830 829
f 826 827 831 830
f 827 828 832 831
f 828 825 829 832
v -189.348 0.503 3.861
v -182.276 0.503 5.592
v -183.212 0.503 9.419
v -190.284 0.503 7.688
v -189.348 4.403 3.861
v -182.276 4.403 5.592
v -183.212 4.403 9.419
v -190.284 4.403 7.688
f 840 839 838 837
f 833 834 838 837
f 834 835 839 838
f 835 836 840 839
f 836 833 837 840
v -178.444 0.376 10.035
v -175.022 0.376 10.545
v -175.416 0.376 13.185
v -178.838 0.376 12.675
v -178.444 4.276 10.035
v -175.022 4.276 10.545
v -175.416 4.276 13.185
v -178.838 4.276 12.675
f 848 847 846 845
f 841 842 846 845
f 842 843 847 846
f 843 844 848 847
f 844 841 845 848
v -187.289 0.103 11.301
v -181.237 0.103 12.858
v -182.251 0.103 16.799
v -188.303 0.103 15.242
v -187.289 4.003 11.301
v -181.237 4.003 12.858
v -182.251 4.003 16.799
v -188.303 4.003 15.242
f 856 855 854 853
f 849 850 854 853
f 850 851 855 854
f 851 852 856 855
f 852 849 853 856
v -211.811 0.709 18.187
v -208.580 0.709 14.829
v -205.229 0.709 18.053
v -208.460 0.709 21.411
v -211.811 4.609 18.187
v -208.580 4.609 14.829
v -205.229 4.609 18.053
v -208.460 4.609 21.411
f 864 863 862 861
f 857 858 862 861
f 858 859 863 862
f 859 860 864 863
f 860 857 861 864
v -44.646 0.283 -147.065
v -37.712 0.283 -144.881
v -39.754 0.283 -138.395
v -46.688 0.283 -140.579
v -44.646 4.183 -147.065
v -37.712 4.183 -144.881
v -39.754 4.183 -138.395
v -46.688 4.183 -140.579
f 872 871 870 869
f 865 866 870 869
f 866 867 871 870
f 867 868 872 871
f 868 865 869 872
v -29.938 0.302 -151.006
v -22.998 0.302 -148.585
v -24.642 0.302 -143.874
v -31.582 0.302 -146.295
v -29.938 4.202 -151.006
v -22.998 4.202 -148.585
v -24.642 4.202 -143.874
v -31.582 4.202 -146.295
f 880 879 878 877
f 873 874 878 877
f 874 875 879 878
f 875 876 880 879
f 876 873 877 880
v -16.188 -0.005 -153.147
v -11.729 -0.005 -151.830
v -12.992 -0.005 -147.553
v -17.451 -0.005 -148.870
v -16.188 3.895 -153.147
v -11.729 3.895 -151.830
v -12.992 3.895 -147.553
v -17.451 3.895 -148.870
f 888 887 886 885
f 881 882 886 885
f 882 883 887 886
f 883 884 888 887
f 884 881 885 888
v -18.549 0.530 -139.786
v -16.680 0.530 -144.499
v -13.491 0.530 -143.234
v -15.360 0.530 -138.521
v -18.549 4.430 -139.786
v -16.680 4.430 -144.499
v -13.491 4.430 -143.234
v -15.360 4.430 -138.521
f 896 895 894 893
f 889 890 894 893
f 890 891 895 894
f 891 892 896 895
f 892 889 893 896
v 34.359 0.324 -138.090
v 36.681 0.324 -154.203
v 51.201 0.324 -152.110
v 48.879 0.324 -135.997
v 34.359 4.224 -138.090
v 36.681 4.224 -154.203
v 51.201 4.224 -152.110
v 48.879 4.224 -135.997
f 904 903 902 901
f 897 898 902 901
f 898 899 903 902
f 899 900 904 903
f 900 897 901 904
v -181.168 0.444 -105.132
v -173.292 0.444 -121.816
v -162.512 0.444 -116.728
v -170.388 0.444 -100.044
v -181.168 4.344 -105.132
v -173.292 4.344 -121.816
v -162.512 4.344 -116.728
v -170.388 4.344 -100.044
f 912 911 910 909
f 905 906 910 909
f 906 907 911 910
f 907 908 912 911
f 908 905 909 912
v -165.997 0.403 -108.823
v -162.687 0.403 -127.268
v -148.583 0.403 -124.737
v -151.893 0.403 -106.292
v -165.997 4.303 -108.823
v -162.687 4.303 -127.268
v -148.583 4.303 -124.737
v -151.893 4.303 -106.292
f 920 919 918 917
f 913 914 918 917
f 914 915 919 918
f 915 916 920 919
f 916 913 917 920
v -113.196 0.344 -86.929
v -106.708 0.344 -109.235
v -93.284 0.344 -105.331
v -99.772 0.344 -83.025
v -113.196 4.244 -86.929
v -106.708 4.244 -109.235
v -93.284 4.244 -105.331
v -99.772 4.244 -83.025
f 928 927 926 925
f 921 922 926 925
f 922 923 927 926
f 923 924 928 927
f 924 921 925 928
v -98.990 0.277 -117.552
v -90.989 0.277 -114.864
v -92.110 0.277 -111.528
v -100.111 0.277 -114.216
v -98.990 4.177 -117.552
v -90.989 4.177 -114.864
v -92.110 4.177 -111.528
v -100.111 4.177 -114.216
f 936 935 934 933
f 929 930 934 933
f 930 931 935 934
f 931 932 936 935
f 932 929 933 936
v -109.359 0.030 -115.700
v -100.360 0.030 -112.188
v -101.541 0.030 -109.160
v -110.540 0.030 -112.672
v -109.359 3.930 -115.700
v -100.360 3.930 -112.188
v -101.541 3.930 -109.160
v -110.540 3.930 -112.672
f 944 943 942 941
f 937 938 942 941
f 938 939 943 942
f 939 940 944 943
f 940 937 941 944
v -125.510 0.304 -86.328
v -120.304 0.304 -101.848
v -108.870 0.304 -98.012
v -114.076 0.304 -82.492
v -125.510 4.204 -86.328
v -120.304 4.204 -101.848
v -108.870 4.204 -98.012
v -114.076 4.204 -82.492
f 952 951 950 949
f 945 946 950 949
f 946 947 951 950
f 947 948 952 951
f 948 945 949 952
v -140.559 0.359 -81.878
v -134.075 0.359 -98.616
v -122.941 0.359 -94.302
v -129.425 0.359 -77.564
v -140.559 4.259 -81.878
v -134.075 4.259 -98.616
v -122.941 4.259 -94.302
v -129.425 4.259 -77.564
f 960 959 958 957
f 953 954 958 957
f 954 955 959 958
f 955 956 960 959
f 956 953 957 960
v -144.975 0.189 -102.397
v -138.854 0.189 -100.707
v -140.445 0.189 -94.943
v -146.566 0.189 -96.633
v -144.975 4.089 -102.397
v -138.854 4.089 -100.707
v -140.445 4.089 -94.943
v -146.566 4.089 -96.633
f 968 967 966 965
f 961 962 966 965
f 962 963 967 966
f 963 964 968 967
f 964 961 965 968
v -161.206 0.510 -93.304
v -137.193 0.510 -85.368
v -142.834 0.510 -68.296
v -166.847 0.510 -76.232
v -161.206 4.410 -93.304
v -137.193 4.410 -85.368
v -142.834 4.410 -68.296
v -166.847 4.410 -76.232
f 976 975 974 973
f 969 970 974 973
f 970 971 975 974
f 971 972 976 975
f 972 969 973 976
v -152.969 0.324 -120.466
v -146.989 0.324 -132.591
v -136.531 0.324 -127.434
v -142.511 0.324 -115.309
v -152.969 4.224 -120.466
v -146.989 4.224 -132.591
v -136.531 4.224 -127.434
v -142.511 4.224 -115.309
f 984 983 982 981
f 977 978 982 981
f 978 979 983 982
f 979 980 984 983
f 980 977 981 984
v -139.173 0.316 -115.052
v -135.590 0.316 -137.772
v -118.067 0.316 -135.008
v -121.650 0.316 -112.288
v -139.173 4.216 -115.052
v -135.590 4.216 -137.772
v -118.067 4.216 -135.008
v -121.650 4.216 -112.288
f 992 991 990 989
f 985 986 990 989
f 986 987 991 990
f 987 988 992 991
f 988 985 989 992
v -123.286 0.349 -123.093
v -117.206 0.349 -140.268
v -105.394 0.349 -136.087
v -111.474 0.349 -118.912
v -123.286 4.249 -123.093
v -117.206 4.249 -140.268
v -105.394 4.249 -136.087
v -111.474 4.249 -118.912
f 1000 999 998 997
f 993 994 998 997
f 994 995 999 998
f 995 996 1000 999
f 996 993 997 1000
v -109.205 0.380 -129.852
v -103.741 0.380 -145.537
v -92.635 0.380 -141.668
v -98.099 0.380 -125.983
v -109.205 4.280 -129.852
v -103.741 4.280 -145.537
v -92.635 4.280 -141.668
v -98.099 4.280 -125.983
f 1008 1007 1006 1005
f 1001 1002 1006 1005
f 1002 1003 1007 1006
f 1003 1004 1008 1007
f 1004 1001 1005 1008
v -3.097 0.532 -234.641
v 1.929 0.532 -232.722
v 0.477 0.532 -228.919
v -4.549 0.532 -230.838
v -3.097 4.432 -234.641
v 1.929 4.432 -232.722
v 0.477 4.432 -228.919
v -4.549 4.432 -230.838
f 1016 1015 1014 1013
f 1009 1010 1014 1013
f 1010 1011 1015 1014
f 1011 1012 1016 1015
f 1012 1009 1013 1016
v -152.633 0.384 -159.908
v -147.041 0.384 -175.846
v -138.907 0.384 -172.992
v -144.499 0.384 -157.054
v -152.633 4.284 -159.908
v -147.041 4.284 -175.846
v -138.907 4.284 -172.992
v -144.499 4.284 -157.054
f 1024 1023 1022 1021
f 1017 1018 1022 1021
f 1018 1019 1023 1022
f 1019 1020 1024 1023
f 1020 1017 1021 1024
v -169.371 0.327 -162.864
v -156.162 0.327 -162.316
v -156.649 0.327 -150.556
v -169.858 0.327 -151.104
v -169.371 4.227 -162.864
v -156.162 4.227 -162.316
v -156.649 4.227 -150.556
v -169.858 4.227 -151.104
f 1032 1031 1030 1029
f 1025 1026 1030 1029
f 1026 1027 1031 1030
f 1027 1028 1032 1031
f 1028 1025 1029 1032
v -195.713 -0.022 -158.182
v -174.393 -0.022 -164.614
v -168.807 -0.022 -146.098
v -190.127 -0.022 -139.666
v -195.713 3.878 -158.182
v -174.393 3.878 -164.614
v -168.807 3.878 -146.098
v -190.127 3.878 -139.666
f 1040 1039 1038 1037
f 1033 1034 1038 1037
f 1034 1035 1039 1038
f 1035 1036 1040 1039
f 1036 1033 1037 1040
v -189.751 0.565 -170.698
v -179.882 0.565 -167.417
v -181.769 0.565 -161.742
v -191.638 0.565 -165.023
v -189.751 4.465 -170.698
v -179.882 4.465 -167.417
v -181.769 4.465 -161.742
v -191.638 4.465 -165.023
f 1048 1047 1046 1045
f 1041 1042 1046 1045
f 1042 1043 1047 1046
f 1043 1044 1048 1047
f 1044 1041 1045 1048
v -134.333 0.485 -209.984
v -129.697 0.485 -222.631
v -120.327 0.485 -219.196
v -124.963 0.485 -206.549
v -134.333 4.385 -209.984
v -129.697 4.385 -222.631
v -120.327 4.385 -219.196
v -124.963 4.385 -206.549
f 1056 1055 1054 1053
f 1049 1050 1054 1053
f 1050 1051 1055 1054
f 1051 1052 1056 1055
f 1052 1049 1053 1056
v -156.247 0.640 -209.699
v -154.172 0.640 -216.216
v -150.293 0.640 -214.981
v -152.368 0.640 -208.464
v -156.247 4.540 -209.699
v -154.172 4.540 -216.216
v -150.293 4.540 -214.981
v -152.368 4.540 -208.464
f 1064 1063 1062 1061
f 1057 1058 1062 1061
f 1058 1059 1063 1062
f 1059 1060 1064 1063
f 1060 1057 1061 1064
v -164.227 0.606 -194.829
v -161.572 0.606 -211.752
v -146.773 0.606 -209.431
v -149.428 0.606 -192.508
v -164.227 4.506 -194.829
v -161.572 4.506 -211.752
v -146.773 4.506 -209.431
v -149.428 4.506 -192.508
f 1072 1071 1070 1069
f 1065 1066 1070 1069
f 1066 1067 1071 1070
f 1067 1068 1072 1071
f 1068 1065 1069 1072
v -153.748 0.504 -188.939
v -153.014 0.504 -200.115
v -144.592 0.504 -199.561
v -145.326 0.504 -188.385
v -153.748 4.404 -188.939
v -153.014 4.404 -200.115
v -144.592 4.404 -199.561
v -145.326 4.404 -188.385
f 1080 1079 1078 1077
f 1073 1074 1078 1077
f 1074 1075 1079 1078
f 1075 1076 1080 1079
f 1076 1073 1077 1080
v -181.050 0.533 -183.988
v -170.246 0.533 -209.385
v -157.050 0.533 -203.772
v -167.854 0.533 -178.375
v -181.050 4.433 -183.988
v -170.246 4.433 -209.385
v -157.050 4.433 -203.772
v -167.854 4.433 -178.375
f 1088 1087 1086 1085
f 1081 1082 1086 1085
f 1082 1083 1087 1086
f 1083 1084 1088 1087
f 1084 1081 1085 1088
v -196.920 0.816 -194.191
v -182.594 0.816 -203.691
v -172.580 0.816 -188.589
v -186.906 0.816 -179.089
v -196.920 4.716 -194.191
v -182.594 4.716 -203.691
v -172.580 4.716 -188.589
v -186.906 4.716 -179.089
f 1096 1095 1094 1093
f 1089 1090 1094 1093
f 1090 1091 1095 1094
f 1091 1092 1096 1095
f 1092 1089 1093 1096
v -206.433 0.694 -187.399
v -202.339 0.694 -198.466
v -191.947 0.694 -194.621
v -196.041 0.694 -183.554
v -206.433 4.594 -187.399
v -202.339 4.594 -198.466
v -191.947 4.594 -194.621
v -196.041 4.594 -183.554
f 1104 1103 1102 1101
f 1097 1098 1102 1101
f 1098 1099 1103 1102
f 1099 1100 1104 1103
f 1100 1097 1101 1104
v -195.445 0.847 -183.204
v -186.988 0.847 -180.700
v -189.375 0.847 -172.636
v -197.832 0.847 -175.140
v -195.445 4.747 -183.204
v -186.988 4.747 -180.700
v -189.375 4.747 -172.636
v -197.832 4.747 -175.140
f 1112 1111 1110 1109
f 1105 1106 1110 1109
f 1106 1107 1111 1110
f 1107 1108 1112 1111
f 1108 1105 1109 1112
v -159.565 0.601 -252.928
v -144.796 0.601 -249.336
v -148.435 0.601 -234.372
v -163.204 0.601 -237.964
v -159.565 4.501 -252.928
v -144.796 4.501 -249.336
v -148.435 4.501 -234.372
v -163.204 4.501 -237.964
f 1120 1119 1118 1117
f 1113 1114 1118 1117
f 1114 1115 1119 1118
f 1115 1116 1120 1119
f 1116 1113 1117 1120
v -177.867 0.611 -236.729
v -174.668 0.611 -252.274
v -161.533 0.611 -249.571
v -164.732 0.611 -234.026
v -177.867 4.511 -236.729
v -174.668 4.511 -252.274
v -161.533 4.511 -249.571
v -164.732 4.511 -234.026
f 1128 1127 1126 1125
f 1121 1122 1126 1125
f 1122 1123 1127 1126
f 1123 1124 1128 1127
f 1124 1121 1125 1128
v -189.853 0.532 -232.348
v -185.848 0.532 -243.330
v -175.927 0.532 -239.712
v -179.932 0.532 -228.730
v -189.853 4.432 -232.348
v -185.848 4.432 -243.330
v -175.927 4.432 -239.712
v -179.932 4.432 -228.730
f 1136 1135 1134 1133
f 1129 1130 1134 1133
f 1130 1131 1135 1134
f 1131 1132 1136 1135
f 1132 1129 1133 1136
v -186.386 0.552 -253.759
v -182.744 0.552 -252.747
v -183.574 0.552 -249.761
v -187.216 0.552 -250.773
v -186.386 4.452 -253.759
v -182.744 4.452 -252.747
v -183.574 4.452 -249.761
v -187.216 4.452 -250.773
f 1144 1143 1142 1141
f 1137 1138 1142 1141
f 1138 1139 1143 1142
f 1139 1140 1144 1143
f 1140 1137 1141 1144
v -205.912 0.803 -228.652
v -202.067 0.803 -239.712
v -193.368 0.803 -236.688
v -197.213 0.803 -225.628
v -205.912 4.703 -228.652
v -202.067 4.703 -239.712
v -193.368 4.703 -236.688
v -197.213 4.703 -225.628
f 1152 1151 1150 1149
f 1145 1146 1150 1149
f 1146 1147 1151 1150
f 1147 1148 1152 1151
f 1148 1145 1149 1152
v -206.541 0.814 -234.708
v -205.185 0.814 -218.184
v -218.739 0.814 -217.072
v -220.095 0.814 -233.596
v -206.541 4.714 -234.708
v -205.185 4.714 -218.184
v -218.739 4.714 -217.072
v -220.095 4.714 -233.596
f 1160 1159 1158 1157
f 1153 1154 1158 1157
f 1154 1155 1159 1158
f 1155 1156 1160 1159
f 1156 1153 1157 1160
v -223.776 1.072 -243.295
v -211.015 1.072 -244.150
v -210.264 1.072 -232.945
v -223.025 1.072 -232.090
v -223.776 4.972 -243.295
v -211.015 4.972 -244.150
v -210.264 4.972 -232.945
v -223.025 4.972 -232.090
f 1168 1167 1166 1165
f 1161 1162 1166 1165
f 1162 1163 1167 1166
f 1163 1164 1168 1167
f 1164 1161 1165 1168
v -203.646 0.603 -246.161
v -202.561 0.603 -249.394
v -199.594 0.603 -248.399
v -200.679 0.603 -245.166
v -203.646 4.503 -246.161
v -202.561 4.503 -249.394
v -199.594 4.503 -248.399
v -200.679 4.503 -245.166
f 1176 1175 1174 1173
f 1169 1170 1174 1173
f 1170 1171 1175 1174
f 1171 1172 1176 1175
f 1172 1169 1173 1176
v -211.746 0.778 -258.497
v -203.005 0.778 -255.380
v -205.394 0.778 -248.683
v -214.135 0.778 -251.800
v -211.746 4.678 -258.497
v -203.005 4.678 -255.380
v -205.394 4.678 -248.683
v -214.135 4.678 -251.800
f 1184 1183 1182 1181
f 1177 1178 1182 1181
f 1178 1179 1183 1182
f 1179 1180 1184 1183
f 1180 1177 1181 1184
v -224.357 0.760 -251.649
v -219.530 0.760 -250.067
v -220.623 0.760 -246.731
v -225.450 0.760 -248.313
v -224.357 4.660 -251.649
v -219.530 4.660 -250.067
v -220.623 4.660 -246.731
v -225.450 4.660 -248.313
f 1192 1191 1190 1189
f 1185 1186 1190 1189
f 1186 1187 1191 1190
f 1187 1188 1192 1191
f 1188 1185 1189 1192
v 215.567 0.299 -214.015
v 227.380 0.299 -233.176
v 241.673 0.299 -224.365
v 229.860 0.299 -205.204
v 215.567 4.199 -214.015
v 227.380 4.199 -233.176
v 241.673 4.199 -224.365
v 229.860 4.199 -205.204
f 1200 1199 1198 1197
f 1193 1194 1198 1197
f 1194 1195 1199 1198
f 1195 1196 1200 1199
f 1196 1193 1197 1200
v 231.908 0.235 -231.855
v 236.916 0.235 -230.030
v 235.472 0.235 -226.065
v 230.464 0.235 -227.890
v 231.908 4.135 -231.855
v 236.916 4.135 -230.030
v 235.472 4.135 -226.065
v 230.464 4.135 -227.890
f 1208 1207 1206 1205
f 1201 1202 1206 1205
f 1202 1203 1207 1206
f 1203 1204 1208 1207
f 1204 1201 1205 1208
v 252.150 0.325 -237.307
v 255.138 0.325 -240.300
v 258.110 0.325 -237.333
v 255.122 0.325 -234.340
v 252.150 4.225 -237.307
v 255.138 4.225 -240.300
v 258.110 4.225 -237.333
v 255.122 4.225 -234.340
f 1216 1215 1214 1213
f 1209 1210 1214 1213
f 1210 1211 1215 1214
f 1211 1212 1216 1215
f 1212 1209 1213 1216
v -199.841 0.523 -60.424
v -197.650 0.523 -77.786
v -183.939 0.523 -76.056
v -186.130 0.523 -58.694
v -199.841 4.423 -60.424
v -197.650 4.423 -77.786
v -183.939 4.423 -76.056
v -186.130 4.423 -58.694
f 1224 1223 1222 1221
f 1217 1218 1222 1221
f 1218 1219 1223 1222
f 1219 1220 1224 1223
f 1220 1217 1221 1224
v -212.784 0.617 -57.090
v -208.197 0.617 -70.624
v -197.476 0.617 -66.990
v -202.063 0.617 -53.456
v -212.784 4.517 -57.090
v -208.197 4.517 -70.624
v -197.476 4.517 -66.990
v -202.063 4.517 -53.456
f 1232 1231 1230 1229
f 1225 1226 1230 1229
f 1226 1227 1231 1230
f 1227 1228 1232 1231
f 1228 1225 1229 1232
v -226.653 0.527 -48.242
v -223.633 0.527 -66.616
v -209.167 0.527 -64.238
v -212.187 0.527 -45.864
v -226.653 4.427 -48.242
v -223.633 4.427 -66.616
v -209.167 4.427 -64.238
v -212.187 4.427 -45.864
f 1240 1239 1238 1237
f 1233 1234 1238 1237
f 1234 1235 1239 1238
f 1235 1236 1240 1239
f 1236 1233 1237 1240
v -228.121 0.496 -97.012
v -219.455 0.496 -113.051
v -207.939 0.496 -106.828
v -216.605 0.496 -90.789
v -228.121 4.396 -97.012
v -219.455 4.396 -113.051
v -207.939 4.396 -106.828
v -216.605 4.396 -90.789
f 1248 1247 1246 1245
f 1241 1242 1246 1245
f 1242 1243 1247 1246
f 1243 1244 1248 1247
f 1244 1241 1245 1248
v -242.634 0.623 -91.712
v -229.386 0.623 -105.706
v -217.346 0.623 -94.308
v -230.594 0.623 -80.314
v -242.634 4.523 -91.712
v -229.386 4.523 -105.706
v -217.346 4.523 -94.308
v -230.594 4.523 -80.314
f 1256 1255 1254 1253
f 1249 1250 1254 1253
f 1250 1251 1255 1254
f 1251 1252 1256 1255
f 1252 1249 1253 1256
v -253.878 0.627 -94.361
v -237.005 0.627 -87.950
v -241.682 0.627 -75.639
v -258.555 0.627 -82.050
v -253.878 4.527 -94.361
v -237.005 4.527 -87.950
v -241.682 4.527 -75.639
v -258.555 4.527 -82.050
f 1264 1263 1262 1261
f 1257 1258 1262 1261
f 1258 1259 1263 1262
f 1259 1260 1264 1263
f 1260 1257 1261 1264
v -223.979 0.383 -81.680
v -219.128 0.383 -80.241
v -220.161 0.383 -76.760
v -225.012 0.383 -78.199
v -223.979 4.283 -81.680
v -219.128 4.283 -80.241
v -220.161 4.283 -76.760
v -225.012 4.283 -78.199
f 1272 1271 1270 1269
f 1265 1266 1270 1269
f 1266 1267 1271 1270
f 1267 1268 1272 1271
f 1268 1265 1269 1272
v -254.010 0.636 -43.688
v -248.447 0.636 -59.784
v -238.750 0.636 -56.432
v -244.313 0.636 -40.336
v -254.010 4.536 -43.688
v -248.447 4.536 -59.784
v -238.750 4.536 -56.432
v -244.313 4.536 -40.336
f 1280 1279 1278 1277
f 1273 1274 1278 1277
f 1274 1275 1279 1278
f 1275 1276 1280 1279
f 1276 1273 1277 1280
v -240.385 0.478 -48.859
v -234.304 0.478 -65.578
v -226.175 0.478 -62.621
v -232.256 0.478 -45.902
v -240.385 4.378 -48.859
v -234.304 4.378 -65.578
v -226.175 4.378 -62.621
v -232.256 4.378 -45.902
f 1288 1287 1286 1285
f 1281 1282 1286 1285
f 1282 1283 1287 1286
f 1283 1284 1288 1287
f 1284 1281 1285 1288
v -256.582 1.085 -234.092
v -230.380 1.085 -217.394
v -241.918 1.085 -199.288
v -268.120 1.085 -215.986
v -256.582 4.985 -234.092
v -230.380 4.985 -217.394
v -241.918 4.985 -199.288
v -268.120 4.985 -215.986
f 1296 1295 1294 1293
f 1289 1290 1294 1293
f 1290 1291 1295 1294
f 1291 1292 1296 1295
f 1292 1289 1293 1296
v 234.770 1.398 191.863
v 242.188 1.398 191.658
v 242.270 1.398 194.617
v 234.852 1.398 194.822
v 234.770 5.298 191.863
v 242.188 5.298 191.658
v 242.270 5.298 194.617
v 234.852 5.298 194.822
f 1304 1303 1302 1301
f 1297 1298 1302 1301
f 1298 1299 1303 1302
f 1299 1300 1304 1303
f 1300 1297 1301 1304
usemtl road
v -105.595 0.655 -244.510
v -221.105 1.044 -204.760
v -219.315 1.002 -199.560
v -103.805 0.654 -239.310
f 1305 1306 1307 1308
v -240.908 1.098 -255.124
v -222.817 1.032 -201.284
v -217.603 1.000 -203.036
v -235.695 1.060 -256.876
f 1309 1310 1311 1312
v -222.812 1.032 -201.269
v -197.532 0.653 -127.409
v -192.328 0.583 -129.191
v -217.608 1.000 -203.051
f 1313 1314 1315 1316
v -197.527 0.653 -127.395
v -173.327 0.534 -57.965
v -168.133 0.515 -59.775
v -192.333 0.583 -129.205
f 1317 1318 1319 1320
v -173.326 0.534 -57.964
v -171.166 0.758 -51.774
v -165.974 0.754 -53.586
v -168.134 0.515 -59.776
f 1321 1322 1323 1324
v -171.172 0.757 -51.790
v -167.632 0.707 -41.440
v -162.428 0.692 -43.220
v -165.968 0.755 -53.570
f 1325 1326 1327 1328
v -194.052 0.635 -125.694
v -78.092 0.584 -164.784
v -79.848 0.575 -169.996
v -195.808 0.648 -130.906
f 1329 1330 1331 1332
v -78.088 0.584 -164.785
v -71.588 0.610 -166.985
v -73.352 0.595 -172.195
v -79.852 0.575 -169.995
f 1333 1334 1335 1336
v -71.589 0.610 -166.985
v 32.551 0.449 -202.225
v 30.789 0.597 -207.435
v -73.351 0.595 -172.195
f 1337 1338 1339 1340
v -107.299 0.668 -241.012
v -83.799 0.567 -172.962
v -78.601 0.557 -174.758
v -102.101 0.658 -242.808
f 1341 1342 1343 1344
v -83.800 0.567 -172.964
v -81.570 0.572 -166.494
v -76.370 0.591 -168.286
v -78.600 0.557 -174.756
f 1345 1346 1347 1348
v -81.563 0.572 -166.475
v -57.393 0.427 -97.975
v -52.207 0.443 -99.805
v -76.377 0.591 -168.305
f 1349 1350 1351 1352
v -57.392 0.427 -97.972
v -55.282 0.573 -92.012
v -50.098 0.593 -93.848
v -52.208 0.443 -99.808
f 1353 1354 1355 1356
v -55.298 0.571 -92.058
v -51.728 0.539 -81.378
v -46.512 0.537 -83.122
v -50.082 0.594 -93.802
f 1357 1358 1359 1360
v 202.510 1.416 125.070
v 205.130 1.458 137.190
v 208.550 1.467 136.450
v 205.930 1.453 124.330
f 1361 1362 1363 1364
v 205.093 1.457 136.724
v 204.393 1.515 149.444
v 207.887 1.550 149.636
v 208.587 1.471 136.916
f 1365 1366 1367 1368
v 204.396 1.514 149.398
v 200.706 1.634 194.688
v 204.194 1.594 194.972
v 207.884 1.551 149.682
f 1369 1370 1371 1372
v 200.803 1.623 195.422
v 204.493 1.583 205.682
v 207.787 1.597 204.498
v 204.097 1.608 194.238
f 1373 1374 1375 1376
v 205.371 1.585 206.662
v 216.261 1.513 211.992
v 217.799 1.516 208.848
v 206.909 1.589 203.518
f 1377 1378 1379 1380
v 216.746 1.506 212.147
v 232.346 1.344 214.717
v 232.914 1.443 211.263
v 217.314 1.522 208.693
f 1381 1382 1383 1384
v -252.303 0.513 -6.776
v -163.533 0.554 -38.086
v -166.527 0.791 -46.574
v -255.297 0.831 -15.264
f 1385 1386 1387 1388
v -163.591 0.554 -38.066
v -122.701 0.544 -51.866
v -125.579 0.702 -60.394
v -166.469 0.791 -46.594
f 1389 1390 1391 1392
v -122.660 0.544 -51.880
v -47.640 0.402 -78.000
v -50.600 0.645 -86.500
v -125.620 0.702 -60.380
f 1393 1394 1395 1396
v -47.656 0.402 -77.995
v 52.624 0.839 -112.485
v 49.696 1.011 -120.995
v -50.584 0.645 -86.505
f 1397 1398 1399 1400
v 52.596 0.839 -112.475
v 224.836 0.420 -170.485
v 221.964 0.666 -179.015
v 49.724 1.011 -121.005
f 1401 1402 1403 1404
v 224.876 0.420 -170.499
v 231.906 0.371 -172.939
v 228.954 0.677 -181.441
v 221.924 0.666 -179.001
f 1405 1406 1407 1408
v 44.963 0.935 -126.544
v 48.553 0.945 -115.864
v 53.767 0.969 -117.616
v 50.177 0.973 -128.296
f 1409 1410 1411 1412
v 48.563 0.945 -115.834
v 50.293 0.794 -110.874
v 55.487 0.808 -112.686
v 53.757 0.969 -117.646
f 1413 1414 1415 1416
v 50.295 0.794 -110.871
v 71.445 0.764 -50.471
v 76.635 0.706 -52.289
v 55.485 0.808 -112.689
f 1417 1418 1419 1420
v 71.444 0.764 -50.472
v 87.954 0.763 -3.292
v 93.146 0.706 -5.108
v 76.636 0.706 -52.288
f 1421 1422 1423 1424
v 88.142 0.760 -2.872
v 93.922 0.778 7.608
v 98.738 0.694 4.952
v 92.958 0.706 -5.528
f 1425 1426 1427 1428
v 94.524 0.780 8.354
v 100.334 0.781 13.414
v 103.946 0.718 9.266
v 98.136 0.694 4.206
f 1429 1430 1431 1432
v 101.355 0.781 13.975
v 107.965 0.819 15.945
v 109.535 0.735 10.675
v 102.925 0.717 8.705
f 1433 1434 1435 1436
v 108.397 0.819 16.037
v 120.827 0.794 17.647
v 121.533 0.763 12.193
v 109.103 0.733 10.583
f 1437 1438 1439 1440
v 121.303 0.793 17.667
v 136.483 0.805 16.987
v 136.237 0.771 11.493
v 121.057 0.764 12.173
f 1441 1442 1443 1444
v 136.860 0.804 16.944
v 175.400 0.716 9.814
v 174.400 0.773 4.406
v 135.860 0.770 11.536
f 1445 1446 1447 1448
v -130.994 0.647 -65.714
v -126.944 0.647 -55.064
v -121.336 0.634 -57.196
v -125.386 0.630 -67.846
f 1449 1450 1451 1452
v -126.855 0.642 -54.853
v -123.825 0.505 -48.413
v -118.395 0.504 -50.967
v -121.425 0.638 -57.407
f 1453 1454 1455 1456
v -123.826 0.505 -48.416
v -109.056 0.313 -16.936
v -103.624 0.437 -19.484
v -118.394 0.504 -50.964
f 1457 1458 1459 1460
v -109.006 0.313 -16.834
v -98.276 0.472 3.946
v -92.944 0.573 1.194
v -103.674 0.437 -19.586
f 1461 1462 1463 1464
v -98.390 0.468 3.697
v -90.680 0.568 22.727
v -85.120 0.592 20.473
v -92.830 0.575 1.443
f 1465 1466 1467 1468
v -90.675 0.568 22.740
v -86.455 0.678 33.010
v -80.905 0.668 30.730
v -85.125 0.593 20.460
f 1469 1470 1471 1472
v -86.455 0.678 33.009
v -73.975 0.754 63.409
v -68.425 0.853 61.131
v -80.905 0.668 30.731
f 1473 1474 1475 1476
v -73.689 0.763 63.945
v -64.659 0.796 77.365
v -59.681 0.942 74.015
v -68.711 0.849 60.595
f 1477 1478 1479 1480
v -64.064 0.793 78.016
v -45.914 0.461 92.796
v -42.126 0.972 88.144
v -60.276 0.941 73.364
f 1481 1482 1483 1484
v -45.567 0.476 93.040
v -12.267 0.435 113.080
v -9.173 0.904 107.940
v -42.473 0.972 87.900
f 1485 1486 1487 1488
v -11.912 0.440 113.263
v 12.338 0.965 123.763
v 14.722 1.019 118.257
v -9.528 0.902 107.757
f 1489 1490 1491 1492
v 12.858 0.966 123.934
v 43.638 0.657 131.004
v 44.982 1.048 125.156
v 14.202 1.021 118.086
f 1493 1494 1495 1496
v 43.760 0.650 131.029
v 53.300 0.873 132.809
v 54.400 1.075 126.911
v 44.860 1.050 125.131
f 1497 1498 1499 1500
v 53.411 0.876 132.828
v 80.721 0.628 136.868
v 81.599 1.186 130.932
v 54.289 1.072 126.892
f 1501 1502 1503 1504
v 81.010 0.631 136.896
v 110.090 0.872 138.356
v 110.390 1.199 132.364
v 81.310 1.184 130.904
f 1505 1506 1507 1508
v 110.402 0.872 138.356
v 139.492 0.974 136.786
v 139.168 1.185 130.794
v 110.078 1.198 132.364
f 1509 1510 1511 1512
v 139.746 0.980 136.761
v 204.636 1.418 127.671
v 203.804 1.472 121.729
v 138.914 1.185 130.819
f 1513 1514 1515 1516
v 204.634 1.418 127.671
v 207.934 1.430 127.211
v 207.106 1.492 121.269
v 203.806 1.472 121.729
f 1517 1518 1519 1520
v 207.850 1.431 127.222
v 256.060 1.644 121.892
v 255.400 1.685 115.928
v 207.190 1.492 121.258
f 1521 1522 1523 1524
v -255.358 0.744 75.213
v -130.838 0.757 47.941
v -132.122 0.725 42.079
v -256.642 0.719 69.352
f 1525 1526 1527 1528
v -130.826 0.757 47.938
v -105.846 0.688 42.358
v -107.154 0.744 36.502
v -132.134 0.725 42.082
f 1529 1530 1531 1532
v -105.557 0.689 42.278
v -82.737 0.693 34.718
v -84.623 0.689 29.022
v -107.443 0.747 36.582
f 1533 1534 1535 1536
v -82.726 0.693 34.714
v -7.926 0.815 9.624
v -9.834 0.547 3.936
v -84.634 0.689 29.026
f 1537 1538 1539 1540
v 73.418 0.789 -53.016
v 60.018 0.209 -47.916
v 61.262 0.202 -44.644
v 74.662 0.785 -49.744
f 1541 1542 1543 1544
v 60.015 0.209 -47.915
v 51.385 0.261 -44.615
v 52.635 0.223 -41.345
v 61.265 0.202 -44.645
f 1545 1546 1547 1548
v 51.401 0.260 -44.620
v 38.051 0.380 -39.660
v 39.269 0.363 -36.380
v 52.619 0.223 -41.340
f 1549 1550 1551 1552
v 39.024 0.376 -39.732
v 33.284 0.410 -40.952
v 32.556 0.398 -37.528
v 38.296 0.369 -36.308
f 1553 1554 1555 1556
v 34.406 0.402 -40.164
v 30.846 0.425 -45.894
v 27.874 0.536 -44.046
v 31.434 0.410 -38.316
f 1557 1558 1559 1560
v 31.026 0.424 -45.506
v 19.096 0.461 -82.566
v 15.764 0.437 -81.494
v 27.694 0.541 -44.434
f 1561 1562 1563 1564
v 18.974 0.457 -81.206
v 21.934 0.430 -86.756
v 18.846 0.454 -88.404
v 15.886 0.447 -82.854
f 1565 1566 1567 1568
v 20.931 0.440 -85.916
v 32.151 0.368 -89.566
v 31.069 0.406 -92.894
v 19.849 0.452 -89.244
f 1569 1570 1571 1572
v 31.887 0.370 -89.502
v 41.507 0.355 -91.042
v 40.953 0.407 -94.498
v 31.333 0.405 -92.958
f 1573 1574 1575 1576
v 40.731 0.352 -91.093
v 46.181 0.366 -89.473
v 47.179 0.418 -92.827
v 41.729 0.413 -94.447
f 1577 1578 1579 1580
v 45.009 0.377 -90.630
v 58.969 0.185 -45.760
v 62.311 0.224 -46.800
v 48.351 0.406 -91.670
f 1581 1582 1583 1584
v 14.073 0.493 -2.260
v 37.073 0.471 -14.330
v 35.447 0.444 -17.430
v 12.447 0.479 -5.360
f 1585 1586 1587 1588
v 37.813 0.476 -15.074
v 45.363 0.346 -29.614
v 42.257 0.380 -31.226
v 34.707 0.442 -16.686
f 1589 1590 1591 1592
v 45.275 0.347 -29.463
v 53.475 0.216 -42.023
v 50.545 0.276 -43.937
v 42.345 0.377 -31.377
f 1593 1594 1595 1596
v 225.495 0.492 -192.261
v 218.365 0.509 -189.801
v 220.975 0.684 -182.239
v 228.105 0.730 -184.699
f 1597 1598 1599 1600
v 218.381 0.509 -189.807
v 46.281 0.932 -131.207
v 48.859 1.008 -123.633
v 220.959 0.684 -182.233
f 1601 1602 1603 1604
v 46.269 0.932 -131.202
v -53.991 0.464 -96.712
v -51.389 0.648 -89.148
v 48.871 1.008 -123.638
f 1605 1606 1607 1608
v -53.999 0.464 -96.710
v -129.499 0.501 -70.560
v -126.881 0.702 -63.000
v -51.381 0.649 -89.150
f 1609 1610 1611 1612
v -129.509 0.501 -70.556
v -169.889 0.622 -56.456
v -167.251 0.802 -48.904
v -126.871 0.702 -63.004
f 1613 1614 1615 1616
v -169.904 0.622 -56.451
v -257.334 0.554 -25.513
v -254.666 0.855 -17.971
v -167.236 0.802 -48.909
f 1617 1618 1619 1620
v -58.166 0.698 154.156
v -4.686 0.897 134.876
v -5.874 0.877 131.584
v -59.354 0.736 150.864
f 1621 1622 1623 1624
v -4.510 0.896 134.801
v 5.850 0.937 129.721
v 4.310 0.912 126.579
v -6.050 0.880 131.659
f 1625 1626 1627 1628
v 6.209 0.935 129.487
v 14.659 1.018 122.347
v 12.401 1.031 119.673
v 3.951 0.911 126.813
f 1629 1630 1631 1632
v 192.803 0.710 -255.099
v 214.582 0.407 -192.289
v 219.778 0.418 -194.091
v 197.999 0.648 -256.901
f 1633 1634 1635 1636
v 214.582 0.407 -192.288
v 217.072 0.629 -185.118
v 222.268 0.636 -186.922
v 219.778 0.418 -194.092
f 1637 1638 1639 1640
v 217.059 0.628 -185.156
v 220.789 0.518 -173.886
v 226.011 0.515 -175.614
v 222.281 0.637 -186.884
f 1641 1642 1643 1644
v 49.984 0.658 -208.359
v 86.194 0.674 -220.809
v 84.406 0.664 -226.011
v 48.196 0.616 -213.561
f 1645 1646 1647 1648
v 86.191 0.674 -220.808
v 181.390 0.706 -253.398
v 179.609 0.745 -258.602
v 84.409 0.664 -226.012
f 1649 1650 1651 1652
usemtl asphalt
