# Baked ultra-low Key West silhouette; generated by bake_key_west_far_city.py
mtllib far_city.mtl
usemtl massing
v -43.161 0.816 34.078
v -9.208 0.816 -5.545
v 23.361 0.816 22.362
v -10.592 0.816 61.985
v -43.161 6.616 34.078
v -9.208 6.616 -5.545
v 23.361 6.616 22.362
v -10.592 6.616 61.985
f 8 7 6 5
f 1 2 6 5
f 2 3 7 6
f 3 4 8 7
f 4 1 5 8
v 149.275 0.950 124.352
v 195.613 0.950 65.558
v 233.665 0.950 95.548
v 187.327 0.950 154.342
v 149.275 10.250 124.352
v 195.613 10.250 65.558
v 233.665 10.250 95.548
v 187.327 10.250 154.342
f 16 15 14 13
f 9 10 14 13
f 10 11 15 14
f 11 12 16 15
f 12 9 13 16
v 80.961 1.023 -38.016
v 207.836 1.023 -6.750
v 187.539 1.023 75.616
v 60.664 1.023 44.350
v 80.961 9.323 -38.016
v 207.836 9.323 -6.750
v 187.539 9.323 75.616
v 60.664 9.323 44.350
f 24 23 22 21
f 17 18 22 21
f 18 19 23 22
f 19 20 24 23
f 20 17 21 24
v 144.779 0.985 85.739
v 155.015 0.985 159.815
v 105.901 0.985 166.601
v 95.665 0.985 92.525
v 144.779 10.285 85.739
v 155.015 10.285 159.815
v 105.901 10.285 166.601
v 95.665 10.285 92.525
f 32 31 30 29
f 25 26 30 29
f 26 27 31 30
f 27 28 32 31
f 28 25 29 32
v -18.239 0.774 55.361
v 15.676 0.774 -13.901
v 58.399 0.774 7.019
v 24.484 0.774 76.281
v -18.239 9.074 55.361
v 15.676 9.074 -13.901
v 58.399 9.074 7.019
v 24.484 9.074 76.281
f 40 39 38 37
f 33 34 38 37
f 34 35 39 38
f 35 36 40 39
f 36 33 37 40
v -16.231 0.980 127.383
v 6.157 0.980 50.830
v 27.791 0.980 57.157
v 5.403 0.980 133.710
v -16.231 6.780 127.383
v 6.157 6.780 50.830
v 27.791 6.780 57.157
v 5.403 6.780 133.710
f 48 47 46 45
f 41 42 46 45
f 42 43 47 46
f 43 44 48 47
f 44 41 45 48
v 165.281 0.685 162.408
v 167.991 0.685 156.117
v 174.199 0.685 158.792
v 171.489 0.685 165.083
v 165.281 4.585 162.408
v 167.991 4.585 156.117
v 174.199 4.585 158.792
v 171.489 4.585 165.083
f 56 55 54 53
f 49 50 54 53
f 50 51 55 54
f 51 52 56 55
f 52 49 53 56
v 53.694 1.070 -14.922
v 63.484 1.070 -12.610
v 61.526 1.070 -4.318
v 51.736 1.070 -6.630
v 53.694 4.970 -14.922
v 63.484 4.970 -12.610
v 61.526 4.970 -4.318
v 51.736 4.970 -6.630
f 64 63 62 61
f 57 58 62 61
f 58 59 63 62
f 59 60 64 63
f 60 57 61 64
v 159.010 1.193 130.813
v 172.383 1.193 134.052
v 169.410 1.193 146.327
v 156.037 1.193 143.088
v 159.010 10.493 130.813
v 172.383 10.493 134.052
v 169.410 10.493 146.327
v 156.037 10.493 143.088
f 72 71 70 69
f 65 66 70 69
f 66 67 71 70
f 67 68 72 71
f 68 65 69 72
v 69.329 0.857 97.482
v 79.951 0.857 180.616
v 11.051 0.857 189.418
v 0.429 0.857 106.284
v 69.329 10.157 97.482
v 79.951 10.157 180.616
v 11.051 10.157 189.418
v 0.429 10.157 106.284
f 80 79 78 77
f 73 74 78 77
f 74 75 79 78
f 75 76 80 79
f 76 73 77 80
v 14.714 0.793 103.654
v 19.775 0.793 70.781
v 29.026 0.793 72.206
v 23.965 0.793 105.079
v 14.714 4.693 103.654
v 19.775 4.693 70.781
v 29.026 4.693 72.206
v 23.965 4.693 105.079
f 88 87 86 85
f 81 82 86 85
f 82 83 87 86
f 83 84 88 87
f 84 81 85 88
v 83.743 1.102 209.771
v 87.480 1.102 210.566
v 86.837 1.102 213.589
v 83.100 1.102 212.794
v 83.743 5.002 209.771
v 87.480 5.002 210.566
v 86.837 5.002 213.589
v 83.100 5.002 212.794
f 96 95 94 93
f 89 90 94 93
f 90 91 95 94
f 91 92 96 95
f 92 89 93 96
v 193.214 1.359 184.860
v 196.707 1.359 185.731
v 195.966 1.359 188.700
v 192.473 1.359 187.829
v 193.214 5.259 184.860
v 196.707 5.259 185.731
v 195.966 5.259 188.700
v 192.473 5.259 187.829
f 104 103 102 101
f 97 98 102 101
f 98 99 103 102
f 99 100 104 103
f 100 97 101 104
v 38.016 1.373 224.087
v 39.010 1.373 220.920
v 42.044 1.373 221.873
v 41.050 1.373 225.040
v 38.016 5.273 224.087
v 39.010 5.273 220.920
v 42.044 5.273 221.873
v 41.050 5.273 225.040
f 112 111 110 109
f 105 106 110 109
f 106 107 111 110
f 107 108 112 111
f 108 105 109 112
v -32.679 1.320 240.187
v -29.272 1.320 241.030
v -29.981 1.320 243.893
v -33.388 1.320 243.050
v -32.679 5.220 240.187
v -29.272 5.220 241.030
v -29.981 5.220 243.893
v -33.388 5.220 243.050
f 120 119 118 117
f 113 114 118 117
f 114 115 119 118
f 115 116 120 119
f 116 113 117 120
v 182.609 1.151 -47.300
v 192.531 1.151 -45.836
v 191.251 1.151 -37.160
v 181.329 1.151 -38.624
v 182.609 5.051 -47.300
v 192.531 5.051 -45.836
v 191.251 5.051 -37.160
v 181.329 5.051 -38.624
f 128 127 126 125
f 121 122 126 125
f 122 123 127 126
f 123 124 128 127
f 124 121 125 128
v 179.262 1.040 -59.357
v 185.441 1.040 -58.733
v 185.038 1.040 -54.743
v 178.859 1.040 -55.367
v 179.262 4.940 -59.357
v 185.441 4.940 -58.733
v 185.038 4.940 -54.743
v 178.859 4.940 -55.367
f 136 135 134 133
f 129 130 134 133
f 130 131 135 134
f 131 132 136 135
f 132 129 133 136
usemtl road
v -28.733 1.045 203.581
v -24.533 0.967 221.401
v -21.127 0.970 220.599
v -25.327 1.030 202.779
f 137 138 139 140
v -15.997 1.088 198.670
v -27.447 1.041 201.480
v -26.613 1.052 204.880
v -15.163 1.033 202.070
f 141 142 143 144
v -27.448 1.041 201.481
v -142.768 0.865 229.831
v -141.932 0.945 233.229
v -26.612 1.052 204.879
f 145 146 147 148
v -142.841 0.865 229.850
v -226.607 0.878 254.320
v -225.625 0.890 257.680
v -141.859 0.947 233.210
f 149 150 151 152
v 111.017 1.377 95.260
v 113.187 1.364 97.600
v 115.753 1.359 95.220
v 113.583 1.357 92.880
f 153 154 155 156
v 112.777 1.368 96.855
v 117.677 1.303 115.505
v 121.063 1.365 114.615
v 116.163 1.367 95.965
f 157 158 159 160
v 117.677 1.303 115.505
v 122.247 1.374 132.905
v 125.633 1.375 132.015
v 121.063 1.365 114.615
f 161 162 163 164
v 123.495 1.389 130.768
v 87.395 1.355 140.268
v 88.285 1.364 143.652
v 124.385 1.353 134.152
f 165 166 167 168
v 100.279 0.941 190.031
v 96.699 1.046 173.871
v 93.281 1.037 174.629
v 96.861 0.945 190.789
f 169 170 171 172
v 96.699 1.046 173.872
v 89.549 1.361 141.582
v 86.131 1.354 142.338
v 93.281 1.037 174.628
f 173 174 175 176
v 89.536 1.361 141.530
v 85.026 1.126 123.750
v 81.634 1.173 124.610
v 86.144 1.354 142.390
f 177 178 179 180
v 85.026 1.126 123.749
v 50.536 1.350 -11.991
v 47.144 1.337 -11.129
v 81.634 1.173 124.611
f 181 182 183 184
v 50.453 1.342 -10.882
v 52.503 1.353 -15.762
v 49.277 1.389 -17.118
v 47.227 1.351 -12.238
f 185 186 187 188
v 52.028 1.351 -15.111
v 58.228 1.388 -20.421
v 55.952 1.414 -23.079
v 49.752 1.392 -17.769
f 189 190 191 192
v 57.769 1.384 -20.137
v 62.139 1.397 -21.977
v 60.781 1.407 -25.203
v 56.411 1.414 -23.363
f 193 194 195 196
v 61.823 1.397 -21.878
v 188.833 1.407 -48.798
v 188.107 1.420 -52.222
v 61.097 1.406 -25.302
f 197 198 199 200
v 188.083 1.408 -48.803
v 192.363 1.374 -47.833
v 193.137 1.413 -51.247
v 188.857 1.422 -52.217
f 201 202 203 204
v 191.454 1.389 -48.364
v 195.484 1.303 -43.924
v 198.076 1.325 -46.276
v 194.046 1.408 -50.716
f 205 206 207 208
v 195.136 1.316 -44.500
v 198.826 1.154 -34.390
v 202.114 1.172 -35.590
v 198.424 1.310 -45.700
f 209 210 211 212
v 198.770 1.156 -34.576
v 228.750 1.130 88.604
v 232.150 1.152 87.776
v 202.170 1.171 -35.404
f 213 214 215 216
v 228.750 1.130 88.604
v 232.950 1.277 105.844
v 236.350 1.299 105.016
v 232.150 1.152 87.776
f 217 218 219 220
v 232.950 1.277 105.844
v 240.300 1.049 136.034
v 243.700 1.039 135.206
v 236.350 1.299 105.016
f 221 222 223 224
v 240.299 1.049 136.033
v 244.619 1.006 153.833
v 248.021 1.015 153.007
v 243.701 1.039 135.207
f 225 226 227 228
v 188.287 1.358 71.233
v 187.597 1.313 75.103
v 191.043 1.365 75.717
v 191.733 1.378 71.847
f 229 230 231 232
v 187.624 1.310 75.840
v 192.614 1.303 95.520
v 196.006 1.242 94.660
v 191.016 1.365 74.980
f 233 234 235 236
v 192.614 1.303 95.521
v 197.234 1.352 113.721
v 200.626 1.326 112.859
v 196.006 1.242 94.659
f 237 238 239 240
v 199.306 1.338 114.999
v 235.026 1.303 107.139
v 234.274 1.280 103.721
v 198.554 1.332 111.581
f 241 242 243 244
v 194.638 1.277 96.809
v 230.778 1.148 89.909
v 230.122 1.116 86.471
v 193.982 1.261 93.371
f 245 246 247 248
v 83.759 1.172 125.877
v 119.799 1.333 116.757
v 118.941 1.344 113.363
v 82.901 1.122 122.483
f 249 250 251 252
v 96.389 1.027 175.301
v 99.619 1.057 171.001
v 96.821 1.124 168.899
v 93.591 1.069 173.199
f 253 254 255 256
v 98.638 1.062 171.649
v 176.338 1.120 152.529
v 175.502 1.160 149.131
v 97.802 1.128 168.251
f 257 258 259 260
v 176.338 1.120 152.529
v 237.378 1.051 137.519
v 236.542 1.099 134.121
v 175.502 1.160 149.131
f 261 262 263 264
v 237.029 1.054 137.569
v 242.069 1.013 137.369
v 241.931 1.070 133.871
v 236.891 1.099 134.071
f 265 266 267 268
v 20.418 0.993 210.107
v 15.198 1.187 189.177
v 11.802 1.202 190.023
v 17.022 1.007 210.953
f 269 270 271 272
v 15.193 1.187 189.157
v 2.683 1.048 141.337
v -0.703 1.075 142.223
v 11.807 1.203 190.043
f 273 274 275 276
v 2.695 1.048 141.386
v -5.785 1.204 104.666
v -9.195 1.209 105.454
v -0.715 1.076 142.174
f 277 278 279 280
v -6.030 1.186 106.025
v -3.850 1.233 102.725
v -6.770 1.301 100.795
v -8.950 1.249 104.095
f 281 282 283 284
v -3.581 1.243 102.031
v -3.011 1.311 98.391
v -6.469 1.349 97.849
v -7.039 1.289 101.489
f 285 286 287 288
v -3.059 1.330 97.632
v -4.319 1.343 93.292
v -7.681 1.330 94.268
v -6.421 1.339 98.608
f 289 290 291 292
v -4.925 1.317 92.399
v -8.845 1.233 89.349
v -10.995 1.291 92.111
v -7.075 1.338 95.161
f 293 294 295 296
v -8.574 1.241 89.611
v -10.944 1.175 86.761
v -13.636 1.187 88.999
v -11.266 1.283 91.849
f 297 298 299 300
v -10.595 1.189 87.445
v -31.795 1.036 4.785
v -35.185 1.041 5.655
v -13.985 1.165 88.315
f 301 302 303 304
v -32.010 1.023 6.154
v -29.680 1.106 2.464
v -32.640 1.056 0.596
v -34.970 1.045 4.286
f 305 306 307 308
v -30.407 1.074 3.110
v -23.527 1.078 -0.170
v -25.033 1.068 -3.330
v -31.913 1.060 -0.050
f 309 310 311 312
v -23.850 1.084 -0.054
v 33.010 1.045 -14.464
v 32.150 1.067 -17.856
v -24.710 1.069 -3.446
f 313 314 315 316
v 32.003 1.054 -14.508
v 35.183 1.058 -13.398
v 36.337 1.090 -16.702
v 33.157 1.071 -17.812
f 317 318 319 320
v 34.163 1.056 -14.335
v 36.373 1.051 -9.395
v 39.567 1.137 -10.825
v 37.357 1.109 -15.765
f 321 322 323 324
v 36.270 1.051 -9.696
v 80.490 1.199 171.824
v 83.890 1.225 170.996
v 39.670 1.141 -10.524
f 325 326 327 328
v 80.585 1.191 170.713
v 78.595 1.212 175.293
v 81.805 1.253 176.687
v 83.795 1.240 172.107
f 329 330 331 332
v 79.850 1.215 174.275
v 13.150 1.189 187.885
v 13.850 1.194 191.315
v 80.550 1.258 177.705
f 333 334 335 336
v -6.795 1.244 103.454
v -9.985 1.303 102.074
v -11.375 1.220 105.286
v -8.185 1.158 106.666
f 337 338 339 340
v -9.558 1.294 102.337
v -12.358 1.382 99.997
v -14.602 1.280 102.683
v -11.802 1.227 105.023
f 341 342 343 344
v -11.777 1.337 100.938
v -12.767 1.435 96.748
v -16.173 1.303 97.552
v -15.183 1.287 101.742
f 345 346 347 348
v -12.721 1.446 97.200
v -12.631 1.332 94.020
v -16.129 1.263 93.920
v -16.219 1.299 97.100
f 349 350 351 352
v -12.725 1.346 94.538
v -10.635 1.209 88.448
v -13.945 1.141 87.312
v -16.035 1.256 93.402
f 353 354 355 356
v 254.669 0.895 145.367
v 244.989 0.882 147.569
v 247.651 0.891 159.271
v 257.331 0.866 157.068
f 357 358 359 360
v 244.991 0.882 147.569
v 234.821 0.880 149.879
v 237.479 0.841 161.581
v 247.649 0.891 159.271
f 361 362 363 364
v 234.683 0.880 149.912
v 97.103 0.846 184.592
v 100.037 0.834 196.228
v 237.617 0.840 161.548
f 365 366 367 368
v 97.104 0.846 184.592
v 17.254 0.891 204.712
v 20.186 0.883 216.348
v 100.036 0.834 196.228
f 369 370 371 372
v 17.254 0.891 204.712
v -24.296 0.853 215.182
v -21.364 0.883 226.818
v 20.186 0.883 216.348
f 373 374 375 376
v -24.296 0.853 215.182
v -150.826 0.800 247.062
v -147.894 0.831 258.698
v -21.364 0.883 226.818
f 377 378 379 380
usemtl asphalt
