# Baked ultra-low Key West silhouette; generated by bake_key_west_far_city.py
mtllib far_city.mtl
usemtl massing
v -100.633 1.229 -254.145
v -96.986 1.229 -253.111
v -97.807 1.229 -250.215
v -101.454 1.229 -251.249
v -100.633 5.129 -254.145
v -96.986 5.129 -253.111
v -97.807 5.129 -250.215
v -101.454 5.129 -251.249
f 8 7 6 5
f 1 2 6 5
f 2 3 7 6
f 3 4 8 7
f 4 1 5 8
v -165.091 1.168 -236.740
v -161.543 1.168 -235.761
v -162.349 1.168 -232.840
v -165.897 1.168 -233.819
v -165.091 5.068 -236.740
v -161.543 5.068 -235.761
v -162.349 5.068 -232.840
v -165.897 5.068 -233.819
f 16 15 14 13
f 9 10 14 13
f 10 11 15 14
f 11 12 16 15
f 12 9 13 16
v -235.762 1.345 -211.807
v -222.983 1.345 -211.933
v -222.918 1.345 -205.373
v -235.697 1.345 -205.247
v -235.762 5.245 -211.807
v -222.983 5.245 -211.933
v -222.918 5.245 -205.373
v -235.697 5.245 -205.247
f 24 23 22 21
f 17 18 22 21
f 18 19 23 22
f 19 20 24 23
f 20 17 21 24
usemtl road
v -242.064 0.956 -228.446
v -241.554 0.889 -235.626
v -245.046 0.861 -235.874
v -245.556 0.979 -228.694
f 25 26 27 28
v -241.719 0.865 -236.500
v -246.579 1.038 -246.750
v -249.741 0.936 -245.250
v -244.881 0.880 -235.000
f 29 30 31 32
v -246.780 1.027 -247.076
v -254.578 1.105 -257.076
v -257.338 1.073 -254.924
v -249.540 0.936 -244.924
f 33 34 35 36
v -254.306 0.923 -237.174
v -252.666 0.879 -232.374
v -249.354 0.892 -233.506
v -250.994 1.002 -238.306
f 37 38 39 40
v -251.918 0.911 -231.444
v -244.718 0.957 -227.074
v -242.902 0.972 -230.066
v -250.102 0.876 -234.436
f 41 42 43 44
v -161.817 0.833 -261.764
v -195.157 0.860 -252.124
v -191.823 0.850 -240.596
v -158.484 0.834 -250.236
f 45 46 47 48
v -195.490 0.862 -252.017
v -245.810 0.895 -234.227
v -241.810 0.868 -222.913
v -191.490 0.847 -240.703
f 49 50 51 52
usemtl asphalt
