# Baked ultra-low Key West silhouette; generated by bake_key_west_far_city.py
mtllib far_city.mtl
usemtl massing
v 74.916 1.523 219.385
v 83.477 1.523 205.845
v 90.104 1.523 210.035
v 81.543 1.523 223.575
v 74.916 5.423 219.385
v 83.477 5.423 205.845
v 90.104 5.423 210.035
v 81.543 5.423 223.575
f 8 7 6 5
f 1 2 6 5
f 2 3 7 6
f 3 4 8 7
f 4 1 5 8
v 83.266 1.327 213.776
v 90.781 1.327 198.694
v 100.474 1.327 203.524
v 92.959 1.327 218.606
v 83.266 5.227 213.776
v 90.781 5.227 198.694
v 100.474 5.227 203.524
v 92.959 5.227 218.606
f 16 15 14 13
f 9 10 14 13
f 10 11 15 14
f 11 12 16 15
f 12 9 13 16
v 166.843 0.990 236.515
v 174.077 0.990 254.893
v 161.497 0.990 259.845
v 154.263 0.990 241.467
v 166.843 4.890 236.515
v 174.077 4.890 254.893
v 161.497 4.890 259.845
v 154.263 4.890 241.467
f 24 23 22 21
f 17 18 22 21
f 18 19 23 22
f 19 20 24 23
f 20 17 21 24
v 220.287 1.087 219.324
v 225.345 1.087 241.249
v 215.173 1.087 243.596
v 210.115 1.087 221.671
v 220.287 4.987 219.324
v 225.345 4.987 241.249
v 215.173 4.987 243.596
v 210.115 4.987 221.671
f 32 31 30 29
f 25 26 30 29
f 26 27 31 30
f 27 28 32 31
f 28 25 29 32
v 205.503 1.586 207.199
v 231.849 1.586 205.094
v 232.937 1.586 218.721
v 206.591 1.586 220.826
v 205.503 5.486 207.199
v 231.849 5.486 205.094
v 232.937 5.486 218.721
v 206.591 5.486 220.826
f 40 39 38 37
f 33 34 38 37
f 34 35 39 38
f 35 36 40 39
f 36 33 37 40
v 254.011 1.074 226.606
v 259.250 1.074 248.641
v 249.269 1.074 251.014
v 244.030 1.074 228.979
v 254.011 4.974 226.606
v 259.250 4.974 248.641
v 249.269 4.974 251.014
v 244.030 4.974 228.979
f 48 47 46 45
f 41 42 46 45
f 42 43 47 46
f 43 44 48 47
f 44 41 45 48
v 225.485 1.133 180.621
v 243.450 1.133 176.693
v 245.795 1.133 187.419
v 227.830 1.133 191.347
v 225.485 5.033 180.621
v 243.450 5.033 176.693
v 245.795 5.033 187.419
v 227.830 5.033 191.347
f 56 55 54 53
f 49 50 54 53
f 50 51 55 54
f 51 52 56 55
f 52 49 53 56
v 116.202 1.355 237.751
v 130.480 1.355 249.531
v 121.538 1.355 260.369
v 107.260 1.355 248.589
v 116.202 5.255 237.751
v 130.480 5.255 249.531
v 121.538 5.255 260.369
v 107.260 5.255 248.589
f 64 63 62 61
f 57 58 62 61
f 58 59 63 62
f 59 60 64 63
f 60 57 61 64
v 114.436 1.980 213.262
v 122.480 1.980 243.366
v 98.404 1.980 249.798
v 90.360 1.980 219.694
v 114.436 5.880 213.262
v 122.480 5.880 243.366
v 98.404 5.880 249.798
v 90.360 5.880 219.694
f 72 71 70 69
f 65 66 70 69
f 66 67 71 70
f 67 68 72 71
f 68 65 69 72
v 218.552 1.908 132.715
v 226.791 1.908 113.410
v 246.648 1.908 121.885
v 238.409 1.908 141.190
v 218.552 5.808 132.715
v 226.791 5.808 113.410
v 246.648 5.808 121.885
v 238.409 5.808 141.190
f 80 79 78 77
f 73 74 78 77
f 74 75 79 78
f 75 76 80 79
f 76 73 77 80
v 210.054 1.065 142.436
v 218.354 1.065 127.155
v 227.686 1.065 132.224
v 219.386 1.065 147.505
v 210.054 4.965 142.436
v 218.354 4.965 127.155
v 227.686 4.965 132.224
v 219.386 4.965 147.505
f 88 87 86 85
f 81 82 86 85
f 82 83 87 86
f 83 84 88 87
f 84 81 85 88
v 201.315 1.052 149.188
v 208.601 1.052 133.894
v 218.505 1.052 138.612
v 211.219 1.052 153.906
v 201.315 4.952 149.188
v 208.601 4.952 133.894
v 218.505 4.952 138.612
v 211.219 4.952 153.906
f 96 95 94 93
f 89 90 94 93
f 90 91 95 94
f 91 92 96 95
f 92 89 93 96
v 192.202 1.107 153.849
v 200.904 1.107 140.338
v 209.278 1.107 145.731
v 200.576 1.107 159.242
v 192.202 5.007 153.849
v 200.904 5.007 140.338
v 209.278 5.007 145.731
v 200.576 5.007 159.242
f 104 103 102 101
f 97 98 102 101
f 98 99 103 102
f 99 100 104 103
f 100 97 101 104
v 182.856 1.208 161.102
v 191.458 1.208 146.023
v 200.144 1.208 150.978
v 191.542 1.208 166.057
v 182.856 5.108 161.102
v 191.458 5.108 146.023
v 200.144 5.108 150.978
v 191.542 5.108 166.057
f 112 111 110 109
f 105 106 110 109
f 106 107 111 110
f 107 108 112 111
f 108 105 109 112
v 209.950 0.818 159.762
v 225.360 0.818 170.052
v 221.950 0.818 175.158
v 206.540 0.818 164.868
v 209.950 4.718 159.762
v 225.360 4.718 170.052
v 221.950 4.718 175.158
v 206.540 4.718 164.868
f 120 119 118 117
f 113 114 118 117
f 114 115 119 118
f 115 116 120 119
f 116 113 117 120
v 190.035 0.814 172.825
v 205.661 0.814 183.296
v 202.405 0.814 188.155
v 186.779 0.814 177.684
v 190.035 4.714 172.825
v 205.661 4.714 183.296
v 202.405 4.714 188.155
v 186.779 4.714 177.684
f 128 127 126 125
f 121 122 126 125
f 122 123 127 126
f 123 124 128 127
f 124 121 125 128
v 173.788 1.532 166.564
v 181.959 1.532 152.102
v 190.692 1.532 157.036
v 182.521 1.532 171.498
v 173.788 5.432 166.564
v 181.959 5.432 152.102
v 190.692 5.432 157.036
v 182.521 5.432 171.498
f 136 135 134 133
f 129 130 134 133
f 130 131 135 134
f 131 132 136 135
f 132 129 133 136
v 164.294 1.511 172.176
v 173.053 1.511 158.489
v 181.046 1.511 163.604
v 172.287 1.511 177.291
v 164.294 5.411 172.176
v 173.053 5.411 158.489
v 181.046 5.411 163.604
v 172.287 5.411 177.291
f 144 143 142 141
f 137 138 142 141
f 138 139 143 142
f 139 140 144 143
f 140 137 141 144
v 154.283 1.295 177.726
v 162.497 1.295 163.926
v 171.717 1.295 169.414
v 163.503 1.295 183.214
v 154.283 5.195 177.726
v 162.497 5.195 163.926
v 171.717 5.195 169.414
v 163.503 5.195 183.214
f 152 151 150 149
f 145 146 150 149
f 146 147 151 150
f 147 148 152 151
f 148 145 149 152
v 170.944 0.855 186.051
v 186.378 0.855 196.250
v 182.916 0.855 201.489
v 167.482 0.855 191.290
v 170.944 4.755 186.051
v 186.378 4.755 196.250
v 182.916 4.755 201.489
v 167.482 4.755 191.290
f 160 159 158 157
f 153 154 158 157
f 154 155 159 158
f 155 156 160 159
f 156 153 157 160
v 148.443 0.809 199.193
v 167.161 0.809 210.848
v 163.837 0.809 216.187
v 145.119 0.809 204.532
v 148.443 4.709 199.193
v 167.161 4.709 210.848
v 163.837 4.709 216.187
v 145.119 4.709 204.532
f 168 167 166 165
f 161 162 166 165
f 162 163 167 166
f 163 164 168 167
f 164 161 165 168
v 144.886 1.253 183.607
v 153.824 1.253 169.631
v 162.114 1.253 174.933
v 153.176 1.253 188.909
v 144.886 5.153 183.607
v 153.824 5.153 169.631
v 162.114 5.153 174.933
v 153.176 5.153 188.909
f 176 175 174 173
f 169 170 174 173
f 170 171 175 174
f 171 172 176 175
f 172 169 173 176
v 133.272 1.244 189.271
v 142.445 1.244 173.586
v 151.068 1.244 178.629
v 141.895 1.244 194.314
v 133.272 5.144 189.271
v 142.445 5.144 173.586
v 151.068 5.144 178.629
v 141.895 5.144 194.314
f 184 183 182 181
f 177 178 182 181
f 178 179 183 182
f 179 180 184 183
f 180 177 181 184
v 123.963 1.374 194.166
v 132.935 1.374 180.223
v 138.577 1.374 183.854
v 129.605 1.374 197.797
v 123.963 5.274 194.166
v 132.935 5.274 180.223
v 138.577 5.274 183.854
v 129.605 5.274 197.797
f 192 191 190 189
f 185 186 190 189
f 186 187 191 190
f 187 188 192 191
f 188 185 189 192
v 113.883 1.192 198.061
v 122.601 1.192 184.716
v 129.617 1.192 189.299
v 120.899 1.192 202.644
v 113.883 5.092 198.061
v 122.601 5.092 184.716
v 129.617 5.092 189.299
v 120.899 5.092 202.644
f 200 199 198 197
f 193 194 198 197
f 194 195 199 198
f 195 196 200 199
f 196 193 197 200
v 104.116 1.463 204.465
v 111.428 1.463 189.229
v 120.984 1.463 193.815
v 113.672 1.463 209.051
v 104.116 5.363 204.465
v 111.428 5.363 189.229
v 120.984 5.363 193.815
v 113.672 5.363 209.051
f 208 207 206 205
f 201 202 206 205
f 202 203 207 206
f 203 204 208 207
f 204 201 205 208
v 92.663 1.177 207.493
v 100.602 1.177 192.348
v 110.177 1.177 197.367
v 102.238 1.177 212.512
v 92.663 5.077 207.493
v 100.602 5.077 192.348
v 110.177 5.077 197.367
v 102.238 5.077 212.512
f 216 215 214 213
f 209 210 214 213
f 210 211 215 214
f 211 212 216 215
f 212 209 213 216
usemtl road
v 138.315 1.246 255.730
v 135.237 1.202 224.580
v 129.763 1.272 225.120
v 132.842 1.332 256.270
f 217 218 219 220
v 135.173 1.202 225.497
v 137.023 1.209 217.857
v 131.677 1.247 216.563
v 129.827 1.271 224.203
f 221 222 223 224
v 136.506 1.217 218.917
v 142.886 1.266 210.857
v 138.574 1.274 207.443
v 132.194 1.241 215.503
f 225 226 227 228
v 142.218 1.270 211.462
v 248.928 1.196 142.782
v 245.952 1.289 138.158
v 139.242 1.284 206.838
f 229 230 231 232
v 219.686 1.144 195.062
v 213.426 1.110 195.362
v 213.594 1.119 198.858
v 219.854 1.149 198.558
f 233 234 235 236
v 212.911 1.106 195.466
v 206.291 1.100 197.876
v 207.489 1.145 201.164
v 214.109 1.123 198.754
f 237 238 239 240
v 205.803 1.106 198.148
v 196.473 1.219 205.538
v 198.647 1.278 208.282
v 207.977 1.139 200.892
f 241 242 243 244
v 196.431 1.220 205.573
v 181.361 1.231 218.293
v 183.619 1.310 220.967
v 198.689 1.277 208.247
f 245 246 247 248
v 181.652 1.234 218.094
v 180.222 1.225 218.874
v 181.898 1.304 221.946
v 183.328 1.312 221.166
f 249 250 251 252
v 180.228 1.225 218.871
v 164.158 1.140 227.561
v 165.822 1.182 230.639
v 181.892 1.303 221.949
f 253 254 255 256
v 164.039 1.140 227.631
v 154.489 1.097 233.811
v 156.391 1.148 236.749
v 165.941 1.184 230.569
f 257 258 259 260
v 154.263 1.099 233.985
v 149.763 1.169 238.075
v 152.117 1.194 240.665
v 156.617 1.147 236.575
f 261 262 263 264
v 149.275 1.170 238.831
v 147.115 1.199 245.501
v 150.445 1.256 246.579
v 152.605 1.180 239.909
f 265 266 267 268
v 147.030 1.199 246.031
v 146.980 1.238 255.601
v 150.480 1.296 255.619
v 150.530 1.252 246.049
f 269 270 271 272
v 243.346 1.380 200.628
v 220.176 1.147 195.108
v 219.364 1.146 198.512
v 242.534 1.374 204.032
f 273 274 275 276
v 232.218 1.172 256.395
v 244.645 1.370 202.725
v 241.235 1.375 201.935
v 228.808 1.160 255.605
f 277 278 279 280
usemtl asphalt
