# Baked ultra-low Key West silhouette; generated by bake_key_west_far_city.py
mtllib far_city.mtl
usemtl massing
v 245.402 1.276 -160.584
v 261.466 1.276 -143.721
v 248.338 1.276 -131.216
v 232.274 1.276 -148.079
v 245.402 5.176 -160.584
v 261.466 5.176 -143.721
v 248.338 5.176 -131.216
v 232.274 5.176 -148.079
f 8 7 6 5
f 1 2 6 5
f 2 3 7 6
f 3 4 8 7
f 4 1 5 8
v 222.712 1.193 -141.474
v 238.776 1.193 -124.611
v 225.648 1.193 -112.106
v 209.584 1.193 -128.969
v 222.712 5.093 -141.474
v 238.776 5.093 -124.611
v 225.648 5.093 -112.106
v 209.584 5.093 -128.969
f 16 15 14 13
f 9 10 14 13
f 10 11 15 14
f 11 12 16 15
f 12 9 13 16
v 203.242 1.134 -119.474
v 219.306 1.134 -102.611
v 206.178 1.134 -90.106
v 190.114 1.134 -106.969
v 203.242 5.034 -119.474
v 219.306 5.034 -102.611
v 206.178 5.034 -90.106
v 190.114 5.034 -106.969
f 24 23 22 21
f 17 18 22 21
f 18 19 23 22
f 19 20 24 23
f 20 17 21 24
v 185.562 1.117 -97.484
v 201.626 1.117 -80.621
v 188.498 1.117 -68.116
v 172.434 1.117 -84.979
v 185.562 5.017 -97.484
v 201.626 5.017 -80.621
v 188.498 5.017 -68.116
v 172.434 5.017 -84.979
f 32 31 30 29
f 25 26 30 29
f 26 27 31 30
f 27 28 32 31
f 28 25 29 32
v 163.231 1.190 -79.074
v 179.296 1.190 -62.211
v 166.169 1.190 -49.706
v 150.104 1.190 -66.569
v 163.231 5.090 -79.074
v 179.296 5.090 -62.211
v 166.169 5.090 -49.706
v 150.104 5.090 -66.569
f 40 39 38 37
f 33 34 38 37
f 34 35 39 38
f 35 36 40 39
f 36 33 37 40
v 143.401 1.126 -58.514
v 159.466 1.126 -41.651
v 146.339 1.126 -29.146
v 130.274 1.126 -46.009
v 143.401 5.026 -58.514
v 159.466 5.026 -41.651
v 146.339 5.026 -29.146
v 130.274 5.026 -46.009
f 48 47 46 45
f 41 42 46 45
f 42 43 47 46
f 43 44 48 47
f 44 41 45 48
v 246.852 1.279 -98.554
v 262.916 1.279 -81.691
v 249.788 1.279 -69.186
v 233.724 1.279 -86.049
v 246.852 5.179 -98.554
v 262.916 5.179 -81.691
v 249.788 5.179 -69.186
v 233.724 5.179 -86.049
f 56 55 54 53
f 49 50 54 53
f 50 51 55 54
f 51 52 56 55
f 52 49 53 56
v 227.002 1.102 -74.794
v 243.066 1.102 -57.931
v 229.938 1.102 -45.426
v 213.874 1.102 -62.289
v 227.002 5.002 -74.794
v 243.066 5.002 -57.931
v 229.938 5.002 -45.426
v 213.874 5.002 -62.289
f 64 63 62 61
f 57 58 62 61
f 58 59 63 62
f 59 60 64 63
f 60 57 61 64
v 247.652 1.194 -50.084
v 263.716 1.194 -33.221
v 250.588 1.194 -20.716
v 234.524 1.194 -37.579
v 247.652 5.094 -50.084
v 263.716 5.094 -33.221
v 250.588 5.094 -20.716
v 234.524 5.094 -37.579
f 72 71 70 69
f 65 66 70 69
f 66 67 71 70
f 67 68 72 71
f 68 65 69 72
v 207.171 1.129 -55.304
v 223.236 1.129 -38.441
v 210.109 1.129 -25.936
v 194.044 1.129 -42.799
v 207.171 5.029 -55.304
v 223.236 5.029 -38.441
v 210.109 5.029 -25.936
v 194.044 5.029 -42.799
f 80 79 78 77
f 73 74 78 77
f 74 75 79 78
f 75 76 80 79
f 76 73 77 80
v 184.121 1.103 -35.114
v 200.186 1.103 -18.251
v 187.059 1.103 -5.746
v 170.994 1.103 -22.609
v 184.121 5.003 -35.114
v 200.186 5.003 -18.251
v 187.059 5.003 -5.746
v 170.994 5.003 -22.609
f 88 87 86 85
f 81 82 86 85
f 82 83 87 86
f 83 84 88 87
f 84 81 85 88
v 229.241 1.213 -28.094
v 245.306 1.213 -11.231
v 232.179 1.213 1.274
v 216.114 1.213 -15.589
v 229.241 5.113 -28.094
v 245.306 5.113 -11.231
v 232.179 5.113 1.274
v 216.114 5.113 -15.589
f 96 95 94 93
f 89 90 94 93
f 90 91 95 94
f 91 92 96 95
f 92 89 93 96
v 207.292 1.166 -8.968
v 223.337 1.166 7.900
v 210.208 1.166 20.388
v 194.163 1.166 3.520
v 207.292 5.066 -8.968
v 223.337 5.066 7.900
v 210.208 5.066 20.388
v 194.163 5.066 3.520
f 104 103 102 101
f 97 98 102 101
f 98 99 103 102
f 99 100 104 103
f 100 97 101 104
v 123.561 1.117 -35.464
v 139.626 1.117 -18.601
v 126.499 1.117 -6.096
v 110.434 1.117 -22.959
v 123.561 5.017 -35.464
v 139.626 5.017 -18.601
v 126.499 5.017 -6.096
v 110.434 5.017 -22.959
f 112 111 110 109
f 105 106 110 109
f 106 107 111 110
f 107 108 112 111
f 108 105 109 112
v 163.922 1.068 -9.208
v 179.967 1.068 7.660
v 166.838 1.068 20.148
v 150.793 1.068 3.280
v 163.922 4.968 -9.208
v 179.967 4.968 7.660
v 166.838 4.968 20.148
v 150.793 4.968 3.280
f 120 119 118 117
f 113 114 118 117
f 114 115 119 118
f 115 116 120 119
f 116 113 117 120
v 188.871 1.221 13.376
v 204.936 1.221 30.239
v 191.809 1.221 42.744
v 175.744 1.221 25.881
v 188.871 5.121 13.376
v 204.936 5.121 30.239
v 191.809 5.121 42.744
v 175.744 5.121 25.881
f 128 127 126 125
f 121 122 126 125
f 122 123 127 126
f 123 124 128 127
f 124 121 125 128
v 144.441 1.134 11.346
v 160.506 1.134 28.209
v 147.379 1.134 40.714
v 131.314 1.134 23.851
v 144.441 5.034 11.346
v 160.506 5.034 28.209
v 147.379 5.034 40.714
v 131.314 5.034 23.851
f 136 135 134 133
f 129 130 134 133
f 130 131 135 134
f 131 132 136 135
f 132 129 133 136
v 169.760 1.203 35.008
v 185.810 1.203 51.885
v 172.680 1.203 64.372
v 156.630 1.203 47.495
v 169.760 5.103 35.008
v 185.810 5.103 51.885
v 172.680 5.103 64.372
v 156.630 5.103 47.495
f 144 143 142 141
f 137 138 142 141
f 138 139 143 142
f 139 140 144 143
f 140 137 141 144
v 148.481 1.233 58.066
v 164.546 1.233 74.929
v 151.419 1.233 87.434
v 135.354 1.233 70.571
v 148.481 5.133 58.066
v 164.546 5.133 74.929
v 151.419 5.133 87.434
v 135.354 5.133 70.571
f 152 151 150 149
f 145 146 150 149
f 146 147 151 150
f 147 148 152 151
f 148 145 149 152
v 120.671 1.240 30.806
v 136.736 1.240 47.669
v 123.609 1.240 60.174
v 107.544 1.240 43.311
v 120.671 5.140 30.806
v 136.736 5.140 47.669
v 123.609 5.140 60.174
v 107.544 5.140 43.311
f 160 159 158 157
f 153 154 158 157
f 154 155 159 158
f 155 156 160 159
f 156 153 157 160
v 99.431 1.212 -13.854
v 115.496 1.212 3.009
v 102.369 1.212 15.514
v 86.304 1.212 -1.349
v 99.431 5.112 -13.854
v 115.496 5.112 3.009
v 102.369 5.112 15.514
v 86.304 5.112 -1.349
f 168 167 166 165
f 161 162 166 165
f 162 163 167 166
f 163 164 168 167
f 164 161 165 168
v 79.961 1.158 7.416
v 96.026 1.158 24.279
v 82.899 1.158 36.784
v 66.834 1.158 19.921
v 79.961 5.058 7.416
v 96.026 5.058 24.279
v 82.899 5.058 36.784
v 66.834 5.058 19.921
f 176 175 174 173
f 169 170 174 173
f 170 171 175 174
f 171 172 176 175
f 172 169 173 176
v 59.381 1.175 32.616
v 75.446 1.175 49.479
v 62.319 1.175 61.984
v 46.254 1.175 45.121
v 59.381 5.075 32.616
v 75.446 5.075 49.479
v 62.319 5.075 61.984
v 46.254 5.075 45.121
f 184 183 182 181
f 177 178 182 181
f 178 179 183 182
f 179 180 184 183
f 180 177 181 184
v 236.811 1.194 27.906
v 252.876 1.194 44.769
v 239.749 1.194 57.274
v 223.684 1.194 40.411
v 236.811 5.094 27.906
v 252.876 5.094 44.769
v 239.749 5.094 57.274
v 223.684 5.094 40.411
f 192 191 190 189
f 185 186 190 189
f 186 187 191 190
f 187 188 192 191
f 188 185 189 192
v 219.502 1.181 50.622
v 235.547 1.181 67.490
v 222.418 1.181 79.978
v 206.373 1.181 63.110
v 219.502 5.081 50.622
v 235.547 5.081 67.490
v 222.418 5.081 79.978
v 206.373 5.081 63.110
f 200 199 198 197
f 193 194 198 197
f 194 195 199 198
f 195 196 200 199
f 196 193 197 200
v 200.001 1.225 72.606
v 216.066 1.225 89.469
v 202.939 1.225 101.974
v 186.874 1.225 85.111
v 200.001 5.125 72.606
v 216.066 5.125 89.469
v 202.939 5.125 101.974
v 186.874 5.125 85.111
f 208 207 206 205
f 201 202 206 205
f 202 203 207 206
f 203 204 208 207
f 204 201 205 208
v 83.491 1.587 -200.229
v 112.637 1.587 -199.727
v 112.209 1.587 -174.891
v 83.063 1.587 -175.393
v 83.491 7.387 -200.229
v 112.637 7.387 -199.727
v 112.209 7.387 -174.891
v 83.063 7.387 -175.393
f 216 215 214 213
f 209 210 214 213
f 210 211 215 214
f 211 212 216 215
f 212 209 213 216
v 132.925 1.112 -107.377
v 136.363 1.112 -94.199
v 130.015 1.112 -92.543
v 126.577 1.112 -105.721
v 132.925 5.012 -107.377
v 136.363 5.012 -94.199
v 130.015 5.012 -92.543
v 126.577 5.012 -105.721
f 224 223 222 221
f 217 218 222 221
f 218 219 223 222
f 219 220 224 223
f 220 217 221 224
v 165.765 1.416 -172.891
v 174.755 1.416 -188.127
v 182.515 1.416 -183.549
v 173.525 1.416 -168.313
v 165.765 5.316 -172.891
v 174.755 5.316 -188.127
v 182.515 5.316 -183.549
v 173.525 5.316 -168.313
f 232 231 230 229
f 225 226 230 229
f 226 227 231 230
f 227 228 232 231
f 228 225 229 232
v 179.124 1.550 -211.965
v 201.402 1.550 -201.674
v 194.076 1.550 -185.815
v 171.798 1.550 -196.106
v 179.124 5.450 -211.965
v 201.402 5.450 -201.674
v 194.076 5.450 -185.815
v 171.798 5.450 -196.106
f 240 239 238 237
f 233 234 238 237
f 234 235 239 238
f 235 236 240 239
f 236 233 237 240
v 191.138 1.482 -189.668
v 204.168 1.482 -181.899
v 198.022 1.482 -171.592
v 184.992 1.482 -179.361
v 191.138 5.382 -189.668
v 204.168 5.382 -181.899
v 198.022 5.382 -171.592
v 184.992 5.382 -179.361
f 248 247 246 245
f 241 242 246 245
f 242 243 247 246
f 243 244 248 247
f 244 241 245 248
v 72.423 1.172 85.691
v 87.343 1.172 69.428
v 101.057 1.172 82.009
v 86.137 1.172 98.272
v 72.423 5.072 85.691
v 87.343 5.072 69.428
v 101.057 5.072 82.009
v 86.137 5.072 98.272
f 256 255 254 253
f 249 250 254 253
f 250 251 255 254
f 251 252 256 255
f 252 249 253 256
v 183.674 1.130 133.583
v 198.624 1.130 117.321
v 212.346 1.130 129.937
v 197.396 1.130 146.199
v 183.674 5.030 133.583
v 198.624 5.030 117.321
v 212.346 5.030 129.937
v 197.396 5.030 146.199
f 264 263 262 261
f 257 258 262 261
f 258 259 263 262
f 259 260 264 263
f 260 257 261 264
v 162.544 1.114 113.861
v 177.500 1.114 97.591
v 191.216 1.114 110.199
v 176.260 1.114 126.469
v 162.544 5.014 113.861
v 177.500 5.014 97.591
v 191.216 5.014 110.199
v 176.260 5.014 126.469
f 272 271 270 269
f 265 266 270 269
f 266 267 271 270
f 267 268 272 271
f 268 265 269 272
v 202.984 1.063 154.213
v 217.935 1.063 137.951
v 231.656 1.063 150.567
v 216.705 1.063 166.829
v 202.984 4.963 154.213
v 217.935 4.963 137.951
v 231.656 4.963 150.567
v 216.705 4.963 166.829
f 280 279 278 277
f 273 274 278 277
f 274 275 279 278
f 275 276 280 279
f 276 273 277 280
v 115.404 1.175 132.293
v 130.354 1.175 116.031
v 144.076 1.175 128.647
v 129.126 1.175 144.909
v 115.404 5.075 132.293
v 130.354 5.075 116.031
v 144.076 5.075 128.647
v 129.126 5.075 144.909
f 288 287 286 285
f 281 282 286 285
f 282 283 287 286
f 283 284 288 287
f 284 281 285 288
v 93.120 1.127 105.329
v 108.038 1.127 89.065
v 121.760 1.127 101.651
v 106.842 1.127 117.915
v 93.120 5.027 105.329
v 108.038 5.027 89.065
v 121.760 5.027 101.651
v 106.842 5.027 117.915
f 296 295 294 293
f 289 290 294 293
f 290 291 295 294
f 291 292 296 295
f 292 289 293 296
v 135.627 1.109 154.153
v 150.551 1.109 137.881
v 164.273 1.109 150.467
v 149.349 1.109 166.739
v 135.627 5.009 154.153
v 150.551 5.009 137.881
v 164.273 5.009 150.467
v 149.349 5.009 166.739
f 304 303 302 301
f 297 298 302 301
f 298 299 303 302
f 299 300 304 303
f 300 297 301 304
v 157.367 1.119 174.493
v 172.291 1.119 158.221
v 186.013 1.119 170.807
v 171.089 1.119 187.079
v 157.367 5.019 174.493
v 172.291 5.019 158.221
v 186.013 5.019 170.807
v 171.089 5.019 187.079
f 312 311 310 309
f 305 306 310 309
f 306 307 311 310
f 307 308 312 311
f 308 305 309 312
v 176.943 1.179 201.762
v 191.863 1.179 185.498
v 205.577 1.179 198.078
v 190.657 1.179 214.342
v 176.943 5.079 201.762
v 191.863 5.079 185.498
v 205.577 5.079 198.078
v 190.657 5.079 214.342
f 320 319 318 317
f 313 314 318 317
f 314 315 319 318
f 315 316 320 319
f 316 313 317 320
v 196.240 1.059 223.305
v 211.166 1.059 207.034
v 224.880 1.059 219.615
v 209.954 1.059 235.886
v 196.240 4.959 223.305
v 211.166 4.959 207.034
v 224.880 4.959 219.615
v 209.954 4.959 235.886
f 328 327 326 325
f 321 322 326 325
f 322 323 327 326
f 323 324 328 327
f 324 321 325 328
v 220.457 1.117 179.683
v 235.381 1.117 163.411
v 249.103 1.117 175.997
v 234.179 1.117 192.269
v 220.457 5.017 179.683
v 235.381 5.017 163.411
v 249.103 5.017 175.997
v 234.179 5.017 192.269
f 336 335 334 333
f 329 330 334 333
f 330 331 335 334
f 331 332 336 335
f 332 329 333 336
v 240.364 1.128 199.093
v 255.315 1.128 182.831
v 269.036 1.128 195.447
v 254.085 1.128 211.709
v 240.364 5.028 199.093
v 255.315 5.028 182.831
v 269.036 5.028 195.447
v 254.085 5.028 211.709
f 344 343 342 341
f 337 338 342 341
f 338 339 343 342
f 339 340 344 343
f 340 337 341 344
v 218.287 1.182 241.533
v 233.211 1.182 225.261
v 246.933 1.182 237.847
v 232.009 1.182 254.119
v 218.287 5.082 241.533
v 233.211 5.082 225.261
v 246.933 5.082 237.847
v 232.009 5.082 254.119
f 352 351 350 349
f 345 346 350 349
f 346 347 351 350
f 347 348 352 351
f 348 345 349 352
v 75.057 0.720 162.964
v 110.168 0.720 171.899
v 107.023 0.720 184.256
v 71.912 0.720 175.321
v 75.057 6.520 162.964
v 110.168 6.520 171.899
v 107.023 6.520 184.256
v 71.912 6.520 175.321
f 360 359 358 357
f 353 354 358 357
f 354 355 359 358
f 355 356 360 359
f 356 353 357 360
v 109.727 0.797 237.289
v 122.586 0.797 177.752
v 133.973 0.797 180.211
v 121.114 0.797 239.748
v 109.727 6.597 237.289
v 122.586 6.597 177.752
v 133.973 6.597 180.211
v 121.114 6.597 239.748
f 368 367 366 365
f 361 362 366 365
f 362 363 367 366
f 363 364 368 367
f 364 361 365 368
v 65.508 0.783 248.213
v 79.639 0.783 189.540
v 90.712 0.783 192.207
v 76.581 0.783 250.880
v 65.508 6.583 248.213
v 79.639 6.583 189.540
v 90.712 6.583 192.207
v 76.581 6.583 250.880
f 376 375 374 373
f 369 370 374 373
f 370 371 375 374
f 371 372 376 375
f 372 369 373 376
v -42.495 0.877 205.454
v -13.104 0.877 226.191
v -18.985 0.877 234.526
v -48.376 0.877 213.789
v -42.495 4.777 205.454
v -13.104 4.777 226.191
v -18.985 4.777 234.526
v -48.376 4.777 213.789
f 384 383 382 381
f 377 378 382 381
f 378 379 383 382
f 379 380 384 383
f 380 377 381 384
v -75.865 0.684 221.571
v -67.396 0.684 160.172
v -56.975 0.684 161.609
v -65.444 0.684 223.008
v -75.865 6.484 221.571
v -67.396 6.484 160.172
v -56.975 6.484 161.609
v -65.444 6.484 223.008
f 392 391 390 389
f 385 386 390 389
f 386 387 391 390
f 387 388 392 391
f 388 385 389 392
v -31.840 0.856 193.470
v -26.552 0.856 149.214
v -15.540 0.856 150.530
v -20.828 0.856 194.786
v -31.840 6.656 193.470
v -26.552 6.656 149.214
v -15.540 6.656 150.530
v -20.828 6.656 194.786
f 400 399 398 397
f 393 394 398 397
f 394 395 399 398
f 395 396 400 399
f 396 393 397 400
v 35.752 0.888 138.607
v 66.952 0.888 158.829
v 60.948 0.888 168.093
v 29.748 0.888 147.871
v 35.752 4.788 138.607
v 66.952 4.788 158.829
v 60.948 4.788 168.093
v 29.748 4.788 147.871
f 408 407 406 405
f 401 402 406 405
f 402 403 407 406
f 403 404 408 407
f 404 401 405 408
v 37.981 1.140 -71.412
v 58.074 1.140 -43.564
v 47.159 1.140 -35.688
v 27.066 1.140 -63.536
v 37.981 6.940 -71.412
v 58.074 6.940 -43.564
v 47.159 6.940 -35.688
v 27.066 6.940 -63.536
f 416 415 414 413
f 409 410 414 413
f 410 411 415 414
f 411 412 416 415
f 412 409 413 416
v 2.231 1.089 -37.337
v 29.726 1.089 -2.119
v 20.149 1.089 5.357
v -7.346 1.089 -29.861
v 2.231 6.889 -37.337
v 29.726 6.889 -2.119
v 20.149 6.889 5.357
v -7.346 6.889 -29.861
f 424 423 422 421
f 417 418 422 421
f 418 419 423 422
f 419 420 424 423
f 420 417 421 424
v -75.085 0.920 17.783
v -39.235 0.920 -5.816
v -32.235 0.920 4.817
v -68.085 0.920 28.416
v -75.085 6.720 17.783
v -39.235 6.720 -5.816
v -32.235 6.720 4.817
v -68.085 6.720 28.416
f 432 431 430 429
f 425 426 430 429
f 426 427 431 430
f 427 428 432 431
f 428 425 429 432
v -28.725 1.081 -64.379
v -7.893 1.081 -36.341
v -18.095 1.081 -28.761
v -38.927 1.081 -56.799
v -28.725 4.981 -64.379
v -7.893 4.981 -36.341
v -18.095 4.981 -28.761
v -38.927 4.981 -56.799
f 440 439 438 437
f 433 434 438 437
f 434 435 439 438
f 435 436 440 439
f 436 433 437 440
v -106.754 0.936 -6.982
v -82.242 0.936 -34.537
v -74.486 0.936 -27.638
v -98.998 0.936 -0.083
v -106.754 4.836 -6.982
v -82.242 4.836 -34.537
v -74.486 4.836 -27.638
v -98.998 4.836 -0.083
f 448 447 446 445
f 441 442 446 445
f 442 443 447 446
f 443 444 448 447
f 444 441 445 448
v -117.824 0.786 -38.229
v -114.781 0.786 -66.969
v -104.976 0.786 -65.931
v -108.019 0.786 -37.191
v -117.824 4.686 -38.229
v -114.781 4.686 -66.969
v -104.976 4.686 -65.931
v -108.019 4.686 -37.191
f 456 455 454 453
f 449 450 454 453
f 450 451 455 454
f 451 452 456 455
f 452 449 453 456
v -144.130 0.778 -83.899
v -120.071 0.778 -80.779
v -121.490 0.778 -69.841
v -145.549 0.778 -72.961
v -144.130 4.678 -83.899
v -120.071 4.678 -80.779
v -121.490 4.678 -69.841
v -145.549 4.678 -72.961
f 464 463 462 461
f 457 458 462 461
f 458 459 463 462
f 459 460 464 463
f 460 457 461 464
v -160.565 0.688 -74.534
v -151.185 0.688 -46.913
v -161.335 0.688 -43.466
v -170.715 0.688 -71.087
v -160.565 4.588 -74.534
v -151.185 4.588 -46.913
v -161.335 4.588 -43.466
v -170.715 4.588 -71.087
f 472 471 470 469
f 465 466 470 469
f 466 467 471 470
f 467 468 472 471
f 468 465 469 472
v -169.448 0.705 9.911
v -126.041 0.705 -35.804
v -118.572 0.705 -28.711
v -161.979 0.705 17.004
v -169.448 6.505 9.911
v -126.041 6.505 -35.804
v -118.572 6.505 -28.711
v -161.979 6.505 17.004
f 480 479 478 477
f 473 474 478 477
f 474 475 479 478
f 475 476 480 479
f 476 473 477 480
v -123.543 0.771 48.756
v -72.321 0.771 15.741
v -66.557 0.771 24.684
v -117.779 0.771 57.699
v -123.543 6.571 48.756
v -72.321 6.571 15.741
v -66.557 6.571 24.684
v -117.779 6.571 57.699
f 488 487 486 485
f 481 482 486 485
f 482 483 487 486
f 483 484 488 487
f 484 481 485 488
v -125.379 0.801 70.017
v -94.434 0.801 49.119
v -87.881 0.801 58.823
v -118.826 0.801 79.721
v -125.379 4.701 70.017
v -94.434 4.701 49.119
v -87.881 4.701 58.823
v -118.826 4.701 79.721
f 496 495 494 493
f 489 490 494 493
f 490 491 495 494
f 491 492 496 495
f 492 489 493 496
v -175.185 1.093 23.150
v -134.205 1.093 82.896
v -143.235 1.093 89.090
v -184.215 1.093 29.344
v -175.185 6.893 23.150
v -134.205 6.893 82.896
v -143.235 6.893 89.090
v -184.215 6.893 29.344
f 504 503 502 501
f 497 498 502 501
f 498 499 503 502
f 499 500 504 503
f 500 497 501 504
v -158.534 0.893 103.090
v -126.172 0.893 82.869
v -121.186 0.893 90.850
v -153.548 0.893 111.071
v -158.534 4.793 103.090
v -126.172 4.793 82.869
v -121.186 4.793 90.850
v -153.548 4.793 111.071
f 512 511 510 509
f 505 506 510 509
f 506 507 511 510
f 507 508 512 511
f 508 505 509 512
v -106.458 0.697 152.884
v -82.877 0.697 125.064
v -74.982 0.697 131.756
v -98.563 0.697 159.576
v -106.458 4.597 152.884
v -82.877 4.597 125.064
v -74.982 4.597 131.756
v -98.563 4.597 159.576
f 520 519 518 517
f 513 514 518 517
f 514 515 519 518
f 515 516 520 519
f 516 513 517 520
v -73.553 0.839 139.474
v -32.448 0.839 95.711
v -24.787 0.839 102.906
v -65.892 0.839 146.669
v -73.553 6.639 139.474
v -32.448 6.639 95.711
v -24.787 6.639 102.906
v -65.892 6.639 146.669
f 528 527 526 525
f 521 522 526 525
f 522 523 527 526
f 523 524 528 527
f 524 521 525 528
v -53.185 0.951 119.670
v -11.754 0.951 72.702
v -3.175 0.951 80.270
v -44.606 0.951 127.238
v -53.185 6.751 119.670
v -11.754 6.751 72.702
v -3.175 6.751 80.270
v -44.606 6.751 127.238
f 536 535 534 533
f 529 530 534 533
f 530 531 535 534
f 531 532 536 535
f 532 529 533 536
v -18.945 1.076 76.845
v 9.685 1.076 43.395
v 19.265 1.076 51.595
v -9.365 1.076 85.045
v -18.945 6.876 76.845
v 9.685 6.876 43.395
v 19.265 6.876 51.595
v -9.365 6.876 85.045
f 544 543 542 541
f 537 538 542 541
f 538 539 543 542
f 539 540 544 543
f 540 537 541 544
v 14.355 1.021 126.670
v 54.434 1.021 81.550
v 62.045 1.021 88.310
v 21.966 1.021 133.430
v 14.355 6.821 126.670
v 54.434 6.821 81.550
v 62.045 6.821 88.310
v 21.966 6.821 133.430
f 552 551 550 549
f 545 546 550 549
f 546 547 551 550
f 547 548 552 551
f 548 545 549 552
v -24.431 2.047 -209.241
v 37.885 2.047 -267.239
v 63.331 2.047 -239.899
v 1.015 2.047 -181.901
v -24.431 10.347 -209.241
v 37.885 10.347 -267.239
v 63.331 10.347 -239.899
v 1.015 10.347 -181.901
f 560 559 558 557
f 553 554 558 557
f 554 555 559 558
f 555 556 560 559
f 556 553 557 560
v -71.699 0.931 -230.679
v -46.099 0.931 -237.525
v -43.161 0.931 -226.541
v -68.761 0.931 -219.695
v -71.699 4.831 -230.679
v -46.099 4.831 -237.525
v -43.161 4.831 -226.541
v -68.761 4.831 -219.695
f 568 567 566 565
f 561 562 566 565
f 562 563 567 566
f 563 564 568 567
f 564 561 565 568
v -41.038 0.857 -183.875
v -29.648 0.857 -217.361
v -18.722 0.857 -213.645
v -30.112 0.857 -180.159
v -41.038 4.757 -183.875
v -29.648 4.757 -217.361
v -18.722 4.757 -213.645
v -30.112 4.757 -180.159
f 576 575 574 573
f 569 570 574 573
f 570 571 575 574
f 571 572 576 575
f 572 569 573 576
v -88.865 0.805 -189.318
v -81.194 0.805 -217.399
v -67.515 0.805 -213.662
v -75.186 0.805 -185.581
v -88.865 4.705 -189.318
v -81.194 4.705 -217.399
v -67.515 4.705 -213.662
v -75.186 4.705 -185.581
f 584 583 582 581
f 577 578 582 581
f 578 579 583 582
f 579 580 584 583
f 580 577 581 584
v -72.656 0.785 -179.633
v -67.000 0.785 -156.442
v -76.084 0.785 -154.227
v -81.740 0.785 -177.418
v -72.656 4.685 -179.633
v -67.000 4.685 -156.442
v -76.084 4.685 -154.227
v -81.740 4.685 -177.418
f 592 591 590 589
f 585 586 590 589
f 586 587 591 590
f 587 588 592 591
f 588 585 589 592
v -82.585 0.849 -146.799
v -72.791 0.849 -103.421
v -84.575 0.849 -100.761
v -94.369 0.849 -144.139
v -82.585 6.649 -146.799
v -72.791 6.649 -103.421
v -84.575 6.649 -100.761
v -94.369 6.649 -144.139
f 600 599 598 597
f 593 594 598 597
f 594 595 599 598
f 595 596 600 599
f 596 593 597 600
v -35.170 0.891 -171.934
v -19.178 0.891 -107.056
v -31.470 0.891 -104.026
v -47.462 0.891 -168.904
v -35.170 6.691 -171.934
v -19.178 6.691 -107.056
v -31.470 6.691 -104.026
v -47.462 6.691 -168.904
f 608 607 606 605
f 601 602 606 605
f 602 603 607 606
f 603 604 608 607
f 604 601 605 608
v -47.117 0.842 -99.828
v -36.586 0.842 -61.986
v -48.783 0.842 -58.592
v -59.314 0.842 -96.434
v -47.117 6.642 -99.828
v -36.586 6.642 -61.986
v -48.783 6.642 -58.592
v -59.314 6.642 -96.434
f 616 615 614 613
f 609 610 614 613
f 610 611 615 614
f 611 612 616 615
f 612 609 613 616
v -11.045 1.133 -130.153
v 7.613 1.133 -116.687
v 1.825 1.133 -108.667
v -16.833 1.133 -122.133
v -11.045 5.033 -130.153
v 7.613 5.033 -116.687
v 1.825 5.033 -108.667
v -16.833 5.033 -122.133
f 624 623 622 621
f 617 618 622 621
f 618 619 623 622
f 619 620 624 623
f 620 617 621 624
v -18.939 1.077 -72.775
v -1.904 1.077 -98.183
v 7.639 1.077 -91.785
v -9.396 1.077 -66.377
v -18.939 4.977 -72.775
v -1.904 4.977 -98.183
v 7.639 4.977 -91.785
v -9.396 4.977 -66.377
f 632 631 630 629
f 625 626 630 629
f 626 627 631 630
f 627 628 632 631
f 628 625 629 632
v 17.447 1.148 -84.204
v 42.726 1.148 -121.649
v 52.373 1.148 -115.136
v 27.094 1.148 -77.691
v 17.447 6.948 -84.204
v 42.726 6.948 -121.649
v 52.373 6.948 -115.136
v 27.094 6.948 -77.691
f 640 639 638 637
f 633 634 638 637
f 634 635 639 638
f 635 636 640 639
f 636 633 637 640
usemtl road
v 151.421 0.884 241.293
v 154.701 0.902 245.453
v 159.019 0.945 242.047
v 155.739 0.873 237.887
f 641 642 643 644
v 154.700 0.902 245.452
v 164.353 0.955 257.702
v 168.673 1.009 254.298
v 159.020 0.945 242.048
f 645 646 647 648
v 146.755 1.282 110.894
v 151.185 1.243 106.324
v 147.235 1.278 102.496
v 142.805 1.293 107.066
f 649 650 651 652
v 151.184 1.243 106.325
v 213.964 1.162 41.595
v 210.016 1.229 37.765
v 147.236 1.278 102.495
f 653 654 655 656
v 213.980 1.162 41.578
v 257.990 1.216 -4.559
v 254.010 1.265 -8.355
v 210.000 1.229 37.782
f 657 658 659 660
v 36.044 1.034 137.165
v -34.406 1.160 55.385
v -38.574 1.122 58.975
v 31.876 1.115 140.755
f 661 662 663 664
v -34.431 1.159 55.357
v -38.301 1.071 50.987
v -42.419 1.041 54.633
v -38.549 1.122 59.003
f 665 666 667 668
v 96.981 0.859 198.627
v 105.431 0.956 241.887
v 110.829 1.033 240.833
v 102.379 1.003 197.573
f 669 670 671 672
v 105.919 0.956 242.995
v 116.741 0.939 257.635
v 121.164 0.955 254.365
v 110.341 1.028 239.725
f 673 674 675 676
v 135.735 0.945 258.109
v 155.345 0.902 241.699
v 151.815 0.835 237.481
v 132.206 0.891 253.891
f 677 678 679 680
v 155.527 0.905 241.532
v 172.947 0.582 224.072
v 169.053 0.600 220.188
v 151.633 0.837 237.648
f 681 682 683 684
v 172.993 0.581 224.025
v 178.573 0.631 218.155
v 174.587 0.666 214.365
v 169.007 0.600 220.235
f 685 686 687 688
v -97.670 0.819 104.498
v -89.770 0.966 112.698
v -85.810 0.977 108.882
v -93.710 0.824 100.682
f 689 690 691 692
v -89.770 0.966 112.698
v -71.650 1.006 131.498
v -67.690 0.996 127.682
v -85.810 0.977 108.882
f 693 694 695 696
v -71.804 1.007 131.325
v -52.084 0.939 155.585
v -47.816 0.982 152.115
v -67.536 0.994 127.855
f 697 698 699 700
v -52.667 0.933 154.277
v -44.747 0.904 204.637
v -39.313 0.965 203.783
v -47.233 0.979 153.423
f 701 702 703 704
v 57.658 1.041 85.731
v 61.298 1.022 82.001
v 57.362 1.013 78.159
v 53.722 1.009 81.889
f 705 706 707 708
v 61.300 1.022 81.999
v 91.650 1.404 50.839
v 87.710 1.399 47.001
v 57.360 1.013 78.161
f 709 710 711 712
v 91.667 1.404 50.821
v 148.957 1.198 -9.069
v 144.983 1.257 -12.871
v 87.693 1.399 47.019
f 713 714 715 716
v 148.943 1.198 -9.054
v 194.363 1.179 -55.814
v 190.417 1.222 -59.646
v 144.997 1.257 -12.886
f 717 718 719 720
v 194.371 1.179 -55.823
v 256.161 1.301 -120.013
v 252.199 1.329 -123.827
v 190.409 1.222 -59.637
f 721 722 723 724
v -93.851 0.823 104.634
v -38.521 1.105 54.854
v -42.199 1.006 50.766
v -97.529 0.820 100.546
f 725 726 727 728
v -38.590 1.105 54.915
v -1.080 1.170 23.375
v -4.620 1.193 19.165
v -42.130 1.008 50.705
f 729 730 731 732
v -142.860 0.802 70.070
v -103.900 0.920 99.300
v -100.600 0.909 94.900
v -139.560 0.837 65.670
f 733 734 735 736
v -103.964 0.922 99.251
v -100.614 0.842 101.921
v -97.186 0.844 97.619
v -100.536 0.908 94.949
f 737 738 739 740
v -100.715 0.844 101.836
v -97.505 0.821 104.656
v -93.875 0.822 100.524
v -97.085 0.842 97.704
f 741 742 743 744
v -56.905 0.817 -208.037
v -49.355 0.918 -181.517
v -44.065 1.000 -183.023
v -51.615 0.938 -209.543
f 745 746 747 748
v -49.377 0.918 -182.941
v -68.617 0.963 -106.421
v -63.283 0.983 -105.079
v -44.043 1.010 -181.599
f 749 750 751 752
v -68.608 0.964 -106.454
v -77.908 0.992 -71.344
v -72.592 1.051 -69.936
v -63.292 0.983 -105.046
f 753 754 755 756
v -77.912 0.992 -71.331
v -78.872 0.973 -67.631
v -73.548 1.033 -66.249
v -72.588 1.051 -69.949
f 757 758 759 760
v 5.070 1.245 -102.043
v 25.120 1.312 -71.433
v 29.720 1.323 -74.447
v 9.670 1.234 -105.057
f 761 762 763 764
v 25.275 1.292 -74.661
v -23.995 1.189 -13.261
v -19.705 1.214 -9.819
v 29.565 1.360 -71.219
f 765 766 767 768
v -23.992 1.190 -13.264
v -27.372 1.165 -9.064
v -23.088 1.175 -5.616
v -19.708 1.214 -9.816
f 769 770 771 772
v -137.541 0.894 -57.227
v -134.601 0.975 -32.357
v -129.139 0.979 -33.003
v -132.079 0.869 -57.873
f 773 774 775 776
v -133.934 0.977 -30.863
v -94.954 0.971 13.427
v -90.826 1.093 9.793
v -129.806 0.969 -34.497
f 777 778 779 780
v -94.520 0.976 13.825
v -52.400 1.100 44.835
v -49.140 1.072 40.405
v -91.260 1.084 9.395
f 781 782 783 784
v -52.695 1.107 44.584
v -48.675 1.067 48.524
v -44.825 1.056 44.596
v -48.845 1.067 40.656
f 785 786 787 788
v -48.673 1.067 48.526
v -42.283 1.046 54.776
v -38.437 1.068 50.844
v -44.827 1.056 44.594
f 789 790 791 792
v 65.759 1.339 -253.346
v 109.081 1.259 -241.606
v 110.519 1.312 -246.914
v 67.197 1.377 -258.654
f 793 794 795 796
v 109.057 1.259 -241.612
v 136.047 1.153 -234.042
v 137.533 1.200 -239.338
v 110.543 1.312 -246.908
f 797 798 799 800
v 136.030 1.153 -234.047
v 146.360 1.208 -231.077
v 147.880 1.223 -236.363
v 137.550 1.200 -239.333
f 801 802 803 804
v 146.189 1.223 -241.035
v 144.459 1.215 -234.415
v 149.781 1.188 -233.025
v 151.511 1.185 -239.645
f 805 806 807 808
v 144.462 1.216 -234.424
v 142.542 1.210 -227.174
v 147.858 1.146 -225.766
v 149.778 1.188 -233.016
f 809 810 811 812
v 142.543 1.210 -227.178
v 130.673 1.194 -182.598
v 135.987 1.180 -181.182
v 147.857 1.146 -225.762
f 813 814 815 816
v 130.677 1.194 -182.615
v 122.147 1.222 -151.405
v 127.453 1.212 -149.955
v 135.983 1.180 -181.165
f 817 818 819 820
v 122.134 1.222 -151.356
v 119.344 1.272 -140.346
v 124.676 1.246 -138.994
v 127.466 1.213 -150.004
f 821 822 823 824
v 119.345 1.272 -140.347
v 118.185 1.289 -135.777
v 123.515 1.247 -134.423
v 124.675 1.247 -138.993
f 825 826 827 828
v 118.195 1.289 -135.816
v 116.065 1.303 -127.916
v 121.375 1.259 -126.484
v 123.505 1.247 -134.384
f 829 830 831 832
v 116.064 1.303 -127.914
v 107.784 1.304 -97.124
v 113.096 1.292 -95.696
v 121.376 1.259 -126.486
f 833 834 835 836
v 107.833 1.304 -97.284
v 97.163 1.369 -65.444
v 102.377 1.381 -63.696
v 113.047 1.292 -95.536
f 837 838 839 840
v 97.609 1.367 -66.271
v 80.529 1.333 -44.571
v 84.851 1.335 -41.169
v 101.931 1.385 -62.869
f 841 842 843 844
v 80.528 1.333 -44.569
v 73.298 1.320 -35.369
v 77.622 1.240 -31.971
v 84.852 1.335 -41.171
f 845 846 847 848
v 73.445 1.320 -35.541
v 14.015 1.213 28.469
v 18.045 1.361 32.211
v 77.475 1.240 -31.799
f 849 850 851 852
v 14.021 1.213 28.462
v 10.291 1.211 32.452
v 14.309 1.248 36.208
v 18.039 1.361 32.218
f 853 854 855 856
v 10.232 1.222 36.143
v 53.622 1.005 85.623
v 57.758 0.990 81.997
v 14.368 1.247 32.517
f 857 858 859 860
v 53.651 1.005 85.655
v 57.751 1.029 90.185
v 61.829 0.999 86.495
v 57.729 0.990 81.965
f 861 862 863 864
v 57.759 1.029 90.194
v 174.549 0.659 218.114
v 178.611 0.606 214.406
v 61.821 0.999 86.486
f 865 866 867 868
v 174.533 0.659 218.097
v 210.196 0.645 257.837
v 214.289 0.546 254.163
v 178.627 0.606 214.423
f 869 870 871 872
v -78.957 0.974 -67.065
v -79.117 0.970 -63.535
v -73.623 1.008 -63.285
v -73.463 1.037 -66.815
f 873 874 875 876
v -78.402 0.997 -61.557
v -27.262 1.169 -5.487
v -23.198 1.172 -9.193
v -74.338 1.010 -65.263
f 877 878 879 880
v -27.396 1.169 -5.646
v -5.016 1.184 22.964
v -0.684 1.227 19.576
v -23.064 1.172 -9.034
f 881 882 883 884
v -4.646 1.183 23.353
v 10.504 1.222 36.413
v 14.096 1.240 32.247
v -1.054 1.226 19.187
f 885 886 887 888
v -90.700 0.589 -246.032
v -101.510 0.461 -215.362
v -98.210 0.584 -214.198
v -87.400 0.574 -244.868
f 889 890 891 892
v -101.610 0.462 -214.801
v -102.090 0.510 -174.241
v -98.590 0.608 -174.199
v -98.110 0.582 -214.759
f 893 894 895 896
v -102.048 0.511 -174.601
v -111.918 0.643 -130.321
v -108.502 0.861 -129.559
v -98.632 0.611 -173.839
f 897 898 899 900
v -111.841 0.640 -130.574
v -116.481 0.689 -118.644
v -113.219 0.711 -117.376
v -108.579 0.864 -129.306
f 901 902 903 904
v -115.853 0.692 -119.444
v -128.183 0.685 -110.814
v -126.177 0.697 -107.946
v -113.847 0.713 -116.576
f 905 906 907 908
v -127.925 0.682 -110.963
v -154.095 0.547 -98.643
v -152.605 0.681 -95.477
v -126.435 0.698 -107.797
f 909 910 911 912
v -154.416 0.551 -98.448
v -179.336 0.562 -79.318
v -177.204 0.636 -76.542
v -152.284 0.687 -95.672
f 913 914 915 916
v -179.796 0.568 -78.787
v -186.066 0.568 -67.617
v -183.014 0.695 -65.903
v -176.744 0.632 -77.073
f 917 918 919 920
v -186.270 0.577 -67.026
v -190.090 0.802 -42.226
v -186.630 0.756 -41.694
v -182.810 0.690 -66.494
f 921 922 923 924
v -190.033 0.808 -41.448
v -183.813 0.760 -21.138
v -180.467 0.827 -22.162
v -186.687 0.762 -42.472
f 925 926 927 928
v -183.769 0.760 -21.012
v -173.279 0.742 5.758
v -170.021 0.844 4.482
v -180.511 0.827 -22.288
f 929 930 931 932
v -173.392 0.754 5.282
v -172.442 0.746 15.482
v -168.958 0.872 15.158
v -169.908 0.846 4.958
f 933 934 935 936
v -172.423 0.745 15.015
v -174.383 0.785 26.085
v -170.937 0.883 26.695
v -168.977 0.875 15.625
f 937 938 939 940
v -174.182 0.786 25.526
v -193.502 0.800 59.556
v -190.458 0.860 61.284
v -171.138 0.883 27.254
f 941 942 943 944
v -193.554 0.801 59.654
v -198.934 0.771 70.714
v -195.786 0.846 72.246
v -190.406 0.861 61.186
f 945 946 947 948
v -199.092 0.772 71.232
v -200.282 0.806 79.542
v -196.818 0.803 80.038
v -195.628 0.864 71.728
f 949 950 951 952
v -200.132 0.801 80.538
v -196.492 0.856 88.238
v -193.328 0.843 86.742
v -196.968 0.810 79.042
f 953 954 955 956
v -196.142 0.857 88.733
v -188.092 0.897 96.713
v -185.628 0.851 94.227
v -193.678 0.849 86.247
f 957 958 959 960
v -187.768 0.895 96.966
v -141.568 0.829 124.996
v -139.752 0.776 122.004
v -185.952 0.857 93.974
f 961 962 963 964
v -141.566 0.829 124.997
v -134.746 0.822 129.127
v -132.934 0.779 126.133
v -139.754 0.776 122.003
f 965 966 967 968
v -135.066 0.823 128.878
v -124.356 0.814 139.398
v -121.904 0.717 136.902
v -132.614 0.780 126.382
f 969 970 971 972
v -124.626 0.814 139.057
v -120.206 0.824 146.347
v -117.214 0.729 144.533
v -121.634 0.719 137.243
f 973 974 975 976
v -120.205 0.824 146.349
v -112.575 0.772 158.899
v -109.585 0.836 157.081
v -117.215 0.729 144.531
f 977 978 979 980
v -112.688 0.775 158.680
v -98.818 0.644 191.010
v -95.602 0.688 189.630
v -109.472 0.834 157.300
f 981 982 983 984
v -98.827 0.644 190.989
v -86.077 0.596 221.799
v -82.843 0.651 220.461
v -95.593 0.688 189.651
f 985 986 987 988
v -85.822 0.598 222.229
v -68.472 0.767 243.739
v -65.748 0.820 241.541
v -83.098 0.655 220.031
f 989 990 991 992
v 254.538 1.287 226.994
v 213.498 1.197 181.694
v 209.422 1.231 185.386
v 250.462 1.305 230.686
f 993 994 995 996
v 213.496 1.197 181.691
v 174.926 1.220 139.211
v 170.854 1.234 142.909
v 209.424 1.231 185.389
f 997 998 999 1000
v 174.958 1.220 139.248
v 146.848 1.280 107.168
v 142.712 1.266 110.792
v 170.822 1.234 142.872
f 1001 1002 1003 1004
v 146.786 1.280 107.099
v 107.656 1.319 65.349
v 103.644 1.293 69.111
v 142.774 1.266 110.861
f 1005 1006 1007 1008
v 107.722 1.319 65.422
v 96.162 1.361 52.172
v 92.018 1.363 55.788
v 103.578 1.294 69.038
f 1009 1010 1011 1012
v 96.163 1.361 52.173
v 91.753 1.421 47.113
v 87.607 1.411 50.727
v 92.017 1.363 55.787
f 1013 1014 1015 1016
v 146.612 1.213 -232.045
v 152.352 1.125 -230.305
v 153.368 1.151 -233.655
v 147.628 1.227 -235.395
f 1017 1018 1019 1020
v 152.393 1.124 -230.293
v 163.413 1.193 -227.243
v 164.347 1.246 -230.617
v 153.327 1.151 -233.667
f 1021 1022 1023 1024
v 163.410 1.193 -227.244
v 165.850 1.287 -226.564
v 166.790 1.309 -229.936
v 164.350 1.246 -230.616
f 1025 1026 1027 1028
v 165.853 1.287 -226.564
v 209.803 1.573 -214.384
v 210.737 1.609 -217.756
v 166.787 1.308 -229.936
f 1029 1030 1031 1032
v 209.862 1.573 -214.368
v 255.592 1.699 -203.404
v 256.408 1.683 -206.807
v 210.678 1.610 -217.772
f 1033 1034 1035 1036
v -57.937 1.094 -254.692
v -37.503 1.039 -236.522
v -35.177 1.055 -239.138
v -55.611 1.175 -257.308
f 1037 1038 1039 1040
v -37.659 1.037 -236.680
v 7.561 0.902 -184.820
v 10.199 1.008 -187.120
v -35.021 1.046 -238.980
f 1041 1042 1043 1044
v 7.335 0.900 -185.149
v 20.845 1.104 -159.729
v 23.935 1.195 -161.371
v 10.425 1.005 -186.791
f 1045 1046 1047 1048
v 20.860 1.104 -159.700
v 22.950 1.094 -155.940
v 26.010 1.150 -157.640
v 23.920 1.195 -161.400
f 1049 1050 1051 1052
v 22.951 1.094 -155.939
v 54.211 1.101 -99.759
v 57.269 1.162 -101.461
v 26.009 1.150 -157.641
f 1053 1054 1055 1056
v 54.111 1.100 -99.970
v 72.661 1.172 -52.780
v 75.919 1.211 -54.060
v 57.369 1.162 -101.250
f 1057 1058 1059 1060
v 72.923 1.162 -52.327
v 74.323 1.159 -50.577
v 77.057 1.212 -52.763
v 75.657 1.225 -54.513
f 1061 1062 1063 1064
v 74.320 1.159 -50.581
v 81.320 1.338 -41.781
v 84.060 1.354 -43.959
v 77.060 1.213 -52.759
f 1065 1066 1067 1068
v -116.246 0.700 -116.954
v -77.606 0.972 -65.884
v -74.814 1.012 -67.996
v -113.454 0.705 -119.066
f 1069 1070 1071 1072
v 83.937 1.026 254.601
v 68.751 1.023 243.191
v 66.649 1.050 245.989
v 81.835 0.991 257.399
f 1073 1074 1075 1076
v 69.181 1.012 243.658
v 63.801 1.059 235.108
v 60.839 1.068 236.972
v 66.219 1.052 245.522
f 1077 1078 1079 1080
v 64.038 1.059 235.704
v 60.078 1.046 215.434
v 56.642 1.068 216.106
v 60.602 1.068 236.376
f 1081 1082 1083 1084
v 60.109 1.043 215.818
v 60.619 1.135 197.048
v 57.121 1.085 196.952
v 56.611 1.068 215.722
f 1085 1086 1087 1088
v 60.595 1.131 197.297
v 63.545 1.131 180.157
v 60.095 1.125 179.563
v 57.145 1.089 196.703
f 1089 1090 1091 1092
v 63.513 1.131 180.303
v 66.833 1.175 167.623
v 63.447 1.206 166.737
v 60.127 1.125 179.417
f 1093 1094 1095 1096
v 66.547 1.168 168.220
v 75.597 1.152 155.980
v 72.783 1.150 153.900
v 63.733 1.202 166.140
f 1097 1098 1099 1100
v 75.425 1.150 156.179
v 84.845 0.994 146.789
v 82.375 0.960 144.311
v 72.955 1.153 153.701
f 1101 1102 1103 1104
v 85.251 0.984 146.158
v 88.151 0.952 138.338
v 84.869 1.036 137.122
v 81.969 0.962 144.942
f 1105 1106 1107 1108
v 88.077 0.956 136.951
v 84.707 0.999 130.171
v 81.573 1.186 131.729
v 84.943 1.004 138.509
f 1109 1110 1111 1112
v 83.970 1.007 129.409
v 76.120 1.118 125.179
v 74.460 1.277 128.261
v 82.310 1.160 132.491
f 1113 1114 1115 1116
v 74.572 1.112 125.124
v 66.262 1.158 128.864
v 67.698 1.185 132.056
v 76.008 1.327 128.316
f 1117 1118 1119 1120
v 65.944 1.156 129.049
v 58.454 1.126 134.549
v 60.526 1.141 137.371
v 68.016 1.191 131.871
f 1121 1122 1123 1124
v 59.450 1.140 134.210
v 56.380 1.122 134.280
v 56.460 1.108 137.780
v 59.530 1.182 137.710
f 1125 1126 1127 1128
v 56.379 1.122 134.280
v 45.319 1.115 134.540
v 45.401 1.119 138.040
v 56.461 1.108 137.780
f 1129 1130 1131 1132
v 44.961 1.111 134.586
v 33.561 1.037 137.256
v 34.359 1.114 140.664
v 45.759 1.121 137.994
f 1133 1134 1135 1136
v -116.977 0.723 145.199
v -119.097 0.764 129.969
v -122.563 0.795 130.451
v -120.443 0.826 145.681
f 1137 1138 1139 1140
v -119.116 0.766 130.562
v -116.736 0.796 118.962
v -120.164 0.814 118.258
v -122.544 0.802 129.858
f 1141 1142 1143 1144
v -117.236 0.799 119.870
v -97.686 0.818 101.030
v -100.114 0.865 98.510
v -119.664 0.825 117.350
f 1145 1146 1147 1148
v -119.227 0.821 117.042
v -130.537 0.814 122.642
v -128.983 0.833 125.778
v -117.673 0.799 120.178
f 1149 1150 1151 1152
v -129.646 0.824 122.464
v -140.546 0.773 121.754
v -140.774 0.819 125.246
v -129.874 0.822 125.956
f 1153 1154 1155 1156
v 25.521 1.085 -155.383
v 68.081 1.637 -186.863
v 65.999 1.647 -189.677
v 23.439 1.130 -158.197
f 1157 1158 1159 1160
v 68.366 1.639 -187.128
v 96.616 1.614 -219.908
v 93.964 1.598 -222.192
v 65.714 1.645 -189.412
f 1161 1162 1163 1164
v 96.879 1.622 -220.316
v 102.689 1.438 -232.896
v 99.511 1.449 -234.364
v 93.701 1.587 -221.784
f 1165 1166 1167 1168
v 102.454 1.451 -232.522
v 111.154 1.291 -243.152
v 108.446 1.330 -245.368
v 99.746 1.436 -234.738
f 1169 1170 1171 1172
v 111.262 1.295 -243.298
v 115.392 1.212 -249.578
v 112.468 1.246 -251.502
v 108.338 1.329 -245.222
f 1173 1174 1175 1176
v 167.991 1.344 -227.729
v 176.644 1.593 -255.479
v 173.303 1.674 -256.521
v 164.649 1.258 -228.771
f 1177 1178 1179 1180
v 194.227 1.683 -256.981
v 191.701 1.660 -253.251
v 194.599 1.770 -251.289
v 197.125 1.765 -255.019
f 1181 1182 1183 1184
v 191.486 1.656 -252.811
v 186.486 1.655 -237.431
v 189.814 1.665 -236.349
v 194.814 1.768 -251.729
f 1185 1186 1187 1188
v 118.249 1.312 -125.514
v 152.989 1.305 -115.814
v 153.931 1.303 -119.186
v 119.191 1.300 -128.886
f 1189 1190 1191 1192
v 122.447 1.255 -141.364
v 115.707 1.220 -143.104
v 114.833 1.223 -139.716
v 121.573 1.279 -137.976
f 1193 1194 1195 1196
v 115.708 1.220 -143.104
v 63.078 1.476 -156.714
v 62.202 1.468 -153.326
v 114.832 1.223 -139.716
f 1197 1198 1199 1200
v 141.304 1.289 -134.682
v 165.574 1.284 -228.492
v 162.186 1.187 -229.368
v 137.916 1.238 -135.558
f 1201 1202 1203 1204
v 121.572 1.279 -137.976
v 139.172 1.234 -133.426
v 140.048 1.257 -136.814
v 122.448 1.255 -141.364
f 1205 1206 1207 1208
v 187.689 1.656 -235.202
v 239.839 1.749 -220.952
v 240.761 1.708 -224.328
v 188.611 1.661 -238.578
f 1209 1210 1211 1212
v 208.666 1.593 -215.371
v 218.836 1.150 -192.041
v 222.044 1.142 -193.439
v 211.874 1.607 -216.769
f 1213 1214 1215 1216
usemtl asphalt
