# Baked ultra-low Key West silhouette; generated by bake_key_west_far_city.py
mtllib far_city.mtl
usemtl massing
v 199.425 0.674 -244.274
v 205.294 0.674 -199.860
v 192.475 0.674 -198.166
v 186.606 0.674 -242.580
v 199.425 6.474 -244.274
v 205.294 6.474 -199.860
v 192.475 6.474 -198.166
v 186.606 6.474 -242.580
f 8 7 6 5
f 1 2 6 5
f 2 3 7 6
f 3 4 8 7
f 4 1 5 8
v 154.982 0.718 -196.429
v 179.661 0.718 -195.675
v 179.278 0.718 -183.131
v 154.599 0.718 -183.885
v 154.982 4.618 -196.429
v 179.661 4.618 -195.675
v 179.278 4.618 -183.131
v 154.599 4.618 -183.885
f 16 15 14 13
f 9 10 14 13
f 10 11 15 14
f 11 12 16 15
f 12 9 13 16
v 152.155 0.746 -251.379
v 158.159 0.746 -206.700
v 142.985 0.746 -204.661
v 136.981 0.746 -249.340
v 152.155 6.546 -251.379
v 158.159 6.546 -206.700
v 142.985 6.546 -204.661
v 136.981 6.546 -249.340
f 24 23 22 21
f 17 18 22 21
f 18 19 23 22
f 19 20 24 23
f 20 17 21 24
v 131.966 0.769 -197.088
v 138.383 0.769 -153.033
v 126.014 0.769 -151.232
v 119.597 0.769 -195.287
v 131.966 6.569 -197.088
v 138.383 6.569 -153.033
v 126.014 6.569 -151.232
v 119.597 6.569 -195.287
f 32 31 30 29
f 25 26 30 29
f 26 27 31 30
f 27 28 32 31
f 28 25 29 32
v 95.391 0.784 -141.814
v 124.088 0.784 -126.710
v 117.549 0.784 -114.286
v 88.852 0.784 -129.390
v 95.391 4.684 -141.814
v 124.088 4.684 -126.710
v 117.549 4.684 -114.286
v 88.852 4.684 -129.390
f 40 39 38 37
f 33 34 38 37
f 34 35 39 38
f 35 36 40 39
f 36 33 37 40
v 81.148 0.696 -194.188
v 93.314 0.696 -134.260
v 82.632 0.696 -132.092
v 70.466 0.696 -192.020
v 81.148 6.496 -194.188
v 93.314 6.496 -134.260
v 82.632 6.496 -132.092
v 70.466 6.496 -192.020
f 48 47 46 45
f 41 42 46 45
f 42 43 47 46
f 43 44 48 47
f 44 41 45 48
v -7.506 0.799 -210.678
v 55.522 0.799 -233.640
v 61.146 0.799 -218.202
v -1.882 0.799 -195.240
v -7.506 6.599 -210.678
v 55.522 6.599 -233.640
v 61.146 6.599 -218.202
v -1.882 6.599 -195.240
f 56 55 54 53
f 49 50 54 53
f 50 51 55 54
f 51 52 56 55
f 52 49 53 56
v 15.242 0.848 -249.238
v 74.038 0.848 -270.698
v 77.738 0.848 -260.562
v 18.942 0.848 -239.102
v 15.242 6.648 -249.238
v 74.038 6.648 -270.698
v 77.738 6.648 -260.562
v 18.942 6.648 -239.102
f 64 63 62 61
f 57 58 62 61
f 58 59 63 62
f 59 60 64 63
f 60 57 61 64
v -5.440 0.836 -272.828
v 7.127 0.836 -240.044
v -5.740 0.836 -235.112
v -18.307 0.836 -267.896
v -5.440 6.636 -272.828
v 7.127 6.636 -240.044
v -5.740 6.636 -235.112
v -18.307 6.636 -267.896
f 72 71 70 69
f 65 66 70 69
f 66 67 71 70
f 67 68 72 71
f 68 65 69 72
usemtl road
v 172.614 0.966 -245.239
v 167.164 0.926 -210.699
v 172.596 0.880 -209.841
v 178.046 1.007 -244.381
f 73 74 75 76
v 108.193 0.967 -231.051
v 109.293 0.965 -207.681
v 114.787 1.037 -207.939
v 113.687 0.961 -231.309
f 77 78 79 80
v 109.334 0.962 -208.302
v 108.304 0.976 -202.632
v 113.716 1.016 -201.648
v 114.746 1.039 -207.318
f 81 82 83 84
v 108.307 0.976 -202.646
v 98.497 0.878 -150.206
v 103.903 0.917 -149.194
v 113.713 1.016 -201.634
f 85 86 87 88
v 117.065 0.938 -253.928
v 122.355 0.908 -246.548
v 126.825 0.894 -249.752
v 121.535 0.943 -257.132
f 89 90 91 92
v 87.677 0.955 -217.481
v 112.087 0.948 -228.681
v 109.793 0.955 -233.679
v 85.383 0.993 -222.479
f 93 94 95 96
v 113.083 0.950 -229.456
v 118.223 1.006 -235.846
v 113.937 0.927 -239.294
v 108.797 0.957 -232.904
f 97 98 99 100
v 118.223 1.006 -235.846
v 126.733 0.929 -246.426
v 122.447 0.903 -249.874
v 113.937 0.927 -239.294
f 101 102 103 104
v 16.623 0.979 -238.318
v 69.213 1.138 -219.028
v 71.107 1.089 -224.192
v 18.517 0.952 -243.482
f 105 106 107 108
v 69.888 1.137 -218.874
v 86.258 0.940 -217.244
v 86.802 0.998 -222.716
v 70.432 1.088 -224.346
f 109 110 111 112
v 241.012 0.653 -224.243
v 247.852 0.632 -231.353
v 243.888 0.620 -235.167
v 237.048 0.667 -228.057
f 113 114 115 116
v 237.060 0.653 -224.231
v 241.170 0.654 -220.011
v 245.110 0.613 -223.849
v 241.000 0.603 -228.069
f 117 118 119 120
v 241.170 0.654 -220.011
v 243.420 0.656 -217.701
v 247.360 0.612 -221.539
v 245.110 0.613 -223.849
f 121 122 123 124
v -55.131 0.940 -254.769
v 12.506 0.797 -186.429
v 14.994 0.797 -188.891
v -52.644 0.865 -257.231
f 125 126 127 128
v 12.385 0.795 -186.565
v 44.845 0.680 -146.075
v 47.575 0.690 -148.265
v 15.115 0.800 -188.755
f 129 130 131 132
v 45.027 0.680 -145.880
v 83.457 0.584 -110.650
v 85.823 0.622 -113.230
v 47.393 0.692 -148.460
f 133 134 135 136
v 83.696 0.582 -110.467
v 93.026 0.545 -104.487
v 94.914 0.620 -107.433
v 85.584 0.621 -113.413
f 137 138 139 140
v 93.847 0.550 -104.214
v 103.477 0.613 -103.534
v 103.723 0.614 -107.026
v 94.093 0.632 -107.706
f 141 142 143 144
v 104.127 0.614 -103.611
v 117.077 0.663 -107.701
v 116.023 0.663 -111.039
v 103.073 0.615 -106.949
f 145 146 147 148
v 117.543 0.664 -107.929
v 130.073 0.718 -116.559
v 128.087 0.677 -119.441
v 115.557 0.663 -110.811
f 149 150 151 152
v 130.267 0.723 -116.714
v 156.747 0.795 -141.144
v 154.373 0.748 -143.716
v 127.893 0.677 -119.286
f 153 154 155 156
v 156.670 0.794 -141.077
v 218.390 0.706 -191.677
v 216.170 0.756 -194.383
v 154.450 0.748 -143.783
f 157 158 159 160
v 218.482 0.706 -191.758
v 239.762 0.540 -211.878
v 237.358 0.544 -214.422
v 216.078 0.758 -194.302
f 161 162 163 164
v 239.764 0.540 -211.880
v 246.594 0.658 -218.350
v 244.186 0.659 -220.890
v 237.356 0.544 -214.420
f 165 166 167 168
v 84.984 0.978 -220.800
v 80.824 1.027 -212.960
v 83.916 1.013 -211.320
v 88.076 0.975 -219.160
f 169 170 171 172
v 81.123 1.017 -213.368
v 65.883 0.982 -197.888
v 68.377 0.984 -195.432
v 83.617 1.012 -210.912
f 173 174 175 176
v 66.433 0.980 -198.265
v 53.753 0.990 -192.755
v 55.147 1.014 -189.545
v 67.827 0.984 -195.055
f 177 178 179 180
v 53.916 0.988 -192.816
v 37.756 1.028 -187.636
v 38.824 1.088 -184.304
v 54.984 1.014 -189.484
f 181 182 183 184
v 38.208 1.027 -187.718
v 24.838 0.955 -187.088
v 25.002 1.008 -183.592
v 38.372 1.091 -184.222
f 185 186 187 188
v 25.276 0.961 -187.053
v 14.106 0.796 -189.373
v 13.394 0.804 -185.947
v 24.564 0.999 -183.627
f 189 190 191 192
v 47.822 0.664 -146.489
v 68.742 0.984 -195.979
v 65.518 0.984 -197.341
v 44.598 0.678 -147.851
f 193 194 195 196
v 116.729 0.938 -239.195
v 98.229 0.995 -246.585
v 96.931 1.045 -243.335
v 115.431 0.964 -235.945
f 197 198 199 200
usemtl asphalt
