# Baked ultra-low Key West silhouette; generated by bake_key_west_far_city.py
mtllib far_city.mtl
usemtl massing
v 132.841 1.576 -90.640
v 151.419 1.576 -115.681
v 160.559 1.576 -108.900
v 141.981 1.576 -83.859
v 132.841 5.476 -90.640
v 151.419 5.476 -115.681
v 160.559 5.476 -108.900
v 141.981 5.476 -83.859
f 8 7 6 5
f 1 2 6 5
f 2 3 7 6
f 3 4 8 7
f 4 1 5 8
v 115.433 1.154 -88.438
v 127.237 1.154 -100.166
v 132.587 1.154 -94.782
v 120.783 1.154 -83.054
v 115.433 5.054 -88.438
v 127.237 5.054 -100.166
v 132.587 5.054 -94.782
v 120.783 5.054 -83.054
f 16 15 14 13
f 9 10 14 13
f 10 11 15 14
f 11 12 16 15
f 12 9 13 16
v 108.280 1.857 49.792
v 130.171 1.857 50.395
v 129.660 1.857 68.968
v 107.769 1.857 68.365
v 108.280 5.757 49.792
v 130.171 5.757 50.395
v 129.660 5.757 68.968
v 107.769 5.757 68.365
f 24 23 22 21
f 17 18 22 21
f 18 19 23 22
f 19 20 24 23
f 20 17 21 24
v 119.570 1.779 14.134
v 172.508 1.779 14.608
v 172.090 1.779 61.166
v 119.152 1.779 60.692
v 119.570 10.079 14.134
v 172.508 10.079 14.608
v 172.090 10.079 61.166
v 119.152 10.079 60.692
f 32 31 30 29
f 25 26 30 29
f 26 27 31 30
f 27 28 32 31
f 28 25 29 32
v 99.305 1.573 -35.117
v 130.570 1.573 -36.372
v 131.115 1.573 -22.803
v 99.850 1.573 -21.548
v 99.305 5.473 -35.117
v 130.570 5.473 -36.372
v 131.115 5.473 -22.803
v 99.850 5.473 -21.548
f 40 39 38 37
f 33 34 38 37
f 34 35 39 38
f 35 36 40 39
f 36 33 37 40
v 143.444 1.648 -34.004
v 174.708 1.648 -35.265
v 175.256 1.648 -21.696
v 143.992 1.648 -20.435
v 143.444 5.548 -34.004
v 174.708 5.548 -35.265
v 175.256 5.548 -21.696
v 143.992 5.548 -20.435
f 48 47 46 45
f 41 42 46 45
f 42 43 47 46
f 43 44 48 47
f 44 41 45 48
v 144.334 1.562 -53.384
v 175.598 1.562 -54.645
v 176.146 1.562 -41.076
v 144.882 1.562 -39.815
v 144.334 5.462 -53.384
v 175.598 5.462 -54.645
v 176.146 5.462 -41.076
v 144.882 5.462 -39.815
f 56 55 54 53
f 49 50 54 53
f 50 51 55 54
f 51 52 56 55
f 52 49 53 56
v 145.377 1.561 -72.787
v 176.642 1.561 -74.032
v 177.183 1.561 -60.453
v 145.918 1.561 -59.208
v 145.377 5.461 -72.787
v 176.642 5.461 -74.032
v 177.183 5.461 -60.453
v 145.918 5.461 -59.208
f 64 63 62 61
f 57 58 62 61
f 58 59 63 62
f 59 60 64 63
f 60 57 61 64
v 101.716 1.438 -74.115
v 132.981 1.438 -75.364
v 133.524 1.438 -61.785
v 102.259 1.438 -60.536
v 101.716 5.338 -74.115
v 132.981 5.338 -75.364
v 133.524 5.338 -61.785
v 102.259 5.338 -60.536
f 72 71 70 69
f 65 66 70 69
f 66 67 71 70
f 67 68 72 71
f 68 65 69 72
v 100.199 1.493 -54.410
v 131.454 1.493 -55.669
v 132.001 1.493 -42.090
v 100.746 1.493 -40.831
v 100.199 5.393 -54.410
v 131.454 5.393 -55.669
v 132.001 5.393 -42.090
v 100.746 5.393 -40.831
f 80 79 78 77
f 73 74 78 77
f 74 75 79 78
f 75 76 80 79
f 76 73 77 80
v 215.334 1.626 -40.153
v 260.755 1.626 -59.374
v 273.486 1.626 -29.287
v 228.065 1.626 -10.066
v 215.334 7.426 -40.153
v 260.755 7.426 -59.374
v 273.486 7.426 -29.287
v 228.065 7.426 -10.066
f 88 87 86 85
f 81 82 86 85
f 82 83 87 86
f 83 84 88 87
f 84 81 85 88
v 63.321 1.537 -5.197
v 66.708 1.537 8.809
v 57.659 1.537 10.997
v 54.272 1.537 -3.009
v 63.321 5.437 -5.197
v 66.708 5.437 8.809
v 57.659 5.437 10.997
v 54.272 5.437 -3.009
f 96 95 94 93
f 89 90 94 93
f 90 91 95 94
f 91 92 96 95
f 92 89 93 96
v -70.266 1.410 189.439
v -53.557 1.410 206.006
v -60.274 1.410 212.781
v -76.983 1.410 196.214
v -70.266 5.310 189.439
v -53.557 5.310 206.006
v -60.274 5.310 212.781
v -76.983 5.310 196.214
f 104 103 102 101
f 97 98 102 101
f 98 99 103 102
f 99 100 104 103
f 100 97 101 104
v -19.349 1.357 184.170
v -12.154 1.357 191.638
v -18.311 1.357 197.570
v -25.506 1.357 190.102
v -19.349 5.257 184.170
v -12.154 5.257 191.638
v -18.311 5.257 197.570
v -25.506 5.257 190.102
f 112 111 110 109
f 105 106 110 109
f 106 107 111 110
f 107 108 112 111
f 108 105 109 112
v -21.679 1.116 135.478
v -18.422 1.116 138.754
v -20.301 1.116 140.622
v -23.558 1.116 137.346
v -21.679 5.016 135.478
v -18.422 5.016 138.754
v -20.301 5.016 140.622
v -23.558 5.016 137.346
f 120 119 118 117
f 113 114 118 117
f 114 115 119 118
f 115 116 120 119
f 116 113 117 120
v -35.278 1.091 146.333
v -30.442 1.091 150.853
v -33.802 1.091 154.447
v -38.638 1.091 149.927
v -35.278 4.991 146.333
v -30.442 4.991 150.853
v -33.802 4.991 154.447
v -38.638 4.991 149.927
f 128 127 126 125
f 121 122 126 125
f 122 123 127 126
f 123 124 128 127
f 124 121 125 128
v -37.533 1.266 171.155
v -32.531 1.266 167.227
v -28.967 1.266 171.765
v -33.969 1.266 175.693
v -37.533 5.166 171.155
v -32.531 5.166 167.227
v -28.967 5.166 171.765
v -33.969 5.166 175.693
f 136 135 134 133
f 129 130 134 133
f 130 131 135 134
f 131 132 136 135
f 132 129 133 136
v 91.377 1.630 218.124
v 102.975 1.630 215.694
v 105.263 1.630 226.616
v 93.665 1.630 229.046
v 91.377 5.530 218.124
v 102.975 5.530 215.694
v 105.263 5.530 226.616
v 93.665 5.530 229.046
f 144 143 142 141
f 137 138 142 141
f 138 139 143 142
f 139 140 144 143
f 140 137 141 144
v 83.885 1.742 230.164
v 103.876 1.742 225.811
v 106.155 1.742 236.276
v 86.164 1.742 240.629
v 83.885 5.642 230.164
v 103.876 5.642 225.811
v 106.155 5.642 236.276
v 86.164 5.642 240.629
f 152 151 150 149
f 145 146 150 149
f 146 147 151 150
f 147 148 152 151
f 148 145 149 152
usemtl road
v 219.850 0.787 -215.075
v 207.790 1.020 -200.715
v 210.470 0.971 -198.465
v 222.530 0.767 -212.825
f 153 154 155 156
v 207.515 1.013 -200.264
v 197.095 0.910 -175.314
v 200.325 0.905 -173.966
v 210.745 0.987 -198.916
f 157 158 159 160
v 196.966 0.916 -174.790
v 194.416 1.131 -145.230
v 197.904 1.139 -144.930
v 200.454 0.900 -174.490
f 161 162 163 164
v 194.420 1.133 -144.891
v 198.690 1.595 -105.591
v 202.170 1.592 -105.969
v 197.900 1.136 -145.269
f 165 166 167 168
v 198.680 1.594 -105.799
v 198.300 1.576 -71.419
v 201.800 1.582 -71.381
v 202.180 1.594 -105.761
f 169 170 171 172
v 198.301 1.576 -71.452
v 197.451 1.647 -42.702
v 200.949 1.661 -42.598
v 201.799 1.582 -71.348
f 173 174 175 176
v 197.452 1.647 -42.735
v 196.462 1.648 -22.445
v 199.958 1.670 -22.275
v 200.948 1.661 -42.565
f 177 178 179 180
v 196.462 1.648 -22.446
v 194.882 1.682 9.714
v 198.378 1.665 9.886
v 199.958 1.670 -22.274
f 181 182 183 184
v 240.858 1.426 44.203
v 234.608 1.463 38.473
v 230.892 1.492 42.527
v 237.142 1.450 48.257
f 185 186 187 188
v 234.531 1.463 38.404
v 204.251 1.671 12.674
v 200.689 1.643 16.866
v 230.969 1.492 42.596
f 189 190 191 192
v 204.252 1.671 12.676
v 198.412 1.637 7.706
v 194.848 1.695 11.894
v 200.688 1.643 16.864
f 193 194 195 196
v 197.278 1.635 7.128
v 147.568 1.733 -4.932
v 146.272 1.685 0.412
v 195.982 1.689 12.472
f 197 198 199 200
v 146.533 1.727 -4.983
v 99.693 1.632 1.677
v 100.467 1.587 7.123
v 147.307 1.689 0.463
f 201 202 203 204
v 99.282 1.631 1.768
v 94.602 1.610 3.188
v 96.198 1.570 8.452
v 100.878 1.586 7.032
f 205 206 207 208
v 93.988 1.606 3.460
v 73.808 1.535 15.530
v 76.632 1.552 20.250
v 96.812 1.573 8.180
f 209 210 211 212
v 73.722 1.534 15.583
v 55.732 1.506 27.263
v 58.728 1.471 31.877
v 76.718 1.552 20.197
f 213 214 215 216
v 55.287 1.504 27.623
v 30.877 1.359 51.983
v 34.763 1.316 55.877
v 59.173 1.470 31.517
f 217 218 219 220
v 30.869 1.359 51.992
v 29.409 1.344 53.462
v 33.311 1.312 57.338
v 34.771 1.316 55.868
f 221 222 223 224
v 29.385 1.344 53.486
v 28.755 1.343 54.136
v 32.705 1.310 57.964
v 33.335 1.312 57.314
f 225 226 227 228
v 28.771 1.343 54.120
v -30.839 1.174 114.650
v -26.921 1.143 118.510
v 32.689 1.310 57.980
f 229 230 231 232
v -30.984 1.174 114.809
v -42.374 1.157 128.339
v -38.166 1.113 131.881
v -26.776 1.146 118.351
f 233 234 235 236
v -42.572 1.156 128.605
v -45.952 1.153 133.775
v -41.348 1.126 136.785
v -37.968 1.109 131.615
f 237 238 239 240
v -46.351 1.156 134.763
v -51.151 1.207 159.853
v -45.749 1.225 160.887
v -40.949 1.126 135.797
f 241 242 243 244
v -51.103 1.218 161.094
v -44.873 1.338 183.914
v -39.567 1.314 182.466
v -45.797 1.219 159.646
f 245 246 247 248
v -44.607 1.341 184.555
v -38.527 1.378 195.185
v -33.753 1.376 192.455
v -39.833 1.314 181.825
f 249 250 251 252
v -38.174 1.382 195.670
v -30.724 1.464 203.860
v -26.656 1.425 200.160
v -34.106 1.374 191.970
f 253 254 255 256
v -30.685 1.464 203.902
v -12.545 1.507 223.032
v -8.555 1.542 219.248
v -26.695 1.424 200.118
f 257 258 259 260
v -12.206 1.512 223.336
v 7.774 1.550 238.406
v 11.086 1.569 234.014
v -8.894 1.541 218.944
f 261 262 263 264
v 8.295 1.547 238.715
v 32.095 1.483 249.495
v 34.365 1.522 244.485
v 10.565 1.567 233.705
f 265 266 267 268
v 254.029 1.241 107.741
v 211.359 1.299 151.613
v 215.301 1.306 155.447
v 257.971 1.204 111.576
f 269 270 271 272
v 211.171 1.298 151.827
v 210.761 1.297 152.347
v 215.079 1.306 155.753
v 215.489 1.305 155.233
f 273 274 275 276
v 210.761 1.297 152.347
v 182.881 1.268 187.697
v 187.199 1.264 191.103
v 215.079 1.306 155.753
f 277 278 279 280
v 182.607 1.265 188.118
v 181.437 1.252 190.338
v 186.303 1.254 192.902
v 187.473 1.267 190.682
f 281 282 283 284
v 181.440 1.252 190.332
v 162.390 1.322 226.282
v 167.250 1.246 228.858
v 186.300 1.254 192.908
f 285 286 287 288
v 162.390 1.322 226.283
v 158.350 1.288 233.913
v 163.210 1.246 236.487
v 167.250 1.246 228.857
f 289 290 291 292
v 158.166 1.288 234.345
v 151.360 1.282 255.145
v 156.588 1.184 256.855
v 163.394 1.249 236.055
f 293 294 295 296
v -37.380 1.387 192.585
v -42.300 1.370 197.525
v -39.820 1.371 199.995
v -34.900 1.407 195.055
f 297 298 299 300
v -42.298 1.370 197.523
v -52.598 1.583 207.833
v -50.122 1.555 210.307
v -39.822 1.371 199.997
f 301 302 303 304
v -52.882 1.583 208.206
v -67.102 1.658 233.266
v -64.058 1.665 234.994
v -49.838 1.551 209.934
f 305 306 307 308
v -67.102 1.658 233.266
v -70.412 1.398 239.096
v -67.368 1.387 240.824
v -64.058 1.665 234.994
f 309 310 311 312
v -70.286 1.408 238.905
v -72.666 1.244 242.055
v -69.874 1.230 244.165
v -67.494 1.375 241.015
f 313 314 315 316
v -72.664 1.244 242.052
v -82.442 0.732 254.942
v -79.653 0.667 257.058
v -69.876 1.229 244.168
f 317 318 319 320
v 199.801 1.589 -69.668
v 219.231 1.454 -66.878
v 219.729 1.363 -70.342
v 200.299 1.589 -73.132
f 321 322 323 324
v 219.437 1.454 -66.861
v 235.817 1.271 -66.461
v 235.903 1.268 -69.959
v 219.523 1.364 -70.359
f 325 326 327 328
v 234.993 1.275 -66.690
v 251.473 1.178 -57.290
v 253.207 1.141 -60.330
v 236.727 1.263 -69.730
f 329 330 331 332
v 250.844 1.174 -59.718
v 245.494 1.940 -50.908
v 248.486 2.059 -49.092
v 253.836 1.141 -57.902
f 333 334 335 336
v 198.478 1.658 -41.056
v 227.208 2.032 -28.046
v 228.652 2.043 -31.234
v 199.922 1.661 -44.244
f 337 338 339 340
v 237.110 1.876 -23.106
v 255.140 1.625 -12.939
v 256.860 1.711 -15.987
v 238.830 1.999 -26.154
f 341 342 343 344
v 254.456 1.561 -6.980
v 250.666 1.484 0.116
v 253.754 1.473 1.764
v 257.544 1.529 -5.331
f 345 346 347 348
v 250.666 1.484 0.117
v 245.736 1.447 9.367
v 248.824 1.460 11.013
v 253.754 1.473 1.763
f 349 350 351 352
v 245.540 1.443 10.004
v 244.050 1.449 23.954
v 247.530 1.429 24.326
v 249.020 1.461 10.376
f 353 354 355 356
v 244.422 1.451 23.049
v 231.382 1.509 39.409
v 234.118 1.487 41.591
v 247.158 1.420 25.231
f 357 358 359 360
v 97.952 1.634 4.796
v 88.322 1.502 -19.194
v 83.218 1.477 -17.146
v 92.848 1.610 6.844
f 361 362 363 364
v 87.690 1.490 -20.139
v 70.570 1.529 -36.839
v 66.730 1.561 -32.901
v 83.850 1.474 -16.201
f 365 366 367 368
v 66.736 1.541 -36.844
v 47.616 1.595 -18.304
v 51.444 1.601 -14.356
v 70.564 1.551 -32.896
f 369 370 371 372
v 50.529 1.580 -18.892
v 32.579 1.567 -25.892
v 30.581 1.592 -20.768
v 48.531 1.626 -13.768
f 373 374 375 376
v 30.276 1.573 -25.751
v 17.136 1.572 -18.671
v 19.744 1.628 -13.829
v 32.884 1.577 -20.909
f 377 378 379 380
v 16.541 1.576 -18.239
v -19.109 1.610 15.801
v -15.311 1.649 19.779
v 20.339 1.632 -14.261
f 381 382 383 384
v -19.157 1.611 15.848
v -45.257 1.449 42.018
v -41.363 1.552 45.902
v -15.263 1.651 19.732
f 385 386 387 388
v -45.203 1.449 41.965
v -67.423 1.417 63.045
v -63.637 1.494 67.035
v -41.417 1.552 45.955
f 389 390 391 392
v -67.740 1.417 63.403
v -78.100 1.490 77.393
v -73.680 1.496 80.667
v -63.320 1.495 66.677
f 393 394 395 396
v -77.166 1.476 76.594
v -92.626 1.580 84.694
v -90.074 1.618 89.566
v -74.614 1.508 81.466
f 397 398 399 400
v -93.098 1.584 85.007
v -113.748 1.658 102.007
v -110.252 1.666 106.253
v -89.602 1.616 89.253
f 401 402 403 404
v -113.941 1.659 102.182
v -133.071 1.719 121.242
v -129.189 1.727 125.138
v -110.059 1.666 106.078
f 405 406 407 408
v -133.123 1.719 121.296
v -147.853 1.645 136.796
v -143.867 1.717 140.584
v -129.137 1.726 125.084
f 409 410 411 412
v -148.098 1.646 137.092
v -158.458 1.646 151.602
v -153.982 1.652 154.798
v -143.622 1.718 140.288
f 413 414 415 416
v -158.859 1.638 153.972
v -154.069 1.571 170.342
v -148.791 1.624 168.798
v -153.581 1.667 152.428
f 417 418 419 420
v -149.540 1.613 171.568
v -122.160 1.661 145.668
v -125.940 1.659 141.672
v -153.320 1.618 167.572
f 421 422 423 424
v -122.080 1.660 145.589
v -98.810 1.653 121.709
v -102.750 1.657 117.871
v -126.020 1.659 141.751
f 425 426 427 428
v -98.891 1.652 121.789
v -73.071 1.647 97.389
v -76.849 1.631 93.391
v -102.669 1.657 117.791
f 429 430 431 432
v -72.654 1.637 96.888
v -69.024 1.535 91.298
v -73.636 1.569 88.302
v -77.266 1.636 93.892
f 433 434 435 436
v -68.798 1.533 88.728
v -73.358 1.478 77.958
v -78.422 1.524 80.102
v -73.862 1.585 90.872
f 437 438 439 440
v -72.314 1.564 92.368
v -57.444 1.499 98.068
v -55.476 1.554 92.932
v -70.346 1.530 87.232
f 441 442 443 444
v -58.984 1.540 94.409
v -65.484 1.530 109.449
v -60.436 1.486 111.631
v -53.936 1.521 96.591
f 445 446 447 448
v -64.829 1.531 108.523
v -87.309 1.629 129.353
v -83.571 1.581 133.387
v -61.091 1.491 112.557
f 449 450 451 452
v -87.582 1.625 129.646
v -102.322 1.629 147.956
v -98.038 1.624 151.404
v -83.298 1.580 133.094
f 453 454 455 456
v -102.094 1.631 147.705
v -119.924 1.630 164.985
v -116.096 1.612 168.935
v -98.266 1.625 151.655
f 457 458 459 460
v -120.076 1.630 165.145
v -136.376 1.590 183.705
v -132.244 1.550 187.335
v -115.944 1.612 168.775
f 461 462 463 464
v -132.435 1.569 183.508
v -149.555 1.625 167.558
v -153.305 1.561 171.582
v -136.185 1.562 187.532
f 465 466 467 468
v -53.930 1.521 96.577
v -46.120 1.723 78.227
v -51.180 1.695 76.073
v -58.990 1.540 94.423
f 469 470 471 472
v -46.697 1.733 79.086
v 33.423 1.801 -1.714
v 29.517 1.774 -5.586
v -50.603 1.698 75.214
f 473 474 475 476
v 33.050 1.806 -1.399
v 51.110 1.605 -14.079
v 47.950 1.592 -18.581
v 29.890 1.773 -5.901
f 477 478 479 480
v 46.787 1.612 -16.523
v 44.267 1.510 19.237
v 49.753 1.495 19.623
v 52.273 1.586 -16.137
f 481 482 483 484
v 45.073 1.502 21.382
v 55.293 1.491 31.522
v 59.167 1.501 27.618
v 48.947 1.512 17.478
f 485 486 487 488
v 47.267 1.521 16.692
v 38.537 1.582 15.872
v 38.023 1.568 21.348
v 46.753 1.489 22.168
f 489 490 491 492
v 36.336 1.586 16.665
v -28.264 1.571 81.215
v -24.376 1.468 85.105
v 40.224 1.537 20.555
f 493 494 495 496
v -28.531 1.571 81.525
v -48.471 1.343 108.495
v -44.049 1.230 111.765
v -24.109 1.469 84.795
f 497 498 499 500
v -44.004 1.254 108.557
v -54.204 1.560 93.927
v -58.716 1.492 97.073
v -48.516 1.315 111.703
f 501 502 503 504
v -47.217 1.281 112.708
v -29.837 1.163 119.158
v -27.923 1.182 114.002
v -45.303 1.276 107.552
f 505 506 507 508
v -48.752 1.349 108.968
v -57.072 1.381 126.808
v -52.088 1.254 129.132
v -43.768 1.230 111.292
f 509 510 511 512
v -56.912 1.379 126.513
v -70.912 1.421 148.923
v -66.248 1.360 151.837
v -52.248 1.253 129.427
f 513 514 515 516
v -70.037 1.418 148.048
v -87.057 1.548 158.678
v -84.143 1.566 163.342
v -67.123 1.367 152.712
f 517 518 519 520
v -87.623 1.549 159.147
v -122.263 1.506 196.767
v -118.217 1.496 200.493
v -83.577 1.582 162.873
f 521 522 523 524
v -118.365 1.471 196.618
v -132.435 1.569 183.508
v -136.185 1.562 187.532
v -122.115 1.485 200.642
f 525 526 527 528
v -121.267 1.480 201.181
v -93.587 1.528 212.321
v -91.533 1.618 207.219
v -119.213 1.481 196.079
f 529 530 531 532
v -90.393 1.604 211.463
v -57.003 1.407 168.733
v -61.337 1.357 165.347
v -94.727 1.566 208.077
f 533 534 535 536
v -57.717 1.423 169.375
v -46.997 1.225 162.705
v -49.903 1.201 158.035
v -60.623 1.339 164.705
f 537 538 539 540
v -70.974 1.410 151.732
v -61.564 1.367 168.392
v -56.776 1.268 165.688
v -66.186 1.340 149.028
f 541 542 543 544
v -56.109 1.363 130.256
v -45.179 1.163 137.566
v -42.121 1.157 132.994
v -53.051 1.313 125.684
f 545 546 547 548
v -94.403 1.516 211.811
v -67.423 1.604 236.171
v -63.737 1.667 232.089
v -90.717 1.624 207.729
f 549 550 551 552
v 71.250 1.546 -33.974
v 77.170 1.496 -51.154
v 71.970 1.486 -52.946
v 66.050 1.546 -35.766
f 553 554 555 556
v 76.539 1.501 -50.131
v 96.119 1.512 -70.221
v 92.181 1.456 -74.059
v 72.601 1.487 -53.969
f 557 558 559 560
v 91.433 1.452 -72.562
v 83.053 1.491 -18.592
v 88.487 1.507 -17.748
v 96.867 1.522 -71.718
f 561 562 563 564
v -134.950 1.587 183.891
v -148.310 1.522 189.141
v -147.030 1.527 192.399
v -133.670 1.561 187.149
f 565 566 567 568
v -148.917 1.524 189.542
v -213.161 1.281 254.772
v -210.667 1.485 257.228
v -146.423 1.541 191.998
f 569 570 571 572
v 165.349 1.328 225.902
v 127.199 1.492 213.792
v 126.141 1.533 217.128
v 164.291 1.318 229.238
f 573 574 575 576
v 127.079 1.492 213.758
v 90.199 1.507 204.898
v 89.381 1.451 208.302
v 126.261 1.531 217.162
f 577 578 579 580
v 117.129 1.477 256.467
v 128.357 1.501 215.927
v 124.983 1.533 214.993
v 113.756 1.569 255.533
f 581 582 583 584
v 176.933 1.596 255.568
v 185.573 1.667 235.008
v 182.347 1.705 233.652
v 173.707 1.677 254.212
f 585 586 587 588
v 185.507 1.667 235.147
v 196.257 1.643 214.797
v 193.163 1.691 213.163
v 182.413 1.705 233.513
f 589 590 591 592
v 196.227 1.643 214.853
v 208.117 1.669 194.203
v 205.083 1.677 192.457
v 193.193 1.690 213.107
f 593 594 595 596
v 208.008 1.670 194.369
v 216.388 1.592 183.009
v 213.572 1.647 180.931
v 205.192 1.677 192.291
f 597 598 599 600
v 216.251 1.595 183.172
v 217.471 1.570 181.882
v 214.929 1.625 179.478
v 213.709 1.645 180.768
f 601 602 603 604
v 217.471 1.570 181.883
v 224.581 1.480 174.373
v 222.039 1.430 171.967
v 214.929 1.625 179.477
f 605 606 607 608
v 224.573 1.480 174.381
v 229.243 1.528 169.511
v 226.717 1.456 167.089
v 222.047 1.430 171.959
f 609 610 611 612
v 229.242 1.528 169.513
v 241.042 1.461 157.233
v 238.518 1.486 154.807
v 226.718 1.456 167.087
f 613 614 615 616
v 200.972 1.675 13.865
v 197.532 1.623 19.555
v 200.528 1.596 21.365
v 203.968 1.667 15.675
f 617 618 619 620
v 197.534 1.623 19.552
v 172.114 1.802 61.432
v 175.106 1.807 63.248
v 200.526 1.596 21.368
f 621 622 623 624
v 211.718 1.311 155.321
v 216.508 1.313 159.851
v 218.912 1.305 157.309
v 214.122 1.304 152.779
f 625 626 627 628
v 216.507 1.313 159.851
v 226.777 1.485 169.571
v 229.183 1.489 167.029
v 218.913 1.305 157.309
f 629 630 631 632
v 237.178 1.639 202.158
v 220.978 1.601 217.468
v 223.382 1.669 220.012
v 239.582 1.689 204.702
f 633 634 635 636
v 220.775 1.603 217.697
v 200.385 1.667 245.167
v 203.195 1.753 247.253
v 223.585 1.669 219.783
f 637 638 639 640
v 200.304 1.667 245.285
v 194.434 1.687 254.715
v 197.406 1.767 256.565
v 203.276 1.752 247.135
f 641 642 643 644
v 238.568 1.477 157.283
v 254.788 1.450 172.850
v 257.212 1.452 170.325
v 240.992 1.465 154.757
f 645 646 647 648
v 214.947 1.616 181.901
v 232.977 1.578 200.401
v 235.483 1.590 197.959
v 217.453 1.565 179.459
f 649 650 651 652
v 232.978 1.578 200.403
v 237.128 1.653 204.653
v 239.632 1.700 202.207
v 235.482 1.590 197.957
f 653 654 655 656
v 198.276 1.667 -20.611
v 207.856 1.643 -20.971
v 207.724 1.658 -24.469
v 198.144 1.665 -24.109
f 657 658 659 660
v 206.967 1.642 -21.175
v 251.387 1.475 2.485
v 253.033 1.486 -0.605
v 208.613 1.662 -24.265
f 661 662 663 664
v 30.119 1.339 56.634
v 49.219 1.419 75.844
v 51.701 1.403 73.376
v 32.601 1.349 54.166
f 665 666 667 668
v 161.223 1.348 178.275
v 182.883 1.279 193.065
v 184.857 1.282 190.175
v 163.197 1.342 175.385
f 669 670 671 672
usemtl asphalt
