# Baked ultra-low Key West silhouette; generated by bake_key_west_far_city.py
mtllib far_city.mtl
usemtl massing
v 227.762 0.740 -93.649
v 243.495 0.740 -119.099
v 257.938 0.740 -110.171
v 242.205 0.740 -84.721
v 227.762 4.640 -93.649
v 243.495 4.640 -119.099
v 257.938 4.640 -110.171
v 242.205 4.640 -84.721
f 8 7 6 5
f 1 2 6 5
f 2 3 7 6
f 3 4 8 7
f 4 1 5 8
v 228.600 -0.300 -71.058
v 291.212 -0.300 15.932
v 236.240 -0.300 55.498
v 173.628 -0.300 -31.492
v 228.600 6.500 -71.058
v 291.212 6.500 15.932
v 236.240 6.500 55.498
v 173.628 6.500 -31.492
f 16 15 14 13
f 9 10 14 13
f 10 11 15 14
f 11 12 16 15
f 12 9 13 16
v 78.146 -0.300 -4.045
v 176.019 -0.300 -5.151
v 176.814 -0.300 65.225
v 78.941 -0.300 66.331
v 78.146 8.000 -4.045
v 176.019 8.000 -5.151
v 176.814 8.000 65.225
v 78.941 8.000 66.331
f 24 23 22 21
f 17 18 22 21
f 18 19 23 22
f 19 20 24 23
f 20 17 21 24
v 116.280 1.754 -24.430
v 140.024 1.754 4.038
v 123.920 1.754 17.470
v 100.176 1.754 -10.998
v 116.280 11.054 -24.430
v 140.024 11.054 4.038
v 123.920 11.054 17.470
v 100.176 11.054 -10.998
f 32 31 30 29
f 25 26 30 29
f 26 27 31 30
f 27 28 32 31
f 28 25 29 32
v 29.506 0.389 -19.118
v 47.871 0.389 -41.029
v 59.834 0.389 -31.002
v 41.469 0.389 -9.091
v 29.506 4.289 -19.118
v 47.871 4.289 -41.029
v 59.834 4.289 -31.002
v 41.469 4.289 -9.091
f 40 39 38 37
f 33 34 38 37
f 34 35 39 38
f 35 36 40 39
f 36 33 37 40
v -106.364 0.609 51.592
v -79.696 0.609 85.743
v -99.936 0.609 101.548
v -126.604 0.609 67.397
v -106.364 6.409 51.592
v -79.696 6.409 85.743
v -99.936 6.409 101.548
v -126.604 6.409 67.397
f 48 47 46 45
f 41 42 46 45
f 42 43 47 46
f 43 44 48 47
f 44 41 45 48
v 2.749 1.161 75.928
v 40.938 1.161 102.582
v 23.511 1.161 127.552
v -14.678 1.161 100.898
v 2.749 10.461 75.928
v 40.938 10.461 102.582
v 23.511 10.461 127.552
v -14.678 10.461 100.898
f 56 55 54 53
f 49 50 54 53
f 50 51 55 54
f 51 52 56 55
f 52 49 53 56
v -112.230 0.689 182.243
v -92.048 0.689 202.196
v -100.710 0.689 210.957
v -120.892 0.689 191.004
v -112.230 7.489 182.243
v -92.048 7.489 202.196
v -100.710 7.489 210.957
v -120.892 7.489 191.004
f 64 63 62 61
f 57 58 62 61
f 58 59 63 62
f 59 60 64 63
f 60 57 61 64
v -139.869 0.716 197.332
v -125.781 0.716 214.451
v -142.011 0.716 227.808
v -156.099 0.716 210.689
v -139.869 4.616 197.332
v -125.781 4.616 214.451
v -142.011 4.616 227.808
v -156.099 4.616 210.689
f 72 71 70 69
f 65 66 70 69
f 66 67 71 70
f 67 68 72 71
f 68 65 69 72
v -188.970 0.703 255.182
v -165.751 0.703 222.463
v -150.990 0.703 232.938
v -174.209 0.703 265.657
v -188.970 4.203 255.182
v -165.751 4.203 222.463
v -150.990 4.203 232.938
v -174.209 4.203 265.657
f 80 79 78 77
f 73 74 78 77
f 74 75 79 78
f 75 76 80 79
f 76 73 77 80
v -216.168 1.304 234.852
v -191.260 1.304 239.234
v -195.572 1.304 263.748
v -220.480 1.304 259.366
v -216.168 7.104 234.852
v -191.260 7.104 239.234
v -195.572 7.104 263.748
v -220.480 7.104 259.366
f 88 87 86 85
f 81 82 86 85
f 82 83 87 86
f 83 84 88 87
f 84 81 85 88
v -26.992 1.107 37.832
v -5.269 1.107 16.608
v 8.352 1.107 30.548
v -13.371 1.107 51.772
v -26.992 5.007 37.832
v -5.269 5.007 16.608
v 8.352 5.007 30.548
v -13.371 5.007 51.772
f 96 95 94 93
f 89 90 94 93
f 90 91 95 94
f 91 92 96 95
f 92 89 93 96
v 33.972 0.586 182.872
v 43.946 0.586 163.016
v 57.028 0.586 169.588
v 47.054 0.586 189.444
v 33.972 4.486 182.872
v 43.946 4.486 163.016
v 57.028 4.486 169.588
v 47.054 4.486 189.444
f 104 103 102 101
f 97 98 102 101
f 98 99 103 102
f 99 100 104 103
f 100 97 101 104
v 111.717 0.537 185.224
v 117.859 0.537 169.759
v 125.303 0.537 172.716
v 119.161 0.537 188.181
v 111.717 4.437 185.224
v 117.859 4.437 169.759
v 125.303 4.437 172.716
v 119.161 4.437 188.181
f 112 111 110 109
f 105 106 110 109
f 106 107 111 110
f 107 108 112 111
f 108 105 109 112
v 31.591 0.322 222.413
v 40.561 0.322 206.899
v 52.889 0.322 214.027
v 43.919 0.322 229.541
v 31.591 4.222 222.413
v 40.561 4.222 206.899
v 52.889 4.222 214.027
v 43.919 4.222 229.541
f 120 119 118 117
f 113 114 118 117
f 114 115 119 118
f 115 116 120 119
f 116 113 117 120
v 19.938 0.326 -108.132
v 45.233 0.326 -82.334
v 30.602 0.326 -67.988
v 5.307 0.326 -93.786
v 19.938 6.126 -108.132
v 45.233 6.126 -82.334
v 30.602 6.126 -67.988
v 5.307 6.126 -93.786
f 128 127 126 125
f 121 122 126 125
f 122 123 127 126
f 123 124 128 127
f 124 121 125 128
v 61.206 -0.300 -109.189
v 78.948 -0.300 -81.769
v 61.334 -0.300 -70.371
v 43.592 -0.300 -97.791
v 61.206 3.600 -109.189
v 78.948 3.600 -81.769
v 61.334 3.600 -70.371
v 43.592 3.600 -97.791
f 136 135 134 133
f 129 130 134 133
f 130 131 135 134
f 131 132 136 135
f 132 129 133 136
v 140.618 1.315 -25.242
v 155.183 1.315 -44.581
v 164.402 1.315 -37.638
v 149.837 1.315 -18.299
v 140.618 5.215 -25.242
v 155.183 5.215 -44.581
v 164.402 5.215 -37.638
v 149.837 5.215 -18.299
f 144 143 142 141
f 137 138 142 141
f 138 139 143 142
f 139 140 144 143
f 140 137 141 144
v -263.975 -0.300 -40.424
v -255.835 -0.300 -54.024
v -246.165 -0.300 -48.236
v -254.305 -0.300 -34.636
v -263.975 3.600 -40.424
v -255.835 3.600 -54.024
v -246.165 3.600 -48.236
v -254.305 3.600 -34.636
f 152 151 150 149
f 145 146 150 149
f 146 147 151 150
f 147 148 152 151
f 148 145 149 152
v 83.039 0.411 111.789
v 91.368 0.411 97.234
v 102.721 0.411 103.731
v 94.392 0.411 118.286
v 83.039 4.311 111.789
v 91.368 4.311 97.234
v 102.721 4.311 103.731
v 94.392 4.311 118.286
f 160 159 158 157
f 153 154 158 157
f 154 155 159 158
f 155 156 160 159
f 156 153 157 160
v 246.215 0.542 33.211
v 253.507 0.542 36.064
v 251.885 0.542 40.209
v 244.593 0.542 37.356
v 246.215 4.442 33.211
v 253.507 4.442 36.064
v 251.885 4.442 40.209
v 244.593 4.442 37.356
f 168 167 166 165
f 161 162 166 165
f 162 163 167 166
f 163 164 168 167
f 164 161 165 168
v -19.633 0.737 166.447
v -11.020 0.737 154.325
v -3.887 0.737 159.393
v -12.500 0.737 171.515
v -19.633 4.637 166.447
v -11.020 4.637 154.325
v -3.887 4.637 159.393
v -12.500 4.637 171.515
f 176 175 174 173
f 169 170 174 173
f 170 171 175 174
f 171 172 176 175
f 172 169 173 176
v -84.089 1.303 -78.824
v -81.986 1.303 -60.907
v -94.351 1.303 -59.456
v -96.454 1.303 -77.373
v -84.089 5.203 -78.824
v -81.986 5.203 -60.907
v -94.351 5.203 -59.456
v -96.454 5.203 -77.373
f 184 183 182 181
f 177 178 182 181
f 178 179 183 182
f 179 180 184 183
f 180 177 181 184
v -83.905 1.396 -85.028
v -76.348 1.396 -85.628
v -76.015 1.396 -81.432
v -83.572 1.396 -80.832
v -83.905 5.296 -85.028
v -76.348 5.296 -85.628
v -76.015 5.296 -81.432
v -83.572 5.296 -80.832
f 192 191 190 189
f 185 186 190 189
f 186 187 191 190
f 187 188 192 191
f 188 185 189 192
v 8.745 0.960 130.448
v 36.019 0.960 127.819
v 38.255 0.960 151.012
v 10.981 0.960 153.641
v 8.745 4.860 130.448
v 36.019 4.860 127.819
v 38.255 4.860 151.012
v 10.981 4.860 153.641
f 200 199 198 197
f 193 194 198 197
f 194 195 199 198
f 195 196 200 199
f 196 193 197 200
v -141.342 0.709 -45.149
v -127.647 0.709 -45.787
v -127.018 0.709 -32.271
v -140.713 0.709 -31.633
v -141.342 4.609 -45.149
v -127.647 4.609 -45.787
v -127.018 4.609 -32.271
v -140.713 4.609 -31.633
f 208 207 206 205
f 201 202 206 205
f 202 203 207 206
f 203 204 208 207
f 204 201 205 208
v -44.302 0.553 177.079
v -30.749 0.553 164.604
v -21.438 0.553 174.721
v -34.991 0.553 187.196
v -44.302 4.453 177.079
v -30.749 4.453 164.604
v -21.438 4.453 174.721
v -34.991 4.453 187.196
f 216 215 214 213
f 209 210 214 213
f 210 211 215 214
f 211 212 216 215
f 212 209 213 216
v -34.954 -0.300 48.604
v -30.752 -0.300 43.763
v -26.266 -0.300 47.656
v -30.468 -0.300 52.497
v -34.954 3.600 48.604
v -30.752 3.600 43.763
v -26.266 3.600 47.656
v -30.468 3.600 52.497
f 224 223 222 221
f 217 218 222 221
f 218 219 223 222
f 219 220 224 223
f 220 217 221 224
v 67.729 0.329 116.644
v 77.215 0.329 102.070
v 88.471 0.329 109.396
v 78.985 0.329 123.970
v 67.729 4.229 116.644
v 77.215 4.229 102.070
v 88.471 4.229 109.396
v 78.985 4.229 123.970
f 232 231 230 229
f 225 226 230 229
f 226 227 231 230
f 227 228 232 231
f 228 225 229 232
v 100.421 0.216 88.112
v 101.704 0.216 84.801
v 104.819 0.216 86.008
v 103.536 0.216 89.319
v 100.421 4.116 88.112
v 101.704 4.116 84.801
v 104.819 4.116 86.008
v 103.536 4.116 89.319
f 240 239 238 237
f 233 234 238 237
f 234 235 239 238
f 235 236 240 239
f 236 233 237 240
v -237.152 -0.300 -45.918
v -227.299 -0.300 -46.499
v -226.848 -0.300 -38.862
v -236.701 -0.300 -38.281
v -237.152 3.600 -45.918
v -227.299 3.600 -46.499
v -226.848 3.600 -38.862
v -236.701 3.600 -38.281
f 248 247 246 245
f 241 242 246 245
f 242 243 247 246
f 243 244 248 247
f 244 241 245 248
v -72.034 1.408 14.534
v -51.119 1.408 14.998
v -51.346 1.408 25.206
v -72.261 1.408 24.742
v -72.034 5.308 14.534
v -51.119 5.308 14.998
v -51.346 5.308 25.206
v -72.261 5.308 24.742
f 256 255 254 253
f 249 250 254 253
f 250 251 255 254
f 251 252 256 255
f 252 249 253 256
v 54.108 0.836 109.967
v 71.823 0.836 116.319
v 67.472 0.836 128.453
v 49.757 0.836 122.101
v 54.108 4.736 109.967
v 71.823 4.736 116.319
v 67.472 4.736 128.453
v 49.757 4.736 122.101
f 264 263 262 261
f 257 258 262 261
f 258 259 263 262
f 259 260 264 263
f 260 257 261 264
v -244.319 -0.300 -63.437
v -242.377 -0.300 -46.880
v -250.541 -0.300 -45.923
v -252.483 -0.300 -62.480
v -244.319 3.600 -63.437
v -242.377 3.600 -46.880
v -250.541 3.600 -45.923
v -252.483 3.600 -62.480
f 272 271 270 269
f 265 266 270 269
f 266 267 271 270
f 267 268 272 271
f 268 265 269 272
v 70.608 0.046 97.669
v 73.803 0.046 98.454
v 73.032 0.046 101.591
v 69.837 0.046 100.806
v 70.608 3.946 97.669
v 73.803 3.946 98.454
v 73.032 3.946 101.591
v 69.837 3.946 100.806
f 280 279 278 277
f 273 274 278 277
f 274 275 279 278
f 275 276 280 279
f 276 273 277 280
v -174.132 0.776 -109.169
v -101.406 0.776 -59.978
v -124.488 0.776 -25.851
v -197.214 0.776 -75.042
v -174.132 9.076 -109.169
v -101.406 9.076 -59.978
v -124.488 9.076 -25.851
v -197.214 9.076 -75.042
f 288 287 286 285
f 281 282 286 285
f 282 283 287 286
f 283 284 288 287
f 284 281 285 288
v -49.343 1.347 21.598
v -25.727 1.347 7.007
v -16.697 1.347 21.622
v -40.313 1.347 36.213
v -49.343 5.247 21.598
v -25.727 5.247 7.007
v -16.697 5.247 21.622
v -40.313 5.247 36.213
f 296 295 294 293
f 289 290 294 293
f 290 291 295 294
f 291 292 296 295
f 292 289 293 296
v -76.068 1.424 -6.708
v -70.738 1.424 22.754
v -86.512 1.424 25.608
v -91.842 1.424 -3.854
v -76.068 5.324 -6.708
v -70.738 5.324 22.754
v -86.512 5.324 25.608
v -91.842 5.324 -3.854
f 304 303 302 301
f 297 298 302 301
f 298 299 303 302
f 299 300 304 303
f 300 297 301 304
v -234.243 1.610 -13.547
v -230.931 1.610 12.342
v -242.377 1.610 13.807
v -245.689 1.610 -12.082
v -234.243 5.510 -13.547
v -230.931 5.510 12.342
v -242.377 5.510 13.807
v -245.689 5.510 -12.082
f 312 311 310 309
f 305 306 310 309
f 306 307 311 310
f 307 308 312 311
f 308 305 309 312
v -218.301 1.213 -1.537
v -214.477 1.213 12.024
v -227.999 1.213 15.837
v -231.823 1.213 2.276
v -218.301 5.113 -1.537
v -214.477 5.113 12.024
v -227.999 5.113 15.837
v -231.823 5.113 2.276
f 320 319 318 317
f 313 314 318 317
f 314 315 319 318
f 315 316 320 319
f 316 313 317 320
v -208.047 1.418 3.442
v -195.691 1.418 1.999
v -194.473 1.418 12.438
v -206.829 1.418 13.881
v -208.047 5.318 3.442
v -195.691 5.318 1.999
v -194.473 5.318 12.438
v -206.829 5.318 13.881
f 328 327 326 325
f 321 322 326 325
f 322 323 327 326
f 323 324 328 327
f 324 321 325 328
v -193.795 1.022 -10.041
v -193.044 1.022 -1.474
v -200.525 1.022 -0.819
v -201.276 1.022 -9.386
v -193.795 4.922 -10.041
v -193.044 4.922 -1.474
v -200.525 4.922 -0.819
v -201.276 4.922 -9.386
f 336 335 334 333
f 329 330 334 333
f 330 331 335 334
f 331 332 336 335
f 332 329 333 336
v -198.702 1.054 -42.865
v -197.315 1.054 -35.423
v -201.218 1.054 -34.695
v -202.605 1.054 -42.137
v -198.702 4.954 -42.865
v -197.315 4.954 -35.423
v -201.218 4.954 -34.695
v -202.605 4.954 -42.137
f 344 343 342 341
f 337 338 342 341
f 338 339 343 342
f 339 340 344 343
f 340 337 341 344
v -169.103 1.042 -24.781
v -149.010 1.042 5.078
v -172.257 1.042 20.721
v -192.350 1.042 -9.138
v -169.103 6.842 -24.781
v -149.010 6.842 5.078
v -172.257 6.842 20.721
v -192.350 6.842 -9.138
f 352 351 350 349
f 345 346 350 349
f 346 347 351 350
f 347 348 352 351
f 348 345 349 352
v -134.208 1.820 -15.681
v -131.076 1.820 24.357
v -148.512 1.820 25.721
v -151.644 1.820 -14.317
v -134.208 7.620 -15.681
v -131.076 7.620 24.357
v -148.512 7.620 25.721
v -151.644 7.620 -14.317
f 360 359 358 357
f 353 354 358 357
f 354 355 359 358
f 355 356 360 359
f 356 353 357 360
v -117.672 1.450 -14.433
v -110.216 1.450 22.899
v -125.308 1.450 25.913
v -132.764 1.450 -11.419
v -117.672 5.350 -14.433
v -110.216 5.350 22.899
v -125.308 5.350 25.913
v -132.764 5.350 -11.419
f 368 367 366 365
f 361 362 366 365
f 362 363 367 366
f 363 364 368 367
f 364 361 365 368
v -96.201 1.310 -9.411
v -93.540 1.310 10.724
v -107.519 1.310 12.571
v -110.180 1.310 -7.564
v -96.201 5.210 -9.411
v -93.540 5.210 10.724
v -107.519 5.210 12.571
v -110.180 5.210 -7.564
f 376 375 374 373
f 369 370 374 373
f 370 371 375 374
f 371 372 376 375
f 372 369 373 376
v 226.423 0.928 -206.818
v 256.182 0.928 -215.102
v 259.477 0.928 -203.262
v 229.718 0.928 -194.978
v 226.423 4.828 -206.818
v 256.182 4.828 -215.102
v 259.477 4.828 -203.262
v 229.718 4.828 -194.978
f 384 383 382 381
f 377 378 382 381
f 378 379 383 382
f 379 380 384 383
f 380 377 381 384
v 184.076 0.961 -218.090
v 211.681 0.961 -224.412
v 214.224 0.961 -213.310
v 186.619 0.961 -206.988
v 184.076 4.861 -218.090
v 211.681 4.861 -224.412
v 214.224 4.861 -213.310
v 186.619 4.861 -206.988
f 392 391 390 389
f 385 386 390 389
f 386 387 391 390
f 387 388 392 391
f 388 385 389 392
v 156.874 1.049 -228.617
v 181.823 1.049 -234.703
v 184.906 1.049 -222.063
v 159.957 1.049 -215.977
v 156.874 4.949 -228.617
v 181.823 4.949 -234.703
v 184.906 4.949 -222.063
v 159.957 4.949 -215.977
f 400 399 398 397
f 393 394 398 397
f 394 395 399 398
f 395 396 400 399
f 396 393 397 400
v 248.088 0.873 -261.113
v 254.569 0.873 -232.128
v 242.312 0.873 -229.387
v 235.831 0.873 -258.372
v 248.088 4.773 -261.113
v 254.569 4.773 -232.128
v 242.312 4.773 -229.387
v 235.831 4.773 -258.372
f 408 407 406 405
f 401 402 406 405
f 402 403 407 406
f 403 404 408 407
f 404 401 405 408
v 216.046 1.102 -268.507
v 222.197 1.102 -239.594
v 210.254 1.102 -237.053
v 204.103 1.102 -265.966
v 216.046 5.002 -268.507
v 222.197 5.002 -239.594
v 210.254 5.002 -237.053
v 204.103 5.002 -265.966
f 416 415 414 413
f 409 410 414 413
f 410 411 415 414
f 411 412 416 415
f 412 409 413 416
v 169.682 0.943 -255.492
v 201.953 0.943 -262.578
v 204.538 0.943 -250.808
v 172.267 0.943 -243.722
v 169.682 4.843 -255.492
v 201.953 4.843 -262.578
v 204.538 4.843 -250.808
v 172.267 4.843 -243.722
f 424 423 422 421
f 417 418 422 421
f 418 419 423 422
f 419 420 424 423
f 420 417 421 424
v -64.103 0.309 248.848
v -56.935 0.309 238.595
v -49.617 0.309 243.712
v -56.785 0.309 253.965
v -64.103 4.209 248.848
v -56.935 4.209 238.595
v -49.617 4.209 243.712
v -56.785 4.209 253.965
f 432 431 430 429
f 425 426 430 429
f 426 427 431 430
f 427 428 432 431
f 428 425 429 432
v -52.481 0.484 240.431
v -44.505 0.484 226.745
v -36.159 0.484 231.609
v -44.135 0.484 245.295
v -52.481 4.384 240.431
v -44.505 4.384 226.745
v -36.159 4.384 231.609
v -44.135 4.384 245.295
f 440 439 438 437
f 433 434 438 437
f 434 435 439 438
f 435 436 440 439
f 436 433 437 440
v -38.621 0.357 245.998
v -36.120 0.357 241.692
v -32.419 0.357 243.842
v -34.920 0.357 248.148
v -38.621 4.257 245.998
v -36.120 4.257 241.692
v -32.419 4.257 243.842
v -34.920 4.257 248.148
f 448 447 446 445
f 441 442 446 445
f 442 443 447 446
f 443 444 448 447
f 444 441 445 448
v -104.858 0.549 224.595
v -92.939 0.549 207.732
v -84.602 0.549 213.625
v -96.521 0.549 230.488
v -104.858 4.449 224.595
v -92.939 4.449 207.732
v -84.602 4.449 213.625
v -96.521 4.449 230.488
f 456 455 454 453
f 449 450 454 453
f 450 451 455 454
f 451 452 456 455
f 452 449 453 456
v -97.700 0.357 206.192
v -88.338 0.357 193.826
v -77.320 0.357 202.168
v -86.682 0.357 214.534
v -97.700 4.257 206.192
v -88.338 4.257 193.826
v -77.320 4.257 202.168
v -86.682 4.257 214.534
f 464 463 462 461
f 457 458 462 461
f 458 459 463 462
f 459 460 464 463
f 460 457 461 464
v -87.640 0.680 167.685
v -75.212 0.680 179.386
v -83.280 0.680 187.955
v -95.708 0.680 176.254
v -87.640 4.580 167.685
v -75.212 4.580 179.386
v -83.280 4.580 187.955
v -95.708 4.580 176.254
f 472 471 470 469
f 465 466 470 469
f 466 467 471 470
f 467 468 472 471
f 468 465 469 472
v -85.432 0.299 206.968
v -66.291 0.299 186.766
v -55.308 0.299 197.172
v -74.449 0.299 217.374
v -85.432 4.199 206.968
v -66.291 4.199 186.766
v -55.308 4.199 197.172
v -74.449 4.199 217.374
f 480 479 478 477
f 473 474 478 477
f 474 475 479 478
f 475 476 480 479
f 476 473 477 480
v -64.881 0.185 203.353
v -56.112 0.185 190.766
v -50.139 0.185 194.927
v -58.908 0.185 207.514
v -64.881 4.085 203.353
v -56.112 4.085 190.766
v -50.139 4.085 194.927
v -58.908 4.085 207.514
f 488 487 486 485
f 481 482 486 485
f 482 483 487 486
f 483 484 488 487
f 484 481 485 488
v -73.442 0.026 187.634
v -69.714 0.026 182.681
v -66.838 0.026 184.846
v -70.566 0.026 189.799
v -73.442 3.926 187.634
v -69.714 3.926 182.681
v -66.838 3.926 184.846
v -70.566 3.926 189.799
f 496 495 494 493
f 489 490 494 493
f 490 491 495 494
f 491 492 496 495
f 492 489 493 496
v -58.666 0.345 183.904
v -47.946 0.345 166.629
v -38.234 0.345 172.656
v -48.954 0.345 189.931
v -58.666 4.245 183.904
v -47.946 4.245 166.629
v -38.234 4.245 172.656
v -48.954 4.245 189.931
f 504 503 502 501
f 497 498 502 501
f 498 499 503 502
f 499 500 504 503
f 500 497 501 504
v -25.067 0.333 173.718
v -17.969 0.333 164.353
v -12.653 0.333 168.382
v -19.751 0.333 177.747
v -25.067 4.233 173.718
v -17.969 4.233 164.353
v -12.653 4.233 168.382
v -19.751 4.233 177.747
f 512 511 510 509
f 505 506 510 509
f 506 507 511 510
f 507 508 512 511
f 508 505 509 512
v -3.999 0.629 137.590
v 12.152 0.629 149.096
v 3.379 0.629 161.410
v -12.772 0.629 149.904
v -3.999 4.529 137.590
v 12.152 4.529 149.096
v 3.379 4.529 161.410
v -12.772 4.529 149.904
f 520 519 518 517
f 513 514 518 517
f 514 515 519 518
f 515 516 520 519
f 516 513 517 520
v 96.974 0.342 105.481
v 104.979 0.342 91.466
v 116.206 0.342 97.879
v 108.201 0.342 111.894
v 96.974 4.242 105.481
v 104.979 4.242 91.466
v 116.206 4.242 97.879
v 108.201 4.242 111.894
f 528 527 526 525
f 521 522 526 525
f 522 523 527 526
f 523 524 528 527
f 524 521 525 528
v 111.347 0.445 101.132
v 117.553 0.445 83.492
v 129.533 0.445 87.708
v 123.327 0.445 105.348
v 111.347 4.345 101.132
v 117.553 4.345 83.492
v 129.533 4.345 87.708
v 123.327 4.345 105.348
f 536 535 534 533
f 529 530 534 533
f 530 531 535 534
f 531 532 536 535
f 532 529 533 536
v 125.777 0.569 94.437
v 133.066 0.569 80.160
v 144.903 0.569 86.203
v 137.614 0.569 100.480
v 125.777 4.469 94.437
v 133.066 4.469 80.160
v 144.903 4.469 86.203
v 137.614 4.469 100.480
f 544 543 542 541
f 537 538 542 541
f 538 539 543 542
f 539 540 544 543
f 540 537 541 544
v 142.496 0.536 92.150
v 148.550 0.536 75.784
v 157.704 0.536 79.170
v 151.650 0.536 95.536
v 142.496 4.436 92.150
v 148.550 4.436 75.784
v 157.704 4.436 79.170
v 151.650 4.436 95.536
f 552 551 550 549
f 545 546 550 549
f 546 547 551 550
f 547 548 552 551
f 548 545 549 552
v 156.073 0.749 85.578
v 163.653 0.749 72.092
v 171.107 0.749 76.282
v 163.527 0.749 89.768
v 156.073 4.649 85.578
v 163.653 4.649 72.092
v 171.107 4.649 76.282
v 163.527 4.649 89.768
f 560 559 558 557
f 553 554 558 557
f 554 555 559 558
f 555 556 560 559
f 556 553 557 560
v 170.215 0.950 79.635
v 175.575 0.950 65.347
v 186.605 0.950 69.485
v 181.245 0.950 83.773
v 170.215 4.850 79.635
v 175.575 4.850 65.347
v 186.605 4.850 69.485
v 181.245 4.850 83.773
f 568 567 566 565
f 561 562 566 565
f 562 563 567 566
f 563 564 568 567
f 564 561 565 568
v 201.441 0.824 67.497
v 205.894 0.824 81.810
v 190.359 0.824 86.643
v 185.906 0.824 72.330
v 201.441 4.724 67.497
v 205.894 4.724 81.810
v 190.359 4.724 86.643
v 185.906 4.724 72.330
f 576 575 574 573
f 569 570 574 573
f 570 571 575 574
f 571 572 576 575
f 572 569 573 576
v 214.020 0.695 71.367
v 214.813 0.695 57.149
v 229.560 0.695 57.973
v 228.767 0.695 72.191
v 214.020 4.595 71.367
v 214.813 4.595 57.149
v 229.560 4.595 57.973
v 228.767 4.595 72.191
f 584 583 582 581
f 577 578 582 581
f 578 579 583 582
f 579 580 584 583
f 580 577 581 584
v 227.002 0.968 60.778
v 231.857 0.968 46.861
v 245.218 0.968 51.522
v 240.363 0.968 65.439
v 227.002 4.868 60.778
v 231.857 4.868 46.861
v 245.218 4.868 51.522
v 240.363 4.868 65.439
f 592 591 590 589
f 585 586 590 589
f 586 587 591 590
f 587 588 592 591
f 588 585 589 592
v 231.591 0.647 48.009
v 236.263 0.647 36.891
v 242.449 0.647 39.491
v 237.777 0.647 50.609
v 231.591 4.547 48.009
v 236.263 4.547 36.891
v 242.449 4.547 39.491
v 237.777 4.547 50.609
f 600 599 598 597
f 593 594 598 597
f 594 595 599 598
f 595 596 600 599
f 596 593 597 600
v 247.254 0.580 43.277
v 259.818 0.580 46.985
v 256.206 0.580 59.223
v 243.642 0.580 55.515
v 247.254 4.480 43.277
v 259.818 4.480 46.985
v 256.206 4.480 59.223
v 243.642 4.480 55.515
f 608 607 606 605
f 601 602 606 605
f 602 603 607 606
f 603 604 608 607
f 604 601 605 608
v 199.035 0.641 119.012
v 204.703 0.641 102.202
v 212.785 0.641 104.928
v 207.117 0.641 121.738
v 199.035 4.541 119.012
v 204.703 4.541 102.202
v 212.785 4.541 104.928
v 207.117 4.541 121.738
f 616 615 614 613
f 609 610 614 613
f 610 611 615 614
f 611 612 616 615
f 612 609 613 616
v 182.171 0.641 128.247
v 190.089 0.641 100.775
v 202.849 0.641 104.453
v 194.931 0.641 131.925
v 182.171 4.541 128.247
v 190.089 4.541 100.775
v 202.849 4.541 104.453
v 194.931 4.541 131.925
f 624 623 622 621
f 617 618 622 621
f 618 619 623 622
f 619 620 624 623
f 620 617 621 624
v 184.470 0.526 111.839
v 184.846 0.526 126.674
v 171.130 0.526 127.021
v 170.754 0.526 112.186
v 184.470 4.426 111.839
v 184.846 4.426 126.674
v 171.130 4.426 127.021
v 170.754 4.426 112.186
f 632 631 630 629
f 625 626 630 629
f 626 627 631 630
f 627 628 632 631
f 628 625 629 632
v 162.491 0.698 133.382
v 168.218 0.698 116.550
v 172.649 0.698 118.058
v 166.922 0.698 134.890
v 162.491 4.598 133.382
v 168.218 4.598 116.550
v 172.649 4.598 118.058
v 166.922 4.598 134.890
f 640 639 638 637
f 633 634 638 637
f 634 635 639 638
f 635 636 640 639
f 636 633 637 640
v 155.483 0.604 136.327
v 161.527 0.604 118.630
v 165.577 0.604 120.013
v 159.533 0.604 137.710
v 155.483 4.504 136.327
v 161.527 4.504 118.630
v 165.577 4.504 120.013
v 159.533 4.504 137.710
f 648 647 646 645
f 641 642 646 645
f 642 643 647 646
f 643 644 648 647
f 644 641 645 648
v 142.013 0.580 135.541
v 147.747 0.580 119.431
v 156.367 0.580 122.499
v 150.633 0.580 138.609
v 142.013 4.480 135.541
v 147.747 4.480 119.431
v 156.367 4.480 122.499
v 150.633 4.480 138.609
f 656 655 654 653
f 649 650 654 653
f 650 651 655 654
f 651 652 656 655
f 652 649 653 656
v 149.127 0.641 136.846
v 159.655 0.641 140.425
v 157.293 0.641 147.374
v 146.765 0.641 143.795
v 149.127 4.541 136.846
v 159.655 4.541 140.425
v 157.293 4.541 147.374
v 146.765 4.541 143.795
f 664 663 662 661
f 657 658 662 661
f 658 659 663 662
f 659 660 664 663
f 660 657 661 664
v 205.727 0.589 148.164
v 218.210 0.589 129.746
v 231.033 0.589 138.436
v 218.550 0.589 156.854
v 205.727 4.489 148.164
v 218.210 4.489 129.746
v 231.033 4.489 138.436
v 218.550 4.489 156.854
f 672 671 670 669
f 665 666 670 669
f 666 667 671 670
f 667 668 672 671
f 668 665 669 672
v 193.829 0.430 151.131
v 205.569 0.430 137.979
v 216.491 0.430 147.729
v 204.751 0.430 160.881
v 193.829 4.330 151.131
v 205.569 4.330 137.979
v 216.491 4.330 147.729
v 204.751 4.330 160.881
f 680 679 678 677
f 673 674 678 677
f 674 675 679 678
f 675 676 680 679
f 676 673 677 680
v 181.850 0.451 159.427
v 186.305 0.451 146.821
v 197.770 0.451 150.873
v 193.315 0.451 163.479
v 181.850 4.351 159.427
v 186.305 4.351 146.821
v 197.770 4.351 150.873
v 193.315 4.351 163.479
f 688 687 686 685
f 681 682 686 685
f 682 683 687 686
f 683 684 688 687
f 684 681 685 688
v 170.688 0.408 155.078
v 183.032 0.408 159.494
v 179.852 0.408 168.382
v 167.508 0.408 163.966
v 170.688 4.308 155.078
v 183.032 4.308 159.494
v 179.852 4.308 168.382
v 167.508 4.308 163.966
f 696 695 694 693
f 689 690 694 693
f 690 691 695 694
f 691 692 696 695
f 692 689 693 696
v 149.993 0.507 158.925
v 153.175 0.507 149.066
v 162.187 0.507 151.975
v 159.005 0.507 161.834
v 149.993 4.407 158.925
v 153.175 4.407 149.066
v 162.187 4.407 151.975
v 159.005 4.407 161.834
f 704 703 702 701
f 697 698 702 701
f 698 699 703 702
f 699 700 704 703
f 700 697 701 704
v 158.835 0.592 162.027
v 169.139 0.592 165.519
v 166.125 0.592 174.413
v 155.821 0.592 170.921
v 158.835 4.492 162.027
v 169.139 4.492 165.519
v 166.125 4.492 174.413
v 155.821 4.492 170.921
f 712 711 710 709
f 705 706 710 709
f 706 707 711 710
f 707 708 712 711
f 708 705 709 712
v 137.249 0.555 173.693
v 145.024 0.555 158.004
v 156.171 0.555 163.527
v 148.396 0.555 179.216
v 137.249 4.455 173.693
v 145.024 4.455 158.004
v 156.171 4.455 163.527
v 148.396 4.455 179.216
f 720 719 718 717
f 713 714 718 717
f 714 715 719 718
f 715 716 720 719
f 716 713 717 720
v 123.648 0.458 179.272
v 128.564 0.458 166.430
v 140.472 0.458 170.988
v 135.556 0.458 183.830
v 123.648 4.358 179.272
v 128.564 4.358 166.430
v 140.472 4.358 170.988
v 135.556 4.358 183.830
f 728 727 726 725
f 721 722 726 725
f 722 723 727 726
f 723 724 728 727
f 724 721 725 728
v 94.756 0.327 189.839
v 101.560 0.327 175.380
v 113.504 0.327 181.001
v 106.700 0.327 195.460
v 94.756 4.227 189.839
v 101.560 4.227 175.380
v 113.504 4.227 181.001
v 106.700 4.227 195.460
f 736 735 734 733
f 729 730 734 733
f 730 731 735 734
f 731 732 736 735
f 732 729 733 736
v 78.890 0.535 195.346
v 84.787 0.535 179.551
v 97.490 0.535 184.294
v 91.593 0.535 200.089
v 78.890 4.435 195.346
v 84.787 4.435 179.551
v 97.490 4.435 184.294
v 91.593 4.435 200.089
f 744 743 742 741
f 737 738 742 741
f 738 739 743 742
f 739 740 744 743
f 740 737 741 744
v 51.390 0.335 190.099
v 62.009 0.335 197.667
v 58.050 0.335 203.221
v 47.431 0.335 195.653
v 51.390 4.235 190.099
v 62.009 4.235 197.667
v 58.050 4.235 203.221
v 47.431 4.235 195.653
f 752 751 750 749
f 745 746 750 749
f 746 747 751 750
f 747 748 752 751
f 748 745 749 752
v 59.395 0.349 202.383
v 70.035 0.349 209.801
v 64.865 0.349 217.217
v 54.225 0.349 209.799
v 59.395 4.249 202.383
v 70.035 4.249 209.801
v 64.865 4.249 217.217
v 54.225 4.249 209.799
f 760 759 758 757
f 753 754 758 757
f 754 755 759 758
f 755 756 760 759
f 756 753 757 760
v 63.457 0.493 160.052
v 68.377 0.493 147.266
v 79.763 0.493 151.648
v 74.843 0.493 164.434
v 63.457 4.393 160.052
v 68.377 4.393 147.266
v 79.763 4.393 151.648
v 74.843 4.393 164.434
f 768 767 766 765
f 761 762 766 765
f 762 763 767 766
f 763 764 768 767
f 764 761 765 768
v 83.479 0.571 159.098
v 89.177 0.571 141.255
v 100.161 0.571 144.762
v 94.463 0.571 162.605
v 83.479 4.471 159.098
v 89.177 4.471 141.255
v 100.161 4.471 144.762
v 94.463 4.471 162.605
f 776 775 774 773
f 769 770 774 773
f 770 771 775 774
f 771 772 776 775
f 772 769 773 776
v 102.661 0.508 159.369
v 105.134 0.508 152.917
v 111.119 0.508 155.211
v 108.646 0.508 161.663
v 102.661 4.408 159.369
v 105.134 4.408 152.917
v 111.119 4.408 155.211
v 108.646 4.408 161.663
f 784 783 782 781
f 777 778 782 781
f 778 779 783 782
f 779 780 784 783
f 780 777 781 784
v 99.720 0.349 150.351
v 104.807 0.349 134.109
v 113.940 0.349 136.969
v 108.853 0.349 153.211
v 99.720 4.249 150.351
v 104.807 4.249 134.109
v 113.940 4.249 136.969
v 108.853 4.249 153.211
f 792 791 790 789
f 785 786 790 789
f 786 787 791 790
f 787 788 792 791
f 788 785 789 792
v 105.406 0.419 130.883
v 109.469 0.419 132.132
v 108.434 0.419 135.497
v 104.371 0.419 134.248
v 105.406 4.319 130.883
v 109.469 4.319 132.132
v 108.434 4.319 135.497
v 104.371 4.319 134.248
f 800 799 798 797
f 793 794 798 797
f 794 795 799 798
f 795 796 800 799
f 796 793 797 800
v 113.097 0.491 145.761
v 116.238 0.491 129.664
v 129.743 0.491 132.299
v 126.602 0.491 148.396
v 113.097 4.391 145.761
v 116.238 4.391 129.664
v 129.743 4.391 132.299
v 126.602 4.391 148.396
f 808 807 806 805
f 801 802 806 805
f 802 803 807 806
f 803 804 808 807
f 804 801 805 808
v 127.489 0.522 138.701
v 132.978 0.522 124.130
v 144.151 0.522 128.339
v 138.662 0.522 142.910
v 127.489 4.422 138.701
v 132.978 4.422 124.130
v 144.151 4.422 128.339
v 138.662 4.422 142.910
f 816 815 814 813
f 809 810 814 813
f 810 811 815 814
f 811 812 816 815
f 812 809 813 816
v 118.920 1.297 -258.172
v 131.861 1.297 -249.514
v 125.460 1.297 -239.948
v 112.519 1.297 -248.606
v 118.920 5.197 -258.172
v 131.861 5.197 -249.514
v 125.460 5.197 -239.948
v 112.519 5.197 -248.606
f 824 823 822 821
f 817 818 822 821
f 818 819 823 822
f 819 820 824 823
f 820 817 821 824
v 234.634 0.787 143.982
v 247.601 0.787 119.358
v 261.006 0.787 126.418
v 248.039 0.787 151.042
v 234.634 4.687 143.982
v 247.601 4.687 119.358
v 261.006 4.687 126.418
v 248.039 4.687 151.042
f 832 831 830 829
f 825 826 830 829
f 826 827 831 830
f 827 828 832 831
f 828 825 829 832
v 246.537 0.819 80.755
v 266.022 0.819 104.478
v 244.903 0.819 121.825
v 225.418 0.819 98.102
v 246.537 4.719 80.755
v 266.022 4.719 104.478
v 244.903 4.719 121.825
v 225.418 4.719 98.102
f 840 839 838 837
f 833 834 838 837
f 834 835 839 838
f 835 836 840 839
f 836 833 837 840
v 130.327 0.791 256.453
v 141.655 0.791 235.715
v 155.153 0.791 243.087
v 143.825 0.791 263.825
v 130.327 4.691 256.453
v 141.655 4.691 235.715
v 155.153 4.691 243.087
v 143.825 4.691 263.825
f 848 847 846 845
f 841 842 846 845
f 842 843 847 846
f 843 844 848 847
f 844 841 845 848
v 147.782 0.408 254.354
v 151.200 0.408 231.680
v 167.298 0.408 234.106
v 163.880 0.408 256.780
v 147.782 4.308 254.354
v 151.200 4.308 231.680
v 167.298 4.308 234.106
v 163.880 4.308 256.780
f 856 855 854 853
f 849 850 854 853
f 850 851 855 854
f 851 852 856 855
f 852 849 853 856
v 162.898 0.667 252.780
v 168.089 0.667 233.931
v 181.702 0.667 237.680
v 176.511 0.667 256.529
v 162.898 4.567 252.780
v 168.089 4.567 233.931
v 181.702 4.567 237.680
v 176.511 4.567 256.529
f 864 863 862 861
f 857 858 862 861
f 858 859 863 862
f 859 860 864 863
f 860 857 861 864
v 179.860 0.602 249.545
v 179.860 0.602 233.035
v 192.440 0.602 233.035
v 192.440 0.602 249.545
v 179.860 4.502 249.545
v 179.860 4.502 233.035
v 192.440 4.502 233.035
v 192.440 4.502 249.545
f 872 871 870 869
f 865 866 870 869
f 866 867 871 870
f 867 868 872 871
f 868 865 869 872
v 192.509 0.743 242.924
v 199.199 0.743 225.131
v 209.691 0.743 229.076
v 203.001 0.743 246.869
v 192.509 4.643 242.924
v 199.199 4.643 225.131
v 209.691 4.643 229.076
v 203.001 4.643 246.869
f 880 879 878 877
f 873 874 878 877
f 874 875 879 878
f 875 876 880 879
f 876 873 877 880
v 206.380 0.765 241.302
v 213.337 0.765 220.420
v 226.060 0.765 224.658
v 219.103 0.765 245.540
v 206.380 4.665 241.302
v 213.337 4.665 220.420
v 226.060 4.665 224.658
v 219.103 4.665 245.540
f 888 887 886 885
f 881 882 886 885
f 882 883 887 886
f 883 884 888 887
f 884 881 885 888
v 239.478 0.659 214.513
v 239.672 0.659 235.742
v 223.862 0.659 235.887
v 223.668 0.659 214.658
v 239.478 4.559 214.513
v 239.672 4.559 235.742
v 223.862 4.559 235.887
v 223.668 4.559 214.658
f 896 895 894 893
f 889 890 894 893
f 890 891 895 894
f 891 892 896 895
f 892 889 893 896
v 235.945 0.725 225.986
v 241.409 0.725 210.523
v 252.875 0.725 214.574
v 247.411 0.725 230.037
v 235.945 4.625 225.986
v 241.409 4.625 210.523
v 252.875 4.625 214.574
v 247.411 4.625 230.037
f 904 903 902 901
f 897 898 902 901
f 898 899 903 902
f 899 900 904 903
f 900 897 901 904
v 222.855 0.661 191.339
v 229.647 0.661 175.167
v 242.205 0.661 180.441
v 235.413 0.661 196.613
v 222.855 4.561 191.339
v 229.647 4.561 175.167
v 242.205 4.561 180.441
v 235.413 4.561 196.613
f 912 911 910 909
f 905 906 910 909
f 906 907 911 910
f 907 908 912 911
f 908 905 909 912
v 211.878 0.520 199.853
v 214.000 0.520 183.007
v 226.382 0.520 184.567
v 224.260 0.520 201.413
v 211.878 4.420 199.853
v 214.000 4.420 183.007
v 226.382 4.420 184.567
v 224.260 4.420 201.413
f 920 919 918 917
f 913 914 918 917
f 914 915 919 918
f 915 916 920 919
f 916 913 917 920
v 188.170 0.728 198.724
v 202.580 0.728 178.836
v 215.610 0.728 188.276
v 201.200 0.728 208.164
v 188.170 4.628 198.724
v 202.580 4.628 178.836
v 215.610 4.628 188.276
v 201.200 4.628 208.164
f 928 927 926 925
f 921 922 926 925
f 922 923 927 926
f 923 924 928 927
f 924 921 925 928
v 215.863 0.505 201.046
v 217.756 0.505 209.548
v 210.357 0.505 211.194
v 208.464 0.505 202.692
v 215.863 4.405 201.046
v 217.756 4.405 209.548
v 210.357 4.405 211.194
v 208.464 4.405 202.692
f 936 935 934 933
f 929 930 934 933
f 930 931 935 934
f 931 932 936 935
f 932 929 933 936
v 177.925 0.475 203.054
v 188.549 0.475 188.019
v 200.815 0.475 196.686
v 190.191 0.475 211.721
v 177.925 4.375 203.054
v 188.549 4.375 188.019
v 200.815 4.375 196.686
v 190.191 4.375 211.721
f 944 943 942 941
f 937 938 942 941
f 938 939 943 942
f 939 940 944 943
f 940 937 941 944
v 165.217 0.590 210.419
v 170.364 0.590 196.799
v 183.283 0.590 201.681
v 178.136 0.590 215.301
v 165.217 4.490 210.419
v 170.364 4.490 196.799
v 183.283 4.490 201.681
v 178.136 4.490 215.301
f 952 951 950 949
f 945 946 950 949
f 946 947 951 950
f 947 948 952 951
f 948 945 949 952
v 173.043 0.636 216.162
v 179.016 0.636 218.258
v 177.437 0.636 222.758
v 171.464 0.636 220.662
v 173.043 4.536 216.162
v 179.016 4.536 218.258
v 177.437 4.536 222.758
v 171.464 4.536 220.662
f 960 959 958 957
f 953 954 958 957
f 954 955 959 958
f 955 956 960 959
f 956 953 957 960
v 150.217 0.763 217.992
v 155.960 0.763 199.315
v 168.883 0.763 203.288
v 163.140 0.763 221.965
v 150.217 4.663 217.992
v 155.960 4.663 199.315
v 168.883 4.663 203.288
v 163.140 4.663 221.965
f 968 967 966 965
f 961 962 966 965
f 962 963 967 966
f 963 964 968 967
f 964 961 965 968
v 135.726 0.559 221.260
v 140.040 0.559 205.085
v 155.094 0.559 209.100
v 150.780 0.559 225.275
v 135.726 4.459 221.260
v 140.040 4.459 205.085
v 155.094 4.459 209.100
v 150.780 4.459 225.275
f 976 975 974 973
f 969 970 974 973
f 970 971 975 974
f 971 972 976 975
f 972 969 973 976
v 143.079 0.495 224.077
v 147.578 0.495 225.569
v 146.241 0.495 229.603
v 141.742 0.495 228.111
v 143.079 4.395 224.077
v 147.578 4.395 225.569
v 146.241 4.395 229.603
v 141.742 4.395 228.111
f 984 983 982 981
f 977 978 982 981
f 978 979 983 982
f 979 980 984 983
f 980 977 981 984
v 127.692 0.358 209.295
v 137.090 0.358 212.211
v 134.348 0.358 221.045
v 124.950 0.358 218.129
v 127.692 4.258 209.295
v 137.090 4.258 212.211
v 134.348 4.258 221.045
v 124.950 4.258 218.129
f 992 991 990 989
f 985 986 990 989
f 986 987 991 990
f 987 988 992 991
f 988 985 989 992
v 121.982 0.551 228.079
v 136.293 0.551 214.613
v 147.498 0.551 226.521
v 133.187 0.551 239.987
v 121.982 4.451 228.079
v 136.293 4.451 214.613
v 147.498 4.451 226.521
v 133.187 4.451 239.987
f 1000 999 998 997
f 993 994 998 997
f 994 995 999 998
f 995 996 1000 999
f 996 993 997 1000
v 107.208 0.440 216.596
v 117.849 0.440 224.306
v 111.272 0.440 233.384
v 100.631 0.440 225.674
v 107.208 4.340 216.596
v 117.849 4.340 224.306
v 111.272 4.340 233.384
v 100.631 4.340 225.674
f 1008 1007 1006 1005
f 1001 1002 1006 1005
f 1002 1003 1007 1006
f 1003 1004 1008 1007
f 1004 1001 1005 1008
v 109.028 0.302 233.373
v 117.859 0.302 236.473
v 115.712 0.302 242.587
v 106.881 0.302 239.487
v 109.028 4.202 233.373
v 117.859 4.202 236.473
v 115.712 4.202 242.587
v 106.881 4.202 239.487
f 1016 1015 1014 1013
f 1009 1010 1014 1013
f 1010 1011 1015 1014
f 1011 1012 1016 1015
f 1012 1009 1013 1016
v -199.201 0.832 45.087
v -199.080 0.832 55.357
v -205.539 0.832 55.433
v -205.660 0.832 45.163
v -199.201 4.732 45.087
v -199.080 4.732 55.357
v -205.539 4.732 55.433
v -205.660 4.732 45.163
f 1024 1023 1022 1021
f 1017 1018 1022 1021
f 1018 1019 1023 1022
f 1019 1020 1024 1023
f 1020 1017 1021 1024
v -168.838 -0.300 135.227
v -161.759 -0.300 125.168
v -155.642 -0.300 129.473
v -162.721 -0.300 139.532
v -168.838 3.600 135.227
v -161.759 3.600 125.168
v -155.642 3.600 129.473
v -162.721 3.600 139.532
f 1032 1031 1030 1029
f 1025 1026 1030 1029
f 1026 1027 1031 1030
f 1027 1028 1032 1031
f 1028 1025 1029 1032
v 243.799 0.633 -119.000
v 248.786 0.633 -114.246
v 245.501 0.633 -110.800
v 240.514 0.633 -115.554
v 243.799 4.533 -119.000
v 248.786 4.533 -114.246
v 245.501 4.533 -110.800
v 240.514 4.533 -115.554
f 1040 1039 1038 1037
f 1033 1034 1038 1037
f 1034 1035 1039 1038
f 1035 1036 1040 1039
f 1036 1033 1037 1040
v -44.954 0.336 233.482
v -39.161 0.336 217.968
v -24.406 0.336 223.478
v -30.199 0.336 238.992
v -44.954 4.236 233.482
v -39.161 4.236 217.968
v -24.406 4.236 223.478
v -30.199 4.236 238.992
f 1048 1047 1046 1045
f 1041 1042 1046 1045
f 1042 1043 1047 1046
f 1043 1044 1048 1047
f 1044 1041 1045 1048
v -34.454 0.521 225.116
v -15.731 0.521 206.990
v -4.526 0.521 218.564
v -23.249 0.521 236.690
v -34.454 4.421 225.116
v -15.731 4.421 206.990
v -4.526 4.421 218.564
v -23.249 4.421 236.690
f 1056 1055 1054 1053
f 1049 1050 1054 1053
f 1050 1051 1055 1054
f 1051 1052 1056 1055
f 1052 1049 1053 1056
v -17.600 0.359 218.243
v -7.162 0.359 200.159
v 3.300 0.359 206.197
v -7.138 0.359 224.281
v -17.600 4.259 218.243
v -7.162 4.259 200.159
v 3.300 4.259 206.197
v -7.138 4.259 224.281
f 1064 1063 1062 1061
f 1057 1058 1062 1061
f 1058 1059 1063 1062
f 1059 1060 1064 1063
f 1060 1057 1061 1064
v -8.108 0.296 203.638
v 5.870 0.296 189.798
v 16.388 0.296 200.422
v 2.410 0.296 214.262
v -8.108 4.196 203.638
v 5.870 4.196 189.798
v 16.388 4.196 200.422
v 2.410 4.196 214.262
f 1072 1071 1070 1069
f 1065 1066 1070 1069
f 1066 1067 1071 1070
f 1067 1068 1072 1071
f 1068 1065 1069 1072
v 0.371 0.319 188.767
v 16.954 0.319 178.603
v 24.009 0.319 190.113
v 7.426 0.319 200.277
v 0.371 4.219 188.767
v 16.954 4.219 178.603
v 24.009 4.219 190.113
v 7.426 4.219 200.277
f 1080 1079 1078 1077
f 1073 1074 1078 1077
f 1074 1075 1079 1078
f 1075 1076 1080 1079
f 1076 1073 1077 1080
v 25.865 0.574 172.268
v 37.572 0.574 182.088
v 30.355 0.574 190.692
v 18.648 0.574 180.872
v 25.865 4.474 172.268
v 37.572 4.474 182.088
v 30.355 4.474 190.692
v 18.648 4.474 180.872
f 1088 1087 1086 1085
f 1081 1082 1086 1085
f 1082 1083 1087 1086
f 1083 1084 1088 1087
f 1084 1081 1085 1088
v -8.680 0.580 252.064
v 2.463 0.580 238.609
v 11.020 0.580 245.696
v -0.123 0.580 259.151
v -8.680 4.480 252.064
v 2.463 4.480 238.609
v 11.020 4.480 245.696
v -0.123 4.480 259.151
f 1096 1095 1094 1093
f 1089 1090 1094 1093
f 1090 1091 1095 1094
f 1091 1092 1096 1095
f 1092 1089 1093 1096
v 18.719 0.424 227.105
v 33.317 0.424 220.364
v 40.821 0.424 236.615
v 26.223 0.424 243.356
v 18.719 4.324 227.105
v 33.317 4.324 220.364
v 40.821 4.324 236.615
v 26.223 4.324 243.356
f 1104 1103 1102 1101
f 1097 1098 1102 1101
f 1098 1099 1103 1102
f 1099 1100 1104 1103
f 1100 1097 1101 1104
v 0.389 0.385 245.968
v 7.856 0.385 223.697
v 23.111 0.385 228.812
v 15.644 0.385 251.083
v 0.389 4.285 245.968
v 7.856 4.285 223.697
v 23.111 4.285 228.812
v 15.644 4.285 251.083
f 1112 1111 1110 1109
f 1105 1106 1110 1109
f 1106 1107 1111 1110
f 1107 1108 1112 1111
f 1108 1105 1109 1112
v 51.394 1.629 61.090
v 66.595 1.629 43.816
v 75.566 1.629 51.710
v 60.365 1.629 68.984
v 51.394 5.529 61.090
v 66.595 5.529 43.816
v 75.566 5.529 51.710
v 60.365 5.529 68.984
f 1120 1119 1118 1117
f 1113 1114 1118 1117
f 1114 1115 1119 1118
f 1115 1116 1120 1119
f 1116 1113 1117 1120
v -58.181 0.659 114.862
v -12.952 0.659 146.367
v -20.719 0.659 157.518
v -65.948 0.659 126.013
v -58.181 6.459 114.862
v -12.952 6.459 146.367
v -20.719 6.459 157.518
v -65.948 6.459 126.013
f 1128 1127 1126 1125
f 1121 1122 1126 1125
f 1122 1123 1127 1126
f 1123 1124 1128 1127
f 1124 1121 1125 1128
usemtl road
v 44.771 0.537 146.800
v 63.611 0.550 182.970
v 68.489 0.538 180.430
v 49.649 0.550 144.260
f 1129 1130 1131 1132
v 63.612 0.550 182.971
v 81.382 0.680 217.051
v 86.258 0.642 214.509
v 68.488 0.538 180.429
f 1133 1134 1135 1136
v 81.376 0.680 217.041
v 98.656 0.686 250.531
v 103.544 0.650 248.009
v 86.264 0.642 214.519
f 1137 1138 1139 1140
v 116.183 1.249 -43.192
v 122.903 1.052 -35.862
v 126.957 1.035 -39.578
v 120.237 1.223 -46.908
f 1141 1142 1143 1144
v 122.898 1.052 -35.867
v 129.628 1.011 -28.487
v 133.692 1.007 -32.193
v 126.962 1.035 -39.573
f 1145 1146 1147 1148
v 129.628 1.011 -28.487
v 162.128 1.093 7.153
v 166.192 0.968 3.447
v 133.692 1.007 -32.193
f 1149 1150 1151 1152
v 162.128 1.093 7.153
v 192.138 0.985 40.073
v 196.202 1.103 36.367
v 166.192 0.968 3.447
f 1153 1154 1155 1156
v 192.141 0.985 40.076
v 195.681 0.950 43.946
v 199.739 1.015 40.234
v 196.199 1.103 36.364
f 1157 1158 1159 1160
v 195.361 0.955 43.520
v 196.791 0.933 45.870
v 201.489 0.977 43.010
v 200.059 1.008 40.660
f 1161 1162 1163 1164
v 196.796 0.932 45.879
v 198.816 0.927 49.169
v 203.504 0.949 46.291
v 201.484 0.977 43.001
f 1165 1166 1167 1168
v 198.578 0.926 48.676
v 212.288 0.966 86.086
v 217.452 0.960 84.194
v 203.742 0.948 46.784
f 1169 1170 1171 1172
v 212.268 0.965 86.029
v 225.258 0.801 124.059
v 230.462 0.818 122.281
v 217.472 0.960 84.251
f 1173 1174 1175 1176
v 225.258 0.801 124.060
v 237.828 0.762 160.830
v 243.032 0.786 159.050
v 230.462 0.818 122.280
f 1177 1178 1179 1180
v 237.834 0.762 160.847
v 250.804 0.810 197.967
v 255.996 0.779 196.153
v 243.026 0.786 159.033
f 1181 1182 1183 1184
v 213.972 0.959 82.541
v 64.692 0.533 134.121
v 66.488 0.526 139.319
v 215.768 0.960 87.739
f 1185 1186 1187 1188
v 64.401 0.528 134.240
v 46.021 0.522 143.050
v 48.399 0.548 148.010
v 66.779 0.524 139.200
f 1189 1190 1191 1192
v 45.616 0.522 143.289
v -96.434 0.628 244.369
v -93.246 0.652 248.851
v 48.804 0.547 147.771
f 1193 1194 1195 1196
v -96.428 0.628 244.365
v -101.858 0.564 248.205
v -98.682 0.560 252.695
v -93.252 0.652 248.855
f 1197 1198 1199 1200
v 255.138 1.036 234.970
v 199.362 1.007 253.389
v 201.086 1.072 258.611
v 256.862 1.052 240.192
f 1201 1202 1203 1204
v -258.497 0.949 227.789
v -255.887 0.792 233.443
v -250.893 0.781 231.137
v -253.503 0.955 225.483
f 1205 1206 1207 1208
v -255.896 0.793 233.423
v -253.306 0.699 239.153
v -248.294 0.673 236.887
v -250.884 0.780 231.157
f 1209 1210 1211 1212
v -253.069 0.690 239.574
v -240.749 0.572 257.554
v -236.212 0.442 254.446
v -248.531 0.682 236.466
f 1213 1214 1215 1216
v 239.526 0.767 157.343
v 88.746 0.630 209.853
v 90.554 0.528 215.047
v 241.334 0.790 162.537
f 1217 1218 1219 1220
v 88.286 0.632 210.062
v 82.456 0.687 213.392
v 85.184 0.634 218.168
v 91.014 0.523 214.838
f 1221 1222 1223 1224
v 82.238 0.689 213.530
v 76.648 0.654 217.460
v 79.812 0.638 221.960
v 85.402 0.630 218.030
f 1225 1226 1227 1228
v 76.646 0.654 217.462
v 62.886 0.721 227.162
v 66.054 0.681 231.658
v 79.814 0.638 221.958
f 1229 1230 1231 1232
v 62.886 0.721 227.162
v 25.167 0.685 253.752
v 28.336 0.658 258.248
v 66.054 0.681 231.658
f 1233 1234 1235 1236
v 109.902 1.177 -26.971
v 123.342 1.051 -39.581
v 113.078 1.095 -50.519
v 99.638 1.165 -37.909
f 1237 1238 1239 1240
v 123.238 1.052 -39.485
v 183.208 1.031 -93.675
v 173.152 1.059 -104.805
v 113.182 1.095 -50.615
f 1241 1242 1243 1244
v 183.252 1.032 -93.715
v 203.392 1.180 -112.205
v 193.248 1.162 -123.255
v 173.108 1.059 -104.765
f 1245 1246 1247 1248
v 203.394 1.180 -112.207
v 209.164 1.114 -117.507
v 199.016 1.147 -128.553
v 193.246 1.162 -123.253
f 1249 1250 1251 1252
v 209.060 1.114 -117.413
v 225.300 0.998 -131.783
v 215.360 1.027 -143.017
v 199.120 1.147 -128.647
f 1253 1254 1255 1256
v 225.354 0.998 -131.831
v 240.164 0.915 -145.191
v 230.116 0.923 -156.329
v 215.306 1.027 -142.969
f 1257 1258 1259 1260
v 240.161 0.915 -145.189
v 247.651 0.871 -151.939
v 237.609 0.878 -163.081
v 230.119 0.923 -156.331
f 1261 1262 1263 1264
v 222.147 1.147 -139.464
v 220.807 1.130 -140.644
v 217.173 1.155 -136.516
v 218.513 1.159 -135.336
f 1265 1266 1267 1268
v 220.629 1.126 -140.788
v 214.619 1.003 -145.248
v 211.341 1.017 -140.832
v 217.351 1.158 -136.372
f 1269 1270 1271 1272
v 214.941 1.000 -144.968
v 186.001 1.239 -174.408
v 182.079 1.406 -170.552
v 211.019 1.010 -141.112
f 1273 1274 1275 1276
v 186.023 1.238 -174.386
v 172.163 1.321 -188.806
v 168.197 1.480 -184.994
v 182.057 1.407 -170.574
f 1277 1278 1279 1280
v 172.212 1.320 -188.753
v 143.202 1.279 -220.573
v 139.138 1.453 -216.867
v 168.148 1.480 -185.047
f 1281 1282 1283 1284
v 143.834 1.281 -219.401
v 140.724 1.286 -231.571
v 135.396 1.378 -230.209
v 138.506 1.423 -218.039
f 1285 1286 1287 1288
v -106.850 0.825 -19.719
v -107.080 1.017 -36.139
v -112.580 0.957 -36.061
v -112.350 0.788 -19.641
f 1289 1290 1291 1292
v -107.174 1.020 -36.812
v -111.204 1.096 -51.842
v -116.516 0.998 -50.418
v -112.486 0.967 -35.388
f 1293 1294 1295 1296
v -111.597 1.092 -52.693
v -120.097 1.167 -65.003
v -124.623 1.388 -61.877
v -116.123 0.985 -49.567
f 1297 1298 1299 1300
v -121.069 1.172 -65.868
v -127.559 1.227 -69.318
v -130.141 1.415 -64.462
v -123.651 1.389 -61.012
f 1301 1302 1303 1304
v -128.505 1.231 -69.618
v -139.825 1.256 -71.048
v -140.515 1.541 -65.592
v -129.195 1.432 -64.162
f 1305 1306 1307 1308
v -141.139 1.239 -70.893
v -145.599 1.189 -69.213
v -143.661 1.490 -64.067
v -139.201 1.565 -65.747
f 1309 1310 1311 1312
v -147.007 1.203 -68.023
v -151.157 1.159 -60.893
v -146.403 1.295 -58.127
v -142.253 1.509 -65.257
f 1313 1314 1315 1316
v -151.412 1.162 -60.306
v -156.662 1.112 -42.936
v -151.398 1.149 -41.344
v -146.148 1.301 -58.714
f 1317 1318 1319 1320
v -156.774 1.112 -42.327
v -158.234 0.767 -20.917
v -152.746 0.757 -20.543
v -151.286 1.145 -41.953
f 1321 1322 1323 1324
v -140.992 1.117 185.787
v -135.242 0.929 194.127
v -129.478 0.882 190.153
v -135.228 1.101 181.813
f 1325 1326 1327 1328
v -135.236 0.929 194.135
v -117.556 0.772 219.625
v -111.804 0.739 215.635
v -129.484 0.882 190.145
f 1329 1330 1331 1332
v -117.568 0.772 219.607
v -97.728 0.602 248.587
v -91.952 0.625 244.633
v -111.792 0.739 215.653
f 1333 1334 1335 1336
v 24.255 1.217 39.819
v 17.515 1.050 34.389
v 14.065 1.062 38.671
v 20.805 1.237 44.101
f 1337 1338 1339 1340
v 17.605 1.051 34.464
v 12.655 1.134 30.114
v 9.025 1.087 34.246
v 13.975 1.059 38.596
f 1341 1342 1343 1344
v 12.305 1.142 29.853
v 0.745 1.242 22.573
v -2.185 1.331 27.227
v 9.375 1.085 34.507
f 1345 1346 1347 1348
v 0.512 1.237 22.441
v -18.588 1.428 12.871
v -21.052 1.415 17.789
v -1.952 1.332 27.359
f 1349 1350 1351 1352
v -19.128 1.444 12.669
v -30.928 1.493 9.599
v -32.312 1.492 14.921
v -20.512 1.409 17.991
f 1353 1354 1355 1356
v -30.920 1.493 9.600
v -36.280 1.490 8.190
v -37.680 1.517 13.510
v -32.320 1.492 14.920
f 1357 1358 1359 1360
v -36.180 1.489 8.219
v -47.030 1.394 4.919
v -48.630 1.479 10.181
v -37.780 1.517 13.481
f 1361 1362 1363 1364
v -46.105 1.429 5.408
v -51.505 1.333 1.058
v -54.955 1.380 5.342
v -49.555 1.478 9.692
f 1365 1366 1367 1368
v -51.387 1.335 1.159
v -59.227 1.360 -5.921
v -62.913 1.260 -1.839
v -55.073 1.379 5.241
f 1369 1370 1371 1372
v -59.121 1.358 -5.820
v -63.711 1.381 -10.430
v -67.609 1.209 -6.550
v -63.019 1.259 -1.940
f 1373 1374 1375 1376
v -63.866 1.376 -10.574
v -69.546 1.272 -15.464
v -73.134 1.209 -11.296
v -67.454 1.209 -6.406
f 1377 1378 1379 1380
v -70.416 1.233 -15.970
v -80.446 1.122 -19.550
v -82.294 1.112 -14.370
v -72.264 1.209 -10.790
f 1381 1382 1383 1384
v -81.029 1.121 -19.689
v -89.989 1.056 -20.809
v -90.671 1.115 -15.351
v -81.711 1.116 -14.231
f 1385 1386 1387 1388
v -90.101 1.056 -20.820
v -94.411 1.029 -21.180
v -94.869 1.206 -15.700
v -90.559 1.112 -15.340
f 1389 1390 1391 1392
v -94.413 1.029 -21.181
v -109.373 0.760 -22.421
v -109.827 0.871 -16.939
v -94.867 1.206 -15.699
f 1393 1394 1395 1396
v -109.445 0.759 -22.426
v -133.345 0.683 -23.776
v -133.655 0.742 -18.284
v -109.755 0.872 -16.934
f 1397 1398 1399 1400
v -133.538 0.683 -23.780
v -155.528 0.714 -23.480
v -155.452 0.840 -17.980
v -133.462 0.741 -18.280
f 1401 1402 1403 1404
v -155.464 0.713 -23.480
v -197.314 0.698 -23.880
v -197.366 0.794 -18.380
v -155.516 0.841 -17.980
f 1405 1406 1407 1408
v -197.059 0.697 -23.866
v -255.419 1.347 -29.866
v -255.981 1.521 -24.394
v -197.621 0.794 -18.394
f 1409 1410 1411 1412
v 147.172 1.246 -255.496
v 148.694 1.251 -250.436
v 152.046 1.259 -251.444
v 150.523 1.300 -256.504
f 1413 1414 1415 1416
v 149.083 1.247 -249.754
v 153.313 1.215 -245.164
v 155.887 1.248 -247.536
v 151.657 1.262 -252.126
f 1417 1418 1419 1420
v 153.687 1.216 -244.857
v 160.487 1.240 -240.697
v 162.313 1.167 -243.683
v 155.513 1.250 -247.843
f 1421 1422 1423 1424
v 160.878 1.245 -240.520
v 167.028 1.180 -238.600
v 168.072 1.133 -241.940
v 161.922 1.171 -243.860
f 1425 1426 1427 1428
v 167.186 1.177 -238.558
v 216.656 1.339 -228.028
v 217.384 1.336 -231.452
v 167.914 1.135 -241.982
f 1429 1430 1431 1432
v 216.657 1.339 -228.028
v 223.727 1.377 -226.528
v 224.453 1.347 -229.952
v 217.383 1.336 -231.452
f 1433 1434 1435 1436
v 223.674 1.377 -226.540
v 230.784 1.305 -224.800
v 231.616 1.339 -228.200
v 224.506 1.346 -229.940
f 1437 1438 1439 1440
v 230.785 1.305 -224.800
v 248.225 1.186 -220.540
v 249.055 1.179 -223.940
v 231.615 1.339 -228.200
f 1441 1442 1443 1444
v 221.095 1.256 -207.535
v 223.555 1.336 -218.145
v 220.145 1.335 -218.935
v 217.685 1.269 -208.325
f 1445 1446 1447 1448
v 223.555 1.336 -218.146
v 225.795 1.352 -227.846
v 222.385 1.369 -228.634
v 220.145 1.335 -218.934
f 1449 1450 1451 1452
v 225.795 1.352 -227.846
v 227.305 1.322 -234.386
v 223.895 1.302 -235.174
v 222.385 1.369 -228.634
f 1453 1454 1455 1456
v 185.245 1.284 -171.211
v 197.525 1.203 -182.871
v 195.115 1.223 -185.409
v 182.835 1.301 -173.749
f 1457 1458 1459 1460
v 218.468 1.281 -209.417
v 208.698 1.212 -203.357
v 210.542 1.292 -200.383
v 220.312 1.254 -206.443
f 1461 1462 1463 1464
v 208.427 1.209 -203.151
v 199.987 1.220 -195.291
v 202.373 1.243 -192.729
v 210.813 1.291 -200.589
f 1465 1466 1467 1468
v 199.610 1.225 -194.783
v 194.750 1.228 -184.913
v 197.890 1.198 -183.367
v 202.750 1.250 -193.237
f 1469 1470 1471 1472
v 196.933 1.218 -182.501
v 206.583 1.191 -186.111
v 205.357 1.233 -189.389
v 195.707 1.216 -185.779
f 1473 1474 1475 1476
v 207.087 1.194 -186.403
v 217.087 1.217 -194.693
v 214.853 1.245 -197.387
v 204.853 1.230 -189.097
f 1477 1478 1479 1480
v 217.652 1.229 -195.556
v 221.072 1.255 -207.446
v 217.708 1.269 -208.414
v 214.288 1.242 -196.524
f 1481 1482 1483 1484
v -181.370 0.486 71.288
v -181.590 0.759 59.438
v -185.090 0.715 59.502
v -184.870 0.476 71.352
f 1485 1486 1487 1488
v -181.766 0.741 60.235
v -180.226 0.799 57.065
v -183.374 0.825 55.535
v -184.914 0.741 58.705
f 1489 1490 1491 1492
v -180.507 0.796 57.479
v -178.127 0.802 54.869
v -180.713 0.798 52.511
v -183.093 0.826 55.121
f 1493 1494 1495 1496
v -178.509 0.803 55.184
v -175.489 0.776 53.344
v -177.311 0.749 50.356
v -180.331 0.793 52.196
f 1497 1498 1499 1500
v -175.949 0.780 53.541
v -172.539 0.744 52.631
v -173.441 0.716 49.249
v -176.851 0.744 50.159
f 1501 1502 1503 1504
v -173.034 0.751 52.689
v -169.484 0.715 52.779
v -169.396 0.690 49.281
v -172.946 0.713 49.191
f 1505 1506 1507 1508
v -169.721 0.717 52.757
v -157.651 0.592 54.717
v -157.089 0.601 51.263
v -169.159 0.689 49.303
f 1509 1510 1511 1512
v -158.013 0.595 54.618
v -141.193 0.565 61.258
v -139.907 0.524 58.002
v -156.727 0.605 51.362
f 1513 1514 1515 1516
v -142.177 0.544 60.275
v -123.037 0.571 108.545
v -119.783 0.354 107.255
v -138.923 0.534 58.985
f 1517 1518 1519 1520
v -120.380 0.120 109.315
v -68.920 0.710 71.865
v -70.980 0.742 69.035
v -122.440 0.579 106.485
f 1521 1522 1523 1524
v -66.116 0.661 76.505
v -63.716 0.422 83.535
v -60.404 0.722 82.405
v -62.804 0.673 75.375
f 1525 1526 1527 1528
v -63.333 0.375 84.171
v -50.873 1.107 97.381
v -48.327 1.128 94.979
v -60.787 0.710 81.769
f 1529 1530 1531 1532
v -50.853 1.108 97.402
v -44.943 1.288 103.462
v -42.437 1.316 101.018
v -48.347 1.128 94.958
f 1533 1534 1535 1536
v -166.753 0.120 123.623
v -192.013 0.670 88.773
v -194.847 0.655 90.827
v -169.587 0.120 125.677
f 1537 1538 1539 1540
v -191.680 0.653 89.810
v -191.590 0.469 74.140
v -195.090 0.474 74.120
v -195.180 0.643 89.790
f 1541 1542 1543 1544
v -192.876 0.494 75.817
v -182.656 0.502 73.007
v -183.584 0.517 69.633
v -193.804 0.489 72.443
f 1545 1546 1547 1548
v -182.655 0.502 73.007
v -140.505 0.571 61.397
v -141.435 0.516 58.023
v -183.585 0.517 69.633
f 1549 1550 1551 1552
v -140.643 0.571 61.429
v -140.223 0.572 61.349
v -140.877 0.518 57.911
v -141.297 0.517 57.991
f 1553 1554 1555 1556
v -140.250 0.572 61.354
v -101.510 0.698 54.624
v -102.110 0.606 51.176
v -140.850 0.518 57.906
f 1557 1558 1559 1560
v -101.730 0.695 54.648
v -95.580 0.719 54.368
v -95.740 0.625 50.872
v -101.890 0.605 51.152
f 1561 1562 1563 1564
v -95.996 0.718 54.338
v -89.956 0.763 55.518
v -89.284 0.603 52.082
v -95.324 0.626 50.902
f 1565 1566 1567 1568
v -90.353 0.761 55.389
v -84.783 0.768 57.959
v -83.317 0.627 54.781
v -88.887 0.602 52.211
f 1569 1570 1571 1572
v -85.287 0.760 57.608
v -71.187 0.697 71.688
v -68.713 0.768 69.212
v -82.813 0.630 55.132
f 1573 1574 1575 1576
v -71.187 0.697 71.687
v -65.697 0.659 77.177
v -63.223 0.677 74.703
v -68.713 0.768 69.213
f 1577 1578 1579 1580
v 21.233 1.244 43.135
v 27.823 1.044 50.405
v 30.417 1.040 48.055
v 23.827 1.225 40.785
f 1581 1582 1583 1584
v 27.870 1.044 50.455
v 55.500 1.179 78.635
v 58.000 1.218 76.185
v 30.370 1.039 48.005
f 1585 1586 1587 1588
v 55.644 1.179 78.766
v 58.954 1.205 81.466
v 61.166 1.229 78.754
v 57.856 1.217 76.054
f 1589 1590 1591 1592
v 59.513 1.210 81.772
v 64.013 1.209 83.252
v 65.107 1.218 79.928
v 60.607 1.228 78.448
f 1593 1594 1595 1596
v 64.387 1.207 83.331
v 68.817 1.168 83.771
v 69.163 1.162 80.289
v 64.733 1.220 79.849
f 1597 1598 1599 1600
v 69.747 1.164 83.608
v 73.957 1.142 81.588
v 72.443 1.136 78.432
v 68.233 1.174 80.452
f 1601 1602 1603 1604
v 74.413 1.141 81.272
v 81.333 1.296 74.622
v 78.907 1.376 72.098
v 71.987 1.134 78.748
f 1605 1606 1607 1608
v 81.763 1.317 73.963
v 83.003 1.381 70.583
v 79.717 1.442 69.377
v 78.477 1.357 72.757
f 1609 1610 1611 1612
v 83.075 1.387 70.329
v 83.805 1.444 66.739
v 80.375 1.500 66.041
v 79.645 1.437 69.631
f 1613 1614 1615 1616
v 83.764 1.455 65.879
v 82.414 1.509 61.459
v 79.066 1.603 62.481
v 80.416 1.481 66.901
f 1617 1618 1619 1620
v 82.194 1.517 60.997
v 78.954 1.597 56.157
v 76.046 1.731 58.103
v 79.286 1.590 62.943
f 1621 1622 1623 1624
v 78.744 1.601 55.900
v 51.774 1.055 28.620
v 49.286 1.051 31.080
v 76.256 1.728 58.360
f 1625 1626 1627 1628
v 51.777 1.055 28.622
v 44.927 1.230 21.662
v 42.433 1.212 24.118
v 49.283 1.051 31.078
f 1629 1630 1631 1632
v 165.377 1.050 6.557
v 197.287 1.077 -24.333
v 194.853 1.053 -26.847
v 162.943 1.047 4.043
f 1633 1634 1635 1636
v 197.287 1.077 -24.333
v 211.457 1.070 -38.053
v 209.023 1.027 -40.567
v 194.853 1.053 -26.847
f 1637 1638 1639 1640
v 211.509 1.054 -40.515
v 207.709 1.011 -44.515
v 205.171 1.019 -42.105
v 208.971 1.048 -38.105
f 1641 1642 1643 1644
v 207.640 1.018 -42.036
v 220.580 0.998 -54.226
v 218.180 0.955 -56.774
v 205.240 1.007 -44.584
f 1645 1646 1647 1648
v 220.580 0.998 -54.227
v 233.520 0.981 -66.427
v 231.120 0.972 -68.973
v 218.180 0.955 -56.773
f 1649 1650 1651 1652
v 176.918 1.180 -98.028
v 183.628 1.005 -91.038
v 186.152 0.990 -93.462
v 179.442 1.186 -100.452
f 1653 1654 1655 1656
v 183.614 1.005 -91.052
v 193.774 0.944 -80.232
v 196.326 0.953 -82.628
v 186.166 0.989 -93.448
f 1657 1658 1659 1660
v 193.773 0.944 -80.233
v 200.493 0.951 -73.063
v 203.047 0.948 -75.457
v 196.327 0.953 -82.627
f 1661 1662 1663 1664
v 200.494 0.951 -73.062
v 218.104 0.978 -54.302
v 220.656 0.970 -56.698
v 203.046 0.948 -75.458
f 1665 1666 1667 1668
v 196.241 0.950 -80.148
v 208.981 0.975 -91.978
v 206.599 1.006 -94.542
v 193.859 0.954 -82.712
f 1669 1670 1671 1672
v 206.527 1.001 -92.048
v 231.057 0.968 -66.488
v 233.583 0.980 -68.912
v 209.053 0.985 -94.472
f 1673 1674 1675 1676
v 231.037 0.968 -66.510
v 237.127 1.038 -59.940
v 239.693 1.059 -62.320
v 233.603 0.980 -68.890
f 1677 1678 1679 1680
v 200.564 0.956 -75.528
v 186.964 0.993 -62.598
v 189.376 0.995 -60.062
v 202.976 0.947 -72.992
f 1681 1682 1683 1684
v 207.669 1.011 -44.556
v 189.399 0.992 -62.576
v 186.941 1.006 -60.084
v 205.211 1.019 -42.064
f 1685 1686 1687 1688
v 189.411 0.992 -62.564
v 182.701 0.964 -69.314
v 180.219 0.988 -66.846
v 186.929 1.006 -60.096
f 1689 1690 1691 1692
v 180.263 0.961 -69.357
v 166.973 0.973 -56.897
v 169.367 0.994 -54.343
v 182.657 0.984 -66.803
f 1693 1694 1695 1696
v 166.888 0.974 -54.429
v 194.788 1.053 -24.399
v 197.352 1.065 -26.781
v 169.452 0.988 -56.811
f 1697 1698 1699 1700
v 202.818 1.296 -121.828
v 209.558 1.085 -114.698
v 212.102 1.077 -117.102
v 205.362 1.261 -124.232
f 1701 1702 1703 1704
v 209.568 1.085 -114.688
v 242.058 0.830 -80.868
v 244.582 0.896 -83.292
v 212.092 1.078 -117.112
f 1705 1706 1707 1708
v 242.834 0.833 -80.399
v 246.294 0.882 -79.399
v 247.266 0.901 -82.761
v 243.806 0.901 -83.761
f 1709 1710 1711 1712
v 247.020 0.892 -79.346
v 251.360 0.877 -79.946
v 250.880 0.888 -83.414
v 246.540 0.899 -82.814
f 1713 1714 1715 1716
v 251.938 0.869 -80.133
v 255.058 0.812 -81.783
v 253.422 0.876 -84.877
v 250.302 0.891 -83.227
f 1717 1718 1719 1720
v 257.227 0.856 -106.238
v 229.797 0.941 -133.227
v 227.343 0.974 -130.733
v 254.773 0.902 -103.744
f 1721 1722 1723 1724
v 229.532 0.949 -133.442
v 221.292 1.154 -138.862
v 219.368 1.154 -135.938
v 227.608 0.967 -130.518
f 1725 1726 1727 1728
v 250.313 0.858 -151.316
v 243.953 1.020 -158.656
v 241.307 1.039 -156.364
v 247.667 0.871 -149.024
f 1729 1730 1731 1732
v 55.943 1.281 11.631
v 62.353 1.067 19.081
v 65.007 1.067 16.799
v 58.597 1.281 9.349
f 1733 1734 1735 1736
v 62.941 1.033 19.526
v 71.631 1.066 23.576
v 73.109 0.919 20.404
v 64.419 1.089 16.354
f 1737 1738 1739 1740
v 73.568 1.039 23.265
v 86.978 0.915 10.665
v 84.582 0.894 8.115
v 71.172 0.966 20.715
f 1741 1742 1743 1744
v 86.979 0.915 10.664
v 122.679 0.987 -22.936
v 120.281 0.978 -25.484
v 84.581 0.894 8.116
f 1745 1746 1747 1748
v 122.368 0.994 -22.702
v 128.668 1.022 -26.412
v 126.892 0.984 -29.428
v 120.592 0.990 -25.718
f 1749 1750 1751 1752
v 128.706 1.021 -26.435
v 132.586 1.019 -28.855
v 130.734 1.004 -31.825
v 126.854 0.984 -29.405
f 1753 1754 1755 1756
v 104.328 1.293 25.763
v 87.028 0.900 8.163
v 84.532 0.900 10.617
v 101.832 1.316 28.217
f 1757 1758 1759 1760
v 87.028 0.900 8.163
v 81.078 1.110 2.113
v 78.582 1.095 4.567
v 84.532 0.900 10.617
f 1761 1762 1763 1764
v 81.473 1.069 2.736
v 77.773 1.354 -7.334
v 74.487 1.355 -6.126
v 78.187 1.121 3.944
f 1765 1766 1767 1768
v 253.478 0.856 22.667
v 198.538 0.999 42.797
v 199.742 0.962 46.083
v 254.682 0.866 25.953
f 1769 1770 1771 1772
v 12.886 0.893 -38.772
v 3.056 0.756 -50.192
v 0.404 0.701 -47.908
v 10.234 0.850 -36.488
f 1773 1774 1775 1776
v 0.570 0.722 -50.361
v -37.780 1.488 -16.431
v -35.460 1.522 -13.809
v 2.890 0.741 -47.739
f 1777 1778 1779 1780
v -37.995 1.497 -14.038
v -28.905 1.426 -2.488
v -26.155 0.120 -4.652
v -35.245 1.510 -16.202
f 1781 1782 1783 1784
v 23.101 0.721 -24.975
v -9.219 0.889 5.415
v -6.821 0.872 7.965
v 25.499 0.698 -22.425
f 1785 1786 1787 1788
v 4.647 0.720 -65.008
v 27.227 0.526 -41.478
v 29.753 0.461 -43.902
v 7.173 0.683 -67.432
f 1789 1790 1791 1792
v 29.671 0.528 -41.398
v 39.571 0.398 -50.448
v 37.209 0.395 -53.032
v 27.309 0.493 -43.982
f 1793 1794 1795 1796
v 37.046 0.417 -50.620
v 69.066 1.179 -12.190
v 71.754 1.194 -14.430
v 39.734 0.388 -52.860
f 1797 1798 1799 1800
v 69.089 1.179 -12.162
v 74.809 1.354 -5.582
v 77.451 1.362 -7.878
v 71.731 1.194 -14.458
f 1801 1802 1803 1804
v 62.200 1.077 18.873
v 67.420 1.011 27.153
v 70.380 1.080 25.287
v 65.160 1.056 17.007
f 1805 1806 1807 1808
v 67.619 1.025 27.413
v 108.009 1.165 70.773
v 110.571 1.171 68.387
v 70.181 1.070 25.027
f 1809 1810 1811 1812
v 109.893 1.133 71.223
v 189.743 0.916 41.893
v 188.537 0.982 38.607
v 108.687 1.184 67.937
f 1813 1814 1815 1816
v 189.795 0.916 41.873
v 194.825 1.031 39.843
v 193.515 1.083 36.597
v 188.485 0.980 38.627
f 1817 1818 1819 1820
v -69.598 1.232 -13.211
v -66.308 1.676 -47.091
v -69.792 1.602 -47.429
v -73.082 1.177 -13.549
f 1821 1822 1823 1824
v -66.809 1.686 -48.494
v -70.249 1.686 -51.954
v -72.731 1.588 -49.486
v -69.291 1.591 -46.026
f 1825 1826 1827 1828
v -70.675 1.686 -52.269
v -74.915 1.552 -54.499
v -76.545 1.579 -51.401
v -72.305 1.587 -49.171
f 1829 1830 1831 1832
v -75.460 1.561 -54.679
v -83.090 1.706 -55.869
v -83.630 1.570 -52.411
v -76.000 1.579 -51.221
f 1833 1834 1835 1836
v -83.809 1.692 -55.831
v -88.969 1.604 -54.461
v -88.071 1.531 -51.079
v -82.911 1.574 -52.449
f 1837 1838 1839 1840
v -89.798 1.588 -53.965
v -92.838 1.542 -50.715
v -90.282 1.501 -48.325
v -87.242 1.539 -51.575
f 1841 1842 1843 1844
v -93.301 1.526 -49.693
v -96.381 1.006 -18.613
v -92.899 1.054 -18.267
v -89.819 1.511 -49.347
f 1845 1846 1847 1848
v 69.601 0.566 243.148
v 66.171 0.736 228.998
v 62.769 0.764 229.822
v 66.199 0.598 243.972
f 1849 1850 1851 1852
v -26.732 1.381 85.599
v -35.302 1.190 82.119
v -36.618 1.180 85.361
v -28.048 1.368 88.841
f 1853 1854 1855 1856
v -35.334 1.190 82.106
v -50.944 0.701 76.126
v -52.196 0.789 79.394
v -36.586 1.181 85.374
f 1857 1858 1859 1860
v -51.325 0.697 76.027
v -64.215 0.682 74.207
v -64.705 0.664 77.673
v -51.815 0.795 79.493
f 1861 1862 1863 1864
v 80.092 1.205 -2.224
v 95.022 1.215 -15.354
v 87.098 1.288 -24.366
v 72.168 1.254 -11.236
f 1865 1866 1867 1868
v 95.117 1.216 -15.439
v 108.827 1.163 -28.019
v 100.713 1.202 -36.861
v 87.003 1.288 -24.281
f 1869 1870 1871 1872
v -110.068 0.878 172.470
v -83.458 0.853 148.570
v -93.482 0.907 137.410
v -120.092 0.912 161.310
f 1873 1874 1875 1876
v -83.380 0.853 148.499
v -72.330 0.932 138.289
v -82.510 0.951 127.271
v -93.560 0.907 137.481
f 1877 1878 1879 1880
v -72.386 0.930 138.340
v -38.656 1.135 107.800
v -48.724 1.143 96.680
v -82.454 0.951 127.220
f 1881 1882 1883 1884
v -38.609 1.134 107.756
v -36.199 1.134 105.536
v -46.361 1.165 94.504
v -48.771 1.142 96.724
f 1885 1886 1887 1888
v -36.200 1.134 105.537
v -31.400 1.183 101.117
v -41.560 1.191 90.083
v -46.360 1.165 94.503
f 1889 1890 1891 1892
v -31.396 1.183 101.114
v -22.306 1.215 92.734
v -32.474 1.221 81.706
v -41.564 1.191 90.086
f 1893 1894 1895 1896
v -22.354 1.215 92.778
v 4.556 1.179 68.398
v -5.516 1.147 57.282
v -32.426 1.221 81.662
f 1897 1898 1899 1900
v 4.559 1.179 68.395
v 18.029 1.117 56.175
v 7.951 1.104 45.065
v -5.519 1.147 57.285
f 1901 1902 1903 1904
v 18.031 1.117 56.173
v 27.571 1.047 47.513
v 17.489 1.080 36.407
v 7.949 1.105 45.067
f 1905 1906 1907 1908
v 27.551 1.047 47.531
v 46.511 1.051 30.441
v 36.469 1.051 19.299
v 17.509 1.080 36.389
f 1909 1910 1911 1912
v 46.520 1.051 30.433
v 48.710 1.058 28.453
v 38.650 1.065 17.327
v 36.460 1.051 19.307
f 1913 1914 1915 1916
v 48.735 1.058 28.430
v 62.325 1.128 16.030
v 52.215 1.131 4.950
v 38.625 1.065 17.350
f 1917 1918 1919 1920
v 62.327 1.128 16.029
v 81.187 1.171 -1.191
v 71.073 1.208 -12.269
v 52.213 1.131 4.951
f 1921 1922 1923 1924
v -134.012 0.931 190.081
v -120.922 0.992 181.541
v -129.118 0.974 168.979
v -142.208 1.017 177.519
f 1925 1926 1927 1928
v -120.189 0.965 180.997
v -110.249 0.876 172.627
v -119.911 0.911 161.153
v -129.851 0.977 169.523
f 1929 1930 1931 1932
v -254.107 0.840 230.010
v -200.287 1.028 215.967
v -204.073 0.997 201.453
v -257.893 0.920 215.495
f 1933 1934 1935 1936
v -200.175 1.029 215.937
v -193.795 1.016 214.167
v -197.805 1.024 199.713
v -204.185 0.997 201.483
f 1937 1938 1939 1940
v -193.644 1.014 214.124
v -171.184 1.062 207.384
v -175.496 1.083 193.016
v -197.956 1.024 199.756
f 1941 1942 1943 1944
v -170.608 1.063 207.185
v -166.568 1.075 205.605
v -172.032 1.093 191.635
v -176.072 1.082 193.215
f 1945 1946 1947 1948
v -166.557 1.075 205.600
v -154.877 1.112 201.010
v -160.363 1.062 187.050
v -172.043 1.093 191.640
f 1949 1950 1951 1952
v -154.136 1.115 200.672
v -144.776 1.014 195.762
v -151.744 1.052 182.478
v -161.104 1.066 187.388
f 1953 1954 1955 1956
v -144.778 1.014 195.763
v -134.628 0.928 190.443
v -141.592 1.014 177.157
v -151.742 1.052 182.477
f 1957 1958 1959 1960
v -23.930 1.145 39.442
v -7.450 1.132 57.722
v -4.850 1.122 55.378
v -21.330 1.276 37.098
f 1961 1962 1963 1964
v -7.450 1.132 57.722
v -1.780 1.319 64.012
v 0.820 1.325 61.668
v -4.850 1.122 55.378
f 1965 1966 1967 1968
v -42.590 1.314 101.180
v -36.300 1.091 108.280
v -33.680 1.111 105.960
v -39.970 1.311 98.860
f 1969 1970 1971 1972
v -36.303 1.091 108.277
v -30.823 1.066 114.497
v -28.197 1.081 112.183
v -33.677 1.111 105.963
f 1973 1974 1975 1976
v -30.663 1.012 112.023
v -52.433 0.836 131.083
v -50.127 0.939 133.717
v -28.357 1.152 114.657
f 1977 1978 1979 1980
v -52.498 0.836 131.144
v -67.448 0.911 145.644
v -65.012 0.950 148.156
v -50.062 0.938 133.656
f 1981 1982 1983 1984
v -67.980 0.907 146.890
v -68.010 0.946 152.160
v -64.510 0.969 152.180
v -64.480 0.967 146.910
f 1985 1986 1987 1988
v -67.767 0.955 153.060
v -64.807 0.999 158.070
v -61.793 1.009 156.290
v -64.753 0.965 151.280
f 1989 1990 1991 1992
v -63.973 1.010 158.795
v -57.733 0.963 161.395
v -56.387 1.001 158.165
v -62.627 0.998 155.565
f 1993 1994 1995 1996
v -56.110 0.931 161.250
v -10.860 1.195 132.000
v -12.760 1.505 129.060
v -58.010 1.018 158.310
f 1997 1998 1999 2000
v -10.704 1.200 131.886
v -8.054 1.248 129.726
v -10.266 1.402 127.014
v -12.916 1.501 129.174
f 2001 2002 2003 2004
v -7.417 1.267 128.523
v -7.187 1.243 125.903
v -10.673 1.440 125.597
v -10.903 1.456 128.217
f 2005 2006 2007 2008
v -7.527 1.240 124.704
v -20.877 1.130 106.804
v -23.683 1.118 108.896
v -10.333 1.408 126.796
f 2009 2010 2011 2012
v -21.517 1.101 106.275
v -28.017 1.064 103.125
v -29.543 0.945 106.275
v -23.043 1.153 109.425
f 2013 2014 2015 2016
v -27.442 1.011 103.572
v -28.952 1.192 101.782
v -31.628 1.149 104.038
v -30.118 0.983 105.828
f 2017 2018 2019 2020
v -28.954 1.192 101.779
v -35.144 1.331 94.469
v -37.816 1.313 96.731
v -31.626 1.148 104.041
f 2021 2022 2023 2024
v -52.030 0.843 130.819
v -62.450 0.870 135.759
v -60.950 0.866 138.921
v -50.530 0.937 133.981
f 2025 2026 2027 2028
v -62.897 0.873 136.063
v -74.637 0.832 147.063
v -72.243 0.873 149.617
v -60.503 0.865 138.617
f 2029 2030 2031 2032
v -75.173 0.840 148.098
v -76.723 0.913 159.178
v -73.257 0.955 159.662
v -71.707 0.862 148.582
f 2033 2034 2035 2036
v -76.295 0.914 160.586
v -71.575 1.018 165.866
v -68.965 1.024 163.534
v -73.685 0.946 158.254
f 2037 2038 2039 2040
v -70.207 1.026 166.449
v -63.827 0.947 166.219
v -63.953 1.002 162.721
v -70.333 1.019 162.951
f 2041 2042 2043 2044
v -62.899 0.941 165.913
v -56.069 0.931 161.223
v -58.051 1.018 158.337
v -64.881 0.994 163.027
f 2045 2046 2047 2048
v -89.822 1.023 144.101
v -84.152 0.846 151.001
v -81.448 0.854 148.779
v -87.118 1.045 141.879
f 2049 2050 2051 2052
v -84.154 0.846 150.999
v -76.344 0.913 160.529
v -73.636 0.946 158.311
v -81.446 0.854 148.781
f 2053 2054 2055 2056
v -170.828 1.201 199.473
v -166.438 1.056 207.343
v -163.382 1.063 205.637
v -167.772 1.205 197.767
f 2057 2058 2059 2060
v -166.390 1.052 207.423
v -164.990 0.935 209.643
v -162.030 1.004 207.777
v -163.430 1.064 205.557
f 2061 2062 2063 2064
v -164.986 0.934 209.651
v -145.856 0.763 239.651
v -142.904 0.752 237.769
v -162.034 1.004 207.769
f 2065 2066 2067 2068
v -145.868 0.763 239.631
v -135.458 0.695 256.441
v -132.482 0.728 254.599
v -142.892 0.753 237.789
f 2069 2070 2071 2072
v -143.365 0.758 240.135
v -124.485 0.896 226.685
v -126.515 0.913 223.835
v -145.395 0.756 237.285
f 2073 2074 2075 2076
v -124.480 0.896 226.682
v -119.170 0.808 222.872
v -121.210 0.803 220.028
v -126.520 0.913 223.838
f 2077 2078 2079 2080
v -119.193 0.808 222.888
v -113.683 0.721 219.068
v -115.677 0.760 216.192
v -121.187 0.803 220.012
f 2081 2082 2083 2084
v -126.964 0.893 226.218
v -117.034 0.548 241.398
v -114.106 0.589 239.482
v -124.036 0.895 224.302
f 2085 2086 2087 2088
v -117.282 0.581 240.077
v -117.872 0.513 242.857
v -114.448 0.524 243.583
v -113.858 0.561 240.803
f 2089 2090 2091 2092
v -117.154 0.539 241.780
v -134.964 0.720 254.080
v -132.976 0.694 256.960
v -115.166 0.540 244.660
f 2093 2094 2095 2096
v -197.433 1.128 207.570
v -194.073 1.022 216.280
v -190.807 1.009 215.020
v -194.167 1.131 206.310
f 2097 2098 2099 2100
v -194.023 1.020 216.396
v -191.363 0.908 222.036
v -188.197 0.880 220.544
v -190.857 1.009 214.904
f 2101 2102 2103 2104
v -189.024 0.910 222.868
v -162.754 0.897 210.288
v -164.266 1.046 207.132
v -190.536 0.890 219.712
f 2105 2106 2107 2108
v 58.598 1.281 9.350
v 52.918 1.112 2.730
v 50.262 1.100 5.010
v 55.942 1.281 11.630
f 2109 2110 2111 2112
v 52.831 1.112 2.636
v 39.501 0.679 -10.774
v 37.019 0.663 -8.306
v 50.349 1.103 5.104
f 2113 2114 2115 2116
v 39.506 0.679 -10.769
v 25.546 0.685 -24.929
v 23.054 0.717 -22.471
v 37.014 0.663 -8.311
f 2117 2118 2119 2120
v 25.591 0.685 -24.881
v 12.851 0.894 -38.811
v 10.269 0.850 -36.449
v 23.009 0.718 -22.519
f 2121 2122 2123 2124
v -8.961 0.989 8.165
v 6.649 1.027 18.125
v 8.531 0.936 15.175
v -7.079 0.787 5.215
f 2125 2126 2127 2128
v 8.726 1.023 17.981
v 39.396 0.672 -8.209
v 37.124 0.684 -10.871
v 6.454 0.946 15.319
f 2129 2130 2131 2132
v -26.380 0.668 -2.251
v 12.710 0.865 -36.311
v 10.410 0.879 -38.949
v -28.680 1.138 -4.889
f 2133 2134 2135 2136
v -7.206 0.790 5.141
v -22.466 0.326 -2.879
v -24.094 1.401 0.219
v -8.834 0.986 8.239
f 2137 2138 2139 2140
v -22.464 0.327 -2.878
v -26.714 0.120 -5.118
v -28.346 1.298 -2.022
v -24.096 1.401 0.218
f 2141 2142 2143 2144
v -24.772 0.362 -2.245
v -33.112 1.453 11.345
v -30.128 1.457 13.175
v -21.788 1.396 -0.415
f 2145 2146 2147 2148
usemtl asphalt
