# Baked ultra-low Key West silhouette; generated by bake_key_west_far_city.py
mtllib far_city.mtl
usemtl massing
v 20.749 0.933 -19.980
v 100.246 0.933 -26.452
v 105.371 0.933 36.500
v 25.874 0.933 42.972
v 20.749 9.233 -19.980
v 100.246 9.233 -26.452
v 105.371 9.233 36.500
v 25.874 9.233 42.972
f 8 7 6 5
f 1 2 6 5
f 2 3 7 6
f 3 4 8 7
f 4 1 5 8
v -27.499 0.443 44.032
v 25.979 0.443 80.252
v 5.039 0.443 111.168
v -48.439 0.443 74.948
v -27.499 8.743 44.032
v 25.979 8.743 80.252
v 5.039 8.743 111.168
v -48.439 8.743 74.948
f 16 15 14 13
f 9 10 14 13
f 10 11 15 14
f 11 12 16 15
f 12 9 13 16
v -146.683 0.602 -251.527
v -110.282 0.602 -217.587
v -127.917 0.602 -198.673
v -164.318 0.602 -232.613
v -146.683 6.402 -251.527
v -110.282 6.402 -217.587
v -127.917 6.402 -198.673
v -164.318 6.402 -232.613
f 24 23 22 21
f 17 18 22 21
f 18 19 23 22
f 19 20 24 23
f 20 17 21 24
v -183.712 0.882 -195.286
v -173.225 0.882 -188.994
v -176.548 0.882 -183.454
v -187.035 0.882 -189.746
v -183.712 10.182 -195.286
v -173.225 10.182 -188.994
v -176.548 10.182 -183.454
v -187.035 10.182 -189.746
f 32 31 30 29
f 25 26 30 29
f 26 27 31 30
f 27 28 32 31
f 28 25 29 32
v -231.642 0.630 -185.014
v -201.409 0.630 -199.116
v -189.278 0.630 -173.106
v -219.511 0.630 -159.004
v -231.642 9.930 -185.014
v -201.409 9.930 -199.116
v -189.278 9.930 -173.106
v -219.511 9.930 -159.004
f 40 39 38 37
f 33 34 38 37
f 34 35 39 38
f 35 36 40 39
f 36 33 37 40
v -237.742 0.967 -143.289
v -214.887 0.967 -128.803
v -220.118 0.967 -120.551
v -242.973 0.967 -135.037
v -237.742 7.767 -143.289
v -214.887 7.767 -128.803
v -220.118 7.767 -120.551
v -242.973 7.767 -135.037
f 48 47 46 45
f 41 42 46 45
f 42 43 47 46
f 43 44 48 47
f 44 41 45 48
v -247.574 0.722 -158.427
v -238.593 0.722 -171.874
v -230.926 0.722 -166.753
v -239.907 0.722 -153.306
v -247.574 7.522 -158.427
v -238.593 7.522 -171.874
v -230.926 7.522 -166.753
v -239.907 7.522 -153.306
f 56 55 54 53
f 49 50 54 53
f 50 51 55 54
f 51 52 56 55
f 52 49 53 56
v -205.669 0.614 -85.172
v -190.331 0.614 -107.027
v -179.731 0.614 -99.588
v -195.069 0.614 -77.733
v -205.669 4.514 -85.172
v -190.331 4.514 -107.027
v -179.731 4.514 -99.588
v -195.069 4.514 -77.733
f 64 63 62 61
f 57 58 62 61
f 58 59 63 62
f 59 60 64 63
f 60 57 61 64
v -232.657 0.639 183.548
v -222.279 0.639 168.951
v -212.263 0.639 176.072
v -222.641 0.639 190.669
v -232.657 6.939 183.548
v -222.279 6.939 168.951
v -212.263 6.939 176.072
v -222.641 6.939 190.669
f 72 71 70 69
f 65 66 70 69
f 66 67 71 70
f 67 68 72 71
f 68 65 69 72
v -218.761 0.565 114.783
v -204.749 0.565 123.344
v -212.699 0.565 136.357
v -226.711 0.565 127.796
v -218.761 4.065 114.783
v -204.749 4.065 123.344
v -212.699 4.065 136.357
v -226.711 4.065 127.796
f 80 79 78 77
f 73 74 78 77
f 74 75 79 78
f 75 76 80 79
f 76 73 77 80
v -155.973 0.751 176.086
v -141.708 0.751 160.295
v -129.887 0.751 170.974
v -144.152 0.751 186.765
v -155.973 7.051 176.086
v -141.708 7.051 160.295
v -129.887 7.051 170.974
v -144.152 7.051 186.765
f 88 87 86 85
f 81 82 86 85
f 82 83 87 86
f 83 84 88 87
f 84 81 85 88
v -109.902 0.231 86.293
v -93.260 0.231 97.132
v -99.678 0.231 106.987
v -116.320 0.231 96.148
v -109.902 6.531 86.293
v -93.260 6.531 97.132
v -99.678 6.531 106.987
v -116.320 6.531 96.148
f 96 95 94 93
f 89 90 94 93
f 90 91 95 94
f 91 92 96 95
f 92 89 93 96
v -88.988 0.333 75.870
v -73.089 0.333 86.950
v -78.692 0.333 94.990
v -94.591 0.333 83.910
v -88.988 6.633 75.870
v -73.089 6.633 86.950
v -78.692 6.633 94.990
v -94.591 6.633 83.910
f 104 103 102 101
f 97 98 102 101
f 98 99 103 102
f 99 100 104 103
f 100 97 101 104
v -102.869 0.400 101.375
v -86.825 0.400 111.629
v -91.731 0.400 119.305
v -107.775 0.400 109.051
v -102.869 3.900 101.375
v -86.825 3.900 111.629
v -91.731 3.900 119.305
v -107.775 3.900 109.051
f 112 111 110 109
f 105 106 110 109
f 106 107 111 110
f 107 108 112 111
f 108 105 109 112
v -98.521 0.494 140.814
v -88.467 0.494 124.574
v -80.339 0.494 129.606
v -90.393 0.494 145.846
v -98.521 6.794 140.814
v -88.467 6.794 124.574
v -80.339 6.794 129.606
v -90.393 6.794 145.846
f 120 119 118 117
f 113 114 118 117
f 114 115 119 118
f 115 116 120 119
f 116 113 117 120
v -88.586 0.370 133.917
v -77.701 0.370 117.786
v -69.494 0.370 123.323
v -80.379 0.370 139.454
v -88.586 9.670 133.917
v -77.701 9.670 117.786
v -69.494 9.670 123.323
v -80.379 9.670 139.454
f 128 127 126 125
f 121 122 126 125
f 122 123 127 126
f 123 124 128 127
f 124 121 125 128
v -130.056 0.539 161.036
v -119.730 0.539 148.192
v -108.944 0.539 156.864
v -119.270 0.539 169.708
v -130.056 4.039 161.036
v -119.730 4.039 148.192
v -108.944 4.039 156.864
v -119.270 4.039 169.708
f 136 135 134 133
f 129 130 134 133
f 130 131 135 134
f 131 132 136 135
f 132 129 133 136
v -161.963 0.594 86.554
v -145.561 0.594 97.319
v -150.357 0.594 104.626
v -166.759 0.594 93.861
v -161.963 4.094 86.554
v -145.561 4.094 97.319
v -150.357 4.094 104.626
v -166.759 4.094 93.861
f 144 143 142 141
f 137 138 142 141
f 138 139 143 142
f 139 140 144 143
f 140 137 141 144
v -111.377 0.193 -39.025
v -99.470 0.193 -28.914
v -107.723 0.193 -19.195
v -119.630 0.193 -29.306
v -111.377 3.693 -39.025
v -99.470 3.693 -28.914
v -107.723 3.693 -19.195
v -119.630 3.693 -29.306
f 152 151 150 149
f 145 146 150 149
f 146 147 151 150
f 147 148 152 151
f 148 145 149 152
v -104.130 0.495 -26.268
v -89.547 0.495 -16.612
v -96.090 0.495 -6.732
v -110.673 0.495 -16.388
v -104.130 3.995 -26.268
v -89.547 3.995 -16.612
v -96.090 3.995 -6.732
v -110.673 3.995 -16.388
f 160 159 158 157
f 153 154 158 157
f 154 155 159 158
f 155 156 160 159
f 156 153 157 160
v -94.447 0.488 -14.619
v -79.195 0.488 -4.781
v -86.393 0.488 6.379
v -101.645 0.488 -3.459
v -94.447 6.788 -14.619
v -79.195 6.788 -4.781
v -86.393 6.788 6.379
v -101.645 6.788 -3.459
f 168 167 166 165
f 161 162 166 165
f 162 163 167 166
f 163 164 168 167
f 164 161 165 168
v -140.828 0.561 -0.896
v -124.171 0.561 9.337
v -129.552 0.561 18.096
v -146.209 0.561 7.863
v -140.828 6.861 -0.896
v -124.171 6.861 9.337
v -129.552 6.861 18.096
v -146.209 6.861 7.863
f 176 175 174 173
f 169 170 174 173
f 170 171 175 174
f 171 172 176 175
f 172 169 173 176
v -163.324 0.534 -43.182
v -150.138 0.534 -28.966
v -159.676 0.534 -20.118
v -172.862 0.534 -34.334
v -163.324 4.034 -43.182
v -150.138 4.034 -28.966
v -159.676 4.034 -20.118
v -172.862 4.034 -34.334
f 184 183 182 181
f 177 178 182 181
f 178 179 183 182
f 179 180 184 183
f 180 177 181 184
v 201.040 0.670 -250.597
v 218.505 0.670 -246.497
v 215.600 0.670 -234.123
v 198.135 0.670 -238.223
v 201.040 6.970 -250.597
v 218.505 6.970 -246.497
v 215.600 6.970 -234.123
v 198.135 6.970 -238.223
f 192 191 190 189
f 185 186 190 189
f 186 187 191 190
f 187 188 192 191
f 188 185 189 192
v 90.083 0.562 -225.084
v 104.695 0.562 -221.830
v 101.917 0.562 -209.356
v 87.305 0.562 -212.610
v 90.083 4.462 -225.084
v 104.695 4.462 -221.830
v 101.917 4.462 -209.356
v 87.305 4.462 -212.610
f 200 199 198 197
f 193 194 198 197
f 194 195 199 198
f 195 196 200 199
f 196 193 197 200
v -262.982 0.858 -67.626
v -240.904 0.858 -53.969
v -248.658 0.858 -41.434
v -270.736 0.858 -55.091
v -262.982 4.758 -67.626
v -240.904 4.758 -53.969
v -248.658 4.758 -41.434
v -270.736 4.758 -55.091
f 208 207 206 205
f 201 202 206 205
f 202 203 207 206
f 203 204 208 207
f 204 201 205 208
v -233.941 0.759 -27.945
v -214.341 0.759 -16.833
v -223.559 0.759 -0.575
v -243.159 0.759 -11.687
v -233.941 4.659 -27.945
v -214.341 4.659 -16.833
v -223.559 4.659 -0.575
v -243.159 4.659 -11.687
f 216 215 214 213
f 209 210 214 213
f 210 211 215 214
f 211 212 216 215
f 212 209 213 216
v -170.332 0.312 -53.335
v -158.886 0.312 -45.573
v -164.168 0.312 -37.785
v -175.614 0.312 -45.547
v -170.332 4.212 -53.335
v -158.886 4.212 -45.573
v -164.168 4.212 -37.785
v -175.614 4.212 -45.547
f 224 223 222 221
f 217 218 222 221
f 218 219 223 222
f 219 220 224 223
f 220 217 221 224
v -183.898 0.528 -65.804
v -168.345 0.528 -54.614
v -174.402 0.528 -46.196
v -189.955 0.528 -57.386
v -183.898 4.428 -65.804
v -168.345 4.428 -54.614
v -174.402 4.428 -46.196
v -189.955 4.428 -57.386
f 232 231 230 229
f 225 226 230 229
f 226 227 231 230
f 227 228 232 231
f 228 225 229 232
v -140.202 0.061 -76.703
v -135.014 0.061 -93.270
v -123.858 0.061 -89.777
v -129.046 0.061 -73.210
v -140.202 3.961 -76.703
v -135.014 3.961 -93.270
v -123.858 3.961 -89.777
v -129.046 3.961 -73.210
f 240 239 238 237
f 233 234 238 237
f 234 235 239 238
f 235 236 240 239
f 236 233 237 240
v -131.562 0.127 -86.437
v -124.092 0.127 -100.326
v -113.338 0.127 -94.543
v -120.808 0.127 -80.654
v -131.562 4.027 -86.437
v -124.092 4.027 -100.326
v -113.338 4.027 -94.543
v -120.808 4.027 -80.654
f 248 247 246 245
f 241 242 246 245
f 242 243 247 246
f 243 244 248 247
f 244 241 245 248
v -118.695 0.067 -97.073
v -112.234 0.067 -105.488
v -107.205 0.067 -101.627
v -113.666 0.067 -93.212
v -118.695 3.967 -97.073
v -112.234 3.967 -105.488
v -107.205 3.967 -101.627
v -113.666 3.967 -93.212
f 256 255 254 253
f 249 250 254 253
f 250 251 255 254
f 251 252 256 255
f 252 249 253 256
v -106.410 0.136 -94.520
v -96.687 0.136 -87.538
v -102.070 0.136 -80.040
v -111.793 0.136 -87.022
v -106.410 4.036 -94.520
v -96.687 4.036 -87.538
v -102.070 4.036 -80.040
v -111.793 4.036 -87.022
f 264 263 262 261
f 257 258 262 261
f 258 259 263 262
f 259 260 264 263
f 260 257 261 264
v -105.918 0.112 -80.927
v -93.303 0.112 -72.393
v -99.242 0.112 -63.613
v -111.857 0.112 -72.147
v -105.918 4.012 -80.927
v -93.303 4.012 -72.393
v -99.242 4.012 -63.613
v -111.857 4.012 -72.147
f 272 271 270 269
f 265 266 270 269
f 266 267 271 270
f 267 268 272 271
f 268 265 269 272
v -90.519 0.378 -73.005
v -77.996 0.378 -54.096
v -92.461 0.378 -44.515
v -104.984 0.378 -63.424
v -90.519 4.278 -73.005
v -77.996 4.278 -54.096
v -92.461 4.278 -44.515
v -104.984 4.278 -63.424
f 280 279 278 277
f 273 274 278 277
f 274 275 279 278
f 275 276 280 279
f 276 273 277 280
v -95.180 0.618 -41.664
v -87.507 0.618 -50.981
v -79.340 0.618 -44.256
v -87.013 0.618 -34.939
v -95.180 4.518 -41.664
v -87.507 4.518 -50.981
v -79.340 4.518 -44.256
v -87.013 4.518 -34.939
f 288 287 286 285
f 281 282 286 285
f 282 283 287 286
f 283 284 288 287
f 284 281 285 288
v -86.361 0.223 -30.163
v -78.284 0.223 -39.052
v -69.639 0.223 -31.197
v -77.716 0.223 -22.308
v -86.361 4.123 -30.163
v -78.284 4.123 -39.052
v -69.639 4.123 -31.197
v -77.716 4.123 -22.308
f 296 295 294 293
f 289 290 294 293
f 290 291 295 294
f 291 292 296 295
f 292 289 293 296
v -68.327 0.577 -29.610
v -55.542 0.577 -20.344
v -62.713 0.577 -10.450
v -75.498 0.577 -19.716
v -68.327 4.477 -29.610
v -55.542 4.477 -20.344
v -62.713 4.477 -10.450
v -75.498 4.477 -19.716
f 304 303 302 301
f 297 298 302 301
f 298 299 303 302
f 299 300 304 303
f 300 297 301 304
v -132.806 0.582 10.760
v -117.025 0.582 22.282
v -122.674 0.582 30.020
v -138.455 0.582 18.498
v -132.806 4.482 10.760
v -117.025 4.482 22.282
v -122.674 4.482 30.020
v -138.455 4.482 18.498
f 312 311 310 309
f 305 306 310 309
f 306 307 311 310
f 307 308 312 311
f 308 305 309 312
v -149.146 0.552 -15.172
v -132.515 0.552 -7.114
v -137.634 0.552 3.452
v -154.265 0.552 -4.606
v -149.146 4.452 -15.172
v -132.515 4.452 -7.114
v -137.634 4.452 3.452
v -154.265 4.452 -4.606
f 320 319 318 317
f 313 314 318 317
f 314 315 319 318
f 315 316 320 319
f 316 313 317 320
v -152.278 0.518 -30.565
v -139.453 0.518 -20.391
v -147.842 0.518 -9.815
v -160.667 0.518 -19.989
v -152.278 4.418 -30.565
v -139.453 4.418 -20.391
v -147.842 4.418 -9.815
v -160.667 4.418 -19.989
f 328 327 326 325
f 321 322 326 325
f 322 323 327 326
f 323 324 328 327
f 324 321 325 328
v -202.839 0.517 -38.302
v -193.081 0.517 -50.881
v -183.821 0.517 -43.698
v -193.579 0.517 -31.119
v -202.839 4.417 -38.302
v -193.081 4.417 -50.881
v -183.821 4.417 -43.698
v -193.579 4.417 -31.119
f 336 335 334 333
f 329 330 334 333
f 330 331 335 334
f 331 332 336 335
f 332 329 333 336
v -212.697 0.558 -28.469
v -203.541 0.558 -41.259
v -195.483 0.558 -35.491
v -204.639 0.558 -22.701
v -212.697 4.458 -28.469
v -203.541 4.458 -41.259
v -195.483 4.458 -35.491
v -204.639 4.458 -22.701
f 344 343 342 341
f 337 338 342 341
f 338 339 343 342
f 339 340 344 343
f 340 337 341 344
v -194.274 0.289 -9.344
v -191.829 0.289 -24.964
v -178.106 0.289 -22.816
v -180.551 0.289 -7.196
v -194.274 4.189 -9.344
v -191.829 4.189 -24.964
v -178.106 4.189 -22.816
v -180.551 4.189 -7.196
f 352 351 350 349
f 345 346 350 349
f 346 347 351 350
f 347 348 352 351
f 348 345 349 352
v -170.107 0.279 2.027
v -158.909 0.279 10.396
v -164.093 0.279 17.333
v -175.291 0.279 8.964
v -170.107 4.179 2.027
v -158.909 4.179 10.396
v -164.093 4.179 17.333
v -175.291 4.179 8.964
f 360 359 358 357
f 353 354 358 357
f 354 355 359 358
f 355 356 360 359
f 356 353 357 360
v -171.183 0.439 29.098
v -164.446 0.439 18.855
v -155.557 0.439 24.702
v -162.294 0.439 34.945
v -171.183 4.339 29.098
v -164.446 4.339 18.855
v -155.557 4.339 24.702
v -162.294 4.339 34.945
f 368 367 366 365
f 361 362 366 365
f 362 363 367 366
f 363 364 368 367
f 364 361 365 368
v -147.547 0.245 21.227
v -137.551 0.245 28.135
v -143.713 0.245 37.053
v -153.709 0.245 30.145
v -147.547 4.145 21.227
v -137.551 4.145 28.135
v -143.713 4.145 37.053
v -153.709 4.145 30.145
f 376 375 374 373
f 369 370 374 373
f 370 371 375 374
f 371 372 376 375
f 372 369 373 376
v -188.982 0.392 51.625
v -177.984 0.392 35.366
v -169.958 0.392 40.795
v -180.956 0.392 57.054
v -188.982 4.292 51.625
v -177.984 4.292 35.366
v -169.958 4.292 40.795
v -180.956 4.292 57.054
f 384 383 382 381
f 377 378 382 381
f 378 379 383 382
f 379 380 384 383
f 380 377 381 384
v -76.998 0.312 12.430
v -62.449 0.312 22.824
v -68.982 0.312 31.970
v -83.531 0.312 21.576
v -76.998 4.212 12.430
v -62.449 4.212 22.824
v -68.982 4.212 31.970
v -83.531 4.212 21.576
f 392 391 390 389
f 385 386 390 389
f 386 387 391 390
f 387 388 392 391
f 388 385 389 392
v -59.511 0.226 19.679
v -52.024 0.226 8.289
v -44.369 0.226 13.321
v -51.856 0.226 24.711
v -59.511 4.126 19.679
v -52.024 4.126 8.289
v -44.369 4.126 13.321
v -51.856 4.126 24.711
f 400 399 398 397
f 393 394 398 397
f 394 395 399 398
f 395 396 400 399
f 396 393 397 400
v -47.523 0.230 11.030
v -40.211 0.230 0.621
v -33.337 0.230 5.450
v -40.649 0.230 15.859
v -47.523 4.130 11.030
v -40.211 4.130 0.621
v -33.337 4.130 5.450
v -40.649 4.130 15.859
f 408 407 406 405
f 401 402 406 405
f 402 403 407 406
f 403 404 408 407
f 404 401 405 408
v -68.251 0.212 25.108
v -56.093 0.212 34.802
v -63.469 0.212 44.052
v -75.627 0.212 34.358
v -68.251 4.112 25.108
v -56.093 4.112 34.802
v -63.469 4.112 44.052
v -75.627 4.112 34.358
f 416 415 414 413
f 409 410 414 413
f 410 411 415 414
f 411 412 416 415
f 412 409 413 416
v -57.864 0.256 35.417
v -47.455 0.256 48.870
v -58.456 0.256 57.383
v -68.865 0.256 43.930
v -57.864 4.156 35.417
v -47.455 4.156 48.870
v -58.456 4.156 57.383
v -68.865 4.156 43.930
f 424 423 422 421
f 417 418 422 421
f 418 419 423 422
f 419 420 424 423
f 420 417 421 424
v -50.914 0.182 51.918
v -39.168 0.182 60.317
v -45.606 0.182 69.322
v -57.352 0.182 60.923
v -50.914 4.082 51.918
v -39.168 4.082 60.317
v -45.606 4.082 69.322
v -57.352 4.082 60.923
f 432 431 430 429
f 425 426 430 429
f 426 427 431 430
f 427 428 432 431
f 428 425 429 432
v -79.619 0.193 89.623
v -63.635 0.193 101.054
v -69.301 0.193 108.977
v -85.285 0.193 97.546
v -79.619 4.093 89.623
v -63.635 4.093 101.054
v -69.301 4.093 108.977
v -85.285 4.093 97.546
f 440 439 438 437
f 433 434 438 437
f 434 435 439 438
f 435 436 440 439
f 436 433 437 440
v -133.894 0.407 50.551
v -119.802 0.407 61.426
v -127.506 0.407 71.409
v -141.598 0.407 60.534
v -133.894 4.307 50.551
v -119.802 4.307 61.426
v -127.506 4.307 71.409
v -141.598 4.307 60.534
f 448 447 446 445
f 441 442 446 445
f 442 443 447 446
f 443 444 448 447
f 444 441 445 448
v -122.822 0.366 50.950
v -116.363 0.366 42.939
v -108.858 0.366 48.990
v -115.317 0.366 57.001
v -122.822 4.266 50.950
v -116.363 4.266 42.939
v -108.858 4.266 48.990
v -115.317 4.266 57.001
f 456 455 454 453
f 449 450 454 453
f 450 451 455 454
f 451 452 456 455
f 452 449 453 456
v -106.738 0.412 56.323
v -97.818 0.412 47.018
v -88.722 0.412 55.737
v -97.642 0.412 65.042
v -106.738 4.312 56.323
v -97.818 4.312 47.018
v -88.722 4.312 55.737
v -97.642 4.312 65.042
f 464 463 462 461
f 457 458 462 461
f 458 459 463 462
f 459 460 464 463
f 460 457 461 464
v -126.129 0.284 84.365
v -113.868 0.284 75.263
v -104.831 0.284 87.435
v -117.092 0.284 96.537
v -126.129 4.184 84.365
v -113.868 4.184 75.263
v -104.831 4.184 87.435
v -117.092 4.184 96.537
f 472 471 470 469
f 465 466 470 469
f 466 467 471 470
f 467 468 472 471
f 468 465 469 472
v -126.650 0.535 64.328
v -114.588 0.535 72.411
v -120.110 0.535 80.652
v -132.172 0.535 72.569
v -126.650 4.435 64.328
v -114.588 4.435 72.411
v -120.110 4.435 80.652
v -132.172 4.435 72.569
f 480 479 478 477
f 473 474 478 477
f 474 475 479 478
f 475 476 480 479
f 476 473 477 480
v 148.016 0.851 228.567
v 151.880 0.851 246.464
v 136.924 0.851 249.693
v 133.060 0.851 231.796
v 148.016 4.751 228.567
v 151.880 4.751 246.464
v 136.924 4.751 249.693
v 133.060 4.751 231.796
f 488 487 486 485
f 481 482 486 485
f 482 483 487 486
f 483 484 488 487
f 484 481 485 488
v 128.765 0.816 213.325
v 194.677 0.816 183.514
v 203.995 0.816 204.115
v 138.083 0.816 233.926
v 128.765 6.616 213.325
v 194.677 6.616 183.514
v 203.995 6.616 204.115
v 138.083 6.616 233.926
f 496 495 494 493
f 489 490 494 493
f 490 491 495 494
f 491 492 496 495
f 492 489 493 496
v 22.080 0.903 239.327
v 72.422 0.903 164.796
v 89.800 0.903 176.533
v 39.458 0.903 251.064
v 22.080 9.203 239.327
v 72.422 9.203 164.796
v 89.800 9.203 176.533
v 39.458 9.203 251.064
f 504 503 502 501
f 497 498 502 501
f 498 499 503 502
f 499 500 504 503
f 500 497 501 504
v -137.679 0.618 170.524
v -130.749 0.618 160.109
v -121.541 0.618 166.236
v -128.471 0.618 176.651
v -137.679 4.518 170.524
v -130.749 4.518 160.109
v -121.541 4.518 166.236
v -128.471 4.518 176.651
f 512 511 510 509
f 505 506 510 509
f 506 507 511 510
f 507 508 512 511
f 508 505 509 512
v -115.558 0.281 154.387
v -108.066 0.281 143.764
v -98.922 0.281 150.213
v -106.414 0.281 160.836
v -115.558 4.181 154.387
v -108.066 4.181 143.764
v -98.922 4.181 150.213
v -106.414 4.181 160.836
f 520 519 518 517
f 513 514 518 517
f 514 515 519 518
f 515 516 520 519
f 516 513 517 520
v -144.199 0.830 157.129
v -137.389 0.830 149.111
v -129.501 0.830 155.811
v -136.311 0.830 163.829
v -144.199 4.730 157.129
v -137.389 4.730 149.111
v -129.501 4.730 155.811
v -136.311 4.730 163.829
f 528 527 526 525
f 521 522 526 525
f 522 523 527 526
f 523 524 528 527
f 524 521 525 528
v -116.596 0.641 138.991
v -110.369 0.641 143.081
v -113.684 0.641 148.129
v -119.911 0.641 144.039
v -116.596 4.541 138.991
v -110.369 4.541 143.081
v -113.684 4.541 148.129
v -119.911 4.541 144.039
f 536 535 534 533
f 529 530 534 533
f 530 531 535 534
f 531 532 536 535
f 532 529 533 536
v -151.771 0.356 138.048
v -138.992 0.356 146.186
v -145.389 0.356 156.232
v -158.168 0.356 148.094
v -151.771 4.256 138.048
v -138.992 4.256 146.186
v -145.389 4.256 156.232
v -158.168 4.256 148.094
f 544 543 542 541
f 537 538 542 541
f 538 539 543 542
f 539 540 544 543
f 540 537 541 544
v -186.366 0.180 174.500
v -169.223 0.180 179.102
v -172.954 0.180 193.000
v -190.097 0.180 188.398
v -186.366 4.080 174.500
v -169.223 4.080 179.102
v -172.954 4.080 193.000
v -190.097 4.080 188.398
f 552 551 550 549
f 545 546 550 549
f 546 547 551 550
f 547 548 552 551
f 548 545 549 552
v -231.357 0.549 -65.162
v -225.595 0.549 -72.601
v -218.463 0.549 -67.078
v -224.225 0.549 -59.639
v -231.357 4.449 -65.162
v -225.595 4.449 -72.601
v -218.463 4.449 -67.078
v -224.225 4.449 -59.639
f 560 559 558 557
f 553 554 558 557
f 554 555 559 558
f 555 556 560 559
f 556 553 557 560
v -225.501 0.606 -74.938
v -223.672 0.606 -77.329
v -221.519 0.606 -75.682
v -223.348 0.606 -73.291
v -225.501 4.506 -74.938
v -223.672 4.506 -77.329
v -221.519 4.506 -75.682
v -223.348 4.506 -73.291
f 568 567 566 565
f 561 562 566 565
f 562 563 567 566
f 563 564 568 567
f 564 561 565 568
v -221.328 0.623 -72.032
v -215.688 0.623 -79.527
v -208.512 0.623 -74.128
v -214.152 0.623 -66.633
v -221.328 4.523 -72.032
v -215.688 4.523 -79.527
v -208.512 4.523 -74.128
v -214.152 4.523 -66.633
f 576 575 574 573
f 569 570 574 573
f 570 571 575 574
f 571 572 576 575
f 572 569 573 576
v 160.005 0.745 -250.894
v 174.354 0.745 -247.146
v 171.475 0.745 -236.126
v 157.126 0.745 -239.874
v 160.005 4.645 -250.894
v 174.354 4.645 -247.146
v 171.475 4.645 -236.126
v 157.126 4.645 -239.874
f 584 583 582 581
f 577 578 582 581
f 578 579 583 582
f 579 580 584 583
f 580 577 581 584
v -175.958 0.669 -258.026
v -168.114 0.669 -252.721
v -171.582 0.669 -247.594
v -179.426 0.669 -252.899
v -175.958 4.569 -258.026
v -168.114 4.569 -252.721
v -171.582 4.569 -247.594
v -179.426 4.569 -252.899
f 592 591 590 589
f 585 586 590 589
f 586 587 591 590
f 587 588 592 591
f 588 585 589 592
v 158.440 0.660 -236.875
v 176.761 0.660 -230.806
v 172.680 0.660 -218.485
v 154.359 0.660 -224.554
v 158.440 4.560 -236.875
v 176.761 4.560 -230.806
v 172.680 4.560 -218.485
v 154.359 4.560 -224.554
f 600 599 598 597
f 593 594 598 597
f 594 595 599 598
f 595 596 600 599
f 596 593 597 600
v 134.224 0.586 -232.299
v 151.521 0.586 -221.845
v 144.036 0.586 -209.461
v 126.739 0.586 -219.915
v 134.224 4.486 -232.299
v 151.521 4.486 -221.845
v 144.036 4.486 -209.461
v 126.739 4.486 -219.915
f 608 607 606 605
f 601 602 606 605
f 602 603 607 606
f 603 604 608 607
f 604 601 605 608
v 122.862 0.683 -246.506
v 147.785 0.683 -238.826
v 143.418 0.683 -224.654
v 118.495 0.683 -232.334
v 122.862 4.583 -246.506
v 147.785 4.583 -238.826
v 143.418 4.583 -224.654
v 118.495 4.583 -232.334
f 616 615 614 613
f 609 610 614 613
f 610 611 615 614
f 611 612 616 615
f 612 609 613 616
v 138.683 0.604 -238.805
v 140.134 0.604 -246.804
v 145.477 0.604 -245.835
v 144.026 0.604 -237.836
v 138.683 4.504 -238.805
v 140.134 4.504 -246.804
v 145.477 4.504 -245.835
v 144.026 4.504 -237.836
f 624 623 622 621
f 617 618 622 621
f 618 619 623 622
f 619 620 624 623
f 620 617 621 624
v 140.284 0.579 -247.639
v 142.428 0.579 -255.304
v 146.656 0.579 -254.121
v 144.512 0.579 -246.456
v 140.284 4.479 -247.639
v 142.428 4.479 -255.304
v 146.656 4.479 -254.121
v 144.512 4.479 -246.456
f 632 631 630 629
f 625 626 630 629
f 626 627 631 630
f 627 628 632 631
f 628 625 629 632
v 118.797 0.655 -261.044
v 139.875 0.655 -255.064
v 136.123 0.655 -241.836
v 115.045 0.655 -247.816
v 118.797 4.555 -261.044
v 139.875 4.555 -255.064
v 136.123 4.555 -241.836
v 115.045 4.555 -247.816
f 640 639 638 637
f 633 634 638 637
f 634 635 639 638
f 635 636 640 639
f 636 633 637 640
v 80.903 0.758 -257.132
v 96.911 0.758 -252.891
v 93.557 0.758 -240.228
v 77.549 0.758 -244.469
v 80.903 4.658 -257.132
v 96.911 4.658 -252.891
v 93.557 4.658 -240.228
v 77.549 4.658 -244.469
f 648 647 646 645
f 641 642 646 645
f 642 643 647 646
f 643 644 648 647
f 644 641 645 648
v 83.469 0.666 -240.157
v 100.054 0.666 -237.238
v 97.931 0.666 -225.183
v 81.346 0.666 -228.102
v 83.469 4.566 -240.157
v 100.054 4.566 -237.238
v 97.931 4.566 -225.183
v 81.346 4.566 -228.102
f 656 655 654 653
f 649 650 654 653
f 650 651 655 654
f 651 652 656 655
f 652 649 653 656
v 94.193 0.630 -194.243
v 94.661 0.630 -211.177
v 106.967 0.630 -210.837
v 106.499 0.630 -193.903
v 94.193 4.530 -194.243
v 94.661 4.530 -211.177
v 106.967 4.530 -210.837
v 106.499 4.530 -193.903
f 664 663 662 661
f 657 658 662 661
f 658 659 663 662
f 659 660 664 663
f 660 657 661 664
v -213.019 0.736 -251.158
v -206.863 0.736 -259.578
v -201.261 0.736 -255.482
v -207.417 0.736 -247.062
v -213.019 4.636 -251.158
v -206.863 4.636 -259.578
v -201.261 4.636 -255.482
v -207.417 4.636 -247.062
f 672 671 670 669
f 665 666 670 669
f 666 667 671 670
f 667 668 672 671
f 668 665 669 672
v -263.576 0.785 -246.055
v -252.475 0.785 -261.376
v -247.324 0.785 -257.645
v -258.425 0.785 -242.324
v -263.576 4.685 -246.055
v -252.475 4.685 -261.376
v -247.324 4.685 -257.645
v -258.425 4.685 -242.324
f 680 679 678 677
f 673 674 678 677
f 674 675 679 678
f 675 676 680 679
f 676 673 677 680
v -260.817 0.827 -196.841
v -252.108 0.827 -209.688
v -243.863 0.827 -204.099
v -252.572 0.827 -191.252
v -260.817 4.727 -196.841
v -252.108 4.727 -209.688
v -243.863 4.727 -204.099
v -252.572 4.727 -191.252
f 688 687 686 685
f 681 682 686 685
f 682 683 687 686
f 683 684 688 687
f 684 681 685 688
v -233.925 0.357 -106.949
v -221.237 0.357 -136.707
v -196.575 0.357 -126.191
v -209.263 0.357 -96.433
v -233.925 7.157 -106.949
v -221.237 7.157 -136.707
v -196.575 7.157 -126.191
v -209.263 7.157 -96.433
f 696 695 694 693
f 689 690 694 693
f 690 691 695 694
f 691 692 696 695
f 692 689 693 696
v -262.559 0.902 -128.272
v -242.412 0.902 -123.103
v -245.381 0.902 -111.528
v -265.528 0.902 -116.697
v -262.559 4.802 -128.272
v -242.412 4.802 -123.103
v -245.381 4.802 -111.528
v -265.528 4.802 -116.697
f 704 703 702 701
f 697 698 702 701
f 698 699 703 702
f 699 700 704 703
f 700 697 701 704
v -248.997 0.593 -119.517
v -230.020 0.593 -108.687
v -238.263 0.593 -94.243
v -257.240 0.593 -105.073
v -248.997 4.493 -119.517
v -230.020 4.493 -108.687
v -238.263 4.493 -94.243
v -257.240 4.493 -105.073
f 712 711 710 709
f 705 706 710 709
f 706 707 711 710
f 707 708 712 711
f 708 705 709 712
v -242.273 0.720 -100.659
v -227.386 0.720 -91.105
v -234.807 0.720 -79.541
v -249.694 0.720 -89.095
v -242.273 4.620 -100.659
v -227.386 4.620 -91.105
v -234.807 4.620 -79.541
v -249.694 4.620 -89.095
f 720 719 718 717
f 713 714 718 717
f 714 715 719 718
f 715 716 720 719
f 716 713 717 720
v -256.790 0.452 -3.861
v -249.423 0.452 -15.636
v -240.030 0.452 -9.759
v -247.397 0.452 2.016
v -256.790 4.352 -3.861
v -249.423 4.352 -15.636
v -240.030 4.352 -9.759
v -247.397 4.352 2.016
f 728 727 726 725
f 721 722 726 725
f 722 723 727 726
f 723 724 728 727
f 724 721 725 728
v -246.375 0.310 12.599
v -231.950 0.310 22.221
v -236.805 0.310 29.501
v -251.230 0.310 19.879
v -246.375 4.210 12.599
v -231.950 4.210 22.221
v -236.805 4.210 29.501
v -251.230 4.210 19.879
f 736 735 734 733
f 729 730 734 733
f 730 731 735 734
f 731 732 736 735
f 732 729 733 736
v -219.281 0.436 -7.455
v -202.532 0.436 1.452
v -209.819 0.436 15.155
v -226.568 0.436 6.248
v -219.281 4.336 -7.455
v -202.532 4.336 1.452
v -209.819 4.336 15.155
v -226.568 4.336 6.248
f 744 743 742 741
f 737 738 742 741
f 738 739 743 742
f 739 740 744 743
f 740 737 741 744
v -208.688 0.336 6.400
v -193.616 0.336 16.849
v -200.072 0.336 26.160
v -215.144 0.336 15.711
v -208.688 4.236 6.400
v -193.616 4.236 16.849
v -200.072 4.236 26.160
v -215.144 4.236 15.711
f 752 751 750 749
f 745 746 750 749
f 746 747 751 750
f 747 748 752 751
f 748 745 749 752
v -228.604 0.320 25.323
v -225.282 0.320 20.581
v -221.776 0.320 23.037
v -225.098 0.320 27.779
v -228.604 4.220 25.323
v -225.282 4.220 20.581
v -221.776 4.220 23.037
v -225.098 4.220 27.779
f 760 759 758 757
f 753 754 758 757
f 754 755 759 758
f 755 756 760 759
f 756 753 757 760
v -229.298 0.565 48.850
v -222.043 0.565 38.051
v -213.502 0.565 43.790
v -220.757 0.565 54.589
v -229.298 4.465 48.850
v -222.043 4.465 38.051
v -213.502 4.465 43.790
v -220.757 4.465 54.589
f 768 767 766 765
f 761 762 766 765
f 762 763 767 766
f 763 764 768 767
f 764 761 765 768
v -198.849 0.601 20.772
v -186.145 0.601 30.116
v -193.331 0.601 39.888
v -206.035 0.601 30.544
v -198.849 4.501 20.772
v -186.145 4.501 30.116
v -193.331 4.501 39.888
v -206.035 4.501 30.544
f 776 775 774 773
f 769 770 774 773
f 770 771 775 774
f 771 772 776 775
f 772 769 773 776
v -197.049 0.471 48.385
v -180.783 0.471 56.438
v -186.991 0.471 68.975
v -203.257 0.471 60.922
v -197.049 4.371 48.385
v -180.783 4.371 56.438
v -186.991 4.371 68.975
v -203.257 4.371 60.922
f 784 783 782 781
f 777 778 782 781
f 778 779 783 782
f 779 780 784 783
f 780 777 781 784
v -217.210 0.431 60.970
v -203.502 0.431 65.112
v -208.390 0.431 81.290
v -222.098 0.431 77.148
v -217.210 4.331 60.970
v -203.502 4.331 65.112
v -208.390 4.331 81.290
v -222.098 4.331 77.148
f 792 791 790 789
f 785 786 790 789
f 786 787 791 790
f 787 788 792 791
f 788 785 789 792
v -163.596 0.403 77.216
v -149.441 0.403 83.050
v -153.964 0.403 94.024
v -168.119 0.403 88.190
v -163.596 4.303 77.216
v -149.441 4.303 83.050
v -153.964 4.303 94.024
v -168.119 4.303 88.190
f 800 799 798 797
f 793 794 798 797
f 794 795 799 798
f 795 796 800 799
f 796 793 797 800
v -175.730 0.434 86.661
v -173.485 0.434 83.230
v -170.230 0.434 85.359
v -172.475 0.434 88.790
v -175.730 4.334 86.661
v -173.485 4.334 83.230
v -170.230 4.334 85.359
v -172.475 4.334 88.790
f 808 807 806 805
f 801 802 806 805
f 802 803 807 806
f 803 804 808 807
f 804 801 805 808
v -191.850 0.195 90.525
v -176.852 0.195 97.009
v -181.610 0.195 108.015
v -196.608 0.195 101.531
v -191.850 4.095 90.525
v -176.852 4.095 97.009
v -181.610 4.095 108.015
v -196.608 4.095 101.531
f 816 815 814 813
f 809 810 814 813
f 810 811 815 814
f 811 812 816 815
f 812 809 813 816
v -173.698 0.330 96.510
v -168.047 0.330 100.275
v -170.642 0.330 104.170
v -176.293 0.330 100.405
v -173.698 4.230 96.510
v -168.047 4.230 100.275
v -170.642 4.230 104.170
v -176.293 4.230 100.405
f 824 823 822 821
f 817 818 822 821
f 818 819 823 822
f 819 820 824 823
f 820 817 821 824
v -183.252 0.290 102.778
v -170.247 0.290 111.194
v -176.788 0.290 121.302
v -189.793 0.290 112.886
v -183.252 4.190 102.778
v -170.247 4.190 111.194
v -176.788 4.190 121.302
v -189.793 4.190 112.886
f 832 831 830 829
f 825 826 830 829
f 826 827 831 830
f 827 828 832 831
f 828 825 829 832
v -175.522 0.297 114.747
v -161.365 0.297 121.227
v -167.118 0.297 133.793
v -181.275 0.297 127.313
v -175.522 4.197 114.747
v -161.365 4.197 121.227
v -167.118 4.197 133.793
v -181.275 4.197 127.313
f 840 839 838 837
f 833 834 838 837
f 834 835 839 838
f 835 836 840 839
f 836 833 837 840
v -161.305 0.453 111.543
v -157.772 0.453 106.327
v -153.475 0.453 109.237
v -157.008 0.453 114.453
v -161.305 4.353 111.543
v -157.772 4.353 106.327
v -153.475 4.353 109.237
v -157.008 4.353 114.453
f 848 847 846 845
f 841 842 846 845
f 842 843 847 846
f 843 844 848 847
f 844 841 845 848
v -144.496 0.338 92.939
v -132.237 0.338 106.092
v -143.964 0.338 117.021
v -156.223 0.338 103.868
v -144.496 4.238 92.939
v -132.237 4.238 106.092
v -143.964 4.238 117.021
v -156.223 4.238 103.868
f 856 855 854 853
f 849 850 854 853
f 850 851 855 854
f 851 852 856 855
f 852 849 853 856
v -125.044 0.369 109.533
v -122.852 0.369 132.931
v -146.936 0.369 135.187
v -149.128 0.369 111.789
v -125.044 4.269 109.533
v -122.852 4.269 132.931
v -146.936 4.269 135.187
v -149.128 4.269 111.789
f 864 863 862 861
f 857 858 862 861
f 858 859 863 862
f 859 860 864 863
f 860 857 861 864
v -135.932 0.265 133.175
v -127.783 0.265 138.509
v -130.948 0.265 143.345
v -139.097 0.265 138.011
v -135.932 4.165 133.175
v -127.783 4.165 138.509
v -130.948 4.165 143.345
v -139.097 4.165 138.011
f 872 871 870 869
f 865 866 870 869
f 866 867 871 870
f 867 868 872 871
f 868 865 869 872
v -162.758 0.352 125.036
v -147.112 0.352 135.621
v -155.422 0.352 147.904
v -171.068 0.352 137.319
v -162.758 4.252 125.036
v -147.112 4.252 135.621
v -155.422 4.252 147.904
v -171.068 4.252 137.319
f 880 879 878 877
f 873 874 878 877
f 874 875 879 878
f 875 876 880 879
f 876 873 877 880
v -168.381 0.138 184.253
v -163.677 0.138 187.749
v -165.979 0.138 190.847
v -170.683 0.138 187.351
v -168.381 4.038 184.253
v -163.677 4.038 187.749
v -165.979 4.038 190.847
v -170.683 4.038 187.351
f 888 887 886 885
f 881 882 886 885
f 882 883 887 886
f 883 884 888 887
f 884 881 885 888
v -178.973 0.339 187.464
v -164.685 0.339 197.911
v -171.927 0.339 207.816
v -186.215 0.339 197.369
v -178.973 4.239 187.464
v -164.685 4.239 197.911
v -171.927 4.239 207.816
v -186.215 4.239 197.369
f 896 895 894 893
f 889 890 894 893
f 890 891 895 894
f 891 892 896 895
f 892 889 893 896
v -190.951 0.224 192.232
v -187.350 0.224 187.635
v -183.989 0.224 190.268
v -187.590 0.224 194.865
v -190.951 4.124 192.232
v -187.350 4.124 187.635
v -183.989 4.124 190.268
v -187.590 4.124 194.865
f 904 903 902 901
f 897 898 902 901
f 898 899 903 902
f 899 900 904 903
f 900 897 901 904
v -201.984 0.377 209.968
v -190.498 0.377 194.695
v -180.636 0.377 202.112
v -192.122 0.377 217.385
v -201.984 4.277 209.968
v -190.498 4.277 194.695
v -180.636 4.277 202.112
v -192.122 4.277 217.385
f 912 911 910 909
f 905 906 910 909
f 906 907 911 910
f 907 908 912 911
f 908 905 909 912
v -205.390 0.525 167.039
v -197.932 0.525 147.686
v -178.430 0.525 155.201
v -185.888 0.525 174.554
v -205.390 4.425 167.039
v -197.932 4.425 147.686
v -178.430 4.425 155.201
v -185.888 4.425 174.554
f 920 919 918 917
f 913 914 918 917
f 914 915 919 918
f 915 916 920 919
f 916 913 917 920
v -218.029 0.554 174.904
v -211.099 0.554 158.161
v -195.891 0.554 164.456
v -202.821 0.554 181.199
v -218.029 4.454 174.904
v -211.099 4.454 158.161
v -195.891 4.454 164.456
v -202.821 4.454 181.199
f 928 927 926 925
f 921 922 926 925
f 922 923 927 926
f 923 924 928 927
f 924 921 925 928
v -221.981 0.997 216.598
v -213.548 0.997 198.938
v -195.239 0.997 207.682
v -203.672 0.997 225.342
v -221.981 4.897 216.598
v -213.548 4.897 198.938
v -195.239 4.897 207.682
v -203.672 4.897 225.342
f 936 935 934 933
f 929 930 934 933
f 930 931 935 934
f 931 932 936 935
f 932 929 933 936
v -249.160 0.356 195.120
v -240.908 0.356 179.427
v -228.180 0.356 186.120
v -236.432 0.356 201.813
v -249.160 4.256 195.120
v -240.908 4.256 179.427
v -228.180 4.256 186.120
v -236.432 4.256 201.813
f 944 943 942 941
f 937 938 942 941
f 938 939 943 942
f 939 940 944 943
f 940 937 941 944
v -267.158 0.603 206.393
v -257.708 0.603 187.976
v -241.782 0.603 196.147
v -251.232 0.603 214.564
v -267.158 4.503 206.393
v -257.708 4.503 187.976
v -241.782 4.503 196.147
v -251.232 4.503 214.564
f 952 951 950 949
f 945 946 950 949
f 946 947 951 950
f 947 948 952 951
f 948 945 949 952
v -217.136 0.597 214.054
v -210.043 0.597 236.185
v -228.204 0.597 242.006
v -235.297 0.597 219.875
v -217.136 4.497 214.054
v -210.043 4.497 236.185
v -228.204 4.497 242.006
v -235.297 4.497 219.875
f 960 959 958 957
f 953 954 958 957
f 954 955 959 958
f 955 956 960 959
f 956 953 957 960
v -256.004 -0.100 217.379
v -252.055 -0.100 211.539
v -248.236 -0.100 214.121
v -252.185 -0.100 219.961
v -256.004 3.800 217.379
v -252.055 3.800 211.539
v -248.236 3.800 214.121
v -252.185 3.800 219.961
f 968 967 966 965
f 961 962 966 965
f 962 963 967 966
f 963 964 968 967
f 964 961 965 968
v -248.416 0.820 231.154
v -229.411 0.820 235.050
v -232.404 0.820 249.646
v -251.409 0.820 245.750
v -248.416 4.720 231.154
v -229.411 4.720 235.050
v -232.404 4.720 249.646
v -251.409 4.720 245.750
f 976 975 974 973
f 969 970 974 973
f 970 971 975 974
f 971 972 976 975
f 972 969 973 976
v -262.953 0.622 232.273
v -254.033 0.622 220.942
v -243.127 0.622 229.527
v -252.047 0.622 240.858
v -262.953 4.522 232.273
v -254.033 4.522 220.942
v -243.127 4.522 229.527
v -252.047 4.522 240.858
f 984 983 982 981
f 977 978 982 981
f 978 979 983 982
f 979 980 984 983
f 980 977 981 984
v -254.395 0.542 139.451
v -235.809 0.542 141.507
v -237.405 0.542 155.929
v -255.991 0.542 153.873
v -254.395 4.442 139.451
v -235.809 4.442 141.507
v -237.405 4.442 155.929
v -255.991 4.442 153.873
f 992 991 990 989
f 985 986 990 989
f 986 987 991 990
f 987 988 992 991
f 988 985 989 992
v -236.965 0.452 125.966
v -219.623 0.452 132.054
v -225.255 0.452 148.094
v -242.597 0.452 142.006
v -236.965 4.352 125.966
v -219.623 4.352 132.054
v -225.255 4.352 148.094
v -242.597 4.352 142.006
f 1000 999 998 997
f 993 994 998 997
f 994 995 999 998
f 995 996 1000 999
f 996 993 997 1000
v -271.553 0.581 108.713
v -244.834 0.581 96.304
v -234.707 0.581 118.107
v -261.426 0.581 130.516
v -271.553 4.481 108.713
v -244.834 4.481 96.304
v -234.707 4.481 118.107
v -261.426 4.481 130.516
f 1008 1007 1006 1005
f 1001 1002 1006 1005
f 1002 1003 1007 1006
f 1003 1004 1008 1007
f 1004 1001 1005 1008
v -242.475 0.549 87.218
v -227.303 0.549 94.433
v -232.405 0.549 105.162
v -247.577 0.549 97.947
v -242.475 4.449 87.218
v -227.303 4.449 94.433
v -232.405 4.449 105.162
v -247.577 4.449 97.947
f 1016 1015 1014 1013
f 1009 1010 1014 1013
f 1010 1011 1015 1014
f 1011 1012 1016 1015
f 1012 1009 1013 1016
v -121.402 0.280 -220.734
v -108.635 0.280 -213.168
v -115.818 0.280 -201.046
v -128.585 0.280 -208.612
v -121.402 4.180 -220.734
v -108.635 4.180 -213.168
v -115.818 4.180 -201.046
v -128.585 4.180 -208.612
f 1024 1023 1022 1021
f 1017 1018 1022 1021
f 1018 1019 1023 1022
f 1019 1020 1024 1023
f 1020 1017 1021 1024
v -105.216 0.263 -210.106
v -99.262 0.263 -206.255
v -102.884 0.263 -200.654
v -108.838 0.263 -204.505
v -105.216 4.163 -210.106
v -99.262 4.163 -206.255
v -102.884 4.163 -200.654
v -108.838 4.163 -204.505
f 1032 1031 1030 1029
f 1025 1026 1030 1029
f 1026 1027 1031 1030
f 1027 1028 1032 1031
f 1028 1025 1029 1032
v -130.407 0.296 -200.076
v -126.495 0.296 -197.294
v -128.593 0.296 -194.344
v -132.505 0.296 -197.126
v -130.407 4.196 -200.076
v -126.495 4.196 -197.294
v -128.593 4.196 -194.344
v -132.505 4.196 -197.126
f 1040 1039 1038 1037
f 1033 1034 1038 1037
f 1034 1035 1039 1038
f 1035 1036 1040 1039
f 1036 1033 1037 1040
v -157.156 0.396 -204.302
v -134.542 0.396 -206.022
v -133.064 0.396 -186.598
v -155.678 0.396 -184.878
v -157.156 4.296 -204.302
v -134.542 4.296 -206.022
v -133.064 4.296 -186.598
v -155.678 4.296 -184.878
f 1048 1047 1046 1045
f 1041 1042 1046 1045
f 1042 1043 1047 1046
f 1043 1044 1048 1047
f 1044 1041 1045 1048
v -111.021 0.280 -201.366
v -108.813 0.280 -204.133
v -106.859 0.280 -202.574
v -109.067 0.280 -199.807
v -111.021 4.180 -201.366
v -108.813 4.180 -204.133
v -106.859 4.180 -202.574
v -109.067 4.180 -199.807
f 1056 1055 1054 1053
f 1049 1050 1054 1053
f 1050 1051 1055 1054
f 1051 1052 1056 1055
f 1052 1049 1053 1056
v -114.124 0.331 -204.113
v -110.697 0.331 -201.667
v -112.696 0.331 -198.867
v -116.123 0.331 -201.313
v -114.124 4.231 -204.113
v -110.697 4.231 -201.667
v -112.696 4.231 -198.867
v -116.123 4.231 -201.313
f 1064 1063 1062 1061
f 1057 1058 1062 1061
f 1058 1059 1063 1062
f 1059 1060 1064 1063
f 1060 1057 1061 1064
v -109.813 0.392 -200.897
v -104.637 0.392 -189.179
v -113.547 0.392 -185.243
v -118.723 0.392 -196.961
v -109.813 4.292 -200.897
v -104.637 4.292 -189.179
v -113.547 4.292 -185.243
v -118.723 4.292 -196.961
f 1072 1071 1070 1069
f 1065 1066 1070 1069
f 1066 1067 1071 1070
f 1067 1068 1072 1071
f 1068 1065 1069 1072
v -135.118 0.351 -179.508
v -124.237 0.351 -196.182
v -113.342 0.351 -189.072
v -124.223 0.351 -172.398
v -135.118 4.251 -179.508
v -124.237 4.251 -196.182
v -113.342 4.251 -189.072
v -124.223 4.251 -172.398
f 1080 1079 1078 1077
f 1073 1074 1078 1077
f 1074 1075 1079 1078
f 1075 1076 1080 1079
f 1076 1073 1077 1080
v -100.343 0.328 -197.384
v -88.558 0.328 -190.165
v -95.337 0.328 -179.096
v -107.122 0.328 -186.315
v -100.343 4.228 -197.384
v -88.558 4.228 -190.165
v -95.337 4.228 -179.096
v -107.122 4.228 -186.315
f 1088 1087 1086 1085
f 1081 1082 1086 1085
f 1082 1083 1087 1086
f 1083 1084 1088 1087
f 1084 1081 1085 1088
v -131.015 0.349 -177.373
v -112.277 0.349 -165.080
v -117.625 0.349 -156.927
v -136.363 0.349 -169.220
v -131.015 4.249 -177.373
v -112.277 4.249 -165.080
v -117.625 4.249 -156.927
v -136.363 4.249 -169.220
f 1096 1095 1094 1093
f 1089 1090 1094 1093
f 1090 1091 1095 1094
f 1091 1092 1096 1095
f 1092 1089 1093 1096
v -104.368 0.572 -173.894
v -88.922 0.572 -157.409
v -100.152 0.572 -146.886
v -115.598 0.572 -163.371
v -104.368 4.472 -173.894
v -88.922 4.472 -157.409
v -100.152 4.472 -146.886
v -115.598 4.472 -163.371
f 1104 1103 1102 1101
f 1097 1098 1102 1101
f 1098 1099 1103 1102
f 1099 1100 1104 1103
f 1100 1097 1101 1104
v -129.213 0.109 -142.425
v -114.026 0.109 -159.498
v -105.187 0.109 -151.635
v -120.374 0.109 -134.562
v -129.213 4.009 -142.425
v -114.026 4.009 -159.498
v -105.187 4.009 -151.635
v -120.374 4.009 -134.562
f 1112 1111 1110 1109
f 1105 1106 1110 1109
f 1106 1107 1111 1110
f 1107 1108 1112 1111
f 1108 1105 1109 1112
v -129.891 0.088 -73.715
v -123.501 0.088 -69.638
v -126.369 0.088 -65.145
v -132.759 0.088 -69.222
v -129.891 3.988 -73.715
v -123.501 3.988 -69.638
v -126.369 3.988 -65.145
v -132.759 3.988 -69.222
f 1120 1119 1118 1117
f 1113 1114 1118 1117
f 1114 1115 1119 1118
f 1115 1116 1120 1119
f 1116 1113 1117 1120
v -183.411 0.455 -149.263
v -175.111 0.455 -156.588
v -168.289 0.455 -148.857
v -176.589 0.455 -141.532
v -183.411 4.355 -149.263
v -175.111 4.355 -156.588
v -168.289 4.355 -148.857
v -176.589 4.355 -141.532
f 1128 1127 1126 1125
f 1121 1122 1126 1125
f 1122 1123 1127 1126
f 1123 1124 1128 1127
f 1124 1121 1125 1128
v 26.365 1.954 -125.669
v 44.224 1.954 -125.761
v 44.315 1.954 -107.991
v 26.456 1.954 -107.899
v 26.365 5.854 -125.669
v 44.224 5.854 -125.761
v 44.315 5.854 -107.991
v 26.456 5.854 -107.899
f 1136 1135 1134 1133
f 1129 1130 1134 1133
f 1130 1131 1135 1134
f 1131 1132 1136 1135
f 1132 1129 1133 1136
v -50.061 0.660 188.265
v -43.163 0.660 193.076
v -47.779 0.660 199.695
v -54.677 0.660 194.884
v -50.061 4.560 188.265
v -43.163 4.560 193.076
v -47.779 4.560 199.695
v -54.677 4.560 194.884
f 1144 1143 1142 1141
f 1137 1138 1142 1141
f 1138 1139 1143 1142
f 1139 1140 1144 1143
f 1140 1137 1141 1144
usemtl road
v 191.129 0.792 -223.297
v 119.239 0.824 -205.197
v 120.581 0.913 -199.863
v 192.471 0.760 -217.963
f 1145 1146 1147 1148
v -148.155 0.729 -248.988
v -152.535 0.816 -255.178
v -157.025 0.807 -252.002
v -152.645 0.704 -245.812
f 1149 1150 1151 1152
v -152.559 0.815 -255.211
v -154.317 0.763 -257.621
v -158.760 0.776 -254.379
v -157.001 0.807 -251.969
f 1153 1154 1155 1156
v -122.042 0.714 -254.280
v -84.532 0.487 -198.300
v -79.548 0.716 -201.640
v -117.058 0.686 -257.620
f 1157 1158 1159 1160
v -84.803 0.481 -198.800
v -79.463 0.443 -186.190
v -73.937 0.761 -188.530
v -79.277 0.712 -201.140
f 1161 1162 1163 1164
v -79.583 0.445 -186.531
v -70.033 0.371 -153.301
v -64.267 0.652 -154.959
v -73.817 0.761 -188.189
f 1165 1166 1167 1168
v -44.363 0.637 -19.823
v -95.353 0.638 14.407
v -92.287 0.678 18.973
v -41.297 0.591 -15.257
f 1169 1170 1171 1172
v -95.354 0.639 14.407
v -101.754 0.799 18.707
v -98.686 0.790 23.273
v -92.286 0.678 18.973
f 1173 1174 1175 1176
v -101.792 0.799 18.734
v -106.572 0.694 22.064
v -103.428 0.670 26.576
v -98.648 0.791 23.246
f 1177 1178 1179 1180
v -106.573 0.694 22.064
v -157.473 0.536 57.554
v -154.327 0.520 62.066
v -103.427 0.670 26.576
f 1181 1182 1183 1184
v -157.392 0.536 57.500
v -214.922 0.475 94.640
v -211.938 0.462 99.260
v -154.408 0.520 62.120
f 1185 1186 1187 1188
v -228.726 0.682 -42.626
v -158.176 0.506 61.354
v -153.624 0.524 58.266
v -224.174 0.694 -45.714
f 1189 1190 1191 1192
v -158.171 0.506 61.361
v -93.051 0.570 156.661
v -88.509 0.579 153.559
v -153.629 0.524 58.259
f 1193 1194 1195 1196
v -93.064 0.570 156.642
v -90.434 0.572 160.562
v -85.866 0.567 157.498
v -88.496 0.579 153.578
f 1197 1198 1199 1200
v -254.465 0.495 180.438
v -187.325 0.430 135.262
v -190.395 0.414 130.698
v -257.535 0.502 175.875
f 1201 1202 1203 1204
v -186.923 0.858 -227.397
v -179.803 0.828 -216.797
v -175.237 0.843 -219.863
v -182.357 0.850 -230.463
f 1205 1206 1207 1208
v -179.803 0.828 -216.797
v -115.273 0.306 -120.717
v -110.707 0.277 -123.783
v -175.237 0.843 -219.863
f 1209 1210 1211 1212
v -115.274 0.306 -120.719
v -110.784 0.234 -114.019
v -106.216 0.281 -117.081
v -110.706 0.277 -123.781
f 1213 1214 1215 1216
v -110.785 0.234 -114.019
v -45.115 0.613 -16.009
v -40.545 0.649 -19.071
v -106.215 0.281 -117.081
f 1217 1218 1219 1220
v -182.741 0.818 -225.410
v -148.501 0.747 -243.880
v -152.299 0.812 -250.920
v -186.539 0.906 -232.450
f 1221 1222 1223 1224
v -148.636 0.749 -243.810
v -131.137 0.778 -252.410
v -134.665 0.824 -259.590
v -152.164 0.813 -250.990
f 1225 1226 1227 1228
v -187.153 0.901 -232.663
v -242.293 0.930 -195.533
v -237.267 0.896 -188.067
v -182.127 0.818 -225.197
f 1229 1230 1231 1232
v -242.546 0.930 -195.350
v -249.836 0.961 -189.670
v -244.304 0.915 -182.570
v -237.014 0.895 -188.250
f 1233 1234 1235 1236
v -68.720 0.394 -156.388
v -114.560 0.298 -124.508
v -111.420 0.251 -119.992
v -65.580 0.562 -151.872
f 1237 1238 1239 1240
v -114.566 0.298 -124.504
v -164.816 0.691 -89.374
v -161.664 0.661 -84.866
v -111.414 0.251 -119.996
f 1241 1242 1243 1244
v -164.817 0.691 -89.373
v -171.457 0.786 -84.723
v -168.303 0.780 -80.217
v -161.663 0.661 -84.867
f 1245 1246 1247 1248
v -171.423 0.787 -84.746
v -176.543 0.734 -81.276
v -173.457 0.708 -76.724
v -168.337 0.779 -80.194
f 1249 1250 1251 1252
v -176.542 0.734 -81.277
v -227.992 0.688 -46.447
v -224.908 0.674 -41.893
v -173.458 0.708 -76.723
f 1253 1254 1255 1256
v -228.034 0.688 -46.418
v -257.584 0.766 -25.598
v -254.416 0.638 -21.102
v -224.866 0.674 -41.922
f 1257 1258 1259 1260
v 63.402 0.654 253.763
v 7.116 0.636 170.333
v 0.484 0.552 174.807
v 56.770 0.661 258.237
f 1261 1262 1263 1264
v 7.114 0.636 170.330
v -28.466 0.670 117.700
v -35.094 0.652 122.180
v 0.486 0.552 174.810
f 1265 1266 1267 1268
v -249.217 0.972 -188.884
v -258.147 1.027 -181.950
v -253.853 0.970 -176.421
v -244.923 0.915 -183.356
f 1269 1270 1271 1272
v -258.262 0.540 36.344
v -232.222 0.477 73.985
v -227.698 0.503 70.855
v -253.738 0.556 33.215
f 1273 1274 1275 1276
v -232.241 0.477 73.957
v -215.711 0.524 98.487
v -211.149 0.405 95.413
v -227.679 0.503 70.883
f 1277 1278 1279 1280
v -215.702 0.524 98.499
v -191.132 0.422 134.529
v -186.588 0.406 131.431
v -211.158 0.405 95.401
f 1281 1282 1283 1284
v -191.153 0.422 134.498
v -151.073 0.486 195.038
v -146.487 0.537 192.002
v -186.567 0.405 131.462
f 1285 1286 1287 1288
v -151.096 0.486 195.003
v -148.126 0.535 199.643
v -143.494 0.563 196.677
v -146.464 0.537 192.037
f 1289 1290 1291 1292
v -3.001 1.283 -222.326
v -8.661 1.246 -220.886
v -7.799 1.252 -217.494
v -2.139 1.260 -218.934
f 1293 1294 1295 1296
v -8.661 1.246 -220.886
v -62.411 1.263 -207.236
v -61.549 1.269 -203.844
v -7.799 1.252 -217.494
f 1297 1298 1299 1300
v -61.878 1.262 -207.287
v -63.938 1.267 -207.407
v -64.142 1.274 -203.913
v -62.082 1.269 -203.793
f 1301 1302 1303 1304
v -63.297 1.264 -207.244
v -65.087 1.274 -208.084
v -66.573 1.277 -204.916
v -64.783 1.276 -204.076
f 1305 1306 1307 1308
v -64.526 1.270 -207.667
v -65.636 1.275 -208.907
v -68.244 1.275 -206.573
v -67.134 1.277 -205.333
f 1309 1310 1311 1312
v -65.352 1.275 -208.476
v -65.982 1.279 -209.836
v -69.158 1.272 -208.364
v -68.528 1.274 -207.004
f 1313 1314 1315 1316
v -65.878 1.278 -209.548
v -69.338 1.293 -222.608
v -72.722 1.327 -221.712
v -69.262 1.272 -208.652
f 1317 1318 1319 1320
v -69.338 1.293 -222.608
v -74.048 1.334 -240.378
v -77.432 1.357 -239.482
v -72.722 1.327 -221.712
f 1321 1322 1323 1324
v -74.048 1.334 -240.378
v -78.303 1.276 -256.448
v -81.687 1.317 -255.552
v -77.432 1.357 -239.482
f 1325 1326 1327 1328
v 60.124 1.249 -255.399
v 64.654 1.268 -237.569
v 68.046 1.289 -238.431
v 63.516 1.277 -256.261
f 1329 1330 1331 1332
v 64.654 1.268 -237.568
v 69.144 1.304 -219.948
v 72.536 1.343 -220.812
v 68.046 1.289 -238.432
f 1333 1334 1335 1336
v 69.144 1.304 -219.947
v 73.574 1.361 -202.597
v 76.966 1.397 -203.463
v 72.536 1.343 -220.813
f 1337 1338 1339 1340
v 73.574 1.361 -202.598
v 77.744 1.347 -186.228
v 81.136 1.348 -187.092
v 76.966 1.397 -203.462
f 1341 1342 1343 1344
v 77.964 1.346 -185.720
v 79.014 1.342 -184.070
v 81.966 1.334 -185.950
v 80.916 1.353 -187.600
f 1345 1346 1347 1348
v 79.324 1.345 -183.705
v 80.834 1.372 -182.355
v 83.166 1.313 -184.965
v 81.656 1.339 -186.315
f 1349 1350 1351 1352
v 81.291 1.378 -182.060
v 82.871 1.379 -181.360
v 84.289 1.312 -184.560
v 82.709 1.320 -185.260
f 1353 1354 1355 1356
v 83.506 1.377 -181.212
v 97.926 1.283 -180.602
v 98.074 1.218 -184.098
v 83.654 1.313 -184.708
f 1357 1358 1359 1360
v 98.301 1.276 -180.626
v 100.881 1.229 -181.076
v 100.279 1.189 -184.524
v 97.699 1.223 -184.074
f 1361 1362 1363 1364
v 101.008 1.227 -181.103
v 192.278 1.178 -204.143
v 191.422 1.144 -207.537
v 100.152 1.190 -184.497
f 1365 1366 1367 1368
v 192.907 1.179 -204.445
v 194.267 1.200 -205.475
v 192.153 1.151 -208.265
v 190.793 1.139 -207.235
f 1369 1370 1371 1372
v 194.670 1.206 -205.906
v 195.700 1.226 -207.466
v 192.780 1.156 -209.394
v 191.750 1.147 -207.834
f 1373 1374 1375 1376
v 195.988 1.231 -208.343
v 196.068 1.221 -209.953
v 192.572 1.146 -210.127
v 192.492 1.155 -208.517
f 1377 1378 1379 1380
v 196.022 1.216 -210.446
v 194.452 0.862 -217.036
v 191.048 0.779 -216.224
v 192.618 1.151 -209.634
f 1381 1382 1383 1384
v 194.453 0.863 -217.034
v 193.503 0.753 -221.034
v 190.097 0.750 -220.226
v 191.047 0.779 -216.226
f 1385 1386 1387 1388
v -66.724 0.514 -152.433
v -30.654 1.242 -161.483
v -31.506 1.219 -164.877
v -67.576 0.445 -155.827
f 1389 1390 1391 1392
v -30.655 1.242 -161.482
v -17.425 1.355 -164.792
v -18.275 1.297 -168.188
v -31.505 1.219 -164.878
f 1393 1394 1395 1396
v -17.204 1.354 -164.864
v -13.754 1.380 -166.234
v -15.046 1.315 -169.486
v -18.496 1.295 -168.116
f 1397 1398 1399 1400
v -13.493 1.381 -166.363
v -10.473 1.395 -168.193
v -12.287 1.337 -171.187
v -15.307 1.314 -169.357
f 1401 1402 1403 1404
v -10.240 1.396 -168.362
v -7.690 1.405 -170.552
v -9.970 1.347 -173.208
v -12.520 1.336 -171.018
f 1405 1406 1407 1408
v -7.407 1.402 -170.862
v -5.447 1.402 -173.602
v -8.293 1.338 -175.638
v -10.253 1.346 -172.898
f 1409 1410 1411 1412
v -5.274 1.398 -173.902
v -3.874 1.394 -177.012
v -7.066 1.319 -178.448
v -8.466 1.339 -175.338
f 1413 1414 1415 1416
v -3.767 1.395 -177.329
v -3.037 1.381 -180.429
v -6.443 1.307 -181.231
v -7.173 1.322 -178.131
f 1417 1418 1419 1420
v -2.991 1.377 -180.781
v -2.891 1.350 -184.331
v -6.389 1.297 -184.429
v -6.489 1.308 -180.879
f 1421 1422 1423 1424
v -2.908 1.348 -184.630
v -3.368 1.339 -187.820
v -6.832 1.284 -187.320
v -6.372 1.298 -184.130
f 1425 1426 1427 1428
v -3.448 1.339 -188.146
v -4.508 1.330 -191.186
v -7.812 1.300 -190.034
v -6.752 1.284 -186.994
f 1429 1430 1431 1432
v -4.578 1.330 -191.359
v -5.828 1.337 -193.999
v -8.992 1.309 -192.501
v -7.742 1.299 -189.861
f 1433 1434 1435 1436
v -5.994 1.337 -194.279
v -7.724 1.334 -196.659
v -10.556 1.316 -194.601
v -8.826 1.309 -192.221
f 1437 1438 1439 1440
v -7.973 1.332 -196.934
v -10.363 1.331 -199.074
v -12.697 1.320 -196.466
v -10.307 1.317 -194.326
f 1441 1442 1443 1444
v -10.681 1.336 -199.300
v -13.961 1.353 -201.120
v -15.659 1.327 -198.060
v -12.379 1.321 -196.240
f 1445 1446 1447 1448
v -14.315 1.355 -201.268
v -17.635 1.348 -202.248
v -18.625 1.320 -198.892
v -15.305 1.326 -197.912
f 1449 1450 1451 1452
v -17.941 1.346 -202.310
v -21.351 1.327 -202.680
v -21.729 1.314 -199.200
v -18.319 1.321 -198.830
f 1453 1454 1455 1456
v -21.708 1.326 -202.682
v -25.448 1.301 -202.322
v -25.112 1.289 -198.838
v -21.372 1.317 -199.198
f 1457 1458 1459 1460
v -25.716 1.299 -202.275
v -40.876 1.249 -198.375
v -40.004 1.230 -194.985
v -24.844 1.290 -198.885
f 1461 1462 1463 1464
v -40.876 1.249 -198.375
v -77.136 0.552 -189.055
v -76.264 0.530 -185.665
v -40.004 1.230 -194.985
f 1465 1466 1467 1468
v 34.624 1.246 -209.077
v 71.284 1.331 -218.687
v 70.396 1.320 -222.073
v 33.736 1.239 -212.463
f 1469 1470 1471 1472
v 29.954 1.247 -226.637
v 66.794 1.282 -236.307
v 65.906 1.278 -239.693
v 29.066 1.247 -230.023
f 1473 1474 1475 1476
v 25.234 1.258 -244.427
v 62.264 1.258 -254.137
v 61.376 1.270 -257.523
v 24.346 1.276 -247.813
f 1477 1478 1479 1480
v -6.822 1.312 -229.915
v -4.262 1.264 -220.185
v -0.878 1.283 -221.075
v -3.438 1.337 -230.805
f 1481 1482 1483 1484
v -4.262 1.264 -220.184
v 3.768 1.321 -189.704
v 7.152 1.315 -190.596
v -0.878 1.283 -221.076
f 1485 1486 1487 1488
v 3.969 1.325 -189.234
v 5.069 1.338 -187.444
v 8.051 1.324 -189.276
v 6.951 1.313 -191.066
f 1489 1490 1491 1492
v 5.296 1.342 -187.150
v 6.856 1.361 -185.520
v 9.384 1.327 -187.940
v 7.824 1.322 -189.570
f 1493 1494 1495 1496
v 7.119 1.360 -185.294
v 9.299 1.368 -183.774
v 11.301 1.325 -186.646
v 9.121 1.327 -188.166
f 1497 1498 1499 1500
v 9.791 1.367 -183.536
v 12.421 1.369 -182.736
v 13.439 1.331 -186.084
v 10.809 1.324 -186.884
f 1501 1502 1503 1504
v 12.791 1.371 -182.666
v 15.811 1.388 -182.426
v 16.089 1.335 -185.914
v 13.069 1.330 -186.154
f 1505 1506 1507 1508
v 16.239 1.390 -182.444
v 18.869 1.448 -182.884
v 18.291 1.339 -186.336
v 15.661 1.335 -185.896
f 1509 1510 1511 1512
v 19.286 1.449 -183.009
v 21.146 1.419 -183.829
v 19.734 1.333 -187.031
v 17.874 1.339 -186.211
f 1513 1514 1515 1516
v 21.452 1.416 -184.003
v 24.032 1.382 -185.833
v 22.008 1.323 -188.687
v 19.428 1.335 -186.857
f 1517 1518 1519 1520
v 24.461 1.376 -186.268
v 26.561 1.354 -189.318
v 23.679 1.314 -191.302
v 21.579 1.326 -188.252
f 1521 1522 1523 1524
v 26.815 1.350 -189.874
v 27.615 1.349 -192.984
v 24.225 1.307 -193.856
v 23.425 1.315 -190.746
f 1525 1526 1527 1528
v 27.669 1.349 -193.369
v 27.729 1.344 -195.429
v 24.231 1.299 -195.531
v 24.171 1.309 -193.471
f 1529 1530 1531 1532
v 27.678 1.343 -195.904
v 17.818 1.411 -235.414
v 14.422 1.363 -234.566
v 24.282 1.302 -195.056
f 1533 1534 1535 1536
v 17.655 1.408 -235.831
v 16.105 1.403 -238.661
v 13.035 1.360 -236.979
v 14.585 1.364 -234.149
f 1537 1538 1539 1540
v 15.794 1.402 -239.070
v 13.854 1.398 -240.970
v 11.406 1.369 -238.470
v 13.346 1.360 -236.570
f 1541 1542 1543 1544
v 13.410 1.398 -241.286
v 10.560 1.391 -242.706
v 9.000 1.386 -239.574
v 11.850 1.368 -238.154
f 1545 1546 1547 1548
v 10.137 1.390 -242.853
v 6.347 1.403 -243.643
v 5.633 1.424 -240.217
v 9.423 1.383 -239.427
f 1549 1550 1551 1552
v 5.826 1.404 -243.672
v 3.066 1.415 -243.412
v 3.394 1.434 -239.928
v 6.154 1.419 -240.188
f 1553 1554 1555 1556
v 2.657 1.417 -243.324
v -0.663 1.426 -242.174
v 0.483 1.412 -238.866
v 3.803 1.433 -240.016
f 1557 1558 1559 1560
v -1.099 1.424 -241.950
v -2.899 1.396 -240.680
v -0.881 1.392 -237.820
v 0.919 1.414 -239.090
f 1561 1562 1563 1564
v -3.180 1.391 -240.432
v -5.370 1.356 -238.042
v -2.790 1.364 -235.678
v -0.600 1.400 -238.068
f 1565 1566 1567 1568
v -5.744 1.349 -237.402
v -6.774 1.330 -234.242
v -3.446 1.351 -233.158
v -2.416 1.370 -236.318
f 1569 1570 1571 1572
v -6.860 1.327 -233.710
v -6.880 1.315 -230.370
v -3.380 1.333 -230.350
v -3.360 1.353 -233.690
f 1573 1574 1575 1576
v -2.164 1.407 -240.978
v -12.184 1.286 -239.388
v -11.636 1.284 -235.932
v -1.616 1.382 -237.522
f 1577 1578 1579 1580
v -12.354 1.284 -239.353
v -71.474 1.316 -223.853
v -70.586 1.301 -220.467
v -11.466 1.285 -235.967
f 1581 1582 1583 1584
v -41.823 0.610 -16.109
v -36.733 0.699 -19.689
v -38.747 0.699 -22.551
v -43.837 0.642 -18.971
f 1585 1586 1587 1588
v -36.735 0.699 -19.688
v -30.095 0.937 -24.348
v -32.105 0.935 -27.212
v -38.745 0.699 -22.552
f 1589 1590 1591 1592
v -30.688 0.920 -24.079
v -2.838 1.330 -30.829
v -3.662 1.339 -34.231
v -31.512 0.954 -27.481
f 1593 1594 1595 1596
v -2.837 1.330 -30.829
v -1.147 1.326 -31.239
v -1.973 1.329 -34.641
v -3.663 1.339 -34.231
f 1597 1598 1599 1600
v -1.748 1.328 -31.200
v 8.252 1.229 -30.120
v 8.628 1.222 -33.600
v -1.372 1.327 -34.680
f 1601 1602 1603 1604
v 7.795 1.235 -30.233
v 18.995 1.063 -25.793
v 20.285 1.026 -29.047
v 9.085 1.215 -33.487
f 1605 1606 1607 1608
v 18.997 1.063 -25.792
v 25.757 1.139 -23.122
v 27.043 1.137 -26.378
v 20.283 1.026 -29.048
f 1609 1610 1611 1612
v 7.433 1.395 -242.920
v -2.223 1.365 -256.990
v -5.109 1.401 -255.010
v 4.547 1.414 -240.940
f 1613 1614 1615 1616
v -15.060 1.345 -254.996
v -3.323 1.370 -238.246
v -0.457 1.413 -240.254
v -12.194 1.389 -257.004
f 1617 1618 1619 1620
v -75.296 1.345 -238.237
v -17.816 1.306 -253.317
v -18.704 1.308 -256.703
v -76.184 1.343 -241.623
f 1621 1622 1623 1624
v -17.816 1.306 -253.317
v -14.041 1.354 -254.307
v -14.928 1.370 -257.693
v -18.704 1.308 -256.703
f 1625 1626 1627 1628
v 20.482 1.320 -255.552
v 23.098 1.285 -245.672
v 26.482 1.245 -246.568
v 23.865 1.353 -256.448
f 1629 1630 1631 1632
v 23.099 1.285 -245.671
v 27.819 1.260 -227.881
v 31.201 1.231 -228.779
v 26.481 1.245 -246.569
f 1633 1634 1635 1636
v 27.819 1.260 -227.880
v 32.489 1.251 -210.320
v 35.871 1.231 -211.220
v 31.201 1.231 -228.780
f 1637 1638 1639 1640
v 32.488 1.251 -210.321
v 37.078 1.306 -193.011
v 40.462 1.280 -193.909
v 35.872 1.231 -211.219
f 1641 1642 1643 1644
v 39.214 1.297 -191.767
v 75.714 1.401 -201.337
v 74.826 1.382 -204.723
v 38.326 1.286 -195.153
f 1645 1646 1647 1648
v -257.402 1.027 -184.100
v -255.862 1.029 -183.524
v -253.058 0.969 -191.016
v -254.598 0.978 -191.593
f 1649 1650 1651 1652
v -255.447 1.030 -183.394
v -252.737 0.996 -182.704
v -250.763 0.953 -190.456
v -253.473 0.974 -191.146
f 1653 1654 1655 1656
v -252.141 0.986 -182.599
v -247.461 0.925 -182.139
v -246.679 0.969 -190.101
v -251.359 0.955 -190.561
f 1657 1658 1659 1660
v -157.327 0.761 -256.674
v -187.187 0.909 -232.014
v -182.093 0.815 -225.846
v -152.233 0.803 -250.506
f 1661 1662 1663 1664
v -30.556 0.694 122.403
v -28.946 0.698 121.603
v -31.394 0.678 116.677
v -33.004 0.691 117.477
f 1665 1666 1667 1668
v -28.994 0.698 121.626
v -26.964 0.694 120.666
v -29.316 0.662 115.694
v -31.346 0.677 116.654
f 1669 1670 1671 1672
v -26.744 0.693 120.549
v -25.624 0.689 119.889
v -28.416 0.669 115.151
v -29.536 0.663 115.811
f 1673 1674 1675 1676
v -25.064 0.687 119.453
v -24.234 0.690 118.613
v -28.146 0.680 114.747
v -28.976 0.662 115.587
f 1677 1678 1679 1680
v -24.543 0.687 118.882
v -22.403 0.686 117.282
v -25.697 0.733 112.878
v -27.837 0.690 114.478
f 1681 1682 1683 1684
v -22.470 0.687 117.331
v 34.210 0.848 77.551
v 31.050 0.834 73.049
v -25.630 0.734 112.829
f 1685 1686 1687 1688
v 34.210 0.848 77.550
v 38.610 0.647 74.460
v 35.450 0.806 69.960
v 31.050 0.834 73.050
f 1689 1690 1691 1692
v -229.643 0.443 258.902
v -143.853 0.552 201.062
v -147.767 0.535 195.258
v -233.556 0.509 253.098
f 1693 1694 1695 1696
v -143.841 0.552 201.054
v -139.991 0.556 198.434
v -143.929 0.558 192.646
v -147.779 0.535 195.266
f 1697 1698 1699 1700
v -139.995 0.556 198.436
v -86.185 0.567 161.926
v -90.115 0.566 156.134
v -143.925 0.558 192.644
f 1701 1702 1703 1704
v -86.215 0.567 161.946
v -38.405 0.633 130.226
v -42.275 0.649 124.394
v -90.085 0.566 156.114
f 1705 1706 1707 1708
v -38.403 0.633 130.225
v -36.913 0.653 129.235
v -40.787 0.650 123.405
v -42.277 0.649 124.395
f 1709 1710 1711 1712
v -36.825 0.654 129.175
v -33.935 0.663 127.125
v -37.985 0.627 121.415
v -40.875 0.651 123.465
f 1713 1714 1715 1716
v -33.559 0.663 126.817
v -31.989 0.670 125.337
v -36.791 0.639 120.243
v -38.361 0.626 121.723
f 1717 1718 1719 1720
v -31.944 0.671 125.293
v -30.634 0.690 124.013
v -35.526 0.663 119.007
v -36.836 0.638 120.287
f 1721 1722 1723 1724
v -30.384 0.693 123.742
v -29.084 0.700 122.172
v -34.476 0.684 117.708
v -35.776 0.658 119.278
f 1725 1726 1727 1728
v -28.492 0.669 117.663
v -30.902 0.677 114.183
v -37.478 0.639 118.737
v -35.068 0.652 122.217
f 1729 1730 1731 1732
v -30.900 0.677 114.185
v -96.930 0.739 18.715
v -103.510 0.735 23.265
v -37.480 0.639 118.735
f 1733 1734 1735 1736
v -96.902 0.739 18.756
v -166.562 0.748 -84.704
v -173.198 0.745 -80.236
v -103.538 0.735 23.224
f 1737 1738 1739 1740
v -166.547 0.748 -84.682
v -171.147 0.747 -91.612
v -177.813 0.767 -87.188
v -173.213 0.745 -80.258
f 1741 1742 1743 1744
v -171.148 0.747 -91.614
v -201.678 0.774 -137.564
v -208.342 0.830 -133.136
v -177.812 0.767 -87.186
f 1745 1746 1747 1748
v -201.678 0.774 -137.562
v -208.018 0.786 -147.112
v -214.682 0.862 -142.688
v -208.342 0.830 -133.138
f 1749 1750 1751 1752
v -208.018 0.786 -147.114
v -217.838 0.851 -161.894
v -224.502 0.821 -157.466
v -214.682 0.862 -142.686
f 1753 1754 1755 1756
v -217.838 0.851 -161.893
v -231.078 0.845 -181.823
v -237.742 0.894 -177.397
v -224.502 0.821 -157.467
f 1757 1758 1759 1760
v -231.137 0.846 -181.909
v -231.727 0.856 -182.749
v -238.273 0.894 -178.151
v -237.683 0.894 -177.311
f 1761 1762 1763 1764
v -231.742 0.856 -182.770
v -232.632 0.864 -184.020
v -239.148 0.897 -179.380
v -238.258 0.894 -178.130
f 1765 1766 1767 1768
v -232.893 0.865 -184.349
v -234.033 0.874 -185.639
v -240.027 0.911 -180.341
v -238.887 0.892 -179.051
f 1769 1770 1771 1772
v -234.621 0.882 -186.183
v -236.251 0.894 -187.413
v -241.069 0.909 -181.027
v -239.439 0.904 -179.797
f 1773 1774 1775 1776
v -236.939 0.896 -187.831
v -238.639 0.897 -188.641
v -242.081 0.917 -181.419
v -240.381 0.912 -180.609
f 1777 1778 1779 1780
v -239.302 0.900 -188.888
v -241.052 0.915 -189.368
v -243.168 0.923 -181.652
v -241.418 0.912 -181.172
f 1781 1782 1783 1784
v -241.510 0.923 -189.465
v -243.420 0.951 -189.755
v -244.620 0.927 -181.845
v -242.710 0.921 -181.555
f 1785 1786 1787 1788
v -243.603 0.953 -189.778
v -246.653 0.969 -190.098
v -247.487 0.925 -182.142
v -244.437 0.927 -181.822
f 1789 1790 1791 1792
v 92.072 1.174 241.331
v 75.078 1.062 254.621
v 77.234 1.123 257.379
v 94.228 1.148 244.089
f 1793 1794 1795 1796
v 212.471 1.056 233.938
v 211.881 1.152 239.278
v 215.359 1.151 239.662
v 215.949 1.035 234.322
f 1797 1798 1799 1800
v 212.569 1.135 238.071
v 208.669 1.162 241.001
v 210.771 1.191 243.799
v 214.671 1.169 240.869
f 1801 1802 1803 1804
v 209.357 1.162 240.688
v 193.307 1.147 244.088
v 194.033 1.179 247.512
v 210.083 1.191 244.112
f 1805 1806 1807 1808
v 193.034 1.148 244.170
v 166.895 1.214 254.370
v 168.167 1.176 257.630
v 194.306 1.178 247.430
f 1809 1810 1811 1812
v 101.078 1.157 250.695
v 94.568 1.142 241.685
v 91.732 1.160 243.735
v 98.242 1.190 252.745
f 1813 1814 1815 1816
v 94.568 1.142 241.685
v 91.988 1.183 238.115
v 89.152 1.191 240.165
v 91.732 1.160 243.735
f 1817 1818 1819 1820
v 92.048 1.182 238.204
v 61.208 0.613 189.514
v 58.252 1.177 191.386
v 89.092 1.191 240.076
f 1821 1822 1823 1824
v 61.071 0.611 189.326
v 39.731 0.922 163.876
v 37.049 1.075 166.124
v 58.389 1.178 191.574
f 1825 1826 1827 1828
v 37.591 1.004 163.443
v 18.931 1.157 173.013
v 20.529 1.135 176.127
v 39.189 1.007 166.557
f 1829 1830 1831 1832
v 255.070 1.185 252.054
v 249.350 1.079 248.244
v 247.410 1.103 251.156
v 253.130 1.083 254.966
f 1833 1834 1835 1836
v 246.632 1.095 249.625
v 246.361 1.093 255.925
v 249.858 1.132 256.075
v 250.128 1.089 249.775
f 1837 1838 1839 1840
v 18.259 1.107 175.518
v 68.739 0.842 253.888
v 71.681 1.017 251.992
v 21.201 1.174 173.622
f 1841 1842 1843 1844
v 68.796 0.838 253.971
v 71.027 0.799 257.031
v 73.855 1.003 254.969
v 71.624 1.020 251.909
f 1845 1846 1847 1848
v 242.812 1.071 257.280
v 249.573 1.101 250.980
v 247.187 1.088 248.420
v 240.426 1.108 254.720
f 1849 1850 1851 1852
v 249.361 1.079 248.251
v 233.591 0.986 237.581
v 231.629 1.056 240.479
v 247.399 1.103 251.149
f 1853 1854 1855 1856
v 233.219 0.986 237.390
v 222.129 0.985 233.270
v 220.911 1.076 236.550
v 232.001 1.057 240.670
f 1857 1858 1859 1860
v 221.706 0.983 233.170
v 214.396 1.017 232.390
v 214.024 1.086 235.870
v 221.334 1.078 236.650
f 1861 1862 1863 1864
v 215.818 1.019 233.439
v 211.888 0.984 224.299
v 208.672 1.039 225.681
v 212.602 1.073 234.821
f 1865 1866 1867 1868
v 211.710 0.982 223.981
v 205.000 0.942 214.471
v 202.140 1.136 216.489
v 208.850 1.036 225.999
f 1869 1870 1871 1872
v 204.696 0.935 214.141
v 195.206 1.052 206.161
v 192.954 1.165 208.839
v 202.444 1.134 216.819
f 1873 1874 1875 1876
v 195.016 1.052 206.021
v 181.366 1.042 197.381
v 179.494 1.163 200.339
v 193.144 1.165 208.979
f 1877 1878 1879 1880
v 180.990 1.036 197.202
v 143.280 1.027 184.462
v 142.160 1.175 187.778
v 179.870 1.164 200.518
f 1881 1882 1883 1884
v 142.662 1.022 184.371
v 133.032 0.904 184.691
v 133.148 1.002 188.189
v 142.778 1.176 187.869
f 1885 1886 1887 1888
v 132.211 0.886 184.927
v 126.721 0.839 188.117
v 128.479 0.978 191.143
v 133.969 1.017 187.953
f 1889 1890 1891 1892
v 126.185 0.840 188.600
v 122.915 0.906 193.090
v 125.745 1.021 195.150
v 129.015 0.979 190.660
f 1893 1894 1895 1896
v 122.589 0.920 193.941
v 122.019 0.986 199.471
v 125.501 1.056 199.829
v 126.071 1.014 194.299
f 1897 1898 1899 1900
v 122.131 0.999 200.289
v 124.771 1.076 207.019
v 128.029 1.104 205.741
v 125.389 1.044 199.011
f 1901 1902 1903 1904
v 125.465 1.078 207.859
v 130.165 1.082 210.829
v 132.035 1.125 207.871
v 127.335 1.098 204.901
f 1905 1906 1907 1908
v 130.408 1.083 210.957
v 180.658 1.149 232.607
v 182.042 1.179 229.393
v 131.792 1.125 207.743
f 1909 1910 1911 1912
v 180.507 1.148 232.534
v 188.457 1.133 236.904
v 190.143 1.153 233.836
v 182.193 1.179 229.466
f 1913 1914 1915 1916
v 187.790 1.153 236.255
v 192.180 1.143 243.745
v 195.200 1.147 241.975
v 190.810 1.149 234.485
f 1917 1918 1919 1920
v 191.940 1.133 242.848
v 191.920 1.157 245.788
v 195.420 1.163 245.812
v 195.440 1.143 242.872
f 1921 1922 1923 1924
v 21.197 1.054 -26.621
v 32.287 1.293 -48.231
v 29.173 1.228 -49.829
v 18.083 1.052 -28.219
f 1925 1926 1927 1928
v 31.888 1.281 -47.718
v 35.228 1.324 -50.668
v 32.912 1.279 -53.292
v 29.572 1.230 -50.342
f 1929 1930 1931 1932
v 34.715 1.319 -50.353
v 40.445 1.374 -52.623
v 39.155 1.346 -55.877
v 33.425 1.301 -53.607
f 1933 1934 1935 1936
v 40.246 1.372 -52.558
v 74.586 1.353 -61.608
v 73.694 1.440 -64.992
v 39.354 1.351 -55.942
f 1937 1938 1939 1940
v 74.593 1.353 -61.610
v 94.323 1.439 -66.900
v 93.417 1.893 -70.280
v 73.687 1.440 -64.990
f 1941 1942 1943 1944
v -254.988 1.324 -227.101
v -216.215 1.282 -254.572
v -218.238 1.073 -257.428
v -257.012 1.208 -229.957
f 1945 1946 1947 1948
v 2.864 0.636 171.091
v -0.756 0.538 173.381
v 1.116 0.535 176.339
v 4.736 0.640 174.049
f 1949 1950 1951 1952
v -0.757 0.538 173.382
v -13.137 0.743 181.232
v -11.263 0.890 184.188
v 1.117 0.535 176.338
f 1953 1954 1955 1956
v -13.175 0.744 181.257
v -13.935 0.758 181.767
v -11.985 0.936 184.673
v -11.225 0.888 184.163
f 1957 1958 1959 1960
v -13.941 0.758 181.771
v -93.751 0.837 235.811
v -91.789 1.019 238.709
v -11.979 0.936 184.669
f 1961 1962 1963 1964
v -93.745 0.836 235.807
v -96.265 0.877 237.497
v -94.315 1.125 240.403
v -91.795 1.019 238.713
f 1965 1966 1967 1968
v -96.112 0.875 237.405
v -102.202 0.881 240.645
v -100.558 1.065 243.735
v -94.468 1.126 240.495
f 1969 1970 1971 1972
v -101.630 0.884 240.458
v -106.470 0.863 241.158
v -105.970 0.872 244.622
v -101.130 1.062 243.922
f 1973 1974 1975 1976
v -105.381 0.868 241.354
v -109.171 0.833 239.284
v -110.849 0.858 242.356
v -107.059 0.862 244.426
f 1977 1978 1979 1980
v -108.551 0.843 239.854
v -118.971 0.821 224.124
v -121.889 0.838 226.056
v -111.469 0.854 241.786
f 1981 1982 1983 1984
v -119.016 0.821 224.059
v -137.786 0.540 198.319
v -140.614 0.550 200.381
v -121.844 0.838 226.121
f 1985 1986 1987 1988
v -137.783 0.540 198.323
v -140.543 0.576 194.513
v -143.377 0.564 196.567
v -140.617 0.551 200.377
f 1989 1990 1991 1992
v -91.355 0.876 236.230
v -96.095 0.956 229.720
v -98.925 0.932 231.780
v -94.185 0.939 238.290
f 1993 1994 1995 1996
v -95.806 0.942 230.353
v -97.406 0.917 223.483
v -100.814 0.905 224.277
v -99.214 0.939 231.147
f 1997 1998 1999 2000
v -97.365 0.920 223.745
v -97.945 0.874 216.265
v -101.435 0.876 216.535
v -100.855 0.904 224.015
f 2001 2002 2003 2004
v -98.271 0.872 215.376
v -112.051 0.823 196.266
v -114.889 0.859 198.314
v -101.109 0.880 217.424
f 2005 2006 2007 2008
v -11.482 0.770 182.283
v -32.462 0.842 149.193
v -35.418 0.691 151.067
v -14.438 0.855 184.157
f 2009 2010 2011 2012
v 38.035 0.538 73.642
v 88.635 0.989 38.132
v 86.625 1.051 35.268
v 36.025 0.741 70.778
f 2013 2014 2015 2016
v -257.421 1.092 -165.455
v -242.801 1.019 -145.118
v -239.959 1.021 -147.162
v -254.579 1.053 -167.498
f 2017 2018 2019 2020
v -240.406 1.010 -144.686
v -225.756 0.803 -154.506
v -227.704 0.811 -157.414
v -242.354 1.028 -147.594
f 2021 2022 2023 2024
v -225.757 0.803 -154.506
v -220.197 0.862 -158.226
v -222.143 0.866 -161.134
v -227.703 0.811 -157.414
f 2025 2026 2027 2028
v 10.714 0.737 37.780
v 12.674 0.732 31.340
v 9.326 0.728 30.320
v 7.366 0.700 36.760
f 2029 2030 2031 2032
v 12.697 0.729 30.401
v -0.113 0.708 -20.219
v -3.507 0.708 -19.361
v 9.303 0.728 31.259
f 2033 2034 2035 2036
v -2.258 0.699 -21.482
v -13.048 0.684 -18.622
v -12.152 0.688 -15.238
v -1.362 0.702 -18.098
f 2037 2038 2039 2040
v -14.313 0.692 -16.571
v -4.253 0.705 31.469
v -0.827 0.687 30.751
v -10.887 0.694 -17.289
f 2041 2042 2043 2044
v -3.362 0.706 32.655
v 8.218 0.707 38.815
v 9.862 0.733 35.725
v -1.718 0.690 29.565
f 2045 2046 2047 2048
v 34.117 0.730 74.378
v 10.527 0.738 36.348
v 7.553 0.701 38.192
v 31.143 0.834 76.222
f 2049 2050 2051 2052
v -203.976 0.860 -133.938
v -198.446 0.789 -137.988
v -200.514 0.786 -140.812
v -206.044 0.860 -136.762
f 2053 2054 2055 2056
v -198.458 0.789 -137.979
v -181.478 0.896 -150.189
v -183.522 0.830 -153.031
v -200.502 0.786 -140.821
f 2057 2058 2059 2060
v -181.062 0.874 -152.607
v -187.272 0.863 -161.567
v -190.148 0.836 -159.573
v -183.938 0.842 -150.613
f 2061 2062 2063 2064
v -189.709 0.847 -162.007
v -206.699 0.810 -150.197
v -204.701 0.799 -147.323
v -187.711 0.853 -159.133
f 2065 2066 2067 2068
v -206.687 0.810 -150.205
v -212.337 0.865 -146.345
v -210.363 0.863 -143.455
v -204.713 0.799 -147.315
f 2069 2070 2071 2072
usemtl asphalt
