# Baked ultra-low Key West silhouette; generated by bake_key_west_far_city.py
mtllib far_city.mtl
usemtl massing
v -104.521 1.672 -197.620
v 4.092 1.672 -332.199
v 92.361 1.672 -260.960
v -16.252 1.672 -126.381
v -104.521 10.972 -197.620
v 4.092 10.972 -332.199
v 92.361 10.972 -260.960
v -16.252 10.972 -126.381
f 8 7 6 5
f 1 2 6 5
f 2 3 7 6
f 3 4 8 7
f 4 1 5 8
v 164.629 0.825 -274.251
v 234.623 0.825 -249.864
v 226.911 0.825 -227.729
v 156.917 0.825 -252.116
v 164.629 9.125 -274.251
v 234.623 9.125 -249.864
v 226.911 9.125 -227.729
v 156.917 9.125 -252.116
f 16 15 14 13
f 9 10 14 13
f 10 11 15 14
f 11 12 16 15
f 12 9 13 16
v 80.633 0.835 -240.209
v 150.926 0.835 -261.057
v 157.287 0.835 -239.611
v 86.994 0.835 -218.763
v 80.633 6.635 -240.209
v 150.926 6.635 -261.057
v 157.287 6.635 -239.611
v 86.994 6.635 -218.763
f 24 23 22 21
f 17 18 22 21
f 18 19 23 22
f 19 20 24 23
f 20 17 21 24
usemtl road
v -246.109 0.456 -246.215
v -248.599 0.499 -249.915
v -253.161 0.477 -246.845
v -250.671 0.480 -243.145
f 25 26 27 28
v 110.135 0.867 -190.398
v 104.895 0.822 -196.698
v 98.745 0.890 -191.582
v 103.985 0.978 -185.282
f 29 30 31 32
v 152.583 1.110 -250.438
v 161.573 1.076 -225.408
v 164.867 1.094 -226.592
v 155.877 1.133 -251.622
f 33 34 35 36
v 155.970 1.116 -253.360
v 153.740 1.101 -252.710
v 154.720 1.158 -249.350
v 156.950 1.199 -250.000
f 37 38 39 40
v 153.745 1.101 -252.711
v 145.045 1.081 -250.201
v 146.015 1.175 -246.839
v 154.715 1.158 -249.349
f 41 42 43 44
v 145.965 1.080 -250.215
v 116.789 1.106 -257.695
v 115.920 1.150 -254.305
v 145.095 1.176 -246.825
f 45 46 47 48
v 246.544 1.089 -253.966
v 250.114 1.082 -247.776
v 253.146 1.048 -249.524
v 249.576 1.141 -255.714
f 49 50 51 52
v 250.201 1.081 -247.639
v 254.571 1.019 -241.463
v 257.429 0.956 -243.485
v 253.059 1.052 -249.661
f 53 54 55 56
v 72.374 0.866 -253.121
v 81.574 1.122 -240.461
v 84.406 1.201 -242.519
v 75.206 1.044 -255.179
f 57 58 59 60
v 81.794 1.116 -240.212
v 89.614 1.094 -232.892
v 92.006 1.155 -235.448
v 84.186 1.203 -242.768
f 61 62 63 64
v 90.322 1.100 -232.489
v 136.172 1.036 -219.169
v 137.148 1.132 -222.531
v 91.298 1.151 -235.851
f 65 66 67 68
v 136.711 1.027 -219.101
v 149.771 1.057 -219.481
v 149.669 1.123 -222.979
v 136.609 1.131 -222.599
f 69 70 71 72
v 150.304 1.055 -219.580
v 159.534 1.039 -222.850
v 158.366 1.093 -226.150
v 149.136 1.124 -222.880
f 73 74 75 76
v 159.530 1.039 -222.849
v 163.800 1.063 -224.349
v 162.640 1.105 -227.651
v 158.370 1.093 -226.151
f 77 78 79 80
v 163.803 1.063 -224.350
v 238.253 1.100 -250.670
v 237.087 1.139 -253.970
v 162.637 1.105 -227.650
f 81 82 83 84
v 253.999 0.879 -229.915
v 171.099 0.904 -200.597
v 175.101 0.809 -189.283
v 258.001 0.874 -218.602
f 85 86 87 88
v 171.100 0.904 -200.597
v 132.800 0.855 -187.057
v 136.800 0.840 -175.743
v 175.100 0.809 -189.283
f 89 90 91 92
v 133.727 0.861 -187.303
v 127.177 0.862 -186.113
v 129.323 0.844 -174.307
v 135.873 0.840 -175.497
f 93 94 95 96
v 128.906 0.859 -186.174
v 123.636 0.903 -186.754
v 122.324 0.927 -174.826
v 127.594 0.849 -174.246
f 97 98 99 100
v 124.569 0.889 -186.576
v 116.779 0.898 -188.716
v 113.601 1.009 -177.144
v 121.391 0.942 -175.004
f 101 102 103 104
v 118.292 0.941 -188.066
v 110.162 0.953 -192.976
v 103.958 0.983 -182.704
v 112.088 1.014 -177.794
f 105 106 107 108
v 174.679 0.947 -195.695
v 164.389 1.131 -217.195
v 161.231 1.033 -215.685
v 171.521 0.947 -194.185
f 109 110 111 112
v 164.388 1.131 -217.196
v 160.528 1.075 -225.256
v 157.372 1.052 -223.744
v 161.232 1.033 -215.684
f 113 114 115 116
usemtl asphalt
