# Baked ultra-low Key West silhouette; generated by bake_key_west_far_city.py
mtllib far_city.mtl
usemtl massing
v -39.089 1.110 -125.375
v -16.566 1.110 -128.580
v -14.791 1.110 -116.105
v -37.314 1.110 -112.900
v -39.089 7.410 -125.375
v -16.566 7.410 -128.580
v -14.791 7.410 -116.105
v -37.314 7.410 -112.900
f 8 7 6 5
f 1 2 6 5
f 2 3 7 6
f 3 4 8 7
f 4 1 5 8
v -244.823 1.747 -243.816
v -241.799 1.747 -224.238
v -251.217 1.747 -222.784
v -254.241 1.747 -242.362
v -244.823 8.047 -243.816
v -241.799 8.047 -224.238
v -251.217 8.047 -222.784
v -254.241 8.047 -242.362
f 16 15 14 13
f 9 10 14 13
f 10 11 15 14
f 11 12 16 15
f 12 9 13 16
v -249.132 1.417 -85.588
v -228.507 1.417 -87.770
v -227.528 1.417 -78.512
v -248.153 1.417 -76.330
v -249.132 7.717 -85.588
v -228.507 7.717 -87.770
v -227.528 7.717 -78.512
v -248.153 7.717 -76.330
f 24 23 22 21
f 17 18 22 21
f 18 19 23 22
f 19 20 24 23
f 20 17 21 24
v -169.228 1.381 -100.071
v -150.694 1.381 -102.236
v -149.612 1.381 -92.969
v -168.146 1.381 -90.804
v -169.228 5.281 -100.071
v -150.694 5.281 -102.236
v -149.612 5.281 -92.969
v -168.146 5.281 -90.804
f 32 31 30 29
f 25 26 30 29
f 26 27 31 30
f 27 28 32 31
f 28 25 29 32
v -64.169 1.190 -143.399
v -61.574 1.190 -122.066
v -74.111 1.190 -120.541
v -76.706 1.190 -141.874
v -64.169 5.090 -143.399
v -61.574 5.090 -122.066
v -74.111 5.090 -120.541
v -76.706 5.090 -141.874
f 40 39 38 37
f 33 34 38 37
f 34 35 39 38
f 35 36 40 39
f 36 33 37 40
v -123.072 1.269 -70.536
v -104.397 1.269 -72.701
v -103.308 1.269 -63.304
v -121.983 1.269 -61.139
v -123.072 5.169 -70.536
v -104.397 5.169 -72.701
v -103.308 5.169 -63.304
v -121.983 5.169 -61.139
f 48 47 46 45
f 41 42 46 45
f 42 43 47 46
f 43 44 48 47
f 44 41 45 48
v -44.315 1.216 -53.243
v -25.605 1.216 -55.989
v -24.265 1.216 -46.857
v -42.975 1.216 -44.111
v -44.315 5.116 -53.243
v -25.605 5.116 -55.989
v -24.265 5.116 -46.857
v -42.975 5.116 -44.111
f 56 55 54 53
f 49 50 54 53
f 50 51 55 54
f 51 52 56 55
f 52 49 53 56
v -251.245 1.334 -109.914
v -232.309 1.334 -111.999
v -231.275 1.334 -102.606
v -250.211 1.334 -100.521
v -251.245 5.234 -109.914
v -232.309 5.234 -111.999
v -231.275 5.234 -102.606
v -250.211 5.234 -100.521
f 64 63 62 61
f 57 58 62 61
f 58 59 63 62
f 59 60 64 63
f 60 57 61 64
v 43.447 1.320 -35.333
v 71.796 1.320 -33.641
v 70.913 1.320 -18.847
v 42.564 1.320 -20.539
v 43.447 5.220 -35.333
v 71.796 5.220 -33.641
v 70.913 5.220 -18.847
v 42.564 5.220 -20.539
f 72 71 70 69
f 65 66 70 69
f 66 67 71 70
f 67 68 72 71
f 68 65 69 72
v -74.486 1.593 -203.545
v -66.868 1.593 -186.511
v -75.714 1.593 -182.555
v -83.332 1.593 -199.589
v -74.486 5.493 -203.545
v -66.868 5.493 -186.511
v -75.714 5.493 -182.555
v -83.332 5.493 -199.589
f 80 79 78 77
f 73 74 78 77
f 74 75 79 78
f 75 76 80 79
f 76 73 77 80
v -44.093 1.069 -99.105
v -22.047 1.069 -102.331
v -20.207 1.069 -89.755
v -42.253 1.069 -86.529
v -44.093 4.969 -99.105
v -22.047 4.969 -102.331
v -20.207 4.969 -89.755
v -42.253 4.969 -86.529
f 88 87 86 85
f 81 82 86 85
f 82 83 87 86
f 83 84 88 87
f 84 81 85 88
v -186.008 1.387 -109.601
v -183.653 1.387 -91.433
v -193.332 1.387 -90.179
v -195.687 1.387 -108.347
v -186.008 5.287 -109.601
v -183.653 5.287 -91.433
v -193.332 5.287 -90.179
v -195.687 5.287 -108.347
f 96 95 94 93
f 89 90 94 93
f 90 91 95 94
f 91 92 96 95
f 92 89 93 96
v 79.706 1.202 -45.485
v 81.822 1.202 -31.868
v 77.494 1.202 -31.195
v 75.378 1.202 -44.812
v 79.706 5.102 -45.485
v 81.822 5.102 -31.868
v 77.494 5.102 -31.195
v 75.378 5.102 -44.812
f 104 103 102 101
f 97 98 102 101
f 98 99 103 102
f 99 100 104 103
f 100 97 101 104
v -34.777 1.512 -153.656
v -16.423 1.512 -150.832
v -17.883 1.512 -141.344
v -36.237 1.512 -144.168
v -34.777 5.412 -153.656
v -16.423 5.412 -150.832
v -17.883 5.412 -141.344
v -36.237 5.412 -144.168
f 112 111 110 109
f 105 106 110 109
f 106 107 111 110
f 107 108 112 111
f 108 105 109 112
v -125.063 1.329 -95.014
v -106.471 1.329 -97.284
v -105.297 1.329 -87.666
v -123.889 1.329 -85.396
v -125.063 5.229 -95.014
v -106.471 5.229 -97.284
v -105.297 5.229 -87.666
v -123.889 5.229 -85.396
f 120 119 118 117
f 113 114 118 117
f 114 115 119 118
f 115 116 120 119
f 116 113 117 120
v -133.842 1.416 -229.949
v -128.454 1.416 -212.346
v -137.978 1.416 -209.431
v -143.366 1.416 -227.034
v -133.842 5.316 -229.949
v -128.454 5.316 -212.346
v -137.978 5.316 -209.431
v -143.366 5.316 -227.034
f 128 127 126 125
f 121 122 126 125
f 122 123 127 126
f 123 124 128 127
f 124 121 125 128
v -39.684 1.534 -178.192
v -24.747 1.534 -166.892
v -30.576 1.534 -159.188
v -45.513 1.534 -170.488
v -39.684 5.434 -178.192
v -24.747 5.434 -166.892
v -30.576 5.434 -159.188
v -45.513 5.434 -170.488
f 136 135 134 133
f 129 130 134 133
f 130 131 135 134
f 131 132 136 135
f 132 129 133 136
v 83.835 0.975 -52.903
v 94.463 0.975 -54.643
v 96.105 0.975 -44.617
v 85.477 0.975 -42.877
v 83.835 4.875 -52.903
v 94.463 4.875 -54.643
v 96.105 4.875 -44.617
v 85.477 4.875 -42.877
f 144 143 142 141
f 137 138 142 141
f 138 139 143 142
f 139 140 144 143
f 140 137 141 144
v -94.644 1.146 -75.012
v -76.458 1.146 -77.675
v -75.036 1.146 -67.968
v -93.222 1.146 -65.305
v -94.644 5.046 -75.012
v -76.458 5.046 -77.675
v -75.036 5.046 -67.968
v -93.222 5.046 -65.305
f 152 151 150 149
f 145 146 150 149
f 146 147 151 150
f 147 148 152 151
f 148 145 149 152
v -96.266 1.602 -213.231
v -88.550 1.602 -196.022
v -97.054 1.602 -192.209
v -104.770 1.602 -209.418
v -96.266 5.502 -213.231
v -88.550 5.502 -196.022
v -97.054 5.502 -192.209
v -104.770 5.502 -209.418
f 160 159 158 157
f 153 154 158 157
f 154 155 159 158
f 155 156 160 159
f 156 153 157 160
v -155.418 1.465 -232.973
v -152.863 1.465 -214.742
v -162.102 1.465 -213.447
v -164.657 1.465 -231.678
v -155.418 5.365 -232.973
v -152.863 5.365 -214.742
v -162.102 5.365 -213.447
v -164.657 5.365 -231.678
f 168 167 166 165
f 161 162 166 165
f 162 163 167 166
f 163 164 168 167
f 164 161 165 168
v 220.843 -0.300 -62.202
v 234.212 -0.300 -63.117
v 234.837 -0.300 -53.978
v 221.468 -0.300 -53.063
v 220.843 3.600 -62.202
v 234.212 3.600 -63.117
v 234.837 3.600 -53.978
v 221.468 3.600 -53.063
f 176 175 174 173
f 169 170 174 173
f 170 171 175 174
f 171 172 176 175
f 172 169 173 176
v 65.534 1.079 -77.119
v 80.381 1.079 -78.489
v 81.726 1.079 -63.901
v 66.879 1.079 -62.531
v 65.534 4.979 -77.119
v 80.381 4.979 -78.489
v 81.726 4.979 -63.901
v 66.879 4.979 -62.531
f 184 183 182 181
f 177 178 182 181
f 178 179 183 182
f 179 180 184 183
f 180 177 181 184
v 139.759 1.185 -3.313
v 141.865 1.185 -21.129
v 155.421 1.185 -19.527
v 153.315 1.185 -1.711
v 139.759 5.085 -3.313
v 141.865 5.085 -21.129
v 155.421 5.085 -19.527
v 153.315 5.085 -1.711
f 192 191 190 189
f 185 186 190 189
f 186 187 191 190
f 187 188 192 191
f 188 185 189 192
v -200.781 1.588 -239.176
v -198.190 1.588 -221.191
v -207.959 1.588 -219.784
v -210.550 1.588 -237.769
v -200.781 5.488 -239.176
v -198.190 5.488 -221.191
v -207.959 5.488 -219.784
v -210.550 5.488 -237.769
f 200 199 198 197
f 193 194 198 197
f 194 195 199 198
f 195 196 200 199
f 196 193 197 200
v -46.738 1.074 -78.300
v -27.671 1.074 -80.868
v -26.442 1.074 -71.740
v -45.509 1.074 -69.172
v -46.738 4.974 -78.300
v -27.671 4.974 -80.868
v -26.442 4.974 -71.740
v -45.509 4.974 -69.172
f 208 207 206 205
f 201 202 206 205
f 202 203 207 206
f 203 204 208 207
f 204 201 205 208
v -87.860 1.176 -92.818
v -69.457 1.176 -94.135
v -68.700 1.176 -83.542
v -87.103 1.176 -82.225
v -87.860 5.076 -92.818
v -69.457 5.076 -94.135
v -68.700 5.076 -83.542
v -87.103 5.076 -82.225
f 216 215 214 213
f 209 210 214 213
f 210 211 215 214
f 211 212 216 215
f 212 209 213 216
v 139.625 1.969 -83.980
v 140.703 1.969 -64.219
v 126.055 1.969 -63.420
v 124.977 1.969 -83.181
v 139.625 11.269 -83.980
v 140.703 11.269 -64.219
v 126.055 11.269 -63.420
v 124.977 11.269 -83.181
f 224 223 222 221
f 217 218 222 221
f 218 219 223 222
f 219 220 224 223
f 220 217 221 224
v 110.680 1.599 -109.092
v 117.124 1.599 -69.959
v 93.620 1.599 -66.088
v 87.176 1.599 -105.221
v 110.680 10.899 -109.092
v 117.124 10.899 -69.959
v 93.620 10.899 -66.088
v 87.176 10.899 -105.221
f 232 231 230 229
f 225 226 230 229
f 226 227 231 230
f 227 228 232 231
f 228 225 229 232
v 121.484 2.080 -115.453
v 147.686 2.080 -112.225
v 145.376 2.080 -93.467
v 119.174 2.080 -96.695
v 121.484 11.380 -115.453
v 147.686 11.380 -112.225
v 145.376 11.380 -93.467
v 119.174 11.380 -96.695
f 240 239 238 237
f 233 234 238 237
f 234 235 239 238
f 235 236 240 239
f 236 233 237 240
v -55.740 1.575 -194.639
v -49.237 1.575 -180.064
v -57.940 1.575 -176.181
v -64.443 1.575 -190.756
v -55.740 5.475 -194.639
v -49.237 5.475 -180.064
v -57.940 5.475 -176.181
v -64.443 5.475 -190.756
f 248 247 246 245
f 241 242 246 245
f 242 243 247 246
f 243 244 248 247
f 244 241 245 248
v 128.044 0.815 -49.890
v 129.752 0.815 -39.064
v 120.536 0.815 -37.610
v 118.828 0.815 -48.436
v 128.044 4.715 -49.890
v 129.752 4.715 -39.064
v 120.536 4.715 -37.610
v 118.828 4.715 -48.436
f 256 255 254 253
f 249 250 254 253
f 250 251 255 254
f 251 252 256 255
f 252 249 253 256
v 116.047 1.942 -21.126
v 134.734 1.942 -25.828
v 137.933 1.942 -13.114
v 119.246 1.942 -8.412
v 116.047 5.842 -21.126
v 134.734 5.842 -25.828
v 137.933 5.842 -13.114
v 119.246 5.842 -8.412
f 264 263 262 261
f 257 258 262 261
f 258 259 263 262
f 259 260 264 263
f 260 257 261 264
v 82.986 1.601 -15.726
v 101.500 1.601 -45.781
v 121.414 1.601 -33.514
v 102.900 1.601 -3.459
v 82.986 5.501 -15.726
v 101.500 5.501 -45.781
v 121.414 5.501 -33.514
v 102.900 5.501 -3.459
f 272 271 270 269
f 265 266 270 269
f 266 267 271 270
f 267 268 272 271
f 268 265 269 272
v 82.843 1.812 -29.759
v 91.322 1.812 -11.889
v 80.977 1.812 -6.981
v 72.498 1.812 -24.851
v 82.843 5.712 -29.759
v 91.322 5.712 -11.889
v 80.977 5.712 -6.981
v 72.498 5.712 -24.851
f 280 279 278 277
f 273 274 278 277
f 274 275 279 278
f 275 276 280 279
f 276 273 277 280
v 172.598 1.632 -26.039
v 175.702 1.632 -3.764
v 165.342 1.632 -2.321
v 162.238 1.632 -24.596
v 172.598 5.532 -26.039
v 175.702 5.532 -3.764
v 165.342 5.532 -2.321
v 162.238 5.532 -24.596
f 288 287 286 285
f 281 282 286 285
f 282 283 287 286
f 283 284 288 287
f 284 281 285 288
v 182.794 1.462 -25.987
v 184.475 1.462 -14.813
v 176.366 1.462 -13.593
v 174.685 1.462 -24.767
v 182.794 5.362 -25.987
v 184.475 5.362 -14.813
v 176.366 5.362 -13.593
v 174.685 5.362 -24.767
f 296 295 294 293
f 289 290 294 293
f 290 291 295 294
f 291 292 296 295
f 292 289 293 296
v 178.665 1.443 -14.404
v 207.830 1.443 -29.280
v 218.635 1.443 -8.096
v 189.470 1.443 6.780
v 178.665 7.243 -14.404
v 207.830 7.243 -29.280
v 218.635 7.243 -8.096
v 189.470 7.243 6.780
f 304 303 302 301
f 297 298 302 301
f 298 299 303 302
f 299 300 304 303
f 300 297 301 304
v 231.760 1.597 -24.524
v 238.854 1.597 7.715
v 220.180 1.597 11.824
v 213.086 1.597 -20.415
v 231.760 5.497 -24.524
v 238.854 5.497 7.715
v 220.180 5.497 11.824
v 213.086 5.497 -20.415
f 312 311 310 309
f 305 306 310 309
f 306 307 311 310
f 307 308 312 311
f 308 305 309 312
v 238.894 2.059 7.801
v 244.530 2.059 -23.374
v 266.946 2.059 -19.321
v 261.310 2.059 11.854
v 238.894 5.959 7.801
v 244.530 5.959 -23.374
v 266.946 5.959 -19.321
v 261.310 5.959 11.854
f 320 319 318 317
f 313 314 318 317
f 314 315 319 318
f 315 316 320 319
f 316 313 317 320
v -177.886 0.763 230.909
v -165.574 0.763 222.360
v -160.914 0.763 229.071
v -173.226 0.763 237.620
v -177.886 4.663 230.909
v -165.574 4.663 222.360
v -160.914 4.663 229.071
v -173.226 4.663 237.620
f 328 327 326 325
f 321 322 326 325
f 322 323 327 326
f 323 324 328 327
f 324 321 325 328
v -223.462 1.665 -241.306
v -220.937 1.665 -222.000
v -230.158 1.665 -220.794
v -232.683 1.665 -240.100
v -223.462 5.565 -241.306
v -220.937 5.565 -222.000
v -230.158 5.565 -220.794
v -232.683 5.565 -240.100
f 336 335 334 333
f 329 330 334 333
f 330 331 335 334
f 331 332 336 335
f 332 329 333 336
v -180.720 1.541 -235.549
v -178.383 1.541 -216.733
v -187.900 1.541 -215.551
v -190.237 1.541 -234.367
v -180.720 5.441 -235.549
v -178.383 5.441 -216.733
v -187.900 5.441 -215.551
v -190.237 5.441 -234.367
f 344 343 342 341
f 337 338 342 341
f 338 339 343 342
f 339 340 344 343
f 340 337 341 344
v -116.071 1.503 -222.420
v -105.180 1.503 -204.699
v -115.429 1.503 -198.400
v -126.320 1.503 -216.121
v -116.071 5.403 -222.420
v -105.180 5.403 -204.699
v -115.429 5.403 -198.400
v -126.320 5.403 -216.121
f 352 351 350 349
f 345 346 350 349
f 346 347 351 350
f 347 348 352 351
f 348 345 349 352
v -85.373 1.189 -142.529
v -82.242 1.189 -124.114
v -91.667 1.189 -122.511
v -94.798 1.189 -140.926
v -85.373 5.089 -142.529
v -82.242 5.089 -124.114
v -91.667 5.089 -122.511
v -94.798 5.089 -140.926
f 360 359 358 357
f 353 354 358 357
f 354 355 359 358
f 355 356 360 359
f 356 353 357 360
v -103.378 1.218 -144.695
v -101.609 1.218 -126.018
v -109.982 1.218 -125.225
v -111.751 1.218 -143.902
v -103.378 5.118 -144.695
v -101.609 5.118 -126.018
v -109.982 5.118 -125.225
v -111.751 5.118 -143.902
f 368 367 366 365
f 361 362 366 365
f 362 363 367 366
f 363 364 368 367
f 364 361 365 368
v -130.306 1.249 -147.467
v -129.877 1.249 -129.052
v -140.174 1.249 -128.813
v -140.603 1.249 -147.228
v -130.306 5.149 -147.467
v -129.877 5.149 -129.052
v -140.174 5.149 -128.813
v -140.603 5.149 -147.228
f 376 375 374 373
f 369 370 374 373
f 370 371 375 374
f 371 372 376 375
f 372 369 373 376
v -150.028 1.313 -149.497
v -147.916 1.313 -131.430
v -155.852 1.313 -130.503
v -157.964 1.313 -148.570
v -150.028 5.213 -149.497
v -147.916 5.213 -131.430
v -155.852 5.213 -130.503
v -157.964 5.213 -148.570
f 384 383 382 381
f 377 378 382 381
f 378 379 383 382
f 379 380 384 383
f 380 377 381 384
v -167.833 1.424 -151.729
v -165.334 1.424 -133.136
v -173.847 1.424 -131.991
v -176.346 1.424 -150.584
v -167.833 5.324 -151.729
v -165.334 5.324 -133.136
v -173.847 5.324 -131.991
v -176.346 5.324 -150.584
f 392 391 390 389
f 385 386 390 389
f 386 387 391 390
f 387 388 392 391
f 388 385 389 392
v -185.522 1.470 -153.589
v -183.569 1.470 -135.162
v -192.538 1.470 -134.211
v -194.491 1.470 -152.638
v -185.522 5.370 -153.589
v -183.569 5.370 -135.162
v -192.538 5.370 -134.211
v -194.491 5.370 -152.638
f 400 399 398 397
f 393 394 398 397
f 394 395 399 398
f 395 396 400 399
f 396 393 397 400
v -203.581 1.388 -155.520
v -201.513 1.388 -136.774
v -210.519 1.388 -135.780
v -212.587 1.388 -154.526
v -203.581 5.288 -155.520
v -201.513 5.288 -136.774
v -210.519 5.288 -135.780
v -212.587 5.288 -154.526
f 408 407 406 405
f 401 402 406 405
f 402 403 407 406
f 403 404 408 407
f 404 401 405 408
v -224.286 1.429 -158.415
v -220.182 1.429 -140.530
v -229.354 1.429 -138.425
v -233.458 1.429 -156.310
v -224.286 5.329 -158.415
v -220.182 5.329 -140.530
v -229.354 5.329 -138.425
v -233.458 5.329 -156.310
f 416 415 414 413
f 409 410 414 413
f 410 411 415 414
f 411 412 416 415
f 412 409 413 416
v -241.014 1.273 -159.748
v -238.833 1.273 -140.401
v -247.786 1.273 -139.392
v -249.967 1.273 -158.739
v -241.014 5.173 -159.748
v -238.833 5.173 -140.401
v -247.786 5.173 -139.392
v -249.967 5.173 -158.739
f 424 423 422 421
f 417 418 422 421
f 418 419 423 422
f 419 420 424 423
f 420 417 421 424
v -246.381 1.476 -200.246
v -242.222 1.476 -182.076
v -252.019 1.476 -179.834
v -256.178 1.476 -198.004
v -246.381 5.376 -200.246
v -242.222 5.376 -182.076
v -252.019 5.376 -179.834
v -256.178 5.376 -198.004
f 432 431 430 429
f 425 426 430 429
f 426 427 431 430
f 427 428 432 431
f 428 425 429 432
v -228.759 1.473 -197.634
v -224.370 1.473 -179.539
v -233.661 1.473 -177.286
v -238.050 1.473 -195.381
v -228.759 5.373 -197.634
v -224.370 5.373 -179.539
v -233.661 5.373 -177.286
v -238.050 5.373 -195.381
f 440 439 438 437
f 433 434 438 437
f 434 435 439 438
f 435 436 440 439
f 436 433 437 440
v -210.004 1.460 -195.636
v -205.587 1.460 -177.187
v -215.876 1.460 -174.724
v -220.293 1.460 -193.173
v -210.004 5.360 -195.636
v -205.587 5.360 -177.187
v -215.876 5.360 -174.724
v -220.293 5.360 -193.173
f 448 447 446 445
f 441 442 446 445
f 442 443 447 446
f 443 444 448 447
f 444 441 445 448
v -192.095 1.518 -193.049
v -187.633 1.518 -174.940
v -197.245 1.518 -172.571
v -201.707 1.518 -190.680
v -192.095 5.418 -193.049
v -187.633 5.418 -174.940
v -197.245 5.418 -172.571
v -201.707 5.418 -190.680
f 456 455 454 453
f 449 450 454 453
f 450 451 455 454
f 451 452 456 455
f 452 449 453 456
v -173.984 1.718 -190.259
v -169.644 1.718 -172.533
v -179.416 1.718 -170.141
v -183.756 1.718 -187.867
v -173.984 5.618 -190.259
v -169.644 5.618 -172.533
v -179.416 5.618 -170.141
v -183.756 5.618 -187.867
f 464 463 462 461
f 457 458 462 461
f 458 459 463 462
f 459 460 464 463
f 460 457 461 464
v -155.786 1.558 -188.732
v -151.958 1.558 -169.662
v -161.694 1.558 -167.708
v -165.522 1.558 -186.778
v -155.786 5.458 -188.732
v -151.958 5.458 -169.662
v -161.694 5.458 -167.708
v -165.522 5.458 -186.778
f 472 471 470 469
f 465 466 470 469
f 466 467 471 470
f 467 468 472 471
f 468 465 469 472
v -178.635 1.255 -77.358
v -160.167 1.255 -78.984
v -159.285 1.255 -68.962
v -177.753 1.255 -67.336
v -178.635 5.155 -77.358
v -160.167 5.155 -78.984
v -159.285 5.155 -68.962
v -177.753 5.155 -67.336
f 480 479 478 477
f 473 474 478 477
f 474 475 479 478
f 475 476 480 479
f 476 473 477 480
v -207.910 1.753 -111.816
v -205.516 1.753 -93.865
v -215.270 1.753 -92.564
v -217.664 1.753 -110.515
v -207.910 5.653 -111.816
v -205.516 5.653 -93.865
v -215.270 5.653 -92.564
v -217.664 5.653 -110.515
f 488 487 486 485
f 481 482 486 485
f 482 483 487 486
f 483 484 488 487
f 484 481 485 488
usemtl road
v -57.279 1.413 -56.196
v -51.409 1.212 -105.616
v -56.871 1.280 -106.264
v -62.741 1.424 -56.844
f 489 490 491 492
v 149.068 1.219 252.187
v 150.741 1.132 256.917
v 155.926 1.141 255.083
v 154.252 1.224 250.353
f 493 494 495 496
v -53.830 1.273 -108.672
v -136.340 1.314 -118.042
v -136.960 1.313 -112.578
v -54.450 1.280 -103.208
f 497 498 499 500
v -136.340 1.314 -118.042
v -255.690 1.321 -131.574
v -256.310 1.324 -126.109
v -136.960 1.313 -112.578
f 501 502 503 504
v -235.970 1.197 229.613
v -217.540 1.206 235.693
v -214.720 1.238 227.147
v -233.150 1.178 221.067
f 505 506 507 508
v -217.912 1.206 235.552
v -199.572 1.152 243.462
v -196.008 1.238 235.198
v -214.348 1.240 227.288
f 509 510 511 512
v -199.994 1.150 243.253
v -178.704 1.098 255.213
v -174.296 1.117 247.367
v -195.586 1.242 235.407
f 513 514 515 516
v -138.765 1.557 -69.340
v -134.605 1.298 -108.560
v -140.075 1.317 -109.140
v -144.235 1.584 -69.920
f 517 518 519 520
v -134.606 1.298 -108.558
v -133.916 1.336 -115.018
v -139.384 1.340 -115.602
v -140.074 1.317 -109.142
f 521 522 523 524
v -153.255 0.925 254.734
v -154.135 0.981 249.604
v -157.585 1.024 250.196
v -156.705 0.927 255.326
f 525 526 527 528
v -154.489 0.990 248.812
v -159.299 1.074 242.752
v -162.041 1.125 244.928
v -157.231 1.010 250.988
f 529 530 531 532
v -159.864 1.082 242.287
v -170.464 1.178 236.787
v -172.076 1.232 239.893
v -161.476 1.114 245.393
f 533 534 535 536
v -170.283 1.177 236.895
v -178.743 1.216 231.115
v -180.717 1.270 234.005
v -172.257 1.233 239.785
f 537 538 539 540
v -178.491 1.218 231.324
v -182.421 1.216 227.384
v -184.899 1.246 229.856
v -180.969 1.270 233.796
f 541 542 543 544
v -182.626 1.215 227.208
v -192.596 1.221 219.908
v -194.664 1.247 222.732
v -184.694 1.247 230.032
f 545 546 547 548
v -192.832 1.221 219.762
v -213.102 1.223 209.382
v -214.698 1.261 212.498
v -194.428 1.249 222.878
f 549 550 551 552
v -213.394 1.224 209.265
v -235.814 1.209 202.495
v -236.826 1.234 205.845
v -214.406 1.261 212.615
f 553 554 555 556
v -245.569 1.295 242.615
v -231.339 1.266 247.225
v -230.261 1.292 243.895
v -244.491 1.317 239.285
f 557 558 559 560
v -231.503 1.267 247.162
v -207.722 1.199 257.602
v -206.316 1.241 254.398
v -230.097 1.292 243.958
f 561 562 563 564
v 256.359 1.351 -29.896
v 243.899 1.437 -31.536
v 243.181 1.552 -26.084
v 255.641 1.526 -24.443
f 565 566 567 568
v 243.800 1.436 -31.548
v 231.580 1.354 -32.708
v 231.060 1.503 -27.232
v 243.280 1.553 -26.072
f 569 570 571 572
v 231.063 1.353 -32.708
v 209.323 1.144 -30.668
v 209.837 1.316 -25.192
v 231.577 1.504 -27.232
f 573 574 575 576
v 209.382 1.144 -30.673
v 195.522 1.154 -29.673
v 195.918 1.493 -24.187
v 209.778 1.316 -25.187
f 577 578 579 580
v 196.084 1.154 -29.656
v 177.084 1.037 -32.196
v 176.356 1.588 -26.744
v 195.356 1.499 -24.204
f 581 582 583 584
v 177.184 1.037 -32.181
v 162.524 1.007 -34.691
v 161.596 1.310 -29.269
v 176.256 1.595 -26.759
f 585 586 587 588
v 162.663 1.008 -34.663
v 149.103 0.876 -37.713
v 147.897 1.063 -32.347
v 161.457 1.297 -29.297
f 589 590 591 592
v 149.856 0.883 -37.422
v 141.196 0.762 -42.332
v 138.484 0.933 -37.548
v 147.144 1.058 -32.638
f 593 594 595 596
v 141.982 0.774 -41.665
v 137.392 0.800 -47.365
v 133.108 0.860 -43.915
v 137.698 0.941 -38.215
f 597 598 599 600
v 137.510 0.794 -47.207
v 133.750 1.056 -52.627
v 129.230 0.913 -49.493
v 132.990 0.859 -44.073
f 601 602 603 604
v 132.218 1.134 -53.712
v 122.168 1.192 -56.472
v 120.712 0.915 -51.168
v 130.762 0.879 -48.408
f 605 606 607 608
v 121.861 1.178 -56.538
v 116.961 1.012 -57.298
v 116.119 0.949 -51.862
v 121.019 0.913 -51.102
f 609 610 611 612
v 116.959 1.012 -57.298
v 85.499 1.077 -62.148
v 84.661 1.084 -56.712
v 116.121 0.949 -51.862
f 613 614 615 616
v -51.423 1.212 -105.514
v -45.183 1.145 -145.284
v -50.617 1.278 -146.136
v -56.857 1.280 -106.366
f 617 618 619 620
v -45.313 1.147 -146.642
v -47.943 1.198 -153.942
v -53.117 1.276 -152.078
v -50.487 1.269 -144.778
f 621 622 623 624
v -48.890 1.219 -155.217
v -54.810 1.248 -159.617
v -58.090 1.238 -155.203
v -52.170 1.272 -150.803
f 625 626 627 628
v -55.276 1.250 -159.897
v -132.756 1.180 -196.457
v -135.104 1.189 -191.483
v -57.624 1.243 -154.923
f 629 630 631 632
v -133.132 1.180 -196.602
v -141.342 1.174 -199.092
v -142.938 1.160 -193.828
v -134.728 1.190 -191.338
f 633 634 635 636
v 137.731 1.029 263.194
v 147.462 1.094 260.324
v 143.218 1.086 245.936
v 133.487 1.057 248.806
f 637 638 639 640
v 147.457 1.094 260.325
v 153.777 1.086 258.465
v 149.543 1.088 244.075
v 143.223 1.086 245.935
f 641 642 643 644
v 153.624 1.086 258.508
v 185.974 1.175 249.728
v 182.046 1.193 235.252
v 149.696 1.088 244.032
f 645 646 647 648
v 185.975 1.175 249.728
v 210.955 1.047 242.948
v 207.025 1.082 228.472
v 182.045 1.193 235.252
f 649 650 651 652
v 210.995 1.047 242.937
v 240.655 0.961 234.707
v 236.645 1.012 220.253
v 206.985 1.082 228.483
f 653 654 655 656
v 240.630 0.961 234.714
v 256.380 0.853 230.404
v 252.420 0.933 215.936
v 236.670 1.013 220.246
f 657 658 659 660
v -139.881 1.064 250.301
v -142.331 1.080 248.201
v -144.609 1.107 250.859
v -142.159 1.091 252.959
f 661 662 663 664
v -143.114 1.085 247.817
v -145.474 1.102 247.327
v -146.186 1.106 250.753
v -143.826 1.102 251.243
f 665 666 667 668
v -145.983 1.106 247.297
v -150.553 1.064 247.697
v -150.247 1.007 251.183
v -145.677 1.108 250.783
f 669 670 671 672
v -150.547 1.064 247.696
v -156.007 1.016 248.156
v -155.713 0.985 251.644
v -150.253 1.007 251.184
f 673 674 675 676
v 118.286 0.974 -54.466
v 120.316 1.682 -85.536
v 116.824 1.637 -85.764
v 114.794 0.975 -54.694
f 677 678 679 680
v 207.326 1.245 236.252
v 210.306 1.024 245.392
v 213.634 1.015 244.308
v 210.654 1.221 235.168
f 681 682 683 684
v 210.305 1.024 245.390
v 213.919 0.914 256.540
v 217.249 0.921 255.460
v 213.635 1.015 244.310
f 685 686 687 688
v 247.166 0.829 247.483
v 243.306 0.955 236.213
v 239.994 0.925 237.347
v 243.854 0.859 248.617
f 689 690 691 692
v 243.315 0.955 236.243
v 240.315 1.122 226.943
v 236.985 1.135 228.017
v 239.985 0.925 237.317
f 693 694 695 696
v 189.713 0.956 255.537
v 188.528 1.145 251.217
v 185.152 1.159 252.143
v 186.338 0.965 256.463
f 697 698 699 700
v 188.512 1.147 251.165
v 185.682 1.317 241.975
v 182.338 1.338 243.005
v 185.168 1.158 252.195
f 701 702 703 704
v 244.179 0.898 256.612
v 247.149 0.832 248.662
v 243.871 0.856 247.438
v 240.901 1.013 255.388
f 705 706 707 708
usemtl asphalt
