# Baked ultra-low Key West silhouette; generated by bake_key_west_far_city.py
mtllib far_city.mtl
usemtl massing
v -211.678 0.521 -61.748
v -191.280 0.521 -50.079
v -202.462 0.521 -30.532
v -222.860 0.521 -42.201
v -211.678 6.321 -61.748
v -191.280 6.321 -50.079
v -202.462 6.321 -30.532
v -222.860 6.321 -42.201
f 8 7 6 5
f 1 2 6 5
f 2 3 7 6
f 3 4 8 7
f 4 1 5 8
v -252.625 0.275 -22.210
v -245.079 0.275 -31.809
v -235.795 0.275 -24.510
v -243.341 0.275 -14.911
v -252.625 4.175 -22.210
v -245.079 4.175 -31.809
v -235.795 4.175 -24.510
v -243.341 4.175 -14.911
f 16 15 14 13
f 9 10 14 13
f 10 11 15 14
f 11 12 16 15
f 12 9 13 16
v 73.385 0.870 -103.755
v 167.115 0.870 -71.238
v 157.875 0.870 -44.605
v 64.145 0.870 -77.122
v 73.385 10.170 -103.755
v 167.115 10.170 -71.238
v 157.875 10.170 -44.605
v 64.145 10.170 -77.122
f 24 23 22 21
f 17 18 22 21
f 18 19 23 22
f 19 20 24 23
f 20 17 21 24
v 13.996 0.835 -67.409
v 60.914 0.835 -51.381
v 52.124 0.835 -25.651
v 5.206 0.835 -41.679
v 13.996 7.135 -67.409
v 60.914 7.135 -51.381
v 52.124 7.135 -25.651
v 5.206 7.135 -41.679
f 32 31 30 29
f 25 26 30 29
f 26 27 31 30
f 27 28 32 31
f 28 25 29 32
v 213.980 0.637 -125.740
v 254.853 0.637 -187.763
v 266.360 0.637 -180.180
v 225.487 0.637 -118.157
v 213.980 6.937 -125.740
v 254.853 6.937 -187.763
v 266.360 6.937 -180.180
v 225.487 6.937 -118.157
f 40 39 38 37
f 33 34 38 37
f 34 35 39 38
f 35 36 40 39
f 36 33 37 40
v 196.660 0.664 -145.033
v 217.956 0.664 -176.228
v 229.940 0.664 -168.047
v 208.644 0.664 -136.852
v 196.660 9.964 -145.033
v 217.956 9.964 -176.228
v 229.940 9.964 -168.047
v 208.644 9.964 -136.852
f 48 47 46 45
f 41 42 46 45
f 42 43 47 46
f 43 44 48 47
f 44 41 45 48
v -218.562 0.342 -134.209
v -209.875 0.342 -147.179
v -204.158 0.342 -143.351
v -212.845 0.342 -130.381
v -218.562 3.842 -134.209
v -209.875 3.842 -147.179
v -204.158 3.842 -143.351
v -212.845 3.842 -130.381
f 56 55 54 53
f 49 50 54 53
f 50 51 55 54
f 51 52 56 55
f 52 49 53 56
v -226.794 0.463 -128.859
v -218.185 0.463 -141.627
v -212.066 0.463 -137.501
v -220.675 0.463 -124.733
v -226.794 3.963 -128.859
v -218.185 3.963 -141.627
v -212.066 3.963 -137.501
v -220.675 3.963 -124.733
f 64 63 62 61
f 57 58 62 61
f 58 59 63 62
f 59 60 64 63
f 60 57 61 64
v -234.221 0.493 -159.108
v -225.506 0.493 -172.287
v -221.219 0.493 -169.452
v -229.934 0.493 -156.273
v -234.221 3.993 -159.108
v -225.506 3.993 -172.287
v -221.219 3.993 -169.452
v -229.934 3.993 -156.273
f 72 71 70 69
f 65 66 70 69
f 66 67 71 70
f 67 68 72 71
f 68 65 69 72
v -241.298 0.605 -154.437
v -233.530 0.605 -166.633
v -227.642 0.605 -162.883
v -235.410 0.605 -150.687
v -241.298 4.105 -154.437
v -233.530 4.105 -166.633
v -227.642 4.105 -162.883
v -235.410 4.105 -150.687
f 80 79 78 77
f 73 74 78 77
f 74 75 79 78
f 75 76 80 79
f 76 73 77 80
v -249.774 0.538 -149.047
v -241.428 0.538 -161.087
v -235.666 0.538 -157.093
v -244.012 0.538 -145.053
v -249.774 4.038 -149.047
v -241.428 4.038 -161.087
v -235.666 4.038 -157.093
v -244.012 4.038 -145.053
f 88 87 86 85
f 81 82 86 85
f 82 83 87 86
f 83 84 88 87
f 84 81 85 88
v -258.162 0.539 -143.641
v -249.861 0.539 -155.407
v -244.378 0.539 -151.539
v -252.679 0.539 -139.773
v -258.162 6.839 -143.641
v -249.861 6.839 -155.407
v -244.378 6.839 -151.539
v -252.679 6.839 -139.773
f 96 95 94 93
f 89 90 94 93
f 90 91 95 94
f 91 92 96 95
f 92 89 93 96
v -235.324 0.560 -122.799
v -226.763 0.560 -136.245
v -220.976 0.560 -132.561
v -229.537 0.560 -119.115
v -235.324 4.060 -122.799
v -226.763 4.060 -136.245
v -220.976 4.060 -132.561
v -229.537 4.060 -119.115
f 104 103 102 101
f 97 98 102 101
f 98 99 103 102
f 99 100 104 103
f 100 97 101 104
v -244.362 0.624 -116.980
v -236.223 0.624 -129.436
v -230.598 0.624 -125.760
v -238.737 0.624 -113.304
v -244.362 6.924 -116.980
v -236.223 6.924 -129.436
v -230.598 6.924 -125.760
v -238.737 6.924 -113.304
f 112 111 110 109
f 105 106 110 109
f 106 107 111 110
f 107 108 112 111
f 108 105 109 112
v -252.100 0.573 -74.963
v -230.279 0.573 -83.189
v -223.700 0.573 -65.737
v -245.521 0.573 -57.511
v -252.100 6.873 -74.963
v -230.279 6.873 -83.189
v -223.700 6.873 -65.737
v -245.521 6.873 -57.511
f 120 119 118 117
f 113 114 118 117
f 114 115 119 118
f 115 116 120 119
f 116 113 117 120
v -226.333 0.585 -90.202
v -211.849 0.585 -82.924
v -218.947 0.585 -68.798
v -233.431 0.585 -76.076
v -226.333 9.885 -90.202
v -211.849 9.885 -82.924
v -218.947 9.885 -68.798
v -233.431 9.885 -76.076
f 128 127 126 125
f 121 122 126 125
f 122 123 127 126
f 123 124 128 127
f 124 121 125 128
v -193.105 0.547 -109.851
v -180.108 0.547 -102.085
v -187.515 0.547 -89.689
v -200.512 0.547 -97.455
v -193.105 6.847 -109.851
v -180.108 6.847 -102.085
v -187.515 6.847 -89.689
v -200.512 6.847 -97.455
f 136 135 134 133
f 129 130 134 133
f 130 131 135 134
f 131 132 136 135
f 132 129 133 136
v -217.128 0.506 -84.221
v -209.907 0.506 -94.572
v -204.412 0.506 -90.739
v -211.633 0.506 -80.388
v -217.128 4.006 -84.221
v -209.907 4.006 -94.572
v -204.412 4.006 -90.739
v -211.633 4.006 -80.388
f 144 143 142 141
f 137 138 142 141
f 138 139 143 142
f 139 140 144 143
f 140 137 141 144
v -208.586 0.549 -88.828
v -201.530 0.549 -99.207
v -196.154 0.549 -95.552
v -203.210 0.549 -85.173
v -208.586 4.049 -88.828
v -201.530 4.049 -99.207
v -196.154 4.049 -95.552
v -203.210 4.049 -85.173
f 152 151 150 149
f 145 146 150 149
f 146 147 151 150
f 147 148 152 151
f 148 145 149 152
v -213.482 0.605 -176.334
v -205.255 0.605 -190.533
v -197.338 0.605 -185.946
v -205.565 0.605 -171.747
v -213.482 6.905 -176.334
v -205.255 6.905 -190.533
v -197.338 6.905 -185.946
v -205.565 6.905 -171.747
f 160 159 158 157
f 153 154 158 157
f 154 155 159 158
f 155 156 160 159
f 156 153 157 160
v -194.018 0.568 -180.705
v -181.625 0.568 -172.634
v -185.702 0.568 -166.375
v -198.095 0.568 -174.446
v -194.018 4.068 -180.705
v -181.625 4.068 -172.634
v -185.702 4.068 -166.375
v -198.095 4.068 -174.446
f 168 167 166 165
f 161 162 166 165
f 162 163 167 166
f 163 164 168 167
f 164 161 165 168
v -188.271 0.597 -171.620
v -175.034 0.597 -162.901
v -179.369 0.597 -156.320
v -192.606 0.597 -165.039
v -188.271 6.897 -171.620
v -175.034 6.897 -162.901
v -179.369 6.897 -156.320
v -192.606 6.897 -165.039
f 176 175 174 173
f 169 170 174 173
f 170 171 175 174
f 171 172 176 175
f 172 169 173 176
v -182.258 0.535 -162.773
v -169.692 0.535 -154.383
v -173.762 0.535 -148.287
v -186.328 0.535 -156.677
v -182.258 9.835 -162.773
v -169.692 9.835 -154.383
v -173.762 9.835 -148.287
v -186.328 9.835 -156.677
f 184 183 182 181
f 177 178 182 181
f 178 179 183 182
f 179 180 184 183
f 180 177 181 184
v -176.197 0.548 -153.749
v -163.173 0.548 -145.457
v -167.443 0.548 -138.751
v -180.467 0.548 -147.043
v -176.197 6.848 -153.749
v -163.173 6.848 -145.457
v -167.443 6.848 -138.751
v -180.467 6.848 -147.043
f 192 191 190 189
f 185 186 190 189
f 186 187 191 190
f 187 188 192 191
f 188 185 189 192
v -170.093 0.719 -216.189
v -160.512 0.719 -208.348
v -167.187 0.719 -200.191
v -176.768 0.719 -208.032
v -170.093 4.219 -216.189
v -160.512 4.219 -208.348
v -167.187 4.219 -200.191
v -176.768 4.219 -208.032
f 200 199 198 197
f 193 194 198 197
f 194 195 199 198
f 195 196 200 199
f 196 193 197 200
v -164.858 0.590 -184.716
v -155.865 0.590 -195.641
v -145.202 0.590 -186.864
v -154.195 0.590 -175.939
v -164.858 6.890 -184.716
v -155.865 6.890 -195.641
v -145.202 6.890 -186.864
v -154.195 6.890 -175.939
f 208 207 206 205
f 201 202 206 205
f 202 203 207 206
f 203 204 208 207
f 204 201 205 208
v -147.816 0.771 -138.745
v -134.351 0.771 -164.475
v -121.664 0.771 -157.835
v -135.129 0.771 -132.105
v -147.816 7.071 -138.745
v -134.351 7.071 -164.475
v -121.664 7.071 -157.835
v -135.129 7.071 -132.105
f 216 215 214 213
f 209 210 214 213
f 210 211 215 214
f 211 212 216 215
f 212 209 213 216
v -105.408 0.815 -160.844
v -97.625 0.815 -172.805
v -89.712 0.815 -167.656
v -97.495 0.815 -155.695
v -105.408 4.315 -160.844
v -97.625 4.315 -172.805
v -89.712 4.315 -167.656
v -97.495 4.315 -155.695
f 224 223 222 221
f 217 218 222 221
f 218 219 223 222
f 219 220 224 223
f 220 217 221 224
v -105.769 0.729 -214.029
v -90.648 0.729 -232.962
v -76.911 0.729 -221.991
v -92.032 0.729 -203.058
v -105.769 10.029 -214.029
v -90.648 10.029 -232.962
v -76.911 10.029 -221.991
v -92.032 10.029 -203.058
f 232 231 230 229
f 225 226 230 229
f 226 227 231 230
f 227 228 232 231
f 228 225 229 232
v -52.768 1.531 -202.830
v -41.746 1.531 -184.885
v -59.452 1.531 -174.010
v -70.474 1.531 -191.955
v -52.768 7.831 -202.830
v -41.746 7.831 -184.885
v -59.452 7.831 -174.010
v -70.474 7.831 -191.955
f 240 239 238 237
f 233 234 238 237
f 234 235 239 238
f 235 236 240 239
f 236 233 237 240
v -29.453 0.764 -209.934
v -20.857 0.764 -223.901
v -11.507 0.764 -218.146
v -20.103 0.764 -204.179
v -29.453 4.264 -209.934
v -20.857 4.264 -223.901
v -11.507 4.264 -218.146
v -20.103 4.264 -204.179
f 248 247 246 245
f 241 242 246 245
f 242 243 247 246
f 243 244 248 247
f 244 241 245 248
v -61.171 0.725 -153.745
v -49.785 0.725 -170.005
v -37.489 0.725 -161.395
v -48.875 0.725 -145.135
v -61.171 7.025 -153.745
v -49.785 7.025 -170.005
v -37.489 7.025 -161.395
v -48.875 7.025 -145.135
f 256 255 254 253
f 249 250 254 253
f 250 251 255 254
f 251 252 256 255
f 252 249 253 256
v -3.654 0.940 -137.148
v 6.736 0.940 -150.004
v 19.274 0.940 -139.872
v 8.884 0.940 -127.016
v -3.654 7.240 -137.148
v 6.736 7.240 -150.004
v 19.274 7.240 -139.872
v 8.884 7.240 -127.016
f 264 263 262 261
f 257 258 262 261
f 258 259 263 262
f 259 260 264 263
f 260 257 261 264
v -64.360 0.725 -92.149
v -52.145 0.725 -109.806
v -40.040 0.725 -101.431
v -52.255 0.725 -83.774
v -64.360 7.025 -92.149
v -52.145 7.025 -109.806
v -40.040 7.025 -101.431
v -52.255 7.025 -83.774
f 272 271 270 269
f 265 266 270 269
f 266 267 271 270
f 267 268 272 271
f 268 265 269 272
v 55.868 0.771 -160.771
v 93.367 0.771 -154.746
v 89.692 0.771 -131.869
v 52.193 0.771 -137.894
v 55.868 7.071 -160.771
v 93.367 7.071 -154.746
v 89.692 7.071 -131.869
v 52.193 7.071 -137.894
f 280 279 278 277
f 273 274 278 277
f 274 275 279 278
f 275 276 280 279
f 276 273 277 280
v 170.822 0.642 -215.681
v 183.952 0.642 -196.699
v 167.298 0.642 -185.179
v 154.168 0.642 -204.161
v 170.822 6.942 -215.681
v 183.952 6.942 -196.699
v 167.298 6.942 -185.179
v 154.168 6.942 -204.161
f 288 287 286 285
f 281 282 286 285
f 282 283 287 286
f 283 284 288 287
f 284 281 285 288
v 79.259 0.584 -191.137
v 87.306 0.584 -208.105
v 98.401 0.584 -202.843
v 90.354 0.584 -185.875
v 79.259 6.884 -191.137
v 87.306 6.884 -208.105
v 98.401 6.884 -202.843
v 90.354 6.884 -185.875
f 296 295 294 293
f 289 290 294 293
f 290 291 295 294
f 291 292 296 295
f 292 289 293 296
v 56.549 0.571 -190.819
v 71.180 0.571 -186.144
v 67.031 0.571 -173.161
v 52.400 0.571 -177.836
v 56.549 4.071 -190.819
v 71.180 4.071 -186.144
v 67.031 4.071 -173.161
v 52.400 4.071 -177.836
f 304 303 302 301
f 297 298 302 301
f 298 299 303 302
f 299 300 304 303
f 300 297 301 304
v -170.536 0.599 -145.437
v -157.799 0.599 -136.923
v -162.184 0.599 -130.363
v -174.921 0.599 -138.877
v -170.536 4.499 -145.437
v -157.799 4.499 -136.923
v -162.184 4.499 -130.363
v -174.921 4.499 -138.877
f 312 311 310 309
f 305 306 310 309
f 306 307 311 310
f 307 308 312 311
f 308 305 309 312
v -164.295 0.447 -136.024
v -151.671 0.447 -127.647
v -156.045 0.447 -121.056
v -168.669 0.447 -129.433
v -164.295 4.347 -136.024
v -151.671 4.347 -127.647
v -156.045 4.347 -121.056
v -168.669 4.347 -129.433
f 320 319 318 317
f 313 314 318 317
f 314 315 319 318
f 315 316 320 319
f 316 313 317 320
v -228.980 0.440 -27.843
v -222.317 0.440 -36.138
v -217.460 0.440 -32.237
v -224.123 0.440 -23.942
v -228.980 4.340 -27.843
v -222.317 4.340 -36.138
v -217.460 4.340 -32.237
v -224.123 4.340 -23.942
f 328 327 326 325
f 321 322 326 325
f 322 323 327 326
f 323 324 328 327
f 324 321 325 328
v -235.223 0.788 13.992
v -227.823 0.788 4.763
v -218.937 0.788 11.888
v -226.337 0.788 21.117
v -235.223 4.688 13.992
v -227.823 4.688 4.763
v -218.937 4.688 11.888
v -226.337 4.688 21.117
f 336 335 334 333
f 329 330 334 333
f 330 331 335 334
f 331 332 336 335
f 332 329 333 336
v -242.829 0.810 2.152
v -235.130 0.810 -7.222
v -226.011 0.810 0.268
v -233.710 0.810 9.642
v -242.829 4.710 2.152
v -235.130 4.710 -7.222
v -226.011 4.710 0.268
v -233.710 4.710 9.642
f 344 343 342 341
f 337 338 342 341
f 338 339 343 342
f 339 340 344 343
f 340 337 341 344
v 219.030 0.742 -114.073
v 237.596 0.742 -142.353
v 249.090 0.742 -134.807
v 230.524 0.742 -106.527
v 219.030 10.042 -114.073
v 237.596 10.042 -142.353
v 249.090 10.042 -134.807
v 230.524 10.042 -106.527
f 352 351 350 349
f 345 346 350 349
f 346 347 351 350
f 347 348 352 351
f 348 345 349 352
v -54.308 0.906 -24.228
v -23.541 0.906 -3.785
v -30.752 0.906 7.068
v -61.519 0.906 -13.375
v -54.308 6.706 -24.228
v -23.541 6.706 -3.785
v -30.752 6.706 7.068
v -61.519 6.706 -13.375
f 360 359 358 357
f 353 354 358 357
f 354 355 359 358
f 355 356 360 359
f 356 353 357 360
v 61.062 0.985 -44.618
v 64.282 0.985 -53.044
v 72.138 0.985 -50.042
v 68.918 0.985 -41.616
v 61.062 4.885 -44.618
v 64.282 4.885 -53.044
v 72.138 4.885 -50.042
v 68.918 4.885 -41.616
f 368 367 366 365
f 361 362 366 365
f 362 363 367 366
f 363 364 368 367
f 364 361 365 368
v -156.658 0.190 -130.832
v -142.508 0.190 -112.385
v -153.402 0.190 -104.028
v -167.552 0.190 -122.475
v -156.658 4.090 -130.832
v -142.508 4.090 -112.385
v -153.402 4.090 -104.028
v -167.552 4.090 -122.475
f 376 375 374 373
f 369 370 374 373
f 370 371 375 374
f 371 372 376 375
f 372 369 373 376
v -150.147 0.768 -181.621
v -135.275 0.768 -169.071
v -144.433 0.768 -158.219
v -159.305 0.768 -170.769
v -150.147 4.668 -181.621
v -135.275 4.668 -169.071
v -144.433 4.668 -158.219
v -159.305 4.668 -170.769
f 384 383 382 381
f 377 378 382 381
f 378 379 383 382
f 379 380 384 383
f 380 377 381 384
v -199.456 0.543 -200.971
v -182.739 0.543 -195.032
v -187.884 0.543 -180.549
v -204.601 0.543 -186.488
v -199.456 4.443 -200.971
v -182.739 4.443 -195.032
v -187.884 4.443 -180.549
v -204.601 4.443 -186.488
f 392 391 390 389
f 385 386 390 389
f 386 387 391 390
f 387 388 392 391
f 388 385 389 392
v -171.504 0.581 -206.882
v -156.553 0.581 -196.823
v -159.356 0.581 -192.658
v -174.307 0.581 -202.717
v -171.504 4.481 -206.882
v -156.553 4.481 -196.823
v -159.356 4.481 -192.658
v -174.307 4.481 -202.717
f 400 399 398 397
f 393 394 398 397
f 394 395 399 398
f 395 396 400 399
f 396 393 397 400
v -163.359 0.453 -198.983
v -155.700 0.453 -193.958
v -158.641 0.453 -189.477
v -166.300 0.453 -194.502
v -163.359 4.353 -198.983
v -155.700 4.353 -193.958
v -158.641 4.353 -189.477
v -166.300 4.353 -194.502
f 408 407 406 405
f 401 402 406 405
f 402 403 407 406
f 403 404 408 407
f 404 401 405 408
v -132.130 0.775 -196.279
v -119.754 0.775 -210.311
v -107.590 0.775 -199.581
v -119.966 0.775 -185.549
v -132.130 4.675 -196.279
v -119.754 4.675 -210.311
v -107.590 4.675 -199.581
v -119.966 4.675 -185.549
f 416 415 414 413
f 409 410 414 413
f 410 411 415 414
f 411 412 416 415
f 412 409 413 416
v -140.152 0.866 -234.408
v -126.084 0.866 -225.671
v -134.468 0.866 -212.172
v -148.536 0.866 -220.909
v -140.152 4.766 -234.408
v -126.084 4.766 -225.671
v -134.468 4.766 -212.172
v -148.536 4.766 -220.909
f 424 423 422 421
f 417 418 422 421
f 418 419 423 422
f 419 420 424 423
f 420 417 421 424
v -133.005 0.685 -230.183
v -125.973 0.685 -245.539
v -112.035 0.685 -239.157
v -119.067 0.685 -223.801
v -133.005 4.585 -230.183
v -125.973 4.585 -245.539
v -112.035 4.585 -239.157
v -119.067 4.585 -223.801
f 432 431 430 429
f 425 426 430 429
f 426 427 431 430
f 427 428 432 431
f 428 425 429 432
v -119.995 0.959 -239.942
v -111.668 0.959 -257.142
v -96.745 0.959 -249.918
v -105.072 0.959 -232.718
v -119.995 4.859 -239.942
v -111.668 4.859 -257.142
v -96.745 4.859 -249.918
v -105.072 4.859 -232.718
f 440 439 438 437
f 433 434 438 437
f 434 435 439 438
f 435 436 440 439
f 436 433 437 440
v -89.358 0.599 -228.324
v -74.562 0.599 -242.105
v -63.302 0.599 -230.016
v -78.098 0.599 -216.235
v -89.358 4.499 -228.324
v -74.562 4.499 -242.105
v -63.302 4.499 -230.016
v -78.098 4.499 -216.235
f 448 447 446 445
f 441 442 446 445
f 442 443 447 446
f 443 444 448 447
f 444 441 445 448
v -73.462 0.803 -242.951
v -54.543 0.803 -250.663
v -47.778 0.803 -234.069
v -66.697 0.803 -226.357
v -73.462 4.703 -242.951
v -54.543 4.703 -250.663
v -47.778 4.703 -234.069
v -66.697 4.703 -226.357
f 456 455 454 453
f 449 450 454 453
f 450 451 455 454
f 451 452 456 455
f 452 449 453 456
v -81.252 1.151 -186.096
v -63.284 1.151 -173.965
v -72.628 1.151 -160.124
v -90.596 1.151 -172.255
v -81.252 5.051 -186.096
v -63.284 5.051 -173.965
v -72.628 5.051 -160.124
v -90.596 5.051 -172.255
f 464 463 462 461
f 457 458 462 461
f 458 459 463 462
f 459 460 464 463
f 460 457 461 464
v -91.069 0.853 -132.186
v -79.759 0.853 -151.879
v -66.691 0.853 -144.374
v -78.001 0.853 -124.681
v -91.069 4.753 -132.186
v -79.759 4.753 -151.879
v -66.691 4.753 -144.374
v -78.001 4.753 -124.681
f 472 471 470 469
f 465 466 470 469
f 466 467 471 470
f 467 468 472 471
f 468 465 469 472
v -69.550 0.964 -145.054
v -60.239 0.964 -154.068
v -51.350 0.964 -144.886
v -60.661 0.964 -135.872
v -69.550 4.864 -145.054
v -60.239 4.864 -154.068
v -51.350 4.864 -144.886
v -60.661 4.864 -135.872
f 480 479 478 477
f 473 474 478 477
f 474 475 479 478
f 475 476 480 479
f 476 473 477 480
v -57.799 0.823 -211.928
v -26.519 0.823 -216.339
v -23.921 0.823 -197.912
v -55.201 0.823 -193.501
v -57.799 4.723 -211.928
v -26.519 4.723 -216.339
v -23.921 4.723 -197.912
v -55.201 4.723 -193.501
f 488 487 486 485
f 481 482 486 485
f 482 483 487 486
f 483 484 488 487
f 484 481 485 488
v -12.472 0.788 -184.537
v -3.505 0.788 -196.336
v 7.012 0.788 -188.343
v -1.955 0.788 -176.544
v -12.472 4.688 -184.537
v -3.505 4.688 -196.336
v 7.012 4.688 -188.343
v -1.955 4.688 -176.544
f 496 495 494 493
f 489 490 494 493
f 490 491 495 494
f 491 492 496 495
f 492 489 493 496
v -17.994 0.724 -126.128
v -9.320 0.724 -140.199
v 3.474 0.724 -132.312
v -5.200 0.724 -118.241
v -17.994 4.624 -126.128
v -9.320 4.624 -140.199
v 3.474 4.624 -132.312
v -5.200 4.624 -118.241
f 504 503 502 501
f 497 498 502 501
f 498 499 503 502
f 499 500 504 503
f 500 497 501 504
v -33.799 0.980 -118.843
v -19.118 0.980 -132.645
v -9.221 0.980 -122.117
v -23.902 0.980 -108.315
v -33.799 4.880 -118.843
v -19.118 4.880 -132.645
v -9.221 4.880 -122.117
v -23.902 4.880 -108.315
f 512 511 510 509
f 505 506 510 509
f 506 507 511 510
f 507 508 512 511
f 508 505 509 512
v -50.360 0.725 -99.131
v -47.062 0.725 -120.974
v -27.820 0.725 -118.069
v -31.118 0.725 -96.226
v -50.360 4.625 -99.131
v -47.062 4.625 -120.974
v -27.820 4.625 -118.069
v -31.118 4.625 -96.226
f 520 519 518 517
f 513 514 518 517
f 514 515 519 518
f 515 516 520 519
f 516 513 517 520
v 11.807 0.948 -143.044
v 21.074 0.948 -161.677
v 35.633 0.948 -154.436
v 26.366 0.948 -135.803
v 11.807 4.848 -143.044
v 21.074 4.848 -161.677
v 35.633 4.848 -154.436
v 26.366 4.848 -135.803
f 528 527 526 525
f 521 522 526 525
f 522 523 527 526
f 523 524 528 527
f 524 521 525 528
v 42.855 0.473 -128.705
v 53.294 0.473 -122.314
v 47.185 0.473 -112.335
v 36.746 0.473 -118.726
v 42.855 4.373 -128.705
v 53.294 4.373 -122.314
v 47.185 4.373 -112.335
v 36.746 4.373 -118.726
f 536 535 534 533
f 529 530 534 533
f 530 531 535 534
f 531 532 536 535
f 532 529 533 536
v 17.818 0.614 -108.155
v 28.285 0.614 -125.956
v 38.982 0.614 -119.665
v 28.515 0.614 -101.864
v 17.818 4.514 -108.155
v 28.285 4.514 -125.956
v 38.982 4.514 -119.665
v 28.515 4.514 -101.864
f 544 543 542 541
f 537 538 542 541
f 538 539 543 542
f 539 540 544 543
f 540 537 541 544
v 4.858 0.770 -94.851
v 10.851 0.770 -108.591
v 23.922 0.770 -102.889
v 17.929 0.770 -89.149
v 4.858 4.670 -94.851
v 10.851 4.670 -108.591
v 23.922 4.670 -102.889
v 17.929 4.670 -89.149
f 552 551 550 549
f 545 546 550 549
f 546 547 551 550
f 547 548 552 551
f 548 545 549 552
v -5.254 0.577 -95.699
v 7.626 0.577 -87.685
v 2.074 0.577 -78.761
v -10.806 0.577 -86.775
v -5.254 4.477 -95.699
v 7.626 4.477 -87.685
v 2.074 4.477 -78.761
v -10.806 4.477 -86.775
f 560 559 558 557
f 553 554 558 557
f 554 555 559 558
f 555 556 560 559
f 556 553 557 560
v -28.765 0.558 -77.409
v -17.134 0.558 -90.133
v -5.295 0.558 -79.311
v -16.926 0.558 -66.587
v -28.765 4.458 -77.409
v -17.134 4.458 -90.133
v -5.295 4.458 -79.311
v -16.926 4.458 -66.587
f 568 567 566 565
f 561 562 566 565
f 562 563 567 566
f 563 564 568 567
f 564 561 565 568
v -43.554 0.498 -61.334
v -36.610 0.498 -83.103
v -20.566 0.498 -77.986
v -27.510 0.498 -56.217
v -43.554 4.398 -61.334
v -36.610 4.398 -83.103
v -20.566 4.398 -77.986
v -27.510 4.398 -56.217
f 576 575 574 573
f 569 570 574 573
f 570 571 575 574
f 571 572 576 575
f 572 569 573 576
v 65.121 0.616 -190.089
v 75.255 0.616 -201.215
v 85.819 0.616 -191.591
v 75.685 0.616 -180.465
v 65.121 4.516 -190.089
v 75.255 4.516 -201.215
v 85.819 4.516 -191.591
v 75.685 4.516 -180.465
f 584 583 582 581
f 577 578 582 581
f 578 579 583 582
f 579 580 584 583
f 580 577 581 584
v 99.475 0.757 -169.310
v 114.126 0.757 -158.647
v 106.005 0.757 -147.490
v 91.354 0.757 -158.153
v 99.475 4.657 -169.310
v 114.126 4.657 -158.647
v 106.005 4.657 -147.490
v 91.354 4.657 -158.153
f 592 591 590 589
f 585 586 590 589
f 586 587 591 590
f 587 588 592 591
f 588 585 589 592
v 93.276 0.578 -200.610
v 106.560 0.578 -217.933
v 117.884 0.578 -209.250
v 104.600 0.578 -191.927
v 93.276 4.478 -200.610
v 106.560 4.478 -217.933
v 117.884 4.478 -209.250
v 104.600 4.478 -191.927
f 600 599 598 597
f 593 594 598 597
f 594 595 599 598
f 595 596 600 599
f 596 593 597 600
v 107.993 0.577 -207.940
v 114.119 0.577 -227.325
v 129.767 0.577 -222.380
v 123.641 0.577 -202.995
v 107.993 4.477 -207.940
v 114.119 4.477 -227.325
v 129.767 4.477 -222.380
v 123.641 4.477 -202.995
f 608 607 606 605
f 601 602 606 605
f 602 603 607 606
f 603 604 608 607
f 604 601 605 608
v 121.218 -0.146 -180.213
v 133.413 -0.146 -199.466
v 146.862 -0.146 -190.947
v 134.667 -0.146 -171.694
v 121.218 3.754 -180.213
v 133.413 3.754 -199.466
v 146.862 3.754 -190.947
v 134.667 3.754 -171.694
f 616 615 614 613
f 609 610 614 613
f 610 611 615 614
f 611 612 616 615
f 612 609 613 616
v 100.772 0.575 -175.193
v 123.729 0.575 -188.411
v 134.188 0.575 -170.247
v 111.231 0.575 -157.029
v 100.772 4.475 -175.193
v 123.729 4.475 -188.411
v 134.188 4.475 -170.247
v 111.231 4.475 -157.029
f 624 623 622 621
f 617 618 622 621
f 618 619 623 622
f 619 620 624 623
f 620 617 621 624
v 88.927 0.676 -263.474
v 97.168 0.676 -239.692
v 78.913 0.676 -233.366
v 70.672 0.676 -257.148
v 88.927 4.576 -263.474
v 97.168 4.576 -239.692
v 78.913 4.576 -233.366
v 70.672 4.576 -257.148
f 632 631 630 629
f 625 626 630 629
f 626 627 631 630
f 627 628 632 631
f 628 625 629 632
v 36.575 0.699 -165.263
v 48.824 0.699 -181.099
v 61.005 0.699 -171.677
v 48.756 0.699 -155.841
v 36.575 4.599 -165.263
v 48.824 4.599 -181.099
v 61.005 4.599 -171.677
v 48.756 4.599 -155.841
f 640 639 638 637
f 633 634 638 637
f 634 635 639 638
f 635 636 640 639
f 636 633 637 640
v 143.893 0.396 -250.929
v 165.175 0.396 -238.671
v 155.267 0.396 -221.471
v 133.985 0.396 -233.729
v 143.893 4.296 -250.929
v 165.175 4.296 -238.671
v 155.267 4.296 -221.471
v 133.985 4.296 -233.729
f 648 647 646 645
f 641 642 646 645
f 642 643 647 646
f 643 644 648 647
f 644 641 645 648
v 157.239 0.798 -256.792
v 182.531 0.798 -270.398
v 194.361 0.798 -248.408
v 169.069 0.798 -234.802
v 157.239 4.698 -256.792
v 182.531 4.698 -270.398
v 194.361 4.698 -248.408
v 169.069 4.698 -234.802
f 656 655 654 653
f 649 650 654 653
f 650 651 655 654
f 651 652 656 655
f 652 649 653 656
v 180.321 0.628 -233.263
v 203.009 0.628 -223.627
v 196.719 0.628 -208.817
v 174.031 0.628 -218.453
v 180.321 4.528 -233.263
v 203.009 4.528 -223.627
v 196.719 4.528 -208.817
v 174.031 4.528 -218.453
f 664 663 662 661
f 657 658 662 661
f 658 659 663 662
f 659 660 664 663
f 660 657 661 664
v 198.947 0.679 -228.282
v 208.263 0.679 -249.355
v 221.333 0.679 -243.578
v 212.017 0.679 -222.505
v 198.947 4.579 -228.282
v 208.263 4.579 -249.355
v 221.333 4.579 -243.578
v 212.017 4.579 -222.505
f 672 671 670 669
f 665 666 670 669
f 666 667 671 670
f 667 668 672 671
f 668 665 669 672
v 229.164 0.621 -267.028
v 250.288 0.621 -250.698
v 237.156 0.621 -233.712
v 216.032 0.621 -250.042
v 229.164 4.521 -267.028
v 250.288 4.521 -250.698
v 237.156 4.521 -233.712
v 216.032 4.521 -250.042
f 680 679 678 677
f 673 674 678 677
f 674 675 679 678
f 675 676 680 679
f 676 673 677 680
v -241.698 0.346 -216.426
v -238.467 0.346 -221.577
v -235.942 0.346 -219.994
v -239.173 0.346 -214.843
v -241.698 4.246 -216.426
v -238.467 4.246 -221.577
v -235.942 4.246 -219.994
v -239.173 4.246 -214.843
f 688 687 686 685
f 681 682 686 685
f 682 683 687 686
f 683 684 688 687
f 684 681 685 688
v -248.738 0.350 -204.654
v -240.947 0.350 -216.249
v -232.282 0.350 -210.426
v -240.073 0.350 -198.831
v -248.738 4.250 -204.654
v -240.947 4.250 -216.249
v -232.282 4.250 -210.426
v -240.073 4.250 -198.831
f 696 695 694 693
f 689 690 694 693
f 690 691 695 694
f 691 692 696 695
f 692 689 693 696
v -264.460 0.763 -192.914
v -255.187 0.763 -205.719
v -244.480 0.763 -197.966
v -253.753 0.763 -185.161
v -264.460 4.663 -192.914
v -255.187 4.663 -205.719
v -244.480 4.663 -197.966
v -253.753 4.663 -185.161
f 704 703 702 701
f 697 698 702 701
f 698 699 703 702
f 699 700 704 703
f 700 697 701 704
v -230.814 0.427 -211.290
v -226.625 0.427 -236.038
v -206.846 0.427 -232.690
v -211.035 0.427 -207.942
v -230.814 4.327 -211.290
v -226.625 4.327 -236.038
v -206.846 4.327 -232.690
v -211.035 4.327 -207.942
f 712 711 710 709
f 705 706 710 709
f 706 707 711 710
f 707 708 712 711
f 708 705 709 712
v -236.793 0.823 -251.852
v -224.132 0.823 -241.023
v -231.107 0.823 -232.868
v -243.768 0.823 -243.697
v -236.793 4.723 -251.852
v -224.132 4.723 -241.023
v -231.107 4.723 -232.868
v -243.768 4.723 -243.697
f 720 719 718 717
f 713 714 718 717
f 714 715 719 718
f 715 716 720 719
f 716 713 717 720
v -266.354 0.706 -220.569
v -260.230 0.706 -241.408
v -241.866 0.706 -236.011
v -247.990 0.706 -215.172
v -266.354 4.606 -220.569
v -260.230 4.606 -241.408
v -241.866 4.606 -236.011
v -247.990 4.606 -215.172
f 728 727 726 725
f 721 722 726 725
f 722 723 727 726
f 723 724 728 727
f 724 721 725 728
v -57.057 0.673 -243.408
v -45.288 0.673 -260.849
v -36.103 0.673 -254.652
v -47.872 0.673 -237.211
v -57.057 4.573 -243.408
v -45.288 4.573 -260.849
v -36.103 4.573 -254.652
v -47.872 4.573 -237.211
f 736 735 734 733
f 729 730 734 733
f 730 731 735 734
f 731 732 736 735
f 732 729 733 736
v 53.771 0.460 -227.833
v 65.492 0.460 -249.199
v 82.869 0.460 -239.667
v 71.148 0.460 -218.301
v 53.771 4.360 -227.833
v 65.492 4.360 -249.199
v 82.869 4.360 -239.667
v 71.148 4.360 -218.301
f 744 743 742 741
f 737 738 742 741
f 738 739 743 742
f 739 740 744 743
f 740 737 741 744
v 22.366 0.957 -249.695
v 37.765 0.957 -261.130
v 47.274 0.957 -248.325
v 31.875 0.957 -236.890
v 22.366 4.857 -249.695
v 37.765 4.857 -261.130
v 47.274 4.857 -248.325
v 31.875 4.857 -236.890
f 752 751 750 749
f 745 746 750 749
f 746 747 751 750
f 747 748 752 751
f 748 745 749 752
v 41.065 0.564 -220.109
v 47.241 0.564 -238.151
v 63.835 0.564 -232.471
v 57.659 0.564 -214.429
v 41.065 4.464 -220.109
v 47.241 4.464 -238.151
v 63.835 4.464 -232.471
v 57.659 4.464 -214.429
f 760 759 758 757
f 753 754 758 757
f 754 755 759 758
f 755 756 760 759
f 756 753 757 760
v 27.278 0.750 -223.487
v 45.875 0.750 -227.379
v 48.902 0.750 -212.913
v 30.305 0.750 -209.021
v 27.278 4.650 -223.487
v 45.875 4.650 -227.379
v 48.902 4.650 -212.913
v 30.305 4.650 -209.021
f 768 767 766 765
f 761 762 766 765
f 762 763 767 766
f 763 764 768 767
f 764 761 765 768
v -3.797 0.738 -227.938
v 1.192 0.738 -243.109
v 14.777 0.738 -238.642
v 9.788 0.738 -223.471
v -3.797 4.638 -227.938
v 1.192 4.638 -243.109
v 14.777 4.638 -238.642
v 9.788 4.638 -223.471
f 776 775 774 773
f 769 770 774 773
f 770 771 775 774
f 771 772 776 775
f 772 769 773 776
v 0.135 0.572 -245.181
v 21.676 0.572 -257.370
v 31.245 0.572 -240.459
v 9.704 0.572 -228.270
v 0.135 4.472 -245.181
v 21.676 4.472 -257.370
v 31.245 4.472 -240.459
v 9.704 4.472 -228.270
f 784 783 782 781
f 777 778 782 781
f 778 779 783 782
f 779 780 784 783
f 780 777 781 784
v 17.248 0.704 -213.502
v 33.474 0.704 -209.638
v 29.472 0.704 -192.838
v 13.246 0.704 -196.702
v 17.248 4.604 -213.502
v 33.474 4.604 -209.638
v 29.472 4.604 -192.838
v 13.246 4.604 -196.702
f 792 791 790 789
f 785 786 790 789
f 786 787 791 790
f 787 788 792 791
f 788 785 789 792
v -39.438 0.941 -161.333
v -32.109 0.941 -176.505
v -21.142 0.941 -171.207
v -28.471 0.941 -156.035
v -39.438 4.841 -161.333
v -32.109 4.841 -176.505
v -21.142 4.841 -171.207
v -28.471 4.841 -156.035
f 800 799 798 797
f 793 794 798 797
f 794 795 799 798
f 795 796 800 799
f 796 793 797 800
v -27.323 0.780 -166.373
v -22.859 0.780 -191.418
v -5.857 0.780 -188.387
v -10.321 0.780 -163.342
v -27.323 4.680 -166.373
v -22.859 4.680 -191.418
v -5.857 4.680 -188.387
v -10.321 4.680 -163.342
f 808 807 806 805
f 801 802 806 805
f 802 803 807 806
f 803 804 808 807
f 804 801 805 808
v -105.533 0.387 -253.982
v -83.396 0.387 -270.331
v -73.047 0.387 -256.318
v -95.184 0.387 -239.969
v -105.533 4.287 -253.982
v -83.396 4.287 -270.331
v -73.047 4.287 -256.318
v -95.184 4.287 -239.969
f 816 815 814 813
f 809 810 814 813
f 810 811 815 814
f 811 812 816 815
f 812 809 813 816
v -117.569 0.869 -204.117
v -109.860 0.869 -221.515
v -93.311 0.869 -214.183
v -101.020 0.869 -196.785
v -117.569 4.769 -204.117
v -109.860 4.769 -221.515
v -93.311 4.769 -214.183
v -101.020 4.769 -196.785
f 824 823 822 821
f 817 818 822 821
f 818 819 823 822
f 819 820 824 823
f 820 817 821 824
v -182.708 0.806 -246.648
v -171.183 0.806 -261.991
v -162.612 0.806 -255.552
v -174.137 0.806 -240.209
v -182.708 4.706 -246.648
v -171.183 4.706 -261.991
v -162.612 4.706 -255.552
v -174.137 4.706 -240.209
f 832 831 830 829
f 825 826 830 829
f 826 827 831 830
f 827 828 832 831
f 828 825 829 832
usemtl road
v 165.030 0.544 -177.738
v 162.400 0.571 -181.748
v 157.800 0.547 -178.732
v 160.430 0.566 -174.722
f 833 834 835 836
v 162.380 0.572 -181.777
v 120.340 0.575 -244.147
v 115.780 0.580 -241.073
v 157.820 0.547 -178.703
f 837 838 839 840
v -33.158 0.642 -44.780
v -35.538 0.562 -48.370
v -40.122 0.579 -45.330
v -37.742 0.642 -41.740
f 841 842 843 844
v -35.555 0.561 -48.395
v -77.255 0.689 -109.815
v -81.805 0.731 -106.725
v -40.105 0.579 -45.305
f 845 846 847 848
v -77.265 0.689 -109.829
v -120.055 0.820 -171.999
v -124.585 0.788 -168.881
v -81.795 0.731 -106.711
f 849 850 851 852
v -120.061 0.821 -172.008
v -162.941 0.801 -233.798
v -167.459 0.767 -230.662
v -124.579 0.788 -168.872
f 853 854 855 856
v -254.453 0.685 -167.956
v -226.313 0.733 -187.096
v -229.407 0.703 -191.644
v -257.547 0.667 -172.504
f 857 858 859 860
v -226.325 0.733 -187.088
v -187.405 0.713 -213.278
v -190.475 0.684 -217.842
v -229.395 0.703 -191.652
f 861 862 863 864
v -187.360 0.713 -213.309
v -163.620 0.750 -229.979
v -166.780 0.788 -234.481
v -190.520 0.683 -217.811
f 865 866 867 868
v -230.163 0.749 -187.868
v -190.213 0.798 -126.618
v -185.607 0.837 -129.622
v -225.557 0.748 -190.872
f 869 870 871 872
v -190.213 0.798 -126.617
v -172.863 0.871 -100.037
v -168.257 0.874 -103.043
v -185.607 0.837 -129.623
f 873 874 875 876
v -218.912 0.732 -254.446
v -191.209 0.706 -214.006
v -186.671 0.724 -217.114
v -214.374 0.715 -257.554
f 877 878 879 880
v -120.771 0.795 -168.168
v -17.281 0.926 -238.728
v -20.379 0.977 -243.272
v -123.869 0.826 -172.712
f 881 882 883 884
v -189.462 0.849 -130.390
v -257.552 0.326 -83.821
v -254.448 0.349 -79.281
v -186.358 0.869 -125.850
f 885 886 887 888
v -77.977 0.709 -106.001
v 25.863 0.877 -177.091
v 22.757 0.899 -181.629
v -81.083 0.715 -110.539
f 889 890 891 892
v 25.848 0.878 -177.080
v 119.598 0.536 -240.330
v 116.522 0.559 -244.890
v 22.772 0.899 -181.640
f 893 894 895 896
v -241.788 0.699 100.381
v -245.828 0.703 94.701
v -251.532 0.739 98.759
v -247.492 0.753 104.439
f 897 898 899 900
v -246.979 0.740 99.806
v -254.339 0.707 106.416
v -249.661 0.745 111.624
v -242.301 0.733 105.014
f 901 902 903 904
v -21.083 0.937 -239.423
v 22.057 0.912 -177.783
v 26.563 0.870 -180.937
v -16.577 0.950 -242.577
f 905 906 907 908
v 22.020 0.913 -177.838
v 63.850 0.710 -114.888
v 68.430 0.656 -117.932
v 26.600 0.869 -180.882
f 909 910 911 912
v 63.826 0.710 -114.924
v 66.086 0.724 -111.404
v 70.714 0.657 -114.376
v 68.454 0.656 -117.896
f 913 914 915 916
v -219.310 0.714 84.187
v -228.780 0.711 69.167
v -231.740 0.712 71.033
v -222.270 0.730 86.053
f 917 918 919 920
v -228.628 0.710 69.468
v -232.988 0.729 58.208
v -236.252 0.739 59.472
v -231.892 0.713 70.732
f 921 922 923 924
v -233.142 0.730 57.903
v -254.522 0.732 24.186
v -257.478 0.755 26.060
v -236.098 0.739 59.777
f 925 926 927 928
v -247.854 0.663 75.768
v -244.424 0.704 77.628
v -242.756 0.708 74.552
v -246.186 0.715 72.692
f 929 930 931 932
v -243.878 0.713 77.816
v -240.168 0.751 78.436
v -239.592 0.707 74.984
v -243.302 0.708 74.364
f 933 934 935 936
v -238.889 0.731 78.152
v -229.269 0.709 71.542
v -231.251 0.719 68.658
v -240.871 0.715 75.268
f 937 938 939 940
v 195.332 0.487 -198.478
v 198.832 0.481 -193.318
v 201.728 0.477 -195.282
v 198.228 0.491 -200.442
f 941 942 943 944
v 198.821 0.481 -193.334
v 252.941 1.000 -111.564
v 255.859 1.017 -113.496
v 201.739 0.477 -195.266
f 945 946 947 948
v -242.451 0.736 105.141
v -234.131 0.621 98.471
v -238.509 0.689 93.009
v -246.829 0.737 99.679
f 949 950 951 952
v -234.344 0.620 98.629
v -218.814 0.663 88.009
v -222.766 0.716 82.231
v -238.296 0.694 92.851
f 953 954 955 956
v -218.810 0.663 88.006
v -191.530 0.610 69.286
v -195.490 0.660 63.514
v -222.770 0.717 82.234
f 957 958 959 960
v -191.515 0.610 69.276
v -112.685 0.684 14.586
v -116.675 0.658 8.834
v -195.505 0.660 63.524
f 961 962 963 964
v -112.685 0.684 14.586
v -94.525 0.621 1.986
v -98.515 0.646 -3.766
v -116.675 0.658 8.834
f 965 966 967 968
v -94.525 0.621 1.986
v -33.455 0.690 -40.384
v -37.445 0.586 -46.136
v -98.515 0.646 -3.766
f 969 970 971 972
v -33.501 0.690 -40.353
v 43.379 0.762 -91.893
v 39.481 0.753 -97.707
v -37.399 0.585 -46.167
f 973 974 975 976
v 43.380 0.762 -91.893
v 70.350 0.715 -109.983
v 66.450 0.706 -115.797
v 39.480 0.753 -97.707
f 977 978 979 980
v 70.351 0.715 -109.984
v 164.681 0.547 -173.324
v 160.779 0.553 -179.136
v 66.449 0.706 -115.796
f 981 982 983 984
v 164.668 0.547 -173.315
v 178.328 0.485 -182.395
v 174.452 0.513 -188.225
v 160.792 0.553 -179.145
f 985 986 987 988
v 178.385 0.485 -182.435
v 198.775 0.495 -196.585
v 194.785 0.469 -202.335
v 174.395 0.514 -188.185
f 989 990 991 992
v 198.741 0.495 -196.561
v 257.961 0.461 -236.632
v 254.039 0.504 -242.430
v 194.819 0.468 -202.359
f 993 994 995 996
v 39.937 0.739 -93.887
v 42.817 0.786 -89.177
v 45.803 0.761 -91.003
v 42.923 0.740 -95.713
f 997 998 999 1000
v 42.782 0.785 -89.237
v 44.072 0.785 -86.927
v 47.128 0.748 -88.633
v 45.838 0.761 -90.943
f 1001 1002 1003 1004
v 44.071 0.785 -86.929
v 52.941 0.820 -70.989
v 55.999 0.789 -72.691
v 47.129 0.748 -88.631
f 1005 1006 1007 1008
v 55.030 0.856 -70.182
v 147.440 1.074 -101.392
v 146.320 1.028 -104.708
v 53.910 0.743 -73.498
f 1009 1010 1011 1012
v 147.200 1.074 -101.330
v 158.430 1.099 -103.420
v 157.790 1.074 -106.860
v 146.560 1.033 -104.770
f 1013 1014 1015 1016
v 157.944 1.100 -103.398
v 163.604 1.108 -102.858
v 163.936 1.080 -106.342
v 158.276 1.078 -106.882
f 1017 1018 1019 1020
v 162.796 1.110 -103.146
v 166.796 1.099 -100.466
v 168.744 1.126 -103.374
v 164.744 1.082 -106.054
f 1021 1022 1023 1024
v 166.201 1.099 -101.145
v 168.541 1.105 -96.405
v 171.679 1.236 -97.955
v 169.339 1.123 -102.695
f 1025 1026 1027 1028
v 168.397 1.108 -96.820
v 169.107 1.124 -93.440
v 172.533 1.352 -94.160
v 171.823 1.252 -97.540
f 1029 1030 1031 1032
v 53.887 0.743 -73.490
v 7.157 1.110 -56.970
v 8.323 0.984 -53.670
v 55.053 0.856 -70.190
f 1033 1034 1035 1036
v -115.743 0.716 13.100
v -110.393 0.738 17.190
v -108.267 0.708 14.410
v -113.617 0.708 10.320
f 1037 1038 1039 1040
v -110.222 0.740 17.306
v -104.852 0.847 20.486
v -103.068 0.798 17.474
v -108.438 0.706 14.294
f 1041 1042 1043 1044
v -102.920 0.854 20.387
v -90.000 0.826 10.837
v -92.080 0.743 8.023
v -105.000 0.774 17.573
f 1045 1046 1047 1048
v -89.472 0.796 8.653
v -91.762 0.675 4.033
v -94.898 0.665 5.587
v -92.608 0.776 10.207
f 1049 1050 1051 1052
v -91.803 0.673 3.955
v -94.993 0.665 -1.745
v -98.047 0.665 -0.035
v -94.857 0.666 5.665
f 1053 1054 1055 1056
usemtl asphalt
