# Baked ultra-low Key West silhouette; generated by bake_key_west_far_city.py
mtllib far_city.mtl
usemtl massing
v 57.582 1.344 240.255
v 59.967 1.344 258.702
v 50.198 1.344 259.965
v 47.813 1.344 241.518
v 57.582 5.244 240.255
v 59.967 5.244 258.702
v 50.198 5.244 259.965
v 47.813 5.244 241.518
f 8 7 6 5
f 1 2 6 5
f 2 3 7 6
f 3 4 8 7
f 4 1 5 8
v 98.354 1.467 245.653
v 100.668 1.467 264.784
v 91.386 1.467 265.907
v 89.072 1.467 246.776
v 98.354 5.367 245.653
v 100.668 5.367 264.784
v 91.386 5.367 265.907
v 89.072 5.367 246.776
f 16 15 14 13
f 9 10 14 13
f 10 11 15 14
f 11 12 16 15
f 12 9 13 16
v -33.972 1.227 224.857
v -28.151 1.227 244.846
v -44.828 1.227 249.703
v -50.649 1.227 229.714
v -33.972 5.127 224.857
v -28.151 5.127 244.846
v -44.828 5.127 249.703
v -50.649 5.127 229.714
f 24 23 22 21
f 17 18 22 21
f 18 19 23 22
f 19 20 24 23
f 20 17 21 24
v -20.547 1.338 250.633
v -18.035 1.338 229.159
v 0.667 1.338 231.347
v -1.845 1.338 252.821
v -20.547 5.238 250.633
v -18.035 5.238 229.159
v 0.667 5.238 231.347
v -1.845 5.238 252.821
f 32 31 30 29
f 25 26 30 29
f 26 27 31 30
f 27 28 32 31
f 28 25 29 32
v 25.751 1.469 233.918
v 31.102 1.469 253.853
v 14.529 1.469 258.302
v 9.178 1.469 238.367
v 25.751 5.369 233.918
v 31.102 5.369 253.853
v 14.529 5.369 258.302
v 9.178 5.369 238.367
f 40 39 38 37
f 33 34 38 37
f 34 35 39 38
f 35 36 40 39
f 36 33 37 40
v 78.940 1.334 242.695
v 81.169 1.334 261.634
v 70.880 1.334 262.845
v 68.651 1.334 243.906
v 78.940 5.234 242.695
v 81.169 5.234 261.634
v 70.880 5.234 262.845
v 68.651 5.234 243.906
f 48 47 46 45
f 41 42 46 45
f 42 43 47 46
f 43 44 48 47
f 44 41 45 48
v -197.518 1.124 215.162
v -167.430 1.124 197.340
v -155.122 1.124 218.118
v -185.210 1.124 235.940
v -197.518 5.024 215.162
v -167.430 5.024 197.340
v -155.122 5.024 218.118
v -185.210 5.024 235.940
f 56 55 54 53
f 49 50 54 53
f 50 51 55 54
f 51 52 56 55
f 52 49 53 56
v -204.254 0.776 229.364
v -191.596 0.776 227.154
v -191.166 0.776 229.616
v -203.824 0.776 231.826
v -204.254 4.676 229.364
v -191.596 4.676 227.154
v -191.166 4.676 229.616
v -203.824 4.676 231.826
f 64 63 62 61
f 57 58 62 61
f 58 59 63 62
f 59 60 64 63
f 60 57 61 64
v -182.036 1.233 262.672
v -180.595 1.233 239.317
v -165.504 1.233 240.248
v -166.945 1.233 263.603
v -182.036 5.133 262.672
v -180.595 5.133 239.317
v -165.504 5.133 240.248
v -166.945 5.133 263.603
f 72 71 70 69
f 65 66 70 69
f 66 67 71 70
f 67 68 72 71
f 68 65 69 72
usemtl road
v -137.557 1.074 202.003
v -147.277 1.075 216.563
v -142.703 1.129 219.617
v -132.983 1.070 205.057
f 73 74 75 76
usemtl asphalt
