# Baked ultra-low Key West silhouette; generated by bake_key_west_far_city.py
mtllib far_city.mtl
usemtl massing
v -270.989 1.160 -137.033
v -169.070 1.160 -113.863
v -188.711 1.160 -27.467
v -290.630 1.160 -50.637
v -270.989 9.460 -137.033
v -169.070 9.460 -113.863
v -188.711 9.460 -27.467
v -290.630 9.460 -50.637
f 8 7 6 5
f 1 2 6 5
f 2 3 7 6
f 3 4 8 7
f 4 1 5 8
v -146.020 0.660 172.036
v -143.530 0.660 187.092
v -156.060 0.660 189.164
v -158.550 0.660 174.108
v -146.020 4.560 172.036
v -143.530 4.560 187.092
v -156.060 4.560 189.164
v -158.550 4.560 174.108
f 16 15 14 13
f 9 10 14 13
f 10 11 15 14
f 11 12 16 15
f 12 9 13 16
v -177.216 0.560 184.047
v -149.879 0.560 202.118
v -165.264 0.560 225.393
v -192.601 0.560 207.322
v -177.216 6.860 184.047
v -149.879 6.860 202.118
v -165.264 6.860 225.393
v -192.601 6.860 207.322
f 24 23 22 21
f 17 18 22 21
f 18 19 23 22
f 19 20 24 23
f 20 17 21 24
v -34.357 0.964 -205.190
v -30.643 0.964 -183.810
v -44.003 0.964 -181.490
v -47.717 0.964 -202.870
v -34.357 10.264 -205.190
v -30.643 10.264 -183.810
v -44.003 10.264 -181.490
v -47.717 10.264 -202.870
f 32 31 30 29
f 25 26 30 29
f 26 27 31 30
f 27 28 32 31
f 28 25 29 32
v -247.875 0.451 213.643
v -224.294 0.451 229.201
v -230.005 0.451 237.857
v -253.586 0.451 222.299
v -247.875 6.751 213.643
v -224.294 6.751 229.201
v -230.005 6.751 237.857
v -253.586 6.751 222.299
f 40 39 38 37
f 33 34 38 37
f 34 35 39 38
f 35 36 40 39
f 36 33 37 40
v -104.194 1.470 -159.370
v -88.989 1.470 -160.977
v -87.986 1.470 -151.490
v -103.191 1.470 -149.883
v -104.194 5.370 -159.370
v -88.989 5.370 -160.977
v -87.986 5.370 -151.490
v -103.191 5.370 -149.883
f 48 47 46 45
f 41 42 46 45
f 42 43 47 46
f 43 44 48 47
f 44 41 45 48
v -104.765 1.445 -178.041
v -87.091 1.445 -179.981
v -86.035 1.445 -170.359
v -103.709 1.445 -168.419
v -104.765 5.345 -178.041
v -87.091 5.345 -179.981
v -86.035 5.345 -170.359
v -103.709 5.345 -168.419
f 56 55 54 53
f 49 50 54 53
f 50 51 55 54
f 51 52 56 55
f 52 49 53 56
v -95.579 1.064 -198.469
v -79.019 1.064 -211.738
v -71.321 1.064 -202.131
v -87.881 1.064 -188.862
v -95.579 4.964 -198.469
v -79.019 4.964 -211.738
v -71.321 4.964 -202.131
v -87.881 4.964 -188.862
f 64 63 62 61
f 57 58 62 61
f 58 59 63 62
f 59 60 64 63
f 60 57 61 64
v -82.379 1.126 -214.922
v -65.678 1.126 -228.255
v -57.761 1.126 -218.338
v -74.462 1.126 -205.005
v -82.379 5.026 -214.922
v -65.678 5.026 -228.255
v -57.761 5.026 -218.338
v -74.462 5.026 -205.005
f 72 71 70 69
f 65 66 70 69
f 66 67 71 70
f 67 68 72 71
f 68 65 69 72
v -43.250 1.296 -240.265
v -40.638 1.296 -221.678
v -48.490 1.296 -220.575
v -51.102 1.296 -239.162
v -43.250 5.196 -240.265
v -40.638 5.196 -221.678
v -48.490 5.196 -220.575
v -51.102 5.196 -239.162
f 80 79 78 77
f 73 74 78 77
f 74 75 79 78
f 75 76 80 79
f 76 73 77 80
v -26.162 1.270 -236.214
v -24.088 1.270 -219.261
v -32.058 1.270 -218.286
v -34.132 1.270 -235.239
v -26.162 5.170 -236.214
v -24.088 5.170 -219.261
v -32.058 5.170 -218.286
v -34.132 5.170 -235.239
f 88 87 86 85
f 81 82 86 85
f 82 83 87 86
f 83 84 88 87
f 84 81 85 88
v -11.677 1.248 -236.292
v -9.334 1.248 -217.457
v -17.283 1.248 -216.468
v -19.626 1.248 -235.303
v -11.677 5.148 -236.292
v -9.334 5.148 -217.457
v -17.283 5.148 -216.468
v -19.626 5.148 -235.303
f 96 95 94 93
f 89 90 94 93
f 90 91 95 94
f 91 92 96 95
f 92 89 93 96
v -231.036 1.297 86.579
v -227.156 1.297 105.311
v -236.184 1.297 107.181
v -240.064 1.297 88.449
v -231.036 5.197 86.579
v -227.156 5.197 105.311
v -236.184 5.197 107.181
v -240.064 5.197 88.449
f 104 103 102 101
f 97 98 102 101
f 98 99 103 102
f 99 100 104 103
f 100 97 101 104
v -171.286 0.694 112.380
v -167.870 0.694 123.361
v -173.074 0.694 124.980
v -176.490 0.694 113.999
v -171.286 4.594 112.380
v -167.870 4.594 123.361
v -173.074 4.594 124.980
v -176.490 4.594 113.999
f 112 111 110 109
f 105 106 110 109
f 106 107 111 110
f 107 108 112 111
f 108 105 109 112
v -178.864 0.797 109.657
v -173.735 0.797 122.263
v -181.896 0.797 125.583
v -187.025 0.797 112.977
v -178.864 4.697 109.657
v -173.735 4.697 122.263
v -181.896 4.697 125.583
v -187.025 4.697 112.977
f 120 119 118 117
f 113 114 118 117
f 114 115 119 118
f 115 116 120 119
f 116 113 117 120
v -166.600 0.742 119.472
v -161.192 0.742 122.988
v -163.520 0.742 126.568
v -168.928 0.742 123.052
v -166.600 4.642 119.472
v -161.192 4.642 122.988
v -163.520 4.642 126.568
v -168.928 4.642 123.052
f 128 127 126 125
f 121 122 126 125
f 122 123 127 126
f 123 124 128 127
f 124 121 125 128
v -171.995 0.398 239.235
v -160.806 0.398 246.788
v -165.785 0.398 254.165
v -176.974 0.398 246.612
v -171.995 4.298 239.235
v -160.806 4.298 246.788
v -165.785 4.298 254.165
v -176.974 4.298 246.612
f 136 135 134 133
f 129 130 134 133
f 130 131 135 134
f 131 132 136 135
f 132 129 133 136
v -117.983 0.468 220.964
v -108.269 0.468 242.670
v -128.797 0.468 251.856
v -138.511 0.468 230.150
v -117.983 4.368 220.964
v -108.269 4.368 242.670
v -128.797 4.368 251.856
v -138.511 4.368 230.150
f 144 143 142 141
f 137 138 142 141
f 138 139 143 142
f 139 140 144 143
f 140 137 141 144
v -113.772 0.791 127.127
v -96.494 0.791 123.935
v -95.608 0.791 128.733
v -112.886 0.791 131.925
v -113.772 4.691 127.127
v -96.494 4.691 123.935
v -95.608 4.691 128.733
v -112.886 4.691 131.925
f 152 151 150 149
f 145 146 150 149
f 146 147 151 150
f 147 148 152 151
f 148 145 149 152
v -200.308 0.563 167.319
v -192.596 0.563 177.883
v -201.772 0.563 184.581
v -209.484 0.563 174.017
v -200.308 4.463 167.319
v -192.596 4.463 177.883
v -201.772 4.463 184.581
v -209.484 4.463 174.017
f 160 159 158 157
f 153 154 158 157
f 154 155 159 158
f 155 156 160 159
f 156 153 157 160
v -269.941 0.429 195.810
v -228.671 0.429 222.466
v -235.339 0.429 232.790
v -276.609 0.429 206.134
v -269.941 6.229 195.810
v -228.671 6.229 222.466
v -235.339 6.229 232.790
v -276.609 6.229 206.134
f 168 167 166 165
f 161 162 166 165
f 162 163 167 166
f 163 164 168 167
f 164 161 165 168
v -252.817 0.540 237.516
v -242.795 0.540 243.074
v -248.203 0.540 252.824
v -258.225 0.540 247.266
v -252.817 4.440 237.516
v -242.795 4.440 243.074
v -248.203 4.440 252.824
v -258.225 4.440 247.266
f 176 175 174 173
f 169 170 174 173
f 170 171 175 174
f 171 172 176 175
f 172 169 173 176
v 216.970 1.311 -115.285
v 235.683 1.311 -117.187
v 236.630 1.311 -107.875
v 217.917 1.311 -105.973
v 216.970 5.211 -115.285
v 235.683 5.211 -117.187
v 236.630 5.211 -107.875
v 217.917 5.211 -105.973
f 184 183 182 181
f 177 178 182 181
f 178 179 183 182
f 179 180 184 183
f 180 177 181 184
v 134.089 1.423 -124.518
v 152.557 1.423 -127.325
v 153.971 1.423 -118.022
v 135.503 1.423 -115.215
v 134.089 5.323 -124.518
v 152.557 5.323 -127.325
v 153.971 5.323 -118.022
v 135.503 5.323 -115.215
f 192 191 190 189
f 185 186 190 189
f 186 187 191 190
f 187 188 192 191
f 188 185 189 192
v 244.723 1.544 -247.766
v 246.965 1.544 -229.745
v 237.557 1.544 -228.574
v 235.315 1.544 -246.595
v 244.723 5.444 -247.766
v 246.965 5.444 -229.745
v 237.557 5.444 -228.574
v 235.315 5.444 -246.595
f 200 199 198 197
f 193 194 198 197
f 194 195 199 198
f 195 196 200 199
f 196 193 197 200
v 199.957 1.369 -123.952
v 202.126 1.369 -105.459
v 192.483 1.369 -104.328
v 190.314 1.369 -122.821
v 199.957 5.269 -123.952
v 202.126 5.269 -105.459
v 192.483 5.269 -104.328
v 190.314 5.269 -122.821
f 208 207 206 205
f 201 202 206 205
f 202 203 207 206
f 203 204 208 207
f 204 201 205 208
v 136.367 1.270 -99.909
v 154.659 1.270 -102.393
v 155.953 1.270 -92.871
v 137.661 1.270 -90.387
v 136.367 5.170 -99.909
v 154.659 5.170 -102.393
v 155.953 5.170 -92.871
v 137.661 5.170 -90.387
f 216 215 214 213
f 209 210 214 213
f 210 211 215 214
f 211 212 216 215
f 212 209 213 216
v 183.106 1.565 -254.694
v 185.660 1.565 -236.361
v 175.934 1.565 -235.006
v 173.380 1.565 -253.339
v 183.106 5.465 -254.694
v 185.660 5.465 -236.361
v 175.934 5.465 -235.006
v 173.380 5.465 -253.339
f 224 223 222 221
f 217 218 222 221
f 218 219 223 222
f 219 220 224 223
f 220 217 221 224
v 119.507 1.418 -263.768
v 121.917 1.418 -245.678
v 112.113 1.418 -244.372
v 109.703 1.418 -262.462
v 119.507 5.318 -263.768
v 121.917 5.318 -245.678
v 112.113 5.318 -244.372
v 109.703 5.318 -262.462
f 232 231 230 229
f 225 226 230 229
f 226 227 231 230
f 227 228 232 231
f 228 225 229 232
v 161.684 1.614 -257.694
v 164.081 1.614 -239.128
v 155.076 1.614 -237.966
v 152.679 1.614 -256.532
v 161.684 5.514 -257.694
v 164.081 5.514 -239.128
v 155.076 5.514 -237.966
v 152.679 5.514 -256.532
f 240 239 238 237
f 233 234 238 237
f 234 235 239 238
f 235 236 240 239
f 236 233 237 240
v -110.206 1.010 -133.546
v -81.043 1.010 -136.760
v -79.874 1.010 -126.154
v -109.037 1.010 -122.940
v -110.206 4.910 -133.546
v -81.043 4.910 -136.760
v -79.874 4.910 -126.154
v -109.037 4.910 -122.940
f 248 247 246 245
f 241 242 246 245
f 242 243 247 246
f 243 244 248 247
f 244 241 245 248
v -185.824 0.429 37.653
v -177.293 0.429 36.565
v -176.376 0.429 43.747
v -184.907 0.429 44.835
v -185.824 4.329 37.653
v -177.293 4.329 36.565
v -176.376 4.329 43.747
v -184.907 4.329 44.835
f 256 255 254 253
f 249 250 254 253
f 250 251 255 254
f 251 252 256 255
f 252 249 253 256
v -137.051 1.143 -201.653
v -129.334 1.143 -129.002
v -146.229 1.143 -127.207
v -153.946 1.143 -199.858
v -137.051 6.943 -201.653
v -129.334 6.943 -129.002
v -146.229 6.943 -127.207
v -153.946 6.943 -199.858
f 264 263 262 261
f 257 258 262 261
f 258 259 263 262
f 259 260 264 263
f 260 257 261 264
v -217.503 1.206 -157.303
v -214.500 1.206 -142.974
v -224.317 1.206 -140.917
v -227.320 1.206 -155.246
v -217.503 5.106 -157.303
v -214.500 5.106 -142.974
v -224.317 5.106 -140.917
v -227.320 5.106 -155.246
f 272 271 270 269
f 265 266 270 269
f 266 267 271 270
f 267 268 272 271
f 268 265 269 272
v -235.483 1.319 -179.973
v -230.480 1.319 -156.542
v -243.477 1.319 -153.767
v -248.480 1.319 -177.198
v -235.483 5.219 -179.973
v -230.480 5.219 -156.542
v -243.477 5.219 -153.767
v -248.480 5.219 -177.198
f 280 279 278 277
f 273 274 278 277
f 274 275 279 278
f 275 276 280 279
f 276 273 277 280
v 141.178 1.503 -260.872
v 143.338 1.503 -241.944
v 133.382 1.503 -240.808
v 131.222 1.503 -259.736
v 141.178 5.403 -260.872
v 143.338 5.403 -241.944
v 133.382 5.403 -240.808
v 131.222 5.403 -259.736
f 288 287 286 285
f 281 282 286 285
f 282 283 287 286
f 283 284 288 287
f 284 281 285 288
v 203.837 1.549 -252.546
v 206.628 1.549 -233.641
v 196.963 1.549 -232.214
v 194.172 1.549 -251.119
v 203.837 5.449 -252.546
v 206.628 5.449 -233.641
v 196.963 5.449 -232.214
v 194.172 5.449 -251.119
f 296 295 294 293
f 289 290 294 293
f 290 291 295 294
f 291 292 296 295
f 292 289 293 296
v 222.929 1.528 -250.308
v 225.525 1.528 -230.901
v 215.891 1.528 -229.612
v 213.295 1.528 -249.019
v 222.929 5.428 -250.308
v 225.525 5.428 -230.901
v 215.891 5.428 -229.612
v 213.295 5.428 -249.019
f 304 303 302 301
f 297 298 302 301
f 298 299 303 302
f 299 300 304 303
f 300 297 301 304
v 254.016 1.226 -161.639
v 255.769 1.226 -141.586
v 246.564 1.226 -140.781
v 244.811 1.226 -160.834
v 254.016 5.126 -161.639
v 255.769 5.126 -141.586
v 246.564 5.126 -140.781
v 244.811 5.126 -160.834
f 312 311 310 309
f 305 306 310 309
f 306 307 311 310
f 307 308 312 311
f 308 305 309 312
v 236.828 1.239 -163.582
v 237.516 1.239 -143.744
v 228.672 1.239 -143.438
v 227.984 1.239 -163.276
v 236.828 5.139 -163.582
v 237.516 5.139 -143.744
v 228.672 5.139 -143.438
v 227.984 5.139 -163.276
f 320 319 318 317
f 313 314 318 317
f 314 315 319 318
f 315 316 320 319
f 316 313 317 320
v 218.233 1.229 -165.835
v 220.032 1.229 -147.694
v 210.867 1.229 -146.785
v 209.068 1.229 -164.926
v 218.233 5.129 -165.835
v 220.032 5.129 -147.694
v 210.867 5.129 -146.785
v 209.068 5.129 -164.926
f 328 327 326 325
f 321 322 326 325
f 322 323 327 326
f 323 324 328 327
f 324 321 325 328
v 199.184 1.210 -168.307
v 202.267 1.210 -148.657
v 193.316 1.210 -147.253
v 190.233 1.210 -166.903
v 199.184 5.110 -168.307
v 202.267 5.110 -148.657
v 193.316 5.110 -147.253
v 190.233 5.110 -166.903
f 336 335 334 333
f 329 330 334 333
f 330 331 335 334
f 331 332 336 335
f 332 329 333 336
v 172.001 1.324 -151.208
v 172.462 1.324 -170.692
v 183.459 1.324 -170.432
v 182.998 1.324 -150.948
v 172.001 5.224 -151.208
v 172.462 5.224 -170.692
v 183.459 5.224 -170.432
v 182.998 5.224 -150.948
f 344 343 342 341
f 337 338 342 341
f 338 339 343 342
f 339 340 344 343
f 340 337 341 344
v 163.480 1.275 -172.836
v 166.033 1.275 -154.736
v 157.300 1.275 -153.504
v 154.747 1.275 -171.604
v 163.480 5.175 -172.836
v 166.033 5.175 -154.736
v 157.300 5.175 -153.504
v 154.747 5.175 -171.604
f 352 351 350 349
f 345 346 350 349
f 346 347 351 350
f 347 348 352 351
f 348 345 349 352
v 144.633 1.298 -175.494
v 148.220 1.298 -155.889
v 139.347 1.298 -154.266
v 135.760 1.298 -173.871
v 144.633 5.198 -175.494
v 148.220 5.198 -155.889
v 139.347 5.198 -154.266
v 135.760 5.198 -173.871
f 360 359 358 357
f 353 354 358 357
f 354 355 359 358
f 355 356 360 359
f 356 353 357 360
v 128.147 1.249 -178.343
v 129.336 1.249 -158.809
v 119.933 1.249 -158.237
v 118.744 1.249 -177.771
v 128.147 5.149 -178.343
v 129.336 5.149 -158.809
v 119.933 5.149 -158.237
v 118.744 5.149 -177.771
f 368 367 366 365
f 361 362 366 365
f 362 363 367 366
f 363 364 368 367
f 364 361 365 368
v 110.601 1.330 -181.007
v 111.828 1.330 -161.365
v 101.399 1.330 -160.713
v 100.172 1.330 -180.355
v 110.601 5.230 -181.007
v 111.828 5.230 -161.365
v 101.399 5.230 -160.713
v 100.172 5.230 -180.355
f 376 375 374 373
f 369 370 374 373
f 370 371 375 374
f 371 372 376 375
f 372 369 373 376
v 92.098 1.331 -183.798
v 95.779 1.331 -165.576
v 86.202 1.331 -163.642
v 82.521 1.331 -181.864
v 92.098 5.231 -183.798
v 95.779 5.231 -165.576
v 86.202 5.231 -163.642
v 82.521 5.231 -181.864
f 384 383 382 381
f 377 378 382 381
f 378 379 383 382
f 379 380 384 383
f 380 377 381 384
v 73.507 1.323 -186.486
v 76.241 1.323 -166.725
v 67.633 1.323 -165.534
v 64.899 1.323 -185.295
v 73.507 5.223 -186.486
v 76.241 5.223 -166.725
v 67.633 5.223 -165.534
v 64.899 5.223 -185.295
f 392 391 390 389
f 385 386 390 389
f 386 387 391 390
f 387 388 392 391
f 388 385 389 392
v 55.731 1.464 -188.694
v 58.317 1.464 -170.860
v 49.529 1.464 -169.586
v 46.943 1.464 -187.420
v 55.731 5.364 -188.694
v 58.317 5.364 -170.860
v 49.529 5.364 -169.586
v 46.943 5.364 -187.420
f 400 399 398 397
f 393 394 398 397
f 394 395 399 398
f 395 396 400 399
f 396 393 397 400
v 38.704 1.296 -191.223
v 39.820 1.296 -171.404
v 29.756 1.296 -170.837
v 28.640 1.296 -190.656
v 38.704 5.196 -191.223
v 39.820 5.196 -171.404
v 29.756 5.196 -170.837
v 28.640 5.196 -190.656
f 408 407 406 405
f 401 402 406 405
f 402 403 407 406
f 403 404 408 407
f 404 401 405 408
v 20.839 1.167 -194.081
v 22.465 1.167 -175.613
v 13.221 1.167 -174.799
v 11.595 1.167 -193.267
v 20.839 5.067 -194.081
v 22.465 5.067 -175.613
v 13.221 5.067 -174.799
v 11.595 5.067 -193.267
f 416 415 414 413
f 409 410 414 413
f 410 411 415 414
f 411 412 416 415
f 412 409 413 416
v 0.888 1.087 -196.923
v 3.478 1.087 -177.989
v -5.528 1.087 -176.757
v -8.118 1.087 -195.691
v 0.888 4.987 -196.923
v 3.478 4.987 -177.989
v -5.528 4.987 -176.757
v -8.118 4.987 -195.691
f 424 423 422 421
f 417 418 422 421
f 418 419 423 422
f 419 420 424 423
f 420 417 421 424
v -16.533 1.042 -198.816
v -13.736 1.042 -180.711
v -22.067 1.042 -179.424
v -24.864 1.042 -197.529
v -16.533 4.942 -198.816
v -13.736 4.942 -180.711
v -22.067 4.942 -179.424
v -24.864 4.942 -197.529
f 432 431 430 429
f 425 426 430 429
f 426 427 431 430
f 427 428 432 431
f 428 425 429 432
v 9.969 1.273 -233.114
v 12.516 1.273 -214.497
v 4.391 1.273 -213.386
v 1.844 1.273 -232.003
v 9.969 5.173 -233.114
v 12.516 5.173 -214.497
v 4.391 5.173 -213.386
v 1.844 5.173 -232.003
f 440 439 438 437
f 433 434 438 437
f 434 435 439 438
f 435 436 440 439
f 436 433 437 440
v 30.984 1.386 -231.062
v 35.200 1.386 -212.065
v 25.076 1.386 -209.818
v 20.860 1.386 -228.815
v 30.984 5.286 -231.062
v 35.200 5.286 -212.065
v 25.076 5.286 -209.818
v 20.860 5.286 -228.815
f 448 447 446 445
f 441 442 446 445
f 442 443 447 446
f 443 444 448 447
f 444 441 445 448
v 48.771 1.442 -229.230
v 53.552 1.442 -209.944
v 43.409 1.442 -207.430
v 38.628 1.442 -226.716
v 48.771 5.342 -229.230
v 53.552 5.342 -209.944
v 43.409 5.342 -207.430
v 38.628 5.342 -226.716
f 456 455 454 453
f 449 450 454 453
f 450 451 455 454
f 451 452 456 455
f 452 449 453 456
v 65.196 1.352 -226.621
v 69.873 1.352 -208.257
v 60.144 1.352 -205.779
v 55.467 1.352 -224.143
v 65.196 5.252 -226.621
v 69.873 5.252 -208.257
v 60.144 5.252 -205.779
v 55.467 5.252 -224.143
f 464 463 462 461
f 457 458 462 461
f 458 459 463 462
f 459 460 464 463
f 460 457 461 464
v 83.187 1.384 -224.840
v 87.200 1.384 -206.034
v 77.293 1.384 -203.920
v 73.280 1.384 -222.726
v 83.187 5.284 -224.840
v 87.200 5.284 -206.034
v 77.293 5.284 -203.920
v 73.280 5.284 -222.726
f 472 471 470 469
f 465 466 470 469
f 466 467 471 470
f 467 468 472 471
f 468 465 469 472
v 99.272 1.405 -221.834
v 103.723 1.405 -204.053
v 94.188 1.405 -201.666
v 89.737 1.405 -219.447
v 99.272 5.305 -221.834
v 103.723 5.305 -204.053
v 94.188 5.305 -201.666
v 89.737 5.305 -219.447
f 480 479 478 477
f 473 474 478 477
f 474 475 479 478
f 475 476 480 479
f 476 473 477 480
v 119.775 1.443 -219.413
v 123.810 1.443 -201.287
v 114.645 1.443 -199.247
v 110.610 1.443 -217.373
v 119.775 5.343 -219.413
v 123.810 5.343 -201.287
v 114.645 5.343 -199.247
v 110.610 5.343 -217.373
f 488 487 486 485
f 481 482 486 485
f 482 483 487 486
f 483 484 488 487
f 484 481 485 488
v 138.328 1.487 -217.003
v 142.788 1.487 -198.164
v 132.872 1.487 -195.817
v 128.412 1.487 -214.656
v 138.328 5.387 -217.003
v 142.788 5.387 -198.164
v 132.872 5.387 -195.817
v 128.412 5.387 -214.656
f 496 495 494 493
f 489 490 494 493
f 490 491 495 494
f 491 492 496 495
f 492 489 493 496
v 156.899 1.624 -214.839
v 161.023 1.624 -196.159
v 151.161 1.624 -193.981
v 147.037 1.624 -212.661
v 156.899 5.524 -214.839
v 161.023 5.524 -196.159
v 151.161 5.524 -193.981
v 147.037 5.524 -212.661
f 504 503 502 501
f 497 498 502 501
f 498 499 503 502
f 499 500 504 503
f 500 497 501 504
v 174.727 1.575 -212.607
v 179.412 1.575 -194.287
v 169.113 1.575 -191.653
v 164.428 1.575 -209.973
v 174.727 5.475 -212.607
v 179.412 5.475 -194.287
v 169.113 5.475 -191.653
v 164.428 5.475 -209.973
f 512 511 510 509
f 505 506 510 509
f 506 507 511 510
f 507 508 512 511
f 508 505 509 512
v 192.863 1.731 -209.927
v 197.331 1.731 -190.822
v 187.457 1.731 -188.513
v 182.989 1.731 -207.618
v 192.863 5.631 -209.927
v 197.331 5.631 -190.822
v 187.457 5.631 -188.513
v 182.989 5.631 -207.618
f 520 519 518 517
f 513 514 518 517
f 514 515 519 518
f 515 516 520 519
f 516 513 517 520
v 211.591 1.703 -208.441
v 216.393 1.703 -188.892
v 205.429 1.703 -186.199
v 200.627 1.703 -205.748
v 211.591 5.603 -208.441
v 216.393 5.603 -188.892
v 205.429 5.603 -186.199
v 200.627 5.603 -205.748
f 528 527 526 525
f 521 522 526 525
f 522 523 527 526
f 523 524 528 527
f 524 521 525 528
v 228.542 1.700 -204.718
v 231.501 1.700 -186.092
v 223.758 1.700 -184.862
v 220.799 1.700 -203.488
v 228.542 5.600 -204.718
v 231.501 5.600 -186.092
v 223.758 5.600 -184.862
v 220.799 5.600 -203.488
f 536 535 534 533
f 529 530 534 533
f 530 531 535 534
f 531 532 536 535
f 532 529 533 536
v 246.977 1.515 -202.769
v 251.344 1.515 -184.062
v 241.703 1.515 -181.811
v 237.336 1.515 -200.518
v 246.977 5.415 -202.769
v 251.344 5.415 -184.062
v 241.703 5.415 -181.811
v 237.336 5.415 -200.518
f 544 543 542 541
f 537 538 542 541
f 538 539 543 542
f 539 540 544 543
f 540 537 541 544
v -189.149 1.402 -219.117
v -185.020 1.402 -242.506
v -170.051 1.402 -239.863
v -174.180 1.402 -216.474
v -189.149 5.302 -219.117
v -185.020 5.302 -242.506
v -170.051 5.302 -239.863
v -174.180 5.302 -216.474
f 552 551 550 549
f 545 546 550 549
f 546 547 551 550
f 547 548 552 551
f 548 545 549 552
v -195.738 1.508 -188.472
v -192.134 1.508 -211.846
v -177.102 1.508 -209.528
v -180.706 1.508 -186.154
v -195.738 5.408 -188.472
v -192.134 5.408 -211.846
v -177.102 5.408 -209.528
v -180.706 5.408 -186.154
f 560 559 558 557
f 553 554 558 557
f 554 555 559 558
f 555 556 560 559
f 556 553 557 560
v -192.504 1.603 -180.556
v -181.206 1.603 -157.729
v -195.196 1.603 -150.804
v -206.494 1.603 -173.631
v -192.504 5.503 -180.556
v -181.206 5.503 -157.729
v -195.196 5.503 -150.804
v -206.494 5.503 -173.631
f 568 567 566 565
f 561 562 566 565
f 562 563 567 566
f 563 564 568 567
f 564 561 565 568
v -238.059 0.476 38.459
v -211.088 0.476 33.300
v -208.881 0.476 44.841
v -235.852 0.476 50.000
v -238.059 4.376 38.459
v -211.088 4.376 33.300
v -208.881 4.376 44.841
v -235.852 4.376 50.000
f 576 575 574 573
f 569 570 574 573
f 570 571 575 574
f 571 572 576 575
f 572 569 573 576
v 207.600 1.411 -92.256
v 226.160 1.411 -93.865
v 227.060 1.411 -83.484
v 208.500 1.411 -81.875
v 207.600 5.311 -92.256
v 226.160 5.311 -93.865
v 227.060 5.311 -83.484
v 208.500 5.311 -81.875
f 584 583 582 581
f 577 578 582 581
f 578 579 583 582
f 579 580 584 583
f 580 577 581 584
v 176.755 1.219 -126.722
v 179.359 1.219 -108.235
v 169.585 1.219 -106.858
v 166.981 1.219 -125.345
v 176.755 5.119 -126.722
v 179.359 5.119 -108.235
v 169.585 5.119 -106.858
v 166.981 5.119 -125.345
f 592 591 590 589
f 585 586 590 589
f 586 587 591 590
f 587 588 592 591
f 588 585 589 592
v 80.059 1.514 -103.193
v 98.304 1.514 -107.472
v 100.421 1.514 -98.447
v 82.176 1.514 -94.168
v 80.059 5.414 -103.193
v 98.304 5.414 -107.472
v 100.421 5.414 -98.447
v 82.176 5.414 -94.168
f 600 599 598 597
f 593 594 598 597
f 594 595 599 598
f 595 596 600 599
f 596 593 597 600
v 85.318 1.335 -120.227
v 105.318 1.335 -120.858
v 105.642 1.335 -110.573
v 85.642 1.335 -109.942
v 85.318 5.235 -120.227
v 105.318 5.235 -120.858
v 105.642 5.235 -110.573
v 85.642 5.235 -109.942
f 608 607 606 605
f 601 602 606 605
f 602 603 607 606
f 603 604 608 607
f 604 601 605 608
v 90.849 1.338 -135.889
v 109.691 1.338 -138.479
v 110.891 1.338 -129.751
v 92.049 1.338 -127.161
v 90.849 5.238 -135.889
v 109.691 5.238 -138.479
v 110.891 5.238 -129.751
v 92.049 5.238 -127.161
f 616 615 614 613
f 609 610 614 613
f 610 611 615 614
f 611 612 616 615
f 612 609 613 616
v 75.343 1.497 -141.983
v 80.007 1.497 -123.399
v 70.357 1.497 -120.977
v 65.693 1.497 -139.561
v 75.343 5.397 -141.983
v 80.007 5.397 -123.399
v 70.357 5.397 -120.977
v 65.693 5.397 -139.561
f 624 623 622 621
f 617 618 622 621
f 618 619 623 622
f 619 620 624 623
f 620 617 621 624
v 57.624 1.369 -143.779
v 61.800 1.369 -125.151
v 52.296 1.369 -123.021
v 48.120 1.369 -141.649
v 57.624 5.269 -143.779
v 61.800 5.269 -125.151
v 52.296 5.269 -123.021
v 48.120 5.269 -141.649
f 632 631 630 629
f 625 626 630 629
f 626 627 631 630
f 627 628 632 631
f 628 625 629 632
v 40.950 1.366 -146.429
v 43.338 1.366 -128.719
v 33.190 1.366 -127.351
v 30.802 1.366 -145.061
v 40.950 5.266 -146.429
v 43.338 5.266 -128.719
v 33.190 5.266 -127.351
v 30.802 5.266 -145.061
f 640 639 638 637
f 633 634 638 637
f 634 635 639 638
f 635 636 640 639
f 636 633 637 640
v 1.278 1.256 -150.411
v 19.918 1.256 -150.419
v 19.922 1.256 -140.309
v 1.282 1.256 -140.301
v 1.278 5.156 -150.411
v 19.918 5.156 -150.419
v 19.922 5.156 -140.309
v 1.282 5.156 -140.301
f 648 647 646 645
f 641 642 646 645
f 642 643 647 646
f 643 644 648 647
f 644 641 645 648
v -1.211 1.447 -130.647
v 17.657 1.447 -133.481
v 19.151 1.447 -123.533
v 0.283 1.447 -120.699
v -1.211 5.347 -130.647
v 17.657 5.347 -133.481
v 19.151 5.347 -123.533
v 0.283 5.347 -120.699
f 656 655 654 653
f 649 650 654 653
f 650 651 655 654
f 651 652 656 655
f 652 649 653 656
v 0.882 1.340 -113.098
v 18.754 1.340 -115.321
v 19.898 1.340 -106.122
v 2.026 1.340 -103.899
v 0.882 5.240 -113.098
v 18.754 5.240 -115.321
v 19.898 5.240 -106.122
v 2.026 5.240 -103.899
f 664 663 662 661
f 657 658 662 661
f 658 659 663 662
f 659 660 664 663
f 660 657 661 664
v -53.319 1.309 -120.433
v -34.735 1.309 -122.112
v -33.961 1.309 -113.547
v -52.545 1.309 -111.868
v -53.319 5.209 -120.433
v -34.735 5.209 -122.112
v -33.961 5.209 -113.547
v -52.545 5.209 -111.868
f 672 671 670 669
f 665 666 670 669
f 666 667 671 670
f 667 668 672 671
f 668 665 669 672
v -46.799 1.422 -136.687
v -28.502 1.422 -138.638
v -27.661 1.422 -130.753
v -45.958 1.422 -128.802
v -46.799 5.322 -136.687
v -28.502 5.322 -138.638
v -27.661 5.322 -130.753
v -45.958 5.322 -128.802
f 680 679 678 677
f 673 674 678 677
f 674 675 679 678
f 675 676 680 679
f 676 673 677 680
v -44.318 1.269 -155.516
v -25.639 1.269 -157.735
v -24.642 1.269 -149.344
v -43.321 1.269 -147.125
v -44.318 5.169 -155.516
v -25.639 5.169 -157.735
v -24.642 5.169 -149.344
v -43.321 5.169 -147.125
f 688 687 686 685
f 681 682 686 685
f 682 683 687 686
f 683 684 688 687
f 684 681 685 688
v -141.400 -0.300 193.532
v -128.097 -0.300 202.423
v -130.320 -0.300 205.748
v -143.623 -0.300 196.857
v -141.400 3.600 193.532
v -128.097 3.600 202.423
v -130.320 3.600 205.748
v -143.623 3.600 196.857
f 696 695 694 693
f 689 690 694 693
f 690 691 695 694
f 691 692 696 695
f 692 689 693 696
usemtl road
v -189.687 0.829 -6.122
v -194.657 0.809 -2.262
v -191.283 0.900 2.082
v -186.313 0.865 -1.778
f 697 698 699 700
v -193.775 0.822 -2.719
v -201.515 0.727 -0.349
v -199.905 0.889 4.909
v -192.165 0.892 2.539
f 701 702 703 704
v -201.514 0.727 -0.350
v -217.794 0.909 4.630
v -216.186 0.880 9.890
v -199.906 0.889 4.910
f 705 706 707 708
v -217.979 0.913 4.694
v -226.459 0.976 7.964
v -224.481 0.801 13.096
v -216.001 0.881 9.826
f 709 710 711 712
v -226.006 0.976 7.833
v -250.686 0.926 12.733
v -249.614 0.775 18.127
v -224.934 0.798 13.227
f 713 714 715 716
v -79.600 1.207 -107.775
v -148.180 1.168 -117.075
v -148.920 1.155 -111.625
v -80.340 1.069 -102.325
f 717 718 719 720
v -148.976 1.171 -117.067
v -160.456 1.239 -115.267
v -159.604 1.193 -109.833
v -148.124 1.154 -111.633
f 721 722 723 724
v -243.875 0.617 123.430
v -246.345 0.552 136.100
v -239.475 0.593 137.440
v -237.005 0.636 124.770
f 725 726 727 728
v -246.396 0.558 136.463
v -246.656 0.594 139.413
v -239.684 0.593 140.027
v -239.424 0.592 137.077
f 729 730 731 732
v -246.619 0.601 140.317
v -242.789 0.674 162.457
v -235.891 0.567 161.263
v -239.721 0.596 139.123
f 733 734 735 736
v -242.715 0.674 162.785
v -239.445 0.693 174.715
v -232.695 0.570 172.865
v -235.965 0.567 160.935
f 737 738 739 740
v -239.355 0.695 174.998
v -234.825 0.678 187.318
v -228.255 0.674 184.902
v -232.785 0.570 172.582
f 741 742 743 744
v -234.442 0.677 188.066
v -203.092 0.674 234.576
v -197.288 0.614 230.664
v -228.638 0.669 184.154
f 745 746 747 748
v -203.108 0.674 234.553
v -187.622 0.630 257.933
v -181.786 0.517 254.067
v -197.272 0.613 230.687
f 749 750 751 752
v -213.228 0.586 136.265
v -166.508 0.928 146.005
v -164.672 0.901 137.195
v -211.392 0.604 127.455
f 753 754 755 756
v -69.784 1.101 -255.277
v -76.444 1.078 -251.797
v -73.896 1.112 -246.923
v -67.236 1.112 -250.403
f 757 758 759 760
v -77.364 1.078 -251.018
v -95.894 1.129 -226.508
v -91.506 0.981 -223.192
v -72.976 1.117 -247.702
f 761 762 763 764
v -95.904 1.129 -226.495
v -112.604 1.152 -204.125
v -108.196 1.095 -200.835
v -91.496 0.981 -223.205
f 765 766 767 768
v -112.873 1.158 -203.682
v -116.863 1.199 -195.472
v -111.917 1.120 -193.068
v -107.927 1.079 -201.278
f 769 770 771 772
v -117.116 1.205 -194.630
v -124.296 1.302 -140.240
v -118.844 1.318 -139.520
v -111.664 1.110 -193.910
f 773 774 775 776
v -124.163 1.310 -140.796
v -128.913 1.115 -127.356
v -123.727 1.140 -125.524
v -118.977 1.317 -138.964
f 777 778 779 780
v -128.497 1.127 -128.120
v -133.397 1.073 -121.770
v -129.043 1.107 -118.410
v -124.143 1.130 -124.760
f 781 782 783 784
v -132.080 1.070 -122.702
v -135.210 1.081 -121.672
v -133.490 1.124 -116.448
v -130.360 1.120 -117.478
f 785 786 787 788
v -135.216 1.081 -121.670
v -149.416 1.169 -116.960
v -147.684 1.156 -111.740
v -133.484 1.124 -116.450
f 789 790 791 792
v -40.823 1.291 -172.520
v -52.033 1.280 -172.670
v -52.107 1.202 -167.170
v -40.897 1.182 -167.020
f 793 794 795 796
v -53.374 1.285 -172.341
v -61.324 1.301 -168.061
v -58.716 1.238 -163.219
v -50.766 1.185 -167.499
f 797 798 799 800
v -62.481 1.303 -166.868
v -66.751 1.382 -158.308
v -61.829 1.333 -155.852
v -57.559 1.230 -164.412
f 801 802 803 804
v -67.014 1.396 -157.456
v -73.204 1.389 -112.606
v -67.756 1.348 -111.854
v -61.566 1.329 -156.704
f 805 806 807 808
v -72.916 1.400 -113.506
v -75.316 1.333 -108.926
v -70.444 1.358 -106.374
v -68.044 1.346 -110.954
f 809 810 811 812
v -73.827 1.374 -110.232
v -80.917 1.206 -107.632
v -79.023 1.139 -102.468
v -71.933 1.355 -105.068
f 813 814 815 816
v -162.726 1.244 -113.092
v -180.486 0.804 -24.752
v -175.094 0.824 -23.668
v -157.334 1.188 -112.008
f 817 818 819 820
v -180.425 0.805 -24.996
v -184.485 0.769 -11.376
v -179.215 0.768 -9.804
v -175.155 0.821 -23.424
f 821 822 823 824
v -183.868 0.774 -12.459
v -190.018 0.833 -5.819
v -185.982 0.859 -2.081
v -179.832 0.778 -8.721
f 825 826 827 828
v 250.240 1.298 -132.262
v 190.810 1.284 -139.002
v 190.190 1.244 -133.538
v 249.620 1.335 -126.798
f 829 830 831 832
v 190.894 1.284 -138.992
v 125.434 1.326 -148.462
v 124.646 1.360 -143.018
v 190.106 1.244 -133.548
f 833 834 835 836
v 125.434 1.326 -148.462
v -8.036 1.337 -167.802
v -8.824 1.334 -162.358
v 124.646 1.360 -143.018
f 837 838 839 840
v -8.036 1.337 -167.802
v -40.466 1.291 -172.492
v -41.254 1.180 -167.048
v -8.824 1.334 -162.358
f 841 842 843 844
v -231.678 0.907 258.236
v -204.829 0.628 239.006
v -208.031 0.623 234.534
v -234.880 0.938 253.764
f 845 846 847 848
v -204.907 0.629 239.060
v -198.667 0.698 234.910
v -201.713 0.681 230.330
v -207.953 0.623 234.480
f 849 850 851 852
v -233.182 0.722 183.904
v -238.772 0.641 188.064
v -235.488 0.649 192.476
v -229.898 0.733 188.316
f 853 854 855 856
v -155.451 1.202 -256.552
v -182.114 1.309 -126.412
v -176.726 1.387 -125.308
v -150.063 1.289 -255.448
f 857 858 859 860
v -182.091 1.305 -125.204
v -181.141 1.301 -121.334
v -175.799 1.367 -122.646
v -176.749 1.375 -126.516
f 861 862 863 864
v -181.141 1.301 -121.335
v -180.361 1.297 -118.155
v -175.019 1.283 -119.465
v -175.799 1.367 -122.645
f 865 866 867 868
v -179.372 1.281 -116.634
v -173.642 1.276 -112.204
v -170.278 1.277 -116.556
v -176.008 1.306 -120.986
f 869 870 871 872
v -172.379 1.265 -111.662
v -165.569 1.164 -110.612
v -164.731 1.262 -116.048
v -171.541 1.285 -117.098
f 873 874 875 876
v -165.564 1.164 -110.611
v -160.444 1.204 -109.831
v -159.616 1.229 -115.269
v -164.736 1.262 -116.049
f 877 878 879 880
v 101.961 6.172 196.209
v 255.151 1.208 225.640
v 256.849 1.081 216.802
v 103.659 6.236 187.371
f 881 882 883 884
v 35.595 6.308 183.216
v 101.945 6.172 196.206
v 103.675 6.235 187.374
v 37.325 6.485 174.384
f 885 886 887 888
v 121.042 1.600 -98.232
v 126.812 1.441 -138.672
v 121.368 1.443 -139.448
v 115.598 1.628 -99.008
f 889 890 891 892
v 126.813 1.441 -138.673
v 127.763 1.369 -145.353
v 122.317 1.371 -146.127
v 121.367 1.443 -139.447
f 893 894 895 896
v 248.368 1.679 -83.861
v 252.018 1.345 -122.451
v 246.542 1.355 -122.969
v 242.892 1.713 -84.379
f 897 898 899 900
v 252.018 1.345 -122.449
v 252.668 1.326 -129.269
v 247.192 1.348 -129.791
v 246.542 1.355 -122.971
f 901 902 903 904
v -12.595 1.508 -113.999
v -6.585 1.318 -158.199
v -12.035 1.343 -158.941
v -18.045 1.531 -114.741
f 905 906 907 908
v -6.585 1.318 -158.202
v -5.705 1.360 -164.712
v -11.155 1.358 -165.448
v -12.035 1.343 -158.938
f 909 910 911 912
v 256.319 1.208 198.802
v 99.549 1.220 169.749
v 98.911 1.256 173.191
v 255.681 1.231 202.244
f 913 914 915 916
v 98.942 1.220 169.744
v 91.942 1.174 170.914
v 92.518 1.515 174.366
v 99.518 1.256 173.196
f 917 918 919 920
v 91.522 1.172 171.040
v 85.442 1.142 173.730
v 86.858 1.586 176.930
v 92.938 1.492 174.240
f 921 922 923 924
v 84.865 1.134 174.142
v 81.815 1.099 177.442
v 84.385 1.375 179.818
v 87.435 1.658 176.518
f 925 926 927 928
v 81.407 1.092 178.187
v 77.067 1.099 194.757
v 80.453 1.167 195.643
v 84.793 1.358 179.073
f 929 930 931 932
v 77.047 1.103 195.556
v 77.927 1.116 199.786
v 81.353 1.187 199.074
v 80.473 1.169 194.844
f 933 934 935 936
v 78.236 1.117 200.475
v 81.846 1.138 205.325
v 84.654 1.185 203.235
v 81.044 1.170 198.385
f 937 938 939 940
v 82.463 1.148 205.843
v 90.943 1.154 210.113
v 92.517 1.212 206.987
v 84.037 1.191 202.717
f 941 942 943 944
v 91.412 1.155 210.271
v 255.682 1.270 240.643
v 256.318 1.300 237.201
v 92.048 1.208 206.829
f 945 946 947 948
v -167.203 0.938 142.278
v -162.863 1.019 152.608
v -159.637 0.967 151.252
v -163.977 0.960 140.922
f 949 950 951 952
v -162.830 1.020 152.683
v -161.810 1.051 154.823
v -158.650 0.991 153.317
v -159.670 0.967 151.177
f 953 954 955 956
v -161.471 1.053 155.304
v -154.891 1.068 161.924
v -152.409 1.074 159.456
v -158.989 0.983 152.836
f 957 958 959 960
v -154.331 1.089 162.302
v -145.021 1.130 166.232
v -143.659 1.181 163.008
v -152.969 1.069 159.078
f 961 962 963 964
v -144.651 1.131 166.342
v 36.819 1.151 199.092
v 37.441 1.135 195.648
v -144.029 1.178 162.898
f 965 966 967 968
v 37.462 1.155 199.088
v 43.302 1.158 197.958
v 42.638 1.098 194.522
v 36.798 1.141 195.652
f 969 970 971 972
v 44.067 1.148 197.604
v 48.357 1.093 194.154
v 46.163 1.082 191.426
v 41.873 1.103 194.876
f 973 974 975 976
v 48.993 1.070 193.034
v 52.253 1.084 169.844
v 48.787 1.155 169.356
v 45.527 1.081 192.546
f 977 978 979 980
v 52.196 1.087 169.098
v 51.036 1.095 165.228
v 47.684 1.159 166.232
v 48.844 1.150 170.102
f 981 982 983 984
v 50.489 1.096 164.393
v 45.859 1.138 160.483
v 43.601 1.192 163.157
v 48.231 1.156 167.067
f 985 986 987 988
v 45.216 1.141 160.139
v 37.056 1.184 157.779
v 36.084 1.208 161.141
v 44.244 1.200 163.501
f 989 990 991 992
v 36.867 1.185 157.735
v -146.113 1.107 126.275
v -146.707 1.227 129.725
v 36.273 1.209 161.185
f 993 994 995 996
v -146.108 1.107 126.276
v -147.248 1.099 126.076
v -147.852 1.217 129.524
v -146.712 1.227 129.724
f 997 998 999 1000
v -147.251 1.099 126.076
v -149.271 1.079 125.726
v -149.869 1.207 129.174
v -147.849 1.217 129.524
f 1001 1002 1003 1004
v -149.901 1.072 125.732
v -157.691 0.962 127.232
v -157.029 1.091 130.668
v -149.239 1.206 129.168
f 1005 1006 1007 1008
v -158.520 0.946 127.639
v -162.430 0.867 131.099
v -160.110 0.955 133.721
v -156.200 1.104 130.261
f 1009 1010 1011 1012
v -162.856 0.860 131.670
v -163.906 0.860 133.920
v -160.734 0.903 135.400
v -159.684 0.989 133.150
f 1013 1014 1015 1016
v -163.903 0.860 133.914
v -167.173 0.941 140.854
v -164.007 0.959 142.346
v -160.737 0.903 135.406
f 1017 1018 1019 1020
v 256.362 1.252 -214.321
v -58.878 1.121 -256.226
v -59.602 1.057 -250.774
v 255.638 1.143 -208.869
f 1021 1022 1023 1024
v -59.435 1.120 -256.243
v -68.705 1.099 -255.583
v -68.315 1.115 -250.097
v -59.045 1.054 -250.757
f 1025 1026 1027 1028
v -166.405 0.929 146.026
v 35.645 6.296 183.226
v 37.275 6.493 174.374
v -164.775 0.901 137.174
f 1029 1030 1031 1032
v -254.302 1.454 -163.215
v -248.952 1.400 -184.585
v -252.348 1.348 -185.435
v -257.698 1.363 -164.065
f 1033 1034 1035 1036
v -210.594 0.650 132.202
v -209.284 0.667 125.632
v -212.716 0.628 124.948
v -214.026 0.659 131.518
f 1037 1038 1039 1040
v -209.275 0.670 125.584
v -194.495 0.803 38.764
v -197.945 0.737 38.176
v -212.725 0.627 124.996
f 1041 1042 1043 1044
v -241.637 0.613 128.438
v -213.507 0.586 136.198
v -211.113 0.604 127.522
v -239.243 0.542 119.762
f 1045 1046 1047 1048
v -256.772 0.581 125.825
v -241.212 0.616 128.533
v -239.668 0.540 119.667
v -255.228 0.549 116.958
f 1049 1050 1051 1052
v -165.029 0.875 257.480
v -138.246 0.813 240.580
v -140.114 0.807 237.620
v -166.897 0.833 254.520
f 1053 1054 1055 1056
v -140.895 0.785 239.448
v -137.467 0.823 256.348
v -134.037 0.830 255.652
v -137.465 0.822 238.752
f 1057 1058 1059 1060
usemtl asphalt
