# Baked ultra-low Key West silhouette; generated by bake_key_west_far_city.py
mtllib far_city.mtl
usemtl massing
v -60.472 0.934 -62.506
v -42.018 0.934 -91.110
v -25.128 0.934 -80.214
v -43.582 0.934 -51.610
v -60.472 6.734 -62.506
v -42.018 6.734 -91.110
v -25.128 6.734 -80.214
v -43.582 6.734 -51.610
f 8 7 6 5
f 1 2 6 5
f 2 3 7 6
f 3 4 8 7
f 4 1 5 8
v 28.522 1.527 5.504
v 79.692 1.527 -5.260
v 90.298 1.527 45.156
v 39.128 1.527 55.920
v 28.522 9.827 5.504
v 79.692 9.827 -5.260
v 90.298 9.827 45.156
v 39.128 9.827 55.920
f 16 15 14 13
f 9 10 14 13
f 10 11 15 14
f 11 12 16 15
f 12 9 13 16
v 55.236 1.617 9.867
v 83.788 1.617 -34.916
v 111.344 1.617 -17.347
v 82.792 1.617 27.436
v 55.236 7.417 9.867
v 83.788 7.417 -34.916
v 111.344 7.417 -17.347
v 82.792 7.417 27.436
f 24 23 22 21
f 17 18 22 21
f 18 19 23 22
f 19 20 24 23
f 20 17 21 24
v -45.449 0.544 -65.660
v -12.639 0.544 -36.463
v -25.011 0.544 -22.560
v -57.821 0.544 -51.757
v -45.449 6.344 -65.660
v -12.639 6.344 -36.463
v -25.011 6.344 -22.560
v -57.821 6.344 -51.757
f 32 31 30 29
f 25 26 30 29
f 26 27 31 30
f 27 28 32 31
f 28 25 29 32
v -72.237 0.660 -109.675
v -47.747 0.660 -98.987
v -55.883 0.660 -80.345
v -80.373 0.660 -91.033
v -72.237 4.560 -109.675
v -47.747 4.560 -98.987
v -55.883 4.560 -80.345
v -80.373 4.560 -91.033
f 40 39 38 37
f 33 34 38 37
f 34 35 39 38
f 35 36 40 39
f 36 33 37 40
v -89.683 0.560 -139.365
v -41.950 0.560 -116.377
v -52.017 0.560 -95.475
v -99.750 0.560 -118.463
v -89.683 6.360 -139.365
v -41.950 6.360 -116.377
v -52.017 6.360 -95.475
v -99.750 6.360 -118.463
f 48 47 46 45
f 41 42 46 45
f 42 43 47 46
f 43 44 48 47
f 44 41 45 48
v -159.324 1.480 182.002
v -140.613 1.480 153.986
v -129.096 1.480 161.678
v -147.807 1.480 189.694
v -159.324 7.280 182.002
v -140.613 7.280 153.986
v -129.096 7.280 161.678
v -147.807 7.280 189.694
f 56 55 54 53
f 49 50 54 53
f 50 51 55 54
f 51 52 56 55
f 52 49 53 56
v 191.820 0.556 112.110
v 198.574 0.556 102.010
v 206.380 0.556 107.230
v 199.626 0.556 117.330
v 191.820 4.456 112.110
v 198.574 4.456 102.010
v 206.380 4.456 107.230
v 199.626 4.456 117.330
f 64 63 62 61
f 57 58 62 61
f 58 59 63 62
f 59 60 64 63
f 60 57 61 64
v 208.877 0.527 143.850
v 218.678 0.527 129.413
v 229.103 0.527 136.490
v 219.302 0.527 150.927
v 208.877 4.427 143.850
v 218.678 4.427 129.413
v 229.103 4.427 136.490
v 219.302 4.427 150.927
f 72 71 70 69
f 65 66 70 69
f 66 67 71 70
f 67 68 72 71
f 68 65 69 72
v 184.787 0.654 104.655
v 189.202 0.654 97.865
v 193.293 0.654 100.525
v 188.878 0.654 107.315
v 184.787 4.554 104.655
v 189.202 4.554 97.865
v 193.293 4.554 100.525
v 188.878 4.554 107.315
f 80 79 78 77
f 73 74 78 77
f 74 75 79 78
f 75 76 80 79
f 76 73 77 80
v 236.709 0.537 117.084
v 242.640 0.537 134.111
v 227.871 0.537 139.256
v 221.940 0.537 122.229
v 236.709 4.437 117.084
v 242.640 4.437 134.111
v 227.871 4.437 139.256
v 221.940 4.437 122.229
f 88 87 86 85
f 81 82 86 85
f 82 83 87 86
f 83 84 88 87
f 84 81 85 88
v 242.071 0.384 107.743
v 257.057 0.384 116.286
v 250.609 0.384 127.597
v 235.623 0.384 119.054
v 242.071 4.284 107.743
v 257.057 4.284 116.286
v 250.609 4.284 127.597
v 235.623 4.284 119.054
f 96 95 94 93
f 89 90 94 93
f 90 91 95 94
f 91 92 96 95
f 92 89 93 96
v 247.406 0.467 141.275
v 258.485 0.467 154.847
v 246.974 0.467 164.245
v 235.895 0.467 150.673
v 247.406 4.367 141.275
v 258.485 4.367 154.847
v 246.974 4.367 164.245
v 235.895 4.367 150.673
f 104 103 102 101
f 97 98 102 101
f 98 99 103 102
f 99 100 104 103
f 100 97 101 104
v 223.945 0.522 80.899
v 239.290 0.522 89.079
v 232.775 0.522 101.301
v 217.430 0.522 93.121
v 223.945 4.422 80.899
v 239.290 4.422 89.079
v 232.775 4.422 101.301
v 217.430 4.422 93.121
f 112 111 110 109
f 105 106 110 109
f 106 107 111 110
f 107 108 112 111
f 108 105 109 112
v 234.696 0.525 72.714
v 252.172 0.525 72.340
v 252.484 0.525 86.946
v 235.008 0.525 87.320
v 234.696 4.425 72.714
v 252.172 4.425 72.340
v 252.484 4.425 86.946
v 235.008 4.425 87.320
f 120 119 118 117
f 113 114 118 117
f 114 115 119 118
f 115 116 120 119
f 116 113 117 120
v 214.034 0.645 86.443
v 225.192 0.645 102.606
v 210.026 0.645 113.077
v 198.868 0.645 96.914
v 214.034 4.545 86.443
v 225.192 4.545 102.606
v 210.026 4.545 113.077
v 198.868 4.545 96.914
f 128 127 126 125
f 121 122 126 125
f 122 123 127 126
f 123 124 128 127
f 124 121 125 128
v 224.060 0.599 164.224
v 232.708 0.599 148.930
v 243.720 0.599 155.156
v 235.072 0.599 170.450
v 224.060 4.499 164.224
v 232.708 4.499 148.930
v 243.720 4.499 155.156
v 235.072 4.499 170.450
f 136 135 134 133
f 129 130 134 133
f 130 131 135 134
f 131 132 136 135
f 132 129 133 136
v 202.836 0.805 -133.053
v 235.725 0.805 -100.993
v 214.644 0.805 -79.367
v 181.755 0.805 -111.427
v 202.836 6.605 -133.053
v 235.725 6.605 -100.993
v 214.644 6.605 -79.367
v 181.755 6.605 -111.427
f 144 143 142 141
f 137 138 142 141
f 138 139 143 142
f 139 140 144 143
f 140 137 141 144
v -120.853 1.260 -242.981
v -90.553 1.260 -215.300
v -113.667 1.260 -189.999
v -143.967 1.260 -217.680
v -120.853 7.560 -242.981
v -90.553 7.560 -215.300
v -113.667 7.560 -189.999
v -143.967 7.560 -217.680
f 152 151 150 149
f 145 146 150 149
f 146 147 151 150
f 147 148 152 151
f 148 145 149 152
v -59.690 0.869 206.629
v -49.404 0.869 190.988
v -43.530 0.869 194.851
v -53.816 0.869 210.492
v -59.690 4.369 206.629
v -49.404 4.369 190.988
v -43.530 4.369 194.851
v -53.816 4.369 210.492
f 160 159 158 157
f 153 154 158 157
f 154 155 159 158
f 155 156 160 159
f 156 153 157 160
v -242.257 1.863 145.609
v -231.464 1.863 129.488
v -221.243 1.863 136.331
v -232.036 1.863 152.452
v -242.257 8.163 145.609
v -231.464 8.163 129.488
v -221.243 8.163 136.331
v -232.036 8.163 152.452
f 168 167 166 165
f 161 162 166 165
f 162 163 167 166
f 163 164 168 167
f 164 161 165 168
v -171.144 1.389 22.846
v -163.748 1.389 11.278
v -157.496 1.389 15.274
v -164.892 1.389 26.842
v -171.144 4.889 22.846
v -163.748 4.889 11.278
v -157.496 4.889 15.274
v -164.892 4.889 26.842
f 176 175 174 173
f 169 170 174 173
f 170 171 175 174
f 171 172 176 175
f 172 169 173 176
v -87.522 0.616 -17.729
v -61.612 0.616 0.202
v -68.538 0.616 10.209
v -94.448 0.616 -7.722
v -87.522 9.916 -17.729
v -61.612 9.916 0.202
v -68.538 9.916 10.209
v -94.448 9.916 -7.722
f 184 183 182 181
f 177 178 182 181
f 178 179 183 182
f 179 180 184 183
f 180 177 181 184
v -240.225 1.470 -116.127
v -231.574 1.470 -129.753
v -225.715 1.470 -126.033
v -234.366 1.470 -112.407
v -240.225 7.770 -116.127
v -231.574 7.770 -129.753
v -225.715 7.770 -126.033
v -234.366 7.770 -112.407
f 192 191 190 189
f 185 186 190 189
f 186 187 191 190
f 187 188 192 191
f 188 185 189 192
v 164.929 0.655 196.672
v 177.393 0.655 204.578
v 169.991 0.655 216.248
v 157.527 0.655 208.342
v 164.929 4.555 196.672
v 177.393 4.555 204.578
v 169.991 4.555 216.248
v 157.527 4.555 208.342
f 200 199 198 197
f 193 194 198 197
f 194 195 199 198
f 195 196 200 199
f 196 193 197 200
v -122.358 1.475 216.063
v -112.147 1.475 199.662
v -105.602 1.475 203.737
v -115.813 1.475 220.138
v -122.358 5.375 216.063
v -112.147 5.375 199.662
v -105.602 5.375 203.737
v -115.813 5.375 220.138
f 208 207 206 205
f 201 202 206 205
f 202 203 207 206
f 203 204 208 207
f 204 201 205 208
v 189.654 1.415 -5.171
v 234.879 1.415 13.922
v 220.006 1.415 49.151
v 174.781 1.415 30.058
v 189.654 9.715 -5.171
v 234.879 9.715 13.922
v 220.006 9.715 49.151
v 174.781 9.715 30.058
f 216 215 214 213
f 209 210 214 213
f 210 211 215 214
f 211 212 216 215
f 212 209 213 216
v 147.426 1.412 67.573
v 152.732 1.412 58.559
v 158.454 1.412 61.927
v 153.148 1.412 70.941
v 147.426 5.312 67.573
v 152.732 5.312 58.559
v 158.454 5.312 61.927
v 153.148 5.312 70.941
f 224 223 222 221
f 217 218 222 221
f 218 219 223 222
f 219 220 224 223
f 220 217 221 224
v 218.833 1.549 24.203
v 252.658 1.549 47.000
v 238.507 1.549 67.997
v 204.682 1.549 45.200
v 218.833 7.349 24.203
v 252.658 7.349 47.000
v 238.507 7.349 67.997
v 204.682 7.349 45.200
f 232 231 230 229
f 225 226 230 229
f 226 227 231 230
f 227 228 232 231
f 228 225 229 232
v 134.534 1.488 50.910
v 213.080 1.488 104.116
v 199.306 1.488 124.450
v 120.760 1.488 71.244
v 134.534 9.788 50.910
v 213.080 9.788 104.116
v 199.306 9.788 124.450
v 120.760 9.788 71.244
f 240 239 238 237
f 233 234 238 237
f 234 235 239 238
f 235 236 240 239
f 236 233 237 240
v 55.394 1.533 76.046
v 139.248 1.533 68.652
v 147.826 1.533 165.934
v 63.972 1.533 173.328
v 55.394 9.833 76.046
v 139.248 9.833 68.652
v 147.826 9.833 165.934
v 63.972 9.833 173.328
f 248 247 246 245
f 241 242 246 245
f 242 243 247 246
f 243 244 248 247
f 244 241 245 248
v 54.582 1.455 37.681
v 112.021 1.455 82.409
v 94.898 1.455 104.399
v 37.459 1.455 59.671
v 54.582 9.755 37.681
v 112.021 9.755 82.409
v 94.898 9.755 104.399
v 37.459 9.755 59.671
f 256 255 254 253
f 249 250 254 253
f 250 251 255 254
f 251 252 256 255
f 252 249 253 256
v 119.324 1.375 -45.733
v 237.419 1.375 38.504
v 222.576 1.375 59.313
v 104.481 1.375 -24.924
v 119.324 9.675 -45.733
v 237.419 9.675 38.504
v 222.576 9.675 59.313
v 104.481 9.675 -24.924
f 264 263 262 261
f 257 258 262 261
f 258 259 263 262
f 259 260 264 263
f 260 257 261 264
v -163.993 0.404 -257.341
v -151.528 0.404 -249.124
v -155.947 0.404 -242.419
v -168.412 0.404 -250.636
v -163.993 4.304 -257.341
v -151.528 4.304 -249.124
v -155.947 4.304 -242.419
v -168.412 4.304 -250.636
f 272 271 270 269
f 265 266 270 269
f 266 267 271 270
f 267 268 272 271
f 268 265 269 272
v -158.954 0.378 -249.016
v -145.687 0.378 -240.380
v -150.046 0.378 -233.684
v -163.313 0.378 -242.320
v -158.954 4.278 -249.016
v -145.687 4.278 -240.380
v -150.046 4.278 -233.684
v -163.313 4.278 -242.320
f 280 279 278 277
f 273 274 278 277
f 274 275 279 278
f 275 276 280 279
f 276 273 277 280
v -148.304 0.424 -246.010
v -132.063 0.424 -234.116
v -139.596 0.424 -223.830
v -155.837 0.424 -235.724
v -148.304 4.324 -246.010
v -132.063 4.324 -234.116
v -139.596 4.324 -223.830
v -155.837 4.324 -235.724
f 288 287 286 285
f 281 282 286 285
f 282 283 287 286
f 283 284 288 287
f 284 281 285 288
v -138.121 0.481 -250.047
v -127.568 0.481 -271.491
v -107.819 0.481 -261.773
v -118.372 0.481 -240.329
v -138.121 4.381 -250.047
v -127.568 4.381 -271.491
v -107.819 4.381 -261.773
v -118.372 4.381 -240.329
f 296 295 294 293
f 289 290 294 293
f 290 291 295 294
f 291 292 296 295
f 292 289 293 296
v -97.863 0.824 -205.770
v -80.834 0.824 -194.592
v -86.717 0.824 -185.630
v -103.746 0.824 -196.808
v -97.863 4.724 -205.770
v -80.834 4.724 -194.592
v -86.717 4.724 -185.630
v -103.746 4.724 -196.808
f 304 303 302 301
f 297 298 302 301
f 298 299 303 302
f 299 300 304 303
f 300 297 301 304
v -248.309 1.061 -230.797
v -241.270 1.061 -241.559
v -234.031 1.061 -236.823
v -241.070 1.061 -226.061
v -248.309 4.961 -230.797
v -241.270 4.961 -241.559
v -234.031 4.961 -236.823
v -241.070 4.961 -226.061
f 312 311 310 309
f 305 306 310 309
f 306 307 311 310
f 307 308 312 311
f 308 305 309 312
v -230.444 1.007 -218.667
v -222.805 1.007 -213.257
v -225.556 1.007 -209.373
v -233.195 1.007 -214.783
v -230.444 4.907 -218.667
v -222.805 4.907 -213.257
v -225.556 4.907 -209.373
v -233.195 4.907 -214.783
f 320 319 318 317
f 313 314 318 317
f 314 315 319 318
f 315 316 320 319
f 316 313 317 320
v -74.672 0.933 216.307
v -65.115 0.933 202.368
v -59.828 0.933 205.993
v -69.385 0.933 219.932
v -74.672 4.833 216.307
v -65.115 4.833 202.368
v -59.828 4.833 205.993
v -69.385 4.833 219.932
f 328 327 326 325
f 321 322 326 325
f 322 323 327 326
f 323 324 328 327
f 324 321 325 328
v -66.625 0.943 210.316
v -58.357 0.943 197.194
v -52.595 0.943 200.824
v -60.863 0.943 213.946
v -66.625 4.843 210.316
v -58.357 4.843 197.194
v -52.595 4.843 200.824
v -60.863 4.843 213.946
f 336 335 334 333
f 329 330 334 333
f 330 331 335 334
f 331 332 336 335
f 332 329 333 336
v -52.449 1.022 199.182
v -42.458 1.022 183.422
v -33.851 1.022 188.878
v -43.842 1.022 204.638
v -52.449 4.922 199.182
v -42.458 4.922 183.422
v -33.851 4.922 188.878
v -43.842 4.922 204.638
f 344 343 342 341
f 337 338 342 341
f 338 339 343 342
f 339 340 344 343
f 340 337 341 344
v -41.168 0.911 193.341
v -33.272 0.911 182.366
v -28.612 0.911 185.719
v -36.508 0.911 196.694
v -41.168 4.811 193.341
v -33.272 4.811 182.366
v -28.612 4.811 185.719
v -36.508 4.811 196.694
f 352 351 350 349
f 345 346 350 349
f 346 347 351 350
f 347 348 352 351
f 348 345 349 352
v -34.054 0.864 187.368
v -26.480 0.864 176.496
v -21.146 0.864 180.212
v -28.720 0.864 191.084
v -34.054 4.764 187.368
v -26.480 4.764 176.496
v -21.146 4.764 180.212
v -28.720 4.764 191.084
f 360 359 358 357
f 353 354 358 357
f 354 355 359 358
f 355 356 360 359
f 356 353 357 360
v -25.996 0.640 183.054
v -19.949 0.640 173.734
v -14.504 0.640 177.266
v -20.551 0.640 186.586
v -25.996 4.540 183.054
v -19.949 4.540 173.734
v -14.504 4.540 177.266
v -20.551 4.540 186.586
f 368 367 366 365
f 361 362 366 365
f 362 363 367 366
f 363 364 368 367
f 364 361 365 368
v -20.452 0.593 177.771
v -10.256 0.593 163.278
v -2.168 0.593 168.969
v -12.364 0.593 183.462
v -20.452 4.493 177.771
v -10.256 4.493 163.278
v -2.168 4.493 168.969
v -12.364 4.493 183.462
f 376 375 374 373
f 369 370 374 373
f 370 371 375 374
f 371 372 376 375
f 372 369 373 376
v -83.129 0.969 192.366
v -74.683 0.969 191.408
v -73.731 0.969 199.814
v -82.177 0.969 200.772
v -83.129 4.869 192.366
v -74.683 4.869 191.408
v -73.731 4.869 199.814
v -82.177 4.869 200.772
f 384 383 382 381
f 377 378 382 381
f 378 379 383 382
f 379 380 384 383
f 380 377 381 384
v -87.825 -0.129 175.105
v -69.693 -0.129 176.790
v -71.095 -0.129 191.875
v -89.227 -0.129 190.190
v -87.825 3.771 175.105
v -69.693 3.771 176.790
v -71.095 3.771 191.875
v -89.227 3.771 190.190
f 392 391 390 389
f 385 386 390 389
f 386 387 391 390
f 387 388 392 391
f 388 385 389 392
v -160.858 1.509 98.200
v -156.372 1.509 89.385
v -150.802 1.509 92.220
v -155.288 1.509 101.035
v -160.858 5.409 98.200
v -156.372 5.409 89.385
v -150.802 5.409 92.220
v -155.288 5.409 101.035
f 400 399 398 397
f 393 394 398 397
f 394 395 399 398
f 395 396 400 399
f 396 393 397 400
v 155.732 0.812 130.259
v 165.036 0.812 116.754
v 175.528 0.812 123.981
v 166.224 0.812 137.486
v 155.732 4.712 130.259
v 165.036 4.712 116.754
v 175.528 4.712 123.981
v 166.224 4.712 137.486
f 408 407 406 405
f 401 402 406 405
f 402 403 407 406
f 403 404 408 407
f 404 401 405 408
v 243.855 0.485 186.439
v 259.934 0.485 179.183
v 266.585 0.485 193.921
v 250.506 0.485 201.177
v 243.855 4.385 186.439
v 259.934 4.385 179.183
v 266.585 4.385 193.921
v 250.506 4.385 201.177
f 416 415 414 413
f 409 410 414 413
f 410 411 415 414
f 411 412 416 415
f 412 409 413 416
v 182.462 0.853 148.831
v 196.116 0.853 157.753
v 189.218 0.853 168.309
v 175.564 0.853 159.387
v 182.462 4.753 148.831
v 196.116 4.753 157.753
v 189.218 4.753 168.309
v 175.564 4.753 159.387
f 424 423 422 421
f 417 418 422 421
f 418 419 423 422
f 419 420 424 423
f 420 417 421 424
v 204.155 0.576 164.325
v 208.493 0.576 166.850
v 206.325 0.576 170.575
v 201.987 0.576 168.050
v 204.155 4.476 164.325
v 208.493 4.476 166.850
v 206.325 4.476 170.575
v 201.987 4.476 168.050
f 432 431 430 429
f 425 426 430 429
f 426 427 431 430
f 427 428 432 431
f 428 425 429 432
v 207.523 0.713 168.665
v 214.678 0.713 190.471
v 197.357 0.713 196.155
v 190.202 0.713 174.349
v 207.523 4.613 168.665
v 214.678 4.613 190.471
v 197.357 4.613 196.155
v 190.202 4.613 174.349
f 440 439 438 437
f 433 434 438 437
f 434 435 439 438
f 435 436 440 439
f 436 433 437 440
v 180.904 0.711 184.758
v 194.664 0.711 193.496
v 187.496 0.711 204.782
v 173.736 0.711 196.044
v 180.904 4.611 184.758
v 194.664 4.611 193.496
v 187.496 4.611 204.782
v 173.736 4.611 196.044
f 448 447 446 445
f 441 442 446 445
f 442 443 447 446
f 443 444 448 447
f 444 441 445 448
v 143.996 0.700 208.643
v 163.367 0.700 215.072
v 159.064 0.700 228.037
v 139.693 0.700 221.608
v 143.996 4.600 208.643
v 163.367 4.600 215.072
v 159.064 4.600 228.037
v 139.693 4.600 221.608
f 456 455 454 453
f 449 450 454 453
f 450 451 455 454
f 451 452 456 455
f 452 449 453 456
v 156.611 0.508 196.639
v 160.895 0.508 199.424
v 159.129 0.508 202.141
v 154.845 0.508 199.356
v 156.611 4.408 196.639
v 160.895 4.408 199.424
v 159.129 4.408 202.141
v 154.845 4.408 199.356
f 464 463 462 461
f 457 458 462 461
f 458 459 463 462
f 459 460 464 463
f 460 457 461 464
v 151.636 0.513 194.736
v 155.459 0.513 197.418
v 154.024 0.513 199.464
v 150.201 0.513 196.782
v 151.636 4.413 194.736
v 155.459 4.413 197.418
v 154.024 4.413 199.464
v 150.201 4.413 196.782
f 472 471 470 469
f 465 466 470 469
f 466 467 471 470
f 467 468 472 471
f 468 465 469 472
v 166.284 0.791 157.522
v 180.580 0.791 172.506
v 168.576 0.791 183.958
v 154.280 0.791 168.974
v 166.284 4.691 157.522
v 180.580 4.691 172.506
v 168.576 4.691 183.958
v 154.280 4.691 168.974
f 480 479 478 477
f 473 474 478 477
f 474 475 479 478
f 475 476 480 479
f 476 473 477 480
v 179.489 0.557 175.495
v 182.025 0.557 171.706
v 185.191 0.557 173.825
v 182.655 0.557 177.614
v 179.489 4.457 175.495
v 182.025 4.457 171.706
v 185.191 4.457 173.825
v 182.655 4.457 177.614
f 488 487 486 485
f 481 482 486 485
f 482 483 487 486
f 483 484 488 487
f 484 481 485 488
v 174.741 0.599 164.750
v 176.801 0.599 161.333
v 179.019 0.599 162.670
v 176.959 0.599 166.087
v 174.741 4.499 164.750
v 176.801 4.499 161.333
v 179.019 4.499 162.670
v 176.959 4.499 166.087
f 496 495 494 493
f 489 490 494 493
f 490 491 495 494
f 491 492 496 495
f 492 489 493 496
v 177.179 0.586 168.749
v 179.540 0.586 165.759
v 181.581 0.586 167.371
v 179.220 0.586 170.361
v 177.179 4.486 168.749
v 179.540 4.486 165.759
v 181.581 4.486 167.371
v 179.220 4.486 170.361
f 504 503 502 501
f 497 498 502 501
f 498 499 503 502
f 499 500 504 503
f 500 497 501 504
v 151.107 0.701 170.014
v 164.440 0.701 184.989
v 151.213 0.701 196.766
v 137.880 0.701 181.791
v 151.107 4.601 170.014
v 164.440 4.601 184.989
v 151.213 4.601 196.766
v 137.880 4.601 181.791
f 512 511 510 509
f 505 506 510 509
f 506 507 511 510
f 507 508 512 511
f 508 505 509 512
v 129.436 0.683 184.721
v 141.608 0.683 193.263
v 136.024 0.683 201.219
v 123.852 0.683 192.677
v 129.436 4.583 184.721
v 141.608 4.583 193.263
v 136.024 4.583 201.219
v 123.852 4.583 192.677
f 520 519 518 517
f 513 514 518 517
f 514 515 519 518
f 515 516 520 519
f 516 513 517 520
v 112.051 0.684 193.847
v 130.287 0.684 198.079
v 125.689 0.684 217.893
v 107.453 0.684 213.661
v 112.051 4.584 193.847
v 130.287 4.584 198.079
v 125.689 4.584 217.893
v 107.453 4.584 213.661
f 528 527 526 525
f 521 522 526 525
f 522 523 527 526
f 523 524 528 527
f 524 521 525 528
v 130.371 0.614 219.024
v 144.890 0.614 225.406
v 138.609 0.614 239.696
v 124.090 0.614 233.314
v 130.371 4.514 219.024
v 144.890 4.514 225.406
v 138.609 4.514 239.696
v 124.090 4.514 233.314
f 536 535 534 533
f 529 530 534 533
f 530 531 535 534
f 531 532 536 535
f 532 529 533 536
v 99.708 0.543 245.266
v 111.606 0.543 231.626
v 121.772 0.543 240.494
v 109.874 0.543 254.134
v 99.708 4.443 245.266
v 111.606 4.443 231.626
v 121.772 4.443 240.494
v 109.874 4.443 254.134
f 544 543 542 541
f 537 538 542 541
f 538 539 543 542
f 539 540 544 543
f 540 537 541 544
v 85.810 0.786 243.121
v 93.406 0.786 234.234
v 103.030 0.786 242.459
v 95.434 0.786 251.346
v 85.810 4.686 243.121
v 93.406 4.686 234.234
v 103.030 4.686 242.459
v 95.434 4.686 251.346
f 552 551 550 549
f 545 546 550 549
f 546 547 551 550
f 547 548 552 551
f 548 545 549 552
v 82.149 0.465 246.697
v 84.798 0.465 242.863
v 87.751 0.465 244.903
v 85.102 0.465 248.737
v 82.149 4.365 246.697
v 84.798 4.365 242.863
v 87.751 4.365 244.903
v 85.102 4.365 248.737
f 560 559 558 557
f 553 554 558 557
f 554 555 559 558
f 555 556 560 559
f 556 553 557 560
v 74.017 0.460 231.491
v 84.994 0.460 241.919
v 75.903 0.460 251.489
v 64.926 0.460 241.061
v 74.017 4.360 231.491
v 84.994 4.360 241.919
v 75.903 4.360 251.489
v 64.926 4.360 241.061
f 568 567 566 565
f 561 562 566 565
f 562 563 567 566
f 563 564 568 567
f 564 561 565 568
v 87.859 0.489 230.234
v 93.331 0.489 211.372
v 109.581 0.489 216.086
v 104.109 0.489 234.948
v 87.859 4.389 230.234
v 93.331 4.389 211.372
v 109.581 4.389 216.086
v 104.109 4.389 234.948
f 576 575 574 573
f 569 570 574 573
f 570 571 575 574
f 571 572 576 575
f 572 569 573 576
v 71.261 0.459 225.932
v 85.134 0.459 213.528
v 95.219 0.459 224.808
v 81.346 0.459 237.212
v 71.261 4.359 225.932
v 85.134 4.359 213.528
v 95.219 4.359 224.808
v 81.346 4.359 237.212
f 584 583 582 581
f 577 578 582 581
f 578 579 583 582
f 579 580 584 583
f 580 577 581 584
v 61.223 0.583 220.915
v 73.540 0.583 228.259
v 70.257 0.583 233.765
v 57.940 0.583 226.421
v 61.223 4.483 220.915
v 73.540 4.483 228.259
v 70.257 4.483 233.765
v 57.940 4.483 226.421
f 592 591 590 589
f 585 586 590 589
f 586 587 591 590
f 587 588 592 591
f 588 585 589 592
v 41.583 0.726 237.584
v 53.543 0.726 249.665
v 43.957 0.726 259.156
v 31.997 0.726 247.075
v 41.583 4.626 237.584
v 53.543 4.626 249.665
v 43.957 4.626 259.156
v 31.997 4.626 247.075
f 600 599 598 597
f 593 594 598 597
f 594 595 599 598
f 595 596 600 599
f 596 593 597 600
v 22.411 0.623 255.512
v 27.655 0.623 248.396
v 33.589 0.623 252.768
v 28.345 0.623 259.884
v 22.411 4.523 255.512
v 27.655 4.523 248.396
v 33.589 4.523 252.768
v 28.345 4.523 259.884
f 608 607 606 605
f 601 602 606 605
f 602 603 607 606
f 603 604 608 607
f 604 601 605 608
v -22.367 -0.300 -130.114
v -15.388 -0.300 -125.827
v -18.533 -0.300 -120.706
v -25.512 -0.300 -124.993
v -22.367 3.600 -130.114
v -15.388 3.600 -125.827
v -18.533 3.600 -120.706
v -25.512 3.600 -124.993
f 616 615 614 613
f 609 610 614 613
f 610 611 615 614
f 611 612 616 615
f 612 609 613 616
v -12.897 -0.300 -136.017
v -5.772 -0.300 -131.664
v -8.863 -0.300 -126.603
v -15.988 -0.300 -130.956
v -12.897 3.600 -136.017
v -5.772 3.600 -131.664
v -8.863 3.600 -126.603
v -15.988 3.600 -130.956
f 624 623 622 621
f 617 618 622 621
f 618 619 623 622
f 619 620 624 623
f 620 617 621 624
v -35.942 0.647 -128.238
v -29.848 0.647 -124.329
v -32.418 0.647 -120.322
v -38.512 0.647 -124.231
v -35.942 4.547 -128.238
v -29.848 4.547 -124.329
v -32.418 4.547 -120.322
v -38.512 4.547 -124.231
f 632 631 630 629
f 625 626 630 629
f 626 627 631 630
f 627 628 632 631
f 628 625 629 632
v -32.205 -0.300 -146.331
v -23.876 -0.300 -141.244
v -26.915 -0.300 -136.269
v -35.244 -0.300 -141.356
v -32.205 3.600 -146.331
v -23.876 3.600 -141.244
v -26.915 3.600 -136.269
v -35.244 3.600 -141.356
f 640 639 638 637
f 633 634 638 637
f 634 635 639 638
f 635 636 640 639
f 636 633 637 640
v -23.070 -0.300 -151.573
v -14.773 -0.300 -146.824
v -17.530 -0.300 -142.007
v -25.827 -0.300 -146.756
v -23.070 3.600 -151.573
v -14.773 3.600 -146.824
v -17.530 3.600 -142.007
v -25.827 3.600 -146.756
f 648 647 646 645
f 641 642 646 645
f 642 643 647 646
f 643 644 648 647
f 644 641 645 648
v -90.478 0.474 -150.256
v -74.911 0.474 -133.775
v -87.902 0.474 -121.504
v -103.469 0.474 -137.985
v -90.478 4.374 -150.256
v -74.911 4.374 -133.775
v -87.902 4.374 -121.504
v -103.469 4.374 -137.985
f 656 655 654 653
f 649 650 654 653
f 650 651 655 654
f 651 652 656 655
f 652 649 653 656
v -67.825 0.557 -178.091
v -55.964 0.557 -170.448
v -59.095 0.557 -165.589
v -70.956 0.557 -173.232
v -67.825 4.457 -178.091
v -55.964 4.457 -170.448
v -59.095 4.457 -165.589
v -70.956 4.457 -173.232
f 664 663 662 661
f 657 658 662 661
f 658 659 663 662
f 659 660 664 663
f 660 657 661 664
v -96.954 0.523 -181.509
v -71.796 0.523 -164.929
v -84.106 0.523 -146.251
v -109.264 0.523 -162.831
v -96.954 6.323 -181.509
v -71.796 6.323 -164.929
v -84.106 6.323 -146.251
v -109.264 6.323 -162.831
f 672 671 670 669
f 665 666 670 669
f 666 667 671 670
f 667 668 672 671
f 668 665 669 672
v -122.287 0.957 -171.064
v -120.578 0.957 -195.013
v -98.753 0.957 -193.456
v -100.462 0.957 -169.507
v -122.287 4.857 -171.064
v -120.578 4.857 -195.013
v -98.753 4.857 -193.456
v -100.462 4.857 -169.507
f 680 679 678 677
f 673 674 678 677
f 674 675 679 678
f 675 676 680 679
f 676 673 677 680
v -207.684 1.259 -238.983
v -187.342 1.259 -217.770
v -203.416 1.259 -202.357
v -223.758 1.259 -223.570
v -207.684 5.159 -238.983
v -187.342 5.159 -217.770
v -203.416 5.159 -202.357
v -223.758 5.159 -223.570
f 688 687 686 685
f 681 682 686 685
f 682 683 687 686
f 683 684 688 687
f 684 681 685 688
v -216.762 0.845 -258.705
v -200.755 0.845 -237.736
v -220.198 0.845 -222.895
v -236.205 0.845 -243.864
v -216.762 4.745 -258.705
v -200.755 4.745 -237.736
v -220.198 4.745 -222.895
v -236.205 4.745 -243.864
f 696 695 694 693
f 689 690 694 693
f 690 691 695 694
f 691 692 696 695
f 692 689 693 696
v -261.672 1.275 -187.891
v -247.271 1.275 -199.945
v -238.368 1.275 -189.309
v -252.769 1.275 -177.255
v -261.672 5.175 -187.891
v -247.271 5.175 -199.945
v -238.368 5.175 -189.309
v -252.769 5.175 -177.255
f 704 703 702 701
f 697 698 702 701
f 698 699 703 702
f 699 700 704 703
f 700 697 701 704
v 2.985 0.451 158.009
v 16.671 0.451 167.243
v 12.415 0.451 173.551
v -1.271 0.451 164.317
v 2.985 4.351 158.009
v 16.671 4.351 167.243
v 12.415 4.351 173.551
v -1.271 4.351 164.317
f 712 711 710 709
f 705 706 710 709
f 706 707 711 710
f 707 708 712 711
f 708 705 709 712
v -6.656 0.400 171.158
v -3.818 0.400 167.337
v -0.824 0.400 169.562
v -3.662 0.400 173.383
v -6.656 4.300 171.158
v -3.818 4.300 167.337
v -0.824 4.300 169.562
v -3.662 4.300 173.383
f 720 719 718 717
f 713 714 718 717
f 714 715 719 718
f 715 716 720 719
f 716 713 717 720
v -5.797 0.714 148.834
v 11.822 0.714 160.839
v 7.497 0.714 167.186
v -10.122 0.714 155.181
v -5.797 4.614 148.834
v 11.822 4.614 160.839
v 7.497 4.614 167.186
v -10.122 4.614 155.181
f 728 727 726 725
f 721 722 726 725
f 722 723 727 726
f 723 724 728 727
f 724 721 725 728
v -25.039 0.461 143.265
v -7.703 0.461 128.875
v 2.159 0.461 140.755
v -15.177 0.461 155.145
v -25.039 4.361 143.265
v -7.703 4.361 128.875
v 2.159 4.361 140.755
v -15.177 4.361 155.145
f 736 735 734 733
f 729 730 734 733
f 730 731 735 734
f 731 732 736 735
f 732 729 733 736
v -37.736 0.528 155.908
v -21.828 0.528 139.158
v -13.664 0.528 146.912
v -29.572 0.528 163.662
v -37.736 4.428 155.908
v -21.828 4.428 139.158
v -13.664 4.428 146.912
v -29.572 4.428 163.662
f 744 743 742 741
f 737 738 742 741
f 738 739 743 742
f 739 740 744 743
f 740 737 741 744
v -43.613 0.820 161.216
v -34.452 0.820 147.337
v -28.927 0.820 150.984
v -38.088 0.820 164.863
v -43.613 4.720 161.216
v -34.452 4.720 147.337
v -28.927 4.720 150.984
v -38.088 4.720 164.863
f 752 751 750 749
f 745 746 750 749
f 746 747 751 750
f 747 748 752 751
f 748 745 749 752
v -52.696 0.793 165.678
v -44.550 0.793 153.622
v -38.244 0.793 157.882
v -46.390 0.793 169.938
v -52.696 4.693 165.678
v -44.550 4.693 153.622
v -38.244 4.693 157.882
v -46.390 4.693 169.938
f 760 759 758 757
f 753 754 758 757
f 754 755 759 758
f 755 756 760 759
f 756 753 757 760
v -65.893 0.891 176.015
v -51.579 0.891 160.842
v -44.007 0.891 167.985
v -58.321 0.891 183.158
v -65.893 4.791 176.015
v -51.579 4.791 160.842
v -44.007 4.791 167.985
v -58.321 4.791 183.158
f 768 767 766 765
f 761 762 766 765
f 762 763 767 766
f 763 764 768 767
f 764 761 765 768
v -73.112 0.809 182.094
v -67.851 0.809 175.027
v -63.768 0.809 178.066
v -69.029 0.809 185.133
v -73.112 4.709 182.094
v -67.851 4.709 175.027
v -63.768 4.709 178.066
v -69.029 4.709 185.133
f 776 775 774 773
f 769 770 774 773
f 770 771 775 774
f 771 772 776 775
f 772 769 773 776
v -115.107 1.551 210.960
v -102.889 1.551 192.905
v -93.853 1.551 199.020
v -106.071 1.551 217.075
v -115.107 5.451 210.960
v -102.889 5.451 192.905
v -93.853 5.451 199.020
v -106.071 5.451 217.075
f 784 783 782 781
f 777 778 782 781
f 778 779 783 782
f 779 780 784 783
f 780 777 781 784
v -102.582 1.743 233.750
v -97.009 1.743 213.658
v -79.298 1.743 218.570
v -84.871 1.743 238.662
v -102.582 5.643 233.750
v -97.009 5.643 213.658
v -79.298 5.643 218.570
v -84.871 5.643 238.662
f 792 791 790 789
f 785 786 790 789
f 786 787 791 790
f 787 788 792 791
f 788 785 789 792
v -118.777 0.678 238.680
v -109.280 0.678 224.363
v -95.263 0.678 233.660
v -104.760 0.678 247.977
v -118.777 4.578 238.680
v -109.280 4.578 224.363
v -95.263 4.578 233.660
v -104.760 4.578 247.977
f 800 799 798 797
f 793 794 798 797
f 794 795 799 798
f 795 796 800 799
f 796 793 797 800
v -127.489 1.405 249.563
v -116.074 1.405 232.910
v -110.811 1.405 236.517
v -122.226 1.405 253.170
v -127.489 5.305 249.563
v -116.074 5.305 232.910
v -110.811 5.305 236.517
v -122.226 5.305 253.170
f 808 807 806 805
f 801 802 806 805
f 802 803 807 806
f 803 804 808 807
f 804 801 805 808
v -134.911 1.320 254.671
v -123.472 1.320 238.485
v -117.609 1.320 242.629
v -129.048 1.320 258.815
v -134.911 5.220 254.671
v -123.472 5.220 238.485
v -117.609 5.220 242.629
v -129.048 5.220 258.815
f 816 815 814 813
f 809 810 814 813
f 810 811 815 814
f 811 812 816 815
f 812 809 813 816
v -182.670 1.557 254.267
v -172.512 1.557 236.553
v -163.690 1.557 241.613
v -173.848 1.557 259.327
v -182.670 5.457 254.267
v -172.512 5.457 236.553
v -163.690 5.457 241.613
v -173.848 5.457 259.327
f 824 823 822 821
f 817 818 822 821
f 818 819 823 822
f 819 820 824 823
f 820 817 821 824
v -171.741 1.704 248.065
v -163.983 1.704 233.911
v -156.459 1.704 238.035
v -164.217 1.704 252.189
v -171.741 5.604 248.065
v -163.983 5.604 233.911
v -156.459 5.604 238.035
v -164.217 5.604 252.189
f 832 831 830 829
f 825 826 830 829
f 826 827 831 830
f 827 828 832 831
f 828 825 829 832
v -158.318 1.322 236.829
v -154.699 1.322 231.672
v -151.622 1.322 233.831
v -155.241 1.322 238.988
v -158.318 5.222 236.829
v -154.699 5.222 231.672
v -151.622 5.222 233.831
v -155.241 5.222 238.988
f 840 839 838 837
f 833 834 838 837
f 834 835 839 838
f 835 836 840 839
f 836 833 837 840
v -157.906 1.457 236.577
v -148.203 1.457 221.917
v -142.574 1.457 225.643
v -152.277 1.457 240.303
v -157.906 5.357 236.577
v -148.203 5.357 221.917
v -142.574 5.357 225.643
v -152.277 5.357 240.303
f 848 847 846 845
f 841 842 846 845
f 842 843 847 846
f 843 844 848 847
f 844 841 845 848
v -150.202 1.417 231.821
v -140.957 1.417 217.234
v -135.458 1.417 220.719
v -144.703 1.417 235.306
v -150.202 5.317 231.821
v -140.957 5.317 217.234
v -135.458 5.317 220.719
v -144.703 5.317 235.306
f 856 855 854 853
f 849 850 854 853
f 850 851 855 854
f 851 852 856 855
f 852 849 853 856
v -142.951 1.483 230.010
v -130.890 1.483 212.357
v -125.309 1.483 216.170
v -137.370 1.483 233.823
v -142.951 5.383 230.010
v -130.890 5.383 212.357
v -125.309 5.383 216.170
v -137.370 5.383 233.823
f 864 863 862 861
f 857 858 862 861
f 858 859 863 862
f 859 860 864 863
f 860 857 861 864
v -135.961 1.350 219.838
v -128.174 1.350 209.279
v -124.399 1.350 212.062
v -132.186 1.350 222.621
v -135.961 5.250 219.838
v -128.174 5.250 209.279
v -124.399 5.250 212.062
v -132.186 5.250 222.621
f 872 871 870 869
f 865 866 870 869
f 866 867 871 870
f 867 868 872 871
f 868 865 869 872
v -125.850 1.630 216.594
v -119.691 1.630 207.552
v -116.030 1.630 210.046
v -122.189 1.630 219.088
v -125.850 5.530 216.594
v -119.691 5.530 207.552
v -116.030 5.530 210.046
v -122.189 5.530 219.088
f 880 879 878 877
f 873 874 878 877
f 874 875 879 878
f 875 876 880 879
f 876 873 877 880
v 20.145 0.332 185.932
v 26.797 0.332 176.258
v 31.815 0.332 179.708
v 25.163 0.332 189.382
v 20.145 4.232 185.932
v 26.797 4.232 176.258
v 31.815 4.232 179.708
v 25.163 4.232 189.382
f 888 887 886 885
f 881 882 886 885
f 882 883 887 886
f 883 884 888 887
f 884 881 885 888
v 12.582 0.410 180.522
v 25.510 0.410 188.872
v 19.798 0.410 197.718
v 6.870 0.410 189.368
v 12.582 4.310 180.522
v 25.510 4.310 188.872
v 19.798 4.310 197.718
v 6.870 4.310 189.368
f 896 895 894 893
f 889 890 894 893
f 890 891 895 894
f 891 892 896 895
f 892 889 893 896
v 19.371 0.358 187.553
v 42.271 0.358 197.732
v 37.109 0.358 209.347
v 14.209 0.358 199.168
v 19.371 4.258 187.553
v 42.271 4.258 197.732
v 37.109 4.258 209.347
v 14.209 4.258 199.168
f 904 903 902 901
f 897 898 902 901
f 898 899 903 902
f 899 900 904 903
f 900 897 901 904
v 35.824 0.474 196.847
v 49.505 0.474 204.218
v 43.936 0.474 214.553
v 30.255 0.474 207.182
v 35.824 4.374 196.847
v 49.505 4.374 204.218
v 43.936 4.374 214.553
v 30.255 4.374 207.182
f 912 911 910 909
f 905 906 910 909
f 906 907 911 910
f 907 908 912 911
f 908 905 909 912
v 37.028 0.630 205.309
v 55.978 0.630 224.514
v 46.212 0.630 234.151
v 27.262 0.630 214.946
v 37.028 4.530 205.309
v 55.978 4.530 224.514
v 46.212 4.530 234.151
v 27.262 4.530 214.946
f 920 919 918 917
f 913 914 918 917
f 914 915 919 918
f 915 916 920 919
f 916 913 917 920
v 18.900 0.618 232.181
v 26.977 0.618 220.151
v 33.960 0.618 224.839
v 25.883 0.618 236.869
v 18.900 4.518 232.181
v 26.977 4.518 220.151
v 33.960 4.518 224.839
v 25.883 4.518 236.869
f 928 927 926 925
f 921 922 926 925
f 922 923 927 926
f 923 924 928 927
f 924 921 925 928
v -5.161 0.560 200.438
v 9.656 0.560 187.486
v 19.041 0.560 198.222
v 4.224 0.560 211.174
v -5.161 4.460 200.438
v 9.656 4.460 187.486
v 19.041 4.460 198.222
v 4.224 4.460 211.174
f 936 935 934 933
f 929 930 934 933
f 930 931 935 934
f 931 932 936 935
f 932 929 933 936
v 9.064 0.691 237.609
v 15.194 0.691 224.590
v 23.056 0.691 228.291
v 16.926 0.691 241.310
v 9.064 4.591 237.609
v 15.194 4.591 224.590
v 23.056 4.591 228.291
v 16.926 4.591 241.310
f 944 943 942 941
f 937 938 942 941
f 938 939 943 942
f 939 940 944 943
f 940 937 941 944
v -5.832 0.821 246.090
v 5.077 0.821 230.327
v 12.132 0.821 235.210
v 1.223 0.821 250.973
v -5.832 4.721 246.090
v 5.077 4.721 230.327
v 12.132 4.721 235.210
v 1.223 4.721 250.973
f 952 951 950 949
f 945 946 950 949
f 946 947 951 950
f 947 948 952 951
f 948 945 949 952
v -13.330 1.082 227.661
v -10.717 1.082 224.246
v -7.930 1.082 226.379
v -10.543 1.082 229.794
v -13.330 4.982 227.661
v -10.717 4.982 224.246
v -7.930 4.982 226.379
v -10.543 4.982 229.794
f 960 959 958 957
f 953 954 958 957
f 954 955 959 958
f 955 956 960 959
f 956 953 957 960
v -20.665 0.609 210.665
v -1.155 0.609 192.939
v 10.525 0.609 205.795
v -8.985 0.609 223.521
v -20.665 4.509 210.665
v -1.155 4.509 192.939
v 10.525 4.509 205.795
v -8.985 4.509 223.521
f 968 967 966 965
f 961 962 966 965
f 962 963 967 966
f 963 964 968 967
f 964 961 965 968
v -25.414 0.754 219.420
v -14.991 0.754 203.606
v -8.386 0.754 207.960
v -18.809 0.754 223.774
v -25.414 4.654 219.420
v -14.991 4.654 203.606
v -8.386 4.654 207.960
v -18.809 4.654 223.774
f 976 975 974 973
f 969 970 974 973
f 970 971 975 974
f 971 972 976 975
f 972 969 973 976
v -35.793 0.752 226.132
v -26.400 0.752 211.903
v -18.547 0.752 217.088
v -27.940 0.752 231.317
v -35.793 4.652 226.132
v -26.400 4.652 211.903
v -18.547 4.652 217.088
v -27.940 4.652 231.317
f 984 983 982 981
f 977 978 982 981
f 978 979 983 982
f 979 980 984 983
f 980 977 981 984
v -44.284 0.833 231.206
v -36.690 0.833 220.166
v -29.176 0.833 225.334
v -36.770 0.833 236.374
v -44.284 4.733 231.206
v -36.690 4.733 220.166
v -29.176 4.733 225.334
v -36.770 4.733 236.374
f 992 991 990 989
f 985 986 990 989
f 986 987 991 990
f 987 988 992 991
f 988 985 989 992
v -40.902 0.785 227.546
v -33.903 0.785 245.822
v -49.078 0.785 251.634
v -56.077 0.785 233.358
v -40.902 4.685 227.546
v -33.903 4.685 245.822
v -49.078 4.685 251.634
v -56.077 4.685 233.358
f 1000 999 998 997
f 993 994 998 997
f 994 995 999 998
f 995 996 1000 999
f 996 993 997 1000
v -38.978 1.015 249.138
v -32.658 1.015 253.008
v -34.982 1.015 256.802
v -41.302 1.015 252.932
v -38.978 4.915 249.138
v -32.658 4.915 253.008
v -34.982 4.915 256.802
v -41.302 4.915 252.932
f 1008 1007 1006 1005
f 1001 1002 1006 1005
f 1002 1003 1007 1006
f 1003 1004 1008 1007
f 1004 1001 1005 1008
v -21.832 0.930 258.898
v -12.392 0.930 244.833
v -6.688 0.930 248.662
v -16.128 0.930 262.727
v -21.832 7.230 258.898
v -12.392 7.230 244.833
v -6.688 7.230 248.662
v -16.128 7.230 262.727
f 1016 1015 1014 1013
f 1009 1010 1014 1013
f 1010 1011 1015 1014
f 1011 1012 1016 1015
f 1012 1009 1013 1016
v -12.956 0.655 252.690
v -3.028 0.655 238.792
v 2.456 0.655 242.710
v -7.472 0.655 256.608
v -12.956 4.555 252.690
v -3.028 4.555 238.792
v 2.456 4.555 242.710
v -7.472 4.555 256.608
f 1024 1023 1022 1021
f 1017 1018 1022 1021
f 1018 1019 1023 1022
f 1019 1020 1024 1023
f 1020 1017 1021 1024
v 168.074 0.539 232.346
v 182.065 0.539 245.713
v 172.166 0.539 256.074
v 158.175 0.539 242.707
v 168.074 4.439 232.346
v 182.065 4.439 245.713
v 172.166 4.439 256.074
v 158.175 4.439 242.707
f 1032 1031 1030 1029
f 1025 1026 1030 1029
f 1026 1027 1031 1030
f 1027 1028 1032 1031
f 1028 1025 1029 1032
v 199.110 0.440 252.087
v 212.655 0.440 240.507
v 222.850 0.440 252.433
v 209.305 0.440 264.013
v 199.110 4.340 252.087
v 212.655 4.340 240.507
v 222.850 4.340 252.433
v 209.305 4.340 264.013
f 1040 1039 1038 1037
f 1033 1034 1038 1037
f 1034 1035 1039 1038
f 1035 1036 1040 1039
f 1036 1033 1037 1040
v 183.629 0.629 223.164
v 199.241 0.629 231.630
v 192.091 0.629 244.816
v 176.479 0.629 236.350
v 183.629 4.529 223.164
v 199.241 4.529 231.630
v 192.091 4.529 244.816
v 176.479 4.529 236.350
f 1048 1047 1046 1045
f 1041 1042 1046 1045
f 1042 1043 1047 1046
f 1043 1044 1048 1047
f 1044 1041 1045 1048
v 197.188 0.757 212.317
v 214.092 0.757 217.732
v 208.912 0.757 233.903
v 192.008 0.757 228.488
v 197.188 4.657 212.317
v 214.092 4.657 217.732
v 208.912 4.657 233.903
v 192.008 4.657 228.488
f 1056 1055 1054 1053
f 1049 1050 1054 1053
f 1050 1051 1055 1054
f 1051 1052 1056 1055
f 1052 1049 1053 1056
v 222.002 0.504 228.565
v 226.990 0.504 225.088
v 230.438 0.504 230.035
v 225.450 0.504 233.512
v 222.002 4.404 228.565
v 226.990 4.404 225.088
v 230.438 4.404 230.035
v 225.450 4.404 233.512
f 1064 1063 1062 1061
f 1057 1058 1062 1061
f 1058 1059 1063 1062
f 1059 1060 1064 1063
f 1060 1057 1061 1064
v 213.714 0.378 237.976
v 237.971 0.378 229.131
v 244.466 0.378 246.944
v 220.209 0.378 255.789
v 213.714 4.278 237.976
v 237.971 4.278 229.131
v 244.466 4.278 246.944
v 220.209 4.278 255.789
f 1072 1071 1070 1069
f 1065 1066 1070 1069
f 1066 1067 1071 1070
f 1067 1068 1072 1071
f 1068 1065 1069 1072
v 231.441 0.428 236.052
v 239.479 0.428 222.206
v 250.679 0.428 228.708
v 242.641 0.428 242.554
v 231.441 4.328 236.052
v 239.479 4.328 222.206
v 250.679 4.328 228.708
v 242.641 4.328 242.554
f 1080 1079 1078 1077
f 1073 1074 1078 1077
f 1074 1075 1079 1078
f 1075 1076 1080 1079
f 1076 1073 1077 1080
v 205.996 0.600 223.094
v 221.805 0.600 210.217
v 229.144 0.600 219.226
v 213.335 0.600 232.103
v 205.996 4.500 223.094
v 221.805 4.500 210.217
v 229.144 4.500 219.226
v 213.335 4.500 232.103
f 1088 1087 1086 1085
f 1081 1082 1086 1085
f 1082 1083 1087 1086
f 1083 1084 1088 1087
f 1084 1081 1085 1088
v 211.318 0.574 214.532
v 217.409 0.574 199.014
v 233.802 0.574 205.448
v 227.711 0.574 220.966
v 211.318 4.474 214.532
v 217.409 4.474 199.014
v 233.802 4.474 205.448
v 227.711 4.474 220.966
f 1096 1095 1094 1093
f 1089 1090 1094 1093
f 1090 1091 1095 1094
f 1091 1092 1096 1095
f 1092 1089 1093 1096
v -82.999 1.267 260.055
v -68.503 1.267 241.420
v -59.781 1.267 248.205
v -74.277 1.267 266.840
v -82.999 5.167 260.055
v -68.503 5.167 241.420
v -59.781 5.167 248.205
v -74.277 5.167 266.840
f 1104 1103 1102 1101
f 1097 1098 1102 1101
f 1098 1099 1103 1102
f 1099 1100 1104 1103
f 1100 1097 1101 1104
v -241.138 1.432 210.528
v -229.575 1.432 217.800
v -233.142 1.432 223.472
v -244.705 1.432 216.200
v -241.138 5.332 210.528
v -229.575 5.332 217.800
v -233.142 5.332 223.472
v -244.705 5.332 216.200
f 1112 1111 1110 1109
f 1105 1106 1110 1109
f 1106 1107 1111 1110
f 1107 1108 1112 1111
f 1108 1105 1109 1112
v -241.179 1.583 216.613
v -219.397 1.583 228.067
v -224.741 1.583 238.227
v -246.523 1.583 226.773
v -241.179 5.483 216.613
v -219.397 5.483 228.067
v -224.741 5.483 238.227
v -246.523 5.483 226.773
f 1120 1119 1118 1117
f 1113 1114 1118 1117
f 1114 1115 1119 1118
f 1115 1116 1120 1119
f 1116 1113 1117 1120
v -233.210 1.556 233.969
v -215.406 1.556 230.008
v -211.890 1.556 245.811
v -229.694 1.556 249.772
v -233.210 5.456 233.969
v -215.406 5.456 230.008
v -211.890 5.456 245.811
v -229.694 5.456 249.772
f 1128 1127 1126 1125
f 1121 1122 1126 1125
f 1122 1123 1127 1126
f 1123 1124 1128 1127
f 1124 1121 1125 1128
v -258.484 1.358 239.270
v -255.808 1.358 235.058
v -252.736 1.358 237.010
v -255.412 1.358 241.222
v -258.484 5.258 239.270
v -255.808 5.258 235.058
v -252.736 5.258 237.010
v -255.412 5.258 241.222
f 1136 1135 1134 1133
f 1129 1130 1134 1133
f 1130 1131 1135 1134
f 1131 1132 1136 1135
f 1132 1129 1133 1136
v -261.905 1.197 38.498
v -250.927 1.197 25.453
v -241.815 1.197 33.122
v -252.793 1.197 46.167
v -261.905 5.097 38.498
v -250.927 5.097 25.453
v -241.815 5.097 33.122
v -252.793 5.097 46.167
f 1144 1143 1142 1141
f 1137 1138 1142 1141
f 1138 1139 1143 1142
f 1139 1140 1144 1143
f 1140 1137 1141 1144
v -258.280 1.598 -10.669
v -240.569 1.598 2.383
v -245.600 1.598 9.209
v -263.311 1.598 -3.843
v -258.280 5.498 -10.669
v -240.569 5.498 2.383
v -245.600 5.498 9.209
v -263.311 5.498 -3.843
f 1152 1151 1150 1149
f 1145 1146 1150 1149
f 1146 1147 1151 1150
f 1147 1148 1152 1151
f 1148 1145 1149 1152
v -255.814 1.687 2.351
v -229.026 1.687 -0.506
v -226.486 1.687 23.309
v -253.274 1.687 26.166
v -255.814 5.587 2.351
v -229.026 5.587 -0.506
v -226.486 5.587 23.309
v -253.274 5.587 26.166
f 1160 1159 1158 1157
f 1153 1154 1158 1157
f 1154 1155 1159 1158
f 1155 1156 1160 1159
f 1156 1153 1157 1160
v -234.847 1.713 19.399
v -219.266 1.713 28.471
v -224.233 1.713 37.001
v -239.814 1.713 27.929
v -234.847 5.613 19.399
v -219.266 5.613 28.471
v -224.233 5.613 37.001
v -239.814 5.613 27.929
f 1168 1167 1166 1165
f 1161 1162 1166 1165
f 1162 1163 1167 1166
f 1163 1164 1168 1167
f 1164 1161 1165 1168
v -220.851 2.232 74.375
v -209.591 2.232 56.306
v -200.349 2.232 62.065
v -211.609 2.232 80.134
v -220.851 6.132 74.375
v -209.591 6.132 56.306
v -200.349 6.132 62.065
v -211.609 6.132 80.134
f 1176 1175 1174 1173
f 1169 1170 1174 1173
f 1170 1171 1175 1174
f 1171 1172 1176 1175
f 1172 1169 1173 1176
v -213.350 1.550 33.808
v -207.755 1.550 37.037
v -210.130 1.550 41.152
v -215.725 1.550 37.923
v -213.350 5.450 33.808
v -207.755 5.450 37.037
v -210.130 5.450 41.152
v -215.725 5.450 37.923
f 1184 1183 1182 1181
f 1177 1178 1182 1181
f 1178 1179 1183 1182
f 1179 1180 1184 1183
f 1180 1177 1181 1184
v -220.667 1.550 48.541
v -214.789 1.550 40.574
v -207.273 1.550 46.119
v -213.151 1.550 54.086
v -220.667 5.450 48.541
v -214.789 5.450 40.574
v -207.273 5.450 46.119
v -213.151 5.450 54.086
f 1192 1191 1190 1189
f 1185 1186 1190 1189
f 1186 1187 1191 1190
f 1187 1188 1192 1191
f 1188 1185 1189 1192
v -263.037 1.528 105.247
v -254.785 1.528 95.884
v -248.783 1.528 101.173
v -257.035 1.528 110.536
v -263.037 5.428 105.247
v -254.785 5.428 95.884
v -248.783 5.428 101.173
v -257.035 5.428 110.536
f 1200 1199 1198 1197
f 1193 1194 1198 1197
f 1194 1195 1199 1198
f 1195 1196 1200 1199
f 1196 1193 1197 1200
v -256.277 1.439 106.177
v -255.871 1.439 81.861
v -238.983 1.439 82.143
v -239.389 1.439 106.459
v -256.277 5.339 106.177
v -255.871 5.339 81.861
v -238.983 5.339 82.143
v -239.389 5.339 106.459
f 1208 1207 1206 1205
f 1201 1202 1206 1205
f 1202 1203 1207 1206
f 1203 1204 1208 1207
f 1204 1201 1205 1208
v -251.398 1.504 86.683
v -232.550 1.504 68.198
v -220.822 1.504 80.157
v -239.670 1.504 98.642
v -251.398 5.404 86.683
v -232.550 5.404 68.198
v -220.822 5.404 80.157
v -239.670 5.404 98.642
f 1216 1215 1214 1213
f 1209 1210 1214 1213
f 1210 1211 1215 1214
f 1211 1212 1216 1215
f 1212 1209 1213 1216
v -229.142 1.323 84.579
v -220.319 1.323 71.605
v -212.678 1.323 76.801
v -221.501 1.323 89.775
v -229.142 5.223 84.579
v -220.319 5.223 71.605
v -212.678 5.223 76.801
v -221.501 5.223 89.775
f 1224 1223 1222 1221
f 1217 1218 1222 1221
f 1218 1219 1223 1222
f 1219 1220 1224 1223
f 1220 1217 1221 1224
v -227.641 1.446 64.746
v -220.913 1.446 68.945
v -223.639 1.446 73.314
v -230.367 1.446 69.115
v -227.641 5.346 64.746
v -220.913 5.346 68.945
v -223.639 5.346 73.314
v -230.367 5.346 69.115
f 1232 1231 1230 1229
f 1225 1226 1230 1229
f 1226 1227 1231 1230
f 1227 1228 1232 1231
f 1228 1225 1229 1232
v -197.044 1.860 23.081
v -181.514 1.860 24.759
v -183.176 1.860 40.139
v -198.706 1.860 38.461
v -197.044 5.760 23.081
v -181.514 5.760 24.759
v -183.176 5.760 40.139
v -198.706 5.760 38.461
f 1240 1239 1238 1237
f 1233 1234 1238 1237
f 1234 1235 1239 1238
f 1235 1236 1240 1239
f 1236 1233 1237 1240
v -182.459 1.636 14.312
v -173.873 1.636 19.400
v -178.441 1.636 27.108
v -187.027 1.636 22.020
v -182.459 5.536 14.312
v -173.873 5.536 19.400
v -178.441 5.536 27.108
v -187.027 5.536 22.020
f 1248 1247 1246 1245
f 1241 1242 1246 1245
f 1242 1243 1247 1246
f 1243 1244 1248 1247
f 1244 1241 1245 1248
v -188.524 1.860 61.121
v -178.303 1.860 40.584
v -166.056 1.860 46.679
v -176.277 1.860 67.216
v -188.524 5.760 61.121
v -178.303 5.760 40.584
v -166.056 5.760 46.679
v -176.277 5.760 67.216
f 1256 1255 1254 1253
f 1249 1250 1254 1253
f 1250 1251 1255 1254
f 1251 1252 1256 1255
f 1252 1249 1253 1256
v -179.007 0.736 37.811
v -175.875 0.736 39.724
v -177.673 0.736 42.669
v -180.805 0.736 40.756
v -179.007 4.636 37.811
v -175.875 4.636 39.724
v -177.673 4.636 42.669
v -180.805 4.636 40.756
f 1264 1263 1262 1261
f 1257 1258 1262 1261
f 1258 1259 1263 1262
f 1259 1260 1264 1263
f 1260 1257 1261 1264
v -176.754 1.926 54.235
v -163.969 1.926 35.056
v -159.426 1.926 38.085
v -172.211 1.926 57.264
v -176.754 5.826 54.235
v -163.969 5.826 35.056
v -159.426 5.826 38.085
v -172.211 5.826 57.264
f 1272 1271 1270 1269
f 1265 1266 1270 1269
f 1266 1267 1271 1270
f 1267 1268 1272 1271
f 1268 1265 1269 1272
v -166.071 1.684 48.582
v -157.268 1.684 37.035
v -152.489 1.684 40.678
v -161.292 1.684 52.225
v -166.071 5.584 48.582
v -157.268 5.584 37.035
v -152.489 5.584 40.678
v -161.292 5.584 52.225
f 1280 1279 1278 1277
f 1273 1274 1278 1277
f 1274 1275 1279 1278
f 1275 1276 1280 1279
f 1276 1273 1277 1280
v -159.021 1.608 43.696
v -150.743 1.608 31.730
v -143.119 1.608 37.004
v -151.397 1.608 48.970
v -159.021 5.508 43.696
v -150.743 5.508 31.730
v -143.119 5.508 37.004
v -151.397 5.508 48.970
f 1288 1287 1286 1285
f 1281 1282 1286 1285
f 1282 1283 1287 1286
f 1283 1284 1288 1287
f 1284 1281 1285 1288
v -149.428 1.483 37.078
v -141.644 1.483 25.563
v -134.072 1.483 30.682
v -141.856 1.483 42.197
v -149.428 5.383 37.078
v -141.644 5.383 25.563
v -134.072 5.383 30.682
v -141.856 5.383 42.197
f 1296 1295 1294 1293
f 1289 1290 1294 1293
f 1290 1291 1295 1294
f 1291 1292 1296 1295
f 1292 1289 1293 1296
v -140.687 1.181 31.075
v -132.206 1.181 18.124
v -124.233 1.181 23.345
v -132.714 1.181 36.296
v -140.687 5.081 31.075
v -132.206 5.081 18.124
v -124.233 5.081 23.345
v -132.714 5.081 36.296
f 1304 1303 1302 1301
f 1297 1298 1302 1301
f 1298 1299 1303 1302
f 1299 1300 1304 1303
f 1300 1297 1301 1304
v -130.764 0.961 24.222
v -122.132 0.961 12.497
v -114.796 0.961 17.898
v -123.428 0.961 29.623
v -130.764 4.861 24.222
v -122.132 4.861 12.497
v -114.796 4.861 17.898
v -123.428 4.861 29.623
f 1312 1311 1310 1309
f 1305 1306 1310 1309
f 1306 1307 1311 1310
f 1307 1308 1312 1311
f 1308 1305 1309 1312
v -163.315 1.468 15.454
v -158.574 1.468 2.080
v -148.065 1.468 5.806
v -152.806 1.468 19.180
v -163.315 5.368 15.454
v -158.574 5.368 2.080
v -148.065 5.368 5.806
v -152.806 5.368 19.180
f 1320 1319 1318 1317
f 1313 1314 1318 1317
f 1314 1315 1319 1318
f 1315 1316 1320 1319
f 1316 1313 1317 1320
v -146.805 1.196 2.135
v -142.373 1.196 -16.032
v -124.595 1.196 -11.695
v -129.027 1.196 6.472
v -146.805 5.096 2.135
v -142.373 5.096 -16.032
v -124.595 5.096 -11.695
v -129.027 5.096 6.472
f 1328 1327 1326 1325
f 1321 1322 1326 1325
f 1322 1323 1327 1326
f 1323 1324 1328 1327
f 1324 1321 1325 1328
v -214.624 0.765 -174.893
v -199.940 0.765 -190.584
v -184.256 0.765 -175.907
v -198.940 0.765 -160.216
v -214.624 4.665 -174.893
v -199.940 4.665 -190.584
v -184.256 4.665 -175.907
v -198.940 4.665 -160.216
f 1336 1335 1334 1333
f 1329 1330 1334 1333
f 1330 1331 1335 1334
f 1331 1332 1336 1335
f 1332 1329 1333 1336
v -196.538 0.833 -188.184
v -180.875 0.833 -203.072
v -165.442 0.833 -186.836
v -181.105 0.833 -171.948
v -196.538 4.733 -188.184
v -180.875 4.733 -203.072
v -165.442 4.733 -186.836
v -181.105 4.733 -171.948
f 1344 1343 1342 1341
f 1337 1338 1342 1341
f 1338 1339 1343 1342
f 1339 1340 1344 1343
f 1340 1337 1341 1344
v -201.764 0.745 -151.697
v -191.730 0.745 -168.113
v -174.076 0.745 -157.323
v -184.110 0.745 -140.907
v -201.764 4.645 -151.697
v -191.730 4.645 -168.113
v -174.076 4.645 -157.323
v -184.110 4.645 -140.907
f 1352 1351 1350 1349
f 1345 1346 1350 1349
f 1346 1347 1351 1350
f 1347 1348 1352 1351
f 1348 1345 1349 1352
v -183.668 0.695 -163.588
v -173.597 0.695 -180.333
v -155.772 0.695 -169.612
v -165.843 0.695 -152.867
v -183.668 4.595 -163.588
v -173.597 4.595 -180.333
v -155.772 4.595 -169.612
v -165.843 4.595 -152.867
f 1360 1359 1358 1357
f 1353 1354 1358 1357
f 1354 1355 1359 1358
f 1355 1356 1360 1359
f 1356 1353 1357 1360
v -185.464 1.008 -120.139
v -178.048 1.008 -130.559
v -168.076 1.008 -123.461
v -175.492 1.008 -113.041
v -185.464 4.908 -120.139
v -178.048 4.908 -130.559
v -168.076 4.908 -123.461
v -175.492 4.908 -113.041
f 1368 1367 1366 1365
f 1361 1362 1366 1365
f 1362 1363 1367 1366
f 1363 1364 1368 1367
f 1364 1361 1365 1368
v -171.506 1.035 -118.423
v -164.092 1.035 -113.464
v -167.134 1.035 -108.917
v -174.548 1.035 -113.876
v -171.506 4.935 -118.423
v -164.092 4.935 -113.464
v -167.134 4.935 -108.917
v -174.548 4.935 -113.876
f 1376 1375 1374 1373
f 1369 1370 1374 1373
f 1370 1371 1375 1374
f 1371 1372 1376 1375
f 1372 1369 1373 1376
v -171.137 1.426 -97.211
v -161.771 1.426 -111.506
v -152.863 1.426 -105.669
v -162.229 1.426 -91.374
v -171.137 5.326 -97.211
v -161.771 5.326 -111.506
v -152.863 5.326 -105.669
v -162.229 5.326 -91.374
f 1384 1383 1382 1381
f 1377 1378 1382 1381
f 1378 1379 1383 1382
f 1379 1380 1384 1383
f 1380 1377 1381 1384
v -151.728 0.844 -136.531
v -138.578 0.844 -123.193
v -147.792 0.844 -114.109
v -160.942 0.844 -127.447
v -151.728 4.744 -136.531
v -138.578 4.744 -123.193
v -147.792 4.744 -114.109
v -160.942 4.744 -127.447
f 1392 1391 1390 1389
f 1385 1386 1390 1389
f 1386 1387 1391 1390
f 1387 1388 1392 1391
f 1388 1385 1389 1392
v -159.275 1.087 -148.074
v -144.856 1.087 -140.219
v -151.205 1.087 -128.566
v -165.624 1.087 -136.421
v -159.275 4.987 -148.074
v -144.856 4.987 -140.219
v -151.205 4.987 -128.566
v -165.624 4.987 -136.421
f 1400 1399 1398 1397
f 1393 1394 1398 1397
f 1394 1395 1399 1398
f 1395 1396 1400 1399
f 1396 1393 1397 1400
v -130.896 1.111 -93.168
v -110.030 1.111 -80.597
v -118.684 1.111 -66.232
v -139.550 1.111 -78.803
v -130.896 5.011 -93.168
v -110.030 5.011 -80.597
v -118.684 5.011 -66.232
v -139.550 5.011 -78.803
f 1408 1407 1406 1405
f 1401 1402 1406 1405
f 1402 1403 1407 1406
f 1403 1404 1408 1407
f 1404 1401 1405 1408
v -99.739 0.534 -45.791
v -82.992 0.534 -34.265
v -88.441 0.534 -26.349
v -105.188 0.534 -37.875
v -99.739 4.434 -45.791
v -82.992 4.434 -34.265
v -88.441 4.434 -26.349
v -105.188 4.434 -37.875
f 1416 1415 1414 1413
f 1409 1410 1414 1413
f 1410 1411 1415 1414
f 1411 1412 1416 1415
f 1412 1409 1413 1416
v -94.039 1.043 -22.269
v -76.249 1.043 -29.956
v -69.021 1.043 -13.231
v -86.811 1.043 -5.544
v -94.039 4.943 -22.269
v -76.249 4.943 -29.956
v -69.021 4.943 -13.231
v -86.811 4.943 -5.544
f 1424 1423 1422 1421
f 1417 1418 1422 1421
f 1418 1419 1423 1422
f 1419 1420 1424 1423
f 1420 1417 1421 1424
v -105.471 0.707 10.481
v -99.322 0.707 0.351
v -92.389 0.707 4.559
v -98.538 0.707 14.689
v -105.471 4.607 10.481
v -99.322 4.607 0.351
v -92.389 4.607 4.559
v -98.538 4.607 14.689
f 1432 1431 1430 1429
f 1425 1426 1430 1429
f 1426 1427 1431 1430
f 1427 1428 1432 1431
f 1428 1425 1429 1432
v -153.746 1.073 -27.278
v -144.962 1.073 -44.283
v -138.494 1.073 -40.942
v -147.278 1.073 -23.937
v -153.746 4.973 -27.278
v -144.962 4.973 -44.283
v -138.494 4.973 -40.942
v -147.278 4.973 -23.937
f 1440 1439 1438 1437
f 1433 1434 1438 1437
f 1434 1435 1439 1438
f 1435 1436 1440 1439
f 1436 1433 1437 1440
v -164.932 1.426 -23.714
v -154.099 1.426 -39.030
v -147.788 1.426 -34.566
v -158.621 1.426 -19.250
v -164.932 5.326 -23.714
v -154.099 5.326 -39.030
v -147.788 5.326 -34.566
v -158.621 5.326 -19.250
f 1448 1447 1446 1445
f 1441 1442 1446 1445
f 1442 1443 1447 1446
f 1443 1444 1448 1447
f 1444 1441 1445 1448
v -172.249 1.178 -21.163
v -160.839 1.178 -31.846
v -153.751 1.178 -24.277
v -165.161 1.178 -13.594
v -172.249 5.078 -21.163
v -160.839 5.078 -31.846
v -153.751 5.078 -24.277
v -165.161 5.078 -13.594
f 1456 1455 1454 1453
f 1449 1450 1454 1453
f 1450 1451 1455 1454
f 1451 1452 1456 1455
f 1452 1449 1453 1456
v -183.394 1.477 -9.378
v -177.558 1.477 -21.983
v -167.966 1.477 -17.542
v -173.802 1.477 -4.937
v -183.394 5.377 -9.378
v -177.558 5.377 -21.983
v -167.966 5.377 -17.542
v -173.802 5.377 -4.937
f 1464 1463 1462 1461
f 1457 1458 1462 1461
f 1458 1459 1463 1462
f 1459 1460 1464 1463
f 1460 1457 1461 1464
v -192.315 2.309 -4.959
v -183.466 2.309 -17.928
v -176.685 2.309 -13.301
v -185.534 2.309 -0.332
v -192.315 6.209 -4.959
v -183.466 6.209 -17.928
v -176.685 6.209 -13.301
v -185.534 6.209 -0.332
f 1472 1471 1470 1469
f 1465 1466 1470 1469
f 1466 1467 1471 1470
f 1467 1468 1472 1471
f 1468 1465 1469 1472
v -199.003 2.184 0.992
v -190.091 2.184 -12.728
v -183.877 2.184 -8.692
v -192.789 2.184 5.028
v -199.003 6.084 0.992
v -190.091 6.084 -12.728
v -183.877 6.084 -8.692
v -192.789 6.084 5.028
f 1480 1479 1478 1477
f 1473 1474 1478 1477
f 1474 1475 1479 1478
f 1475 1476 1480 1479
f 1476 1473 1477 1480
v -205.881 1.652 6.727
v -196.930 1.652 -7.313
v -191.179 1.652 -3.647
v -200.130 1.652 10.393
v -205.881 5.552 6.727
v -196.930 5.552 -7.313
v -191.179 5.552 -3.647
v -200.130 5.552 10.393
f 1488 1487 1486 1485
f 1481 1482 1486 1485
f 1482 1483 1487 1486
f 1483 1484 1488 1487
f 1484 1481 1485 1488
v -215.587 1.605 11.142
v -205.459 1.605 -3.325
v -197.513 1.605 2.238
v -207.641 1.605 16.705
v -215.587 5.505 11.142
v -205.459 5.505 -3.325
v -197.513 5.505 2.238
v -207.641 5.505 16.705
f 1496 1495 1494 1493
f 1489 1490 1494 1493
f 1490 1491 1495 1494
f 1491 1492 1496 1495
f 1492 1489 1493 1496
v -237.657 2.217 -13.288
v -227.945 2.217 -27.180
v -214.143 2.217 -17.532
v -223.855 2.217 -3.640
v -237.657 6.117 -13.288
v -227.945 6.117 -27.180
v -214.143 6.117 -17.532
v -223.855 6.117 -3.640
f 1504 1503 1502 1501
f 1497 1498 1502 1501
f 1498 1499 1503 1502
f 1499 1500 1504 1503
f 1500 1497 1501 1504
v -219.008 1.871 -21.628
v -210.279 1.871 -33.962
v -200.712 1.871 -27.192
v -209.441 1.871 -14.858
v -219.008 5.771 -21.628
v -210.279 5.771 -33.962
v -200.712 5.771 -27.192
v -209.441 5.771 -14.858
f 1512 1511 1510 1509
f 1505 1506 1510 1509
f 1506 1507 1511 1510
f 1507 1508 1512 1511
f 1508 1505 1509 1512
v -207.660 1.626 -26.557
v -198.849 1.626 -40.032
v -193.300 1.626 -36.403
v -202.111 1.626 -22.928
v -207.660 5.526 -26.557
v -198.849 5.526 -40.032
v -193.300 5.526 -36.403
v -202.111 5.526 -22.928
f 1520 1519 1518 1517
f 1513 1514 1518 1517
f 1514 1515 1519 1518
f 1515 1516 1520 1519
f 1516 1513 1517 1520
v -202.910 1.532 -32.767
v -192.394 1.532 -48.291
v -184.190 1.532 -42.733
v -194.706 1.532 -27.209
v -202.910 5.432 -32.767
v -192.394 5.432 -48.291
v -184.190 5.432 -42.733
v -194.706 5.432 -27.209
f 1528 1527 1526 1525
f 1521 1522 1526 1525
f 1522 1523 1527 1526
f 1523 1524 1528 1527
f 1524 1521 1525 1528
v -191.212 1.912 -39.187
v -181.976 1.912 -51.858
v -175.988 1.912 -47.493
v -185.224 1.912 -34.822
v -191.212 5.812 -39.187
v -181.976 5.812 -51.858
v -175.988 5.812 -47.493
v -185.224 5.812 -34.822
f 1536 1535 1534 1533
f 1529 1530 1534 1533
f 1530 1531 1535 1534
f 1531 1532 1536 1535
f 1532 1529 1533 1536
v -176.201 1.466 -43.027
v -169.104 1.466 -62.078
v -157.119 1.466 -57.613
v -164.216 1.466 -38.562
v -176.201 5.366 -43.027
v -169.104 5.366 -62.078
v -157.119 5.366 -57.613
v -164.216 5.366 -38.562
f 1544 1543 1542 1541
f 1537 1538 1542 1541
f 1538 1539 1543 1542
f 1539 1540 1544 1543
f 1540 1537 1541 1544
v -189.535 1.480 -95.010
v -175.240 1.480 -87.452
v -182.125 1.480 -74.430
v -196.420 1.480 -81.988
v -189.535 5.380 -95.010
v -175.240 5.380 -87.452
v -182.125 5.380 -74.430
v -196.420 5.380 -81.988
f 1552 1551 1550 1549
f 1545 1546 1550 1549
f 1546 1547 1551 1550
f 1547 1548 1552 1551
f 1548 1545 1549 1552
v -196.478 1.609 -109.879
v -179.894 1.609 -96.529
v -187.902 1.609 -86.581
v -204.486 1.609 -99.931
v -196.478 5.509 -109.879
v -179.894 5.509 -96.529
v -187.902 5.509 -86.581
v -204.486 5.509 -99.931
f 1560 1559 1558 1557
f 1553 1554 1558 1557
f 1554 1555 1559 1558
f 1555 1556 1560 1559
f 1556 1553 1557 1560
v -202.573 1.627 -119.955
v -189.160 1.627 -114.580
v -193.847 1.627 -102.885
v -207.260 1.627 -108.260
v -202.573 5.527 -119.955
v -189.160 5.527 -114.580
v -193.847 5.527 -102.885
v -207.260 5.527 -108.260
f 1568 1567 1566 1565
f 1561 1562 1566 1565
f 1562 1563 1567 1566
f 1563 1564 1568 1567
f 1564 1561 1565 1568
v -225.753 1.486 -88.013
v -216.343 1.486 -102.051
v -211.027 1.486 -98.487
v -220.437 1.486 -84.449
v -225.753 5.386 -88.013
v -216.343 5.386 -102.051
v -211.027 5.386 -98.487
v -220.437 5.386 -84.449
f 1576 1575 1574 1573
f 1569 1570 1574 1573
f 1570 1571 1575 1574
f 1571 1572 1576 1575
f 1572 1569 1573 1576
v -233.297 1.451 -84.597
v -223.923 1.451 -98.718
v -217.483 1.451 -94.443
v -226.857 1.451 -80.322
v -233.297 5.351 -84.597
v -223.923 5.351 -98.718
v -217.483 5.351 -94.443
v -226.857 5.351 -80.322
f 1584 1583 1582 1581
f 1577 1578 1582 1581
f 1578 1579 1583 1582
f 1579 1580 1584 1583
f 1580 1577 1581 1584
v -241.172 1.610 -79.449
v -231.471 1.610 -93.239
v -225.148 1.610 -88.791
v -234.849 1.610 -75.001
v -241.172 5.510 -79.449
v -231.471 5.510 -93.239
v -225.148 5.510 -88.791
v -234.849 5.510 -75.001
f 1592 1591 1590 1589
f 1585 1586 1590 1589
f 1586 1587 1591 1590
f 1587 1588 1592 1591
f 1588 1585 1589 1592
v -246.258 1.424 -85.905
v -232.836 1.424 -75.902
v -240.562 1.424 -65.535
v -253.984 1.424 -75.538
v -246.258 5.324 -85.905
v -232.836 5.324 -75.902
v -240.562 5.324 -65.535
v -253.984 5.324 -75.538
f 1600 1599 1598 1597
f 1593 1594 1598 1597
f 1594 1595 1599 1598
f 1595 1596 1600 1599
f 1596 1593 1597 1600
v -262.900 1.644 -63.021
v -253.180 1.644 -77.041
v -247.320 1.644 -72.979
v -257.040 1.644 -58.959
v -262.900 5.544 -63.021
v -253.180 5.544 -77.041
v -247.320 5.544 -72.979
v -257.040 5.544 -58.959
f 1608 1607 1606 1605
f 1601 1602 1606 1605
f 1602 1603 1607 1606
f 1603 1604 1608 1607
f 1604 1601 1605 1608
v -259.854 1.675 -37.525
v -247.174 1.675 -56.953
v -240.926 1.675 -52.875
v -253.606 1.675 -33.447
v -259.854 5.575 -37.525
v -247.174 5.575 -56.953
v -240.926 5.575 -52.875
v -253.606 5.575 -33.447
f 1616 1615 1614 1613
f 1609 1610 1614 1613
f 1610 1611 1615 1614
f 1611 1612 1616 1615
f 1612 1609 1613 1616
v -247.051 1.760 -42.889
v -238.396 1.760 -55.262
v -232.349 1.760 -51.031
v -241.004 1.760 -38.658
v -247.051 5.660 -42.889
v -238.396 5.660 -55.262
v -232.349 5.660 -51.031
v -241.004 5.660 -38.658
f 1624 1623 1622 1621
f 1617 1618 1622 1621
f 1618 1619 1623 1622
f 1619 1620 1624 1623
f 1620 1617 1621 1624
v -241.381 1.754 -47.569
v -231.076 1.754 -63.376
v -225.179 1.754 -59.531
v -235.484 1.754 -43.724
v -241.381 5.654 -47.569
v -231.076 5.654 -63.376
v -225.179 5.654 -59.531
v -235.484 5.654 -43.724
f 1632 1631 1630 1629
f 1625 1626 1630 1629
f 1626 1627 1631 1630
f 1627 1628 1632 1631
f 1628 1625 1629 1632
v -233.209 1.565 -53.265
v -223.296 1.565 -67.553
v -217.331 1.565 -63.415
v -227.244 1.565 -49.127
v -233.209 5.465 -53.265
v -223.296 5.465 -67.553
v -217.331 5.465 -63.415
v -227.244 5.465 -49.127
f 1640 1639 1638 1637
f 1633 1634 1638 1637
f 1634 1635 1639 1638
f 1635 1636 1640 1639
f 1636 1633 1637 1640
v -227.284 1.486 -57.572
v -217.256 1.486 -71.914
v -210.896 1.486 -67.468
v -220.924 1.486 -53.126
v -227.284 5.386 -57.572
v -217.256 5.386 -71.914
v -210.896 5.386 -67.468
v -220.924 5.386 -53.126
f 1648 1647 1646 1645
f 1641 1642 1646 1645
f 1642 1643 1647 1646
f 1643 1644 1648 1647
f 1644 1641 1645 1648
v -217.588 1.480 -62.853
v -209.163 1.480 -76.125
v -202.392 1.480 -71.827
v -210.817 1.480 -58.555
v -217.588 5.380 -62.853
v -209.163 5.380 -76.125
v -202.392 5.380 -71.827
v -210.817 5.380 -58.555
f 1656 1655 1654 1653
f 1649 1650 1654 1653
f 1650 1651 1655 1654
f 1651 1652 1656 1655
f 1652 1649 1653 1656
v -212.360 1.416 -68.739
v -201.869 1.416 -83.660
v -195.300 1.416 -79.041
v -205.791 1.416 -64.120
v -212.360 5.316 -68.739
v -201.869 5.316 -83.660
v -195.300 5.316 -79.041
v -205.791 5.316 -64.120
f 1664 1663 1662 1661
f 1657 1658 1662 1661
f 1658 1659 1663 1662
f 1659 1660 1664 1663
f 1660 1657 1661 1664
v -202.253 1.378 -71.733
v -192.854 1.378 -85.123
v -187.787 1.378 -81.567
v -197.186 1.378 -68.177
v -202.253 5.278 -71.733
v -192.854 5.278 -85.123
v -187.787 5.278 -81.567
v -197.186 5.278 -68.177
f 1672 1671 1670 1669
f 1665 1666 1670 1669
f 1666 1667 1671 1670
f 1667 1668 1672 1671
f 1668 1665 1669 1672
v -214.549 1.063 -141.186
v -202.085 1.063 -133.317
v -206.431 1.063 -126.434
v -218.895 1.063 -134.303
v -214.549 4.963 -141.186
v -202.085 4.963 -133.317
v -206.431 4.963 -126.434
v -218.895 4.963 -134.303
f 1680 1679 1678 1677
f 1673 1674 1678 1677
f 1674 1675 1679 1678
f 1675 1676 1680 1679
f 1676 1673 1677 1680
v -216.548 1.608 -144.635
v -206.731 1.608 -138.800
v -209.152 1.608 -134.725
v -218.969 1.608 -140.560
v -216.548 5.508 -144.635
v -206.731 5.508 -138.800
v -209.152 5.508 -134.725
v -218.969 5.508 -140.560
f 1688 1687 1686 1685
f 1681 1682 1686 1685
f 1682 1683 1687 1686
f 1683 1684 1688 1687
f 1684 1681 1685 1688
v -222.973 1.459 -151.039
v -209.148 1.459 -143.430
v -212.147 1.459 -137.981
v -225.972 1.459 -145.590
v -222.973 5.359 -151.039
v -209.148 5.359 -143.430
v -212.147 5.359 -137.981
v -225.972 5.359 -145.590
f 1696 1695 1694 1693
f 1689 1690 1694 1693
f 1690 1691 1695 1694
f 1691 1692 1696 1695
f 1692 1689 1693 1696
v -231.014 1.250 -154.935
v -221.470 1.250 -170.584
v -215.306 1.250 -166.825
v -224.850 1.250 -151.176
v -231.014 5.150 -154.935
v -221.470 5.150 -170.584
v -215.306 5.150 -166.825
v -224.850 5.150 -151.176
f 1704 1703 1702 1701
f 1697 1698 1702 1701
f 1698 1699 1703 1702
f 1699 1700 1704 1703
f 1700 1697 1701 1704
v -239.372 1.418 -152.039
v -232.473 1.418 -163.057
v -226.668 1.418 -159.421
v -233.567 1.418 -148.403
v -239.372 5.318 -152.039
v -232.473 5.318 -163.057
v -226.668 5.318 -159.421
v -233.567 5.318 -148.403
f 1712 1711 1710 1709
f 1705 1706 1710 1709
f 1706 1707 1711 1710
f 1707 1708 1712 1711
f 1708 1705 1709 1712
v -246.550 1.523 -149.603
v -240.353 1.523 -159.112
v -235.510 1.523 -155.957
v -241.707 1.523 -146.448
v -246.550 5.423 -149.603
v -240.353 5.423 -159.112
v -235.510 5.423 -155.957
v -241.707 5.423 -146.448
f 1720 1719 1718 1717
f 1713 1714 1718 1717
f 1714 1715 1719 1718
f 1715 1716 1720 1719
f 1716 1713 1717 1720
v -258.174 1.260 -139.982
v -249.500 1.260 -153.616
v -244.286 1.260 -150.298
v -252.960 1.260 -136.664
v -258.174 5.160 -139.982
v -249.500 5.160 -153.616
v -244.286 5.160 -150.298
v -252.960 5.160 -136.664
f 1728 1727 1726 1725
f 1721 1722 1726 1725
f 1722 1723 1727 1726
f 1723 1724 1728 1727
f 1724 1721 1725 1728
v -244.565 1.661 -137.286
v -240.040 1.661 -134.125
v -241.975 1.661 -131.354
v -246.500 1.661 -134.515
v -244.565 5.561 -137.286
v -240.040 5.561 -134.125
v -241.975 5.561 -131.354
v -246.500 5.561 -134.515
f 1736 1735 1734 1733
f 1729 1730 1734 1733
f 1730 1731 1735 1734
f 1731 1732 1736 1735
f 1732 1729 1733 1736
v -234.312 1.449 -121.670
v -222.938 1.449 -137.926
v -216.768 1.449 -133.610
v -228.142 1.449 -117.354
v -234.312 5.349 -121.670
v -222.938 5.349 -137.926
v -216.768 5.349 -133.610
v -228.142 5.349 -117.354
f 1744 1743 1742 1741
f 1737 1738 1742 1741
f 1738 1739 1743 1742
f 1739 1740 1744 1743
f 1740 1737 1741 1744
v -255.503 1.538 -108.998
v -246.728 1.538 -121.665
v -236.157 1.538 -114.342
v -244.932 1.538 -101.675
v -255.503 5.438 -108.998
v -246.728 5.438 -121.665
v -236.157 5.438 -114.342
v -244.932 5.438 -101.675
f 1752 1751 1750 1749
f 1745 1746 1750 1749
f 1746 1747 1751 1750
f 1747 1748 1752 1751
f 1748 1745 1749 1752
usemtl road
v 254.458 0.630 89.309
v 192.768 0.640 131.083
v 195.852 0.588 135.637
v 257.542 0.653 93.863
f 1753 1754 1755 1756
v 192.782 0.640 131.073
v 187.812 0.611 134.393
v 190.868 0.534 138.967
v 195.838 0.588 135.647
f 1757 1758 1759 1760
v 187.814 0.611 134.392
v 106.214 0.639 188.832
v 109.266 0.657 193.408
v 190.866 0.534 138.968
f 1761 1762 1763 1764
v 106.220 0.639 188.828
v 98.590 0.646 193.888
v 101.630 0.679 198.472
v 109.260 0.657 193.412
f 1765 1766 1767 1768
v 98.569 0.646 193.902
v 95.449 0.627 196.012
v 98.531 0.700 200.568
v 101.651 0.679 198.458
f 1769 1770 1771 1772
v 95.449 0.627 196.012
v 92.019 0.676 198.332
v 95.101 0.754 202.888
v 98.531 0.700 200.568
f 1773 1774 1775 1776
v 92.023 0.676 198.329
v 64.273 0.948 217.029
v 67.347 0.978 221.591
v 95.097 0.754 202.891
f 1777 1778 1779 1780
v 64.266 0.948 217.034
v 48.466 0.988 227.754
v 51.554 0.984 232.306
v 67.354 0.978 221.586
f 1781 1782 1783 1784
v -258.324 1.369 -230.539
v -226.804 1.383 -180.720
v -222.156 1.347 -183.660
v -253.676 1.157 -233.480
f 1785 1786 1787 1788
v -226.847 1.384 -180.790
v -195.507 1.269 -127.820
v -190.773 1.189 -130.620
v -222.113 1.347 -183.590
f 1789 1790 1791 1792
v -195.534 1.270 -127.867
v -166.104 1.507 -75.787
v -161.316 1.502 -78.493
v -190.746 1.188 -130.573
f 1793 1794 1795 1796
v -166.085 1.506 -75.754
v -135.485 1.405 -23.324
v -130.735 1.314 -26.096
v -161.335 1.503 -78.526
f 1797 1798 1799 1800
v -135.481 1.405 -23.316
v -104.711 1.134 29.024
v -99.969 1.065 26.236
v -130.739 1.314 -26.104
f 1801 1802 1803 1804
v -6.206 0.676 114.439
v 27.654 0.806 166.539
v 32.266 0.849 163.541
v -1.594 0.617 111.441
f 1805 1806 1807 1808
v 27.666 0.806 166.556
v 52.446 0.850 204.056
v 57.034 0.882 201.024
v 32.254 0.849 163.524
f 1809 1810 1811 1812
v 52.445 0.850 204.055
v 63.515 0.972 220.825
v 68.105 0.955 217.795
v 57.035 0.882 201.025
f 1813 1814 1815 1816
v -182.099 0.648 -245.729
v -171.649 0.685 -229.929
v -165.811 0.642 -233.791
v -176.261 0.621 -249.591
f 1817 1818 1819 1820
v -171.716 0.685 -230.034
v -165.546 0.720 -219.944
v -159.574 0.650 -223.596
v -165.744 0.641 -233.686
f 1821 1822 1823 1824
v -165.676 0.720 -220.177
v -158.846 0.682 -206.817
v -152.614 0.619 -210.003
v -159.444 0.647 -223.363
f 1825 1826 1827 1828
v -158.847 0.682 -206.818
v -145.807 0.625 -181.278
v -139.573 0.621 -184.462
v -152.613 0.619 -210.002
f 1829 1830 1831 1832
v -145.807 0.625 -181.278
v -138.037 0.635 -166.068
v -131.803 0.640 -169.252
v -139.573 0.621 -184.462
f 1833 1834 1835 1836
v -138.041 0.635 -166.076
v -111.061 0.626 -112.906
v -104.819 0.627 -116.074
v -131.799 0.640 -169.244
f 1837 1838 1839 1840
v -111.057 0.626 -112.898
v -110.587 0.620 -111.978
v -104.353 0.633 -115.162
v -104.823 0.627 -116.082
f 1841 1842 1843 1844
v -110.543 0.620 -111.895
v -82.103 0.631 -59.715
v -75.957 0.573 -63.065
v -104.397 0.632 -115.245
f 1845 1846 1847 1848
v -82.033 0.632 -59.592
v -80.973 0.635 -57.822
v -74.967 0.559 -61.418
v -76.027 0.577 -63.188
f 1849 1850 1851 1852
v -80.966 0.635 -57.810
v -71.196 0.639 -41.640
v -65.204 0.541 -45.260
v -74.974 0.559 -61.430
f 1853 1854 1855 1856
v -71.196 0.639 -41.641
v -56.206 0.581 -16.821
v -50.214 0.505 -20.439
v -65.204 0.541 -45.259
f 1857 1858 1859 1860
v -56.204 0.581 -16.817
v -50.614 0.668 -7.587
v -44.626 0.715 -11.213
v -50.216 0.505 -20.443
f 1861 1862 1863 1864
v 94.706 0.692 199.821
v 129.416 0.749 251.611
v 133.984 0.761 248.549
v 99.274 0.653 196.759
f 1865 1866 1867 1868
v -66.440 1.301 230.416
v -98.940 1.226 177.756
v -103.620 1.243 180.644
v -71.120 1.302 233.304
f 1869 1870 1871 1872
v -246.603 1.935 -20.447
v -213.123 1.848 29.423
v -208.557 1.900 26.357
v -242.037 1.931 -23.513
f 1873 1874 1875 1876
v -213.113 1.848 29.438
v -178.683 1.689 79.988
v -174.137 1.657 76.892
v -208.567 1.900 26.342
f 1877 1878 1879 1880
v -80.574 0.674 -63.666
v -87.634 0.516 -58.876
v -84.546 0.529 -54.324
v -77.486 0.680 -59.114
f 1881 1882 1883 1884
v -87.634 0.516 -58.876
v -134.654 1.327 -26.986
v -131.566 1.340 -22.434
v -84.546 0.529 -54.324
f 1885 1886 1887 1888
v -134.651 1.327 -26.988
v -212.381 1.864 25.612
v -209.299 1.824 30.168
v -131.569 1.340 -22.432
f 1889 1890 1891 1892
v -212.385 1.864 25.615
v -257.545 1.849 56.298
v -254.455 1.846 60.847
v -209.295 1.824 30.165
f 1893 1894 1895 1896
v -136.427 0.674 -169.961
v -142.687 0.606 -165.861
v -139.673 0.616 -161.259
v -133.413 0.682 -165.359
f 1897 1898 1899 1900
v -142.696 0.606 -165.854
v -194.656 1.228 -131.514
v -191.624 1.190 -126.926
v -139.664 0.616 -161.266
f 1901 1902 1903 1904
v -194.679 1.228 -131.499
v -257.539 1.587 -89.058
v -254.461 1.563 -84.499
v -191.601 1.190 -126.941
f 1905 1906 1907 1908
v -50.412 0.597 -12.929
v -61.812 0.532 -3.909
v -56.228 0.523 3.149
v -44.828 0.661 -5.871
f 1909 1910 1911 1912
v -61.359 0.528 -4.224
v -81.789 0.735 8.206
v -77.111 0.748 15.894
v -56.681 0.533 3.464
f 1913 1914 1915 1916
v -81.982 0.738 8.330
v -104.872 1.064 23.910
v -99.808 1.063 31.350
v -76.918 0.746 15.770
f 1917 1918 1919 1920
v -104.886 1.064 23.919
v -175.016 1.672 72.029
v -169.924 1.622 79.451
v -99.794 1.062 31.341
f 1921 1922 1923 1924
v -175.014 1.672 72.028
v -178.954 1.664 74.728
v -173.866 1.661 82.152
v -169.926 1.622 79.452
f 1925 1926 1927 1928
v -178.931 1.664 74.713
v -258.521 1.740 128.548
v -253.479 1.737 136.003
v -173.889 1.662 82.167
f 1929 1930 1931 1932
v 28.419 0.801 162.762
v -70.321 1.294 229.582
v -67.239 1.315 234.138
v 31.501 0.807 167.318
f 1933 1934 1935 1936
v -164.041 0.695 -224.087
v -169.941 0.701 -220.317
v -166.979 0.753 -215.683
v -161.079 0.686 -219.453
f 1937 1938 1939 1940
v -169.941 0.701 -220.317
v -225.961 1.342 -184.507
v -222.999 1.310 -179.873
v -166.979 0.753 -215.683
f 1941 1942 1943 1944
v 130.206 0.741 254.460
v 133.266 0.748 252.340
v 130.134 0.767 247.820
v 127.074 0.722 249.940
f 1945 1946 1947 1948
v 133.223 0.747 252.370
v 230.153 0.638 187.880
v 227.107 0.653 183.300
v 130.177 0.768 247.790
f 1949 1950 1951 1952
v -44.126 0.632 -4.522
v -35.066 0.661 -11.012
v -42.054 0.690 -20.768
v -51.114 0.571 -14.278
f 1953 1954 1955 1956
v -35.223 0.661 -10.904
v 20.657 1.444 -48.304
v 13.983 1.448 -58.276
v -41.897 0.694 -20.876
f 1957 1958 1959 1960
v 20.302 0.615 94.386
v 19.872 0.450 88.856
v 14.888 0.464 89.244
v 15.318 0.544 94.774
f 1961 1962 1963 1964
v 19.454 0.431 87.655
v 18.694 0.418 86.525
v 14.546 0.471 89.315
v 15.306 0.478 90.445
f 1965 1966 1967 1968
v 18.702 0.418 86.536
v -10.588 0.473 42.486
v -14.752 0.571 45.254
v 14.538 0.471 89.304
f 1969 1970 1971 1972
v -10.588 0.473 42.486
v -38.278 0.529 0.826
v -42.442 0.615 3.594
v -14.752 0.571 45.254
f 1973 1974 1975 1976
v -38.240 0.529 0.885
v -45.500 0.710 -10.725
v -49.740 0.676 -8.075
v -42.480 0.615 3.535
f 1977 1978 1979 1980
v -251.605 1.830 165.976
v -228.155 1.819 200.486
v -223.605 1.781 197.394
v -247.055 1.790 162.884
f 1981 1982 1983 1984
v -228.154 1.819 200.486
v -203.804 1.733 236.316
v -199.256 1.699 233.224
v -223.606 1.781 197.394
f 1985 1986 1987 1988
v -203.804 1.733 236.317
v -197.994 1.789 244.857
v -193.446 1.781 241.763
v -199.256 1.699 233.223
f 1989 1990 1991 1992
v -124.388 1.397 192.807
v -197.238 1.805 241.017
v -194.202 1.787 245.603
v -121.352 1.380 197.393
f 1993 1994 1995 1996
v -102.762 1.256 177.187
v -124.352 1.397 193.087
v -121.388 1.356 197.113
v -99.798 1.185 181.213
f 1997 1998 1999 2000
v 15.382 0.530 93.289
v 12.282 0.540 99.119
v 17.138 0.589 101.701
v 20.238 0.636 95.871
f 2001 2002 2003 2004
v 13.175 0.543 98.128
v 4.655 0.546 103.858
v 7.725 0.613 108.422
v 16.245 0.598 102.692
f 2005 2006 2007 2008
v 4.653 0.546 103.860
v -5.437 0.646 110.660
v -2.363 0.636 115.220
v 7.727 0.613 108.420
f 2009 2010 2011 2012
v -5.483 0.647 110.691
v -10.953 0.704 114.541
v -7.787 0.667 119.039
v -2.317 0.635 115.189
f 2013 2014 2015 2016
v -10.915 0.704 114.515
v -102.825 1.254 176.925
v -99.735 1.187 181.475
v -7.825 0.668 119.065
f 2017 2018 2019 2020
v 142.919 0.844 -109.255
v 167.719 0.834 -115.745
v 164.681 0.869 -127.355
v 139.881 0.983 -120.865
f 2021 2022 2023 2024
v 167.716 0.834 -115.745
v 174.646 0.862 -117.555
v 171.614 0.898 -129.165
v 164.684 0.869 -127.355
f 2025 2026 2027 2028
v 174.759 0.863 -117.585
v 257.629 1.098 -140.968
v 254.371 1.233 -152.517
v 171.501 0.897 -129.135
f 2029 2030 2031 2032
v 258.246 0.541 222.768
v 230.876 0.649 184.004
v 226.384 0.669 187.176
v 253.754 0.518 225.940
f 2033 2034 2035 2036
v 230.928 0.648 184.079
v 228.818 0.628 180.869
v 224.222 0.586 183.891
v 226.332 0.670 187.101
f 2037 2038 2039 2040
v 228.818 0.628 180.870
v 199.348 0.582 136.030
v 194.752 0.535 139.050
v 224.222 0.586 183.890
f 2041 2042 2043 2044
v 199.350 0.582 136.032
v 196.610 0.632 131.852
v 192.010 0.608 134.868
v 194.750 0.535 139.048
f 2045 2046 2047 2048
v 196.572 0.633 131.797
v 193.822 0.602 127.817
v 189.298 0.624 130.943
v 192.048 0.607 134.923
f 2049 2050 2051 2052
v 193.823 0.602 127.817
v 179.993 0.688 107.787
v 175.467 0.726 110.913
v 189.297 0.624 130.943
f 2053 2054 2055 2056
v 38.868 1.549 -68.093
v 41.798 1.370 -60.163
v 45.082 1.363 -61.377
v 42.152 1.530 -69.307
f 2057 2058 2059 2060
v 41.944 1.365 -59.862
v 49.074 1.286 -48.122
v 52.066 1.374 -49.938
v 44.936 1.362 -61.678
f 2061 2062 2063 2064
v 48.862 1.281 -48.648
v 50.712 1.374 -40.388
v 54.128 1.437 -41.152
v 52.278 1.371 -49.412
f 2065 2066 2067 2068
v 50.698 1.368 -41.079
v 46.178 1.436 -15.899
v 49.622 1.515 -15.281
v 54.142 1.447 -40.461
f 2069 2070 2071 2072
v 46.411 1.433 -16.510
v 41.631 1.442 -8.770
v 44.609 1.556 -6.930
v 49.389 1.501 -14.670
f 2073 2074 2075 2076
v 42.179 1.441 -9.325
v 30.279 1.334 -1.735
v 32.161 1.387 1.215
v 44.061 1.560 -6.375
f 2077 2078 2079 2080
v 29.711 1.327 -1.146
v 25.301 1.412 6.364
v 28.319 1.436 8.136
v 32.729 1.394 0.626
f 2081 2082 2083 2084
v 25.072 1.416 7.044
v 23.692 1.410 18.704
v 27.168 1.400 19.116
v 28.548 1.431 7.456
f 2085 2086 2087 2088
v 23.882 1.402 19.726
v 33.842 1.412 38.626
v 36.938 1.446 36.994
v 26.978 1.404 18.094
f 2089 2090 2091 2092
v 34.036 1.415 38.919
v 40.016 1.506 46.219
v 42.724 1.552 44.001
v 36.744 1.445 36.701
f 2093 2094 2095 2096
v 40.016 1.506 46.219
v 48.866 1.552 57.029
v 51.574 1.603 54.811
v 42.724 1.552 44.001
f 2097 2098 2099 2100
v 50.183 1.555 57.670
v 57.283 1.563 57.820
v 57.357 1.618 54.320
v 50.257 1.599 54.170
f 2101 2102 2103 2104
v 58.304 1.551 57.517
v 79.234 1.484 43.277
v 77.266 1.570 40.383
v 56.336 1.628 54.623
f 2105 2106 2107 2108
v 79.250 1.484 43.266
v 110.640 1.601 21.416
v 108.640 1.611 18.544
v 77.250 1.570 40.394
f 2109 2110 2111 2112
v 111.221 1.602 20.731
v 113.621 1.646 15.681
v 110.459 1.601 14.179
v 108.059 1.614 19.229
f 2113 2114 2115 2116
v 113.750 1.647 14.557
v 110.970 1.700 1.817
v 107.550 1.618 2.563
v 110.330 1.609 15.303
f 2117 2118 2119 2120
v 110.882 1.700 1.533
v 107.392 1.399 -7.077
v 104.148 1.685 -5.763
v 107.638 1.616 2.847
f 2121 2122 2123 2124
v 107.230 1.392 -7.385
v 84.330 1.212 -42.035
v 81.410 1.621 -40.105
v 104.310 1.678 -5.455
f 2125 2126 2127 2128
v 83.656 1.263 -42.633
v 72.306 1.634 -48.343
v 70.734 1.581 -45.217
v 82.084 1.626 -39.507
f 2129 2130 2131 2132
v 72.702 1.637 -48.070
v 66.352 1.479 -53.890
v 63.988 1.507 -51.310
v 70.338 1.578 -45.490
f 2133 2134 2135 2136
v 66.633 1.489 -53.560
v 56.283 1.342 -69.330
v 53.357 1.340 -67.410
v 63.707 1.498 -51.640
f 2137 2138 2139 2140
v 56.287 1.342 -69.324
v 51.937 1.480 -76.014
v 49.003 1.478 -74.106
v 53.353 1.340 -67.416
f 2141 2142 2143 2144
v 171.693 0.922 -122.361
v 176.203 0.870 -115.871
v 179.077 0.912 -117.869
v 174.567 0.946 -124.359
f 2145 2146 2147 2148
v 176.134 0.869 -115.978
v 196.464 0.987 -81.648
v 199.476 0.985 -83.432
v 179.146 0.914 -117.762
f 2149 2150 2151 2152
v 196.551 0.982 -81.516
v 209.361 0.925 -63.776
v 212.199 0.926 -65.824
v 199.389 0.989 -83.564
f 2153 2154 2155 2156
v 209.974 0.908 -63.247
v 213.864 0.864 -61.227
v 215.476 0.925 -64.333
v 211.586 0.941 -66.353
f 2157 2158 2159 2160
v 214.916 0.873 -61.047
v 225.706 1.011 -62.577
v 225.214 1.033 -66.043
v 214.424 0.908 -64.513
f 2161 2162 2163 2164
v 226.000 1.010 -62.645
v 243.260 0.921 -68.245
v 242.180 0.972 -71.575
v 224.920 1.034 -65.975
f 2165 2166 2167 2168
v 40.211 1.495 43.799
v 34.681 1.448 48.689
v 36.999 1.478 51.311
v 42.529 1.527 46.421
f 2169 2170 2171 2172
v 34.158 1.447 49.517
v 32.918 1.435 53.837
v 36.282 1.478 54.803
v 37.522 1.493 50.483
f 2173 2174 2175 2176
v 32.915 1.428 54.794
v 34.245 1.391 59.524
v 37.615 1.430 58.576
v 36.285 1.480 53.846
f 2177 2178 2179 2180
v 34.504 1.384 60.064
v 40.634 1.301 68.684
v 43.486 1.355 66.656
v 37.356 1.434 58.036
f 2181 2182 2183 2184
v 43.119 1.358 69.063
v 58.379 1.550 57.463
v 56.261 1.627 54.677
v 41.001 1.317 66.277
f 2185 2186 2187 2188
v 82.653 1.886 -24.870
v 73.133 1.628 -47.460
v 69.907 1.572 -46.100
v 79.427 1.850 -23.510
f 2189 2190 2191 2192
v 95.137 1.819 -5.734
v 82.507 1.870 -25.144
v 79.573 1.861 -23.236
v 92.203 1.825 -3.826
f 2193 2194 2195 2196
v 111.111 1.606 19.031
v 95.141 1.818 -5.729
v 92.199 1.825 -3.831
v 108.169 1.602 20.929
f 2197 2198 2199 2200
v 149.532 1.771 148.826
v 114.082 1.611 173.076
v 116.058 1.533 175.964
v 151.508 1.694 151.714
f 2201 2202 2203 2204
v 114.965 1.633 172.773
v 106.675 1.083 173.273
v 106.885 0.833 176.767
v 115.175 1.550 176.267
f 2205 2206 2207 2208
v 106.183 1.030 173.375
v 104.473 0.882 173.995
v 105.667 0.796 177.285
v 107.377 0.875 176.665
f 2209 2210 2211 2212
v 104.462 0.882 173.999
v 98.602 0.951 176.169
v 99.818 0.904 179.451
v 105.678 0.796 177.281
f 2213 2214 2215 2216
v 60.312 1.055 152.283
v 87.512 1.047 192.343
v 90.408 1.054 190.377
v 63.208 1.081 150.317
f 2217 2218 2219 2220
v 71.462 1.160 194.934
v 46.632 0.973 156.294
v 43.688 0.948 158.186
v 68.518 1.121 196.826
f 2221 2222 2223 2224
v 55.728 0.858 203.985
v 61.038 1.014 200.355
v 59.062 1.016 197.465
v 53.752 0.867 201.095
f 2225 2226 2227 2228
v 61.032 1.014 200.358
v 64.172 1.108 198.228
v 62.208 1.114 195.332
v 59.068 1.016 197.462
f 2229 2230 2231 2232
v 63.420 1.105 198.515
v 70.220 1.095 197.615
v 69.760 1.169 194.145
v 62.960 1.123 195.045
f 2233 2234 2235 2236
v 69.503 1.097 197.561
v 75.193 1.018 199.211
v 76.167 1.090 195.849
v 70.477 1.177 194.199
f 2237 2238 2239 2240
v 75.865 1.018 199.270
v 80.755 0.979 198.750
v 80.385 1.076 195.270
v 75.495 1.096 195.790
f 2241 2242 2243 2244
v 81.548 0.967 198.462
v 89.938 0.950 192.812
v 87.982 1.075 189.908
v 79.592 1.077 195.558
f 2245 2246 2247 2248
v 89.940 0.950 192.810
v 103.150 0.765 183.880
v 101.190 0.848 180.980
v 87.980 1.075 189.910
f 2249 2250 2251 2252
v 103.644 0.789 181.486
v 100.684 0.888 176.866
v 97.736 0.998 178.754
v 100.696 0.846 183.374
f 2253 2254 2255 2256
v 100.684 0.888 176.866
v 91.124 0.950 161.936
v 88.176 0.995 163.824
v 97.736 0.998 178.754
f 2257 2258 2259 2260
v 91.123 0.950 161.935
v 83.123 1.023 149.475
v 80.177 1.052 151.365
v 88.177 0.995 163.825
f 2261 2262 2263 2264
v 82.533 1.021 148.909
v 79.233 1.016 146.979
v 77.467 1.068 150.001
v 80.767 1.049 151.931
f 2265 2266 2267 2268
v 78.725 1.021 146.781
v 74.985 1.028 145.961
v 74.235 1.089 149.379
v 77.975 1.065 150.199
f 2269 2270 2271 2272
v 74.432 1.025 145.929
v 70.622 1.017 146.319
v 70.978 1.108 149.801
v 74.788 1.087 149.411
f 2273 2274 2275 2276
v 70.210 1.016 146.413
v 61.170 1.034 149.653
v 62.350 1.080 152.947
v 71.390 1.103 149.707
f 2277 2278 2279 2280
v 61.170 1.034 149.652
v 44.570 0.954 155.592
v 45.750 0.971 158.888
v 62.350 1.080 152.948
f 2281 2282 2283 2284
v 44.573 0.954 155.591
v 37.133 0.985 158.241
v 38.307 1.017 161.539
v 45.747 0.971 158.889
f 2285 2286 2287 2288
v 36.749 0.983 158.434
v 35.789 0.971 159.074
v 37.731 1.018 161.986
v 38.691 1.019 161.346
f 2289 2290 2291 2292
v 35.793 0.971 159.072
v 28.993 0.804 163.582
v 30.927 0.813 166.498
v 37.727 1.018 161.988
f 2293 2294 2295 2296
v 48.130 1.043 141.981
v 29.230 1.038 112.701
v 26.290 1.062 114.599
v 45.190 1.100 143.879
f 2297 2298 2299 2300
v 29.492 1.029 113.401
v 28.752 1.069 108.261
v 25.288 0.990 108.759
v 26.028 1.058 113.899
f 2301 2302 2303 2304
v 28.644 1.078 109.162
v 30.704 1.020 104.032
v 27.456 0.968 102.728
v 25.396 0.976 107.858
f 2305 2306 2307 2308
v 30.357 1.030 104.577
v 35.327 0.933 99.277
v 32.773 0.838 96.883
v 27.803 0.962 102.183
f 2309 2310 2311 2312
v 19.776 0.630 97.201
v 16.146 1.020 118.141
v 19.594 1.158 118.739
v 23.224 0.816 97.799
f 2313 2314 2315 2316
v 16.130 1.020 118.630
v 17.030 1.111 126.890
v 20.510 1.199 126.510
v 19.610 1.154 118.250
f 2317 2318 2319 2320
v 17.143 1.110 127.344
v 21.153 1.076 137.484
v 24.407 1.124 136.196
v 20.397 1.196 126.056
f 2321 2322 2323 2324
v 21.522 1.078 138.056
v 26.392 1.035 143.096
v 28.908 1.097 140.664
v 24.038 1.128 135.624
f 2325 2326 2327 2328
v 26.724 1.027 143.365
v 31.054 1.036 146.065
v 32.906 1.079 143.095
v 28.576 1.100 140.395
f 2329 2330 2331 2332
v 31.589 1.040 146.286
v 36.569 1.077 147.426
v 37.351 1.100 144.014
v 32.371 1.081 142.874
f 2333 2334 2335 2336
v 37.158 1.080 147.459
v 42.248 1.114 146.879
v 41.852 1.125 143.401
v 36.762 1.096 143.981
f 2337 2338 2339 2340
v 42.807 1.113 146.718
v 47.417 1.069 144.508
v 45.903 1.091 141.352
v 41.293 1.126 143.562
f 2341 2342 2343 2344
v 47.894 1.060 144.171
v 51.514 0.996 140.571
v 49.046 1.048 138.089
v 45.426 1.098 141.689
f 2345 2346 2347 2348
v 51.855 1.000 140.092
v 54.075 1.010 135.502
v 50.925 1.048 133.978
v 48.705 1.052 138.568
f 2349 2350 2351 2352
v 54.239 1.007 134.936
v 54.809 1.018 129.886
v 51.331 1.050 129.494
v 50.761 1.048 134.544
f 2353 2354 2355 2356
v 54.775 1.021 129.295
v 53.625 1.037 124.325
v 50.215 1.078 125.115
v 51.365 1.048 130.085
f 2357 2358 2359 2360
v 53.412 1.037 123.806
v 42.932 1.016 106.706
v 39.948 1.030 108.534
v 50.428 1.076 125.634
f 2361 2362 2363 2364
v 42.931 1.016 106.704
v 39.281 0.988 100.764
v 36.299 0.979 102.596
v 39.949 1.030 108.536
f 2365 2366 2367 2368
v 39.004 0.980 100.419
v 35.264 0.859 96.819
v 32.836 0.909 99.341
v 36.576 0.983 102.941
f 2369 2370 2371 2372
v 34.131 0.830 96.332
v 21.581 0.678 95.752
v 21.419 0.746 99.248
v 33.969 0.930 99.828
f 2373 2374 2375 2376
v 64.934 1.305 -76.716
v 68.074 1.273 -78.376
v 62.466 1.508 -88.984
v 59.326 1.525 -87.324
f 2377 2378 2379 2380
v 68.068 1.273 -78.372
v 76.188 1.251 -82.652
v 70.592 1.450 -93.268
v 62.472 1.508 -88.988
f 2381 2382 2383 2384
v 76.117 1.250 -82.615
v 97.307 1.147 -93.425
v 91.853 1.335 -104.115
v 70.663 1.449 -93.305
f 2385 2386 2387 2388
v 96.701 1.157 -93.157
v 106.891 1.011 -97.007
v 102.649 1.296 -108.233
v 92.459 1.333 -104.383
f 2389 2390 2391 2392
v 106.896 1.011 -97.009
v 122.626 0.974 -102.969
v 118.374 1.201 -114.191
v 102.644 1.296 -108.231
f 2393 2394 2395 2396
v 122.277 0.972 -102.849
v 143.177 0.843 -109.329
v 139.623 0.986 -120.791
v 118.723 1.200 -114.311
f 2397 2398 2399 2400
v 19.811 1.441 -49.542
v 43.001 1.424 -64.952
v 38.019 1.587 -72.448
v 14.829 1.482 -57.038
f 2401 2402 2403 2404
v 42.932 1.424 -64.907
v 52.892 1.386 -71.267
v 48.048 1.540 -78.853
v 38.088 1.587 -72.493
f 2405 2406 2407 2408
v 52.776 1.386 -71.196
v 64.436 1.278 -78.156
v 59.824 1.507 -85.884
v 48.164 1.540 -78.924
f 2409 2410 2411 2412
v -242.767 1.921 -19.710
v -162.157 1.446 -74.870
v -165.263 1.512 -79.410
v -245.873 1.916 -24.250
f 2413 2414 2415 2416
v -162.215 1.446 -74.832
v -111.885 0.550 -107.432
v -114.875 0.586 -112.048
v -165.205 1.512 -79.448
f 2417 2418 2419 2420
v -111.884 0.550 -107.432
v -105.974 0.674 -111.262
v -108.966 0.685 -115.878
v -114.876 0.586 -112.048
f 2421 2422 2423 2424
v 100.697 0.846 183.374
v 106.267 0.657 192.064
v 109.213 0.663 190.176
v 103.643 0.789 181.486
f 2425 2426 2427 2428
v 255.532 1.022 -128.214
v 239.132 1.144 -123.666
v 240.068 1.134 -120.294
v 256.468 1.019 -124.842
f 2429 2430 2431 2432
v 103.178 1.182 -101.892
v 106.328 1.017 -95.002
v 109.512 0.988 -96.458
v 106.362 1.143 -103.348
f 2433 2434 2435 2436
v 106.319 1.017 -95.023
v 109.349 0.979 -88.163
v 112.551 0.966 -89.577
v 109.521 0.988 -96.437
f 2437 2438 2439 2440
v 109.354 0.979 -88.152
v 112.594 1.030 -80.952
v 115.786 0.989 -82.388
v 112.546 0.965 -89.588
f 2441 2442 2443 2444
v 113.149 1.034 -80.263
v 126.729 1.100 -70.213
v 128.811 1.080 -73.027
v 115.231 0.987 -83.077
f 2445 2446 2447 2448
v 126.152 1.097 -70.954
v 131.072 0.979 -59.004
v 134.308 1.016 -60.336
v 129.388 1.088 -72.286
f 2449 2450 2451 2452
v 132.934 0.976 -57.937
v 141.664 1.018 -59.167
v 141.176 1.035 -62.633
v 132.446 1.024 -61.403
f 2453 2454 2455 2456
v 141.218 1.018 -59.162
v 151.698 1.000 -57.942
v 152.102 1.014 -61.418
v 141.622 1.034 -62.638
f 2457 2458 2459 2460
v 150.151 1.006 -59.751
v 149.681 0.982 -48.111
v 153.179 0.961 -47.969
v 153.649 1.014 -59.609
f 2461 2462 2463 2464
v 149.899 0.979 -47.193
v 165.229 1.315 -19.473
v 168.291 1.310 -21.167
v 152.961 0.962 -48.887
f 2465 2466 2467 2468
v 167.732 1.340 -18.864
v 200.752 1.140 -40.904
v 198.808 1.026 -43.816
v 165.788 1.295 -21.776
f 2469 2470 2471 2472
v 128.294 1.104 -69.950
v 182.744 1.289 -87.040
v 181.696 1.277 -90.380
v 127.246 1.080 -73.290
f 2473 2474 2475 2476
v 183.805 1.304 -89.453
v 171.585 0.848 -115.523
v 168.415 0.858 -114.037
v 180.635 1.278 -87.967
f 2477 2478 2479 2480
v 171.526 0.847 -115.637
v 167.726 0.922 -122.407
v 164.674 0.895 -120.693
v 168.474 0.861 -113.923
f 2481 2482 2483 2484
v 114.665 1.022 -79.986
v 147.405 1.039 -89.216
v 146.455 1.040 -92.584
v 113.715 1.002 -83.354
f 2485 2486 2487 2488
v 152.480 1.002 -58.029
v 189.270 1.023 -70.949
v 188.110 1.021 -74.251
v 151.320 1.015 -61.331
f 2489 2490 2491 2492
v 187.047 1.023 -71.997
v 198.137 1.005 -41.757
v 201.423 1.104 -42.963
v 190.333 0.995 -73.203
f 2493 2494 2495 2496
v 130.959 0.993 -59.927
v 129.469 0.933 -49.877
v 132.931 0.894 -49.363
v 134.421 1.007 -59.413
f 2497 2498 2499 2500
v 129.572 0.933 -50.261
v 126.512 0.948 -42.491
v 129.768 0.941 -41.209
v 132.828 0.894 -48.979
f 2501 2502 2503 2504
v 126.679 0.946 -40.887
v 148.699 1.258 -7.467
v 151.621 1.258 -9.393
v 129.601 0.941 -42.813
f 2505 2506 2507 2508
v 151.179 1.260 -7.007
v 167.779 1.341 -18.897
v 165.741 1.295 -21.743
v 149.141 1.258 -9.853
f 2509 2510 2511 2512
v 110.147 0.950 -90.425
v 75.627 1.121 -72.595
v 77.233 1.266 -69.485
v 111.753 0.990 -87.315
f 2513 2514 2515 2516
v 77.712 1.165 -72.231
v 71.252 1.271 -79.181
v 68.688 1.189 -76.799
v 75.148 1.188 -69.849
f 2517 2518 2519 2520
v 71.319 1.268 -79.104
v 66.619 1.361 -84.794
v 63.921 1.382 -82.566
v 68.621 1.199 -76.876
f 2521 2522 2523 2524
v 74.995 1.177 -70.039
v 126.095 0.976 3.211
v 128.965 1.107 1.209
v 77.865 1.173 -72.041
f 2525 2526 2527 2528
v 126.818 0.982 3.809
v 131.828 1.040 6.039
v 133.252 1.046 2.841
v 128.242 1.068 0.611
f 2529 2530 2531 2532
v 133.572 1.053 5.853
v 151.192 1.260 -7.017
v 149.128 1.258 -9.843
v 131.508 1.013 3.027
f 2533 2534 2535 2536
v 180.596 1.278 -88.058
v 187.066 1.023 -71.948
v 190.314 0.995 -73.252
v 183.844 1.304 -89.362
f 2537 2538 2539 2540
v 104.690 1.098 -70.783
v 126.730 0.946 -40.813
v 129.550 0.942 -42.887
v 107.510 1.074 -72.857
f 2541 2542 2543 2544
v -250.391 1.842 163.038
v -255.061 1.798 166.598
v -252.939 1.846 169.382
v -248.269 1.861 165.822
f 2545 2546 2547 2548
v -255.270 2.053 217.396
v -246.650 2.017 213.441
v -248.110 2.048 210.259
v -256.730 2.068 214.215
f 2549 2550 2551 2552
v -246.474 2.026 213.347
v -229.824 1.772 203.267
v -231.636 1.817 200.273
v -248.286 2.048 210.353
f 2553 2554 2555 2556
v -229.848 1.772 203.282
v -224.998 1.875 200.452
v -226.762 1.896 197.428
v -231.612 1.817 200.258
f 2557 2558 2559 2560
v -67.299 0.607 -41.950
v -44.329 0.994 -55.740
v -46.131 1.142 -58.740
v -69.101 0.609 -44.950
f 2561 2562 2563 2564
v -56.624 1.126 -74.539
v -78.874 0.683 -61.119
v -77.066 0.686 -58.121
v -54.816 0.960 -71.541
f 2565 2566 2567 2568
v 22.586 0.719 96.128
v 18.896 0.562 93.208
v 16.724 0.542 95.952
v 20.414 0.666 98.872
f 2569 2570 2571 2572
v 22.827 0.844 98.640
v 31.977 0.540 87.990
v 29.323 0.541 85.710
v 20.173 0.639 96.360
f 2573 2574 2575 2576
v 31.917 0.539 88.057
v 38.927 0.919 80.697
v 36.393 0.879 78.283
v 29.383 0.543 85.643
f 2577 2578 2579 2580
v 39.393 0.902 79.732
v 39.803 0.899 76.792
v 36.337 0.967 76.308
v 35.927 0.840 79.248
f 2581 2582 2583 2584
v 39.666 0.884 77.267
v 43.656 1.363 68.387
v 40.464 1.298 66.953
v 36.474 0.997 75.833
f 2585 2586 2587 2588
v 38.338 0.916 81.103
v 41.168 0.964 79.913
v 39.812 0.907 76.687
v 36.982 0.902 77.877
f 2589 2590 2591 2592
v 41.529 0.961 79.708
v 46.709 1.013 75.888
v 44.631 0.940 73.072
v 39.451 0.897 76.892
f 2593 2594 2595 2596
v 46.649 1.012 75.931
v 95.439 1.204 43.011
v 93.481 1.148 40.109
v 44.691 0.936 73.029
f 2597 2598 2599 2600
v -141.830 0.673 -181.346
v -96.260 0.795 -207.046
v -97.980 0.799 -210.094
v -143.550 0.672 -184.394
f 2601 2602 2603 2604
v -95.489 0.808 -207.937
v -93.009 0.831 -214.327
v -96.271 0.838 -215.593
v -98.751 0.796 -209.203
f 2605 2606 2607 2608
v -93.094 0.829 -215.781
v -106.774 0.829 -241.551
v -109.866 0.861 -239.909
v -96.186 0.825 -214.139
f 2609 2610 2611 2612
v -109.230 0.852 -242.225
v -143.250 0.782 -221.525
v -141.430 0.832 -218.535
v -107.410 0.841 -239.235
f 2613 2614 2615 2616
v -143.884 0.788 -220.853
v -147.254 0.772 -214.533
v -144.166 0.807 -212.887
v -140.796 0.835 -219.207
f 2617 2618 2619 2620
v -146.528 0.786 -215.257
v -156.548 0.662 -209.957
v -154.912 0.666 -206.863
v -144.892 0.803 -212.163
f 2621 2622 2623 2624
usemtl asphalt
