# Baked ultra-low Key West silhouette; generated by bake_key_west_far_city.py
mtllib far_city.mtl
usemtl massing
v -4.852 0.994 128.065
v -3.244 0.994 158.202
v -28.608 0.994 159.555
v -30.216 0.994 129.418
v -4.852 4.894 128.065
v -3.244 4.894 158.202
v -28.608 4.894 159.555
v -30.216 4.894 129.418
f 8 7 6 5
f 1 2 6 5
f 2 3 7 6
f 3 4 8 7
f 4 1 5 8
v 192.278 3.073 184.374
v 196.447 3.073 183.957
v 196.862 3.073 188.106
v 192.693 3.073 188.523
v 192.278 6.973 184.374
v 196.447 6.973 183.957
v 196.862 6.973 188.106
v 192.693 6.973 188.523
f 16 15 14 13
f 9 10 14 13
f 10 11 15 14
f 11 12 16 15
f 12 9 13 16
v 151.992 2.611 176.533
v 167.636 2.611 178.445
v 166.848 2.611 184.887
v 151.204 2.611 182.975
v 151.992 6.511 176.533
v 167.636 6.511 178.445
v 166.848 6.511 184.887
v 151.204 6.511 182.975
f 24 23 22 21
f 17 18 22 21
f 18 19 23 22
f 19 20 24 23
f 20 17 21 24
v 153.584 0.801 169.161
v 182.372 0.801 133.682
v 199.696 0.801 147.739
v 170.908 0.801 183.218
v 153.584 6.601 169.161
v 182.372 6.601 133.682
v 199.696 6.601 147.739
v 170.908 6.601 183.218
f 32 31 30 29
f 25 26 30 29
f 26 27 31 30
f 27 28 32 31
f 28 25 29 32
v 160.050 0.857 167.942
v 164.000 0.857 171.579
v 160.410 0.857 175.478
v 156.460 0.857 171.841
v 160.050 4.757 167.942
v 164.000 4.757 171.579
v 160.410 4.757 175.478
v 156.460 4.757 171.841
f 40 39 38 37
f 33 34 38 37
f 34 35 39 38
f 35 36 40 39
f 36 33 37 40
v 106.469 1.029 173.229
v 115.477 1.029 172.753
v 115.951 1.029 181.711
v 106.943 1.029 182.187
v 106.469 4.929 173.229
v 115.477 4.929 172.753
v 115.951 4.929 181.711
v 106.943 4.929 182.187
f 48 47 46 45
f 41 42 46 45
f 42 43 47 46
f 43 44 48 47
f 44 41 45 48
v 94.984 1.104 -200.899
v 114.660 1.104 -187.490
v 107.716 1.104 -177.301
v 88.040 1.104 -190.710
v 94.984 4.604 -200.899
v 114.660 4.604 -187.490
v 107.716 4.604 -177.301
v 88.040 4.604 -190.710
f 56 55 54 53
f 49 50 54 53
f 50 51 55 54
f 51 52 56 55
f 52 49 53 56
v 217.163 0.250 -219.888
v 236.379 0.250 -206.960
v 227.197 0.250 -193.312
v 207.981 0.250 -206.240
v 217.163 6.550 -219.888
v 236.379 6.550 -206.960
v 227.197 6.550 -193.312
v 207.981 6.550 -206.240
f 64 63 62 61
f 57 58 62 61
f 58 59 63 62
f 59 60 64 63
f 60 57 61 64
v -179.539 1.287 11.096
v -161.300 1.287 25.369
v -169.841 1.287 36.284
v -188.080 1.287 22.011
v -179.539 7.587 11.096
v -161.300 7.587 25.369
v -169.841 7.587 36.284
v -188.080 7.587 22.011
f 72 71 70 69
f 65 66 70 69
f 66 67 71 70
f 67 68 72 71
f 68 65 69 72
v -208.691 1.113 26.389
v -183.071 1.113 34.148
v -189.529 1.113 55.471
v -215.149 1.113 47.712
v -208.691 4.613 26.389
v -183.071 4.613 34.148
v -189.529 4.613 55.471
v -215.149 4.613 47.712
f 80 79 78 77
f 73 74 78 77
f 74 75 79 78
f 75 76 80 79
f 76 73 77 80
v -164.265 1.272 89.762
v -138.329 1.272 105.524
v -146.955 1.272 119.718
v -172.891 1.272 103.956
v -164.265 4.772 89.762
v -138.329 4.772 105.524
v -146.955 4.772 119.718
v -172.891 4.772 103.956
f 88 87 86 85
f 81 82 86 85
f 82 83 87 86
f 83 84 88 87
f 84 81 85 88
v 245.264 0.474 -136.537
v 255.633 0.474 -149.717
v 260.836 0.474 -145.623
v 250.467 0.474 -132.443
v 245.264 3.974 -136.537
v 255.633 3.974 -149.717
v 260.836 3.974 -145.623
v 250.467 3.974 -132.443
f 96 95 94 93
f 89 90 94 93
f 90 91 95 94
f 91 92 96 95
f 92 89 93 96
v 239.312 0.728 -102.497
v 249.442 0.728 -117.109
v 256.288 0.728 -112.363
v 246.158 0.728 -97.751
v 239.312 7.028 -102.497
v 249.442 7.028 -117.109
v 256.288 7.028 -112.363
v 246.158 7.028 -97.751
f 104 103 102 101
f 97 98 102 101
f 98 99 103 102
f 99 100 104 103
f 100 97 101 104
v -188.999 0.817 -154.034
v -181.091 0.817 -166.580
v -171.201 0.817 -160.346
v -179.109 0.817 -147.800
v -188.999 4.717 -154.034
v -181.091 4.717 -166.580
v -171.201 4.717 -160.346
v -179.109 4.717 -147.800
f 112 111 110 109
f 105 106 110 109
f 106 107 111 110
f 107 108 112 111
f 108 105 109 112
v -218.178 1.260 -101.171
v -199.320 1.260 -89.628
v -208.942 1.260 -73.909
v -227.800 1.260 -85.452
v -218.178 5.160 -101.171
v -199.320 5.160 -89.628
v -208.942 5.160 -73.909
v -227.800 5.160 -85.452
f 120 119 118 117
f 113 114 118 117
f 114 115 119 118
f 115 116 120 119
f 116 113 117 120
v -56.258 0.728 34.922
v -45.489 0.728 19.682
v -35.362 0.728 26.838
v -46.131 0.728 42.078
v -56.258 4.628 34.922
v -45.489 4.628 19.682
v -35.362 4.628 26.838
v -46.131 4.628 42.078
f 128 127 126 125
f 121 122 126 125
f 122 123 127 126
f 123 124 128 127
f 124 121 125 128
v 229.013 0.646 -34.083
v 237.632 0.646 -44.277
v 247.567 0.646 -35.877
v 238.948 0.646 -25.683
v 229.013 4.546 -34.083
v 237.632 4.546 -44.277
v 247.567 4.546 -35.877
v 238.948 4.546 -25.683
f 136 135 134 133
f 129 130 134 133
f 130 131 135 134
f 131 132 136 135
f 132 129 133 136
v 4.068 1.570 177.372
v 16.488 1.570 177.489
v 16.372 1.570 189.828
v 3.952 1.570 189.711
v 4.068 5.470 177.372
v 16.488 5.470 177.489
v 16.372 5.470 189.828
v 3.952 5.470 189.711
f 144 143 142 141
f 137 138 142 141
f 138 139 143 142
f 139 140 144 143
f 140 137 141 144
v -36.326 1.610 177.703
v -23.937 1.610 177.178
v -23.414 1.610 189.497
v -35.803 1.610 190.022
v -36.326 5.510 177.703
v -23.937 5.510 177.178
v -23.414 5.510 189.497
v -35.803 5.510 190.022
f 152 151 150 149
f 145 146 150 149
f 146 147 151 150
f 147 148 152 151
f 148 145 149 152
v 220.341 0.839 -121.893
v 230.413 0.839 -140.321
v 240.759 0.839 -134.667
v 230.687 0.839 -116.239
v 220.341 4.739 -121.893
v 230.413 4.739 -140.321
v 240.759 4.739 -134.667
v 230.687 4.739 -116.239
f 160 159 158 157
f 153 154 158 157
f 154 155 159 158
f 155 156 160 159
f 156 153 157 160
v 237.879 0.432 -131.764
v 248.125 0.432 -146.697
v 253.781 0.432 -142.816
v 243.535 0.432 -127.883
v 237.879 4.332 -131.764
v 248.125 4.332 -146.697
v 253.781 4.332 -142.816
v 243.535 4.332 -127.883
f 168 167 166 165
f 161 162 166 165
f 162 163 167 166
f 163 164 168 167
f 164 161 165 168
v 183.428 1.372 -33.405
v 199.262 1.372 -56.704
v 213.372 1.372 -47.115
v 197.538 1.372 -23.816
v 183.428 7.172 -33.405
v 199.262 7.172 -56.704
v 213.372 7.172 -47.115
v 197.538 7.172 -23.816
f 176 175 174 173
f 169 170 174 173
f 170 171 175 174
f 171 172 176 175
f 172 169 173 176
v 180.282 0.463 -71.466
v 191.510 0.463 -64.025
v 184.478 0.463 -53.414
v 173.250 0.463 -60.855
v 180.282 4.363 -71.466
v 191.510 4.363 -64.025
v 184.478 4.363 -53.414
v 173.250 4.363 -60.855
f 184 183 182 181
f 177 178 182 181
f 178 179 183 182
f 179 180 184 183
f 180 177 181 184
v 217.400 0.576 -70.765
v 239.547 0.576 -67.989
v 237.360 0.576 -50.535
v 215.213 0.576 -53.311
v 217.400 4.476 -70.765
v 239.547 4.476 -67.989
v 237.360 4.476 -50.535
v 215.213 4.476 -53.311
f 192 191 190 189
f 185 186 190 189
f 186 187 191 190
f 187 188 192 191
f 188 185 189 192
v 158.755 0.767 -95.844
v 168.217 0.767 -90.022
v 163.045 0.767 -81.616
v 153.583 0.767 -87.438
v 158.755 4.667 -95.844
v 168.217 4.667 -90.022
v 163.045 4.667 -81.616
v 153.583 4.667 -87.438
f 200 199 198 197
f 193 194 198 197
f 194 195 199 198
f 195 196 200 199
f 196 193 197 200
v 136.514 0.847 -133.403
v 154.514 0.847 -127.576
v 148.746 0.847 -109.757
v 130.746 0.847 -115.584
v 136.514 4.747 -133.403
v 154.514 4.747 -127.576
v 148.746 4.747 -109.757
v 130.746 4.747 -115.584
f 208 207 206 205
f 201 202 206 205
f 202 203 207 206
f 203 204 208 207
f 204 201 205 208
v 154.481 0.569 -132.142
v 163.368 0.569 -144.560
v 174.859 0.569 -136.338
v 165.972 0.569 -123.920
v 154.481 4.469 -132.142
v 163.368 4.469 -144.560
v 174.859 4.469 -136.338
v 165.972 4.469 -123.920
f 216 215 214 213
f 209 210 214 213
f 210 211 215 214
f 211 212 216 215
f 212 209 213 216
v 124.171 0.654 -144.029
v 136.051 0.654 -136.033
v 131.109 0.654 -128.691
v 119.229 0.654 -136.687
v 124.171 4.554 -144.029
v 136.051 4.554 -136.033
v 131.109 4.554 -128.691
v 119.229 4.554 -136.687
f 224 223 222 221
f 217 218 222 221
f 218 219 223 222
f 219 220 224 223
f 220 217 221 224
v 133.139 0.263 -153.691
v 147.520 0.263 -173.217
v 160.621 0.263 -163.569
v 146.240 0.263 -144.043
v 133.139 4.163 -153.691
v 147.520 4.163 -173.217
v 160.621 4.163 -163.569
v 146.240 4.163 -144.043
f 232 231 230 229
f 225 226 230 229
f 226 227 231 230
f 227 228 232 231
f 228 225 229 232
v 195.323 0.446 -165.976
v 213.907 0.446 -153.082
v 207.317 0.446 -143.584
v 188.733 0.446 -156.478
v 195.323 4.346 -165.976
v 213.907 4.346 -153.082
v 207.317 4.346 -143.584
v 188.733 4.346 -156.478
f 240 239 238 237
f 233 234 238 237
f 234 235 239 238
f 235 236 240 239
f 236 233 237 240
v 192.341 0.670 -173.547
v 204.207 0.670 -164.669
v 200.079 0.670 -159.153
v 188.213 0.670 -168.031
v 192.341 4.570 -173.547
v 204.207 4.570 -164.669
v 200.079 4.570 -159.153
v 188.213 4.570 -168.031
f 248 247 246 245
f 241 242 246 245
f 242 243 247 246
f 243 244 248 247
f 244 241 245 248
v 174.662 0.691 -182.355
v 198.087 0.691 -167.741
v 193.498 0.691 -160.385
v 170.073 0.691 -174.999
v 174.662 4.591 -182.355
v 198.087 4.591 -167.741
v 193.498 4.591 -160.385
v 170.073 4.591 -174.999
f 256 255 254 253
f 249 250 254 253
f 250 251 255 254
f 251 252 256 255
f 252 249 253 256
v 175.710 0.878 -193.714
v 191.455 0.878 -183.478
v 185.830 0.878 -174.826
v 170.085 0.878 -185.062
v 175.710 4.778 -193.714
v 191.455 4.778 -183.478
v 185.830 4.778 -174.826
v 170.085 4.778 -185.062
f 264 263 262 261
f 257 258 262 261
f 258 259 263 262
f 259 260 264 263
f 260 257 261 264
v 128.236 0.047 -153.856
v 131.558 0.047 -157.985
v 135.064 0.047 -155.164
v 131.742 0.047 -151.035
v 128.236 3.947 -153.856
v 131.558 3.947 -157.985
v 135.064 3.947 -155.164
v 131.742 3.947 -151.035
f 272 271 270 269
f 265 266 270 269
f 266 267 271 270
f 267 268 272 271
f 268 265 269 272
v 229.977 0.498 -208.591
v 239.674 0.498 -230.008
v 254.823 0.498 -223.149
v 245.126 0.498 -201.732
v 229.977 4.398 -208.591
v 239.674 4.398 -230.008
v 254.823 4.398 -223.149
v 245.126 4.398 -201.732
f 280 279 278 277
f 273 274 278 277
f 274 275 279 278
f 275 276 280 279
f 276 273 277 280
v 252.064 0.404 -210.165
v 256.346 0.404 -206.825
v 254.076 0.404 -203.915
v 249.794 0.404 -207.255
v 252.064 4.304 -210.165
v 256.346 4.304 -206.825
v 254.076 4.304 -203.915
v 249.794 4.304 -207.255
f 288 287 286 285
f 281 282 286 285
f 282 283 287 286
f 283 284 288 287
f 284 281 285 288
v 229.079 0.605 -196.039
v 256.513 0.605 -194.272
v 255.301 0.605 -175.461
v 227.867 0.605 -177.228
v 229.079 4.505 -196.039
v 256.513 4.505 -194.272
v 255.301 4.505 -175.461
v 227.867 4.505 -177.228
f 296 295 294 293
f 289 290 294 293
f 290 291 295 294
f 291 292 296 295
f 292 289 293 296
v 221.420 0.630 -188.602
v 229.629 0.630 -184.723
v 226.800 0.630 -178.738
v 218.591 0.630 -182.617
v 221.420 4.530 -188.602
v 229.629 4.530 -184.723
v 226.800 4.530 -178.738
v 218.591 4.530 -182.617
f 304 303 302 301
f 297 298 302 301
f 298 299 303 302
f 299 300 304 303
f 300 297 301 304
v 139.739 0.793 -203.573
v 147.960 0.793 -217.485
v 163.121 0.793 -208.527
v 154.900 0.793 -194.615
v 139.739 4.693 -203.573
v 147.960 4.693 -217.485
v 163.121 4.693 -208.527
v 154.900 4.693 -194.615
f 312 311 310 309
f 305 306 310 309
f 306 307 311 310
f 307 308 312 311
f 308 305 309 312
v 117.143 0.644 -194.333
v 135.914 0.644 -204.632
v 143.697 0.644 -190.447
v 124.926 0.644 -180.148
v 117.143 4.544 -194.333
v 135.914 4.544 -204.632
v 143.697 4.544 -190.447
v 124.926 4.544 -180.148
f 320 319 318 317
f 313 314 318 317
f 314 315 319 318
f 315 316 320 319
f 316 313 317 320
v 105.418 0.985 -188.612
v 127.974 0.985 -174.532
v 121.842 0.985 -164.708
v 99.286 0.985 -178.788
v 105.418 4.885 -188.612
v 127.974 4.885 -174.532
v 121.842 4.885 -164.708
v 99.286 4.885 -178.788
f 328 327 326 325
f 321 322 326 325
f 322 323 327 326
f 323 324 328 327
f 324 321 325 328
v 205.994 0.804 -261.759
v 229.805 0.804 -269.409
v 236.586 0.804 -248.301
v 212.775 0.804 -240.651
v 205.994 4.704 -261.759
v 229.805 4.704 -269.409
v 236.586 4.704 -248.301
v 212.775 4.704 -240.651
f 336 335 334 333
f 329 330 334 333
f 330 331 335 334
f 331 332 336 335
f 332 329 333 336
v 191.172 0.912 -238.341
v 200.933 0.912 -256.493
v 217.808 0.912 -247.419
v 208.047 0.912 -229.267
v 191.172 4.812 -238.341
v 200.933 4.812 -256.493
v 217.808 4.812 -247.419
v 208.047 4.812 -229.267
f 344 343 342 341
f 337 338 342 341
f 338 339 343 342
f 339 340 344 343
f 340 337 341 344
v 174.225 0.722 -222.782
v 175.746 0.722 -243.336
v 198.135 0.722 -241.678
v 196.614 0.722 -221.124
v 174.225 4.622 -222.782
v 175.746 4.622 -243.336
v 198.135 4.622 -241.678
v 196.614 4.622 -221.124
f 352 351 350 349
f 345 346 350 349
f 346 347 351 350
f 347 348 352 351
f 348 345 349 352
v 157.021 1.000 -215.278
v 163.103 1.000 -228.836
v 181.679 1.000 -220.502
v 175.597 1.000 -206.944
v 157.021 4.900 -215.278
v 163.103 4.900 -228.836
v 181.679 4.900 -220.502
v 175.597 4.900 -206.944
f 360 359 358 357
f 353 354 358 357
f 354 355 359 358
f 355 356 360 359
f 356 353 357 360
v 164.609 0.503 -205.075
v 168.177 0.503 -209.948
v 172.251 0.503 -206.965
v 168.683 0.503 -202.092
v 164.609 4.403 -205.075
v 168.177 4.403 -209.948
v 172.251 4.403 -206.965
v 168.683 4.403 -202.092
f 368 367 366 365
f 361 362 366 365
f 362 363 367 366
f 363 364 368 367
f 364 361 365 368
v 181.156 0.963 -266.195
v 184.097 0.963 -242.759
v 161.524 0.963 -239.925
v 158.583 0.963 -263.361
v 181.156 4.863 -266.195
v 184.097 4.863 -242.759
v 161.524 4.863 -239.925
v 158.583 4.863 -263.361
f 376 375 374 373
f 369 370 374 373
f 370 371 375 374
f 371 372 376 375
f 372 369 373 376
v 141.543 0.594 -232.557
v 147.200 0.594 -252.459
v 167.237 0.594 -246.763
v 161.580 0.594 -226.861
v 141.543 4.494 -232.557
v 147.200 4.494 -252.459
v 167.237 4.494 -246.763
v 161.580 4.494 -226.861
f 384 383 382 381
f 377 378 382 381
f 378 379 383 382
f 379 380 384 383
f 380 377 381 384
v 121.666 0.738 -218.812
v 126.748 0.738 -242.370
v 149.934 0.738 -237.368
v 144.852 0.738 -213.810
v 121.666 4.638 -218.812
v 126.748 4.638 -242.370
v 149.934 4.638 -237.368
v 144.852 4.638 -213.810
f 392 391 390 389
f 385 386 390 389
f 386 387 391 390
f 387 388 392 391
f 388 385 389 392
v 106.034 0.935 -214.361
v 120.357 0.935 -225.735
v 129.486 0.935 -214.239
v 115.163 0.935 -202.865
v 106.034 4.835 -214.361
v 120.357 4.835 -225.735
v 129.486 4.835 -214.239
v 115.163 4.835 -202.865
f 400 399 398 397
f 393 394 398 397
f 394 395 399 398
f 395 396 400 399
f 396 393 397 400
v 125.534 0.500 -212.062
v 129.495 0.500 -218.099
v 132.606 0.500 -216.058
v 128.645 0.500 -210.021
v 125.534 4.400 -212.062
v 129.495 4.400 -218.099
v 132.606 4.400 -216.058
v 128.645 4.400 -210.021
f 408 407 406 405
f 401 402 406 405
f 402 403 407 406
f 403 404 408 407
f 404 401 405 408
v 103.081 0.856 -212.330
v 111.037 0.856 -207.670
v 107.979 0.856 -202.450
v 100.023 0.856 -207.110
v 103.081 4.756 -212.330
v 111.037 4.756 -207.670
v 107.979 4.756 -202.450
v 100.023 4.756 -207.110
f 416 415 414 413
f 409 410 414 413
f 410 411 415 414
f 411 412 416 415
f 412 409 413 416
v 78.140 0.887 -192.599
v 82.445 0.887 -208.972
v 97.320 0.887 -205.061
v 93.015 0.887 -188.688
v 78.140 4.787 -192.599
v 82.445 4.787 -208.972
v 97.320 4.787 -205.061
v 93.015 4.787 -188.688
f 424 423 422 421
f 417 418 422 421
f 418 419 423 422
f 419 420 424 423
f 420 417 421 424
v 60.045 0.956 -143.723
v 79.333 0.956 -153.819
v 87.175 0.956 -138.837
v 67.887 0.956 -128.741
v 60.045 4.856 -143.723
v 79.333 4.856 -153.819
v 87.175 4.856 -138.837
v 67.887 4.856 -128.741
f 432 431 430 429
f 425 426 430 429
f 426 427 431 430
f 427 428 432 431
f 428 425 429 432
v 69.611 0.718 -156.361
v 73.938 0.718 -162.078
v 79.249 0.718 -158.059
v 74.922 0.718 -152.342
v 69.611 4.618 -156.361
v 73.938 4.618 -162.078
v 79.249 4.618 -158.059
v 74.922 4.618 -152.342
f 440 439 438 437
f 433 434 438 437
f 434 435 439 438
f 435 436 440 439
f 436 433 437 440
v 33.911 0.954 -173.468
v 72.234 0.954 -165.317
v 67.149 0.954 -141.412
v 28.826 0.954 -149.563
v 33.911 6.754 -173.468
v 72.234 6.754 -165.317
v 67.149 6.754 -141.412
v 28.826 6.754 -149.563
f 448 447 446 445
f 441 442 446 445
f 442 443 447 446
f 443 444 448 447
f 444 441 445 448
v 56.792 1.273 -146.622
v 70.739 1.273 -129.751
v 55.408 1.273 -117.078
v 41.461 1.273 -133.949
v 56.792 5.173 -146.622
v 70.739 5.173 -129.751
v 55.408 5.173 -117.078
v 41.461 5.173 -133.949
f 456 455 454 453
f 449 450 454 453
f 450 451 455 454
f 451 452 456 455
f 452 449 453 456
v 44.272 0.804 -111.670
v 50.284 0.804 -122.009
v 56.508 0.804 -118.390
v 50.496 0.804 -108.051
v 44.272 4.704 -111.670
v 50.284 4.704 -122.009
v 56.508 4.704 -118.390
v 50.496 4.704 -108.051
f 464 463 462 461
f 457 458 462 461
f 458 459 463 462
f 459 460 464 463
f 460 457 461 464
v 29.141 0.738 -126.246
v 47.741 0.738 -121.949
v 44.799 0.738 -109.214
v 26.199 0.738 -113.511
v 29.141 4.638 -126.246
v 47.741 4.638 -121.949
v 44.799 4.638 -109.214
v 26.199 4.638 -113.511
f 472 471 470 469
f 465 466 470 469
f 466 467 471 470
f 467 468 472 471
f 468 465 469 472
v 13.866 1.042 -158.878
v 34.252 1.042 -139.134
v 20.894 1.042 -125.342
v 0.508 1.042 -145.086
v 13.866 4.942 -158.878
v 34.252 4.942 -139.134
v 20.894 4.942 -125.342
v 0.508 4.942 -145.086
f 480 479 478 477
f 473 474 478 477
f 474 475 479 478
f 475 476 480 479
f 476 473 477 480
v -2.439 1.152 -121.624
v 4.599 1.152 -133.564
v 12.619 1.152 -128.836
v 5.581 1.152 -116.896
v -2.439 5.052 -121.624
v 4.599 5.052 -133.564
v 12.619 5.052 -128.836
v 5.581 5.052 -116.896
f 488 487 486 485
f 481 482 486 485
f 482 483 487 486
f 483 484 488 487
f 484 481 485 488
v 0.279 1.056 -121.109
v 32.071 1.056 -125.753
v 35.901 1.056 -99.531
v 4.109 1.056 -94.887
v 0.279 4.956 -121.109
v 32.071 4.956 -125.753
v 35.901 4.956 -99.531
v 4.109 4.956 -94.887
f 496 495 494 493
f 489 490 494 493
f 490 491 495 494
f 491 492 496 495
f 492 489 493 496
v -19.649 1.380 -91.805
v -4.339 1.380 -110.249
v 15.289 1.380 -93.955
v -0.021 1.380 -75.511
v -19.649 5.280 -91.805
v -4.339 5.280 -110.249
v 15.289 5.280 -93.955
v -0.021 5.280 -75.511
f 504 503 502 501
f 497 498 502 501
f 498 499 503 502
f 499 500 504 503
f 500 497 501 504
v -26.889 1.200 -136.518
v 2.270 1.200 -120.394
v -11.051 1.200 -96.302
v -40.210 1.200 -112.426
v -26.889 7.000 -136.518
v 2.270 7.000 -120.394
v -11.051 7.000 -96.302
v -40.210 7.000 -112.426
f 512 511 510 509
f 505 506 510 509
f 506 507 511 510
f 507 508 512 511
f 508 505 509 512
v 109.425 0.728 -90.297
v 127.086 0.728 -75.206
v 117.855 0.728 -64.403
v 100.194 0.728 -79.494
v 109.425 4.628 -90.297
v 127.086 4.628 -75.206
v 117.855 4.628 -64.403
v 100.194 4.628 -79.494
f 520 519 518 517
f 513 514 518 517
f 514 515 519 518
f 515 516 520 519
f 516 513 517 520
v 82.336 0.772 -75.193
v 99.598 0.772 -62.494
v 89.044 0.772 -48.147
v 71.782 0.772 -60.846
v 82.336 4.672 -75.193
v 99.598 4.672 -62.494
v 89.044 4.672 -48.147
v 71.782 4.672 -60.846
f 528 527 526 525
f 521 522 526 525
f 522 523 527 526
f 523 524 528 527
f 524 521 525 528
v 31.218 1.054 -19.659
v 36.506 1.054 -33.386
v 50.382 1.054 -28.041
v 45.094 1.054 -14.314
v 31.218 4.954 -19.659
v 36.506 4.954 -33.386
v 50.382 4.954 -28.041
v 45.094 4.954 -14.314
f 536 535 534 533
f 529 530 534 533
f 530 531 535 534
f 531 532 536 535
f 532 529 533 536
v 30.127 1.115 -39.877
v 38.719 1.115 -34.644
v 34.553 1.115 -27.803
v 25.961 1.115 -33.036
v 30.127 5.015 -39.877
v 38.719 5.015 -34.644
v 34.553 5.015 -27.803
v 25.961 5.015 -33.036
f 544 543 542 541
f 537 538 542 541
f 538 539 543 542
f 539 540 544 543
f 540 537 541 544
v 19.933 1.144 -67.445
v 41.761 1.144 -52.191
v 30.567 1.144 -36.175
v 8.739 1.144 -51.429
v 19.933 5.044 -67.445
v 41.761 5.044 -52.191
v 30.567 5.044 -36.175
v 8.739 5.044 -51.429
f 552 551 550 549
f 545 546 550 549
f 546 547 551 550
f 547 548 552 551
f 548 545 549 552
v 56.182 1.039 -84.281
v 59.511 1.039 -54.577
v 36.158 1.039 -51.959
v 32.829 1.039 -81.663
v 56.182 4.939 -84.281
v 59.511 4.939 -54.577
v 36.158 4.939 -51.959
v 32.829 4.939 -81.663
f 560 559 558 557
f 553 554 558 557
f 554 555 559 558
f 555 556 560 559
f 556 553 557 560
v 52.581 1.625 -62.828
v 54.235 1.625 -92.943
v 78.099 1.625 -91.632
v 76.445 1.625 -61.517
v 52.581 5.525 -62.828
v 54.235 5.525 -92.943
v 78.099 5.525 -91.632
v 76.445 5.525 -61.517
f 568 567 566 565
f 561 562 566 565
f 562 563 567 566
f 563 564 568 567
f 564 561 565 568
v 62.456 0.609 -90.956
v 84.187 0.609 -107.463
v 93.484 0.609 -95.224
v 71.753 0.609 -78.717
v 62.456 4.509 -90.956
v 84.187 4.509 -107.463
v 93.484 4.509 -95.224
v 71.753 4.509 -78.717
f 576 575 574 573
f 569 570 574 573
f 570 571 575 574
f 571 572 576 575
f 572 569 573 576
v 104.054 0.530 -118.200
v 108.288 0.530 -92.111
v 86.286 0.530 -88.540
v 82.052 0.530 -114.629
v 104.054 4.430 -118.200
v 108.288 4.430 -92.111
v 86.286 4.430 -88.540
v 82.052 4.430 -114.629
f 584 583 582 581
f 577 578 582 581
f 578 579 583 582
f 579 580 584 583
f 580 577 581 584
v 105.803 0.393 -101.655
v 110.330 0.393 -108.348
v 116.277 0.393 -104.325
v 111.750 0.393 -97.632
v 105.803 4.293 -101.655
v 110.330 4.293 -108.348
v 116.277 4.293 -104.325
v 111.750 4.293 -97.632
f 592 591 590 589
f 585 586 590 589
f 586 587 591 590
f 587 588 592 591
f 588 585 589 592
v -32.044 0.950 -19.370
v -16.502 0.950 -40.846
v -1.336 0.950 -29.870
v -16.878 0.950 -8.394
v -32.044 4.850 -19.370
v -16.502 4.850 -40.846
v -1.336 4.850 -29.870
v -16.878 4.850 -8.394
f 600 599 598 597
f 593 594 598 597
f 594 595 599 598
f 595 596 600 599
f 596 593 597 600
v -9.545 1.104 5.261
v -2.696 1.104 -20.152
v 16.345 1.104 -15.021
v 9.496 1.104 10.392
v -9.545 5.004 5.261
v -2.696 5.004 -20.152
v 16.345 5.004 -15.021
v 9.496 5.004 10.392
f 608 607 606 605
f 601 602 606 605
f 602 603 607 606
f 603 604 608 607
f 604 601 605 608
v -38.050 0.902 4.918
v -6.230 0.902 -2.914
v -1.250 0.902 17.322
v -33.070 0.902 25.154
v -38.050 4.802 4.918
v -6.230 4.802 -2.914
v -1.250 4.802 17.322
v -33.070 4.802 25.154
f 616 615 614 613
f 609 610 614 613
f 610 611 615 614
f 611 612 616 615
f 612 609 613 616
v -56.699 0.929 -3.163
v -43.737 0.929 -27.778
v -22.581 0.929 -16.637
v -35.543 0.929 7.978
v -56.699 4.829 -3.163
v -43.737 4.829 -27.778
v -22.581 4.829 -16.637
v -35.543 4.829 7.978
f 624 623 622 621
f 617 618 622 621
f 618 619 623 622
f 619 620 624 623
f 620 617 621 624
v -62.454 0.845 -17.006
v -54.375 0.845 -13.860
v -57.486 0.845 -5.874
v -65.565 0.845 -9.020
v -62.454 4.745 -17.006
v -54.375 4.745 -13.860
v -57.486 4.745 -5.874
v -65.565 4.745 -9.020
f 632 631 630 629
f 625 626 630 629
f 626 627 631 630
f 627 628 632 631
f 628 625 629 632
v -37.261 0.770 -3.855
v -31.212 0.770 0.068
v -34.199 0.770 4.675
v -40.248 0.770 0.752
v -37.261 4.670 -3.855
v -31.212 4.670 0.068
v -34.199 4.670 4.675
v -40.248 4.670 0.752
f 640 639 638 637
f 633 634 638 637
f 634 635 639 638
f 635 636 640 639
f 636 633 637 640
v -51.972 0.805 9.155
v -47.869 0.805 3.645
v -43.008 0.805 7.265
v -47.111 0.805 12.775
v -51.972 4.705 9.155
v -47.869 4.705 3.645
v -43.008 4.705 7.265
v -47.111 4.705 12.775
f 648 647 646 645
f 641 642 646 645
f 642 643 647 646
f 643 644 648 647
f 644 641 645 648
v -66.494 0.910 16.135
v -57.915 0.910 9.607
v -52.986 0.910 16.085
v -61.565 0.910 22.613
v -66.494 4.810 16.135
v -57.915 4.810 9.607
v -52.986 4.810 16.085
v -61.565 4.810 22.613
f 656 655 654 653
f 649 650 654 653
f 650 651 655 654
f 651 652 656 655
f 652 649 653 656
v -70.378 1.076 -6.960
v -51.255 1.076 -2.063
v -54.482 1.076 10.540
v -73.605 1.076 5.643
v -70.378 4.976 -6.960
v -51.255 4.976 -2.063
v -54.482 4.976 10.540
v -73.605 4.976 5.643
f 664 663 662 661
f 657 658 662 661
f 658 659 663 662
f 659 660 664 663
f 660 657 661 664
v -80.149 0.965 -3.084
v -74.622 0.965 0.451
v -76.971 0.965 4.124
v -82.498 0.965 0.589
v -80.149 4.865 -3.084
v -74.622 4.865 0.451
v -76.971 4.865 4.124
v -82.498 4.865 0.589
f 672 671 670 669
f 665 666 670 669
f 666 667 671 670
f 667 668 672 671
f 668 665 669 672
v -98.742 1.680 24.280
v -82.529 1.680 2.889
v -67.738 1.680 14.100
v -83.951 1.680 35.491
v -98.742 5.580 24.280
v -82.529 5.580 2.889
v -67.738 5.580 14.100
v -83.951 5.580 35.491
f 680 679 678 677
f 673 674 678 677
f 674 675 679 678
f 675 676 680 679
f 676 673 677 680
v -70.794 0.993 48.110
v -59.971 0.993 26.936
v -45.546 0.993 34.310
v -56.369 0.993 55.484
v -70.794 4.893 48.110
v -59.971 4.893 26.936
v -45.546 4.893 34.310
v -56.369 4.893 55.484
f 688 687 686 685
f 681 682 686 685
f 682 683 687 686
f 683 684 688 687
f 684 681 685 688
v -79.898 0.970 56.140
v -72.828 0.970 38.547
v -60.802 0.970 43.380
v -67.872 0.970 60.973
v -79.898 4.870 56.140
v -72.828 4.870 38.547
v -60.802 4.870 43.380
v -67.872 4.870 60.973
f 696 695 694 693
f 689 690 694 693
f 690 691 695 694
f 691 692 696 695
f 692 689 693 696
v -140.463 1.492 36.885
v -103.469 1.492 32.117
v -100.637 1.492 54.095
v -137.631 1.492 58.863
v -140.463 5.392 36.885
v -103.469 5.392 32.117
v -100.637 5.392 54.095
v -137.631 5.392 58.863
f 704 703 702 701
f 697 698 702 701
f 698 699 703 702
f 699 700 704 703
f 700 697 701 704
v -118.828 1.033 53.805
v -93.011 1.033 70.399
v -105.452 1.033 89.755
v -131.269 1.033 73.161
v -118.828 4.933 53.805
v -93.011 4.933 70.399
v -105.452 4.933 89.755
v -131.269 4.933 73.161
f 712 711 710 709
f 705 706 710 709
f 706 707 711 710
f 707 708 712 711
f 708 705 709 712
v -132.116 0.716 74.276
v -130.217 0.716 71.159
v -127.484 0.716 72.824
v -129.383 0.716 75.941
v -132.116 4.616 74.276
v -130.217 4.616 71.159
v -127.484 4.616 72.824
v -129.383 4.616 75.941
f 720 719 718 717
f 713 714 718 717
f 714 715 719 718
f 715 716 720 719
f 716 713 717 720
v -133.749 0.873 57.648
v -126.400 0.873 61.171
v -129.871 0.873 68.412
v -137.220 0.873 64.889
v -133.749 4.773 57.648
v -126.400 4.773 61.171
v -129.871 4.773 68.412
v -137.220 4.773 64.889
f 728 727 726 725
f 721 722 726 725
f 722 723 727 726
f 723 724 728 727
f 724 721 725 728
v -154.690 1.263 49.286
v -132.460 1.263 61.345
v -139.950 1.263 75.154
v -162.180 1.263 63.095
v -154.690 5.163 49.286
v -132.460 5.163 61.345
v -139.950 5.163 75.154
v -162.180 5.163 63.095
f 736 735 734 733
f 729 730 734 733
f 730 731 735 734
f 731 732 736 735
f 732 729 733 736
v -171.633 0.335 58.802
v -156.494 0.335 85.842
v -175.027 0.335 96.218
v -190.166 0.335 69.178
v -171.633 4.235 58.802
v -156.494 4.235 85.842
v -175.027 4.235 96.218
v -190.166 4.235 69.178
f 744 743 742 741
f 737 738 742 741
f 738 739 743 742
f 739 740 744 743
f 740 737 741 744
v -39.762 0.856 16.824
v -22.067 0.856 14.799
v -19.918 0.856 33.576
v -37.613 0.856 35.601
v -39.762 4.756 16.824
v -22.067 4.756 14.799
v -19.918 4.756 33.576
v -37.613 4.756 35.601
f 752 751 750 749
f 745 746 750 749
f 746 747 751 750
f 747 748 752 751
f 748 745 749 752
v -66.721 1.277 -103.846
v -42.951 1.277 -88.841
v -55.479 1.277 -68.994
v -79.249 1.277 -83.999
v -66.721 7.077 -103.846
v -42.951 7.077 -88.841
v -55.479 7.077 -68.994
v -79.249 7.077 -83.999
f 760 759 758 757
f 753 754 758 757
f 754 755 759 758
f 755 756 760 759
f 756 753 757 760
v -59.120 1.417 -72.656
v -38.329 1.417 -83.217
v -29.860 1.417 -66.544
v -50.651 1.417 -55.983
v -59.120 5.317 -72.656
v -38.329 5.317 -83.217
v -29.860 5.317 -66.544
v -50.651 5.317 -55.983
f 768 767 766 765
f 761 762 766 765
f 762 763 767 766
f 763 764 768 767
f 764 761 765 768
v -72.488 1.147 -83.886
v -69.105 1.147 -66.186
v -86.952 1.147 -62.774
v -90.335 1.147 -80.474
v -72.488 5.047 -83.886
v -69.105 5.047 -66.186
v -86.952 5.047 -62.774
v -90.335 5.047 -80.474
f 776 775 774 773
f 769 770 774 773
f 770 771 775 774
f 771 772 776 775
f 772 769 773 776
v -109.975 1.194 -77.907
v -79.438 1.194 -65.935
v -87.365 1.194 -45.713
v -117.902 1.194 -57.685
v -109.975 5.094 -77.907
v -79.438 5.094 -65.935
v -87.365 5.094 -45.713
v -117.902 5.094 -57.685
f 784 783 782 781
f 777 778 782 781
f 778 779 783 782
f 779 780 784 783
f 780 777 781 784
v -73.000 0.952 -61.554
v -67.167 0.952 -58.020
v -70.520 0.952 -52.486
v -76.353 0.952 -56.020
v -73.000 4.852 -61.554
v -67.167 4.852 -58.020
v -70.520 4.852 -52.486
v -76.353 4.852 -56.020
f 792 791 790 789
f 785 786 790 789
f 786 787 791 790
f 787 788 792 791
f 788 785 789 792
v -65.740 1.193 -61.986
v -49.636 1.193 -51.402
v -56.160 1.193 -41.474
v -72.264 1.193 -52.058
v -65.740 5.093 -61.986
v -49.636 5.093 -51.402
v -56.160 5.093 -41.474
v -72.264 5.093 -52.058
f 800 799 798 797
f 793 794 798 797
f 794 795 799 798
f 795 796 800 799
f 796 793 797 800
v -93.610 1.264 -51.734
v -65.645 1.264 -41.585
v -72.990 1.264 -21.346
v -100.955 1.264 -31.495
v -93.610 5.164 -51.734
v -65.645 5.164 -41.585
v -72.990 5.164 -21.346
v -100.955 5.164 -31.495
f 808 807 806 805
f 801 802 806 805
f 802 803 807 806
f 803 804 808 807
f 804 801 805 808
v -125.463 1.465 -32.087
v -97.798 1.465 -26.830
v -101.857 1.465 -5.473
v -129.522 1.465 -10.730
v -125.463 5.365 -32.087
v -97.798 5.365 -26.830
v -101.857 5.365 -5.473
v -129.522 5.365 -10.730
f 816 815 814 813
f 809 810 814 813
f 810 811 815 814
f 811 812 816 815
f 812 809 813 816
v -146.250 0.499 -31.553
v -131.841 0.499 -48.481
v -124.470 0.499 -42.207
v -138.879 0.499 -25.279
v -146.250 4.399 -31.553
v -131.841 4.399 -48.481
v -124.470 4.399 -42.207
v -138.879 4.399 -25.279
f 824 823 822 821
f 817 818 822 821
f 818 819 823 822
f 819 820 824 823
f 820 817 821 824
v -131.526 0.599 -46.736
v -118.401 0.599 -61.373
v -106.414 0.599 -50.624
v -119.539 0.599 -35.987
v -131.526 4.499 -46.736
v -118.401 4.499 -61.373
v -106.414 4.499 -50.624
v -119.539 4.499 -35.987
f 832 831 830 829
f 825 826 830 829
f 826 827 831 830
f 827 828 832 831
f 828 825 829 832
v -150.141 0.823 -1.525
v -130.050 0.823 5.699
v -134.719 0.823 18.685
v -154.810 0.823 11.461
v -150.141 4.723 -1.525
v -130.050 4.723 5.699
v -134.719 4.723 18.685
v -154.810 4.723 11.461
f 840 839 838 837
f 833 834 838 837
f 834 835 839 838
f 835 836 840 839
f 836 833 837 840
v -152.326 0.760 -9.247
v -144.275 0.760 -3.855
v -146.834 0.760 -0.033
v -154.885 0.760 -5.425
v -152.326 4.660 -9.247
v -144.275 4.660 -3.855
v -146.834 4.660 -0.033
v -154.885 4.660 -5.425
f 848 847 846 845
f 841 842 846 845
f 842 843 847 846
f 843 844 848 847
f 844 841 845 848
v -164.082 0.851 3.968
v -161.322 0.851 -0.297
v -157.938 0.851 1.892
v -160.698 0.851 6.157
v -164.082 4.751 3.968
v -161.322 4.751 -0.297
v -157.938 4.751 1.892
v -160.698 4.751 6.157
f 856 855 854 853
f 849 850 854 853
f 850 851 855 854
f 851 852 856 855
f 852 849 853 856
v -164.422 1.008 -12.679
v -157.910 1.008 -8.838
v -161.258 1.008 -3.161
v -167.770 1.008 -7.002
v -164.422 4.908 -12.679
v -157.910 4.908 -8.838
v -161.258 4.908 -3.161
v -167.770 4.908 -7.002
f 864 863 862 861
f 857 858 862 861
f 858 859 863 862
f 859 860 864 863
f 860 857 861 864
v -168.526 1.143 -29.853
v -158.294 1.143 -22.919
v -163.534 1.143 -15.187
v -173.766 1.143 -22.121
v -168.526 5.043 -29.853
v -158.294 5.043 -22.919
v -163.534 5.043 -15.187
v -173.766 5.043 -22.121
f 872 871 870 869
f 865 866 870 869
f 866 867 871 870
f 867 868 872 871
f 868 865 869 872
v -201.429 1.255 -0.689
v -191.052 1.255 -13.595
v -181.271 1.255 -5.731
v -191.648 1.255 7.175
v -201.429 5.155 -0.689
v -191.052 5.155 -13.595
v -181.271 5.155 -5.731
v -191.648 5.155 7.175
f 880 879 878 877
f 873 874 878 877
f 874 875 879 878
f 875 876 880 879
f 876 873 877 880
v -214.318 1.364 8.009
v -202.910 1.364 -3.253
v -194.002 1.364 5.771
v -205.410 1.364 17.033
v -214.318 5.264 8.009
v -202.910 5.264 -3.253
v -194.002 5.264 5.771
v -205.410 5.264 17.033
f 888 887 886 885
f 881 882 886 885
f 882 883 887 886
f 883 884 888 887
f 884 881 885 888
v -212.209 1.152 8.164
v -205.458 1.152 21.582
v -220.591 1.152 29.196
v -227.342 1.152 15.778
v -212.209 5.052 8.164
v -205.458 5.052 21.582
v -220.591 5.052 29.196
v -227.342 5.052 15.778
f 896 895 894 893
f 889 890 894 893
f 890 891 895 894
f 891 892 896 895
f 892 889 893 896
v -255.702 1.153 -16.996
v -250.056 1.153 -38.249
v -228.958 1.153 -32.644
v -234.604 1.153 -11.391
v -255.702 5.053 -16.996
v -250.056 5.053 -38.249
v -228.958 5.053 -32.644
v -234.604 5.053 -11.391
f 904 903 902 901
f 897 898 902 901
f 898 899 903 902
f 899 900 904 903
f 900 897 901 904
v -222.939 1.492 -56.717
v -201.766 1.492 -38.809
v -215.321 1.492 -22.783
v -236.494 1.492 -40.691
v -222.939 5.392 -56.717
v -201.766 5.392 -38.809
v -215.321 5.392 -22.783
v -236.494 5.392 -40.691
f 912 911 910 909
f 905 906 910 909
f 906 907 911 910
f 907 908 912 911
f 908 905 909 912
v -227.009 1.249 -53.926
v -223.198 1.249 -51.629
v -225.051 1.249 -48.554
v -228.862 1.249 -50.851
v -227.009 5.149 -53.926
v -223.198 5.149 -51.629
v -225.051 5.149 -48.554
v -228.862 5.149 -50.851
f 920 919 918 917
f 913 914 918 917
f 914 915 919 918
f 915 916 920 919
f 916 913 917 920
v -203.891 1.020 -59.155
v -188.080 1.020 -66.933
v -180.549 1.020 -51.625
v -196.360 1.020 -43.847
v -203.891 4.920 -59.155
v -188.080 4.920 -66.933
v -180.549 4.920 -51.625
v -196.360 4.920 -43.847
f 928 927 926 925
f 921 922 926 925
f 922 923 927 926
f 923 924 928 927
f 924 921 925 928
v -205.326 0.815 -80.672
v -191.030 0.815 -73.969
v -197.174 0.815 -60.868
v -211.470 0.815 -67.571
v -205.326 4.715 -80.672
v -191.030 4.715 -73.969
v -197.174 4.715 -60.868
v -211.470 4.715 -67.571
f 936 935 934 933
f 929 930 934 933
f 930 931 935 934
f 931 932 936 935
f 932 929 933 936
v -218.618 0.802 -84.999
v -211.559 0.802 -57.067
v -233.742 0.802 -51.461
v -240.801 0.802 -79.393
v -218.618 4.702 -84.999
v -211.559 4.702 -57.067
v -233.742 4.702 -51.461
v -240.801 4.702 -79.393
f 944 943 942 941
f 937 938 942 941
f 938 939 943 942
f 939 940 944 943
f 940 937 941 944
v -248.471 1.204 -69.014
v -242.540 1.204 -65.567
v -245.469 1.204 -60.526
v -251.400 1.204 -63.973
v -248.471 5.104 -69.014
v -242.540 5.104 -65.567
v -245.469 5.104 -60.526
v -251.400 5.104 -63.973
f 952 951 950 949
f 945 946 950 949
f 946 947 951 950
f 947 948 952 951
f 948 945 949 952
v -241.620 1.095 -131.512
v -221.771 1.095 -125.964
v -226.320 1.095 -109.688
v -246.169 1.095 -115.236
v -241.620 4.995 -131.512
v -221.771 4.995 -125.964
v -226.320 4.995 -109.688
v -246.169 4.995 -115.236
f 960 959 958 957
f 953 954 958 957
f 954 955 959 958
f 955 956 960 959
f 956 953 957 960
v -248.580 1.132 -159.675
v -237.151 1.132 -139.268
v -253.440 1.132 -130.145
v -264.869 1.132 -150.552
v -248.580 5.032 -159.675
v -237.151 5.032 -139.268
v -253.440 5.032 -130.145
v -264.869 5.032 -150.552
f 968 967 966 965
f 961 962 966 965
f 962 963 967 966
f 963 964 968 967
f 964 961 965 968
v -229.469 1.043 -166.446
v -224.662 1.043 -173.529
v -219.011 1.043 -169.694
v -223.818 1.043 -162.611
v -229.469 4.943 -166.446
v -224.662 4.943 -173.529
v -219.011 4.943 -169.694
v -223.818 4.943 -162.611
f 976 975 974 973
f 969 970 974 973
f 970 971 975 974
f 971 972 976 975
f 972 969 973 976
v -209.383 1.039 -183.481
v -196.493 1.039 -167.130
v -214.697 1.039 -152.779
v -227.587 1.039 -169.130
v -209.383 4.939 -183.481
v -196.493 4.939 -167.130
v -214.697 4.939 -152.779
v -227.587 4.939 -169.130
f 984 983 982 981
f 977 978 982 981
f 978 979 983 982
f 979 980 984 983
f 980 977 981 984
v -214.669 0.780 -187.586
v -210.475 0.780 -184.956
v -211.931 0.780 -182.634
v -216.125 0.780 -185.264
v -214.669 4.680 -187.586
v -210.475 4.680 -184.956
v -211.931 4.680 -182.634
v -216.125 4.680 -185.264
f 992 991 990 989
f 985 986 990 989
f 986 987 991 990
f 987 988 992 991
f 988 985 989 992
v -205.509 0.813 -176.323
v -200.975 0.813 -174.573
v -202.711 0.813 -170.077
v -207.245 0.813 -171.827
v -205.509 4.713 -176.323
v -200.975 4.713 -174.573
v -202.711 4.713 -170.077
v -207.245 4.713 -171.827
f 1000 999 998 997
f 993 994 998 997
f 994 995 999 998
f 995 996 1000 999
f 996 993 997 1000
v -203.783 1.034 -175.274
v -195.562 1.034 -190.745
v -185.477 1.034 -185.386
v -193.698 1.034 -169.915
v -203.783 4.934 -175.274
v -195.562 4.934 -190.745
v -185.477 4.934 -185.386
v -193.698 4.934 -169.915
f 1008 1007 1006 1005
f 1001 1002 1006 1005
f 1002 1003 1007 1006
f 1003 1004 1008 1007
f 1004 1001 1005 1008
v -189.852 0.797 -179.597
v -183.447 0.797 -186.463
v -177.488 0.797 -180.903
v -183.893 0.797 -174.037
v -189.852 4.697 -179.597
v -183.447 4.697 -186.463
v -177.488 4.697 -180.903
v -183.893 4.697 -174.037
f 1016 1015 1014 1013
f 1009 1010 1014 1013
f 1010 1011 1015 1014
f 1011 1012 1016 1015
f 1012 1009 1013 1016
v -213.395 0.986 -155.648
v -203.093 0.986 -148.551
v -205.765 0.986 -144.672
v -216.067 0.986 -151.769
v -213.395 4.886 -155.648
v -203.093 4.886 -148.551
v -205.765 4.886 -144.672
v -216.067 4.886 -151.769
f 1024 1023 1022 1021
f 1017 1018 1022 1021
f 1018 1019 1023 1022
f 1019 1020 1024 1023
f 1020 1017 1021 1024
v -200.971 0.918 -161.638
v -182.605 0.918 -143.934
v -194.049 0.918 -132.062
v -212.415 0.918 -149.766
v -200.971 4.818 -161.638
v -182.605 4.818 -143.934
v -194.049 4.818 -132.062
v -212.415 4.818 -149.766
f 1032 1031 1030 1029
f 1025 1026 1030 1029
f 1026 1027 1031 1030
f 1027 1028 1032 1031
f 1028 1025 1029 1032
v -173.275 0.812 -164.601
v -165.713 0.812 -178.337
v -154.965 0.812 -172.419
v -162.527 0.812 -158.683
v -173.275 4.712 -164.601
v -165.713 4.712 -178.337
v -154.965 4.712 -172.419
v -162.527 4.712 -158.683
f 1040 1039 1038 1037
f 1033 1034 1038 1037
f 1034 1035 1039 1038
f 1035 1036 1040 1039
f 1036 1033 1037 1040
v -170.137 0.580 -180.841
v -164.830 0.580 -177.428
v -166.263 0.580 -175.199
v -171.570 0.580 -178.612
v -170.137 4.480 -180.841
v -164.830 4.480 -177.428
v -166.263 4.480 -175.199
v -171.570 4.480 -178.612
f 1048 1047 1046 1045
f 1041 1042 1046 1045
f 1042 1043 1047 1046
f 1043 1044 1048 1047
f 1044 1041 1045 1048
v -152.995 1.361 -173.921
v -146.788 1.361 -191.518
v -132.105 1.361 -186.339
v -138.312 1.361 -168.742
v -152.995 5.261 -173.921
v -146.788 5.261 -191.518
v -132.105 5.261 -186.339
v -138.312 5.261 -168.742
f 1056 1055 1054 1053
f 1049 1050 1054 1053
f 1050 1051 1055 1054
f 1051 1052 1056 1055
f 1052 1049 1053 1056
v -197.574 0.665 -195.642
v -193.976 0.665 -200.267
v -190.006 0.665 -197.178
v -193.604 0.665 -192.553
v -197.574 4.565 -195.642
v -193.976 4.565 -200.267
v -190.006 4.565 -197.178
v -193.604 4.565 -192.553
f 1064 1063 1062 1061
f 1057 1058 1062 1061
f 1058 1059 1063 1062
f 1059 1060 1064 1063
f 1060 1057 1061 1064
v -186.655 0.879 -184.569
v -184.449 0.879 -202.665
v -170.225 0.879 -200.931
v -172.431 0.879 -182.835
v -186.655 4.779 -184.569
v -184.449 4.779 -202.665
v -170.225 4.779 -200.931
v -172.431 4.779 -182.835
f 1072 1071 1070 1069
f 1065 1066 1070 1069
f 1066 1067 1071 1070
f 1067 1068 1072 1071
f 1068 1065 1069 1072
v -170.177 0.966 -188.908
v -168.336 0.966 -215.404
v -149.163 0.966 -214.072
v -151.004 0.966 -187.576
v -170.177 4.866 -188.908
v -168.336 4.866 -215.404
v -149.163 4.866 -214.072
v -151.004 4.866 -187.576
f 1080 1079 1078 1077
f 1073 1074 1078 1077
f 1074 1075 1079 1078
f 1075 1076 1080 1079
f 1076 1073 1077 1080
v -130.052 1.116 -199.274
v -109.996 1.116 -186.911
v -115.868 1.116 -177.386
v -135.924 1.116 -189.749
v -130.052 5.016 -199.274
v -109.996 5.016 -186.911
v -115.868 5.016 -177.386
v -135.924 5.016 -189.749
f 1088 1087 1086 1085
f 1081 1082 1086 1085
f 1082 1083 1087 1086
f 1083 1084 1088 1087
f 1084 1081 1085 1088
v -154.949 0.859 -212.214
v -124.993 0.859 -219.952
v -119.851 0.859 -200.046
v -149.807 0.859 -192.308
v -154.949 4.759 -212.214
v -124.993 4.759 -219.952
v -119.851 4.759 -200.046
v -149.807 4.759 -192.308
f 1096 1095 1094 1093
f 1089 1090 1094 1093
f 1090 1091 1095 1094
f 1091 1092 1096 1095
f 1092 1089 1093 1096
v -153.020 0.989 -228.131
v -138.727 0.989 -218.545
v -143.540 0.989 -211.369
v -157.833 0.989 -220.955
v -153.020 4.889 -228.131
v -138.727 4.889 -218.545
v -143.540 4.889 -211.369
v -157.833 4.889 -220.955
f 1104 1103 1102 1101
f 1097 1098 1102 1101
f 1098 1099 1103 1102
f 1099 1100 1104 1103
f 1100 1097 1101 1104
v -105.038 0.426 -209.116
v -92.518 0.426 -232.279
v -80.502 0.426 -225.784
v -93.022 0.426 -202.621
v -105.038 4.326 -209.116
v -92.518 4.326 -232.279
v -80.502 4.326 -225.784
v -93.022 4.326 -202.621
f 1112 1111 1110 1109
f 1105 1106 1110 1109
f 1106 1107 1111 1110
f 1107 1108 1112 1111
f 1108 1105 1109 1112
v -93.810 0.962 -243.261
v -90.032 0.962 -232.314
v -98.710 0.962 -229.319
v -102.488 0.962 -240.266
v -93.810 4.862 -243.261
v -90.032 4.862 -232.314
v -98.710 4.862 -229.319
v -102.488 4.862 -240.266
f 1120 1119 1118 1117
f 1113 1114 1118 1117
f 1114 1115 1119 1118
f 1115 1116 1120 1119
f 1116 1113 1117 1120
v -109.729 1.010 -258.499
v -94.335 1.010 -247.430
v -100.051 1.010 -239.481
v -115.445 1.010 -250.550
v -109.729 4.910 -258.499
v -94.335 4.910 -247.430
v -100.051 4.910 -239.481
v -115.445 4.910 -250.550
f 1128 1127 1126 1125
f 1121 1122 1126 1125
f 1122 1123 1127 1126
f 1123 1124 1128 1127
f 1124 1121 1125 1128
v -119.559 1.215 -234.386
v -115.011 1.215 -240.883
v -110.341 1.215 -237.614
v -114.889 1.215 -231.117
v -119.559 5.115 -234.386
v -115.011 5.115 -240.883
v -110.341 5.115 -237.614
v -114.889 5.115 -231.117
f 1136 1135 1134 1133
f 1129 1130 1134 1133
f 1130 1131 1135 1134
f 1131 1132 1136 1135
f 1132 1129 1133 1136
v -85.127 0.953 -231.481
v -68.519 0.953 -242.642
v -58.033 0.953 -227.039
v -74.641 0.953 -215.878
v -85.127 4.853 -231.481
v -68.519 4.853 -242.642
v -58.033 4.853 -227.039
v -74.641 4.853 -215.878
f 1144 1143 1142 1141
f 1137 1138 1142 1141
f 1138 1139 1143 1142
f 1139 1140 1144 1143
f 1140 1137 1141 1144
v -95.147 1.061 -248.878
v -88.918 1.061 -257.417
v -82.673 1.061 -252.862
v -88.902 1.061 -244.323
v -95.147 4.961 -248.878
v -88.918 4.961 -257.417
v -82.673 4.961 -252.862
v -88.902 4.961 -244.323
f 1152 1151 1150 1149
f 1145 1146 1150 1149
f 1146 1147 1151 1150
f 1147 1148 1152 1151
f 1148 1145 1149 1152
v -75.503 0.684 -255.822
v -66.116 0.684 -249.731
v -69.317 0.684 -244.798
v -78.704 0.684 -250.889
v -75.503 4.584 -255.822
v -66.116 4.584 -249.731
v -69.317 4.584 -244.798
v -78.704 4.584 -250.889
f 1160 1159 1158 1157
f 1153 1154 1158 1157
f 1154 1155 1159 1158
f 1155 1156 1160 1159
f 1156 1153 1157 1160
v -71.495 1.139 -236.425
v -61.566 1.139 -249.239
v -55.005 1.139 -244.155
v -64.934 1.139 -231.341
v -71.495 5.039 -236.425
v -61.566 5.039 -249.239
v -55.005 5.039 -244.155
v -64.934 5.039 -231.341
f 1168 1167 1166 1165
f 1161 1162 1166 1165
f 1162 1163 1167 1166
f 1163 1164 1168 1167
f 1164 1161 1165 1168
v -61.107 0.964 -236.411
v -51.268 0.964 -253.015
v -41.133 0.964 -247.009
v -50.972 0.964 -230.405
v -61.107 4.864 -236.411
v -51.268 4.864 -253.015
v -41.133 4.864 -247.009
v -50.972 4.864 -230.405
f 1176 1175 1174 1173
f 1169 1170 1174 1173
f 1170 1171 1175 1174
f 1171 1172 1176 1175
f 1172 1169 1173 1176
v -59.378 -0.300 -254.143
v -56.480 -0.300 -259.017
v -52.982 -0.300 -256.937
v -55.880 -0.300 -252.063
v -59.378 3.600 -254.143
v -56.480 3.600 -259.017
v -52.982 3.600 -256.937
v -55.880 3.600 -252.063
f 1184 1183 1182 1181
f 1177 1178 1182 1181
f 1178 1179 1183 1182
f 1179 1180 1184 1183
f 1180 1177 1181 1184
v -41.522 1.275 -261.316
v -32.253 1.275 -255.262
v -37.098 1.275 -247.844
v -46.367 1.275 -253.898
v -41.522 5.175 -261.316
v -32.253 5.175 -255.262
v -37.098 5.175 -247.844
v -46.367 5.175 -253.898
f 1192 1191 1190 1189
f 1185 1186 1190 1189
f 1186 1187 1191 1190
f 1187 1188 1192 1191
f 1188 1185 1189 1192
v 7.468 0.769 -250.245
v 22.316 0.769 -239.582
v 16.652 0.769 -231.695
v 1.804 0.769 -242.358
v 7.468 4.669 -250.245
v 22.316 4.669 -239.582
v 16.652 4.669 -231.695
v 1.804 4.669 -242.358
f 1200 1199 1198 1197
f 1193 1194 1198 1197
f 1194 1195 1199 1198
f 1195 1196 1200 1199
f 1196 1193 1197 1200
v -14.615 1.079 -222.219
v -4.520 1.079 -233.902
v 4.855 1.079 -225.801
v -5.240 1.079 -214.118
v -14.615 4.979 -222.219
v -4.520 4.979 -233.902
v 4.855 4.979 -225.801
v -5.240 4.979 -214.118
f 1208 1207 1206 1205
f 1201 1202 1206 1205
f 1202 1203 1207 1206
f 1203 1204 1208 1207
f 1204 1201 1205 1208
v -28.921 0.860 -213.256
v -12.359 0.860 -228.069
v -4.519 0.860 -219.304
v -21.081 0.860 -204.491
v -28.921 4.760 -213.256
v -12.359 4.760 -228.069
v -4.519 4.760 -219.304
v -21.081 4.760 -204.491
f 1216 1215 1214 1213
f 1209 1210 1214 1213
f 1210 1211 1215 1214
f 1211 1212 1216 1215
f 1212 1209 1213 1216
v -35.913 0.666 -206.385
v -34.615 0.666 -219.099
v -22.627 0.666 -217.875
v -23.925 0.666 -205.161
v -35.913 4.566 -206.385
v -34.615 4.566 -219.099
v -22.627 4.566 -217.875
v -23.925 4.566 -205.161
f 1224 1223 1222 1221
f 1217 1218 1222 1221
f 1218 1219 1223 1222
f 1219 1220 1224 1223
f 1220 1217 1221 1224
v -59.593 0.706 -186.637
v -51.391 0.706 -207.943
v -34.247 0.706 -201.343
v -42.449 0.706 -180.037
v -59.593 4.606 -186.637
v -51.391 4.606 -207.943
v -34.247 4.606 -201.343
v -42.449 4.606 -180.037
f 1232 1231 1230 1229
f 1225 1226 1230 1229
f 1226 1227 1231 1230
f 1227 1228 1232 1231
f 1228 1225 1229 1232
v -67.887 1.051 -196.199
v -50.623 1.051 -190.098
v -57.873 1.051 -169.581
v -75.137 1.051 -175.682
v -67.887 4.951 -196.199
v -50.623 4.951 -190.098
v -57.873 4.951 -169.581
v -75.137 4.951 -175.682
f 1240 1239 1238 1237
f 1233 1234 1238 1237
f 1234 1235 1239 1238
f 1235 1236 1240 1239
f 1236 1233 1237 1240
v -63.185 0.666 -149.987
v -55.306 0.666 -166.360
v -43.115 0.666 -160.493
v -50.994 0.666 -144.120
v -63.185 4.566 -149.987
v -55.306 4.566 -166.360
v -43.115 4.566 -160.493
v -50.994 4.566 -144.120
f 1248 1247 1246 1245
f 1241 1242 1246 1245
f 1242 1243 1247 1246
f 1243 1244 1248 1247
f 1244 1241 1245 1248
v -49.455 0.635 -157.796
v -41.356 0.635 -167.592
v -34.405 0.635 -161.844
v -42.504 0.635 -152.048
v -49.455 4.535 -157.796
v -41.356 4.535 -167.592
v -34.405 4.535 -161.844
v -42.504 4.535 -152.048
f 1256 1255 1254 1253
f 1249 1250 1254 1253
f 1250 1251 1255 1254
f 1251 1252 1256 1255
f 1252 1249 1253 1256
v -17.592 0.109 -194.608
v -8.678 0.109 -167.327
v -38.288 0.109 -157.652
v -47.202 0.109 -184.933
v -17.592 4.009 -194.608
v -8.678 4.009 -167.327
v -38.288 4.009 -157.652
v -47.202 4.009 -184.933
f 1264 1263 1262 1261
f 1257 1258 1262 1261
f 1258 1259 1263 1262
f 1259 1260 1264 1263
f 1260 1257 1261 1264
v -23.232 1.018 -186.911
v -6.320 1.018 -196.896
v 2.552 1.018 -181.869
v -14.360 1.018 -171.884
v -23.232 4.918 -186.911
v -6.320 4.918 -196.896
v 2.552 4.918 -181.869
v -14.360 4.918 -171.884
f 1272 1271 1270 1269
f 1265 1266 1270 1269
f 1266 1267 1271 1270
f 1267 1268 1272 1271
f 1268 1265 1269 1272
v -1.809 0.905 -176.997
v 3.416 0.905 -184.128
v 8.829 0.905 -180.163
v 3.604 0.905 -173.032
v -1.809 4.805 -176.997
v 3.416 4.805 -184.128
v 8.829 4.805 -180.163
v 3.604 4.805 -173.032
f 1280 1279 1278 1277
f 1273 1274 1278 1277
f 1274 1275 1279 1278
f 1275 1276 1280 1279
f 1276 1273 1277 1280
v 30.131 0.857 -213.361
v 45.042 0.857 -205.135
v 39.009 0.857 -194.199
v 24.098 0.857 -202.425
v 30.131 4.757 -213.361
v 45.042 4.757 -205.135
v 39.009 4.757 -194.199
v 24.098 4.757 -202.425
f 1288 1287 1286 1285
f 1281 1282 1286 1285
f 1282 1283 1287 1286
f 1283 1284 1288 1287
f 1284 1281 1285 1288
v 22.581 0.776 -221.842
v 34.668 0.776 -213.477
v 30.599 0.776 -207.598
v 18.512 0.776 -215.963
v 22.581 4.676 -221.842
v 34.668 4.676 -213.477
v 30.599 4.676 -207.598
v 18.512 4.676 -215.963
f 1296 1295 1294 1293
f 1289 1290 1294 1293
f 1290 1291 1295 1294
f 1291 1292 1296 1295
f 1292 1289 1293 1296
v 21.513 0.770 -224.245
v 28.335 0.770 -219.535
v 26.347 0.770 -216.655
v 19.525 0.770 -221.365
v 21.513 4.670 -224.245
v 28.335 4.670 -219.535
v 26.347 4.670 -216.655
v 19.525 4.670 -221.365
f 1304 1303 1302 1301
f 1297 1298 1302 1301
f 1298 1299 1303 1302
f 1299 1300 1304 1303
f 1300 1297 1301 1304
v 15.412 0.970 -237.464
v 25.944 0.970 -230.529
v 20.048 0.970 -221.576
v 9.516 0.970 -228.511
v 15.412 4.870 -237.464
v 25.944 4.870 -230.529
v 20.048 4.870 -221.576
v 9.516 4.870 -228.511
f 1312 1311 1310 1309
f 1305 1306 1310 1309
f 1306 1307 1311 1310
f 1307 1308 1312 1311
f 1308 1305 1309 1312
v 70.026 1.430 -263.538
v 93.838 1.430 -237.154
v 71.954 1.430 -217.402
v 48.142 1.430 -243.786
v 70.026 7.230 -263.538
v 93.838 7.230 -237.154
v 71.954 7.230 -217.402
v 48.142 7.230 -243.786
f 1320 1319 1318 1317
f 1313 1314 1318 1317
f 1314 1315 1319 1318
f 1315 1316 1320 1319
f 1316 1313 1317 1320
v 87.494 0.906 -251.873
v 97.285 0.906 -266.330
v 107.006 0.906 -259.747
v 97.215 0.906 -245.290
v 87.494 4.806 -251.873
v 97.285 4.806 -266.330
v 107.006 4.806 -259.747
v 97.215 4.806 -245.290
f 1328 1327 1326 1325
f 1321 1322 1326 1325
f 1322 1323 1327 1326
f 1323 1324 1328 1327
f 1324 1321 1325 1328
v -220.351 1.128 -252.231
v -200.060 1.128 -261.039
v -194.569 1.128 -248.389
v -214.860 1.128 -239.581
v -220.351 5.028 -252.231
v -200.060 5.028 -261.039
v -194.569 5.028 -248.389
v -214.860 5.028 -239.581
f 1336 1335 1334 1333
f 1329 1330 1334 1333
f 1330 1331 1335 1334
f 1331 1332 1336 1335
f 1332 1329 1333 1336
v -182.444 0.875 -259.510
v -168.825 0.875 -238.832
v -183.616 0.875 -229.090
v -197.235 0.875 -249.768
v -182.444 4.775 -259.510
v -168.825 4.775 -238.832
v -183.616 4.775 -229.090
v -197.235 4.775 -249.768
f 1344 1343 1342 1341
f 1337 1338 1342 1341
f 1338 1339 1343 1342
f 1339 1340 1344 1343
f 1340 1337 1341 1344
v -255.280 1.429 -255.328
v -238.091 1.429 -262.058
v -231.080 1.429 -244.152
v -248.269 1.429 -237.422
v -255.280 5.329 -255.328
v -238.091 5.329 -262.058
v -231.080 5.329 -244.152
v -248.269 5.329 -237.422
f 1352 1351 1350 1349
f 1345 1346 1350 1349
f 1346 1347 1351 1350
f 1347 1348 1352 1351
f 1348 1345 1349 1352
v -218.145 1.290 -234.388
v -207.138 1.290 -221.198
v -217.595 1.290 -212.472
v -228.602 1.290 -225.662
v -218.145 5.190 -234.388
v -207.138 5.190 -221.198
v -217.595 5.190 -212.472
v -228.602 5.190 -225.662
f 1360 1359 1358 1357
f 1353 1354 1358 1357
f 1354 1355 1359 1358
f 1355 1356 1360 1359
f 1356 1353 1357 1360
v -242.259 1.117 -230.260
v -236.082 1.117 -229.617
v -236.721 1.117 -223.480
v -242.898 1.117 -224.123
v -242.259 5.017 -230.260
v -236.082 5.017 -229.617
v -236.721 5.017 -223.480
v -242.898 5.017 -224.123
f 1368 1367 1366 1365
f 1361 1362 1366 1365
f 1362 1363 1367 1366
f 1363 1364 1368 1367
f 1364 1361 1365 1368
v -242.304 1.507 -209.661
v -225.871 1.507 -195.876
v -235.196 1.507 -184.759
v -251.629 1.507 -198.544
v -242.304 5.407 -209.661
v -225.871 5.407 -195.876
v -235.196 5.407 -184.759
v -251.629 5.407 -198.544
f 1376 1375 1374 1373
f 1369 1370 1374 1373
f 1370 1371 1375 1374
f 1371 1372 1376 1375
f 1372 1369 1373 1376
v -251.103 1.192 -219.322
v -235.619 1.192 -207.305
v -241.757 1.192 -199.398
v -257.241 1.192 -211.415
v -251.103 5.092 -219.322
v -235.619 5.092 -207.305
v -241.757 5.092 -199.398
v -257.241 5.092 -211.415
f 1384 1383 1382 1381
f 1377 1378 1382 1381
f 1378 1379 1383 1382
f 1379 1380 1384 1383
f 1380 1377 1381 1384
v -254.577 1.096 -234.126
v -248.526 1.096 -244.697
v -242.443 1.096 -241.214
v -248.494 1.096 -230.643
v -254.577 4.996 -234.126
v -248.526 4.996 -244.697
v -242.443 4.996 -241.214
v -248.494 4.996 -230.643
f 1392 1391 1390 1389
f 1385 1386 1390 1389
f 1386 1387 1391 1390
f 1387 1388 1392 1391
f 1388 1385 1389 1392
v -254.847 1.077 -231.429
v -240.025 1.077 -220.408
v -246.953 1.077 -211.091
v -261.775 1.077 -222.112
v -254.847 4.977 -231.429
v -240.025 4.977 -220.408
v -246.953 4.977 -211.091
v -261.775 4.977 -222.112
f 1400 1399 1398 1397
f 1393 1394 1398 1397
f 1394 1395 1399 1398
f 1395 1396 1400 1399
f 1396 1393 1397 1400
v -91.966 1.122 -125.718
v -86.895 1.122 -146.859
v -69.314 1.122 -142.642
v -74.385 1.122 -121.501
v -91.966 5.022 -125.718
v -86.895 5.022 -146.859
v -69.314 5.022 -142.642
v -74.385 5.022 -121.501
f 1408 1407 1406 1405
f 1401 1402 1406 1405
f 1402 1403 1407 1406
f 1403 1404 1408 1407
f 1404 1401 1405 1408
v -99.177 0.832 -137.770
v -81.837 0.832 -118.639
v -94.203 0.832 -107.430
v -111.543 0.832 -126.561
v -99.177 4.732 -137.770
v -81.837 4.732 -118.639
v -94.203 4.732 -107.430
v -111.543 4.732 -126.561
f 1416 1415 1414 1413
f 1409 1410 1414 1413
f 1410 1411 1415 1414
f 1411 1412 1416 1415
f 1412 1409 1413 1416
v -116.169 0.917 -124.195
v -112.599 0.917 -129.674
v -108.871 0.917 -127.245
v -112.441 0.917 -121.766
v -116.169 4.817 -124.195
v -112.599 4.817 -129.674
v -108.871 4.817 -127.245
v -112.441 4.817 -121.766
f 1424 1423 1422 1421
f 1417 1418 1422 1421
f 1418 1419 1423 1422
f 1419 1420 1424 1423
f 1420 1417 1421 1424
v -104.658 0.763 -150.864
v -98.812 0.763 -144.007
v -105.722 0.763 -138.116
v -111.568 0.763 -144.973
v -104.658 4.663 -150.864
v -98.812 4.663 -144.007
v -105.722 4.663 -138.116
v -111.568 4.663 -144.973
f 1432 1431 1430 1429
f 1425 1426 1430 1429
f 1426 1427 1431 1430
f 1427 1428 1432 1431
f 1428 1425 1429 1432
v -119.582 1.046 -173.561
v -86.270 1.046 -169.919
v -88.478 1.046 -149.719
v -121.790 1.046 -153.361
v -119.582 4.946 -173.561
v -86.270 4.946 -169.919
v -88.478 4.946 -149.719
v -121.790 4.946 -153.361
f 1440 1439 1438 1437
f 1433 1434 1438 1437
f 1434 1435 1439 1438
f 1435 1436 1440 1439
f 1436 1433 1437 1440
v -129.387 1.052 -140.291
v -122.021 1.052 -155.401
v -110.713 1.052 -149.889
v -118.079 1.052 -134.779
v -129.387 4.952 -140.291
v -122.021 4.952 -155.401
v -110.713 4.952 -149.889
v -118.079 4.952 -134.779
f 1448 1447 1446 1445
f 1441 1442 1446 1445
f 1442 1443 1447 1446
f 1443 1444 1448 1447
f 1444 1441 1445 1448
v -126.357 1.078 -106.972
v -113.501 1.078 -119.514
v -103.543 1.078 -109.308
v -116.399 1.078 -96.766
v -126.357 4.978 -106.972
v -113.501 4.978 -119.514
v -103.543 4.978 -109.308
v -116.399 4.978 -96.766
f 1456 1455 1454 1453
f 1449 1450 1454 1453
f 1450 1451 1455 1454
f 1451 1452 1456 1455
f 1452 1449 1453 1456
v -141.216 0.751 -93.345
v -137.501 0.751 -109.483
v -121.304 0.751 -105.755
v -125.019 0.751 -89.617
v -141.216 4.651 -93.345
v -137.501 4.651 -109.483
v -121.304 4.651 -105.755
v -125.019 4.651 -89.617
f 1464 1463 1462 1461
f 1457 1458 1462 1461
f 1458 1459 1463 1462
f 1459 1460 1464 1463
f 1460 1457 1461 1464
v -156.479 0.903 -99.390
v -135.483 0.903 -88.789
v -142.501 0.903 -74.890
v -163.497 0.903 -85.491
v -156.479 4.803 -99.390
v -135.483 4.803 -88.789
v -142.501 4.803 -74.890
v -163.497 4.803 -85.491
f 1472 1471 1470 1469
f 1465 1466 1470 1469
f 1466 1467 1471 1470
f 1467 1468 1472 1471
f 1468 1465 1469 1472
v -168.817 0.840 -81.822
v -164.544 0.840 -88.288
v -160.323 0.840 -85.498
v -164.596 0.840 -79.032
v -168.817 4.740 -81.822
v -164.544 4.740 -88.288
v -160.323 4.740 -85.498
v -164.596 4.740 -79.032
f 1480 1479 1478 1477
f 1473 1474 1478 1477
f 1474 1475 1479 1478
f 1475 1476 1480 1479
f 1476 1473 1477 1480
v -185.971 0.980 -99.175
v -174.421 0.980 -115.097
v -166.189 0.980 -109.125
v -177.739 0.980 -93.203
v -185.971 4.880 -99.175
v -174.421 4.880 -115.097
v -166.189 4.880 -109.125
v -177.739 4.880 -93.203
f 1488 1487 1486 1485
f 1481 1482 1486 1485
f 1482 1483 1487 1486
f 1483 1484 1488 1487
f 1484 1481 1485 1488
v -167.583 0.545 -125.482
v -153.390 0.545 -118.913
v -159.997 0.545 -104.638
v -174.190 0.545 -111.207
v -167.583 4.445 -125.482
v -153.390 4.445 -118.913
v -159.997 4.445 -104.638
v -174.190 4.445 -111.207
f 1496 1495 1494 1493
f 1489 1490 1494 1493
f 1490 1491 1495 1494
f 1491 1492 1496 1495
f 1492 1489 1493 1496
v -151.773 0.722 -113.378
v -147.744 0.722 -113.352
v -147.767 0.722 -109.782
v -151.796 0.722 -109.808
v -151.773 4.622 -113.378
v -147.744 4.622 -113.352
v -147.767 4.622 -109.782
v -151.796 4.622 -109.808
f 1504 1503 1502 1501
f 1497 1498 1502 1501
f 1498 1499 1503 1502
f 1499 1500 1504 1503
f 1500 1497 1501 1504
v -157.812 0.831 -123.462
v -150.080 0.831 -134.868
v -139.708 0.831 -127.838
v -147.440 0.831 -116.432
v -157.812 4.731 -123.462
v -150.080 4.731 -134.868
v -139.708 4.731 -127.838
v -147.440 4.731 -116.432
f 1512 1511 1510 1509
f 1505 1506 1510 1509
f 1506 1507 1511 1510
f 1507 1508 1512 1511
f 1508 1505 1509 1512
v -133.471 0.792 -121.711
v -129.023 0.792 -127.348
v -126.009 0.792 -124.969
v -130.457 0.792 -119.332
v -133.471 4.692 -121.711
v -129.023 4.692 -127.348
v -126.009 4.692 -124.969
v -130.457 4.692 -119.332
f 1520 1519 1518 1517
f 1513 1514 1518 1517
f 1514 1515 1519 1518
f 1515 1516 1520 1519
f 1516 1513 1517 1520
v -259.380 1.360 160.622
v -245.117 1.360 167.350
v -249.140 1.360 175.878
v -263.403 1.360 169.150
v -259.380 5.260 160.622
v -245.117 5.260 167.350
v -249.140 5.260 175.878
v -263.403 5.260 169.150
f 1528 1527 1526 1525
f 1521 1522 1526 1525
f 1522 1523 1527 1526
f 1523 1524 1528 1527
f 1524 1521 1525 1528
v -258.320 1.293 173.051
v -249.313 1.293 179.573
v -252.380 1.293 183.809
v -261.387 1.293 177.287
v -258.320 5.193 173.051
v -249.313 5.193 179.573
v -252.380 5.193 183.809
v -261.387 5.193 177.287
f 1536 1535 1534 1533
f 1529 1530 1534 1533
f 1530 1531 1535 1534
f 1531 1532 1536 1535
f 1532 1529 1533 1536
v -247.360 1.319 169.475
v -243.534 1.319 172.306
v -246.300 1.319 176.045
v -250.126 1.319 173.214
v -247.360 5.219 169.475
v -243.534 5.219 172.306
v -246.300 5.219 176.045
v -250.126 5.219 173.214
f 1544 1543 1542 1541
f 1537 1538 1542 1541
f 1538 1539 1543 1542
f 1539 1540 1544 1543
f 1540 1537 1541 1544
v 45.597 0.793 156.077
v 49.981 0.793 157.138
v 49.103 0.793 160.763
v 44.719 0.793 159.702
v 45.597 4.693 156.077
v 49.981 4.693 157.138
v 49.103 4.693 160.763
v 44.719 4.693 159.702
f 1552 1551 1550 1549
f 1545 1546 1550 1549
f 1546 1547 1551 1550
f 1547 1548 1552 1551
f 1548 1545 1549 1552
v 53.373 0.764 154.769
v 57.591 0.764 155.606
v 56.827 0.764 159.451
v 52.609 0.764 158.614
v 53.373 4.664 154.769
v 57.591 4.664 155.606
v 56.827 4.664 159.451
v 52.609 4.664 158.614
f 1560 1559 1558 1557
f 1553 1554 1558 1557
f 1554 1555 1559 1558
f 1555 1556 1560 1559
f 1556 1553 1557 1560
v 60.862 0.755 153.216
v 65.440 0.755 154.190
v 64.718 0.755 157.584
v 60.140 0.755 156.610
v 60.862 4.655 153.216
v 65.440 4.655 154.190
v 64.718 4.655 157.584
v 60.140 4.655 156.610
f 1568 1567 1566 1565
f 1561 1562 1566 1565
f 1562 1563 1567 1566
f 1563 1564 1568 1567
f 1564 1561 1565 1568
v 68.792 0.712 151.653
v 73.394 0.712 152.698
v 72.588 0.712 156.247
v 67.986 0.712 155.202
v 68.792 4.612 151.653
v 73.394 4.612 152.698
v 72.588 4.612 156.247
v 67.986 4.612 155.202
f 1576 1575 1574 1573
f 1569 1570 1574 1573
f 1570 1571 1575 1574
f 1571 1572 1576 1575
f 1572 1569 1573 1576
v 84.630 0.750 148.080
v 89.148 0.750 149.376
v 88.110 0.750 153.000
v 83.592 0.750 151.704
v 84.630 4.650 148.080
v 89.148 4.650 149.376
v 88.110 4.650 153.000
v 83.592 4.650 151.704
f 1584 1583 1582 1581
f 1577 1578 1582 1581
f 1578 1579 1583 1582
f 1579 1580 1584 1583
f 1580 1577 1581 1584
v 130.942 0.350 51.269
v 139.608 0.350 57.714
v 136.338 0.350 62.111
v 127.672 0.350 55.666
v 130.942 4.250 51.269
v 139.608 4.250 57.714
v 136.338 4.250 62.111
v 127.672 4.250 55.666
f 1592 1591 1590 1589
f 1585 1586 1590 1589
f 1586 1587 1591 1590
f 1587 1588 1592 1591
f 1588 1585 1589 1592
v 18.175 1.069 157.366
v 31.858 1.069 158.500
v 31.225 1.069 166.134
v 17.542 1.069 165.000
v 18.175 4.969 157.366
v 31.858 4.969 158.500
v 31.225 4.969 166.134
v 17.542 4.969 165.000
f 1600 1599 1598 1597
f 1593 1594 1598 1597
f 1594 1595 1599 1598
f 1595 1596 1600 1599
f 1596 1593 1597 1600
v -71.394 0.867 180.148
v -70.920 0.867 176.085
v -67.086 0.867 176.532
v -67.560 0.867 180.595
v -71.394 7.667 180.148
v -70.920 7.667 176.085
v -67.086 7.667 176.532
v -67.560 7.667 180.595
f 1608 1607 1606 1605
f 1601 1602 1606 1605
f 1602 1603 1607 1606
f 1603 1604 1608 1607
f 1604 1601 1605 1608
v -65.254 0.928 179.482
v -64.836 0.928 175.464
v -61.046 0.928 175.858
v -61.464 0.928 179.876
v -65.254 7.728 179.482
v -64.836 7.728 175.464
v -61.046 7.728 175.858
v -61.464 7.728 179.876
f 1616 1615 1614 1613
f 1609 1610 1614 1613
f 1610 1611 1615 1614
f 1611 1612 1616 1615
f 1612 1609 1613 1616
v -110.709 0.632 181.426
v -106.861 0.632 182.840
v -108.071 0.632 186.134
v -111.919 0.632 184.720
v -110.709 4.532 181.426
v -106.861 4.532 182.840
v -108.071 4.532 186.134
v -111.919 4.532 184.720
f 1624 1623 1622 1621
f 1617 1618 1622 1621
f 1618 1619 1623 1622
f 1619 1620 1624 1623
f 1620 1617 1621 1624
usemtl road
v -248.545 1.417 30.848
v -239.185 1.395 24.608
v -242.235 1.436 20.032
v -251.595 1.470 26.272
f 1625 1626 1627 1628
v -247.824 1.174 -171.214
v -207.684 1.076 -112.164
v -203.136 1.039 -115.256
v -243.276 1.172 -174.306
f 1629 1630 1631 1632
v -207.707 1.077 -112.197
v -165.797 1.386 -48.567
v -161.203 1.360 -51.593
v -203.113 1.039 -115.223
f 1633 1634 1635 1636
v -165.743 1.387 -48.488
v -144.673 1.238 -18.798
v -140.187 1.276 -21.982
v -161.257 1.358 -51.672
f 1637 1638 1639 1640
v -144.672 1.238 -18.798
v -119.402 1.377 16.792
v -114.918 1.373 13.608
v -140.188 1.276 -21.982
f 1641 1642 1643 1644
v -119.436 1.377 16.743
v -76.586 0.921 79.973
v -72.034 0.916 76.887
v -114.884 1.372 13.657
f 1645 1646 1647 1648
v 138.666 0.939 -87.083
v 206.196 0.627 -133.443
v 203.084 0.664 -137.977
v 135.554 0.963 -91.617
f 1649 1650 1651 1652
v 206.161 0.627 -133.419
v 231.101 0.691 -149.969
v 228.059 0.634 -154.551
v 203.119 0.664 -138.001
f 1653 1654 1655 1656
v -132.756 0.704 170.372
v -135.506 0.616 170.282
v -135.734 0.513 177.278
v -132.984 0.546 177.368
f 1657 1658 1659 1660
v -134.113 0.657 170.621
v -139.123 0.534 168.231
v -142.137 0.477 174.549
v -137.127 0.503 176.939
f 1661 1662 1663 1664
v -138.403 0.544 168.690
v -142.453 0.540 165.350
v -146.907 0.500 170.750
v -142.857 0.479 174.090
f 1665 1666 1667 1668
v -141.832 0.543 166.015
v -162.922 0.735 136.505
v -168.618 0.671 140.575
v -147.528 0.507 170.085
f 1669 1670 1671 1672
v -162.812 0.733 136.670
v -192.972 0.894 88.970
v -198.888 0.903 92.710
v -168.728 0.671 140.410
f 1673 1674 1675 1676
v -192.971 0.894 88.970
v -202.761 0.970 73.480
v -208.679 1.040 77.220
v -198.889 0.903 92.710
f 1677 1678 1679 1680
v -202.801 0.970 73.419
v -204.481 0.989 70.879
v -210.319 1.045 74.741
v -208.639 1.039 77.281
f 1681 1682 1683 1684
v -204.469 0.989 70.897
v -205.729 0.988 68.967
v -211.591 1.061 72.793
v -210.331 1.046 74.723
f 1685 1686 1687 1688
v -205.741 0.988 68.949
v -208.851 1.018 64.249
v -214.689 1.099 68.111
v -211.579 1.061 72.811
f 1689 1690 1691 1692
v -208.849 1.018 64.252
v -237.789 1.244 20.392
v -243.631 1.481 24.248
v -214.691 1.099 68.108
f 1693 1694 1695 1696
v 258.279 0.501 -61.254
v 248.189 0.421 -76.189
v 243.631 0.497 -73.111
v 253.721 0.583 -58.175
f 1697 1698 1699 1700
v 248.188 0.421 -76.190
v 206.918 0.634 -137.250
v 202.362 0.637 -134.170
v 243.632 0.497 -73.110
f 1701 1702 1703 1704
v 147.776 0.897 -73.992
v 33.876 0.837 0.448
v 36.884 0.787 5.052
v 150.784 0.886 -69.388
f 1705 1706 1707 1708
v 33.818 0.837 0.486
v -75.872 0.932 76.166
v -72.748 0.870 80.694
v 36.942 0.787 5.014
f 1709 1710 1711 1712
v -75.820 0.932 76.132
v -101.520 0.855 93.022
v -98.500 0.887 97.618
v -72.800 0.869 80.728
f 1713 1714 1715 1716
v -101.520 0.855 93.022
v -160.640 0.730 131.872
v -157.620 0.748 136.468
v -98.500 0.887 97.618
f 1717 1718 1719 1720
v -160.642 0.730 131.873
v -167.282 0.694 136.243
v -164.258 0.699 140.837
v -157.618 0.748 136.467
f 1721 1722 1723 1724
v -139.638 1.089 -247.045
v -100.298 0.987 -188.035
v -95.722 0.961 -191.085
v -135.062 1.086 -250.095
f 1725 1726 1727 1728
v -100.303 0.987 -188.041
v -99.283 1.008 -186.501
v -94.697 0.994 -189.539
v -95.717 0.961 -191.079
f 1729 1730 1731 1732
v -99.264 1.009 -186.473
v -89.814 0.973 -172.583
v -85.266 0.930 -175.677
v -94.716 0.993 -189.567
f 1733 1734 1735 1736
v -89.815 0.973 -172.584
v -56.565 1.285 -123.654
v -52.015 1.289 -126.746
v -85.265 0.930 -175.676
f 1737 1738 1739 1740
v -56.549 1.286 -123.632
v -36.029 1.193 -94.072
v -31.511 1.189 -97.208
v -52.031 1.289 -126.768
f 1741 1742 1743 1744
v -35.966 1.193 -93.984
v -27.866 1.235 -83.244
v -23.474 1.138 -86.556
v -31.574 1.190 -97.296
f 1745 1746 1747 1748
v -27.979 1.234 -83.406
v -10.909 1.224 -57.036
v -6.291 1.189 -60.024
v -23.361 1.138 -86.394
f 1749 1750 1751 1752
v -10.834 1.222 -56.927
v 33.146 0.853 4.353
v 37.614 0.839 1.147
v -6.366 1.190 -60.133
f 1753 1754 1755 1756
v 188.362 0.830 -207.495
v 227.312 0.638 -150.705
v 231.848 0.661 -153.815
v 192.898 0.804 -210.605
f 1757 1758 1759 1760
v 254.458 0.791 -255.581
v 189.088 0.787 -211.327
v 192.172 0.812 -206.773
v 257.542 0.820 -251.026
f 1761 1762 1763 1764
v 189.072 0.787 -211.316
v 97.372 1.166 -148.266
v 100.488 1.158 -143.734
v 192.188 0.812 -206.784
f 1765 1766 1767 1768
v -243.972 1.186 -170.508
v -135.772 1.067 -246.318
v -138.928 1.111 -250.822
v -247.128 1.213 -175.012
f 1769 1770 1771 1772
v 103.886 1.135 -138.245
v 81.006 0.973 -122.715
v 84.094 0.935 -118.165
v 106.974 1.126 -133.695
f 1773 1774 1775 1776
v 81.005 0.973 -122.715
v 61.855 1.009 -109.705
v 64.945 0.955 -105.155
v 84.095 0.935 -118.165
f 1777 1778 1779 1780
v 61.855 1.009 -109.705
v 38.105 1.050 -93.575
v 41.195 0.984 -89.025
v 64.945 0.955 -105.155
f 1781 1782 1783 1784
v 38.105 1.050 -93.575
v -10.145 1.208 -60.805
v -7.055 1.192 -56.255
v 41.195 0.984 -89.025
f 1785 1786 1787 1788
v -10.145 1.208 -60.805
v -36.815 1.127 -42.695
v -33.725 1.088 -38.145
v -7.055 1.192 -56.255
f 1789 1790 1791 1792
v -36.816 1.127 -42.694
v -55.886 1.159 -29.734
v -52.794 1.163 -25.186
v -33.724 1.088 -38.146
f 1793 1794 1795 1796
v -55.885 1.159 -29.735
v -80.015 1.195 -13.355
v -76.925 1.135 -8.805
v -52.795 1.163 -25.185
f 1797 1798 1799 1800
v -80.015 1.195 -13.355
v -118.705 1.397 12.925
v -115.615 1.334 17.475
v -76.925 1.135 -8.805
f 1801 1802 1803 1804
v -118.707 1.397 12.927
v -126.097 1.272 17.957
v -123.003 1.223 22.503
v -115.613 1.334 17.473
f 1805 1806 1807 1808
v -126.095 1.272 17.955
v -197.735 1.031 66.595
v -194.645 1.000 71.145
v -123.005 1.223 22.505
f 1809 1810 1811 1812
v -197.736 1.031 66.596
v -207.266 1.039 73.076
v -204.174 1.002 77.624
v -194.644 1.000 71.144
f 1813 1814 1815 1816
v 258.894 0.724 84.003
v 225.044 0.767 34.251
v 219.256 0.782 38.189
v 253.106 0.787 87.940
f 1817 1818 1819 1820
v 225.063 0.767 34.280
v 203.223 0.681 1.490
v 197.397 0.765 5.370
v 219.237 0.782 38.160
f 1821 1822 1823 1824
v 203.205 0.681 1.463
v 152.175 0.759 -73.657
v 146.385 0.864 -69.723
v 197.415 0.765 5.397
f 1825 1826 1827 1828
v 152.162 0.759 -73.676
v 139.992 0.841 -91.336
v 134.228 0.904 -87.364
v 146.398 0.864 -69.704
f 1829 1830 1831 1832
v 140.005 0.840 -91.317
v 108.325 1.006 -137.937
v 102.535 1.127 -134.003
v 134.215 0.904 -87.383
f 1833 1834 1835 1836
v 108.367 1.006 -137.873
v 101.867 1.070 -147.903
v 95.993 1.128 -144.097
v 102.493 1.127 -134.067
f 1837 1838 1839 1840
v 101.808 1.071 -147.992
v 80.908 1.125 -178.192
v 75.152 1.176 -174.208
v 96.052 1.128 -144.008
f 1841 1842 1843 1844
v 80.908 1.125 -178.192
v 63.118 1.226 -203.892
v 57.362 1.192 -199.908
v 75.152 1.176 -174.208
f 1845 1846 1847 1848
v -245.778 1.472 8.823
v -252.448 1.369 -1.067
v -258.252 1.324 2.847
v -251.582 1.432 12.737
f 1849 1850 1851 1852
v 254.530 0.764 107.694
v 247.550 0.870 110.923
v 250.490 0.850 117.277
v 257.470 0.769 114.047
f 1853 1854 1855 1856
v 247.909 0.870 110.781
v 235.539 0.952 114.921
v 237.761 0.926 121.559
v 250.131 0.852 117.419
f 1857 1858 1859 1860
v 235.671 0.951 114.880
v 192.091 1.046 127.580
v 194.049 0.936 134.300
v 237.629 0.927 121.600
f 1861 1862 1863 1864
v 192.765 1.045 127.453
v 171.595 1.052 129.303
v 172.205 0.990 136.277
v 193.375 0.929 134.427
f 1865 1866 1867 1868
v 170.950 1.056 129.421
v 148.820 1.019 135.661
v 150.720 1.070 142.399
v 172.850 0.994 136.159
f 1869 1870 1871 1872
v 149.504 1.019 135.540
v 137.034 0.948 136.490
v 137.566 0.988 143.470
v 150.036 1.076 142.520
f 1873 1874 1875 1876
v 137.037 0.949 136.490
v 127.877 0.938 137.180
v 128.403 0.977 144.160
v 137.563 0.988 143.470
f 1877 1878 1879 1880
v 128.358 0.939 137.177
v 104.978 0.938 135.717
v 104.542 0.919 142.703
v 127.922 0.974 144.163
f 1881 1882 1883 1884
v 105.286 0.937 135.750
v 92.976 0.921 133.880
v 91.924 0.915 140.800
v 104.234 0.920 142.670
f 1885 1886 1887 1888
v 92.977 0.921 133.880
v 81.547 0.890 132.140
v 80.493 0.912 139.060
v 91.923 0.915 140.800
f 1889 1890 1891 1892
v 81.548 0.890 132.140
v 73.028 0.895 130.840
v 71.972 0.913 137.760
v 80.492 0.912 139.060
f 1893 1894 1895 1896
v 73.028 0.895 130.840
v 30.668 0.864 124.380
v 29.612 0.920 131.300
v 71.972 0.913 137.760
f 1897 1898 1899 1900
v 30.669 0.864 124.380
v 24.459 0.885 123.430
v 23.401 0.852 130.350
v 29.611 0.920 131.300
f 1901 1902 1903 1904
v 24.457 0.885 123.430
v -1.063 0.891 119.540
v -2.117 0.822 126.460
v 23.403 0.852 130.350
f 1905 1906 1907 1908
v -1.070 0.891 119.539
v -5.400 0.891 118.889
v -6.440 0.828 125.811
v -2.110 0.822 126.461
f 1909 1910 1911 1912
v -5.658 0.893 118.860
v -18.458 0.915 117.900
v -18.982 0.830 124.880
v -6.182 0.826 125.840
f 1913 1914 1915 1916
v -19.099 0.914 117.911
v -30.579 0.920 119.161
v -29.821 0.814 126.119
v -18.341 0.834 124.869
f 1917 1918 1919 1920
v -31.068 0.920 119.249
v -34.898 0.906 120.229
v -33.162 0.822 127.011
v -29.332 0.811 126.031
f 1921 1922 1923 1924
v -34.886 0.906 120.226
v -41.226 0.910 121.826
v -39.514 0.784 128.614
v -33.174 0.822 127.014
f 1925 1926 1927 1928
v -42.082 0.907 122.167
v -54.472 0.935 129.117
v -51.048 0.786 135.223
v -38.658 0.790 128.273
f 1929 1930 1931 1932
v -54.632 0.934 129.213
v -80.092 0.999 145.333
v -76.348 0.862 151.247
v -50.888 0.785 135.127
f 1933 1934 1935 1936
v -80.055 0.999 145.310
v -99.205 1.066 157.100
v -95.535 0.961 163.060
v -76.385 0.862 151.270
f 1937 1938 1939 1940
v -98.975 1.065 156.970
v -115.315 0.997 165.400
v -112.105 0.795 171.620
v -95.765 0.962 163.190
f 1941 1942 1943 1944
v -114.795 1.000 165.183
v -121.355 0.949 167.323
v -119.185 0.689 173.977
v -112.625 0.782 171.837
f 1945 1946 1947 1948
v -121.363 0.949 167.325
v -129.363 0.777 169.955
v -127.177 0.580 176.605
v -119.177 0.689 173.975
f 1949 1950 1951 1952
v -128.715 0.790 169.808
v -133.315 0.687 170.398
v -132.425 0.552 177.342
v -127.825 0.576 176.752
f 1953 1954 1955 1956
v 63.152 1.226 -203.842
v 52.162 1.149 -220.322
v 46.338 1.211 -216.438
v 57.328 1.193 -199.958
f 1957 1958 1959 1960
v 52.159 1.150 -220.326
v 48.849 1.167 -225.276
v 43.031 1.222 -221.384
v 46.341 1.211 -216.434
f 1961 1962 1963 1964
v 48.850 1.167 -225.275
v 43.510 1.202 -233.265
v 37.690 1.241 -229.375
v 43.030 1.222 -221.385
f 1965 1966 1967 1968
v 43.512 1.202 -233.262
v 27.052 1.222 -257.942
v 21.228 1.276 -254.058
v 37.688 1.241 -229.378
f 1969 1970 1971 1972
v 136.415 1.153 -258.642
v 120.575 1.090 -247.732
v 124.545 1.116 -241.968
v 140.385 1.120 -252.878
f 1973 1974 1975 1976
v 120.575 1.090 -247.733
v 110.145 1.069 -240.553
v 114.115 1.061 -234.787
v 124.545 1.116 -241.967
f 1977 1978 1979 1980
v 110.143 1.069 -240.552
v 93.303 1.012 -228.942
v 97.277 0.997 -223.178
v 114.117 1.061 -234.788
f 1981 1982 1983 1984
v 93.304 1.012 -228.942
v 58.254 1.273 -204.782
v 62.226 1.197 -199.018
v 97.276 0.997 -223.178
f 1985 1986 1987 1988
v 58.252 1.273 -204.781
v 0.472 1.204 -164.911
v 4.448 1.162 -159.149
v 62.228 1.197 -199.019
f 1989 1990 1991 1992
v 0.472 1.204 -164.911
v -8.078 1.211 -159.011
v -4.102 1.147 -153.249
v 4.448 1.162 -159.149
f 1993 1994 1995 1996
v -8.076 1.211 -159.012
v -24.676 1.203 -147.572
v -20.704 1.169 -141.808
v -4.104 1.147 -153.248
f 1997 1998 1999 2000
v -24.528 1.202 -147.669
v -35.808 1.224 -140.709
v -32.132 1.185 -134.751
v -20.852 1.168 -141.711
f 2001 2002 2003 2004
v -35.807 1.224 -140.709
v -56.127 1.193 -128.179
v -52.453 1.263 -122.221
v -32.133 1.185 -134.751
f 2005 2006 2007 2008
v -56.274 1.193 -128.084
v -101.254 1.255 -97.144
v -97.286 1.304 -91.376
v -52.306 1.263 -122.316
f 2009 2010 2011 2012
v -101.254 1.255 -97.144
v -165.484 1.289 -52.964
v -161.516 1.364 -47.196
v -97.286 1.304 -91.376
f 2013 2014 2015 2016
v -165.533 1.289 -52.929
v -187.113 1.336 -37.529
v -183.047 1.350 -31.831
v -161.467 1.363 -47.231
f 2017 2018 2019 2020
v -187.128 1.335 -37.519
v -242.288 1.501 2.271
v -238.192 1.423 7.949
v -183.032 1.350 -31.841
f 2021 2022 2023 2024
v -242.192 1.501 2.205
v -250.632 1.487 7.875
v -246.728 1.500 13.685
v -238.288 1.424 8.015
f 2025 2026 2027 2028
v -236.344 1.118 -89.152
v -203.854 1.027 -111.442
v -206.966 1.074 -115.978
v -239.456 1.156 -93.688
f 2029 2030 2031 2032
v -203.855 1.027 -111.442
v -95.435 1.013 -185.752
v -98.545 0.973 -190.288
v -206.965 1.074 -115.978
f 2033 2034 2035 2036
v -95.454 1.013 -185.739
v -57.094 1.190 -211.559
v -60.166 1.107 -216.121
v -98.526 0.973 -190.301
f 2037 2038 2039 2040
v -57.095 1.190 -211.558
v -44.165 1.129 -220.258
v -47.235 1.140 -224.822
v -60.165 1.107 -216.122
f 2041 2042 2043 2044
v -44.175 1.128 -220.252
v -28.485 1.236 -230.712
v -31.535 1.154 -235.288
v -47.225 1.140 -224.828
f 2045 2046 2047 2048
v -28.521 1.236 -230.688
v -13.061 1.221 -240.648
v -16.039 1.182 -245.272
v -31.499 1.154 -235.312
f 2049 2050 2051 2052
v -13.025 1.219 -240.672
v 6.541 1.165 -253.712
v 3.491 1.133 -258.288
v -16.075 1.182 -245.248
f 2053 2054 2055 2056
v -237.830 1.247 20.331
v -245.800 1.472 8.791
v -251.560 1.432 12.769
v -243.590 1.481 24.309
f 2057 2058 2059 2060
v 256.728 0.742 23.003
v 235.938 0.623 -9.767
v 232.982 0.638 -7.893
v 253.772 0.761 24.877
f 2061 2062 2063 2064
v 235.421 0.625 -10.293
v 230.121 0.667 -13.773
v 228.199 0.674 -10.847
v 233.499 0.640 -7.367
f 2065 2066 2067 2068
v 229.058 0.672 -14.057
v 221.848 0.680 -13.637
v 222.052 0.683 -10.143
v 229.262 0.666 -10.563
f 2069 2070 2071 2072
v 220.935 0.680 -13.316
v 210.275 0.632 -5.726
v 212.305 0.687 -2.874
v 222.965 0.686 -10.464
f 2073 2074 2075 2076
v 210.283 0.632 -5.731
v 199.303 0.803 1.999
v 201.317 0.807 4.861
v 212.297 0.687 -2.869
f 2077 2078 2079 2080
v 209.845 0.644 -3.312
v 254.555 0.704 62.083
v 257.445 0.743 60.108
v 212.735 0.665 -5.288
f 2081 2082 2083 2084
v -3.331 0.896 123.178
v -1.221 1.117 143.788
v 2.261 1.084 143.432
v 0.151 0.908 122.822
f 2085 2086 2087 2088
v -1.091 1.126 144.293
v 1.629 1.152 150.713
v 4.851 1.135 149.347
v 2.131 1.080 142.927
f 2089 2090 2091 2092
v 2.398 1.130 151.564
v 7.448 1.179 154.334
v 9.132 1.104 151.266
v 4.082 1.134 148.496
f 2093 2094 2095 2096
v 8.278 1.255 154.550
v 15.638 1.175 154.600
v 15.662 1.103 151.100
v 8.302 1.047 151.050
f 2097 2098 2099 2100
v 15.987 1.173 154.567
v 33.377 1.118 151.157
v 32.703 1.072 147.723
v 15.313 1.103 151.133
f 2101 2102 2103 2104
v 33.378 1.118 151.157
v 68.038 1.056 144.337
v 67.362 1.002 140.903
v 32.702 1.072 147.723
f 2105 2106 2107 2108
v 68.706 1.052 144.052
v 71.936 1.011 141.782
v 69.924 0.941 138.918
v 66.694 1.006 141.188
f 2109 2110 2111 2112
v 72.624 0.985 140.790
v 74.194 0.898 134.740
v 70.806 0.905 133.860
v 69.236 0.971 139.910
f 2113 2114 2115 2116
v 74.155 0.907 133.732
v 69.475 0.751 120.102
v 66.165 0.751 121.238
v 70.845 0.899 134.868
f 2117 2118 2119 2120
v 69.291 0.748 119.722
v 63.361 0.631 110.522
v 60.419 0.655 112.418
v 66.349 0.755 121.618
f 2121 2122 2123 2124
v 62.674 0.632 109.905
v 58.084 0.659 107.605
v 56.516 0.690 110.735
v 61.106 0.652 113.035
f 2125 2126 2127 2128
v 57.312 0.672 107.420
v 54.482 0.703 107.400
v 54.458 0.711 110.900
v 57.288 0.683 110.920
f 2129 2130 2131 2132
v 54.479 0.703 107.400
v 50.419 0.728 107.380
v 50.401 0.738 110.880
v 54.461 0.710 110.900
f 2133 2134 2135 2136
v 49.850 0.727 107.472
v 25.880 0.807 115.572
v 27.000 0.813 118.888
v 50.970 0.744 110.788
f 2137 2138 2139 2140
v 25.025 0.810 116.201
v 22.705 0.810 119.391
v 25.535 0.835 121.449
v 27.855 0.803 118.259
f 2141 2142 2143 2144
v 22.371 0.823 120.369
v 22.181 0.902 126.839
v 25.679 0.897 126.941
v 25.869 0.822 120.471
f 2145 2146 2147 2148
v -35.778 0.841 123.696
v -35.458 0.957 131.066
v -31.962 0.986 130.914
v -32.282 0.819 123.544
f 2149 2150 2151 2152
v -35.458 0.957 131.063
v -34.828 1.145 146.243
v -31.332 1.154 146.097
v -31.962 0.986 130.917
f 2153 2154 2155 2156
v -34.556 1.138 145.229
v -36.876 1.164 148.869
v -33.924 1.186 150.751
v -31.604 1.164 147.111
f 2157 2158 2159 2160
v -35.703 1.156 148.086
v -40.773 1.156 148.976
v -40.167 1.200 152.424
v -35.097 1.193 151.534
f 2161 2162 2163 2164
v -40.715 1.156 148.967
v -65.585 0.983 152.487
v -65.095 1.082 155.953
v -40.225 1.200 152.433
f 2165 2166 2167 2168
v -65.126 0.994 152.483
v -72.936 0.774 151.523
v -73.364 0.859 154.997
v -65.554 1.074 155.957
f 2169 2170 2171 2172
v -71.925 0.793 152.010
v -76.995 1.020 147.040
v -79.445 1.013 149.540
v -74.375 0.808 154.510
f 2173 2174 2175 2176
v 102.774 1.229 -248.040
v 110.694 1.093 -236.670
v 113.566 1.104 -238.670
v 105.646 1.233 -250.040
f 2177 2178 2179 2180
v 113.742 1.072 -255.036
v 121.099 1.122 -243.886
v 124.021 1.124 -245.814
v 116.664 1.111 -256.964
f 2181 2182 2183 2184
v 147.048 0.987 -246.582
v 139.828 1.195 -256.772
v 136.972 1.171 -254.748
v 144.192 1.020 -244.558
f 2185 2186 2187 2188
v 106.830 1.234 -215.469
v 96.610 1.050 -227.209
v 93.970 1.048 -224.911
v 104.190 1.081 -213.171
f 2189 2190 2191 2192
v 58.919 1.470 -235.422
v 44.879 1.269 -224.722
v 47.001 1.257 -221.938
v 61.041 1.543 -232.638
f 2193 2194 2195 2196
v 38.306 1.254 -208.425
v 50.266 1.243 -216.955
v 48.234 1.247 -219.805
v 36.274 1.152 -211.275
f 2197 2198 2199 2200
v 30.905 1.151 -222.378
v 41.605 1.284 -229.888
v 39.595 1.292 -232.752
v 28.895 1.126 -225.242
f 2201 2202 2203 2204
v 15.701 1.274 -249.868
v 22.523 1.315 -254.558
v 20.540 1.324 -257.442
v 13.719 1.209 -252.752
f 2205 2206 2207 2208
v -8.417 1.248 -234.957
v -12.997 1.198 -243.767
v -16.103 1.245 -242.153
v -11.523 1.362 -233.343
f 2209 2210 2211 2212
v -24.457 1.268 -226.742
v -28.487 1.232 -233.862
v -31.533 1.221 -232.138
v -27.503 1.198 -225.018
f 2213 2214 2215 2216
v -40.976 1.087 -217.036
v -44.136 1.196 -223.326
v -47.264 1.209 -221.754
v -44.104 1.108 -215.464
f 2217 2218 2219 2220
v -50.247 1.426 -205.709
v -57.237 1.179 -214.899
v -60.023 1.172 -212.781
v -53.033 1.363 -203.591
f 2221 2222 2223 2224
v -75.833 1.274 -185.138
v -88.593 0.967 -175.528
v -86.487 0.979 -172.732
v -73.727 1.346 -182.342
f 2225 2226 2227 2228
v -45.297 1.093 -150.951
v -35.407 1.265 -136.731
v -32.533 1.255 -138.729
v -42.423 1.080 -152.949
f 2229 2230 2231 2232
v -21.050 1.219 -145.300
v -24.050 1.138 -153.370
v -27.330 1.171 -152.150
v -24.330 1.227 -144.080
f 2233 2234 2235 2236
v -23.975 1.130 -153.110
v -24.775 1.218 -157.030
v -28.205 1.197 -156.330
v -27.405 1.180 -152.410
f 2237 2238 2239 2240
v -24.925 1.214 -155.897
v -22.165 1.150 -161.417
v -25.295 1.183 -162.983
v -28.055 1.198 -157.463
f 2241 2242 2243 2244
v -23.064 1.159 -160.582
v -16.264 1.128 -163.382
v -17.596 1.112 -166.618
v -24.396 1.200 -163.818
f 2245 2246 2247 2248
v -17.624 1.136 -163.394
v -12.974 1.058 -161.384
v -11.586 1.009 -164.596
v -16.236 1.093 -166.606
f 2249 2250 2251 2252
v -13.579 1.080 -161.818
v -7.389 1.241 -154.958
v -4.791 1.252 -157.302
v -10.981 0.998 -164.162
f 2253 2254 2255 2256
v -7.377 1.196 -172.166
v 1.063 1.253 -160.976
v 3.857 1.235 -163.084
v -4.583 1.275 -174.274
f 2257 2258 2259 2260
v 68.913 1.041 -167.583
v 79.043 1.229 -174.773
v 77.017 1.234 -177.627
v 66.887 0.970 -170.437
f 2261 2262 2263 2264
v 5.258 1.416 -139.861
v -4.572 1.250 -157.001
v -7.608 1.245 -155.259
v 2.222 1.369 -138.119
f 2265 2266 2267 2268
v 74.276 1.221 -128.625
v 81.146 1.000 -119.395
v 83.954 0.992 -121.485
v 77.084 1.183 -130.715
f 2269 2270 2271 2272
v 52.875 1.263 -119.174
v 61.975 1.044 -106.414
v 64.825 1.038 -108.446
v 55.725 1.382 -121.206
f 2273 2274 2275 2276
v 30.353 1.421 -101.622
v 38.213 1.071 -90.302
v 41.087 1.075 -92.298
v 33.227 1.398 -103.618
f 2277 2278 2279 2280
v -18.591 1.328 -93.408
v -26.821 1.246 -86.218
v -24.519 1.239 -83.582
v -16.289 1.350 -90.772
f 2281 2282 2283 2284
v -46.822 1.203 -56.311
v -36.772 1.150 -39.521
v -33.768 1.144 -41.319
v -43.818 1.331 -58.109
f 2285 2286 2287 2288
v -65.555 1.401 -41.789
v -55.815 1.204 -26.519
v -52.865 1.188 -28.401
v -62.605 1.488 -43.671
f 2289 2290 2291 2292
v -89.805 1.266 -27.174
v -79.985 1.202 -10.204
v -76.955 1.202 -11.956
v -86.775 1.292 -28.926
f 2293 2294 2295 2296
v -85.843 1.493 -77.229
v -97.813 1.340 -95.229
v -100.727 1.333 -93.291
v -88.757 1.472 -75.291
f 2297 2298 2299 2300
v -41.143 1.617 -86.696
v -32.603 1.241 -94.336
v -34.937 1.253 -96.944
v -43.477 1.651 -89.304
f 2301 2302 2303 2304
v -155.291 1.390 -9.590
v -144.701 1.251 -16.740
v -146.659 1.246 -19.640
v -157.249 1.352 -12.490
f 2305 2306 2307 2308
v -144.699 1.251 -16.741
v -141.449 1.297 -18.941
v -143.411 1.291 -21.839
v -146.661 1.246 -19.639
f 2309 2310 2311 2312
v -170.392 1.522 -16.153
v -178.832 1.376 -28.593
v -181.728 1.366 -26.627
v -173.288 1.439 -14.187
f 2313 2314 2315 2316
v -178.832 1.376 -28.593
v -183.632 1.404 -35.663
v -186.528 1.388 -33.697
v -181.728 1.366 -26.627
f 2317 2318 2319 2320
v -133.466 1.231 10.745
v -129.736 1.185 15.985
v -126.884 1.176 13.955
v -130.614 1.248 8.715
f 2321 2322 2323 2324
v -129.734 1.185 15.988
v -125.974 1.272 21.248
v -123.126 1.319 19.212
v -126.886 1.176 13.952
f 2325 2326 2327 2328
v -108.820 1.126 84.674
v -104.830 0.770 90.994
v -101.870 0.775 89.126
v -105.860 1.143 82.806
f 2329 2330 2331 2332
v -104.827 0.770 90.998
v -101.487 0.905 96.258
v -98.533 0.906 94.382
v -101.873 0.775 89.122
f 2333 2334 2335 2336
v -186.342 1.248 83.765
v -190.532 0.970 85.995
v -188.888 0.951 89.085
v -184.698 1.196 86.855
f 2337 2338 2339 2340
v -190.530 0.970 85.994
v -196.750 0.965 89.294
v -195.110 0.955 92.386
v -188.890 0.951 89.086
f 2341 2342 2343 2344
v -229.844 1.151 -82.266
v -236.434 1.132 -92.376
v -239.366 1.136 -90.464
v -232.776 1.239 -80.354
f 2345 2346 2347 2348
v -142.850 0.901 139.655
v -121.730 0.829 171.615
v -118.810 0.976 169.685
v -139.930 0.927 137.725
f 2349 2350 2351 2352
v -256.295 1.632 66.999
v -231.355 1.509 71.265
v -230.765 1.532 67.815
v -255.705 1.664 63.549
f 2353 2354 2355 2356
v -232.518 1.529 70.507
v -224.988 1.413 81.857
v -222.072 1.373 79.923
v -229.602 1.517 68.573
f 2357 2358 2359 2360
v -224.988 1.413 81.858
v -188.078 1.191 137.488
v -185.162 1.176 135.552
v -222.072 1.373 79.922
f 2361 2362 2363 2364
v -256.360 1.769 86.078
v -237.100 1.649 90.132
v -236.380 1.578 86.708
v -255.640 1.778 82.653
f 2365 2366 2367 2368
v -235.873 1.622 89.940
v -222.663 1.404 82.410
v -224.397 1.388 79.370
v -237.607 1.592 86.900
f 2369 2370 2371 2372
v -222.553 1.404 82.342
v -213.383 1.088 76.172
v -215.337 1.104 73.268
v -224.507 1.390 79.438
f 2373 2374 2375 2376
v -213.382 1.088 76.171
v -207.682 1.044 72.331
v -209.638 1.063 69.429
v -215.338 1.105 73.269
f 2377 2378 2379 2380
v -251.144 2.409 99.718
v -245.954 2.246 100.728
v -245.286 2.053 97.292
v -250.476 2.217 96.282
f 2381 2382 2383 2384
v -244.279 2.171 100.134
v -235.399 1.611 89.544
v -238.081 1.604 87.296
v -246.961 2.144 97.886
f 2385 2386 2387 2388
v -256.328 2.482 98.729
v -251.138 2.409 99.719
v -250.482 2.217 96.281
v -255.672 2.338 95.291
f 2389 2390 2391 2392
usemtl asphalt
