# Baked ultra-low Key West silhouette; generated by bake_key_west_far_city.py
mtllib far_city.mtl
usemtl massing
v -190.689 1.079 145.717
v -190.179 1.079 103.500
v -173.431 1.079 103.703
v -173.941 1.079 145.920
v -190.689 4.579 145.717
v -190.179 4.579 103.500
v -173.431 4.579 103.703
v -173.941 4.579 145.920
f 8 7 6 5
f 1 2 6 5
f 2 3 7 6
f 3 4 8 7
f 4 1 5 8
v -171.713 1.046 24.196
v -171.577 1.046 44.516
v -184.707 1.046 44.604
v -184.843 1.046 24.284
v -171.713 4.946 24.196
v -171.577 4.946 44.516
v -184.707 4.946 44.604
v -184.843 4.946 24.284
f 16 15 14 13
f 9 10 14 13
f 10 11 15 14
f 11 12 16 15
f 12 9 13 16
v -184.507 1.119 95.254
v -183.308 1.119 69.983
v -169.753 1.119 70.626
v -170.952 1.119 95.897
v -184.507 5.019 95.254
v -183.308 5.019 69.983
v -169.753 5.019 70.626
v -170.952 5.019 95.897
f 24 23 22 21
f 17 18 22 21
f 18 19 23 22
f 19 20 24 23
f 20 17 21 24
usemtl road
v -193.550 1.262 0.005
v -195.980 1.426 148.475
v -190.480 1.455 148.565
v -188.050 1.265 0.095
f 25 26 27 28
v -195.980 1.426 148.471
v -196.540 1.402 179.841
v -191.040 1.441 179.939
v -190.480 1.455 148.569
f 29 30 31 32
v -256.172 1.506 146.868
v -241.562 1.456 157.218
v -239.538 1.598 154.362
v -254.148 1.500 144.012
f 33 34 35 36
v -241.352 1.459 157.346
v -194.592 1.431 181.446
v -192.988 1.441 178.334
v -239.748 1.594 154.234
f 37 38 39 40
v -232.556 1.199 -178.746
v -229.766 1.173 -192.236
v -233.194 1.141 -192.944
v -235.984 1.184 -179.454
f 41 42 43 44
v -229.739 1.170 -192.767
v -231.719 1.291 -212.297
v -235.201 1.337 -211.943
v -233.221 1.142 -192.413
f 45 46 47 48
v -231.719 1.291 -212.295
v -232.309 1.517 -218.175
v -235.791 1.574 -217.825
v -235.201 1.337 -211.945
f 49 50 51 52
v -232.376 1.533 -218.511
v -241.966 1.498 -249.891
v -245.314 1.521 -248.869
v -235.724 1.563 -217.489
f 53 54 55 56
v -243.123 1.442 -251.052
v -255.483 1.347 -254.878
v -256.517 1.335 -251.534
v -244.157 1.579 -247.708
f 57 58 59 60
v -246.197 1.350 -201.495
v -232.487 1.277 -210.665
v -234.433 1.371 -213.575
v -248.143 1.359 -204.405
f 61 62 63 64
v -256.909 1.520 145.488
v -254.579 1.408 229.588
v -251.081 1.417 229.492
v -253.411 1.523 145.392
f 65 66 67 68
usemtl asphalt
