# Baked ultra-low Key West silhouette; generated by bake_key_west_far_city.py
mtllib far_city.mtl
usemtl massing
v -216.990 1.241 72.459
v -216.670 1.241 46.841
v -205.470 1.241 46.981
v -205.790 1.241 72.599
v -216.990 5.141 72.459
v -216.670 5.141 46.841
v -205.470 5.141 46.981
v -205.790 5.141 72.599
f 8 7 6 5
f 1 2 6 5
f 2 3 7 6
f 3 4 8 7
f 4 1 5 8
v -206.421 1.013 134.313
v -206.329 1.013 154.623
v -216.059 1.013 154.667
v -216.151 1.013 134.357
v -206.421 4.913 134.313
v -206.329 4.913 154.623
v -216.059 4.913 154.667
v -216.151 4.913 134.357
f 16 15 14 13
f 9 10 14 13
f 10 11 15 14
f 11 12 16 15
f 12 9 13 16
usemtl road
v -196.559 1.438 -256.001
v -196.683 1.362 255.999
v -191.183 1.380 256.001
v -191.059 1.510 -255.999
f 17 18 19 20
v -255.000 1.475 -256.028
v -255.420 1.489 -229.548
v -251.920 1.505 -229.492
v -251.500 1.468 -255.972
f 21 22 23 24
v -256.035 1.503 183.814
v -225.475 1.522 184.430
v -225.405 1.538 180.930
v -255.965 1.518 180.315
f 25 26 27 28
v -226.633 1.509 183.960
v -220.003 1.564 190.140
v -217.617 1.550 187.580
v -224.247 1.545 181.400
f 29 30 31 32
v -220.500 1.562 189.314
v -218.080 1.581 198.324
v -214.700 1.532 197.416
v -217.120 1.542 188.406
f 33 34 35 36
v -218.140 1.583 197.872
v -218.080 1.332 241.982
v -214.580 1.348 241.978
v -214.640 1.534 197.868
f 37 38 39 40
v -217.932 1.335 241.276
v -221.792 1.352 250.056
v -218.588 1.345 251.464
v -214.728 1.343 242.684
f 41 42 43 44
v -221.517 1.350 249.619
v -226.025 1.348 254.859
v -223.372 1.370 257.141
v -218.863 1.345 251.901
f 45 46 47 48
v -218.713 1.481 142.380
v -255.963 1.357 141.598
v -256.037 1.374 145.097
v -218.787 1.481 145.880
f 49 50 51 52
v -219.075 1.437 57.940
v -255.975 1.391 57.418
v -256.025 1.412 60.918
v -219.125 1.445 61.440
f 53 54 55 56
usemtl asphalt
