# Baked ultra-low Key West silhouette; generated by bake_key_west_far_city.py
mtllib far_city.mtl
usemtl massing
v -182.987 -0.300 -18.946
v -172.710 -0.300 160.640
v -244.113 -0.300 164.726
v -254.390 -0.300 -14.860
v -182.987 8.000 -18.946
v -172.710 8.000 160.640
v -244.113 8.000 164.726
v -254.390 8.000 -14.860
f 8 7 6 5
f 1 2 6 5
f 2 3 7 6
f 3 4 8 7
f 4 1 5 8
usemtl road
v -255.105 1.521 -128.924
v -246.485 1.477 -112.794
v -241.635 1.280 -115.386
v -250.255 1.399 -131.516
f 9 10 11 12
v -246.226 1.473 -112.395
v -231.266 1.270 -93.275
v -226.934 1.170 -96.665
v -241.894 1.283 -115.785
f 13 14 15 16
v -231.266 1.270 -93.276
v -186.866 1.313 -36.506
v -182.534 1.376 -39.894
v -226.934 1.170 -96.664
f 17 18 19 20
v -187.187 1.300 -37.027
v -179.407 1.514 -20.527
v -174.433 1.300 -22.873
v -182.213 1.376 -39.373
f 21 22 23 24
v -179.628 1.511 -21.224
v -169.708 1.712 35.226
v -164.292 1.729 34.274
v -174.212 1.296 -22.176
f 25 26 27 28
v -169.731 1.713 35.077
v -167.481 1.782 53.877
v -162.019 1.763 53.223
v -164.269 1.731 34.423
f 29 30 31 32
v -167.500 1.781 53.545
v -167.720 1.533 180.255
v -162.220 1.384 180.265
v -162.000 1.763 53.555
f 33 34 35 36
v -167.720 1.533 180.256
v -167.730 1.508 187.126
v -162.230 1.290 187.134
v -162.220 1.384 180.264
f 37 38 39 40
v -167.729 1.508 187.051
v -168.819 1.243 225.071
v -163.321 1.074 225.229
v -162.231 1.290 187.209
f 41 42 43 44
v -168.803 1.244 224.848
v -172.210 1.087 255.698
v -166.743 0.944 256.302
v -163.337 1.073 225.452
f 45 46 47 48
v -230.249 1.256 -96.290
v -257.149 1.431 -72.862
v -254.851 1.403 -70.223
v -227.951 1.238 -93.650
f 49 50 51 52
v -244.772 1.745 186.937
v -164.862 1.447 182.007
v -165.078 1.472 178.513
v -244.988 1.783 183.443
f 53 54 55 56
v -257.533 1.222 -249.576
v -241.903 0.970 -221.206
v -238.837 0.940 -222.894
v -254.467 1.154 -251.265
f 57 58 59 60
v -242.108 0.979 -221.845
v -240.548 1.001 -208.595
v -237.072 0.972 -209.005
v -238.632 0.939 -222.255
f 61 62 63 64
v -240.218 0.990 -209.839
v -245.968 1.016 -202.049
v -243.152 0.971 -199.971
v -237.402 0.980 -207.761
f 65 66 67 68
v -246.391 1.728 186.073
v -204.987 1.457 256.883
v -201.966 1.454 255.117
v -243.369 1.795 184.307
f 69 70 71 72
usemtl asphalt
