# Baked ultra-low Key West silhouette; generated by bake_key_west_far_city.py
mtllib far_city.mtl
usemtl massing
v -224.370 1.227 -72.379
v -224.079 1.227 -105.328
v -205.190 1.227 -105.161
v -205.481 1.227 -72.212
v -224.370 4.727 -72.379
v -224.079 4.727 -105.328
v -205.190 4.727 -105.161
v -205.481 4.727 -72.212
f 8 7 6 5
f 1 2 6 5
f 2 3 7 6
f 3 4 8 7
f 4 1 5 8
v -232.249 1.286 -104.568
v -232.132 1.286 -84.318
v -247.071 1.286 -84.232
v -247.188 1.286 -104.482
v -232.249 5.186 -104.568
v -232.132 5.186 -84.318
v -247.071 5.186 -84.232
v -247.188 5.186 -104.482
f 16 15 14 13
f 9 10 14 13
f 10 11 15 14
f 11 12 16 15
f 12 9 13 16
usemtl road
v -196.401 1.397 -65.904
v -199.761 1.494 -59.664
v -194.919 1.541 -57.056
v -191.559 1.476 -63.296
f 17 18 19 20
v -198.223 1.479 -60.964
v -204.503 1.464 -58.834
v -202.737 1.606 -53.626
v -196.457 1.550 -55.756
f 21 22 23 24
v -203.763 1.465 -58.976
v -256.143 3.705 -56.252
v -255.857 3.914 -50.759
v -203.477 1.613 -53.484
f 25 26 27 28
v -182.563 1.418 85.240
v -218.409 1.635 255.640
v -214.984 1.616 256.360
v -179.137 1.433 85.960
f 29 30 31 32
v -217.998 1.724 91.968
v -254.570 1.714 255.618
v -251.155 1.702 256.382
v -214.582 1.704 92.732
f 33 34 35 36
v -255.302 1.769 131.120
v -245.522 1.752 126.865
v -246.918 1.718 123.655
v -256.698 1.734 127.911
f 37 38 39 40
v -244.926 1.757 126.438
v -233.436 1.741 113.818
v -236.024 1.703 111.462
v -247.514 1.709 124.082
f 41 42 43 44
v -233.435 1.741 113.817
v -214.995 1.698 93.527
v -217.585 1.731 91.173
v -236.025 1.703 111.463
f 45 46 47 48
v -214.995 1.698 93.527
v -210.475 1.693 88.557
v -213.065 1.684 86.203
v -217.585 1.731 91.173
f 49 50 51 52
v -211.263 1.691 89.055
v -199.833 1.492 85.595
v -200.847 1.451 82.245
v -212.277 1.652 85.705
f 53 54 55 56
v -200.408 1.506 85.669
v -183.838 1.406 86.309
v -183.702 1.442 82.811
v -200.272 1.448 82.171
f 57 58 59 60
v -184.357 1.409 86.209
v -181.437 1.401 87.249
v -180.263 1.434 83.951
v -183.183 1.442 82.911
f 61 62 63 64
v -181.435 1.401 87.249
v -162.675 1.440 93.899
v -161.505 1.465 90.601
v -180.265 1.434 83.951
f 65 66 67 68
v -163.358 1.447 93.456
v -157.418 1.356 99.706
v -154.882 1.403 97.294
v -160.822 1.441 91.044
f 69 70 71 72
v -157.854 1.377 98.899
v -154.944 1.247 111.339
v -151.536 1.143 110.541
v -154.446 1.389 98.101
f 73 74 75 76
v -154.987 1.256 110.845
v -155.887 1.141 127.325
v -152.393 1.081 127.515
v -151.493 1.133 111.035
f 77 78 79 80
v -155.855 1.139 127.073
v -181.838 1.645 255.653
v -178.408 1.629 256.347
v -152.425 1.083 127.767
f 81 82 83 84
v -227.455 1.361 -254.988
v -236.635 1.395 -252.688
v -235.785 1.408 -249.292
v -226.605 1.425 -251.592
f 85 86 87 88
v -236.171 1.396 -252.740
v -255.961 1.328 -253.183
v -256.039 1.349 -249.684
v -236.249 1.405 -249.240
f 89 90 91 92
v -213.471 1.511 -199.019
v -256.071 1.466 -197.288
v -255.929 1.458 -193.790
v -213.329 1.498 -195.521
f 93 94 95 96
usemtl asphalt
