# Baked ultra-low Key West silhouette; generated by bake_key_west_far_city.py
mtllib far_city.mtl
usemtl massing
v 110.781 -0.300 -259.439
v 134.667 -0.300 -145.128
v 56.819 -0.300 -128.861
v 32.933 -0.300 -243.172
v 110.781 6.500 -259.439
v 134.667 6.500 -145.128
v 56.819 6.500 -128.861
v 32.933 6.500 -243.172
f 8 7 6 5
f 1 2 6 5
f 2 3 7 6
f 3 4 8 7
f 4 1 5 8
v 227.658 1.456 65.190
v 239.692 1.456 92.288
v 216.222 1.456 102.710
v 204.188 1.456 75.612
v 227.658 7.256 65.190
v 239.692 7.256 92.288
v 216.222 7.256 102.710
v 204.188 7.256 75.612
f 16 15 14 13
f 9 10 14 13
f 10 11 15 14
f 11 12 16 15
f 12 9 13 16
v 94.559 1.358 208.382
v 116.976 1.358 223.107
v 111.661 1.358 231.198
v 89.244 1.358 216.473
v 94.559 4.858 208.382
v 116.976 4.858 223.107
v 111.661 4.858 231.198
v 89.244 4.858 216.473
f 24 23 22 21
f 17 18 22 21
f 18 19 23 22
f 19 20 24 23
f 20 17 21 24
v -229.294 1.361 98.688
v -211.819 1.361 111.076
v -218.706 1.361 120.792
v -236.181 1.361 108.404
v -229.294 4.861 98.688
v -211.819 4.861 111.076
v -218.706 4.861 120.792
v -236.181 4.861 108.404
f 32 31 30 29
f 25 26 30 29
f 26 27 31 30
f 27 28 32 31
f 28 25 29 32
v -244.885 1.179 -138.777
v -218.073 1.179 -121.511
v -223.655 1.179 -112.843
v -250.467 1.179 -130.109
v -244.885 10.479 -138.777
v -218.073 10.479 -121.511
v -223.655 10.479 -112.843
v -250.467 10.479 -130.109
f 40 39 38 37
f 33 34 38 37
f 34 35 39 38
f 35 36 40 39
f 36 33 37 40
v -258.211 0.807 -20.658
v -230.760 0.807 -1.264
v -235.509 0.807 5.458
v -262.960 0.807 -13.936
v -258.211 7.107 -20.658
v -230.760 7.107 -1.264
v -235.509 7.107 5.458
v -262.960 7.107 -13.936
f 48 47 46 45
f 41 42 46 45
f 42 43 47 46
f 43 44 48 47
f 44 41 45 48
v 18.484 1.881 240.230
v 46.125 1.881 241.258
v 45.696 1.881 252.770
v 18.055 1.881 251.742
v 18.484 8.181 240.230
v 46.125 8.181 241.258
v 45.696 8.181 252.770
v 18.055 8.181 251.742
f 56 55 54 53
f 49 50 54 53
f 50 51 55 54
f 51 52 56 55
f 52 49 53 56
v -49.153 1.784 243.174
v -34.020 1.784 227.663
v -27.027 1.784 234.486
v -42.160 1.784 249.997
v -49.153 11.084 243.174
v -34.020 11.084 227.663
v -27.027 11.084 234.486
v -42.160 11.084 249.997
f 64 63 62 61
f 57 58 62 61
f 58 59 63 62
f 59 60 64 63
f 60 57 61 64
v 172.720 1.281 128.424
v 177.626 1.281 159.681
v 166.700 1.281 161.396
v 161.794 1.281 130.139
v 172.720 10.581 128.424
v 177.626 10.581 159.681
v 166.700 10.581 161.396
v 161.794 10.581 130.139
f 72 71 70 69
f 65 66 70 69
f 66 67 71 70
f 67 68 72 71
f 68 65 69 72
v 214.720 1.269 135.369
v 218.250 1.269 156.567
v 207.420 1.269 158.371
v 203.890 1.269 137.173
v 214.720 7.569 135.369
v 218.250 7.569 156.567
v 207.420 7.569 158.371
v 203.890 7.569 137.173
f 80 79 78 77
f 73 74 78 77
f 74 75 79 78
f 75 76 80 79
f 76 73 77 80
v 160.996 1.070 163.944
v 165.911 1.070 191.276
v 155.124 1.070 193.216
v 150.209 1.070 165.884
v 160.996 7.370 163.944
v 165.911 7.370 191.276
v 155.124 7.370 193.216
v 150.209 7.370 165.884
f 88 87 86 85
f 81 82 86 85
f 82 83 87 86
f 83 84 88 87
f 84 81 85 88
v 208.684 1.084 201.957
v 220.574 1.084 184.272
v 229.396 1.084 190.203
v 217.506 1.084 207.888
v 208.684 7.384 201.957
v 220.574 7.384 184.272
v 229.396 7.384 190.203
v 217.506 7.384 207.888
f 96 95 94 93
f 89 90 94 93
f 90 91 95 94
f 91 92 96 95
f 92 89 93 96
v 156.905 1.275 236.922
v 169.279 1.275 219.450
v 178.215 1.275 225.778
v 165.841 1.275 243.250
v 156.905 7.575 236.922
v 169.279 7.575 219.450
v 178.215 7.575 225.778
v 165.841 7.575 243.250
f 104 103 102 101
f 97 98 102 101
f 98 99 103 102
f 99 100 104 103
f 100 97 101 104
v 225.017 1.267 164.768
v 232.221 1.267 153.127
v 240.503 1.267 158.252
v 233.299 1.267 169.893
v 225.017 5.167 164.768
v 232.221 5.167 153.127
v 240.503 5.167 158.252
v 233.299 5.167 169.893
f 112 111 110 109
f 105 106 110 109
f 106 107 111 110
f 107 108 112 111
f 108 105 109 112
v 238.272 1.726 184.235
v 249.829 1.726 166.070
v 258.308 1.726 171.465
v 246.751 1.726 189.630
v 238.272 5.626 184.235
v 249.829 5.626 166.070
v 258.308 5.626 171.465
v 246.751 5.626 189.630
f 120 119 118 117
f 113 114 118 117
f 114 115 119 118
f 115 116 120 119
f 116 113 117 120
v 232.324 0.832 173.130
v 240.127 0.832 177.792
v 237.296 0.832 182.530
v 229.493 0.832 177.868
v 232.324 4.732 173.130
v 240.127 4.732 177.792
v 237.296 4.732 182.530
v 229.493 4.732 177.868
f 128 127 126 125
f 121 122 126 125
f 122 123 127 126
f 123 124 128 127
f 124 121 125 128
v 236.485 0.926 180.269
v 248.096 0.926 182.688
v 245.695 0.926 194.211
v 234.084 0.926 191.792
v 236.485 4.826 180.269
v 248.096 4.826 182.688
v 245.695 4.826 194.211
v 234.084 4.826 191.792
f 136 135 134 133
f 129 130 134 133
f 130 131 135 134
f 131 132 136 135
f 132 129 133 136
v 244.358 0.807 236.081
v 249.038 0.807 238.674
v 246.542 0.807 243.179
v 241.862 0.807 240.586
v 244.358 4.707 236.081
v 249.038 4.707 238.674
v 246.542 4.707 243.179
v 241.862 4.707 240.586
f 144 143 142 141
f 137 138 142 141
f 138 139 143 142
f 139 140 144 143
f 140 137 141 144
v 60.081 0.759 47.971
v 90.410 0.759 41.851
v 93.239 0.759 55.869
v 62.910 0.759 61.989
v 60.081 4.659 47.971
v 90.410 4.659 41.851
v 93.239 4.659 55.869
v 62.910 4.659 61.989
f 152 151 150 149
f 145 146 150 149
f 146 147 151 150
f 147 148 152 151
f 148 145 149 152
v -13.593 1.104 124.314
v -0.063 1.104 148.370
v -9.267 1.104 153.546
v -22.797 1.104 129.490
v -13.593 5.004 124.314
v -0.063 5.004 148.370
v -9.267 5.004 153.546
v -22.797 5.004 129.490
f 160 159 158 157
f 153 154 158 157
f 154 155 159 158
f 155 156 160 159
f 156 153 157 160
v 5.656 0.928 131.983
v 8.026 0.928 143.206
v -1.876 0.928 145.297
v -4.246 0.928 134.074
v 5.656 4.828 131.983
v 8.026 4.828 143.206
v -1.876 4.828 145.297
v -4.246 4.828 134.074
f 168 167 166 165
f 161 162 166 165
f 162 163 167 166
f 163 164 168 167
f 164 161 165 168
v -11.700 0.808 144.696
v 0.390 0.808 143.704
v 1.360 0.808 155.524
v -10.730 0.808 156.516
v -11.700 4.708 144.696
v 0.390 4.708 143.704
v 1.360 4.708 155.524
v -10.730 4.708 156.516
f 176 175 174 173
f 169 170 174 173
f 170 171 175 174
f 171 172 176 175
f 172 169 173 176
v 7.249 1.162 115.828
v 35.262 1.162 113.886
v 36.831 1.162 136.512
v 8.818 1.162 138.454
v 7.249 6.962 115.828
v 35.262 6.962 113.886
v 36.831 6.962 136.512
v 8.818 6.962 138.454
f 184 183 182 181
f 177 178 182 181
f 178 179 183 182
f 179 180 184 183
f 180 177 181 184
v 35.793 1.508 157.397
v 36.382 1.508 124.062
v 65.907 1.508 124.583
v 65.318 1.508 157.918
v 35.793 7.308 157.397
v 36.382 7.308 124.062
v 65.907 7.308 124.583
v 65.318 7.308 157.918
f 192 191 190 189
f 185 186 190 189
f 186 187 191 190
f 187 188 192 191
f 188 185 189 192
v -27.590 1.043 179.201
v -7.867 1.043 154.117
v 11.950 1.043 169.699
v -7.773 1.043 194.783
v -27.590 6.843 179.201
v -7.867 6.843 154.117
v 11.950 6.843 169.699
v -7.773 6.843 194.783
f 200 199 198 197
f 193 194 198 197
f 194 195 199 198
f 195 196 200 199
f 196 193 197 200
v 71.863 1.065 151.728
v 77.669 1.065 181.201
v 49.697 1.065 186.712
v 43.891 1.065 157.239
v 71.863 4.965 151.728
v 77.669 4.965 181.201
v 49.697 4.965 186.712
v 43.891 4.965 157.239
f 208 207 206 205
f 201 202 206 205
f 202 203 207 206
f 203 204 208 207
f 204 201 205 208
v -20.554 1.541 199.131
v 12.341 1.541 202.436
v 9.794 1.541 227.789
v -23.101 1.541 224.484
v -20.554 7.341 199.131
v 12.341 7.341 202.436
v 9.794 7.341 227.789
v -23.101 7.341 224.484
f 216 215 214 213
f 209 210 214 213
f 210 211 215 214
f 211 212 216 215
f 212 209 213 216
v 5.184 1.244 182.868
v 35.040 1.244 177.412
v 39.996 1.244 204.532
v 10.140 1.244 209.988
v 5.184 5.144 182.868
v 35.040 5.144 177.412
v 39.996 5.144 204.532
v 10.140 5.144 209.988
f 224 223 222 221
f 217 218 222 221
f 218 219 223 222
f 219 220 224 223
f 220 217 221 224
v 27.458 1.174 223.847
v 36.728 1.174 201.072
v 57.762 1.174 209.633
v 48.492 1.174 232.408
v 27.458 5.074 223.847
v 36.728 5.074 201.072
v 57.762 5.074 209.633
v 48.492 5.074 232.408
f 232 231 230 229
f 225 226 230 229
f 226 227 231 230
f 227 228 232 231
f 228 225 229 232
v 72.824 1.611 231.022
v 83.501 1.611 258.028
v 57.676 1.611 268.238
v 46.999 1.611 241.232
v 72.824 5.511 231.022
v 83.501 5.511 258.028
v 57.676 5.511 268.238
v 46.999 5.511 241.232
f 240 239 238 237
f 233 234 238 237
f 234 235 239 238
f 235 236 240 239
f 236 233 237 240
v 67.700 1.097 175.178
v 85.458 1.097 187.263
v 79.320 1.097 196.282
v 61.562 1.097 184.197
v 67.700 4.997 175.178
v 85.458 4.997 187.263
v 79.320 4.997 196.282
v 61.562 4.997 184.197
f 248 247 246 245
f 241 242 246 245
f 242 243 247 246
f 243 244 248 247
f 244 241 245 248
v 77.578 0.854 184.795
v 91.645 0.854 193.322
v 86.322 0.854 202.105
v 72.255 0.854 193.578
v 77.578 4.754 184.795
v 91.645 4.754 193.322
v 86.322 4.754 202.105
v 72.255 4.754 193.578
f 256 255 254 253
f 249 250 254 253
f 250 251 255 254
f 251 252 256 255
f 252 249 253 256
v 95.530 1.164 169.309
v 110.201 1.164 168.798
v 110.590 1.164 179.991
v 95.919 1.164 180.502
v 95.530 5.064 169.309
v 110.201 5.064 168.798
v 110.590 5.064 179.991
v 95.919 5.064 180.502
f 264 263 262 261
f 257 258 262 261
f 258 259 263 262
f 259 260 264 263
f 260 257 261 264
v 106.298 0.665 177.898
v 110.775 0.665 189.204
v 100.222 0.665 193.382
v 95.745 0.665 182.076
v 106.298 4.565 177.898
v 110.775 4.565 189.204
v 100.222 4.565 193.382
v 95.745 4.565 182.076
f 272 271 270 269
f 265 266 270 269
f 266 267 271 270
f 267 268 272 271
f 268 265 269 272
v 86.486 1.091 216.507
v 90.570 1.091 205.181
v 100.974 1.091 208.933
v 96.890 1.091 220.259
v 86.486 4.991 216.507
v 90.570 4.991 205.181
v 100.974 4.991 208.933
v 96.890 4.991 220.259
f 280 279 278 277
f 273 274 278 277
f 274 275 279 278
f 275 276 280 279
f 276 273 277 280
v 98.189 0.973 208.136
v 102.891 0.973 198.325
v 111.611 0.973 202.504
v 106.909 0.973 212.315
v 98.189 4.873 208.136
v 102.891 4.873 198.325
v 111.611 4.873 202.504
v 106.909 4.873 212.315
f 288 287 286 285
f 281 282 286 285
f 282 283 287 286
f 283 284 288 287
f 284 281 285 288
v -52.989 1.265 235.051
v -46.121 1.265 241.352
v -49.751 1.265 245.309
v -56.619 1.265 239.008
v -52.989 5.165 235.051
v -46.121 5.165 241.352
v -49.751 5.165 245.309
v -56.619 5.165 239.008
f 296 295 294 293
f 289 290 294 293
f 290 291 295 294
f 291 292 296 295
f 292 289 293 296
v -44.134 1.391 241.980
v -37.237 1.391 248.293
v -43.266 1.391 254.880
v -50.163 1.391 248.567
v -44.134 5.291 241.980
v -37.237 5.291 248.293
v -43.266 5.291 254.880
v -50.163 5.291 248.567
f 304 303 302 301
f 297 298 302 301
f 298 299 303 302
f 299 300 304 303
f 300 297 301 304
v 123.213 1.470 258.815
v 134.690 1.470 241.901
v 143.627 1.470 247.965
v 132.150 1.470 264.879
v 123.213 5.370 258.815
v 134.690 5.370 241.901
v 143.627 5.370 247.965
v 132.150 5.370 264.879
f 312 311 310 309
f 305 306 310 309
f 306 307 311 310
f 307 308 312 311
f 308 305 309 312
v 135.999 1.138 236.599
v 143.340 1.138 241.612
v 140.261 1.138 246.121
v 132.920 1.138 241.108
v 135.999 5.038 236.599
v 143.340 5.038 241.612
v 140.261 5.038 246.121
v 132.920 5.038 241.108
f 320 319 318 317
f 313 314 318 317
f 314 315 319 318
f 315 316 320 319
f 316 313 317 320
v 136.846 1.116 245.985
v 148.412 1.116 242.787
v 151.594 1.116 254.295
v 140.028 1.116 257.493
v 136.846 5.016 245.985
v 148.412 5.016 242.787
v 151.594 5.016 254.295
v 140.028 5.016 257.493
f 328 327 326 325
f 321 322 326 325
f 322 323 327 326
f 323 324 328 327
f 324 321 325 328
v 151.607 1.149 225.839
v 159.473 1.149 230.294
v 156.693 1.149 235.201
v 148.827 1.149 230.746
v 151.607 5.049 225.839
v 159.473 5.049 230.294
v 156.693 5.049 235.201
v 148.827 5.049 230.746
f 336 335 334 333
f 329 330 334 333
f 330 331 335 334
f 331 332 336 335
f 332 329 333 336
v 152.229 1.173 235.042
v 165.059 1.173 232.351
v 167.691 1.173 244.898
v 154.861 1.173 247.589
v 152.229 5.073 235.042
v 165.059 5.073 232.351
v 167.691 5.073 244.898
v 154.861 5.073 247.589
f 344 343 342 341
f 337 338 342 341
f 338 339 343 342
f 339 340 344 343
f 340 337 341 344
v 193.710 1.282 256.396
v 200.429 1.282 246.659
v 205.450 1.282 250.124
v 198.731 1.282 259.861
v 193.710 5.182 256.396
v 200.429 5.182 246.659
v 205.450 5.182 250.124
v 198.731 5.182 259.861
f 352 351 350 349
f 345 346 350 349
f 346 347 351 350
f 347 348 352 351
f 348 345 349 352
v 200.211 1.050 252.394
v 207.139 1.050 241.942
v 212.849 1.050 245.726
v 205.921 1.050 256.178
v 200.211 4.950 252.394
v 207.139 4.950 241.942
v 212.849 4.950 245.726
v 205.921 4.950 256.178
f 360 359 358 357
f 353 354 358 357
f 354 355 359 358
f 355 356 360 359
f 356 353 357 360
v 216.338 0.912 230.256
v 227.697 0.912 240.876
v 220.622 0.912 248.444
v 209.263 0.912 237.824
v 216.338 4.812 230.256
v 227.697 4.812 240.876
v 220.622 4.812 248.444
v 209.263 4.812 237.824
f 368 367 366 365
f 361 362 366 365
f 362 363 367 366
f 363 364 368 367
f 364 361 365 368
v 220.595 0.635 242.523
v 229.712 0.635 247.891
v 227.165 0.635 252.217
v 218.048 0.635 246.849
v 220.595 4.535 242.523
v 229.712 4.535 247.891
v 227.165 4.535 252.217
v 218.048 4.535 246.849
f 376 375 374 373
f 369 370 374 373
f 370 371 375 374
f 371 372 376 375
f 372 369 373 376
v 199.681 1.100 198.696
v 205.737 1.100 227.996
v 178.219 1.100 233.684
v 172.163 1.100 204.384
v 199.681 5.000 198.696
v 205.737 5.000 227.996
v 178.219 5.000 233.684
v 172.163 5.000 204.384
f 384 383 382 381
f 377 378 382 381
f 378 379 383 382
f 379 380 384 383
f 380 377 381 384
v 213.688 0.909 193.685
v 214.115 0.909 206.178
v 201.892 0.909 206.595
v 201.465 0.909 194.102
v 213.688 4.809 193.685
v 214.115 4.809 206.178
v 201.892 4.809 206.595
v 201.465 4.809 194.102
f 392 391 390 389
f 385 386 390 389
f 386 387 391 390
f 387 388 392 391
f 388 385 389 392
v 211.548 0.857 204.535
v 219.405 0.857 209.785
v 216.172 0.857 214.625
v 208.315 0.857 209.375
v 211.548 4.757 204.535
v 219.405 4.757 209.785
v 216.172 4.757 214.625
v 208.315 4.757 209.375
f 400 399 398 397
f 393 394 398 397
f 394 395 399 398
f 395 396 400 399
f 396 393 397 400
v -212.228 1.359 -176.242
v -208.645 1.359 -176.987
v -207.952 1.359 -173.658
v -211.535 1.359 -172.913
v -212.228 5.259 -176.242
v -208.645 5.259 -176.987
v -207.952 5.259 -173.658
v -211.535 5.259 -172.913
f 408 407 406 405
f 401 402 406 405
f 402 403 407 406
f 403 404 408 407
f 404 401 405 408
v 185.398 0.847 132.784
v 187.009 0.847 142.127
v 178.722 0.847 143.556
v 177.111 0.847 134.213
v 185.398 4.747 132.784
v 187.009 4.747 142.127
v 178.722 4.747 143.556
v 177.111 4.747 134.213
f 416 415 414 413
f 409 410 414 413
f 410 411 415 414
f 411 412 416 415
f 412 409 413 416
v 183.637 0.901 145.873
v 185.328 0.901 156.763
v 176.543 0.901 158.127
v 174.852 0.901 147.237
v 183.637 4.801 145.873
v 185.328 4.801 156.763
v 176.543 4.801 158.127
v 174.852 4.801 147.237
f 424 423 422 421
f 417 418 422 421
f 418 419 423 422
f 419 420 424 423
f 420 417 421 424
v -221.717 0.722 114.467
v -213.245 0.722 118.982
v -217.643 0.722 127.233
v -226.115 0.722 122.718
v -221.717 4.622 114.467
v -213.245 4.622 118.982
v -217.643 4.622 127.233
v -226.115 4.622 122.718
f 432 431 430 429
f 425 426 430 429
f 426 427 431 430
f 427 428 432 431
f 428 425 429 432
v -215.596 0.776 117.560
v -210.578 0.776 109.718
v -206.324 0.776 112.440
v -211.342 0.776 120.282
v -215.596 4.676 117.560
v -210.578 4.676 109.718
v -206.324 4.676 112.440
v -211.342 4.676 120.282
f 440 439 438 437
f 433 434 438 437
f 434 435 439 438
f 435 436 440 439
f 436 433 437 440
v -216.741 0.801 137.071
v -210.799 0.801 129.102
v -203.199 0.801 134.769
v -209.141 0.801 142.738
v -216.741 4.701 137.071
v -210.799 4.701 129.102
v -203.199 4.701 134.769
v -209.141 4.701 142.738
f 448 447 446 445
f 441 442 446 445
f 442 443 447 446
f 443 444 448 447
f 444 441 445 448
v -205.856 0.824 131.651
v -200.734 0.824 124.057
v -196.564 0.824 126.869
v -201.686 0.824 134.463
v -205.856 4.724 131.651
v -200.734 4.724 124.057
v -196.564 4.724 126.869
v -201.686 4.724 134.463
f 456 455 454 453
f 449 450 454 453
f 450 451 455 454
f 451 452 456 455
f 452 449 453 456
v -206.914 1.374 133.011
v -189.641 1.374 144.670
v -195.526 1.374 153.389
v -212.799 1.374 141.730
v -206.914 5.274 133.011
v -189.641 5.274 144.670
v -195.526 5.274 153.389
v -212.799 5.274 141.730
f 464 463 462 461
f 457 458 462 461
f 458 459 463 462
f 459 460 464 463
f 460 457 461 464
v 218.611 1.048 -97.864
v 226.855 1.048 -103.181
v 231.489 1.048 -95.996
v 223.245 1.048 -90.679
v 218.611 4.948 -97.864
v 226.855 4.948 -103.181
v 231.489 4.948 -95.996
v 223.245 4.948 -90.679
f 472 471 470 469
f 465 466 470 469
f 466 467 471 470
f 467 468 472 471
f 468 465 469 472
v -231.598 1.641 -228.229
v -200.514 1.641 -232.878
v -198.722 1.641 -220.891
v -229.806 1.641 -216.242
v -231.598 5.541 -228.229
v -200.514 5.541 -232.878
v -198.722 5.541 -220.891
v -229.806 5.541 -216.242
f 480 479 478 477
f 473 474 478 477
f 474 475 479 478
f 475 476 480 479
f 476 473 477 480
v 123.317 0.802 4.105
v 135.414 0.802 68.916
v 118.063 0.802 72.155
v 105.966 0.802 7.344
v 123.317 6.602 4.105
v 135.414 6.602 68.916
v 118.063 6.602 72.155
v 105.966 6.602 7.344
f 488 487 486 485
f 481 482 486 485
f 482 483 487 486
f 483 484 488 487
f 484 481 485 488
v 3.298 0.853 37.670
v 42.933 0.853 29.795
v 45.622 0.853 43.330
v 5.987 0.853 51.205
v 3.298 6.653 37.670
v 42.933 6.653 29.795
v 45.622 6.653 43.330
v 5.987 6.653 51.205
f 496 495 494 493
f 489 490 494 493
f 490 491 495 494
f 491 492 496 495
f 492 489 493 496
v -6.147 0.883 -20.710
v 4.674 0.883 45.421
v -13.593 0.883 48.410
v -24.414 0.883 -17.721
v -6.147 6.683 -20.710
v 4.674 6.683 45.421
v -13.593 6.683 48.410
v -24.414 6.683 -17.721
f 504 503 502 501
f 497 498 502 501
f 498 499 503 502
f 499 500 504 503
f 500 497 501 504
v 12.330 0.687 12.400
v 13.209 0.687 17.231
v 8.870 0.687 18.020
v 7.991 0.687 13.189
v 12.330 4.587 12.400
v 13.209 4.587 17.231
v 8.870 4.587 18.020
v 7.991 4.587 13.189
f 512 511 510 509
f 505 506 510 509
f 506 507 511 510
f 507 508 512 511
f 508 505 509 512
v -48.114 0.713 -29.570
v -32.105 0.713 35.294
v -50.726 0.713 39.890
v -66.735 0.713 -24.974
v -48.114 6.513 -29.570
v -32.105 6.513 35.294
v -50.726 6.513 39.890
v -66.735 6.513 -24.974
f 520 519 518 517
f 513 514 518 517
f 514 515 519 518
f 515 516 520 519
f 516 513 517 520
v 29.425 1.012 2.567
v 94.086 1.012 -10.410
v 97.575 1.012 6.973
v 32.914 1.012 19.950
v 29.425 6.812 2.567
v 94.086 6.812 -10.410
v 97.575 6.812 6.973
v 32.914 6.812 19.950
f 528 527 526 525
f 521 522 526 525
f 522 523 527 526
f 523 524 528 527
f 524 521 525 528
v -117.422 1.119 -28.328
v -77.617 1.119 -34.756
v -75.178 1.119 -19.652
v -114.983 1.119 -13.224
v -117.422 6.919 -28.328
v -77.617 6.919 -34.756
v -75.178 6.919 -19.652
v -114.983 6.919 -13.224
f 536 535 534 533
f 529 530 534 533
f 530 531 535 534
f 531 532 536 535
f 532 529 533 536
v -71.925 0.838 -21.986
v -60.777 0.838 -20.402
v -62.355 0.838 -9.294
v -73.503 0.838 -10.878
v -71.925 4.738 -21.986
v -60.777 4.738 -20.402
v -62.355 4.738 -9.294
v -73.503 4.738 -10.878
f 544 543 542 541
f 537 538 542 541
f 538 539 543 542
f 539 540 544 543
f 540 537 541 544
v -138.922 0.826 15.530
v -73.358 0.826 3.436
v -70.338 0.826 19.810
v -135.902 0.826 31.904
v -138.922 6.626 15.530
v -73.358 6.626 3.436
v -70.338 6.626 19.810
v -135.902 6.626 31.904
f 552 551 550 549
f 545 546 550 549
f 546 547 551 550
f 547 548 552 551
f 548 545 549 552
v -152.244 1.041 -48.919
v -140.075 1.041 16.397
v -157.476 1.041 19.639
v -169.645 1.041 -45.677
v -152.244 6.841 -48.919
v -140.075 6.841 16.397
v -157.476 6.841 19.639
v -169.645 6.841 -45.677
f 560 559 558 557
f 553 554 558 557
f 554 555 559 558
f 555 556 560 559
f 556 553 557 560
v -187.826 1.267 -42.098
v -183.114 1.267 -11.235
v -198.654 1.267 -8.862
v -203.366 1.267 -39.725
v -187.826 7.067 -42.098
v -183.114 7.067 -11.235
v -198.654 7.067 -8.862
v -203.366 7.067 -39.725
f 568 567 566 565
f 561 562 566 565
f 562 563 567 566
f 563 564 568 567
f 564 561 565 568
v 48.175 1.161 -111.560
v 63.555 1.161 -111.630
v 63.625 1.161 -96.300
v 48.245 1.161 -96.230
v 48.175 5.061 -111.560
v 63.555 5.061 -111.630
v 63.625 5.061 -96.300
v 48.245 5.061 -96.230
f 576 575 574 573
f 569 570 574 573
f 570 571 575 574
f 571 572 576 575
f 572 569 573 576
v 63.393 1.311 -100.386
v 73.669 1.311 -111.217
v 84.507 1.311 -100.934
v 74.231 1.311 -90.103
v 63.393 5.211 -100.386
v 73.669 5.211 -111.217
v 84.507 5.211 -100.934
v 74.231 5.211 -90.103
f 584 583 582 581
f 577 578 582 581
f 578 579 583 582
f 579 580 584 583
f 580 577 581 584
v -250.958 0.984 -46.778
v -233.888 0.984 -76.862
v -223.842 0.984 -71.162
v -240.912 0.984 -41.078
v -250.958 4.884 -46.778
v -233.888 4.884 -76.862
v -223.842 4.884 -71.162
v -240.912 4.884 -41.078
f 592 591 590 589
f 585 586 590 589
f 586 587 591 590
f 587 588 592 591
f 588 585 589 592
v -231.618 1.124 -120.348
v -203.351 1.124 -101.222
v -209.582 1.124 -92.012
v -237.849 1.124 -111.138
v -231.618 5.024 -120.348
v -203.351 5.024 -101.222
v -209.582 5.024 -92.012
v -237.849 5.024 -111.138
f 600 599 598 597
f 593 594 598 597
f 594 595 599 598
f 595 596 600 599
f 596 593 597 600
v 165.461 0.781 21.307
v 166.279 0.781 25.519
v 162.499 0.781 26.253
v 161.681 0.781 22.041
v 165.461 4.681 21.307
v 166.279 4.681 25.519
v 162.499 4.681 26.253
v 161.681 4.681 22.041
f 608 607 606 605
f 601 602 606 605
f 602 603 607 606
f 603 604 608 607
f 604 601 605 608
v -3.141 0.986 -41.130
v -2.214 0.986 -35.942
v -6.979 0.986 -35.090
v -7.906 0.986 -40.278
v -3.141 4.886 -41.130
v -2.214 4.886 -35.942
v -6.979 4.886 -35.090
v -7.906 4.886 -40.278
f 616 615 614 613
f 609 610 614 613
f 610 611 615 614
f 611 612 616 615
f 612 609 613 616
v -41.981 1.114 -68.901
v -32.553 1.114 -58.296
v -35.699 1.114 -55.499
v -45.127 1.114 -66.104
v -41.981 5.014 -68.901
v -32.553 5.014 -58.296
v -35.699 5.014 -55.499
v -45.127 5.014 -66.104
f 624 623 622 621
f 617 618 622 621
f 618 619 623 622
f 619 620 624 623
f 620 617 621 624
v -50.693 1.231 -70.354
v -40.762 1.231 -59.543
v -43.567 1.231 -56.966
v -53.498 1.231 -67.777
v -50.693 5.131 -70.354
v -40.762 5.131 -59.543
v -43.567 5.131 -56.966
v -53.498 5.131 -67.777
f 632 631 630 629
f 625 626 630 629
f 626 627 631 630
f 627 628 632 631
f 628 625 629 632
v -58.960 1.185 -72.080
v -49.320 1.185 -61.062
v -52.180 1.185 -58.560
v -61.820 1.185 -69.578
v -58.960 5.085 -72.080
v -49.320 5.085 -61.062
v -52.180 5.085 -58.560
v -61.820 5.085 -69.578
f 640 639 638 637
f 633 634 638 637
f 634 635 639 638
f 635 636 640 639
f 636 633 637 640
v -66.735 1.161 -73.568
v -57.327 1.161 -62.852
v -60.265 1.161 -60.272
v -69.673 1.161 -70.988
v -66.735 5.061 -73.568
v -57.327 5.061 -62.852
v -60.265 5.061 -60.272
v -69.673 5.061 -70.988
f 648 647 646 645
f 641 642 646 645
f 642 643 647 646
f 643 644 648 647
f 644 641 645 648
v -75.086 1.145 -75.693
v -65.572 1.145 -64.579
v -68.414 1.145 -62.147
v -77.928 1.145 -73.261
v -75.086 5.045 -75.693
v -65.572 5.045 -64.579
v -68.414 5.045 -62.147
v -77.928 5.045 -73.261
f 656 655 654 653
f 649 650 654 653
f 650 651 655 654
f 651 652 656 655
f 652 649 653 656
v -83.708 1.125 -76.990
v -73.768 1.125 -66.160
v -76.612 1.125 -63.550
v -86.552 1.125 -74.380
v -83.708 5.025 -76.990
v -73.768 5.025 -66.160
v -76.612 5.025 -63.550
v -86.552 5.025 -74.380
f 664 663 662 661
f 657 658 662 661
f 658 659 663 662
f 659 660 664 663
f 660 657 661 664
v -92.134 1.193 -78.769
v -82.145 1.193 -67.552
v -84.886 1.193 -65.111
v -94.875 1.193 -76.328
v -92.134 5.093 -78.769
v -82.145 5.093 -67.552
v -84.886 5.093 -65.111
v -94.875 5.093 -76.328
f 672 671 670 669
f 665 666 670 669
f 666 667 671 670
f 667 668 672 671
f 668 665 669 672
v -100.004 1.174 -80.769
v -90.454 1.174 -69.898
v -93.376 1.174 -67.331
v -102.926 1.174 -78.202
v -100.004 5.074 -80.769
v -90.454 5.074 -69.898
v -93.376 5.074 -67.331
v -102.926 5.074 -78.202
f 680 679 678 677
f 673 674 678 677
f 674 675 679 678
f 675 676 680 679
f 676 673 677 680
v -108.271 1.140 -82.193
v -98.566 1.140 -71.272
v -101.429 1.140 -68.727
v -111.134 1.140 -79.648
v -108.271 5.040 -82.193
v -98.566 5.040 -71.272
v -101.429 5.040 -68.727
v -111.134 5.040 -79.648
f 688 687 686 685
f 681 682 686 685
f 682 683 687 686
f 683 684 688 687
f 684 681 685 688
v -116.698 1.159 -83.881
v -107.121 1.159 -73.195
v -109.862 1.159 -70.739
v -119.439 1.159 -81.425
v -116.698 5.059 -83.881
v -107.121 5.059 -73.195
v -109.862 5.059 -70.739
v -119.439 5.059 -81.425
f 696 695 694 693
f 689 690 694 693
f 690 691 695 694
f 691 692 696 695
f 692 689 693 696
v -125.148 1.131 -85.563
v -115.433 1.131 -74.704
v -118.392 1.131 -72.057
v -128.107 1.131 -82.916
v -125.148 5.031 -85.563
v -115.433 5.031 -74.704
v -118.392 5.031 -72.057
v -128.107 5.031 -82.916
f 704 703 702 701
f 697 698 702 701
f 698 699 703 702
f 699 700 704 703
f 700 697 701 704
v -133.070 1.126 -86.966
v -123.901 1.126 -76.320
v -126.810 1.126 -73.814
v -135.979 1.126 -84.460
v -133.070 5.026 -86.966
v -123.901 5.026 -76.320
v -126.810 5.026 -73.814
v -135.979 5.026 -84.460
f 712 711 710 709
f 705 706 710 709
f 706 707 711 710
f 707 708 712 711
f 708 705 709 712
v -141.447 1.169 -88.765
v -131.981 1.169 -77.847
v -134.693 1.169 -75.495
v -144.159 1.169 -86.413
v -141.447 5.069 -88.765
v -131.981 5.069 -77.847
v -134.693 5.069 -75.495
v -144.159 5.069 -86.413
f 720 719 718 717
f 713 714 718 717
f 714 715 719 718
f 715 716 720 719
f 716 713 717 720
v -149.651 1.195 -90.841
v -140.296 1.195 -79.801
v -143.249 1.195 -77.299
v -152.604 1.195 -88.339
v -149.651 5.095 -90.841
v -140.296 5.095 -79.801
v -143.249 5.095 -77.299
v -152.604 5.095 -88.339
f 728 727 726 725
f 721 722 726 725
f 722 723 727 726
f 723 724 728 727
f 724 721 725 728
v -158.039 1.227 -91.694
v -148.503 1.227 -81.253
v -151.161 1.227 -78.826
v -160.697 1.227 -89.267
v -158.039 5.127 -91.694
v -148.503 5.127 -81.253
v -151.161 5.127 -78.826
v -160.697 5.127 -89.267
f 736 735 734 733
f 729 730 734 733
f 730 731 735 734
f 731 732 736 735
f 732 729 733 736
v -166.487 1.218 -93.446
v -156.777 1.218 -82.839
v -159.513 1.218 -80.334
v -169.223 1.218 -90.941
v -166.487 5.118 -93.446
v -156.777 5.118 -82.839
v -159.513 5.118 -80.334
v -169.223 5.118 -90.941
f 744 743 742 741
f 737 738 742 741
f 738 739 743 742
f 739 740 744 743
f 740 737 741 744
v -174.481 1.232 -95.163
v -164.823 1.232 -84.563
v -167.639 1.232 -81.997
v -177.297 1.232 -92.597
v -174.481 5.132 -95.163
v -164.823 5.132 -84.563
v -167.639 5.132 -81.997
v -177.297 5.132 -92.597
f 752 751 750 749
f 745 746 750 749
f 746 747 751 750
f 747 748 752 751
f 748 745 749 752
v -182.958 1.185 -96.923
v -173.367 1.185 -86.235
v -176.262 1.185 -83.637
v -185.853 1.185 -94.325
v -182.958 5.085 -96.923
v -173.367 5.085 -86.235
v -176.262 5.085 -83.637
v -185.853 5.085 -94.325
f 760 759 758 757
f 753 754 758 757
f 754 755 759 758
f 755 756 760 759
f 756 753 757 760
v -191.169 1.159 -98.607
v -181.439 1.159 -87.978
v -184.131 1.159 -85.513
v -193.861 1.159 -96.142
v -191.169 5.059 -98.607
v -181.439 5.059 -87.978
v -184.131 5.059 -85.513
v -193.861 5.059 -96.142
f 768 767 766 765
f 761 762 766 765
f 762 763 767 766
f 763 764 768 767
f 764 761 765 768
v -179.036 1.165 -117.180
v -174.352 1.165 -131.420
v -170.704 1.165 -130.220
v -175.388 1.165 -115.980
v -179.036 5.065 -117.180
v -174.352 5.065 -131.420
v -170.704 5.065 -130.220
v -175.388 5.065 -115.980
f 776 775 774 773
f 769 770 774 773
f 770 771 775 774
f 771 772 776 775
f 772 769 773 776
v -167.749 1.218 -114.938
v -163.167 1.218 -129.264
v -159.471 1.218 -128.082
v -164.053 1.218 -113.756
v -167.749 5.118 -114.938
v -163.167 5.118 -129.264
v -159.471 5.118 -128.082
v -164.053 5.118 -113.756
f 784 783 782 781
f 777 778 782 781
f 778 779 783 782
f 779 780 784 783
f 780 777 781 784
v -159.547 1.196 -113.633
v -154.805 1.196 -127.410
v -151.193 1.196 -126.167
v -155.935 1.196 -112.390
v -159.547 5.096 -113.633
v -154.805 5.096 -127.410
v -151.193 5.096 -126.167
v -155.935 5.096 -112.390
f 792 791 790 789
f 785 786 790 789
f 786 787 791 790
f 787 788 792 791
f 788 785 789 792
v -151.131 1.205 -111.737
v -146.533 1.205 -125.752
v -142.789 1.205 -124.523
v -147.387 1.205 -110.508
v -151.131 5.105 -111.737
v -146.533 5.105 -125.752
v -142.789 5.105 -124.523
v -147.387 5.105 -110.508
f 800 799 798 797
f 793 794 798 797
f 794 795 799 798
f 795 796 800 799
f 796 793 797 800
v -142.964 1.228 -109.744
v -138.068 1.228 -123.964
v -134.616 1.228 -122.776
v -139.512 1.228 -108.556
v -142.964 5.128 -109.744
v -138.068 5.128 -123.964
v -134.616 5.128 -122.776
v -139.512 5.128 -108.556
f 808 807 806 805
f 801 802 806 805
f 802 803 807 806
f 803 804 808 807
f 804 801 805 808
v -134.870 1.136 -108.538
v -130.183 1.136 -122.881
v -126.390 1.136 -121.642
v -131.077 1.136 -107.299
v -134.870 5.036 -108.538
v -130.183 5.036 -122.881
v -126.390 5.036 -121.642
v -131.077 5.036 -107.299
f 816 815 814 813
f 809 810 814 813
f 810 811 815 814
f 811 812 816 815
f 812 809 813 816
v -126.354 1.178 -106.743
v -121.699 1.178 -120.929
v -118.126 1.178 -119.757
v -122.781 1.178 -105.571
v -126.354 5.078 -106.743
v -121.699 5.078 -120.929
v -118.126 5.078 -119.757
v -122.781 5.078 -105.571
f 824 823 822 821
f 817 818 822 821
f 818 819 823 822
f 819 820 824 823
f 820 817 821 824
v -117.830 1.152 -104.965
v -112.992 1.152 -119.321
v -109.770 1.152 -118.235
v -114.608 1.152 -103.879
v -117.830 5.052 -104.965
v -112.992 5.052 -119.321
v -109.770 5.052 -118.235
v -114.608 5.052 -103.879
f 832 831 830 829
f 825 826 830 829
f 826 827 831 830
f 827 828 832 831
f 828 825 829 832
v -109.787 1.173 -103.391
v -105.076 1.173 -117.590
v -101.213 1.173 -116.309
v -105.924 1.173 -102.110
v -109.787 5.073 -103.391
v -105.076 5.073 -117.590
v -101.213 5.073 -116.309
v -105.924 5.073 -102.110
f 840 839 838 837
f 833 834 838 837
f 834 835 839 838
f 835 836 840 839
f 836 833 837 840
v -101.398 1.226 -101.862
v -96.881 1.226 -115.756
v -93.382 1.226 -114.618
v -97.899 1.226 -100.724
v -101.398 5.126 -101.862
v -96.881 5.126 -115.756
v -93.382 5.126 -114.618
v -97.899 5.126 -100.724
f 848 847 846 845
f 841 842 846 845
f 842 843 847 846
f 843 844 848 847
f 844 841 845 848
v -93.407 1.184 -100.052
v -88.530 1.184 -114.269
v -84.793 1.184 -112.988
v -89.670 1.184 -98.771
v -93.407 5.084 -100.052
v -88.530 5.084 -114.269
v -84.793 5.084 -112.988
v -89.670 5.084 -98.771
f 856 855 854 853
f 849 850 854 853
f 850 851 855 854
f 851 852 856 855
f 852 849 853 856
v -84.768 1.223 -98.768
v -80.060 1.223 -112.631
v -76.472 1.223 -111.412
v -81.180 1.223 -97.549
v -84.768 5.123 -98.768
v -80.060 5.123 -112.631
v -76.472 5.123 -111.412
v -81.180 5.123 -97.549
f 864 863 862 861
f 857 858 862 861
f 858 859 863 862
f 859 860 864 863
f 860 857 861 864
v -76.417 1.226 -96.764
v -71.687 1.226 -110.988
v -68.223 1.226 -109.836
v -72.953 1.226 -95.612
v -76.417 5.126 -96.764
v -71.687 5.126 -110.988
v -68.223 5.126 -109.836
v -72.953 5.126 -95.612
f 872 871 870 869
f 865 866 870 869
f 866 867 871 870
f 867 868 872 871
f 868 865 869 872
v -68.208 1.198 -95.324
v -63.811 1.198 -109.351
v -60.252 1.198 -108.236
v -64.649 1.198 -94.209
v -68.208 5.098 -95.324
v -63.811 5.098 -109.351
v -60.252 5.098 -108.236
v -64.649 5.098 -94.209
f 880 879 878 877
f 873 874 878 877
f 874 875 879 878
f 875 876 880 879
f 876 873 877 880
v -60.075 1.224 -93.631
v -55.042 1.224 -107.655
v -51.625 1.224 -106.429
v -56.658 1.224 -92.405
v -60.075 5.124 -93.631
v -55.042 5.124 -107.655
v -51.625 5.124 -106.429
v -56.658 5.124 -92.405
f 888 887 886 885
f 881 882 886 885
f 882 883 887 886
f 883 884 888 887
f 884 881 885 888
v -52.069 1.217 -92.129
v -47.300 1.217 -105.970
v -43.471 1.217 -104.651
v -48.240 1.217 -90.810
v -52.069 5.117 -92.129
v -47.300 5.117 -105.970
v -43.471 5.117 -104.651
v -48.240 5.117 -90.810
f 896 895 894 893
f 889 890 894 893
f 890 891 895 894
f 891 892 896 895
f 892 889 893 896
v -43.398 1.154 -89.735
v -39.041 1.154 -104.255
v -34.942 1.154 -103.025
v -39.299 1.154 -88.505
v -43.398 5.054 -89.735
v -39.041 5.054 -104.255
v -34.942 5.054 -103.025
v -39.299 5.054 -88.505
f 904 903 902 901
f 897 898 902 901
f 898 899 903 902
f 899 900 904 903
f 900 897 901 904
v -35.135 1.173 -88.587
v -30.610 1.173 -102.499
v -27.025 1.173 -101.333
v -31.550 1.173 -87.421
v -35.135 5.073 -88.587
v -30.610 5.073 -102.499
v -27.025 5.073 -101.333
v -31.550 5.073 -87.421
f 912 911 910 909
f 905 906 910 909
f 906 907 911 910
f 907 908 912 911
f 908 905 909 912
v -26.795 1.134 -87.135
v -22.358 1.134 -100.824
v -18.905 1.134 -99.705
v -23.342 1.134 -86.016
v -26.795 5.034 -87.135
v -22.358 5.034 -100.824
v -18.905 5.034 -99.705
v -23.342 5.034 -86.016
f 920 919 918 917
f 913 914 918 917
f 914 915 919 918
f 915 916 920 919
f 916 913 917 920
v -166.344 0.821 81.098
v -160.962 0.821 88.719
v -165.356 0.821 91.822
v -170.738 0.821 84.201
v -166.344 4.721 81.098
v -160.962 4.721 88.719
v -165.356 4.721 91.822
v -170.738 4.721 84.201
f 928 927 926 925
f 921 922 926 925
f 922 923 927 926
f 923 924 928 927
f 924 921 925 928
v -182.243 0.942 76.053
v -170.885 0.942 73.125
v -167.977 0.942 84.407
v -179.335 0.942 87.335
v -182.243 4.842 76.053
v -170.885 4.842 73.125
v -167.977 4.842 84.407
v -179.335 4.842 87.335
f 936 935 934 933
f 929 930 934 933
f 930 931 935 934
f 931 932 936 935
f 932 929 933 936
v -177.295 1.430 74.461
v -160.777 1.430 62.540
v -154.585 1.430 71.119
v -171.103 1.430 83.040
v -177.295 5.330 74.461
v -160.777 5.330 62.540
v -154.585 5.330 71.119
v -171.103 5.330 83.040
f 944 943 942 941
f 937 938 942 941
f 938 939 943 942
f 939 940 944 943
f 940 937 941 944
v -206.468 1.408 56.786
v -180.908 1.408 59.264
v -181.932 1.408 69.834
v -207.492 1.408 67.356
v -206.468 5.308 56.786
v -180.908 5.308 59.264
v -181.932 5.308 69.834
v -207.492 5.308 67.356
f 952 951 950 949
f 945 946 950 949
f 946 947 951 950
f 947 948 952 951
f 948 945 949 952
v -191.025 0.971 76.922
v -189.877 0.971 69.176
v -183.655 0.971 70.098
v -184.803 0.971 77.844
v -191.025 4.871 76.922
v -189.877 4.871 69.176
v -183.655 4.871 70.098
v -184.803 4.871 77.844
f 960 959 958 957
f 953 954 958 957
f 954 955 959 958
f 955 956 960 959
f 956 953 957 960
v -203.577 1.021 78.333
v -202.113 1.021 68.714
v -193.483 1.021 70.027
v -194.947 1.021 79.646
v -203.577 4.921 78.333
v -202.113 4.921 68.714
v -193.483 4.921 70.027
v -194.947 4.921 79.646
f 968 967 966 965
f 961 962 966 965
f 962 963 967 966
f 963 964 968 967
f 964 961 965 968
v -220.087 1.083 82.028
v -211.620 1.083 87.311
v -216.713 1.083 95.472
v -225.180 1.083 90.189
v -220.087 4.983 82.028
v -211.620 4.983 87.311
v -216.713 4.983 95.472
v -225.180 4.983 90.189
f 976 975 974 973
f 969 970 974 973
f 970 971 975 974
f 971 972 976 975
f 972 969 973 976
v -213.423 1.055 84.871
v -208.590 1.055 77.733
v -204.077 1.055 80.789
v -208.910 1.055 87.927
v -213.423 4.955 84.871
v -208.590 4.955 77.733
v -204.077 4.955 80.789
v -208.910 4.955 87.927
f 984 983 982 981
f 977 978 982 981
f 978 979 983 982
f 979 980 984 983
f 980 977 981 984
v -227.700 1.361 68.031
v -209.972 1.361 79.765
v -215.640 1.361 88.329
v -233.368 1.361 76.595
v -227.700 5.261 68.031
v -209.972 5.261 79.765
v -215.640 5.261 88.329
v -233.368 5.261 76.595
f 992 991 990 989
f 985 986 990 989
f 986 987 991 990
f 987 988 992 991
f 988 985 989 992
v -172.398 1.213 184.140
v -155.199 1.213 196.277
v -161.242 1.213 204.840
v -178.441 1.213 192.703
v -172.398 5.113 184.140
v -155.199 5.113 196.277
v -161.242 5.113 204.840
v -178.441 5.113 192.703
f 1000 999 998 997
f 993 994 998 997
f 994 995 999 998
f 995 996 1000 999
f 996 993 997 1000
v -180.503 0.898 188.165
v -175.342 0.898 180.804
v -169.537 0.898 184.875
v -174.698 0.898 192.236
v -180.503 4.798 188.165
v -175.342 4.798 180.804
v -169.537 4.798 184.875
v -174.698 4.798 192.236
f 1008 1007 1006 1005
f 1001 1002 1006 1005
f 1002 1003 1007 1006
f 1003 1004 1008 1007
f 1004 1001 1005 1008
v -171.180 0.882 183.387
v -166.124 0.882 175.250
v -161.580 0.882 178.073
v -166.636 0.882 186.210
v -171.180 4.782 183.387
v -166.124 4.782 175.250
v -161.580 4.782 178.073
v -166.636 4.782 186.210
f 1016 1015 1014 1013
f 1009 1010 1014 1013
f 1010 1011 1015 1014
f 1011 1012 1016 1015
f 1012 1009 1013 1016
v -191.050 0.806 173.057
v -186.011 0.806 165.601
v -179.350 0.806 170.103
v -184.389 0.806 177.559
v -191.050 4.706 173.057
v -186.011 4.706 165.601
v -179.350 4.706 170.103
v -184.389 4.706 177.559
f 1024 1023 1022 1021
f 1017 1018 1022 1021
f 1018 1019 1023 1022
f 1019 1020 1024 1023
f 1020 1017 1021 1024
v -180.736 0.839 168.350
v -175.793 0.839 160.531
v -171.524 0.839 163.230
v -176.467 0.839 171.049
v -180.736 4.739 168.350
v -175.793 4.739 160.531
v -171.524 4.739 163.230
v -176.467 4.739 171.049
f 1032 1031 1030 1029
f 1025 1026 1030 1029
f 1026 1027 1031 1030
f 1027 1028 1032 1031
f 1028 1025 1029 1032
v -194.627 1.377 150.700
v -177.220 1.377 162.159
v -183.093 1.377 171.080
v -200.500 1.377 159.621
v -194.627 5.277 150.700
v -177.220 5.277 162.159
v -183.093 5.277 171.080
v -200.500 5.277 159.621
f 1040 1039 1038 1037
f 1033 1034 1038 1037
f 1034 1035 1039 1038
f 1035 1036 1040 1039
f 1036 1033 1037 1040
v -135.266 1.151 145.643
v -113.110 1.151 161.713
v -125.734 1.151 179.117
v -147.890 1.151 163.047
v -135.266 6.951 145.643
v -113.110 6.951 161.713
v -125.734 6.951 179.117
v -147.890 6.951 163.047
f 1048 1047 1046 1045
f 1041 1042 1046 1045
f 1042 1043 1047 1046
f 1043 1044 1048 1047
f 1044 1041 1045 1048
v -111.729 1.241 127.843
v -82.393 1.241 126.058
v -80.731 1.241 153.377
v -110.067 1.241 155.162
v -111.729 5.141 127.843
v -82.393 5.141 126.058
v -80.731 5.141 153.377
v -110.067 5.141 155.162
f 1056 1055 1054 1053
f 1049 1050 1054 1053
f 1050 1051 1055 1054
f 1051 1052 1056 1055
f 1052 1049 1053 1056
v -85.698 1.075 113.819
v -76.702 1.075 115.927
v -77.882 1.075 120.961
v -86.878 1.075 118.853
v -85.698 4.975 113.819
v -76.702 4.975 115.927
v -77.882 4.975 120.961
v -86.878 4.975 118.853
f 1064 1063 1062 1061
f 1057 1058 1062 1061
f 1058 1059 1063 1062
f 1059 1060 1064 1063
f 1060 1057 1061 1064
v -80.067 1.445 116.304
v -75.754 1.445 95.854
v -65.793 1.445 97.956
v -70.106 1.445 118.406
v -80.067 5.345 116.304
v -75.754 5.345 95.854
v -65.793 5.345 97.956
v -70.106 5.345 118.406
f 1072 1071 1070 1069
f 1065 1066 1070 1069
f 1066 1067 1071 1070
f 1067 1068 1072 1071
f 1068 1065 1069 1072
v -88.195 1.061 101.110
v -79.097 1.061 103.129
v -81.005 1.061 111.730
v -90.103 1.061 109.711
v -88.195 4.961 101.110
v -79.097 4.961 103.129
v -81.005 4.961 111.730
v -90.103 4.961 109.711
f 1080 1079 1078 1077
f 1073 1074 1078 1077
f 1074 1075 1079 1078
f 1075 1076 1080 1079
f 1076 1073 1077 1080
v -107.059 0.730 82.823
v -102.393 0.730 90.960
v -110.201 0.730 95.437
v -114.867 0.730 87.300
v -107.059 4.630 82.823
v -102.393 4.630 90.960
v -110.201 4.630 95.437
v -114.867 4.630 87.300
f 1088 1087 1086 1085
f 1081 1082 1086 1085
f 1082 1083 1087 1086
f 1083 1084 1088 1087
f 1084 1081 1085 1088
v -95.312 0.883 89.010
v -90.599 0.883 97.074
v -98.188 0.883 101.510
v -102.901 0.883 93.446
v -95.312 4.783 89.010
v -90.599 4.783 97.074
v -98.188 4.783 101.510
v -102.901 4.783 93.446
f 1096 1095 1094 1093
f 1089 1090 1094 1093
f 1090 1091 1095 1094
f 1091 1092 1096 1095
f 1092 1089 1093 1096
v -111.902 1.377 83.601
v -87.932 1.377 71.569
v -83.078 1.377 81.239
v -107.048 1.377 93.271
v -111.902 5.277 83.601
v -87.932 5.277 71.569
v -83.078 5.277 81.239
v -107.048 5.277 93.271
f 1104 1103 1102 1101
f 1097 1098 1102 1101
f 1098 1099 1103 1102
f 1099 1100 1104 1103
f 1100 1097 1101 1104
v -148.336 1.464 75.137
v -125.170 1.464 90.213
v -130.864 1.464 98.963
v -154.030 1.464 83.887
v -148.336 5.364 75.137
v -125.170 5.364 90.213
v -130.864 5.364 98.963
v -154.030 5.364 83.887
f 1112 1111 1110 1109
f 1105 1106 1110 1109
f 1106 1107 1111 1110
f 1107 1108 1112 1111
f 1108 1105 1109 1112
v -132.274 0.757 85.803
v -121.098 0.757 88.337
v -123.606 0.757 99.397
v -134.782 0.757 96.863
v -132.274 4.657 85.803
v -121.098 4.657 88.337
v -123.606 4.657 99.397
v -134.782 4.657 96.863
f 1120 1119 1118 1117
f 1113 1114 1118 1117
f 1114 1115 1119 1118
f 1115 1116 1120 1119
f 1116 1113 1117 1120
v -145.568 0.879 100.647
v -139.965 0.879 93.124
v -132.972 0.879 98.333
v -138.575 0.879 105.856
v -145.568 4.779 100.647
v -139.965 4.779 93.124
v -132.972 4.779 98.333
v -138.575 4.779 105.856
f 1128 1127 1126 1125
f 1121 1122 1126 1125
f 1122 1123 1127 1126
f 1123 1124 1128 1127
f 1124 1121 1125 1128
v -153.551 0.760 127.778
v -147.318 0.760 119.919
v -139.749 0.760 125.922
v -145.982 0.760 133.781
v -153.551 4.660 127.778
v -147.318 4.660 119.919
v -139.749 4.660 125.922
v -145.982 4.660 133.781
f 1136 1135 1134 1133
f 1129 1130 1134 1133
f 1130 1131 1135 1134
f 1131 1132 1136 1135
f 1132 1129 1133 1136
v -163.984 0.977 135.830
v -158.421 0.977 127.714
v -150.576 0.977 133.090
v -156.139 0.977 141.206
v -163.984 4.877 135.830
v -158.421 4.877 127.714
v -150.576 4.877 133.090
v -156.139 4.877 141.206
f 1144 1143 1142 1141
f 1137 1138 1142 1141
f 1138 1139 1143 1142
f 1139 1140 1144 1143
f 1140 1137 1141 1144
v -166.704 1.326 109.677
v -143.940 1.326 124.891
v -149.736 1.326 133.563
v -172.500 1.326 118.349
v -166.704 5.226 109.677
v -143.940 5.226 124.891
v -149.736 5.226 133.563
v -172.500 5.226 118.349
f 1152 1151 1150 1149
f 1145 1146 1150 1149
f 1146 1147 1151 1150
f 1147 1148 1152 1151
f 1148 1145 1149 1152
v -148.710 0.843 241.814
v -143.352 0.843 234.200
v -139.050 0.843 237.226
v -144.408 0.843 244.840
v -148.710 4.743 241.814
v -143.352 4.743 234.200
v -139.050 4.743 237.226
v -144.408 4.743 244.840
f 1160 1159 1158 1157
f 1153 1154 1158 1157
f 1154 1155 1159 1158
f 1155 1156 1160 1159
f 1156 1153 1157 1160
v -136.821 0.992 225.541
v -126.971 0.992 229.995
v -131.359 0.992 239.699
v -141.209 0.992 235.245
v -136.821 4.892 225.541
v -126.971 4.892 229.995
v -131.359 4.892 239.699
v -141.209 4.892 235.245
f 1168 1167 1166 1165
f 1161 1162 1166 1165
f 1162 1163 1167 1166
f 1163 1164 1168 1167
f 1164 1161 1165 1168
v -136.962 1.263 231.897
v -116.515 1.263 246.176
v -122.498 1.263 254.743
v -142.945 1.263 240.464
v -136.962 5.163 231.897
v -116.515 5.163 246.176
v -122.498 5.163 254.743
v -142.945 5.163 240.464
f 1176 1175 1174 1173
f 1169 1170 1174 1173
f 1170 1171 1175 1174
f 1171 1172 1176 1175
f 1172 1169 1173 1176
v -148.714 0.839 210.721
v -136.850 0.839 212.065
v -138.186 0.839 223.859
v -150.050 0.839 222.515
v -148.714 4.739 210.721
v -136.850 4.739 212.065
v -138.186 4.739 223.859
v -150.050 4.739 222.515
f 1184 1183 1182 1181
f 1177 1178 1182 1181
f 1178 1179 1183 1182
f 1179 1180 1184 1183
f 1180 1177 1181 1184
v -162.091 0.779 229.770
v -156.871 0.779 222.014
v -152.449 0.779 224.990
v -157.669 0.779 232.746
v -162.091 4.679 229.770
v -156.871 4.679 222.014
v -152.449 4.679 224.990
v -157.669 4.679 232.746
f 1192 1191 1190 1189
f 1185 1186 1190 1189
f 1186 1187 1191 1190
f 1187 1188 1192 1191
f 1188 1185 1189 1192
v -160.145 1.135 201.534
v -142.744 1.135 214.415
v -148.955 1.135 222.806
v -166.356 1.135 209.925
v -160.145 5.035 201.534
v -142.744 5.035 214.415
v -148.955 5.035 222.806
v -166.356 5.035 209.925
f 1200 1199 1198 1197
f 1193 1194 1198 1197
f 1194 1195 1199 1198
f 1195 1196 1200 1199
f 1196 1193 1197 1200
v -245.545 1.230 254.240
v -240.337 1.230 243.640
v -232.115 1.230 247.680
v -237.323 1.230 258.280
v -245.545 5.130 254.240
v -240.337 5.130 243.640
v -232.115 5.130 247.680
v -237.323 5.130 258.280
f 1208 1207 1206 1205
f 1201 1202 1206 1205
f 1202 1203 1207 1206
f 1203 1204 1208 1207
f 1204 1201 1205 1208
v -237.743 1.498 248.139
v -230.301 1.498 236.720
v -223.457 1.498 241.181
v -230.899 1.498 252.600
v -237.743 5.398 248.139
v -230.301 5.398 236.720
v -223.457 5.398 241.181
v -230.899 5.398 252.600
f 1216 1215 1214 1213
f 1209 1210 1214 1213
f 1210 1211 1215 1214
f 1211 1212 1216 1215
f 1212 1209 1213 1216
v -229.613 1.139 241.734
v -222.171 1.139 231.222
v -216.147 1.139 235.486
v -223.589 1.139 245.998
v -229.613 5.039 241.734
v -222.171 5.039 231.222
v -216.147 5.039 235.486
v -223.589 5.039 245.998
f 1224 1223 1222 1221
f 1217 1218 1222 1221
f 1218 1219 1223 1222
f 1219 1220 1224 1223
f 1220 1217 1221 1224
v -215.518 1.199 214.239
v -193.991 1.199 228.854
v -200.282 1.199 238.121
v -221.809 1.199 223.506
v -215.518 5.099 214.239
v -193.991 5.099 228.854
v -200.282 5.099 238.121
v -221.809 5.099 223.506
f 1232 1231 1230 1229
f 1225 1226 1230 1229
f 1226 1227 1231 1230
f 1227 1228 1232 1231
f 1228 1225 1229 1232
v -198.956 0.981 222.484
v -186.583 0.981 230.215
v -191.044 0.981 237.356
v -203.417 0.981 229.625
v -198.956 4.881 222.484
v -186.583 4.881 230.215
v -191.044 4.881 237.356
v -203.417 4.881 229.625
f 1240 1239 1238 1237
f 1233 1234 1238 1237
f 1234 1235 1239 1238
f 1235 1236 1240 1239
f 1236 1233 1237 1240
v -189.380 1.042 230.123
v -181.096 1.042 235.688
v -186.220 1.042 243.317
v -194.504 1.042 237.752
v -189.380 4.942 230.123
v -181.096 4.942 235.688
v -186.220 4.942 243.317
v -194.504 4.942 237.752
f 1248 1247 1246 1245
f 1241 1242 1246 1245
f 1242 1243 1247 1246
f 1243 1244 1248 1247
f 1244 1241 1245 1248
v -185.091 1.252 240.747
v -172.848 1.252 248.919
v -177.489 1.252 255.873
v -189.732 1.252 247.701
v -185.091 5.152 240.747
v -172.848 5.152 248.919
v -177.489 5.152 255.873
v -189.732 5.152 247.701
f 1256 1255 1254 1253
f 1249 1250 1254 1253
f 1250 1251 1255 1254
f 1251 1252 1256 1255
f 1252 1249 1253 1256
v -235.545 1.013 214.629
v -223.249 1.013 196.834
v -207.075 1.013 208.011
v -219.371 1.013 225.806
v -235.545 4.913 214.629
v -223.249 4.913 196.834
v -207.075 4.913 208.011
v -219.371 4.913 225.806
f 1264 1263 1262 1261
f 1257 1258 1262 1261
f 1258 1259 1263 1262
f 1259 1260 1264 1263
f 1260 1257 1261 1264
v -234.966 1.238 227.418
v -232.782 1.238 217.178
v -224.234 1.238 219.002
v -226.418 1.238 229.242
v -234.966 5.138 227.418
v -232.782 5.138 217.178
v -224.234 5.138 219.002
v -226.418 5.138 229.242
f 1272 1271 1270 1269
f 1265 1266 1270 1269
f 1266 1267 1271 1270
f 1267 1268 1272 1271
f 1268 1265 1269 1272
v -251.903 1.188 217.458
v -240.604 1.188 201.040
v -231.097 1.188 207.582
v -242.396 1.188 224.000
v -251.903 5.088 217.458
v -240.604 5.088 201.040
v -231.097 5.088 207.582
v -242.396 5.088 224.000
f 1280 1279 1278 1277
f 1273 1274 1278 1277
f 1274 1275 1279 1278
f 1275 1276 1280 1279
f 1276 1273 1277 1280
v -265.746 1.122 225.126
v -255.446 1.122 210.182
v -244.314 1.122 217.854
v -254.614 1.122 232.798
v -265.746 5.022 225.126
v -255.446 5.022 210.182
v -244.314 5.022 217.854
v -254.614 5.022 232.798
f 1288 1287 1286 1285
f 1281 1282 1286 1285
f 1282 1283 1287 1286
f 1283 1284 1288 1287
f 1284 1281 1285 1288
v -259.868 1.175 241.240
v -254.363 1.175 232.052
v -251.112 1.175 234.000
v -256.617 1.175 243.188
v -259.868 5.075 241.240
v -254.363 5.075 232.052
v -251.112 5.075 234.000
v -256.617 5.075 243.188
f 1296 1295 1294 1293
f 1289 1290 1294 1293
f 1290 1291 1295 1294
f 1291 1292 1296 1295
f 1292 1289 1293 1296
v -265.150 0.855 179.183
v -250.677 0.855 157.982
v -239.610 0.855 165.537
v -254.083 0.855 186.738
v -265.150 4.755 179.183
v -250.677 4.755 157.982
v -239.610 4.755 165.537
v -254.083 4.755 186.738
f 1304 1303 1302 1301
f 1297 1298 1302 1301
f 1298 1299 1303 1302
f 1299 1300 1304 1303
f 1300 1297 1301 1304
v -241.329 0.237 170.722
v -233.701 0.237 159.390
v -226.351 0.237 164.338
v -233.979 0.237 175.670
v -241.329 4.137 170.722
v -233.701 4.137 159.390
v -226.351 4.137 164.338
v -233.979 4.137 175.670
f 1312 1311 1310 1309
f 1305 1306 1310 1309
f 1306 1307 1311 1310
f 1307 1308 1312 1311
f 1308 1305 1309 1312
v -246.066 0.653 149.407
v -233.065 0.653 157.662
v -238.774 0.653 166.653
v -251.775 0.653 158.398
v -246.066 4.553 149.407
v -233.065 4.553 157.662
v -238.774 4.553 166.653
v -251.775 4.553 158.398
f 1320 1319 1318 1317
f 1313 1314 1318 1317
f 1314 1315 1319 1318
f 1315 1316 1320 1319
f 1316 1313 1317 1320
v -229.375 1.534 -236.866
v -218.600 1.534 -238.639
v -217.565 1.534 -232.354
v -228.340 1.534 -230.581
v -229.375 5.434 -236.866
v -218.600 5.434 -238.639
v -217.565 5.434 -232.354
v -228.340 5.434 -230.581
f 1328 1327 1326 1325
f 1321 1322 1326 1325
f 1322 1323 1327 1326
f 1323 1324 1328 1327
f 1324 1321 1325 1328
v -209.500 1.584 -232.415
v -200.738 1.584 -235.380
v -198.460 1.584 -228.645
v -207.222 1.584 -225.680
v -209.500 5.484 -232.415
v -200.738 5.484 -235.380
v -198.460 5.484 -228.645
v -207.222 5.484 -225.680
f 1336 1335 1334 1333
f 1329 1330 1334 1333
f 1330 1331 1335 1334
f 1331 1332 1336 1335
f 1332 1329 1333 1336
v 198.425 0.685 -256.750
v 277.184 0.685 -279.935
v 293.035 0.685 -226.090
v 214.276 0.685 -202.905
v 198.425 8.985 -256.750
v 277.184 8.985 -279.935
v 293.035 8.985 -226.090
v 214.276 8.985 -202.905
f 1344 1343 1342 1341
f 1337 1338 1342 1341
f 1338 1339 1343 1342
f 1339 1340 1344 1343
f 1340 1337 1341 1344
v 195.517 0.910 137.584
v 204.858 0.910 136.292
v 206.103 0.910 145.296
v 196.762 0.910 146.588
v 195.517 4.810 137.584
v 204.858 4.810 136.292
v 206.103 4.810 145.296
v 196.762 4.810 146.588
f 1352 1351 1350 1349
f 1345 1346 1350 1349
f 1346 1347 1351 1350
f 1347 1348 1352 1351
f 1348 1345 1349 1352
v 193.552 0.898 150.548
v 202.901 0.898 148.700
v 203.908 0.898 153.792
v 194.559 0.898 155.640
v 193.552 4.798 150.548
v 202.901 4.798 148.700
v 203.908 4.798 153.792
v 194.559 4.798 155.640
f 1360 1359 1358 1357
f 1353 1354 1358 1357
f 1354 1355 1359 1358
f 1355 1356 1360 1359
f 1356 1353 1357 1360
v 217.217 0.774 168.109
v 222.987 0.774 160.536
v 229.963 0.774 165.851
v 224.193 0.774 173.424
v 217.217 4.674 168.109
v 222.987 4.674 160.536
v 229.963 4.674 165.851
v 224.193 4.674 173.424
f 1368 1367 1366 1365
f 1361 1362 1366 1365
f 1362 1363 1367 1366
f 1363 1364 1368 1367
f 1364 1361 1365 1368
v 173.592 0.898 168.276
v 175.355 0.898 177.428
v 166.448 0.898 179.144
v 164.685 0.898 169.992
v 173.592 4.798 168.276
v 175.355 4.798 177.428
v 166.448 4.798 179.144
v 164.685 4.798 169.992
f 1376 1375 1374 1373
f 1369 1370 1374 1373
f 1370 1371 1375 1374
f 1371 1372 1376 1375
f 1372 1369 1373 1376
v 171.472 0.884 181.426
v 173.235 0.884 190.578
v 164.328 0.884 192.294
v 162.565 0.884 183.142
v 171.472 4.784 181.426
v 173.235 4.784 190.578
v 164.328 4.784 192.294
v 162.565 4.784 183.142
f 1384 1383 1382 1381
f 1377 1378 1382 1381
f 1378 1379 1383 1382
f 1379 1380 1384 1383
f 1380 1377 1381 1384
usemtl road
v -257.431 1.038 -107.796
v -221.691 1.022 -57.013
v -218.829 0.990 -59.027
v -254.569 1.101 -109.810
f 1385 1386 1387 1388
v -221.947 1.032 -57.555
v -217.937 0.974 -42.995
v -214.563 0.979 -43.925
v -218.573 1.001 -58.485
f 1389 1390 1391 1392
v -217.973 0.975 -43.767
v -230.723 0.710 27.823
v -227.277 0.676 28.437
v -214.527 0.991 -43.153
f 1393 1394 1395 1396
v -230.724 0.710 27.830
v -230.964 0.698 29.210
v -227.516 0.697 29.810
v -227.276 0.676 28.430
f 1397 1398 1399 1400
v -230.963 0.698 29.204
v -232.003 0.731 35.064
v -228.557 0.754 35.676
v -227.517 0.697 29.816
f 1401 1402 1403 1404
v 223.022 1.137 227.516
v 239.760 1.204 257.346
v 244.556 1.237 254.654
v 227.818 0.995 224.824
f 1405 1406 1407 1408
v 256.225 0.933 12.209
v 248.805 0.911 11.599
v 248.355 0.722 17.081
v 255.775 0.783 17.690
f 1409 1410 1411 1412
v 249.621 0.912 11.795
v 239.031 0.925 7.465
v 236.949 0.813 12.555
v 247.539 0.719 16.885
f 1413 1414 1415 1416
v 239.766 0.924 7.910
v 230.436 1.063 0.020
v 226.884 0.953 4.220
v 236.214 0.818 12.110
f 1417 1418 1419 1420
v 230.554 1.061 0.127
v 208.414 1.195 -20.913
v 204.626 1.180 -16.927
v 226.766 0.954 4.113
f 1421 1422 1423 1424
v 208.415 1.195 -20.913
v 203.555 1.211 -25.533
v 199.765 1.199 -21.547
v 204.625 1.180 -16.927
f 1425 1426 1427 1428
v 202.938 1.207 -25.975
v 193.048 1.139 -31.165
v 190.492 1.207 -26.295
v 200.382 1.199 -21.105
f 1429 1430 1431 1432
v 192.472 1.138 -31.389
v 180.992 1.109 -34.419
v 179.588 1.108 -29.101
v 191.068 1.203 -26.071
f 1433 1434 1435 1436
v 180.984 1.109 -34.421
v 176.194 1.093 -35.671
v 174.806 1.095 -30.349
v 179.596 1.108 -29.099
f 1437 1438 1439 1440
v 176.033 1.092 -35.708
v 166.213 1.108 -37.648
v 165.147 1.099 -32.252
v 174.967 1.096 -30.312
f 1441 1442 1443 1444
v 166.212 1.108 -37.648
v 118.252 1.080 -47.108
v 117.188 1.185 -41.712
v 165.148 1.099 -32.252
f 1445 1446 1447 1448
v 118.252 1.080 -47.108
v -12.358 1.217 -72.858
v -13.422 1.192 -67.462
v 117.188 1.185 -41.712
f 1449 1450 1451 1452
v 168.786 1.153 -12.586
v 161.976 1.093 -2.466
v 166.124 1.179 0.326
v 172.934 1.142 -9.794
f 1453 1454 1455 1456
v 161.590 1.095 -1.518
v 158.460 1.089 15.672
v 163.380 1.129 16.568
v 166.510 1.179 -0.622
f 1457 1458 1459 1460
v 158.462 1.089 15.663
v 155.162 1.004 33.423
v 160.078 1.076 34.337
v 163.378 1.128 16.577
f 1461 1462 1463 1464
v -35.205 0.885 48.779
v -172.795 1.069 19.889
v -173.925 0.998 25.271
v -36.335 0.863 54.161
f 1465 1466 1467 1468
v -171.442 1.073 20.609
v -175.162 1.108 16.989
v -178.998 1.021 20.931
v -175.278 1.000 24.551
f 1469 1470 1471 1472
v -174.404 1.089 18.327
v -175.814 1.172 12.367
v -181.166 1.069 13.633
v -179.756 1.040 19.593
f 1473 1474 1475 1476
v -175.787 1.166 13.508
v -163.837 1.308 -50.112
v -169.243 1.285 -51.128
v -181.193 1.073 12.492
f 1477 1478 1479 1480
v -164.733 1.282 -48.547
v -160.363 1.310 -52.357
v -163.977 1.310 -56.503
v -168.347 1.286 -52.693
f 1481 1482 1483 1484
v -161.800 1.307 -51.705
v -155.030 1.325 -52.625
v -155.770 1.329 -58.075
v -162.540 1.317 -57.155
f 1485 1486 1487 1488
v -155.938 1.328 -52.653
v -103.168 1.204 -42.133
v -102.092 1.201 -47.527
v -154.862 1.326 -58.047
f 1489 1490 1491 1492
v -103.167 1.204 -42.133
v -54.867 1.152 -32.523
v -53.793 1.101 -37.917
v -102.093 1.201 -47.527
f 1493 1494 1495 1496
v -54.868 1.152 -32.523
v -29.798 1.077 -27.523
v -28.722 1.014 -32.917
v -53.792 1.101 -37.917
f 1497 1498 1499 1500
v -29.794 1.077 -27.522
v -21.254 1.066 -25.832
v -20.186 1.077 -31.228
v -28.726 1.014 -32.918
f 1501 1502 1503 1504
v -21.213 1.065 -25.825
v 136.227 0.983 2.885
v 137.213 1.057 -2.525
v -20.227 1.078 -31.235
f 1505 1506 1507 1508
v 135.479 0.987 2.634
v 142.539 0.922 6.204
v 145.021 1.034 1.296
v 137.961 1.053 -2.274
f 1509 1510 1511 1512
v 141.196 0.909 4.692
v 144.246 0.894 13.062
v 149.414 1.061 11.178
v 146.364 1.033 2.808
f 1513 1514 1515 1516
v 144.134 0.904 11.579
v 143.554 0.877 14.469
v 148.946 1.005 15.551
v 149.526 1.067 12.661
f 1517 1518 1519 1520
v 143.553 0.877 14.475
v 131.823 0.768 73.575
v 137.217 0.927 74.645
v 148.947 1.005 15.545
f 1521 1522 1523 1524
v 132.436 0.771 72.316
v 127.546 0.740 77.996
v 131.714 0.836 81.584
v 136.604 0.937 75.904
f 1525 1526 1527 1528
v 128.730 0.738 77.191
v 121.190 0.765 79.801
v 122.990 0.723 84.999
v 130.530 0.808 82.389
f 1529 1530 1531 1532
v 122.619 0.755 79.701
v -35.241 0.886 48.771
v -36.299 0.863 54.169
v 121.561 0.712 85.099
f 1533 1534 1535 1536
v -33.067 0.856 51.978
v -18.017 1.023 -28.022
v -23.423 1.076 -29.038
v -38.473 0.915 50.962
f 1537 1538 1539 1540
v -18.017 1.023 -28.022
v -10.187 1.195 -69.652
v -15.593 1.197 -70.668
v -23.423 1.076 -29.038
f 1541 1542 1543 1544
v -10.188 1.195 -69.649
v -9.008 1.143 -75.889
v -14.412 1.200 -76.911
v -15.592 1.197 -70.671
f 1545 1546 1547 1548
v -9.007 1.143 -75.894
v -8.297 1.175 -79.684
v -13.703 1.206 -80.696
v -14.413 1.200 -76.906
f 1549 1550 1551 1552
v -8.297 1.175 -79.682
v -4.187 1.293 -101.532
v -9.593 1.240 -102.548
v -13.703 1.206 -80.698
f 1553 1554 1555 1556
v -4.348 1.276 -103.089
v -6.728 1.305 -108.859
v -11.812 1.216 -106.761
v -9.432 1.241 -100.991
f 1557 1558 1559 1560
v -254.438 1.709 254.348
v -193.598 0.955 212.343
v -196.722 0.946 207.817
v -257.562 1.560 249.822
f 1561 1562 1563 1564
v -193.597 0.955 212.342
v -189.227 1.078 209.322
v -192.353 1.067 204.798
v -196.723 0.946 207.818
f 1565 1566 1567 1568
v 135.622 1.418 186.325
v 139.422 1.287 163.655
v 133.998 1.309 162.745
v 130.198 1.457 185.415
f 1569 1570 1571 1572
v 139.395 1.286 163.794
v 150.165 0.801 115.084
v 144.795 0.730 113.896
v 134.025 1.308 162.606
f 1573 1574 1575 1576
v 150.162 0.801 115.096
v 152.772 0.694 103.546
v 147.408 0.720 102.334
v 144.798 0.729 113.884
f 1577 1578 1579 1580
v 99.931 1.713 258.210
v 119.117 1.745 244.000
v 115.843 1.691 239.580
v 96.658 1.591 253.790
f 1581 1582 1583 1584
v 119.630 1.733 243.505
v 126.020 1.676 235.495
v 121.720 1.684 232.065
v 115.330 1.694 240.075
f 1585 1586 1587 1588
v 126.441 1.672 234.755
v 130.191 1.664 224.865
v 125.049 1.662 222.915
v 121.299 1.677 232.805
f 1589 1590 1591 1592
v 130.340 1.658 224.294
v 134.430 1.478 196.774
v 128.990 1.462 195.966
v 124.900 1.668 223.486
f 1593 1594 1595 1596
v 134.442 1.477 196.682
v 135.642 1.417 186.182
v 130.178 1.456 185.558
v 128.978 1.463 196.058
f 1597 1598 1599 1600
v -256.520 1.482 -154.511
v -182.690 1.261 -140.300
v -181.650 1.239 -145.700
v -255.480 1.451 -159.912
f 1601 1602 1603 1604
v -182.690 1.261 -140.300
v -47.460 1.383 -114.280
v -46.420 1.415 -119.680
v -181.650 1.239 -145.700
f 1605 1606 1607 1608
v -47.460 1.383 -114.280
v -17.490 1.260 -108.510
v -16.450 1.270 -113.910
v -46.420 1.415 -119.680
f 1609 1610 1611 1612
v -18.081 1.268 -108.694
v -10.381 1.234 -105.294
v -8.159 1.295 -110.326
v -15.859 1.273 -113.726
f 1613 1614 1615 1616
v -228.981 0.668 39.678
v -222.181 0.700 37.628
v -224.779 0.696 29.012
v -231.579 0.676 31.062
f 1617 1618 1619 1620
v -223.480 0.693 37.820
v -216.330 0.682 37.820
v -216.330 0.768 28.820
v -223.480 0.714 28.820
f 1621 1622 1623 1624
v -217.071 0.682 37.759
v -199.051 0.755 40.769
v -197.569 0.822 31.891
v -215.589 0.772 28.881
f 1625 1626 1627 1628
v -199.155 0.756 40.750
v 149.245 0.605 107.360
v 150.935 0.666 98.520
v -197.465 0.822 31.910
f 1629 1630 1631 1632
v 254.384 0.841 201.744
v 223.804 1.110 223.945
v 227.036 0.956 228.395
v 257.616 0.782 206.195
f 1633 1634 1635 1636
v -61.383 1.583 254.735
v -65.668 1.576 246.465
v -70.552 1.596 248.995
v -66.267 1.611 257.265
f 1637 1638 1639 1640
v -65.627 1.575 246.548
v -67.227 1.570 243.188
v -72.193 1.606 245.552
v -70.593 1.596 248.912
f 1641 1642 1643 1644
v -67.491 1.568 242.746
v -68.801 1.561 240.956
v -73.239 1.602 244.204
v -71.929 1.604 245.994
f 1645 1646 1647 1648
v -69.197 1.558 240.521
v -72.507 1.545 237.591
v -76.153 1.598 241.709
v -72.843 1.605 244.639
f 1649 1650 1651 1652
v -73.071 1.543 237.205
v -76.081 1.553 235.655
v -78.599 1.595 240.545
v -75.589 1.602 242.095
f 1653 1654 1655 1656
v -76.516 1.557 235.476
v -78.426 1.554 234.876
v -80.074 1.578 240.124
v -78.164 1.597 240.724
f 1657 1658 1659 1660
v -78.568 1.553 234.836
v -83.608 1.518 233.546
v -84.972 1.584 238.874
v -79.932 1.580 240.164
f 1661 1662 1663 1664
v -83.551 1.519 233.561
v -94.261 1.480 230.571
v -95.739 1.491 235.869
v -85.029 1.584 238.859
f 1665 1666 1667 1668
v -94.011 1.482 230.654
v -107.421 1.370 225.484
v -109.399 1.332 230.616
v -95.989 1.490 235.786
f 1669 1670 1671 1672
v -107.018 1.370 225.678
v -113.118 1.347 222.098
v -115.902 1.322 226.842
v -109.802 1.331 230.422
f 1673 1674 1675 1676
v -112.871 1.350 222.262
v -118.231 1.289 218.282
v -121.509 1.296 222.698
v -116.149 1.327 226.678
f 1677 1678 1679 1680
v -117.855 1.291 218.618
v -124.015 1.286 211.988
v -128.045 1.239 215.732
v -121.885 1.293 222.362
f 1681 1682 1683 1684
v -123.726 1.282 212.359
v -161.476 1.222 154.419
v -166.084 1.223 157.421
v -128.334 1.240 215.361
f 1685 1686 1687 1688
v -161.517 1.222 154.357
v -184.167 1.195 121.567
v -188.693 1.211 124.693
v -166.043 1.223 157.483
f 1689 1690 1691 1692
v -183.687 1.181 122.929
v -185.097 1.387 103.709
v -190.583 1.430 104.111
v -189.173 1.225 123.331
f 1693 1694 1695 1696
v -119.596 1.379 118.645
v -132.486 1.162 133.095
v -129.874 1.166 135.425
v -116.984 1.377 120.975
f 1697 1698 1699 1700
v -132.148 1.168 132.802
v -164.748 1.259 154.462
v -162.812 1.276 157.378
v -130.212 1.166 135.718
f 1701 1702 1703 1704
v 19.869 1.244 155.270
v 31.999 1.067 170.280
v 34.721 1.039 168.080
v 22.591 1.196 153.070
f 1705 1706 1707 1708
v 31.890 1.069 170.130
v 47.970 1.165 195.020
v 50.910 1.203 193.120
v 34.830 1.039 168.230
f 1709 1710 1711 1712
v 47.970 1.165 195.019
v 61.830 1.317 216.489
v 64.770 1.340 214.591
v 50.910 1.203 193.121
f 1713 1714 1715 1716
v 61.830 1.317 216.489
v 87.962 1.647 256.949
v 90.902 1.604 255.051
v 64.770 1.340 214.591
f 1717 1718 1719 1720
v 196.634 1.308 172.556
v 187.874 1.136 186.656
v 190.846 1.134 188.504
v 199.606 1.274 174.404
f 1721 1722 1723 1724
v 188.245 1.148 186.231
v 179.945 1.304 193.091
v 182.175 1.294 195.789
v 190.475 1.128 188.929
f 1725 1726 1727 1728
v 180.119 1.299 192.964
v 171.839 1.458 198.244
v 173.721 1.438 201.196
v 182.001 1.297 195.916
f 1729 1730 1731 1732
v 172.556 1.449 197.984
v 163.646 1.601 199.134
v 164.094 1.578 202.606
v 173.004 1.455 201.456
f 1733 1734 1735 1736
v 163.958 1.598 199.122
v 141.048 1.455 197.972
v 140.872 1.479 201.468
v 163.782 1.580 202.618
f 1737 1738 1739 1740
v 141.556 1.462 198.075
v 132.306 1.472 194.725
v 131.114 1.476 198.015
v 140.364 1.475 201.365
f 1741 1742 1743 1744
v 137.396 1.294 160.796
v 115.566 1.133 154.566
v 114.194 1.158 159.374
v 136.024 1.329 165.604
f 1745 1746 1747 1748
v 116.101 1.146 154.789
v 109.421 1.174 151.049
v 106.979 1.145 155.411
v 113.659 1.155 159.151
f 1749 1750 1751 1752
v 109.530 1.173 151.113
v 102.430 1.144 146.653
v 99.770 1.144 150.887
v 106.870 1.144 155.347
f 1753 1754 1755 1756
v 102.961 1.138 147.101
v 81.211 1.265 122.841
v 77.489 1.272 126.179
v 99.239 1.145 150.439
f 1757 1758 1759 1760
v 80.944 1.270 122.584
v 71.774 1.225 114.994
v 68.586 1.222 118.846
v 77.756 1.272 126.436
f 1761 1762 1763 1764
v 71.613 1.222 114.871
v 62.003 1.129 108.151
v 59.137 1.149 112.249
v 68.747 1.225 118.969
f 1765 1766 1767 1768
v 61.587 1.125 107.916
v 50.247 1.108 102.866
v 48.213 1.100 107.434
v 59.553 1.151 112.484
f 1769 1770 1771 1772
v 49.762 1.107 102.707
v 38.182 1.087 100.187
v 37.118 1.057 105.073
v 48.698 1.104 107.593
f 1773 1774 1775 1776
v -7.763 1.289 -106.921
v -5.103 1.302 -111.431
v -8.117 1.276 -113.209
v -10.777 1.263 -108.699
f 1777 1778 1779 1780
v -4.928 1.301 -111.837
v -2.658 1.299 -119.737
v -6.022 1.311 -120.703
v -8.292 1.277 -112.803
f 1781 1782 1783 1784
v -2.637 1.299 -119.816
v 4.683 1.371 -150.656
v 1.277 1.362 -151.464
v -6.043 1.310 -120.624
f 1785 1786 1787 1788
v -45.231 1.373 -116.602
v -27.731 1.526 -195.812
v -31.149 1.506 -196.568
v -48.649 1.373 -117.358
f 1789 1790 1791 1792
v 127.176 1.681 225.583
v 133.046 1.630 227.123
v 133.934 1.620 223.737
v 128.064 1.657 222.197
f 1793 1794 1795 1796
v 133.045 1.630 227.122
v 139.205 1.551 228.742
v 140.095 1.603 225.358
v 133.935 1.620 223.738
f 1797 1798 1799 1800
v 138.200 1.566 228.030
v 154.150 1.429 251.630
v 157.050 1.401 249.670
v 141.100 1.591 226.070
f 1801 1802 1803 1804
v 155.147 1.425 252.340
v 158.207 1.404 253.160
v 159.113 1.425 249.780
v 156.053 1.404 248.960
f 1805 1806 1807 1808
v 175.453 1.156 1.019
v 181.923 1.201 -14.741
v 177.297 1.109 -16.639
v 170.827 1.160 -0.879
f 1809 1810 1811 1812
v 181.011 1.203 -13.619
v 185.681 1.228 -16.779
v 182.879 1.211 -20.921
v 178.209 1.121 -17.761
f 1813 1814 1815 1816
v 185.685 1.228 -16.782
v 187.555 1.223 -18.052
v 184.745 1.223 -22.188
v 182.875 1.211 -20.918
f 1817 1818 1819 1820
v 186.506 1.225 -17.645
v 192.766 1.208 -18.545
v 192.054 1.207 -23.495
v 185.794 1.221 -22.595
f 1821 1822 1823 1824
v 192.042 1.210 -18.547
v 206.152 1.169 -16.447
v 206.888 1.182 -21.393
v 192.778 1.207 -23.493
f 1825 1826 1827 1828
v 173.055 1.100 -33.530
v 168.415 1.151 -11.710
v 173.305 1.140 -10.670
v 177.945 1.121 -32.490
f 1829 1830 1831 1832
v 152.304 0.683 104.101
v 156.084 0.684 96.891
v 151.656 0.756 94.569
v 147.876 0.725 101.779
f 1833 1834 1835 1836
v 156.321 0.715 96.224
v 160.751 0.925 74.244
v 155.849 1.025 73.256
v 151.419 0.725 95.236
f 1837 1838 1839 1840
v 160.751 0.925 74.244
v 168.481 1.019 35.884
v 163.579 1.094 34.896
v 155.849 1.025 73.256
f 1841 1842 1843 1844
v -181.902 1.647 -255.461
v -186.292 1.642 -248.471
v -183.328 1.648 -246.609
v -178.938 1.630 -253.599
f 1845 1846 1847 1848
v -185.425 1.646 -249.178
v -196.045 1.666 -245.188
v -194.815 1.678 -241.912
v -184.195 1.645 -245.902
f 1849 1850 1851 1852
v -195.627 1.664 -245.289
v -209.217 1.688 -243.749
v -208.823 1.732 -240.271
v -195.233 1.682 -241.811
f 1853 1854 1855 1856
v -208.644 1.688 -243.719
v -218.794 1.679 -245.949
v -219.546 1.691 -242.531
v -209.396 1.728 -240.301
f 1857 1858 1859 1860
v -218.795 1.679 -245.949
v -234.455 1.682 -249.389
v -235.205 1.701 -245.971
v -219.545 1.691 -242.531
f 1861 1862 1863 1864
v -234.454 1.682 -249.389
v -253.414 1.700 -253.559
v -254.166 1.704 -250.141
v -235.206 1.701 -245.971
f 1865 1866 1867 1868
v -183.914 1.256 -143.148
v -184.124 1.266 -140.678
v -180.636 1.255 -140.382
v -180.426 1.243 -142.852
f 1869 1870 1871 1872
v -184.124 1.266 -140.674
v -186.494 1.603 -112.004
v -183.006 1.594 -111.716
v -180.636 1.255 -140.386
f 1873 1874 1875 1876
v -186.291 1.601 -112.689
v -192.881 1.500 -100.429
v -189.799 1.552 -98.771
v -183.209 1.599 -111.031
f 1877 1878 1879 1880
v -192.929 1.498 -100.333
v -198.019 1.441 -89.293
v -194.841 1.497 -87.827
v -189.751 1.553 -98.867
f 1881 1882 1883 1884
v -198.162 1.441 -88.807
v -199.722 1.428 -77.877
v -196.258 1.480 -77.383
v -194.698 1.505 -88.313
f 1885 1886 1887 1888
v -199.721 1.428 -77.890
v -212.011 1.237 4.030
v -208.549 1.196 4.550
v -196.259 1.480 -77.370
f 1889 1890 1891 1892
v -11.359 1.201 -78.114
v -18.639 1.189 -79.604
v -19.341 1.188 -76.176
v -12.061 1.214 -74.686
f 1893 1894 1895 1896
v -18.639 1.189 -79.604
v -184.399 1.586 -113.574
v -185.101 1.594 -110.146
v -19.341 1.189 -76.176
f 1897 1898 1899 1900
v 150.078 0.993 74.651
v 157.808 0.987 76.201
v 158.792 0.992 71.299
v 151.062 1.000 69.749
f 1901 1902 1903 1904
v 157.178 1.029 36.341
v 165.588 1.060 37.851
v 166.472 1.055 32.929
v 158.062 1.035 31.419
f 1905 1906 1907 1908
v 155.161 1.004 33.428
v 148.111 0.971 71.748
v 153.029 1.026 72.652
v 160.079 1.076 34.332
f 1909 1910 1911 1912
v 148.111 0.971 71.748
v 144.031 0.763 93.948
v 148.949 0.738 94.852
v 153.029 1.026 72.652
f 1913 1914 1915 1916
v 144.186 0.724 95.371
v 147.786 0.691 103.911
v 152.394 0.705 101.969
v 148.794 0.808 93.429
f 1917 1918 1919 1920
v 168.481 1.019 35.882
v 170.451 1.117 26.072
v 165.549 1.113 25.088
v 163.579 1.094 34.898
f 1921 1922 1923 1924
v 170.451 1.117 26.075
v 172.151 1.162 17.655
v 167.249 1.104 16.665
v 165.549 1.113 25.085
f 1925 1926 1927 1928
v 172.151 1.162 17.653
v 175.591 1.156 0.563
v 170.689 1.162 -0.423
v 167.249 1.104 16.667
f 1929 1930 1931 1932
v 175.590 1.153 -0.426
v 173.310 1.138 -11.686
v 168.410 1.153 -10.694
v 170.690 1.163 0.566
f 1933 1934 1935 1936
v 119.437 1.093 -44.073
v 133.747 1.130 -116.923
v 130.313 1.117 -117.597
v 116.003 1.090 -44.747
f 1937 1938 1939 1940
v 131.726 1.120 -115.537
v 155.646 1.233 -111.317
v 156.254 1.268 -114.763
v 132.334 1.088 -118.983
f 1941 1942 1943 1944
v 155.645 1.233 -111.317
v 174.905 1.222 -107.907
v 175.515 1.250 -111.353
v 156.255 1.268 -114.763
f 1945 1946 1947 1948
v 174.905 1.222 -107.907
v 192.845 1.112 -104.737
v 193.455 1.166 -108.183
v 175.515 1.250 -111.353
f 1949 1950 1951 1952
v 192.845 1.112 -104.737
v 197.705 1.149 -103.877
v 198.315 1.186 -107.323
v 193.455 1.166 -108.183
f 1953 1954 1955 1956
v -232.763 0.681 141.890
v -238.943 0.631 145.030
v -237.357 0.662 148.150
v -231.177 0.727 145.010
f 1957 1958 1959 1960
v -238.938 0.631 145.028
v -244.448 0.868 147.808
v -242.872 0.963 150.932
v -237.362 0.662 148.152
f 1961 1962 1963 1964
v -244.214 0.864 147.710
v -256.554 0.869 151.829
v -255.446 1.044 155.149
v -243.106 0.967 151.030
f 1965 1966 1967 1968
v -234.209 0.634 43.537
v -227.729 0.675 39.077
v -232.831 0.676 31.663
v -239.311 0.634 36.123
f 1969 1970 1971 1972
v -236.545 1.687 -248.026
v -252.585 1.475 -168.516
v -249.155 1.436 -167.824
v -233.115 1.697 -247.334
f 1973 1974 1975 1976
v -209.983 1.493 -163.146
v -250.583 1.462 -169.896
v -251.157 1.441 -166.444
v -210.557 1.432 -159.694
f 1977 1978 1979 1980
v 182.014 1.128 -31.462
v 182.924 1.098 -36.732
v 179.476 1.096 -37.328
v 178.566 1.122 -32.058
f 1981 1982 1983 1984
v 182.925 1.098 -36.733
v 185.305 1.007 -50.533
v 181.855 1.022 -51.127
v 179.475 1.096 -37.327
f 1985 1986 1987 1988
v 185.305 1.007 -50.533
v 192.825 1.159 -94.253
v 189.375 1.123 -94.847
v 181.855 1.022 -51.127
f 1989 1990 1991 1992
v 192.825 1.159 -94.253
v 194.875 1.142 -106.163
v 191.425 1.142 -106.757
v 189.375 1.123 -94.847
f 1993 1994 1995 1996
v 194.874 1.142 -106.162
v 198.414 1.249 -126.662
v 194.966 1.200 -127.258
v 191.426 1.142 -106.758
f 1997 1998 1999 2000
v 198.302 1.247 -126.278
v 205.102 1.253 -142.348
v 201.878 1.226 -143.712
v 195.078 1.202 -127.642
f 2001 2002 2003 2004
v 204.037 1.247 -141.368
v 221.087 1.323 -146.978
v 219.993 1.307 -150.302
v 202.943 1.218 -144.692
f 2005 2006 2007 2008
v 221.086 1.323 -146.977
v 229.186 1.297 -149.637
v 228.094 1.298 -152.963
v 219.994 1.307 -150.303
f 2009 2010 2011 2012
v 228.797 1.296 -149.557
v 237.457 1.308 -150.337
v 237.143 1.323 -153.823
v 228.483 1.299 -153.043
f 2013 2014 2015 2016
v 227.206 1.238 -133.630
v 233.236 1.312 -142.290
v 230.364 1.302 -144.290
v 224.334 1.239 -135.630
f 2017 2018 2019 2020
v 233.284 1.313 -142.362
v 238.784 1.306 -151.152
v 235.816 1.321 -153.008
v 230.316 1.301 -144.218
f 2021 2022 2023 2024
v 236.974 1.310 -150.361
v 252.064 1.368 -147.501
v 252.716 1.366 -150.939
v 237.626 1.321 -153.799
f 2025 2026 2027 2028
v 198.939 1.165 -104.117
v 214.339 1.149 -113.767
v 212.481 1.130 -116.733
v 197.081 1.176 -107.083
f 2029 2030 2031 2032
v 214.885 1.143 -114.309
v 227.245 1.239 -133.689
v 224.295 1.239 -135.571
v 211.935 1.138 -116.191
f 2033 2034 2035 2036
v -220.741 0.681 180.984
v -217.021 0.657 178.564
v -220.839 0.707 172.696
v -224.559 0.624 175.116
f 2037 2038 2039 2040
v -217.028 0.657 178.568
v -211.978 0.817 175.298
v -215.782 0.787 169.422
v -220.832 0.707 172.692
f 2041 2042 2043 2044
v 157.928 0.989 75.460
v 162.668 0.891 76.490
v 163.412 0.922 73.070
v 158.672 0.989 72.040
f 2045 2046 2047 2048
v 162.670 0.891 76.490
v 187.710 1.006 81.910
v 188.450 1.030 78.490
v 163.410 0.922 73.070
f 2049 2050 2051 2052
v 189.790 1.015 80.574
v 198.160 1.050 42.344
v 194.740 1.065 41.596
v 186.370 1.017 79.826
f 2053 2054 2055 2056
v 196.820 1.072 40.260
v 170.590 1.018 34.590
v 169.850 1.044 38.010
v 196.080 1.045 43.680
f 2057 2058 2059 2060
v 170.591 1.018 34.590
v 166.401 1.054 33.680
v 165.659 1.054 37.100
v 169.849 1.044 38.010
f 2061 2062 2063 2064
v 154.235 1.252 -113.387
v 143.215 1.151 -58.907
v 146.645 1.178 -58.213
v 157.665 1.255 -112.693
f 2065 2066 2067 2068
v 144.586 1.158 -56.844
v 162.676 1.183 -53.214
v 163.364 1.171 -56.646
v 145.274 1.171 -60.276
f 2069 2070 2071 2072
v 162.678 1.183 -53.214
v 183.238 1.015 -49.114
v 183.922 1.014 -52.546
v 163.362 1.171 -56.646
f 2073 2074 2075 2076
v 183.236 1.015 -49.114
v 220.766 1.074 -41.584
v 221.454 1.073 -45.016
v 183.924 1.014 -52.546
f 2077 2078 2079 2080
v 220.768 1.074 -41.584
v 236.118 1.142 -38.524
v 236.802 1.146 -41.956
v 221.452 1.073 -45.016
f 2081 2082 2083 2084
v 164.728 1.166 -54.549
v 176.918 1.241 -109.249
v 173.502 1.225 -110.011
v 161.312 1.187 -55.311
f 2085 2086 2087 2088
v 190.893 1.164 -92.812
v 208.673 1.113 -90.692
v 209.087 1.138 -94.168
v 191.307 1.148 -96.288
f 2089 2090 2091 2092
v 208.320 1.115 -90.772
v 216.200 1.108 -88.112
v 217.320 1.126 -91.428
v 209.440 1.139 -94.088
f 2093 2094 2095 2096
v 215.716 1.108 -88.366
v 226.486 1.153 -80.356
v 228.574 1.143 -83.164
v 217.804 1.123 -91.174
f 2097 2098 2099 2100
v 225.804 1.147 -82.048
v 222.874 1.059 -64.478
v 226.326 1.069 -63.902
v 229.256 1.156 -81.472
f 2101 2102 2103 2104
v 222.874 1.059 -64.478
v 219.384 1.069 -43.588
v 222.836 1.068 -43.012
v 226.326 1.069 -63.902
f 2105 2106 2107 2108
v 198.324 1.192 -67.553
v 224.264 1.048 -62.473
v 224.936 1.063 -65.907
v 198.996 1.202 -70.987
f 2109 2110 2111 2112
v 228.801 1.162 -80.557
v 238.401 1.113 -90.707
v 235.859 1.099 -93.113
v 226.259 1.146 -82.963
f 2113 2114 2115 2116
v 242.439 0.644 119.001
v 243.619 0.520 111.461
v 240.161 0.521 110.919
v 238.981 0.645 118.459
f 2117 2118 2119 2120
v 243.619 0.520 111.461
v 249.979 1.022 70.871
v 246.521 1.131 70.329
v 240.161 0.521 110.919
f 2121 2122 2123 2124
v 248.553 1.069 68.876
v 216.793 1.299 63.286
v 216.187 1.369 66.734
v 247.947 1.075 72.324
f 2125 2126 2127 2128
v 214.762 1.250 64.734
v 211.662 1.365 84.174
v 215.118 1.587 84.726
v 218.218 1.420 65.286
f 2129 2130 2131 2132
v 37.732 1.053 100.882
v 17.562 1.125 99.932
v 17.398 1.118 103.428
v 37.568 1.051 104.378
f 2133 2134 2135 2136
v 17.486 1.126 99.930
v 8.966 1.218 99.900
v 8.954 1.186 103.400
v 17.474 1.117 103.430
f 2137 2138 2139 2140
v 8.757 1.220 99.912
v -2.303 1.296 101.202
v -1.897 1.258 104.678
v 9.163 1.184 103.388
f 2141 2142 2143 2144
v -2.490 1.296 101.234
v -10.800 1.333 103.134
v -10.020 1.308 106.546
v -1.710 1.257 104.646
f 2145 2146 2147 2148
v -10.828 1.333 103.141
v -18.358 1.343 104.991
v -17.522 1.319 108.389
v -9.992 1.307 106.539
f 2149 2150 2151 2152
v -18.603 1.340 105.070
v -29.283 1.216 109.440
v -27.957 1.177 112.680
v -17.277 1.321 108.310
f 2153 2154 2155 2156
v -29.527 1.209 109.564
v -36.257 1.110 113.644
v -34.443 1.100 116.636
v -27.713 1.183 112.556
f 2157 2158 2159 2160
v -36.421 1.109 113.756
v -45.641 0.958 120.896
v -43.499 0.925 123.664
v -34.279 1.104 116.524
f 2161 2162 2163 2164
v -45.788 0.954 121.023
v -54.608 0.752 129.573
v -52.172 0.726 132.087
v -43.352 0.926 123.537
f 2165 2166 2167 2168
v -210.892 0.764 170.538
v -225.402 0.754 146.748
v -231.378 0.725 150.392
v -216.868 0.765 174.182
f 2169 2170 2171 2172
v -225.522 0.754 146.564
v -229.102 0.720 141.444
v -234.838 0.716 145.456
v -231.258 0.725 150.576
f 2173 2174 2175 2176
v -229.110 0.720 141.433
v -253.140 0.623 107.367
v -258.860 0.638 111.402
v -234.830 0.716 145.467
f 2177 2178 2179 2180
v 149.317 0.605 107.373
v 214.087 0.604 118.663
v 215.633 0.627 109.797
v 150.863 0.666 98.507
f 2181 2182 2183 2184
v 214.088 0.604 118.663
v 239.938 0.554 123.163
v 241.482 0.567 114.297
v 215.632 0.627 109.797
f 2185 2186 2187 2188
v -20.750 1.586 229.638
v 7.490 1.494 230.928
v 7.650 1.404 227.432
v -20.590 1.561 226.142
f 2189 2190 2191 2192
v 8.478 1.481 230.676
v 20.978 1.378 223.086
v 19.162 1.324 220.094
v 6.662 1.408 227.684
f 2193 2194 2195 2196
v 21.464 1.378 222.648
v 25.684 1.390 217.088
v 22.896 1.333 214.972
v 18.676 1.323 220.532
f 2197 2198 2199 2200
v 25.976 1.388 216.500
v 27.926 1.340 209.510
v 24.554 1.352 208.570
v 22.604 1.334 215.560
f 2201 2202 2203 2204
v 27.205 1.355 210.500
v 47.385 1.154 197.170
v 45.455 1.142 194.250
v 25.275 1.360 207.580
f 2205 2206 2207 2208
v 47.255 1.153 197.248
v 50.275 1.196 195.608
v 48.605 1.195 192.532
v 45.585 1.143 194.172
f 2209 2210 2211 2212
v -153.843 1.279 254.000
v -187.918 0.998 205.060
v -193.662 0.977 209.060
v -159.588 1.280 258.000
f 2213 2214 2215 2216
v -187.876 0.998 205.121
v -210.966 0.763 170.421
v -216.794 0.765 174.299
v -193.704 0.976 208.999
f 2217 2218 2219 2220
v 64.037 1.324 217.127
v 69.767 1.348 214.467
v 68.293 1.283 211.293
v 62.563 1.317 213.953
f 2221 2222 2223 2224
v 69.739 1.347 214.480
v 102.109 1.207 200.140
v 100.691 0.993 196.940
v 68.321 1.283 211.280
f 2225 2226 2227 2228
v 102.404 1.205 199.973
v 109.844 1.076 194.763
v 107.836 0.949 191.897
v 100.396 0.997 197.107
f 2229 2230 2231 2232
usemtl asphalt
