# Baked ultra-low Key West silhouette; generated by bake_key_west_far_city.py
mtllib far_city.mtl
usemtl massing
v -134.517 1.478 40.244
v -59.472 1.478 135.186
v -135.343 1.478 195.156
v -210.388 1.478 100.214
v -134.517 10.778 40.244
v -59.472 10.778 135.186
v -135.343 10.778 195.156
v -210.388 10.778 100.214
f 8 7 6 5
f 1 2 6 5
f 2 3 7 6
f 3 4 8 7
f 4 1 5 8
v 104.921 1.970 97.076
v 360.253 1.970 53.342
v 377.519 1.970 154.144
v 122.187 1.970 197.878
v 104.921 10.270 97.076
v 360.253 10.270 53.342
v 377.519 10.270 154.144
v 122.187 10.270 197.878
f 16 15 14 13
f 9 10 14 13
f 10 11 15 14
f 11 12 16 15
f 12 9 13 16
v -33.560 0.866 154.094
v -18.312 0.866 136.396
v -6.160 0.866 146.866
v -21.408 0.866 164.564
v -33.560 7.666 154.094
v -18.312 7.666 136.396
v -6.160 7.666 146.866
v -21.408 7.666 164.564
f 24 23 22 21
f 17 18 22 21
f 18 19 23 22
f 19 20 24 23
f 20 17 21 24
v -242.091 0.667 59.841
v -170.199 0.667 31.985
v -142.729 0.667 102.879
v -214.621 0.667 130.735
v -242.091 8.967 59.841
v -170.199 8.967 31.985
v -142.729 8.967 102.879
v -214.621 8.967 130.735
f 32 31 30 29
f 25 26 30 29
f 26 27 31 30
f 27 28 32 31
f 28 25 29 32
v -152.747 1.605 15.482
v -138.565 1.605 24.984
v -145.033 1.605 34.638
v -159.215 1.605 25.136
v -152.747 5.505 15.482
v -138.565 5.505 24.984
v -145.033 5.505 34.638
v -159.215 5.505 25.136
f 40 39 38 37
f 33 34 38 37
f 34 35 39 38
f 35 36 40 39
f 36 33 37 40
v -27.924 2.716 -232.809
v 11.272 2.716 -207.532
v -6.076 2.716 -180.631
v -45.272 2.716 -205.908
v -27.924 8.516 -232.809
v 11.272 8.516 -207.532
v -6.076 8.516 -180.631
v -45.272 8.516 -205.908
f 48 47 46 45
f 41 42 46 45
f 42 43 47 46
f 43 44 48 47
f 44 41 45 48
v -82.996 1.394 -77.591
v -61.888 1.394 -101.415
v -50.504 1.394 -91.329
v -71.612 1.394 -67.505
v -82.996 5.294 -77.591
v -61.888 5.294 -101.415
v -50.504 5.294 -91.329
v -71.612 5.294 -67.505
f 56 55 54 53
f 49 50 54 53
f 50 51 55 54
f 51 52 56 55
f 52 49 53 56
v 60.349 1.741 -216.584
v 118.240 1.741 -202.711
v 108.291 1.741 -161.196
v 50.400 1.741 -175.069
v 60.349 10.041 -216.584
v 118.240 10.041 -202.711
v 108.291 10.041 -161.196
v 50.400 10.041 -175.069
f 64 63 62 61
f 57 58 62 61
f 58 59 63 62
f 59 60 64 63
f 60 57 61 64
v -224.858 1.462 1.960
v -220.787 1.462 -31.363
v -198.662 1.462 -28.660
v -202.733 1.462 4.663
v -224.858 5.362 1.960
v -220.787 5.362 -31.363
v -198.662 5.362 -28.660
v -202.733 5.362 4.663
f 72 71 70 69
f 65 66 70 69
f 66 67 71 70
f 67 68 72 71
f 68 65 69 72
v -257.789 1.561 11.079
v -239.158 1.561 23.533
v -244.831 1.561 32.021
v -263.462 1.561 19.567
v -257.789 5.461 11.079
v -239.158 5.461 23.533
v -244.831 5.461 32.021
v -263.462 5.461 19.567
f 80 79 78 77
f 73 74 78 77
f 74 75 79 78
f 75 76 80 79
f 76 73 77 80
v -250.356 1.522 -2.372
v -194.285 1.522 34.467
v -199.584 1.522 42.532
v -255.655 1.522 5.693
v -250.356 7.322 -2.372
v -194.285 7.322 34.467
v -199.584 7.322 42.532
v -255.655 7.322 5.693
f 88 87 86 85
f 81 82 86 85
f 82 83 87 86
f 83 84 88 87
f 84 81 85 88
v -199.300 1.197 0.771
v -181.685 1.197 -25.536
v -160.380 1.197 -11.271
v -177.995 1.197 15.036
v -199.300 6.997 0.771
v -181.685 6.997 -25.536
v -160.380 6.997 -11.271
v -177.995 6.997 15.036
f 96 95 94 93
f 89 90 94 93
f 90 91 95 94
f 91 92 96 95
f 92 89 93 96
v -274.083 1.025 128.091
v -225.623 1.025 80.960
v -204.937 1.025 102.229
v -253.397 1.025 149.360
v -274.083 6.825 128.091
v -225.623 6.825 80.960
v -204.937 6.825 102.229
v -253.397 6.825 149.360
f 104 103 102 101
f 97 98 102 101
f 98 99 103 102
f 99 100 104 103
f 100 97 101 104
v -223.505 1.008 207.487
v -178.338 1.008 145.992
v -159.575 1.008 159.773
v -204.742 1.008 221.268
v -223.505 6.808 207.487
v -178.338 6.808 145.992
v -159.575 6.808 159.773
v -204.742 6.808 221.268
f 112 111 110 109
f 105 106 110 109
f 106 107 111 110
f 107 108 112 111
f 108 105 109 112
v -298.211 0.993 221.824
v -212.060 0.993 101.889
v -188.189 0.993 119.036
v -274.340 0.993 238.971
v -298.211 9.293 221.824
v -212.060 9.293 101.889
v -188.189 9.293 119.036
v -274.340 9.293 238.971
f 120 119 118 117
f 113 114 118 117
f 114 115 119 118
f 115 116 120 119
f 116 113 117 120
v 168.949 1.192 -97.248
v 191.149 1.192 -83.467
v 178.191 1.192 -62.592
v 155.991 1.192 -76.373
v 168.949 7.492 -97.248
v 191.149 7.492 -83.467
v 178.191 7.492 -62.592
v 155.991 7.492 -76.373
f 128 127 126 125
f 121 122 126 125
f 122 123 127 126
f 123 124 128 127
f 124 121 125 128
v -103.683 2.014 -150.398
v -70.745 2.014 -127.058
v -77.417 2.014 -117.642
v -110.355 2.014 -140.982
v -103.683 8.314 -150.398
v -70.745 8.314 -127.058
v -77.417 8.314 -117.642
v -110.355 8.314 -140.982
f 136 135 134 133
f 129 130 134 133
f 130 131 135 134
f 131 132 136 135
f 132 129 133 136
v 31.903 1.727 -94.196
v 40.726 1.727 -105.967
v 52.177 1.727 -97.384
v 43.354 1.727 -85.613
v 31.903 8.027 -94.196
v 40.726 8.027 -105.967
v 52.177 8.027 -97.384
v 43.354 8.027 -85.613
f 144 143 142 141
f 137 138 142 141
f 138 139 143 142
f 139 140 144 143
f 140 137 141 144
v 16.411 2.318 -239.334
v 28.346 2.318 -257.229
v 34.769 2.318 -252.946
v 22.834 2.318 -235.051
v 16.411 5.818 -239.334
v 28.346 5.818 -257.229
v 34.769 5.818 -252.946
v 22.834 5.818 -235.051
f 152 151 150 149
f 145 146 150 149
f 146 147 151 150
f 147 148 152 151
f 148 145 149 152
v -76.133 2.446 -237.263
v -64.900 2.446 -252.276
v -58.327 2.446 -247.357
v -69.560 2.446 -232.344
v -76.133 11.746 -237.263
v -64.900 11.746 -252.276
v -58.327 11.746 -247.357
v -69.560 11.746 -232.344
f 160 159 158 157
f 153 154 158 157
f 154 155 159 158
f 155 156 160 159
f 156 153 157 160
v -102.603 2.330 -214.149
v -94.814 2.330 -226.510
v -86.277 2.330 -221.131
v -94.066 2.330 -208.770
v -102.603 5.830 -214.149
v -94.814 5.830 -226.510
v -86.277 5.830 -221.131
v -94.066 5.830 -208.770
f 168 167 166 165
f 161 162 166 165
f 162 163 167 166
f 163 164 168 167
f 164 161 165 168
v -50.777 1.317 -121.370
v -35.307 1.317 -110.014
v -42.343 1.317 -100.430
v -57.813 1.317 -111.786
v -50.777 7.617 -121.370
v -35.307 7.617 -110.014
v -42.343 7.617 -100.430
v -57.813 7.617 -111.786
f 176 175 174 173
f 169 170 174 173
f 170 171 175 174
f 171 172 176 175
f 172 169 173 176
v -158.558 1.835 -148.439
v -136.382 1.835 -134.338
v -143.642 1.835 -122.921
v -165.818 1.835 -137.022
v -158.558 8.135 -148.439
v -136.382 8.135 -134.338
v -143.642 8.135 -122.921
v -165.818 8.135 -137.022
f 184 183 182 181
f 177 178 182 181
f 178 179 183 182
f 179 180 184 183
f 180 177 181 184
v -180.010 1.711 -123.481
v -162.148 1.711 -110.637
v -170.070 1.711 -99.619
v -187.932 1.711 -112.463
v -180.010 5.211 -123.481
v -162.148 5.211 -110.637
v -170.070 5.211 -99.619
v -187.932 5.211 -112.463
f 192 191 190 189
f 185 186 190 189
f 186 187 191 190
f 187 188 192 191
f 188 185 189 192
v -152.265 1.513 -24.116
v -140.963 1.513 -40.713
v -129.995 1.513 -33.244
v -141.297 1.513 -16.647
v -152.265 5.013 -24.116
v -140.963 5.013 -40.713
v -129.995 5.013 -33.244
v -141.297 5.013 -16.647
f 200 199 198 197
f 193 194 198 197
f 194 195 199 198
f 195 196 200 199
f 196 193 197 200
v -18.882 1.122 81.915
v -5.127 1.122 62.873
v 12.942 1.122 75.925
v -0.813 1.122 94.967
v -18.882 10.422 81.915
v -5.127 10.422 62.873
v 12.942 10.422 75.925
v -0.813 10.422 94.967
f 208 207 206 205
f 201 202 206 205
f 202 203 207 206
f 203 204 208 207
f 204 201 205 208
v 90.954 1.174 107.090
v 91.451 1.174 127.504
v 73.986 1.174 127.930
v 73.489 1.174 107.516
v 90.954 7.474 107.090
v 91.451 7.474 127.504
v 73.986 7.474 127.930
v 73.489 7.474 107.516
f 216 215 214 213
f 209 210 214 213
f 210 211 215 214
f 211 212 216 215
f 212 209 213 216
v 182.438 1.163 36.923
v 211.200 1.163 56.371
v 204.462 1.163 66.337
v 175.700 1.163 46.889
v 182.438 7.463 36.923
v 211.200 7.463 56.371
v 204.462 7.463 66.337
v 175.700 7.463 46.889
f 224 223 222 221
f 217 218 222 221
f 218 219 223 222
f 219 220 224 223
f 220 217 221 224
v 99.310 1.338 -92.722
v 110.216 1.338 -109.463
v 120.170 1.338 -102.978
v 109.264 1.338 -86.237
v 99.310 5.238 -92.722
v 110.216 5.238 -109.463
v 120.170 5.238 -102.978
v 109.264 5.238 -86.237
f 232 231 230 229
f 225 226 230 229
f 226 227 231 230
f 227 228 232 231
f 228 225 229 232
v 141.045 1.354 -120.888
v 152.305 1.354 -139.869
v 161.335 1.354 -134.512
v 150.075 1.354 -115.531
v 141.045 5.254 -120.888
v 152.305 5.254 -139.869
v 161.335 5.254 -134.512
v 150.075 5.254 -115.531
f 240 239 238 237
f 233 234 238 237
f 234 235 239 238
f 235 236 240 239
f 236 233 237 240
v 58.417 1.431 -100.899
v 105.026 1.431 -68.663
v 96.863 1.431 -56.861
v 50.254 1.431 -89.097
v 58.417 7.231 -100.899
v 105.026 7.231 -68.663
v 96.863 7.231 -56.861
v 50.254 7.231 -89.097
f 248 247 246 245
f 241 242 246 245
f 242 243 247 246
f 243 244 248 247
f 244 241 245 248
v 141.394 1.168 -59.582
v 153.498 1.168 -77.243
v 161.326 1.168 -71.878
v 149.222 1.168 -54.217
v 141.394 5.068 -59.582
v 153.498 5.068 -77.243
v 161.326 5.068 -71.878
v 149.222 5.068 -54.217
f 256 255 254 253
f 249 250 254 253
f 250 251 255 254
f 251 252 256 255
f 252 249 253 256
v 127.548 1.234 -50.097
v 139.046 1.234 -67.418
v 146.752 1.234 -62.303
v 135.254 1.234 -44.982
v 127.548 5.134 -50.097
v 139.046 5.134 -67.418
v 146.752 5.134 -62.303
v 135.254 5.134 -44.982
f 264 263 262 261
f 257 258 262 261
f 258 259 263 262
f 259 260 264 263
f 260 257 261 264
v 96.131 -0.300 225.568
v 96.730 -0.300 216.889
v 105.469 -0.300 217.492
v 104.870 -0.300 226.171
v 96.131 3.600 225.568
v 96.730 3.600 216.889
v 105.469 3.600 217.492
v 104.870 3.600 226.171
f 272 271 270 269
f 265 266 270 269
f 266 267 271 270
f 267 268 272 271
f 268 265 269 272
v -106.266 -0.300 224.260
v -99.859 -0.300 206.947
v -87.554 -0.300 211.500
v -93.961 -0.300 228.813
v -106.266 3.600 224.260
v -99.859 3.600 206.947
v -87.554 3.600 211.500
v -93.961 3.600 228.813
f 280 279 278 277
f 273 274 278 277
f 274 275 279 278
f 275 276 280 279
f 276 273 277 280
v 113.677 1.407 -101.174
v 124.533 1.407 -118.102
v 132.883 1.407 -112.746
v 122.027 1.407 -95.818
v 113.677 5.307 -101.174
v 124.533 5.307 -118.102
v 132.883 5.307 -112.746
v 122.027 5.307 -95.818
f 288 287 286 285
f 281 282 286 285
f 282 283 287 286
f 283 284 288 287
f 284 281 285 288
v 125.531 1.415 -111.895
v 137.632 1.415 -126.686
v 146.409 1.415 -119.505
v 134.308 1.415 -104.714
v 125.531 5.315 -111.895
v 137.632 5.315 -126.686
v 146.409 5.315 -119.505
v 134.308 5.315 -104.714
f 296 295 294 293
f 289 290 294 293
f 290 291 295 294
f 291 292 296 295
f 292 289 293 296
v 50.910 1.699 -107.902
v 59.662 1.699 -119.713
v 70.910 1.699 -111.378
v 62.158 1.699 -99.567
v 50.910 5.599 -107.902
v 59.662 5.599 -119.713
v 70.910 5.599 -111.378
v 62.158 5.599 -99.567
f 304 303 302 301
f 297 298 302 301
f 298 299 303 302
f 299 300 304 303
f 300 297 301 304
v 76.669 1.766 -131.933
v 89.147 1.766 -124.391
v 81.951 1.766 -112.487
v 69.473 1.766 -120.029
v 76.669 5.666 -131.933
v 89.147 5.666 -124.391
v 81.951 5.666 -112.487
v 69.473 5.666 -120.029
f 312 311 310 309
f 305 306 310 309
f 306 307 311 310
f 307 308 312 311
f 308 305 309 312
v 94.912 1.309 -145.501
v 108.911 1.309 -138.684
v 102.208 1.309 -124.919
v 88.209 1.309 -131.736
v 94.912 5.209 -145.501
v 108.911 5.209 -138.684
v 102.208 5.209 -124.919
v 88.209 5.209 -131.736
f 320 319 318 317
f 313 314 318 317
f 314 315 319 318
f 315 316 320 319
f 316 313 317 320
v 108.459 1.402 -140.392
v 118.918 1.402 -157.404
v 127.761 1.402 -151.968
v 117.302 1.402 -134.956
v 108.459 5.302 -140.392
v 118.918 5.302 -157.404
v 127.761 5.302 -151.968
v 117.302 5.302 -134.956
f 328 327 326 325
f 321 322 326 325
f 322 323 327 326
f 323 324 328 327
f 324 321 325 328
v 122.516 1.439 -149.938
v 133.923 1.439 -166.257
v 142.184 1.439 -160.482
v 130.777 1.439 -144.163
v 122.516 5.339 -149.938
v 133.923 5.339 -166.257
v 142.184 5.339 -160.482
v 130.777 5.339 -144.163
f 336 335 334 333
f 329 330 334 333
f 330 331 335 334
f 331 332 336 335
f 332 329 333 336
v 34.068 1.723 -148.365
v 43.135 1.723 -159.732
v 54.212 1.723 -150.895
v 45.145 1.723 -139.528
v 34.068 5.623 -148.365
v 43.135 5.623 -159.732
v 54.212 5.623 -150.895
v 45.145 5.623 -139.528
f 344 343 342 341
f 337 338 342 341
f 338 339 343 342
f 339 340 344 343
f 340 337 341 344
v 7.742 1.707 -129.701
v 15.875 1.707 -141.060
v 26.518 1.707 -133.439
v 18.385 1.707 -122.080
v 7.742 5.607 -129.701
v 15.875 5.607 -141.060
v 26.518 5.607 -133.439
v 18.385 5.607 -122.080
f 352 351 350 349
f 345 346 350 349
f 346 347 351 350
f 347 348 352 351
f 348 345 349 352
v -75.934 1.254 128.812
v -62.557 1.254 137.388
v -69.686 1.254 148.508
v -83.063 1.254 139.932
v -75.934 5.154 128.812
v -62.557 5.154 137.388
v -69.686 5.154 148.508
v -83.063 5.154 139.932
f 360 359 358 357
f 353 354 358 357
f 354 355 359 358
f 355 356 360 359
f 356 353 357 360
v -57.893 0.956 144.524
v -43.763 0.956 153.776
v -50.167 0.956 163.556
v -64.297 0.956 154.304
v -57.893 4.856 144.524
v -43.763 4.856 153.776
v -50.167 4.856 163.556
v -64.297 4.856 154.304
f 368 367 366 365
f 361 362 366 365
f 362 363 367 366
f 363 364 368 367
f 364 361 365 368
v 24.646 1.143 34.332
v 39.677 1.143 44.416
v 36.234 1.143 49.548
v 21.203 1.143 39.464
v 24.646 5.043 34.332
v 39.677 5.043 44.416
v 36.234 5.043 49.548
v 21.203 5.043 39.464
f 376 375 374 373
f 369 370 374 373
f 370 371 375 374
f 371 372 376 375
f 372 369 373 376
v 71.716 1.147 27.822
v 83.237 1.147 15.185
v 92.924 1.147 24.018
v 81.403 1.147 36.655
v 71.716 5.047 27.822
v 83.237 5.047 15.185
v 92.924 5.047 24.018
v 81.403 5.047 36.655
f 384 383 382 381
f 377 378 382 381
f 378 379 383 382
f 379 380 384 383
f 380 377 381 384
v 62.191 1.173 37.645
v 70.770 1.173 23.108
v 80.269 1.173 28.715
v 71.690 1.173 43.252
v 62.191 5.073 37.645
v 70.770 5.073 23.108
v 80.269 5.073 28.715
v 71.690 5.073 43.252
f 392 391 390 389
f 385 386 390 389
f 386 387 391 390
f 387 388 392 391
f 388 385 389 392
v 23.188 0.981 60.742
v 32.119 0.981 48.467
v 40.132 0.981 54.298
v 31.201 0.981 66.573
v 23.188 4.881 60.742
v 32.119 4.881 48.467
v 40.132 4.881 54.298
v 31.201 4.881 66.573
f 400 399 398 397
f 393 394 398 397
f 394 395 399 398
f 395 396 400 399
f 396 393 397 400
v 37.678 0.920 54.662
v 48.346 0.920 38.494
v 56.142 0.920 43.638
v 45.474 0.920 59.806
v 37.678 4.820 54.662
v 48.346 4.820 38.494
v 56.142 4.820 43.638
v 45.474 4.820 59.806
f 408 407 406 405
f 401 402 406 405
f 402 403 407 406
f 403 404 408 407
f 404 401 405 408
v 48.868 1.194 100.165
v 59.926 1.194 84.764
v 68.772 1.194 91.115
v 57.714 1.194 106.516
v 48.868 5.094 100.165
v 59.926 5.094 84.764
v 68.772 5.094 91.115
v 57.714 5.094 106.516
f 416 415 414 413
f 409 410 414 413
f 410 411 415 414
f 411 412 416 415
f 412 409 413 416
v 92.228 0.762 150.877
v 100.777 0.762 156.386
v 96.552 0.762 162.943
v 88.003 0.762 157.434
v 92.228 4.662 150.877
v 100.777 4.662 156.386
v 96.552 4.662 162.943
v 88.003 4.662 157.434
f 424 423 422 421
f 417 418 422 421
f 418 419 423 422
f 419 420 424 423
f 420 417 421 424
v -260.504 2.533 -215.639
v -253.142 2.533 -226.402
v -245.276 2.533 -221.021
v -252.638 2.533 -210.258
v -260.504 6.433 -215.639
v -253.142 6.433 -226.402
v -245.276 6.433 -221.021
v -252.638 6.433 -210.258
f 432 431 430 429
f 425 426 430 429
f 426 427 431 430
f 427 428 432 431
f 428 425 429 432
v 224.911 1.278 -205.268
v 236.157 1.278 -197.747
v 230.209 1.278 -188.852
v 218.963 1.278 -196.373
v 224.911 5.178 -205.268
v 236.157 5.178 -197.747
v 230.209 5.178 -188.852
v 218.963 5.178 -196.373
f 440 439 438 437
f 433 434 438 437
f 434 435 439 438
f 435 436 440 439
f 436 433 437 440
v -227.982 2.196 -182.979
v -222.943 2.196 -179.471
v -225.778 2.196 -175.401
v -230.817 2.196 -178.909
v -227.982 6.096 -182.979
v -222.943 6.096 -179.471
v -225.778 6.096 -175.401
v -230.817 6.096 -178.909
f 448 447 446 445
f 441 442 446 445
f 442 443 447 446
f 443 444 448 447
f 444 441 445 448
v -34.549 1.482 -67.957
v -21.734 1.482 -42.366
v -40.511 1.482 -32.963
v -53.326 1.482 -58.554
v -34.549 5.382 -67.957
v -21.734 5.382 -42.366
v -40.511 5.382 -32.963
v -53.326 5.382 -58.554
f 456 455 454 453
f 449 450 454 453
f 450 451 455 454
f 451 452 456 455
f 452 449 453 456
v -23.196 1.232 -1.546
v -22.667 1.232 -22.149
v -1.024 1.232 -21.594
v -1.553 1.232 -0.991
v -23.196 5.132 -1.546
v -22.667 5.132 -22.149
v -1.024 5.132 -21.594
v -1.553 5.132 -0.991
f 464 463 462 461
f 457 458 462 461
f 458 459 463 462
f 459 460 464 463
f 460 457 461 464
v -239.641 1.325 -88.538
v -227.262 1.325 -80.741
v -231.179 1.325 -74.522
v -243.558 1.325 -82.319
v -239.641 5.225 -88.538
v -227.262 5.225 -80.741
v -231.179 5.225 -74.522
v -243.558 5.225 -82.319
f 472 471 470 469
f 465 466 470 469
f 466 467 471 470
f 467 468 472 471
f 468 465 469 472
v -227.136 1.525 -81.753
v -221.149 1.525 -91.805
v -214.404 1.525 -87.787
v -220.391 1.525 -77.735
v -227.136 5.425 -81.753
v -221.149 5.425 -91.805
v -214.404 5.425 -87.787
v -220.391 5.425 -77.735
f 480 479 478 477
f 473 474 478 477
f 474 475 479 478
f 475 476 480 479
f 476 473 477 480
v -230.968 1.225 -74.376
v -222.745 1.225 -69.100
v -227.092 1.225 -62.324
v -235.315 1.225 -67.600
v -230.968 5.125 -74.376
v -222.745 5.125 -69.100
v -227.092 5.125 -62.324
v -235.315 5.125 -67.600
f 488 487 486 485
f 481 482 486 485
f 482 483 487 486
f 483 484 488 487
f 484 481 485 488
v -214.456 1.542 -72.015
v -202.686 1.542 -63.720
v -207.404 1.542 -57.025
v -219.174 1.542 -65.320
v -214.456 5.442 -72.015
v -202.686 5.442 -63.720
v -207.404 5.442 -57.025
v -219.174 5.442 -65.320
f 496 495 494 493
f 489 490 494 493
f 490 491 495 494
f 491 492 496 495
f 492 489 493 496
v -214.495 1.195 -46.521
v -200.544 1.195 -60.330
v -191.525 1.195 -51.219
v -205.476 1.195 -37.410
v -214.495 5.095 -46.521
v -200.544 5.095 -60.330
v -191.525 5.095 -51.219
v -205.476 5.095 -37.410
f 504 503 502 501
f 497 498 502 501
f 498 499 503 502
f 499 500 504 503
f 500 497 501 504
v -203.650 1.572 -39.444
v -186.551 1.572 -27.937
v -189.890 1.572 -22.976
v -206.989 1.572 -34.483
v -203.650 5.472 -39.444
v -186.551 5.472 -27.937
v -189.890 5.472 -22.976
v -206.989 5.472 -34.483
f 512 511 510 509
f 505 506 510 509
f 506 507 511 510
f 507 508 512 511
f 508 505 509 512
v -202.576 1.226 -87.727
v -196.805 1.226 -84.207
v -199.924 1.226 -79.093
v -205.695 1.226 -82.613
v -202.576 5.126 -87.727
v -196.805 5.126 -84.207
v -199.924 5.126 -79.093
v -205.695 5.126 -82.613
f 520 519 518 517
f 513 514 518 517
f 514 515 519 518
f 515 516 520 519
f 516 513 517 520
v -196.660 1.551 -91.395
v -191.660 1.551 -89.382
v -193.640 1.551 -84.465
v -198.640 1.551 -86.478
v -196.660 5.451 -91.395
v -191.660 5.451 -89.382
v -193.640 5.451 -84.465
v -198.640 5.451 -86.478
f 528 527 526 525
f 521 522 526 525
f 522 523 527 526
f 523 524 528 527
f 524 521 525 528
v -182.974 1.651 -99.956
v -175.810 1.651 -96.330
v -179.346 1.651 -89.344
v -186.510 1.651 -92.970
v -182.974 5.551 -99.956
v -175.810 5.551 -96.330
v -179.346 5.551 -89.344
v -186.510 5.551 -92.970
f 536 535 534 533
f 529 530 534 533
f 530 531 535 534
f 531 532 536 535
f 532 529 533 536
v -169.395 1.617 -102.752
v -154.128 1.617 -93.217
v -159.505 1.617 -84.608
v -174.772 1.617 -94.143
v -169.395 5.517 -102.752
v -154.128 5.517 -93.217
v -159.505 5.517 -84.608
v -174.772 5.517 -94.143
f 544 543 542 541
f 537 538 542 541
f 538 539 543 542
f 539 540 544 543
f 540 537 541 544
v -186.575 1.482 -79.879
v -182.268 1.482 -87.032
v -177.865 1.482 -84.381
v -182.172 1.482 -77.228
v -186.575 5.382 -79.879
v -182.268 5.382 -87.032
v -177.865 5.382 -84.381
v -182.172 5.382 -77.228
f 552 551 550 549
f 545 546 550 549
f 546 547 551 550
f 547 548 552 551
f 548 545 549 552
v -159.503 1.860 -91.888
v -146.084 1.860 -83.991
v -150.237 1.860 -76.932
v -163.656 1.860 -84.829
v -159.503 5.760 -91.888
v -146.084 5.760 -83.991
v -150.237 5.760 -76.932
v -163.656 5.760 -84.829
f 560 559 558 557
f 553 554 558 557
f 554 555 559 558
f 555 556 560 559
f 556 553 557 560
v -183.566 1.396 -76.997
v -169.804 1.396 -60.570
v -177.094 1.396 -54.463
v -190.856 1.396 -70.890
v -183.566 5.296 -76.997
v -169.804 5.296 -60.570
v -177.094 5.296 -54.463
v -190.856 5.296 -70.890
f 568 567 566 565
f 561 562 566 565
f 562 563 567 566
f 563 564 568 567
f 564 561 565 568
v -180.518 1.256 -66.831
v -166.901 1.256 -57.964
v -170.622 1.256 -52.249
v -184.239 1.256 -61.116
v -180.518 5.156 -66.831
v -166.901 5.156 -57.964
v -170.622 5.156 -52.249
v -184.239 5.156 -61.116
f 576 575 574 573
f 569 570 574 573
f 570 571 575 574
f 571 572 576 575
f 572 569 573 576
v -149.731 1.799 -75.960
v -146.507 1.799 -85.044
v -137.309 1.799 -81.780
v -140.533 1.799 -72.696
v -149.731 5.699 -75.960
v -146.507 5.699 -85.044
v -137.309 5.699 -81.780
v -140.533 5.699 -72.696
f 584 583 582 581
f 577 578 582 581
f 578 579 583 582
f 579 580 584 583
f 580 577 581 584
v -144.774 1.657 -70.770
v -142.047 1.657 -75.009
v -139.406 1.657 -73.310
v -142.133 1.657 -69.071
v -144.774 5.557 -70.770
v -142.047 5.557 -75.009
v -139.406 5.557 -73.310
v -142.133 5.557 -69.071
f 592 591 590 589
f 585 586 590 589
f 586 587 591 590
f 587 588 592 591
f 588 585 589 592
v -135.511 1.844 -88.029
v -128.089 1.844 -98.495
v -118.749 1.844 -91.871
v -126.171 1.844 -81.405
v -135.511 5.744 -88.029
v -128.089 5.744 -98.495
v -118.749 5.744 -91.871
v -126.171 5.744 -81.405
f 600 599 598 597
f 593 594 598 597
f 594 595 599 598
f 595 596 600 599
f 596 593 597 600
v -143.841 1.690 -69.287
v -135.140 1.690 -74.630
v -129.959 1.690 -66.193
v -138.660 1.690 -60.850
v -143.841 5.590 -69.287
v -135.140 5.590 -74.630
v -129.959 5.590 -66.193
v -138.660 5.590 -60.850
f 608 607 606 605
f 601 602 606 605
f 602 603 607 606
f 603 604 608 607
f 604 601 605 608
v -135.945 1.353 -68.278
v -132.088 1.353 -74.323
v -129.955 1.353 -72.962
v -133.812 1.353 -66.917
v -135.945 5.253 -68.278
v -132.088 5.253 -74.323
v -129.955 5.253 -72.962
v -133.812 5.253 -66.917
f 616 615 614 613
f 609 610 614 613
f 610 611 615 614
f 611 612 616 615
f 612 609 613 616
v -120.786 1.125 -80.753
v -112.953 1.125 -75.574
v -116.554 1.125 -70.127
v -124.387 1.125 -75.306
v -120.786 5.025 -80.753
v -112.953 5.025 -75.574
v -116.554 5.025 -70.127
v -124.387 5.025 -75.306
f 624 623 622 621
f 617 618 622 621
f 618 619 623 622
f 619 620 624 623
f 620 617 621 624
v -164.782 1.426 -60.505
v -162.941 1.426 -63.122
v -160.798 1.426 -61.615
v -162.639 1.426 -58.998
v -164.782 5.326 -60.505
v -162.941 5.326 -63.122
v -160.798 5.326 -61.615
v -162.639 5.326 -58.998
f 632 631 630 629
f 625 626 630 629
f 626 627 631 630
f 627 628 632 631
f 628 625 629 632
v -156.260 1.427 -69.794
v -153.899 1.427 -68.163
v -155.320 1.427 -66.106
v -157.681 1.427 -67.737
v -156.260 5.327 -69.794
v -153.899 5.327 -68.163
v -155.320 5.327 -66.106
v -157.681 5.327 -67.737
f 640 639 638 637
f 633 634 638 637
f 634 635 639 638
f 635 636 640 639
f 636 633 637 640
v -173.657 1.116 -58.146
v -157.286 1.116 -47.224
v -160.883 1.116 -41.834
v -177.254 1.116 -52.756
v -173.657 5.016 -58.146
v -157.286 5.016 -47.224
v -160.883 5.016 -41.834
v -177.254 5.016 -52.756
f 648 647 646 645
f 641 642 646 645
f 642 643 647 646
f 643 644 648 647
f 644 641 645 648
v -92.404 1.399 -66.083
v -81.295 1.399 -91.119
v -70.656 1.399 -86.397
v -81.765 1.399 -61.361
v -92.404 5.299 -66.083
v -81.295 5.299 -91.119
v -70.656 5.299 -86.397
v -81.765 5.299 -61.361
f 656 655 654 653
f 649 650 654 653
f 650 651 655 654
f 651 652 656 655
f 652 649 653 656
v -67.106 1.371 -69.407
v -62.784 1.371 -66.623
v -64.414 1.371 -64.093
v -68.736 1.371 -66.877
v -67.106 5.271 -69.407
v -62.784 5.271 -66.623
v -64.414 5.271 -64.093
v -68.736 5.271 -66.877
f 664 663 662 661
f 657 658 662 661
f 658 659 663 662
f 659 660 664 663
f 660 657 661 664
v -113.167 1.963 -63.788
v -93.797 1.963 -80.952
v -80.433 1.963 -65.872
v -99.803 1.963 -48.708
v -113.167 5.863 -63.788
v -93.797 5.863 -80.952
v -80.433 5.863 -65.872
v -99.803 5.863 -48.708
f 672 671 670 669
f 665 666 670 669
f 666 667 671 670
f 667 668 672 671
f 668 665 669 672
v -164.197 1.287 -48.338
v -153.496 1.287 -41.705
v -155.383 1.287 -38.662
v -166.084 1.287 -45.295
v -164.197 5.187 -48.338
v -153.496 5.187 -41.705
v -155.383 5.187 -38.662
v -166.084 5.187 -45.295
f 680 679 678 677
f 673 674 678 677
f 674 675 679 678
f 675 676 680 679
f 676 673 677 680
v -151.887 1.226 -51.440
v -147.658 1.226 -48.754
v -149.673 1.226 -45.580
v -153.902 1.226 -48.266
v -151.887 5.126 -51.440
v -147.658 5.126 -48.754
v -149.673 5.126 -45.580
v -153.902 5.126 -48.266
f 688 687 686 685
f 681 682 686 685
f 682 683 687 686
f 683 684 688 687
f 684 681 685 688
v -143.215 1.466 -60.054
v -131.937 1.466 -52.015
v -135.565 1.466 -46.926
v -146.843 1.466 -54.965
v -143.215 5.366 -60.054
v -131.937 5.366 -52.015
v -135.565 5.366 -46.926
v -146.843 5.366 -54.965
f 696 695 694 693
f 689 690 694 693
f 690 691 695 694
f 691 692 696 695
f 692 689 693 696
v -164.286 1.417 -39.280
v -156.364 1.417 -34.581
v -160.114 1.417 -28.260
v -168.036 1.417 -32.959
v -164.286 5.317 -39.280
v -156.364 5.317 -34.581
v -160.114 5.317 -28.260
v -168.036 5.317 -32.959
f 704 703 702 701
f 697 698 702 701
f 698 699 703 702
f 699 700 704 703
f 700 697 701 704
v -162.939 1.798 -13.910
v -150.569 1.798 -30.482
v -141.201 1.798 -23.490
v -153.571 1.798 -6.918
v -162.939 5.698 -13.910
v -150.569 5.698 -30.482
v -141.201 5.698 -23.490
v -153.571 5.698 -6.918
f 712 711 710 709
f 705 706 710 709
f 706 707 711 710
f 707 708 712 711
f 708 705 709 712
v -125.634 1.741 -35.742
v -122.054 1.741 -53.933
v -106.326 1.741 -50.838
v -109.906 1.741 -32.647
v -125.634 5.641 -35.742
v -122.054 5.641 -53.933
v -106.326 5.641 -50.838
v -109.906 5.641 -32.647
f 720 719 718 717
f 713 714 718 717
f 714 715 719 718
f 715 716 720 719
f 716 713 717 720
v -111.138 1.503 -9.648
v -94.946 1.503 -12.185
v -92.422 1.503 3.928
v -108.614 1.503 6.465
v -111.138 5.403 -9.648
v -94.946 5.403 -12.185
v -92.422 5.403 3.928
v -108.614 5.403 6.465
f 728 727 726 725
f 721 722 726 725
f 722 723 727 726
f 723 724 728 727
f 724 721 725 728
v -96.230 1.510 -5.069
v -89.306 1.510 -15.029
v -83.410 1.510 -10.931
v -90.334 1.510 -0.971
v -96.230 5.410 -5.069
v -89.306 5.410 -15.029
v -83.410 5.410 -10.931
v -90.334 5.410 -0.971
f 736 735 734 733
f 729 730 734 733
f 730 731 735 734
f 731 732 736 735
f 732 729 733 736
v -89.489 1.498 -16.051
v -82.077 1.498 -26.302
v -74.451 1.498 -20.789
v -81.863 1.498 -10.538
v -89.489 5.398 -16.051
v -82.077 5.398 -26.302
v -74.451 5.398 -20.789
v -81.863 5.398 -10.538
f 744 743 742 741
f 737 738 742 741
f 738 739 743 742
f 739 740 744 743
f 740 737 741 744
v -64.640 1.401 17.131
v -54.306 1.401 4.332
v -45.740 1.401 11.249
v -56.074 1.401 24.048
v -64.640 5.301 17.131
v -54.306 5.301 4.332
v -45.740 5.301 11.249
v -56.074 5.301 24.048
f 752 751 750 749
f 745 746 750 749
f 746 747 751 750
f 747 748 752 751
f 748 745 749 752
v -78.174 1.390 26.413
v -63.635 1.390 9.201
v -54.086 1.390 17.267
v -68.625 1.390 34.479
v -78.174 5.290 26.413
v -63.635 5.290 9.201
v -54.086 5.290 17.267
v -68.625 5.290 34.479
f 760 759 758 757
f 753 754 758 757
f 754 755 759 758
f 755 756 760 759
f 756 753 757 760
v -68.625 1.105 64.478
v -57.661 1.105 71.102
v -61.575 1.105 77.582
v -72.539 1.105 70.958
v -68.625 5.005 64.478
v -57.661 5.005 71.102
v -61.575 5.005 77.582
v -72.539 5.005 70.958
f 768 767 766 765
f 761 762 766 765
f 762 763 767 766
f 763 764 768 767
f 764 761 765 768
v -66.993 1.134 99.502
v -64.429 1.134 81.151
v -50.207 1.134 83.138
v -52.771 1.134 101.489
v -66.993 5.034 99.502
v -64.429 5.034 81.151
v -50.207 5.034 83.138
v -52.771 5.034 101.489
f 776 775 774 773
f 769 770 774 773
f 770 771 775 774
f 771 772 776 775
f 772 769 773 776
v 242.026 0.936 -67.852
v 262.276 0.936 -59.513
v 257.554 0.936 -48.048
v 237.304 0.936 -56.387
v 242.026 4.836 -67.852
v 262.276 4.836 -59.513
v 257.554 4.836 -48.048
v 237.304 4.836 -56.387
f 784 783 782 781
f 777 778 782 781
f 778 779 783 782
f 779 780 784 783
f 780 777 781 784
v 249.576 1.393 -52.413
v 264.366 1.393 -42.947
v 256.404 1.393 -30.507
v 241.614 1.393 -39.973
v 249.576 5.293 -52.413
v 264.366 5.293 -42.947
v 256.404 5.293 -30.507
v 241.614 5.293 -39.973
f 792 791 790 789
f 785 786 790 789
f 786 787 791 790
f 787 788 792 791
f 788 785 789 792
v 176.647 1.010 -37.003
v 179.080 1.010 -62.849
v 201.093 1.010 -60.777
v 198.660 1.010 -34.931
v 176.647 4.910 -37.003
v 179.080 4.910 -62.849
v 201.093 4.910 -60.777
v 198.660 4.910 -34.931
f 800 799 798 797
f 793 794 798 797
f 794 795 799 798
f 795 796 800 799
f 796 793 797 800
v 122.217 1.036 -41.198
v 129.769 1.036 -49.777
v 138.123 1.036 -42.422
v 130.571 1.036 -33.843
v 122.217 4.936 -41.198
v 129.769 4.936 -49.777
v 138.123 4.936 -42.422
v 130.571 4.936 -33.843
f 808 807 806 805
f 801 802 806 805
f 802 803 807 806
f 803 804 808 807
f 804 801 805 808
v 162.239 1.302 -49.070
v 181.435 1.302 -39.297
v 173.001 1.302 -22.730
v 153.805 1.302 -32.503
v 162.239 5.202 -49.070
v 181.435 5.202 -39.297
v 173.001 5.202 -22.730
v 153.805 5.202 -32.503
f 816 815 814 813
f 809 810 814 813
f 810 811 815 814
f 811 812 816 815
f 812 809 813 816
v 127.982 0.118 -21.933
v 144.080 0.118 -37.104
v 154.518 0.118 -26.027
v 138.420 0.118 -10.856
v 127.982 4.018 -21.933
v 144.080 4.018 -37.104
v 154.518 4.018 -26.027
v 138.420 4.018 -10.856
f 824 823 822 821
f 817 818 822 821
f 818 819 823 822
f 819 820 824 823
f 820 817 821 824
v 118.767 1.378 -9.307
v 130.874 1.378 -26.831
v 141.553 1.378 -19.453
v 129.446 1.378 -1.929
v 118.767 5.278 -9.307
v 130.874 5.278 -26.831
v 141.553 5.278 -19.453
v 129.446 5.278 -1.929
f 832 831 830 829
f 825 826 830 829
f 826 827 831 830
f 827 828 832 831
f 828 825 829 832
v 106.679 0.916 -0.121
v 122.432 0.916 -19.198
v 131.901 0.916 -11.379
v 116.148 0.916 7.698
v 106.679 4.816 -0.121
v 122.432 4.816 -19.198
v 131.901 4.816 -11.379
v 116.148 4.816 7.698
f 840 839 838 837
f 833 834 838 837
f 834 835 839 838
f 835 836 840 839
f 836 833 837 840
v 131.077 1.131 2.256
v 134.897 1.131 -2.842
v 139.123 1.131 0.324
v 135.303 1.131 5.422
v 131.077 5.031 2.256
v 134.897 5.031 -2.842
v 139.123 5.031 0.324
v 135.303 5.031 5.422
f 848 847 846 845
f 841 842 846 845
f 842 843 847 846
f 843 844 848 847
f 844 841 845 848
v 98.151 0.880 13.156
v 110.416 0.880 -5.239
v 118.969 0.880 0.464
v 106.704 0.880 18.859
v 98.151 4.780 13.156
v 110.416 4.780 -5.239
v 118.969 4.780 0.464
v 106.704 4.780 18.859
f 856 855 854 853
f 849 850 854 853
f 850 851 855 854
f 851 852 856 855
f 852 849 853 856
v 225.178 1.025 -89.340
v 239.710 1.025 -79.288
v 234.322 1.025 -71.500
v 219.790 1.025 -81.552
v 225.178 4.925 -89.340
v 239.710 4.925 -79.288
v 234.322 4.925 -71.500
v 219.790 4.925 -81.552
f 864 863 862 861
f 857 858 862 861
f 858 859 863 862
f 859 860 864 863
f 860 857 861 864
v 218.313 0.974 -103.357
v 232.600 0.974 -91.858
v 223.847 0.974 -80.983
v 209.560 0.974 -92.482
v 218.313 4.874 -103.357
v 232.600 4.874 -91.858
v 223.847 4.874 -80.983
v 209.560 4.874 -92.482
f 872 871 870 869
f 865 866 870 869
f 866 867 871 870
f 867 868 872 871
f 868 865 869 872
v 210.989 0.866 -115.097
v 225.962 0.866 -106.331
v 219.131 0.866 -94.663
v 204.158 0.866 -103.429
v 210.989 4.766 -115.097
v 225.962 4.766 -106.331
v 219.131 4.766 -94.663
v 204.158 4.766 -103.429
f 880 879 878 877
f 873 874 878 877
f 874 875 879 878
f 875 876 880 879
f 876 873 877 880
v 202.320 0.951 -125.991
v 220.193 0.951 -113.614
v 215.120 0.951 -106.289
v 197.247 0.951 -118.666
v 202.320 4.851 -125.991
v 220.193 4.851 -113.614
v 215.120 4.851 -106.289
v 197.247 4.851 -118.666
f 888 887 886 885
f 881 882 886 885
f 882 883 887 886
f 883 884 888 887
f 884 881 885 888
v 218.600 1.473 -122.587
v 224.884 1.473 -135.798
v 238.980 1.473 -129.093
v 232.696 1.473 -115.882
v 218.600 5.373 -122.587
v 224.884 5.373 -135.798
v 238.980 5.373 -129.093
v 232.696 5.373 -115.882
f 896 895 894 893
f 889 890 894 893
f 890 891 895 894
f 891 892 896 895
f 892 889 893 896
v 230.459 1.454 -103.724
v 234.126 1.454 -109.296
v 237.501 1.454 -107.076
v 233.834 1.454 -101.504
v 230.459 5.354 -103.724
v 234.126 5.354 -109.296
v 237.501 5.354 -107.076
v 233.834 5.354 -101.504
f 904 903 902 901
f 897 898 902 901
f 898 899 903 902
f 899 900 904 903
f 900 897 901 904
v 237.693 1.610 -112.692
v 274.647 1.610 -112.014
v 274.267 1.610 -91.348
v 237.313 1.610 -92.026
v 237.693 5.510 -112.692
v 274.647 5.510 -112.014
v 274.267 5.510 -91.348
v 237.313 5.510 -92.026
f 912 911 910 909
f 905 906 910 909
f 906 907 911 910
f 907 908 912 911
f 908 905 909 912
v 253.069 0.771 -122.895
v 260.119 0.771 -118.200
v 258.151 0.771 -115.245
v 251.101 0.771 -119.940
v 253.069 4.671 -122.895
v 260.119 4.671 -118.200
v 258.151 4.671 -115.245
v 251.101 4.671 -119.940
f 920 919 918 917
f 913 914 918 917
f 914 915 919 918
f 915 916 920 919
f 916 913 917 920
v 230.619 1.071 -130.962
v 244.617 1.071 -149.876
v 257.261 1.071 -140.518
v 243.263 1.071 -121.604
v 230.619 4.971 -130.962
v 244.617 4.971 -149.876
v 257.261 4.971 -140.518
v 243.263 4.971 -121.604
f 928 927 926 925
f 921 922 926 925
f 922 923 927 926
f 923 924 928 927
f 924 921 925 928
v 249.261 1.149 -240.796
v 259.960 1.149 -230.397
v 251.219 1.149 -221.404
v 240.520 1.149 -231.803
v 249.261 5.049 -240.796
v 259.960 5.049 -230.397
v 251.219 5.049 -221.404
v 240.520 5.049 -231.803
f 936 935 934 933
f 929 930 934 933
f 930 931 935 934
f 931 932 936 935
f 932 929 933 936
v 243.382 1.135 -247.681
v 255.111 1.135 -240.020
v 252.798 1.135 -236.479
v 241.069 1.135 -244.140
v 243.382 5.035 -247.681
v 255.111 5.035 -240.020
v 252.798 5.035 -236.479
v 241.069 5.035 -244.140
f 944 943 942 941
f 937 938 942 941
f 938 939 943 942
f 939 940 944 943
f 940 937 941 944
v 230.598 1.180 -195.778
v 244.654 1.180 -188.542
v 239.042 1.180 -177.642
v 224.986 1.180 -184.878
v 230.598 5.080 -195.778
v 244.654 5.080 -188.542
v 239.042 5.080 -177.642
v 224.986 5.080 -184.878
f 952 951 950 949
f 945 946 950 949
f 946 947 951 950
f 947 948 952 951
f 948 945 949 952
v 241.282 0.877 -185.887
v 252.653 0.877 -176.698
v 245.878 0.877 -168.313
v 234.507 0.877 -177.502
v 241.282 4.777 -185.887
v 252.653 4.777 -176.698
v 245.878 4.777 -168.313
v 234.507 4.777 -177.502
f 960 959 958 957
f 953 954 958 957
f 954 955 959 958
f 955 956 960 959
f 956 953 957 960
v 204.276 1.145 -161.299
v 214.772 1.145 -184.033
v 232.604 1.145 -175.801
v 222.108 1.145 -153.067
v 204.276 5.045 -161.299
v 214.772 5.045 -184.033
v 232.604 5.045 -175.801
v 222.108 5.045 -153.067
f 968 967 966 965
f 961 962 966 965
f 962 963 967 966
f 963 964 968 967
f 964 961 965 968
v 206.958 1.639 -190.730
v 210.295 1.639 -195.632
v 212.882 1.639 -193.870
v 209.545 1.639 -188.968
v 206.958 5.539 -190.730
v 210.295 5.539 -195.632
v 212.882 5.539 -193.870
v 209.545 5.539 -188.968
f 976 975 974 973
f 969 970 974 973
f 970 971 975 974
f 971 972 976 975
f 972 969 973 976
v 203.211 1.943 -210.493
v 219.284 1.943 -228.384
v 229.989 1.943 -218.767
v 213.916 1.943 -200.876
v 203.211 5.843 -210.493
v 219.284 5.843 -228.384
v 229.989 5.843 -218.767
v 213.916 5.843 -200.876
f 984 983 982 981
f 977 978 982 981
f 978 979 983 982
f 979 980 984 983
f 980 977 981 984
v 182.715 1.870 -214.108
v 208.427 1.870 -210.680
v 205.845 1.870 -191.312
v 180.133 1.870 -194.740
v 182.715 5.770 -214.108
v 208.427 5.770 -210.680
v 205.845 5.770 -191.312
v 180.133 5.770 -194.740
f 992 991 990 989
f 985 986 990 989
f 986 987 991 990
f 987 988 992 991
f 988 985 989 992
v 193.459 1.300 -182.842
v 207.796 1.300 -170.013
v 200.821 1.300 -162.218
v 186.484 1.300 -175.047
v 193.459 5.200 -182.842
v 207.796 5.200 -170.013
v 200.821 5.200 -162.218
v 186.484 5.200 -175.047
f 1000 999 998 997
f 993 994 998 997
f 994 995 999 998
f 995 996 1000 999
f 996 993 997 1000
v 196.413 1.381 -149.910
v 205.617 1.381 -164.120
v 213.507 1.381 -159.010
v 204.303 1.381 -144.800
v 196.413 5.281 -149.910
v 205.617 5.281 -164.120
v 213.507 5.281 -159.010
v 204.303 5.281 -144.800
f 1008 1007 1006 1005
f 1001 1002 1006 1005
f 1002 1003 1007 1006
f 1003 1004 1008 1007
f 1004 1001 1005 1008
v 176.769 1.619 -158.602
v 199.948 1.619 -154.385
v 196.031 1.619 -132.858
v 172.852 1.619 -137.075
v 176.769 5.519 -158.602
v 199.948 5.519 -154.385
v 196.031 5.519 -132.858
v 172.852 5.519 -137.075
f 1016 1015 1014 1013
f 1009 1010 1014 1013
f 1010 1011 1015 1014
f 1011 1012 1016 1015
f 1012 1009 1013 1016
v 157.074 1.487 -157.031
v 162.802 1.487 -180.337
v 183.506 1.487 -175.249
v 177.778 1.487 -151.943
v 157.074 5.387 -157.031
v 162.802 5.387 -180.337
v 183.506 5.387 -175.249
v 177.778 5.387 -151.943
f 1024 1023 1022 1021
f 1017 1018 1022 1021
f 1018 1019 1023 1022
f 1019 1020 1024 1023
f 1020 1017 1021 1024
v 154.571 1.159 -191.970
v 166.503 1.159 -184.880
v 159.949 1.159 -173.850
v 148.017 1.159 -180.940
v 154.571 5.059 -191.970
v 166.503 5.059 -184.880
v 159.949 5.059 -173.850
v 148.017 5.059 -180.940
f 1032 1031 1030 1029
f 1025 1026 1030 1029
f 1026 1027 1031 1030
f 1027 1028 1032 1031
f 1028 1025 1029 1032
v 162.383 1.199 -191.447
v 166.785 1.199 -197.728
v 172.657 1.199 -193.613
v 168.255 1.199 -187.332
v 162.383 5.099 -191.447
v 166.785 5.099 -197.728
v 172.657 5.099 -193.613
v 168.255 5.099 -187.332
f 1040 1039 1038 1037
f 1033 1034 1038 1037
f 1034 1035 1039 1038
f 1035 1036 1040 1039
f 1036 1033 1037 1040
v 38.826 1.522 -228.858
v 55.530 1.522 -219.617
v 50.554 1.522 -210.622
v 33.850 1.522 -219.863
v 38.826 5.422 -228.858
v 55.530 5.422 -219.617
v 50.554 5.422 -210.622
v 33.850 5.422 -219.863
f 1048 1047 1046 1045
f 1041 1042 1046 1045
f 1042 1043 1047 1046
f 1043 1044 1048 1047
f 1044 1041 1045 1048
v 51.944 1.712 -232.644
v 55.883 1.712 -230.366
v 53.796 1.712 -226.756
v 49.857 1.712 -229.034
v 51.944 5.612 -232.644
v 55.883 5.612 -230.366
v 53.796 5.612 -226.756
v 49.857 5.612 -229.034
f 1056 1055 1054 1053
f 1049 1050 1054 1053
f 1050 1051 1055 1054
f 1051 1052 1056 1055
f 1052 1049 1053 1056
v 69.913 1.647 -244.224
v 82.222 1.647 -236.466
v 78.207 1.647 -230.096
v 65.898 1.647 -237.854
v 69.913 5.547 -244.224
v 82.222 5.547 -236.466
v 78.207 5.547 -230.096
v 65.898 5.547 -237.854
f 1064 1063 1062 1061
f 1057 1058 1062 1061
f 1058 1059 1063 1062
f 1059 1060 1064 1063
f 1060 1057 1061 1064
v 78.864 1.615 -236.610
v 90.633 1.615 -223.849
v 81.136 1.615 -215.090
v 69.367 1.615 -227.851
v 78.864 5.515 -236.610
v 90.633 5.515 -223.849
v 81.136 5.515 -215.090
v 69.367 5.515 -227.851
f 1072 1071 1070 1069
f 1065 1066 1070 1069
f 1066 1067 1071 1070
f 1067 1068 1072 1071
f 1068 1065 1069 1072
v 31.620 1.989 -240.295
v 45.363 1.989 -231.164
v 40.260 1.989 -223.485
v 26.517 1.989 -232.616
v 31.620 5.889 -240.295
v 45.363 5.889 -231.164
v 40.260 5.889 -223.485
v 26.517 5.889 -232.616
f 1080 1079 1078 1077
f 1073 1074 1078 1077
f 1074 1075 1079 1078
f 1075 1076 1080 1079
f 1076 1073 1077 1080
v 43.471 2.340 -235.039
v 47.419 2.340 -247.708
v 55.849 2.340 -245.081
v 51.901 2.340 -232.412
v 43.471 6.240 -235.039
v 47.419 6.240 -247.708
v 55.849 6.240 -245.081
v 51.901 6.240 -232.412
f 1088 1087 1086 1085
f 1081 1082 1086 1085
f 1082 1083 1087 1086
f 1083 1084 1088 1087
f 1084 1081 1085 1088
v 37.795 2.140 -247.078
v 43.137 2.140 -254.885
v 47.965 2.140 -251.582
v 42.623 2.140 -243.775
v 37.795 6.040 -247.078
v 43.137 6.040 -254.885
v 47.965 6.040 -251.582
v 42.623 6.040 -243.775
f 1096 1095 1094 1093
f 1089 1090 1094 1093
f 1090 1091 1095 1094
f 1091 1092 1096 1095
f 1092 1089 1093 1096
v 48.695 2.074 -250.898
v 51.459 2.074 -249.189
v 50.145 2.074 -247.062
v 47.381 2.074 -248.771
v 48.695 5.974 -250.898
v 51.459 5.974 -249.189
v 50.145 5.974 -247.062
v 47.381 5.974 -248.771
f 1104 1103 1102 1101
f 1097 1098 1102 1101
f 1098 1099 1103 1102
f 1099 1100 1104 1103
f 1100 1097 1101 1104
v 50.613 2.176 -248.185
v 57.693 2.176 -251.802
v 61.487 2.176 -244.375
v 54.407 2.176 -240.758
v 50.613 6.076 -248.185
v 57.693 6.076 -251.802
v 61.487 6.076 -244.375
v 54.407 6.076 -240.758
f 1112 1111 1110 1109
f 1105 1106 1110 1109
f 1106 1107 1111 1110
f 1107 1108 1112 1111
f 1108 1105 1109 1112
v 65.292 2.066 -260.051
v 77.748 2.066 -250.943
v 72.648 2.066 -243.969
v 60.192 2.066 -253.077
v 65.292 5.966 -260.051
v 77.748 5.966 -250.943
v 72.648 5.966 -243.969
v 60.192 5.966 -253.077
f 1120 1119 1118 1117
f 1113 1114 1118 1117
f 1114 1115 1119 1118
f 1115 1116 1120 1119
f 1116 1113 1117 1120
v 8.771 1.829 -206.000
v 24.411 1.829 -196.577
v 18.569 1.829 -186.880
v 2.929 1.829 -196.303
v 8.771 5.729 -206.000
v 24.411 5.729 -196.577
v 18.569 5.729 -186.880
v 2.929 5.729 -196.303
f 1128 1127 1126 1125
f 1121 1122 1126 1125
f 1122 1123 1127 1126
f 1123 1124 1128 1127
f 1124 1121 1125 1128
v -16.224 1.801 -186.788
v -5.084 1.801 -179.216
v -9.396 1.801 -172.872
v -20.536 1.801 -180.444
v -16.224 5.701 -186.788
v -5.084 5.701 -179.216
v -9.396 5.701 -172.872
v -20.536 5.701 -180.444
f 1136 1135 1134 1133
f 1129 1130 1134 1133
f 1130 1131 1135 1134
f 1131 1132 1136 1135
f 1132 1129 1133 1136
v 6.679 1.694 -180.874
v 22.470 1.694 -156.443
v -3.179 1.694 -139.866
v -18.970 1.694 -164.297
v 6.679 7.494 -180.874
v 22.470 7.494 -156.443
v -3.179 7.494 -139.866
v -18.970 7.494 -164.297
f 1144 1143 1142 1141
f 1137 1138 1142 1141
f 1138 1139 1143 1142
f 1139 1140 1144 1143
f 1140 1137 1141 1144
v -81.236 2.449 -192.289
v -63.093 2.449 -202.703
v -56.084 2.449 -190.491
v -74.227 2.449 -180.077
v -81.236 6.349 -192.289
v -63.093 6.349 -202.703
v -56.084 6.349 -190.491
v -74.227 6.349 -180.077
f 1152 1151 1150 1149
f 1145 1146 1150 1149
f 1146 1147 1151 1150
f 1147 1148 1152 1151
f 1148 1145 1149 1152
v -88.225 2.230 -181.125
v -79.247 2.230 -195.064
v -71.655 2.230 -190.175
v -80.633 2.230 -176.236
v -88.225 6.130 -181.125
v -79.247 6.130 -195.064
v -71.655 6.130 -190.175
v -80.633 6.130 -176.236
f 1160 1159 1158 1157
f 1153 1154 1158 1157
f 1154 1155 1159 1158
f 1155 1156 1160 1159
f 1156 1153 1157 1160
v -93.765 1.966 -183.676
v -89.216 1.966 -190.738
v -84.475 1.966 -187.684
v -89.024 1.966 -180.622
v -93.765 5.866 -183.676
v -89.216 5.866 -190.738
v -84.475 5.866 -187.684
v -89.024 5.866 -180.622
f 1168 1167 1166 1165
f 1161 1162 1166 1165
f 1162 1163 1167 1166
f 1163 1164 1168 1167
f 1164 1161 1165 1168
v -72.215 1.657 -177.490
v -64.953 1.657 -173.308
v -68.925 1.657 -166.410
v -76.187 1.657 -170.592
v -72.215 5.557 -177.490
v -64.953 5.557 -173.308
v -68.925 5.557 -166.410
v -76.187 5.557 -170.592
f 1176 1175 1174 1173
f 1169 1170 1174 1173
f 1170 1171 1175 1174
f 1171 1172 1176 1175
f 1172 1169 1173 1176
v -66.546 1.680 -187.294
v -47.255 1.680 -171.393
v -57.514 1.680 -158.946
v -76.805 1.680 -174.847
v -66.546 5.580 -187.294
v -47.255 5.580 -171.393
v -57.514 5.580 -158.946
v -76.805 5.580 -174.847
f 1184 1183 1182 1181
f 1177 1178 1182 1181
f 1178 1179 1183 1182
f 1179 1180 1184 1183
f 1180 1177 1181 1184
v -62.934 1.351 -169.461
v -50.626 1.351 -159.698
v -55.306 1.351 -153.799
v -67.614 1.351 -163.562
v -62.934 5.251 -169.461
v -50.626 5.251 -159.698
v -55.306 5.251 -153.799
v -67.614 5.251 -163.562
f 1192 1191 1190 1189
f 1185 1186 1190 1189
f 1186 1187 1191 1190
f 1187 1188 1192 1191
f 1188 1185 1189 1192
v -56.200 1.146 -165.560
v -35.337 1.146 -151.748
v -42.320 1.146 -141.200
v -63.183 1.146 -155.012
v -56.200 5.046 -165.560
v -35.337 5.046 -151.748
v -42.320 5.046 -141.200
v -63.183 5.046 -155.012
f 1200 1199 1198 1197
f 1193 1194 1198 1197
f 1194 1195 1199 1198
f 1195 1196 1200 1199
f 1196 1193 1197 1200
v -47.452 1.615 -139.535
v -37.909 1.615 -134.103
v -43.168 1.615 -124.865
v -52.711 1.615 -130.297
v -47.452 5.515 -139.535
v -37.909 5.515 -134.103
v -43.168 5.515 -124.865
v -52.711 5.515 -130.297
f 1208 1207 1206 1205
f 1201 1202 1206 1205
f 1202 1203 1207 1206
f 1203 1204 1208 1207
f 1204 1201 1205 1208
v -76.516 1.704 -109.692
v -68.880 1.704 -104.853
v -71.824 1.704 -100.208
v -79.460 1.704 -105.047
v -76.516 5.604 -109.692
v -68.880 5.604 -104.853
v -71.824 5.604 -100.208
v -79.460 5.604 -105.047
f 1216 1215 1214 1213
f 1209 1210 1214 1213
f 1210 1211 1215 1214
f 1211 1212 1216 1215
f 1212 1209 1213 1216
v -48.283 1.300 -93.552
v -40.144 1.300 -103.944
v -30.957 1.300 -96.748
v -39.096 1.300 -86.356
v -48.283 5.200 -93.552
v -40.144 5.200 -103.944
v -30.957 5.200 -96.748
v -39.096 5.200 -86.356
f 1224 1223 1222 1221
f 1217 1218 1222 1221
f 1218 1219 1223 1222
f 1219 1220 1224 1223
f 1220 1217 1221 1224
v -66.493 1.254 -86.886
v -50.411 1.254 -105.449
v -40.767 1.254 -97.094
v -56.849 1.254 -78.531
v -66.493 5.154 -86.886
v -50.411 5.154 -105.449
v -40.767 5.154 -97.094
v -56.849 5.154 -78.531
f 1232 1231 1230 1229
f 1225 1226 1230 1229
f 1226 1227 1231 1230
f 1227 1228 1232 1231
f 1228 1225 1229 1232
v -129.548 1.992 -126.823
v -116.393 1.992 -101.147
v -133.472 1.992 -92.397
v -146.627 1.992 -118.073
v -129.548 5.892 -126.823
v -116.393 5.892 -101.147
v -133.472 5.892 -92.397
v -146.627 5.892 -118.073
f 1240 1239 1238 1237
f 1233 1234 1238 1237
f 1234 1235 1239 1238
f 1235 1236 1240 1239
f 1236 1233 1237 1240
v -142.789 1.785 -107.377
v -141.303 1.785 -109.785
v -139.031 1.785 -108.383
v -140.517 1.785 -105.975
v -142.789 5.685 -107.377
v -141.303 5.685 -109.785
v -139.031 5.685 -108.383
v -140.517 5.685 -105.975
f 1248 1247 1246 1245
f 1241 1242 1246 1245
f 1242 1243 1247 1246
f 1243 1244 1248 1247
f 1244 1241 1245 1248
v -198.302 1.688 13.674
v -184.788 1.688 21.448
v -188.538 1.688 27.966
v -202.052 1.688 20.192
v -198.302 5.588 13.674
v -184.788 5.588 21.448
v -188.538 5.588 27.966
v -202.052 5.588 20.192
f 1256 1255 1254 1253
f 1249 1250 1254 1253
f 1250 1251 1255 1254
f 1251 1252 1256 1255
f 1252 1249 1253 1256
v 248.658 1.342 172.785
v 252.615 1.342 174.949
v 250.642 1.342 178.555
v 246.685 1.342 176.391
v 248.658 5.242 172.785
v 252.615 5.242 174.949
v 250.642 5.242 178.555
v 246.685 5.242 176.391
f 1264 1263 1262 1261
f 1257 1258 1262 1261
f 1258 1259 1263 1262
f 1259 1260 1264 1263
f 1260 1257 1261 1264
v 219.862 1.345 163.542
v 224.359 1.345 160.872
v 226.998 1.345 165.318
v 222.501 1.345 167.988
v 219.862 5.245 163.542
v 224.359 5.245 160.872
v 226.998 5.245 165.318
v 222.501 5.245 167.988
f 1272 1271 1270 1269
f 1265 1266 1270 1269
f 1266 1267 1271 1270
f 1267 1268 1272 1271
f 1268 1265 1269 1272
v 222.542 1.407 174.063
v 225.873 1.407 154.819
v 239.038 1.407 157.097
v 235.707 1.407 176.341
v 222.542 5.307 174.063
v 225.873 5.307 154.819
v 239.038 5.307 157.097
v 235.707 5.307 176.341
f 1280 1279 1278 1277
f 1273 1274 1278 1277
f 1274 1275 1279 1278
f 1275 1276 1280 1279
f 1276 1273 1277 1280
v 235.446 1.391 170.181
v 239.372 1.391 172.123
v 237.514 1.391 175.879
v 233.588 1.391 173.937
v 235.446 5.291 170.181
v 239.372 5.291 172.123
v 237.514 5.291 175.879
v 233.588 5.291 173.937
f 1288 1287 1286 1285
f 1281 1282 1286 1285
f 1282 1283 1287 1286
f 1283 1284 1288 1287
f 1284 1281 1285 1288
v 106.595 0.912 85.794
v 121.160 0.912 95.638
v 117.005 0.912 101.786
v 102.440 0.912 91.942
v 106.595 4.812 85.794
v 121.160 4.812 95.638
v 117.005 4.812 101.786
v 102.440 4.812 91.942
f 1296 1295 1294 1293
f 1289 1290 1294 1293
f 1290 1291 1295 1294
f 1291 1292 1296 1295
f 1292 1289 1293 1296
v 82.960 1.246 63.997
v 95.599 1.246 70.706
v 89.040 1.246 83.063
v 76.401 1.246 76.354
v 82.960 5.146 63.997
v 95.599 5.146 70.706
v 89.040 5.146 83.063
v 76.401 5.146 76.354
f 1304 1303 1302 1301
f 1297 1298 1302 1301
f 1298 1299 1303 1302
f 1299 1300 1304 1303
f 1300 1297 1301 1304
v 60.005 1.220 97.862
v 61.566 1.220 72.981
v 82.255 1.220 74.278
v 80.694 1.220 99.159
v 60.005 5.120 97.862
v 61.566 5.120 72.981
v 82.255 5.120 74.278
v 80.694 5.120 99.159
f 1312 1311 1310 1309
f 1305 1306 1310 1309
f 1306 1307 1311 1310
f 1307 1308 1312 1311
f 1308 1305 1309 1312
v 102.977 1.302 53.815
v 117.708 1.302 63.169
v 108.923 1.302 77.005
v 94.192 1.302 67.651
v 102.977 5.202 53.815
v 117.708 5.202 63.169
v 108.923 5.202 77.005
v 94.192 5.202 67.651
f 1320 1319 1318 1317
f 1313 1314 1318 1317
f 1314 1315 1319 1318
f 1315 1316 1320 1319
f 1316 1313 1317 1320
v -1.652 1.255 163.945
v 0.948 1.255 160.198
v 4.432 1.255 162.615
v 1.832 1.255 166.362
v -1.652 5.155 163.945
v 0.948 5.155 160.198
v 4.432 5.155 162.615
v 1.832 5.155 166.362
f 1328 1327 1326 1325
f 1321 1322 1326 1325
f 1322 1323 1327 1326
f 1323 1324 1328 1327
f 1324 1321 1325 1328
v -6.166 1.141 168.708
v -1.420 1.141 162.293
v 2.986 1.141 165.552
v -1.760 1.141 171.967
v -6.166 5.041 168.708
v -1.420 5.041 162.293
v 2.986 5.041 165.552
v -1.760 5.041 171.967
f 1336 1335 1334 1333
f 1329 1330 1334 1333
f 1330 1331 1335 1334
f 1331 1332 1336 1335
f 1332 1329 1333 1336
v -16.804 1.095 148.113
v -5.815 1.095 131.151
v 3.224 1.095 137.007
v -7.765 1.095 153.969
v -16.804 4.995 148.113
v -5.815 4.995 131.151
v 3.224 4.995 137.007
v -7.765 4.995 153.969
f 1344 1343 1342 1341
f 1337 1338 1342 1341
f 1338 1339 1343 1342
f 1339 1340 1344 1343
f 1340 1337 1341 1344
v -7.569 0.524 134.258
v 3.890 0.524 118.517
v 17.989 0.524 128.782
v 6.530 0.524 144.523
v -7.569 4.424 134.258
v 3.890 4.424 118.517
v 17.989 4.424 128.782
v 6.530 4.424 144.523
f 1352 1351 1350 1349
f 1345 1346 1350 1349
f 1346 1347 1351 1350
f 1347 1348 1352 1351
f 1348 1345 1349 1352
v 24.389 -0.025 152.427
v 41.351 -0.025 117.331
v 64.031 -0.025 128.293
v 47.069 -0.025 163.389
v 24.389 5.775 152.427
v 41.351 5.775 117.331
v 64.031 5.775 128.293
v 47.069 5.775 163.389
f 1360 1359 1358 1357
f 1353 1354 1358 1357
f 1354 1355 1359 1358
f 1355 1356 1360 1359
f 1356 1353 1357 1360
v 18.672 1.055 103.729
v 35.638 1.055 113.917
v 28.148 1.055 126.391
v 11.182 1.055 116.203
v 18.672 4.955 103.729
v 35.638 4.955 113.917
v 28.148 4.955 126.391
v 11.182 4.955 116.203
f 1368 1367 1366 1365
f 1361 1362 1366 1365
f 1362 1363 1367 1366
f 1363 1364 1368 1367
f 1364 1361 1365 1368
v 21.320 1.281 130.055
v 27.492 1.281 129.205
v 28.360 1.281 135.505
v 22.188 1.281 136.355
v 21.320 5.181 130.055
v 27.492 5.181 129.205
v 28.360 5.181 135.505
v 22.188 5.181 136.355
f 1376 1375 1374 1373
f 1369 1370 1374 1373
f 1370 1371 1375 1374
f 1371 1372 1376 1375
f 1372 1369 1373 1376
v -53.234 1.302 99.679
v -27.836 1.302 99.412
v -27.606 1.302 121.221
v -53.004 1.302 121.488
v -53.234 5.202 99.679
v -27.836 5.202 99.412
v -27.606 5.202 121.221
v -53.004 5.202 121.488
f 1384 1383 1382 1381
f 1377 1378 1382 1381
f 1378 1379 1383 1382
f 1379 1380 1384 1383
f 1380 1377 1381 1384
v -33.674 1.231 96.142
v -20.819 1.231 74.316
v -10.186 1.231 80.578
v -23.041 1.231 102.404
v -33.674 5.131 96.142
v -20.819 5.131 74.316
v -10.186 5.131 80.578
v -23.041 5.131 102.404
f 1392 1391 1390 1389
f 1385 1386 1390 1389
f 1386 1387 1391 1390
f 1387 1388 1392 1391
f 1388 1385 1389 1392
v -50.528 0.966 74.169
v -42.954 0.966 79.195
v -47.012 0.966 85.311
v -54.586 0.966 80.285
v -50.528 4.866 74.169
v -42.954 4.866 79.195
v -47.012 4.866 85.311
v -54.586 4.866 80.285
f 1400 1399 1398 1397
f 1393 1394 1398 1397
f 1394 1395 1399 1398
f 1395 1396 1400 1399
f 1396 1393 1397 1400
v -40.511 1.549 30.723
v -3.124 1.549 51.680
v -15.309 1.549 73.417
v -52.696 1.549 52.460
v -40.511 7.349 30.723
v -3.124 7.349 51.680
v -15.309 7.349 73.417
v -52.696 7.349 52.460
f 1408 1407 1406 1405
f 1401 1402 1406 1405
f 1402 1403 1407 1406
f 1403 1404 1408 1407
f 1404 1401 1405 1408
v -3.251 1.578 29.383
v 21.010 1.578 13.643
v 33.631 1.578 33.097
v 9.370 1.578 48.837
v -3.251 5.478 29.383
v 21.010 5.478 13.643
v 33.631 5.478 33.097
v 9.370 5.478 48.837
f 1416 1415 1414 1413
f 1409 1410 1414 1413
f 1410 1411 1415 1414
f 1411 1412 1416 1415
f 1412 1409 1413 1416
v 25.785 1.512 13.752
v 34.954 1.512 0.664
v 45.495 1.512 8.048
v 36.326 1.512 21.136
v 25.785 5.412 13.752
v 34.954 5.412 0.664
v 45.495 5.412 8.048
v 36.326 5.412 21.136
f 1424 1423 1422 1421
f 1417 1418 1422 1421
f 1418 1419 1423 1422
f 1419 1420 1424 1423
f 1420 1417 1421 1424
v 38.130 1.873 -16.579
v 74.392 1.873 -23.359
v 79.810 1.873 5.619
v 43.548 1.873 12.399
v 38.130 5.773 -16.579
v 74.392 5.773 -23.359
v 79.810 5.773 5.619
v 43.548 5.773 12.399
f 1432 1431 1430 1429
f 1425 1426 1430 1429
f 1426 1427 1431 1430
f 1427 1428 1432 1431
f 1428 1425 1429 1432
v 29.718 1.563 -46.072
v 44.835 1.563 -34.074
v 38.942 1.563 -26.648
v 23.825 1.563 -38.646
v 29.718 5.463 -46.072
v 44.835 5.463 -34.074
v 38.942 5.463 -26.648
v 23.825 5.463 -38.646
f 1440 1439 1438 1437
f 1433 1434 1438 1437
f 1434 1435 1439 1438
f 1435 1436 1440 1439
f 1436 1433 1437 1440
v 16.677 1.491 -53.996
v 36.692 1.491 -66.947
v 45.623 1.491 -53.144
v 25.608 1.491 -40.193
v 16.677 5.391 -53.996
v 36.692 5.391 -66.947
v 45.623 5.391 -53.144
v 25.608 5.391 -40.193
f 1448 1447 1446 1445
f 1441 1442 1446 1445
f 1442 1443 1447 1446
f 1443 1444 1448 1447
f 1444 1441 1445 1448
v 9.753 1.573 -38.420
v 18.076 1.573 -52.272
v 23.587 1.573 -48.960
v 15.264 1.573 -35.108
v 9.753 5.473 -38.420
v 18.076 5.473 -52.272
v 23.587 5.473 -48.960
v 15.264 5.473 -35.108
f 1456 1455 1454 1453
f 1449 1450 1454 1453
f 1450 1451 1455 1454
f 1451 1452 1456 1455
f 1452 1449 1453 1456
v 16.839 1.394 -38.901
v 18.682 1.394 -17.450
v -5.419 1.394 -15.379
v -7.262 1.394 -36.830
v 16.839 5.294 -38.901
v 18.682 5.294 -17.450
v -5.419 5.294 -15.379
v -7.262 5.294 -36.830
f 1464 1463 1462 1461
f 1457 1458 1462 1461
f 1458 1459 1463 1462
f 1459 1460 1464 1463
f 1460 1457 1461 1464
v -56.361 1.562 11.604
v -38.331 1.562 -10.931
v -28.899 1.562 -3.384
v -46.929 1.562 19.151
v -56.361 5.462 11.604
v -38.331 5.462 -10.931
v -28.899 5.462 -3.384
v -46.929 5.462 19.151
f 1472 1471 1470 1469
f 1465 1466 1470 1469
f 1466 1467 1471 1470
f 1467 1468 1472 1471
f 1468 1465 1469 1472
v -63.488 1.397 -4.718
v -57.327 1.397 -0.692
v -60.352 1.397 3.938
v -66.513 1.397 -0.088
v -63.488 5.297 -4.718
v -57.327 5.297 -0.692
v -60.352 5.297 3.938
v -66.513 5.297 -0.088
f 1480 1479 1478 1477
f 1473 1474 1478 1477
f 1474 1475 1479 1478
f 1475 1476 1480 1479
f 1476 1473 1477 1480
v -99.245 1.839 21.041
v -68.769 1.839 28.349
v -74.095 1.839 50.559
v -104.571 1.839 43.251
v -99.245 5.739 21.041
v -68.769 5.739 28.349
v -74.095 5.739 50.559
v -104.571 5.739 43.251
f 1488 1487 1486 1485
f 1481 1482 1486 1485
f 1482 1483 1487 1486
f 1483 1484 1488 1487
f 1484 1481 1485 1488
v -76.182 1.768 -17.193
v -61.633 1.768 -30.357
v -51.978 1.768 -19.687
v -66.527 1.768 -6.523
v -76.182 5.668 -17.193
v -61.633 5.668 -30.357
v -51.978 5.668 -19.687
v -66.527 5.668 -6.523
f 1496 1495 1494 1493
f 1489 1490 1494 1493
f 1490 1491 1495 1494
f 1491 1492 1496 1495
f 1492 1489 1493 1496
v -74.907 1.723 -38.492
v -63.343 1.723 -31.129
v -67.253 1.723 -24.988
v -78.817 1.723 -32.351
v -74.907 5.623 -38.492
v -63.343 5.623 -31.129
v -67.253 5.623 -24.988
v -78.817 5.623 -32.351
f 1504 1503 1502 1501
f 1497 1498 1502 1501
f 1498 1499 1503 1502
f 1499 1500 1504 1503
f 1500 1497 1501 1504
v -158.189 1.317 35.865
v -141.934 1.317 34.797
v -140.971 1.317 49.455
v -157.226 1.317 50.523
v -158.189 5.217 35.865
v -141.934 5.217 34.797
v -140.971 5.217 49.455
v -157.226 5.217 50.523
f 1512 1511 1510 1509
f 1505 1506 1510 1509
f 1506 1507 1511 1510
f 1507 1508 1512 1511
f 1508 1505 1509 1512
v -138.011 1.350 22.789
v -123.837 1.350 32.029
v -131.269 1.350 43.431
v -145.443 1.350 34.191
v -138.011 5.250 22.789
v -123.837 5.250 32.029
v -131.269 5.250 43.431
v -145.443 5.250 34.191
f 1520 1519 1518 1517
f 1513 1514 1518 1517
f 1514 1515 1519 1518
f 1515 1516 1520 1519
f 1516 1513 1517 1520
v -66.353 2.519 -246.538
v -53.457 2.519 -257.874
v -45.587 2.519 -248.922
v -58.483 2.519 -237.586
v -66.353 6.419 -246.538
v -53.457 6.419 -257.874
v -45.587 6.419 -248.922
v -58.483 6.419 -237.586
f 1528 1527 1526 1525
f 1521 1522 1526 1525
f 1522 1523 1527 1526
f 1523 1524 1528 1527
f 1524 1521 1525 1528
v -84.296 2.340 -227.510
v -75.050 2.340 -241.656
v -66.964 2.340 -236.370
v -76.210 2.340 -222.224
v -84.296 6.240 -227.510
v -75.050 6.240 -241.656
v -66.964 6.240 -236.370
v -76.210 6.240 -222.224
f 1536 1535 1534 1533
f 1529 1530 1534 1533
f 1530 1531 1535 1534
f 1531 1532 1536 1535
f 1532 1529 1533 1536
v -98.091 2.374 -227.103
v -92.702 2.374 -243.784
v -81.169 2.374 -240.057
v -86.558 2.374 -223.376
v -98.091 6.274 -227.103
v -92.702 6.274 -243.784
v -81.169 6.274 -240.057
v -86.558 6.274 -223.376
f 1544 1543 1542 1541
f 1537 1538 1542 1541
f 1538 1539 1543 1542
f 1539 1540 1544 1543
f 1540 1537 1541 1544
v -94.591 2.328 -260.748
v -82.236 2.328 -244.414
v -93.369 2.328 -235.992
v -105.724 2.328 -252.326
v -94.591 6.228 -260.748
v -82.236 6.228 -244.414
v -93.369 6.228 -235.992
v -105.724 6.228 -252.326
f 1552 1551 1550 1549
f 1545 1546 1550 1549
f 1546 1547 1551 1550
f 1547 1548 1552 1551
f 1548 1545 1549 1552
v -118.210 2.218 -258.235
v -107.526 2.218 -251.005
v -111.830 2.218 -244.645
v -122.514 2.218 -251.875
v -118.210 6.118 -258.235
v -107.526 6.118 -251.005
v -111.830 6.118 -244.645
v -122.514 6.118 -251.875
f 1560 1559 1558 1557
f 1553 1554 1558 1557
f 1554 1555 1559 1558
f 1555 1556 1560 1559
f 1556 1553 1557 1560
v -259.351 2.422 -150.430
v -248.563 2.422 -167.461
v -241.189 2.422 -162.790
v -251.977 2.422 -145.759
v -259.351 6.322 -150.430
v -248.563 6.322 -167.461
v -241.189 6.322 -162.790
v -251.977 6.322 -145.759
f 1568 1567 1566 1565
f 1561 1562 1566 1565
f 1562 1563 1567 1566
f 1563 1564 1568 1567
f 1564 1561 1565 1568
v -248.469 1.833 -127.909
v -221.269 1.833 -167.955
v -215.611 1.833 -164.111
v -242.811 1.833 -124.065
v -248.469 5.733 -127.909
v -221.269 5.733 -167.955
v -215.611 5.733 -164.111
v -242.811 5.733 -124.065
f 1576 1575 1574 1573
f 1569 1570 1574 1573
f 1570 1571 1575 1574
f 1571 1572 1576 1575
f 1572 1569 1573 1576
v -242.090 1.723 -147.001
v -239.651 1.723 -150.554
v -237.590 1.723 -149.139
v -240.029 1.723 -145.586
v -242.090 5.623 -147.001
v -239.651 5.623 -150.554
v -237.590 5.623 -149.139
v -240.029 5.623 -145.586
f 1584 1583 1582 1581
f 1577 1578 1582 1581
f 1578 1579 1583 1582
f 1579 1580 1584 1583
f 1580 1577 1581 1584
v -245.444 1.605 -124.342
v -228.633 1.605 -146.796
v -220.596 1.605 -140.778
v -237.407 1.605 -118.324
v -245.444 5.505 -124.342
v -228.633 5.505 -146.796
v -220.596 5.505 -140.778
v -237.407 5.505 -118.324
f 1592 1591 1590 1589
f 1585 1586 1590 1589
f 1586 1587 1591 1590
f 1587 1588 1592 1591
f 1588 1585 1589 1592
v -239.971 1.634 -141.912
v -238.721 1.634 -125.660
v -253.189 1.634 -124.548
v -254.439 1.634 -140.800
v -239.971 5.534 -141.912
v -238.721 5.534 -125.660
v -253.189 5.534 -124.548
v -254.439 5.534 -140.800
f 1600 1599 1598 1597
f 1593 1594 1598 1597
f 1594 1595 1599 1598
f 1595 1596 1600 1599
f 1596 1593 1597 1600
v -243.727 1.417 -115.787
v -236.894 1.417 -125.407
v -231.693 1.417 -121.713
v -238.526 1.417 -112.093
v -243.727 5.317 -115.787
v -236.894 5.317 -125.407
v -231.693 5.317 -121.713
v -238.526 5.317 -112.093
f 1608 1607 1606 1605
f 1601 1602 1606 1605
f 1602 1603 1607 1606
f 1603 1604 1608 1607
f 1604 1601 1605 1608
v -260.691 1.479 -110.243
v -252.311 1.479 -122.551
v -242.449 1.479 -115.837
v -250.829 1.479 -103.529
v -260.691 5.379 -110.243
v -252.311 5.379 -122.551
v -242.449 5.379 -115.837
v -250.829 5.379 -103.529
f 1616 1615 1614 1613
f 1609 1610 1614 1613
f 1610 1611 1615 1614
f 1611 1612 1616 1615
f 1612 1609 1613 1616
v -229.858 1.572 -134.892
v -215.772 1.572 -155.510
v -209.942 1.572 -151.528
v -224.028 1.572 -130.910
v -229.858 5.472 -134.892
v -215.772 5.472 -155.510
v -209.942 5.472 -151.528
v -224.028 5.472 -130.910
f 1624 1623 1622 1621
f 1617 1618 1622 1621
f 1618 1619 1623 1622
f 1619 1620 1624 1623
f 1620 1617 1621 1624
v -216.916 2.064 -139.926
v -202.779 2.064 -160.738
v -195.384 2.064 -155.714
v -209.521 2.064 -134.902
v -216.916 5.964 -139.926
v -202.779 5.964 -160.738
v -195.384 5.964 -155.714
v -209.521 5.964 -134.902
f 1632 1631 1630 1629
f 1625 1626 1630 1629
f 1626 1627 1631 1630
f 1627 1628 1632 1631
f 1628 1625 1629 1632
v -205.373 1.587 -146.085
v -193.473 1.587 -163.461
v -186.427 1.587 -158.635
v -198.327 1.587 -141.259
v -205.373 5.487 -146.085
v -193.473 5.487 -163.461
v -186.427 5.487 -158.635
v -198.327 5.487 -141.259
f 1640 1639 1638 1637
f 1633 1634 1638 1637
f 1634 1635 1639 1638
f 1635 1636 1640 1639
f 1636 1633 1637 1640
v -208.605 1.262 -164.350
v -204.181 1.262 -170.517
v -200.435 1.262 -167.830
v -204.859 1.262 -161.663
v -208.605 5.162 -164.350
v -204.181 5.162 -170.517
v -200.435 5.162 -167.830
v -204.859 5.162 -161.663
f 1648 1647 1646 1645
f 1641 1642 1646 1645
f 1642 1643 1647 1646
f 1643 1644 1648 1647
f 1644 1641 1645 1648
v -196.475 1.869 -150.283
v -184.838 1.869 -167.655
v -179.945 1.869 -164.377
v -191.582 1.869 -147.005
v -196.475 5.769 -150.283
v -184.838 5.769 -167.655
v -179.945 5.769 -164.377
v -191.582 5.769 -147.005
f 1656 1655 1654 1653
f 1649 1650 1654 1653
f 1650 1651 1655 1654
f 1651 1652 1656 1655
f 1652 1649 1653 1656
v -186.291 1.871 -155.744
v -177.156 1.871 -169.521
v -171.689 1.871 -165.896
v -180.824 1.871 -152.119
v -186.291 5.771 -155.744
v -177.156 5.771 -169.521
v -171.689 5.771 -165.896
v -180.824 5.771 -152.119
f 1664 1663 1662 1661
f 1657 1658 1662 1661
f 1658 1659 1663 1662
f 1659 1660 1664 1663
f 1660 1657 1661 1664
v -179.488 1.766 -159.378
v -169.361 1.766 -171.778
v -164.272 1.766 -167.622
v -174.399 1.766 -155.222
v -179.488 5.666 -159.378
v -169.361 5.666 -171.778
v -164.272 5.666 -167.622
v -174.399 5.666 -155.222
f 1672 1671 1670 1669
f 1665 1666 1670 1669
f 1666 1667 1671 1670
f 1667 1668 1672 1671
f 1668 1665 1669 1672
v -167.968 1.827 -163.793
v -163.535 1.827 -172.060
v -158.812 1.827 -169.527
v -163.245 1.827 -161.260
v -167.968 5.727 -163.793
v -163.535 5.727 -172.060
v -158.812 5.727 -169.527
v -163.245 5.727 -161.260
f 1680 1679 1678 1677
f 1673 1674 1678 1677
f 1674 1675 1679 1678
f 1675 1676 1680 1679
f 1676 1673 1677 1680
v -161.937 1.862 -168.390
v -158.340 1.862 -176.748
v -152.443 1.862 -174.210
v -156.040 1.862 -165.852
v -161.937 5.762 -168.390
v -158.340 5.762 -176.748
v -152.443 5.762 -174.210
v -156.040 5.762 -165.852
f 1688 1687 1686 1685
f 1681 1682 1686 1685
f 1682 1683 1687 1686
f 1683 1684 1688 1687
f 1684 1681 1685 1688
v -155.629 1.978 -172.145
v -151.018 1.978 -180.164
v -145.331 1.978 -176.895
v -149.942 1.978 -168.876
v -155.629 5.878 -172.145
v -151.018 5.878 -180.164
v -145.331 5.878 -176.895
v -149.942 5.878 -168.876
f 1696 1695 1694 1693
f 1689 1690 1694 1693
f 1690 1691 1695 1694
f 1691 1692 1696 1695
f 1692 1689 1693 1696
v -183.671 1.939 -184.432
v -167.160 1.939 -175.631
v -170.189 1.939 -169.948
v -186.700 1.939 -178.749
v -183.671 5.839 -184.432
v -167.160 5.839 -175.631
v -170.189 5.839 -169.948
v -186.700 5.839 -178.749
f 1704 1703 1702 1701
f 1697 1698 1702 1701
f 1698 1699 1703 1702
f 1699 1700 1704 1703
f 1700 1697 1701 1704
v -197.128 1.836 -172.589
v -189.457 1.836 -185.665
v -184.592 1.836 -182.811
v -192.263 1.836 -169.735
v -197.128 5.736 -172.589
v -189.457 5.736 -185.665
v -184.592 5.736 -182.811
v -192.263 5.736 -169.735
f 1712 1711 1710 1709
f 1705 1706 1710 1709
f 1706 1707 1711 1710
f 1707 1708 1712 1711
f 1708 1705 1709 1712
v -186.227 2.107 -197.664
v -173.693 2.107 -188.326
v -179.453 2.107 -180.596
v -191.987 2.107 -189.934
v -186.227 6.007 -197.664
v -173.693 6.007 -188.326
v -179.453 6.007 -180.596
v -191.987 6.007 -189.934
f 1720 1719 1718 1717
f 1713 1714 1718 1717
f 1714 1715 1719 1718
f 1715 1716 1720 1719
f 1716 1713 1717 1720
v -226.642 2.251 -187.381
v -215.657 2.251 -200.264
v -202.538 2.251 -189.079
v -213.523 2.251 -176.196
v -226.642 6.151 -187.381
v -215.657 6.151 -200.264
v -202.538 6.151 -189.079
v -213.523 6.151 -176.196
f 1728 1727 1726 1725
f 1721 1722 1726 1725
f 1722 1723 1727 1726
f 1723 1724 1728 1727
f 1724 1721 1725 1728
v -206.461 2.232 -197.447
v -195.241 2.232 -197.533
v -195.199 2.232 -191.993
v -206.419 2.232 -191.907
v -206.461 6.132 -197.447
v -195.241 6.132 -197.533
v -195.199 6.132 -191.993
v -206.419 6.132 -191.907
f 1736 1735 1734 1733
f 1729 1730 1734 1733
f 1730 1731 1735 1734
f 1731 1732 1736 1735
f 1732 1729 1733 1736
v -199.827 2.272 -203.976
v -193.821 2.272 -211.592
v -190.413 2.272 -208.904
v -196.419 2.272 -201.288
v -199.827 6.172 -203.976
v -193.821 6.172 -211.592
v -190.413 6.172 -208.904
v -196.419 6.172 -201.288
f 1744 1743 1742 1741
f 1737 1738 1742 1741
f 1738 1739 1743 1742
f 1739 1740 1744 1743
f 1740 1737 1741 1744
v -194.101 2.262 -205.874
v -189.196 2.262 -214.508
v -184.579 2.262 -211.886
v -189.484 2.262 -203.252
v -194.101 6.162 -205.874
v -189.196 6.162 -214.508
v -184.579 6.162 -211.886
v -189.484 6.162 -203.252
f 1752 1751 1750 1749
f 1745 1746 1750 1749
f 1746 1747 1751 1750
f 1747 1748 1752 1751
f 1748 1745 1749 1752
v -186.532 2.236 -208.626
v -179.592 2.236 -218.865
v -176.388 2.236 -216.694
v -183.328 2.236 -206.455
v -186.532 6.136 -208.626
v -179.592 6.136 -218.865
v -176.388 6.136 -216.694
v -183.328 6.136 -206.455
f 1760 1759 1758 1757
f 1753 1754 1758 1757
f 1754 1755 1759 1758
f 1755 1756 1760 1759
f 1756 1753 1757 1760
v -183.360 2.319 -213.248
v -176.346 2.319 -223.388
v -172.160 2.319 -220.492
v -179.174 2.319 -210.352
v -183.360 6.219 -213.248
v -176.346 6.219 -223.388
v -172.160 6.219 -220.492
v -179.174 6.219 -210.352
f 1768 1767 1766 1765
f 1761 1762 1766 1765
f 1762 1763 1767 1766
f 1763 1764 1768 1767
f 1764 1761 1765 1768
v -177.525 2.233 -218.561
v -172.494 2.233 -226.749
v -168.115 2.233 -224.059
v -173.146 2.233 -215.871
v -177.525 6.133 -218.561
v -172.494 6.133 -226.749
v -168.115 6.133 -224.059
v -173.146 6.133 -215.871
f 1776 1775 1774 1773
f 1769 1770 1774 1773
f 1770 1771 1775 1774
f 1771 1772 1776 1775
f 1772 1769 1773 1776
v -174.104 2.368 -231.814
v -159.563 2.368 -235.241
v -156.076 2.368 -220.446
v -170.617 2.368 -217.019
v -174.104 6.268 -231.814
v -159.563 6.268 -235.241
v -156.076 6.268 -220.446
v -170.617 6.268 -217.019
f 1784 1783 1782 1781
f 1777 1778 1782 1781
f 1778 1779 1783 1782
f 1779 1780 1784 1783
f 1780 1777 1781 1784
v -151.959 2.217 -192.649
v -145.694 2.217 -201.958
v -139.621 2.217 -197.871
v -145.886 2.217 -188.562
v -151.959 6.117 -192.649
v -145.694 6.117 -201.958
v -139.621 6.117 -197.871
v -145.886 6.117 -188.562
f 1792 1791 1790 1789
f 1785 1786 1790 1789
f 1786 1787 1791 1790
f 1787 1788 1792 1791
f 1788 1785 1789 1792
v -141.993 2.252 -201.957
v -136.464 2.252 -209.510
v -130.307 2.252 -205.003
v -135.836 2.252 -197.450
v -141.993 6.152 -201.957
v -136.464 6.152 -209.510
v -130.307 6.152 -205.003
v -135.836 6.152 -197.450
f 1800 1799 1798 1797
f 1793 1794 1798 1797
f 1794 1795 1799 1798
f 1795 1796 1800 1799
f 1796 1793 1797 1800
v -153.285 2.303 -208.380
v -142.903 2.303 -202.750
v -144.795 2.303 -199.260
v -155.177 2.303 -204.890
v -153.285 6.203 -208.380
v -142.903 6.203 -202.750
v -144.795 6.203 -199.260
v -155.177 6.203 -204.890
f 1808 1807 1806 1805
f 1801 1802 1806 1805
f 1802 1803 1807 1806
f 1803 1804 1808 1807
f 1804 1801 1805 1808
v -160.432 2.174 -204.576
v -156.318 2.174 -211.507
v -153.988 2.174 -210.124
v -158.102 2.174 -203.193
v -160.432 6.074 -204.576
v -156.318 6.074 -211.507
v -153.988 6.074 -210.124
v -158.102 6.074 -203.193
f 1816 1815 1814 1813
f 1809 1810 1814 1813
f 1810 1811 1815 1814
f 1811 1812 1816 1815
f 1812 1809 1813 1816
v -157.496 2.406 -208.952
v -153.515 2.406 -215.414
v -148.764 2.406 -212.488
v -152.745 2.406 -206.026
v -157.496 6.306 -208.952
v -153.515 6.306 -215.414
v -148.764 6.306 -212.488
v -152.745 6.306 -206.026
f 1824 1823 1822 1821
f 1817 1818 1822 1821
f 1818 1819 1823 1822
f 1819 1820 1824 1823
f 1820 1817 1821 1824
v -151.517 2.046 -247.138
v -138.559 2.046 -238.798
v -140.783 2.046 -235.342
v -153.741 2.046 -243.682
v -151.517 5.946 -247.138
v -138.559 5.946 -238.798
v -140.783 5.946 -235.342
v -153.741 5.946 -243.682
f 1832 1831 1830 1829
f 1825 1826 1830 1829
f 1826 1827 1831 1830
f 1827 1828 1832 1831
f 1828 1825 1829 1832
v -133.453 2.250 -220.890
v -120.007 2.250 -212.145
v -122.047 2.250 -209.010
v -135.493 2.250 -217.755
v -133.453 6.150 -220.890
v -120.007 6.150 -212.145
v -122.047 6.150 -209.010
v -135.493 6.150 -217.755
f 1840 1839 1838 1837
f 1833 1834 1838 1837
f 1834 1835 1839 1838
f 1835 1836 1840 1839
f 1836 1833 1837 1840
v -137.183 2.273 -226.557
v -124.008 2.273 -218.091
v -126.057 2.273 -214.903
v -139.232 2.273 -223.369
v -137.183 6.173 -226.557
v -124.008 6.173 -218.091
v -126.057 6.173 -214.903
v -139.232 6.173 -223.369
f 1848 1847 1846 1845
f 1841 1842 1846 1845
f 1842 1843 1847 1846
f 1843 1844 1848 1847
f 1844 1841 1845 1848
v -141.524 2.241 -231.733
v -127.772 2.241 -223.341
v -129.856 2.241 -219.927
v -143.608 2.241 -228.319
v -141.524 6.141 -231.733
v -127.772 6.141 -223.341
v -129.856 6.141 -219.927
v -143.608 6.141 -228.319
f 1856 1855 1854 1853
f 1849 1850 1854 1853
f 1850 1851 1855 1854
f 1851 1852 1856 1855
f 1852 1849 1853 1856
v -123.376 2.190 -200.435
v -114.772 2.190 -211.567
v -106.384 2.190 -205.085
v -114.988 2.190 -193.953
v -123.376 6.090 -200.435
v -114.772 6.090 -211.567
v -106.384 6.090 -205.085
v -114.988 6.090 -193.953
f 1864 1863 1862 1861
f 1857 1858 1862 1861
f 1858 1859 1863 1862
f 1859 1860 1864 1863
f 1860 1857 1861 1864
v -133.809 1.996 -184.833
v -130.704 1.996 -191.095
v -126.331 1.996 -188.927
v -129.436 1.996 -182.665
v -133.809 5.896 -184.833
v -130.704 5.896 -191.095
v -126.331 5.896 -188.927
v -129.436 5.896 -182.665
f 1872 1871 1870 1869
f 1865 1866 1870 1869
f 1866 1867 1871 1870
f 1867 1868 1872 1871
f 1868 1865 1869 1872
v 142.181 1.856 -241.372
v 146.003 1.856 -238.777
v 144.599 1.856 -236.708
v 140.777 1.856 -239.303
v 142.181 5.756 -241.372
v 146.003 5.756 -238.777
v 144.599 5.756 -236.708
v 140.777 5.756 -239.303
f 1880 1879 1878 1877
f 1873 1874 1878 1877
f 1874 1875 1879 1878
f 1875 1876 1880 1879
f 1876 1873 1877 1880
v 142.785 1.638 -222.517
v 155.122 1.638 -207.107
v 145.575 1.638 -199.463
v 133.238 1.638 -214.873
v 142.785 5.538 -222.517
v 155.122 5.538 -207.107
v 145.575 5.538 -199.463
v 133.238 5.538 -214.873
f 1888 1887 1886 1885
f 1881 1882 1886 1885
f 1882 1883 1887 1886
f 1883 1884 1888 1887
f 1884 1881 1885 1888
v 126.381 1.511 -218.212
v 134.278 1.511 -228.839
v 144.279 1.511 -221.408
v 136.382 1.511 -210.781
v 126.381 5.411 -218.212
v 134.278 5.411 -228.839
v 144.279 5.411 -221.408
v 136.382 5.411 -210.781
f 1896 1895 1894 1893
f 1889 1890 1894 1893
f 1890 1891 1895 1894
f 1891 1892 1896 1895
f 1892 1889 1893 1896
v 122.048 1.879 -235.072
v 130.754 1.879 -229.184
v 127.052 1.879 -223.708
v 118.346 1.879 -229.596
v 122.048 5.779 -235.072
v 130.754 5.779 -229.184
v 127.052 5.779 -223.708
v 118.346 5.779 -229.596
f 1904 1903 1902 1901
f 1897 1898 1902 1901
f 1898 1899 1903 1902
f 1899 1900 1904 1903
f 1900 1897 1901 1904
v 145.252 1.391 -223.621
v 156.223 1.391 -244.062
v 168.488 1.391 -237.479
v 157.517 1.391 -217.038
v 145.252 5.291 -223.621
v 156.223 5.291 -244.062
v 168.488 5.291 -237.479
v 157.517 5.291 -217.038
f 1912 1911 1910 1909
f 1905 1906 1910 1909
f 1906 1907 1911 1910
f 1907 1908 1912 1911
f 1908 1905 1909 1912
v 158.034 1.397 -232.679
v 167.299 1.397 -246.090
v 172.466 1.397 -242.521
v 163.201 1.397 -229.110
v 158.034 5.297 -232.679
v 167.299 5.297 -246.090
v 172.466 5.297 -242.521
v 163.201 5.297 -229.110
f 1920 1919 1918 1917
f 1913 1914 1918 1917
f 1914 1915 1919 1918
f 1915 1916 1920 1919
f 1916 1913 1917 1920
v 168.473 1.426 -246.686
v 173.437 1.426 -253.819
v 178.387 1.426 -250.374
v 173.423 1.426 -243.241
v 168.473 5.326 -246.686
v 173.437 5.326 -253.819
v 178.387 5.326 -250.374
v 173.423 5.326 -243.241
f 1928 1927 1926 1925
f 1921 1922 1926 1925
f 1922 1923 1927 1926
f 1923 1924 1928 1927
f 1924 1921 1925 1928
v 181.677 1.641 -237.183
v 187.211 1.641 -245.198
v 190.543 1.641 -242.897
v 185.009 1.641 -234.882
v 181.677 5.541 -237.183
v 187.211 5.541 -245.198
v 190.543 5.541 -242.897
v 185.009 5.541 -234.882
f 1936 1935 1934 1933
f 1929 1930 1934 1933
f 1930 1931 1935 1934
f 1931 1932 1936 1935
f 1932 1929 1933 1936
v 193.828 0.753 -249.566
v 205.862 0.753 -241.387
v 202.332 0.753 -236.194
v 190.298 0.753 -244.373
v 193.828 4.653 -249.566
v 205.862 4.653 -241.387
v 202.332 4.653 -236.194
v 190.298 4.653 -244.373
f 1944 1943 1942 1941
f 1937 1938 1942 1941
f 1938 1939 1943 1942
f 1939 1940 1944 1943
f 1940 1937 1941 1944
v 184.088 1.596 -265.038
v 199.155 1.596 -255.504
v 193.572 1.596 -246.682
v 178.505 1.596 -256.216
v 184.088 5.496 -265.038
v 199.155 5.496 -255.504
v 193.572 5.496 -246.682
v 178.505 5.496 -256.216
f 1952 1951 1950 1949
f 1945 1946 1950 1949
f 1946 1947 1951 1950
f 1947 1948 1952 1951
f 1948 1945 1949 1952
v 151.586 2.126 -264.507
v 152.021 2.126 -240.801
v 133.054 2.126 -240.453
v 132.619 2.126 -264.159
v 151.586 6.026 -264.507
v 152.021 6.026 -240.801
v 133.054 6.026 -240.453
v 132.619 6.026 -264.159
f 1960 1959 1958 1957
f 1953 1954 1958 1957
f 1954 1955 1959 1958
f 1955 1956 1960 1959
f 1956 1953 1957 1960
v 122.733 2.019 -234.014
v 133.162 2.019 -253.940
v 139.647 2.019 -250.546
v 129.218 2.019 -230.620
v 122.733 5.919 -234.014
v 133.162 5.919 -253.940
v 139.647 5.919 -250.546
v 129.218 5.919 -230.620
f 1968 1967 1966 1965
f 1961 1962 1966 1965
f 1962 1963 1967 1966
f 1963 1964 1968 1967
f 1964 1961 1965 1968
v 113.322 2.118 -248.825
v 125.772 2.118 -240.387
v 121.318 2.118 -233.815
v 108.868 2.118 -242.253
v 113.322 6.018 -248.825
v 125.772 6.018 -240.387
v 121.318 6.018 -233.815
v 108.868 6.018 -242.253
f 1976 1975 1974 1973
f 1969 1970 1974 1973
f 1970 1971 1975 1974
f 1971 1972 1976 1975
f 1972 1969 1973 1976
v 0.224 1.553 -67.847
v 17.200 1.553 -92.351
v 26.636 1.553 -85.813
v 9.660 1.553 -61.309
v 0.224 5.453 -67.847
v 17.200 5.453 -92.351
v 26.636 5.453 -85.813
v 9.660 5.453 -61.309
f 1984 1983 1982 1981
f 1977 1978 1982 1981
f 1978 1979 1983 1982
f 1979 1980 1984 1983
f 1980 1977 1981 1984
v -21.768 1.547 -66.972
v 1.783 1.547 -84.100
v 19.828 1.547 -59.288
v -3.723 1.547 -42.160
v -21.768 7.347 -66.972
v 1.783 7.347 -84.100
v 19.828 7.347 -59.288
v -3.723 7.347 -42.160
f 1992 1991 1990 1989
f 1985 1986 1990 1989
f 1986 1987 1991 1990
f 1987 1988 1992 1991
f 1988 1985 1989 1992
usemtl road
v 76.539 1.115 152.093
v 81.789 1.021 151.713
v 81.391 1.016 146.227
v 76.141 1.017 146.607
f 1993 1994 1995 1996
v 83.119 0.998 151.256
v 154.059 1.105 103.806
v 151.001 1.202 99.234
v 80.061 1.024 146.684
f 1997 1998 1999 2000
v 154.051 1.105 103.811
v 186.011 1.236 82.601
v 182.969 1.335 78.019
v 151.009 1.202 99.229
f 2001 2002 2003 2004
v 186.017 1.236 82.597
v 229.627 1.374 53.477
v 226.573 1.453 48.903
v 182.963 1.335 78.023
f 2005 2006 2007 2008
v 229.624 1.374 53.479
v 232.404 1.373 51.629
v 229.356 1.471 47.051
v 226.576 1.453 48.901
f 2009 2010 2011 2012
v 232.405 1.373 51.628
v 235.165 1.351 49.788
v 232.115 1.449 45.212
v 229.355 1.471 47.052
f 2013 2014 2015 2016
v 235.170 1.351 49.785
v 257.530 1.378 34.815
v 254.470 1.455 30.245
v 232.110 1.449 45.215
f 2017 2018 2019 2020
v 217.175 1.674 -240.365
v 234.085 1.395 -215.475
v 238.635 1.421 -218.565
v 221.725 1.702 -243.455
f 2021 2022 2023 2024
v 234.086 1.395 -215.474
v 253.726 1.254 -186.585
v 258.274 1.215 -189.677
v 238.634 1.421 -218.566
f 2025 2026 2027 2028
v -65.287 1.706 -50.434
v -47.577 1.665 -24.634
v -43.043 1.581 -27.746
v -60.753 1.705 -53.546
f 2029 2030 2031 2032
v -47.577 1.665 -24.633
v -17.297 1.430 19.457
v -12.763 1.439 16.343
v -43.043 1.581 -27.747
f 2033 2034 2035 2036
v -17.309 1.430 19.440
v 6.031 1.298 53.980
v 10.589 1.272 50.900
v -12.751 1.439 16.360
f 2037 2038 2039 2040
v 6.046 1.297 54.001
v 8.176 1.272 57.091
v 12.704 1.290 53.969
v 10.574 1.271 50.879
f 2041 2042 2043 2044
v 8.176 1.272 57.091
v 28.696 1.233 86.851
v 33.224 1.262 83.729
v 12.704 1.290 53.969
f 2045 2046 2047 2048
v 28.683 1.233 86.832
v 69.903 1.012 147.692
v 74.457 0.976 144.608
v 33.237 1.262 83.748
f 2049 2050 2051 2052
v 70.503 1.025 148.330
v 74.663 1.108 151.530
v 78.017 1.038 147.170
v 73.857 0.983 143.970
f 2053 2054 2055 2056
v -142.242 2.185 -254.460
v -104.038 2.209 -197.930
v -99.482 2.180 -201.010
v -137.686 2.221 -257.540
f 2057 2058 2059 2060
v -104.037 2.209 -197.928
v -100.117 2.221 -192.138
v -95.563 2.230 -195.222
v -99.483 2.180 -201.012
f 2061 2062 2063 2064
v 154.813 1.186 99.987
v 150.703 1.154 93.867
v 146.137 1.124 96.933
v 150.247 1.191 103.053
f 2065 2066 2067 2068
v 150.705 1.154 93.869
v 110.235 1.137 33.459
v 105.665 1.208 36.521
v 146.135 1.124 96.931
f 2069 2070 2071 2072
v 110.240 1.137 33.468
v 85.830 1.119 -3.252
v 81.250 1.129 -0.208
v 105.660 1.208 36.512
f 2073 2074 2075 2076
v 85.830 1.119 -3.253
v 64.500 1.266 -35.313
v 59.920 1.279 -32.267
v 81.250 1.129 -0.207
f 2077 2078 2079 2080
v 64.456 1.266 -35.376
v 18.536 1.545 -100.396
v 14.044 1.529 -97.224
v 59.964 1.279 -32.204
f 2081 2082 2083 2084
v 17.508 1.541 -101.276
v 11.068 1.687 -104.456
v 8.632 1.658 -99.524
v 15.072 1.534 -96.344
f 2085 2086 2087 2088
v 12.141 1.685 -103.510
v 8.611 1.533 -108.830
v 4.029 1.547 -105.790
v 7.559 1.703 -100.470
f 2089 2090 2091 2092
v 8.609 1.533 -108.835
v -59.871 2.252 -211.625
v -64.449 2.286 -208.575
v 4.031 1.547 -105.785
f 2093 2094 2095 2096
v -59.870 2.252 -211.622
v -63.340 2.389 -216.842
v -67.920 2.363 -213.798
v -64.450 2.286 -208.578
f 2097 2098 2099 2100
v -180.045 1.933 -138.390
v -176.415 1.925 -133.120
v -171.885 1.969 -136.240
v -175.515 1.938 -141.510
f 2101 2102 2103 2104
v -176.365 1.928 -133.050
v -127.345 1.516 -66.420
v -122.915 1.629 -69.680
v -171.935 1.967 -136.310
f 2105 2106 2107 2108
v -229.945 1.732 -104.788
v -226.025 1.772 -99.318
v -221.555 1.789 -102.522
v -225.475 1.745 -107.992
f 2109 2110 2111 2112
v -226.034 1.772 -99.330
v -155.484 1.562 0.260
v -150.996 1.701 -2.920
v -221.546 1.789 -102.510
f 2113 2114 2115 2116
v -155.524 1.562 0.202
v -154.424 1.548 1.842
v -149.856 1.613 -1.222
v -150.956 1.698 -2.862
f 2117 2118 2119 2120
v -154.430 1.548 1.833
v -150.720 1.439 7.413
v -146.140 1.408 4.367
v -149.850 1.613 -1.213
f 2121 2122 2123 2124
v -40.677 2.362 -241.163
v -36.497 2.485 -234.903
v -31.923 2.474 -237.957
v -36.103 2.394 -244.217
f 2125 2126 2127 2128
v 76.436 1.646 -145.998
v 3.816 2.517 -254.628
v -0.756 2.499 -251.572
v 71.864 1.643 -142.942
f 2129 2130 2131 2132
v 3.819 2.517 -254.624
v 1.887 2.459 -257.524
v -2.690 2.463 -254.476
v -0.759 2.499 -251.576
f 2133 2134 2135 2136
v -248.421 1.728 -92.952
v -252.071 1.741 -98.142
v -256.569 1.668 -94.978
v -252.919 1.723 -89.788
f 2137 2138 2139 2140
v -45.257 1.432 139.763
v 32.493 1.237 87.573
v 29.427 1.291 83.007
v -48.323 1.444 135.197
f 2141 2142 2143 2144
v 32.464 1.237 87.592
v 78.864 1.261 57.282
v 75.856 1.299 52.678
v 29.456 1.291 82.988
f 2145 2146 2147 2148
v 78.864 1.261 57.282
v 94.884 1.207 46.812
v 91.876 1.253 42.208
v 75.856 1.299 52.678
f 2149 2150 2151 2152
v 94.884 1.207 46.812
v 109.454 1.161 37.292
v 106.446 1.170 32.688
v 91.876 1.253 42.208
f 2153 2154 2155 2156
v 109.481 1.160 37.274
v 227.011 1.198 -41.496
v 223.949 1.156 -46.064
v 106.419 1.171 32.706
f 2157 2158 2159 2160
v -140.548 1.603 0.590
v -92.448 1.659 71.740
v -87.892 1.577 68.660
v -135.992 1.660 -2.490
f 2161 2162 2163 2164
v -92.481 1.659 71.690
v -49.101 1.439 138.970
v -44.479 1.444 135.990
v -87.859 1.576 68.710
f 2165 2166 2167 2168
v -88.599 1.624 72.457
v -13.459 1.453 20.157
v -16.601 1.480 15.643
v -91.741 1.657 67.943
f 2169 2170 2171 2172
v -13.501 1.452 20.185
v 63.739 1.274 -31.505
v 60.681 1.299 -36.075
v -16.559 1.480 15.615
f 2173 2174 2175 2176
v 63.763 1.274 -31.521
v 112.163 1.224 -64.651
v 109.057 1.337 -69.189
v 60.657 1.300 -36.059
f 2177 2178 2179 2180
v 112.164 1.224 -64.651
v 127.374 1.314 -75.071
v 124.266 1.361 -79.609
v 109.056 1.337 -69.189
f 2181 2182 2183 2184
v 127.373 1.314 -75.071
v 139.703 1.362 -83.511
v 136.597 1.401 -88.049
v 124.267 1.361 -79.609
f 2185 2186 2187 2188
v 139.704 1.362 -83.511
v 153.974 1.413 -93.281
v 150.866 1.427 -97.819
v 136.596 1.401 -88.049
f 2189 2190 2191 2192
v 153.973 1.413 -93.280
v 176.803 1.250 -108.900
v 173.697 1.323 -113.440
v 150.867 1.427 -97.820
f 2193 2194 2195 2196
v 176.804 1.250 -108.901
v 181.504 1.383 -112.121
v 178.396 1.398 -116.659
v 173.696 1.323 -113.439
f 2197 2198 2199 2200
v 181.490 1.383 -112.112
v 187.940 1.269 -116.472
v 184.860 1.242 -121.028
v 178.410 1.398 -116.668
f 2201 2202 2203 2204
v 187.938 1.269 -116.470
v 257.538 1.231 -163.430
v 254.462 1.202 -167.989
v 184.862 1.242 -121.030
f 2205 2206 2207 2208
v 183.818 1.615 -222.598
v 137.698 1.532 -191.368
v 141.622 1.483 -185.572
v 187.742 1.698 -216.802
f 2209 2210 2211 2212
v 137.723 1.531 -191.385
v 131.193 1.590 -187.045
v 135.067 1.596 -181.215
v 141.597 1.482 -185.555
f 2213 2214 2215 2216
v 175.762 1.377 -126.442
v 139.412 1.514 -180.962
v 133.588 1.447 -177.078
v 169.938 1.379 -122.558
f 2217 2218 2219 2220
v 139.422 1.514 -180.947
v 136.052 1.598 -186.057
v 130.208 1.539 -182.203
v 133.578 1.447 -177.093
f 2221 2222 2223 2224
v 37.119 1.551 -124.229
v 7.919 1.601 -104.909
v 11.781 1.557 -99.071
v 40.981 1.509 -118.391
f 2225 2226 2227 2228
v 7.870 1.601 -104.876
v -28.230 1.670 -80.106
v -24.270 1.623 -74.334
v 11.830 1.557 -99.104
f 2229 2230 2231 2232
v -28.230 1.670 -80.106
v -65.000 1.693 -54.876
v -61.040 1.592 -49.104
v -24.270 1.623 -74.334
f 2233 2234 2235 2236
v -251.748 1.594 -86.034
v -248.488 1.630 -88.634
v -252.852 1.669 -94.106
v -256.112 1.677 -91.506
f 2237 2238 2239 2240
v -248.754 1.630 -88.441
v -225.794 1.675 -103.461
v -229.626 1.727 -109.319
v -252.586 1.669 -94.299
f 2241 2242 2243 2244
v -225.758 1.676 -103.485
v -175.828 1.849 -137.045
v -179.732 1.904 -142.855
v -229.662 1.727 -109.295
f 2245 2246 2247 2248
v -175.828 1.849 -137.045
v -135.878 2.026 -163.885
v -139.782 2.063 -169.695
v -179.732 1.904 -142.855
f 2249 2250 2251 2252
v -135.878 2.026 -163.885
v -129.138 2.110 -168.415
v -133.042 2.097 -174.225
v -139.782 2.063 -169.695
f 2253 2254 2255 2256
v -129.136 2.110 -168.416
v -104.566 2.104 -184.946
v -108.474 2.191 -190.754
v -133.044 2.097 -174.224
f 2257 2258 2259 2260
v -104.569 2.104 -184.945
v -95.889 2.201 -190.775
v -99.791 2.231 -196.585
v -108.471 2.191 -190.755
f 2261 2262 2263 2264
v -95.888 2.201 -190.775
v -63.678 2.296 -212.415
v -67.582 2.354 -218.225
v -99.792 2.231 -196.585
f 2265 2266 2267 2268
v -63.678 2.296 -212.415
v -32.258 2.396 -233.525
v -36.162 2.456 -239.335
v -67.582 2.354 -218.225
f 2269 2270 2271 2272
v -32.257 2.396 -233.526
v -3.162 2.458 -253.096
v -7.069 2.495 -258.904
v -36.163 2.456 -239.334
f 2273 2274 2275 2276
v 258.870 1.362 -2.044
v 228.350 1.074 -45.783
v 222.610 1.152 -41.777
v 253.130 1.314 1.961
f 2277 2278 2279 2280
v 228.427 1.074 -45.668
v 222.077 1.019 -55.578
v 216.183 1.071 -51.802
v 222.533 1.152 -41.892
f 2281 2282 2283 2284
v 222.071 1.019 -55.588
v 203.381 1.160 -84.548
v 197.499 1.160 -80.752
v 216.189 1.071 -51.792
f 2285 2286 2287 2288
v 203.381 1.160 -84.548
v 182.891 1.271 -116.288
v 177.009 1.326 -112.492
v 197.499 1.160 -80.752
f 2289 2290 2291 2292
v 182.813 1.270 -116.403
v 181.843 1.280 -117.783
v 176.117 1.335 -113.757
v 177.087 1.325 -112.377
f 2293 2294 2295 2296
v 181.844 1.280 -117.781
v 175.714 1.378 -126.511
v 169.986 1.378 -122.489
v 176.116 1.335 -113.759
f 2297 2298 2299 2300
v 136.053 1.598 -186.055
v 131.963 1.506 -192.265
v 126.117 1.462 -188.415
v 130.207 1.539 -182.205
f 2301 2302 2303 2304
v 131.923 1.505 -192.325
v 114.473 1.754 -217.665
v 108.707 1.683 -213.695
v 126.157 1.463 -188.355
f 2305 2306 2307 2308
v 114.507 1.753 -217.615
v 97.697 2.056 -242.955
v 91.863 2.014 -239.085
v 108.673 1.684 -213.745
f 2309 2310 2311 2312
v 97.726 2.055 -242.910
v 90.476 2.172 -254.210
v 84.584 2.179 -250.430
v 91.834 2.015 -239.130
f 2313 2314 2315 2316
v -258.199 1.442 55.106
v -252.669 1.403 63.376
v -246.851 1.409 59.484
v -252.381 1.441 51.214
f 2317 2318 2319 2320
v -252.599 1.405 63.476
v -246.329 1.479 72.176
v -240.651 1.459 68.084
v -246.921 1.408 59.384
f 2321 2322 2323 2324
v -245.791 1.487 71.636
v -242.111 1.401 77.256
v -237.509 1.369 74.244
v -241.189 1.465 68.624
f 2325 2326 2327 2328
v -242.094 1.401 77.281
v -203.534 1.229 134.811
v -198.966 1.209 131.749
v -237.526 1.370 74.219
f 2329 2330 2331 2332
v -203.535 1.229 134.811
v -159.945 0.561 199.871
v -155.375 0.532 196.809
v -198.965 1.209 131.749
f 2333 2334 2335 2336
v 131.195 1.590 -187.047
v 126.175 1.492 -183.717
v 130.045 1.444 -177.883
v 135.065 1.596 -181.213
f 2337 2338 2339 2340
v 126.156 1.492 -183.704
v 98.826 1.565 -165.314
v 102.734 1.473 -159.506
v 130.064 1.444 -177.896
f 2341 2342 2343 2344
v 98.824 1.565 -165.313
v 72.194 1.571 -147.373
v 76.106 1.530 -141.567
v 102.736 1.473 -159.507
f 2345 2346 2347 2348
v 72.222 1.572 -147.391
v 37.122 1.551 -124.231
v 40.978 1.509 -118.389
v 76.078 1.530 -141.549
f 2349 2350 2351 2352
v 217.523 1.690 -244.832
v 183.853 1.615 -222.622
v 187.707 1.698 -216.778
v 221.377 1.662 -238.988
f 2353 2354 2355 2356
v 220.687 1.095 -51.423
v 235.047 1.105 -61.283
v 231.933 1.054 -65.817
v 217.573 1.079 -55.957
f 2357 2358 2359 2360
v 235.046 1.105 -61.283
v 257.556 1.102 -76.731
v 254.444 1.178 -81.266
v 231.934 1.054 -65.817
f 2361 2362 2363 2364
v -64.985 1.693 -54.887
v -140.235 1.666 -3.847
v -136.305 1.544 1.947
v -61.055 1.592 -49.093
f 2365 2366 2367 2368
v -140.225 1.665 -3.853
v -150.385 1.467 2.987
v -146.475 1.387 8.793
v -136.315 1.544 1.953
f 2369 2370 2371 2372
v -150.396 1.468 2.995
v -179.416 1.591 22.705
v -175.484 1.557 28.495
v -146.464 1.387 8.785
f 2373 2374 2375 2376
v -179.422 1.591 22.709
v -184.832 1.590 26.399
v -180.888 1.529 32.181
v -175.478 1.557 28.491
f 2377 2378 2379 2380
v -184.827 1.589 26.395
v -239.027 1.451 63.225
v -235.093 1.373 69.015
v -180.893 1.529 32.185
f 2381 2382 2383 2384
v -238.912 1.453 63.150
v -245.342 1.498 67.160
v -241.638 1.475 73.100
v -235.208 1.372 69.090
f 2385 2386 2387 2388
v 225.818 1.337 -70.848
v 227.978 1.108 -67.568
v 230.902 1.135 -69.492
v 228.742 1.390 -72.772
f 2389 2390 2391 2392
v 228.082 1.096 -67.426
v 232.132 1.049 -62.446
v 234.848 1.066 -64.654
v 230.798 1.149 -69.634
f 2393 2394 2395 2396
v 208.703 1.356 -90.797
v 205.793 1.215 -88.687
v 207.847 1.232 -85.853
v 210.757 1.342 -87.963
f 2397 2398 2399 2400
v 205.794 1.215 -88.687
v 199.414 1.237 -84.067
v 201.466 1.232 -81.233
v 207.846 1.232 -85.853
f 2401 2402 2403 2404
v 226.484 1.582 -208.080
v 237.354 1.442 -215.580
v 235.366 1.456 -218.460
v 224.496 1.553 -210.960
f 2405 2406 2407 2408
v 109.904 1.636 -153.034
v 105.704 1.519 -158.684
v 102.896 1.519 -156.596
v 107.096 1.563 -150.946
f 2409 2410 2411 2412
v 105.708 1.519 -158.679
v 102.188 1.611 -163.449
v 99.372 1.601 -161.371
v 102.892 1.519 -156.601
f 2413 2414 2415 2416
v 127.148 1.422 -97.340
v 136.758 1.396 -84.720
v 139.542 1.412 -86.840
v 129.932 1.450 -99.460
f 2417 2418 2419 2420
v 114.728 1.461 -89.263
v 124.418 1.358 -76.293
v 127.222 1.371 -78.387
v 117.532 1.430 -91.357
f 2421 2422 2423 2424
v 141.907 1.574 -108.695
v 150.947 1.435 -94.605
v 153.893 1.432 -96.495
v 144.853 1.628 -110.585
f 2425 2426 2427 2428
v 99.998 1.441 -78.720
v 109.188 1.330 -65.900
v 112.032 1.329 -67.940
v 102.842 1.454 -80.760
f 2429 2430 2431 2432
v 76.253 1.315 2.458
v 81.553 1.132 1.138
v 80.707 1.106 -2.258
v 75.407 1.340 -0.938
f 2433 2434 2435 2436
v 81.894 1.130 1.014
v 84.304 1.132 -0.156
v 82.776 1.146 -3.304
v 80.366 1.093 -2.134
f 2437 2438 2439 2440
v 87.968 1.453 30.846
v 91.688 1.317 44.956
v 95.072 1.277 44.064
v 91.352 1.310 29.954
f 2441 2442 2443 2444
v 67.925 1.562 36.912
v 65.775 1.413 38.212
v 67.585 1.403 41.208
v 69.735 1.495 39.908
f 2445 2446 2447 2448
v 65.246 1.340 40.713
v 75.926 1.367 55.983
v 78.794 1.380 53.977
v 68.114 1.469 38.707
f 2449 2450 2451 2452
v 22.010 1.396 45.600
v 9.460 1.335 54.080
v 11.420 1.327 56.980
v 23.970 1.370 48.500
f 2453 2454 2455 2456
v 72.714 2.073 -240.756
v 83.754 2.144 -247.826
v 81.866 2.187 -250.774
v 70.826 2.136 -243.704
f 2457 2458 2459 2460
v 83.753 2.144 -247.826
v 88.473 2.203 -250.846
v 86.587 2.245 -253.794
v 81.867 2.187 -250.774
f 2461 2462 2463 2464
v -232.987 2.377 -258.295
v -257.515 2.450 -242.105
v -254.485 2.440 -237.515
v -229.957 2.391 -253.705
f 2465 2466 2467 2468
v -141.502 2.364 -185.923
v -136.322 2.076 -176.263
v -133.238 2.104 -177.917
v -138.418 2.360 -187.577
f 2469 2470 2471 2472
v -136.254 2.071 -176.147
v -132.564 2.134 -170.377
v -129.616 2.145 -172.263
v -133.306 2.111 -178.033
f 2473 2474 2475 2476
v -145.631 2.652 -221.070
v -153.241 2.687 -220.980
v -153.199 2.750 -217.480
v -145.589 2.671 -217.570
f 2477 2478 2479 2480
v -153.830 2.692 -220.870
v -160.630 2.690 -218.340
v -159.410 2.655 -215.060
v -152.610 2.749 -217.590
f 2481 2482 2483 2484
v -161.007 2.690 -218.145
v -167.277 2.633 -213.865
v -165.303 2.613 -210.975
v -159.033 2.655 -215.255
f 2485 2486 2487 2488
v -167.555 2.631 -213.630
v -173.715 2.605 -207.190
v -171.185 2.586 -204.770
v -165.025 2.614 -211.210
f 2489 2490 2491 2492
v -174.103 2.597 -206.554
v -176.303 2.535 -200.214
v -172.997 2.490 -199.066
v -170.797 2.593 -205.406
f 2493 2494 2495 2496
v -176.365 2.524 -199.290
v -175.315 2.503 -194.150
v -171.885 2.441 -194.850
v -172.935 2.505 -199.990
f 2497 2498 2499 2500
v -175.025 2.489 -193.484
v -169.895 2.422 -186.294
v -167.045 2.409 -188.326
v -172.175 2.448 -195.516
f 2501 2502 2503 2504
v -169.379 2.414 -185.815
v -162.209 2.330 -181.455
v -160.391 2.366 -184.445
v -167.561 2.415 -188.805
f 2505 2506 2507 2508
v -161.582 2.326 -181.223
v -154.662 2.320 -180.093
v -154.098 2.353 -183.547
v -161.018 2.368 -184.677
f 2509 2510 2511 2512
v -153.953 2.320 -180.123
v -146.603 2.328 -181.973
v -147.457 2.356 -185.367
v -154.807 2.352 -183.517
f 2513 2514 2515 2516
v -146.331 2.330 -182.066
v -139.261 2.340 -185.146
v -140.659 2.331 -188.354
v -147.729 2.354 -185.274
f 2517 2518 2519 2520
v -138.797 2.339 -185.443
v -128.547 2.492 -194.563
v -130.873 2.487 -197.177
v -141.123 2.337 -188.057
f 2521 2522 2523 2524
v -128.085 2.507 -195.220
v -126.305 2.527 -199.670
v -129.555 2.526 -200.970
v -131.335 2.478 -196.520
f 2525 2526 2527 2528
v -126.196 2.522 -200.554
v -126.706 2.618 -204.334
v -130.174 2.552 -203.866
v -129.664 2.518 -200.086
f 2529 2530 2531 2532
v -126.952 2.640 -205.020
v -129.382 2.619 -208.950
v -132.358 2.586 -207.110
v -129.928 2.544 -203.180
f 2533 2534 2535 2536
v -202.191 1.273 131.804
v -207.761 1.317 135.354
v -205.879 1.312 138.306
v -200.309 1.266 134.756
f 2537 2538 2539 2540
v -207.758 1.317 135.353
v -225.208 1.275 146.433
v -223.332 1.302 149.387
v -205.882 1.312 138.307
f 2541 2542 2543 2544
v -225.209 1.275 146.434
v -242.009 1.306 157.124
v -240.131 1.323 160.076
v -223.331 1.302 149.386
f 2545 2546 2547 2548
v -239.598 1.276 157.654
v -254.528 1.271 134.426
v -257.472 1.304 136.319
v -242.542 1.339 159.546
f 2549 2550 2551 2552
v -252.452 1.305 107.306
v -225.742 1.285 148.856
v -222.798 1.270 146.964
v -249.508 1.360 105.414
f 2553 2554 2555 2556
v 151.740 1.189 55.813
v 193.530 1.303 28.413
v 191.610 1.317 25.487
v 149.820 1.194 52.887
f 2557 2558 2559 2560
v 193.529 1.303 28.414
v 206.899 1.264 19.654
v 204.981 1.223 16.726
v 191.611 1.317 25.486
f 2561 2562 2563 2564
v 206.899 1.264 19.654
v 234.009 1.263 1.884
v 232.091 1.240 -1.044
v 204.981 1.223 16.726
f 2565 2566 2567 2568
v 234.509 1.265 -0.547
v 222.779 1.262 -18.247
v 219.861 1.255 -16.313
v 231.591 1.244 1.387
f 2569 2570 2571 2572
v 220.360 1.262 -18.743
v 180.170 1.254 7.607
v 182.090 1.259 10.533
v 222.280 1.267 -15.817
f 2573 2574 2575 2576
v 180.170 1.254 7.607
v 138.080 1.219 35.207
v 140.000 1.216 38.133
v 182.090 1.259 10.533
f 2577 2578 2579 2580
v 137.582 1.206 37.638
v 149.322 1.180 55.318
v 152.238 1.203 53.382
v 140.498 1.232 35.702
f 2581 2582 2583 2584
v 179.656 1.256 10.013
v 191.096 1.309 27.893
v 194.044 1.308 26.007
v 182.604 1.246 8.127
f 2585 2586 2587 2588
v 204.487 1.250 19.166
v 209.007 1.299 25.896
v 211.913 1.315 23.944
v 207.393 1.232 17.214
f 2589 2590 2591 2592
v 209.008 1.299 25.896
v 214.458 1.330 34.006
v 217.362 1.288 32.054
v 211.912 1.315 23.944
f 2593 2594 2595 2596
v 214.457 1.330 34.005
v 222.397 1.282 45.835
v 225.303 1.296 43.885
v 217.363 1.288 32.055
f 2597 2598 2599 2600
v 222.397 1.282 45.835
v 226.647 1.429 52.165
v 229.553 1.446 50.215
v 225.303 1.296 43.885
f 2601 2602 2603 2604
v 216.872 1.315 34.492
v 243.632 1.302 16.882
v 241.708 1.270 13.958
v 214.948 1.302 31.568
f 2605 2606 2607 2608
v 244.143 1.263 14.475
v 234.523 1.265 -0.525
v 231.577 1.243 1.365
v 241.197 1.267 16.365
f 2609 2610 2611 2612
v 242.444 1.608 62.962
v 241.024 1.642 71.462
v 244.476 1.684 72.038
v 245.896 1.644 63.538
f 2613 2614 2615 2616
v 241.118 1.646 72.383
v 245.268 1.747 83.083
v 248.532 1.737 81.817
v 244.382 1.681 71.117
f 2617 2618 2619 2620
v -184.293 1.598 30.294
v -181.013 1.550 34.974
v -178.147 1.569 32.966
v -181.427 1.602 28.286
f 2621 2622 2623 2624
v -181.013 1.550 34.974
v -150.453 1.783 78.614
v -147.587 1.776 76.606
v -178.147 1.569 32.966
f 2625 2626 2627 2628
v -254.324 1.530 54.619
v -248.904 1.458 51.029
v -250.836 1.473 48.111
v -256.256 1.533 51.701
f 2629 2630 2631 2632
v -248.902 1.458 51.028
v -188.002 1.727 10.618
v -189.938 1.772 7.702
v -250.838 1.473 48.112
f 2633 2634 2635 2636
v -190.399 1.741 10.170
v -182.699 1.455 21.060
v -179.841 1.461 19.040
v -187.541 1.799 8.150
f 2637 2638 2639 2640
v -182.712 1.455 21.042
v -178.892 1.604 26.592
v -176.008 1.606 24.608
v -179.828 1.461 19.058
f 2641 2642 2643 2644
v -255.073 1.820 15.652
v -226.143 1.752 -2.416
v -227.997 1.774 -5.384
v -256.927 1.747 12.683
f 2645 2646 2647 2648
v -226.693 1.750 -2.191
v -221.393 1.788 -3.361
v -222.147 1.951 -6.779
v -227.447 1.769 -5.609
f 2649 2650 2651 2652
v -220.733 1.790 -3.660
v -216.353 1.810 -6.880
v -218.427 1.778 -9.700
v -222.807 1.972 -6.480
f 2653 2654 2655 2656
v -215.648 1.796 -8.127
v -215.218 1.788 -12.717
v -218.702 1.774 -13.043
v -219.132 1.791 -8.453
f 2657 2658 2659 2660
v -215.828 1.801 -14.215
v -218.398 1.794 -16.395
v -220.662 1.786 -13.725
v -218.092 1.779 -11.545
f 2661 2662 2663 2664
v -220.139 1.779 -16.701
v -225.179 1.751 -14.831
v -223.961 1.925 -11.549
v -218.921 1.774 -13.419
f 2665 2666 2667 2668
v -226.086 1.747 -14.064
v -228.416 1.756 -10.024
v -225.384 1.946 -8.276
v -223.054 1.905 -12.316
f 2669 2670 2671 2672
v -228.649 1.769 -9.207
v -228.819 1.771 -3.957
v -225.321 1.765 -3.843
v -225.151 1.960 -9.093
f 2673 2674 2675 2676
v -248.686 1.795 -71.140
v -231.986 1.981 -46.070
v -229.074 2.015 -48.010
v -245.774 1.797 -73.080
f 2677 2678 2679 2680
v -231.489 1.974 -48.504
v -239.669 2.019 -43.144
v -237.751 2.024 -40.216
v -229.571 1.982 -45.576
f 2681 2682 2683 2684
v -252.487 1.715 -89.759
v -254.557 1.666 -92.779
v -257.443 1.666 -90.801
v -255.373 1.710 -87.781
f 2685 2686 2687 2688
v -245.609 1.497 67.344
v -251.539 1.458 71.854
v -247.301 1.350 77.426
v -241.371 1.472 72.916
f 2689 2690 2691 2692
v -139.333 2.082 -165.893
v -136.073 2.067 -160.433
v -133.067 2.134 -162.227
v -136.327 2.099 -167.687
f 2693 2694 2695 2696
v -136.072 2.067 -160.433
v -109.292 2.138 -115.593
v -106.288 2.134 -117.387
v -133.068 2.134 -162.227
f 2697 2698 2699 2700
v -108.532 2.125 -114.905
v -103.002 2.075 -112.315
v -101.518 2.084 -115.485
v -107.048 2.161 -118.075
f 2701 2702 2703 2704
v -103.771 2.079 -113.017
v -94.971 2.053 -97.957
v -91.949 2.007 -99.723
v -100.749 2.075 -114.783
f 2705 2706 2707 2708
v -47.758 1.456 136.022
v -72.398 1.429 152.372
v -70.462 1.395 155.288
v -45.822 1.439 138.938
f 2709 2710 2711 2712
v 232.143 1.444 48.407
v 235.883 1.335 54.577
v 238.877 1.333 52.763
v 235.137 1.410 46.593
f 2713 2714 2715 2716
v 235.952 1.340 54.682
v 242.742 1.614 64.262
v 245.598 1.625 62.238
v 238.808 1.328 52.658
f 2717 2718 2719 2720
v -107.984 2.199 -186.891
v -104.524 2.165 -181.611
v -101.596 2.185 -183.529
v -105.056 2.216 -188.809
f 2721 2722 2723 2724
v -104.524 2.165 -181.612
v -82.024 2.154 -147.222
v -79.096 2.203 -149.138
v -101.596 2.185 -183.528
f 2725 2726 2727 2728
v -27.754 1.752 -76.325
v -24.624 1.663 -71.065
v -21.616 1.658 -72.855
v -24.746 1.742 -78.115
f 2729 2730 2731 2732
v -24.692 1.661 -71.191
v -16.712 1.758 -54.881
v -13.568 1.771 -56.419
v -21.548 1.659 -72.729
f 2733 2734 2735 2736
v -16.764 1.758 -54.998
v -13.834 1.774 -47.698
v -10.586 1.843 -49.002
v -13.516 1.771 -56.302
f 2737 2738 2739 2740
v -13.204 1.787 -49.790
v -39.964 1.575 -31.320
v -37.976 1.589 -28.440
v -11.216 1.807 -46.910
f 2741 2742 2743 2744
v -39.850 1.588 -31.392
v -46.190 1.673 -27.702
v -44.430 1.664 -24.678
v -38.090 1.585 -28.368
f 2745 2746 2747 2748
v -142.142 2.192 -258.264
v -257.561 2.279 -178.656
v -254.439 2.362 -174.129
v -139.019 2.166 -253.736
f 2749 2750 2751 2752
v 245.164 1.742 82.668
v 246.814 2.203 95.788
v 250.286 2.191 95.352
v 248.636 1.741 82.232
f 2753 2754 2755 2756
v 248.218 2.323 97.288
v 255.668 2.481 98.728
v 256.332 2.338 95.292
v 248.882 2.088 93.852
f 2757 2758 2759 2760
usemtl asphalt
