# Baked ultra-low Key West silhouette; generated by bake_key_west_far_city.py
mtllib far_city.mtl
usemtl massing
v -45.759 1.489 207.623
v -45.280 1.489 113.185
v -19.241 1.489 113.317
v -19.720 1.489 207.755
v -45.759 7.789 207.623
v -45.280 7.789 113.185
v -19.241 7.789 113.317
v -19.720 7.789 207.755
f 8 7 6 5
f 1 2 6 5
f 2 3 7 6
f 3 4 8 7
f 4 1 5 8
v 122.384 1.277 223.844
v 128.959 1.277 176.680
v 158.196 1.277 180.756
v 151.621 1.277 227.920
v 122.384 7.577 223.844
v 128.959 7.577 176.680
v 158.196 7.577 180.756
v 151.621 7.577 227.920
f 16 15 14 13
f 9 10 14 13
f 10 11 15 14
f 11 12 16 15
f 12 9 13 16
v 148.493 1.140 249.788
v 174.787 1.140 240.980
v 178.207 1.140 251.192
v 151.913 1.140 260.000
v 148.493 5.040 249.788
v 174.787 5.040 240.980
v 178.207 5.040 251.192
v 151.913 5.040 260.000
f 24 23 22 21
f 17 18 22 21
f 18 19 23 22
f 19 20 24 23
f 20 17 21 24
v 29.321 1.922 231.359
v 32.841 1.922 214.983
v 39.899 1.922 216.501
v 36.379 1.922 232.877
v 29.321 5.822 231.359
v 32.841 5.822 214.983
v 39.899 5.822 216.501
v 36.379 5.822 232.877
f 32 31 30 29
f 25 26 30 29
f 26 27 31 30
f 27 28 32 31
f 28 25 29 32
v 35.858 1.877 196.112
v 57.687 1.877 202.625
v 54.762 1.877 212.428
v 32.933 1.877 205.915
v 35.858 5.777 196.112
v 57.687 5.777 202.625
v 54.762 5.777 212.428
v 32.933 5.777 205.915
f 40 39 38 37
f 33 34 38 37
f 34 35 39 38
f 35 36 40 39
f 36 33 37 40
v 29.732 1.560 164.795
v 56.633 1.560 173.868
v 50.948 1.560 190.725
v 24.047 1.560 181.652
v 29.732 5.460 164.795
v 56.633 5.460 173.868
v 50.948 5.460 190.725
v 24.047 5.460 181.652
f 48 47 46 45
f 41 42 46 45
f 42 43 47 46
f 43 44 48 47
f 44 41 45 48
v 74.991 1.323 178.164
v 80.994 1.323 151.634
v 89.489 1.323 153.556
v 83.486 1.323 180.086
v 74.991 5.223 178.164
v 80.994 5.223 151.634
v 89.489 5.223 153.556
v 83.486 5.223 180.086
f 56 55 54 53
f 49 50 54 53
f 50 51 55 54
f 51 52 56 55
f 52 49 53 56
v 118.566 1.355 137.406
v 135.324 1.355 140.908
v 133.154 1.355 151.294
v 116.396 1.355 147.792
v 118.566 5.255 137.406
v 135.324 5.255 140.908
v 133.154 5.255 151.294
v 116.396 5.255 147.792
f 64 63 62 61
f 57 58 62 61
f 58 59 63 62
f 59 60 64 63
f 60 57 61 64
v 134.889 0.917 75.364
v 142.278 0.917 63.756
v 152.991 0.917 70.576
v 145.602 0.917 82.184
v 134.889 4.817 75.364
v 142.278 4.817 63.756
v 152.991 4.817 70.576
v 145.602 4.817 82.184
f 72 71 70 69
f 65 66 70 69
f 66 67 71 70
f 67 68 72 71
f 68 65 69 72
usemtl road
v 90.612 1.274 143.889
v 98.282 1.425 179.489
v 103.658 1.416 178.331
v 95.988 1.380 142.731
f 73 74 75 76
v 98.283 1.425 179.494
v 100.253 1.334 188.554
v 105.627 1.348 187.386
v 103.657 1.416 178.326
f 77 78 79 80
v 100.242 1.335 188.504
v 107.882 1.344 227.094
v 113.278 1.379 226.026
v 105.638 1.348 187.436
f 81 82 83 84
v 107.883 1.344 227.096
v 109.873 1.401 237.116
v 115.267 1.378 236.044
v 113.277 1.379 226.024
f 85 86 87 88
v 109.873 1.401 237.117
v 111.423 1.413 244.907
v 116.817 1.396 243.833
v 115.267 1.378 236.043
f 89 90 91 92
v 112.008 1.407 246.131
v 117.738 1.373 253.001
v 121.962 1.394 249.479
v 116.232 1.391 242.609
f 93 94 95 96
v 118.215 1.360 253.451
v 124.652 1.249 258.211
v 127.922 1.400 253.789
v 121.485 1.394 249.029
f 97 98 99 100
v 109.233 1.345 225.443
v 84.815 1.429 254.883
v 87.509 1.329 257.117
v 111.927 1.362 227.677
f 101 102 103 104
v 40.601 1.477 254.872
v 13.168 1.445 222.322
v 10.492 1.344 224.578
v 37.925 1.461 257.128
f 105 106 107 108
v 13.283 1.446 222.475
v 9.373 1.457 216.645
v 6.467 1.397 218.595
v 10.377 1.344 224.425
f 109 110 111 112
v 9.654 1.452 217.386
v 8.614 1.495 209.686
v 5.146 1.534 210.154
v 6.186 1.407 217.854
f 113 114 115 116
v 8.269 1.495 210.984
v 10.459 1.474 208.124
v 7.681 1.509 205.996
v 5.491 1.544 208.856
f 117 118 119 120
v 10.462 1.474 208.121
v 12.382 1.456 205.601
v 9.598 1.465 203.479
v 7.678 1.509 205.999
f 121 122 123 124
v 11.417 1.463 206.237
v 21.277 1.527 203.757
v 20.423 1.500 200.363
v 10.563 1.444 202.843
f 125 126 127 128
v 21.277 1.527 203.757
v 70.347 1.565 191.397
v 69.493 1.421 188.003
v 20.423 1.500 200.363
f 129 130 131 132
v 70.348 1.565 191.397
v 91.098 1.346 186.167
v 90.242 1.400 182.773
v 69.492 1.421 188.003
f 133 134 135 136
v 90.581 1.349 186.218
v 96.831 1.340 186.538
v 97.009 1.386 183.042
v 90.759 1.399 182.722
f 137 138 139 140
v 96.103 1.340 186.337
v 102.123 1.325 189.517
v 103.757 1.359 186.423
v 97.737 1.385 183.243
f 141 142 143 144
v 101.329 1.418 180.623
v 145.359 1.700 171.393
v 144.641 1.560 167.967
v 100.611 1.420 177.197
f 145 146 147 148
v 145.347 1.700 171.395
v 147.327 1.636 170.995
v 146.633 1.537 167.565
v 144.653 1.560 167.965
f 149 150 151 152
v 147.044 1.645 171.029
v 153.284 1.483 170.799
v 153.156 1.429 167.301
v 146.916 1.536 167.531
f 153 154 155 156
v 151.865 1.505 170.158
v 154.965 1.505 173.948
v 157.675 1.393 171.732
v 154.575 1.416 167.942
f 157 158 159 160
v 154.603 1.505 173.177
v 160.283 1.533 202.107
v 163.717 1.427 201.433
v 158.037 1.395 172.503
f 161 162 163 164
v 146.705 1.594 169.286
v 138.425 1.473 133.446
v 135.015 1.681 134.234
v 143.295 1.660 170.074
f 165 166 167 168
v 137.916 1.485 132.562
v 133.996 1.562 128.892
v 131.604 1.685 131.448
v 135.524 1.671 135.118
f 169 170 171 172
v 132.516 1.589 128.443
v 121.386 1.662 130.273
v 121.954 1.675 133.727
v 133.084 1.674 131.897
f 173 174 175 176
v 121.350 1.663 130.280
v 108.340 1.568 132.700
v 108.980 1.562 136.140
v 121.990 1.675 133.720
f 177 178 179 180
v 108.867 1.573 132.682
v 105.337 1.539 132.262
v 104.923 1.518 135.738
v 108.453 1.552 136.158
f 181 182 183 184
v 105.954 1.545 132.456
v 99.974 1.480 129.266
v 98.326 1.490 132.354
v 104.306 1.518 135.544
f 185 186 187 188
v 99.956 1.480 129.256
v 92.396 1.483 125.336
v 90.784 1.461 128.444
v 98.344 1.490 132.364
f 189 190 191 192
v 92.552 1.484 125.428
v 89.132 1.497 123.178
v 87.208 1.445 126.102
v 90.628 1.460 128.352
f 193 194 195 196
v 89.294 1.495 123.299
v 84.424 1.457 119.219
v 82.176 1.412 121.901
v 87.046 1.445 125.981
f 197 198 199 200
v 84.210 1.457 119.065
v 35.370 1.466 89.345
v 33.550 1.358 92.335
v 82.390 1.413 122.055
f 201 202 203 204
v 34.869 1.462 89.138
v 29.709 1.490 87.898
v 28.891 1.404 91.302
v 34.051 1.363 92.542
f 205 206 207 208
v 28.938 1.500 87.888
v 21.468 1.500 89.468
v 22.192 1.425 92.892
v 29.662 1.404 91.312
f 209 210 211 212
v 20.769 1.504 89.788
v 15.309 1.502 93.948
v 17.431 1.475 96.732
v 22.891 1.407 92.572
f 213 214 215 216
v 14.717 1.495 94.766
v 11.677 1.461 103.516
v 14.983 1.415 104.664
v 18.023 1.472 95.914
f 217 218 219 220
v 11.708 1.461 103.433
v -1.652 1.319 136.443
v 1.592 1.358 137.757
v 14.952 1.414 104.747
f 221 222 223 224
v -1.705 1.320 136.594
v -5.165 1.426 148.054
v -1.815 1.445 149.066
v 1.645 1.357 137.606
f 225 226 227 228
v -5.238 1.431 148.648
v -4.628 1.545 160.798
v -1.132 1.492 160.622
v -1.742 1.439 148.472
f 229 230 231 232
v -4.625 1.545 160.838
v -3.115 1.577 181.378
v 0.375 1.533 181.122
v -1.135 1.492 160.582
f 233 234 235 236
v -3.093 1.577 181.554
v -0.473 1.604 196.414
v 2.973 1.563 195.806
v 0.353 1.533 180.946
f 237 238 239 240
v -0.267 1.600 196.983
v 3.633 1.591 203.763
v 6.667 1.506 202.017
v 2.767 1.564 195.237
f 241 242 243 244
v 3.875 1.587 204.089
v 7.795 1.509 208.259
v 10.345 1.473 205.861
v 6.425 1.509 201.691
f 245 246 247 248
v 22.544 1.518 201.621
v 15.564 1.455 174.691
v 12.176 1.369 175.569
v 19.156 1.483 202.499
f 249 250 251 252
v 15.620 1.458 175.141
v 15.650 1.434 170.541
v 12.150 1.368 170.519
v 12.120 1.370 175.119
f 253 254 255 256
v 15.556 1.433 171.096
v 16.936 1.432 167.056
v 13.624 1.355 165.924
v 12.244 1.369 169.964
f 257 258 259 260
v 16.263 1.430 167.938
v 20.213 1.442 165.258
v 18.247 1.377 162.362
v 14.297 1.361 165.042
f 261 262 263 264
v 19.669 1.440 165.504
v 52.309 1.435 157.054
v 51.431 1.340 153.666
v 18.791 1.380 162.116
f 265 266 267 268
v 51.398 1.442 157.045
v 55.328 1.416 158.145
v 56.272 1.326 154.775
v 52.342 1.333 153.675
f 269 270 271 272
v 54.795 1.418 157.892
v 58.855 1.431 160.742
v 60.865 1.356 157.878
v 56.805 1.325 155.028
f 273 274 275 276
v 58.407 1.428 160.286
v 60.967 1.447 164.096
v 63.873 1.379 162.144
v 61.313 1.359 158.334
f 277 278 279 280
v 60.736 1.446 163.595
v 68.236 1.470 190.175
v 71.604 1.436 189.225
v 64.104 1.380 162.645
f 281 282 283 284
v 89.849 1.465 127.071
v 91.559 1.269 143.491
v 95.041 1.363 143.129
v 93.331 1.494 126.709
f 285 286 287 288
v 133.438 1.339 76.024
v 137.748 1.273 83.614
v 140.792 1.317 81.886
v 136.482 1.322 74.296
f 289 290 291 292
v 137.520 1.270 82.785
v 137.620 1.269 87.775
v 141.120 1.295 87.705
v 141.020 1.314 82.715
f 293 294 295 296
v 137.915 1.270 86.767
v 134.765 1.252 91.477
v 137.675 1.260 93.423
v 140.825 1.283 88.713
f 297 298 299 300
v 135.199 1.258 91.028
v 128.109 1.222 96.118
v 130.151 1.252 98.962
v 137.241 1.256 93.872
f 301 302 303 304
v 128.407 1.220 95.947
v 118.737 1.266 100.337
v 120.183 1.247 103.523
v 129.853 1.252 99.133
f 305 306 307 308
v 118.253 1.270 100.663
v 114.023 1.264 104.693
v 116.437 1.252 107.227
v 120.667 1.248 103.197
f 309 310 311 312
v 113.560 1.266 105.438
v 112.040 1.279 110.298
v 115.380 1.263 111.342
v 116.900 1.250 106.482
f 313 314 315 316
v 112.075 1.279 110.197
v 109.045 1.302 118.147
v 112.315 1.329 119.393
v 115.345 1.264 111.443
f 317 318 319 320
v 109.068 1.302 118.089
v 106.168 1.340 124.959
v 109.392 1.413 126.321
v 112.292 1.330 119.451
f 321 322 323 324
v 106.814 1.335 124.181
v 101.364 1.432 127.791
v 103.296 1.485 130.709
v 108.746 1.427 127.099
f 325 326 327 328
v 101.559 1.426 127.679
v 98.379 1.505 129.239
v 99.921 1.498 132.381
v 103.101 1.489 130.821
f 329 330 331 332
v 7.841 1.452 215.872
v -42.679 2.224 218.152
v -42.521 2.143 221.648
v 7.999 1.402 219.368
f 333 334 335 336
v -41.810 2.272 218.338
v -48.040 1.923 215.188
v -49.620 1.879 218.312
v -43.390 2.122 221.462
f 337 338 339 340
v -47.194 1.977 216.130
v -49.604 1.773 209.770
v -52.876 1.654 211.010
v -50.466 1.831 217.370
f 341 342 343 344
v -49.490 1.780 210.386
v -49.610 1.741 160.836
v -53.110 1.599 160.844
v -52.990 1.641 210.394
f 345 346 347 348
usemtl asphalt
