# Baked ultra-low Key West silhouette; generated by bake_key_west_far_city.py
mtllib far_city.mtl
usemtl massing
v -187.127 2.017 155.048
v -138.371 2.017 148.755
v -136.613 2.017 162.372
v -185.369 2.017 168.665
v -187.127 8.317 155.048
v -138.371 8.317 148.755
v -136.613 8.317 162.372
v -185.369 8.317 168.665
f 8 7 6 5
f 1 2 6 5
f 2 3 7 6
f 3 4 8 7
f 4 1 5 8
v -258.987 1.780 143.770
v -209.917 1.780 136.959
v -207.173 1.780 156.730
v -256.243 1.780 163.541
v -258.987 5.280 143.770
v -209.917 5.280 136.959
v -207.173 5.280 156.730
v -256.243 5.280 163.541
f 16 15 14 13
f 9 10 14 13
f 10 11 15 14
f 11 12 16 15
f 12 9 13 16
v -217.945 1.671 -17.430
v -187.019 1.671 -20.899
v -185.035 1.671 -3.210
v -215.961 1.671 0.259
v -217.945 5.171 -17.430
v -187.019 5.171 -20.899
v -185.035 5.171 -3.210
v -215.961 5.171 0.259
f 24 23 22 21
f 17 18 22 21
f 18 19 23 22
f 19 20 24 23
f 20 17 21 24
v -109.710 1.774 89.541
v -63.626 1.774 98.925
v -71.030 1.774 135.279
v -117.114 1.774 125.895
v -109.710 8.074 89.541
v -63.626 8.074 98.925
v -71.030 8.074 135.279
v -117.114 8.074 125.895
f 32 31 30 29
f 25 26 30 29
f 26 27 31 30
f 27 28 32 31
f 28 25 29 32
v 172.017 3.882 108.269
v 198.849 3.882 109.239
v 197.883 3.882 135.951
v 171.051 3.882 134.981
v 172.017 9.682 108.269
v 198.849 9.682 109.239
v 197.883 9.682 135.951
v 171.051 9.682 134.981
f 40 39 38 37
f 33 34 38 37
f 34 35 39 38
f 35 36 40 39
f 36 33 37 40
v 115.838 1.886 99.345
v 143.433 1.886 98.430
v 144.342 1.886 125.835
v 116.747 1.886 126.750
v 115.838 7.686 99.345
v 143.433 7.686 98.430
v 144.342 7.686 125.835
v 116.747 7.686 126.750
f 48 47 46 45
f 41 42 46 45
f 42 43 47 46
f 43 44 48 47
f 44 41 45 48
v 89.502 1.845 93.120
v 93.477 1.845 112.211
v 74.318 1.845 116.200
v 70.343 1.845 97.109
v 89.502 5.745 93.120
v 93.477 5.745 112.211
v 74.318 5.745 116.200
v 70.343 5.745 97.109
f 56 55 54 53
f 49 50 54 53
f 50 51 55 54
f 51 52 56 55
f 52 49 53 56
v 14.963 2.017 119.138
v 16.709 2.017 136.169
v 9.357 2.017 136.922
v 7.611 2.017 119.891
v 14.963 5.917 119.138
v 16.709 5.917 136.169
v 9.357 5.917 136.922
v 7.611 5.917 119.891
f 64 63 62 61
f 57 58 62 61
f 58 59 63 62
f 59 60 64 63
f 60 57 61 64
v -13.897 1.415 113.707
v -12.050 1.415 130.183
v -22.663 1.415 131.373
v -24.510 1.415 114.897
v -13.897 5.315 113.707
v -12.050 5.315 130.183
v -22.663 5.315 131.373
v -24.510 5.315 114.897
f 72 71 70 69
f 65 66 70 69
f 66 67 71 70
f 67 68 72 71
f 68 65 69 72
v -221.432 1.245 69.303
v -212.281 1.245 68.096
v -211.688 1.245 72.597
v -220.839 1.245 73.804
v -221.432 5.145 69.303
v -212.281 5.145 68.096
v -211.688 5.145 72.597
v -220.839 5.145 73.804
f 80 79 78 77
f 73 74 78 77
f 74 75 79 78
f 75 76 80 79
f 76 73 77 80
v -232.104 1.366 79.860
v -203.927 1.366 76.557
v -202.616 1.366 87.740
v -230.793 1.366 91.043
v -232.104 5.266 79.860
v -203.927 5.266 76.557
v -202.616 5.266 87.740
v -230.793 5.266 91.043
f 88 87 86 85
f 81 82 86 85
f 82 83 87 86
f 83 84 88 87
f 84 81 85 88
v -132.028 2.048 5.418
v -126.704 2.048 -7.238
v -114.012 2.048 -1.898
v -119.336 2.048 10.758
v -132.028 5.948 5.418
v -126.704 5.948 -7.238
v -114.012 5.948 -1.898
v -119.336 5.948 10.758
f 96 95 94 93
f 89 90 94 93
f 90 91 95 94
f 91 92 96 95
f 92 89 93 96
v -57.741 1.524 157.866
v -56.737 1.524 167.172
v -61.579 1.524 167.694
v -62.583 1.524 158.388
v -57.741 5.424 157.866
v -56.737 5.424 167.172
v -61.579 5.424 167.694
v -62.583 5.424 158.388
f 104 103 102 101
f 97 98 102 101
f 98 99 103 102
f 99 100 104 103
f 100 97 101 104
v -129.853 1.590 79.266
v -128.834 1.590 86.575
v -133.707 1.590 87.254
v -134.726 1.590 79.945
v -129.853 5.490 79.266
v -128.834 5.490 86.575
v -133.707 5.490 87.254
v -134.726 5.490 79.945
f 112 111 110 109
f 105 106 110 109
f 106 107 111 110
f 107 108 112 111
f 108 105 109 112
v -105.885 1.814 157.062
v -103.577 1.814 173.218
v -113.655 1.814 174.658
v -115.963 1.814 158.502
v -105.885 5.714 157.062
v -103.577 5.714 173.218
v -113.655 5.714 174.658
v -115.963 5.714 158.502
f 120 119 118 117
f 113 114 118 117
f 114 115 119 118
f 115 116 120 119
f 116 113 117 120
v 115.934 2.625 -134.465
v 133.633 2.625 -138.574
v 136.526 2.625 -126.115
v 118.827 2.625 -122.006
v 115.934 6.525 -134.465
v 133.633 6.525 -138.574
v 136.526 6.525 -126.115
v 118.827 6.525 -122.006
f 128 127 126 125
f 121 122 126 125
f 122 123 127 126
f 123 124 128 127
f 124 121 125 128
v 84.405 1.371 -140.916
v 112.531 1.371 -149.198
v 118.195 1.371 -129.964
v 90.069 1.371 -121.682
v 84.405 5.271 -140.916
v 112.531 5.271 -149.198
v 118.195 5.271 -129.964
v 90.069 5.271 -121.682
f 136 135 134 133
f 129 130 134 133
f 130 131 135 134
f 131 132 136 135
f 132 129 133 136
v 59.369 0.814 -152.350
v 94.095 0.814 -175.292
v 107.231 0.814 -155.410
v 72.505 0.814 -132.468
v 59.369 6.614 -152.350
v 94.095 6.614 -175.292
v 107.231 6.614 -155.410
v 72.505 6.614 -132.468
f 144 143 142 141
f 137 138 142 141
f 138 139 143 142
f 139 140 144 143
f 140 137 141 144
v 23.459 3.218 -247.120
v 39.189 3.218 -246.550
v 38.621 3.218 -230.880
v 22.891 3.218 -231.450
v 23.459 7.118 -247.120
v 39.189 7.118 -246.550
v 38.621 7.118 -230.880
v 22.891 7.118 -231.450
f 152 151 150 149
f 145 146 150 149
f 146 147 151 150
f 147 148 152 151
f 148 145 149 152
v 42.957 1.718 -240.417
v 58.958 1.718 -241.203
v 59.743 1.718 -225.223
v 43.742 1.718 -224.437
v 42.957 5.618 -240.417
v 58.958 5.618 -241.203
v 59.743 5.618 -225.223
v 43.742 5.618 -224.437
f 160 159 158 157
f 153 154 158 157
f 154 155 159 158
f 155 156 160 159
f 156 153 157 160
v 39.200 1.588 -223.842
v 42.725 1.588 -206.630
v 30.460 1.588 -204.118
v 26.935 1.588 -221.330
v 39.200 5.488 -223.842
v 42.725 5.488 -206.630
v 30.460 5.488 -204.118
v 26.935 5.488 -221.330
f 168 167 166 165
f 161 162 166 165
f 162 163 167 166
f 163 164 168 167
f 164 161 165 168
v 186.587 1.209 -237.728
v 194.136 1.209 -237.822
v 194.173 1.209 -234.912
v 186.624 1.209 -234.818
v 186.587 5.109 -237.728
v 194.136 5.109 -237.822
v 194.173 5.109 -234.912
v 186.624 5.109 -234.818
f 176 175 174 173
f 169 170 174 173
f 170 171 175 174
f 171 172 176 175
f 172 169 173 176
v 186.504 1.188 -233.743
v 196.153 1.188 -233.566
v 196.096 1.188 -230.437
v 186.447 1.188 -230.614
v 186.504 5.088 -233.743
v 196.153 5.088 -233.566
v 196.096 5.088 -230.437
v 186.447 5.088 -230.614
f 184 183 182 181
f 177 178 182 181
f 178 179 183 182
f 179 180 184 183
f 180 177 181 184
v 187.159 1.178 -221.125
v 194.653 1.178 -220.209
v 194.221 1.178 -216.675
v 186.727 1.178 -217.591
v 187.159 5.078 -221.125
v 194.653 5.078 -220.209
v 194.221 5.078 -216.675
v 186.727 5.078 -217.591
f 192 191 190 189
f 185 186 190 189
f 186 187 191 190
f 187 188 192 191
f 188 185 189 192
v 187.289 1.171 -216.002
v 196.266 1.171 -215.515
v 196.131 1.171 -213.018
v 187.154 1.171 -213.505
v 187.289 5.071 -216.002
v 196.266 5.071 -215.515
v 196.131 5.071 -213.018
v 187.154 5.071 -213.505
f 200 199 198 197
f 193 194 198 197
f 194 195 199 198
f 195 196 200 199
f 196 193 197 200
v 186.309 1.166 -211.917
v 197.238 1.166 -211.773
v 197.191 1.166 -208.263
v 186.262 1.166 -208.407
v 186.309 5.066 -211.917
v 197.238 5.066 -211.773
v 197.191 5.066 -208.263
v 186.262 5.066 -208.407
f 208 207 206 205
f 201 202 206 205
f 202 203 207 206
f 203 204 208 207
f 204 201 205 208
v 185.667 1.160 -202.823
v 195.035 1.160 -202.190
v 194.833 1.160 -199.197
v 185.465 1.160 -199.830
v 185.667 5.060 -202.823
v 195.035 5.060 -202.190
v 194.833 5.060 -199.197
v 185.465 5.060 -199.830
f 216 215 214 213
f 209 210 214 213
f 210 211 215 214
f 211 212 216 215
f 212 209 213 216
v 186.547 1.187 -193.128
v 194.210 1.187 -194.143
v 194.653 1.187 -190.792
v 186.990 1.187 -189.777
v 186.547 5.087 -193.128
v 194.210 5.087 -194.143
v 194.653 5.087 -190.792
v 186.990 5.087 -189.777
f 224 223 222 221
f 217 218 222 221
f 218 219 223 222
f 219 220 224 223
f 220 217 221 224
v 186.729 1.224 -188.291
v 194.153 1.224 -189.357
v 194.591 1.224 -186.309
v 187.167 1.224 -185.243
v 186.729 5.124 -188.291
v 194.153 5.124 -189.357
v 194.591 5.124 -186.309
v 187.167 5.124 -185.243
f 232 231 230 229
f 225 226 230 229
f 226 227 231 230
f 227 228 232 231
f 228 225 229 232
v 186.354 1.147 -184.808
v 195.712 1.147 -184.338
v 195.526 1.147 -180.632
v 186.168 1.147 -181.102
v 186.354 5.047 -184.808
v 195.712 5.047 -184.338
v 195.526 5.047 -180.632
v 186.168 5.047 -181.102
f 240 239 238 237
f 233 234 238 237
f 234 235 239 238
f 235 236 240 239
f 236 233 237 240
v 187.783 1.087 -179.169
v 193.961 1.087 -179.291
v 194.017 1.087 -176.451
v 187.839 1.087 -176.329
v 187.783 4.987 -179.169
v 193.961 4.987 -179.291
v 194.017 4.987 -176.451
v 187.839 4.987 -176.329
f 248 247 246 245
f 241 242 246 245
f 242 243 247 246
f 243 244 248 247
f 244 241 245 248
v 187.860 1.055 -174.111
v 193.030 1.055 -174.129
v 193.040 1.055 -171.229
v 187.870 1.055 -171.211
v 187.860 4.955 -174.111
v 193.030 4.955 -174.129
v 193.040 4.955 -171.229
v 187.870 4.955 -171.211
f 256 255 254 253
f 249 250 254 253
f 250 251 255 254
f 251 252 256 255
f 252 249 253 256
v 187.108 1.031 -169.783
v 195.906 1.031 -169.947
v 195.972 1.031 -166.397
v 187.174 1.031 -166.233
v 187.108 4.931 -169.783
v 195.906 4.931 -169.947
v 195.972 4.931 -166.397
v 187.174 4.931 -166.233
f 264 263 262 261
f 257 258 262 261
f 258 259 263 262
f 259 260 264 263
f 260 257 261 264
v 180.984 1.071 -165.412
v 189.847 1.071 -165.765
v 189.976 1.071 -162.528
v 181.113 1.071 -162.175
v 180.984 4.971 -165.412
v 189.847 4.971 -165.765
v 189.976 4.971 -162.528
v 181.113 4.971 -162.175
f 272 271 270 269
f 265 266 270 269
f 266 267 271 270
f 267 268 272 271
f 268 265 269 272
v 176.993 1.078 -161.120
v 185.720 1.078 -161.986
v 186.007 1.078 -159.100
v 177.280 1.078 -158.234
v 176.993 4.978 -161.120
v 185.720 4.978 -161.986
v 186.007 4.978 -159.100
v 177.280 4.978 -158.234
f 280 279 278 277
f 273 274 278 277
f 274 275 279 278
f 275 276 280 279
f 276 273 277 280
v 176.804 1.084 -156.156
v 189.376 1.084 -156.582
v 189.476 1.084 -153.624
v 176.904 1.084 -153.198
v 176.804 4.984 -156.156
v 189.376 4.984 -156.582
v 189.476 4.984 -153.624
v 176.904 4.984 -153.198
f 288 287 286 285
f 281 282 286 285
f 282 283 287 286
f 283 284 288 287
f 284 281 285 288
v 169.573 0.952 -143.426
v 172.641 0.952 -143.704
v 172.867 0.952 -141.214
v 169.799 0.952 -140.936
v 169.573 4.852 -143.426
v 172.641 4.852 -143.704
v 172.867 4.852 -141.214
v 169.799 4.852 -140.936
f 296 295 294 293
f 289 290 294 293
f 290 291 295 294
f 291 292 296 295
f 292 289 293 296
v 175.376 1.043 -142.155
v 178.564 1.043 -142.283
v 178.664 1.043 -139.785
v 175.476 1.043 -139.657
v 175.376 4.943 -142.155
v 178.564 4.943 -142.283
v 178.664 4.943 -139.785
v 175.476 4.943 -139.657
f 304 303 302 301
f 297 298 302 301
f 298 299 303 302
f 299 300 304 303
f 300 297 301 304
v 182.853 1.077 -142.222
v 186.723 1.077 -142.198
v 186.707 1.077 -139.698
v 182.837 1.077 -139.722
v 182.853 4.977 -142.222
v 186.723 4.977 -142.198
v 186.707 4.977 -139.698
v 182.837 4.977 -139.722
f 312 311 310 309
f 305 306 310 309
f 306 307 311 310
f 307 308 312 311
f 308 305 309 312
v 169.662 1.009 -138.764
v 178.491 1.009 -138.726
v 178.478 1.009 -135.696
v 169.649 1.009 -135.734
v 169.662 4.909 -138.764
v 178.491 4.909 -138.726
v 178.478 4.909 -135.696
v 169.649 4.909 -135.734
f 320 319 318 317
f 313 314 318 317
f 314 315 319 318
f 315 316 320 319
f 316 313 317 320
v -85.867 1.520 3.416
v -78.405 1.520 1.871
v -77.553 1.520 5.984
v -85.015 1.520 7.529
v -85.867 5.420 3.416
v -78.405 5.420 1.871
v -77.553 5.420 5.984
v -85.015 5.420 7.529
f 328 327 326 325
f 321 322 326 325
f 322 323 327 326
f 323 324 328 327
f 324 321 325 328
v -25.246 1.693 5.709
v -22.352 1.693 7.532
v -23.914 1.693 10.011
v -26.808 1.693 8.188
v -25.246 5.593 5.709
v -22.352 5.593 7.532
v -23.914 5.593 10.011
v -26.808 5.593 8.188
f 336 335 334 333
f 329 330 334 333
f 330 331 335 334
f 331 332 336 335
f 332 329 333 336
v 26.072 2.013 126.631
v 27.239 2.013 137.166
v 19.268 2.013 138.049
v 18.101 2.013 127.514
v 26.072 5.913 126.631
v 27.239 5.913 137.166
v 19.268 5.913 138.049
v 18.101 5.913 127.514
f 344 343 342 341
f 337 338 342 341
f 338 339 343 342
f 339 340 344 343
f 340 337 341 344
v -15.870 1.371 81.864
v -15.012 1.371 91.436
v -18.130 1.371 91.716
v -18.988 1.371 82.144
v -15.870 5.271 81.864
v -15.012 5.271 91.436
v -18.130 5.271 91.716
v -18.988 5.271 82.144
f 352 351 350 349
f 345 346 350 349
f 346 347 351 350
f 347 348 352 351
f 348 345 349 352
v -166.894 1.761 140.356
v -165.293 1.761 87.620
v -136.826 1.761 88.484
v -138.427 1.761 141.220
v -166.894 7.561 140.356
v -165.293 7.561 87.620
v -136.826 7.561 88.484
v -138.427 7.561 141.220
f 360 359 358 357
f 353 354 358 357
f 354 355 359 358
f 355 356 360 359
f 356 353 357 360
v 207.430 1.644 163.351
v 209.112 1.644 171.867
v 203.530 1.644 172.969
v 201.848 1.644 164.453
v 207.430 5.544 163.351
v 209.112 5.544 171.867
v 203.530 5.544 172.969
v 201.848 5.544 164.453
f 368 367 366 365
f 361 362 366 365
f 362 363 367 366
f 363 364 368 367
f 364 361 365 368
v 202.287 2.037 147.730
v 212.115 2.037 145.725
v 213.353 2.037 151.790
v 203.525 2.037 153.795
v 202.287 5.937 147.730
v 212.115 5.937 145.725
v 213.353 5.937 151.790
v 203.525 5.937 153.795
f 376 375 374 373
f 369 370 374 373
f 370 371 375 374
f 371 372 376 375
f 372 369 373 376
v -98.386 1.855 161.392
v -92.369 1.855 160.585
v -91.974 1.855 163.528
v -97.991 1.855 164.335
v -98.386 5.755 161.392
v -92.369 5.755 160.585
v -91.974 5.755 163.528
v -97.991 5.755 164.335
f 384 383 382 381
f 377 378 382 381
f 378 379 383 382
f 379 380 384 383
f 380 377 381 384
v -98.993 1.864 166.861
v -92.773 1.864 166.157
v -92.447 1.864 169.039
v -98.667 1.864 169.743
v -98.993 5.764 166.861
v -92.773 5.764 166.157
v -92.447 5.764 169.039
v -98.667 5.764 169.743
f 392 391 390 389
f 385 386 390 389
f 386 387 391 390
f 387 388 392 391
f 388 385 389 392
v -89.118 1.717 166.008
v -88.813 1.717 169.213
v -91.322 1.717 169.452
v -91.627 1.717 166.247
v -89.118 5.617 166.008
v -88.813 5.617 169.213
v -91.322 5.617 169.452
v -91.627 5.617 166.247
f 400 399 398 397
f 393 394 398 397
f 394 395 399 398
f 395 396 400 399
f 396 393 397 400
v -93.183 1.263 196.244
v -92.733 1.263 201.083
v -96.317 1.263 201.416
v -96.767 1.263 196.577
v -93.183 5.163 196.244
v -92.733 5.163 201.083
v -96.317 5.163 201.416
v -96.767 5.163 196.577
f 408 407 406 405
f 401 402 406 405
f 402 403 407 406
f 403 404 408 407
f 404 401 405 408
v -96.561 1.241 192.820
v -93.112 1.241 192.540
v -92.879 1.241 195.400
v -96.328 1.241 195.680
v -96.561 5.141 192.820
v -93.112 5.141 192.540
v -92.879 5.141 195.400
v -96.328 5.141 195.680
f 416 415 414 413
f 409 410 414 413
f 410 411 415 414
f 411 412 416 415
f 412 409 413 416
v 244.242 1.289 221.759
v 255.612 1.289 248.818
v 232.758 1.289 258.421
v 221.388 1.289 231.362
v 244.242 7.089 221.759
v 255.612 7.089 248.818
v 232.758 7.089 258.421
v 221.388 7.089 231.362
f 424 423 422 421
f 417 418 422 421
f 418 419 423 422
f 419 420 424 423
f 420 417 421 424
v -111.302 1.838 -0.017
v -110.353 1.838 5.085
v -114.718 1.838 5.897
v -115.667 1.838 0.795
v -111.302 5.738 -0.017
v -110.353 5.738 5.085
v -114.718 5.738 5.897
v -115.667 5.738 0.795
f 432 431 430 429
f 425 426 430 429
f 426 427 431 430
f 427 428 432 431
f 428 425 429 432
v -254.637 1.672 -28.614
v -253.549 1.672 -19.831
v -256.983 1.672 -19.406
v -258.071 1.672 -28.189
v -254.637 5.572 -28.614
v -253.549 5.572 -19.831
v -256.983 5.572 -19.406
v -258.071 5.572 -28.189
f 440 439 438 437
f 433 434 438 437
f 434 435 439 438
f 435 436 440 439
f 436 433 437 440
v -250.303 1.678 -27.948
v -249.223 1.678 -19.174
v -252.657 1.678 -18.752
v -253.737 1.678 -27.526
v -250.303 5.578 -27.948
v -249.223 5.578 -19.174
v -252.657 5.578 -18.752
v -253.737 5.578 -27.526
f 448 447 446 445
f 441 442 446 445
f 442 443 447 446
f 443 444 448 447
f 444 441 445 448
v -245.727 1.600 -27.264
v -244.639 1.600 -18.481
v -248.073 1.600 -18.056
v -249.161 1.600 -26.839
v -245.727 5.500 -27.264
v -244.639 5.500 -18.481
v -248.073 5.500 -18.056
v -249.161 5.500 -26.839
f 456 455 454 453
f 449 450 454 453
f 450 451 455 454
f 451 452 456 455
f 452 449 453 456
v -241.247 1.699 -26.734
v -240.159 1.699 -17.951
v -243.593 1.699 -17.526
v -244.681 1.699 -26.309
v -241.247 5.599 -26.734
v -240.159 5.599 -17.951
v -243.593 5.599 -17.526
v -244.681 5.599 -26.309
f 464 463 462 461
f 457 458 462 461
f 458 459 463 462
f 459 460 464 463
f 460 457 461 464
v -236.927 1.660 -26.094
v -235.839 1.660 -17.311
v -239.273 1.660 -16.886
v -240.361 1.660 -25.669
v -236.927 5.560 -26.094
v -235.839 5.560 -17.311
v -239.273 5.560 -16.886
v -240.361 5.560 -25.669
f 472 471 470 469
f 465 466 470 469
f 466 467 471 470
f 467 468 472 471
f 468 465 469 472
v -232.357 1.657 -25.404
v -231.269 1.657 -16.621
v -234.703 1.657 -16.196
v -235.791 1.657 -24.979
v -232.357 5.557 -25.404
v -231.269 5.557 -16.621
v -234.703 5.557 -16.196
v -235.791 5.557 -24.979
f 480 479 478 477
f 473 474 478 477
f 474 475 479 478
f 475 476 480 479
f 476 473 477 480
v -155.965 1.412 -8.570
v -154.758 1.412 -2.489
v -157.975 1.412 -1.850
v -159.182 1.412 -7.931
v -155.965 5.312 -8.570
v -154.758 5.312 -2.489
v -157.975 5.312 -1.850
v -159.182 5.312 -7.931
f 488 487 486 485
f 481 482 486 485
f 482 483 487 486
f 483 484 488 487
f 484 481 485 488
v -150.587 1.404 -9.410
v -149.386 1.404 -3.327
v -152.613 1.404 -2.690
v -153.814 1.404 -8.773
v -150.587 5.304 -9.410
v -149.386 5.304 -3.327
v -152.613 5.304 -2.690
v -153.814 5.304 -8.773
f 496 495 494 493
f 489 490 494 493
f 490 491 495 494
f 491 492 496 495
f 492 489 493 496
v -157.437 1.346 -0.860
v -156.235 1.346 5.223
v -159.463 1.346 5.860
v -160.665 1.346 -0.223
v -157.437 5.246 -0.860
v -156.235 5.246 5.223
v -159.463 5.246 5.860
v -160.665 5.246 -0.223
f 504 503 502 501
f 497 498 502 501
f 498 499 503 502
f 499 500 504 503
f 500 497 501 504
v -151.825 1.317 -1.360
v -150.618 1.317 4.721
v -153.835 1.317 5.360
v -155.042 1.317 -0.721
v -151.825 5.217 -1.360
v -150.618 5.217 4.721
v -153.835 5.217 5.360
v -155.042 5.217 -0.721
f 512 511 510 509
f 505 506 510 509
f 506 507 511 510
f 507 508 512 511
f 508 505 509 512
v -154.237 1.450 -13.167
v -153.664 1.450 -10.621
v -156.103 1.450 -10.073
v -156.676 1.450 -12.619
v -154.237 5.350 -13.167
v -153.664 5.350 -10.621
v -156.103 5.350 -10.073
v -156.676 5.350 -12.619
f 520 519 518 517
f 513 514 518 517
f 514 515 519 518
f 515 516 520 519
f 516 513 517 520
v -70.212 1.615 162.013
v -67.620 1.615 161.814
v -67.428 1.615 164.307
v -70.020 1.615 164.506
v -70.212 5.515 162.013
v -67.620 5.515 161.814
v -67.428 5.515 164.307
v -70.020 5.515 164.506
f 528 527 526 525
f 521 522 526 525
f 522 523 527 526
f 523 524 528 527
f 524 521 525 528
usemtl road
v -35.168 1.828 15.109
v -33.368 2.248 50.539
v -29.872 2.244 50.361
v -31.672 1.894 14.931
f 529 530 531 532
v -33.364 2.246 50.304
v -40.494 2.146 135.344
v -37.006 2.243 135.636
v -29.876 2.245 50.596
f 533 534 535 536
v -40.494 2.146 135.344
v -45.274 1.729 192.564
v -41.786 1.759 192.856
v -37.006 2.243 135.636
f 537 538 539 540
v -45.277 1.728 192.610
v -48.908 1.706 255.900
v -45.414 1.724 256.100
v -41.783 1.760 192.810
f 541 542 543 544
v 154.481 1.638 -256.464
v 142.933 1.742 -214.424
v 146.307 1.519 -213.496
v 157.856 1.491 -255.536
f 545 546 547 548
v 142.876 1.741 -214.110
v 140.586 1.836 -187.500
v 144.074 1.725 -187.200
v 146.364 1.517 -213.810
f 549 550 551 552
v 140.580 1.835 -187.353
v 140.490 1.479 -135.713
v 143.990 1.458 -135.707
v 144.080 1.725 -187.347
f 553 554 555 556
v 140.498 1.480 -135.875
v 138.958 1.400 -119.565
v 142.442 1.384 -119.235
v 143.982 1.457 -135.545
f 557 558 559 560
v 139.003 1.403 -119.828
v 133.563 1.163 -98.238
v 136.957 1.203 -97.382
v 142.397 1.381 -118.972
f 561 562 563 564
v 133.599 1.164 -98.360
v 129.629 1.120 -86.360
v 132.951 1.085 -85.260
v 136.921 1.201 -97.260
f 565 566 567 568
v -43.313 1.767 190.973
v -66.543 1.716 188.073
v -66.977 1.672 191.547
v -43.747 1.747 194.447
f 569 570 571 572
v -66.542 1.716 188.074
v -80.382 1.757 186.334
v -80.818 1.684 189.806
v -66.978 1.672 191.546
f 573 574 575 576
v -80.383 1.757 186.334
v -103.323 1.744 183.464
v -103.757 1.657 186.936
v -80.817 1.684 189.806
f 577 578 579 580
v -103.322 1.744 183.464
v -119.882 1.756 181.384
v -120.318 1.659 184.856
v -103.758 1.657 186.936
f 581 582 583 584
v -119.884 1.756 181.383
v -130.954 1.791 180.003
v -131.386 1.680 183.477
v -120.316 1.659 184.857
f 585 586 587 588
v -130.949 1.791 180.004
v -193.989 1.692 171.964
v -194.431 1.669 175.436
v -131.391 1.680 183.476
f 589 590 591 592
v -192.478 1.696 173.950
v -190.558 1.643 160.630
v -194.022 1.662 160.130
v -195.942 1.661 173.450
f 593 594 595 596
v -190.559 1.643 160.636
v -188.299 1.732 145.366
v -191.761 1.722 144.854
v -194.021 1.662 160.124
f 597 598 599 600
v -188.299 1.732 145.367
v -187.659 1.761 141.057
v -191.121 1.731 140.543
v -191.761 1.722 144.853
f 601 602 603 604
v -187.659 1.761 141.056
v -185.049 1.738 123.436
v -188.511 1.777 122.924
v -191.121 1.731 140.544
f 605 606 607 608
v -185.049 1.738 123.436
v -181.879 1.781 101.986
v -185.341 1.768 101.474
v -188.511 1.777 122.924
f 609 610 611 612
v -181.881 1.781 102.002
v -178.381 1.772 79.782
v -181.839 1.735 79.238
v -185.339 1.768 101.458
f 613 614 615 616
v -178.386 1.773 79.811
v -168.886 1.700 25.411
v -172.334 1.691 24.809
v -181.834 1.734 79.209
f 617 618 619 620
v -169.540 1.696 26.495
v -161.320 1.656 20.145
v -163.460 1.695 17.375
v -171.680 1.693 23.725
f 621 622 623 624
v -161.942 1.658 20.452
v -149.052 1.713 17.042
v -149.948 1.689 13.658
v -162.838 1.693 17.068
f 625 626 627 628
v -149.716 1.711 17.087
v -125.186 1.684 20.137
v -124.754 1.709 16.663
v -149.284 1.693 13.613
f 629 630 631 632
v -126.163 1.686 19.680
v -118.013 1.695 27.280
v -115.627 1.695 24.720
v -123.777 1.711 17.120
f 633 634 635 636
v -118.568 1.683 26.087
v -118.048 1.741 36.557
v -114.552 1.750 36.383
v -115.072 1.715 25.913
f 637 638 639 640
v -118.041 1.739 36.292
v -126.781 1.805 121.712
v -123.299 1.793 122.068
v -114.559 1.751 36.648
f 641 642 643 644
v -126.781 1.805 121.712
v -129.441 1.781 147.712
v -125.959 1.758 148.068
v -123.299 1.793 122.068
f 645 646 647 648
v -129.441 1.781 147.712
v -132.911 1.733 181.562
v -129.429 1.733 181.918
v -125.959 1.758 148.068
f 649 650 651 652
v 248.130 3.809 -38.118
v 248.570 5.611 64.202
v 254.070 5.091 64.178
v 253.630 3.473 -38.142
f 653 654 655 656
v 248.574 5.569 64.045
v 248.064 5.378 73.675
v 253.556 5.389 73.965
v 254.066 5.141 64.335
f 657 658 659 660
v 248.099 5.394 73.358
v 238.309 2.257 130.778
v 243.731 2.032 131.702
v 253.521 5.374 74.282
f 661 662 663 664
v 238.328 2.260 130.677
v 232.148 2.448 160.237
v 237.532 2.168 161.363
v 243.712 2.030 131.803
f 665 666 667 668
v 232.148 2.448 160.239
v 221.898 2.438 209.399
v 227.282 2.236 210.521
v 237.532 2.168 161.361
f 669 670 671 672
v 221.898 2.438 209.398
v 212.289 2.422 255.438
v 217.673 2.289 256.562
v 227.282 2.236 210.522
f 673 674 675 676
v 247.383 4.029 -53.063
v 248.133 3.733 -37.993
v 253.627 3.543 -38.267
v 252.877 3.993 -53.337
f 677 678 679 680
v 241.111 2.149 132.988
v 253.621 1.761 132.338
v 253.439 1.760 128.842
v 240.929 2.265 129.492
f 681 682 683 684
v 235.064 2.330 159.064
v 200.804 2.441 154.644
v 200.356 2.431 158.116
v 234.616 2.350 162.536
f 685 686 687 688
v 199.790 2.437 154.818
v 191.350 2.448 159.088
v 192.930 2.478 162.212
v 201.370 2.433 157.942
f 689 690 691 692
v 192.526 2.454 158.943
v 92.146 2.332 136.213
v 91.374 2.200 139.627
v 191.754 2.462 162.357
f 693 694 695 696
v 91.649 2.332 136.174
v 52.519 2.219 138.654
v 52.741 2.313 142.146
v 91.871 2.197 139.666
f 697 698 699 700
v 52.610 2.221 138.650
v 6.430 2.153 139.190
v 6.470 2.169 142.690
v 52.650 2.312 142.150
f 701 702 703 704
v 6.660 2.151 139.203
v -2.770 2.170 138.063
v -3.190 2.187 141.537
v 6.240 2.167 142.677
f 705 706 707 708
v -2.771 2.170 138.063
v -38.541 2.222 133.753
v -38.959 2.158 137.227
v -3.189 2.187 141.537
f 709 710 711 712
v -1.232 2.179 139.891
v 2.058 1.849 76.431
v -1.438 1.861 76.249
v -4.728 2.193 139.709
f 713 714 715 716
v -32.035 1.884 13.950
v -42.555 1.714 0.330
v -45.325 1.708 2.470
v -34.805 1.842 16.090
f 717 718 719 720
v -43.519 1.711 -0.299
v -73.629 1.647 -7.769
v -74.471 1.678 -4.371
v -44.361 1.709 3.099
f 721 722 723 724
v -73.614 1.647 -7.765
v -136.564 1.761 -23.955
v -137.436 1.745 -20.565
v -74.486 1.678 -4.375
f 725 726 727 728
v -136.558 1.761 -23.953
v -162.908 1.843 -30.823
v -163.792 1.853 -27.437
v -137.442 1.745 -20.567
f 729 730 731 732
v -165.085 1.851 -29.362
v -172.345 1.691 24.878
v -168.875 1.701 25.342
v -161.615 1.851 -28.898
f 733 734 735 736
v 146.495 1.141 -81.667
v 131.935 1.112 -87.437
v 130.645 1.094 -84.183
v 145.205 1.214 -78.413
f 737 738 739 740
v 131.934 1.112 -87.437
v 101.614 1.296 -99.447
v 100.326 1.343 -96.193
v 130.646 1.094 -84.183
f 741 742 743 744
v 102.253 1.291 -99.010
v 53.663 1.927 -151.430
v 51.097 2.009 -149.050
v 99.687 1.350 -96.630
f 745 746 747 748
v 53.865 1.923 -151.166
v 30.155 2.036 -189.206
v 27.185 2.126 -187.354
v 50.895 2.007 -149.314
f 749 750 751 752
v 30.155 2.036 -189.206
v 11.615 1.850 -218.946
v 8.645 1.902 -217.094
v 27.185 2.126 -187.354
f 753 754 755 756
v 11.870 1.863 -218.205
v 10.580 1.681 -230.355
v 7.100 1.685 -229.985
v 8.390 1.893 -217.835
f 757 758 759 760
v 237.920 1.469 -251.814
v 237.730 1.394 -227.594
v 241.230 1.391 -227.566
v 241.420 1.387 -251.786
f 761 762 763 764
v 237.730 1.395 -227.551
v 238.280 1.436 -194.861
v 241.780 1.391 -194.919
v 241.230 1.391 -227.609
f 765 766 767 768
v 238.280 1.436 -194.879
v 238.780 1.394 -111.629
v 242.280 1.448 -111.651
v 241.780 1.391 -194.901
f 769 770 771 772
v 70.711 2.262 -256.481
v 61.997 1.905 -226.021
v 65.363 1.861 -225.059
v 74.076 2.619 -255.519
f 773 774 775 776
v 62.405 1.909 -226.738
v 27.395 2.085 -189.478
v 29.945 2.070 -187.082
v 64.955 1.868 -224.342
f 777 778 779 780
v 144.809 1.229 -77.495
v 164.009 1.345 -69.645
v 166.091 1.161 -74.735
v 146.891 1.119 -82.585
f 781 782 783 784
v 164.450 1.347 -69.506
v 202.770 1.622 -60.946
v 203.970 1.498 -66.314
v 165.650 1.155 -74.874
f 785 786 787 788
v 202.771 1.622 -60.946
v 249.531 4.182 -50.516
v 250.729 3.896 -55.884
v 203.969 1.498 -66.314
f 789 790 791 792
v 205.120 1.634 -63.607
v 205.500 1.306 -92.927
v 202.000 1.294 -92.973
v 201.620 1.554 -63.653
f 793 794 795 796
v 205.500 1.306 -92.927
v 207.250 1.478 -226.777
v 203.750 1.439 -226.823
v 202.000 1.294 -92.973
f 797 798 799 800
v 207.250 1.478 -226.778
v 207.410 1.649 -239.528
v 203.910 1.594 -239.572
v 203.750 1.439 -226.822
f 801 802 803 804
v 207.399 1.647 -239.746
v 205.999 1.642 -252.156
v 202.521 1.604 -251.764
v 203.921 1.593 -239.354
f 805 806 807 808
v 239.710 1.442 -253.550
v 221.400 1.668 -253.970
v 221.320 1.640 -250.470
v 239.630 1.395 -250.050
f 809 810 811 812
v 221.333 1.669 -253.970
v 204.233 1.645 -253.710
v 204.287 1.598 -250.210
v 221.387 1.639 -250.470
f 813 814 815 816
v 240.939 1.384 -228.546
v 238.389 1.408 -232.396
v 235.471 1.399 -230.464
v 238.021 1.394 -226.614
f 817 818 819 820
v 237.740 1.414 -232.981
v 232.720 1.428 -235.601
v 231.100 1.437 -232.499
v 236.120 1.399 -229.879
f 821 822 823 824
v 232.065 1.433 -235.793
v 223.625 1.531 -236.543
v 223.315 1.538 -233.057
v 231.755 1.428 -232.307
f 825 826 827 828
v 223.257 1.539 -236.537
v 214.607 1.709 -235.477
v 215.033 1.677 -232.003
v 223.683 1.531 -233.063
f 829 830 831 832
v 213.882 1.712 -235.217
v 208.842 1.643 -232.017
v 210.718 1.620 -229.063
v 215.758 1.676 -232.263
f 833 834 835 836
v 208.628 1.634 -231.858
v 204.348 1.447 -228.118
v 206.652 1.461 -225.482
v 210.932 1.628 -229.222
f 837 838 839 840
v 238.833 1.393 -112.069
v 237.143 1.479 -105.379
v 240.537 1.443 -104.521
v 242.227 1.448 -111.211
f 841 842 843 844
v 237.613 1.468 -106.198
v 232.123 1.477 -100.798
v 234.577 1.557 -98.302
v 240.067 1.451 -103.702
f 845 846 847 848
v 232.520 1.481 -101.091
v 224.330 1.411 -96.681
v 225.990 1.447 -93.599
v 234.180 1.547 -98.009
f 849 850 851 852
v 224.873 1.413 -96.866
v 214.033 1.376 -95.066
v 214.607 1.381 -91.614
v 225.447 1.444 -93.414
f 853 854 855 856
v 214.255 1.378 -95.089
v 203.685 1.308 -94.699
v 203.815 1.292 -91.201
v 214.385 1.379 -91.591
f 857 858 859 860
v -256.372 1.877 -47.593
v -163.722 1.853 -27.420
v -162.978 1.843 -30.840
v -255.628 1.851 -51.012
f 861 862 863 864
v -256.185 1.650 117.543
v -186.965 1.752 124.920
v -186.595 1.749 121.440
v -255.815 1.653 114.063
f 865 866 867 868
v -256.191 1.625 95.542
v -183.801 1.761 103.470
v -183.419 1.770 99.990
v -255.809 1.607 92.063
f 869 870 871 872
v -194.057 1.692 171.957
v -255.847 1.711 166.538
v -256.153 1.736 170.025
v -194.363 1.670 175.443
f 873 874 875 876
v -190.249 1.691 146.846
v -137.209 2.224 153.546
v -136.771 2.176 150.074
v -189.811 1.703 143.374
f 877 878 879 880
v -189.196 1.721 139.061
v -255.806 1.675 131.645
v -256.194 1.711 135.123
v -189.584 1.705 142.539
f 881 882 883 884
usemtl asphalt
