# Baked ultra-low Key West silhouette; generated by bake_key_west_far_city.py
mtllib far_city.mtl
usemtl massing
v 229.577 1.295 173.375
v 231.147 1.295 140.403
v 243.363 1.295 140.985
v 241.793 1.295 173.957
v 229.577 4.795 173.375
v 231.147 4.795 140.403
v 243.363 4.795 140.985
v 241.793 4.795 173.957
f 8 7 6 5
f 1 2 6 5
f 2 3 7 6
f 3 4 8 7
f 4 1 5 8
v 3.277 1.421 -238.737
v 30.121 1.421 -264.606
v 39.683 1.421 -254.683
v 12.839 1.421 -228.814
v 3.277 7.221 -238.737
v 30.121 7.221 -264.606
v 39.683 7.221 -254.683
v 12.839 7.221 -228.814
f 16 15 14 13
f 9 10 14 13
f 10 11 15 14
f 11 12 16 15
f 12 9 13 16
usemtl road
v 126.138 1.231 -252.883
v 180.368 1.440 -236.123
v 181.992 1.347 -241.377
v 127.762 1.403 -258.137
f 17 18 19 20
v 179.585 1.440 -236.510
v 191.415 1.407 -228.090
v 194.605 1.439 -232.570
v 182.775 1.342 -240.990
f 21 22 23 24
v 191.108 1.406 -228.344
v 202.708 1.351 -217.234
v 206.512 1.493 -221.206
v 194.912 1.440 -232.316
f 25 26 27 28
v 202.708 1.351 -217.234
v 233.338 1.512 -187.894
v 237.142 1.306 -191.866
v 206.512 1.493 -221.206
f 29 30 31 32
v 232.915 1.517 -188.412
v 236.065 1.497 -183.422
v 240.715 1.323 -186.358
v 237.565 1.307 -191.348
f 33 34 35 36
v 236.066 1.497 -183.420
v 242.496 1.491 -173.250
v 247.144 1.262 -176.190
v 240.714 1.323 -186.360
f 37 38 39 40
v 242.205 1.489 -173.868
v 253.385 1.537 -139.557
v 258.615 1.404 -141.261
v 247.435 1.261 -175.572
f 41 42 43 44
v 217.673 1.666 222.074
v 229.493 1.689 218.214
v 228.407 1.606 214.886
v 216.587 1.427 218.746
f 45 46 47 48
v 228.210 1.687 218.136
v 238.430 1.721 222.906
v 239.910 1.515 219.734
v 229.690 1.576 214.964
f 49 50 51 52
v 205.973 1.485 -218.123
v 219.583 0.996 -235.033
v 216.857 1.076 -237.227
v 203.247 1.480 -220.317
f 53 54 55 56
v 219.433 0.995 -234.868
v 223.783 1.025 -239.048
v 221.357 1.075 -241.572
v 217.007 1.075 -237.392
f 57 58 59 60
v 223.779 1.025 -239.045
v 230.629 1.129 -245.595
v 228.211 1.123 -248.125
v 221.361 1.075 -241.575
f 61 62 63 64
v 230.216 1.124 -245.301
v 243.826 1.104 -252.251
v 242.234 1.079 -255.369
v 228.624 1.122 -248.419
f 65 66 67 68
v 242.686 1.098 -252.094
v 255.166 1.203 -249.594
v 255.854 1.196 -253.026
v 243.374 1.096 -255.526
f 69 70 71 72
v 255.151 1.035 -196.192
v 237.541 1.469 -186.420
v 239.239 1.469 -183.360
v 256.849 0.986 -193.132
f 73 74 75 76
v 69.884 1.477 -238.595
v 62.684 1.481 -236.745
v 63.556 1.515 -233.355
v 70.756 1.440 -235.205
f 77 78 79 80
v 63.493 1.483 -236.760
v 55.893 1.495 -238.420
v 55.147 1.483 -235.000
v 62.747 1.516 -233.340
f 81 82 83 84
usemtl asphalt
