# Baked ultra-low Key West silhouette; generated by bake_key_west_far_city.py
mtllib far_city.mtl
usemtl massing
v 177.242 1.104 114.691
v 178.420 1.104 154.753
v 159.498 1.104 155.309
v 158.320 1.104 115.247
v 177.242 6.904 114.691
v 178.420 6.904 154.753
v 159.498 6.904 155.309
v 158.320 6.904 115.247
f 8 7 6 5
f 1 2 6 5
f 2 3 7 6
f 3 4 8 7
f 4 1 5 8
v 54.058 3.456 219.332
v 69.804 3.456 260.514
v 45.182 3.456 269.928
v 29.436 3.456 228.746
v 54.058 9.256 219.332
v 69.804 9.256 260.514
v 45.182 9.256 269.928
v 29.436 9.256 228.746
f 16 15 14 13
f 9 10 14 13
f 10 11 15 14
f 11 12 16 15
f 12 9 13 16
v -10.056 2.225 220.167
v 13.058 2.225 215.502
v 15.656 2.225 228.373
v -7.458 2.225 233.038
v -10.056 6.125 220.167
v 13.058 6.125 215.502
v 15.656 6.125 228.373
v -7.458 6.125 233.038
f 24 23 22 21
f 17 18 22 21
f 18 19 23 22
f 19 20 24 23
f 20 17 21 24
v -8.770 2.295 203.268
v 17.202 2.295 198.002
v 19.690 2.295 210.272
v -6.282 2.295 215.538
v -8.770 6.195 203.268
v 17.202 6.195 198.002
v 19.690 6.195 210.272
v -6.282 6.195 215.538
f 32 31 30 29
f 25 26 30 29
f 26 27 31 30
f 27 28 32 31
f 28 25 29 32
usemtl road
v 82.688 1.994 226.371
v 94.238 1.571 192.221
v 90.922 1.576 191.099
v 79.372 2.024 225.249
f 33 34 35 36
v 94.074 1.573 192.572
v 99.714 1.481 183.332
v 96.726 1.492 181.508
v 91.086 1.572 190.748
f 37 38 39 40
v 99.466 1.489 183.649
v 106.516 1.324 176.499
v 104.024 1.326 174.041
v 96.974 1.490 181.191
f 41 42 43 44
v 105.513 1.338 177.003
v 120.843 1.358 174.853
v 120.357 1.338 171.387
v 105.027 1.320 173.537
f 45 46 47 48
v 120.081 1.353 174.791
v 137.541 1.250 180.211
v 138.579 1.315 176.869
v 121.119 1.341 171.449
f 49 50 51 52
v 136.923 1.253 179.871
v 154.823 1.219 195.161
v 157.097 1.216 192.499
v 139.197 1.312 177.209
f 53 54 55 56
v 154.551 1.221 194.868
v 165.331 1.322 209.508
v 168.149 1.315 207.432
v 157.369 1.214 192.792
f 57 58 59 60
v 164.996 1.300 208.326
v 163.966 1.477 220.806
v 167.454 1.434 221.094
v 168.484 1.334 208.614
f 61 62 63 64
v 164.019 1.473 220.498
v 160.829 1.581 232.428
v 164.211 1.534 233.332
v 167.401 1.435 221.402
f 65 66 67 68
v 19.131 2.124 256.555
v 30.680 2.068 221.995
v 27.360 2.020 220.885
v 15.812 2.062 255.445
f 69 70 71 72
v 29.790 2.089 223.012
v 39.590 2.070 218.212
v 38.050 1.975 215.068
v 28.250 1.993 219.868
f 73 74 75 76
v 38.811 2.070 218.390
v 50.501 2.119 218.450
v 50.519 2.002 214.950
v 38.829 1.979 214.890
f 77 78 79 80
v 50.009 2.123 218.377
v 80.529 2.042 227.487
v 81.531 1.999 224.133
v 51.011 2.000 215.023
f 81 82 83 84
v 254.289 1.484 -219.001
v 246.569 1.444 -182.936
v 249.991 1.435 -182.204
v 257.711 1.501 -218.269
f 85 86 87 88
v 246.579 1.444 -182.982
v 236.009 1.539 -139.292
v 239.411 1.487 -138.468
v 249.981 1.435 -182.158
f 89 90 91 92
v 235.960 1.538 -138.890
v 235.750 1.406 -102.150
v 239.250 1.399 -102.130
v 239.460 1.489 -138.870
f 93 94 95 96
v 235.750 1.406 -102.129
v 236.720 1.379 58.931
v 240.220 1.400 58.909
v 239.250 1.399 -102.151
f 97 98 99 100
v 236.720 1.379 58.931
v 237.180 1.411 135.561
v 240.680 1.398 135.539
v 240.220 1.400 58.909
f 101 102 103 104
v 237.180 1.411 135.562
v 237.230 1.406 143.002
v 240.730 1.411 142.978
v 240.680 1.398 135.538
f 105 106 107 108
v 237.230 1.406 143.009
v 237.640 1.340 181.749
v 241.140 1.336 181.711
v 240.730 1.411 142.971
f 109 110 111 112
v 237.640 1.340 181.736
v 237.905 1.477 256.006
v 241.405 1.462 255.994
v 241.140 1.336 181.724
f 113 114 115 116
v 205.548 1.690 255.806
v 203.769 1.671 239.896
v 200.291 1.652 240.284
v 202.069 1.646 256.194
f 117 118 119 120
v 203.778 1.671 240.003
v 201.528 1.392 194.733
v 198.032 1.450 194.907
v 200.282 1.652 240.177
f 121 122 123 124
v 201.471 1.394 195.272
v 203.291 1.356 188.462
v 199.909 1.375 187.558
v 198.089 1.447 194.368
f 125 126 127 128
v 202.866 1.358 189.219
v 207.526 1.380 184.339
v 204.994 1.365 181.921
v 200.334 1.362 186.801
f 129 130 131 132
v 206.625 1.370 184.841
v 215.485 1.403 182.951
v 214.755 1.455 179.529
v 205.895 1.386 181.419
f 133 134 135 136
v 215.085 1.398 182.990
v 239.355 1.340 183.480
v 239.425 1.341 179.980
v 215.155 1.459 179.490
f 137 138 139 140
v 238.949 1.404 133.800
v 180.779 1.416 133.160
v 180.741 1.425 136.660
v 238.911 1.409 137.300
f 141 142 143 144
usemtl asphalt
