# Baked ultra-low Key West silhouette; generated by bake_key_west_far_city.py
mtllib far_city.mtl
usemtl massing
v -119.795 0.758 104.352
v -50.619 0.758 153.503
v -89.745 0.758 208.568
v -158.921 0.758 159.417
v -119.795 9.058 104.352
v -50.619 9.058 153.503
v -89.745 9.058 208.568
v -158.921 9.058 159.417
f 8 7 6 5
f 1 2 6 5
f 2 3 7 6
f 3 4 8 7
f 4 1 5 8
v -24.990 1.366 -196.626
v -9.980 1.366 -134.102
v -32.510 1.366 -128.694
v -47.520 1.366 -191.218
v -24.990 7.166 -196.626
v -9.980 7.166 -134.102
v -32.510 7.166 -128.694
v -47.520 7.166 -191.218
f 16 15 14 13
f 9 10 14 13
f 10 11 15 14
f 11 12 16 15
f 12 9 13 16
v 142.708 0.982 73.144
v 164.787 0.982 37.852
v 190.432 0.982 53.896
v 168.353 0.982 89.188
v 142.708 6.782 73.144
v 164.787 6.782 37.852
v 190.432 6.782 53.896
v 168.353 6.782 89.188
f 24 23 22 21
f 17 18 22 21
f 18 19 23 22
f 19 20 24 23
f 20 17 21 24
v 74.891 0.640 145.910
v 92.902 0.640 120.434
v 101.949 0.640 126.830
v 83.938 0.640 152.306
v 74.891 4.540 145.910
v 92.902 4.540 120.434
v 101.949 4.540 126.830
v 83.938 4.540 152.306
f 32 31 30 29
f 25 26 30 29
f 26 27 31 30
f 27 28 32 31
f 28 25 29 32
v -7.033 0.188 23.500
v 140.555 0.188 12.457
v 148.513 0.188 118.820
v 0.925 0.188 129.863
v -7.033 8.488 23.500
v 140.555 8.488 12.457
v 148.513 8.488 118.820
v 0.925 8.488 129.863
f 40 39 38 37
f 33 34 38 37
f 34 35 39 38
f 35 36 40 39
f 36 33 37 40
v -40.576 0.633 108.021
v -8.138 0.633 131.426
v -21.004 0.633 149.259
v -53.442 0.633 125.854
v -40.576 6.433 108.021
v -8.138 6.433 131.426
v -21.004 6.433 149.259
v -53.442 6.433 125.854
f 48 47 46 45
f 41 42 46 45
f 42 43 47 46
f 43 44 48 47
f 44 41 45 48
v -145.408 0.484 -9.372
v -94.535 0.484 -18.525
v -87.112 0.484 22.732
v -137.985 0.484 31.885
v -145.408 8.784 -9.372
v -94.535 8.784 -18.525
v -87.112 8.784 22.732
v -137.985 8.784 31.885
f 56 55 54 53
f 49 50 54 53
f 50 51 55 54
f 51 52 56 55
f 52 49 53 56
v -221.141 0.634 76.967
v -134.978 0.634 11.389
v -88.259 0.634 72.773
v -174.422 0.634 138.351
v -221.141 6.934 76.967
v -134.978 6.934 11.389
v -88.259 6.934 72.773
v -174.422 6.934 138.351
f 64 63 62 61
f 57 58 62 61
f 58 59 63 62
f 59 60 64 63
f 60 57 61 64
v -224.821 0.491 107.158
v -212.550 0.491 115.325
v -218.019 0.491 123.542
v -230.290 0.491 115.375
v -224.821 9.791 107.158
v -212.550 9.791 115.325
v -218.019 9.791 123.542
v -230.290 9.791 115.375
f 72 71 70 69
f 65 66 70 69
f 66 67 71 70
f 67 68 72 71
f 68 65 69 72
v -260.757 1.634 -243.045
v -215.818 1.634 -248.586
v -213.883 1.634 -232.895
v -258.822 1.634 -227.354
v -260.757 5.134 -243.045
v -215.818 5.134 -248.586
v -213.883 5.134 -232.895
v -258.822 5.134 -227.354
f 80 79 78 77
f 73 74 78 77
f 74 75 79 78
f 75 76 80 79
f 76 73 77 80
v 44.976 1.076 -130.312
v 49.378 1.076 -84.142
v 34.964 1.076 -82.768
v 30.562 1.076 -128.938
v 44.976 4.576 -130.312
v 49.378 4.576 -84.142
v 34.964 4.576 -82.768
v 30.562 4.576 -128.938
f 88 87 86 85
f 81 82 86 85
f 82 83 87 86
f 83 84 88 87
f 84 81 85 88
v 75.459 1.085 -126.428
v 80.541 1.085 -80.448
v 65.741 1.085 -78.812
v 60.659 1.085 -124.792
v 75.459 7.385 -126.428
v 80.541 7.385 -80.448
v 65.741 7.385 -78.812
v 60.659 7.385 -124.792
f 96 95 94 93
f 89 90 94 93
f 90 91 95 94
f 91 92 96 95
f 92 89 93 96
v -66.047 1.459 2.152
v 23.366 1.459 -8.025
v 27.367 1.459 27.128
v -62.046 1.459 37.305
v -66.047 10.759 2.152
v 23.366 10.759 -8.025
v 27.367 10.759 27.128
v -62.046 10.759 37.305
f 104 103 102 101
f 97 98 102 101
f 98 99 103 102
f 99 100 104 103
f 100 97 101 104
v 115.198 1.346 -149.419
v 141.998 1.346 -129.891
v 136.162 1.346 -121.881
v 109.362 1.346 -141.409
v 115.198 7.646 -149.419
v 141.998 7.646 -129.891
v 136.162 7.646 -121.881
v 109.362 7.646 -141.409
f 112 111 110 109
f 105 106 110 109
f 106 107 111 110
f 107 108 112 111
f 108 105 109 112
v 234.981 0.951 20.677
v 263.724 0.951 39.577
v 258.499 0.951 47.523
v 229.756 0.951 28.623
v 234.981 10.251 20.677
v 263.724 10.251 39.577
v 258.499 10.251 47.523
v 229.756 10.251 28.623
f 120 119 118 117
f 113 114 118 117
f 114 115 119 118
f 115 116 120 119
f 116 113 117 120
v 69.190 0.482 235.394
v 77.351 0.482 222.064
v 83.790 0.482 226.006
v 75.629 0.482 239.336
v 69.190 6.782 235.394
v 77.351 6.782 222.064
v 83.790 6.782 226.006
v 75.629 6.782 239.336
f 128 127 126 125
f 121 122 126 125
f 122 123 127 126
f 123 124 128 127
f 124 121 125 128
v 44.475 0.097 170.730
v 53.448 0.097 158.177
v 61.665 0.097 164.050
v 52.692 0.097 176.603
v 44.475 6.397 170.730
v 53.448 6.397 158.177
v 61.665 6.397 164.050
v 52.692 6.397 176.603
f 136 135 134 133
f 129 130 134 133
f 130 131 135 134
f 131 132 136 135
f 132 129 133 136
v -6.909 0.640 204.153
v 2.364 0.640 190.300
v 11.489 0.640 196.407
v 2.216 0.640 210.260
v -6.909 6.940 204.153
v 2.364 6.940 190.300
v 11.489 6.940 196.407
v 2.216 6.940 210.260
f 144 143 142 141
f 137 138 142 141
f 138 139 143 142
f 139 140 144 143
f 140 137 141 144
v -173.787 0.701 198.367
v -159.300 0.701 177.018
v -144.893 0.701 186.793
v -159.380 0.701 208.142
v -173.787 4.601 198.367
v -159.300 4.601 177.018
v -144.893 4.601 186.793
v -159.380 4.601 208.142
f 152 151 150 149
f 145 146 150 149
f 146 147 151 150
f 147 148 152 151
f 148 145 149 152
v 31.613 1.433 -263.801
v 37.600 1.433 -208.172
v 7.007 1.433 -204.879
v 1.020 1.433 -260.508
v 31.613 9.733 -263.801
v 37.600 9.733 -208.172
v 7.007 9.733 -204.879
v 1.020 9.733 -260.508
f 160 159 158 157
f 153 154 158 157
f 154 155 159 158
f 155 156 160 159
f 156 153 157 160
v 215.295 0.619 135.325
v 222.967 0.619 124.375
v 228.905 0.619 128.535
v 221.233 0.619 139.485
v 215.295 4.519 135.325
v 222.967 4.519 124.375
v 228.905 4.519 128.535
v 221.233 4.519 139.485
f 168 167 166 165
f 161 162 166 165
f 162 163 167 166
f 163 164 168 167
f 164 161 165 168
v 134.080 0.416 156.966
v 149.328 0.416 155.981
v 150.180 0.416 169.174
v 134.932 0.416 170.159
v 134.080 4.316 156.966
v 149.328 4.316 155.981
v 150.180 4.316 169.174
v 134.932 4.316 170.159
f 176 175 174 173
f 169 170 174 173
f 170 171 175 174
f 171 172 176 175
f 172 169 173 176
v -3.010 1.571 -121.510
v -0.832 1.571 -102.253
v -12.170 1.571 -100.970
v -14.348 1.571 -120.227
v -3.010 5.471 -121.510
v -0.832 5.471 -102.253
v -12.170 5.471 -100.970
v -14.348 5.471 -120.227
f 184 183 182 181
f 177 178 182 181
f 178 179 183 182
f 179 180 184 183
f 180 177 181 184
v -6.095 0.535 114.760
v 1.315 0.535 104.164
v 8.715 0.535 109.340
v 1.305 0.535 119.936
v -6.095 4.435 114.760
v 1.315 4.435 104.164
v 8.715 4.435 109.340
v 1.305 4.435 119.936
f 192 191 190 189
f 185 186 190 189
f 186 187 191 190
f 187 188 192 191
f 188 185 189 192
v 50.502 0.209 118.997
v 59.418 0.209 105.868
v 64.298 0.209 109.183
v 55.382 0.209 122.312
v 50.502 4.109 118.997
v 59.418 4.109 105.868
v 64.298 4.109 109.183
v 55.382 4.109 122.312
f 200 199 198 197
f 193 194 198 197
f 194 195 199 198
f 195 196 200 199
f 196 193 197 200
v 216.242 0.283 146.085
v 221.190 0.283 139.027
v 226.078 0.283 142.455
v 221.130 0.283 149.513
v 216.242 4.183 146.085
v 221.190 4.183 139.027
v 226.078 4.183 142.455
v 221.130 4.183 149.513
f 208 207 206 205
f 201 202 206 205
f 202 203 207 206
f 203 204 208 207
f 204 201 205 208
v 205.813 0.931 -96.082
v 215.166 0.931 -89.850
v 209.787 0.931 -81.778
v 200.434 0.931 -88.010
v 205.813 4.831 -96.082
v 215.166 4.831 -89.850
v 209.787 4.831 -81.778
v 200.434 4.831 -88.010
f 216 215 214 213
f 209 210 214 213
f 210 211 215 214
f 211 212 216 215
f 212 209 213 216
v 184.877 0.421 131.843
v 190.855 0.421 123.321
v 197.863 0.421 128.237
v 191.885 0.421 136.759
v 184.877 4.321 131.843
v 190.855 4.321 123.321
v 197.863 4.321 128.237
v 191.885 4.321 136.759
f 224 223 222 221
f 217 218 222 221
f 218 219 223 222
f 219 220 224 223
f 220 217 221 224
v 56.225 0.221 115.435
v 65.661 0.221 102.022
v 70.355 0.221 105.325
v 60.919 0.221 118.738
v 56.225 4.121 115.435
v 65.661 4.121 102.022
v 70.355 4.121 105.325
v 60.919 4.121 118.738
f 232 231 230 229
f 225 226 230 229
f 226 227 231 230
f 227 228 232 231
f 228 225 229 232
v 198.127 0.863 -67.536
v 202.192 0.863 -73.112
v 205.933 0.863 -70.384
v 201.868 0.863 -64.808
v 198.127 4.763 -67.536
v 202.192 4.763 -73.112
v 205.933 4.763 -70.384
v 201.868 4.763 -64.808
f 240 239 238 237
f 233 234 238 237
f 234 235 239 238
f 235 236 240 239
f 236 233 237 240
v 52.862 0.709 122.868
v 59.991 0.709 127.571
v 56.098 0.709 133.472
v 48.969 0.709 128.769
v 52.862 4.609 122.868
v 59.991 4.609 127.571
v 56.098 4.609 133.472
v 48.969 4.609 128.769
f 248 247 246 245
f 241 242 246 245
f 242 243 247 246
f 243 244 248 247
f 244 241 245 248
v -130.155 0.611 247.362
v -118.347 0.611 255.709
v -123.005 0.611 262.298
v -134.813 0.611 253.951
v -130.155 9.911 247.362
v -118.347 9.911 255.709
v -123.005 9.911 262.298
v -134.813 9.911 253.951
f 256 255 254 253
f 249 250 254 253
f 250 251 255 254
f 251 252 256 255
f 252 249 253 256
v 148.113 -0.300 167.519
v 160.212 -0.300 175.104
v 156.027 -0.300 181.781
v 143.928 -0.300 174.196
v 148.113 3.600 167.519
v 160.212 3.600 175.104
v 156.027 3.600 181.781
v 143.928 3.600 174.196
f 264 263 262 261
f 257 258 262 261
f 258 259 263 262
f 259 260 264 263
f 260 257 261 264
v 103.575 0.755 -57.716
v 124.041 0.755 -50.325
v 117.705 0.755 -32.784
v 97.239 0.755 -40.175
v 103.575 4.655 -57.716
v 124.041 4.655 -50.325
v 117.705 4.655 -32.784
v 97.239 4.655 -40.175
f 272 271 270 269
f 265 266 270 269
f 266 267 271 270
f 267 268 272 271
f 268 265 269 272
v 21.879 0.761 193.225
v 27.965 0.761 184.098
v 32.641 0.761 187.215
v 26.555 0.761 196.342
v 21.879 4.661 193.225
v 27.965 4.661 184.098
v 32.641 4.661 187.215
v 26.555 4.661 196.342
f 280 279 278 277
f 273 274 278 277
f 274 275 279 278
f 275 276 280 279
f 276 273 277 280
v 0.483 0.323 141.553
v 15.263 0.323 137.756
v 18.657 0.323 150.967
v 3.877 0.323 154.764
v 0.483 4.223 141.553
v 15.263 4.223 137.756
v 18.657 4.223 150.967
v 3.877 4.223 154.764
f 288 287 286 285
f 281 282 286 285
f 282 283 287 286
f 283 284 288 287
f 284 281 285 288
v -197.217 0.828 201.254
v -185.501 0.828 205.465
v -189.283 0.828 215.986
v -200.999 0.828 211.775
v -197.217 4.728 201.254
v -185.501 4.728 205.465
v -189.283 4.728 215.986
v -200.999 4.728 211.775
f 296 295 294 293
f 289 290 294 293
f 290 291 295 294
f 291 292 296 295
f 292 289 293 296
v 146.310 1.203 247.347
v 155.571 1.203 227.469
v 169.530 1.203 233.973
v 160.269 1.203 253.851
v 146.310 5.103 247.347
v 155.571 5.103 227.469
v 169.530 5.103 233.973
v 160.269 5.103 253.851
f 304 303 302 301
f 297 298 302 301
f 298 299 303 302
f 299 300 304 303
f 300 297 301 304
v 99.360 1.253 -175.078
v 127.334 1.253 -155.983
v 119.920 1.253 -145.122
v 91.946 1.253 -164.217
v 99.360 5.153 -175.078
v 127.334 5.153 -155.983
v 119.920 5.153 -145.122
v 91.946 5.153 -164.217
f 312 311 310 309
f 305 306 310 309
f 306 307 311 310
f 307 308 312 311
f 308 305 309 312
v 127.947 1.128 -166.609
v 132.983 1.128 -172.539
v 139.233 1.128 -167.231
v 134.197 1.128 -161.301
v 127.947 5.028 -166.609
v 132.983 5.028 -172.539
v 139.233 5.028 -167.231
v 134.197 5.028 -161.301
f 320 319 318 317
f 313 314 318 317
f 314 315 319 318
f 315 316 320 319
f 316 313 317 320
v 149.592 1.292 -166.255
v 168.244 1.292 -153.816
v 161.808 1.292 -144.165
v 143.156 1.292 -156.604
v 149.592 5.192 -166.255
v 168.244 5.192 -153.816
v 161.808 5.192 -144.165
v 143.156 5.192 -156.604
f 328 327 326 325
f 321 322 326 325
f 322 323 327 326
f 323 324 328 327
f 324 321 325 328
v 138.540 1.120 -128.692
v 155.397 1.120 -116.337
v 149.220 1.120 -107.908
v 132.363 1.120 -120.263
v 138.540 5.020 -128.692
v 155.397 5.020 -116.337
v 149.220 5.020 -107.908
v 132.363 5.020 -120.263
f 336 335 334 333
f 329 330 334 333
f 330 331 335 334
f 331 332 336 335
f 332 329 333 336
v 163.597 1.401 -153.326
v 190.963 1.401 -133.814
v 184.403 1.401 -124.614
v 157.037 1.401 -144.126
v 163.597 5.301 -153.326
v 190.963 5.301 -133.814
v 184.403 5.301 -124.614
v 157.037 5.301 -144.126
f 344 343 342 341
f 337 338 342 341
f 338 339 343 342
f 339 340 344 343
f 340 337 341 344
v 147.925 1.068 -98.943
v 176.093 1.068 -79.885
v 170.215 1.068 -71.197
v 142.047 1.068 -90.255
v 147.925 4.968 -98.943
v 176.093 4.968 -79.885
v 170.215 4.968 -71.197
v 142.047 4.968 -90.255
f 352 351 350 349
f 345 346 350 349
f 346 347 351 350
f 347 348 352 351
f 348 345 349 352
v 160.885 0.936 -79.334
v 188.998 0.936 -60.498
v 183.415 0.936 -52.166
v 155.302 0.936 -71.002
v 160.885 4.836 -79.334
v 188.998 4.836 -60.498
v 183.415 4.836 -52.166
v 155.302 4.836 -71.002
f 360 359 358 357
f 353 354 358 357
f 354 355 359 358
f 355 356 360 359
f 356 353 357 360
v 174.820 0.966 -57.000
v 204.573 0.966 -39.536
v 199.000 0.966 -30.040
v 169.247 0.966 -47.504
v 174.820 4.866 -57.000
v 204.573 4.866 -39.536
v 199.000 4.866 -30.040
v 169.247 4.866 -47.504
f 368 367 366 365
f 361 362 366 365
f 362 363 367 366
f 363 364 368 367
f 364 361 365 368
v 191.315 0.832 -40.019
v 220.095 0.832 -20.598
v 214.105 0.832 -11.721
v 185.325 0.832 -31.142
v 191.315 4.732 -40.019
v 220.095 4.732 -20.598
v 214.105 4.732 -11.721
v 185.325 4.732 -31.142
f 376 375 374 373
f 369 370 374 373
f 370 371 375 374
f 371 372 376 375
f 372 369 373 376
v 206.386 0.910 -18.728
v 235.091 0.910 1.034
v 228.734 0.910 10.268
v 200.029 0.910 -9.494
v 206.386 4.810 -18.728
v 235.091 4.810 1.034
v 228.734 4.810 10.268
v 200.029 4.810 -9.494
f 384 383 382 381
f 377 378 382 381
f 378 379 383 382
f 379 380 384 383
f 380 377 381 384
v 219.969 0.796 0.730
v 248.218 0.796 21.461
v 241.651 0.796 30.410
v 213.402 0.796 9.679
v 219.969 4.696 0.730
v 248.218 4.696 21.461
v 241.651 4.696 30.410
v 213.402 4.696 9.679
f 392 391 390 389
f 385 386 390 389
f 386 387 391 390
f 387 388 392 391
f 388 385 389 392
v 240.966 0.862 -42.891
v 270.897 0.862 -24.100
v 264.474 0.862 -13.869
v 234.543 0.862 -32.660
v 240.966 4.762 -42.891
v 270.897 4.762 -24.100
v 264.474 4.762 -13.869
v 234.543 4.762 -32.660
f 400 399 398 397
f 393 394 398 397
f 394 395 399 398
f 395 396 400 399
f 396 393 397 400
v 226.665 1.179 -64.038
v 255.674 1.179 -46.382
v 250.075 1.179 -37.182
v 221.066 1.179 -54.838
v 226.665 5.079 -64.038
v 255.674 5.079 -46.382
v 250.075 5.079 -37.182
v 221.066 5.079 -54.838
f 408 407 406 405
f 401 402 406 405
f 402 403 407 406
f 403 404 408 407
f 404 401 405 408
v 220.206 1.024 -153.850
v 222.205 1.024 -143.236
v 214.314 1.024 -141.750
v 212.315 1.024 -152.364
v 220.206 4.924 -153.850
v 222.205 4.924 -143.236
v 214.314 4.924 -141.750
v 212.315 4.924 -152.364
f 416 415 414 413
f 409 410 414 413
f 410 411 415 414
f 411 412 416 415
f 412 409 413 416
v 184.442 0.972 -107.521
v 187.788 0.972 -98.087
v 183.198 0.972 -96.459
v 179.852 0.972 -105.893
v 184.442 4.872 -107.521
v 187.788 4.872 -98.087
v 183.198 4.872 -96.459
v 179.852 4.872 -105.893
f 424 423 422 421
f 417 418 422 421
f 418 419 423 422
f 419 420 424 423
f 420 417 421 424
v 65.617 1.412 -74.157
v 81.271 1.412 -16.691
v 32.343 1.412 -3.363
v 16.689 1.412 -60.829
v 65.617 9.712 -74.157
v 81.271 9.712 -16.691
v 32.343 9.712 -3.363
v 16.689 9.712 -60.829
f 432 431 430 429
f 425 426 430 429
f 426 427 431 430
f 427 428 432 431
f 428 425 429 432
v -193.816 0.925 36.881
v -187.090 0.925 40.869
v -189.824 0.925 45.479
v -196.550 0.925 41.491
v -193.816 4.825 36.881
v -187.090 4.825 40.869
v -189.824 4.825 45.479
v -196.550 4.825 41.491
f 440 439 438 437
f 433 434 438 437
f 434 435 439 438
f 435 436 440 439
f 436 433 437 440
v -192.887 0.941 52.482
v -191.369 0.941 46.357
v -185.313 0.941 47.858
v -186.831 0.941 53.983
v -192.887 4.841 52.482
v -191.369 4.841 46.357
v -185.313 4.841 47.858
v -186.831 4.841 53.983
f 448 447 446 445
f 441 442 446 445
f 442 443 447 446
f 443 444 448 447
f 444 441 445 448
v -188.831 0.944 52.513
v -179.606 0.944 54.698
v -181.409 0.944 62.307
v -190.634 0.944 60.122
v -188.831 4.844 52.513
v -179.606 4.844 54.698
v -181.409 4.844 62.307
v -190.634 4.844 60.122
f 456 455 454 453
f 449 450 454 453
f 450 451 455 454
f 451 452 456 455
f 452 449 453 456
v -178.874 0.950 28.151
v -172.172 0.950 32.556
v -176.506 0.950 39.149
v -183.208 0.950 34.744
v -178.874 4.850 28.151
v -172.172 4.850 32.556
v -176.506 4.850 39.149
v -183.208 4.850 34.744
f 464 463 462 461
f 457 458 462 461
f 458 459 463 462
f 459 460 464 463
f 460 457 461 464
v 51.215 1.744 3.887
v 53.527 1.744 28.057
v 40.805 1.744 29.273
v 38.493 1.744 5.103
v 51.215 5.644 3.887
v 53.527 5.644 28.057
v 40.805 5.644 29.273
v 38.493 5.644 5.103
f 472 471 470 469
f 465 466 470 469
f 466 467 471 470
f 467 468 472 471
f 468 465 469 472
v -31.462 1.038 43.900
v -3.423 1.038 66.013
v -11.678 1.038 76.480
v -39.717 1.038 54.367
v -31.462 4.938 43.900
v -3.423 4.938 66.013
v -11.678 4.938 76.480
v -39.717 4.938 54.367
f 480 479 478 477
f 473 474 478 477
f 474 475 479 478
f 475 476 480 479
f 476 473 477 480
v -65.933 0.963 66.749
v -38.409 0.963 89.421
v -46.687 0.963 99.471
v -74.211 0.963 76.799
v -65.933 4.863 66.749
v -38.409 4.863 89.421
v -46.687 4.863 99.471
v -74.211 4.863 76.799
f 488 487 486 485
f 481 482 486 485
f 482 483 487 486
f 483 484 488 487
f 484 481 485 488
v 101.572 0.784 60.758
v 139.705 0.784 4.299
v 145.928 0.784 8.502
v 107.795 0.784 64.961
v 101.572 6.584 60.758
v 139.705 6.584 4.299
v 145.928 6.584 8.502
v 107.795 6.584 64.961
f 496 495 494 493
f 489 490 494 493
f 490 491 495 494
f 491 492 496 495
f 492 489 493 496
v -209.866 0.931 92.669
v -194.537 0.931 104.656
v -202.274 0.931 114.551
v -217.603 0.931 102.564
v -209.866 4.831 92.669
v -194.537 4.831 104.656
v -202.274 4.831 114.551
v -217.603 4.831 102.564
f 504 503 502 501
f 497 498 502 501
f 498 499 503 502
f 499 500 504 503
f 500 497 501 504
v -210.198 0.573 93.111
v -195.805 0.573 70.932
v -185.362 0.573 77.709
v -199.755 0.573 99.888
v -210.198 4.473 93.111
v -195.805 4.473 70.932
v -185.362 4.473 77.709
v -199.755 4.473 99.888
f 512 511 510 509
f 505 506 510 509
f 506 507 511 510
f 507 508 512 511
f 508 505 509 512
v -211.703 0.696 145.735
v -202.414 0.696 132.597
v -190.297 0.696 141.165
v -199.586 0.696 154.303
v -211.703 4.596 145.735
v -202.414 4.596 132.597
v -190.297 4.596 141.165
v -199.586 4.596 154.303
f 520 519 518 517
f 513 514 518 517
f 514 515 519 518
f 515 516 520 519
f 516 513 517 520
v -184.691 0.514 135.910
v -173.784 0.514 117.964
v -161.829 0.514 125.230
v -172.736 0.514 143.176
v -184.691 4.414 135.910
v -173.784 4.414 117.964
v -161.829 4.414 125.230
v -172.736 4.414 143.176
f 528 527 526 525
f 521 522 526 525
f 522 523 527 526
f 523 524 528 527
f 524 521 525 528
v -195.463 0.303 138.410
v -189.029 0.303 128.686
v -180.197 0.303 134.530
v -186.631 0.303 144.254
v -195.463 4.203 138.410
v -189.029 4.203 128.686
v -180.197 4.203 134.530
v -186.631 4.203 144.254
f 536 535 534 533
f 529 530 534 533
f 530 531 535 534
f 531 532 536 535
f 532 529 533 536
v -248.814 -0.300 45.546
v -210.054 -0.300 69.530
v -221.046 -0.300 87.294
v -259.806 -0.300 63.310
v -248.814 5.500 45.546
v -210.054 5.500 69.530
v -221.046 5.500 87.294
v -259.806 5.500 63.310
f 544 543 542 541
f 537 538 542 541
f 538 539 543 542
f 539 540 544 543
f 540 537 541 544
v -244.381 0.576 239.498
v -235.826 0.576 243.984
v -240.219 0.576 252.362
v -248.774 0.576 247.876
v -244.381 4.476 239.498
v -235.826 4.476 243.984
v -240.219 4.476 252.362
v -248.774 4.476 247.876
f 552 551 550 549
f 545 546 550 549
f 546 547 551 550
f 547 548 552 551
f 548 545 549 552
v -249.542 -0.029 237.732
v -243.991 -0.029 241.394
v -246.178 -0.029 244.708
v -251.729 -0.029 241.046
v -249.542 3.871 237.732
v -243.991 3.871 241.394
v -246.178 3.871 244.708
v -251.729 3.871 241.046
f 560 559 558 557
f 553 554 558 557
f 554 555 559 558
f 555 556 560 559
f 556 553 557 560
v -249.215 0.778 229.265
v -225.428 0.778 201.594
v -209.025 0.778 215.695
v -232.812 0.778 243.366
v -249.215 6.578 229.265
v -225.428 6.578 201.594
v -209.025 6.578 215.695
v -232.812 6.578 243.366
f 568 567 566 565
f 561 562 566 565
f 562 563 567 566
f 563 564 568 567
f 564 561 565 568
v -213.246 0.421 197.992
v -202.152 0.421 181.798
v -191.774 0.421 188.908
v -202.868 0.421 205.102
v -213.246 4.321 197.992
v -202.152 4.321 181.798
v -191.774 4.321 188.908
v -202.868 4.321 205.102
f 576 575 574 573
f 569 570 574 573
f 570 571 575 574
f 571 572 576 575
f 572 569 573 576
v -218.751 0.232 209.028
v -213.644 0.232 201.508
v -209.309 0.232 204.452
v -214.416 0.232 211.972
v -218.751 4.132 209.028
v -213.644 4.132 201.508
v -209.309 4.132 204.452
v -214.416 4.132 211.972
f 584 583 582 581
f 577 578 582 581
f 578 579 583 582
f 579 580 584 583
f 580 577 581 584
v -224.215 0.401 213.883
v -218.691 0.401 206.081
v -214.545 0.401 209.017
v -220.069 0.401 216.819
v -224.215 4.301 213.883
v -218.691 4.301 206.081
v -214.545 4.301 209.017
v -220.069 4.301 216.819
f 592 591 590 589
f 585 586 590 589
f 586 587 591 590
f 587 588 592 591
f 588 585 589 592
v -217.085 0.578 223.269
v -211.614 0.578 215.150
v -207.575 0.578 217.871
v -213.046 0.578 225.990
v -217.085 4.478 223.269
v -211.614 4.478 215.150
v -207.575 4.478 217.871
v -213.046 4.478 225.990
f 600 599 598 597
f 593 594 598 597
f 594 595 599 598
f 595 596 600 599
f 596 593 597 600
v -211.573 0.478 219.501
v -206.218 0.478 211.127
v -201.727 0.478 213.999
v -207.082 0.478 222.373
v -211.573 4.378 219.501
v -206.218 4.378 211.127
v -201.727 4.378 213.999
v -207.082 4.378 222.373
f 608 607 606 605
f 601 602 606 605
f 602 603 607 606
f 603 604 608 607
f 604 601 605 608
v -205.749 0.519 217.022
v -200.331 0.519 208.748
v -196.131 0.519 211.498
v -201.549 0.519 219.772
v -205.749 4.419 217.022
v -200.331 4.419 208.748
v -196.131 4.419 211.498
v -201.549 4.419 219.772
f 616 615 614 613
f 609 610 614 613
f 610 611 615 614
f 611 612 616 615
f 612 609 613 616
v -201.237 0.541 216.066
v -187.948 0.541 223.947
v -193.503 0.541 233.314
v -206.792 0.541 225.433
v -201.237 4.441 216.066
v -187.948 4.441 223.947
v -193.503 4.441 233.314
v -206.792 4.441 225.433
f 624 623 622 621
f 617 618 622 621
f 618 619 623 622
f 619 620 624 623
f 620 617 621 624
v -187.860 0.760 219.678
v -173.450 0.760 230.042
v -179.160 0.760 237.982
v -193.570 0.760 227.618
v -187.860 4.660 219.678
v -173.450 4.660 230.042
v -179.160 4.660 237.982
v -193.570 4.660 227.618
f 632 631 630 629
f 625 626 630 629
f 626 627 631 630
f 627 628 632 631
f 628 625 629 632
v -204.073 0.261 240.064
v -199.899 0.261 233.941
v -196.767 0.261 236.076
v -200.941 0.261 242.199
v -204.073 4.161 240.064
v -199.899 4.161 233.941
v -196.767 4.161 236.076
v -200.941 4.161 242.199
f 640 639 638 637
f 633 634 638 637
f 634 635 639 638
f 635 636 640 639
f 636 633 637 640
v -210.531 0.442 246.499
v -205.467 0.442 239.548
v -199.849 0.442 243.641
v -204.913 0.442 250.592
v -210.531 4.342 246.499
v -205.467 4.342 239.548
v -199.849 4.342 243.641
v -204.913 4.342 250.592
f 648 647 646 645
f 641 642 646 645
f 642 643 647 646
f 643 644 648 647
f 644 641 645 648
v -193.627 0.631 235.833
v -173.091 0.631 234.205
v -171.873 0.631 249.567
v -192.409 0.631 251.195
v -193.627 4.531 235.833
v -173.091 4.531 234.205
v -171.873 4.531 249.567
v -192.409 4.531 251.195
f 656 655 654 653
f 649 650 654 653
f 650 651 655 654
f 651 652 656 655
f 652 649 653 656
v -175.270 0.473 242.779
v -160.407 0.473 251.998
v -163.870 0.473 257.581
v -178.733 0.473 248.362
v -175.270 4.373 242.779
v -160.407 4.373 251.998
v -163.870 4.373 257.581
v -178.733 4.373 248.362
f 664 663 662 661
f 657 658 662 661
f 658 659 663 662
f 659 660 664 663
f 660 657 661 664
v -46.673 0.511 240.168
v -39.449 0.511 229.311
v -34.187 0.511 232.812
v -41.411 0.511 243.669
v -46.673 4.411 240.168
v -39.449 4.411 229.311
v -34.187 4.411 232.812
v -41.411 4.411 243.669
f 672 671 670 669
f 665 666 670 669
f 666 667 671 670
f 667 668 672 671
f 668 665 669 672
v -53.189 0.545 244.175
v -46.643 0.545 234.357
v -40.511 0.545 238.445
v -47.057 0.545 248.263
v -53.189 4.445 244.175
v -46.643 4.445 234.357
v -40.511 4.445 238.445
v -47.057 4.445 248.263
f 680 679 678 677
f 673 674 678 677
f 674 675 679 678
f 675 676 680 679
f 676 673 677 680
v -56.333 0.728 234.142
v -52.234 0.728 228.029
v -47.807 0.728 230.998
v -51.906 0.728 237.111
v -56.333 4.628 234.142
v -52.234 4.628 228.029
v -47.807 4.628 230.998
v -51.906 4.628 237.111
f 688 687 686 685
f 681 682 686 685
f 682 683 687 686
f 683 684 688 687
f 684 681 685 688
v -60.681 -0.300 219.431
v -55.446 -0.300 221.785
v -57.759 -0.300 226.929
v -62.994 -0.300 224.575
v -60.681 3.600 219.431
v -55.446 3.600 221.785
v -57.759 3.600 226.929
v -62.994 3.600 224.575
f 696 695 694 693
f 689 690 694 693
f 690 691 695 694
f 691 692 696 695
f 692 689 693 696
v -74.661 0.876 245.838
v -61.786 0.876 223.043
v -51.059 0.876 229.102
v -63.934 0.876 251.897
v -74.661 4.776 245.838
v -61.786 4.776 223.043
v -51.059 4.776 229.102
v -63.934 4.776 251.897
f 704 703 702 701
f 697 698 702 701
f 698 699 703 702
f 699 700 704 703
f 700 697 701 704
v -89.239 0.605 257.092
v -72.577 0.605 232.603
v -61.341 0.605 240.248
v -78.003 0.605 264.737
v -89.239 4.505 257.092
v -72.577 4.505 232.603
v -61.341 4.505 240.248
v -78.003 4.505 264.737
f 712 711 710 709
f 705 706 710 709
f 706 707 711 710
f 707 708 712 711
f 708 705 709 712
v -99.171 0.698 263.510
v -96.147 0.698 241.860
v -78.469 0.698 244.330
v -81.493 0.698 265.980
v -99.171 4.598 263.510
v -96.147 4.598 241.860
v -78.469 4.598 244.330
v -81.493 4.598 265.980
f 720 719 718 717
f 713 714 718 717
f 714 715 719 718
f 715 716 720 719
f 716 713 717 720
v -107.376 0.571 249.549
v -97.980 0.571 255.663
v -102.164 0.571 262.091
v -111.560 0.571 255.977
v -107.376 4.471 249.549
v -97.980 4.471 255.663
v -102.164 4.471 262.091
v -111.560 4.471 255.977
f 728 727 726 725
f 721 722 726 725
f 722 723 727 726
f 723 724 728 727
f 724 721 725 728
v -123.252 0.777 247.606
v -118.948 0.777 241.137
v -116.068 0.777 243.054
v -120.372 0.777 249.523
v -123.252 4.677 247.606
v -118.948 4.677 241.137
v -116.068 4.677 243.054
v -120.372 4.677 249.523
f 736 735 734 733
f 729 730 734 733
f 730 731 735 734
f 731 732 736 735
f 732 729 733 736
v -136.224 0.620 238.757
v -123.997 0.620 246.753
v -127.456 0.620 252.043
v -139.683 0.620 244.047
v -136.224 4.520 238.757
v -123.997 4.520 246.753
v -127.456 4.520 252.043
v -139.683 4.520 244.047
f 744 743 742 741
f 737 738 742 741
f 738 739 743 742
f 739 740 744 743
f 740 737 741 744
v -142.308 0.811 232.574
v -131.169 0.811 239.657
v -134.952 0.811 245.606
v -146.091 0.811 238.523
v -142.308 4.711 232.574
v -131.169 4.711 239.657
v -134.952 4.711 245.606
v -146.091 4.711 238.523
f 752 751 750 749
f 745 746 750 749
f 746 747 751 750
f 747 748 752 751
f 748 745 749 752
v -128.612 0.625 235.312
v -120.527 0.625 223.192
v -113.248 0.625 228.048
v -121.333 0.625 240.168
v -128.612 4.525 235.312
v -120.527 4.525 223.192
v -113.248 4.525 228.048
v -121.333 4.525 240.168
f 760 759 758 757
f 753 754 758 757
f 754 755 759 758
f 755 756 760 759
f 756 753 757 760
v -121.607 0.407 242.993
v -116.016 0.407 219.325
v -101.953 0.407 222.647
v -107.544 0.407 246.315
v -121.607 4.307 242.993
v -116.016 4.307 219.325
v -101.953 4.307 222.647
v -107.544 4.307 246.315
f 768 767 766 765
f 761 762 766 765
f 762 763 767 766
f 763 764 768 767
f 764 761 765 768
v -97.093 0.686 229.343
v -83.372 0.686 235.694
v -86.447 0.686 242.337
v -100.168 0.686 235.986
v -97.093 4.586 229.343
v -83.372 4.586 235.694
v -86.447 4.586 242.337
v -100.168 4.586 235.986
f 776 775 774 773
f 769 770 774 773
f 770 771 775 774
f 771 772 776 775
f 772 769 773 776
v -91.203 -0.203 229.799
v -89.076 -0.203 226.613
v -86.997 -0.203 228.001
v -89.124 -0.203 231.187
v -91.203 3.697 229.799
v -89.076 3.697 226.613
v -86.997 3.697 228.001
v -89.124 3.697 231.187
f 784 783 782 781
f 777 778 782 781
f 778 779 783 782
f 779 780 784 783
f 780 777 781 784
v -83.636 1.364 199.137
v -70.937 1.364 205.711
v -76.804 1.364 217.043
v -89.503 1.364 210.469
v -83.636 5.264 199.137
v -70.937 5.264 205.711
v -76.804 5.264 217.043
v -89.503 5.264 210.469
f 792 791 790 789
f 785 786 790 789
f 786 787 791 790
f 787 788 792 791
f 788 785 789 792
v -71.215 0.804 214.828
v -66.628 0.804 207.959
v -62.445 0.804 210.752
v -67.032 0.804 217.621
v -71.215 4.704 214.828
v -66.628 4.704 207.959
v -62.445 4.704 210.752
v -67.032 4.704 217.621
f 800 799 798 797
f 793 794 798 797
f 794 795 799 798
f 795 796 800 799
f 796 793 797 800
v -65.487 0.594 210.999
v -60.972 0.594 204.261
v -56.793 0.594 207.061
v -61.308 0.594 213.799
v -65.487 4.494 210.999
v -60.972 4.494 204.261
v -56.793 4.494 207.061
v -61.308 4.494 213.799
f 808 807 806 805
f 801 802 806 805
f 802 803 807 806
f 803 804 808 807
f 804 801 805 808
v -58.719 0.430 191.807
v -51.391 0.430 167.581
v -32.641 0.430 173.253
v -39.969 0.430 197.479
v -58.719 4.330 191.807
v -51.391 4.330 167.581
v -32.641 4.330 173.253
v -39.969 4.330 197.479
f 816 815 814 813
f 809 810 814 813
f 810 811 815 814
f 811 812 816 815
f 812 809 813 816
v -37.872 0.595 224.660
v -28.486 0.595 210.727
v -17.928 0.595 217.840
v -27.314 0.595 231.773
v -37.872 7.395 224.660
v -28.486 7.395 210.727
v -17.928 7.395 217.840
v -27.314 7.395 231.773
f 824 823 822 821
f 817 818 822 821
f 818 819 823 822
f 819 820 824 823
f 820 817 821 824
v -40.715 0.551 232.969
v -34.826 0.551 224.132
v -29.725 0.551 227.531
v -35.614 0.551 236.368
v -40.715 4.451 232.969
v -34.826 4.451 224.132
v -29.725 4.451 227.531
v -35.614 4.451 236.368
f 832 831 830 829
f 825 826 830 829
f 826 827 831 830
f 827 828 832 831
f 828 825 829 832
v -48.410 0.793 219.767
v -44.236 0.793 213.548
v -39.670 0.793 216.613
v -43.844 0.793 222.832
v -48.410 4.693 219.767
v -44.236 4.693 213.548
v -39.670 4.693 216.613
v -43.844 4.693 222.832
f 840 839 838 837
f 833 834 838 837
f 834 835 839 838
f 835 836 840 839
f 836 833 837 840
v -44.369 1.442 194.232
v -25.631 1.442 204.528
v -33.191 1.442 218.288
v -51.929 1.442 207.992
v -44.369 5.342 194.232
v -25.631 5.342 204.528
v -33.191 5.342 218.288
v -51.929 5.342 207.992
f 848 847 846 845
f 841 842 846 845
f 842 843 847 846
f 843 844 848 847
f 844 841 845 848
v -192.800 0.449 173.575
v -176.738 0.449 164.475
v -167.860 0.449 180.145
v -183.922 0.449 189.245
v -192.800 4.349 173.575
v -176.738 4.349 164.475
v -167.860 4.349 180.145
v -183.922 4.349 189.245
f 856 855 854 853
f 849 850 854 853
f 850 851 855 854
f 851 852 856 855
f 852 849 853 856
v -153.343 0.604 202.801
v -136.555 0.604 213.260
v -146.697 0.604 229.539
v -163.485 0.604 219.080
v -153.343 4.504 202.801
v -136.555 4.504 213.260
v -146.697 4.504 229.539
v -163.485 4.504 219.080
f 864 863 862 861
f 857 858 862 861
f 858 859 863 862
f 859 860 864 863
f 860 857 861 864
v -15.497 0.293 164.187
v -2.506 0.293 174.617
v -8.203 0.293 181.713
v -21.194 0.293 171.283
v -15.497 4.193 164.187
v -2.506 4.193 174.617
v -8.203 4.193 181.713
v -21.194 4.193 171.283
f 872 871 870 869
f 865 866 870 869
f 866 867 871 870
f 867 868 872 871
f 868 865 869 872
v -23.165 0.411 155.107
v -10.957 0.411 163.060
v -15.995 0.411 170.793
v -28.203 0.411 162.840
v -23.165 4.311 155.107
v -10.957 4.311 163.060
v -15.995 4.311 170.793
v -28.203 4.311 162.840
f 880 879 878 877
f 873 874 878 877
f 874 875 879 878
f 875 876 880 879
f 876 873 877 880
v -7.012 0.739 157.320
v 1.264 0.739 144.642
v 8.952 0.739 149.660
v 0.676 0.739 162.338
v -7.012 4.639 157.320
v 1.264 4.639 144.642
v 8.952 4.639 149.660
v 0.676 4.639 162.338
f 888 887 886 885
f 881 882 886 885
f 882 883 887 886
f 883 884 888 887
f 884 881 885 888
v 10.625 0.539 141.852
v 17.028 0.539 130.046
v 28.095 0.539 136.048
v 21.692 0.539 147.854
v 10.625 4.439 141.852
v 17.028 4.439 130.046
v 28.095 4.439 136.048
v 21.692 4.439 147.854
f 896 895 894 893
f 889 890 894 893
f 890 891 895 894
f 891 892 896 895
f 892 889 893 896
v 20.121 0.381 150.692
v 22.523 0.381 147.198
v 25.679 0.381 149.368
v 23.277 0.381 152.862
v 20.121 4.281 150.692
v 22.523 4.281 147.198
v 25.679 4.281 149.368
v 23.277 4.281 152.862
f 904 903 902 901
f 897 898 902 901
f 898 899 903 902
f 899 900 904 903
f 900 897 901 904
v 31.271 0.425 137.705
v 34.875 0.425 140.050
v 33.309 0.425 142.455
v 29.705 0.425 140.110
v 31.271 4.325 137.705
v 34.875 4.325 140.050
v 33.309 4.325 142.455
v 29.705 4.325 140.110
f 912 911 910 909
f 905 906 910 909
f 906 907 911 910
f 907 908 912 911
f 908 905 909 912
v 21.421 0.499 134.696
v 29.649 0.499 123.246
v 36.519 0.499 128.184
v 28.291 0.499 139.634
v 21.421 4.399 134.696
v 29.649 4.399 123.246
v 36.519 4.399 128.184
v 28.291 4.399 139.634
f 920 919 918 917
f 913 914 918 917
f 914 915 919 918
f 915 916 920 919
f 916 913 917 920
v 32.837 0.599 130.457
v 41.609 0.599 116.968
v 48.123 0.599 121.203
v 39.351 0.599 134.692
v 32.837 4.499 130.457
v 41.609 4.499 116.968
v 48.123 4.499 121.203
v 39.351 4.499 134.692
f 928 927 926 925
f 921 922 926 925
f 922 923 927 926
f 923 924 928 927
f 924 921 925 928
v 62.134 0.423 108.067
v 70.403 0.423 94.815
v 78.446 0.423 99.833
v 70.177 0.423 113.085
v 62.134 4.323 108.067
v 70.403 4.323 94.815
v 78.446 4.323 99.833
v 70.177 4.323 113.085
f 936 935 934 933
f 929 930 934 933
f 930 931 935 934
f 931 932 936 935
f 932 929 933 936
v 40.694 0.422 117.762
v 46.356 0.422 109.242
v 54.326 0.422 114.538
v 48.664 0.422 123.058
v 40.694 4.322 117.762
v 46.356 4.322 109.242
v 54.326 4.322 114.538
v 48.664 4.322 123.058
f 944 943 942 941
f 937 938 942 941
f 938 939 943 942
f 939 940 944 943
f 940 937 941 944
v 55.850 0.293 141.273
v 59.021 0.293 137.190
v 62.930 0.293 140.227
v 59.759 0.293 144.310
v 55.850 4.193 141.273
v 59.021 4.193 137.190
v 62.930 4.193 140.227
v 59.759 4.193 144.310
f 952 951 950 949
f 945 946 950 949
f 946 947 951 950
f 947 948 952 951
f 948 945 949 952
v 68.963 0.402 148.458
v 79.549 0.402 133.372
v 89.397 0.402 140.282
v 78.811 0.402 155.368
v 68.963 4.302 148.458
v 79.549 4.302 133.372
v 89.397 4.302 140.282
v 78.811 4.302 155.368
f 960 959 958 957
f 953 954 958 957
f 954 955 959 958
f 955 956 960 959
f 956 953 957 960
v 66.639 0.250 157.145
v 73.516 0.250 146.826
v 79.141 0.250 150.575
v 72.264 0.250 160.894
v 66.639 4.150 157.145
v 73.516 4.150 146.826
v 79.141 4.150 150.575
v 72.264 4.150 160.894
f 968 967 966 965
f 961 962 966 965
f 962 963 967 966
f 963 964 968 967
f 964 961 965 968
v 54.038 0.223 163.070
v 63.165 0.223 149.384
v 70.162 0.223 154.050
v 61.035 0.223 167.736
v 54.038 4.123 163.070
v 63.165 4.123 149.384
v 70.162 4.123 154.050
v 61.035 4.123 167.736
f 976 975 974 973
f 969 970 974 973
f 970 971 975 974
f 971 972 976 975
f 972 969 973 976
v 28.196 0.780 162.376
v 32.905 0.780 155.335
v 37.044 0.780 158.104
v 32.335 0.780 165.145
v 28.196 4.680 162.376
v 32.905 4.680 155.335
v 37.044 4.680 158.104
v 32.335 4.680 165.145
f 984 983 982 981
f 977 978 982 981
f 978 979 983 982
f 979 980 984 983
f 980 977 981 984
v 35.727 -0.236 179.039
v 44.506 -0.236 167.261
v 53.173 -0.236 173.721
v 44.394 -0.236 185.499
v 35.727 3.664 179.039
v 44.506 3.664 167.261
v 53.173 3.664 173.721
v 44.394 3.664 185.499
f 992 991 990 989
f 985 986 990 989
f 986 987 991 990
f 987 988 992 991
f 988 985 989 992
v 24.998 0.554 182.505
v 32.426 0.554 170.696
v 40.882 0.554 176.015
v 33.454 0.554 187.824
v 24.998 4.454 182.505
v 32.426 4.454 170.696
v 40.882 4.454 176.015
v 33.454 4.454 187.824
f 1000 999 998 997
f 993 994 998 997
f 994 995 999 998
f 995 996 1000 999
f 996 993 997 1000
v -10.606 0.529 179.294
v 2.365 0.529 187.779
v -2.074 0.529 194.566
v -15.045 0.529 186.081
v -10.606 4.429 179.294
v 2.365 4.429 187.779
v -2.074 4.429 194.566
v -15.045 4.429 186.081
f 1008 1007 1006 1005
f 1001 1002 1006 1005
f 1002 1003 1007 1006
f 1003 1004 1008 1007
f 1004 1001 1005 1008
v 16.402 0.143 169.193
v 19.391 0.143 164.732
v 22.398 0.143 166.747
v 19.409 0.143 171.208
v 16.402 4.043 169.193
v 19.391 4.043 164.732
v 22.398 4.043 166.747
v 19.409 4.043 171.208
f 1016 1015 1014 1013
f 1009 1010 1014 1013
f 1010 1011 1015 1014
f 1011 1012 1016 1015
f 1012 1009 1013 1016
v 10.200 0.069 175.365
v 15.709 0.069 167.152
v 21.140 0.069 170.795
v 15.631 0.069 179.008
v 10.200 3.969 175.365
v 15.709 3.969 167.152
v 21.140 3.969 170.795
v 15.631 3.969 179.008
f 1024 1023 1022 1021
f 1017 1018 1022 1021
f 1018 1019 1023 1022
f 1019 1020 1024 1023
f 1020 1017 1021 1024
v 4.853 0.502 198.251
v 14.410 0.502 183.891
v 19.547 0.502 187.309
v 9.990 0.502 201.669
v 4.853 4.402 198.251
v 14.410 4.402 183.891
v 19.547 4.402 187.309
v 9.990 4.402 201.669
f 1032 1031 1030 1029
f 1025 1026 1030 1029
f 1026 1027 1031 1030
f 1027 1028 1032 1031
f 1028 1025 1029 1032
v 12.634 0.282 194.916
v 20.599 0.282 182.956
v 25.626 0.282 186.304
v 17.661 0.282 198.264
v 12.634 4.182 194.916
v 20.599 4.182 182.956
v 25.626 4.182 186.304
v 17.661 4.182 198.264
f 1040 1039 1038 1037
f 1033 1034 1038 1037
f 1034 1035 1039 1038
f 1035 1036 1040 1039
f 1036 1033 1037 1040
v -185.672 1.282 -247.542
v -169.810 1.282 -248.298
v -169.408 1.282 -239.858
v -185.270 1.282 -239.102
v -185.672 5.182 -247.542
v -169.810 5.182 -248.298
v -169.408 5.182 -239.858
v -185.270 5.182 -239.102
f 1048 1047 1046 1045
f 1041 1042 1046 1045
f 1042 1043 1047 1046
f 1043 1044 1048 1047
f 1044 1041 1045 1048
v -131.975 0.673 151.652
v -114.751 0.673 125.998
v -102.165 0.673 134.448
v -119.389 0.673 160.102
v -131.975 4.573 151.652
v -114.751 4.573 125.998
v -102.165 4.573 134.448
v -119.389 4.573 160.102
f 1056 1055 1054 1053
f 1049 1050 1054 1053
f 1050 1051 1055 1054
f 1051 1052 1056 1055
f 1052 1049 1053 1056
v -132.646 0.632 207.460
v -125.964 0.632 197.978
v -121.534 0.632 201.100
v -128.216 0.632 210.582
v -132.646 4.532 207.460
v -125.964 4.532 197.978
v -121.534 4.532 201.100
v -128.216 4.532 210.582
f 1064 1063 1062 1061
f 1057 1058 1062 1061
f 1058 1059 1063 1062
f 1059 1060 1064 1063
f 1060 1057 1061 1064
v -217.285 0.143 168.520
v -213.371 0.143 163.021
v -209.355 0.143 165.880
v -213.269 0.143 171.379
v -217.285 4.043 168.520
v -213.371 4.043 163.021
v -209.355 4.043 165.880
v -213.269 4.043 171.379
f 1072 1071 1070 1069
f 1065 1066 1070 1069
f 1066 1067 1071 1070
f 1067 1068 1072 1071
f 1068 1065 1069 1072
v 186.105 0.406 73.054
v 200.539 0.406 34.167
v 220.095 0.406 41.426
v 205.661 0.406 80.313
v 186.105 4.306 73.054
v 200.539 4.306 34.167
v 220.095 4.306 41.426
v 205.661 4.306 80.313
f 1080 1079 1078 1077
f 1073 1074 1078 1077
f 1074 1075 1079 1078
f 1075 1076 1080 1079
f 1076 1073 1077 1080
v 128.152 0.842 -12.252
v 147.989 0.842 1.732
v 141.588 0.842 10.812
v 121.751 0.842 -3.172
v 128.152 4.742 -12.252
v 147.989 4.742 1.732
v 141.588 4.742 10.812
v 121.751 4.742 -3.172
f 1088 1087 1086 1085
f 1081 1082 1086 1085
f 1082 1083 1087 1086
f 1083 1084 1088 1087
f 1084 1081 1085 1088
v 151.694 0.598 -7.245
v 155.698 0.598 -11.940
v 158.026 0.598 -9.955
v 154.022 0.598 -5.260
v 151.694 4.498 -7.245
v 155.698 4.498 -11.940
v 158.026 4.498 -9.955
v 154.022 4.498 -5.260
f 1096 1095 1094 1093
f 1089 1090 1094 1093
f 1090 1091 1095 1094
f 1091 1092 1096 1095
f 1092 1089 1093 1096
v 131.610 0.847 -11.221
v 134.649 0.847 -15.317
v 138.150 0.847 -12.719
v 135.111 0.847 -8.623
v 131.610 4.747 -11.221
v 134.649 4.747 -15.317
v 138.150 4.747 -12.719
v 135.111 4.747 -8.623
f 1104 1103 1102 1101
f 1097 1098 1102 1101
f 1098 1099 1103 1102
f 1099 1100 1104 1103
f 1100 1097 1101 1104
v 111.850 0.885 -10.543
v 131.433 0.885 2.319
v 128.370 0.885 6.983
v 108.787 0.885 -5.879
v 111.850 4.785 -10.543
v 131.433 4.785 2.319
v 128.370 4.785 6.983
v 108.787 4.785 -5.879
f 1112 1111 1110 1109
f 1105 1106 1110 1109
f 1106 1107 1111 1110
f 1107 1108 1112 1111
f 1108 1105 1109 1112
v -12.828 0.575 234.180
v 4.406 0.575 245.611
v -0.972 0.575 253.720
v -18.206 0.575 242.289
v -12.828 7.375 234.180
v 4.406 7.375 245.611
v -0.972 7.375 253.720
v -18.206 7.375 242.289
f 1120 1119 1118 1117
f 1113 1114 1118 1117
f 1114 1115 1119 1118
f 1115 1116 1120 1119
f 1116 1113 1117 1120
v 136.158 0.833 255.019
v 148.469 0.833 241.970
v 156.302 0.833 249.361
v 143.991 0.833 262.410
v 136.158 4.733 255.019
v 148.469 4.733 241.970
v 156.302 4.733 249.361
v 143.991 4.733 262.410
f 1128 1127 1126 1125
f 1121 1122 1126 1125
f 1122 1123 1127 1126
f 1123 1124 1128 1127
f 1124 1121 1125 1128
v 233.735 1.293 247.950
v 244.548 1.293 215.568
v 259.705 1.293 220.630
v 248.892 1.293 253.012
v 233.735 5.193 247.950
v 244.548 5.193 215.568
v 259.705 5.193 220.630
v 248.892 5.193 253.012
f 1136 1135 1134 1133
f 1129 1130 1134 1133
f 1130 1131 1135 1134
f 1131 1132 1136 1135
f 1132 1129 1133 1136
v 225.573 0.978 247.078
v 239.708 0.978 225.566
v 245.667 0.978 229.482
v 231.532 0.978 250.994
v 225.573 4.878 247.078
v 239.708 4.878 225.566
v 245.667 4.878 229.482
v 231.532 4.878 250.994
f 1144 1143 1142 1141
f 1137 1138 1142 1141
f 1138 1139 1143 1142
f 1139 1140 1144 1143
f 1140 1137 1141 1144
v 220.290 0.888 243.238
v 227.529 0.888 232.381
v 233.170 0.888 236.142
v 225.931 0.888 246.999
v 220.290 4.788 243.238
v 227.529 4.788 232.381
v 233.170 4.788 236.142
v 225.931 4.788 246.999
f 1152 1151 1150 1149
f 1145 1146 1150 1149
f 1146 1147 1151 1150
f 1147 1148 1152 1151
f 1148 1145 1149 1152
v 196.208 0.992 256.403
v 203.052 0.992 245.563
v 211.372 0.992 250.817
v 204.528 0.992 261.657
v 196.208 4.892 256.403
v 203.052 4.892 245.563
v 211.372 4.892 250.817
v 204.528 4.892 261.657
f 1160 1159 1158 1157
f 1153 1154 1158 1157
f 1154 1155 1159 1158
f 1155 1156 1160 1159
f 1156 1153 1157 1160
v 210.611 1.011 255.142
v 213.406 1.011 238.100
v 226.689 1.011 240.278
v 223.894 1.011 257.320
v 210.611 4.911 255.142
v 213.406 4.911 238.100
v 226.689 4.911 240.278
v 223.894 4.911 257.320
f 1168 1167 1166 1165
f 1161 1162 1166 1165
f 1162 1163 1167 1166
f 1163 1164 1168 1167
f 1164 1161 1165 1168
v 140.085 1.002 219.339
v 145.960 1.002 222.682
v 143.275 1.002 227.401
v 137.400 1.002 224.058
v 140.085 4.902 219.339
v 145.960 4.902 222.682
v 143.275 4.902 227.401
v 137.400 4.902 224.058
f 1176 1175 1174 1173
f 1169 1170 1174 1173
f 1170 1171 1175 1174
f 1171 1172 1176 1175
f 1172 1169 1173 1176
v 148.348 0.126 214.099
v 153.319 0.126 217.369
v 150.352 0.126 221.881
v 145.381 0.126 218.611
v 148.348 4.026 214.099
v 153.319 4.026 217.369
v 150.352 4.026 221.881
v 145.381 4.026 218.611
f 1184 1183 1182 1181
f 1177 1178 1182 1181
f 1178 1179 1183 1182
f 1179 1180 1184 1183
f 1180 1177 1181 1184
v 127.579 0.633 206.313
v 146.486 0.633 218.213
v 141.581 0.633 226.007
v 122.674 0.633 214.107
v 127.579 4.533 206.313
v 146.486 4.533 218.213
v 141.581 4.533 226.007
v 122.674 4.533 214.107
f 1192 1191 1190 1189
f 1185 1186 1190 1189
f 1186 1187 1191 1190
f 1187 1188 1192 1191
f 1188 1185 1189 1192
v 105.693 0.977 205.386
v 118.307 0.977 192.447
v 127.587 0.977 201.494
v 114.973 0.977 214.433
v 105.693 4.877 205.386
v 118.307 4.877 192.447
v 127.587 4.877 201.494
v 114.973 4.877 214.433
f 1200 1199 1198 1197
f 1193 1194 1198 1197
f 1194 1195 1199 1198
f 1195 1196 1200 1199
f 1196 1193 1197 1200
v 123.233 0.795 188.182
v 143.920 0.795 192.584
v 139.487 0.795 213.418
v 118.800 0.795 209.016
v 123.233 4.695 188.182
v 143.920 4.695 192.584
v 139.487 4.695 213.418
v 118.800 4.695 209.016
f 1208 1207 1206 1205
f 1201 1202 1206 1205
f 1202 1203 1207 1206
f 1203 1204 1208 1207
f 1204 1201 1205 1208
v 102.471 0.619 200.621
v 110.778 0.619 205.472
v 106.149 0.619 213.399
v 97.842 0.619 208.548
v 102.471 4.519 200.621
v 110.778 4.519 205.472
v 106.149 4.519 213.399
v 97.842 4.519 208.548
f 1216 1215 1214 1213
f 1209 1210 1214 1213
f 1210 1211 1215 1214
f 1211 1212 1216 1215
f 1212 1209 1213 1216
v 102.417 0.584 221.141
v 109.781 0.584 209.305
v 118.323 0.584 214.619
v 110.959 0.584 226.455
v 102.417 4.484 221.141
v 109.781 4.484 209.305
v 118.323 4.484 214.619
v 110.959 4.484 226.455
f 1224 1223 1222 1221
f 1217 1218 1222 1221
f 1218 1219 1223 1222
f 1219 1220 1224 1223
f 1220 1217 1221 1224
v 83.003 0.519 226.115
v 90.977 0.519 210.886
v 98.117 0.519 214.625
v 90.143 0.519 229.854
v 83.003 4.419 226.115
v 90.977 4.419 210.886
v 98.117 4.419 214.625
v 90.143 4.419 229.854
f 1232 1231 1230 1229
f 1225 1226 1230 1229
f 1226 1227 1231 1230
f 1227 1228 1232 1231
f 1228 1225 1229 1232
v 76.974 0.601 230.400
v 85.430 0.601 218.181
v 89.706 0.601 221.140
v 81.250 0.601 233.359
v 76.974 4.501 230.400
v 85.430 4.501 218.181
v 89.706 4.501 221.140
v 81.250 4.501 233.359
f 1240 1239 1238 1237
f 1233 1234 1238 1237
f 1234 1235 1239 1238
f 1235 1236 1240 1239
f 1236 1233 1237 1240
v 95.347 0.903 244.876
v 99.290 0.903 230.404
v 108.833 0.903 233.004
v 104.890 0.903 247.476
v 95.347 4.803 244.876
v 99.290 4.803 230.404
v 108.833 4.803 233.004
v 104.890 4.803 247.476
f 1248 1247 1246 1245
f 1241 1242 1246 1245
f 1242 1243 1247 1246
f 1243 1244 1248 1247
f 1244 1241 1245 1248
v 57.122 0.693 243.826
v 65.678 0.693 230.128
v 71.258 0.693 233.614
v 62.702 0.693 247.312
v 57.122 4.593 243.826
v 65.678 4.593 230.128
v 71.258 4.593 233.614
v 62.702 4.593 247.312
f 1256 1255 1254 1253
f 1249 1250 1254 1253
f 1250 1251 1255 1254
f 1251 1252 1256 1255
f 1252 1249 1253 1256
v 34.483 0.787 241.104
v 47.511 0.787 248.993
v 43.077 0.787 256.316
v 30.049 0.787 248.427
v 34.483 4.687 241.104
v 47.511 4.687 248.993
v 43.077 4.687 256.316
v 30.049 4.687 248.427
f 1264 1263 1262 1261
f 1257 1258 1262 1261
f 1258 1259 1263 1262
f 1259 1260 1264 1263
f 1260 1257 1261 1264
v 38.021 0.777 245.930
v 55.947 0.777 257.782
v 51.419 0.777 264.630
v 33.493 0.777 252.778
v 38.021 4.677 245.930
v 55.947 4.677 257.782
v 51.419 4.677 264.630
v 33.493 4.677 252.778
f 1272 1271 1270 1269
f 1265 1266 1270 1269
f 1266 1267 1271 1270
f 1267 1268 1272 1271
f 1268 1265 1269 1272
v 86.044 1.065 253.102
v 93.522 1.065 241.220
v 99.556 1.065 245.018
v 92.078 1.065 256.900
v 86.044 4.965 253.102
v 93.522 4.965 241.220
v 99.556 4.965 245.018
v 92.078 4.965 256.900
f 1280 1279 1278 1277
f 1273 1274 1278 1277
f 1274 1275 1279 1278
f 1275 1276 1280 1279
f 1276 1273 1277 1280
v 13.645 0.740 228.535
v 33.995 0.740 220.498
v 38.635 0.740 232.245
v 18.285 0.740 240.282
v 13.645 7.540 228.535
v 33.995 7.540 220.498
v 38.635 7.540 232.245
v 18.285 7.540 240.282
f 1288 1287 1286 1285
f 1281 1282 1286 1285
f 1282 1283 1287 1286
f 1283 1284 1288 1287
f 1284 1281 1285 1288
v 26.452 0.550 238.576
v 31.913 0.550 238.017
v 32.168 0.550 240.504
v 26.707 0.550 241.063
v 26.452 4.450 238.576
v 31.913 4.450 238.017
v 32.168 4.450 240.504
v 26.707 4.450 241.063
f 1296 1295 1294 1293
f 1289 1290 1294 1293
f 1290 1291 1295 1294
f 1291 1292 1296 1295
f 1292 1289 1293 1296
v 29.026 0.570 224.216
v 36.795 0.570 211.513
v 46.034 0.570 217.164
v 38.265 0.570 229.867
v 29.026 4.470 224.216
v 36.795 4.470 211.513
v 46.034 4.470 217.164
v 38.265 4.470 229.867
f 1304 1303 1302 1301
f 1297 1298 1302 1301
f 1298 1299 1303 1302
f 1299 1300 1304 1303
f 1300 1297 1301 1304
v 40.087 0.665 222.087
v 46.572 0.665 206.102
v 57.053 0.665 210.353
v 50.568 0.665 226.338
v 40.087 4.565 222.087
v 46.572 4.565 206.102
v 57.053 4.565 210.353
v 50.568 4.565 226.338
f 1312 1311 1310 1309
f 1305 1306 1310 1309
f 1306 1307 1311 1310
f 1307 1308 1312 1311
f 1308 1305 1309 1312
v 54.432 0.516 213.256
v 64.654 0.516 195.440
v 72.608 0.516 200.004
v 62.386 0.516 217.820
v 54.432 4.416 213.256
v 64.654 4.416 195.440
v 72.608 4.416 200.004
v 62.386 4.416 217.820
f 1320 1319 1318 1317
f 1313 1314 1318 1317
f 1314 1315 1319 1318
f 1315 1316 1320 1319
f 1316 1313 1317 1320
v 63.521 0.477 201.299
v 69.757 0.477 187.602
v 77.839 0.477 191.281
v 71.603 0.477 204.978
v 63.521 4.377 201.299
v 69.757 4.377 187.602
v 77.839 4.377 191.281
v 71.603 4.377 204.978
f 1328 1327 1326 1325
f 1321 1322 1326 1325
f 1322 1323 1327 1326
f 1323 1324 1328 1327
f 1324 1321 1325 1328
v 72.465 0.600 204.182
v 81.654 0.600 197.199
v 87.535 0.600 204.938
v 78.346 0.600 211.921
v 72.465 4.500 204.182
v 81.654 4.500 197.199
v 87.535 4.500 204.938
v 78.346 4.500 211.921
f 1336 1335 1334 1333
f 1329 1330 1334 1333
f 1330 1331 1335 1334
f 1331 1332 1336 1335
f 1332 1329 1333 1336
v 82.880 0.587 201.940
v 87.317 0.587 195.452
v 92.740 0.587 199.160
v 88.303 0.587 205.648
v 82.880 4.487 201.940
v 87.317 4.487 195.452
v 92.740 4.487 199.160
v 88.303 4.487 205.648
f 1344 1343 1342 1341
f 1337 1338 1342 1341
f 1338 1339 1343 1342
f 1339 1340 1344 1343
f 1340 1337 1341 1344
v 73.806 0.387 190.261
v 84.920 0.387 178.612
v 92.474 0.387 185.819
v 81.360 0.387 197.468
v 73.806 4.287 190.261
v 84.920 4.287 178.612
v 92.474 4.287 185.819
v 81.360 4.287 197.468
f 1352 1351 1350 1349
f 1345 1346 1350 1349
f 1346 1347 1351 1350
f 1347 1348 1352 1351
f 1348 1345 1349 1352
v 86.421 1.177 190.333
v 91.822 1.177 175.613
v 102.599 1.177 179.567
v 97.198 1.177 194.287
v 86.421 5.077 190.333
v 91.822 5.077 175.613
v 102.599 5.077 179.567
v 97.198 5.077 194.287
f 1360 1359 1358 1357
f 1353 1354 1358 1357
f 1354 1355 1359 1358
f 1355 1356 1360 1359
f 1356 1353 1357 1360
v 109.952 0.583 184.530
v 114.329 0.583 178.232
v 117.548 0.583 180.470
v 113.171 0.583 186.768
v 109.952 4.483 184.530
v 114.329 4.483 178.232
v 117.548 4.483 180.470
v 113.171 4.483 186.768
f 1368 1367 1366 1365
f 1361 1362 1366 1365
f 1362 1363 1367 1366
f 1363 1364 1368 1367
f 1364 1361 1365 1368
v 96.205 1.264 182.148
v 104.356 1.264 169.556
v 110.375 1.264 173.452
v 102.224 1.264 186.044
v 96.205 5.164 182.148
v 104.356 5.164 169.556
v 110.375 5.164 173.452
v 102.224 5.164 186.044
f 1376 1375 1374 1373
f 1369 1370 1374 1373
f 1370 1371 1375 1374
f 1371 1372 1376 1375
f 1372 1369 1373 1376
v 99.405 0.632 173.202
v 115.312 0.632 156.645
v 127.795 0.632 168.638
v 111.888 0.632 185.195
v 99.405 4.532 173.202
v 115.312 4.532 156.645
v 127.795 4.532 168.638
v 111.888 4.532 185.195
f 1384 1383 1382 1381
f 1377 1378 1382 1381
f 1378 1379 1383 1382
f 1379 1380 1384 1383
f 1380 1377 1381 1384
v 125.386 0.360 156.404
v 130.386 0.360 143.745
v 140.794 0.360 147.856
v 135.794 0.360 160.515
v 125.386 4.260 156.404
v 130.386 4.260 143.745
v 140.794 4.260 147.856
v 135.794 4.260 160.515
f 1392 1391 1390 1389
f 1385 1386 1390 1389
f 1386 1387 1391 1390
f 1387 1388 1392 1391
f 1388 1385 1389 1392
v 141.886 0.808 148.133
v 152.419 0.808 135.212
v 160.534 0.808 141.827
v 150.001 0.808 154.748
v 141.886 4.708 148.133
v 152.419 4.708 135.212
v 160.534 4.708 141.827
v 150.001 4.708 154.748
f 1400 1399 1398 1397
f 1393 1394 1398 1397
f 1394 1395 1399 1398
f 1395 1396 1400 1399
f 1396 1393 1397 1400
v 151.611 0.515 148.437
v 165.687 0.515 129.682
v 173.549 0.515 135.583
v 159.473 0.515 154.338
v 151.611 4.415 148.437
v 165.687 4.415 129.682
v 173.549 4.415 135.583
v 159.473 4.415 154.338
f 1408 1407 1406 1405
f 1401 1402 1406 1405
f 1402 1403 1407 1406
f 1403 1404 1408 1407
f 1404 1401 1405 1408
v 158.586 0.716 138.135
v 169.903 0.716 122.687
v 177.954 0.716 128.585
v 166.637 0.716 144.033
v 158.586 4.616 138.135
v 169.903 4.616 122.687
v 177.954 4.616 128.585
v 166.637 4.616 144.033
f 1416 1415 1414 1413
f 1409 1410 1414 1413
f 1410 1411 1415 1414
f 1411 1412 1416 1415
f 1412 1409 1413 1416
v 167.342 0.300 130.211
v 177.411 0.300 117.089
v 186.558 0.300 124.109
v 176.489 0.300 137.231
v 167.342 4.200 130.211
v 177.411 4.200 117.089
v 186.558 4.200 124.109
v 176.489 4.200 137.231
f 1424 1423 1422 1421
f 1417 1418 1422 1421
f 1418 1419 1423 1422
f 1419 1420 1424 1423
f 1420 1417 1421 1424
v 181.682 0.202 110.722
v 190.225 0.202 116.146
v 185.518 0.202 123.558
v 176.975 0.202 118.134
v 181.682 4.102 110.722
v 190.225 4.102 116.146
v 185.518 4.102 123.558
v 176.975 4.102 118.134
f 1432 1431 1430 1429
f 1425 1426 1430 1429
f 1426 1427 1431 1430
f 1427 1428 1432 1431
f 1428 1425 1429 1432
v 197.617 0.756 122.739
v 203.477 0.756 114.822
v 210.663 0.756 120.141
v 204.803 0.756 128.058
v 197.617 4.656 122.739
v 203.477 4.656 114.822
v 210.663 4.656 120.141
v 204.803 4.656 128.058
f 1440 1439 1438 1437
f 1433 1434 1438 1437
f 1434 1435 1439 1438
f 1435 1436 1440 1439
f 1436 1433 1437 1440
v 183.739 0.906 111.542
v 198.688 0.906 104.348
v 203.861 0.906 115.098
v 188.912 0.906 122.292
v 183.739 4.806 111.542
v 198.688 4.806 104.348
v 203.861 4.806 115.098
v 188.912 4.806 122.292
f 1448 1447 1446 1445
f 1441 1442 1446 1445
f 1442 1443 1447 1446
f 1443 1444 1448 1447
f 1444 1441 1445 1448
v 209.814 0.940 105.758
v 219.806 0.940 112.618
v 214.406 0.940 120.482
v 204.414 0.940 113.622
v 209.814 4.840 105.758
v 219.806 4.840 112.618
v 214.406 4.840 120.482
v 204.414 4.840 113.622
f 1456 1455 1454 1453
f 1449 1450 1454 1453
f 1450 1451 1455 1454
f 1451 1452 1456 1455
f 1452 1449 1453 1456
v 198.341 0.732 97.336
v 213.283 0.732 96.862
v 213.759 0.732 111.844
v 198.817 0.732 112.318
v 198.341 4.632 97.336
v 213.283 4.632 96.862
v 213.759 4.632 111.844
v 198.817 4.632 112.318
f 1464 1463 1462 1461
f 1457 1458 1462 1461
f 1458 1459 1463 1462
f 1459 1460 1464 1463
f 1460 1457 1461 1464
v 205.061 0.745 97.616
v 217.660 0.745 89.946
v 223.479 0.745 99.504
v 210.880 0.745 107.174
v 205.061 4.645 97.616
v 217.660 4.645 89.946
v 223.479 4.645 99.504
v 210.880 4.645 107.174
f 1472 1471 1470 1469
f 1465 1466 1470 1469
f 1466 1467 1471 1470
f 1467 1468 1472 1471
f 1468 1465 1469 1472
v 221.878 0.542 81.966
v 232.417 0.542 88.872
v 227.462 0.542 96.434
v 216.923 0.542 89.528
v 221.878 4.442 81.966
v 232.417 4.442 88.872
v 227.462 4.442 96.434
v 216.923 4.442 89.528
f 1480 1479 1478 1477
f 1473 1474 1478 1477
f 1474 1475 1479 1478
f 1475 1476 1480 1479
f 1476 1473 1477 1480
v 225.350 0.478 94.752
v 239.983 0.478 102.527
v 235.530 0.478 110.908
v 220.897 0.478 103.133
v 225.350 4.378 94.752
v 239.983 4.378 102.527
v 235.530 4.378 110.908
v 220.897 4.378 103.133
f 1488 1487 1486 1485
f 1481 1482 1486 1485
f 1482 1483 1487 1486
f 1483 1484 1488 1487
f 1484 1481 1485 1488
v 227.650 0.461 107.046
v 254.669 0.461 114.239
v 249.510 0.461 133.614
v 222.491 0.461 126.421
v 227.650 4.361 107.046
v 254.669 4.361 114.239
v 249.510 4.361 133.614
v 222.491 4.361 126.421
f 1496 1495 1494 1493
f 1489 1490 1494 1493
f 1490 1491 1495 1494
f 1491 1492 1496 1495
f 1492 1489 1493 1496
v 243.688 0.205 130.169
v 260.132 0.205 137.367
v 256.952 0.205 144.631
v 240.508 0.205 137.433
v 243.688 4.105 130.169
v 260.132 4.105 137.367
v 256.952 4.105 144.631
v 240.508 4.105 137.433
f 1504 1503 1502 1501
f 1497 1498 1502 1501
f 1498 1499 1503 1502
f 1499 1500 1504 1503
f 1500 1497 1501 1504
v 243.818 0.481 136.273
v 266.607 0.481 146.454
v 262.402 0.481 155.867
v 239.613 0.481 145.686
v 243.818 4.381 136.273
v 266.607 4.381 146.454
v 262.402 4.381 155.867
v 239.613 4.381 145.686
f 1512 1511 1510 1509
f 1505 1506 1510 1509
f 1506 1507 1511 1510
f 1507 1508 1512 1511
f 1508 1505 1509 1512
v 231.816 0.648 144.237
v 239.001 0.648 148.230
v 235.504 0.648 154.523
v 228.319 0.648 150.530
v 231.816 4.548 144.237
v 239.001 4.548 148.230
v 235.504 4.548 154.523
v 228.319 4.548 150.530
f 1520 1519 1518 1517
f 1513 1514 1518 1517
f 1514 1515 1519 1518
f 1515 1516 1520 1519
f 1516 1513 1517 1520
v 203.362 0.379 139.547
v 209.976 0.379 130.213
v 215.198 0.379 133.913
v 208.584 0.379 143.247
v 203.362 4.279 139.547
v 209.976 4.279 130.213
v 215.198 4.279 133.913
v 208.584 4.279 143.247
f 1528 1527 1526 1525
f 1521 1522 1526 1525
f 1522 1523 1527 1526
f 1523 1524 1528 1527
f 1524 1521 1525 1528
v 195.044 0.386 149.772
v 203.844 0.386 136.075
v 211.896 0.386 141.248
v 203.096 0.386 154.945
v 195.044 4.286 149.772
v 203.844 4.286 136.075
v 211.896 4.286 141.248
v 203.096 4.286 154.945
f 1536 1535 1534 1533
f 1529 1530 1534 1533
f 1530 1531 1535 1534
f 1531 1532 1536 1535
f 1532 1529 1533 1536
v 187.806 0.343 155.472
v 197.363 0.343 141.716
v 202.734 0.343 145.448
v 193.177 0.343 159.204
v 187.806 4.243 155.472
v 197.363 4.243 141.716
v 202.734 4.243 145.448
v 193.177 4.243 159.204
f 1544 1543 1542 1541
f 1537 1538 1542 1541
f 1538 1539 1543 1542
f 1539 1540 1544 1543
f 1540 1537 1541 1544
v 180.828 0.316 159.225
v 189.560 0.316 145.901
v 195.532 0.316 149.815
v 186.800 0.316 163.139
v 180.828 4.216 159.225
v 189.560 4.216 145.901
v 195.532 4.216 149.815
v 186.800 4.216 163.139
f 1552 1551 1550 1549
f 1545 1546 1550 1549
f 1546 1547 1551 1550
f 1547 1548 1552 1551
f 1548 1545 1549 1552
v 193.460 0.304 164.682
v 196.795 0.304 159.563
v 200.440 0.304 161.938
v 197.105 0.304 167.057
v 193.460 4.204 164.682
v 196.795 4.204 159.563
v 200.440 4.204 161.938
v 197.105 4.204 167.057
f 1560 1559 1558 1557
f 1553 1554 1558 1557
f 1554 1555 1559 1558
f 1555 1556 1560 1559
f 1556 1553 1557 1560
v 173.189 0.628 168.267
v 183.837 0.628 151.219
v 190.071 0.628 155.113
v 179.423 0.628 172.161
v 173.189 4.528 168.267
v 183.837 4.528 151.219
v 190.071 4.528 155.113
v 179.423 4.528 172.161
f 1568 1567 1566 1565
f 1561 1562 1566 1565
f 1562 1563 1567 1566
f 1563 1564 1568 1567
f 1564 1561 1565 1568
v 162.160 0.464 171.913
v 172.425 0.464 158.287
v 178.000 0.464 162.487
v 167.735 0.464 176.113
v 162.160 4.364 171.913
v 172.425 4.364 158.287
v 178.000 4.364 162.487
v 167.735 4.364 176.113
f 1576 1575 1574 1573
f 1569 1570 1574 1573
f 1570 1571 1575 1574
f 1571 1572 1576 1575
f 1572 1569 1573 1576
v 156.239 0.461 174.992
v 164.218 0.461 163.696
v 169.021 0.461 167.088
v 161.042 0.461 178.384
v 156.239 4.361 174.992
v 164.218 4.361 163.696
v 169.021 4.361 167.088
v 161.042 4.361 178.384
f 1584 1583 1582 1581
f 1577 1578 1582 1581
f 1578 1579 1583 1582
f 1579 1580 1584 1583
f 1580 1577 1581 1584
v 155.655 0.761 177.181
v 168.281 0.761 187.091
v 162.545 0.761 194.399
v 149.919 0.761 184.489
v 155.655 4.661 177.181
v 168.281 4.661 187.091
v 162.545 4.661 194.399
v 149.919 4.661 184.489
f 1592 1591 1590 1589
f 1585 1586 1590 1589
f 1586 1587 1591 1590
f 1587 1588 1592 1591
f 1588 1585 1589 1592
v 160.044 0.689 186.760
v 175.782 0.689 191.716
v 172.556 0.689 201.960
v 156.818 0.689 197.004
v 160.044 4.589 186.760
v 175.782 4.589 191.716
v 172.556 4.589 201.960
v 156.818 4.589 197.004
f 1600 1599 1598 1597
f 1593 1594 1598 1597
f 1594 1595 1599 1598
f 1595 1596 1600 1599
f 1596 1593 1597 1600
v 175.217 1.144 186.121
v 180.347 1.144 178.959
v 186.323 1.144 183.239
v 181.193 1.144 190.401
v 175.217 5.044 186.121
v 180.347 5.044 178.959
v 186.323 5.044 183.239
v 181.193 5.044 190.401
f 1608 1607 1606 1605
f 1601 1602 1606 1605
f 1602 1603 1607 1606
f 1603 1604 1608 1607
f 1604 1601 1605 1608
v 182.689 0.586 184.355
v 190.807 0.586 172.802
v 198.211 0.586 178.005
v 190.093 0.586 189.558
v 182.689 4.486 184.355
v 190.807 4.486 172.802
v 198.211 4.486 178.005
v 190.093 4.486 189.558
f 1616 1615 1614 1613
f 1609 1610 1614 1613
f 1610 1611 1615 1614
f 1611 1612 1616 1615
f 1612 1609 1613 1616
v 197.841 0.486 176.263
v 202.568 0.486 169.600
v 208.399 0.486 173.737
v 203.672 0.486 180.400
v 197.841 4.386 176.263
v 202.568 4.386 169.600
v 208.399 4.386 173.737
v 203.672 4.386 180.400
f 1624 1623 1622 1621
f 1617 1618 1622 1621
f 1618 1619 1623 1622
f 1619 1620 1624 1623
f 1620 1617 1621 1624
v 194.177 0.359 171.507
v 197.461 0.359 173.399
v 195.643 0.359 176.553
v 192.359 0.359 174.661
v 194.177 4.259 171.507
v 197.461 4.259 173.399
v 195.643 4.259 176.553
v 192.359 4.259 174.661
f 1632 1631 1630 1629
f 1625 1626 1630 1629
f 1626 1627 1631 1630
f 1627 1628 1632 1631
f 1628 1625 1629 1632
v 215.808 0.405 178.006
v 224.946 0.405 164.885
v 234.752 0.405 171.714
v 225.614 0.405 184.835
v 215.808 4.305 178.006
v 224.946 4.305 164.885
v 234.752 4.305 171.714
v 225.614 4.305 184.835
f 1640 1639 1638 1637
f 1633 1634 1638 1637
f 1634 1635 1639 1638
f 1635 1636 1640 1639
f 1636 1633 1637 1640
v 218.887 0.431 204.121
v 227.784 0.431 187.844
v 236.813 0.431 192.779
v 227.916 0.431 209.056
v 218.887 4.331 204.121
v 227.784 4.331 187.844
v 236.813 4.331 192.779
v 227.916 4.331 209.056
f 1648 1647 1646 1645
f 1641 1642 1646 1645
f 1642 1643 1647 1646
f 1643 1644 1648 1647
f 1644 1641 1645 1648
v 214.746 0.543 208.973
v 222.633 0.543 197.357
v 227.654 0.543 200.767
v 219.767 0.543 212.383
v 214.746 4.443 208.973
v 222.633 4.443 197.357
v 227.654 4.443 200.767
v 219.767 4.443 212.383
f 1656 1655 1654 1653
f 1649 1650 1654 1653
f 1650 1651 1655 1654
f 1651 1652 1656 1655
f 1652 1649 1653 1656
v 200.404 0.406 210.373
v 210.765 0.406 194.244
v 219.456 0.406 199.827
v 209.095 0.406 215.956
v 200.404 4.306 210.373
v 210.765 4.306 194.244
v 219.456 4.306 199.827
v 209.095 4.306 215.956
f 1664 1663 1662 1661
f 1657 1658 1662 1661
f 1658 1659 1663 1662
f 1659 1660 1664 1663
f 1660 1657 1661 1664
v 189.710 0.922 220.409
v 197.600 0.922 204.253
v 208.490 0.922 209.571
v 200.600 0.922 225.727
v 189.710 4.822 220.409
v 197.600 4.822 204.253
v 208.490 4.822 209.571
v 200.600 4.822 225.727
f 1672 1671 1670 1669
f 1665 1666 1670 1669
f 1666 1667 1671 1670
f 1667 1668 1672 1671
f 1668 1665 1669 1672
v 185.253 0.614 229.212
v 193.808 0.614 216.371
v 198.427 0.614 219.448
v 189.872 0.614 232.289
v 185.253 4.514 229.212
v 193.808 4.514 216.371
v 198.427 4.514 219.448
v 189.872 4.514 232.289
f 1680 1679 1678 1677
f 1673 1674 1678 1677
f 1674 1675 1679 1678
f 1675 1676 1680 1679
f 1676 1673 1677 1680
v 176.047 0.962 232.150
v 184.406 0.962 219.491
v 190.673 0.962 223.630
v 182.314 0.962 236.289
v 176.047 4.862 232.150
v 184.406 4.862 219.491
v 190.673 4.862 223.630
v 182.314 4.862 236.289
f 1688 1687 1686 1685
f 1681 1682 1686 1685
f 1682 1683 1687 1686
f 1683 1684 1688 1687
f 1684 1681 1685 1688
v 167.879 -0.300 191.531
v 189.023 -0.300 205.642
v 184.161 -0.300 212.929
v 163.017 -0.300 198.818
v 167.879 3.600 191.531
v 189.023 3.600 205.642
v 184.161 3.600 212.929
v 163.017 3.600 198.818
f 1696 1695 1694 1693
f 1689 1690 1694 1693
f 1690 1691 1695 1694
f 1691 1692 1696 1695
f 1692 1689 1693 1696
v 243.751 1.228 -207.196
v 260.414 1.228 -206.706
v 259.929 1.228 -190.204
v 243.266 1.228 -190.694
v 243.751 5.128 -207.196
v 260.414 5.128 -206.706
v 259.929 5.128 -190.204
v 243.266 5.128 -190.694
f 1704 1703 1702 1701
f 1697 1698 1702 1701
f 1698 1699 1703 1702
f 1699 1700 1704 1703
f 1700 1697 1701 1704
v -227.450 0.354 190.505
v -211.722 0.354 201.092
v -214.430 0.354 205.115
v -230.158 0.354 194.528
v -227.450 4.254 190.505
v -211.722 4.254 201.092
v -214.430 4.254 205.115
v -230.158 4.254 194.528
f 1712 1711 1710 1709
f 1705 1706 1710 1709
f 1706 1707 1711 1710
f 1707 1708 1712 1711
f 1708 1705 1709 1712
v 3.686 1.504 -240.336
v 4.599 1.504 -231.503
v -1.966 1.504 -230.824
v -2.879 1.504 -239.657
v 3.686 5.404 -240.336
v 4.599 5.404 -231.503
v -1.966 5.404 -230.824
v -2.879 5.404 -239.657
f 1720 1719 1718 1717
f 1713 1714 1718 1717
f 1714 1715 1719 1718
f 1715 1716 1720 1719
f 1716 1713 1717 1720
v -24.743 1.475 -211.018
v -22.122 1.475 -211.234
v -21.917 1.475 -208.742
v -24.538 1.475 -208.526
v -24.743 5.375 -211.018
v -22.122 5.375 -211.234
v -21.917 5.375 -208.742
v -24.538 5.375 -208.526
f 1728 1727 1726 1725
f 1721 1722 1726 1725
f 1722 1723 1727 1726
f 1723 1724 1728 1727
f 1724 1721 1725 1728
v -158.280 -0.300 -12.419
v -129.814 -0.300 -57.185
v -126.160 -0.300 -54.861
v -154.626 -0.300 -10.095
v -158.280 3.600 -12.419
v -129.814 3.600 -57.185
v -126.160 3.600 -54.861
v -154.626 3.600 -10.095
f 1736 1735 1734 1733
f 1729 1730 1734 1733
f 1730 1731 1735 1734
f 1731 1732 1736 1735
f 1732 1729 1733 1736
usemtl road
v 125.748 0.961 -82.512
v 131.338 1.054 -86.222
v 129.402 1.059 -89.138
v 123.812 0.984 -85.428
f 1737 1738 1739 1740
v 131.339 1.054 -86.223
v 167.919 1.141 -110.553
v 165.981 1.175 -113.467
v 129.401 1.059 -89.137
f 1741 1742 1743 1744
v 167.917 1.141 -110.552
v 168.927 1.126 -111.222
v 166.993 1.173 -114.138
v 165.983 1.175 -113.468
f 1745 1746 1747 1748
v 168.783 1.127 -111.136
v 197.073 1.097 -126.216
v 195.427 1.159 -129.304
v 167.137 1.173 -114.224
f 1749 1750 1751 1752
v 196.466 1.095 -126.023
v 209.916 1.116 -127.693
v 209.484 1.160 -131.167
v 196.034 1.159 -129.497
f 1753 1754 1755 1756
v 209.274 1.111 -127.733
v 244.894 1.029 -118.803
v 245.746 1.133 -122.197
v 210.126 1.164 -131.127
f 1757 1758 1759 1760
v 244.133 1.036 -119.214
v 251.113 1.044 -112.774
v 253.487 1.111 -115.346
v 246.507 1.133 -121.786
f 1761 1762 1763 1764
v -147.774 1.145 10.235
v -142.234 1.088 18.165
v -137.726 1.089 15.015
v -143.266 1.149 7.085
f 1765 1766 1767 1768
v -142.235 1.088 18.164
v -133.475 1.020 30.714
v -128.965 1.018 27.566
v -137.725 1.089 15.016
f 1769 1770 1771 1772
v -133.475 1.020 30.714
v -99.345 0.907 79.594
v -94.835 0.865 76.446
v -128.965 1.018 27.566
f 1773 1774 1775 1776
v -99.381 0.907 79.541
v -88.651 0.788 95.711
v -84.069 0.687 92.669
v -94.799 0.865 76.499
f 1777 1778 1779 1780
v 89.402 0.535 110.352
v -24.418 0.702 185.952
v -22.482 0.685 188.868
v 91.338 0.571 113.268
f 1781 1782 1783 1784
v -49.717 1.725 -242.001
v -50.247 1.742 -232.811
v -46.753 1.755 -232.609
v -46.223 1.743 -241.799
f 1785 1786 1787 1788
v -50.247 1.742 -232.812
v -50.487 1.739 -228.702
v -46.993 1.739 -228.498
v -46.753 1.755 -232.608
f 1789 1790 1791 1792
v -50.485 1.739 -228.462
v -49.385 1.686 -214.512
v -45.895 1.672 -214.788
v -46.995 1.740 -228.738
f 1793 1794 1795 1796
v -49.232 1.678 -213.924
v -45.772 1.585 -206.334
v -42.588 1.616 -207.786
v -46.048 1.681 -215.376
f 1797 1798 1799 1800
v 70.481 0.490 90.543
v 74.871 0.448 92.943
v 77.509 0.497 88.117
v 73.119 0.577 85.717
f 1801 1802 1803 1804
v 73.902 0.454 92.055
v 88.082 0.474 113.335
v 92.658 0.467 110.285
v 78.478 0.468 89.005
f 1805 1806 1807 1808
v 88.114 0.474 113.382
v 109.154 0.575 143.572
v 113.666 0.515 140.428
v 92.626 0.467 110.238
f 1809 1810 1811 1812
v 109.153 0.575 143.571
v 114.033 0.649 150.581
v 118.547 0.636 147.439
v 113.667 0.515 140.429
f 1813 1814 1815 1816
v 114.034 0.649 150.583
v 117.554 0.539 155.633
v 122.066 0.511 152.487
v 118.546 0.636 147.437
f 1817 1818 1819 1820
v 117.553 0.539 155.631
v 133.463 0.746 178.491
v 137.977 0.663 175.349
v 122.067 0.511 152.489
f 1821 1822 1823 1824
v 133.422 0.746 178.431
v 180.732 1.124 250.391
v 185.328 1.121 247.369
v 138.018 0.663 175.409
f 1825 1826 1827 1828
v 180.766 1.125 250.441
v 182.166 1.108 252.471
v 186.694 1.090 249.349
v 185.294 1.121 247.319
f 1829 1830 1831 1832
v -45.161 1.553 -204.491
v -36.861 1.607 -201.321
v -34.899 1.640 -206.459
v -43.199 1.620 -209.629
f 1833 1834 1835 1836
v -36.184 1.610 -201.157
v 42.616 1.681 -192.387
v 43.224 1.596 -197.853
v -35.576 1.637 -206.623
f 1837 1838 1839 1840
v 42.453 1.677 -192.410
v 98.303 2.234 -182.780
v 99.237 2.308 -188.200
v 43.387 1.600 -197.830
f 1841 1842 1843 1844
v 98.303 2.234 -182.780
v 196.263 2.073 -165.910
v 197.197 2.186 -171.330
v 99.237 2.308 -188.200
f 1845 1846 1847 1848
v 20.900 0.997 253.200
v 136.670 0.751 178.390
v 134.770 0.759 175.450
v 19.000 0.957 250.260
f 1849 1850 1851 1852
v -153.606 0.797 240.865
v -39.596 0.708 163.475
v -42.684 0.682 158.925
v -156.694 0.767 236.315
f 1853 1854 1855 1856
v -39.605 0.708 163.482
v 67.355 0.541 91.532
v 64.285 0.529 86.968
v -42.675 0.682 158.918
f 1857 1858 1859 1860
v 66.326 0.548 91.953
v 72.306 0.477 90.833
v 71.294 0.581 85.427
v 65.314 0.532 86.547
f 1861 1862 1863 1864
v 211.938 2.420 -254.882
v 205.378 2.386 -223.452
v 210.762 2.233 -222.328
v 217.322 2.283 -253.758
f 1865 1866 1867 1868
v 205.378 2.386 -223.453
v 200.758 2.299 -201.353
v 206.142 2.173 -200.227
v 210.762 2.233 -222.327
f 1869 1870 1871 1872
v 200.758 2.299 -201.352
v 194.038 2.241 -169.182
v 199.422 2.134 -168.058
v 206.142 2.173 -200.228
f 1873 1874 1875 1876
v -59.408 1.607 -200.409
v -69.768 1.238 -90.809
v -64.292 1.243 -90.291
v -53.932 1.644 -199.891
f 1877 1878 1879 1880
v -69.763 1.238 -90.856
v -75.013 1.071 -43.926
v -69.547 1.085 -43.314
v -64.297 1.243 -90.244
f 1881 1882 1883 1884
v -75.013 1.071 -43.926
v -78.433 1.076 -13.366
v -72.967 1.096 -12.754
v -69.547 1.085 -43.314
f 1885 1886 1887 1888
v -78.438 1.076 -13.321
v -78.668 1.070 -10.911
v -73.192 1.107 -10.389
v -72.962 1.096 -12.799
f 1889 1890 1891 1892
v -78.668 1.070 -10.903
v -86.128 0.798 69.887
v -80.652 0.792 70.393
v -73.192 1.107 -10.397
f 1893 1894 1895 1896
v -86.119 0.798 69.803
v -89.089 0.818 93.853
v -83.631 0.669 94.527
v -80.661 0.791 70.477
f 1897 1898 1899 1900
v 232.671 0.628 70.214
v 227.771 0.531 62.934
v 223.209 0.516 66.006
v 228.109 0.596 73.286
f 1901 1902 1903 1904
v 227.765 0.531 62.925
v 138.605 0.921 -68.385
v 134.055 0.924 -65.295
v 223.215 0.516 66.015
f 1905 1906 1907 1908
v 138.610 0.921 -68.377
v 127.060 0.973 -85.507
v 122.500 0.982 -82.433
v 134.050 0.924 -65.303
f 1909 1910 1911 1912
v 127.063 0.973 -85.504
v 74.003 1.377 -164.474
v 69.437 1.421 -161.406
v 122.497 0.982 -82.436
f 1913 1914 1915 1916
v -1.071 0.810 226.827
v 17.049 0.960 253.687
v 22.851 0.873 249.773
v 4.731 0.786 222.913
f 1917 1918 1919 1920
v -203.224 0.531 173.691
v -157.414 0.768 240.151
v -152.886 0.725 237.029
v -198.696 0.547 170.569
f 1921 1922 1923 1924
v -231.757 0.772 247.044
v -254.547 0.595 213.102
v -257.453 0.583 215.053
v -234.663 0.787 248.996
f 1925 1926 1927 1928
v -146.603 0.489 131.822
v -153.393 0.451 136.422
v -149.467 0.513 142.218
v -142.677 0.501 137.618
f 1929 1930 1931 1932
v -153.358 0.451 136.399
v -181.938 0.390 155.259
v -178.082 0.287 161.101
v -149.502 0.515 142.241
f 1933 1934 1935 1936
v -181.950 0.390 155.267
v -202.900 0.470 169.217
v -199.020 0.485 175.043
v -178.070 0.286 161.093
f 1937 1938 1939 1940
v -202.927 0.470 169.235
v -257.967 0.576 206.628
v -254.033 0.594 212.418
v -198.993 0.484 175.025
f 1941 1942 1943 1944
v -67.211 1.263 -88.809
v 7.349 1.378 -81.049
v 7.711 1.362 -84.531
v -66.849 1.278 -92.291
f 1945 1946 1947 1948
v 7.314 1.379 -81.053
v 22.674 1.240 -79.143
v 23.106 1.273 -82.617
v 7.746 1.361 -84.527
f 1949 1950 1951 1952
v 22.675 1.240 -79.143
v 135.115 0.937 -65.213
v 135.545 0.926 -68.687
v 23.105 1.273 -82.617
f 1953 1954 1955 1956
v 135.139 0.938 -65.210
v 136.139 0.955 -65.100
v 136.521 0.924 -68.580
v 135.521 0.927 -68.690
f 1957 1958 1959 1960
v -252.979 0.866 99.309
v -242.569 0.751 115.169
v -237.971 0.643 112.151
v -248.381 0.855 96.291
f 1961 1962 1963 1964
v -242.568 0.751 115.170
v -232.018 0.653 131.230
v -227.422 0.617 128.210
v -237.972 0.643 112.150
f 1965 1966 1967 1968
v -231.996 0.653 131.263
v -226.396 0.551 139.523
v -221.844 0.486 136.437
v -227.444 0.618 128.177
f 1969 1970 1971 1972
v -226.394 0.551 139.526
v -223.994 0.547 143.056
v -219.446 0.495 139.964
v -221.846 0.486 136.434
f 1973 1974 1975 1976
v -223.996 0.547 143.053
v -206.626 0.437 168.673
v -202.074 0.404 165.587
v -219.444 0.495 139.967
f 1977 1978 1979 1980
v -206.626 0.437 168.673
v -203.236 0.531 173.673
v -198.684 0.548 170.587
v -202.074 0.404 165.587
f 1981 1982 1983 1984
v -238.363 0.758 137.745
v -228.733 0.607 131.165
v -230.707 0.648 128.275
v -240.337 0.758 134.855
f 1985 1986 1987 1988
v -249.726 0.860 99.267
v -216.086 0.849 77.387
v -217.994 0.851 74.453
v -251.634 0.873 96.333
f 1989 1990 1991 1992
v -218.503 0.847 76.881
v -208.233 0.789 92.511
v -205.307 0.803 90.589
v -215.577 0.841 74.959
f 1993 1994 1995 1996
v 118.813 0.571 152.736
v 170.313 0.689 117.866
v 165.267 0.708 110.414
v 113.767 0.645 145.284
f 1997 1998 1999 2000
v 170.314 0.689 117.866
v 204.174 0.639 94.926
v 199.126 0.606 87.474
v 165.266 0.708 110.414
f 2001 2002 2003 2004
v 204.174 0.639 94.926
v 213.254 0.605 88.776
v 208.206 0.575 81.324
v 199.126 0.606 87.474
f 2005 2006 2007 2008
v 213.251 0.605 88.778
v 224.121 0.583 81.428
v 219.079 0.540 73.972
v 208.209 0.575 81.322
f 2009 2010 2011 2012
v 224.123 0.583 81.427
v 232.913 0.529 75.477
v 227.867 0.594 68.023
v 219.077 0.540 73.973
f 2013 2014 2015 2016
v 100.543 1.925 -201.228
v 98.103 2.278 -190.488
v 101.517 2.290 -189.712
v 103.957 1.913 -200.452
f 2017 2018 2019 2020
v 98.103 2.279 -190.485
v 97.063 2.318 -185.875
v 100.477 2.332 -185.105
v 101.517 2.290 -189.715
f 2021 2022 2023 2024
v 59.972 1.784 -217.367
v 134.862 1.761 -203.967
v 135.478 1.778 -207.413
v 60.588 1.777 -220.813
f 2025 2026 2027 2028
v 133.433 1.767 -205.907
v 132.153 1.795 -195.647
v 135.627 1.790 -195.213
v 136.907 1.768 -205.473
f 2029 2030 2031 2032
v 134.185 1.779 -197.155
v 102.545 1.919 -202.565
v 101.955 1.942 -199.115
v 133.595 1.806 -193.705
f 2033 2034 2035 2036
v 102.544 1.919 -202.565
v 65.394 1.786 -208.905
v 64.806 1.858 -205.455
v 101.956 1.942 -199.115
f 2037 2038 2039 2040
v 66.127 1.797 -208.597
v 61.797 1.799 -211.737
v 59.743 1.891 -208.903
v 64.073 1.872 -205.763
f 2041 2042 2043 2044
v 62.273 1.799 -211.216
v 60.663 1.797 -213.916
v 57.657 1.849 -212.124
v 59.267 1.885 -209.424
f 2045 2046 2047 2048
v 60.881 1.799 -212.702
v 62.001 1.770 -218.772
v 58.559 1.787 -219.408
v 57.439 1.827 -213.338
f 2049 2050 2051 2052
v 256.378 1.716 -254.048
v 252.898 1.732 -254.819
v 252.142 1.724 -251.401
v 255.622 1.711 -250.631
f 2053 2054 2055 2056
v 252.576 1.733 -254.859
v 214.686 2.414 -256.069
v 214.574 2.391 -252.571
v 252.464 1.723 -251.361
f 2057 2058 2059 2060
v -71.305 0.801 115.829
v -67.195 0.766 111.529
v -69.725 0.742 109.111
v -73.835 0.796 113.411
f 2061 2062 2063 2064
v -67.196 0.766 111.530
v -61.406 0.841 105.480
v -63.934 0.799 103.060
v -69.724 0.742 109.110
f 2065 2066 2067 2068
v -61.697 0.841 105.724
v -3.057 1.154 66.484
v -5.003 0.977 63.576
v -63.643 0.798 102.816
f 2069 2070 2071 2072
v -3.208 1.152 66.575
v 52.782 1.728 36.785
v 51.138 1.745 33.695
v -4.852 0.979 63.485
f 2073 2074 2075 2076
v 53.152 1.740 36.521
v 65.982 1.631 24.581
v 63.598 1.760 22.019
v 50.768 1.735 33.959
f 2077 2078 2079 2080
v 66.534 1.614 23.443
v 68.144 1.472 3.863
v 64.656 1.589 3.577
v 63.046 1.772 23.157
f 2081 2082 2083 2084
v 5.786 1.397 -82.940
v 0.126 1.180 -17.340
v 3.614 1.103 -17.040
v 9.274 1.321 -82.640
f 2085 2086 2087 2088
v 1.714 1.221 -15.447
v 16.244 1.134 -14.147
v 16.556 1.129 -17.633
v 2.026 1.133 -18.933
f 2089 2090 2091 2092
v 18.141 1.154 -15.716
v 24.631 1.245 -80.706
v 21.149 1.248 -81.054
v 14.659 1.121 -16.064
f 2093 2094 2095 2096
v 15.036 1.126 -14.794
v 19.616 1.171 -9.094
v 22.344 1.231 -11.286
v 17.764 1.154 -16.986
f 2097 2098 2099 2100
v 20.799 1.226 -8.449
v 44.849 1.428 -5.949
v 45.211 1.337 -9.431
v 21.161 1.219 -11.931
f 2101 2102 2103 2104
v 46.771 1.337 -7.511
v 48.771 1.465 -27.011
v 45.289 1.444 -27.369
v 43.289 1.369 -7.869
f 2105 2106 2107 2108
v 169.237 0.697 113.155
v 164.997 0.581 106.925
v 162.103 0.600 108.895
v 166.343 0.695 115.125
f 2109 2110 2111 2112
v 164.996 0.581 106.924
v 157.996 1.262 96.664
v 155.104 1.255 98.636
v 162.104 0.600 108.896
f 2113 2114 2115 2116
v 157.985 1.262 96.648
v 103.195 1.086 18.178
v 100.325 1.130 20.182
v 155.115 1.255 98.652
f 2117 2118 2119 2120
v 203.134 0.618 90.272
v 198.844 0.499 83.412
v 195.876 0.496 85.268
v 200.166 0.626 92.128
f 2121 2122 2123 2124
v 198.784 0.498 83.323
v 192.234 0.933 74.153
v 189.386 0.974 76.187
v 195.936 0.496 85.357
f 2125 2126 2127 2128
v 192.538 0.905 74.891
v 191.698 1.056 69.681
v 188.242 1.141 70.239
v 189.082 1.005 75.449
f 2129 2130 2131 2132
v 190.941 1.040 71.416
v 201.621 0.865 64.296
v 199.679 0.917 61.384
v 188.999 1.159 68.504
f 2133 2134 2135 2136
v 202.090 0.861 61.846
v 177.850 0.995 26.726
v 174.970 1.033 28.714
v 199.210 0.921 63.834
f 2137 2138 2139 2140
v 175.803 0.999 26.079
v 150.623 1.166 35.389
v 151.837 1.174 38.671
v 177.017 1.026 29.361
f 2141 2142 2143 2144
v 246.863 0.866 154.703
v 205.653 0.873 164.053
v 206.427 0.827 167.467
v 247.637 1.045 158.117
f 2145 2146 2147 2148
v -222.698 0.536 140.059
v -227.758 0.586 143.469
v -225.802 0.554 146.371
v -220.742 0.531 142.961
f 2149 2150 2151 2152
v -227.756 0.586 143.467
v -237.876 0.789 150.267
v -235.924 0.784 153.173
v -225.804 0.554 146.373
f 2153 2154 2155 2156
v -237.877 0.789 150.268
v -256.977 0.931 163.129
v -255.023 0.961 166.032
v -235.923 0.784 153.172
f 2157 2158 2159 2160
v -255.034 0.860 189.869
v -228.354 0.843 172.209
v -230.286 0.908 169.291
v -256.966 0.909 186.951
f 2161 2162 2163 2164
v -227.643 0.856 171.249
v -226.463 0.901 167.279
v -229.817 0.909 166.281
v -230.997 0.906 170.251
f 2165 2166 2167 2168
v -226.460 0.901 166.289
v -228.110 0.877 160.639
v -231.470 0.902 161.621
v -229.820 0.909 167.271
f 2169 2170 2171 2172
v -228.394 0.873 160.075
v -235.504 0.735 150.665
v -238.296 0.818 152.775
v -231.186 0.903 162.185
f 2173 2174 2175 2176
v 233.002 0.530 75.414
v 238.542 0.520 71.464
v 233.318 0.603 64.136
v 227.778 0.594 68.086
f 2177 2178 2179 2180
v 238.539 0.520 71.467
v 258.609 0.674 57.186
v 253.391 0.707 49.853
v 233.321 0.603 64.133
f 2181 2182 2183 2184
v 4.313 0.782 228.623
v 9.693 0.765 225.063
v 4.727 0.733 217.557
v -0.653 0.760 221.117
f 2185 2186 2187 2188
v 9.696 0.766 225.061
v 113.466 0.486 156.271
v 108.494 0.617 148.769
v 4.724 0.733 217.559
f 2189 2190 2191 2192
v 113.461 0.487 156.274
v 118.771 0.571 152.764
v 113.809 0.644 145.256
v 108.499 0.617 148.766
f 2193 2194 2195 2196
v -89.260 0.784 96.150
v -84.670 0.736 102.940
v -78.870 0.629 99.020
v -83.460 0.682 92.230
f 2197 2198 2199 2200
v -84.672 0.736 102.937
v -75.472 0.775 116.577
v -69.668 0.740 112.663
v -78.868 0.629 99.023
f 2201 2202 2203 2204
v -75.471 0.775 116.578
v -46.631 0.673 159.318
v -40.829 0.622 155.402
v -69.669 0.740 112.662
f 2205 2206 2207 2208
v -46.632 0.673 159.317
v -44.042 0.672 163.157
v -38.238 0.651 159.243
v -40.828 0.622 155.403
f 2209 2210 2211 2212
v -44.041 0.672 163.158
v -26.351 0.706 189.368
v -20.549 0.600 185.452
v -38.239 0.651 159.242
f 2213 2214 2215 2216
v -26.351 0.706 189.368
v -1.071 0.810 226.828
v 4.731 0.786 222.912
v -20.549 0.600 185.452
f 2217 2218 2219 2220
v -48.286 1.748 -234.447
v -62.586 1.648 -236.207
v -63.014 1.678 -232.733
v -48.714 1.750 -230.973
f 2221 2222 2223 2224
v -62.588 1.648 -236.207
v -158.848 1.592 -247.967
v -159.272 1.619 -244.493
v -63.012 1.678 -232.733
f 2225 2226 2227 2228
v 256.286 1.504 -170.748
v 219.586 1.629 -176.836
v 219.014 1.640 -173.384
v 255.714 1.460 -167.295
f 2229 2230 2231 2232
v 220.914 1.612 -175.786
v 214.824 1.635 -190.336
v 211.596 1.695 -188.984
v 217.686 1.651 -174.434
f 2233 2234 2235 2236
v 214.526 1.640 -190.814
v 204.766 2.281 -201.944
v 202.134 2.304 -199.636
v 211.894 1.687 -188.506
f 2237 2238 2239 2240
v -149.960 0.436 138.370
v -153.690 0.476 132.600
v -156.630 0.476 134.500
v -152.900 0.448 140.270
f 2241 2242 2243 2244
v -153.689 0.476 132.601
v -173.769 0.745 101.471
v -176.711 0.725 103.369
v -156.631 0.476 134.499
f 2245 2246 2247 2248
v -173.770 0.745 101.471
v -197.410 0.967 64.831
v -200.350 0.871 66.729
v -176.710 0.725 103.369
f 2249 2250 2251 2252
v -223.090 0.535 139.395
v -174.210 0.736 103.835
v -176.270 0.734 101.005
v -225.150 0.536 136.565
f 2253 2254 2255 2256
v 24.631 1.245 -80.706
v 30.381 1.432 -138.366
v 26.899 1.447 -138.714
v 21.149 1.248 -81.054
f 2257 2258 2259 2260
v 30.381 1.432 -138.362
v 33.671 1.558 -170.622
v 30.189 1.555 -170.978
v 26.899 1.447 -138.718
f 2261 2262 2263 2264
v 77.079 1.423 -137.006
v 28.759 1.445 -140.286
v 28.521 1.438 -136.794
v 76.841 1.429 -133.514
f 2265 2266 2267 2268
v 184.971 1.107 251.793
v 257.941 0.839 203.180
v 254.059 0.825 197.355
v 181.089 1.092 245.967
f 2269 2270 2271 2272
v 248.644 0.605 98.888
v 243.824 0.526 102.128
v 245.776 0.598 105.032
v 250.596 0.611 101.792
f 2273 2274 2275 2276
v 243.824 0.526 102.128
v 134.744 0.759 175.468
v 136.696 0.750 178.372
v 245.776 0.598 105.032
f 2277 2278 2279 2280
v -66.805 1.277 -92.286
v -90.055 0.120 -95.296
v -90.505 0.120 -91.824
v -67.255 1.263 -88.814
f 2281 2282 2283 2284
v 252.524 0.577 98.387
v 235.924 0.509 73.707
v 230.116 0.473 77.613
v 246.716 0.585 102.293
f 2285 2286 2287 2288
v 235.924 0.509 73.707
v 233.294 0.635 69.797
v 227.486 0.583 73.703
v 230.116 0.473 77.613
f 2289 2290 2291 2292
v -88.513 0.838 91.431
v -97.113 0.643 98.141
v -92.807 0.639 103.659
v -84.207 0.713 96.949
f 2293 2294 2295 2296
v -96.929 0.647 98.006
v -145.199 0.498 130.856
v -141.261 0.507 136.644
v -92.991 0.636 103.794
f 2297 2298 2299 2300
v -145.214 0.498 130.866
v -146.624 0.489 131.836
v -142.656 0.501 137.604
v -141.246 0.507 136.634
f 2301 2302 2303 2304
v -144.653 0.471 134.769
v -141.273 0.543 139.489
v -138.427 0.561 137.451
v -141.807 0.491 132.731
f 2305 2306 2307 2308
v -141.293 0.542 139.460
v -133.263 0.986 151.160
v -130.377 0.873 149.180
v -138.407 0.562 137.480
f 2309 2310 2311 2312
v -132.801 0.908 148.721
v -169.651 0.806 173.671
v -167.689 1.160 176.569
v -130.839 0.921 151.619
f 2313 2314 2315 2316
v -167.208 0.938 174.158
v -174.778 0.492 162.648
v -177.702 0.536 164.572
v -170.132 0.892 176.082
f 2317 2318 2319 2320
v -174.802 0.489 162.612
v -178.572 0.375 157.182
v -181.448 0.390 159.178
v -177.678 0.538 164.608
f 2321 2322 2323 2324
v -75.881 1.083 -11.319
v 30.129 1.675 -0.299
v 30.491 1.644 -3.781
v -75.519 1.084 -14.801
f 2325 2326 2327 2328
v -44.051 0.833 259.741
v -25.949 0.788 247.641
v -30.951 0.847 240.159
v -49.052 0.872 252.259
f 2329 2330 2331 2332
v -26.056 0.788 247.710
v 4.224 0.781 228.680
v -0.564 0.760 221.060
v -30.844 0.846 240.090
f 2333 2334 2335 2336
v -141.098 1.136 15.244
v -145.578 1.068 18.964
v -143.342 1.050 21.656
v -138.862 1.120 17.936
f 2337 2338 2339 2340
v -145.888 1.072 19.299
v -149.158 1.063 23.919
v -146.302 0.961 25.941
v -143.032 1.054 21.321
f 2341 2342 2343 2344
v -149.444 1.049 24.575
v -150.464 1.041 29.495
v -147.036 0.960 30.205
v -146.016 0.964 25.285
f 2345 2346 2347 2348
v -150.426 1.046 30.355
v -149.116 1.035 34.705
v -145.764 0.960 33.695
v -147.074 0.954 29.345
f 2349 2350 2351 2352
v -148.439 1.057 35.637
v -145.489 1.086 37.687
v -143.491 0.951 34.813
v -146.441 0.966 32.763
f 2353 2354 2355 2356
v -144.400 1.093 37.998
v -141.310 1.061 37.838
v -141.490 0.947 34.342
v -144.580 0.955 34.502
f 2357 2358 2359 2360
v -140.715 1.056 37.700
v -137.495 1.045 36.330
v -138.865 0.935 33.110
v -142.085 0.947 34.480
f 2361 2362 2363 2364
v -137.124 1.042 36.116
v -134.784 1.012 34.346
v -136.896 0.979 31.554
v -139.236 0.935 33.324
f 2365 2366 2367 2368
v -134.727 1.011 34.300
v -130.107 1.022 30.490
v -132.333 1.046 27.790
v -136.953 0.978 31.600
f 2369 2370 2371 2372
v 157.510 1.242 99.113
v 191.770 0.878 76.633
v 189.850 1.021 73.707
v 155.590 1.258 96.187
f 2373 2374 2375 2376
v -207.734 0.808 90.089
v -241.234 0.694 112.199
v -239.306 0.664 115.121
v -205.806 0.799 93.011
f 2377 2378 2379 2380
v -72.450 1.082 -41.878
v -38.670 1.454 -38.588
v -38.330 1.439 -42.072
v -72.110 1.095 -45.362
f 2381 2382 2383 2384
v -38.670 1.454 -38.588
v -18.970 1.453 -36.668
v -18.630 1.456 -40.152
v -38.330 1.439 -42.072
f 2385 2386 2387 2388
v -20.536 1.436 -38.629
v -23.616 1.629 -14.229
v -20.144 1.609 -13.791
v -17.064 1.457 -38.191
f 2389 2390 2391 2392
v -40.241 1.442 -40.503
v -42.461 1.512 -18.163
v -38.979 1.548 -17.817
v -36.759 1.443 -40.157
f 2393 2394 2395 2396
usemtl asphalt
