# Baked ultra-low Key West silhouette; generated by bake_key_west_far_city.py
mtllib far_city.mtl
usemtl massing
v 152.855 1.400 78.424
v 232.327 1.400 70.361
v 234.605 1.400 92.816
v 155.133 1.400 100.879
v 152.855 4.900 78.424
v 232.327 4.900 70.361
v 234.605 4.900 92.816
v 155.133 4.900 100.879
f 8 7 6 5
f 1 2 6 5
f 2 3 7 6
f 3 4 8 7
f 4 1 5 8
v 241.649 1.378 77.042
v 247.757 1.378 79.379
v 245.531 1.378 85.198
v 239.423 1.378 82.861
v 241.649 5.278 77.042
v 247.757 5.278 79.379
v 245.531 5.278 85.198
v 239.423 5.278 82.861
f 16 15 14 13
f 9 10 14 13
f 10 11 15 14
f 11 12 16 15
f 12 9 13 16
v 128.418 1.610 71.908
v 129.726 1.610 80.438
v 124.942 1.610 81.172
v 123.634 1.610 72.642
v 128.418 5.510 71.908
v 129.726 5.510 80.438
v 124.942 5.510 81.172
v 123.634 5.510 72.642
f 24 23 22 21
f 17 18 22 21
f 18 19 23 22
f 19 20 24 23
f 20 17 21 24
v 237.232 2.442 -32.526
v 237.686 2.442 -30.068
v 235.228 2.442 -29.614
v 234.774 2.442 -32.072
v 237.232 6.342 -32.526
v 237.686 6.342 -30.068
v 235.228 6.342 -29.614
v 234.774 6.342 -32.072
f 32 31 30 29
f 25 26 30 29
f 26 27 31 30
f 27 28 32 31
f 28 25 29 32
v 233.892 2.657 -27.242
v 236.362 2.657 -27.628
v 236.748 2.657 -25.158
v 234.278 2.657 -24.772
v 233.892 6.557 -27.242
v 236.362 6.557 -27.628
v 236.748 6.557 -25.158
v 234.278 6.557 -24.772
f 40 39 38 37
f 33 34 38 37
f 34 35 39 38
f 35 36 40 39
f 36 33 37 40
v 233.943 2.371 -25.432
v 234.362 2.371 -22.967
v 231.897 2.371 -22.548
v 231.478 2.371 -25.013
v 233.943 6.271 -25.432
v 234.362 6.271 -22.967
v 231.897 6.271 -22.548
v 231.478 6.271 -25.013
f 48 47 46 45
f 41 42 46 45
f 42 43 47 46
f 43 44 48 47
f 44 41 45 48
v 249.282 1.430 171.479
v 256.279 1.430 169.615
v 257.378 1.430 173.741
v 250.381 1.430 175.605
v 249.282 5.330 171.479
v 256.279 5.330 169.615
v 257.378 5.330 173.741
v 250.381 5.330 175.605
f 56 55 54 53
f 49 50 54 53
f 50 51 55 54
f 51 52 56 55
f 52 49 53 56
v 236.135 1.916 102.309
v 239.539 1.916 101.890
v 239.845 1.916 104.371
v 236.441 1.916 104.790
v 236.135 5.816 102.309
v 239.539 5.816 101.890
v 239.845 5.816 104.371
v 236.441 5.816 104.790
f 64 63 62 61
f 57 58 62 61
f 58 59 63 62
f 59 60 64 63
f 60 57 61 64
v 236.272 1.710 106.670
v 238.932 1.710 106.440
v 239.148 1.710 108.930
v 236.488 1.710 109.160
v 236.272 5.610 106.670
v 238.932 5.610 106.440
v 239.148 5.610 108.930
v 236.488 5.610 109.160
f 72 71 70 69
f 65 66 70 69
f 66 67 71 70
f 67 68 72 71
f 68 65 69 72
v 238.100 1.335 87.430
v 238.888 1.335 93.075
v 233.480 1.335 93.830
v 232.692 1.335 88.185
v 238.100 5.235 87.430
v 238.888 5.235 93.075
v 233.480 5.235 93.830
v 232.692 5.235 88.185
f 80 79 78 77
f 73 74 78 77
f 74 75 79 78
f 75 76 80 79
f 76 73 77 80
v 241.513 1.473 72.727
v 247.649 1.473 71.991
v 247.947 1.473 74.473
v 241.811 1.473 75.209
v 241.513 5.373 72.727
v 247.649 5.373 71.991
v 247.947 5.373 74.473
v 241.811 5.373 75.209
f 88 87 86 85
f 81 82 86 85
f 82 83 87 86
f 83 84 88 87
f 84 81 85 88
v 165.841 1.232 53.753
v 175.304 1.232 52.543
v 175.879 1.232 57.047
v 166.416 1.232 58.257
v 165.841 5.132 53.753
v 175.304 5.132 52.543
v 175.879 5.132 57.047
v 166.416 5.132 58.257
f 96 95 94 93
f 89 90 94 93
f 90 91 95 94
f 91 92 96 95
f 92 89 93 96
usemtl road
v 229.493 1.841 -55.039
v 225.263 1.883 -33.599
v 228.697 1.889 -32.921
v 232.927 1.857 -54.361
f 97 98 99 100
v 227.314 1.904 -34.978
v 124.274 1.873 -55.038
v 123.606 1.858 -51.602
v 226.646 1.868 -31.542
f 101 102 103 104
v 125.657 1.852 -52.982
v 129.887 1.855 -74.442
v 126.453 1.883 -75.118
v 122.223 1.869 -53.658
f 105 106 107 108
v 127.835 1.875 -73.062
v 230.875 1.863 -52.982
v 231.545 1.828 -56.418
v 128.505 1.860 -76.498
f 109 110 111 112
v 143.323 1.665 103.544
v 149.723 1.681 58.094
v 146.257 1.672 57.606
v 139.857 1.688 103.056
f 113 114 115 116
v 256.205 1.652 68.834
v 148.195 1.670 56.112
v 147.785 1.692 59.588
v 255.795 1.680 72.310
f 117 118 119 120
v 148.250 1.670 56.119
v 113.610 1.649 50.919
v 113.090 1.664 54.381
v 147.730 1.692 59.581
f 121 122 123 124
v 111.612 1.670 52.442
v 106.562 1.738 94.542
v 110.038 1.704 94.958
v 115.088 1.655 52.858
f 125 126 127 128
v 106.783 1.728 95.622
v 109.713 1.657 100.722
v 112.747 1.691 98.978
v 109.817 1.706 93.878
f 129 130 131 132
v 110.886 1.645 101.566
v 115.726 1.626 102.536
v 116.414 1.682 99.104
v 111.574 1.692 98.134
f 133 134 135 136
v 115.901 1.626 102.562
v 141.421 1.662 105.042
v 141.759 1.679 101.558
v 116.239 1.683 99.078
f 137 138 139 140
v 141.381 1.663 105.038
v 196.291 1.615 111.628
v 196.709 1.641 108.152
v 141.799 1.679 101.562
f 141 142 143 144
v 196.326 1.616 111.631
v 230.006 1.655 115.001
v 230.354 1.671 111.519
v 196.674 1.641 108.149
f 145 146 147 148
v 230.015 1.655 115.002
v 244.365 1.643 116.362
v 244.695 1.629 112.878
v 230.345 1.671 111.518
f 149 150 151 152
v 244.369 1.642 116.363
v 247.189 1.606 116.623
v 247.511 1.607 113.137
v 244.691 1.629 112.877
f 153 154 155 156
v 247.164 1.606 116.620
v 255.314 1.652 117.490
v 255.686 1.655 114.010
v 247.536 1.607 113.140
f 157 158 159 160
v 246.275 1.612 114.747
v 247.675 1.565 95.547
v 244.185 1.533 95.293
v 242.785 1.652 114.493
f 161 162 163 164
v 246.994 1.546 96.810
v 250.104 1.590 94.430
v 247.976 1.571 91.650
v 244.866 1.549 94.030
f 165 166 167 168
v 256.225 1.571 251.492
v 91.005 1.543 230.114
v 90.555 1.590 233.586
v 255.775 1.634 254.963
f 169 170 171 172
v 255.097 1.677 133.304
v 257.237 1.653 115.964
v 253.763 1.656 115.536
v 251.623 1.531 132.876
f 173 174 175 176
usemtl asphalt
