# Baked ultra-low Key West silhouette; generated by bake_key_west_far_city.py
mtllib far_city.mtl
usemtl massing
v -83.412 -0.300 86.018
v -42.258 -0.300 105.166
v -52.808 -0.300 127.842
v -93.962 -0.300 108.694
v -83.412 5.500 86.018
v -42.258 5.500 105.166
v -52.808 5.500 127.842
v -93.962 5.500 108.694
f 8 7 6 5
f 1 2 6 5
f 2 3 7 6
f 3 4 8 7
f 4 1 5 8
v -25.387 0.903 138.246
v 7.572 0.903 165.268
v -12.913 0.903 190.254
v -45.872 0.903 163.232
v -25.387 7.203 138.246
v 7.572 7.203 165.268
v -12.913 7.203 190.254
v -45.872 7.203 163.232
f 16 15 14 13
f 9 10 14 13
f 10 11 15 14
f 11 12 16 15
f 12 9 13 16
v 216.375 -0.300 85.948
v 243.917 -0.300 90.461
v 240.245 -0.300 112.872
v 212.703 -0.300 108.359
v 216.375 3.600 85.948
v 243.917 3.600 90.461
v 240.245 3.600 112.872
v 212.703 3.600 108.359
f 24 23 22 21
f 17 18 22 21
f 18 19 23 22
f 19 20 24 23
f 20 17 21 24
v -209.353 1.762 19.104
v -207.002 1.762 34.030
v -220.367 1.762 36.136
v -222.718 1.762 21.210
v -209.353 5.662 19.104
v -207.002 5.662 34.030
v -220.367 5.662 36.136
v -222.718 5.662 21.210
f 32 31 30 29
f 25 26 30 29
f 26 27 31 30
f 27 28 32 31
f 28 25 29 32
v -151.209 1.170 44.566
v -124.040 1.170 61.903
v -135.891 1.170 80.474
v -163.060 1.170 63.137
v -151.209 6.970 44.566
v -124.040 6.970 61.903
v -135.891 6.970 80.474
v -163.060 6.970 63.137
f 40 39 38 37
f 33 34 38 37
f 34 35 39 38
f 35 36 40 39
f 36 33 37 40
v -260.142 1.259 68.316
v -238.198 1.259 38.526
v -217.458 1.259 53.804
v -239.402 1.259 83.594
v -260.142 7.059 68.316
v -238.198 7.059 38.526
v -217.458 7.059 53.804
v -239.402 7.059 83.594
f 48 47 46 45
f 41 42 46 45
f 42 43 47 46
f 43 44 48 47
f 44 41 45 48
v -213.994 1.779 70.830
v -172.757 1.779 61.771
v -167.406 1.779 86.130
v -208.643 1.779 95.189
v -213.994 7.579 70.830
v -172.757 7.579 61.771
v -167.406 7.579 86.130
v -208.643 7.579 95.189
f 56 55 54 53
f 49 50 54 53
f 50 51 55 54
f 51 52 56 55
f 52 49 53 56
v -219.784 1.622 52.496
v -193.288 1.622 16.211
v -169.496 1.622 33.584
v -195.992 1.622 69.869
v -219.784 7.422 52.496
v -193.288 7.422 16.211
v -169.496 7.422 33.584
v -195.992 7.422 69.869
f 64 63 62 61
f 57 58 62 61
f 58 59 63 62
f 59 60 64 63
f 60 57 61 64
v -267.161 0.798 163.059
v -219.838 0.798 110.076
v -199.499 0.798 128.241
v -246.822 0.798 181.224
v -267.161 9.098 163.059
v -219.838 9.098 110.076
v -199.499 9.098 128.241
v -246.822 9.098 181.224
f 72 71 70 69
f 65 66 70 69
f 66 67 71 70
f 67 68 72 71
f 68 65 69 72
v 164.829 1.631 -252.580
v 234.392 1.631 -261.238
v 236.351 1.631 -245.500
v 166.788 1.631 -236.842
v 164.829 5.131 -252.580
v 234.392 5.131 -261.238
v 236.351 5.131 -245.500
v 166.788 5.131 -236.842
f 80 79 78 77
f 73 74 78 77
f 74 75 79 78
f 75 76 80 79
f 76 73 77 80
v 90.800 1.974 167.108
v 162.890 1.974 235.514
v 115.560 1.974 285.392
v 43.470 1.974 216.986
v 90.800 11.274 167.108
v 162.890 11.274 235.514
v 115.560 11.274 285.392
v 43.470 11.274 216.986
f 88 87 86 85
f 81 82 86 85
f 82 83 87 86
f 83 84 88 87
f 84 81 85 88
v 149.480 0.647 234.554
v 181.540 0.647 256.212
v 170.640 0.647 272.346
v 138.580 0.647 250.688
v 149.480 9.947 234.554
v 181.540 9.947 256.212
v 170.640 9.947 272.346
v 138.580 9.947 250.688
f 96 95 94 93
f 89 90 94 93
f 90 91 95 94
f 91 92 96 95
f 92 89 93 96
v -264.743 0.256 243.524
v -250.803 0.256 221.696
v -243.977 0.256 226.056
v -257.917 0.256 247.884
v -264.743 4.156 243.524
v -250.803 4.156 221.696
v -243.977 4.156 226.056
v -257.917 4.156 247.884
f 104 103 102 101
f 97 98 102 101
f 98 99 103 102
f 99 100 104 103
f 100 97 101 104
v -271.737 0.218 257.561
v -249.870 0.218 224.247
v -240.223 0.218 230.579
v -262.090 0.218 263.893
v -271.737 4.118 257.561
v -249.870 4.118 224.247
v -240.223 4.118 230.579
v -262.090 4.118 263.893
f 112 111 110 109
f 105 106 110 109
f 106 107 111 110
f 107 108 112 111
f 108 105 109 112
v 208.292 -0.300 68.793
v 221.095 -0.300 78.120
v 216.908 -0.300 83.867
v 204.105 -0.300 74.540
v 208.292 3.600 68.793
v 221.095 3.600 78.120
v 216.908 3.600 83.867
v 204.105 3.600 74.540
f 120 119 118 117
f 113 114 118 117
f 114 115 119 118
f 115 116 120 119
f 116 113 117 120
v 181.388 -0.300 28.939
v 193.041 -0.300 11.480
v 202.332 -0.300 17.681
v 190.679 -0.300 35.140
v 181.388 3.600 28.939
v 193.041 3.600 11.480
v 202.332 3.600 17.681
v 190.679 3.600 35.140
f 128 127 126 125
f 121 122 126 125
f 122 123 127 126
f 123 124 128 127
f 124 121 125 128
v -208.644 0.527 177.831
v -187.413 0.527 192.187
v -193.216 0.527 200.769
v -214.447 0.527 186.413
v -208.644 4.427 177.831
v -187.413 4.427 192.187
v -193.216 4.427 200.769
v -214.447 4.427 186.413
f 136 135 134 133
f 129 130 134 133
f 130 131 135 134
f 131 132 136 135
f 132 129 133 136
v -200.679 0.608 189.960
v -178.091 0.608 205.149
v -186.221 0.608 217.240
v -208.809 0.608 202.051
v -200.679 4.508 189.960
v -178.091 4.508 205.149
v -186.221 4.508 217.240
v -208.809 4.508 202.051
f 144 143 142 141
f 137 138 142 141
f 138 139 143 142
f 139 140 144 143
f 140 137 141 144
v -253.588 0.711 236.750
v -243.659 0.711 192.880
v -199.252 0.711 202.930
v -209.181 0.711 246.800
v -253.588 6.511 236.750
v -243.659 6.511 192.880
v -199.252 6.511 202.930
v -209.181 6.511 246.800
f 152 151 150 149
f 145 146 150 149
f 146 147 151 150
f 147 148 152 151
f 148 145 149 152
v 39.469 -0.300 198.885
v 52.627 -0.300 207.394
v 47.751 -0.300 214.935
v 34.593 -0.300 206.426
v 39.469 3.600 198.885
v 52.627 3.600 207.394
v 47.751 3.600 214.935
v 34.593 3.600 206.426
f 160 159 158 157
f 153 154 158 157
f 154 155 159 158
f 155 156 160 159
f 156 153 157 160
v -130.736 0.669 89.401
v -108.421 0.669 101.322
v -114.584 0.669 112.859
v -136.899 0.669 100.938
v -130.736 4.569 89.401
v -108.421 4.569 101.322
v -114.584 4.569 112.859
v -136.899 4.569 100.938
f 168 167 166 165
f 161 162 166 165
f 162 163 167 166
f 163 164 168 167
f 164 161 165 168
v -172.444 1.044 -1.633
v -155.302 1.044 -1.100
v -155.756 1.044 13.473
v -172.898 1.044 12.940
v -172.444 4.944 -1.633
v -155.302 4.944 -1.100
v -155.756 4.944 13.473
v -172.898 4.944 12.940
f 176 175 174 173
f 169 170 174 173
f 170 171 175 174
f 171 172 176 175
f 172 169 173 176
v -166.036 1.248 75.935
v -106.888 1.248 -22.011
v -70.464 1.248 -0.015
v -129.612 1.248 97.931
v -166.036 9.548 75.935
v -106.888 9.548 -22.011
v -70.464 9.548 -0.015
v -129.612 9.548 97.931
f 184 183 182 181
f 177 178 182 181
f 178 179 183 182
f 179 180 184 183
f 180 177 181 184
v -230.634 1.372 95.872
v -226.096 1.372 89.114
v -220.326 1.372 92.988
v -224.864 1.372 99.746
v -230.634 5.272 95.872
v -226.096 5.272 89.114
v -220.326 5.272 92.988
v -224.864 5.272 99.746
f 192 191 190 189
f 185 186 190 189
f 186 187 191 190
f 187 188 192 191
f 188 185 189 192
v -155.799 0.194 175.199
v -137.867 0.194 190.092
v -149.501 0.194 204.101
v -167.433 0.194 189.208
v -155.799 4.094 175.199
v -137.867 4.094 190.092
v -149.501 4.094 204.101
v -167.433 4.094 189.208
f 200 199 198 197
f 193 194 198 197
f 194 195 199 198
f 195 196 200 199
f 196 193 197 200
v -161.170 0.308 156.786
v -157.772 0.308 184.912
v -179.970 0.308 187.594
v -183.368 0.308 159.468
v -161.170 4.208 156.786
v -157.772 4.208 184.912
v -179.970 4.208 187.594
v -183.368 4.208 159.468
f 208 207 206 205
f 201 202 206 205
f 202 203 207 206
f 203 204 208 207
f 204 201 205 208
v -155.301 0.407 142.857
v -136.686 0.407 156.110
v -143.559 0.407 165.763
v -162.174 0.407 152.510
v -155.301 4.307 142.857
v -136.686 4.307 156.110
v -143.559 4.307 165.763
v -162.174 4.307 152.510
f 216 215 214 213
f 209 210 214 213
f 210 211 215 214
f 211 212 216 215
f 212 209 213 216
v -137.587 0.658 144.803
v -129.023 0.658 133.639
v -121.153 0.658 139.677
v -129.717 0.658 150.841
v -137.587 4.558 144.803
v -129.023 4.558 133.639
v -121.153 4.558 139.677
v -129.717 4.558 150.841
f 224 223 222 221
f 217 218 222 221
f 218 219 223 222
f 219 220 224 223
f 220 217 221 224
v -42.468 0.819 145.046
v -36.480 0.819 144.896
v -36.332 0.819 150.854
v -42.320 0.819 151.004
v -42.468 4.719 145.046
v -36.480 4.719 144.896
v -36.332 4.719 150.854
v -42.320 4.719 151.004
f 232 231 230 229
f 225 226 230 229
f 226 227 231 230
f 227 228 232 231
f 228 225 229 232
v -97.465 -0.300 129.502
v -45.402 -0.300 115.171
v -35.535 -0.300 151.018
v -87.598 -0.300 165.349
v -97.465 6.500 129.502
v -45.402 6.500 115.171
v -35.535 6.500 151.018
v -87.598 6.500 165.349
f 240 239 238 237
f 233 234 238 237
f 234 235 239 238
f 235 236 240 239
f 236 233 237 240
v 192.561 0.663 122.068
v 205.490 0.663 130.193
v 198.579 0.663 141.192
v 185.650 0.663 133.067
v 192.561 4.563 122.068
v 205.490 4.563 130.193
v 198.579 4.563 141.192
v 185.650 4.563 133.067
f 248 247 246 245
f 241 242 246 245
f 242 243 247 246
f 243 244 248 247
f 244 241 245 248
v 203.538 0.893 116.350
v 208.521 0.893 108.808
v 214.002 0.893 112.430
v 209.019 0.893 119.972
v 203.538 4.793 116.350
v 208.521 4.793 108.808
v 214.002 4.793 112.430
v 209.019 4.793 119.972
f 256 255 254 253
f 249 250 254 253
f 250 251 255 254
f 251 252 256 255
f 252 249 253 256
v -152.658 0.251 191.037
v -133.701 0.251 203.723
v -137.422 0.251 209.283
v -156.379 0.251 196.597
v -152.658 4.151 191.037
v -133.701 4.151 203.723
v -137.422 4.151 209.283
v -156.379 4.151 196.597
f 264 263 262 261
f 257 258 262 261
f 258 259 263 262
f 259 260 264 263
f 260 257 261 264
v 117.494 1.128 257.796
v 124.975 1.128 245.632
v 131.986 1.128 249.944
v 124.505 1.128 262.108
v 117.494 5.028 257.796
v 124.975 5.028 245.632
v 131.986 5.028 249.944
v 124.505 5.028 262.108
f 272 271 270 269
f 265 266 270 269
f 266 267 271 270
f 267 268 272 271
f 268 265 269 272
v 228.612 0.705 129.278
v 241.371 0.705 100.587
v 264.388 0.705 110.822
v 251.629 0.705 139.513
v 228.612 7.505 129.278
v 241.371 7.505 100.587
v 264.388 7.505 110.822
v 251.629 7.505 139.513
f 280 279 278 277
f 273 274 278 277
f 274 275 279 278
f 275 276 280 279
f 276 273 277 280
v 232.119 0.451 149.463
v 236.136 0.451 132.173
v 250.961 0.451 135.617
v 246.944 0.451 152.907
v 232.119 7.251 149.463
v 236.136 7.251 132.173
v 250.961 7.251 135.617
v 246.944 7.251 152.907
f 288 287 286 285
f 281 282 286 285
f 282 283 287 286
f 283 284 288 287
f 284 281 285 288
v 140.116 1.544 125.085
v 208.746 1.544 127.131
v 206.964 1.544 186.915
v 138.334 1.544 184.869
v 140.116 9.844 125.085
v 208.746 9.844 127.131
v 206.964 9.844 186.915
v 138.334 9.844 184.869
f 296 295 294 293
f 289 290 294 293
f 290 291 295 294
f 291 292 296 295
f 292 289 293 296
v 106.035 0.544 166.889
v 118.663 0.544 150.765
v 128.425 0.544 158.411
v 115.797 0.544 174.535
v 106.035 4.444 166.889
v 118.663 4.444 150.765
v 128.425 4.444 158.411
v 115.797 4.444 174.535
f 304 303 302 301
f 297 298 302 301
f 298 299 303 302
f 299 300 304 303
f 300 297 301 304
v 192.131 0.367 229.266
v 203.227 0.367 220.779
v 210.949 0.367 230.874
v 199.853 0.367 239.361
v 192.131 7.167 229.266
v 203.227 7.167 220.779
v 210.949 7.167 230.874
v 199.853 7.167 239.361
f 312 311 310 309
f 305 306 310 309
f 306 307 311 310
f 307 308 312 311
f 308 305 309 312
v 49.365 1.149 243.005
v 69.083 1.149 234.088
v 75.635 1.149 248.575
v 55.917 1.149 257.492
v 49.365 5.049 243.005
v 69.083 5.049 234.088
v 75.635 5.049 248.575
v 55.917 5.049 257.492
f 320 319 318 317
f 313 314 318 317
f 314 315 319 318
f 315 316 320 319
f 316 313 317 320
v 50.384 0.471 232.271
v 55.573 0.471 224.638
v 61.296 0.471 228.529
v 56.107 0.471 236.162
v 50.384 4.371 232.271
v 55.573 4.371 224.638
v 61.296 4.371 228.529
v 56.107 4.371 236.162
f 328 327 326 325
f 321 322 326 325
f 322 323 327 326
f 323 324 328 327
f 324 321 325 328
v 56.984 0.589 205.590
v 70.643 0.589 215.303
v 66.656 0.589 220.910
v 52.997 0.589 211.197
v 56.984 4.489 205.590
v 70.643 4.489 215.303
v 66.656 4.489 220.910
v 52.997 4.489 211.197
f 336 335 334 333
f 329 330 334 333
f 330 331 335 334
f 331 332 336 335
f 332 329 333 336
v 32.253 0.533 216.886
v 54.336 0.533 231.390
v 50.707 0.533 236.914
v 28.624 0.533 222.410
v 32.253 7.333 216.886
v 54.336 7.333 231.390
v 50.707 7.333 236.914
v 28.624 7.333 222.410
f 344 343 342 341
f 337 338 342 341
f 338 339 343 342
f 339 340 344 343
f 340 337 341 344
v 4.190 0.637 219.866
v 16.399 0.637 243.443
v -3.590 0.637 253.794
v -15.799 0.637 230.217
v 4.190 7.437 219.866
v 16.399 7.437 243.443
v -3.590 7.437 253.794
v -15.799 7.437 230.217
f 352 351 350 349
f 345 346 350 349
f 346 347 351 350
f 347 348 352 351
f 348 345 349 352
v -75.774 1.927 164.732
v -37.542 1.927 175.868
v -43.146 1.927 195.108
v -81.378 1.927 183.972
v -75.774 5.827 164.732
v -37.542 5.827 175.868
v -43.146 5.827 195.108
v -81.378 5.827 183.972
f 360 359 358 357
f 353 354 358 357
f 354 355 359 358
f 355 356 360 359
f 356 353 357 360
v -10.407 0.292 206.862
v -5.877 0.292 209.747
v -7.693 0.292 212.598
v -12.223 0.292 209.713
v -10.407 4.192 206.862
v -5.877 4.192 209.747
v -7.693 4.192 212.598
v -12.223 4.192 209.713
f 368 367 366 365
f 361 362 366 365
f 362 363 367 366
f 363 364 368 367
f 364 361 365 368
v 207.469 0.577 263.817
v 214.617 0.577 242.451
v 231.631 0.577 248.143
v 224.483 0.577 269.509
v 207.469 4.477 263.817
v 214.617 4.477 242.451
v 231.631 4.477 248.143
v 224.483 4.477 269.509
f 376 375 374 373
f 369 370 374 373
f 370 371 375 374
f 371 372 376 375
f 372 369 373 376
v 226.401 0.276 251.482
v 233.647 0.276 237.094
v 241.399 0.276 240.998
v 234.153 0.276 255.386
v 226.401 4.176 251.482
v 233.647 4.176 237.094
v 241.399 4.176 240.998
v 234.153 4.176 255.386
f 384 383 382 381
f 377 378 382 381
f 378 379 383 382
f 379 380 384 383
f 380 377 381 384
v 234.593 0.512 240.633
v 244.959 0.512 222.381
v 256.767 0.512 229.087
v 246.401 0.512 247.339
v 234.593 4.412 240.633
v 244.959 4.412 222.381
v 256.767 4.412 229.087
v 246.401 4.412 247.339
f 392 391 390 389
f 385 386 390 389
f 386 387 391 390
f 387 388 392 391
f 388 385 389 392
v 246.640 0.573 230.195
v 254.792 0.573 218.203
v 262.740 0.573 223.605
v 254.588 0.573 235.597
v 246.640 4.473 230.195
v 254.792 4.473 218.203
v 262.740 4.473 223.605
v 254.588 4.473 235.597
f 400 399 398 397
f 393 394 398 397
f 394 395 399 398
f 395 396 400 399
f 396 393 397 400
v 245.714 0.212 250.819
v 259.592 0.212 241.105
v 266.266 0.212 250.641
v 252.388 0.212 260.355
v 245.714 4.112 250.819
v 259.592 4.112 241.105
v 266.266 4.112 250.641
v 252.388 4.112 260.355
f 408 407 406 405
f 401 402 406 405
f 402 403 407 406
f 403 404 408 407
f 404 401 405 408
v -19.325 0.405 237.173
v -6.580 0.405 243.789
v -13.555 0.405 257.227
v -26.300 0.405 250.611
v -19.325 4.305 237.173
v -6.580 4.305 243.789
v -13.555 4.305 257.227
v -26.300 4.305 250.611
f 416 415 414 413
f 409 410 414 413
f 410 411 415 414
f 411 412 416 415
f 412 409 413 416
v -35.653 0.374 259.219
v -25.948 0.374 244.801
v -19.767 0.374 248.961
v -29.472 0.374 263.379
v -35.653 4.274 259.219
v -25.948 4.274 244.801
v -19.767 4.274 248.961
v -29.472 4.274 263.379
f 424 423 422 421
f 417 418 422 421
f 418 419 423 422
f 419 420 424 423
f 420 417 421 424
v 5.482 0.555 249.197
v 10.327 0.555 242.213
v 16.078 0.555 246.203
v 11.233 0.555 253.187
v 5.482 4.455 249.197
v 10.327 4.455 242.213
v 16.078 4.455 246.203
v 11.233 4.455 253.187
f 432 431 430 429
f 425 426 430 429
f 426 427 431 430
f 427 428 432 431
f 428 425 429 432
v 246.334 1.542 -249.707
v 248.436 1.542 -234.270
v 237.586 1.542 -232.793
v 235.484 1.542 -248.230
v 246.334 5.442 -249.707
v 248.436 5.442 -234.270
v 237.586 5.442 -232.793
v 235.484 5.442 -248.230
f 440 439 438 437
f 433 434 438 437
f 434 435 439 438
f 435 436 440 439
f 436 433 437 440
usemtl road
v 3.546 0.407 212.842
v 18.536 0.505 235.192
v 23.104 0.452 232.128
v 8.114 0.388 209.778
f 441 442 443 444
v 18.521 0.504 235.169
v 33.189 0.664 257.509
v 37.786 0.613 254.491
v 23.119 0.452 232.151
f 445 446 447 448
v -96.796 0.500 99.689
v -100.136 0.455 101.939
v -97.064 0.462 106.501
v -93.724 0.501 104.251
f 449 450 451 452
v -100.136 0.455 101.939
v -111.886 0.403 109.849
v -108.814 0.356 114.411
v -97.064 0.462 106.501
f 453 454 455 456
v -111.886 0.403 109.849
v -127.076 0.381 120.079
v -124.004 0.327 124.641
v -108.814 0.356 114.411
f 457 458 459 460
v -127.076 0.381 120.079
v -134.546 0.352 125.109
v -131.474 0.364 129.671
v -124.004 0.327 124.641
f 461 462 463 464
v -134.546 0.352 125.109
v -193.226 0.343 164.619
v -190.154 0.357 169.181
v -131.474 0.364 129.671
f 465 466 467 468
v -258.294 0.337 218.725
v -232.656 0.392 257.516
v -228.068 0.361 254.484
v -253.706 0.365 215.693
f 469 470 471 472
v -189.407 0.318 165.367
v -219.177 0.338 121.037
v -223.743 0.361 124.103
v -193.973 0.309 168.433
f 473 474 475 476
v -219.177 0.338 121.037
v -243.437 0.856 84.897
v -248.003 0.763 87.963
v -223.743 0.361 124.103
f 477 478 479 480
v -243.437 0.856 84.896
v -253.717 0.726 69.598
v -258.283 0.708 72.665
v -248.003 0.763 87.964
f 481 482 483 484
v -194.581 0.279 168.872
v -133.796 0.560 257.972
v -128.013 0.570 254.028
v -188.799 0.306 164.928
f 485 486 487 488
v -38.987 0.555 245.300
v 7.383 0.363 213.580
v 4.277 0.318 209.040
v -42.093 0.559 240.760
f 489 490 491 492
v -193.659 0.327 164.006
v -245.519 0.313 199.286
v -241.581 0.395 205.074
v -189.721 0.353 169.794
f 493 494 495 496
v -245.516 0.313 199.284
v -257.966 0.310 207.737
v -254.034 0.350 213.529
v -241.584 0.395 205.076
f 497 498 499 500
v 251.956 0.574 208.039
v 194.656 0.575 246.309
v 198.544 0.589 252.131
v 255.844 0.574 213.861
f 501 502 503 504
v 137.094 0.882 162.063
v 129.754 0.870 166.753
v 132.446 0.844 170.967
v 139.786 0.807 166.277
f 505 506 507 508
v 129.729 0.870 166.769
v 109.929 0.905 179.749
v 112.671 0.941 183.931
v 132.471 0.844 170.951
f 509 510 511 512
v 110.275 0.901 179.560
v 106.405 0.919 181.300
v 108.455 0.967 185.860
v 112.325 0.943 184.120
f 513 514 515 516
v 106.955 0.908 181.126
v 102.565 0.964 181.976
v 103.515 0.910 186.884
v 107.905 0.962 186.034
f 517 518 519 520
v 102.982 0.958 181.931
v 98.202 0.991 182.041
v 98.318 0.968 187.039
v 103.098 0.909 186.929
f 521 522 523 524
v 98.440 0.988 182.046
v 84.000 0.975 181.006
v 83.640 1.018 185.994
v 98.080 0.972 187.034
f 525 526 527 528
v 83.694 0.978 181.003
v 80.114 0.993 181.183
v 80.366 1.023 186.177
v 83.946 1.017 185.997
f 529 530 531 532
v 79.504 0.991 181.291
v 74.764 0.977 182.751
v 76.236 1.034 187.529
v 80.976 1.022 186.069
f 533 534 535 536
v 73.949 0.978 183.179
v 66.239 0.976 189.279
v 69.341 0.987 193.201
v 77.051 1.035 187.101
f 537 538 539 540
v 65.770 0.973 189.767
v 55.790 0.887 203.447
v 59.830 0.847 206.393
v 69.810 0.992 192.713
f 541 542 543 544
v 56.135 0.887 203.064
v 52.535 0.983 206.314
v 55.885 0.865 210.026
v 59.485 0.840 206.776
f 545 546 547 548
v 52.693 0.980 206.183
v 24.103 0.452 228.013
v 27.137 0.527 231.987
v 55.727 0.868 210.157
f 549 550 551 552
v 24.104 0.452 228.012
v 19.304 0.476 231.672
v 22.336 0.501 235.648
v 27.136 0.527 231.988
f 553 554 555 556
v 169.157 0.654 209.055
v 228.197 0.851 168.755
v 226.223 0.857 165.865
v 167.183 0.630 206.165
f 557 558 559 560
v 228.195 0.851 168.756
v 233.245 0.852 165.316
v 231.275 0.857 162.424
v 226.225 0.857 165.864
f 561 562 563 564
v 233.247 0.852 165.315
v 256.987 0.839 149.111
v 255.013 0.867 146.220
v 231.273 0.857 162.425
f 565 566 567 568
v -255.033 0.831 94.703
v -244.753 0.770 87.889
v -246.687 0.769 84.971
v -256.967 0.832 91.786
f 569 570 571 572
v -257.460 0.754 148.395
v -234.400 0.530 183.324
v -231.480 0.558 181.396
v -254.540 0.817 146.466
f 573 574 575 576
v -248.079 0.337 198.053
v -245.049 0.331 203.083
v -242.051 0.335 201.277
v -245.081 0.348 196.247
f 577 578 579 580
v 7.324 0.340 210.399
v 4.244 0.308 205.349
v 1.256 0.323 207.171
v 4.336 0.393 212.221
f 581 582 583 584
v 4.244 0.308 205.348
v -1.716 0.993 195.588
v -4.704 1.049 197.412
v 1.256 0.323 207.172
f 585 586 587 588
v -1.849 1.008 195.400
v -6.769 1.141 189.310
v -9.491 1.119 191.510
v -4.571 1.037 197.600
f 589 590 591 592
v -7.495 1.128 188.779
v -15.225 1.082 185.769
v -16.495 1.061 189.031
v -8.765 1.128 192.041
f 593 594 595 596
v -16.125 1.083 185.670
v -28.515 1.162 187.570
v -27.985 1.002 191.030
v -15.595 1.062 189.130
f 597 598 599 600
v -28.883 1.156 187.669
v -37.643 1.054 191.069
v -36.377 0.984 194.331
v -27.617 1.004 190.931
f 601 602 603 604
v -37.871 1.053 191.176
v -47.621 1.083 196.686
v -45.899 1.012 199.734
v -36.149 0.985 194.224
f 605 606 607 608
v -47.652 1.084 196.704
v -51.922 1.142 199.234
v -50.138 1.078 202.246
v -45.868 1.011 199.716
f 609 610 611 612
v -52.118 1.144 199.370
v -56.298 1.148 202.690
v -54.122 1.115 205.430
v -49.942 1.076 202.110
f 613 614 615 616
v -56.541 1.147 202.924
v -60.031 1.072 207.014
v -57.369 1.068 209.286
v -53.879 1.115 205.196
f 617 618 619 620
v -60.378 1.050 208.646
v -57.468 1.038 218.496
v -54.112 0.961 217.504
v -57.022 1.090 207.654
f 621 622 623 624
v -57.437 1.038 218.591
v -54.837 0.977 225.831
v -51.543 0.910 224.649
v -54.143 0.962 217.409
f 625 626 627 628
v -54.588 0.958 226.293
v -50.498 0.877 231.723
v -47.702 0.774 229.617
v -51.792 0.921 224.187
f 629 630 631 632
v -50.539 0.878 231.666
v -45.589 0.539 238.816
v -42.711 0.536 236.824
v -47.661 0.772 229.674
f 633 634 635 636
v -45.588 0.539 238.817
v -41.978 0.583 244.027
v -39.102 0.579 242.033
v -42.712 0.536 236.823
f 637 638 639 640
v -17.373 1.082 186.520
v -35.533 1.040 217.750
v -32.507 1.068 219.510
v -14.347 1.073 188.280
f 641 642 643 644
v -32.752 1.030 217.424
v -49.762 1.098 199.534
v -52.298 1.118 201.946
v -35.288 1.075 219.836
f 645 646 647 648
v 148.229 0.761 180.937
v 147.899 0.768 182.287
v 153.241 0.810 183.593
v 153.571 0.806 182.243
f 649 650 651 652
v 147.854 0.775 183.369
v 148.464 0.789 187.229
v 153.896 0.817 186.371
v 153.286 0.805 182.511
f 653 654 655 656
v 148.828 0.788 188.225
v 150.858 0.800 191.575
v 155.562 0.817 188.725
v 153.532 0.817 185.375
f 657 658 659 660
v 151.589 0.807 192.372
v 154.769 0.774 194.692
v 158.011 0.816 190.248
v 154.831 0.816 187.928
f 661 662 663 664
v 154.337 0.786 194.299
v 161.187 0.705 201.989
v 165.293 0.709 198.331
v 158.443 0.814 190.641
f 665 666 667 668
v 136.203 0.840 165.770
v 148.663 0.780 183.190
v 153.137 0.787 179.990
v 140.677 0.879 162.570
f 669 670 671 672
v 165.988 0.701 200.046
v 165.838 0.744 196.446
v 160.342 0.722 196.674
v 160.492 0.706 200.274
f 673 674 675 676
v 165.744 0.732 197.280
v 166.764 0.779 193.520
v 161.456 0.781 192.080
v 160.436 0.730 195.840
f 677 678 679 680
v 165.532 0.743 195.154
v 168.892 0.840 193.124
v 166.048 0.800 188.416
v 162.688 0.798 190.446
f 681 682 683 684
v 169.681 0.842 192.405
v 172.011 0.884 189.255
v 167.589 0.811 185.985
v 165.259 0.798 189.135
f 685 686 687 688
v 172.470 0.902 188.280
v 173.410 0.910 184.480
v 168.070 0.817 183.160
v 167.130 0.806 186.960
f 689 690 691 692
v 173.458 0.916 183.399
v 172.858 0.921 179.529
v 167.422 0.818 180.371
v 168.022 0.817 184.241
f 693 694 695 696
v 172.491 0.912 178.523
v 170.451 0.891 175.163
v 165.749 0.821 178.017
v 167.789 0.818 181.377
f 697 698 699 700
v 169.716 0.888 174.365
v 166.536 0.860 172.055
v 163.304 0.819 176.505
v 166.484 0.819 178.815
f 701 702 703 704
v 165.571 0.855 171.608
v 161.751 0.813 170.678
v 160.449 0.806 176.022
v 164.269 0.821 176.952
f 705 706 707 708
v 160.681 0.798 170.632
v 156.791 0.766 171.232
v 157.629 0.805 176.668
v 161.519 0.809 176.068
f 709 710 711 712
v 155.791 0.770 171.594
v 152.421 0.746 173.624
v 155.259 0.800 178.336
v 158.629 0.805 176.306
f 713 714 715 716
v 151.626 0.741 174.349
v 149.306 0.732 177.499
v 153.734 0.799 180.761
v 156.054 0.802 177.611
f 717 718 719 720
v 148.853 0.740 178.458
v 148.233 0.761 180.918
v 153.567 0.806 182.262
v 154.187 0.799 179.802
f 721 722 723 724
v -167.905 1.520 102.734
v -171.835 1.433 107.924
v -169.045 1.363 110.036
v -165.115 1.463 104.846
f 725 726 727 728
v -171.404 1.442 107.520
v -197.864 1.165 124.990
v -195.936 1.145 127.910
v -169.476 1.355 110.440
f 729 730 731 732
v -198.356 1.169 127.422
v -187.656 1.086 143.452
v -184.744 1.036 141.508
v -195.444 1.134 125.478
f 733 734 735 736
v -185.236 1.071 143.940
v -141.016 0.934 114.740
v -142.944 0.984 111.820
v -187.164 1.064 141.020
f 737 738 739 740
v -220.473 0.379 124.015
v -171.343 1.947 90.455
v -173.317 2.024 87.565
v -222.447 0.373 121.125
f 741 742 743 744
v -131.532 0.386 126.452
v -134.832 0.380 121.252
v -137.788 0.387 123.128
v -134.488 0.390 128.328
f 745 746 747 748
v -134.834 0.380 121.250
v -140.504 0.958 112.340
v -143.456 0.971 114.220
v -137.786 0.387 123.130
f 749 750 751 752
v -140.503 0.958 112.341
v -153.533 1.570 91.841
v -156.487 1.579 93.719
v -143.457 0.971 114.219
f 753 754 755 756
v -158.069 1.434 103.763
v -155.369 1.476 101.173
v -157.791 1.531 98.647
v -160.491 1.485 101.237
f 757 758 759 760
v -154.978 1.481 100.615
v -153.478 1.475 97.205
v -156.682 1.562 95.795
v -158.182 1.515 99.205
f 761 762 763 764
v -153.330 1.478 96.533
v -153.260 1.543 92.813
v -156.760 1.599 92.747
v -156.830 1.560 96.467
f 765 766 767 768
v -153.381 1.562 92.140
v -154.741 1.668 88.680
v -157.999 1.688 89.960
v -156.639 1.586 93.420
f 769 770 771 772
v -155.112 1.686 88.104
v -157.712 1.793 85.414
v -160.228 1.777 87.846
v -157.628 1.665 90.536
f 773 774 775 776
v -158.274 1.810 85.024
v -161.714 1.889 83.534
v -163.106 1.881 86.746
v -159.666 1.756 88.236
f 777 778 779 780
v -162.377 1.907 83.390
v -166.117 2.000 83.320
v -166.183 1.979 86.820
v -162.443 1.858 86.890
f 781 782 783 784
v -166.787 2.012 83.440
v -170.267 2.065 84.800
v -168.993 2.030 88.060
v -165.513 1.966 86.700
f 785 786 787 788
v -170.839 2.063 85.165
v -173.539 2.020 87.745
v -171.121 1.955 90.275
v -168.421 2.026 87.695
f 789 790 791 792
v -173.933 2.003 88.307
v -175.433 1.827 91.727
v -172.227 1.854 93.133
v -170.727 1.981 89.713
f 793 794 795 796
v -175.580 1.787 92.397
v -175.650 1.652 96.117
v -172.150 1.732 96.183
v -172.080 1.880 92.463
f 797 798 799 800
v -175.529 1.644 96.789
v -174.169 1.612 100.259
v -170.911 1.608 98.981
v -172.271 1.757 95.511
f 801 802 803 804
v -173.794 1.600 100.841
v -171.184 1.521 103.521
v -168.676 1.564 101.079
v -171.286 1.637 98.399
f 805 806 807 808
v -170.629 1.511 103.904
v -167.209 1.462 105.394
v -165.811 1.541 102.186
v -169.231 1.571 100.696
f 809 810 811 812
v -166.543 1.456 105.540
v -162.793 1.441 105.610
v -162.727 1.478 102.110
v -166.477 1.561 102.040
f 813 814 815 816
v -162.123 1.440 105.490
v -158.643 1.432 104.130
v -159.917 1.489 100.870
v -163.397 1.487 102.230
f 817 818 819 820
v -127.014 0.383 123.303
v -123.834 0.457 128.273
v -120.886 0.472 126.387
v -124.066 0.404 121.417
f 821 822 823 824
v -123.815 0.460 128.302
v -94.565 1.131 172.082
v -91.655 1.177 170.138
v -120.905 0.468 126.358
f 825 826 827 828
v -93.934 1.134 172.654
v -92.004 1.147 173.684
v -90.356 1.176 170.596
v -92.286 1.174 169.566
f 829 830 831 832
v -91.392 1.151 173.877
v -88.442 1.152 174.237
v -88.018 1.167 170.763
v -90.968 1.182 170.403
f 833 834 835 836
v -87.669 1.146 174.158
v -85.039 1.132 173.268
v -86.161 1.178 169.952
v -88.791 1.168 170.842
f 837 838 839 840
v -84.777 1.129 173.154
v -82.037 1.131 171.694
v -83.683 1.197 168.606
v -86.423 1.176 170.066
f 841 842 843 844
v -81.786 1.132 171.532
v -79.046 1.145 169.402
v -81.194 1.211 166.638
v -83.934 1.194 168.768
f 845 846 847 848
v -78.737 1.145 169.093
v -77.247 1.157 167.173
v -80.013 1.204 165.027
v -81.503 1.210 166.947
f 849 850 851 852
v -76.945 1.156 166.574
v -75.895 1.152 162.844
v -79.265 1.166 161.896
v -80.315 1.205 165.626
f 853 854 855 856
v -75.888 1.149 161.923
v -76.668 1.127 158.973
v -80.052 1.144 159.867
v -79.272 1.179 162.817
f 857 858 859 860
v -76.910 1.123 158.440
v -105.630 0.504 115.970
v -108.530 0.471 117.930
v -79.810 1.151 160.400
f 861 862 863 864
v -105.632 0.504 115.968
v -108.902 0.398 111.148
v -111.798 0.412 113.112
v -108.528 0.471 117.932
f 865 866 867 868
v -131.164 1.090 100.781
v -106.744 1.282 85.791
v -108.576 1.285 82.809
v -132.996 1.101 97.799
f 869 870 871 872
v 239.653 0.941 173.478
v 192.173 0.904 205.428
v 194.127 0.939 208.332
v 241.607 0.981 176.382
f 873 874 875 876
v 191.535 0.913 206.206
v 190.095 0.946 209.656
v 193.325 0.965 211.004
v 194.765 0.932 207.554
f 877 878 879 880
v 190.072 0.962 210.945
v 191.472 1.013 214.675
v 194.748 0.984 213.445
v 193.348 0.952 209.715
f 881 882 883 884
v 191.608 1.015 214.958
v 194.298 1.007 219.458
v 197.302 0.986 217.662
v 194.612 0.983 213.162
f 885 886 887 888
v 194.835 1.001 220.020
v 198.165 0.939 222.220
v 200.095 0.947 219.300
v 196.765 0.992 217.100
f 889 890 891 892
v 198.536 0.937 222.406
v 202.136 0.989 223.706
v 203.324 0.910 220.414
v 199.724 0.953 219.114
f 893 894 895 896
v 203.154 0.959 223.758
v 207.154 0.823 222.758
v 206.306 0.892 219.362
v 202.306 0.919 220.362
f 897 898 899 900
v 207.697 0.822 222.519
v 253.507 0.862 192.159
v 251.573 0.934 189.241
v 205.763 0.893 219.601
f 901 902 903 904
v 230.865 0.855 164.926
v 239.235 0.968 175.986
v 242.025 0.956 173.874
v 233.655 0.849 162.814
f 905 906 907 908
v 239.234 0.968 175.985
v 251.144 0.926 191.755
v 253.936 0.901 189.645
v 242.026 0.956 173.875
f 909 910 911 912
v 160.947 0.706 201.678
v 165.877 0.692 209.128
v 170.463 0.598 206.092
v 165.533 0.712 198.642
f 913 914 915 916
v 165.879 0.692 209.130
v 188.619 0.453 243.400
v 193.201 0.512 240.360
v 170.461 0.597 206.090
f 917 918 919 920
v 188.739 0.452 243.567
v 190.099 0.459 245.317
v 194.441 0.503 241.943
v 193.081 0.513 240.193
f 921 922 923 924
v 190.096 0.459 245.314
v 194.426 0.626 250.904
v 198.774 0.610 247.536
v 194.444 0.503 241.946
f 925 926 927 928
v 194.410 0.626 250.883
v 199.557 0.564 257.663
v 203.937 0.557 254.337
v 198.790 0.610 247.557
f 929 930 931 932
v 209.928 1.099 135.750
v 230.838 0.855 164.890
v 233.682 0.849 162.850
v 212.772 1.114 133.710
f 933 934 935 936
v -113.709 1.485 66.788
v -123.189 1.361 48.108
v -126.311 1.350 49.692
v -116.831 1.413 68.372
f 937 938 939 940
v -123.367 1.465 39.274
v -124.727 1.473 38.784
v -125.913 1.682 42.076
v -124.553 1.630 42.566
f 941 942 943 944
v -125.284 1.478 38.680
v -126.734 1.498 38.650
v -126.806 1.740 42.150
v -125.356 1.664 42.180
f 945 946 947 948
v -127.313 1.502 38.736
v -128.693 1.506 39.186
v -127.607 1.752 42.514
v -126.227 1.698 42.064
f 949 950 951 952
v -129.206 1.512 39.454
v -130.356 1.519 40.324
v -128.244 1.749 43.116
v -127.094 1.757 42.246
f 953 954 955 956
v -130.741 1.514 40.727
v -131.561 1.491 41.917
v -128.679 1.696 43.903
v -127.859 1.754 42.713
f 957 958 959 960
v -131.811 1.480 42.460
v -132.181 1.454 43.850
v -128.799 1.670 44.750
v -128.429 1.728 43.360
f 961 962 963 964
v -132.237 1.443 44.409
v -132.147 1.426 45.849
v -128.653 1.596 45.631
v -128.743 1.685 44.191
f 965 966 967 968
v -132.011 1.421 46.423
v -131.451 1.413 47.743
v -128.229 1.526 46.377
v -128.789 1.659 45.057
f 969 970 971 972
v -131.142 1.408 48.229
v -130.172 1.391 49.309
v -127.568 1.482 46.971
v -128.538 1.570 45.891
f 973 974 975 976
v -129.729 1.383 49.665
v -128.469 1.364 50.375
v -126.751 1.476 47.325
v -128.011 1.507 46.615
f 977 978 979 980
v -127.923 1.363 50.572
v -126.493 1.361 50.832
v -125.867 1.452 47.388
v -127.297 1.483 47.128
f 981 982 983 984
v -125.926 1.361 50.841
v -124.496 1.365 50.631
v -125.004 1.445 47.169
v -126.434 1.465 47.379
f 985 986 987 988
v -123.943 1.370 50.453
v -122.653 1.393 49.783
v -124.267 1.450 46.677
v -125.557 1.447 47.347
f 989 990 991 992
v -122.187 1.413 49.431
v -121.197 1.428 48.381
v -123.743 1.460 45.979
v -124.733 1.442 47.029
f 993 994 995 996
v -120.881 1.430 47.913
v -120.281 1.434 46.613
v -123.459 1.473 45.147
v -124.059 1.454 46.447
f 997 998 999 1000
v -120.129 1.438 46.061
v -119.979 1.436 44.621
v -123.461 1.490 44.259
v -123.611 1.463 45.699
f 1001 1002 1003 1004
v -120.019 1.444 44.027
v -120.359 1.453 42.627
v -123.761 1.544 43.453
v -123.421 1.477 44.853
f 1005 1006 1007 1008
v -120.580 1.456 42.106
v -121.350 1.467 40.886
v -124.310 1.614 42.754
v -123.540 1.505 43.974
f 1009 1010 1011 1012
v -121.740 1.477 40.451
v -122.870 1.463 39.551
v -125.050 1.659 42.289
v -123.920 1.571 43.189
f 1013 1014 1015 1016
v -97.007 0.465 103.496
v -99.627 0.491 97.726
v -102.813 0.458 99.174
v -100.193 0.465 104.944
f 1017 1018 1019 1020
v -99.627 0.491 97.725
v -106.067 1.419 83.575
v -109.253 1.230 85.025
v -102.813 0.458 99.175
f 1021 1022 1023 1024
v -116.225 1.468 66.114
v -140.335 1.388 81.814
v -138.425 1.323 84.746
v -114.315 1.438 69.046
f 1025 1026 1027 1028
v -140.972 1.354 84.006
v -133.672 1.168 100.016
v -130.488 1.056 98.564
v -137.788 1.359 82.554
f 1029 1030 1031 1032
v -106.067 1.419 83.575
v -113.677 1.484 66.855
v -116.863 1.414 68.305
v -109.253 1.230 85.025
f 1033 1034 1035 1036
usemtl asphalt
