# Baked ultra-low Key West silhouette; generated by bake_key_west_far_city.py
mtllib far_city.mtl
usemtl massing
v -127.790 0.948 -251.528
v -101.658 0.948 -244.387
v -105.270 0.948 -231.172
v -131.402 0.948 -238.313
v -127.790 10.248 -251.528
v -101.658 10.248 -244.387
v -105.270 10.248 -231.172
v -131.402 10.248 -238.313
f 8 7 6 5
f 1 2 6 5
f 2 3 7 6
f 3 4 8 7
f 4 1 5 8
v -98.920 0.933 -233.721
v -75.337 0.933 -247.172
v -68.520 0.933 -235.219
v -92.103 0.933 -221.768
v -98.920 10.233 -233.721
v -75.337 10.233 -247.172
v -68.520 10.233 -235.219
v -92.103 10.233 -221.768
f 16 15 14 13
f 9 10 14 13
f 10 11 15 14
f 11 12 16 15
f 12 9 13 16
v -69.555 1.021 -216.599
v -46.062 1.021 -230.207
v -39.165 1.021 -218.301
v -62.658 1.021 -204.693
v -69.555 10.321 -216.599
v -46.062 10.321 -230.207
v -39.165 10.321 -218.301
v -62.658 10.321 -204.693
f 24 23 22 21
f 17 18 22 21
f 18 19 23 22
f 19 20 24 23
f 20 17 21 24
v -50.038 0.952 -252.026
v -29.230 0.952 -263.965
v -22.442 0.952 -252.134
v -43.250 0.952 -240.195
v -50.038 10.252 -252.026
v -29.230 10.252 -263.965
v -22.442 10.252 -252.134
v -43.250 10.252 -240.195
f 32 31 30 29
f 25 26 30 29
f 26 27 31 30
f 27 28 32 31
f 28 25 29 32
v -176.428 0.978 -246.661
v -146.174 0.978 -272.290
v -133.492 0.978 -257.319
v -163.746 0.978 -231.690
v -176.428 10.278 -246.661
v -146.174 10.278 -272.290
v -133.492 10.278 -257.319
v -163.746 10.278 -231.690
f 40 39 38 37
f 33 34 38 37
f 34 35 39 38
f 35 36 40 39
f 36 33 37 40
v -181.180 2.202 -139.314
v -170.696 2.202 -126.820
v -177.100 2.202 -121.446
v -187.584 2.202 -133.940
v -181.180 6.102 -139.314
v -170.696 6.102 -126.820
v -177.100 6.102 -121.446
v -187.584 6.102 -133.940
f 48 47 46 45
f 41 42 46 45
f 42 43 47 46
f 43 44 48 47
f 44 41 45 48
v -93.891 2.966 -99.522
v -76.101 2.966 -110.549
v -65.149 2.966 -92.878
v -82.939 2.966 -81.851
v -93.891 6.866 -99.522
v -76.101 6.866 -110.549
v -65.149 6.866 -92.878
v -82.939 6.866 -81.851
f 56 55 54 53
f 49 50 54 53
f 50 51 55 54
f 51 52 56 55
f 52 49 53 56
v -8.726 0.991 -191.685
v 15.954 0.991 -192.901
v 16.966 0.991 -172.355
v -7.714 0.991 -171.139
v -8.726 4.891 -191.685
v 15.954 4.891 -192.901
v 16.966 4.891 -172.355
v -7.714 4.891 -171.139
f 64 63 62 61
f 57 58 62 61
f 58 59 63 62
f 59 60 64 63
f 60 57 61 64
v -205.649 1.017 -266.074
v -197.293 1.017 -249.535
v -210.851 1.017 -242.686
v -219.207 1.017 -259.225
v -205.649 4.917 -266.074
v -197.293 4.917 -249.535
v -210.851 4.917 -242.686
v -219.207 4.917 -259.225
f 72 71 70 69
f 65 66 70 69
f 66 67 71 70
f 67 68 72 71
f 68 65 69 72
v -147.335 3.227 -200.824
v -95.757 3.227 -199.324
v -96.585 3.227 -170.836
v -148.163 3.227 -172.336
v -147.335 9.027 -200.824
v -95.757 9.027 -199.324
v -96.585 9.027 -170.836
v -148.163 9.027 -172.336
f 80 79 78 77
f 73 74 78 77
f 74 75 79 78
f 75 76 80 79
f 76 73 77 80
usemtl road
v 76.835 1.418 -258.704
v 34.840 1.443 -238.504
v 37.440 1.579 -233.096
v 79.436 1.404 -253.296
f 81 82 83 84
v 35.019 1.443 -238.583
v 22.189 1.448 -233.413
v 24.431 1.521 -227.847
v 37.261 1.579 -233.017
f 85 86 87 88
v 22.324 1.448 -233.463
v 8.194 1.493 -228.543
v 10.166 1.486 -222.877
v 24.296 1.521 -227.797
f 89 90 91 92
v 8.183 1.493 -228.539
v -8.077 1.462 -222.809
v -6.083 1.558 -217.151
v 10.177 1.486 -222.881
f 93 94 95 96
v -6.879 1.470 -222.973
v -15.089 1.403 -223.523
v -15.491 1.532 -217.537
v -7.281 1.555 -216.987
f 97 98 99 100
v -14.546 1.409 -223.436
v -19.036 1.367 -224.586
v -20.524 1.479 -218.774
v -16.034 1.528 -217.624
f 101 102 103 104
v -18.784 1.369 -224.510
v -24.634 1.305 -226.570
v -26.626 1.354 -220.910
v -20.776 1.475 -218.850
f 105 106 107 108
v -24.130 1.316 -226.338
v -79.993 1.020 -258.598
v -82.994 1.042 -253.402
v -27.130 1.349 -221.142
f 109 110 111 112
v 176.870 1.291 -240.334
v 174.080 1.359 -248.014
v 168.440 1.364 -245.966
v 171.230 1.306 -238.286
f 113 114 115 116
v -257.655 1.235 -242.620
v -251.075 1.339 -238.268
v -247.765 1.360 -243.272
v -254.345 1.251 -247.624
f 117 118 119 120
v 101.736 1.361 -252.271
v 112.516 1.348 -242.551
v 117.204 1.434 -247.749
v 106.424 1.472 -257.469
f 121 122 123 124
v 113.051 1.350 -242.154
v 119.361 1.315 -238.344
v 122.979 1.428 -244.336
v 116.669 1.437 -248.146
f 125 126 127 128
v 119.748 1.312 -238.142
v 124.628 1.326 -235.972
v 127.472 1.440 -242.368
v 122.592 1.428 -244.538
f 129 130 131 132
v 125.036 1.331 -235.820
v 136.166 1.393 -232.450
v 138.194 1.468 -239.150
v 127.064 1.438 -242.520
f 133 134 135 136
v 136.889 1.396 -232.312
v 150.069 1.354 -231.212
v 150.651 1.434 -238.188
v 137.471 1.464 -239.288
f 137 138 139 140
v 150.589 1.353 -231.207
v 159.749 1.248 -231.807
v 159.291 1.320 -238.793
v 150.131 1.435 -238.193
f 141 142 143 144
v 160.451 1.245 -231.926
v 174.981 1.279 -235.936
v 173.119 1.322 -242.684
v 158.589 1.323 -238.674
f 145 146 147 148
v 175.233 1.279 -236.016
v 216.713 1.143 -250.916
v 214.347 1.242 -257.504
v 172.867 1.323 -242.604
f 149 150 151 152
v -250.362 1.344 -239.295
v -239.392 1.322 -232.285
v -237.508 1.402 -235.235
v -248.478 1.362 -242.245
f 153 154 155 156
v -239.611 1.321 -232.451
v -183.051 2.598 -182.301
v -180.729 2.626 -184.919
v -237.289 1.402 -235.069
f 157 158 159 160
v -181.154 2.626 -182.022
v -175.974 2.687 -184.422
v -177.446 2.640 -187.598
v -182.626 2.596 -185.198
f 161 162 163 164
v -174.970 2.676 -186.195
v -176.780 2.500 -203.245
v -180.260 2.445 -202.875
v -178.450 2.648 -185.825
f 165 166 167 168
v -177.319 2.482 -204.333
v -207.839 2.021 -233.143
v -210.241 1.935 -230.597
v -179.721 2.463 -201.787
f 169 170 171 172
v -208.928 1.995 -233.616
v -238.338 1.394 -235.506
v -238.562 1.333 -232.014
v -209.152 1.953 -230.124
f 173 174 175 176
usemtl asphalt
