# Baked ultra-low Key West silhouette; generated by bake_key_west_far_city.py
mtllib far_city.mtl
usemtl massing
v 84.219 1.576 217.481
v 125.591 1.576 172.887
v 147.701 1.576 193.399
v 106.329 1.576 237.993
v 84.219 7.376 217.481
v 125.591 7.376 172.887
v 147.701 7.376 193.399
v 106.329 7.376 237.993
f 8 7 6 5
f 1 2 6 5
f 2 3 7 6
f 3 4 8 7
f 4 1 5 8
v 39.887 0.919 232.088
v 84.021 0.919 170.831
v 117.473 0.919 194.932
v 73.339 0.919 256.189
v 39.887 9.219 232.088
v 84.021 9.219 170.831
v 117.473 9.219 194.932
v 73.339 9.219 256.189
f 16 15 14 13
f 9 10 14 13
f 10 11 15 14
f 11 12 16 15
f 12 9 13 16
v 82.256 0.396 110.472
v 144.309 0.396 68.099
v 167.204 0.396 101.628
v 105.151 0.396 144.001
v 82.256 8.696 110.472
v 144.309 8.696 68.099
v 167.204 8.696 101.628
v 105.151 8.696 144.001
f 24 23 22 21
f 17 18 22 21
f 18 19 23 22
f 19 20 24 23
f 20 17 21 24
v 181.433 1.409 51.429
v 216.382 1.409 91.896
v 194.827 1.409 110.511
v 159.878 1.409 70.044
v 181.433 7.209 51.429
v 216.382 7.209 91.896
v 194.827 7.209 110.511
v 159.878 7.209 70.044
f 32 31 30 29
f 25 26 30 29
f 26 27 31 30
f 27 28 32 31
f 28 25 29 32
v 208.686 1.023 88.786
v 250.487 1.023 162.695
v 190.514 1.023 196.614
v 148.713 1.023 122.705
v 208.686 9.323 88.786
v 250.487 9.323 162.695
v 190.514 9.323 196.614
v 148.713 9.323 122.705
f 40 39 38 37
f 33 34 38 37
f 34 35 39 38
f 35 36 40 39
f 36 33 37 40
v 173.473 0.828 184.308
v 176.108 0.828 180.948
v 179.327 0.828 183.472
v 176.692 0.828 186.832
v 173.473 4.728 184.308
v 176.108 4.728 180.948
v 179.327 4.728 183.472
v 176.692 4.728 186.832
f 48 47 46 45
f 41 42 46 45
f 42 43 47 46
f 43 44 48 47
f 44 41 45 48
v 142.759 1.305 141.840
v 151.992 1.305 128.092
v 161.921 1.305 134.760
v 152.688 1.305 148.508
v 142.759 5.205 141.840
v 151.992 5.205 128.092
v 161.921 5.205 134.760
v 152.688 5.205 148.508
f 56 55 54 53
f 49 50 54 53
f 50 51 55 54
f 51 52 56 55
f 52 49 53 56
v 187.970 0.394 206.880
v 207.681 0.394 219.342
v 197.110 0.394 236.060
v 177.399 0.394 223.598
v 187.970 4.694 206.880
v 207.681 4.694 219.342
v 197.110 4.694 236.060
v 177.399 4.694 223.598
f 64 63 62 61
f 57 58 62 61
f 58 59 63 62
f 59 60 64 63
f 60 57 61 64
v 199.342 0.469 217.960
v 215.458 0.469 194.880
v 223.878 0.469 200.760
v 207.762 0.469 223.840
v 199.342 6.769 217.960
v 215.458 6.769 194.880
v 223.878 6.769 200.760
v 207.762 6.769 223.840
f 72 71 70 69
f 65 66 70 69
f 66 67 71 70
f 67 68 72 71
f 68 65 69 72
v 226.223 0.343 192.761
v 257.132 0.343 208.421
v 250.637 0.343 221.239
v 219.728 0.343 205.579
v 226.223 4.643 192.761
v 257.132 4.643 208.421
v 250.637 4.643 221.239
v 219.728 4.643 205.579
f 80 79 78 77
f 73 74 78 77
f 74 75 79 78
f 75 76 80 79
f 76 73 77 80
v 54.746 -0.300 161.927
v 56.517 -0.300 166.700
v 52.654 -0.300 168.133
v 50.883 -0.300 163.360
v 54.746 3.600 161.927
v 56.517 3.600 166.700
v 52.654 3.600 168.133
v 50.883 3.600 163.360
f 88 87 86 85
f 81 82 86 85
f 82 83 87 86
f 83 84 88 87
f 84 81 85 88
v 186.615 0.213 242.712
v 190.622 0.213 241.995
v 191.265 0.213 245.588
v 187.258 0.213 246.305
v 186.615 4.113 242.712
v 190.622 4.113 241.995
v 191.265 4.113 245.588
v 187.258 4.113 246.305
f 96 95 94 93
f 89 90 94 93
f 90 91 95 94
f 91 92 96 95
f 92 89 93 96
usemtl road
v 148.935 0.395 204.758
v 131.893 0.440 255.118
v 137.103 0.424 256.882
v 154.145 0.332 206.522
f 97 98 99 100
v 129.341 0.440 177.399
v 134.761 0.535 185.429
v 139.319 0.530 182.351
v 133.899 0.482 174.321
f 101 102 103 104
v 134.752 0.535 185.415
v 149.252 0.432 207.165
v 153.828 0.314 204.115
v 139.328 0.530 182.365
f 105 106 107 108
v 149.265 0.432 207.185
v 179.705 0.452 251.995
v 184.255 0.422 248.905
v 153.815 0.313 204.095
f 109 110 111 112
v 179.672 0.452 251.945
v 183.268 0.482 257.495
v 187.884 0.443 254.505
v 184.288 0.421 248.955
f 113 114 115 116
v 254.655 0.728 64.201
v 251.855 0.716 59.771
v 247.205 0.646 62.709
v 250.005 0.670 67.139
f 117 118 119 120
v 251.077 0.332 209.746
v 229.777 0.347 223.756
v 233.623 0.328 229.604
v 254.923 0.317 215.594
f 121 122 123 124
v 229.795 0.347 223.744
v 189.445 0.367 249.924
v 193.255 0.393 255.796
v 233.605 0.328 229.616
f 125 126 127 128
v 189.497 0.366 249.891
v 184.466 0.446 253.031
v 188.172 0.473 258.969
v 193.203 0.393 255.829
f 129 130 131 132
v 245.965 0.527 52.333
v 241.145 0.120 44.953
v 238.215 0.120 46.867
v 243.035 0.529 54.247
f 133 134 135 136
v 251.397 0.678 64.189
v 236.027 0.760 73.869
v 237.893 0.784 76.831
v 253.263 0.683 67.151
f 137 138 139 140
v 235.279 0.766 74.863
v 233.409 0.741 81.323
v 236.771 0.739 82.297
v 238.641 0.788 75.837
f 141 142 143 144
v 233.483 0.739 82.503
v 238.253 0.732 93.563
v 241.467 0.747 92.177
v 236.697 0.742 81.117
f 145 146 147 148
v 238.740 0.736 94.215
v 243.930 0.783 98.535
v 246.170 0.772 95.845
v 240.980 0.744 91.525
f 149 150 151 152
v 245.263 0.784 98.927
v 251.393 0.773 98.177
v 250.967 0.784 94.703
v 244.837 0.774 95.453
f 153 154 155 156
v 40.400 0.895 248.633
v 46.300 0.895 231.923
v 43.000 0.961 230.757
v 37.100 0.962 247.467
f 157 158 159 160
v 44.084 0.918 232.996
v 116.154 0.943 257.606
v 117.286 0.973 254.294
v 45.216 0.953 229.684
f 161 162 163 164
v 205.660 1.154 178.235
v 223.140 0.781 204.695
v 226.060 0.760 202.765
v 208.580 1.141 176.305
f 165 166 167 168
v 225.548 0.792 205.201
v 242.998 0.680 193.951
v 241.102 0.724 191.009
v 223.652 0.766 202.259
f 169 170 171 172
v 243.535 0.695 191.555
v 226.715 1.095 164.555
v 223.745 1.099 166.405
v 240.565 0.712 193.405
f 173 174 175 176
v 240.298 0.853 129.912
v 234.708 0.922 133.872
v 236.732 0.909 136.728
v 242.322 0.839 132.768
f 177 178 179 180
v 234.756 0.922 133.839
v 229.816 0.958 137.099
v 231.744 0.957 140.021
v 236.684 0.909 136.761
f 181 182 183 184
v 241.885 1.045 154.742
v 232.305 0.937 137.702
v 229.255 0.969 139.418
v 238.835 1.023 156.458
f 185 186 187 188
v 232.264 0.937 137.633
v 209.424 0.942 101.063
v 206.456 0.984 102.917
v 229.296 0.970 139.487
f 189 190 191 192
v 208.880 0.962 103.466
v 210.890 0.949 102.186
v 209.010 0.951 99.234
v 207.000 0.969 100.514
f 193 194 195 196
v 210.885 0.949 102.189
v 219.235 0.848 96.909
v 217.365 0.858 93.951
v 209.015 0.950 99.231
f 197 198 199 200
v 216.827 0.871 96.374
v 239.837 0.863 132.284
v 242.783 0.837 130.396
v 219.773 0.838 94.486
f 201 202 203 204
v 240.505 0.856 132.894
v 246.685 0.826 136.094
v 248.295 0.817 132.986
v 242.115 0.840 129.786
f 205 206 207 208
v 138.090 0.539 185.290
v 154.600 0.786 172.910
v 152.500 0.801 170.110
v 135.990 0.508 182.490
f 209 210 211 212
v 152.138 0.742 172.544
v 172.348 0.771 200.144
v 175.172 0.869 198.076
v 154.962 0.814 170.476
f 213 214 215 216
v 174.719 0.827 200.574
v 208.079 1.124 178.734
v 206.161 1.164 175.806
v 172.801 0.821 197.646
f 217 218 219 220
v 208.075 1.124 178.737
v 226.185 1.070 166.947
v 224.275 1.127 164.013
v 206.165 1.164 175.803
f 221 222 223 224
v 226.187 1.070 166.945
v 241.317 1.023 157.065
v 239.403 1.046 154.135
v 224.273 1.127 164.015
f 225 226 227 228
v 238.861 1.023 156.504
v 254.501 0.644 182.435
v 257.499 0.604 180.628
v 241.859 1.046 154.696
f 229 230 231 232
v 253.184 0.120 254.982
v 233.144 0.342 225.692
v 230.256 0.338 227.668
v 250.296 0.120 256.958
f 233 234 235 236
v 123.816 0.120 133.008
v 138.616 1.256 151.088
v 141.324 1.490 148.872
v 126.524 1.173 130.792
f 237 238 239 240
v 138.894 1.419 151.360
v 153.964 0.987 163.110
v 156.116 1.076 160.350
v 141.046 1.498 148.600
f 241 242 243 244
v 153.310 1.029 161.466
v 151.820 0.766 171.246
v 155.280 0.807 171.774
v 156.770 1.012 161.994
f 245 246 247 248
v 251.009 0.677 60.304
v 245.979 0.527 52.354
v 243.021 0.528 54.226
v 248.051 0.643 62.176
f 249 250 251 252
usemtl asphalt
