# Baked ultra-low Key West silhouette; generated by bake_key_west_far_city.py
mtllib far_city.mtl
usemtl massing
v 107.253 1.111 -69.296
v 110.530 1.111 -32.130
v 85.507 1.111 -29.924
v 82.230 1.111 -67.090
v 107.253 6.911 -69.296
v 110.530 6.911 -32.130
v 85.507 6.911 -29.924
v 82.230 6.911 -67.090
f 8 7 6 5
f 1 2 6 5
f 2 3 7 6
f 3 4 8 7
f 4 1 5 8
v 89.126 1.079 202.002
v 91.271 1.079 164.033
v 107.994 1.079 164.978
v 105.849 1.079 202.947
v 89.126 6.879 202.002
v 91.271 6.879 164.033
v 107.994 6.879 164.978
v 105.849 6.879 202.947
f 16 15 14 13
f 9 10 14 13
f 10 11 15 14
f 11 12 16 15
f 12 9 13 16
v 121.323 2.468 5.010
v 153.149 2.468 -38.106
v 190.617 2.468 -10.450
v 158.791 2.468 32.666
v 121.323 10.768 5.010
v 153.149 10.768 -38.106
v 190.617 10.768 -10.450
v 158.791 10.768 32.666
f 24 23 22 21
f 17 18 22 21
f 18 19 23 22
f 19 20 24 23
f 20 17 21 24
v 122.190 0.463 -132.727
v 130.967 0.463 -119.542
v 120.770 0.463 -112.753
v 111.993 0.463 -125.938
v 122.190 6.763 -132.727
v 130.967 6.763 -119.542
v 120.770 6.763 -112.753
v 111.993 6.763 -125.938
f 32 31 30 29
f 25 26 30 29
f 26 27 31 30
f 27 28 32 31
f 28 25 29 32
v 52.138 1.075 -100.822
v 106.376 1.075 -123.940
v 117.382 1.075 -98.118
v 63.144 1.075 -75.000
v 52.138 7.875 -100.822
v 106.376 7.875 -123.940
v 117.382 7.875 -98.118
v 63.144 7.875 -75.000
f 40 39 38 37
f 33 34 38 37
f 34 35 39 38
f 35 36 40 39
f 36 33 37 40
v 67.645 0.591 -164.150
v 92.081 0.591 -173.088
v 95.935 0.591 -162.550
v 71.499 0.591 -153.612
v 67.645 6.891 -164.150
v 92.081 6.891 -173.088
v 95.935 6.891 -162.550
v 71.499 6.891 -153.612
f 48 47 46 45
f 41 42 46 45
f 42 43 47 46
f 43 44 48 47
f 44 41 45 48
v 72.025 0.672 -173.107
v 96.103 0.672 -181.714
v 99.155 0.672 -173.173
v 75.077 0.672 -164.566
v 72.025 4.172 -173.107
v 96.103 4.172 -181.714
v 99.155 4.172 -173.173
v 75.077 4.172 -164.566
f 56 55 54 53
f 49 50 54 53
f 50 51 55 54
f 51 52 56 55
f 52 49 53 56
v 85.638 0.508 -153.294
v 90.618 0.508 -155.080
v 91.462 0.508 -152.726
v 86.482 0.508 -150.940
v 85.638 4.408 -153.294
v 90.618 4.408 -155.080
v 91.462 4.408 -152.726
v 86.482 4.408 -150.940
f 64 63 62 61
f 57 58 62 61
f 58 59 63 62
f 59 60 64 63
f 60 57 61 64
v 91.774 0.502 -132.795
v 112.991 0.502 -139.084
v 117.686 0.502 -123.245
v 96.469 0.502 -116.956
v 91.774 6.802 -132.795
v 112.991 6.802 -139.084
v 117.686 6.802 -123.245
v 96.469 6.802 -116.956
f 72 71 70 69
f 65 66 70 69
f 66 67 71 70
f 67 68 72 71
f 68 65 69 72
v 122.323 0.380 -128.777
v 132.182 0.380 -114.574
v 126.317 0.380 -110.503
v 116.458 0.380 -124.706
v 122.323 4.280 -128.777
v 132.182 4.280 -114.574
v 126.317 4.280 -110.503
v 116.458 4.280 -124.706
f 80 79 78 77
f 73 74 78 77
f 74 75 79 78
f 75 76 80 79
f 76 73 77 80
v 124.050 0.402 -132.406
v 130.941 0.402 -134.628
v 132.190 0.402 -130.754
v 125.299 0.402 -128.532
v 124.050 4.302 -132.406
v 130.941 4.302 -134.628
v 132.190 4.302 -130.754
v 125.299 4.302 -128.532
f 88 87 86 85
f 81 82 86 85
f 82 83 87 86
f 83 84 88 87
f 84 81 85 88
v 68.664 0.629 -229.484
v 114.620 0.629 -248.146
v 122.356 0.629 -229.096
v 76.400 0.629 -210.434
v 68.664 6.429 -229.484
v 114.620 6.429 -248.146
v 122.356 6.429 -229.096
v 76.400 6.429 -210.434
f 96 95 94 93
f 89 90 94 93
f 90 91 95 94
f 91 92 96 95
f 92 89 93 96
v 79.959 0.733 -114.188
v 87.970 0.733 -116.937
v 88.781 0.733 -114.572
v 80.770 0.733 -111.823
v 79.959 4.633 -114.188
v 87.970 4.633 -116.937
v 88.781 4.633 -114.572
v 80.770 4.633 -111.823
f 104 103 102 101
f 97 98 102 101
f 98 99 103 102
f 99 100 104 103
f 100 97 101 104
v 37.263 1.039 -131.601
v 73.254 1.039 -145.796
v 79.737 1.039 -129.359
v 43.746 1.039 -115.164
v 37.263 6.839 -131.601
v 73.254 6.839 -145.796
v 79.737 6.839 -129.359
v 43.746 6.839 -115.164
f 112 111 110 109
f 105 106 110 109
f 106 107 111 110
f 107 108 112 111
f 108 105 109 112
v 114.957 0.372 -161.410
v 116.158 0.372 -157.710
v 113.323 0.372 -156.790
v 112.122 0.372 -160.490
v 114.957 4.272 -161.410
v 116.158 4.272 -157.710
v 113.323 4.272 -156.790
v 112.122 4.272 -160.490
f 120 119 118 117
f 113 114 118 117
f 114 115 119 118
f 115 116 120 119
f 116 113 117 120
v 109.876 0.354 -150.027
v 116.129 0.354 -152.201
v 117.564 0.354 -148.073
v 111.311 0.354 -145.899
v 109.876 4.254 -150.027
v 116.129 4.254 -152.201
v 117.564 4.254 -148.073
v 111.311 4.254 -145.899
f 128 127 126 125
f 121 122 126 125
f 122 123 127 126
f 123 124 128 127
f 124 121 125 128
v 108.798 0.418 -145.929
v 114.986 0.418 -148.107
v 116.062 0.418 -145.051
v 109.874 0.418 -142.873
v 108.798 4.318 -145.929
v 114.986 4.318 -148.107
v 116.062 4.318 -145.051
v 109.874 4.318 -142.873
f 136 135 134 133
f 129 130 134 133
f 130 131 135 134
f 131 132 136 135
f 132 129 133 136
v 120.590 0.446 -144.539
v 130.631 0.446 -147.810
v 133.410 0.446 -139.281
v 123.369 0.446 -136.010
v 120.590 3.946 -144.539
v 130.631 3.946 -147.810
v 133.410 3.946 -139.281
v 123.369 3.946 -136.010
f 144 143 142 141
f 137 138 142 141
f 138 139 143 142
f 139 140 144 143
f 140 137 141 144
v 121.291 0.324 -148.587
v 132.540 0.324 -152.406
v 133.549 0.324 -149.433
v 122.300 0.324 -145.614
v 121.291 4.224 -148.587
v 132.540 4.224 -152.406
v 133.549 4.224 -149.433
v 122.300 4.224 -145.614
f 152 151 150 149
f 145 146 150 149
f 146 147 151 150
f 147 148 152 151
f 148 145 149 152
v 119.598 0.402 -157.248
v 131.695 0.402 -161.116
v 132.822 0.402 -157.592
v 120.725 0.402 -153.724
v 119.598 4.302 -157.248
v 131.695 4.302 -161.116
v 132.822 4.302 -157.592
v 120.725 4.302 -153.724
f 160 159 158 157
f 153 154 158 157
f 154 155 159 158
f 155 156 160 159
f 156 153 157 160
v 174.084 1.184 -46.298
v 182.658 1.184 -56.855
v 192.796 1.184 -48.622
v 184.222 1.184 -38.065
v 174.084 5.084 -46.298
v 182.658 5.084 -56.855
v 192.796 5.084 -48.622
v 184.222 5.084 -38.065
f 168 167 166 165
f 161 162 166 165
f 162 163 167 166
f 163 164 168 167
f 164 161 165 168
v 20.894 1.571 -48.810
v 117.667 1.571 25.480
v 85.186 1.571 67.790
v -11.587 1.571 -6.500
v 20.894 9.871 -48.810
v 117.667 9.871 25.480
v 85.186 9.871 67.790
v -11.587 9.871 -6.500
f 176 175 174 173
f 169 170 174 173
f 170 171 175 174
f 171 172 176 175
f 172 169 173 176
v 137.664 1.982 74.215
v 167.304 1.982 74.385
v 167.216 1.982 89.745
v 137.576 1.982 89.575
v 137.664 5.882 74.215
v 167.304 5.882 74.385
v 167.216 5.882 89.745
v 137.576 5.882 89.575
f 184 183 182 181
f 177 178 182 181
f 178 179 183 182
f 179 180 184 183
f 180 177 181 184
v 32.981 -0.300 11.579
v 112.709 -0.300 -5.129
v 126.119 -0.300 58.861
v 46.391 -0.300 75.569
v 32.981 12.000 11.579
v 112.709 12.000 -5.129
v 126.119 12.000 58.861
v 46.391 12.000 75.569
f 192 191 190 189
f 185 186 190 189
f 186 187 191 190
f 187 188 192 191
f 188 185 189 192
v 81.079 1.565 125.392
v 85.079 1.565 75.311
v 118.841 1.565 78.008
v 114.841 1.565 128.089
v 81.079 7.365 125.392
v 85.079 7.365 75.311
v 118.841 7.365 78.008
v 114.841 7.365 128.089
f 200 199 198 197
f 193 194 198 197
f 194 195 199 198
f 195 196 200 199
f 196 193 197 200
v 21.649 2.394 189.938
v 40.335 2.394 129.679
v 83.431 2.394 143.042
v 64.745 2.394 203.301
v 21.649 10.694 189.938
v 40.335 10.694 129.679
v 83.431 10.694 143.042
v 64.745 10.694 203.301
f 208 207 206 205
f 201 202 206 205
f 202 203 207 206
f 203 204 208 207
f 204 201 205 208
v 222.855 -0.119 -282.318
v 253.685 -0.119 -241.579
v 225.305 -0.119 -220.102
v 194.475 -0.119 -260.841
v 222.855 5.681 -282.318
v 253.685 5.681 -241.579
v 225.305 5.681 -220.102
v 194.475 5.681 -260.841
f 216 215 214 213
f 209 210 214 213
f 210 211 215 214
f 211 212 216 215
f 212 209 213 216
v 145.599 1.855 208.558
v 174.862 1.855 218.229
v 169.041 1.855 235.842
v 139.778 1.855 226.171
v 145.599 5.755 208.558
v 174.862 5.755 218.229
v 169.041 5.755 235.842
v 139.778 5.755 226.171
f 224 223 222 221
f 217 218 222 221
f 218 219 223 222
f 219 220 224 223
f 220 217 221 224
v 143.771 1.782 185.461
v 164.271 1.782 185.399
v 164.309 1.782 198.079
v 143.809 1.782 198.141
v 143.771 5.682 185.461
v 164.271 5.682 185.399
v 164.309 5.682 198.079
v 143.809 5.682 198.141
f 232 231 230 229
f 225 226 230 229
f 226 227 231 230
f 227 228 232 231
f 228 225 229 232
v 142.319 2.130 159.808
v 162.177 2.130 160.725
v 161.641 2.130 172.332
v 141.783 2.130 171.415
v 142.319 6.030 159.808
v 162.177 6.030 160.725
v 161.641 6.030 172.332
v 141.783 6.030 171.415
f 240 239 238 237
f 233 234 238 237
f 234 235 239 238
f 235 236 240 239
f 236 233 237 240
v 142.714 2.121 146.613
v 158.881 2.121 142.349
v 162.366 2.121 155.567
v 146.199 2.121 159.831
v 142.714 6.021 146.613
v 158.881 6.021 142.349
v 162.366 6.021 155.567
v 146.199 6.021 159.831
f 248 247 246 245
f 241 242 246 245
f 242 243 247 246
f 243 244 248 247
f 244 241 245 248
v 158.468 0.579 -233.451
v 162.951 0.579 -228.365
v 157.872 0.579 -223.889
v 153.389 0.579 -228.975
v 158.468 4.479 -233.451
v 162.951 4.479 -228.365
v 157.872 4.479 -223.889
v 153.389 4.479 -228.975
f 256 255 254 253
f 249 250 254 253
f 250 251 255 254
f 251 252 256 255
f 252 249 253 256
v 147.615 0.516 -209.008
v 153.016 0.516 -173.628
v 118.585 0.516 -168.372
v 113.184 0.516 -203.752
v 147.615 4.816 -209.008
v 153.016 4.816 -173.628
v 118.585 4.816 -168.372
v 113.184 4.816 -203.752
f 264 263 262 261
f 257 258 262 261
f 258 259 263 262
f 259 260 264 263
f 260 257 261 264
v 125.064 0.531 -215.361
v 153.247 0.531 -224.178
v 157.376 0.531 -210.979
v 129.193 0.531 -202.162
v 125.064 4.431 -215.361
v 153.247 4.431 -224.178
v 157.376 4.431 -210.979
v 129.193 4.431 -202.162
f 272 271 270 269
f 265 266 270 269
f 266 267 271 270
f 267 268 272 271
f 268 265 269 272
v 20.036 0.900 -230.820
v 22.501 0.900 -225.515
v 17.304 0.900 -223.100
v 14.839 0.900 -228.405
v 20.036 4.800 -230.820
v 22.501 4.800 -225.515
v 17.304 4.800 -223.100
v 14.839 4.800 -228.405
f 280 279 278 277
f 273 274 278 277
f 274 275 279 278
f 275 276 280 279
f 276 273 277 280
v 45.291 0.802 -203.469
v 69.330 0.802 -225.058
v 86.329 0.802 -206.131
v 62.290 0.802 -184.542
v 45.291 6.602 -203.469
v 69.330 6.602 -225.058
v 86.329 6.602 -206.131
v 62.290 6.602 -184.542
f 288 287 286 285
f 281 282 286 285
f 282 283 287 286
f 283 284 288 287
f 284 281 285 288
v 67.152 0.803 -181.501
v 71.255 0.803 -170.203
v 62.928 0.803 -167.179
v 58.825 0.803 -178.477
v 67.152 4.703 -181.501
v 71.255 4.703 -170.203
v 62.928 4.703 -167.179
v 58.825 4.703 -178.477
f 296 295 294 293
f 289 290 294 293
f 290 291 295 294
f 291 292 296 295
f 292 289 293 296
v 103.875 1.393 208.440
v 114.789 1.393 208.803
v 114.625 1.393 213.740
v 103.711 1.393 213.377
v 103.875 5.293 208.440
v 114.789 5.293 208.803
v 114.625 5.293 213.740
v 103.711 5.293 213.377
f 304 303 302 301
f 297 298 302 301
f 298 299 303 302
f 299 300 304 303
f 300 297 301 304
v 118.402 1.741 219.423
v 122.287 1.741 242.326
v 103.358 1.741 245.537
v 99.473 1.741 222.634
v 118.402 5.641 219.423
v 122.287 5.641 242.326
v 103.358 5.641 245.537
v 99.473 5.641 222.634
f 312 311 310 309
f 305 306 310 309
f 306 307 311 310
f 307 308 312 311
f 308 305 309 312
v -2.415 1.510 108.282
v 59.989 1.510 48.454
v 96.155 1.510 86.178
v 33.751 1.510 146.006
v -2.415 9.810 108.282
v 59.989 9.810 48.454
v 96.155 9.810 86.178
v 33.751 9.810 146.006
f 320 319 318 317
f 313 314 318 317
f 314 315 319 318
f 315 316 320 319
f 316 313 317 320
v 151.130 1.801 91.642
v 157.378 1.801 91.759
v 157.270 1.801 97.558
v 151.022 1.801 97.441
v 151.130 5.701 91.642
v 157.378 5.701 91.759
v 157.270 5.701 97.558
v 151.022 5.701 97.441
f 328 327 326 325
f 321 322 326 325
f 322 323 327 326
f 323 324 328 327
f 324 321 325 328
v 138.709 2.008 90.576
v 150.148 2.008 90.755
v 149.971 2.008 102.084
v 138.532 2.008 101.905
v 138.709 5.908 90.576
v 150.148 5.908 90.755
v 149.971 5.908 102.084
v 138.532 5.908 101.905
f 336 335 334 333
f 329 330 334 333
f 330 331 335 334
f 331 332 336 335
f 332 329 333 336
v 174.655 2.579 51.143
v 204.125 2.579 70.575
v 196.765 2.579 81.737
v 167.295 2.579 62.305
v 174.655 8.379 51.143
v 204.125 8.379 70.575
v 196.765 8.379 81.737
v 167.295 8.379 62.305
f 344 343 342 341
f 337 338 342 341
f 338 339 343 342
f 339 340 344 343
f 340 337 341 344
v 140.006 2.024 35.947
v 165.607 2.024 36.940
v 165.214 2.024 47.073
v 139.613 2.024 46.080
v 140.006 5.924 35.947
v 165.607 5.924 36.940
v 165.214 5.924 47.073
v 139.613 5.924 46.080
f 352 351 350 349
f 345 346 350 349
f 346 347 351 350
f 347 348 352 351
f 348 345 349 352
v 134.552 0.457 -122.700
v 162.957 0.457 -151.061
v 182.168 0.457 -131.820
v 153.763 0.457 -103.459
v 134.552 6.257 -122.700
v 162.957 6.257 -151.061
v 182.168 6.257 -131.820
v 153.763 6.257 -103.459
f 360 359 358 357
f 353 354 358 357
f 354 355 359 358
f 355 356 360 359
f 356 353 357 360
v 190.977 0.881 -16.132
v 199.920 0.881 -28.596
v 211.303 0.881 -20.428
v 202.360 0.881 -7.964
v 190.977 4.781 -16.132
v 199.920 4.781 -28.596
v 211.303 4.781 -20.428
v 202.360 4.781 -7.964
f 368 367 366 365
f 361 362 366 365
f 362 363 367 366
f 363 364 368 367
f 364 361 365 368
v 214.614 0.964 -10.410
v 224.795 0.964 -2.903
v 218.266 0.964 5.950
v 208.085 0.964 -1.557
v 214.614 4.864 -10.410
v 224.795 4.864 -2.903
v 218.266 4.864 5.950
v 208.085 4.864 -1.557
f 376 375 374 373
f 369 370 374 373
f 370 371 375 374
f 371 372 376 375
f 372 369 373 376
v 237.349 0.827 35.579
v 244.042 0.827 25.910
v 251.311 0.827 30.941
v 244.618 0.827 40.610
v 237.349 4.727 35.579
v 244.042 4.727 25.910
v 251.311 4.727 30.941
v 244.618 4.727 40.610
f 384 383 382 381
f 377 378 382 381
f 378 379 383 382
f 379 380 384 383
f 380 377 381 384
v 227.060 0.828 42.632
v 234.326 0.828 32.106
v 242.440 0.828 37.708
v 235.174 0.828 48.234
v 227.060 4.728 42.632
v 234.326 4.728 32.106
v 242.440 4.728 37.708
v 235.174 4.728 48.234
f 392 391 390 389
f 385 386 390 389
f 386 387 391 390
f 387 388 392 391
f 388 385 389 392
v 228.433 1.130 3.729
v 245.373 1.130 15.025
v 237.567 1.130 26.731
v 220.627 1.130 15.435
v 228.433 5.030 3.729
v 245.373 5.030 15.025
v 237.567 5.030 26.731
v 220.627 5.030 15.435
f 400 399 398 397
f 393 394 398 397
f 394 395 399 398
f 395 396 400 399
f 396 393 397 400
v 228.147 0.523 -50.360
v 241.889 0.523 -41.137
v 237.313 0.523 -34.320
v 223.571 0.523 -43.543
v 228.147 4.423 -50.360
v 241.889 4.423 -41.137
v 237.313 4.423 -34.320
v 223.571 4.423 -43.543
f 408 407 406 405
f 401 402 406 405
f 402 403 407 406
f 403 404 408 407
f 404 401 405 408
v 220.797 0.555 -65.418
v 234.101 0.555 -56.494
v 229.343 0.555 -49.402
v 216.039 0.555 -58.326
v 220.797 7.355 -65.418
v 234.101 7.355 -56.494
v 229.343 7.355 -49.402
v 216.039 7.355 -58.326
f 416 415 414 413
f 409 410 414 413
f 410 411 415 414
f 411 412 416 415
f 412 409 413 416
v 201.001 0.635 -68.030
v 212.920 0.635 -83.312
v 221.539 0.635 -76.590
v 209.620 0.635 -61.308
v 201.001 7.435 -68.030
v 212.920 7.435 -83.312
v 221.539 7.435 -76.590
v 209.620 7.435 -61.308
f 424 423 422 421
f 417 418 422 421
f 418 419 423 422
f 419 420 424 423
f 420 417 421 424
v 209.999 0.531 -74.798
v 218.742 0.531 -87.537
v 225.701 0.531 -82.762
v 216.958 0.531 -70.023
v 209.999 7.331 -74.798
v 218.742 7.331 -87.537
v 225.701 7.331 -82.762
v 216.958 7.331 -70.023
f 432 431 430 429
f 425 426 430 429
f 426 427 431 430
f 427 428 432 431
f 428 425 429 432
v 219.428 0.325 -91.597
v 243.268 0.325 -97.247
v 247.512 0.325 -79.343
v 223.672 0.325 -73.693
v 219.428 7.125 -91.597
v 243.268 7.125 -97.247
v 247.512 7.125 -79.343
v 223.672 7.125 -73.693
f 440 439 438 437
f 433 434 438 437
f 434 435 439 438
f 435 436 440 439
f 436 433 437 440
v 242.755 0.415 -123.376
v 280.044 0.415 -103.026
v 267.665 0.415 -80.344
v 230.376 0.415 -100.694
v 242.755 7.215 -123.376
v 280.044 7.215 -103.026
v 267.665 7.215 -80.344
v 230.376 7.215 -100.694
f 448 447 446 445
f 441 442 446 445
f 442 443 447 446
f 443 444 448 447
f 444 441 445 448
v 249.709 0.376 -98.690
v 272.643 0.376 -67.967
v 253.571 0.376 -53.730
v 230.637 0.376 -84.453
v 249.709 7.176 -98.690
v 272.643 7.176 -67.967
v 253.571 7.176 -53.730
v 230.637 7.176 -84.453
f 456 455 454 453
f 449 450 454 453
f 450 451 455 454
f 451 452 456 455
f 452 449 453 456
v 214.264 0.277 -188.987
v 217.561 0.277 -193.771
v 220.896 0.277 -191.473
v 217.599 0.277 -186.689
v 214.264 4.177 -188.987
v 217.561 4.177 -193.771
v 220.896 4.177 -191.473
v 217.599 4.177 -186.689
f 464 463 462 461
f 457 458 462 461
f 458 459 463 462
f 459 460 464 463
f 460 457 461 464
v 206.621 0.578 -171.138
v 218.376 0.578 -187.083
v 233.379 0.578 -176.022
v 221.624 0.578 -160.077
v 206.621 4.478 -171.138
v 218.376 4.478 -187.083
v 233.379 4.478 -176.022
v 221.624 4.478 -160.077
f 472 471 470 469
f 465 466 470 469
f 466 467 471 470
f 467 468 472 471
f 468 465 469 472
v 225.021 0.505 -169.750
v 239.322 0.505 -160.123
v 234.319 0.505 -152.690
v 220.018 0.505 -162.317
v 225.021 4.405 -169.750
v 239.322 4.405 -160.123
v 234.319 4.405 -152.690
v 220.018 4.405 -162.317
f 480 479 478 477
f 473 474 478 477
f 474 475 479 478
f 475 476 480 479
f 476 473 477 480
v 229.808 0.509 -161.333
v 245.601 0.509 -150.697
v 240.032 0.509 -142.427
v 224.239 0.509 -153.063
v 229.808 4.409 -161.333
v 245.601 4.409 -150.697
v 240.032 4.409 -142.427
v 224.239 4.409 -153.063
f 488 487 486 485
f 481 482 486 485
f 482 483 487 486
f 483 484 488 487
f 484 481 485 488
v 229.101 0.428 -124.921
v 236.201 0.428 -134.867
v 245.179 0.428 -128.459
v 238.079 0.428 -118.513
v 229.101 4.328 -124.921
v 236.201 4.328 -134.867
v 245.179 4.328 -128.459
v 238.079 4.328 -118.513
f 496 495 494 493
f 489 490 494 493
f 490 491 495 494
f 491 492 496 495
f 492 489 493 496
v 245.909 0.396 -133.414
v 252.041 0.396 -144.272
v 258.711 0.396 -140.506
v 252.579 0.396 -129.648
v 245.909 4.296 -133.414
v 252.041 4.296 -144.272
v 258.711 4.296 -140.506
v 252.579 4.296 -129.648
f 504 503 502 501
f 497 498 502 501
f 498 499 503 502
f 499 500 504 503
f 500 497 501 504
v 228.396 0.468 -153.591
v 253.043 0.468 -139.889
v 246.484 0.468 -128.089
v 221.837 0.468 -141.791
v 228.396 4.368 -153.591
v 253.043 4.368 -139.889
v 246.484 4.368 -128.089
v 221.837 4.368 -141.791
f 512 511 510 509
f 505 506 510 509
f 506 507 511 510
f 507 508 512 511
f 508 505 509 512
v 242.590 0.358 -215.062
v 271.811 0.358 -197.857
v 263.110 0.358 -183.078
v 233.889 0.358 -200.283
v 242.590 6.158 -215.062
v 271.811 6.158 -197.857
v 263.110 6.158 -183.078
v 233.889 6.158 -200.283
f 520 519 518 517
f 513 514 518 517
f 514 515 519 518
f 515 516 520 519
f 516 513 517 520
v 233.001 0.481 -220.308
v 254.283 0.481 -209.236
v 247.839 0.481 -196.852
v 226.557 0.481 -207.924
v 233.001 4.381 -220.308
v 254.283 4.381 -209.236
v 247.839 4.381 -196.852
v 226.557 4.381 -207.924
f 528 527 526 525
f 521 522 526 525
f 522 523 527 526
f 523 524 528 527
f 524 521 525 528
v 224.260 0.379 -219.504
v 230.019 0.379 -215.649
v 227.560 0.379 -211.976
v 221.801 0.379 -215.831
v 224.260 4.279 -219.504
v 230.019 4.279 -215.649
v 227.560 4.279 -211.976
v 221.801 4.279 -215.831
f 536 535 534 533
f 529 530 534 533
f 530 531 535 534
f 531 532 536 535
f 532 529 533 536
v 221.428 0.699 -235.773
v 240.102 0.699 -223.169
v 235.632 0.699 -216.547
v 216.958 0.699 -229.151
v 221.428 4.599 -235.773
v 240.102 4.599 -223.169
v 235.632 4.599 -216.547
v 216.958 4.599 -229.151
f 544 543 542 541
f 537 538 542 541
f 538 539 543 542
f 539 540 544 543
f 540 537 541 544
v 139.441 0.570 -119.941
v 171.748 0.570 -110.421
v 165.459 0.570 -89.079
v 133.152 0.570 -98.599
v 139.441 7.870 -119.941
v 171.748 7.870 -110.421
v 165.459 7.870 -89.079
v 133.152 7.870 -98.599
f 552 551 550 549
f 545 546 550 549
f 546 547 551 550
f 547 548 552 551
f 548 545 549 552
v 250.723 2.309 171.299
v 258.860 2.309 176.652
v 255.617 2.309 181.581
v 247.480 2.309 176.228
v 250.723 6.209 171.299
v 258.860 6.209 176.652
v 255.617 6.209 181.581
v 247.480 6.209 176.228
f 560 559 558 557
f 553 554 558 557
f 554 555 559 558
f 555 556 560 559
f 556 553 557 560
v 221.153 2.388 171.465
v 234.053 2.388 180.075
v 229.567 2.388 186.795
v 216.667 2.388 178.185
v 221.153 6.288 171.465
v 234.053 6.288 180.075
v 229.567 6.288 186.795
v 216.667 6.288 178.185
f 568 567 566 565
f 561 562 566 565
f 562 563 567 566
f 563 564 568 567
f 564 561 565 568
v 227.237 2.590 179.315
v 239.891 2.590 187.863
v 235.323 2.590 194.625
v 222.669 2.590 186.077
v 227.237 6.490 179.315
v 239.891 6.490 187.863
v 235.323 6.490 194.625
v 222.669 6.490 186.077
f 576 575 574 573
f 569 570 574 573
f 570 571 575 574
f 571 572 576 575
f 572 569 573 576
v 220.498 2.452 201.455
v 231.889 2.452 207.293
v 226.922 2.452 216.985
v 215.531 2.452 211.147
v 220.498 6.352 201.455
v 231.889 6.352 207.293
v 226.922 6.352 216.985
v 215.531 6.352 211.147
f 584 583 582 581
f 577 578 582 581
f 578 579 583 582
f 579 580 584 583
f 580 577 581 584
v 230.220 2.281 214.331
v 239.905 2.281 221.816
v 235.520 2.281 227.489
v 225.835 2.281 220.004
v 230.220 6.181 214.331
v 239.905 6.181 221.816
v 235.520 6.181 227.489
v 225.835 6.181 220.004
f 592 591 590 589
f 585 586 590 589
f 586 587 591 590
f 587 588 592 591
f 588 585 589 592
v 213.853 2.279 231.621
v 221.738 2.279 220.369
v 226.947 2.279 224.019
v 219.062 2.279 235.271
v 213.853 6.179 231.621
v 221.738 6.179 220.369
v 226.947 6.179 224.019
v 219.062 6.179 235.271
f 600 599 598 597
f 593 594 598 597
f 594 595 599 598
f 595 596 600 599
f 596 593 597 600
v 198.955 1.833 217.195
v 209.659 1.833 223.899
v 205.885 1.833 229.925
v 195.181 1.833 223.221
v 198.955 5.733 217.195
v 209.659 5.733 223.899
v 205.885 5.733 229.925
v 195.181 5.733 223.221
f 608 607 606 605
f 601 602 606 605
f 602 603 607 606
f 603 604 608 607
f 604 601 605 608
v 200.848 2.024 224.734
v 217.976 2.024 227.503
v 215.152 2.024 244.966
v 198.024 2.024 242.197
v 200.848 5.924 224.734
v 217.976 5.924 227.503
v 215.152 5.924 244.966
v 198.024 5.924 242.197
f 616 615 614 613
f 609 610 614 613
f 610 611 615 614
f 611 612 616 615
f 612 609 613 616
v 195.202 2.154 238.007
v 207.072 2.154 245.221
v 200.258 2.154 256.433
v 188.388 2.154 249.219
v 195.202 6.054 238.007
v 207.072 6.054 245.221
v 200.258 6.054 256.433
v 188.388 6.054 249.219
f 624 623 622 621
f 617 618 622 621
f 618 619 623 622
f 619 620 624 623
f 620 617 621 624
v 181.819 1.710 243.484
v 188.029 1.710 243.977
v 187.761 1.710 247.356
v 181.551 1.710 246.863
v 181.819 5.610 243.484
v 188.029 5.610 243.977
v 187.761 5.610 247.356
v 181.551 5.610 246.863
f 632 631 630 629
f 625 626 630 629
f 626 627 631 630
f 627 628 632 631
f 628 625 629 632
v 183.051 1.732 232.831
v 187.469 1.732 233.161
v 187.169 1.732 237.169
v 182.751 1.732 236.839
v 183.051 5.632 232.831
v 187.469 5.632 233.161
v 187.169 5.632 237.169
v 182.751 5.632 236.839
f 640 639 638 637
f 633 634 638 637
f 634 635 639 638
f 635 636 640 639
f 636 633 637 640
v 142.270 1.461 203.108
v 171.577 1.461 202.673
v 171.750 1.461 214.332
v 142.443 1.461 214.767
v 142.270 5.361 203.108
v 171.577 5.361 202.673
v 171.750 5.361 214.332
v 142.443 5.361 214.767
f 648 647 646 645
f 641 642 646 645
f 642 643 647 646
f 643 644 648 647
f 644 641 645 648
v 184.123 1.996 201.793
v 202.334 1.996 206.924
v 197.937 1.996 222.527
v 179.726 1.996 217.396
v 184.123 5.896 201.793
v 202.334 5.896 206.924
v 197.937 5.896 222.527
v 179.726 5.896 217.396
f 656 655 654 653
f 649 650 654 653
f 650 651 655 654
f 651 652 656 655
f 652 649 653 656
v 181.042 1.652 204.762
v 181.565 1.652 197.882
v 187.578 1.652 198.338
v 187.055 1.652 205.218
v 181.042 5.552 204.762
v 181.565 5.552 197.882
v 187.578 5.552 198.338
v 187.055 5.552 205.218
f 664 663 662 661
f 657 658 662 661
f 658 659 663 662
f 659 660 664 663
f 660 657 661 664
v 180.973 1.885 191.826
v 194.842 1.885 191.965
v 194.787 1.885 197.454
v 180.918 1.885 197.315
v 180.973 5.785 191.826
v 194.842 5.785 191.965
v 194.787 5.785 197.454
v 180.918 5.785 197.315
f 672 671 670 669
f 665 666 670 669
f 666 667 671 670
f 667 668 672 671
f 668 665 669 672
v 200.746 2.377 202.309
v 201.431 2.377 189.597
v 213.574 2.377 190.251
v 212.889 2.377 202.963
v 200.746 6.277 202.309
v 201.431 6.277 189.597
v 213.574 6.277 190.251
v 212.889 6.277 202.963
f 680 679 678 677
f 673 674 678 677
f 674 675 679 678
f 675 676 680 679
f 676 673 677 680
v 178.156 2.417 177.273
v 209.756 2.417 172.694
v 212.084 2.417 188.767
v 180.484 2.417 193.346
v 178.156 6.317 177.273
v 209.756 6.317 172.694
v 212.084 6.317 188.767
v 180.484 6.317 193.346
f 688 687 686 685
f 681 682 686 685
f 682 683 687 686
f 683 684 688 687
f 684 681 685 688
v 180.991 1.238 168.646
v 195.221 1.238 169.187
v 195.049 1.238 173.694
v 180.819 1.238 173.153
v 180.991 5.138 168.646
v 195.221 5.138 169.187
v 195.049 5.138 173.694
v 180.819 5.138 173.153
f 696 695 694 693
f 689 690 694 693
f 690 691 695 694
f 691 692 696 695
f 692 689 693 696
v 194.588 1.985 143.908
v 202.551 1.985 161.346
v 187.032 1.985 168.432
v 179.069 1.985 150.994
v 194.588 5.885 143.908
v 202.551 5.885 161.346
v 187.032 5.885 168.432
v 179.069 5.885 150.994
f 704 703 702 701
f 697 698 702 701
f 698 699 703 702
f 699 700 704 703
f 700 697 701 704
v 211.859 2.847 147.722
v 213.631 2.847 166.890
v 199.481 2.847 168.198
v 197.709 2.847 149.030
v 211.859 6.747 147.722
v 213.631 6.747 166.890
v 199.481 6.747 168.198
v 197.709 6.747 149.030
f 712 711 710 709
f 705 706 710 709
f 706 707 711 710
f 707 708 712 711
f 708 705 709 712
v 214.478 2.869 152.855
v 234.197 2.869 153.767
v 233.682 2.869 164.885
v 213.963 2.869 163.973
v 214.478 6.769 152.855
v 234.197 6.769 153.767
v 233.682 6.769 164.885
v 213.963 6.769 163.973
f 720 719 718 717
f 713 714 718 717
f 714 715 719 718
f 715 716 720 719
f 716 713 717 720
v 229.247 1.986 148.062
v 233.124 1.986 148.380
v 232.833 1.986 151.918
v 228.956 1.986 151.600
v 229.247 5.886 148.062
v 233.124 5.886 148.380
v 232.833 5.886 151.918
v 228.956 5.886 151.600
f 728 727 726 725
f 721 722 726 725
f 722 723 727 726
f 723 724 728 727
f 724 721 725 728
v 226.894 2.358 132.749
v 258.210 2.358 114.292
v 268.406 2.358 131.591
v 237.090 2.358 150.048
v 226.894 6.258 132.749
v 258.210 6.258 114.292
v 268.406 6.258 131.591
v 237.090 6.258 150.048
f 736 735 734 733
f 729 730 734 733
f 730 731 735 734
f 731 732 736 735
f 732 729 733 736
v 217.167 2.032 118.491
v 225.496 2.032 93.039
v 244.533 2.032 99.269
v 236.204 2.032 124.721
v 217.167 5.932 118.491
v 225.496 5.932 93.039
v 244.533 5.932 99.269
v 236.204 5.932 124.721
f 744 743 742 741
f 737 738 742 741
f 738 739 743 742
f 739 740 744 743
f 740 737 741 744
v 216.713 1.978 77.055
v 233.276 1.978 87.794
v 224.087 1.978 101.965
v 207.524 1.978 91.226
v 216.713 5.878 77.055
v 233.276 5.878 87.794
v 224.087 5.878 101.965
v 207.524 5.878 91.226
f 752 751 750 749
f 745 746 750 749
f 746 747 751 750
f 747 748 752 751
f 748 745 749 752
v 201.695 1.937 97.559
v 208.358 1.937 87.796
v 212.645 1.937 90.721
v 205.982 1.937 100.484
v 201.695 5.837 97.559
v 208.358 5.837 87.796
v 212.645 5.837 90.721
v 205.982 5.837 100.484
f 760 759 758 757
f 753 754 758 757
f 754 755 759 758
f 755 756 760 759
f 756 753 757 760
v 186.501 1.741 114.068
v 197.315 1.741 97.722
v 208.999 1.741 105.452
v 198.185 1.741 121.798
v 186.501 5.641 114.068
v 197.315 5.641 97.722
v 208.999 5.641 105.452
v 198.185 5.641 121.798
f 768 767 766 765
f 761 762 766 765
f 762 763 767 766
f 763 764 768 767
f 764 761 765 768
v 164.415 2.668 123.023
v 195.645 2.668 109.914
v 204.025 2.668 129.877
v 172.795 2.668 142.986
v 164.415 6.568 123.023
v 195.645 6.568 109.914
v 204.025 6.568 129.877
v 172.795 6.568 142.986
f 776 775 774 773
f 769 770 774 773
f 770 771 775 774
f 771 772 776 775
f 772 769 773 776
v 148.868 1.775 117.713
v 173.591 1.775 138.266
v 163.632 1.775 150.247
v 138.909 1.775 129.694
v 148.868 5.675 117.713
v 173.591 5.675 138.266
v 163.632 5.675 150.247
v 138.909 5.675 129.694
f 784 783 782 781
f 777 778 782 781
f 778 779 783 782
f 779 780 784 783
f 780 777 781 784
v 152.262 2.086 173.099
v 169.207 2.086 173.482
v 169.078 2.086 179.201
v 152.133 2.086 178.818
v 152.262 5.986 173.099
v 169.207 5.986 173.482
v 169.078 5.986 179.201
v 152.133 5.986 178.818
f 792 791 790 789
f 785 786 790 789
f 786 787 791 790
f 787 788 792 791
f 788 785 789 792
v 246.372 0.769 30.629
v 253.557 0.769 19.807
v 259.348 0.769 23.651
v 252.163 0.769 34.473
v 246.372 4.669 30.629
v 253.557 4.669 19.807
v 259.348 4.669 23.651
v 252.163 4.669 34.473
f 800 799 798 797
f 793 794 798 797
f 794 795 799 798
f 795 796 800 799
f 796 793 797 800
v 249.605 1.079 53.285
v 263.655 1.079 57.028
v 260.275 1.079 69.715
v 246.225 1.079 65.972
v 249.605 4.979 53.285
v 263.655 4.979 57.028
v 260.275 4.979 69.715
v 246.225 4.979 65.972
f 808 807 806 805
f 801 802 806 805
f 802 803 807 806
f 803 804 808 807
f 804 801 805 808
v 194.026 0.937 -61.147
v 204.233 0.937 -76.130
v 209.894 0.937 -72.273
v 199.687 0.937 -57.290
v 194.026 7.737 -61.147
v 204.233 7.737 -76.130
v 209.894 7.737 -72.273
v 199.687 7.737 -57.290
f 816 815 814 813
f 809 810 814 813
f 810 811 815 814
f 811 812 816 815
f 812 809 813 816
v 153.813 0.559 -256.941
v 168.107 0.559 -264.458
v 174.227 0.559 -252.819
v 159.933 0.559 -245.302
v 153.813 4.459 -256.941
v 168.107 4.459 -264.458
v 174.227 4.459 -252.819
v 159.933 4.459 -245.302
f 824 823 822 821
f 817 818 822 821
f 818 819 823 822
f 819 820 824 823
f 820 817 821 824
v 161.459 0.385 -190.054
v 167.261 0.385 -242.735
v 215.281 0.385 -237.446
v 209.479 0.385 -184.765
v 161.459 6.185 -190.054
v 167.261 6.185 -242.735
v 215.281 6.185 -237.446
v 209.479 6.185 -184.765
f 832 831 830 829
f 825 826 830 829
f 826 827 831 830
f 827 828 832 831
f 828 825 829 832
v 175.312 0.510 -85.970
v 180.126 0.510 -102.285
v 195.088 0.510 -97.870
v 190.274 0.510 -81.555
v 175.312 7.310 -85.970
v 180.126 7.310 -102.285
v 195.088 7.310 -97.870
v 190.274 7.310 -81.555
f 840 839 838 837
f 833 834 838 837
f 834 835 839 838
f 835 836 840 839
f 836 833 837 840
v 169.663 0.617 -94.589
v 184.825 0.617 -82.359
v 175.897 0.617 -71.291
v 160.735 0.617 -83.521
v 169.663 4.517 -94.589
v 184.825 4.517 -82.359
v 175.897 4.517 -71.291
v 160.735 4.517 -83.521
f 848 847 846 845
f 841 842 846 845
f 842 843 847 846
f 843 844 848 847
f 844 841 845 848
v 155.004 0.434 -80.648
v 169.592 0.434 -77.332
v 166.836 0.434 -65.212
v 152.248 0.434 -68.528
v 155.004 4.334 -80.648
v 169.592 4.334 -77.332
v 166.836 4.334 -65.212
v 152.248 4.334 -68.528
f 856 855 854 853
f 849 850 854 853
f 850 851 855 854
f 851 852 856 855
f 852 849 853 856
v 151.612 0.567 -113.849
v 187.988 0.567 -89.941
v 178.728 0.567 -75.851
v 142.352 0.567 -99.759
v 151.612 6.367 -113.849
v 187.988 6.367 -89.941
v 178.728 6.367 -75.851
v 142.352 6.367 -99.759
f 864 863 862 861
f 857 858 862 861
f 858 859 863 862
f 859 860 864 863
f 860 857 861 864
v 60.902 1.158 -89.376
v 75.660 1.158 -86.804
v 73.118 1.158 -72.224
v 58.360 1.158 -74.796
v 60.902 5.058 -89.376
v 75.660 5.058 -86.804
v 73.118 5.058 -72.224
v 58.360 5.058 -74.796
f 872 871 870 869
f 865 866 870 869
f 866 867 871 870
f 867 868 872 871
f 868 865 869 872
v 83.724 1.302 -75.455
v 89.152 1.302 -75.334
v 89.076 1.302 -71.945
v 83.648 1.302 -72.066
v 83.724 5.202 -75.455
v 89.152 5.202 -75.334
v 89.076 5.202 -71.945
v 83.648 5.202 -72.066
f 880 879 878 877
f 873 874 878 877
f 874 875 879 878
f 875 876 880 879
f 876 873 877 880
v -99.305 -0.300 48.251
v -60.824 -0.300 46.129
v -60.455 -0.300 52.829
v -98.936 -0.300 54.951
v -99.305 3.600 48.251
v -60.824 3.600 46.129
v -60.455 3.600 52.829
v -98.936 3.600 54.951
f 888 887 886 885
f 881 882 886 885
f 882 883 887 886
f 883 884 888 887
f 884 881 885 888
v -39.025 -0.300 57.991
v -35.981 -0.300 57.591
v -35.655 -0.300 60.069
v -38.699 -0.300 60.469
v -39.025 3.600 57.991
v -35.981 3.600 57.591
v -35.655 3.600 60.069
v -38.699 3.600 60.469
f 896 895 894 893
f 889 890 894 893
f 890 891 895 894
f 891 892 896 895
f 892 889 893 896
v -29.273 -0.300 58.956
v -25.996 -0.300 58.655
v -25.767 -0.300 61.144
v -29.044 -0.300 61.445
v -29.273 3.600 58.956
v -25.996 3.600 58.655
v -25.767 3.600 61.144
v -29.044 3.600 61.445
f 904 903 902 901
f 897 898 902 901
f 898 899 903 902
f 899 900 904 903
f 900 897 901 904
v -19.677 -0.300 60.166
v -16.569 -0.300 59.884
v -16.343 -0.300 62.374
v -19.451 -0.300 62.656
v -19.677 3.600 60.166
v -16.569 3.600 59.884
v -16.343 3.600 62.374
v -19.451 3.600 62.656
f 912 911 910 909
f 905 906 910 909
f 906 907 911 910
f 907 908 912 911
f 908 905 909 912
v -9.711 1.306 61.552
v -6.298 1.306 61.127
v -5.989 1.306 63.608
v -9.402 1.306 64.033
v -9.711 5.206 61.552
v -6.298 5.206 61.127
v -5.989 5.206 63.608
v -9.402 5.206 64.033
f 920 919 918 917
f 913 914 918 917
f 914 915 919 918
f 915 916 920 919
f 916 913 917 920
v -49.484 -0.300 59.445
v -46.329 -0.300 61.300
v -47.596 -0.300 63.455
v -50.751 -0.300 61.600
v -49.484 3.600 59.445
v -46.329 3.600 61.300
v -47.596 3.600 63.455
v -50.751 3.600 61.600
f 928 927 926 925
f 921 922 926 925
f 922 923 927 926
f 923 924 928 927
f 924 921 925 928
v 0.063 1.418 49.338
v 2.371 1.418 57.830
v -1.943 1.418 59.002
v -4.251 1.418 50.510
v 0.063 5.318 49.338
v 2.371 5.318 57.830
v -1.943 5.318 59.002
v -4.251 5.318 50.510
f 936 935 934 933
f 929 930 934 933
f 930 931 935 934
f 931 932 936 935
f 932 929 933 936
v 164.414 1.847 30.351
v 170.365 1.847 5.503
v 195.446 1.847 11.509
v 189.495 1.847 36.357
v 164.414 7.647 30.351
v 170.365 7.647 5.503
v 195.446 7.647 11.509
v 189.495 7.647 36.357
f 944 943 942 941
f 937 938 942 941
f 938 939 943 942
f 939 940 944 943
f 940 937 941 944
usemtl road
v 174.460 1.766 241.276
v 174.762 1.710 256.036
v 178.262 1.779 255.964
v 177.960 1.755 241.204
f 945 946 947 948
v 133.629 1.577 246.146
v 176.349 1.749 243.986
v 176.071 1.757 238.494
v 133.351 1.612 240.654
f 949 950 951 952
v 203.516 2.110 136.942
v 213.466 2.041 141.162
v 215.614 2.497 136.098
v 205.664 2.141 131.878
f 953 954 955 956
v 214.359 2.049 141.374
v 221.319 2.094 141.834
v 221.681 2.259 136.346
v 214.721 2.463 135.886
f 957 958 959 960
v 222.384 2.100 141.694
v 226.744 2.137 140.214
v 224.976 2.162 135.006
v 220.616 2.325 136.486
f 961 962 963 964
v 228.560 2.159 138.133
v 229.710 2.157 132.193
v 224.310 2.197 131.147
v 223.160 2.155 137.087
f 965 966 967 968
v 229.266 2.177 130.098
v 227.406 2.266 127.428
v 222.894 2.215 130.572
v 224.754 2.177 133.242
f 969 970 971 972
v 227.074 2.285 127.035
v 224.684 2.183 124.695
v 220.836 2.215 128.625
v 223.226 2.209 130.965
f 973 974 975 976
v 223.148 2.150 123.937
v 217.528 2.121 123.137
v 216.752 2.235 128.583
v 222.372 2.211 129.383
f 977 978 979 980
v 215.510 2.113 123.645
v 209.570 2.121 128.015
v 212.830 2.262 132.445
v 218.770 2.223 128.075
f 981 982 983 984
v 209.730 2.121 127.906
v 203.120 2.116 132.086
v 206.060 2.121 136.734
v 212.670 2.259 132.554
f 985 986 987 988
v 203.504 2.118 131.884
v 190.204 2.075 137.604
v 192.376 2.116 142.656
v 205.676 2.117 136.936
f 989 990 991 992
v 189.663 2.074 137.913
v 174.513 2.037 149.033
v 177.767 2.044 153.467
v 192.917 2.122 142.347
f 993 994 995 996
v 173.527 2.030 150.392
v 170.597 1.997 159.312
v 175.823 2.010 161.028
v 178.753 2.061 152.108
f 997 998 999 1000
v 170.463 2.004 160.293
v 173.773 1.768 234.073
v 179.267 1.782 233.827
v 175.957 2.011 160.047
f 1001 1002 1003 1004
v 173.772 1.770 233.833
v 173.462 1.765 241.123
v 178.958 1.766 241.357
v 179.268 1.784 234.067
f 1005 1006 1007 1008
v 208.510 2.410 206.836
v 210.050 2.393 210.786
v 213.310 2.459 209.514
v 211.770 2.465 205.564
f 1009 1010 1011 1012
v 210.210 2.386 211.100
v 215.580 2.492 219.410
v 218.520 2.539 217.510
v 213.150 2.455 209.200
f 1013 1014 1015 1016
v 127.100 1.023 -35.472
v 149.620 0.859 -47.672
v 147.000 0.887 -52.508
v 124.480 1.002 -40.308
f 1017 1018 1019 1020
v 149.758 0.857 -47.752
v 158.168 0.772 -52.962
v 155.272 0.824 -57.638
v 146.862 0.887 -52.428
f 1021 1022 1023 1024
v 247.740 0.710 -52.527
v 218.170 0.681 -96.397
v 213.610 0.684 -93.323
v 243.180 0.783 -49.453
f 1025 1026 1027 1028
v 146.402 0.713 -160.772
v 153.002 0.616 -158.022
v 155.118 0.603 -163.098
v 148.518 0.684 -165.848
f 1029 1030 1031 1032
v 152.171 0.612 -158.562
v 154.371 0.626 -156.482
v 158.149 0.635 -160.478
v 155.949 0.613 -162.558
f 1033 1034 1035 1036
v 154.063 0.623 -156.826
v 156.473 0.633 -153.626
v 160.867 0.612 -156.934
v 158.457 0.636 -160.134
f 1037 1038 1039 1040
v 156.390 0.634 -153.742
v 202.530 0.693 -85.352
v 207.090 0.687 -88.428
v 160.950 0.611 -156.818
f 1041 1042 1043 1044
v 182.892 0.489 -253.707
v 189.172 0.442 -244.437
v 194.968 0.418 -248.363
v 188.688 0.435 -257.633
f 1045 1046 1047 1048
v 189.171 0.442 -244.439
v 220.601 0.521 -197.959
v 226.399 0.508 -201.881
v 194.969 0.418 -248.361
f 1049 1050 1051 1052
v 220.601 0.521 -197.960
v 253.101 0.560 -149.889
v 258.899 0.541 -153.810
v 226.399 0.508 -201.880
f 1053 1054 1055 1056
v 125.273 0.448 -228.858
v 157.093 0.540 -217.598
v 158.927 0.596 -222.782
v 127.107 0.422 -234.042
f 1057 1058 1059 1060
v 157.132 0.540 -217.584
v 165.682 0.592 -214.704
v 167.438 0.570 -219.916
v 158.888 0.596 -222.796
f 1061 1062 1063 1064
v 85.280 0.989 -116.678
v 117.340 0.669 -105.298
v 119.180 0.630 -110.482
v 87.120 0.915 -121.862
f 1065 1066 1067 1068
v 116.758 0.666 -105.586
v 121.558 0.771 -102.456
v 124.562 0.746 -107.064
v 119.762 0.631 -110.194
f 1069 1070 1071 1072
v 121.231 0.765 -102.706
v 125.341 0.832 -99.046
v 128.999 0.714 -103.154
v 124.889 0.753 -106.814
f 1073 1074 1075 1076
v 158.367 0.769 -52.793
v 206.457 0.696 -84.383
v 203.163 0.722 -89.397
v 155.073 0.825 -57.807
f 1077 1078 1079 1080
v 206.562 0.696 -84.455
v 217.642 0.618 -92.425
v 214.138 0.703 -97.295
v 203.058 0.724 -89.325
f 1081 1082 1083 1084
v 217.573 0.618 -92.376
v 239.653 0.644 -107.336
v 236.287 0.629 -112.304
v 214.207 0.703 -97.344
f 1085 1086 1087 1088
v 239.677 0.644 -107.353
v 257.707 0.637 -119.833
v 254.293 0.645 -124.766
v 236.263 0.629 -112.287
f 1089 1090 1091 1092
v 124.521 0.789 -101.839
v 122.331 0.826 -93.989
v 127.629 0.797 -92.511
v 129.819 0.752 -100.361
f 1093 1094 1095 1096
v 122.239 0.820 -93.467
v 121.759 0.775 -87.407
v 127.241 0.722 -86.973
v 127.721 0.813 -93.033
f 1097 1098 1099 1100
v 121.751 0.774 -87.134
v 121.931 0.755 -78.374
v 127.429 0.777 -78.486
v 127.249 0.722 -87.246
f 1101 1102 1103 1104
v 233.824 0.998 56.309
v 227.454 1.010 60.599
v 230.526 1.060 65.161
v 236.896 1.039 60.871
f 1105 1106 1107 1108
v 227.456 1.010 60.597
v 226.206 1.049 61.437
v 229.274 1.103 66.003
v 230.524 1.060 65.163
f 1109 1110 1111 1112
v 226.215 1.049 61.432
v 193.275 2.236 83.392
v 196.325 2.213 87.968
v 229.265 1.104 66.008
f 1113 1114 1115 1116
v 193.230 2.236 83.423
v 128.470 1.795 128.473
v 131.610 1.833 132.987
v 196.370 2.212 87.937
f 1117 1118 1119 1120
v 222.084 1.442 258.279
v 234.680 1.507 249.769
v 231.600 1.582 245.211
v 219.005 1.435 253.721
f 1121 1122 1123 1124
v 234.682 1.507 249.767
v 244.402 1.660 243.187
v 241.318 1.702 238.633
v 231.598 1.582 245.213
f 1125 1126 1127 1128
v 244.400 1.660 243.188
v 257.540 1.907 234.307
v 254.460 1.849 229.750
v 241.320 1.702 238.632
f 1129 1130 1131 1132
v 198.102 0.960 -164.253
v 236.532 0.634 -108.823
v 239.408 0.630 -110.817
v 200.978 0.948 -166.247
f 1133 1134 1135 1136
v 106.094 0.567 -175.528
v 146.514 0.713 -160.728
v 148.406 0.684 -165.892
v 107.986 0.523 -180.692
f 1137 1138 1139 1140
v 125.984 0.976 -207.561
v 144.164 0.757 -201.101
v 145.336 0.776 -204.399
v 127.156 0.904 -210.859
f 1141 1142 1143 1144
v 127.291 1.763 130.814
v 129.731 1.615 210.394
v 135.229 1.689 210.226
v 132.789 1.807 130.646
f 1145 1146 1147 1148
v 129.731 1.615 210.394
v 130.741 1.549 243.484
v 136.239 1.589 243.316
v 135.229 1.689 210.226
f 1149 1150 1151 1152
v 183.978 0.453 -257.738
v 178.318 0.483 -252.778
v 181.942 0.508 -248.642
v 187.602 0.468 -253.602
f 1153 1154 1155 1156
v 177.925 0.482 -252.353
v 175.035 0.465 -248.473
v 179.445 0.532 -245.187
v 182.335 0.499 -249.067
f 1157 1158 1159 1160
v 174.654 0.470 -247.766
v 163.974 0.578 -218.246
v 169.146 0.507 -216.374
v 179.826 0.528 -245.894
f 1161 1162 1163 1164
v 163.966 0.578 -218.222
v 156.996 0.633 -198.392
v 162.184 0.595 -196.568
v 169.154 0.508 -216.398
f 1165 1166 1167 1168
v 156.999 0.633 -198.400
v 155.699 0.635 -194.740
v 160.881 0.587 -192.900
v 162.181 0.595 -196.560
f 1169 1170 1171 1172
v 155.698 0.635 -194.740
v 144.868 0.661 -164.230
v 150.052 0.627 -162.390
v 160.882 0.587 -192.900
f 1173 1174 1175 1176
v 144.850 0.662 -164.175
v 128.020 0.737 -113.395
v 133.240 0.698 -111.665
v 150.070 0.627 -162.445
f 1177 1178 1179 1180
v 127.998 0.737 -113.327
v 124.538 0.788 -101.897
v 129.802 0.752 -100.303
v 133.262 0.699 -111.733
f 1181 1182 1183 1184
v 104.446 0.567 -179.024
v 93.846 0.747 -148.944
v 99.034 0.767 -147.116
v 109.634 0.472 -177.196
f 1185 1186 1187 1188
v 93.849 0.747 -148.952
v 83.609 0.943 -120.192
v 88.791 0.886 -118.348
v 99.031 0.767 -147.108
f 1189 1190 1191 1192
v 109.627 0.472 -177.178
v 121.777 0.493 -210.898
v 116.603 0.481 -212.762
v 104.453 0.567 -179.042
f 1193 1194 1195 1196
v 121.780 0.493 -210.906
v 128.780 0.377 -230.526
v 123.600 0.449 -232.374
v 116.600 0.481 -212.754
f 1197 1198 1199 1200
v 124.457 0.772 -75.472
v 117.077 0.880 -74.132
v 117.703 0.870 -70.688
v 125.083 0.782 -72.028
f 1201 1202 1203 1204
v 118.104 0.841 -74.008
v 114.434 0.977 -75.648
v 113.006 0.976 -72.452
v 116.676 0.908 -70.812
f 1205 1206 1207 1208
v 114.280 0.984 -75.708
v 104.250 1.135 -79.098
v 103.130 1.186 -75.782
v 113.160 0.975 -72.392
f 1209 1210 1211 1212
v 104.273 1.134 -79.090
v 68.823 1.474 -91.620
v 67.657 1.565 -88.320
v 103.107 1.186 -75.790
f 1213 1214 1215 1216
v 123.811 0.775 -75.214
v 116.601 0.911 -70.494
v 118.519 0.845 -67.566
v 125.729 0.787 -72.286
f 1217 1218 1219 1220
v 117.543 0.876 -70.780
v 114.413 0.980 -70.750
v 114.447 1.040 -67.250
v 117.577 0.892 -67.280
f 1221 1222 1223 1224
v 115.043 0.961 -70.639
v 109.083 1.175 -72.869
v 107.857 1.199 -69.591
v 113.817 1.072 -67.361
f 1225 1226 1227 1228
v 109.053 1.177 -72.880
v 82.013 1.529 -82.440
v 80.847 1.600 -79.140
v 107.887 1.198 -69.580
f 1229 1230 1231 1232
v 79.735 1.606 -81.225
v 77.065 1.628 -70.825
v 80.455 1.652 -69.955
v 83.125 1.570 -80.355
f 1233 1234 1235 1236
v 77.011 1.626 -70.334
v 77.701 1.489 -48.854
v 81.199 1.562 -48.966
v 80.509 1.652 -70.446
f 1237 1238 1239 1240
v 123.213 1.000 -38.850
v 122.233 1.023 -36.220
v 127.387 1.014 -34.300
v 128.367 1.015 -36.930
f 1241 1242 1243 1244
v 122.060 1.035 -35.278
v 122.030 1.054 -30.578
v 127.530 1.027 -30.542
v 127.560 1.016 -35.242
f 1245 1246 1247 1248
v 122.033 1.054 -30.437
v 122.163 1.049 -27.527
v 127.657 1.080 -27.773
v 127.527 1.025 -30.683
f 1249 1250 1251 1252
v 122.163 1.049 -27.531
v 123.733 1.544 8.819
v 129.227 1.639 8.581
v 127.657 1.080 -27.769
f 1253 1254 1255 1256
v 123.733 1.544 8.818
v 124.123 1.584 17.898
v 129.617 1.624 17.662
v 129.227 1.639 8.582
f 1257 1258 1259 1260
v 124.121 1.583 17.844
v 124.541 1.659 35.984
v 130.039 1.680 35.856
v 129.619 1.624 17.716
f 1261 1262 1263 1264
v 124.541 1.659 35.985
v 124.801 1.713 47.065
v 130.299 1.726 46.935
v 130.039 1.680 35.855
f 1265 1266 1267 1268
v 124.801 1.713 47.064
v 124.921 1.743 52.204
v 130.419 1.783 52.076
v 130.299 1.726 46.936
f 1269 1270 1271 1272
v 124.921 1.743 52.203
v 125.061 1.780 58.283
v 130.559 1.780 58.157
v 130.419 1.783 52.077
f 1273 1274 1275 1276
v 125.061 1.780 58.283
v 125.251 1.793 66.533
v 130.749 1.887 66.407
v 130.559 1.780 58.157
f 1277 1278 1279 1280
v 75.479 1.799 201.269
v 73.939 1.621 148.439
v 70.441 1.734 148.541
v 71.981 1.763 201.371
f 1281 1282 1283 1284
v 73.919 1.605 148.760
v 74.669 1.726 143.950
v 71.211 1.769 143.410
v 70.461 1.738 148.220
f 1285 1286 1287 1288
v 74.512 1.722 144.448
v 76.192 1.717 141.008
v 73.048 1.793 139.472
v 71.368 1.772 142.912
f 1289 1290 1291 1292
v 75.689 1.725 141.625
v 76.609 1.701 140.915
v 74.471 1.785 138.145
v 73.551 1.789 138.855
f 1293 1294 1295 1296
v 76.613 1.701 140.912
v 79.833 1.670 138.412
v 77.687 1.759 135.648
v 74.467 1.785 138.148
f 1297 1298 1299 1300
v 79.418 1.671 138.651
v 85.008 1.648 136.381
v 83.692 1.702 133.139
v 78.102 1.755 135.409
f 1301 1302 1303 1304
v 84.643 1.647 136.485
v 88.173 1.642 135.885
v 87.587 1.667 132.435
v 84.057 1.700 133.035
f 1305 1306 1307 1308
v 88.170 1.642 135.886
v 90.790 1.635 135.446
v 90.210 1.647 131.994
v 87.590 1.667 132.434
f 1309 1310 1311 1312
v 90.632 1.637 135.465
v 123.902 1.624 132.945
v 123.638 1.640 129.455
v 90.368 1.646 131.975
f 1313 1314 1315 1316
v 123.901 1.624 132.945
v 130.171 1.818 132.475
v 129.909 1.806 128.985
v 123.639 1.640 129.455
f 1317 1318 1319 1320
v 126.799 0.420 -233.091
v 111.479 0.749 -238.781
v 110.261 0.850 -235.499
v 125.581 0.438 -229.809
f 1321 1322 1323 1324
v 111.480 0.749 -238.780
v 60.746 0.942 -257.640
v 59.526 0.949 -254.360
v 110.260 0.850 -235.500
f 1325 1326 1327 1328
v 115.033 0.920 -256.517
v 109.198 0.827 -237.657
v 112.542 0.741 -236.623
v 118.376 0.976 -255.483
f 1329 1330 1331 1332
v 110.379 1.688 -3.096
v 113.379 1.589 1.254
v 116.261 1.520 -0.734
v 113.261 1.626 -5.084
f 1333 1334 1335 1336
v 113.794 1.585 1.678
v 125.454 1.559 10.118
v 127.506 1.571 7.282
v 115.846 1.522 -1.158
f 1337 1338 1339 1340
v 109.811 1.706 -10.571
v 110.071 1.707 -4.021
v 113.569 1.599 -4.159
v 113.309 1.607 -10.709
f 1341 1342 1343 1344
v 123.609 1.057 -28.820
v 113.269 1.359 -17.320
v 115.871 1.418 -14.980
v 126.211 1.073 -26.480
f 1345 1346 1347 1348
v 113.034 1.376 -16.989
v 110.024 1.672 -11.479
v 113.096 1.624 -9.801
v 116.106 1.407 -15.311
f 1349 1350 1351 1352
v 107.318 0.120 34.261
v 52.068 0.120 36.211
v 52.192 0.120 39.709
v 107.442 0.120 37.759
f 1353 1354 1355 1356
v 107.918 1.962 51.081
v 52.668 1.979 53.041
v 52.792 2.035 56.539
v 108.042 2.007 54.579
f 1357 1358 1359 1360
v 54.479 1.973 54.728
v 53.879 0.120 37.898
v 50.381 0.120 38.022
v 50.981 2.050 54.852
f 1361 1362 1363 1364
v 53.879 0.120 37.898
v 53.239 0.890 19.958
v 49.741 1.899 20.082
v 50.381 0.120 38.022
f 1365 1366 1367 1368
v 51.552 0.120 21.769
v 106.802 2.018 19.799
v 106.678 1.907 16.301
v 51.428 1.923 18.271
f 1369 1370 1371 1372
v 104.991 1.983 18.112
v 105.631 0.120 36.072
v 109.129 0.120 35.948
v 108.489 1.911 17.988
f 1373 1374 1375 1376
v 105.630 0.120 36.047
v 105.870 1.965 47.527
v 109.370 1.944 47.453
v 109.130 0.120 35.973
f 1377 1378 1379 1380
v 105.874 1.965 47.608
v 106.234 1.975 52.948
v 109.726 1.990 52.712
v 109.366 1.943 47.372
f 1381 1382 1383 1384
v 38.399 1.998 41.192
v 39.689 2.196 54.232
v 43.171 2.114 53.888
v 41.881 1.972 40.848
f 1385 1386 1387 1388
v 39.708 2.198 53.750
v 37.678 1.841 65.020
v 41.122 1.850 65.640
v 43.152 2.113 54.370
f 1389 1390 1391 1392
v 128.019 1.813 63.970
v 117.299 1.670 63.890
v 117.261 1.688 68.890
v 127.981 1.922 68.970
f 1393 1394 1395 1396
v 117.180 1.673 63.892
v 84.610 1.945 65.202
v 84.810 1.848 70.198
v 117.380 1.687 68.888
f 1397 1398 1399 1400
v 84.738 1.944 65.200
v 51.458 1.845 64.830
v 51.402 1.782 69.830
v 84.682 1.850 70.200
f 1401 1402 1403 1404
v 51.840 1.844 64.864
v 39.810 1.898 62.864
v 38.990 1.879 67.796
v 51.020 1.785 69.796
f 1405 1406 1407 1408
v 39.989 1.897 62.900
v 21.349 2.106 58.380
v 20.171 1.833 63.240
v 38.811 1.878 67.760
f 1409 1410 1411 1412
v 164.622 1.820 55.471
v 134.592 1.785 56.291
v 134.688 1.767 59.789
v 164.718 1.829 58.969
f 1413 1414 1415 1416
v 134.594 1.785 56.291
v 127.764 1.779 56.471
v 127.856 1.798 59.969
v 134.686 1.767 59.789
f 1417 1418 1419 1420
v 236.900 0.120 -243.880
v 252.676 0.120 -254.550
v 250.715 0.120 -257.450
v 234.940 0.120 -246.780
f 1421 1422 1423 1424
v 231.648 1.552 248.405
v 236.868 1.601 256.915
v 239.852 1.628 255.085
v 234.632 1.583 246.575
f 1425 1426 1427 1428
v 241.379 1.681 241.843
v 246.959 1.827 250.703
v 249.921 1.876 248.837
v 244.341 1.715 239.977
f 1429 1430 1431 1432
v 247.320 1.852 251.115
v 249.170 1.948 252.655
v 251.410 1.948 249.965
v 249.560 1.876 248.425
f 1433 1434 1435 1436
v 249.638 1.973 252.934
v 251.878 2.074 253.834
v 253.182 2.011 250.586
v 250.942 1.926 249.686
f 1437 1438 1439 1440
v 252.400 2.093 253.955
v 254.810 2.165 254.135
v 255.070 2.063 250.645
v 252.660 1.996 250.465
f 1441 1442 1443 1444
v 157.668 0.646 -192.184
v 174.718 0.672 -185.704
v 175.962 0.656 -188.976
v 158.912 0.655 -195.456
f 1445 1446 1447 1448
v 175.100 0.670 -185.606
v 178.210 0.659 -185.176
v 178.690 0.630 -188.644
v 175.580 0.661 -189.074
f 1449 1450 1451 1452
v 178.662 0.661 -185.173
v 181.932 0.729 -185.573
v 181.508 0.661 -189.047
v 178.238 0.634 -188.647
f 1453 1454 1455 1456
v 182.777 0.777 -185.916
v 184.887 0.845 -187.516
v 182.773 0.680 -190.304
v 180.663 0.639 -188.704
f 1457 1458 1459 1460
v 185.250 0.833 -187.887
v 187.720 0.695 -191.317
v 184.880 0.649 -193.363
v 182.410 0.680 -189.933
f 1461 1462 1463 1464
v 187.257 0.709 -190.875
v 189.307 0.664 -192.215
v 187.393 0.637 -195.145
v 185.343 0.648 -193.805
f 1465 1466 1467 1468
v 188.438 0.677 -191.932
v 190.808 0.640 -192.052
v 190.632 0.632 -195.548
v 188.262 0.632 -195.428
f 1469 1470 1471 1472
v 190.270 0.649 -192.109
v 193.390 0.638 -191.279
v 194.290 0.687 -194.661
v 191.170 0.635 -195.491
f 1473 1474 1475 1476
v 192.600 0.638 -191.735
v 194.830 0.631 -189.495
v 197.310 0.685 -191.965
v 195.080 0.701 -194.205
f 1477 1478 1479 1480
v 194.620 0.634 -189.750
v 198.930 0.628 -183.370
v 201.830 0.652 -185.330
v 197.520 0.684 -191.710
f 1481 1482 1483 1484
v 201.358 0.681 -182.898
v 224.478 0.538 -198.468
v 222.522 0.539 -201.372
v 199.402 0.619 -185.802
f 1485 1486 1487 1488
v 250.811 2.580 213.510
v 248.541 2.595 218.620
v 251.739 2.615 220.040
v 254.009 2.635 214.930
f 1489 1490 1491 1492
v 248.601 2.561 220.163
v 250.621 2.274 223.893
v 253.699 2.375 222.227
v 251.679 2.672 218.497
f 1493 1494 1495 1496
v 250.683 2.262 223.998
v 253.293 1.865 228.108
v 256.247 1.922 226.232
v 253.637 2.395 222.122
f 1497 1498 1499 1500
v 177.501 1.755 235.399
v 212.661 2.416 211.599
v 210.699 2.430 208.701
v 175.539 1.754 232.501
f 1501 1502 1503 1504
v 237.623 0.936 57.028
v 176.043 0.882 -32.162
v 171.517 0.859 -29.038
v 233.097 1.047 60.152
f 1505 1506 1507 1508
v 176.043 0.882 -32.163
v 158.983 0.813 -56.863
v 154.457 0.799 -53.737
v 171.517 0.859 -29.037
f 1509 1510 1511 1512
v 89.627 1.662 134.055
v 88.157 1.589 109.685
v 84.663 1.541 109.895
v 86.133 1.693 134.265
f 1513 1514 1515 1516
v 159.031 0.813 -56.791
v 129.481 0.726 -102.591
v 124.859 0.826 -99.609
v 154.409 0.801 -53.809
f 1517 1518 1519 1520
v 121.931 0.755 -78.377
v 122.021 0.788 -73.697
v 127.519 0.832 -73.803
v 127.429 0.777 -78.483
f 1521 1522 1523 1524
v 127.288 1.674 34.170
v 116.508 1.862 34.180
v 116.512 1.876 37.680
v 127.292 1.690 37.670
f 1525 1526 1527 1528
v 116.481 1.863 34.180
v 113.491 0.120 34.230
v 113.549 1.898 37.730
v 116.539 1.876 37.680
f 1529 1530 1531 1532
v 113.511 0.120 34.230
v 107.371 0.120 34.260
v 107.389 0.120 37.760
v 113.529 1.898 37.730
f 1533 1534 1535 1536
v 108.040 2.007 54.579
v 116.740 2.003 54.279
v 116.620 1.957 50.781
v 107.920 1.962 51.081
f 1537 1538 1539 1540
v 116.666 2.004 54.280
v 119.116 1.894 54.300
v 119.144 1.887 50.800
v 116.694 1.957 50.780
f 1541 1542 1543 1544
v 119.214 1.892 54.298
v 127.754 1.767 53.888
v 127.586 1.753 50.392
v 119.046 1.890 50.802
f 1545 1546 1547 1548
v 107.662 1.949 49.240
v 116.482 1.966 49.030
v 116.398 1.925 45.530
v 107.578 1.952 45.740
f 1549 1550 1551 1552
v 116.433 1.965 49.030
v 118.953 1.906 49.040
v 118.967 1.844 45.540
v 116.447 1.925 45.530
f 1553 1554 1555 1556
v 119.019 1.903 49.039
v 127.609 1.744 48.749
v 127.491 1.725 45.251
v 118.901 1.846 45.541
f 1557 1558 1559 1560
v 122.851 0.917 -44.482
v 123.041 1.015 -37.812
v 128.539 1.014 -37.968
v 128.349 0.947 -44.638
f 1561 1562 1563 1564
v 74.238 1.778 140.699
v 84.028 1.397 151.599
v 86.632 1.384 149.261
v 76.842 1.739 138.361
f 1565 1566 1567 1568
v 83.881 1.398 151.412
v 88.421 1.332 158.112
v 91.319 1.344 156.148
v 86.779 1.381 149.448
f 1569 1570 1571 1572
v 88.191 1.338 157.624
v 90.081 1.380 164.044
v 93.439 1.373 163.056
v 91.549 1.337 156.636
f 1573 1574 1575 1576
v 114.733 1.733 212.509
v 126.493 1.472 212.219
v 126.407 1.447 208.721
v 114.647 1.752 209.011
f 1577 1578 1579 1580
v 126.496 1.473 212.219
v 132.526 1.667 212.059
v 132.434 1.675 208.561
v 126.404 1.446 208.721
f 1581 1582 1583 1584
v 82.961 1.849 67.751
v 83.641 1.576 91.261
v 87.139 1.592 91.159
v 86.459 1.807 67.649
f 1585 1586 1587 1588
v 144.164 0.757 -201.101
v 159.004 0.657 -195.831
v 160.176 0.651 -199.129
v 145.336 0.776 -204.399
f 1589 1590 1591 1592
v 118.605 0.482 -210.181
v 125.985 0.976 -207.561
v 127.155 0.904 -210.859
v 119.775 0.450 -213.479
f 1593 1594 1595 1596
v 255.102 0.997 -11.210
v 244.312 1.211 -4.762
v 246.108 1.249 -1.758
v 256.898 1.041 -8.206
f 1597 1598 1599 1600
v 246.697 1.214 -4.183
v 233.617 1.111 -25.253
v 230.643 1.207 -23.407
v 243.723 1.247 -2.337
f 1601 1602 1603 1604
v 233.090 1.134 -22.867
v 247.030 0.904 -32.017
v 245.110 0.933 -34.943
v 231.170 1.206 -25.793
f 1605 1606 1607 1608
v 244.618 0.921 -32.503
v 254.548 0.968 -17.737
v 257.452 0.977 -19.690
v 247.522 0.923 -34.457
f 1609 1610 1611 1612
usemtl asphalt
