# Baked ultra-low Key West silhouette; generated by bake_key_west_far_city.py
mtllib far_city.mtl
usemtl massing
v 2.577 -0.300 165.915
v 4.496 -0.300 65.513
v 17.663 -0.300 65.765
v 15.744 -0.300 166.167
v 2.577 5.500 165.915
v 4.496 5.500 65.513
v 17.663 5.500 65.765
v 15.744 5.500 166.167
f 8 7 6 5
f 1 2 6 5
f 2 3 7 6
f 3 4 8 7
f 4 1 5 8
v 116.451 0.798 -174.645
v 127.980 0.798 -159.254
v 112.789 0.798 -147.875
v 101.260 0.798 -163.266
v 116.451 4.698 -174.645
v 127.980 4.698 -159.254
v 112.789 4.698 -147.875
v 101.260 4.698 -163.266
f 16 15 14 13
f 9 10 14 13
f 10 11 15 14
f 11 12 16 15
f 12 9 13 16
v 33.004 1.422 -173.120
v 49.813 1.422 -309.790
v 102.576 1.422 -303.300
v 85.767 1.422 -166.630
v 33.004 9.722 -173.120
v 49.813 9.722 -309.790
v 102.576 9.722 -303.300
v 85.767 9.722 -166.630
f 24 23 22 21
f 17 18 22 21
f 18 19 23 22
f 19 20 24 23
f 20 17 21 24
v 101.491 1.604 -199.852
v 103.498 1.604 -263.900
v 121.769 1.604 -263.328
v 119.762 1.604 -199.280
v 101.491 13.904 -199.852
v 103.498 13.904 -263.900
v 121.769 13.904 -263.328
v 119.762 13.904 -199.280
f 32 31 30 29
f 25 26 30 29
f 26 27 31 30
f 27 28 32 31
f 28 25 29 32
v 146.498 1.698 -173.457
v 175.687 1.698 -176.802
v 177.282 1.698 -162.883
v 148.093 1.698 -159.538
v 146.498 10.998 -173.457
v 175.687 10.998 -176.802
v 177.282 10.998 -162.883
v 148.093 10.998 -159.538
f 40 39 38 37
f 33 34 38 37
f 34 35 39 38
f 35 36 40 39
f 36 33 37 40
v 212.724 1.722 -100.454
v 225.280 1.722 -92.084
v 218.336 1.722 -81.666
v 205.780 1.722 -90.036
v 212.724 11.022 -100.454
v 225.280 11.022 -92.084
v 218.336 11.022 -81.666
v 205.780 11.022 -90.036
f 48 47 46 45
f 41 42 46 45
f 42 43 47 46
f 43 44 48 47
f 44 41 45 48
v 205.517 1.253 -37.712
v 220.156 1.253 -27.674
v 215.723 1.253 -21.208
v 201.084 1.253 -31.246
v 205.517 5.153 -37.712
v 220.156 5.153 -27.674
v 215.723 5.153 -21.208
v 201.084 5.153 -31.246
f 56 55 54 53
f 49 50 54 53
f 50 51 55 54
f 51 52 56 55
f 52 49 53 56
v 105.761 0.700 -99.399
v 120.989 0.700 -50.254
v 96.679 0.700 -42.721
v 81.451 0.700 -91.866
v 105.761 13.000 -99.399
v 120.989 13.000 -50.254
v 96.679 13.000 -42.721
v 81.451 13.000 -91.866
f 64 63 62 61
f 57 58 62 61
f 58 59 63 62
f 59 60 64 63
f 60 57 61 64
v 89.108 1.117 -114.719
v 104.377 1.117 -129.151
v 119.812 1.117 -112.821
v 104.543 1.117 -98.389
v 89.108 5.017 -114.719
v 104.377 5.017 -129.151
v 119.812 5.017 -112.821
v 104.543 5.017 -98.389
f 72 71 70 69
f 65 66 70 69
f 66 67 71 70
f 67 68 72 71
f 68 65 69 72
v 219.217 2.093 55.090
v 226.240 2.093 44.593
v 232.423 2.093 48.730
v 225.400 2.093 59.227
v 219.217 5.993 55.090
v 226.240 5.993 44.593
v 232.423 5.993 48.730
v 225.400 5.993 59.227
f 80 79 78 77
f 73 74 78 77
f 74 75 79 78
f 75 76 80 79
f 76 73 77 80
v 207.471 2.233 53.046
v 221.709 2.233 61.851
v 214.929 2.233 72.814
v 200.691 2.233 64.009
v 207.471 6.133 53.046
v 221.709 6.133 61.851
v 214.929 6.133 72.814
v 200.691 6.133 64.009
f 88 87 86 85
f 81 82 86 85
f 82 83 87 86
f 83 84 88 87
f 84 81 85 88
v 210.649 2.164 32.458
v 222.525 2.164 40.333
v 217.811 2.164 47.442
v 205.935 2.164 39.567
v 210.649 6.064 32.458
v 222.525 6.064 40.333
v 217.811 6.064 47.442
v 205.935 6.064 39.567
f 96 95 94 93
f 89 90 94 93
f 90 91 95 94
f 91 92 96 95
f 92 89 93 96
v 203.537 2.283 24.651
v 216.374 2.283 33.085
v 212.443 2.283 39.069
v 199.606 2.283 30.635
v 203.537 6.183 24.651
v 216.374 6.183 33.085
v 212.443 6.183 39.069
v 199.606 6.183 30.635
f 104 103 102 101
f 97 98 102 101
f 98 99 103 102
f 99 100 104 103
f 100 97 101 104
v 199.225 2.051 14.412
v 210.750 2.051 22.254
v 205.175 2.051 30.448
v 193.650 2.051 22.606
v 199.225 5.951 14.412
v 210.750 5.951 22.254
v 205.175 5.951 30.448
v 193.650 5.951 22.606
f 112 111 110 109
f 105 106 110 109
f 106 107 111 110
f 107 108 112 111
f 108 105 109 112
v 177.650 2.079 77.078
v 187.869 2.079 66.890
v 197.930 2.079 76.982
v 187.711 2.079 87.170
v 177.650 5.979 77.078
v 187.869 5.979 66.890
v 197.930 5.979 76.982
v 187.711 5.979 87.170
f 120 119 118 117
f 113 114 118 117
f 114 115 119 118
f 115 116 120 119
f 116 113 117 120
v 162.150 2.267 33.125
v 176.798 2.267 42.737
v 172.810 2.267 48.815
v 158.162 2.267 39.203
v 162.150 6.167 33.125
v 176.798 6.167 42.737
v 172.810 6.167 48.815
v 158.162 6.167 39.203
f 128 127 126 125
f 121 122 126 125
f 122 123 127 126
f 123 124 128 127
f 124 121 125 128
v 171.843 2.511 44.535
v 186.545 2.511 54.569
v 180.897 2.511 62.845
v 166.195 2.511 52.811
v 171.843 6.411 44.535
v 186.545 6.411 54.569
v 180.897 6.411 62.845
v 166.195 6.411 52.811
f 136 135 134 133
f 129 130 134 133
f 130 131 135 134
f 131 132 136 135
f 132 129 133 136
v 177.979 2.387 55.133
v 188.875 2.387 62.260
v 185.141 2.387 67.967
v 174.245 2.387 60.840
v 177.979 6.287 55.133
v 188.875 6.287 62.260
v 185.141 6.287 67.967
v 174.245 6.287 60.840
f 144 143 142 141
f 137 138 142 141
f 138 139 143 142
f 139 140 144 143
f 140 137 141 144
v 133.872 1.251 16.622
v 149.794 1.251 7.047
v 158.328 1.251 21.238
v 142.406 1.251 30.813
v 133.872 5.151 16.622
v 149.794 5.151 7.047
v 158.328 5.151 21.238
v 142.406 5.151 30.813
f 152 151 150 149
f 145 146 150 149
f 146 147 151 150
f 147 148 152 151
f 148 145 149 152
v 123.559 2.339 4.301
v 131.948 2.339 -8.495
v 144.141 2.339 -0.501
v 135.752 2.339 12.295
v 123.559 6.239 4.301
v 131.948 6.239 -8.495
v 144.141 6.239 -0.501
v 135.752 6.239 12.295
f 160 159 158 157
f 153 154 158 157
f 154 155 159 158
f 155 156 160 159
f 156 153 157 160
v 127.985 2.314 -7.223
v 135.534 2.314 -9.620
v 136.615 2.314 -6.217
v 129.066 2.314 -3.820
v 127.985 6.214 -7.223
v 135.534 6.214 -9.620
v 136.615 6.214 -6.217
v 129.066 6.214 -3.820
f 168 167 166 165
f 161 162 166 165
f 162 163 167 166
f 163 164 168 167
f 164 161 165 168
v 132.951 1.973 -9.767
v 141.486 1.973 -12.836
v 143.069 1.973 -8.433
v 134.534 1.973 -5.364
v 132.951 5.873 -9.767
v 141.486 5.873 -12.836
v 143.069 5.873 -8.433
v 134.534 5.873 -5.364
f 176 175 174 173
f 169 170 174 173
f 170 171 175 174
f 171 172 176 175
f 172 169 173 176
v 137.356 2.059 -26.753
v 151.364 2.059 -21.418
v 146.264 2.059 -8.027
v 132.256 2.059 -13.362
v 137.356 5.959 -26.753
v 151.364 5.959 -21.418
v 146.264 5.959 -8.027
v 132.256 5.959 -13.362
f 184 183 182 181
f 177 178 182 181
f 178 179 183 182
f 179 180 184 183
f 180 177 181 184
v 188.130 2.135 1.308
v 205.986 2.135 8.472
v 200.810 2.135 21.372
v 182.954 2.135 14.208
v 188.130 6.035 1.308
v 205.986 6.035 8.472
v 200.810 6.035 21.372
v 182.954 6.035 14.208
f 192 191 190 189
f 185 186 190 189
f 186 187 191 190
f 187 188 192 191
f 188 185 189 192
v 181.812 0.218 22.457
v 185.628 0.218 16.493
v 189.208 0.218 18.783
v 185.392 0.218 24.747
v 181.812 4.118 22.457
v 185.628 4.118 16.493
v 189.208 4.118 18.783
v 185.392 4.118 24.747
f 200 199 198 197
f 193 194 198 197
f 194 195 199 198
f 195 196 200 199
f 196 193 197 200
v 175.721 2.351 -13.109
v 196.967 2.351 -8.049
v 193.119 2.351 8.109
v 171.873 2.351 3.049
v 175.721 6.251 -13.109
v 196.967 6.251 -8.049
v 193.119 6.251 8.109
v 171.873 6.251 3.049
f 208 207 206 205
f 201 202 206 205
f 202 203 207 206
f 203 204 208 207
f 204 201 205 208
v 165.584 2.135 -12.141
v 174.402 2.135 -27.776
v 186.596 2.135 -20.899
v 177.778 2.135 -5.264
v 165.584 6.035 -12.141
v 174.402 6.035 -27.776
v 186.596 6.035 -20.899
v 177.778 6.035 -5.264
f 216 215 214 213
f 209 210 214 213
f 210 211 215 214
f 211 212 216 215
f 212 209 213 216
v 151.094 1.595 -28.987
v 158.372 1.595 -44.660
v 175.786 1.595 -36.573
v 168.508 1.595 -20.900
v 151.094 5.495 -28.987
v 158.372 5.495 -44.660
v 175.786 5.495 -36.573
v 168.508 5.495 -20.900
f 224 223 222 221
f 217 218 222 221
f 218 219 223 222
f 219 220 224 223
f 220 217 221 224
v 148.073 2.101 -19.986
v 150.842 2.101 -26.967
v 156.067 2.101 -24.894
v 153.298 2.101 -17.913
v 148.073 6.001 -19.986
v 150.842 6.001 -26.967
v 156.067 6.001 -24.894
v 153.298 6.001 -17.913
f 232 231 230 229
f 225 226 230 229
f 226 227 231 230
f 227 228 232 231
f 228 225 229 232
v 99.210 1.501 -21.445
v 111.520 1.501 -21.345
v 111.430 1.501 -10.315
v 99.120 1.501 -10.415
v 99.210 5.401 -21.445
v 111.520 5.401 -21.345
v 111.430 5.401 -10.315
v 99.120 5.401 -10.415
f 240 239 238 237
f 233 234 238 237
f 234 235 239 238
f 235 236 240 239
f 236 233 237 240
v 116.126 1.083 -22.493
v 116.305 1.083 -34.791
v 127.574 1.083 -34.627
v 127.395 1.083 -22.329
v 116.126 4.983 -22.493
v 116.305 4.983 -34.791
v 127.574 4.983 -34.627
v 127.395 4.983 -22.329
f 248 247 246 245
f 241 242 246 245
f 242 243 247 246
f 243 244 248 247
f 244 241 245 248
v 100.355 0.804 -39.721
v 113.855 0.804 -39.709
v 113.845 0.804 -28.379
v 100.345 0.804 -28.391
v 100.355 4.704 -39.721
v 113.855 4.704 -39.709
v 113.845 4.704 -28.379
v 100.345 4.704 -28.391
f 256 255 254 253
f 249 250 254 253
f 250 251 255 254
f 251 252 256 255
f 252 249 253 256
v 86.455 0.561 -22.440
v 86.636 0.561 -34.529
v 97.945 0.561 -34.360
v 97.764 0.561 -22.271
v 86.455 4.461 -22.440
v 86.636 4.461 -34.529
v 97.945 4.461 -34.360
v 97.764 4.461 -22.271
f 264 263 262 261
f 257 258 262 261
f 258 259 263 262
f 259 260 264 263
f 260 257 261 264
v 117.972 0.820 -64.103
v 130.121 0.820 -63.885
v 129.928 0.820 -53.157
v 117.779 0.820 -53.375
v 117.972 4.720 -64.103
v 130.121 4.720 -63.885
v 129.928 4.720 -53.157
v 117.779 4.720 -53.375
f 272 271 270 269
f 265 266 270 269
f 266 267 271 270
f 267 268 272 271
f 268 265 269 272
v 136.944 0.692 -63.759
v 149.003 0.692 -63.949
v 149.176 0.692 -52.961
v 137.117 0.692 -52.771
v 136.944 4.592 -63.759
v 149.003 4.592 -63.949
v 149.176 4.592 -52.961
v 137.117 4.592 -52.771
f 280 279 278 277
f 273 274 278 277
f 274 275 279 278
f 275 276 280 279
f 276 273 277 280
v 82.324 0.924 -102.259
v 87.432 0.924 -114.072
v 98.236 0.924 -109.401
v 93.128 0.924 -97.588
v 82.324 4.824 -102.259
v 87.432 4.824 -114.072
v 98.236 4.824 -109.401
v 93.128 4.824 -97.588
f 288 287 286 285
f 281 282 286 285
f 282 283 287 286
f 283 284 288 287
f 284 281 285 288
v 92.079 1.207 -131.579
v 108.819 1.207 -131.481
v 108.761 1.207 -121.621
v 92.021 1.207 -121.719
v 92.079 5.107 -131.579
v 108.819 5.107 -131.481
v 108.761 5.107 -121.621
v 92.021 5.107 -121.719
f 296 295 294 293
f 289 290 294 293
f 290 291 295 294
f 291 292 296 295
f 292 289 293 296
v 235.222 1.875 4.797
v 249.786 1.875 16.009
v 243.278 1.875 24.463
v 228.714 1.875 13.251
v 235.222 5.775 4.797
v 249.786 5.775 16.009
v 243.278 5.775 24.463
v 228.714 5.775 13.251
f 304 303 302 301
f 297 298 302 301
f 298 299 303 302
f 299 300 304 303
f 300 297 301 304
v 230.118 1.725 -5.998
v 240.150 1.725 5.045
v 231.682 1.725 12.738
v 221.650 1.725 1.695
v 230.118 5.625 -5.998
v 240.150 5.625 5.045
v 231.682 5.625 12.738
v 221.650 5.625 1.695
f 312 311 310 309
f 305 306 310 309
f 306 307 311 310
f 307 308 312 311
f 308 305 309 312
v 218.934 1.671 -13.092
v 230.277 1.671 -5.754
v 225.926 1.671 0.972
v 214.583 1.671 -6.366
v 218.934 5.571 -13.092
v 230.277 5.571 -5.754
v 225.926 5.571 0.972
v 214.583 5.571 -6.366
f 320 319 318 317
f 313 314 318 317
f 314 315 319 318
f 315 316 320 319
f 316 313 317 320
v 241.191 1.681 3.388
v 248.778 1.681 -12.093
v 256.949 1.681 -8.088
v 249.362 1.681 7.393
v 241.191 5.581 3.388
v 248.778 5.581 -12.093
v 256.949 5.581 -8.088
v 249.362 5.581 7.393
f 328 327 326 325
f 321 322 326 325
f 322 323 327 326
f 323 324 328 327
f 324 321 325 328
v 212.923 1.588 -24.639
v 223.751 1.588 -17.213
v 217.337 1.588 -7.861
v 206.509 1.588 -15.287
v 212.923 5.488 -24.639
v 223.751 5.488 -17.213
v 217.337 5.488 -7.861
v 206.509 5.488 -15.287
f 336 335 334 333
f 329 330 334 333
f 330 331 335 334
f 331 332 336 335
f 332 329 333 336
v 146.976 1.237 -159.553
v 160.329 1.237 -159.121
v 159.964 1.237 -147.867
v 146.611 1.237 -148.299
v 146.976 5.137 -159.553
v 160.329 5.137 -159.121
v 159.964 5.137 -147.867
v 146.611 5.137 -148.299
f 344 343 342 341
f 337 338 342 341
f 338 339 343 342
f 339 340 344 343
f 340 337 341 344
v 148.944 1.104 -145.867
v 167.769 1.104 -145.429
v 167.456 1.104 -131.993
v 148.631 1.104 -132.431
v 148.944 5.004 -145.867
v 167.769 5.004 -145.429
v 167.456 5.004 -131.993
v 148.631 5.004 -132.431
f 352 351 350 349
f 345 346 350 349
f 346 347 351 350
f 347 348 352 351
f 348 345 349 352
v 147.991 1.255 -130.569
v 170.685 1.255 -130.069
v 170.449 1.255 -119.351
v 147.755 1.255 -119.851
v 147.991 5.155 -130.569
v 170.685 5.155 -130.069
v 170.449 5.155 -119.351
v 147.755 5.155 -119.851
f 360 359 358 357
f 353 354 358 357
f 354 355 359 358
f 355 356 360 359
f 356 353 357 360
v 154.045 0.879 -119.383
v 180.264 0.879 -111.959
v 177.035 0.879 -100.557
v 150.816 0.879 -107.981
v 154.045 4.779 -119.383
v 180.264 4.779 -111.959
v 177.035 4.779 -100.557
v 150.816 4.779 -107.981
f 368 367 366 365
f 361 362 366 365
f 362 363 367 366
f 363 364 368 367
f 364 361 365 368
v 162.316 0.987 -99.719
v 174.236 0.987 -92.002
v 169.264 0.987 -84.321
v 157.344 0.987 -92.038
v 162.316 4.887 -99.719
v 174.236 4.887 -92.002
v 169.264 4.887 -84.321
v 157.344 4.887 -92.038
f 376 375 374 373
f 369 370 374 373
f 370 371 375 374
f 371 372 376 375
f 372 369 373 376
v 177.336 0.973 -77.931
v 188.560 0.973 -70.984
v 182.424 0.973 -61.069
v 171.200 0.973 -68.016
v 177.336 4.873 -77.931
v 188.560 4.873 -70.984
v 182.424 4.873 -61.069
v 171.200 4.873 -68.016
f 384 383 382 381
f 377 378 382 381
f 378 379 383 382
f 379 380 384 383
f 380 377 381 384
v 186.829 1.175 -67.540
v 199.668 1.175 -59.366
v 193.271 1.175 -49.320
v 180.432 1.175 -57.494
v 186.829 5.075 -67.540
v 199.668 5.075 -59.366
v 193.271 5.075 -49.320
v 180.432 5.075 -57.494
f 392 391 390 389
f 385 386 390 389
f 386 387 391 390
f 387 388 392 391
f 388 385 389 392
v 192.899 1.035 -53.686
v 204.795 1.035 -46.691
v 200.081 1.035 -38.674
v 188.185 1.035 -45.669
v 192.899 4.935 -53.686
v 204.795 4.935 -46.691
v 200.081 4.935 -38.674
v 188.185 4.935 -45.669
f 400 399 398 397
f 393 394 398 397
f 394 395 399 398
f 395 396 400 399
f 396 393 397 400
v 200.063 1.165 -42.076
v 212.117 1.165 -34.054
v 208.477 1.165 -28.584
v 196.423 1.165 -36.606
v 200.063 5.065 -42.076
v 212.117 5.065 -34.054
v 208.477 5.065 -28.584
v 196.423 5.065 -36.606
f 408 407 406 405
f 401 402 406 405
f 402 403 407 406
f 403 404 408 407
f 404 401 405 408
v 219.474 1.557 -88.411
v 232.267 1.557 -80.464
v 225.486 1.557 -69.549
v 212.693 1.557 -77.496
v 219.474 5.457 -88.411
v 232.267 5.457 -80.464
v 225.486 5.457 -69.549
v 212.693 5.457 -77.496
f 416 415 414 413
f 409 410 414 413
f 410 411 415 414
f 411 412 416 415
f 412 409 413 416
v 228.928 1.896 -87.277
v 263.382 1.896 -65.800
v 255.892 1.896 -53.783
v 221.438 1.896 -75.260
v 228.928 11.196 -87.277
v 263.382 11.196 -65.800
v 255.892 11.196 -53.783
v 221.438 11.196 -75.260
f 424 423 422 421
f 417 418 422 421
f 418 419 423 422
f 419 420 424 423
f 420 417 421 424
v 238.566 2.030 -40.618
v 251.561 2.030 -61.293
v 260.934 2.030 -55.402
v 247.939 2.030 -34.727
v 238.566 11.330 -40.618
v 251.561 11.330 -61.293
v 260.934 11.330 -55.402
v 247.939 11.330 -34.727
f 432 431 430 429
f 425 426 430 429
f 426 427 431 430
f 427 428 432 431
f 428 425 429 432
v 198.146 1.342 -133.496
v 218.845 1.342 -116.521
v 209.974 1.342 -105.704
v 189.275 1.342 -122.679
v 198.146 5.242 -133.496
v 218.845 5.242 -116.521
v 209.974 5.242 -105.704
v 189.275 5.242 -122.679
f 440 439 438 437
f 433 434 438 437
f 434 435 439 438
f 435 436 440 439
f 436 433 437 440
v 194.676 1.005 -72.665
v 198.710 1.005 -79.516
v 204.044 1.005 -76.375
v 200.010 1.005 -69.524
v 194.676 4.905 -72.665
v 198.710 4.905 -79.516
v 204.044 4.905 -76.375
v 200.010 4.905 -69.524
f 448 447 446 445
f 441 442 446 445
f 442 443 447 446
f 443 444 448 447
f 444 441 445 448
v 190.214 1.107 -85.683
v 198.326 1.107 -82.680
v 195.386 1.107 -74.737
v 187.274 1.107 -77.740
v 190.214 5.007 -85.683
v 198.326 5.007 -82.680
v 195.386 5.007 -74.737
v 187.274 5.007 -77.740
f 456 455 454 453
f 449 450 454 453
f 450 451 455 454
f 451 452 456 455
f 452 449 453 456
v 222.659 1.888 -142.615
v 235.215 1.888 -134.742
v 228.181 1.888 -123.525
v 215.625 1.888 -131.398
v 222.659 5.788 -142.615
v 235.215 5.788 -134.742
v 228.181 5.788 -123.525
v 215.625 5.788 -131.398
f 464 463 462 461
f 457 458 462 461
f 458 459 463 462
f 459 460 464 463
f 460 457 461 464
v 196.038 1.836 -135.882
v 197.895 1.836 -158.095
v 210.302 1.836 -157.058
v 208.445 1.836 -134.845
v 196.038 5.736 -135.882
v 197.895 5.736 -158.095
v 210.302 5.736 -157.058
v 208.445 5.736 -134.845
f 472 471 470 469
f 465 466 470 469
f 466 467 471 470
f 467 468 472 471
f 468 465 469 472
v 240.578 2.095 95.063
v 269.692 2.095 109.234
v 263.022 2.095 122.937
v 233.908 2.095 108.766
v 240.578 5.995 95.063
v 269.692 5.995 109.234
v 263.022 5.995 122.937
v 233.908 5.995 108.766
f 480 479 478 477
f 473 474 478 477
f 474 475 479 478
f 475 476 480 479
f 476 473 477 480
v 225.589 1.988 192.995
v 261.676 1.988 143.332
v 275.291 1.988 153.225
v 239.204 1.988 202.888
v 225.589 7.788 192.995
v 261.676 7.788 143.332
v 275.291 7.788 153.225
v 239.204 7.788 202.888
f 488 487 486 485
f 481 482 486 485
f 482 483 487 486
f 483 484 488 487
f 484 481 485 488
v 226.923 1.907 135.572
v 237.357 1.907 142.122
v 234.077 1.907 147.348
v 223.643 1.907 140.798
v 226.923 5.807 135.572
v 237.357 5.807 142.122
v 234.077 5.807 147.348
v 223.643 5.807 140.798
f 496 495 494 493
f 489 490 494 493
f 490 491 495 494
f 491 492 496 495
f 492 489 493 496
v 218.079 1.965 111.461
v 238.801 1.965 127.131
v 228.541 1.965 140.699
v 207.819 1.965 125.029
v 218.079 5.865 111.461
v 238.801 5.865 127.131
v 228.541 5.865 140.699
v 207.819 5.865 125.029
f 504 503 502 501
f 497 498 502 501
f 498 499 503 502
f 499 500 504 503
f 500 497 501 504
v 215.252 2.165 70.933
v 255.534 2.165 92.068
v 246.888 2.165 108.547
v 206.606 2.165 87.412
v 215.252 7.965 70.933
v 255.534 7.965 92.068
v 246.888 7.965 108.547
v 206.606 7.965 87.412
f 512 511 510 509
f 505 506 510 509
f 506 507 511 510
f 507 508 512 511
f 508 505 509 512
v 226.170 1.482 -26.390
v 230.537 1.482 -33.448
v 235.350 1.482 -30.470
v 230.983 1.482 -23.412
v 226.170 5.382 -26.390
v 230.537 5.382 -33.448
v 235.350 5.382 -30.470
v 230.983 5.382 -23.412
f 520 519 518 517
f 513 514 518 517
f 514 515 519 518
f 515 516 520 519
f 516 513 517 520
v 221.128 1.312 -44.254
v 225.679 1.312 -41.366
v 223.852 1.312 -38.486
v 219.301 1.312 -41.374
v 221.128 5.212 -44.254
v 225.679 5.212 -41.366
v 223.852 5.212 -38.486
v 219.301 5.212 -41.374
f 528 527 526 525
f 521 522 526 525
f 522 523 527 526
f 523 524 528 527
f 524 521 525 528
v 210.053 0.598 -49.112
v 221.034 0.598 -55.021
v 225.347 0.598 -47.008
v 214.366 0.598 -41.099
v 210.053 4.498 -49.112
v 221.034 4.498 -55.021
v 225.347 4.498 -47.008
v 214.366 4.498 -41.099
f 536 535 534 533
f 529 530 534 533
f 530 531 535 534
f 531 532 536 535
f 532 529 533 536
v 211.516 1.065 -57.750
v 217.025 1.065 -54.319
v 214.504 1.065 -50.270
v 208.995 1.065 -53.701
v 211.516 4.965 -57.750
v 217.025 4.965 -54.319
v 214.504 4.965 -50.270
v 208.995 4.965 -53.701
f 544 543 542 541
f 537 538 542 541
f 538 539 543 542
f 539 540 544 543
f 540 537 541 544
v 224.082 1.340 -108.944
v 228.375 1.340 -113.784
v 233.118 1.340 -109.576
v 228.825 1.340 -104.736
v 224.082 5.240 -108.944
v 228.375 5.240 -113.784
v 233.118 5.240 -109.576
v 228.825 5.240 -104.736
f 552 551 550 549
f 545 546 550 549
f 546 547 551 550
f 547 548 552 551
f 548 545 549 552
v 232.015 1.751 -93.425
v 238.390 1.751 -103.885
v 246.545 1.751 -98.915
v 240.170 1.751 -88.455
v 232.015 5.651 -93.425
v 238.390 5.651 -103.885
v 246.545 5.651 -98.915
v 240.170 5.651 -88.455
f 560 559 558 557
f 553 554 558 557
f 554 555 559 558
f 555 556 560 559
f 556 553 557 560
v 220.222 1.882 -148.221
v 243.550 1.882 -166.015
v 253.418 1.882 -153.079
v 230.090 1.882 -135.285
v 220.222 5.782 -148.221
v 243.550 5.782 -166.015
v 253.418 5.782 -153.079
v 230.090 5.782 -135.285
f 568 567 566 565
f 561 562 566 565
f 562 563 567 566
f 563 564 568 567
f 564 561 565 568
v 201.889 1.894 -167.898
v 222.679 1.894 -192.278
v 233.111 1.894 -183.382
v 212.321 1.894 -159.002
v 201.889 5.794 -167.898
v 222.679 5.794 -192.278
v 233.111 5.794 -183.382
v 212.321 5.794 -159.002
f 576 575 574 573
f 569 570 574 573
f 570 571 575 574
f 571 572 576 575
f 572 569 573 576
v 180.292 2.077 -253.315
v 188.035 2.077 -263.038
v 195.788 2.077 -256.865
v 188.045 2.077 -247.142
v 180.292 5.977 -253.315
v 188.035 5.977 -263.038
v 195.788 5.977 -256.865
v 188.045 5.977 -247.142
f 584 583 582 581
f 577 578 582 581
f 578 579 583 582
f 579 580 584 583
f 580 577 581 584
v 174.019 1.544 -242.032
v 174.274 1.544 -249.858
v 180.101 1.544 -249.668
v 179.846 1.544 -241.842
v 174.019 5.444 -242.032
v 174.274 5.444 -249.858
v 180.101 5.444 -249.668
v 179.846 5.444 -241.842
f 592 591 590 589
f 585 586 590 589
f 586 587 591 590
f 587 588 592 591
f 588 585 589 592
v 171.501 1.871 -260.648
v 172.919 1.871 -239.917
v 159.979 1.871 -239.032
v 158.561 1.871 -259.763
v 171.501 5.771 -260.648
v 172.919 5.771 -239.917
v 159.979 5.771 -239.032
v 158.561 5.771 -259.763
f 600 599 598 597
f 593 594 598 597
f 594 595 599 598
f 595 596 600 599
f 596 593 597 600
v 150.871 1.218 -242.305
v 151.448 1.218 -250.866
v 159.609 1.218 -250.315
v 159.032 1.218 -241.754
v 150.871 5.118 -242.305
v 151.448 5.118 -250.866
v 159.609 5.118 -250.315
v 159.032 5.118 -241.754
f 608 607 606 605
f 601 602 606 605
f 602 603 607 606
f 603 604 608 607
f 604 601 605 608
v 152.900 1.911 -239.674
v 167.746 1.911 -239.019
v 167.460 1.911 -232.546
v 152.614 1.911 -233.201
v 152.900 5.811 -239.674
v 167.746 5.811 -239.019
v 167.460 5.811 -232.546
v 152.614 5.811 -233.201
f 616 615 614 613
f 609 610 614 613
f 610 611 615 614
f 611 612 616 615
f 612 609 613 616
v 143.465 1.878 -223.726
v 145.770 1.878 -231.626
v 153.075 1.878 -229.494
v 150.770 1.878 -221.594
v 143.465 5.778 -223.726
v 145.770 5.778 -231.626
v 153.075 5.778 -229.494
v 150.770 5.778 -221.594
f 624 623 622 621
f 617 618 622 621
f 618 619 623 622
f 619 620 624 623
f 620 617 621 624
v 146.634 1.342 -190.021
v 157.460 1.342 -197.182
v 163.666 1.342 -187.799
v 152.840 1.342 -180.638
v 146.634 5.242 -190.021
v 157.460 5.242 -197.182
v 163.666 5.242 -187.799
v 152.840 5.242 -180.638
f 632 631 630 629
f 625 626 630 629
f 626 627 631 630
f 627 628 632 631
f 628 625 629 632
v 163.084 1.272 -183.699
v 173.801 1.272 -185.894
v 175.156 1.272 -179.281
v 164.439 1.272 -177.086
v 163.084 5.172 -183.699
v 173.801 5.172 -185.894
v 175.156 5.172 -179.281
v 164.439 5.172 -177.086
f 640 639 638 637
f 633 634 638 637
f 634 635 639 638
f 635 636 640 639
f 636 633 637 640
v 153.023 1.261 -198.182
v 177.409 1.261 -213.578
v 186.917 1.261 -198.518
v 162.531 1.261 -183.122
v 153.023 5.161 -198.182
v 177.409 5.161 -213.578
v 186.917 5.161 -198.518
v 162.531 5.161 -183.122
f 648 647 646 645
f 641 642 646 645
f 642 643 647 646
f 643 644 648 647
f 644 641 645 648
v 197.955 1.488 -205.572
v 212.150 1.488 -195.353
v 209.065 1.488 -191.068
v 194.870 1.488 -201.287
v 197.955 5.388 -205.572
v 212.150 5.388 -195.353
v 209.065 5.388 -191.068
v 194.870 5.388 -201.287
f 656 655 654 653
f 649 650 654 653
f 650 651 655 654
f 651 652 656 655
f 652 649 653 656
v 168.624 1.349 -198.728
v 185.810 1.349 -220.490
v 196.216 1.349 -212.272
v 179.030 1.349 -190.510
v 168.624 5.249 -198.728
v 185.810 5.249 -220.490
v 196.216 5.249 -212.272
v 179.030 5.249 -190.510
f 664 663 662 661
f 657 658 662 661
f 658 659 663 662
f 659 660 664 663
f 660 657 661 664
v 181.867 1.245 -212.913
v 194.301 1.245 -229.625
v 205.293 1.245 -221.447
v 192.859 1.245 -204.735
v 181.867 5.145 -212.913
v 194.301 5.145 -229.625
v 205.293 5.145 -221.447
v 192.859 5.145 -204.735
f 672 671 670 669
f 665 666 670 669
f 666 667 671 670
f 667 668 672 671
f 668 665 669 672
v 174.716 0.993 -109.310
v 182.624 0.993 -104.137
v 180.264 0.993 -100.530
v 172.356 0.993 -105.703
v 174.716 4.893 -109.310
v 182.624 4.893 -104.137
v 180.264 4.893 -100.530
v 172.356 4.893 -105.703
f 680 679 678 677
f 673 674 678 677
f 674 675 679 678
f 675 676 680 679
f 676 673 677 680
v 100.104 0.891 -177.321
v 106.533 0.891 -173.799
v 103.136 0.891 -167.599
v 96.707 0.891 -171.121
v 100.104 4.791 -177.321
v 106.533 4.791 -173.799
v 103.136 4.791 -167.599
v 96.707 4.791 -171.121
f 688 687 686 685
f 681 682 686 685
f 682 683 687 686
f 683 684 688 687
f 684 681 685 688
v 80.657 1.362 -164.685
v 91.772 1.362 -174.137
v 102.643 1.362 -161.355
v 91.528 1.362 -151.903
v 80.657 5.262 -164.685
v 91.772 5.262 -174.137
v 102.643 5.262 -161.355
v 91.528 5.262 -151.903
f 696 695 694 693
f 689 690 694 693
f 690 691 695 694
f 691 692 696 695
f 692 689 693 696
v 82.223 1.247 -156.057
v 96.693 1.247 -156.133
v 96.737 1.247 -147.703
v 82.267 1.247 -147.627
v 82.223 5.147 -156.057
v 96.693 5.147 -156.133
v 96.737 5.147 -147.703
v 82.267 5.147 -147.627
f 704 703 702 701
f 697 698 702 701
f 698 699 703 702
f 699 700 704 703
f 700 697 701 704
v 63.956 1.616 140.431
v 68.568 1.616 132.808
v 75.644 1.616 137.089
v 71.032 1.616 144.712
v 63.956 5.516 140.431
v 68.568 5.516 132.808
v 75.644 5.516 137.089
v 71.032 5.516 144.712
f 712 711 710 709
f 705 706 710 709
f 706 707 711 710
f 707 708 712 711
f 708 705 709 712
usemtl road
v 211.616 2.247 83.446
v 207.436 2.217 77.176
v 202.444 2.260 80.504
v 206.624 2.282 86.774
f 713 714 715 716
v 207.434 2.217 77.173
v 204.914 2.210 73.403
v 199.926 2.256 76.737
v 202.446 2.260 80.507
f 717 718 719 720
v 204.916 2.210 73.406
v 202.036 2.306 69.086
v 197.044 2.278 72.414
v 199.924 2.256 76.734
f 721 722 723 724
v 202.343 2.305 69.680
v 200.923 2.266 65.960
v 195.317 2.247 68.100
v 196.737 2.270 71.820
f 725 726 727 728
v 201.068 2.272 66.474
v 198.998 2.208 55.504
v 193.102 2.162 56.616
v 195.172 2.243 67.586
f 729 730 731 732
v 198.909 2.205 55.152
v 198.179 2.182 52.852
v 192.461 2.169 54.668
v 193.191 2.162 56.968
f 733 734 735 736
v 197.809 2.128 52.086
v 169.369 2.099 9.796
v 164.391 2.129 13.144
v 192.831 2.167 55.434
f 737 738 739 740
v 195.361 1.260 -93.992
v 241.601 1.775 -122.182
v 238.739 1.713 -126.878
v 192.499 1.245 -98.688
f 741 742 743 744
v 241.630 1.776 -122.199
v 257.460 2.114 -132.114
v 254.540 1.918 -136.775
v 238.710 1.712 -126.861
f 745 746 747 748
v 69.672 1.803 -166.801
v 62.042 1.143 -155.401
v 66.198 1.144 -152.619
v 73.828 1.551 -164.019
f 749 750 751 752
v 61.638 1.144 -154.312
v 60.018 1.194 -140.992
v 64.982 1.115 -140.388
v 66.602 1.154 -153.708
f 753 754 755 756
v 60.117 1.181 -139.934
v 64.727 0.859 -125.394
v 69.493 0.837 -126.906
v 64.883 1.139 -141.446
f 757 758 759 760
v 64.672 0.864 -125.598
v 68.472 0.804 -108.798
v 73.348 0.757 -109.902
v 69.548 0.834 -126.702
f 761 762 763 764
v 68.418 0.805 -109.154
v 69.718 0.807 -92.614
v 74.702 0.700 -93.006
v 73.402 0.755 -109.546
f 765 766 767 768
v 69.711 0.809 -92.758
v 70.241 0.677 -67.128
v 75.239 0.677 -67.232
v 74.709 0.700 -92.862
f 769 770 771 772
v 70.241 0.677 -67.260
v 69.341 0.765 -39.100
v 74.339 0.782 -38.940
v 75.239 0.677 -67.100
f 773 774 775 776
v 69.489 0.771 -39.871
v 64.749 0.789 -26.781
v 69.451 0.792 -25.079
v 74.191 0.777 -38.169
f 777 778 779 780
v 64.840 0.783 -26.998
v 56.720 1.991 -9.818
v 61.240 2.061 -7.682
v 69.360 0.798 -24.862
f 781 782 783 784
v 56.599 1.992 -9.514
v 54.479 1.889 -2.904
v 59.241 1.924 -1.376
v 61.361 2.053 -7.986
f 785 786 787 788
v 138.081 0.714 -102.065
v 141.131 0.728 -94.725
v 146.209 0.706 -96.835
v 143.159 0.698 -104.175
f 789 790 791 792
v 141.336 0.734 -94.325
v 156.386 0.849 -70.185
v 161.054 0.809 -73.095
v 146.004 0.707 -97.235
f 793 794 795 796
v 156.445 0.849 -70.094
v 238.425 1.582 50.546
v 242.975 1.593 47.454
v 160.995 0.809 -73.186
f 797 798 799 800
v 238.427 1.582 50.548
v 241.137 1.641 54.528
v 245.683 1.617 51.432
v 242.973 1.593 47.452
f 801 802 803 804
v 241.144 1.641 54.538
v 245.104 1.624 60.298
v 249.636 1.597 57.182
v 245.676 1.617 51.422
f 805 806 807 808
v 191.647 1.240 -94.806
v 195.147 1.232 -89.596
v 199.713 1.242 -92.664
v 196.213 1.251 -97.874
f 809 810 811 812
v 195.149 1.232 -89.594
v 253.719 2.063 -2.651
v 258.281 2.106 -5.724
v 199.711 1.242 -92.666
f 813 814 815 816
v 250.376 1.608 53.318
v 245.806 1.636 56.478
v 248.934 1.640 61.002
v 253.504 1.624 57.842
f 817 818 819 820
v 245.809 1.636 56.476
v 207.559 2.270 82.846
v 210.681 2.342 87.374
v 248.931 1.640 61.004
f 821 822 823 824
v 207.561 2.270 82.844
v 201.311 2.314 87.144
v 204.429 2.348 91.676
v 210.679 2.343 87.376
f 825 826 827 828
v 201.308 2.314 87.147
v 181.218 2.213 101.017
v 184.342 2.203 105.543
v 204.432 2.348 91.673
f 829 830 831 832
v 181.218 2.213 101.017
v 179.218 2.209 102.397
v 182.342 2.186 106.923
v 184.342 2.203 105.543
f 833 834 835 836
v 179.219 2.209 102.396
v 173.009 2.176 106.676
v 176.131 2.134 111.204
v 182.341 2.186 106.924
f 837 838 839 840
v 191.190 1.170 -232.842
v 213.070 1.208 -247.632
v 209.990 1.331 -252.188
v 188.110 1.248 -237.398
f 841 842 843 844
v 131.294 1.541 -255.880
v 133.653 1.037 -201.950
v 139.147 1.003 -202.190
v 136.788 1.578 -256.120
f 845 846 847 848
v 201.933 2.110 233.450
v 211.233 2.047 234.980
v 212.207 2.026 229.060
v 202.907 2.106 227.530
f 849 850 851 852
v 211.228 2.047 234.979
v 223.988 1.615 237.099
v 224.972 1.208 231.181
v 212.212 2.026 229.061
f 853 854 855 856
v 224.448 1.654 237.140
v 229.078 1.774 237.190
v 229.142 1.182 231.190
v 224.512 1.225 231.140
f 857 858 859 860
v 241.691 1.941 -248.218
v 233.491 1.713 -214.868
v 236.889 1.886 -214.032
v 245.089 2.024 -247.382
f 861 862 863 864
v 234.225 1.775 -215.910
v 221.165 1.111 -207.280
v 223.095 1.133 -204.360
v 236.155 1.811 -212.990
f 865 866 867 868
v 206.702 1.028 -226.388
v 220.662 1.146 -204.868
v 223.598 1.145 -206.772
v 209.638 1.038 -228.292
f 869 870 871 872
v 220.662 1.146 -204.867
v 253.942 1.903 -153.577
v 256.878 1.948 -155.483
v 223.598 1.145 -206.773
f 873 874 875 876
v 251.916 2.197 -192.541
v 236.646 1.913 -215.421
v 233.734 1.697 -213.479
v 249.004 2.128 -190.599
f 877 878 879 880
v 236.646 1.913 -215.421
v 212.986 1.301 -250.881
v 210.074 1.286 -248.939
v 233.734 1.697 -213.479
f 881 882 883 884
v 177.162 2.188 106.588
v 172.932 2.159 101.928
v 167.748 2.098 106.632
v 171.978 2.143 111.292
f 885 886 887 888
v 172.061 2.224 101.232
v 166.571 2.387 98.132
v 163.129 2.225 104.228
v 168.619 2.110 107.328
f 889 890 891 892
v 165.523 2.376 97.745
v 159.343 2.454 96.535
v 157.997 2.390 103.405
v 164.177 2.220 104.615
f 893 894 895 896
v 158.226 2.455 96.498
v 151.966 2.397 97.298
v 152.854 2.344 104.242
v 159.114 2.365 103.442
f 897 898 899 900
v 150.905 2.368 97.610
v 145.215 2.354 100.320
v 148.225 2.326 106.640
v 153.915 2.368 103.930
f 901 902 903 904
v 144.293 2.343 100.958
v 139.763 2.241 105.318
v 144.617 2.252 110.362
v 149.147 2.320 106.002
f 905 906 907 908
v 139.095 2.228 106.206
v 136.165 2.170 111.756
v 142.355 2.145 115.024
v 145.285 2.290 109.474
f 909 910 911 912
v 135.806 2.161 112.827
v 134.796 2.058 119.027
v 141.704 2.042 120.153
v 142.714 2.158 113.953
f 913 914 915 916
v 134.796 2.060 120.154
v 135.806 2.094 126.344
v 142.714 2.088 125.216
v 141.704 2.027 119.026
f 917 918 919 920
v 136.158 2.091 127.401
v 139.068 2.058 132.971
v 145.272 2.038 129.729
v 142.362 2.082 124.159
f 921 922 923 924
v 139.746 2.038 133.875
v 144.276 2.092 138.225
v 149.124 1.973 133.175
v 144.594 2.058 128.825
f 925 926 927 928
v 145.186 2.086 138.856
v 150.876 2.076 141.586
v 153.904 2.127 135.274
v 148.214 1.975 132.544
f 929 930 931 932
v 151.952 2.095 141.902
v 158.212 2.224 142.692
v 159.088 2.211 135.748
v 152.828 2.098 134.958
f 933 934 935 936
v 159.321 2.238 142.655
v 165.511 2.250 141.445
v 164.169 2.260 134.575
v 157.979 2.186 135.785
f 937 938 939 940
v 166.590 2.251 141.041
v 171.250 2.233 138.351
v 167.750 2.251 132.289
v 163.090 2.264 134.979
f 941 942 943 944
v 166.505 2.271 137.131
v 170.985 2.311 144.541
v 176.975 2.276 140.919
v 172.495 2.182 133.509
f 945 946 947 948
v 170.983 2.311 144.538
v 175.133 2.434 151.418
v 181.127 2.379 147.802
v 176.977 2.276 140.922
f 949 950 951 952
v 175.163 2.434 151.467
v 185.093 2.301 167.327
v 191.027 2.332 163.613
v 181.097 2.379 147.753
f 953 954 955 956
v 184.971 2.307 167.116
v 188.291 2.102 173.346
v 194.469 2.124 170.054
v 191.149 2.327 163.824
f 957 958 959 960
v 188.165 2.100 173.083
v 190.505 2.168 178.523
v 196.935 2.185 175.757
v 194.595 2.129 170.317
f 961 962 963 964
v 190.467 2.167 178.431
v 192.987 2.188 184.781
v 199.493 2.196 182.199
v 196.973 2.184 175.849
f 965 966 967 968
v 192.879 2.188 184.467
v 195.789 2.190 194.477
v 202.511 2.254 192.523
v 199.601 2.199 182.513
f 969 970 971 972
v 195.716 2.190 194.178
v 197.826 2.204 204.868
v 204.694 2.154 203.512
v 202.584 2.251 192.822
f 973 974 975 976
v 197.788 2.203 204.632
v 198.898 2.219 213.342
v 205.842 2.085 212.458
v 204.732 2.156 203.748
f 977 978 979 980
v 198.871 2.221 212.985
v 199.091 2.173 222.055
v 206.089 2.133 221.885
v 205.869 2.087 212.815
f 981 982 983 984
v 199.091 2.176 221.900
v 198.921 2.108 230.420
v 205.919 2.054 230.560
v 206.089 2.133 222.040
f 985 986 987 988
v 142.601 2.150 254.490
v 115.274 1.913 238.490
v 113.506 1.911 241.510
v 140.832 2.156 257.510
f 989 990 991 992
v 115.273 1.913 238.489
v 111.613 1.879 236.349
v 109.847 1.882 239.371
v 113.507 1.911 241.511
f 993 994 995 996
v 56.033 2.124 48.230
v 113.183 2.243 48.370
v 113.197 2.248 42.370
v 56.047 2.121 42.230
f 997 998 999 1000
v 113.160 2.242 48.370
v 124.970 2.292 48.490
v 125.030 2.277 42.490
v 113.220 2.248 42.370
f 1001 1002 1003 1004
v 123.767 2.293 48.225
v 129.557 2.271 50.835
v 132.023 2.274 45.365
v 126.233 2.276 42.755
f 1005 1006 1007 1008
v 128.351 2.276 49.846
v 130.871 2.281 53.366
v 135.749 2.260 49.874
v 133.229 2.268 46.354
f 1009 1010 1011 1012
v 130.390 2.278 52.308
v 133.080 2.322 63.718
v 138.920 2.319 62.342
v 136.230 2.254 50.932
f 1013 1014 1015 1016
v 133.001 2.321 63.093
v 133.231 2.346 74.053
v 139.229 2.357 73.927
v 138.999 2.320 62.967
f 1017 1018 1019 1020
v 133.247 2.348 74.314
v 133.887 2.388 80.214
v 139.853 2.366 79.566
v 139.213 2.354 73.666
f 1021 1022 1023 1024
v 133.939 2.390 80.532
v 135.209 2.382 86.332
v 141.071 2.345 85.048
v 139.801 2.369 79.248
f 1025 1026 1027 1028
v 135.290 2.377 86.626
v 136.840 2.300 91.346
v 142.540 2.351 89.474
v 140.990 2.346 84.754
f 1029 1030 1031 1032
v 136.929 2.299 91.584
v 138.869 2.285 96.144
v 144.391 2.367 93.796
v 142.451 2.352 89.236
f 1033 1034 1035 1036
v 138.981 2.287 96.377
v 140.171 2.323 98.617
v 145.469 2.397 95.803
v 144.279 2.362 93.563
f 1037 1038 1039 1040
v 140.191 2.323 98.654
v 141.361 2.317 100.784
v 146.619 2.392 97.896
v 145.449 2.397 95.766
f 1041 1042 1043 1044
v 141.486 2.316 100.992
v 144.216 2.313 105.132
v 149.224 2.318 101.828
v 146.494 2.396 97.688
f 1045 1046 1047 1048
v 202.544 2.143 214.641
v 212.434 2.107 213.651
v 212.086 2.033 210.169
v 202.196 2.171 211.159
f 1049 1050 1051 1052
v 212.406 2.107 213.654
v 218.126 2.144 213.174
v 217.834 2.099 209.686
v 212.114 2.032 210.166
f 1053 1054 1055 1056
v 218.684 2.142 213.032
v 221.664 2.123 211.722
v 220.256 2.085 208.518
v 217.276 2.099 209.828
f 1057 1058 1059 1060
v 222.222 2.120 211.332
v 224.392 2.105 209.072
v 221.868 2.060 206.648
v 219.698 2.092 208.908
f 1061 1062 1063 1064
v 224.583 2.102 208.836
v 226.463 2.032 206.036
v 223.557 2.030 204.084
v 221.677 2.063 206.884
f 1065 1066 1067 1068
v 226.759 2.010 205.128
v 227.849 2.100 177.018
v 224.351 2.106 176.882
v 223.261 2.037 204.992
f 1069 1070 1071 1072
v 227.850 2.102 176.957
v 227.880 2.340 169.637
v 224.380 2.321 169.623
v 224.350 2.101 176.943
f 1073 1074 1075 1076
v 227.854 2.340 169.328
v 227.274 2.328 166.018
v 223.826 2.263 166.622
v 224.406 2.326 169.932
f 1077 1078 1079 1080
v 227.159 2.331 165.632
v 225.649 2.299 162.102
v 222.431 2.278 163.478
v 223.941 2.261 167.008
f 1081 1082 1083 1084
v 225.492 2.294 161.813
v 223.232 2.323 158.453
v 220.328 2.300 160.407
v 222.588 2.278 163.767
f 1085 1086 1087 1088
v 223.027 2.328 158.202
v 220.497 2.330 155.632
v 218.003 2.332 158.088
v 220.533 2.299 160.658
f 1089 1090 1091 1092
v 220.204 2.333 155.393
v 196.564 2.348 140.023
v 194.656 2.344 142.957
v 218.296 2.328 158.327
f 1093 1094 1095 1096
v 195.563 2.345 139.741
v 192.593 2.373 139.821
v 192.687 2.350 143.319
v 195.657 2.335 143.239
f 1097 1098 1099 1100
v 191.883 2.383 139.992
v 189.363 2.392 141.202
v 190.877 2.344 144.358
v 193.397 2.349 143.148
f 1101 1102 1103 1104
v 189.274 2.392 141.248
v 186.504 2.359 142.778
v 188.196 2.342 145.842
v 190.966 2.345 144.312
f 1105 1106 1107 1108
v 186.478 2.359 142.793
v 177.258 2.372 148.093
v 179.002 2.437 151.127
v 188.222 2.342 145.827
f 1109 1110 1111 1112
v 220.218 1.543 256.640
v 222.499 1.328 250.840
v 219.241 1.374 249.560
v 216.961 1.904 255.360
f 1113 1114 1115 1116
v 222.554 1.325 250.678
v 225.324 1.986 240.918
v 221.956 1.561 239.962
v 219.186 1.379 249.722
f 1117 1118 1119 1120
v 225.375 1.987 240.671
v 226.215 1.423 234.371
v 222.745 1.289 233.909
v 221.905 1.521 240.209
f 1121 1122 1123 1124
v 133.651 1.038 -201.997
v 136.081 0.796 -110.907
v 141.579 0.750 -111.053
v 139.149 1.003 -202.143
f 1125 1126 1127 1128
v 136.149 0.793 -110.369
v 137.939 0.716 -102.509
v 143.301 0.702 -103.731
v 141.511 0.752 -111.591
f 1129 1130 1131 1132
v 114.940 2.243 45.343
v 114.600 2.308 23.663
v 111.100 2.289 23.717
v 111.440 2.227 45.397
f 1133 1134 1135 1136
v 114.600 2.308 23.662
v 114.270 2.176 3.082
v 110.770 2.145 3.138
v 111.100 2.289 23.718
f 1137 1138 1139 1140
v 112.480 2.151 1.360
v 55.910 1.938 2.660
v 55.990 2.001 6.160
v 112.560 2.193 4.860
f 1141 1142 1143 1144
v 55.097 2.093 27.639
v 112.917 2.323 25.439
v 112.783 2.276 21.941
v 54.963 2.088 24.141
f 1145 1146 1147 1148
v 188.133 1.248 -237.413
v 141.853 1.058 -206.793
v 144.887 1.008 -202.207
v 191.167 1.171 -232.827
f 1149 1150 1151 1152
v 142.465 1.059 -207.097
v 135.495 1.080 -204.667
v 137.305 0.995 -199.473
v 144.275 1.001 -201.903
f 1153 1154 1155 1156
v 135.530 1.080 -204.679
v 130.040 1.001 -202.849
v 131.780 1.024 -197.631
v 137.270 0.996 -199.461
f 1157 1158 1159 1160
v 130.050 1.001 -202.852
v 127.680 1.002 -202.072
v 129.400 1.009 -196.848
v 131.770 1.025 -197.628
f 1161 1162 1163 1164
v 127.126 0.994 -201.819
v 70.336 1.814 -167.769
v 73.164 1.521 -163.051
v 129.954 1.016 -197.101
f 1165 1166 1167 1168
v 111.600 1.879 236.341
v 78.440 0.120 217.351
v 76.700 0.120 220.389
v 109.860 1.883 239.379
f 1169 1170 1171 1172
v 140.139 0.724 -104.803
v 133.069 0.867 -102.783
v 134.031 0.926 -99.417
v 141.101 0.721 -101.437
f 1173 1174 1175 1176
v 133.443 0.856 -102.847
v 122.843 1.080 -102.197
v 123.057 1.042 -98.703
v 133.657 0.928 -99.353
f 1177 1178 1179 1180
v 122.827 1.081 -102.196
v 89.057 0.972 -99.816
v 89.303 0.937 -96.324
v 123.073 1.042 -98.704
f 1181 1182 1183 1184
v 198.945 2.108 230.076
v 198.175 2.162 236.546
v 205.125 2.061 237.374
v 205.895 2.046 230.904
f 1185 1186 1187 1188
v 198.240 2.159 236.173
v 196.760 2.278 242.583
v 203.580 2.218 244.157
v 205.060 2.076 237.747
f 1189 1190 1191 1192
v 196.921 2.266 242.067
v 193.761 2.225 249.947
v 200.259 2.013 252.553
v 203.419 2.213 244.673
f 1193 1194 1195 1196
v 193.874 2.225 249.696
v 191.521 2.227 254.446
v 197.793 2.098 257.554
v 200.146 2.009 252.804
f 1197 1198 1199 1200
v 171.930 2.233 137.839
v 176.700 2.209 133.239
v 171.840 2.113 128.201
v 167.070 2.289 132.801
f 1201 1202 1203 1204
v 177.414 2.243 132.258
v 179.944 2.340 127.088
v 173.656 2.206 124.012
v 171.126 2.108 129.182
f 1205 1206 1207 1208
v 180.253 2.352 126.121
v 181.193 2.287 120.441
v 174.287 2.150 119.299
v 173.347 2.204 124.979
f 1209 1210 1211 1212
v 181.208 2.265 119.401
v 180.438 2.239 113.711
v 173.502 2.165 114.649
v 174.272 2.164 120.339
f 1213 1214 1215 1216
v 180.152 2.217 112.723
v 177.752 2.168 107.483
v 171.388 2.171 110.397
v 173.788 2.167 115.637
f 1217 1218 1219 1220
v 253.086 1.272 248.295
v 248.766 1.239 241.235
v 244.074 1.216 244.105
v 248.394 1.147 251.165
f 1221 1222 1223 1224
v 248.028 1.234 240.439
v 242.018 1.201 236.109
v 238.802 1.202 240.571
v 244.812 1.207 244.901
f 1225 1226 1227 1228
v 241.465 1.201 235.800
v 238.095 1.218 234.400
v 235.985 1.197 239.480
v 239.355 1.206 240.880
f 1229 1230 1231 1232
v 237.941 1.217 234.342
v 230.011 1.232 231.592
v 228.209 1.808 236.788
v 236.139 1.197 239.538
f 1233 1234 1235 1236
v 53.452 1.938 4.303
v 52.532 2.063 25.783
v 57.528 2.105 25.997
v 58.448 1.991 4.517
f 1237 1238 1239 1240
v 52.533 2.063 26.020
v 53.543 2.088 45.360
v 58.537 2.144 45.100
v 57.527 2.104 25.760
f 1241 1242 1243 1244
v 160.300 0.854 -69.389
v 165.740 0.787 -73.209
v 162.580 0.778 -77.711
v 157.140 0.824 -73.891
f 1245 1246 1247 1248
v 165.739 0.787 -73.209
v 195.509 1.261 -94.089
v 192.351 1.244 -98.591
v 162.581 0.778 -77.711
f 1249 1250 1251 1252
v 181.959 1.519 -162.618
v 193.409 1.547 -168.998
v 190.731 1.643 -173.802
v 179.281 1.550 -167.422
f 1253 1254 1255 1256
v 194.731 1.546 -170.707
v 196.421 1.593 -177.197
v 191.099 1.826 -178.583
v 189.409 1.615 -172.093
f 1257 1258 1259 1260
v 196.343 1.604 -178.834
v 193.703 1.633 -186.054
v 188.537 1.743 -184.166
v 191.177 1.784 -176.946
f 1261 1262 1263 1264
v 192.731 1.630 -187.339
v 189.341 1.638 -189.789
v 186.119 1.684 -185.331
v 189.509 1.778 -182.881
f 1265 1266 1267 1268
v 186.446 1.643 -189.992
v 179.456 1.618 -186.302
v 182.024 1.833 -181.438
v 189.014 1.664 -185.128
f 1269 1270 1271 1272
v 177.992 1.610 -183.969
v 177.652 1.570 -174.529
v 183.148 1.763 -174.331
v 183.488 1.753 -183.771
f 1273 1274 1275 1276
v 177.651 1.571 -174.366
v 177.871 1.509 -164.956
v 183.369 1.529 -165.084
v 183.149 1.778 -174.494
f 1277 1278 1279 1280
v 177.870 1.509 -165.003
v 178.150 1.264 -120.533
v 183.650 1.360 -120.567
v 183.370 1.528 -165.037
f 1281 1282 1283 1284
v 178.324 1.226 -119.587
v 183.264 1.250 -106.377
v 188.416 1.300 -108.303
v 183.476 1.357 -121.513
f 1285 1286 1287 1288
v 183.625 1.239 -105.711
v 191.715 1.240 -94.711
v 196.145 1.250 -97.969
v 188.055 1.303 -108.969
f 1289 1290 1291 1292
v 87.431 0.969 -98.022
v 87.601 1.005 -91.822
v 91.099 1.034 -91.918
v 90.929 0.912 -98.118
f 1293 1294 1295 1296
v 54.384 1.886 -2.484
v 53.474 1.933 4.066
v 58.426 1.993 4.754
v 59.336 1.927 -1.796
f 1297 1298 1299 1300
v 154.653 2.157 9.584
v 161.903 2.149 11.664
v 163.557 2.189 5.896
v 156.307 2.402 3.816
f 1301 1302 1303 1304
v 161.098 2.142 11.297
v 165.248 2.131 13.987
v 168.512 2.142 8.953
v 164.362 2.186 6.263
f 1305 1306 1307 1308
v 169.872 2.099 11.245
v 169.482 2.165 6.055
v 163.498 2.187 6.505
v 163.888 2.131 11.695
f 1309 1310 1311 1312
v 169.466 2.142 6.657
v 170.286 2.228 0.187
v 164.334 2.282 -0.567
v 163.514 2.190 5.903
f 1313 1314 1315 1316
v 170.303 2.225 -0.394
v 170.053 2.226 -4.054
v 164.067 2.250 -3.646
v 164.317 2.279 0.014
f 1317 1318 1319 1320
v 169.698 2.225 -5.279
v 167.938 2.232 -8.529
v 162.662 2.245 -5.671
v 164.422 2.254 -2.421
f 1321 1322 1323 1324
v 167.108 2.240 -9.494
v 164.168 2.082 -11.714
v 160.552 2.262 -6.926
v 163.492 2.234 -4.706
f 1325 1326 1327 1328
v 163.034 2.089 -12.243
v 159.434 2.237 -13.073
v 158.086 2.276 -7.227
v 161.686 2.268 -6.397
f 1329 1330 1331 1332
v 158.176 2.290 -13.093
v 154.546 2.326 -12.373
v 155.714 2.306 -6.487
v 159.344 2.271 -7.207
f 1333 1334 1335 1336
v 153.326 2.320 -11.827
v 150.056 2.276 -9.367
v 153.664 2.338 -4.573
v 156.934 2.279 -7.033
f 1337 1338 1339 1340
v 149.162 2.251 -8.282
v 147.372 2.190 -4.602
v 152.768 2.379 -1.978
v 154.558 2.328 -5.658
f 1341 1342 1343 1344
v 147.071 2.166 -3.224
v 147.161 2.144 0.856
v 153.159 2.386 0.724
v 153.069 2.359 -3.356
f 1345 1346 1347 1348
v 147.524 2.158 2.222
v 149.474 2.157 5.812
v 154.746 2.407 2.948
v 152.796 2.396 -0.642
f 1349 1350 1351 1352
v 150.409 2.160 6.851
v 153.779 2.154 9.171
v 157.181 2.386 4.229
v 153.811 2.382 1.909
f 1353 1354 1355 1356
usemtl asphalt
