# Baked ultra-low Key West silhouette; generated by bake_key_west_far_city.py
mtllib far_city.mtl
usemtl massing
v -109.192 2.526 147.664
v -97.792 2.526 150.790
v -99.828 2.526 158.216
v -111.228 2.526 155.090
v -109.192 6.426 147.664
v -97.792 6.426 150.790
v -99.828 6.426 158.216
v -111.228 6.426 155.090
f 8 7 6 5
f 1 2 6 5
f 2 3 7 6
f 3 4 8 7
f 4 1 5 8
v 14.936 2.268 -218.046
v 65.907 2.268 -275.626
v 93.484 2.268 -251.214
v 42.513 2.268 -193.634
v 14.936 11.568 -218.046
v 65.907 11.568 -275.626
v 93.484 11.568 -251.214
v 42.513 11.568 -193.634
f 16 15 14 13
f 9 10 14 13
f 10 11 15 14
f 11 12 16 15
f 12 9 13 16
v -7.058 2.180 -187.275
v 5.018 2.180 -205.569
v 17.778 2.180 -197.145
v 5.702 2.180 -178.851
v -7.058 6.080 -187.275
v 5.018 6.080 -205.569
v 17.778 6.080 -197.145
v 5.702 6.080 -178.851
f 24 23 22 21
f 17 18 22 21
f 18 19 23 22
f 19 20 24 23
f 20 17 21 24
v -51.717 1.951 -307.582
v 143.026 1.951 -312.683
v 147.217 1.951 -152.698
v -47.526 1.951 -147.597
v -51.717 10.251 -307.582
v 143.026 10.251 -312.683
v 147.217 10.251 -152.698
v -47.526 10.251 -147.597
f 32 31 30 29
f 25 26 30 29
f 26 27 31 30
f 27 28 32 31
f 28 25 29 32
v 108.109 1.021 214.957
v 121.432 1.021 233.608
v 110.211 1.021 241.623
v 96.888 1.021 222.972
v 108.109 7.321 214.957
v 121.432 7.321 233.608
v 110.211 7.321 241.623
v 96.888 7.321 222.972
f 40 39 38 37
f 33 34 38 37
f 34 35 39 38
f 35 36 40 39
f 36 33 37 40
v -39.432 2.579 47.802
v 47.680 2.579 42.238
v 48.612 2.579 56.838
v -38.500 2.579 62.402
v -39.432 14.879 47.802
v 47.680 14.879 42.238
v 48.612 14.879 56.838
v -38.500 14.879 62.402
f 48 47 46 45
f 41 42 46 45
f 42 43 47 46
f 43 44 48 47
f 44 41 45 48
v 95.573 2.546 58.718
v 177.733 2.546 52.308
v 178.667 2.546 64.282
v 96.507 2.546 70.692
v 95.573 14.846 58.718
v 177.733 14.846 52.308
v 178.667 14.846 64.282
v 96.507 14.846 70.692
f 56 55 54 53
f 49 50 54 53
f 50 51 55 54
f 51 52 56 55
f 52 49 53 56
v -25.327 2.786 81.575
v 62.364 2.786 75.093
v 63.407 2.786 89.205
v -24.284 2.786 95.687
v -25.327 12.086 81.575
v 62.364 12.086 75.093
v 63.407 12.086 89.205
v -24.284 12.086 95.687
f 64 63 62 61
f 57 58 62 61
f 58 59 63 62
f 59 60 64 63
f 60 57 61 64
v 100.336 2.495 91.688
v 183.378 2.495 85.401
v 184.404 2.495 98.952
v 101.362 2.495 105.239
v 100.336 11.795 91.688
v 183.378 11.795 85.401
v 184.404 11.795 98.952
v 101.362 11.795 105.239
f 72 71 70 69
f 65 66 70 69
f 66 67 71 70
f 67 68 72 71
f 68 65 69 72
v 90.252 2.450 24.685
v 173.427 2.450 18.984
v 174.288 2.450 31.535
v 91.113 2.450 37.236
v 90.252 8.250 24.685
v 173.427 8.250 18.984
v 174.288 8.250 31.535
v 91.113 8.250 37.236
f 80 79 78 77
f 73 74 78 77
f 74 75 79 78
f 75 76 80 79
f 76 73 77 80
v 108.902 2.246 -30.250
v 109.571 2.246 -15.115
v 102.238 2.246 -14.790
v 101.569 2.246 -29.925
v 108.902 6.146 -30.250
v 109.571 6.146 -15.115
v 102.238 6.146 -14.790
v 101.569 6.146 -29.925
f 88 87 86 85
f 81 82 86 85
f 82 83 87 86
f 83 84 88 87
f 84 81 85 88
v 227.388 2.093 -8.380
v 233.834 2.093 -35.237
v 251.152 2.093 -31.080
v 244.706 2.093 -4.223
v 227.388 5.993 -8.380
v 233.834 5.993 -35.237
v 251.152 5.993 -31.080
v 244.706 5.993 -4.223
f 96 95 94 93
f 89 90 94 93
f 90 91 95 94
f 91 92 96 95
f 92 89 93 96
v 21.074 2.384 -15.827
v 41.563 2.384 -16.072
v 41.806 2.384 4.307
v 21.317 2.384 4.552
v 21.074 6.284 -15.827
v 41.563 6.284 -16.072
v 41.806 6.284 4.307
v 21.317 6.284 4.552
f 104 103 102 101
f 97 98 102 101
f 98 99 103 102
f 99 100 104 103
f 100 97 101 104
v 120.506 1.010 216.608
v 125.728 1.010 189.578
v 149.714 1.010 194.212
v 144.492 1.010 221.242
v 120.506 4.910 216.608
v 125.728 4.910 189.578
v 149.714 4.910 194.212
v 144.492 4.910 221.242
f 112 111 110 109
f 105 106 110 109
f 106 107 111 110
f 107 108 112 111
f 108 105 109 112
v 81.545 0.874 174.868
v 123.053 0.874 172.595
v 124.995 0.874 208.072
v 83.487 0.874 210.345
v 81.545 6.674 174.868
v 123.053 6.674 172.595
v 124.995 6.674 208.072
v 83.487 6.674 210.345
f 120 119 118 117
f 113 114 118 117
f 114 115 119 118
f 115 116 120 119
f 116 113 117 120
v -65.205 1.378 215.254
v -63.671 1.378 221.334
v -66.095 1.378 221.946
v -67.629 1.378 215.866
v -65.205 5.278 215.254
v -63.671 5.278 221.334
v -66.095 5.278 221.946
v -67.629 5.278 215.866
f 128 127 126 125
f 121 122 126 125
f 122 123 127 126
f 123 124 128 127
f 124 121 125 128
v -41.391 1.982 175.948
v -37.977 1.982 164.914
v -35.589 1.982 165.652
v -39.003 1.982 176.686
v -41.391 5.882 175.948
v -37.977 5.882 164.914
v -35.589 5.882 165.652
v -39.003 5.882 176.686
f 136 135 134 133
f 129 130 134 133
f 130 131 135 134
f 131 132 136 135
f 132 129 133 136
v -52.205 1.616 179.715
v -51.907 1.616 189.541
v -55.995 1.616 189.665
v -56.293 1.616 179.839
v -52.205 5.516 179.715
v -51.907 5.516 189.541
v -55.995 5.516 189.665
v -56.293 5.516 179.839
f 144 143 142 141
f 137 138 142 141
f 138 139 143 142
f 139 140 144 143
f 140 137 141 144
v -35.748 1.588 188.460
v -33.032 1.588 181.362
v -30.632 1.588 182.280
v -33.348 1.588 189.378
v -35.748 5.488 188.460
v -33.032 5.488 181.362
v -30.632 5.488 182.280
v -33.348 5.488 189.378
f 152 151 150 149
f 145 146 150 149
f 146 147 151 150
f 147 148 152 151
f 148 145 149 152
v -46.326 1.515 190.819
v -37.682 1.515 189.828
v -37.394 1.515 192.341
v -46.038 1.515 193.332
v -46.326 5.415 190.819
v -37.682 5.415 189.828
v -37.394 5.415 192.341
v -46.038 5.415 193.332
f 160 159 158 157
f 153 154 158 157
f 154 155 159 158
f 155 156 160 159
f 156 153 157 160
v -28.296 0.946 211.062
v -22.116 0.946 210.067
v -21.624 0.946 213.118
v -27.804 0.946 214.113
v -28.296 4.846 211.062
v -22.116 4.846 210.067
v -21.624 4.846 213.118
v -27.804 4.846 214.113
f 168 167 166 165
f 161 162 166 165
f 162 163 167 166
f 163 164 168 167
f 164 161 165 168
v -54.075 1.655 195.734
v -35.529 1.655 193.673
v -34.505 1.655 202.886
v -53.051 1.655 204.947
v -54.075 5.555 195.734
v -35.529 5.555 193.673
v -34.505 5.555 202.886
v -53.051 5.555 204.947
f 176 175 174 173
f 169 170 174 173
f 170 171 175 174
f 171 172 176 175
f 172 169 173 176
v -87.837 1.459 242.141
v -76.646 1.459 236.287
v -74.903 1.459 239.619
v -86.094 1.459 245.473
v -87.837 5.359 242.141
v -76.646 5.359 236.287
v -74.903 5.359 239.619
v -86.094 5.359 245.473
f 184 183 182 181
f 177 178 182 181
f 178 179 183 182
f 179 180 184 183
f 180 177 181 184
v 66.723 2.059 50.871
v 68.309 2.059 69.494
v 52.397 2.059 70.849
v 50.811 2.059 52.226
v 66.723 5.959 50.871
v 68.309 5.959 69.494
v 52.397 5.959 70.849
v 50.811 5.959 52.226
f 192 191 190 189
f 185 186 190 189
f 186 187 191 190
f 187 188 192 191
f 188 185 189 192
v 38.228 1.860 -21.902
v 40.951 1.860 -20.906
v 40.092 1.860 -18.558
v 37.369 1.860 -19.554
v 38.228 5.760 -21.902
v 40.951 5.760 -20.906
v 40.092 5.760 -18.558
v 37.369 5.760 -19.554
f 200 199 198 197
f 193 194 198 197
f 194 195 199 198
f 195 196 200 199
f 196 193 197 200
v 47.284 2.106 -20.337
v 50.915 2.106 -18.475
v 49.596 2.106 -15.903
v 45.965 2.106 -17.765
v 47.284 6.006 -20.337
v 50.915 6.006 -18.475
v 49.596 6.006 -15.903
v 45.965 6.006 -17.765
f 208 207 206 205
f 201 202 206 205
f 202 203 207 206
f 203 204 208 207
f 204 201 205 208
v 49.784 2.068 -16.542
v 53.581 2.068 -14.338
v 52.096 2.068 -11.778
v 48.299 2.068 -13.982
v 49.784 5.968 -16.542
v 53.581 5.968 -14.338
v 52.096 5.968 -11.778
v 48.299 5.968 -13.982
f 216 215 214 213
f 209 210 214 213
f 210 211 215 214
f 211 212 216 215
f 212 209 213 216
v 49.130 2.143 -4.154
v 51.284 2.143 -10.878
v 57.750 2.143 -8.806
v 55.596 2.143 -2.082
v 49.130 6.043 -4.154
v 51.284 6.043 -10.878
v 57.750 6.043 -8.806
v 55.596 6.043 -2.082
f 224 223 222 221
f 217 218 222 221
f 218 219 223 222
f 219 220 224 223
f 220 217 221 224
v -151.255 1.959 106.258
v -150.141 1.959 100.413
v -147.685 1.959 100.882
v -148.799 1.959 106.727
v -151.255 5.859 106.258
v -150.141 5.859 100.413
v -147.685 5.859 100.882
v -148.799 5.859 106.727
f 232 231 230 229
f 225 226 230 229
f 226 227 231 230
f 227 228 232 231
f 228 225 229 232
v -156.420 1.911 105.983
v -154.837 1.911 97.632
v -152.380 1.911 98.097
v -153.963 1.911 106.448
v -156.420 5.811 105.983
v -154.837 5.811 97.632
v -152.380 5.811 98.097
v -153.963 5.811 106.448
f 240 239 238 237
f 233 234 238 237
f 234 235 239 238
f 235 236 240 239
f 236 233 237 240
v -176.542 2.046 102.210
v -171.276 2.046 104.144
v -172.138 2.046 106.490
v -177.404 2.046 104.556
v -176.542 5.946 102.210
v -171.276 5.946 104.144
v -172.138 5.946 106.490
v -177.404 5.946 104.556
f 248 247 246 245
f 241 242 246 245
f 242 243 247 246
f 243 244 248 247
f 244 241 245 248
v -197.570 2.057 88.930
v -179.237 2.057 57.902
v -155.630 2.057 71.850
v -173.963 2.057 102.878
v -197.570 7.857 88.930
v -179.237 7.857 57.902
v -155.630 7.857 71.850
v -173.963 7.857 102.878
f 256 255 254 253
f 249 250 254 253
f 250 251 255 254
f 251 252 256 255
f 252 249 253 256
v -202.439 1.888 3.612
v -148.785 1.888 22.554
v -159.381 1.888 52.568
v -213.035 1.888 33.626
v -202.439 10.188 3.612
v -148.785 10.188 22.554
v -159.381 10.188 52.568
v -213.035 10.188 33.626
f 264 263 262 261
f 257 258 262 261
f 258 259 263 262
f 259 260 264 263
f 260 257 261 264
v -239.573 1.684 110.659
v -205.809 1.684 2.675
v -181.547 1.684 10.261
v -215.311 1.684 118.245
v -239.573 9.984 110.659
v -205.809 9.984 2.675
v -181.547 9.984 10.261
v -215.311 9.984 118.245
f 272 271 270 269
f 265 266 270 269
f 266 267 271 270
f 267 268 272 271
f 268 265 269 272
v -116.543 1.953 -71.918
v -112.890 1.953 -69.482
v -114.277 1.953 -67.402
v -117.930 1.953 -69.838
v -116.543 5.853 -71.918
v -112.890 5.853 -69.482
v -114.277 5.853 -67.402
v -117.930 5.853 -69.838
f 280 279 278 277
f 273 274 278 277
f 274 275 279 278
f 275 276 280 279
f 276 273 277 280
v -142.889 2.127 -89.242
v -139.923 2.127 -93.004
v -136.491 2.127 -90.298
v -139.457 2.127 -86.536
v -142.889 6.027 -89.242
v -139.923 6.027 -93.004
v -136.491 6.027 -90.298
v -139.457 6.027 -86.536
f 288 287 286 285
f 281 282 286 285
f 282 283 287 286
f 283 284 288 287
f 284 281 285 288
v -53.524 2.449 152.533
v -52.500 2.449 162.260
v -55.036 2.449 162.527
v -56.060 2.449 152.800
v -53.524 6.349 152.533
v -52.500 6.349 162.260
v -55.036 6.349 162.527
v -56.060 6.349 152.800
f 296 295 294 293
f 289 290 294 293
f 290 291 295 294
f 291 292 296 295
f 292 289 293 296
v -304.106 1.375 172.795
v -248.568 1.375 -17.475
v -155.454 1.375 9.705
v -210.992 1.375 199.975
v -304.106 9.675 172.795
v -248.568 9.675 -17.475
v -155.454 9.675 9.705
v -210.992 9.675 199.975
f 304 303 302 301
f 297 298 302 301
f 298 299 303 302
f 299 300 304 303
f 300 297 301 304
v -47.689 1.548 -242.547
v -43.368 1.548 -239.495
v -44.811 1.548 -237.453
v -49.132 1.548 -240.505
v -47.689 5.448 -242.547
v -43.368 5.448 -239.495
v -44.811 5.448 -237.453
v -49.132 5.448 -240.505
f 312 311 310 309
f 305 306 310 309
f 306 307 311 310
f 307 308 312 311
f 308 305 309 312
v -34.397 1.515 -233.958
v -32.148 1.515 -237.278
v -29.763 1.515 -235.662
v -32.012 1.515 -232.342
v -34.397 5.415 -233.958
v -32.148 5.415 -237.278
v -29.763 5.415 -235.662
v -32.012 5.415 -232.342
f 320 319 318 317
f 313 314 318 317
f 314 315 319 318
f 315 316 320 319
f 316 313 317 320
v -56.443 1.666 -213.103
v -45.127 1.666 -205.522
v -49.257 1.666 -199.357
v -60.573 1.666 -206.938
v -56.443 5.566 -213.103
v -45.127 5.566 -205.522
v -49.257 5.566 -199.357
v -60.573 5.566 -206.938
f 328 327 326 325
f 321 322 326 325
f 322 323 327 326
f 323 324 328 327
f 324 321 325 328
v 20.442 1.956 -173.545
v 25.375 1.956 -180.880
v 28.238 1.956 -178.955
v 23.305 1.956 -171.620
v 20.442 5.856 -173.545
v 25.375 5.856 -180.880
v 28.238 5.856 -178.955
v 23.305 5.856 -171.620
f 336 335 334 333
f 329 330 334 333
f 330 331 335 334
f 331 332 336 335
f 332 329 333 336
v -17.243 2.158 -217.022
v 13.613 2.158 -258.605
v 28.743 2.158 -247.378
v -2.113 2.158 -205.795
v -17.243 7.958 -217.022
v 13.613 7.958 -258.605
v 28.743 7.958 -247.378
v -2.113 7.958 -205.795
f 344 343 342 341
f 337 338 342 341
f 338 339 343 342
f 339 340 344 343
f 340 337 341 344
v -120.584 2.598 61.138
v -120.434 2.598 57.101
v -117.736 2.598 57.202
v -117.886 2.598 61.239
v -120.584 6.498 61.138
v -120.434 6.498 57.101
v -117.736 6.498 57.202
v -117.886 6.498 61.239
f 352 351 350 349
f 345 346 350 349
f 346 347 351 350
f 347 348 352 351
f 348 345 349 352
v -113.100 3.365 64.666
v -112.788 3.365 54.601
v -109.160 3.365 54.714
v -109.472 3.365 64.779
v -113.100 7.265 64.666
v -112.788 7.265 54.601
v -109.160 7.265 54.714
v -109.472 7.265 64.779
f 360 359 358 357
f 353 354 358 357
f 354 355 359 358
f 355 356 360 359
f 356 353 357 360
v 114.715 2.177 -112.538
v 157.813 2.177 -91.201
v 141.525 2.177 -58.302
v 98.427 2.177 -79.639
v 114.715 7.977 -112.538
v 157.813 7.977 -91.201
v 141.525 7.977 -58.302
v 98.427 7.977 -79.639
f 368 367 366 365
f 361 362 366 365
f 362 363 367 366
f 363 364 368 367
f 364 361 365 368
v 74.456 0.870 256.976
v 76.010 0.870 250.284
v 82.984 0.870 251.904
v 81.430 0.870 258.596
v 74.456 4.770 256.976
v 76.010 4.770 250.284
v 82.984 4.770 251.904
v 81.430 4.770 258.596
f 376 375 374 373
f 369 370 374 373
f 370 371 375 374
f 371 372 376 375
f 372 369 373 376
v -122.894 4.554 124.895
v -115.027 4.554 125.108
v -115.206 4.554 131.725
v -123.073 4.554 131.512
v -122.894 8.454 124.895
v -115.027 8.454 125.108
v -115.206 8.454 131.725
v -123.073 8.454 131.512
f 384 383 382 381
f 377 378 382 381
f 378 379 383 382
f 379 380 384 383
f 380 377 381 384
usemtl road
v -140.391 2.216 -26.293
v -153.311 2.183 -38.073
v -155.669 2.161 -35.487
v -142.749 2.224 -23.707
f 385 386 387 388
v -154.913 2.166 -38.478
v -163.433 2.120 -36.358
v -162.587 2.123 -32.962
v -154.067 2.171 -35.082
f 389 390 391 392
v -163.266 2.120 -36.391
v -166.646 2.135 -35.891
v -166.134 2.139 -32.429
v -162.754 2.124 -32.929
f 393 394 395 396
v -166.437 2.134 -35.909
v -169.027 2.126 -35.839
v -168.933 2.134 -32.341
v -166.343 2.139 -32.411
f 397 398 399 400
v -168.817 2.127 -35.832
v -172.017 2.100 -36.132
v -172.343 2.111 -32.648
v -169.143 2.133 -32.348
f 401 402 403 404
v -171.726 2.104 -36.080
v -176.606 2.066 -37.390
v -177.514 2.085 -34.010
v -172.634 2.108 -32.700
f 405 406 407 408
v -176.165 2.069 -37.204
v -187.155 2.090 -43.744
v -188.945 2.105 -40.736
v -177.955 2.086 -34.196
f 409 410 411 412
v -186.833 2.088 -43.498
v -190.483 2.126 -47.028
v -192.917 2.133 -44.512
v -189.267 2.107 -40.982
f 413 414 415 416
v -190.378 2.124 -46.917
v -254.678 1.888 -121.032
v -257.322 1.934 -118.738
v -193.022 2.133 -44.623
f 417 418 419 420
v 118.145 1.096 152.629
v 126.995 1.025 149.929
v 125.245 0.983 144.191
v 116.395 1.053 146.891
f 421 422 423 424
v 126.993 1.025 149.930
v 142.863 1.047 145.100
v 141.117 1.032 139.360
v 125.247 0.983 144.190
f 425 426 427 428
v 141.744 1.038 145.220
v 150.624 1.054 145.950
v 151.116 1.075 139.970
v 142.236 1.044 139.240
f 429 430 431 432
v 149.975 1.054 145.823
v 156.755 1.005 147.943
v 158.545 1.037 142.217
v 151.765 1.075 140.097
f 433 434 435 436
v 155.770 1.015 147.418
v 164.410 0.970 154.368
v 168.170 1.036 149.692
v 159.530 1.031 142.742
f 437 438 439 440
v 163.910 0.969 153.856
v 177.660 0.917 171.776
v 182.420 0.947 168.124
v 168.670 1.036 150.204
f 441 442 443 444
v 177.617 0.917 171.719
v 188.377 0.876 186.459
v 193.223 0.868 182.921
v 182.463 0.946 168.181
f 445 446 447 448
v 188.164 0.877 186.123
v 190.344 0.863 190.133
v 195.616 0.841 187.267
v 193.436 0.864 183.257
f 449 450 451 452
v 189.983 0.861 188.834
v 190.573 0.911 202.074
v 196.567 1.007 201.806
v 195.977 0.866 188.566
f 453 454 455 456
v 190.575 0.910 201.766
v 189.915 0.964 213.096
v 195.905 0.995 213.444
v 196.565 1.005 202.114
f 457 458 459 460
v 189.922 0.966 213.537
v 190.472 0.990 219.687
v 196.448 0.977 219.153
v 195.898 0.998 213.003
f 461 462 463 464
v 190.553 0.990 220.160
v 191.913 0.963 225.500
v 197.727 0.976 224.020
v 196.367 0.976 218.680
f 465 466 467 468
v 192.112 0.956 226.050
v 194.732 0.934 231.550
v 200.148 0.958 228.970
v 197.528 0.981 223.470
f 469 470 471 472
v 195.056 0.935 232.082
v 198.656 0.928 236.792
v 203.424 0.964 233.148
v 199.824 0.958 228.438
f 473 474 475 476
v 198.951 0.931 237.123
v 203.651 0.873 241.683
v 207.829 0.942 237.377
v 203.129 0.966 232.817
f 477 478 479 480
v 203.995 0.869 241.970
v 213.255 0.854 248.590
v 216.745 0.981 243.710
v 207.485 0.942 237.090
f 481 482 483 484
v 213.515 0.852 248.756
v 220.815 0.859 252.916
v 223.785 1.004 247.704
v 216.485 0.980 243.544
f 485 486 487 488
v 221.200 0.859 253.101
v 225.820 0.873 254.921
v 228.020 0.982 249.339
v 223.400 1.007 247.519
f 489 490 491 492
v 225.966 0.874 254.974
v 230.826 0.896 256.604
v 232.734 0.982 250.916
v 227.874 0.984 249.286
f 493 494 495 496
v 230.572 0.894 256.506
v 235.666 0.938 258.746
v 238.082 1.012 253.254
v 232.988 0.984 251.014
f 497 498 499 500
v 211.505 1.245 -112.619
v 218.725 1.056 -91.879
v 225.335 1.108 -94.181
v 218.115 1.216 -114.921
f 501 502 503 504
v 218.630 1.060 -92.199
v 220.080 1.053 -86.269
v 226.880 1.092 -87.931
v 225.430 1.107 -93.861
f 505 506 507 508
v 220.079 1.053 -86.275
v 221.679 1.064 -79.675
v 228.481 1.094 -81.325
v 226.881 1.092 -87.925
f 509 510 511 512
v 193.971 0.859 190.142
v 239.891 0.999 158.572
v 237.909 0.995 155.688
v 191.989 0.852 187.258
f 513 514 515 516
v 239.874 0.999 158.584
v 250.184 0.981 151.674
v 248.236 0.996 148.766
v 237.926 0.995 155.676
f 517 518 519 520
v -92.605 2.501 187.851
v -98.465 2.565 194.081
v -95.915 2.584 196.479
v -90.055 2.524 190.249
f 521 522 523 524
v -98.464 2.565 194.080
v -100.894 2.573 196.660
v -98.346 2.598 199.060
v -95.916 2.584 196.480
f 525 526 527 528
v -100.894 2.573 196.661
v -139.634 2.547 237.831
v -137.086 2.533 240.229
v -98.346 2.598 199.059
f 529 530 531 532
v -139.845 2.546 238.104
v -148.065 2.306 251.284
v -145.095 2.274 253.136
v -136.875 2.535 239.956
f 533 534 535 536
v -148.185 2.301 251.513
v -149.830 2.227 255.303
v -146.619 2.143 256.697
v -144.975 2.283 252.907
f 537 538 539 540
v -114.807 2.010 257.022
v -102.159 2.100 239.432
v -105.001 2.187 237.388
v -117.649 2.038 254.978
f 541 542 543 544
v -102.112 2.099 239.363
v -90.282 2.221 221.133
v -93.218 2.314 219.227
v -105.048 2.186 237.457
f 545 546 547 548
v -90.252 2.222 221.084
v -77.322 2.502 199.654
v -80.318 2.499 197.846
v -93.248 2.313 219.276
f 549 550 551 552
v -69.510 3.938 96.214
v -80.420 2.869 51.644
v -83.820 2.859 52.476
v -72.910 3.963 97.046
f 553 554 555 556
v -80.410 2.871 51.687
v -81.520 2.667 46.597
v -84.940 2.662 47.343
v -83.830 2.857 52.433
f 557 558 559 560
v -81.482 2.680 46.887
v -81.692 2.482 42.447
v -85.188 2.447 42.613
v -84.978 2.652 47.053
f 561 562 563 564
v -81.694 2.491 42.647
v -81.314 2.239 36.987
v -84.806 2.197 36.753
v -85.186 2.439 42.413
f 565 566 567 568
v -81.339 2.248 37.189
v -80.219 1.956 31.149
v -83.661 1.938 30.511
v -84.781 2.189 36.551
f 569 570 571 572
v -80.238 1.960 31.238
v -79.518 1.845 28.238
v -82.922 1.800 27.422
v -83.642 1.934 30.422
f 573 574 575 576
v -79.627 1.856 28.555
v -78.047 1.752 25.085
v -81.233 1.700 23.635
v -82.813 1.789 27.105
f 577 578 579 580
v -78.130 1.756 25.244
v -75.770 1.679 21.214
v -78.790 1.639 19.446
v -81.150 1.695 23.476
f 581 582 583 584
v -75.885 1.682 21.387
v -72.975 1.627 17.547
v -75.765 1.627 15.433
v -78.675 1.637 19.273
f 585 586 587 588
v -73.103 1.629 17.698
v -70.443 1.617 14.908
v -72.977 1.632 12.492
v -75.637 1.626 15.282
f 589 590 591 592
v -70.816 1.615 15.204
v -67.216 1.624 13.064
v -69.004 1.644 10.056
v -72.604 1.634 12.196
f 593 594 595 596
v -67.399 1.625 13.159
v -63.169 1.627 11.279
v -64.591 1.636 8.081
v -68.821 1.644 9.961
f 597 598 599 600
v -63.202 1.627 11.293
v 58.968 1.478 -40.067
v 57.612 1.532 -43.293
v -64.558 1.636 8.067
f 601 602 603 604
v 58.830 1.478 -40.015
v 68.700 1.480 -43.215
v 67.620 1.517 -46.545
v 57.750 1.532 -43.345
f 605 606 607 608
v 68.822 1.479 -43.260
v 72.052 1.483 -44.580
v 70.728 1.490 -47.820
v 67.498 1.518 -46.500
f 609 610 611 612
v 72.307 1.483 -44.710
v 75.167 1.500 -46.470
v 73.333 1.485 -49.450
v 70.473 1.493 -47.690
f 613 614 615 616
v 75.310 1.501 -46.567
v 77.780 1.488 -48.447
v 75.660 1.461 -51.233
v 73.190 1.485 -49.353
f 617 618 619 620
v 78.019 1.486 -48.667
v 83.149 1.413 -54.347
v 80.551 1.408 -56.693
v 75.421 1.465 -51.013
f 621 622 623 624
v 120.247 1.042 147.919
v 111.627 1.241 133.979
v 105.673 1.238 137.661
v 114.293 1.087 151.601
f 625 626 627 628
v 111.629 1.241 133.982
v 110.679 1.309 132.442
v 104.721 1.276 136.118
v 105.671 1.238 137.658
f 629 630 631 632
v 110.813 1.293 132.681
v 109.503 1.447 130.131
v 103.277 1.349 133.329
v 104.587 1.283 135.879
f 633 634 635 636
v 109.380 1.460 129.910
v 97.350 2.048 110.150
v 91.370 1.935 113.790
v 103.400 1.345 133.550
f 637 638 639 640
v 97.535 2.034 110.496
v 97.145 2.070 109.656
v 90.795 1.974 112.604
v 91.185 1.945 113.444
f 641 642 643 644
v 96.968 2.085 109.324
v 93.238 2.452 103.134
v 87.242 2.188 106.746
v 90.972 1.960 112.936
f 645 646 647 648
v 93.556 2.402 103.819
v 92.346 2.527 100.239
v 85.714 2.334 102.481
v 86.924 2.212 106.061
f 649 650 651 652
v 92.397 2.531 100.404
v 91.897 2.506 98.644
v 85.163 2.394 100.556
v 85.663 2.339 102.316
f 653 654 655 656
v 91.940 2.507 98.812
v 87.330 2.359 78.862
v 80.510 2.532 80.438
v 85.120 2.398 100.388
f 657 658 659 660
v 87.371 2.361 79.065
v 79.361 2.362 31.845
v 72.459 2.470 33.015
v 80.469 2.531 80.235
f 661 662 663 664
v 79.367 2.362 31.885
v 73.917 2.321 -2.695
v 67.003 2.180 -1.605
v 72.453 2.470 32.975
f 665 666 667 668
v 73.958 2.325 -2.280
v 73.668 2.303 -10.060
v 66.672 2.057 -9.800
v 66.962 2.173 -2.020
f 669 670 671 672
v 73.640 2.306 -9.475
v 74.380 2.242 -15.115
v 67.440 2.040 -16.025
v 66.700 2.049 -10.385
f 673 674 675 676
v 74.306 2.248 -14.723
v 75.676 2.181 -20.213
v 68.884 2.072 -21.907
v 67.514 2.043 -16.417
f 677 678 679 680
v 75.558 2.183 -19.834
v 77.528 2.108 -25.104
v 70.972 2.009 -27.556
v 69.002 2.069 -22.286
f 681 682 683 684
v 77.347 2.112 -24.700
v 80.367 1.963 -30.440
v 74.173 1.815 -33.700
v 71.153 2.002 -27.960
f 685 686 687 688
v 80.111 1.980 -30.025
v 83.861 1.843 -35.235
v 78.179 1.586 -39.325
v 74.429 1.799 -34.115
f 689 690 691 692
v 83.547 1.838 -34.858
v 87.927 1.787 -39.428
v 82.873 1.437 -44.272
v 78.493 1.573 -39.702
f 693 694 695 696
v 87.548 1.788 -39.087
v 92.488 1.652 -42.927
v 88.192 1.415 -48.453
v 83.252 1.428 -44.613
f 697 698 699 700
v 92.055 1.664 -42.639
v 97.445 1.532 -45.669
v 94.015 1.390 -51.771
v 88.625 1.417 -48.741
f 701 702 703 704
v 96.565 1.544 -45.321
v 225.915 1.082 -77.101
v 224.245 1.081 -83.899
v 94.895 1.381 -52.119
f 705 706 707 708
v 225.870 1.082 -77.090
v 241.660 1.127 -80.750
v 240.080 1.140 -87.570
v 224.290 1.081 -83.910
f 709 710 711 712
v 241.638 1.127 -80.745
v 248.928 1.133 -82.385
v 247.392 1.184 -89.215
v 240.102 1.140 -87.575
f 713 714 715 716
v -212.932 2.313 251.579
v -255.632 2.342 242.393
v -256.368 2.311 245.815
v -213.668 2.305 255.001
f 717 718 719 720
v 167.503 1.009 153.291
v 171.413 1.064 149.531
v 168.987 1.062 147.009
v 165.077 0.997 150.769
f 721 722 723 724
v 171.411 1.064 149.533
v 183.161 1.178 138.263
v 180.739 1.227 135.737
v 168.989 1.062 147.007
f 725 726 727 728
v 183.040 1.180 138.369
v 190.980 1.387 132.049
v 188.800 1.546 129.311
v 180.860 1.233 135.631
f 729 730 731 732
v 191.058 1.391 131.983
v 195.118 1.618 128.343
v 192.782 1.734 125.737
v 188.722 1.543 129.377
f 733 734 735 736
v 195.622 1.666 127.556
v 196.692 1.866 124.086
v 193.348 1.890 123.054
v 192.278 1.690 126.524
f 737 738 739 740
v 196.704 1.918 123.096
v 196.014 2.049 120.646
v 192.646 1.978 121.594
v 193.336 1.833 124.044
f 741 742 743 744
v 195.321 2.100 119.678
v 191.481 2.248 117.038
v 189.499 2.093 119.922
v 193.339 1.921 122.562
f 745 746 747 748
v 190.601 2.268 116.734
v 183.511 2.324 116.284
v 183.289 2.118 119.776
v 190.379 2.070 120.226
f 749 750 751 752
v 183.519 2.324 116.284
v 99.749 2.060 110.594
v 99.511 1.918 114.086
v 183.281 2.118 119.776
f 753 754 755 756
v 99.753 2.060 110.594
v 94.483 2.023 110.224
v 94.237 1.942 113.716
v 99.507 1.918 114.086
f 757 758 759 760
v 208.368 1.311 -131.166
v 206.778 1.334 -128.976
v 212.442 1.237 -124.864
v 214.032 1.231 -127.054
f 761 762 763 764
v 206.355 1.354 -125.633
v 211.555 1.238 -112.483
v 218.065 1.216 -115.057
v 212.865 1.241 -128.207
f 765 766 767 768
v 164.188 2.036 -194.857
v 166.688 2.058 -189.767
v 172.972 2.015 -192.853
v 170.472 2.032 -197.943
f 769 770 771 772
v 166.921 2.058 -189.363
v 191.101 1.783 -153.233
v 196.919 1.704 -157.127
v 172.739 2.024 -193.257
f 773 774 775 776
v 191.088 1.783 -153.253
v 208.278 1.292 -127.183
v 214.122 1.244 -131.037
v 196.932 1.703 -157.107
f 777 778 779 780
v 76.018 2.417 30.683
v 70.038 2.436 30.313
v 69.822 2.454 33.807
v 75.802 2.431 34.177
f 781 782 783 784
v 70.038 2.436 30.313
v -32.482 2.773 23.953
v -32.698 2.816 27.447
v 69.822 2.454 33.807
f 785 786 787 788
v 70.352 2.242 -0.403
v 74.412 2.349 -0.153
v 74.628 2.339 -3.647
v 70.568 2.219 -3.897
f 789 790 791 792
v 74.409 2.349 -0.154
v 171.849 2.610 6.026
v 172.071 2.548 2.534
v 74.631 2.339 -3.646
f 793 794 795 796
v -173.930 2.095 -34.413
v -174.040 2.045 -26.023
v -170.540 2.052 -25.977
v -170.430 2.127 -34.367
f 797 798 799 800
v -174.008 2.037 -25.664
v -173.588 1.993 -23.514
v -170.152 1.985 -24.186
v -170.572 2.065 -26.336
f 801 802 803 804
v -173.497 1.986 -23.205
v -172.807 1.953 -21.465
v -169.553 1.931 -22.755
v -170.243 1.997 -24.495
f 805 806 807 808
v -172.707 1.947 -21.254
v -156.977 1.896 6.816
v -153.923 1.838 5.104
v -169.653 1.936 -22.966
f 809 810 811 812
v -157.025 1.898 6.723
v -155.275 1.895 10.333
v -152.125 1.824 8.807
v -153.875 1.837 5.197
f 813 814 815 816
v -155.308 1.895 10.260
v -149.918 1.927 22.830
v -146.702 1.814 21.450
v -152.092 1.823 8.880
f 817 818 819 820
v -149.926 1.927 22.811
v -139.586 1.730 47.731
v -136.354 1.793 46.389
v -146.694 1.814 21.469
f 821 822 823 824
v -139.703 1.716 46.816
v -140.503 1.815 52.506
v -137.037 1.799 52.994
v -136.237 1.793 47.304
f 825 826 827 828
v -139.844 1.797 51.369
v -143.804 1.825 54.449
v -141.656 1.840 57.211
v -137.696 1.805 54.131
f 829 830 831 832
v -143.388 1.824 54.209
v -157.818 1.997 60.069
v -156.502 2.022 63.311
v -142.072 1.838 57.451
f 833 834 835 836
v 224.150 1.244 -119.509
v 217.270 1.243 -130.159
v 211.390 1.246 -126.361
v 218.270 1.217 -115.711
f 837 838 839 840
v 215.247 1.247 -131.638
v 212.117 1.271 -132.488
v 210.283 1.251 -125.732
v 213.413 1.234 -124.882
f 841 842 843 844
v 243.937 1.156 -85.846
v 237.497 1.147 -97.566
v 231.363 1.137 -94.194
v 237.803 1.113 -82.474
f 845 846 847 848
v 237.420 1.148 -97.699
v 224.200 1.242 -119.429
v 218.220 1.217 -115.791
v 231.440 1.136 -94.061
f 849 850 851 852
v -108.129 2.369 -70.181
v -155.469 2.162 -38.231
v -153.511 2.176 -35.329
v -106.171 2.383 -67.279
f 853 854 855 856
v -11.770 2.513 107.963
v -7.420 2.528 106.723
v -8.380 2.569 103.357
v -12.730 2.550 104.597
f 857 858 859 860
v 154.755 2.123 -226.137
v 141.755 2.140 -220.677
v 144.465 2.209 -214.223
v 157.465 2.112 -219.683
f 861 862 863 864
v 141.890 2.141 -220.731
v 139.980 2.126 -220.021
v 142.420 2.220 -213.459
v 144.330 2.210 -214.169
f 865 866 867 868
v 139.973 2.126 -220.018
v 122.763 2.071 -213.578
v 125.217 2.206 -207.022
v 142.427 2.220 -213.462
f 869 870 871 872
v 122.542 2.069 -213.487
v 116.202 2.048 -210.607
v 119.098 2.139 -204.233
v 125.438 2.205 -207.113
f 873 874 875 876
v 116.131 2.048 -210.573
v 109.861 2.092 -207.553
v 112.899 2.050 -201.247
v 119.169 2.140 -204.267
f 877 878 879 880
v 109.805 2.093 -207.525
v 103.655 2.048 -204.425
v 106.805 2.089 -198.175
v 112.955 2.049 -201.275
f 881 882 883 884
v 103.479 2.046 -204.330
v 94.309 2.002 -199.030
v 97.811 2.141 -192.970
v 106.981 2.088 -198.270
f 885 886 887 888
v 94.142 2.002 -198.928
v 68.202 1.988 -181.938
v 72.038 1.883 -176.082
v 97.978 2.141 -193.072
f 889 890 891 892
v 67.937 1.988 -181.746
v 61.807 1.932 -176.856
v 66.173 1.763 -171.384
v 72.303 1.892 -176.274
f 893 894 895 896
v 61.698 1.933 -176.765
v 55.768 1.950 -171.625
v 60.352 1.837 -166.335
v 66.282 1.764 -171.475
f 897 898 899 900
v 55.676 1.949 -171.542
v 52.226 1.895 -168.332
v 56.994 1.815 -163.208
v 60.444 1.835 -166.418
f 901 902 903 904
v 52.161 1.894 -168.271
v 48.781 1.893 -164.961
v 53.679 1.818 -159.959
v 57.059 1.817 -163.269
f 905 906 907 908
v 48.806 1.893 -164.985
v 45.816 1.889 -162.115
v 50.664 1.794 -157.065
v 53.654 1.818 -159.935
f 909 910 911 912
v 45.588 1.888 -161.874
v 40.748 1.913 -156.254
v 46.052 1.806 -151.686
v 50.892 1.794 -157.306
f 913 914 915 916
v 40.520 1.915 -155.959
v 38.780 1.934 -153.439
v 44.540 1.936 -149.461
v 46.280 1.806 -151.981
f 917 918 919 920
v 38.752 1.935 -153.398
v 38.042 1.953 -152.338
v 43.858 2.009 -148.442
v 44.568 1.929 -149.502
f 921 922 923 924
v 38.040 1.954 -152.335
v 33.420 1.851 -145.425
v 39.240 1.781 -141.535
v 43.860 2.009 -148.445
f 925 926 927 928
v 33.404 1.851 -145.401
v 21.784 2.168 -127.701
v 27.636 0.844 -123.859
v 39.256 1.781 -141.559
f 929 930 931 932
v 21.874 2.171 -127.831
v 16.434 2.098 -120.311
v 22.106 0.978 -116.209
v 27.546 0.851 -123.729
f 933 934 935 936
v 16.616 2.097 -120.541
v 10.806 2.456 -113.781
v 16.114 1.014 -109.219
v 21.924 0.981 -115.979
f 937 938 939 940
v 10.891 2.434 -113.877
v 4.851 2.552 -107.347
v 9.989 0.936 -102.593
v 16.029 1.007 -109.123
f 941 942 943 944
v 4.941 2.541 -107.441
v -1.339 1.903 -101.141
v 3.619 1.015 -96.199
v 9.899 0.941 -102.499
f 945 946 947 948
v -1.235 1.922 -101.241
v -9.865 2.142 -93.271
v -5.115 1.013 -88.129
v 3.515 1.011 -96.099
f 949 950 951 952
v -9.736 2.129 -93.384
v -18.746 2.139 -85.844
v -14.254 2.134 -80.476
v -5.244 1.036 -88.016
f 953 954 955 956
v -18.513 2.134 -86.023
v -34.033 2.245 -75.113
v -30.007 1.477 -69.387
v -14.487 2.132 -80.297
f 957 958 959 960
v -33.519 2.231 -75.413
v -49.219 2.349 -67.973
v -46.221 1.554 -61.647
v -30.521 1.486 -69.087
f 961 962 963 964
v -49.638 2.341 -67.737
v -77.548 1.323 -49.447
v -73.712 2.080 -43.593
v -45.802 1.550 -61.883
f 965 966 967 968
v 157.750 2.125 -223.520
v 153.560 2.017 -234.790
v 150.280 2.019 -233.570
v 154.470 2.124 -222.300
f 969 970 971 972
v 153.537 2.016 -234.849
v 148.467 2.011 -247.099
v 145.233 2.037 -245.761
v 150.303 2.020 -233.511
f 973 974 975 976
v 148.419 2.010 -247.206
v 143.849 2.153 -256.446
v 140.711 2.156 -254.894
v 145.281 2.038 -245.654
f 977 978 979 980
v -108.281 1.727 21.862
v -108.191 1.744 18.032
v -115.189 1.775 17.868
v -115.279 1.697 21.698
f 981 982 983 984
v -108.217 1.741 18.386
v -107.937 1.758 16.156
v -114.883 1.825 15.284
v -115.163 1.783 17.514
f 985 986 987 988
v -108.082 1.754 16.804
v -107.382 1.766 14.654
v -114.038 1.847 12.486
v -114.738 1.832 14.636
f 989 990 991 992
v -107.634 1.761 15.239
v -106.554 1.788 13.249
v -112.706 1.860 9.911
v -113.786 1.851 11.901
f 993 994 995 996
v -106.946 1.777 13.826
v -105.356 1.810 11.926
v -110.724 1.865 7.434
v -112.314 1.862 9.334
f 997 998 999 1000
v -105.862 1.803 12.420
v -103.912 1.817 10.870
v -108.268 1.887 5.390
v -110.218 1.868 6.940
f 1001 1002 1003 1004
v -104.406 1.816 11.198
v -94.496 1.782 5.758
v -97.864 1.888 -0.378
v -107.774 1.894 5.062
f 1005 1006 1007 1008
v -46.345 1.703 -30.094
v -46.965 1.283 -35.294
v -53.915 1.524 -34.466
v -53.295 1.960 -29.266
f 1009 1010 1011 1012
v -47.232 1.312 -36.280
v -49.322 1.428 -41.070
v -55.738 1.592 -38.270
v -53.648 1.525 -33.480
f 1013 1014 1015 1016
v -49.857 1.484 -41.929
v -53.237 2.153 -45.929
v -58.583 1.770 -41.411
v -55.203 1.571 -37.411
f 1017 1018 1019 1020
v -53.998 2.175 -46.602
v -58.398 2.196 -49.472
v -62.222 1.830 -43.608
v -57.822 1.726 -40.738
f 1021 1022 1023 1024
v -59.316 2.200 -49.896
v -64.346 2.233 -51.386
v -66.334 1.879 -44.674
v -61.304 1.808 -43.184
f 1025 1026 1027 1028
v -65.340 2.237 -51.530
v -70.600 2.137 -51.530
v -70.600 1.933 -44.530
v -65.340 1.866 -44.530
f 1029 1030 1031 1032
v -71.606 2.006 -51.382
v -76.636 1.291 -49.872
v -74.624 2.173 -43.168
v -69.594 1.913 -44.678
f 1033 1034 1035 1036
v -89.473 2.143 -32.171
v -90.473 2.083 -21.961
v -83.507 2.111 -21.279
v -82.507 2.147 -31.489
f 1037 1038 1039 1040
v -90.471 2.084 -21.981
v -91.301 1.996 -13.981
v -84.339 2.043 -13.259
v -83.509 2.111 -21.259
f 1041 1042 1043 1044
v -91.285 1.997 -14.111
v -92.005 1.927 -9.031
v -85.075 1.972 -8.049
v -84.355 2.040 -13.129
f 1045 1046 1047 1048
v -91.916 1.934 -9.464
v -92.696 1.890 -6.614
v -85.944 1.895 -4.766
v -85.164 1.966 -7.616
f 1049 1050 1051 1052
v -92.309 1.903 -7.510
v -93.399 1.883 -5.720
v -87.421 1.823 -2.080
v -86.331 1.868 -3.870
f 1053 1054 1055 1056
v -93.043 1.886 -6.206
v -98.813 1.894 0.384
v -93.547 1.780 4.996
v -87.777 1.812 -1.594
f 1057 1058 1059 1060
v -95.249 1.791 6.064
v -85.719 1.735 3.434
v -87.581 1.848 -3.314
v -97.111 1.882 -0.684
f 1061 1062 1063 1064
v -85.005 1.734 3.149
v -78.995 1.713 -0.051
v -82.285 1.937 -6.229
v -88.295 1.836 -3.029
f 1065 1066 1067 1068
v -78.997 1.713 -0.050
v -59.607 1.799 -10.360
v -62.893 1.984 -16.540
v -82.283 1.937 -6.230
f 1069 1070 1071 1072
v -118.050 1.867 40.911
v -118.090 2.746 56.701
v -111.090 3.097 56.719
v -111.050 1.965 40.929
f 1073 1074 1075 1076
v -118.089 2.740 56.777
v -117.809 6.266 71.447
v -110.811 6.353 71.313
v -111.091 3.082 56.643
f 1077 1078 1079 1080
v -101.713 4.305 87.408
v -100.553 4.567 83.968
v -107.187 5.928 81.732
v -108.347 5.910 85.172
f 1081 1082 1083 1084
v -100.493 4.992 81.930
v -102.903 5.126 73.080
v -109.657 6.103 74.920
v -107.247 5.787 83.770
f 1085 1086 1087 1088
v -102.800 5.158 73.631
v -103.170 4.914 70.141
v -110.130 6.325 70.879
v -109.760 6.135 74.369
f 1089 1090 1091 1092
v -103.154 4.936 70.343
v -103.824 3.198 56.343
v -110.816 3.112 56.677
v -110.146 6.308 70.677
f 1093 1094 1095 1096
v -103.840 3.194 56.138
v -105.530 2.787 40.328
v -112.490 1.841 41.072
v -110.800 3.153 56.882
f 1097 1098 1099 1100
v -105.757 2.706 39.410
v -108.367 1.775 32.830
v -114.873 1.754 35.410
v -112.263 1.865 41.990
f 1101 1102 1103 1104
v -108.269 5.349 87.616
v -106.599 4.306 91.696
v -100.121 4.294 89.044
v -101.791 4.544 84.964
f 1105 1106 1107 1108
v -106.404 4.307 92.097
v -103.954 4.006 96.417
v -97.866 4.248 92.963
v -100.316 4.282 88.643
f 1109 1110 1111 1112
v -103.625 3.965 96.899
v -100.835 3.920 100.329
v -95.405 4.144 95.911
v -98.195 4.264 92.481
f 1113 1114 1115 1116
v -100.750 3.921 100.429
v -97.940 3.852 103.629
v -92.680 4.087 99.011
v -95.490 4.146 95.811
f 1117 1118 1119 1120
v -97.853 3.850 103.725
v -94.213 3.854 107.575
v -89.127 4.131 102.765
v -92.767 4.088 98.915
f 1121 1122 1123 1124
v -93.864 3.862 107.897
v -90.644 3.871 110.487
v -86.256 4.150 105.033
v -89.476 4.124 102.443
f 1125 1126 1127 1128
v -90.695 3.871 110.445
v -87.345 3.918 113.245
v -82.855 4.139 107.875
v -86.205 4.149 105.075
f 1129 1130 1131 1132
v -87.086 3.922 113.442
v -83.256 3.999 116.082
v -79.284 4.030 110.318
v -83.114 4.144 107.678
f 1133 1134 1135 1136
v -82.928 4.012 116.282
v -78.988 4.048 118.402
v -75.672 3.905 112.238
v -79.612 4.041 110.118
f 1137 1138 1139 1140
v -78.842 4.041 118.476
v -75.022 3.807 120.306
v -71.998 3.771 113.994
v -75.818 3.912 112.164
f 1141 1142 1143 1144
v -75.644 3.858 119.924
v -72.094 3.639 122.654
v -67.826 3.631 117.106
v -71.376 3.752 114.376
f 1145 1146 1147 1148
v -72.417 3.652 122.372
v -68.827 3.476 125.912
v -63.913 3.461 120.928
v -67.503 3.618 117.388
f 1149 1150 1151 1152
v -69.417 3.514 125.142
v -67.247 3.365 128.982
v -61.153 3.287 125.538
v -63.323 3.425 121.698
f 1153 1154 1155 1156
v -67.454 3.380 128.550
v -65.734 3.288 132.890
v -59.226 3.158 130.310
v -60.946 3.271 125.970
f 1157 1158 1159 1160
v -65.960 3.304 131.970
v -65.490 3.222 136.390
v -58.530 3.121 135.650
v -59.000 3.147 131.230
f 1161 1162 1163 1164
v -65.499 3.224 136.297
v -65.139 3.124 140.827
v -58.161 3.113 140.273
v -58.521 3.120 135.743
f 1165 1166 1167 1168
v -65.149 3.128 140.616
v -64.919 2.973 152.786
v -57.921 2.965 152.654
v -58.151 3.114 140.484
f 1169 1170 1171 1172
v -64.911 2.976 152.463
v -65.261 2.908 157.223
v -58.279 2.898 157.737
v -57.929 2.962 152.977
f 1173 1174 1175 1176
v -65.235 2.911 156.986
v -65.745 2.861 160.566
v -58.815 2.860 161.554
v -58.305 2.896 157.974
f 1177 1178 1179 1180
v -65.622 2.868 160.021
v -67.102 2.815 164.781
v -60.418 2.848 166.859
v -58.938 2.858 162.099
f 1181 1182 1183 1184
v -66.933 2.819 164.343
v -69.643 2.773 170.163
v -63.297 2.681 173.117
v -60.587 2.838 167.297
f 1185 1186 1187 1188
v -99.432 4.046 96.962
v -106.232 3.648 104.662
v -103.608 3.535 106.978
v -96.808 3.993 99.278
f 1189 1190 1191 1192
v -105.963 3.671 104.415
v -115.563 2.990 111.545
v -113.477 3.210 114.355
v -103.877 3.524 107.225
f 1193 1194 1195 1196
v -114.743 3.010 111.214
v -126.583 2.713 112.734
v -126.137 2.823 116.206
v -114.297 3.203 114.686
f 1197 1198 1199 1200
v -126.314 2.717 112.721
v -150.764 2.390 112.081
v -150.856 2.390 115.579
v -126.406 2.809 116.219
f 1201 1202 1203 1204
v -150.943 2.389 112.085
v -155.803 2.332 112.455
v -155.537 2.352 115.945
v -150.677 2.391 115.575
f 1205 1206 1207 1208
v -155.944 2.331 112.472
v -180.164 2.132 116.312
v -179.616 2.135 119.768
v -155.396 2.354 115.928
f 1209 1210 1211 1212
v -179.960 2.135 116.291
v -196.130 2.009 116.941
v -195.990 2.012 120.439
v -179.820 2.135 119.789
f 1213 1214 1215 1216
v -196.233 2.008 116.949
v -204.873 1.901 117.809
v -204.527 1.952 121.291
v -195.887 2.013 120.431
f 1217 1218 1219 1220
v -84.428 2.304 -55.738
v -84.638 2.301 -51.038
v -81.142 1.699 -50.882
v -80.932 2.174 -55.582
f 1221 1222 1223 1224
v -84.640 2.301 -50.996
v -84.730 2.266 -46.636
v -81.230 2.229 -46.564
v -81.140 1.689 -50.924
f 1225 1226 1227 1228
v -84.727 2.268 -46.702
v -85.137 2.148 -39.712
v -81.643 2.171 -39.508
v -81.233 2.228 -46.498
f 1229 1230 1231 1232
v -35.726 1.552 256.371
v -32.520 1.297 241.581
v -35.940 1.338 240.839
v -39.147 1.574 255.629
f 1233 1234 1235 1236
v -32.578 1.285 240.632
v -37.808 1.379 225.682
v -41.112 1.404 226.838
v -35.882 1.347 241.788
f 1237 1238 1239 1240
v -38.799 1.405 224.639
v -54.009 1.553 218.439
v -55.331 1.563 221.681
v -40.121 1.401 227.881
f 1241 1242 1243 1244
v -55.757 1.567 218.688
v -62.397 1.702 223.948
v -60.223 1.732 226.692
v -53.583 1.545 221.432
f 1245 1246 1247 1248
v -61.901 1.691 223.673
v -70.911 1.823 226.903
v -69.729 1.828 230.197
v -60.719 1.747 226.967
f 1249 1250 1251 1252
v -70.189 1.817 226.805
v -78.569 1.886 226.175
v -78.831 1.901 229.665
v -70.451 1.829 230.295
f 1253 1254 1255 1256
v -77.940 1.879 226.344
v -85.360 2.065 222.764
v -86.880 2.023 225.916
v -79.460 1.903 229.496
f 1257 1258 1259 1260
v -85.080 2.052 222.933
v -90.710 2.305 218.773
v -92.790 2.282 221.587
v -87.160 2.031 225.747
f 1261 1262 1263 1264
v -75.838 2.024 256.448
v -73.818 1.918 248.828
v -77.202 1.894 247.932
v -79.221 1.943 255.552
f 1265 1266 1267 1268
v -73.849 1.920 248.931
v -69.879 1.855 236.971
v -73.201 1.860 235.869
v -77.171 1.894 247.829
f 1269 1270 1271 1272
v -69.811 1.853 236.688
v -68.591 1.827 228.818
v -72.049 1.833 228.282
v -73.269 1.862 236.152
f 1273 1274 1275 1276
v 192.524 1.783 -156.104
v 185.904 1.930 -145.454
v 188.876 1.913 -143.606
v 195.496 1.733 -154.256
f 1277 1278 1279 1280
v 185.903 1.930 -145.453
v 171.613 1.741 -122.433
v 174.587 1.654 -120.587
v 188.877 1.913 -143.607
f 1281 1282 1283 1284
v 171.761 1.741 -122.637
v 148.881 2.708 -95.467
v 151.559 2.664 -93.213
v 174.439 1.655 -120.383
f 1285 1286 1287 1288
v -87.931 1.993 -11.874
v -71.941 1.967 -10.854
v -71.719 2.002 -14.346
v -87.709 2.038 -15.366
f 1289 1290 1291 1292
v -46.323 1.774 -29.542
v -45.633 1.498 -46.972
v -52.627 2.077 -47.248
v -53.317 1.893 -29.818
f 1293 1294 1295 1296
v -45.767 1.480 -46.139
v -44.057 1.679 -52.059
v -50.783 1.835 -54.001
v -52.493 2.031 -48.081
f 1297 1298 1299 1300
v -44.280 1.644 -51.484
v -41.440 1.773 -57.254
v -47.720 1.614 -60.346
v -50.560 1.815 -54.576
f 1301 1302 1303 1304
v -42.022 1.768 -56.411
v -29.462 1.464 -69.861
v -34.578 2.238 -74.639
v -47.138 1.566 -61.189
f 1305 1306 1307 1308
v -108.120 1.881 34.075
v -108.280 1.728 21.735
v -115.280 1.695 21.825
v -115.120 1.740 34.165
f 1309 1310 1311 1312
v 26.086 1.076 253.909
v 23.956 1.082 249.349
v 20.784 1.143 250.831
v 22.914 1.159 255.391
f 1313 1314 1315 1316
v 24.030 1.083 249.537
v 21.860 1.070 243.027
v 18.540 1.089 244.133
v 20.710 1.141 250.643
f 1317 1318 1319 1320
v 152.883 2.126 -221.555
v 157.163 2.062 -211.365
v 163.617 2.128 -214.075
v 159.337 2.123 -224.265
f 1321 1322 1323 1324
v 157.163 2.062 -211.366
v 157.973 2.061 -209.436
v 164.427 2.157 -212.144
v 163.617 2.128 -214.074
f 1325 1326 1327 1328
v 157.980 2.061 -209.418
v 162.180 2.082 -199.558
v 168.620 2.003 -202.302
v 164.420 2.156 -212.162
f 1329 1330 1331 1332
v 162.181 2.082 -199.555
v 162.651 2.075 -198.455
v 169.089 1.996 -201.205
v 168.619 2.003 -202.305
f 1333 1334 1335 1336
v 162.650 2.075 -198.459
v 164.110 2.037 -195.029
v 170.550 2.033 -197.771
v 169.090 1.996 -201.201
f 1337 1338 1339 1340
v -112.203 2.074 -25.554
v -116.443 2.082 -26.134
v -116.917 2.056 -22.666
v -112.677 2.061 -22.086
f 1341 1342 1343 1344
v -116.526 2.083 -26.143
v -134.416 2.231 -27.723
v -134.724 2.251 -24.237
v -116.834 2.056 -22.657
f 1345 1346 1347 1348
v -134.813 2.235 -27.713
v -141.813 2.219 -26.733
v -141.327 2.208 -23.267
v -134.327 2.245 -24.247
f 1349 1350 1351 1352
v -142.860 2.226 -23.818
v -136.520 2.129 -16.898
v -133.940 2.183 -19.262
v -140.280 2.217 -26.182
f 1353 1354 1355 1356
v -135.417 2.148 -16.340
v -113.427 2.076 -13.980
v -113.053 2.071 -17.460
v -135.043 2.178 -19.820
f 1357 1358 1359 1360
v -77.381 1.301 -49.551
v -80.151 2.014 -47.951
v -76.649 2.240 -41.889
v -73.879 2.099 -43.489
f 1361 1362 1363 1364
v -80.663 2.144 -47.590
v -83.093 2.222 -45.530
v -78.567 2.272 -40.190
v -76.137 2.234 -42.250
f 1365 1366 1367 1368
v -83.584 2.213 -45.020
v -84.964 2.184 -43.260
v -79.456 2.196 -38.940
v -78.076 2.281 -40.700
f 1369 1370 1371 1372
v -84.954 2.185 -43.273
v -86.134 2.164 -41.783
v -80.646 2.171 -37.437
v -79.466 2.195 -38.927
f 1373 1374 1375 1376
v -86.562 2.154 -41.090
v -88.312 2.144 -37.340
v -81.968 2.155 -34.380
v -80.218 2.178 -38.130
f 1377 1378 1379 1380
v -88.565 2.146 -36.582
v -89.415 2.143 -32.552
v -82.565 2.146 -31.108
v -81.715 2.158 -35.138
f 1381 1382 1383 1384
v -59.508 1.799 -10.414
v -54.958 1.774 -13.024
v -58.442 1.974 -19.096
v -62.992 1.984 -16.486
f 1385 1386 1387 1388
v -54.163 1.775 -13.649
v -50.553 1.732 -17.449
v -55.627 1.929 -22.271
v -59.237 1.976 -18.471
f 1389 1390 1391 1392
v -49.966 1.697 -18.281
v -47.606 1.872 -22.951
v -53.854 1.968 -26.109
v -56.214 1.938 -21.439
f 1393 1394 1395 1396
v -47.283 1.896 -23.921
v -46.373 1.834 -29.071
v -53.267 1.833 -30.289
v -54.177 1.943 -25.139
f 1397 1398 1399 1400
v -89.489 2.142 -31.745
v -89.389 2.150 -27.615
v -82.391 2.141 -27.785
v -82.491 2.148 -31.915
f 1401 1402 1403 1404
v -89.240 2.146 -26.688
v -87.660 2.098 -21.458
v -80.960 2.122 -23.482
v -82.540 2.145 -28.712
f 1405 1406 1407 1408
v -87.203 2.092 -20.501
v -84.133 2.078 -15.991
v -78.347 2.083 -19.929
v -81.417 2.127 -24.439
f 1409 1410 1411 1412
v -83.414 2.079 -15.217
v -79.124 2.027 -11.817
v -74.776 2.025 -17.303
v -79.066 2.092 -20.703
f 1413 1414 1415 1416
v -78.201 2.016 -11.291
v -73.081 1.943 -9.331
v -70.579 2.007 -15.869
v -75.699 2.038 -17.829
f 1417 1418 1419 1420
v -72.053 1.926 -9.107
v -66.583 1.875 -8.757
v -66.137 1.989 -15.743
v -71.607 2.011 -16.093
f 1421 1422 1423 1424
v -65.560 1.866 -8.843
v -60.450 1.803 -10.043
v -62.050 1.980 -16.857
v -67.160 1.991 -15.657
f 1425 1426 1427 1428
v -114.056 6.480 73.616
v -106.396 5.664 72.746
v -106.904 5.472 68.274
v -114.564 5.616 69.144
f 1429 1430 1431 1432
v 195.740 1.723 -152.729
v 254.220 1.602 -194.019
v 250.760 1.531 -198.921
v 192.280 1.791 -157.631
f 1433 1434 1435 1436
v 23.022 1.056 244.599
v 42.292 1.219 191.229
v 36.648 1.273 189.191
v 17.378 1.065 242.561
f 1437 1438 1439 1440
v 42.088 1.222 191.674
v 45.208 1.225 186.094
v 39.972 1.307 183.166
v 36.852 1.277 188.746
f 1441 1442 1443 1444
v 44.577 1.224 186.878
v 50.787 1.239 181.388
v 46.813 1.288 176.892
v 40.603 1.307 182.382
f 1445 1446 1447 1448
v 49.983 1.236 181.897
v 118.453 1.092 152.517
v 116.087 1.055 147.003
v 47.617 1.284 176.383
f 1449 1450 1451 1452
v 166.200 2.044 -199.374
v 172.190 2.003 -202.454
v 170.590 2.000 -205.566
v 164.600 2.053 -202.486
f 1453 1454 1455 1456
v 172.262 2.004 -202.493
v 175.082 2.100 -204.113
v 173.338 2.010 -207.147
v 170.518 2.000 -205.527
f 1457 1458 1459 1460
v 175.082 2.100 -204.113
v 182.042 2.260 -208.113
v 180.298 2.105 -211.147
v 173.338 2.010 -207.147
f 1461 1462 1463 1464
v 182.208 2.264 -208.221
v 190.028 2.151 -213.981
v 187.952 2.127 -216.799
v 180.132 2.100 -211.039
f 1465 1466 1467 1468
v 190.111 2.152 -214.046
v 199.331 2.106 -221.736
v 197.089 2.149 -224.424
v 187.869 2.129 -216.734
f 1469 1470 1471 1472
v 199.527 2.105 -221.927
v 206.837 2.127 -230.277
v 204.203 2.197 -232.583
v 196.893 2.150 -224.233
f 1473 1474 1475 1476
v 206.938 2.129 -230.404
v 214.208 2.040 -240.454
v 211.372 2.047 -242.506
v 204.102 2.195 -232.456
f 1477 1478 1479 1480
v 214.413 2.040 -240.826
v 218.073 2.001 -249.906
v 214.827 1.916 -251.214
v 211.167 2.047 -242.134
f 1481 1482 1483 1484
v 107.636 1.282 136.029
v 113.686 1.157 136.249
v 113.814 1.325 132.751
v 107.764 1.337 132.531
f 1485 1486 1487 1488
v 113.686 1.157 136.249
v 181.886 1.135 138.749
v 182.014 1.247 135.251
v 113.814 1.325 132.751
f 1489 1490 1491 1492
v 94.060 2.055 109.382
v 87.870 2.103 109.062
v 87.690 2.011 112.558
v 93.880 1.962 112.878
f 1493 1494 1495 1496
v 87.885 2.103 109.063
v -7.795 2.571 103.293
v -8.005 2.527 106.787
v 87.675 2.011 112.557
f 1497 1498 1499 1500
v -9.647 2.547 104.931
v -10.857 2.396 124.341
v -7.363 2.381 124.559
v -6.153 2.545 105.149
f 1501 1502 1503 1504
v -9.220 2.340 126.197
v 100.210 1.353 133.097
v 100.430 1.446 129.603
v -9.000 2.413 122.703
f 1505 1506 1507 1508
v 100.211 1.353 133.097
v 106.281 1.358 133.477
v 106.499 1.417 129.983
v 100.429 1.446 129.603
f 1509 1510 1511 1512
v -31.791 1.932 -73.985
v -48.841 2.247 -76.235
v -49.299 2.362 -72.765
v -32.249 1.523 -70.515
f 1513 1514 1515 1516
v -48.991 2.247 -76.248
v -51.631 2.269 -76.368
v -51.789 2.372 -72.872
v -49.149 2.361 -72.752
f 1517 1518 1519 1520
v -51.962 2.277 -76.352
v -54.572 2.333 -75.972
v -54.068 2.358 -72.508
v -51.458 2.371 -72.888
f 1521 1522 1523 1524
v -54.896 2.338 -75.892
v -57.276 2.300 -75.062
v -56.124 2.313 -71.758
v -53.744 2.363 -72.588
f 1525 1526 1527 1528
v -57.560 2.293 -74.934
v -59.740 2.276 -73.704
v -58.020 2.298 -70.656
v -55.840 2.320 -71.886
f 1529 1530 1531 1532
v -83.666 2.305 -57.106
v -108.506 2.189 -40.166
v -106.534 2.174 -37.274
v -81.694 2.061 -54.214
f 1533 1534 1535 1536
v -59.847 2.278 -73.639
v -63.407 2.326 -71.279
v -61.473 2.326 -68.361
v -57.913 2.297 -70.721
f 1537 1538 1539 1540
v -63.443 2.327 -71.254
v -83.683 2.305 -57.094
v -81.677 2.061 -54.226
v -61.437 2.325 -68.386
f 1541 1542 1543 1544
v 28.601 2.304 -181.781
v 63.131 2.281 -205.171
v 61.169 2.280 -208.069
v 26.639 2.320 -184.679
f 1545 1546 1547 1548
v 63.594 2.298 -207.609
v 53.174 2.336 -222.829
v 50.286 2.280 -220.851
v 60.706 2.267 -205.631
f 1549 1550 1551 1552
v 50.748 2.312 -223.289
v 36.828 2.188 -213.859
v 38.792 2.208 -210.961
v 52.712 2.304 -220.391
f 1553 1554 1555 1556
v 36.829 2.188 -213.859
v 16.119 2.416 -199.839
v 18.081 2.414 -196.941
v 38.791 2.208 -210.961
f 1557 1558 1559 1560
v 15.662 2.422 -197.392
v 26.182 2.342 -182.232
v 29.058 2.277 -184.228
v 18.538 2.391 -199.388
f 1561 1562 1563 1564
v 26.183 2.342 -182.232
v 36.183 2.043 -167.832
v 39.057 2.031 -169.828
v 29.057 2.277 -184.228
f 1565 1566 1567 1568
v 36.471 2.040 -167.510
v 38.021 2.010 -166.160
v 40.319 2.012 -168.800
v 38.769 2.036 -170.150
f 1569 1570 1571 1572
v 38.021 2.010 -166.160
v 47.091 1.855 -158.270
v 49.389 1.841 -160.910
v 40.319 2.012 -168.800
f 1573 1574 1575 1576
v -25.699 1.969 -248.636
v 6.991 2.500 -205.976
v 9.769 2.536 -208.104
v -22.921 1.992 -250.764
f 1577 1578 1579 1580
v 6.897 2.501 -206.110
v 11.457 2.469 -198.840
v 14.423 2.438 -200.700
v 9.863 2.537 -207.970
f 1581 1582 1583 1584
v 12.389 2.462 -198.109
v 16.549 2.422 -196.729
v 17.651 2.395 -200.051
v 13.491 2.449 -201.431
f 1585 1586 1587 1588
v 41.939 2.010 -151.834
v 32.089 2.036 -158.584
v 30.111 2.051 -155.696
v 39.961 2.207 -148.946
f 1589 1590 1591 1592
v 32.092 2.036 -158.581
v 29.652 2.062 -160.261
v 27.668 2.065 -157.379
v 30.108 2.051 -155.699
f 1593 1594 1595 1596
v 30.098 2.050 -159.818
v 23.228 2.378 -169.718
v 20.352 2.338 -167.722
v 27.222 2.074 -157.822
f 1597 1598 1599 1600
v -86.839 2.124 -23.363
v -91.579 2.102 -23.773
v -91.881 2.058 -20.287
v -87.141 2.087 -19.877
f 1601 1602 1603 1604
v -91.580 2.102 -23.774
v -110.150 2.071 -25.374
v -110.450 2.059 -21.886
v -91.880 2.058 -20.286
f 1605 1606 1607 1608
v -110.145 2.071 -25.373
v -112.285 2.074 -25.563
v -112.595 2.061 -22.077
v -110.455 2.059 -21.887
f 1609 1610 1611 1612
v -113.380 2.076 -13.976
v -110.890 2.084 -13.776
v -110.610 2.099 -17.264
v -113.100 2.071 -17.464
f 1613 1614 1615 1616
v -110.893 2.084 -13.776
v -92.613 1.971 -12.276
v -92.327 2.006 -15.764
v -110.607 2.100 -17.264
f 1617 1618 1619 1620
v -92.620 1.971 -12.276
v -87.970 1.993 -11.876
v -87.670 2.039 -15.364
v -92.320 2.006 -15.764
f 1621 1622 1623 1624
v 190.347 2.209 -255.130
v 185.827 2.195 -248.190
v 191.693 2.093 -244.370
v 196.213 2.117 -251.310
f 1625 1626 1627 1628
v 186.049 2.197 -248.494
v 181.819 2.154 -243.314
v 187.241 2.114 -238.886
v 191.471 2.095 -244.066
f 1629 1630 1631 1632
v 182.155 2.159 -243.671
v 176.275 2.112 -238.241
v 181.025 2.093 -233.099
v 186.905 2.118 -238.529
f 1633 1634 1635 1636
v 176.658 2.113 -238.548
v 171.428 2.080 -234.928
v 175.412 2.029 -229.172
v 180.642 2.085 -232.792
f 1637 1638 1639 1640
v 171.768 2.082 -235.136
v 169.508 2.076 -233.926
v 172.812 2.060 -227.754
v 175.072 2.028 -228.964
f 1641 1642 1643 1644
v 169.479 2.076 -233.910
v 168.109 2.071 -233.160
v 171.471 2.088 -227.020
v 172.841 2.059 -227.770
f 1645 1646 1647 1648
v 168.163 2.071 -233.189
v 154.483 2.123 -226.009
v 157.737 2.110 -219.811
v 171.417 2.089 -226.991
f 1649 1650 1651 1652
v -117.724 6.361 72.149
v -116.974 6.668 75.479
v -110.146 6.202 73.941
v -110.896 6.325 70.611
f 1653 1654 1655 1656
v -116.634 6.691 76.384
v -111.324 6.105 86.134
v -105.176 5.600 82.786
v -110.486 6.275 73.036
f 1657 1658 1659 1660
v -109.979 5.667 87.503
v -106.759 4.511 89.333
v -103.301 5.192 83.247
v -106.521 5.871 81.417
f 1661 1662 1663 1664
v -114.834 1.725 32.735
v -117.764 1.812 39.535
v -111.336 1.954 42.305
v -108.406 1.996 35.505
f 1665 1666 1667 1668
v -77.196 2.495 199.403
v -72.036 2.545 186.563
v -75.284 2.566 185.257
v -80.444 2.499 198.097
f 1669 1670 1671 1672
v -72.097 2.544 186.698
v -70.317 2.568 183.168
v -73.443 2.598 181.592
v -75.223 2.567 185.122
f 1673 1674 1675 1676
v -70.317 2.568 183.167
v -64.907 2.692 172.427
v -68.033 2.765 170.853
v -73.443 2.598 181.593
f 1677 1678 1679 1680
v -67.269 2.780 170.083
v -77.669 2.679 175.423
v -76.071 2.652 178.537
v -65.671 2.683 173.197
f 1681 1682 1683 1684
v -77.990 2.673 175.636
v -79.910 2.630 177.236
v -77.670 2.624 179.924
v -75.750 2.655 178.324
f 1685 1686 1687 1688
v -79.912 2.630 177.237
v -92.452 2.500 187.707
v -90.208 2.527 190.393
v -77.668 2.624 179.923
f 1689 1690 1691 1692
v 214.994 1.964 -249.590
v 251.034 1.575 -195.500
v 253.946 1.560 -197.440
v 217.906 1.972 -251.530
f 1693 1694 1695 1696
v 256.432 1.506 -107.349
v 251.182 1.507 -108.686
v 250.318 1.472 -105.294
v 255.568 1.490 -103.958
f 1697 1698 1699 1700
v 252.210 1.506 -107.955
v 235.900 1.566 -132.615
v 232.980 1.540 -130.685
v 249.290 1.471 -106.025
f 1701 1702 1703 1704
v 236.092 1.561 -131.074
v 237.832 1.577 -136.064
v 234.528 1.584 -137.216
v 232.788 1.548 -132.226
f 1705 1706 1707 1708
v -112.047 2.063 -23.727
v -112.497 2.078 -15.617
v -109.003 2.109 -15.423
v -108.553 2.059 -23.533
f 1709 1710 1711 1712
v 106.742 2.105 -202.181
v 101.002 1.992 -212.031
v 97.978 1.996 -210.269
v 103.718 2.103 -200.419
f 1713 1714 1715 1716
v 100.950 1.993 -212.115
v 97.210 2.142 -217.775
v 94.290 2.194 -215.845
v 98.030 1.995 -210.185
f 1717 1718 1719 1720
v 97.211 2.142 -217.774
v 71.511 2.198 -256.734
v 68.589 2.241 -254.806
v 94.289 2.194 -215.846
f 1721 1722 1723 1724
usemtl asphalt
