# Baked ultra-low Key West silhouette; generated by bake_key_west_far_city.py
mtllib far_city.mtl
usemtl massing
v -240.334 1.994 -202.245
v -240.183 1.994 -205.241
v -237.686 1.994 -205.115
v -237.837 1.994 -202.119
v -240.334 5.894 -202.245
v -240.183 5.894 -205.241
v -237.686 5.894 -205.115
v -237.837 5.894 -202.119
f 8 7 6 5
f 1 2 6 5
f 2 3 7 6
f 3 4 8 7
f 4 1 5 8
v -241.712 2.055 -201.633
v -241.647 2.055 -204.132
v -239.148 2.055 -204.067
v -239.213 2.055 -201.568
v -241.712 5.955 -201.633
v -241.647 5.955 -204.132
v -239.148 5.955 -204.067
v -239.213 5.955 -201.568
f 16 15 14 13
f 9 10 14 13
f 10 11 15 14
f 11 12 16 15
f 12 9 13 16
v -241.918 2.036 -197.411
v -241.359 2.036 -199.848
v -238.922 2.036 -199.289
v -239.481 2.036 -196.852
v -241.918 5.936 -197.411
v -241.359 5.936 -199.848
v -238.922 5.936 -199.289
v -239.481 5.936 -196.852
f 24 23 22 21
f 17 18 22 21
f 18 19 23 22
f 19 20 24 23
f 20 17 21 24
v -250.971 2.406 -218.073
v -244.179 2.406 -219.727
v -243.429 2.406 -216.647
v -250.221 2.406 -214.993
v -250.971 6.306 -218.073
v -244.179 6.306 -219.727
v -243.429 6.306 -216.647
v -250.221 6.306 -214.993
f 32 31 30 29
f 25 26 30 29
f 26 27 31 30
f 27 28 32 31
f 28 25 29 32
v -251.836 2.420 -214.944
v -247.583 2.420 -215.811
v -246.944 2.420 -212.676
v -251.197 2.420 -211.809
v -251.836 6.320 -214.944
v -247.583 6.320 -215.811
v -246.944 6.320 -212.676
v -251.197 6.320 -211.809
f 40 39 38 37
f 33 34 38 37
f 34 35 39 38
f 35 36 40 39
f 36 33 37 40
v -246.301 2.635 -212.616
v -243.158 2.635 -187.552
v -258.379 2.635 -185.644
v -261.522 2.635 -210.708
v -246.301 9.435 -212.616
v -243.158 9.435 -187.552
v -258.379 9.435 -185.644
v -261.522 9.435 -210.708
f 48 47 46 45
f 41 42 46 45
f 42 43 47 46
f 43 44 48 47
f 44 41 45 48
v -73.789 1.617 -254.867
v -73.553 1.617 -248.851
v -76.051 1.617 -248.753
v -76.287 1.617 -254.769
v -73.789 5.517 -254.867
v -73.553 5.517 -248.851
v -76.051 5.517 -248.753
v -76.287 5.517 -254.769
f 56 55 54 53
f 49 50 54 53
f 50 51 55 54
f 51 52 56 55
f 52 49 53 56
v -75.961 1.536 -214.196
v -75.731 1.536 -208.981
v -78.399 1.536 -208.864
v -78.629 1.536 -214.079
v -75.961 5.436 -214.196
v -75.731 5.436 -208.981
v -78.399 5.436 -208.864
v -78.629 5.436 -214.079
f 64 63 62 61
f 57 58 62 61
f 58 59 63 62
f 59 60 64 63
f 60 57 61 64
v -95.687 1.260 -217.079
v -83.945 1.260 -214.285
v -84.593 1.260 -211.561
v -96.335 1.260 -214.355
v -95.687 5.160 -217.079
v -83.945 5.160 -214.285
v -84.593 5.160 -211.561
v -96.335 5.160 -214.355
f 72 71 70 69
f 65 66 70 69
f 66 67 71 70
f 67 68 72 71
f 68 65 69 72
v -46.609 1.403 -239.907
v -44.512 1.403 -236.314
v -46.671 1.403 -235.053
v -48.768 1.403 -238.646
v -46.609 5.303 -239.907
v -44.512 5.303 -236.314
v -46.671 5.303 -235.053
v -48.768 5.303 -238.646
f 80 79 78 77
f 73 74 78 77
f 74 75 79 78
f 75 76 80 79
f 76 73 77 80
v -54.583 1.569 -235.531
v -44.056 1.569 -219.593
v -51.057 1.569 -214.969
v -61.584 1.569 -230.907
v -54.583 5.469 -235.531
v -44.056 5.469 -219.593
v -51.057 5.469 -214.969
v -61.584 5.469 -230.907
f 88 87 86 85
f 81 82 86 85
f 82 83 87 86
f 83 84 88 87
f 84 81 85 88
v -31.183 1.196 -255.613
v -30.012 1.196 -249.046
v -34.717 1.196 -248.207
v -35.888 1.196 -254.774
v -31.183 5.096 -255.613
v -30.012 5.096 -249.046
v -34.717 5.096 -248.207
v -35.888 5.096 -254.774
f 96 95 94 93
f 89 90 94 93
f 90 91 95 94
f 91 92 96 95
f 92 89 93 96
v -65.510 1.613 -256.593
v -46.773 1.613 -257.302
v -46.470 1.613 -249.287
v -65.207 1.613 -248.578
v -65.510 5.513 -256.593
v -46.773 5.513 -257.302
v -46.470 5.513 -249.287
v -65.207 5.513 -248.578
f 104 103 102 101
f 97 98 102 101
f 98 99 103 102
f 99 100 104 103
f 100 97 101 104
v 170.039 0.635 -200.458
v 177.198 0.635 -202.032
v 178.581 0.635 -195.742
v 171.422 0.635 -194.168
v 170.039 4.535 -200.458
v 177.198 4.535 -202.032
v 178.581 4.535 -195.742
v 171.422 4.535 -194.168
f 112 111 110 109
f 105 106 110 109
f 106 107 111 110
f 107 108 112 111
f 108 105 109 112
v 149.236 0.655 -229.294
v 150.790 0.655 -235.986
v 157.764 0.655 -234.366
v 156.210 0.655 -227.674
v 149.236 4.555 -229.294
v 150.790 4.555 -235.986
v 157.764 4.555 -234.366
v 156.210 4.555 -227.674
f 120 119 118 117
f 113 114 118 117
f 114 115 119 118
f 115 116 120 119
f 116 113 117 120
usemtl road
v 239.421 0.979 -251.605
v 245.081 1.068 -248.835
v 247.719 1.136 -254.225
v 242.059 1.034 -256.995
f 121 122 123 124
v 244.717 1.063 -249.047
v 248.317 1.126 -246.607
v 251.683 1.190 -251.573
v 248.083 1.140 -254.013
f 125 126 127 128
v -151.024 2.191 -253.943
v -153.594 2.102 -248.463
v -150.426 2.044 -246.977
v -147.856 2.094 -252.457
f 129 130 131 132
v -153.739 2.080 -247.451
v -152.759 1.969 -241.151
v -149.301 1.939 -241.689
v -150.281 2.067 -247.989
f 133 134 135 136
v -152.598 1.963 -240.642
v -150.728 1.941 -236.872
v -147.592 1.912 -238.428
v -149.462 1.946 -242.198
f 137 138 139 140
v -149.647 1.938 -235.969
v -143.947 1.918 -234.319
v -142.973 1.895 -237.681
v -148.673 1.918 -239.331
f 141 142 143 144
v -143.062 1.915 -234.296
v -134.082 1.882 -236.396
v -134.878 1.837 -239.804
v -143.858 1.898 -237.704
f 145 146 147 148
v -133.549 1.881 -236.618
v -123.739 1.899 -242.778
v -125.601 1.877 -245.742
v -135.411 1.841 -239.582
f 149 150 151 152
v -151.299 1.974 -243.149
v -169.459 2.133 -240.329
v -168.921 2.179 -236.871
v -150.761 1.941 -239.691
f 153 154 155 156
v -170.012 2.086 -233.003
v -167.622 2.182 -237.823
v -170.758 2.126 -239.377
v -173.148 2.097 -234.557
f 157 158 159 160
v -167.656 2.120 -239.442
v -170.426 2.214 -244.492
v -173.494 2.196 -242.808
v -170.724 2.117 -237.758
f 161 162 163 164
v -170.532 2.220 -244.661
v -173.372 2.296 -248.671
v -176.228 2.225 -246.649
v -173.388 2.193 -242.639
f 165 166 167 168
v -173.990 2.297 -249.211
v -182.840 2.288 -253.831
v -184.460 2.271 -250.729
v -175.610 2.226 -246.109
f 169 170 171 172
v -183.279 2.288 -253.990
v -200.433 2.290 -257.710
v -201.175 2.281 -254.290
v -184.021 2.271 -250.570
f 173 174 175 176
v -256.374 2.201 -239.231
v -233.604 2.224 -234.250
v -232.856 2.218 -237.670
v -255.626 2.204 -242.651
f 177 178 179 180
v -233.604 2.224 -234.250
v -189.264 2.109 -224.550
v -188.516 2.116 -227.970
v -232.856 2.218 -237.670
f 181 182 183 184
v -188.646 2.102 -224.527
v -183.466 2.048 -225.257
v -183.954 2.063 -228.723
v -189.134 2.124 -227.993
f 185 186 187 188
v -183.467 2.048 -225.257
v -179.407 2.058 -225.827
v -179.893 2.062 -229.293
v -183.953 2.063 -228.723
f 189 190 191 192
v -178.959 2.060 -225.952
v -173.909 2.054 -228.122
v -175.291 2.068 -231.338
v -180.341 2.061 -229.168
f 193 194 195 196
v -173.197 2.058 -228.684
v -170.177 2.084 -232.734
v -172.983 2.098 -234.826
v -176.003 2.063 -230.776
f 197 198 199 200
v 26.954 1.106 -248.652
v 30.104 1.103 -240.752
v 33.356 1.098 -242.048
v 30.206 1.101 -249.948
f 201 202 203 204
v 30.030 1.105 -240.984
v 31.520 1.117 -234.894
v 34.920 1.116 -235.726
v 33.430 1.098 -241.816
f 205 206 207 208
v 31.473 1.116 -235.201
v 31.833 1.140 -229.411
v 35.327 1.176 -229.629
v 34.967 1.118 -235.419
f 209 210 211 212
v 31.831 1.139 -229.586
v 31.071 1.208 -209.526
v 34.569 1.213 -209.394
v 35.329 1.178 -229.454
f 213 214 215 216
v 31.076 1.205 -209.317
v 31.446 1.169 -204.807
v 34.934 1.160 -205.093
v 34.564 1.216 -209.603
f 217 218 219 220
v 31.515 1.168 -204.443
v 32.795 1.159 -200.213
v 36.145 1.133 -201.227
v 34.865 1.163 -205.457
f 221 222 223 224
v 32.997 1.156 -199.775
v 38.517 1.113 -191.175
v 41.463 1.108 -193.065
v 35.943 1.137 -201.665
f 225 226 227 228
v 38.819 1.112 -190.820
v 42.639 1.104 -187.380
v 44.981 1.106 -189.980
v 41.161 1.106 -193.420
f 229 230 231 232
v 43.142 1.103 -187.062
v 47.502 1.085 -185.262
v 48.838 1.092 -188.498
v 44.478 1.106 -190.298
f 233 234 235 236
v 47.900 1.084 -185.151
v 129.710 0.880 -172.371
v 130.250 0.803 -175.829
v 48.440 1.093 -188.609
f 237 238 239 240
v 129.860 0.881 -172.354
v 138.030 0.885 -171.794
v 138.270 0.865 -175.286
v 130.100 0.802 -175.846
f 241 242 243 244
v 138.389 0.885 -171.806
v 143.459 0.868 -172.506
v 142.981 0.859 -175.974
v 137.911 0.866 -175.274
f 245 246 247 248
v 143.894 0.866 -172.625
v 148.254 0.860 -174.445
v 146.906 0.840 -177.675
v 142.546 0.857 -175.855
f 249 250 251 252
v 148.674 0.856 -174.694
v 154.034 0.885 -178.984
v 151.846 0.847 -181.716
v 146.486 0.839 -177.426
f 253 254 255 256
v 154.268 0.883 -179.211
v 157.698 0.861 -183.211
v 155.042 0.805 -185.489
v 151.612 0.849 -181.489
f 257 258 259 260
v 158.021 0.854 -183.771
v 159.631 0.834 -188.361
v 156.329 0.819 -189.519
v 154.719 0.806 -184.929
f 261 262 263 264
v 159.685 0.833 -188.545
v 161.055 0.862 -194.465
v 157.645 0.880 -195.255
v 156.275 0.819 -189.335
f 265 266 267 268
v 161.083 0.866 -195.100
v 160.373 0.891 -200.230
v 156.907 0.884 -199.750
v 157.617 0.879 -194.620
f 269 270 271 272
v 160.250 0.895 -200.677
v 158.070 0.944 -205.787
v 154.850 0.917 -204.413
v 157.030 0.879 -199.303
f 273 274 275 276
v 157.776 0.950 -206.254
v 152.666 1.007 -212.084
v 150.034 0.956 -209.776
v 155.144 0.915 -203.946
f 277 278 279 280
v 152.500 1.009 -212.249
v 147.350 1.019 -216.739
v 145.050 0.966 -214.101
v 150.200 0.954 -209.611
f 281 282 283 284
v 147.016 1.017 -216.968
v 139.006 0.983 -221.188
v 137.374 0.980 -218.092
v 145.384 0.968 -213.872
f 285 286 287 288
v 138.788 0.983 -221.284
v 129.638 0.992 -224.614
v 128.442 0.993 -221.326
v 137.592 0.979 -217.996
f 289 290 291 292
v 129.478 0.992 -224.664
v 39.038 1.050 -248.064
v 38.162 1.070 -244.676
v 128.602 0.993 -221.276
f 293 294 295 296
v 39.091 1.050 -248.050
v 29.071 1.115 -250.980
v 28.089 1.102 -247.620
v 38.109 1.071 -244.690
f 297 298 299 300
v -41.036 1.659 -239.488
v -36.216 1.577 -253.428
v -39.524 1.598 -254.572
v -44.344 1.767 -240.632
f 301 302 303 304
v -77.582 1.751 -236.074
v -76.902 2.021 -251.694
v -80.398 1.911 -251.846
v -81.078 1.708 -236.226
f 305 306 307 308
v 30.141 1.101 -250.091
v 26.745 1.079 -256.791
v 23.623 1.160 -255.209
v 27.019 1.105 -248.509
f 309 310 311 312
usemtl asphalt
