# Baked ultra-low Key West silhouette; generated by bake_key_west_far_city.py
mtllib far_city.mtl
usemtl massing
v -11.802 2.959 13.089
v -8.225 2.959 -7.198
v 3.622 2.959 -5.109
v 0.045 2.959 15.178
v -11.802 6.859 13.089
v -8.225 6.859 -7.198
v 3.622 6.859 -5.109
v 0.045 6.859 15.178
f 8 7 6 5
f 1 2 6 5
f 2 3 7 6
f 3 4 8 7
f 4 1 5 8
v -152.318 2.405 -26.424
v -136.750 2.405 -76.458
v -108.782 2.405 -67.756
v -124.350 2.405 -17.722
v -152.318 8.205 -26.424
v -136.750 8.205 -76.458
v -108.782 8.205 -67.756
v -124.350 8.205 -17.722
f 16 15 14 13
f 9 10 14 13
f 10 11 15 14
f 11 12 16 15
f 12 9 13 16
v -252.096 2.717 -18.548
v -227.619 2.717 17.061
v -248.344 2.717 31.308
v -272.821 2.717 -4.301
v -252.096 6.617 -18.548
v -227.619 6.617 17.061
v -248.344 6.617 31.308
v -272.821 6.617 -4.301
f 24 23 22 21
f 17 18 22 21
f 18 19 23 22
f 19 20 24 23
f 20 17 21 24
v 32.379 2.278 -106.151
v 48.532 2.278 -101.497
v 45.401 2.278 -90.629
v 29.248 2.278 -95.283
v 32.379 6.178 -106.151
v 48.532 6.178 -101.497
v 45.401 6.178 -90.629
v 29.248 6.178 -95.283
f 32 31 30 29
f 25 26 30 29
f 26 27 31 30
f 27 28 32 31
f 28 25 29 32
v 35.334 2.335 -93.516
v 51.756 2.335 -89.008
v 49.186 2.335 -79.644
v 32.764 2.335 -84.152
v 35.334 6.235 -93.516
v 51.756 6.235 -89.008
v 49.186 6.235 -79.644
v 32.764 6.235 -84.152
f 40 39 38 37
f 33 34 38 37
f 34 35 39 38
f 35 36 40 39
f 36 33 37 40
v 39.879 2.341 -82.449
v 57.238 2.341 -77.323
v 54.341 2.341 -67.511
v 36.982 2.341 -72.637
v 39.879 6.241 -82.449
v 57.238 6.241 -77.323
v 54.341 6.241 -67.511
v 36.982 6.241 -72.637
f 48 47 46 45
f 41 42 46 45
f 42 43 47 46
f 43 44 48 47
f 44 41 45 48
v -58.522 2.565 -55.509
v -53.662 2.565 -70.522
v -45.718 2.565 -67.951
v -50.578 2.565 -52.938
v -58.522 6.465 -55.509
v -53.662 6.465 -70.522
v -45.718 6.465 -67.951
v -50.578 6.465 -52.938
f 56 55 54 53
f 49 50 54 53
f 50 51 55 54
f 51 52 56 55
f 52 49 53 56
v -203.997 2.928 65.209
v -186.211 2.928 73.956
v -190.743 2.928 83.171
v -208.529 2.928 74.424
v -203.997 6.828 65.209
v -186.211 6.828 73.956
v -190.743 6.828 83.171
v -208.529 6.828 74.424
f 64 63 62 61
f 57 58 62 61
f 58 59 63 62
f 59 60 64 63
f 60 57 61 64
v -62.341 3.184 44.672
v -41.731 3.184 51.135
v -47.719 3.184 70.228
v -68.329 3.184 63.765
v -62.341 15.484 44.672
v -41.731 15.484 51.135
v -47.719 15.484 70.228
v -68.329 15.484 63.765
f 72 71 70 69
f 65 66 70 69
f 66 67 71 70
f 67 68 72 71
f 68 65 69 72
v -162.842 2.654 -20.818
v -158.106 2.654 -45.844
v -137.698 2.654 -41.982
v -142.434 2.654 -16.956
v -162.842 6.554 -20.818
v -158.106 6.554 -45.844
v -137.698 6.554 -41.982
v -142.434 6.554 -16.956
f 80 79 78 77
f 73 74 78 77
f 74 75 79 78
f 75 76 80 79
f 76 73 77 80
v -253.445 2.847 19.236
v -216.052 2.847 11.822
v -209.755 2.847 43.584
v -247.148 2.847 50.998
v -253.445 8.647 19.236
v -216.052 8.647 11.822
v -209.755 8.647 43.584
v -247.148 8.647 50.998
f 88 87 86 85
f 81 82 86 85
f 82 83 87 86
f 83 84 88 87
f 84 81 85 88
v -188.574 2.872 -9.166
v -182.678 2.872 -29.279
v -169.426 2.872 -25.394
v -175.322 2.872 -5.281
v -188.574 6.772 -9.166
v -182.678 6.772 -29.279
v -169.426 6.772 -25.394
v -175.322 6.772 -5.281
f 96 95 94 93
f 89 90 94 93
f 90 91 95 94
f 91 92 96 95
f 92 89 93 96
v 57.221 2.412 -7.643
v 62.902 2.412 -24.723
v 72.599 2.412 -21.497
v 66.918 2.412 -4.417
v 57.221 6.312 -7.643
v 62.902 6.312 -24.723
v 72.599 6.312 -21.497
v 66.918 6.312 -4.417
f 104 103 102 101
f 97 98 102 101
f 98 99 103 102
f 99 100 104 103
f 100 97 101 104
v 9.461 3.379 88.079
v 28.319 3.379 86.546
v 29.439 3.379 100.321
v 10.581 3.379 101.854
v 9.461 7.279 88.079
v 28.319 7.279 86.546
v 29.439 7.279 100.321
v 10.581 7.279 101.854
f 112 111 110 109
f 105 106 110 109
f 106 107 111 110
f 107 108 112 111
f 108 105 109 112
v -81.422 3.102 189.369
v -80.930 3.102 215.674
v -93.558 3.102 215.911
v -94.050 3.102 189.606
v -81.422 7.002 189.369
v -80.930 7.002 215.674
v -93.558 7.002 215.911
v -94.050 7.002 189.606
f 120 119 118 117
f 113 114 118 117
f 114 115 119 118
f 115 116 120 119
f 116 113 117 120
v -180.576 0.698 226.445
v -170.351 0.698 170.156
v -137.764 0.698 176.075
v -147.989 0.698 232.364
v -180.576 6.498 226.445
v -170.351 6.498 170.156
v -137.764 6.498 176.075
v -147.989 6.498 232.364
f 128 127 126 125
f 121 122 126 125
f 122 123 127 126
f 123 124 128 127
f 124 121 125 128
v 52.997 2.457 -35.568
v 56.743 2.457 -54.563
v 68.663 2.457 -52.212
v 64.917 2.457 -33.217
v 52.997 6.357 -35.568
v 56.743 6.357 -54.563
v 68.663 6.357 -52.212
v 64.917 6.357 -33.217
f 136 135 134 133
f 129 130 134 133
f 130 131 135 134
f 131 132 136 135
f 132 129 133 136
v -85.780 3.185 27.830
v -81.212 3.185 12.434
v -71.520 3.185 15.310
v -76.088 3.185 30.706
v -85.780 7.085 27.830
v -81.212 7.085 12.434
v -71.520 7.085 15.310
v -76.088 7.085 30.706
f 144 143 142 141
f 137 138 142 141
f 138 139 143 142
f 139 140 144 143
f 140 137 141 144
v -177.891 3.170 27.853
v -171.988 3.170 8.598
v -160.869 3.170 12.007
v -166.772 3.170 31.262
v -177.891 7.070 27.853
v -171.988 7.070 8.598
v -160.869 7.070 12.007
v -166.772 7.070 31.262
f 152 151 150 149
f 145 146 150 149
f 146 147 151 150
f 147 148 152 151
f 148 145 149 152
v 29.718 2.878 155.214
v 44.687 2.878 151.471
v 46.842 2.878 160.086
v 31.873 2.878 163.829
v 29.718 6.778 155.214
v 44.687 6.778 151.471
v 46.842 6.778 160.086
v 31.873 6.778 163.829
f 160 159 158 157
f 153 154 158 157
f 154 155 159 158
f 155 156 160 159
f 156 153 157 160
v -49.878 3.009 200.807
v -44.362 3.009 185.427
v -32.022 3.009 189.853
v -37.538 3.009 205.233
v -49.878 6.909 200.807
v -44.362 6.909 185.427
v -32.022 6.909 189.853
v -37.538 6.909 205.233
f 168 167 166 165
f 161 162 166 165
f 162 163 167 166
f 163 164 168 167
f 164 161 165 168
v -173.157 2.910 47.156
v -155.791 2.910 55.107
v -159.563 2.910 63.344
v -176.929 2.910 55.393
v -173.157 6.810 47.156
v -155.791 6.810 55.107
v -159.563 6.810 63.344
v -176.929 6.810 55.393
f 176 175 174 173
f 169 170 174 173
f 170 171 175 174
f 171 172 176 175
f 172 169 173 176
v -109.566 2.424 -93.529
v -71.065 2.424 -85.744
v -74.534 2.424 -68.591
v -113.035 2.424 -76.376
v -109.566 8.224 -93.529
v -71.065 8.224 -85.744
v -74.534 8.224 -68.591
v -113.035 8.224 -76.376
f 184 183 182 181
f 177 178 182 181
f 178 179 183 182
f 179 180 184 183
f 180 177 181 184
v -49.029 2.700 -60.619
v -43.496 2.700 -76.821
v -35.471 2.700 -74.081
v -41.004 2.700 -57.879
v -49.029 6.600 -60.619
v -43.496 6.600 -76.821
v -35.471 6.600 -74.081
v -41.004 6.600 -57.879
f 192 191 190 189
f 185 186 190 189
f 186 187 191 190
f 187 188 192 191
f 188 185 189 192
v -0.492 2.375 -73.224
v 5.574 2.375 -92.586
v 14.992 2.375 -89.636
v 8.926 2.375 -70.274
v -0.492 6.275 -73.224
v 5.574 6.275 -92.586
v 14.992 6.275 -89.636
v 8.926 6.275 -70.274
f 200 199 198 197
f 193 194 198 197
f 194 195 199 198
f 195 196 200 199
f 196 193 197 200
v 42.604 2.454 -3.513
v 47.648 2.454 -18.413
v 55.936 2.454 -15.607
v 50.892 2.454 -0.707
v 42.604 6.354 -3.513
v 47.648 6.354 -18.413
v 55.936 6.354 -15.607
v 50.892 6.354 -0.707
f 208 207 206 205
f 201 202 206 205
f 202 203 207 206
f 203 204 208 207
f 204 201 205 208
v 19.863 2.783 180.735
v 32.674 2.783 171.659
v 37.397 2.783 178.325
v 24.586 2.783 187.401
v 19.863 6.683 180.735
v 32.674 6.683 171.659
v 37.397 6.683 178.325
v 24.586 6.683 187.401
f 216 215 214 213
f 209 210 214 213
f 210 211 215 214
f 211 212 216 215
f 212 209 213 216
v 26.239 2.736 171.220
v 40.826 2.736 161.569
v 45.941 2.736 169.300
v 31.354 2.736 178.951
v 26.239 6.636 171.220
v 40.826 6.636 161.569
v 45.941 6.636 169.300
v 31.354 6.636 178.951
f 224 223 222 221
f 217 218 222 221
f 218 219 223 222
f 219 220 224 223
f 220 217 221 224
v -122.218 3.312 102.438
v -109.238 3.312 105.727
v -111.442 3.312 114.422
v -124.422 3.312 111.133
v -122.218 7.212 102.438
v -109.238 7.212 105.727
v -111.442 7.212 114.422
v -124.422 7.212 111.133
f 232 231 230 229
f 225 226 230 229
f 226 227 231 230
f 227 228 232 231
f 228 225 229 232
v -216.984 3.389 38.727
v -201.521 3.389 47.236
v -207.836 3.389 58.713
v -223.299 3.389 50.204
v -216.984 7.289 38.727
v -201.521 7.289 47.236
v -207.836 7.289 58.713
v -223.299 7.289 50.204
f 240 239 238 237
f 233 234 238 237
f 234 235 239 238
f 235 236 240 239
f 236 233 237 240
v -187.702 2.640 -26.997
v -180.401 2.640 3.090
v -209.438 2.640 10.137
v -216.739 2.640 -19.950
v -187.702 6.540 -26.997
v -180.401 6.540 3.090
v -209.438 6.540 10.137
v -216.739 6.540 -19.950
f 248 247 246 245
f 241 242 246 245
f 242 243 247 246
f 243 244 248 247
f 244 241 245 248
v -104.105 2.495 -68.641
v -87.509 2.495 -63.545
v -90.735 2.495 -53.039
v -107.331 2.495 -58.135
v -104.105 6.395 -68.641
v -87.509 6.395 -63.545
v -90.735 6.395 -53.039
v -107.331 6.395 -58.135
f 256 255 254 253
f 249 250 254 253
f 250 251 255 254
f 251 252 256 255
f 252 249 253 256
v -99.473 2.856 -56.371
v -84.629 2.856 -51.740
v -87.247 2.856 -43.349
v -102.091 2.856 -47.980
v -99.473 6.756 -56.371
v -84.629 6.756 -51.740
v -87.247 6.756 -43.349
v -102.091 6.756 -47.980
f 264 263 262 261
f 257 258 262 261
f 258 259 263 262
f 259 260 264 263
f 260 257 261 264
v -97.372 2.929 -46.656
v -81.827 2.929 -41.954
v -84.528 2.929 -33.024
v -100.073 2.929 -37.726
v -97.372 6.829 -46.656
v -81.827 6.829 -41.954
v -84.528 6.829 -33.024
v -100.073 6.829 -37.726
f 272 271 270 269
f 265 266 270 269
f 266 267 271 270
f 267 268 272 271
f 268 265 269 272
v -71.733 3.241 28.473
v -66.307 3.241 12.183
v -57.407 3.241 15.147
v -62.833 3.241 31.437
v -71.733 7.141 28.473
v -66.307 7.141 12.183
v -57.407 7.141 15.147
v -62.833 7.141 31.437
f 280 279 278 277
f 273 274 278 277
f 274 275 279 278
f 275 276 280 279
f 276 273 277 280
v -158.419 3.136 92.400
v -141.559 3.136 97.919
v -143.681 3.136 104.400
v -160.541 3.136 98.881
v -158.419 7.036 92.400
v -141.559 7.036 97.919
v -143.681 7.036 104.400
v -160.541 7.036 98.881
f 288 287 286 285
f 281 282 286 285
f 282 283 287 286
f 283 284 288 287
f 284 281 285 288
v -74.841 3.513 78.810
v -66.109 3.513 88.975
v -72.739 3.513 94.670
v -81.471 3.513 84.505
v -74.841 7.413 78.810
v -66.109 7.413 88.975
v -72.739 7.413 94.670
v -81.471 7.413 84.505
f 296 295 294 293
f 289 290 294 293
f 290 291 295 294
f 291 292 296 295
f 292 289 293 296
v -65.634 3.503 126.726
v -55.107 3.503 116.111
v -48.226 3.503 122.934
v -58.753 3.503 133.549
v -65.634 7.403 126.726
v -55.107 7.403 116.111
v -48.226 7.403 122.934
v -58.753 7.403 133.549
f 304 303 302 301
f 297 298 302 301
f 298 299 303 302
f 299 300 304 303
f 300 297 301 304
v -188.863 2.993 105.456
v -168.945 2.993 110.049
v -171.097 2.993 119.384
v -191.015 2.993 114.791
v -188.863 6.893 105.456
v -168.945 6.893 110.049
v -171.097 6.893 119.384
v -191.015 6.893 114.791
f 312 311 310 309
f 305 306 310 309
f 306 307 311 310
f 307 308 312 311
f 308 305 309 312
v -61.555 3.112 164.825
v -57.392 3.112 145.815
v -47.165 3.112 148.055
v -51.328 3.112 167.065
v -61.555 7.012 164.825
v -57.392 7.012 145.815
v -47.165 7.012 148.055
v -51.328 7.012 167.065
f 320 319 318 317
f 313 314 318 317
f 314 315 319 318
f 315 316 320 319
f 316 313 317 320
v -113.547 3.052 186.367
v -105.557 3.052 218.200
v -119.553 3.052 221.713
v -127.543 3.052 189.880
v -113.547 6.952 186.367
v -105.557 6.952 218.200
v -119.553 6.952 221.713
v -127.543 6.952 189.880
f 328 327 326 325
f 321 322 326 325
f 322 323 327 326
f 323 324 328 327
f 324 321 325 328
v -22.463 2.979 51.399
v -4.111 2.979 41.802
v 3.503 2.979 56.361
v -14.849 2.979 65.958
v -22.463 6.879 51.399
v -4.111 6.879 41.802
v 3.503 6.879 56.361
v -14.849 6.879 65.958
f 336 335 334 333
f 329 330 334 333
f 330 331 335 334
f 331 332 336 335
f 332 329 333 336
v -6.717 2.916 -30.203
v 10.961 2.916 -24.583
v 7.837 2.916 -14.757
v -9.841 2.916 -20.377
v -6.717 6.816 -30.203
v 10.961 6.816 -24.583
v 7.837 6.816 -14.757
v -9.841 6.816 -20.377
f 344 343 342 341
f 337 338 342 341
f 338 339 343 342
f 339 340 344 343
f 340 337 341 344
v -101.852 2.916 148.577
v -98.479 2.916 168.605
v -107.848 2.916 170.183
v -111.221 2.916 150.155
v -101.852 6.816 148.577
v -98.479 6.816 168.605
v -107.848 6.816 170.183
v -111.221 6.816 150.155
f 352 351 350 349
f 345 346 350 349
f 346 347 351 350
f 347 348 352 351
f 348 345 349 352
v -86.734 3.150 152.824
v -84.450 3.150 170.447
v -90.846 3.150 171.276
v -93.130 3.150 153.653
v -86.734 7.050 152.824
v -84.450 7.050 170.447
v -90.846 7.050 171.276
v -93.130 7.050 153.653
f 360 359 358 357
f 353 354 358 357
f 354 355 359 358
f 355 356 360 359
f 356 353 357 360
v -77.768 3.232 169.322
v -75.418 3.232 149.270
v -66.132 3.232 150.358
v -68.482 3.232 170.410
v -77.768 7.132 169.322
v -75.418 7.132 149.270
v -66.132 7.132 150.358
v -68.482 7.132 170.410
f 368 367 366 365
f 361 362 366 365
f 362 363 367 366
f 363 364 368 367
f 364 361 365 368
v -90.789 3.434 138.122
v -89.596 3.434 124.494
v -80.411 3.434 125.298
v -81.604 3.434 138.926
v -90.789 7.334 138.122
v -89.596 7.334 124.494
v -80.411 7.334 125.298
v -81.604 7.334 138.926
f 376 375 374 373
f 369 370 374 373
f 370 371 375 374
f 371 372 376 375
f 372 369 373 376
v 30.096 2.675 -25.565
v 35.314 2.675 -40.965
v 43.724 2.675 -38.115
v 38.506 2.675 -22.715
v 30.096 6.575 -25.565
v 35.314 6.575 -40.965
v 43.724 6.575 -38.115
v 38.506 6.575 -22.715
f 384 383 382 381
f 377 378 382 381
f 378 379 383 382
f 379 380 384 383
f 380 377 381 384
v 40.805 2.671 -32.604
v 46.268 2.671 -48.310
v 55.335 2.671 -45.156
v 49.872 2.671 -29.450
v 40.805 6.571 -32.604
v 46.268 6.571 -48.310
v 55.335 6.571 -45.156
v 49.872 6.571 -29.450
f 392 391 390 389
f 385 386 390 389
f 386 387 391 390
f 387 388 392 391
f 388 385 389 392
v 9.673 2.537 -70.367
v 25.656 2.537 -65.157
v 22.727 2.537 -56.173
v 6.744 2.537 -61.383
v 9.673 6.437 -70.367
v 25.656 6.437 -65.157
v 22.727 6.437 -56.173
v 6.744 6.437 -61.383
f 400 399 398 397
f 393 394 398 397
f 394 395 399 398
f 395 396 400 399
f 396 393 397 400
v 11.277 2.245 -81.363
v 15.591 2.245 -97.838
v 23.843 2.245 -95.677
v 19.529 2.245 -79.202
v 11.277 6.145 -81.363
v 15.591 6.145 -97.838
v 23.843 6.145 -95.677
v 19.529 6.145 -79.202
f 408 407 406 405
f 401 402 406 405
f 402 403 407 406
f 403 404 408 407
f 404 401 405 408
v 43.040 2.540 -66.301
v 58.974 2.540 -61.900
v 56.400 2.540 -52.579
v 40.466 2.540 -56.980
v 43.040 6.440 -66.301
v 58.974 6.440 -61.900
v 56.400 6.440 -52.579
v 40.466 6.440 -56.980
f 416 415 414 413
f 409 410 414 413
f 410 411 415 414
f 411 412 416 415
f 412 409 413 416
v -36.723 2.634 -63.198
v -32.017 2.634 -77.883
v -23.837 2.634 -75.262
v -28.543 2.634 -60.577
v -36.723 6.534 -63.198
v -32.017 6.534 -77.883
v -23.837 6.534 -75.262
v -28.543 6.534 -60.577
f 424 423 422 421
f 417 418 422 421
f 418 419 423 422
f 419 420 424 423
f 420 417 421 424
v -53.429 2.794 -49.972
v -40.012 2.794 -44.266
v -43.311 2.794 -36.508
v -56.728 2.794 -42.214
v -53.429 6.694 -49.972
v -40.012 6.694 -44.266
v -43.311 6.694 -36.508
v -56.728 6.694 -42.214
f 432 431 430 429
f 425 426 430 429
f 426 427 431 430
f 427 428 432 431
f 428 425 429 432
v -28.710 2.839 -58.144
v -12.654 2.839 -52.901
v -15.450 2.839 -44.336
v -31.506 2.839 -49.579
v -28.710 6.739 -58.144
v -12.654 6.739 -52.901
v -15.450 6.739 -44.336
v -31.506 6.739 -49.579
f 440 439 438 437
f 433 434 438 437
f 434 435 439 438
f 435 436 440 439
f 436 433 437 440
v -15.439 2.854 -41.345
v 0.638 2.854 -36.201
v -2.141 2.854 -27.515
v -18.218 2.854 -32.659
v -15.439 6.754 -41.345
v 0.638 6.754 -36.201
v -2.141 6.754 -27.515
v -18.218 6.754 -32.659
f 448 447 446 445
f 441 442 446 445
f 442 443 447 446
f 443 444 448 447
f 444 441 445 448
v -86.017 2.865 -19.310
v -68.781 2.865 -14.370
v -71.343 2.865 -5.430
v -88.579 2.865 -10.370
v -86.017 6.765 -19.310
v -68.781 6.765 -14.370
v -71.343 6.765 -5.430
v -88.579 6.765 -10.370
f 456 455 454 453
f 449 450 454 453
f 450 451 455 454
f 451 452 456 455
f 452 449 453 456
v -226.338 2.480 10.599
v -221.210 2.480 -6.196
v -208.642 2.480 -2.359
v -213.770 2.480 14.436
v -226.338 6.380 10.599
v -221.210 6.380 -6.196
v -208.642 6.380 -2.359
v -213.770 6.380 14.436
f 464 463 462 461
f 457 458 462 461
f 458 459 463 462
f 459 460 464 463
f 460 457 461 464
v -209.702 2.868 54.218
v -194.397 2.868 61.432
v -199.398 2.868 72.042
v -214.703 2.868 64.828
v -209.702 6.768 54.218
v -194.397 6.768 61.432
v -199.398 6.768 72.042
v -214.703 6.768 64.828
f 472 471 470 469
f 465 466 470 469
f 466 467 471 470
f 467 468 472 471
f 468 465 469 472
v -201.171 2.545 31.541
v -184.020 2.545 10.740
v -166.969 2.545 24.799
v -184.120 2.545 45.600
v -201.171 6.445 31.541
v -184.020 6.445 10.740
v -166.969 6.445 24.799
v -184.120 6.445 45.600
f 480 479 478 477
f 473 474 478 477
f 474 475 479 478
f 475 476 480 479
f 476 473 477 480
v -167.943 3.016 64.428
v -150.771 3.016 70.982
v -153.537 3.016 78.232
v -170.709 3.016 71.678
v -167.943 6.916 64.428
v -150.771 6.916 70.982
v -153.537 6.916 78.232
v -170.709 6.916 71.678
f 488 487 486 485
f 481 482 486 485
f 482 483 487 486
f 483 484 488 487
f 484 481 485 488
v -115.391 3.262 98.259
v -111.197 3.262 85.280
v -101.909 3.262 88.281
v -106.103 3.262 101.260
v -115.391 7.162 98.259
v -111.197 7.162 85.280
v -101.909 7.162 88.281
v -106.103 7.162 101.260
f 496 495 494 493
f 489 490 494 493
f 490 491 495 494
f 491 492 496 495
f 492 489 493 496
v -152.115 3.011 120.706
v -131.872 3.011 123.307
v -133.485 3.011 135.854
v -153.728 3.011 133.253
v -152.115 6.911 120.706
v -131.872 6.911 123.307
v -133.485 6.911 135.854
v -153.728 6.911 133.253
f 504 503 502 501
f 497 498 502 501
f 498 499 503 502
f 499 500 504 503
f 500 497 501 504
v -97.364 3.237 122.036
v -95.083 3.237 136.477
v -103.736 3.237 137.844
v -106.017 3.237 123.403
v -97.364 7.137 122.036
v -95.083 7.137 136.477
v -103.736 7.137 137.844
v -106.017 7.137 123.403
f 512 511 510 509
f 505 506 510 509
f 506 507 511 510
f 507 508 512 511
f 508 505 509 512
v -102.234 3.560 94.332
v -97.641 3.560 81.266
v -89.726 3.560 84.048
v -94.319 3.560 97.114
v -102.234 7.460 94.332
v -97.641 7.460 81.266
v -89.726 7.460 84.048
v -94.319 7.460 97.114
f 520 519 518 517
f 513 514 518 517
f 514 515 519 518
f 515 516 520 519
f 516 513 517 520
v -64.111 3.288 86.468
v -54.624 3.288 96.845
v -62.529 3.288 104.072
v -72.016 3.288 93.695
v -64.111 7.188 86.468
v -54.624 7.188 96.845
v -62.529 7.188 104.072
v -72.016 7.188 93.695
f 528 527 526 525
f 521 522 526 525
f 522 523 527 526
f 523 524 528 527
f 524 521 525 528
v 14.107 3.263 99.713
v 16.313 3.263 115.096
v 1.593 3.263 117.207
v -0.613 3.263 101.824
v 14.107 7.163 99.713
v 16.313 7.163 115.096
v 1.593 7.163 117.207
v -0.613 7.163 101.824
f 536 535 534 533
f 529 530 534 533
f 530 531 535 534
f 531 532 536 535
f 532 529 533 536
v -186.454 3.013 120.145
v -162.509 3.013 121.611
v -163.346 3.013 135.275
v -187.291 3.013 133.809
v -186.454 9.313 120.145
v -162.509 9.313 121.611
v -163.346 9.313 135.275
v -187.291 9.313 133.809
f 544 543 542 541
f 537 538 542 541
f 538 539 543 542
f 539 540 544 543
f 540 537 541 544
v -194.305 2.879 76.282
v -179.095 2.879 81.800
v -183.375 2.879 93.598
v -198.585 2.879 88.080
v -194.305 6.379 76.282
v -179.095 6.379 81.800
v -183.375 6.379 93.598
v -198.585 6.379 88.080
f 552 551 550 549
f 545 546 550 549
f 546 547 551 550
f 547 548 552 551
f 548 545 549 552
v -186.313 2.838 136.726
v -169.305 2.838 139.155
v -171.287 2.838 153.034
v -188.295 2.838 150.605
v -186.313 6.338 136.726
v -169.305 6.338 139.155
v -171.287 6.338 153.034
v -188.295 6.338 150.605
f 560 559 558 557
f 553 554 558 557
f 554 555 559 558
f 555 556 560 559
f 556 553 557 560
v -55.819 2.823 -34.667
v -29.874 2.823 -23.981
v -33.321 2.823 -15.613
v -59.266 2.823 -26.299
v -55.819 6.723 -34.667
v -29.874 6.723 -23.981
v -33.321 6.723 -15.613
v -59.266 6.723 -26.299
f 568 567 566 565
f 561 562 566 565
f 562 563 567 566
f 563 564 568 567
f 564 561 565 568
v -84.629 3.507 54.873
v -83.536 3.507 49.503
v -79.391 3.507 50.347
v -80.484 3.507 55.717
v -84.629 7.407 54.873
v -83.536 7.407 49.503
v -79.391 7.407 50.347
v -80.484 7.407 55.717
f 576 575 574 573
f 569 570 574 573
f 570 571 575 574
f 571 572 576 575
f 572 569 573 576
v -77.189 3.524 65.654
v -72.830 3.524 52.803
v -66.571 3.524 54.926
v -70.930 3.524 67.777
v -77.189 7.424 65.654
v -72.830 7.424 52.803
v -66.571 7.424 54.926
v -70.930 7.424 67.777
f 584 583 582 581
f 577 578 582 581
f 578 579 583 582
f 579 580 584 583
f 580 577 581 584
v -66.143 3.138 207.225
v -61.963 3.138 184.619
v -48.137 3.138 187.175
v -52.317 3.138 209.781
v -66.143 7.038 207.225
v -61.963 7.038 184.619
v -48.137 7.038 187.175
v -52.317 7.038 209.781
f 592 591 590 589
f 585 586 590 589
f 586 587 591 590
f 587 588 592 591
f 588 585 589 592
v -97.461 3.184 190.764
v -91.982 3.184 218.396
v -105.499 3.184 221.076
v -110.978 3.184 193.444
v -97.461 7.084 190.764
v -91.982 7.084 218.396
v -105.499 7.084 221.076
v -110.978 7.084 193.444
f 600 599 598 597
f 593 594 598 597
f 594 595 599 598
f 595 596 600 599
f 596 593 597 600
v -123.653 3.105 177.502
v -120.078 3.105 187.109
v -129.347 3.105 190.558
v -132.922 3.105 180.951
v -123.653 7.005 177.502
v -120.078 7.005 187.109
v -129.347 7.005 190.558
v -132.922 7.005 180.951
f 608 607 606 605
f 601 602 606 605
f 602 603 607 606
f 603 604 608 607
f 604 601 605 608
v -132.050 2.812 200.951
v -125.963 2.812 219.813
v -137.850 2.812 223.649
v -143.937 2.812 204.787
v -132.050 6.712 200.951
v -125.963 6.712 219.813
v -137.850 6.712 223.649
v -143.937 6.712 204.787
f 616 615 614 613
f 609 610 614 613
f 610 611 615 614
f 611 612 616 615
f 612 609 613 616
v -153.324 2.752 198.489
v -150.031 2.752 175.362
v -134.656 2.752 177.551
v -137.949 2.752 200.678
v -153.324 6.652 198.489
v -150.031 6.652 175.362
v -134.656 6.652 177.551
v -137.949 6.652 200.678
f 624 623 622 621
f 617 618 622 621
f 618 619 623 622
f 619 620 624 623
f 620 617 621 624
v -135.344 3.022 143.647
v -111.311 3.022 145.149
v -112.156 3.022 158.673
v -136.189 3.022 157.171
v -135.344 6.922 143.647
v -111.311 6.922 145.149
v -112.156 6.922 158.673
v -136.189 6.922 157.171
f 632 631 630 629
f 625 626 630 629
f 626 627 631 630
f 627 628 632 631
f 628 625 629 632
v -131.922 3.101 132.677
v -131.327 3.101 128.468
v -127.258 3.101 129.043
v -127.853 3.101 133.252
v -131.922 7.001 132.677
v -131.327 7.001 128.468
v -127.258 7.001 129.043
v -127.853 7.001 133.252
f 640 639 638 637
f 633 634 638 637
f 634 635 639 638
f 635 636 640 639
f 636 633 637 640
v -155.058 2.999 108.685
v -138.239 2.999 112.901
v -139.822 2.999 119.215
v -156.641 2.999 114.999
v -155.058 6.899 108.685
v -138.239 6.899 112.901
v -139.822 6.899 119.215
v -156.641 6.899 114.999
f 648 647 646 645
f 641 642 646 645
f 642 643 647 646
f 643 644 648 647
f 644 641 645 648
v -193.937 3.355 88.569
v -168.018 3.355 91.466
v -169.903 3.355 108.331
v -195.822 3.355 105.434
v -193.937 7.255 88.569
v -168.018 7.255 91.466
v -169.903 7.255 108.331
v -195.822 7.255 105.434
f 656 655 654 653
f 649 650 654 653
f 650 651 655 654
f 651 652 656 655
f 652 649 653 656
v -182.288 2.591 -1.231
v -180.630 2.591 -5.500
v -176.892 2.591 -4.049
v -178.550 2.591 0.220
v -182.288 6.491 -1.231
v -180.630 6.491 -5.500
v -176.892 6.491 -4.049
v -178.550 6.491 0.220
f 664 663 662 661
f 657 658 662 661
f 658 659 663 662
f 659 660 664 663
f 660 657 661 664
v -193.549 2.631 -1.059
v -187.426 2.631 1.182
v -188.911 2.631 5.239
v -195.034 2.631 2.998
v -193.549 6.531 -1.059
v -187.426 6.531 1.182
v -188.911 6.531 5.239
v -195.034 6.531 2.998
f 672 671 670 669
f 665 666 670 669
f 666 667 671 670
f 667 668 672 671
f 668 665 669 672
v -90.801 2.907 -37.360
v -74.800 2.907 -32.047
v -77.479 2.907 -23.980
v -93.480 2.907 -29.293
v -90.801 6.807 -37.360
v -74.800 6.807 -32.047
v -77.479 6.807 -23.980
v -93.480 6.807 -29.293
f 680 679 678 677
f 673 674 678 677
f 674 675 679 678
f 675 676 680 679
f 676 673 677 680
v 26.988 2.518 0.138
v 32.328 2.518 -15.654
v 40.892 2.518 -12.758
v 35.552 2.518 3.034
v 26.988 6.418 0.138
v 32.328 6.418 -15.654
v 40.892 6.418 -12.758
v 35.552 6.418 3.034
f 688 687 686 685
f 681 682 686 685
f 682 683 687 686
f 683 684 688 687
f 684 681 685 688
v 40.135 2.533 38.297
v 51.206 2.533 37.828
v 51.405 2.533 42.523
v 40.334 2.533 42.992
v 40.135 6.433 38.297
v 51.206 6.433 37.828
v 51.405 6.433 42.523
v 40.334 6.433 42.992
f 696 695 694 693
f 689 690 694 693
f 690 691 695 694
f 691 692 696 695
f 692 689 693 696
v -29.398 3.100 67.598
v -9.428 3.100 61.235
v -5.162 3.100 74.622
v -25.132 3.100 80.985
v -29.398 7.000 67.598
v -9.428 7.000 61.235
v -5.162 7.000 74.622
v -25.132 7.000 80.985
f 704 703 702 701
f 697 698 702 701
f 698 699 703 702
f 699 700 704 703
f 700 697 701 704
v -59.252 3.225 97.363
v -44.684 3.225 99.471
v -46.408 3.225 111.377
v -60.976 3.225 109.269
v -59.252 7.125 97.363
v -44.684 7.125 99.471
v -46.408 7.125 111.377
v -60.976 7.125 109.269
f 712 711 710 709
f 705 706 710 709
f 706 707 711 710
f 707 708 712 711
f 708 705 709 712
v -121.263 3.200 113.693
v -107.103 3.200 115.544
v -108.437 3.200 125.747
v -122.597 3.200 123.896
v -121.263 7.100 113.693
v -107.103 7.100 115.544
v -108.437 7.100 125.747
v -122.597 7.100 123.896
f 720 719 718 717
f 713 714 718 717
f 714 715 719 718
f 715 716 720 719
f 716 713 717 720
v -81.379 3.234 133.347
v -74.849 3.234 120.378
v -63.301 3.234 126.193
v -69.831 3.234 139.162
v -81.379 7.134 133.347
v -74.849 7.134 120.378
v -63.301 7.134 126.193
v -69.831 7.134 139.162
f 728 727 726 725
f 721 722 726 725
f 722 723 727 726
f 723 724 728 727
f 724 721 725 728
v 1.073 2.729 2.620
v 5.605 2.729 -12.673
v 14.627 2.729 -10.000
v 10.095 2.729 5.293
v 1.073 6.629 2.620
v 5.605 6.629 -12.673
v 14.627 6.629 -10.000
v 10.095 6.629 5.293
f 736 735 734 733
f 729 730 734 733
f 730 731 735 734
f 731 732 736 735
f 732 729 733 736
v -23.449 2.829 16.106
v -18.909 2.829 0.785
v -10.711 2.829 3.214
v -15.251 2.829 18.535
v -23.449 6.729 16.106
v -18.909 6.729 0.785
v -10.711 6.729 3.214
v -15.251 6.729 18.535
f 744 743 742 741
f 737 738 742 741
f 738 739 743 742
f 739 740 744 743
f 740 737 741 744
v -38.549 2.999 10.750
v -22.567 2.999 15.383
v -25.051 2.999 23.950
v -41.033 2.999 19.317
v -38.549 6.899 10.750
v -22.567 6.899 15.383
v -25.051 6.899 23.950
v -41.033 6.899 19.317
f 752 751 750 749
f 745 746 750 749
f 746 747 751 750
f 747 748 752 751
f 748 745 749 752
v -57.190 3.201 25.516
v -52.151 3.201 8.517
v -42.410 3.201 11.404
v -47.449 3.201 28.403
v -57.190 7.101 25.516
v -52.151 7.101 8.517
v -42.410 7.101 11.404
v -47.449 7.101 28.403
f 760 759 758 757
f 753 754 758 757
f 754 755 759 758
f 755 756 760 759
f 756 753 757 760
v -157.122 -0.300 -84.888
v -129.088 -0.300 -131.251
v -114.138 -0.300 -122.212
v -142.172 -0.300 -75.849
v -157.122 3.600 -84.888
v -129.088 3.600 -131.251
v -114.138 3.600 -122.212
v -142.172 3.600 -75.849
f 768 767 766 765
f 761 762 766 765
f 762 763 767 766
f 763 764 768 767
f 764 761 765 768
v -150.126 2.406 -18.513
v -145.957 2.406 -18.007
v -146.454 2.406 -13.907
v -150.623 2.406 -14.413
v -150.126 6.306 -18.513
v -145.957 6.306 -18.007
v -146.454 6.306 -13.907
v -150.623 6.306 -14.413
f 776 775 774 773
f 769 770 774 773
f 770 771 775 774
f 771 772 776 775
f 772 769 773 776
v -142.577 2.495 -24.672
v -138.569 2.495 -24.027
v -139.203 2.495 -20.088
v -143.211 2.495 -20.733
v -142.577 6.395 -24.672
v -138.569 6.395 -24.027
v -139.203 6.395 -20.088
v -143.211 6.395 -20.733
f 784 783 782 781
f 777 778 782 781
f 778 779 783 782
f 779 780 784 783
f 780 777 781 784
v -14.782 1.859 -87.435
v -13.642 1.859 -91.767
v -9.378 1.859 -90.645
v -10.518 1.859 -86.313
v -14.782 5.759 -87.435
v -13.642 5.759 -91.767
v -9.378 5.759 -90.645
v -10.518 5.759 -86.313
f 792 791 790 789
f 785 786 790 789
f 786 787 791 790
f 787 788 792 791
f 788 785 789 792
v 30.253 0.516 -119.736
v 32.581 0.516 -115.653
v 28.567 0.516 -113.364
v 26.239 0.516 -117.447
v 30.253 4.416 -119.736
v 32.581 4.416 -115.653
v 28.567 4.416 -113.364
v 26.239 4.416 -117.447
f 800 799 798 797
f 793 794 798 797
f 794 795 799 798
f 795 796 800 799
f 796 793 797 800
v -168.589 2.357 31.150
v -162.980 2.357 32.743
v -163.931 2.357 36.090
v -169.540 2.357 34.497
v -168.589 6.257 31.150
v -162.980 6.257 32.743
v -163.931 6.257 36.090
v -169.540 6.257 34.497
f 808 807 806 805
f 801 802 806 805
f 802 803 807 806
f 803 804 808 807
f 804 801 805 808
v -112.882 3.060 184.361
v -108.354 3.060 184.021
v -108.038 3.060 188.219
v -112.566 3.060 188.559
v -112.882 6.960 184.361
v -108.354 6.960 184.021
v -108.038 6.960 188.219
v -112.566 6.960 188.559
f 816 815 814 813
f 809 810 814 813
f 810 811 815 814
f 811 812 816 815
f 812 809 813 816
v -102.650 2.999 184.591
v -101.942 2.999 189.833
v -106.650 2.999 190.469
v -107.358 2.999 185.227
v -102.650 6.899 184.591
v -101.942 6.899 189.833
v -106.650 6.899 190.469
v -107.358 6.899 185.227
f 824 823 822 821
f 817 818 822 821
f 818 819 823 822
f 819 820 824 823
f 820 817 821 824
v -43.377 2.969 184.182
v -42.005 2.969 180.371
v -38.543 2.969 181.618
v -39.915 2.969 185.429
v -43.377 6.869 184.182
v -42.005 6.869 180.371
v -38.543 6.869 181.618
v -39.915 6.869 185.429
f 832 831 830 829
f 825 826 830 829
f 826 827 831 830
f 827 828 832 831
f 828 825 829 832
v -162.783 3.234 76.488
v -145.611 3.234 83.042
v -148.377 3.234 90.292
v -165.549 3.234 83.738
v -162.783 7.134 76.488
v -145.611 7.134 83.042
v -148.377 7.134 90.292
v -165.549 7.134 83.738
f 840 839 838 837
f 833 834 838 837
f 834 835 839 838
f 835 836 840 839
f 836 833 837 840
v 13.451 2.548 77.015
v 35.044 2.548 74.092
v 36.329 2.548 83.585
v 14.736 2.548 86.508
v 13.451 6.448 77.015
v 35.044 6.448 74.092
v 36.329 6.448 83.585
v 14.736 6.448 86.508
f 848 847 846 845
f 841 842 846 845
f 842 843 847 846
f 843 844 848 847
f 844 841 845 848
v 68.871 2.238 28.939
v 70.487 2.238 40.042
v 64.589 2.238 40.901
v 62.973 2.238 29.798
v 68.871 6.138 28.939
v 70.487 6.138 40.042
v 64.589 6.138 40.901
v 62.973 6.138 29.798
f 856 855 854 853
f 849 850 854 853
f 850 851 855 854
f 851 852 856 855
f 852 849 853 856
v -82.495 2.777 211.547
v -76.630 2.777 182.198
v -64.245 2.777 184.673
v -70.110 2.777 214.022
v -82.495 6.677 211.547
v -76.630 6.677 182.198
v -64.245 6.677 184.673
v -70.110 6.677 214.022
f 864 863 862 861
f 857 858 862 861
f 858 859 863 862
f 859 860 864 863
f 860 857 861 864
v -174.512 2.346 -15.192
v -169.440 2.346 -31.533
v -158.208 2.346 -28.048
v -163.280 2.346 -11.707
v -174.512 6.246 -15.192
v -169.440 6.246 -31.533
v -158.208 6.246 -28.048
v -163.280 6.246 -11.707
f 872 871 870 869
f 865 866 870 869
f 866 867 871 870
f 867 868 872 871
f 868 865 869 872
usemtl road
v -205.800 2.992 22.816
v -200.190 2.962 19.246
v -202.070 2.878 16.294
v -207.680 3.009 19.864
f 873 874 875 876
v -200.146 2.963 19.217
v -185.766 2.751 9.437
v -187.734 2.786 6.543
v -202.114 2.880 16.323
f 877 878 879 880
v -186.149 2.757 9.633
v -166.469 2.689 2.433
v -167.671 2.728 -0.853
v -187.351 2.791 6.347
f 881 882 883 884
v -166.693 2.697 2.499
v -126.533 2.803 -6.371
v -127.287 2.844 -9.789
v -167.447 2.725 -0.919
f 885 886 887 888
v -126.473 2.801 -6.385
v -109.493 3.056 -10.765
v -110.367 3.057 -14.155
v -127.347 2.843 -9.775
f 889 890 891 892
v 86.250 0.710 -0.867
v 81.500 0.893 0.073
v 82.180 1.085 3.507
v 86.930 0.670 2.567
f 893 894 895 896
v 81.507 0.892 0.072
v 65.187 2.372 3.232
v 65.853 2.440 6.668
v 82.173 1.086 3.508
f 897 898 899 900
v 65.179 2.372 3.234
v 20.989 2.887 12.024
v 21.671 2.914 15.456
v 65.861 2.439 6.666
f 901 902 903 904
v 20.819 2.887 12.066
v 3.619 2.895 17.316
v 4.641 2.901 20.664
v 21.841 2.915 15.414
f 905 906 907 908
v 3.608 2.895 17.320
v -19.672 2.936 24.600
v -18.628 2.962 27.940
v 4.652 2.901 20.660
f 909 910 911 912
v -19.671 2.936 24.599
v -50.731 3.123 34.289
v -49.689 3.263 37.631
v -18.629 2.962 27.941
f 913 914 915 916
v -50.667 3.123 34.271
v -75.257 3.397 40.921
v -74.343 3.498 44.299
v -49.753 3.261 37.649
f 917 918 919 920
v -74.839 3.395 40.860
v -84.679 3.496 41.080
v -84.601 3.580 44.580
v -74.761 3.488 44.360
f 921 922 923 924
v -84.665 3.495 41.080
v -91.595 3.536 41.180
v -91.545 3.587 44.680
v -84.615 3.580 44.580
f 925 926 927 928
v -91.008 3.544 41.273
v -106.158 3.301 36.133
v -107.282 3.361 39.447
v -92.132 3.591 44.587
f 929 930 931 932
v -106.319 3.299 36.087
v -124.319 3.203 31.847
v -125.121 3.250 35.253
v -107.121 3.363 39.493
f 933 934 935 936
v -124.667 3.199 31.801
v -141.377 3.040 31.291
v -141.483 3.029 34.789
v -124.773 3.255 35.299
f 937 938 939 940
v -141.709 3.040 31.312
v -157.069 2.999 33.792
v -156.511 2.993 37.248
v -141.151 3.029 34.768
f 941 942 943 944
v -157.365 3.008 33.867
v -189.045 3.291 44.897
v -187.895 3.261 48.203
v -156.215 2.990 37.173
f 945 946 947 948
v -122.250 3.292 134.489
v -148.740 2.969 148.759
v -147.080 2.970 151.841
v -120.590 3.291 137.571
f 949 950 951 952
v -82.966 3.480 42.319
v -94.826 3.115 3.489
v -98.174 3.079 4.511
v -86.314 3.550 43.341
f 953 954 955 956
v -94.834 3.115 3.464
v -98.434 3.075 -7.726
v -101.766 3.053 -6.654
v -98.166 3.079 4.536
f 957 958 959 960
v 27.978 2.489 -74.539
v 31.068 2.528 -67.229
v 34.292 2.561 -68.591
v 31.202 2.479 -75.901
f 961 962 963 964
v 30.932 2.527 -67.836
v 31.172 2.534 -62.156
v 34.668 2.575 -62.304
v 34.428 2.548 -67.984
f 965 966 967 968
v 31.285 2.534 -62.853
v 27.695 2.550 -53.423
v 30.965 2.551 -52.177
v 34.555 2.572 -61.607
f 969 970 971 972
v 27.969 2.548 -53.901
v 22.639 2.650 -47.311
v 25.361 2.640 -45.109
v 30.691 2.540 -51.699
f 973 974 975 976
v 22.915 2.647 -47.583
v 13.205 2.778 -39.913
v 15.375 2.805 -37.167
v 25.085 2.651 -44.837
f 977 978 979 980
v -20.812 2.939 25.722
v -31.252 3.288 57.392
v -27.928 3.238 58.488
v -17.488 2.947 26.818
f 981 982 983 984
v -31.267 3.289 57.441
v -36.887 3.456 76.321
v -33.533 3.431 77.319
v -27.913 3.232 58.439
f 985 986 987 988
v -36.881 3.456 76.300
v -40.471 3.538 87.830
v -37.129 3.506 88.870
v -33.539 3.431 77.340
f 989 990 991 992
v -40.539 3.540 88.158
v -41.549 3.529 97.328
v -38.071 3.538 97.712
v -37.061 3.504 88.542
f 993 994 995 996
v -41.558 3.528 97.436
v -42.718 3.457 121.686
v -39.222 3.478 121.854
v -38.062 3.537 97.604
f 997 998 999 1000
v -42.582 3.467 121.089
v -46.162 3.417 129.569
v -42.938 3.405 130.931
v -39.358 3.475 122.451
f 1001 1002 1003 1004
v -45.799 3.419 129.024
v -51.599 3.418 134.934
v -49.101 3.386 137.386
v -43.301 3.408 131.476
f 1005 1006 1007 1008
v -50.869 3.425 134.489
v -73.809 3.257 141.609
v -72.771 2.212 144.951
v -49.831 3.398 137.831
f 1009 1010 1011 1012
v -73.323 3.282 141.530
v -100.103 3.389 142.040
v -100.037 2.846 145.540
v -73.257 2.273 145.030
f 1013 1014 1015 1016
v -99.472 3.401 142.145
v -120.822 3.288 134.385
v -122.018 3.289 137.675
v -100.668 2.617 145.435
f 1017 1018 1019 1020
v -119.727 3.289 135.586
v -123.987 3.312 119.346
v -127.373 3.268 120.234
v -123.113 3.284 136.474
f 1021 1022 1023 1024
v -123.946 3.309 119.556
v -126.706 3.351 99.126
v -130.174 3.334 99.594
v -127.414 3.269 120.024
f 1025 1026 1027 1028
v -126.822 3.360 100.026
v -123.252 3.312 91.356
v -126.488 3.239 90.024
v -130.058 3.343 98.694
f 1029 1030 1031 1032
v -124.003 3.286 92.210
v -112.643 3.569 85.730
v -114.377 3.421 82.690
v -125.737 3.238 89.170
f 1033 1034 1035 1036
v -112.693 3.568 85.758
v -98.523 3.828 78.278
v -100.157 3.709 75.182
v -114.327 3.422 82.662
f 1037 1038 1039 1040
v 43.906 2.256 203.079
v 11.046 3.099 175.049
v 8.774 3.104 177.711
v 41.634 2.215 205.741
f 1041 1042 1043 1044
v 11.055 3.099 175.057
v -16.035 3.237 151.617
v -18.325 3.238 154.263
v 8.765 3.104 177.703
f 1045 1046 1047 1048
v -6.674 3.308 189.815
v 10.896 3.091 177.825
v 8.924 3.099 174.935
v -8.646 3.293 186.925
f 1049 1050 1051 1052
v 11.081 3.093 177.681
v 21.391 3.214 168.401
v 19.049 3.140 165.799
v 8.739 3.101 175.079
f 1053 1054 1055 1056
v 21.693 3.201 168.045
v 26.753 3.248 160.155
v 23.807 3.157 158.265
v 18.747 3.137 166.155
f 1057 1058 1059 1060
v 29.254 3.118 51.645
v 36.334 2.947 37.985
v 33.226 2.983 36.375
v 26.146 3.062 50.035
f 1061 1062 1063 1064
v 35.965 2.948 38.468
v 42.375 2.876 32.568
v 40.005 2.915 29.992
v 33.595 2.978 35.892
f 1065 1066 1067 1068
v 41.872 2.874 32.892
v 49.392 2.813 29.712
v 48.028 2.837 26.488
v 40.508 2.908 29.668
f 1069 1070 1071 1072
v 49.384 2.813 29.715
v 58.344 2.759 25.975
v 56.996 2.813 22.745
v 48.036 2.837 26.485
f 1073 1074 1075 1076
v 58.798 2.759 25.698
v 63.568 2.736 21.678
v 61.312 2.762 19.002
v 56.542 2.851 23.022
f 1077 1078 1079 1080
v 64.084 2.728 20.941
v 66.834 2.717 13.421
v 63.546 2.792 12.219
v 60.796 2.761 19.739
f 1081 1082 1083 1084
v 66.938 2.707 12.893
v 67.268 2.273 5.023
v 63.772 2.491 4.877
v 63.442 2.788 12.747
f 1085 1086 1087 1088
v -153.049 3.006 164.801
v -150.349 2.956 163.851
v -151.511 2.924 160.549
v -154.211 2.937 161.499
f 1089 1090 1091 1092
v -149.838 2.950 163.568
v -147.608 2.935 161.788
v -149.792 2.934 159.052
v -152.022 2.925 160.832
f 1093 1094 1095 1096
v -147.220 2.933 161.353
v -145.770 2.967 159.053
v -148.730 2.947 157.187
v -150.180 2.930 159.487
f 1097 1098 1099 1100
v -145.549 2.982 158.532
v -144.909 3.047 155.892
v -148.311 2.955 155.068
v -148.951 2.942 157.708
f 1101 1102 1103 1104
v -144.866 3.051 155.331
v -145.096 3.038 152.641
v -148.584 2.960 152.939
v -148.354 2.953 155.629
f 1105 1106 1107 1108
v -145.232 3.024 152.099
v -146.302 2.984 149.609
v -149.518 2.968 150.991
v -148.448 2.959 153.481
f 1109 1110 1111 1112
v -146.613 2.981 149.125
v -148.443 2.990 147.105
v -151.037 2.967 149.455
v -149.207 2.965 151.475
f 1113 1114 1115 1116
v -148.874 3.003 146.759
v -151.244 3.017 145.409
v -152.976 2.977 148.451
v -150.606 2.969 149.801
f 1117 1118 1119 1120
v -151.783 3.013 145.211
v -154.463 2.976 144.701
v -155.117 2.989 148.139
v -152.437 2.975 148.649
f 1121 1122 1123 1124
v -155.015 2.964 144.685
v -157.715 2.933 145.035
v -157.265 2.977 148.505
v -154.565 2.987 148.155
f 1125 1126 1127 1128
v -158.250 2.931 145.194
v -160.740 2.994 146.394
v -159.220 2.967 149.546
v -156.730 2.982 148.346
f 1129 1130 1131 1132
v -161.214 3.014 146.729
v -163.174 3.060 148.679
v -160.706 2.983 151.161
v -158.746 2.957 149.211
f 1133 1134 1135 1136
v -163.507 3.048 149.140
v -164.737 2.922 151.610
v -161.603 3.012 153.170
v -160.373 2.984 150.700
f 1137 1138 1139 1140
v -164.907 2.904 152.175
v -165.257 2.864 155.005
v -161.783 3.012 155.435
v -161.433 3.005 152.605
f 1141 1142 1143 1144
v -165.231 2.860 155.589
v -164.631 2.881 158.369
v -161.209 2.973 157.631
v -161.809 3.023 154.851
f 1145 1146 1147 1148
v -164.403 2.891 158.929
v -162.893 2.909 161.339
v -159.927 2.961 159.481
v -161.437 2.977 157.071
f 1149 1150 1151 1152
v -162.508 2.921 161.772
v -160.288 2.969 163.562
v -158.092 2.943 160.838
v -160.312 2.960 159.048
f 1153 1154 1155 1156
v -159.765 2.971 163.853
v -157.065 2.929 164.793
v -155.915 2.938 161.487
v -158.615 2.951 160.547
f 1157 1158 1159 1160
v -156.496 2.947 164.890
v -153.636 3.007 164.900
v -153.624 2.935 161.400
v -156.484 2.938 161.390
f 1161 1162 1163 1164
v -93.389 3.038 -17.631
v -94.459 3.052 -19.811
v -97.601 3.104 -18.269
v -96.531 3.090 -16.089
f 1165 1166 1167 1168
v -94.775 3.057 -20.259
v -96.475 3.070 -22.009
v -98.985 3.119 -19.571
v -97.285 3.099 -17.821
f 1169 1170 1171 1172
v -96.925 3.070 -22.344
v -99.105 3.065 -23.474
v -100.715 3.138 -20.366
v -98.535 3.116 -19.236
f 1173 1174 1175 1176
v -99.601 3.065 -23.643
v -102.001 3.053 -24.073
v -102.619 3.163 -20.627
v -100.219 3.132 -20.197
f 1177 1178 1179 1180
v -102.559 3.051 -24.082
v -104.989 3.035 -23.732
v -104.491 3.160 -20.268
v -102.061 3.153 -20.618
f 1181 1182 1183 1184
v -105.466 3.033 -23.592
v -107.286 3.035 -22.762
v -105.834 3.150 -19.578
v -104.014 3.163 -20.408
f 1185 1186 1187 1188
v -107.674 3.036 -22.519
v -109.224 3.033 -21.239
v -106.996 3.137 -18.541
v -105.446 3.154 -19.821
f 1189 1190 1191 1192
v -109.526 3.034 -20.919
v -110.696 3.021 -19.309
v -107.864 3.134 -17.251
v -106.694 3.140 -18.861
f 1193 1194 1195 1196
v -110.913 3.015 -18.909
v -111.633 3.012 -17.039
v -108.367 3.141 -15.781
v -107.647 3.134 -17.651
f 1197 1198 1199 1200
v -111.739 3.012 -16.603
v -111.959 3.012 -14.623
v -108.481 3.152 -14.237
v -108.261 3.138 -16.217
f 1201 1202 1203 1204
v -111.951 3.012 -14.175
v -111.661 3.015 -12.205
v -108.199 3.161 -12.715
v -108.489 3.150 -14.685
f 1205 1206 1207 1208
v -111.513 3.017 -11.715
v -110.463 3.052 -9.485
v -107.297 3.134 -10.975
v -108.347 3.163 -13.205
f 1209 1210 1211 1212
v -110.149 3.054 -9.025
v -108.449 3.106 -7.235
v -105.911 3.114 -9.645
v -107.611 3.140 -11.435
f 1213 1214 1215 1216
v -108.010 3.112 -6.899
v -105.820 3.144 -5.719
v -104.160 3.101 -8.801
v -106.350 3.121 -9.981
f 1217 1218 1219 1220
v -105.288 3.141 -5.536
v -102.858 3.128 -5.116
v -102.262 3.111 -8.564
v -104.692 3.094 -8.984
f 1221 1222 1223 1224
v -102.313 3.110 -5.107
v -99.853 3.071 -5.457
v -100.347 3.098 -8.923
v -102.807 3.115 -8.573
f 1225 1226 1227 1228
v -99.335 3.074 -5.616
v -97.155 3.121 -6.676
v -98.685 3.100 -9.824
v -100.865 3.105 -8.764
f 1229 1230 1231 1232
v -96.701 3.123 -6.995
v -94.961 3.104 -8.685
v -97.399 3.088 -11.195
v -99.139 3.097 -9.505
f 1233 1234 1235 1236
v -94.637 3.107 -9.114
v -93.497 3.121 -11.244
v -96.583 3.081 -12.896
v -97.723 3.096 -10.766
f 1237 1238 1239 1240
v -93.316 3.113 -11.767
v -92.896 3.068 -14.157
v -96.344 3.088 -14.763
v -96.764 3.079 -12.373
f 1241 1242 1243 1244
v -92.887 3.061 -14.705
v -93.227 3.036 -17.105
v -96.693 3.092 -16.615
v -96.353 3.085 -14.215
f 1245 1246 1247 1248
v -103.057 3.074 -22.481
v -117.507 2.348 -73.051
v -120.873 2.283 -72.089
v -106.423 3.075 -21.519
f 1249 1250 1251 1252
v -117.668 2.337 -73.434
v -121.688 2.162 -80.514
v -124.732 2.150 -78.786
v -120.712 2.291 -71.706
f 1253 1254 1255 1256
v -94.430 3.044 -15.192
v -8.720 2.806 -42.412
v -9.780 2.777 -45.748
v -95.490 3.037 -18.528
f 1257 1258 1259 1260
v -9.239 2.801 -42.330
v 3.181 2.737 -42.410
v 3.159 2.703 -45.910
v -9.261 2.777 -45.830
f 1261 1262 1263 1264
v 2.381 2.745 -42.598
v 13.501 2.787 -36.978
v 15.079 2.793 -40.102
v 3.959 2.701 -45.722
f 1265 1266 1267 1268
v 12.697 2.772 -37.815
v 15.397 2.845 -31.885
v 18.583 2.853 -33.335
v 15.883 2.800 -39.265
f 1269 1270 1271 1272
v 15.241 2.840 -32.560
v 15.691 2.955 -16.750
v 19.189 2.982 -16.850
v 18.739 2.856 -32.660
f 1273 1274 1275 1276
v 15.717 2.952 -16.492
v 16.347 2.929 -12.972
v 19.793 2.945 -13.588
v 19.163 2.985 -17.108
f 1277 1278 1279 1280
v 16.347 2.929 -12.971
v 18.477 2.912 -1.081
v 21.923 2.951 -1.699
v 19.793 2.945 -13.589
f 1281 1282 1283 1284
v 18.473 2.912 -1.107
v 20.043 2.910 8.483
v 23.497 2.917 7.917
v 21.927 2.951 -1.673
f 1285 1286 1287 1288
v 20.025 2.915 8.061
v 19.585 2.882 13.601
v 23.075 2.902 13.879
v 23.515 2.911 8.339
f 1289 1290 1291 1292
v 19.631 2.881 13.321
v 17.621 2.933 21.471
v 21.019 2.984 22.309
v 23.029 2.906 14.159
f 1293 1294 1295 1296
v 17.689 2.934 21.256
v 12.339 2.902 35.026
v 15.601 2.938 36.294
v 20.951 2.984 22.524
f 1297 1298 1299 1300
v 12.358 2.902 34.980
v 4.298 2.962 54.080
v 7.522 2.948 55.440
v 15.582 2.938 36.340
f 1301 1302 1303 1304
v 4.241 2.964 54.233
v -2.639 3.136 76.023
v 0.699 3.185 77.077
v 7.579 2.948 55.287
f 1305 1306 1307 1308
v -2.664 3.138 76.112
v -5.124 3.316 85.632
v -1.736 3.329 86.508
v 0.724 3.185 76.988
f 1309 1310 1311 1312
v -5.155 3.318 85.775
v -14.525 3.289 140.605
v -11.075 3.317 141.195
v -1.705 3.327 86.365
f 1313 1314 1315 1316
v -14.445 3.290 140.302
v -16.265 3.261 145.312
v -12.975 3.281 146.508
v -11.155 3.316 141.498
f 1317 1318 1319 1320
v -16.264 3.261 145.311
v -18.824 3.221 152.341
v -15.536 3.230 153.539
v -12.976 3.281 146.509
f 1321 1322 1323 1324
v -18.248 3.225 151.554
v -31.958 3.273 162.114
v -29.822 3.290 164.886
v -16.112 3.235 154.326
f 1325 1326 1327 1328
v -31.584 3.274 161.893
v -53.094 3.261 171.183
v -51.706 3.287 174.397
v -30.196 3.286 165.107
f 1329 1330 1331 1332
v -52.707 3.258 171.067
v -79.517 3.322 175.847
v -78.903 3.306 179.293
v -52.093 3.289 174.513
f 1333 1334 1335 1336
v -79.092 3.323 175.824
v -109.372 3.091 173.774
v -109.608 3.171 177.266
v -79.328 3.314 179.316
f 1337 1338 1339 1340
v -108.979 3.095 173.846
v -133.079 2.959 166.486
v -134.101 3.034 169.834
v -110.001 3.167 177.194
f 1341 1342 1343 1344
v -132.792 2.957 166.602
v -147.902 2.942 158.862
v -149.498 2.932 161.978
v -134.388 3.035 169.718
f 1345 1346 1347 1348
v 54.830 2.807 -27.301
v 17.520 2.936 -14.941
v 18.620 2.938 -11.619
v 55.930 2.752 -23.979
f 1349 1350 1351 1352
v -205.734 3.132 31.018
v -204.304 3.136 29.658
v -206.716 2.991 27.122
v -208.146 3.067 28.482
f 1353 1354 1355 1356
v -203.911 3.132 29.101
v -203.111 3.097 27.301
v -206.309 2.935 25.879
v -207.109 3.014 27.679
f 1357 1358 1359 1360
v -202.961 3.084 26.643
v -202.901 3.034 24.663
v -206.399 2.902 24.557
v -206.459 2.966 26.537
f 1361 1362 1363 1364
v -203.019 3.017 23.975
v -203.739 2.990 22.125
v -207.001 2.936 23.395
v -206.281 2.902 25.245
f 1365 1366 1367 1368
v -204.111 2.989 21.545
v -205.481 2.996 20.125
v -207.999 3.001 22.555
v -206.629 2.919 23.975
f 1369 1370 1371 1372
v -206.036 3.000 19.738
v -207.856 3.009 18.938
v -209.264 3.037 22.142
v -207.444 2.977 22.942
f 1373 1374 1375 1376
v -208.524 3.006 18.790
v -210.494 2.993 18.750
v -210.566 3.093 22.250
v -208.596 3.018 22.290
f 1377 1378 1379 1380
v -211.154 2.988 18.865
v -213.014 2.986 19.575
v -211.766 3.124 22.845
v -209.906 3.061 22.135
f 1381 1382 1383 1384
v -213.592 2.983 19.938
v -215.032 2.964 21.298
v -212.628 3.127 23.842
v -211.188 3.121 22.482
f 1385 1386 1387 1388
v -215.429 2.967 21.859
v -216.229 2.978 23.659
v -213.031 3.139 25.081
v -212.231 3.125 23.281
f 1389 1390 1391 1392
v -216.380 2.982 24.335
v -216.420 2.993 26.315
v -212.920 3.104 26.385
v -212.880 3.132 24.405
f 1393 1394 1395 1396
v -216.302 2.997 26.983
v -215.592 3.027 28.813
v -212.328 3.102 27.547
v -213.038 3.119 25.717
f 1397 1398 1399 1400
v -215.228 3.047 29.386
v -213.858 3.094 30.826
v -211.322 3.097 28.414
v -212.692 3.099 26.974
f 1401 1402 1403 1404
v -213.297 3.106 31.221
v -211.487 3.130 32.021
v -210.073 3.074 28.819
v -211.883 3.101 28.019
f 1405 1406 1407 1408
v -210.815 3.130 32.170
v -208.825 3.120 32.210
v -208.755 3.073 28.710
v -210.745 3.085 28.670
f 1409 1410 1411 1412
v -208.163 3.120 32.094
v -206.313 3.124 31.384
v -207.567 3.048 28.116
v -209.417 3.073 28.826
f 1413 1414 1415 1416
v -214.039 3.027 22.723
v -217.859 2.923 21.353
v -219.041 2.951 24.647
v -215.221 3.008 26.017
f 1417 1418 1419 1420
v -217.392 2.933 21.606
v -221.952 2.852 18.146
v -224.068 2.845 20.934
v -219.508 2.942 24.394
f 1421 1422 1423 1424
v -221.413 2.849 18.824
v -226.633 2.745 7.174
v -229.827 2.670 8.606
v -224.607 2.824 20.256
f 1425 1426 1427 1428
v -226.562 2.748 7.360
v -233.892 2.476 -15.700
v -237.228 2.479 -14.640
v -229.898 2.669 8.420
f 1429 1430 1431 1432
v -155.740 2.944 146.763
v -155.800 3.163 130.923
v -159.300 2.954 130.937
v -159.240 2.924 146.777
f 1433 1434 1435 1436
v -155.811 3.166 130.733
v -157.581 3.369 115.083
v -161.059 3.043 115.477
v -159.289 2.955 131.127
f 1437 1438 1439 1440
v -157.667 3.357 114.707
v -171.557 3.232 74.637
v -174.863 3.158 75.783
v -160.973 3.039 115.853
f 1441 1442 1443 1444
v -171.665 3.233 74.388
v -186.925 3.251 45.728
v -190.015 3.303 47.372
v -174.755 3.158 76.032
f 1445 1446 1447 1448
v -187.194 3.258 45.353
v -204.234 3.061 27.193
v -206.786 3.084 29.587
v -189.746 3.299 47.747
f 1449 1450 1451 1452
v -96.977 3.086 2.316
v -118.887 3.139 8.526
v -117.933 3.119 11.894
v -96.023 3.092 5.684
f 1453 1454 1455 1456
usemtl asphalt
