# Baked ultra-low Key West silhouette; generated by bake_key_west_far_city.py
mtllib far_city.mtl
usemtl massing
v 188.933 1.768 41.558
v 191.152 1.768 53.930
v 183.947 1.768 55.222
v 181.728 1.768 42.850
v 188.933 5.668 41.558
v 191.152 5.668 53.930
v 183.947 5.668 55.222
v 181.728 5.668 42.850
f 8 7 6 5
f 1 2 6 5
f 2 3 7 6
f 3 4 8 7
f 4 1 5 8
v 191.508 1.284 -82.894
v 194.956 1.284 -76.688
v 189.912 1.284 -73.886
v 186.464 1.284 -80.092
v 191.508 5.184 -82.894
v 194.956 5.184 -76.688
v 189.912 5.184 -73.886
v 186.464 5.184 -80.092
f 16 15 14 13
f 9 10 14 13
f 10 11 15 14
f 11 12 16 15
f 12 9 13 16
v 201.991 1.288 -101.974
v 205.400 1.288 -95.769
v 200.369 1.288 -93.006
v 196.960 1.288 -99.211
v 201.991 5.188 -101.974
v 205.400 5.188 -95.769
v 200.369 5.188 -93.006
v 196.960 5.188 -99.211
f 24 23 22 21
f 17 18 22 21
f 18 19 23 22
f 19 20 24 23
f 20 17 21 24
v 214.111 1.268 -126.030
v 217.570 1.268 -119.818
v 212.529 1.268 -117.010
v 209.070 1.268 -123.222
v 214.111 5.168 -126.030
v 217.570 5.168 -119.818
v 212.529 5.168 -117.010
v 209.070 5.168 -123.222
f 32 31 30 29
f 25 26 30 29
f 26 27 31 30
f 27 28 32 31
f 28 25 29 32
v 224.440 1.554 -143.629
v 229.970 1.554 -132.609
v 223.160 1.554 -129.191
v 217.630 1.554 -140.211
v 224.440 5.454 -143.629
v 229.970 5.454 -132.609
v 223.160 5.454 -129.191
v 217.630 5.454 -140.211
f 40 39 38 37
f 33 34 38 37
f 34 35 39 38
f 35 36 40 39
f 36 33 37 40
v 248.260 1.702 -131.449
v 253.790 1.702 -120.429
v 246.980 1.702 -117.011
v 241.450 1.702 -128.031
v 248.260 5.602 -131.449
v 253.790 5.602 -120.429
v 246.980 5.602 -117.011
v 241.450 5.602 -128.031
f 48 47 46 45
f 41 42 46 45
f 42 43 47 46
f 43 44 48 47
f 44 41 45 48
v 239.936 1.248 -176.509
v 243.358 1.248 -170.311
v 238.324 1.248 -167.531
v 234.902 1.248 -173.729
v 239.936 5.148 -176.509
v 243.358 5.148 -170.311
v 238.324 5.148 -167.531
v 234.902 5.148 -173.729
f 56 55 54 53
f 49 50 54 53
f 50 51 55 54
f 51 52 56 55
f 52 49 53 56
usemtl road
v 148.032 1.937 253.872
v 147.032 1.939 249.702
v 143.628 1.960 250.518
v 144.628 1.960 254.688
f 57 58 59 60
v 147.075 1.939 249.975
v 146.685 1.936 244.935
v 143.195 1.936 245.205
v 143.585 1.958 250.245
f 61 62 63 64
v 146.679 1.936 245.262
v 147.479 1.912 238.022
v 144.001 1.918 237.638
v 143.201 1.935 244.878
f 65 66 67 68
v 147.463 1.913 238.134
v 193.593 1.960 -23.136
v 190.147 1.888 -23.744
v 144.017 1.917 237.526
f 69 70 71 72
v 193.566 1.960 -23.010
v 196.016 1.976 -32.670
v 192.624 1.929 -33.530
v 190.174 1.888 -23.870
f 73 74 75 76
v 195.978 1.976 -32.541
v 198.528 2.001 -40.101
v 195.212 1.980 -41.219
v 192.662 1.930 -33.659
f 77 78 79 80
v 198.487 2.001 -39.991
v 201.477 1.984 -47.221
v 198.243 1.996 -48.559
v 195.253 1.980 -41.329
f 81 82 83 84
v 201.408 1.984 -47.075
v 257.548 1.892 -153.691
v 254.452 1.923 -155.322
v 198.312 1.996 -48.705
f 85 86 87 88
usemtl asphalt
