# Baked ultra-low Key West silhouette; generated by bake_key_west_far_city.py
mtllib far_city.mtl
usemtl massing
v 77.571 1.838 200.205
v 78.214 1.838 204.689
v 73.849 1.838 205.315
v 73.206 1.838 200.831
v 77.571 5.738 200.205
v 78.214 5.738 204.689
v 73.849 5.738 205.315
v 73.206 5.738 200.831
f 8 7 6 5
f 1 2 6 5
f 2 3 7 6
f 3 4 8 7
f 4 1 5 8
v 182.723 2.258 189.399
v 183.187 2.258 183.337
v 186.637 2.258 183.601
v 186.173 2.258 189.663
v 182.723 6.158 189.399
v 183.187 6.158 183.337
v 186.637 6.158 183.601
v 186.173 6.158 189.663
f 16 15 14 13
f 9 10 14 13
f 10 11 15 14
f 11 12 16 15
f 12 9 13 16
v 187.070 2.237 189.203
v 187.323 2.237 183.038
v 190.710 2.237 183.177
v 190.457 2.237 189.342
v 187.070 6.137 189.203
v 187.323 6.137 183.038
v 190.710 6.137 183.177
v 190.457 6.137 189.342
f 24 23 22 21
f 17 18 22 21
f 18 19 23 22
f 19 20 24 23
f 20 17 21 24
v 186.671 2.315 180.722
v 190.834 2.315 180.962
v 190.689 2.315 183.458
v 186.526 2.315 183.218
v 186.671 6.215 180.722
v 190.834 6.215 180.962
v 190.689 6.215 183.458
v 186.526 6.215 183.218
f 32 31 30 29
f 25 26 30 29
f 26 27 31 30
f 27 28 32 31
f 28 25 29 32
v 179.014 2.257 189.620
v 179.485 2.257 183.548
v 182.726 2.257 183.800
v 182.255 2.257 189.872
v 179.014 6.157 189.620
v 179.485 6.157 183.548
v 182.726 6.157 183.800
v 182.255 6.157 189.872
f 40 39 38 37
f 33 34 38 37
f 34 35 39 38
f 35 36 40 39
f 36 33 37 40
v 239.703 1.500 67.086
v 240.744 1.500 64.813
v 243.017 1.500 65.854
v 241.976 1.500 68.127
v 239.703 5.400 67.086
v 240.744 5.400 64.813
v 243.017 5.400 65.854
v 241.976 5.400 68.127
f 48 47 46 45
f 41 42 46 45
f 42 43 47 46
f 43 44 48 47
f 44 41 45 48
v 236.057 1.307 57.408
v 243.517 1.307 57.502
v 243.423 1.307 64.932
v 235.963 1.307 64.838
v 236.057 5.207 57.408
v 243.517 5.207 57.502
v 243.423 5.207 64.932
v 235.963 5.207 64.838
f 56 55 54 53
f 49 50 54 53
f 50 51 55 54
f 51 52 56 55
f 52 49 53 56
v 239.842 1.604 -149.009
v 243.789 1.604 -153.894
v 247.678 1.604 -150.751
v 243.731 1.604 -145.866
v 239.842 5.504 -149.009
v 243.789 5.504 -153.894
v 247.678 5.504 -150.751
v 243.731 5.504 -145.866
f 64 63 62 61
f 57 58 62 61
f 58 59 63 62
f 59 60 64 63
f 60 57 61 64
usemtl road
v 248.943 1.900 -130.687
v 153.673 1.923 -249.047
v 150.947 1.923 -246.853
v 246.217 1.930 -128.493
f 65 66 67 68
v 153.750 1.923 -248.945
v 149.950 1.924 -254.445
v 147.070 1.936 -252.455
v 150.870 1.923 -246.955
f 69 70 71 72
v 150.069 1.924 -254.246
v 148.767 1.931 -256.796
v 145.650 1.951 -255.204
v 146.951 1.936 -252.654
f 73 74 75 76
v 244.698 2.334 239.883
v 213.568 2.339 233.763
v 212.892 2.325 237.197
v 244.022 2.294 243.317
f 77 78 79 80
v 212.932 2.343 233.756
v 206.052 2.377 234.946
v 206.648 2.336 238.394
v 213.528 2.322 237.204
f 81 82 83 84
v 205.072 2.383 235.474
v 203.472 2.379 237.184
v 206.028 2.335 239.576
v 207.628 2.336 237.866
f 85 86 87 88
v 203.476 2.379 237.180
v 201.386 2.372 239.400
v 203.934 2.328 241.800
v 206.024 2.335 239.580
f 89 90 91 92
v 201.028 2.370 239.968
v 198.488 2.375 246.528
v 201.752 2.288 247.792
v 204.292 2.326 241.232
f 93 94 95 96
v 198.429 2.366 247.611
v 200.289 2.273 254.591
v 203.671 2.251 253.689
v 201.811 2.296 246.709
f 97 98 99 100
v 205.942 2.350 237.098
v 198.412 2.495 230.098
v 196.028 2.520 232.662
v 203.558 2.342 239.662
f 101 102 103 104
v 197.786 2.504 229.724
v 164.376 2.592 218.314
v 163.244 2.576 221.626
v 196.654 2.505 233.036
f 105 106 107 108
v 164.383 2.592 218.316
v 159.593 2.563 216.656
v 158.447 2.525 219.964
v 163.237 2.575 221.624
f 109 110 111 112
v 159.070 2.559 216.561
v 149.990 2.473 216.301
v 149.890 2.436 219.799
v 158.970 2.529 220.059
f 113 114 115 116
v 149.991 2.473 216.301
v 109.991 2.210 215.131
v 109.889 2.237 218.629
v 149.889 2.436 219.799
f 117 118 119 120
v 111.020 2.215 215.503
v 103.060 2.176 209.263
v 100.900 2.200 212.017
v 108.860 2.239 218.257
f 121 122 123 124
v 103.705 2.182 210.343
v 101.915 2.367 199.943
v 98.465 2.379 200.537
v 100.255 2.199 210.937
f 125 126 127 128
v 101.698 2.338 201.129
v 106.998 2.446 192.139
v 103.982 2.454 190.361
v 98.682 2.393 199.351
f 129 130 131 132
v 105.420 2.440 192.999
v 140.490 2.308 194.399
v 140.630 2.280 190.901
v 105.560 2.460 189.501
f 133 134 135 136
v 138.918 2.292 193.256
v 148.298 2.414 218.656
v 151.582 2.478 217.444
v 142.202 2.288 192.044
f 137 138 139 140
usemtl asphalt
