# Baked ultra-low Key West silhouette; generated by bake_key_west_far_city.py
mtllib far_city.mtl
usemtl massing
v -202.975 0.729 -23.659
v -182.394 0.729 -26.805
v -180.345 0.729 -13.401
v -200.926 0.729 -10.255
v -202.975 4.629 -23.659
v -182.394 4.629 -26.805
v -180.345 4.629 -13.401
v -200.926 4.629 -10.255
f 8 7 6 5
f 1 2 6 5
f 2 3 7 6
f 3 4 8 7
f 4 1 5 8
v -204.497 0.654 -36.614
v -197.546 0.654 -43.678
v -190.603 0.654 -36.846
v -197.554 0.654 -29.782
v -204.497 4.554 -36.614
v -197.546 4.554 -43.678
v -190.603 4.554 -36.846
v -197.554 4.554 -29.782
f 16 15 14 13
f 9 10 14 13
f 10 11 15 14
f 11 12 16 15
f 12 9 13 16
v -185.881 0.595 -39.499
v -173.882 0.595 -38.779
v -174.599 0.595 -26.841
v -186.598 0.595 -27.561
v -185.881 4.495 -39.499
v -173.882 4.495 -38.779
v -174.599 4.495 -26.841
v -186.598 4.495 -27.561
f 24 23 22 21
f 17 18 22 21
f 18 19 23 22
f 19 20 24 23
f 20 17 21 24
v 18.864 0.877 -170.345
v 39.759 0.877 -157.939
v 34.236 0.877 -148.635
v 13.341 0.877 -161.041
v 18.864 4.777 -170.345
v 39.759 4.777 -157.939
v 34.236 4.777 -148.635
v 13.341 4.777 -161.041
f 32 31 30 29
f 25 26 30 29
f 26 27 31 30
f 27 28 32 31
f 28 25 29 32
v -13.459 2.259 -137.600
v -1.195 2.259 -159.063
v 9.519 2.259 -152.940
v -2.745 2.259 -131.477
v -13.459 9.059 -137.600
v -1.195 9.059 -159.063
v 9.519 9.059 -152.940
v -2.745 9.059 -131.477
f 40 39 38 37
f 33 34 38 37
f 34 35 39 38
f 35 36 40 39
f 36 33 37 40
v 72.364 0.646 -179.307
v 96.116 0.646 -220.696
v 110.236 0.646 -212.593
v 86.484 0.646 -171.204
v 72.364 4.146 -179.307
v 96.116 4.146 -220.696
v 110.236 4.146 -212.593
v 86.484 4.146 -171.204
f 48 47 46 45
f 41 42 46 45
f 42 43 47 46
f 43 44 48 47
f 44 41 45 48
v 17.638 1.362 -77.353
v 48.949 1.362 -98.152
v 68.442 1.362 -68.807
v 37.131 1.362 -48.008
v 17.638 7.162 -77.353
v 48.949 7.162 -98.152
v 68.442 7.162 -68.807
v 37.131 7.162 -48.008
f 56 55 54 53
f 49 50 54 53
f 50 51 55 54
f 51 52 56 55
f 52 49 53 56
v -154.009 0.788 81.230
v -98.804 0.788 16.294
v -80.671 0.788 31.710
v -135.876 0.788 96.646
v -154.009 9.088 81.230
v -98.804 9.088 16.294
v -80.671 9.088 31.710
v -135.876 9.088 96.646
f 64 63 62 61
f 57 58 62 61
f 58 59 63 62
f 59 60 64 63
f 60 57 61 64
v -57.385 1.596 98.908
v -53.360 1.596 133.404
v -77.595 1.596 136.232
v -81.620 1.596 101.736
v -57.385 7.396 98.908
v -53.360 7.396 133.404
v -77.595 7.396 136.232
v -81.620 7.396 101.736
f 72 71 70 69
f 65 66 70 69
f 66 67 71 70
f 67 68 72 71
f 68 65 69 72
v -76.221 1.614 194.367
v -65.257 1.614 140.216
v -16.379 1.614 150.113
v -27.343 1.614 204.264
v -76.221 9.914 194.367
v -65.257 9.914 140.216
v -16.379 9.914 150.113
v -27.343 9.914 204.264
f 80 79 78 77
f 73 74 78 77
f 74 75 79 78
f 75 76 80 79
f 76 73 77 80
v -270.051 0.393 43.513
v -251.958 0.393 17.935
v -236.929 0.393 28.567
v -255.022 0.393 54.145
v -270.051 7.193 43.513
v -251.958 7.193 17.935
v -236.929 7.193 28.567
v -255.022 7.193 54.145
f 88 87 86 85
f 81 82 86 85
f 82 83 87 86
f 83 84 88 87
f 84 81 85 88
v -227.090 0.786 30.553
v -206.323 0.786 1.835
v -185.150 0.786 17.147
v -205.917 0.786 45.865
v -227.090 6.586 30.553
v -206.323 6.586 1.835
v -185.150 6.586 17.147
v -205.917 6.586 45.865
f 96 95 94 93
f 89 90 94 93
f 90 91 95 94
f 91 92 96 95
f 92 89 93 96
v -196.976 0.497 94.074
v -164.208 0.497 46.922
v -146.044 0.497 59.546
v -178.812 0.497 106.698
v -196.976 7.297 94.074
v -164.208 7.297 46.922
v -146.044 7.297 59.546
v -178.812 7.297 106.698
f 104 103 102 101
f 97 98 102 101
f 98 99 103 102
f 99 100 104 103
f 100 97 101 104
v -174.583 0.806 -3.405
v -147.770 0.806 14.570
v -158.077 0.806 29.945
v -184.890 0.806 11.970
v -174.583 6.606 -3.405
v -147.770 6.606 14.570
v -158.077 6.606 29.945
v -184.890 6.606 11.970
f 112 111 110 109
f 105 106 110 109
f 106 107 111 110
f 107 108 112 111
f 108 105 109 112
v -237.012 0.843 -162.920
v -208.815 0.843 -214.369
v -166.468 0.843 -191.160
v -194.665 0.843 -139.711
v -237.012 6.643 -162.920
v -208.815 6.643 -214.369
v -166.468 6.643 -191.160
v -194.665 6.643 -139.711
f 120 119 118 117
f 113 114 118 117
f 114 115 119 118
f 115 116 120 119
f 116 113 117 120
v -244.836 1.220 -228.470
v -205.699 1.220 -213.960
v -208.484 1.220 -206.450
v -247.621 1.220 -220.960
v -244.836 5.120 -228.470
v -205.699 5.120 -213.960
v -208.484 5.120 -206.450
v -247.621 5.120 -220.960
f 128 127 126 125
f 121 122 126 125
f 122 123 127 126
f 123 124 128 127
f 124 121 125 128
v -195.362 1.101 -191.673
v -134.801 1.101 -242.883
v -114.578 1.101 -218.967
v -175.139 1.101 -167.757
v -195.362 6.901 -191.673
v -134.801 6.901 -242.883
v -114.578 6.901 -218.967
v -175.139 6.901 -167.757
f 136 135 134 133
f 129 130 134 133
f 130 131 135 134
f 131 132 136 135
f 132 129 133 136
v -184.696 1.071 -152.796
v -157.216 1.071 -132.070
v -166.844 1.071 -119.304
v -194.324 1.071 -140.030
v -184.696 4.971 -152.796
v -157.216 4.971 -132.070
v -166.844 4.971 -119.304
v -194.324 4.971 -140.030
f 144 143 142 141
f 137 138 142 141
f 138 139 143 142
f 139 140 144 143
f 140 137 141 144
v 241.288 0.690 227.585
v 256.098 0.690 218.413
v 259.852 0.690 224.475
v 245.042 0.690 233.647
v 241.288 4.590 227.585
v 256.098 4.590 218.413
v 259.852 4.590 224.475
v 245.042 4.590 233.647
f 152 151 150 149
f 145 146 150 149
f 146 147 151 150
f 147 148 152 151
f 148 145 149 152
v 248.422 0.363 235.686
v 251.554 0.363 236.593
v 250.858 0.363 238.994
v 247.726 0.363 238.087
v 248.422 4.263 235.686
v 251.554 4.263 236.593
v 250.858 4.263 238.994
v 247.726 4.263 238.087
f 160 159 158 157
f 153 154 158 157
f 154 155 159 158
f 155 156 160 159
f 156 153 157 160
v 226.647 0.367 184.884
v 240.095 0.367 173.484
v 242.733 0.367 176.596
v 229.285 0.367 187.996
v 226.647 4.267 184.884
v 240.095 4.267 173.484
v 242.733 4.267 176.596
v 229.285 4.267 187.996
f 168 167 166 165
f 161 162 166 165
f 162 163 167 166
f 163 164 168 167
f 164 161 165 168
v 239.855 0.431 182.859
v 242.646 0.431 180.538
v 244.245 0.431 182.461
v 241.454 0.431 184.782
v 239.855 4.331 182.859
v 242.646 4.331 180.538
v 244.245 4.331 182.461
v 241.454 4.331 184.782
f 176 175 174 173
f 169 170 174 173
f 170 171 175 174
f 171 172 176 175
f 172 169 173 176
v 236.863 0.389 181.232
v 251.378 0.389 168.618
v 253.837 0.389 171.448
v 239.322 0.389 184.062
v 236.863 4.289 181.232
v 251.378 4.289 168.618
v 253.837 4.289 171.448
v 239.322 4.289 184.062
f 184 183 182 181
f 177 178 182 181
f 178 179 183 182
f 179 180 184 183
f 180 177 181 184
v 253.767 0.367 177.231
v 258.033 0.367 178.532
v 256.673 0.367 182.989
v 252.407 0.367 181.688
v 253.767 4.267 177.231
v 258.033 4.267 178.532
v 256.673 4.267 182.989
v 252.407 4.267 181.688
f 192 191 190 189
f 185 186 190 189
f 186 187 191 190
f 187 188 192 191
f 188 185 189 192
v 228.198 0.393 200.926
v 241.366 0.393 191.661
v 245.682 0.393 197.794
v 232.514 0.393 207.059
v 228.198 4.293 200.926
v 241.366 4.293 191.661
v 245.682 4.293 197.794
v 232.514 4.293 207.059
f 200 199 198 197
f 193 194 198 197
f 194 195 199 198
f 195 196 200 199
f 196 193 197 200
v 241.274 0.359 198.589
v 254.919 0.359 187.175
v 257.326 0.359 190.051
v 243.681 0.359 201.465
v 241.274 4.259 198.589
v 254.919 4.259 187.175
v 257.326 4.259 190.051
v 243.681 4.259 201.465
f 208 207 206 205
f 201 202 206 205
f 202 203 207 206
f 203 204 208 207
f 204 201 205 208
v -86.567 1.588 -48.753
v -75.697 1.588 -60.398
v -66.793 1.588 -52.087
v -77.663 1.588 -40.442
v -86.567 5.488 -48.753
v -75.697 5.488 -60.398
v -66.793 5.488 -52.087
v -77.663 5.488 -40.442
f 216 215 214 213
f 209 210 214 213
f 210 211 215 214
f 211 212 216 215
f 212 209 213 216
v 62.425 0.718 36.086
v 81.169 0.718 46.118
v 74.255 0.718 59.034
v 55.511 0.718 49.002
v 62.425 4.618 36.086
v 81.169 4.618 46.118
v 74.255 4.618 59.034
v 55.511 4.618 49.002
f 224 223 222 221
f 217 218 222 221
f 218 219 223 222
f 219 220 224 223
f 220 217 221 224
v 73.361 0.791 45.162
v 82.228 0.791 24.679
v 96.039 0.791 30.658
v 87.172 0.791 51.141
v 73.361 4.691 45.162
v 82.228 4.691 24.679
v 96.039 4.691 30.658
v 87.172 4.691 51.141
f 232 231 230 229
f 225 226 230 229
f 226 227 231 230
f 227 228 232 231
f 228 225 229 232
v 88.056 0.785 39.003
v 95.725 0.785 16.980
v 108.984 0.785 21.597
v 101.315 0.785 43.620
v 88.056 4.685 39.003
v 95.725 4.685 16.980
v 108.984 4.685 21.597
v 101.315 4.685 43.620
f 240 239 238 237
f 233 234 238 237
f 234 235 239 238
f 235 236 240 239
f 236 233 237 240
v 66.473 0.873 79.202
v 66.971 0.873 51.547
v 93.067 0.873 52.018
v 92.569 0.873 79.673
v 66.473 4.773 79.202
v 66.971 4.773 51.547
v 93.067 4.773 52.018
v 92.569 4.773 79.673
f 248 247 246 245
f 241 242 246 245
f 242 243 247 246
f 243 244 248 247
f 244 241 245 248
v 90.443 0.830 72.864
v 102.305 0.830 43.036
v 117.897 0.830 49.236
v 106.035 0.830 79.064
v 90.443 4.730 72.864
v 102.305 4.730 43.036
v 117.897 4.730 49.236
v 106.035 4.730 79.064
f 256 255 254 253
f 249 250 254 253
f 250 251 255 254
f 251 252 256 255
f 252 249 253 256
v 82.335 0.949 77.298
v 94.821 0.949 84.331
v 89.565 0.949 93.662
v 77.079 0.949 86.629
v 82.335 4.849 77.298
v 94.821 4.849 84.331
v 89.565 4.849 93.662
v 77.079 4.849 86.629
f 264 263 262 261
f 257 258 262 261
f 258 259 263 262
f 259 260 264 263
f 260 257 261 264
v 99.172 0.847 71.745
v 121.161 0.847 79.449
v 115.848 0.847 94.615
v 93.859 0.847 86.911
v 99.172 4.747 71.745
v 121.161 4.747 79.449
v 115.848 4.747 94.615
v 93.859 4.747 86.911
f 272 271 270 269
f 265 266 270 269
f 266 267 271 270
f 267 268 272 271
f 268 265 269 272
v 124.109 0.271 -8.021
v 139.097 0.271 -17.343
v 142.831 0.271 -11.339
v 127.843 0.271 -2.017
v 124.109 4.171 -8.021
v 139.097 4.171 -17.343
v 142.831 4.171 -11.339
v 127.843 4.171 -2.017
f 280 279 278 277
f 273 274 278 277
f 274 275 279 278
f 275 276 280 279
f 276 273 277 280
v 132.389 0.246 -12.861
v 148.015 0.246 -23.476
v 152.251 0.246 -17.239
v 136.625 0.246 -6.624
v 132.389 4.146 -12.861
v 148.015 4.146 -23.476
v 152.251 4.146 -17.239
v 136.625 4.146 -6.624
f 288 287 286 285
f 281 282 286 285
f 282 283 287 286
f 283 284 288 287
f 284 281 285 288
v 143.449 0.260 -18.573
v 158.215 0.260 -27.625
v 160.311 0.260 -24.207
v 145.545 0.260 -15.155
v 143.449 4.160 -18.573
v 158.215 4.160 -27.625
v 160.311 4.160 -24.207
v 145.545 4.160 -15.155
f 296 295 294 293
f 289 290 294 293
f 290 291 295 294
f 291 292 296 295
f 292 289 293 296
v 150.964 0.181 -23.131
v 166.608 0.181 -33.193
v 170.676 0.181 -26.869
v 155.032 0.181 -16.807
v 150.964 4.081 -23.131
v 166.608 4.081 -33.193
v 170.676 4.081 -26.869
v 155.032 4.081 -16.807
f 304 303 302 301
f 297 298 302 301
f 298 299 303 302
f 299 300 304 303
f 300 297 301 304
v 162.487 0.307 -29.849
v 175.779 0.307 -38.317
v 180.013 0.307 -31.671
v 166.721 0.307 -23.203
v 162.487 4.207 -29.849
v 175.779 4.207 -38.317
v 180.013 4.207 -31.671
v 166.721 4.207 -23.203
f 312 311 310 309
f 305 306 310 309
f 306 307 311 310
f 307 308 312 311
f 308 305 309 312
v 169.775 0.415 -35.047
v 184.341 0.415 -43.597
v 187.525 0.415 -38.173
v 172.959 0.415 -29.623
v 169.775 4.315 -35.047
v 184.341 4.315 -43.597
v 187.525 4.315 -38.173
v 172.959 4.315 -29.623
f 320 319 318 317
f 313 314 318 317
f 314 315 319 318
f 315 316 320 319
f 316 313 317 320
v 186.501 0.285 -40.108
v 195.301 0.285 -44.943
v 196.659 0.285 -42.472
v 187.859 0.285 -37.637
v 186.501 4.185 -40.108
v 195.301 4.185 -44.943
v 196.659 4.185 -42.472
v 187.859 4.185 -37.637
f 328 327 326 325
f 321 322 326 325
f 322 323 327 326
f 323 324 328 327
f 324 321 325 328
v 249.177 0.290 56.693
v 257.655 0.290 71.231
v 253.923 0.290 73.407
v 245.445 0.290 58.869
v 249.177 4.190 56.693
v 257.655 4.190 71.231
v 253.923 4.190 73.407
v 245.445 4.190 58.869
f 336 335 334 333
f 329 330 334 333
f 330 331 335 334
f 331 332 336 335
f 332 329 333 336
v 243.024 0.341 46.409
v 252.060 0.341 61.162
v 246.756 0.341 64.411
v 237.720 0.341 49.658
v 243.024 4.241 46.409
v 252.060 4.241 61.162
v 246.756 4.241 64.411
v 237.720 4.241 49.658
f 344 343 342 341
f 337 338 342 341
f 338 339 343 342
f 339 340 344 343
f 340 337 341 344
v 237.058 0.225 36.911
v 248.012 0.225 50.418
v 242.622 0.225 54.789
v 231.668 0.225 41.282
v 237.058 4.125 36.911
v 248.012 4.125 50.418
v 242.622 4.125 54.789
v 231.668 4.125 41.282
f 352 351 350 349
f 345 346 350 349
f 346 347 351 350
f 347 348 352 351
f 348 345 349 352
v 252.549 0.510 21.396
v 262.344 0.510 36.498
v 255.951 0.510 40.644
v 246.156 0.510 25.542
v 252.549 4.410 21.396
v 262.344 4.410 36.498
v 255.951 4.410 40.644
v 246.156 4.410 25.542
f 360 359 358 357
f 353 354 358 357
f 354 355 359 358
f 355 356 360 359
f 356 353 357 360
v 231.236 0.252 28.351
v 243.437 0.252 40.784
v 237.684 0.252 46.429
v 225.483 0.252 33.996
v 231.236 4.152 28.351
v 243.437 4.152 40.784
v 237.684 4.152 46.429
v 225.483 4.152 33.996
f 368 367 366 365
f 361 362 366 365
f 362 363 367 366
f 363 364 368 367
f 364 361 365 368
v 247.531 0.405 13.862
v 256.563 0.405 29.084
v 250.809 0.405 32.498
v 241.777 0.405 17.276
v 247.531 4.305 13.862
v 256.563 4.305 29.084
v 250.809 4.305 32.498
v 241.777 4.305 17.276
f 376 375 374 373
f 369 370 374 373
f 370 371 375 374
f 371 372 376 375
f 372 369 373 376
v 226.427 0.215 18.089
v 237.659 0.215 33.276
v 232.393 0.215 37.171
v 221.161 0.215 21.984
v 226.427 4.115 18.089
v 237.659 4.115 33.276
v 232.393 4.115 37.171
v 221.161 4.115 21.984
f 384 383 382 381
f 377 378 382 381
f 378 379 383 382
f 379 380 384 383
f 380 377 381 384
v 243.756 0.427 4.469
v 252.446 0.427 19.068
v 246.224 0.427 22.771
v 237.534 0.427 8.172
v 243.756 4.327 4.469
v 252.446 4.327 19.068
v 246.224 4.327 22.771
v 237.534 4.327 8.172
f 392 391 390 389
f 385 386 390 389
f 386 387 391 390
f 387 388 392 391
f 388 385 389 392
v 221.300 0.286 9.328
v 231.690 0.286 22.834
v 226.000 0.286 27.212
v 215.610 0.286 13.706
v 221.300 4.186 9.328
v 231.690 4.186 22.834
v 226.000 4.186 27.212
v 215.610 4.186 13.706
f 400 399 398 397
f 393 394 398 397
f 394 395 399 398
f 395 396 400 399
f 396 393 397 400
v 237.321 0.338 -3.596
v 246.829 0.338 11.547
v 240.859 0.338 15.296
v 231.351 0.338 0.153
v 237.321 4.238 -3.596
v 246.829 4.238 11.547
v 240.859 4.238 15.296
v 231.351 4.238 0.153
f 408 407 406 405
f 401 402 406 405
f 402 403 407 406
f 403 404 408 407
f 404 401 405 408
v 214.712 0.206 -0.237
v 226.724 0.206 15.929
v 221.708 0.206 19.657
v 209.696 0.206 3.491
v 214.712 4.106 -0.237
v 226.724 4.106 15.929
v 221.708 4.106 19.657
v 209.696 4.106 3.491
f 416 415 414 413
f 409 410 414 413
f 410 411 415 414
f 411 412 416 415
f 412 409 413 416
v 232.021 0.243 -13.219
v 241.655 0.243 2.223
v 235.699 0.243 5.939
v 226.065 0.243 -9.503
v 232.021 4.143 -13.219
v 241.655 4.143 2.223
v 235.699 4.143 5.939
v 226.065 4.143 -9.503
f 424 423 422 421
f 417 418 422 421
f 418 419 423 422
f 419 420 424 423
f 420 417 421 424
v 210.410 0.193 -7.560
v 220.452 0.193 4.896
v 215.610 0.193 8.800
v 205.568 0.193 -3.656
v 210.410 4.093 -7.560
v 220.452 4.093 4.896
v 215.610 4.093 8.800
v 205.568 4.093 -3.656
f 432 431 430 429
f 425 426 430 429
f 426 427 431 430
f 427 428 432 431
f 428 425 429 432
v 205.450 0.149 -18.775
v 215.864 0.149 -5.149
v 210.310 0.149 -0.905
v 199.896 0.149 -14.531
v 205.450 4.049 -18.775
v 215.864 4.049 -5.149
v 210.310 4.049 -0.905
v 199.896 4.049 -14.531
f 440 439 438 437
f 433 434 438 437
f 434 435 439 438
f 435 436 440 439
f 436 433 437 440
v 226.591 0.171 -20.820
v 234.643 0.171 -6.659
v 230.809 0.171 -4.480
v 222.757 0.171 -18.641
v 226.591 4.071 -20.820
v 234.643 4.071 -6.659
v 230.809 4.071 -4.480
v 222.757 4.071 -18.641
f 448 447 446 445
f 441 442 446 445
f 442 443 447 446
f 443 444 448 447
f 444 441 445 448
v 222.585 0.321 -30.735
v 231.564 0.321 -15.355
v 225.415 0.321 -11.765
v 216.436 0.321 -27.145
v 222.585 4.221 -30.735
v 231.564 4.221 -15.355
v 225.415 4.221 -11.765
v 216.436 4.221 -27.145
f 456 455 454 453
f 449 450 454 453
f 450 451 455 454
f 451 452 456 455
f 452 449 453 456
v 213.710 0.442 -38.092
v 226.057 0.442 -23.193
v 220.790 0.442 -18.828
v 208.443 0.442 -33.727
v 213.710 4.342 -38.092
v 226.057 4.342 -23.193
v 220.790 4.342 -18.828
v 208.443 4.342 -33.727
f 464 463 462 461
f 457 458 462 461
f 458 459 463 462
f 459 460 464 463
f 460 457 461 464
v 199.269 0.287 -29.778
v 209.769 0.287 -15.853
v 204.131 0.287 -11.602
v 193.631 0.287 -25.527
v 199.269 4.187 -29.778
v 209.769 4.187 -15.853
v 204.131 4.187 -11.602
v 193.631 4.187 -25.527
f 472 471 470 469
f 465 466 470 469
f 466 467 471 470
f 467 468 472 471
f 468 465 469 472
v 188.131 0.471 -45.220
v 203.453 0.471 -54.819
v 207.249 0.471 -48.760
v 191.927 0.471 -39.161
v 188.131 4.371 -45.220
v 203.453 4.371 -54.819
v 207.249 4.371 -48.760
v 191.927 4.371 -39.161
f 480 479 478 477
f 473 474 478 477
f 474 475 479 478
f 475 476 480 479
f 476 473 477 480
v 196.236 0.492 -50.528
v 213.415 0.492 -59.541
v 216.704 0.492 -53.272
v 199.525 0.492 -44.259
v 196.236 4.392 -50.528
v 213.415 4.392 -59.541
v 216.704 4.392 -53.272
v 199.525 4.392 -44.259
f 488 487 486 485
f 481 482 486 485
f 482 483 487 486
f 483 484 488 487
f 484 481 485 488
v 206.227 0.461 -55.525
v 222.969 0.461 -63.605
v 224.673 0.461 -60.075
v 207.931 0.461 -51.995
v 206.227 4.361 -55.525
v 222.969 4.361 -63.605
v 224.673 4.361 -60.075
v 207.931 4.361 -51.995
f 496 495 494 493
f 489 490 494 493
f 490 491 495 494
f 491 492 496 495
f 492 489 493 496
v 214.319 0.541 -62.297
v 231.446 0.541 -68.772
v 234.021 0.541 -61.963
v 216.894 0.541 -55.488
v 214.319 4.441 -62.297
v 231.446 4.441 -68.772
v 234.021 4.441 -61.963
v 216.894 4.441 -55.488
f 504 503 502 501
f 497 498 502 501
f 498 499 503 502
f 499 500 504 503
f 500 497 501 504
v 223.499 0.476 -65.919
v 240.410 0.476 -74.041
v 242.341 0.476 -70.021
v 225.430 0.476 -61.899
v 223.499 4.376 -65.919
v 240.410 4.376 -74.041
v 242.341 4.376 -70.021
v 225.430 4.376 -61.899
f 512 511 510 509
f 505 506 510 509
f 506 507 511 510
f 507 508 512 511
f 508 505 509 512
v 233.760 0.572 -70.779
v 249.150 0.572 -78.210
v 250.680 0.572 -75.041
v 235.290 0.572 -67.610
v 233.760 4.472 -70.779
v 249.150 4.472 -78.210
v 250.680 4.472 -75.041
v 235.290 4.472 -67.610
f 520 519 518 517
f 513 514 518 517
f 514 515 519 518
f 515 516 520 519
f 516 513 517 520
v 241.062 0.598 -75.550
v 257.945 0.598 -83.980
v 259.558 0.598 -80.750
v 242.675 0.598 -72.320
v 241.062 4.498 -75.550
v 257.945 4.498 -83.980
v 259.558 4.498 -80.750
v 242.675 4.498 -72.320
f 528 527 526 525
f 521 522 526 525
f 522 523 527 526
f 523 524 528 527
f 524 521 525 528
v 241.534 0.408 -50.872
v 249.285 0.408 -33.240
v 243.206 0.408 -30.568
v 235.455 0.408 -48.200
v 241.534 4.308 -50.872
v 249.285 4.308 -33.240
v 243.206 4.308 -30.568
v 235.455 4.308 -48.200
f 536 535 534 533
f 529 530 534 533
f 530 531 535 534
f 531 532 536 535
f 532 529 533 536
v 253.529 0.506 -59.249
v 264.137 0.506 -42.923
v 257.931 0.506 -38.891
v 247.323 0.506 -55.217
v 253.529 4.406 -59.249
v 264.137 4.406 -42.923
v 257.931 4.406 -38.891
v 247.323 4.406 -55.217
f 544 543 542 541
f 537 538 542 541
f 538 539 543 542
f 539 540 544 543
f 540 537 541 544
v 247.043 0.498 -33.749
v 250.815 0.498 -26.524
v 248.377 0.498 -25.251
v 244.605 0.498 -32.476
v 247.043 4.398 -33.749
v 250.815 4.398 -26.524
v 248.377 4.398 -25.251
v 244.605 4.398 -32.476
f 552 551 550 549
f 545 546 550 549
f 546 547 551 550
f 547 548 552 551
f 548 545 549 552
v 253.281 0.508 -31.462
v 259.385 0.508 -14.987
v 252.559 0.508 -12.458
v 246.455 0.508 -28.933
v 253.281 4.408 -31.462
v 259.385 4.408 -14.987
v 252.559 4.408 -12.458
v 246.455 4.408 -28.933
f 560 559 558 557
f 553 554 558 557
f 554 555 559 558
f 555 556 560 559
f 556 553 557 560
v 244.214 0.561 143.544
v 258.929 0.561 129.985
v 264.486 0.561 136.016
v 249.771 0.561 149.575
v 244.214 4.461 143.544
v 258.929 4.461 129.985
v 264.486 4.461 136.016
v 249.771 4.461 149.575
f 568 567 566 565
f 561 562 566 565
f 562 563 567 566
f 563 564 568 567
f 564 561 565 568
v 234.629 0.595 148.429
v 249.070 0.595 135.640
v 253.791 0.595 140.971
v 239.350 0.595 153.760
v 234.629 4.495 148.429
v 249.070 4.495 135.640
v 253.791 4.495 140.971
v 239.350 4.495 153.760
f 576 575 574 573
f 569 570 574 573
f 570 571 575 574
f 571 572 576 575
f 572 569 573 576
v 224.170 0.666 151.918
v 237.189 0.666 141.253
v 241.390 0.666 146.382
v 228.371 0.666 157.047
v 224.170 4.566 151.918
v 237.189 4.566 141.253
v 241.390 4.566 146.382
v 228.371 4.566 157.047
f 584 583 582 581
f 577 578 582 581
f 578 579 583 582
f 579 580 584 583
f 580 577 581 584
v 210.392 0.618 155.907
v 224.102 0.618 140.733
v 230.788 0.618 146.773
v 217.078 0.618 161.947
v 210.392 4.518 155.907
v 224.102 4.518 140.733
v 230.788 4.518 146.773
v 217.078 4.518 161.947
f 592 591 590 589
f 585 586 590 589
f 586 587 591 590
f 587 588 592 591
f 588 585 589 592
v 200.926 0.466 160.062
v 216.256 0.466 148.043
v 220.674 0.466 153.678
v 205.344 0.466 165.697
v 200.926 4.366 160.062
v 216.256 4.366 148.043
v 220.674 4.366 153.678
v 205.344 4.366 165.697
f 600 599 598 597
f 593 594 598 597
f 594 595 599 598
f 595 596 600 599
f 596 593 597 600
v 183.552 0.669 154.759
v 201.205 0.669 153.107
v 201.748 0.669 158.901
v 184.095 0.669 160.553
v 183.552 4.569 154.759
v 201.205 4.569 153.107
v 201.748 4.569 158.901
v 184.095 4.569 160.553
f 608 607 606 605
f 601 602 606 605
f 602 603 607 606
f 603 604 608 607
f 604 601 605 608
v 192.439 0.611 161.863
v 205.031 0.611 169.072
v 201.741 0.611 174.817
v 189.149 0.611 167.608
v 192.439 4.511 161.863
v 205.031 4.511 169.072
v 201.741 4.511 174.817
v 189.149 4.511 167.608
f 616 615 614 613
f 609 610 614 613
f 610 611 615 614
f 611 612 616 615
f 612 609 613 616
v 197.476 0.557 168.448
v 209.197 0.557 182.437
v 204.644 0.557 186.252
v 192.923 0.557 172.263
v 197.476 4.457 168.448
v 209.197 4.457 182.437
v 204.644 4.457 186.252
v 192.923 4.457 172.263
f 624 623 622 621
f 617 618 622 621
f 618 619 623 622
f 619 620 624 623
f 620 617 621 624
v 200.517 0.441 178.965
v 213.505 0.441 193.023
v 208.643 0.441 197.515
v 195.655 0.441 183.457
v 200.517 4.341 178.965
v 213.505 4.341 193.023
v 208.643 4.341 197.515
v 195.655 4.341 183.457
f 632 631 630 629
f 625 626 630 629
f 626 627 631 630
f 627 628 632 631
f 628 625 629 632
v 205.844 0.570 190.656
v 216.667 0.570 203.309
v 211.576 0.570 207.664
v 200.753 0.570 195.011
v 205.844 4.470 190.656
v 216.667 4.470 203.309
v 211.576 4.470 207.664
v 200.753 4.470 195.011
f 640 639 638 637
f 633 634 638 637
f 634 635 639 638
f 635 636 640 639
f 636 633 637 640
v 210.357 0.348 204.774
v 218.739 0.348 213.871
v 214.143 0.348 218.106
v 205.761 0.348 209.009
v 210.357 4.248 204.774
v 218.739 4.248 213.871
v 214.143 4.248 218.106
v 205.761 4.248 209.009
f 648 647 646 645
f 641 642 646 645
f 642 643 647 646
f 643 644 648 647
f 644 641 645 648
v 221.819 0.362 240.879
v 244.243 0.362 242.314
v 243.201 0.362 258.601
v 220.777 0.362 257.166
v 221.819 4.262 240.879
v 244.243 4.262 242.314
v 243.201 4.262 258.601
v 220.777 4.262 257.166
f 656 655 654 653
f 649 650 654 653
f 650 651 655 654
f 651 652 656 655
f 652 649 653 656
v 212.991 0.411 238.134
v 224.231 0.411 228.429
v 227.009 0.411 231.646
v 215.769 0.411 241.351
v 212.991 4.311 238.134
v 224.231 4.311 228.429
v 227.009 4.311 231.646
v 215.769 4.311 241.351
f 664 663 662 661
f 657 658 662 661
f 658 659 663 662
f 659 660 664 663
f 660 657 661 664
v 222.742 0.420 233.056
v 232.265 0.420 224.789
v 237.418 0.420 230.724
v 227.895 0.420 238.991
v 222.742 4.320 233.056
v 232.265 4.320 224.789
v 237.418 4.320 230.724
v 227.895 4.320 238.991
f 672 671 670 669
f 665 666 670 669
f 666 667 671 670
f 667 668 672 671
f 668 665 669 672
v -235.273 1.087 -15.526
v -216.339 1.087 -29.913
v -206.447 1.087 -16.894
v -225.381 1.087 -2.507
v -235.273 4.987 -15.526
v -216.339 4.987 -29.913
v -206.447 4.987 -16.894
v -225.381 4.987 -2.507
f 680 679 678 677
f 673 674 678 677
f 674 675 679 678
f 675 676 680 679
f 676 673 677 680
v -175.626 -0.300 170.110
v -48.659 -0.300 223.432
v -88.874 -0.300 319.190
v -215.841 -0.300 265.868
v -175.626 8.000 170.110
v -48.659 8.000 223.432
v -88.874 8.000 319.190
v -215.841 8.000 265.868
f 688 687 686 685
f 681 682 686 685
f 682 683 687 686
f 683 684 688 687
f 684 681 685 688
v -252.910 0.991 -201.660
v -249.519 0.991 -206.512
v -247.470 0.991 -205.080
v -250.861 0.991 -200.228
v -252.910 4.891 -201.660
v -249.519 4.891 -206.512
v -247.470 4.891 -205.080
v -250.861 4.891 -200.228
f 696 695 694 693
f 689 690 694 693
f 690 691 695 694
f 691 692 696 695
f 692 689 693 696
v -253.554 1.064 -199.550
v -251.639 1.064 -203.050
v -249.446 1.064 -201.850
v -251.361 1.064 -198.350
v -253.554 4.964 -199.550
v -251.639 4.964 -203.050
v -249.446 4.964 -201.850
v -251.361 4.964 -198.350
f 704 703 702 701
f 697 698 702 701
f 698 699 703 702
f 699 700 704 703
f 700 697 701 704
v -184.319 0.520 -107.161
v -181.080 0.520 -111.594
v -179.061 0.520 -110.119
v -182.300 0.520 -105.686
v -184.319 4.420 -107.161
v -181.080 4.420 -111.594
v -179.061 4.420 -110.119
v -182.300 4.420 -105.686
f 712 711 710 709
f 705 706 710 709
f 706 707 711 710
f 707 708 712 711
f 708 705 709 712
v -82.150 0.935 -70.287
v -81.619 0.935 -77.126
v -78.110 0.935 -76.853
v -78.641 0.935 -70.014
v -82.150 4.835 -70.287
v -81.619 4.835 -77.126
v -78.110 4.835 -76.853
v -78.641 4.835 -70.014
f 720 719 718 717
f 713 714 718 717
f 714 715 719 718
f 715 716 720 719
f 716 713 717 720
v -81.044 0.800 -82.333
v -80.774 0.800 -88.417
v -78.276 0.800 -88.307
v -78.546 0.800 -82.223
v -81.044 4.700 -82.333
v -80.774 4.700 -88.417
v -78.276 4.700 -88.307
v -78.546 4.700 -82.223
f 728 727 726 725
f 721 722 726 725
f 722 723 727 726
f 723 724 728 727
f 724 721 725 728
v -85.052 0.891 -69.231
v -84.704 0.891 -75.821
v -82.208 0.891 -75.689
v -82.556 0.891 -69.099
v -85.052 4.791 -69.231
v -84.704 4.791 -75.821
v -82.208 4.791 -75.689
v -82.556 4.791 -69.099
f 736 735 734 733
f 729 730 734 733
f 730 731 735 734
f 731 732 736 735
f 732 729 733 736
v -83.925 0.989 -62.479
v -83.570 0.989 -68.779
v -80.415 0.989 -68.601
v -80.770 0.989 -62.301
v -83.925 4.889 -62.479
v -83.570 4.889 -68.779
v -80.415 4.889 -68.601
v -80.770 4.889 -62.301
f 744 743 742 741
f 737 738 742 741
f 738 739 743 742
f 739 740 744 743
f 740 737 741 744
v -66.438 1.077 -60.049
v -59.082 1.077 -59.594
v -59.302 1.077 -56.051
v -66.658 1.077 -56.506
v -66.438 4.977 -60.049
v -59.082 4.977 -59.594
v -59.302 4.977 -56.051
v -66.658 4.977 -56.506
f 752 751 750 749
f 745 746 750 749
f 746 747 751 750
f 747 748 752 751
f 748 745 749 752
v -62.035 0.965 -44.770
v -55.631 0.965 -44.198
v -55.885 0.965 -41.350
v -62.289 0.965 -41.922
v -62.035 4.865 -44.770
v -55.631 4.865 -44.198
v -55.885 4.865 -41.350
v -62.289 4.865 -41.922
f 760 759 758 757
f 753 754 758 757
f 754 755 759 758
f 755 756 760 759
f 756 753 757 760
v -77.700 1.062 -35.054
v -77.461 1.062 -28.659
v -79.960 1.062 -28.566
v -80.199 1.062 -34.961
v -77.700 4.962 -35.054
v -77.461 4.962 -28.659
v -79.960 4.962 -28.566
v -80.199 4.962 -34.961
f 768 767 766 765
f 761 762 766 765
f 762 763 767 766
f 763 764 768 767
f 764 761 765 768
v -71.663 1.098 -31.849
v -71.617 1.098 -27.779
v -74.117 1.098 -27.751
v -74.163 1.098 -31.821
v -71.663 4.998 -31.849
v -71.617 4.998 -27.779
v -74.117 4.998 -27.751
v -74.163 4.998 -31.821
f 776 775 774 773
f 769 770 774 773
f 770 771 775 774
f 771 772 776 775
f 772 769 773 776
v -71.490 1.006 -26.397
v -71.235 1.006 -22.174
v -73.730 1.006 -22.023
v -73.985 1.006 -26.246
v -71.490 4.906 -26.397
v -71.235 4.906 -22.174
v -73.730 4.906 -22.023
v -73.985 4.906 -26.246
f 784 783 782 781
f 777 778 782 781
f 778 779 783 782
f 779 780 784 783
f 780 777 781 784
v -71.097 0.967 -20.825
v -71.033 0.967 -15.086
v -73.803 0.967 -15.055
v -73.867 0.967 -20.794
v -71.097 4.867 -20.825
v -71.033 4.867 -15.086
v -73.803 4.867 -15.055
v -73.867 4.867 -20.794
f 792 791 790 789
f 785 786 790 789
f 786 787 791 790
f 787 788 792 791
f 788 785 789 792
v -72.150 0.892 -6.732
v -71.847 0.892 -13.225
v -69.350 0.892 -13.108
v -69.653 0.892 -6.615
v -72.150 4.792 -6.732
v -71.847 4.792 -13.225
v -69.350 4.792 -13.108
v -69.653 4.792 -6.615
f 800 799 798 797
f 793 794 798 797
f 794 795 799 798
f 795 796 800 799
f 796 793 797 800
usemtl road
v -52.315 0.947 77.403
v -58.325 0.903 81.493
v -56.355 0.915 84.387
v -50.345 0.946 80.297
f 801 802 803 804
v -58.325 0.903 81.493
v -102.045 0.717 111.243
v -100.075 0.736 114.137
v -56.355 0.915 84.387
f 805 806 807 808
v -102.047 0.717 111.245
v -104.947 0.753 113.225
v -102.973 0.749 116.115
v -100.073 0.736 114.135
f 809 810 811 812
v -104.944 0.753 113.223
v -149.224 0.499 143.343
v -147.256 0.496 146.237
v -102.976 0.749 116.117
f 813 814 815 816
v -146.829 0.486 143.755
v -160.379 0.524 125.275
v -163.201 0.543 127.345
v -149.651 0.525 145.825
f 817 818 819 820
v -160.379 0.524 125.275
v -168.329 0.528 114.435
v -171.151 0.533 116.505
v -163.201 0.543 127.345
f 821 822 823 824
v -168.329 0.528 114.435
v -180.109 0.498 98.365
v -182.931 0.513 100.435
v -171.151 0.533 116.505
f 825 826 827 828
v -180.109 0.498 98.365
v -190.869 0.467 83.685
v -193.691 0.508 85.755
v -182.931 0.513 100.435
f 829 830 831 832
v -190.869 0.467 83.685
v -202.899 0.476 67.285
v -205.721 0.531 69.355
v -193.691 0.508 85.755
f 833 834 835 836
v -202.899 0.476 67.285
v -207.119 0.479 61.535
v -209.941 0.553 63.605
v -205.721 0.531 69.355
f 837 838 839 840
v -207.117 0.479 61.537
v -210.547 0.483 56.847
v -213.373 0.526 58.913
v -209.943 0.553 63.603
f 841 842 843 844
v -210.881 0.485 56.502
v -219.321 0.504 49.892
v -221.479 0.476 52.648
v -213.039 0.524 59.258
f 845 846 847 848
v -256.171 0.797 152.932
v -244.481 0.856 169.182
v -241.639 0.803 167.138
v -253.329 0.798 150.888
f 849 850 851 852
v -244.481 0.856 169.182
v -203.131 0.792 226.672
v -200.289 0.824 224.628
v -241.639 0.803 167.138
f 853 854 855 856
v -202.765 0.792 227.047
v -198.845 0.818 230.007
v -196.735 0.810 227.213
v -200.655 0.810 224.253
f 857 858 859 860
v -197.577 0.825 230.347
v -193.167 0.835 229.807
v -193.593 0.805 226.333
v -198.003 0.813 226.873
f 861 862 863 864
v -192.371 0.837 229.500
v -183.251 0.824 223.060
v -185.269 0.790 220.200
v -194.389 0.805 226.640
f 865 866 867 868
v -183.251 0.824 223.060
v -166.161 0.796 211.000
v -168.179 0.733 208.140
v -185.269 0.790 220.200
f 869 870 871 872
v -166.161 0.796 211.000
v -147.501 0.798 197.830
v -149.519 0.735 194.970
v -168.179 0.733 208.140
f 873 874 875 876
v -147.438 0.798 197.783
v -131.278 0.809 185.253
v -133.422 0.772 182.487
v -149.582 0.735 195.017
f 877 878 879 880
v -131.278 0.809 185.253
v -123.438 0.844 179.173
v -125.582 0.759 176.407
v -133.422 0.772 182.487
f 881 882 883 884
v -123.617 0.842 179.295
v -96.637 0.719 163.275
v -98.423 0.708 160.265
v -125.403 0.760 176.285
f 885 886 887 888
v -97.860 0.716 163.489
v -90.000 0.756 164.999
v -89.340 0.762 161.561
v -97.200 0.712 160.051
f 889 890 891 892
v -91.077 0.750 164.321
v -65.647 0.806 198.671
v -62.833 0.880 196.589
v -88.263 0.762 162.239
f 893 894 895 896
v -65.833 0.802 198.354
v -58.583 0.832 214.304
v -55.397 0.806 212.856
v -62.647 0.880 196.906
f 897 898 899 900
v -58.583 0.832 214.305
v -57.153 0.838 217.445
v -53.967 0.813 215.995
v -55.397 0.806 212.855
f 901 902 903 904
v -123.089 0.795 176.768
v -133.689 0.567 162.028
v -136.531 0.581 164.072
v -125.931 0.792 178.812
f 905 906 907 908
v -133.689 0.567 162.028
v -146.819 0.486 143.768
v -149.661 0.525 145.812
v -136.531 0.581 164.072
f 909 910 911 912
v -254.128 0.628 78.073
v -219.368 0.477 52.683
v -221.432 0.496 49.857
v -256.192 0.604 75.247
f 913 914 915 916
v -205.320 0.506 66.891
v -257.010 0.708 103.446
v -254.990 0.723 106.303
v -203.300 0.501 69.749
f 917 918 919 920
v -254.977 0.752 132.048
v -191.257 0.491 86.140
v -193.303 0.492 83.300
v -257.023 0.728 129.209
f 921 922 923 924
v -242.038 0.839 169.580
v -228.078 0.721 159.530
v -230.122 0.721 156.690
v -244.082 0.818 166.740
f 925 926 927 928
v -228.078 0.721 159.530
v -212.458 0.655 148.290
v -214.502 0.665 145.450
v -230.122 0.721 156.690
f 929 930 931 932
v -212.457 0.655 148.290
v -192.907 0.586 134.210
v -194.953 0.607 131.370
v -214.503 0.665 145.450
f 933 934 935 936
v -192.911 0.586 134.213
v -176.791 0.522 122.673
v -178.829 0.547 119.827
v -194.949 0.607 131.367
f 937 938 939 940
v -176.791 0.522 122.673
v -168.721 0.535 116.893
v -170.759 0.532 114.047
v -178.829 0.547 119.827
f 941 942 943 944
v -253.730 0.812 153.332
v -180.500 0.506 100.822
v -182.540 0.510 97.978
v -255.770 0.787 150.488
f 945 946 947 948
v -147.086 0.760 195.383
v -192.506 0.591 131.773
v -195.354 0.583 133.807
v -149.934 0.750 197.417
f 949 950 951 952
v -165.762 0.762 208.530
v -212.072 0.659 145.830
v -214.888 0.657 147.910
v -168.578 0.763 210.610
f 953 954 955 956
v -182.830 0.800 220.621
v -227.670 0.726 157.101
v -230.530 0.723 159.119
v -185.690 0.807 222.639
f 957 958 959 960
v 255.131 0.793 -214.774
v 247.921 0.757 -210.649
v 249.659 0.775 -207.611
v 256.869 0.812 -211.736
f 961 962 963 964
v 247.922 0.757 -210.649
v 233.662 0.745 -202.499
v 235.398 0.785 -199.461
v 249.658 0.775 -207.611
f 965 966 967 968
v 233.633 0.745 -202.483
v 220.613 0.815 -194.713
v 222.407 0.836 -191.707
v 235.427 0.785 -199.477
f 969 970 971 972
v 220.637 0.815 -194.726
v 206.557 0.781 -186.616
v 208.303 0.805 -183.584
v 222.383 0.836 -191.694
f 973 974 975 976
v 207.439 0.783 -186.850
v 203.519 0.791 -186.870
v 203.501 0.803 -183.370
v 207.421 0.803 -183.350
f 977 978 979 980
v 204.166 0.789 -186.742
v 197.636 0.851 -189.382
v 196.324 0.880 -186.138
v 202.854 0.807 -183.498
f 981 982 983 984
v 198.512 0.849 -188.605
v 182.352 0.921 -217.905
v 179.288 0.935 -216.215
v 195.448 0.882 -186.915
f 985 986 987 988
v 182.353 0.921 -217.905
v 174.723 0.846 -231.745
v 171.657 0.893 -230.055
v 179.287 0.935 -216.215
f 989 990 991 992
v 174.725 0.846 -231.740
v 161.000 0.811 -256.840
v 157.929 0.832 -255.160
v 171.655 0.893 -230.060
f 993 994 995 996
v 174.066 0.872 -229.385
v 193.806 0.651 -240.795
v 192.054 0.670 -243.825
v 172.314 0.863 -232.415
f 997 998 999 1000
v 193.811 0.651 -240.798
v 208.121 0.487 -249.138
v 206.359 0.537 -252.162
v 192.049 0.670 -243.822
f 1001 1002 1003 1004
v 208.102 0.487 -249.127
v 217.551 0.504 -254.477
v 215.826 0.508 -257.523
v 206.378 0.537 -252.173
f 1005 1006 1007 1008
v 152.107 0.798 -257.489
v 144.781 0.625 -252.969
v 146.619 0.652 -249.991
v 153.945 0.821 -254.511
f 1009 1010 1011 1012
v 144.781 0.625 -252.969
v 131.401 0.664 -244.709
v 133.239 0.644 -241.731
v 146.619 0.652 -249.991
f 1013 1014 1015 1016
v 131.402 0.664 -244.710
v 117.222 0.683 -235.970
v 119.058 0.669 -232.990
v 133.238 0.644 -241.730
f 1017 1018 1019 1020
v 117.221 0.683 -235.969
v 99.961 0.784 -225.319
v 101.799 0.784 -222.341
v 119.059 0.669 -232.991
f 1021 1022 1023 1024
v 182.924 0.733 -255.075
v 191.444 0.686 -241.385
v 194.416 0.643 -243.235
v 185.896 0.713 -256.925
f 1025 1026 1027 1028
v 191.418 0.686 -241.430
v 219.998 0.835 -192.330
v 223.022 0.813 -194.090
v 194.442 0.643 -243.190
f 1029 1030 1031 1032
v 236.064 0.758 -201.823
v 208.774 0.509 -251.493
v 205.706 0.515 -249.807
v 232.996 0.761 -200.137
f 1033 1034 1035 1036
v 250.305 0.773 -210.006
v 223.197 0.565 -256.876
v 220.167 0.532 -255.124
v 247.275 0.768 -208.254
f 1037 1038 1039 1040
v 257.524 0.777 -229.694
v 242.180 0.743 -256.861
v 239.133 0.674 -255.139
v 254.476 0.757 -227.973
f 1041 1042 1043 1044
v 179.909 0.930 -218.554
v 168.909 0.961 -211.844
v 170.731 1.022 -208.856
v 181.731 0.929 -215.566
f 1045 1046 1047 1048
v 168.909 0.961 -211.844
v 155.279 0.926 -203.534
v 157.101 0.996 -200.546
v 170.731 1.022 -208.856
f 1049 1050 1051 1052
v 155.279 0.926 -203.534
v 140.949 0.938 -194.794
v 142.771 1.025 -191.806
v 157.101 0.996 -200.546
f 1053 1054 1055 1056
v 140.948 0.938 -194.793
v 122.888 0.922 -183.763
v 124.712 0.965 -180.777
v 142.772 1.025 -191.807
f 1057 1058 1059 1060
v 122.889 0.922 -183.764
v 80.949 0.881 -158.204
v 82.771 0.875 -155.216
v 124.711 0.965 -180.776
f 1061 1062 1063 1064
v 81.002 0.882 -158.235
v 74.622 0.853 -154.645
v 76.338 0.903 -151.595
v 82.718 0.874 -155.185
f 1065 1066 1067 1068
v 74.623 0.853 -154.646
v 67.453 0.876 -150.616
v 69.167 0.885 -147.564
v 76.337 0.903 -151.594
f 1069 1070 1071 1072
v 89.383 1.120 -241.284
v 93.843 0.956 -233.084
v 96.917 0.972 -234.756
v 92.457 1.143 -242.956
f 1073 1074 1075 1076
v 93.843 0.956 -233.082
v 99.343 0.789 -222.992
v 102.417 0.772 -224.668
v 96.917 0.972 -234.758
f 1077 1078 1079 1080
v 99.348 0.789 -222.985
v 122.268 0.941 -181.425
v 125.332 0.948 -183.115
v 102.412 0.772 -224.675
f 1081 1082 1083 1084
v 122.255 0.941 -181.449
v 129.405 0.933 -167.999
v 132.495 1.006 -169.641
v 125.345 0.949 -183.091
f 1085 1086 1087 1088
v 129.406 0.933 -167.996
v 136.006 0.952 -155.626
v 139.094 1.010 -157.274
v 132.494 1.006 -169.644
f 1089 1090 1091 1092
v 135.814 0.955 -156.228
v 136.644 0.916 -149.728
v 140.116 0.985 -150.172
v 139.286 1.006 -156.672
f 1093 1094 1095 1096
v 136.655 0.916 -149.653
v 137.925 0.862 -142.283
v 141.375 0.925 -142.877
v 140.105 0.985 -150.247
f 1097 1098 1099 1100
v 138.134 0.861 -141.705
v 140.074 0.856 -138.345
v 143.106 0.918 -140.095
v 141.166 0.930 -143.455
f 1101 1102 1103 1104
v 140.077 0.856 -138.340
v 146.967 0.862 -126.500
v 149.993 0.932 -128.260
v 143.103 0.918 -140.100
f 1105 1106 1107 1108
v 146.968 0.862 -126.500
v 154.688 0.920 -113.240
v 157.712 0.948 -115.000
v 149.992 0.932 -128.260
f 1109 1110 1111 1112
v 154.688 0.920 -113.240
v 164.008 0.949 -97.230
v 167.032 0.994 -98.990
v 157.712 0.948 -115.000
f 1113 1114 1115 1116
v 164.007 0.949 -97.231
v 172.127 0.999 -83.261
v 175.153 1.052 -85.019
v 167.033 0.994 -98.989
f 1117 1118 1119 1120
v 172.128 0.999 -83.260
v 179.358 1.033 -70.840
v 182.382 1.035 -72.600
v 175.152 1.052 -85.020
f 1121 1122 1123 1124
v 179.358 1.033 -70.838
v 182.228 0.902 -65.918
v 185.252 0.909 -67.682
v 182.382 1.035 -72.602
f 1125 1126 1127 1128
v 182.227 0.902 -65.921
v 186.027 0.960 -59.381
v 189.053 0.960 -61.139
v 185.253 0.909 -67.679
f 1129 1130 1131 1132
v 80.211 0.874 -156.124
v 84.521 0.810 -143.994
v 87.819 0.761 -145.166
v 83.509 0.893 -157.296
f 1133 1134 1135 1136
v 84.521 0.810 -143.995
v 89.651 0.829 -129.535
v 92.949 0.784 -130.705
v 87.819 0.761 -145.165
f 1137 1138 1139 1140
v 89.651 0.829 -129.534
v 94.851 0.805 -114.914
v 98.149 0.778 -116.086
v 92.949 0.784 -130.706
f 1141 1142 1143 1144
v 94.851 0.805 -114.915
v 100.101 0.784 -100.125
v 103.399 0.796 -101.295
v 98.149 0.778 -116.085
f 1145 1146 1147 1148
v 100.101 0.784 -100.124
v 105.361 0.747 -85.334
v 108.659 0.724 -86.506
v 103.399 0.796 -101.296
f 1149 1150 1151 1152
v 105.361 0.747 -85.335
v 111.651 0.748 -67.605
v 114.949 0.733 -68.775
v 108.659 0.724 -86.505
f 1153 1154 1155 1156
v 111.651 0.748 -67.604
v 116.981 0.721 -52.594
v 120.279 0.696 -53.766
v 114.949 0.733 -68.776
f 1157 1158 1159 1160
v 116.981 0.721 -52.593
v 120.451 0.681 -42.843
v 123.749 0.679 -44.017
v 120.279 0.696 -53.767
f 1161 1162 1163 1164
v 121.444 0.685 -41.808
v 125.794 0.773 -40.048
v 127.106 0.738 -43.292
v 122.756 0.671 -45.052
f 1165 1166 1167 1168
v 126.920 0.802 -39.984
v 133.020 0.904 -41.684
v 132.080 0.833 -45.056
v 125.980 0.716 -43.356
f 1169 1170 1171 1172
v 133.436 0.901 -41.861
v 181.756 1.010 -70.211
v 179.984 1.021 -73.229
v 131.664 0.829 -44.879
f 1173 1174 1175 1176
v 172.782 1.020 -85.665
v 117.772 0.712 -54.705
v 119.488 0.699 -51.655
v 174.498 1.037 -82.615
f 1177 1178 1179 1180
v 164.650 0.955 -99.628
v 121.360 0.669 -74.818
v 123.100 0.659 -71.782
v 166.390 0.975 -96.592
f 1181 1182 1183 1184
v 121.361 0.669 -74.819
v 112.431 0.757 -69.709
v 114.169 0.739 -66.671
v 123.099 0.659 -71.781
f 1185 1186 1187 1188
v 155.330 0.931 -115.638
v 106.140 0.734 -87.438
v 107.880 0.732 -84.402
v 157.070 0.935 -112.602
f 1189 1190 1191 1192
v 147.613 0.894 -128.900
v 100.883 0.790 -102.230
v 102.617 0.800 -99.190
v 149.347 0.901 -125.860
f 1193 1194 1195 1196
v 140.775 0.881 -140.769
v 95.685 0.787 -117.049
v 97.315 0.786 -113.951
v 142.405 0.879 -137.671
f 1197 1198 1199 1200
v 136.684 0.981 -157.971
v 90.434 0.807 -131.641
v 92.166 0.804 -128.599
v 138.416 0.975 -154.929
f 1201 1202 1203 1204
v 130.117 0.963 -170.359
v 85.337 0.794 -146.119
v 87.003 0.781 -143.041
v 131.783 0.960 -167.281
f 1205 1206 1207 1208
v 171.330 0.974 -211.235
v 147.210 0.663 -252.365
v 144.190 0.651 -250.595
v 168.310 0.977 -209.465
f 1209 1210 1211 1212
v 157.704 0.955 -202.918
v 133.834 0.657 -244.098
v 130.806 0.648 -242.342
v 154.676 0.953 -201.162
f 1213 1214 1215 1216
v 143.376 0.967 -194.173
v 119.656 0.669 -235.353
v 116.624 0.687 -233.607
v 140.344 0.961 -192.427
f 1217 1218 1219 1220
v 111.396 0.722 -17.044
v 113.576 0.664 -9.454
v 120.304 0.681 -11.386
v 118.124 0.734 -18.976
f 1221 1222 1223 1224
v 113.572 0.664 -9.467
v 113.872 0.654 -8.407
v 120.608 0.673 -10.313
v 120.308 0.681 -11.373
f 1225 1226 1227 1228
v 113.945 0.652 -8.181
v 121.845 0.668 13.899
v 128.435 0.671 11.541
v 120.535 0.675 -10.539
f 1229 1230 1231 1232
v 121.831 0.668 13.860
v 137.381 0.594 59.000
v 143.999 0.548 56.720
v 128.449 0.671 11.580
f 1233 1234 1235 1236
v 137.380 0.594 58.999
v 153.180 0.662 104.919
v 159.800 0.636 102.641
v 144.000 0.548 56.721
f 1237 1238 1239 1240
v 153.181 0.662 104.920
v 179.931 0.789 182.600
v 186.549 0.734 180.320
v 159.799 0.636 102.640
f 1241 1242 1243 1244
v 179.942 0.789 182.632
v 196.222 0.626 228.452
v 202.818 0.603 226.108
v 186.538 0.734 180.288
f 1245 1246 1247 1248
v 196.208 0.626 228.412
v 206.021 0.693 257.132
v 212.645 0.683 254.868
v 202.832 0.603 226.148
f 1249 1250 1251 1252
v 126.022 0.704 14.231
v 131.982 0.664 10.751
v 130.218 0.666 7.729
v 124.258 0.708 11.209
f 1253 1254 1255 1256
v 131.982 0.664 10.752
v 185.332 0.523 -20.358
v 183.568 0.538 -23.382
v 130.218 0.666 7.728
f 1257 1258 1259 1260
v 185.330 0.523 -20.357
v 225.070 0.595 -43.467
v 223.310 0.607 -46.493
v 183.570 0.538 -23.383
f 1261 1262 1263 1264
v 225.070 0.595 -43.467
v 256.880 0.800 -61.977
v 255.120 0.777 -65.003
v 223.310 0.607 -46.493
f 1265 1266 1267 1268
v 219.025 0.775 167.810
v 215.505 0.807 171.260
v 217.955 0.769 173.760
v 221.475 0.768 170.310
f 1269 1270 1271 1272
v 214.980 0.810 172.500
v 214.950 0.750 177.960
v 218.450 0.711 177.980
v 218.480 0.772 172.520
f 1273 1274 1275 1276
v 215.038 0.743 178.517
v 227.788 0.563 217.247
v 231.112 0.565 216.153
v 218.362 0.718 177.423
f 1277 1278 1279 1280
v 200.104 0.630 228.930
v 206.774 0.673 226.570
v 205.606 0.679 223.270
v 198.936 0.645 225.630
f 1281 1282 1283 1284
v 206.773 0.673 226.570
v 230.033 0.567 218.350
v 228.867 0.560 215.050
v 205.607 0.679 223.270
f 1285 1286 1287 1288
v 230.003 0.567 218.360
v 236.123 0.567 216.320
v 235.017 0.579 213.000
v 228.897 0.560 215.040
f 1289 1290 1291 1292
v 233.918 0.569 215.238
v 248.397 0.606 256.578
v 251.700 0.617 255.422
v 237.222 0.586 214.082
f 1293 1294 1295 1296
v -56.110 0.883 82.477
v -39.460 0.987 104.417
v -29.900 0.988 97.163
v -46.550 0.876 75.223
f 1297 1298 1299 1300
v -39.779 0.987 103.953
v -32.459 1.020 115.753
v -22.261 1.020 109.427
v -29.581 0.988 97.627
f 1301 1302 1303 1304
v -32.562 1.017 115.579
v -24.512 1.101 129.589
v -14.108 1.086 123.611
v -22.158 1.022 109.601
f 1305 1306 1307 1308
v -24.711 1.096 129.214
v -9.731 1.020 160.164
v 1.071 1.020 154.936
v -13.909 1.091 123.986
f 1309 1310 1311 1312
v -9.810 1.021 159.993
v -8.410 1.004 163.133
v 2.550 1.022 158.247
v 1.150 1.021 155.107
f 1313 1314 1315 1316
v -8.561 1.004 162.761
v -1.731 0.961 181.331
v 9.531 0.955 177.189
v 2.701 1.018 158.619
f 1317 1318 1319 1320
v -1.711 0.961 181.385
v 3.179 0.891 194.295
v 14.401 0.923 190.045
v 9.511 0.955 177.135
f 1321 1322 1323 1324
v 3.095 0.892 194.060
v 4.635 0.880 198.700
v 16.025 0.902 194.920
v 14.485 0.922 190.280
f 1325 1326 1327 1328
v 4.639 0.880 198.712
v 10.049 0.840 214.902
v 21.431 0.843 211.098
v 16.021 0.902 194.908
f 1329 1330 1331 1332
v 10.050 0.840 214.904
v 10.910 0.828 217.474
v 22.290 0.828 213.666
v 21.430 0.843 211.096
f 1333 1334 1335 1336
v 10.908 0.828 217.467
v 17.488 0.772 237.207
v 28.872 0.774 233.413
v 22.292 0.828 213.673
f 1337 1338 1339 1340
v 17.490 0.772 237.212
v 20.910 0.712 247.442
v 32.290 0.754 243.638
v 28.870 0.775 233.408
f 1341 1342 1343 1344
v 20.941 0.710 247.535
v 24.001 0.698 256.215
v 35.319 0.751 252.225
v 32.259 0.755 243.545
f 1345 1346 1347 1348
v -134.138 0.578 164.505
v -90.948 0.752 135.645
v -92.892 0.763 132.735
v -136.082 0.559 161.595
f 1349 1350 1351 1352
v -90.235 0.760 134.664
v -88.855 0.782 129.754
v -92.225 0.771 128.806
v -93.605 0.761 133.716
f 1353 1354 1355 1356
v -88.879 0.786 128.730
v -90.209 0.790 124.710
v -93.531 0.768 125.810
v -92.201 0.770 129.830
f 1357 1358 1359 1360
v -90.457 0.791 124.227
v -99.647 0.719 111.657
v -102.473 0.740 113.723
v -93.283 0.769 126.293
f 1361 1362 1363 1364
v -160.810 0.528 127.760
v -129.930 0.678 106.890
v -131.890 0.672 103.990
v -162.770 0.522 124.860
f 1365 1366 1367 1368
v -129.328 0.705 104.692
v -135.408 0.857 91.842
v -138.572 0.788 93.338
v -132.492 0.668 106.188
f 1369 1370 1371 1372
v -135.603 0.863 91.523
v -152.633 0.922 69.383
v -155.407 0.838 71.517
v -138.377 0.786 93.657
f 1373 1374 1375 1376
v 182.065 0.532 -20.501
v 253.615 0.460 104.210
v 258.385 0.579 101.473
v 186.835 0.524 -23.239
f 1377 1378 1379 1380
v 44.915 0.645 -2.808
v 6.295 0.545 20.522
v 8.105 0.552 23.518
v 46.725 0.659 0.188
f 1381 1382 1383 1384
v 5.617 0.529 22.765
v 10.457 0.519 33.045
v 13.623 0.519 31.555
v 8.783 0.527 21.275
f 1385 1386 1387 1388
v 10.459 0.519 33.051
v 14.029 0.514 40.571
v 17.191 0.526 39.069
v 13.621 0.519 31.549
f 1389 1390 1391 1392
v -97.073 0.908 26.667
v -91.313 0.781 21.267
v -93.707 0.792 18.713
v -99.467 0.903 24.113
f 1393 1394 1395 1396
v -91.322 0.780 21.275
v -81.582 0.854 12.265
v -83.958 0.841 9.695
v -93.698 0.792 18.705
f 1397 1398 1399 1400
v -81.166 0.861 11.680
v -77.126 1.041 2.420
v -80.334 0.953 1.020
v -84.374 0.834 10.280
f 1401 1402 1403 1404
v -76.982 1.064 1.806
v -76.392 1.206 -10.194
v -79.888 1.138 -10.366
v -80.478 0.945 1.634
f 1405 1406 1407 1408
v -76.396 1.205 -10.131
v -75.276 1.380 -23.281
v -78.764 1.351 -23.579
v -79.884 1.140 -10.429
f 1409 1410 1411 1412
v -75.313 1.375 -23.043
v -73.493 1.512 -31.063
v -76.907 1.443 -31.837
v -78.727 1.354 -23.817
f 1413 1414 1415 1416
v -73.758 1.502 -30.459
v -68.468 1.438 -38.159
v -71.352 1.459 -40.141
v -76.642 1.449 -32.441
f 1417 1418 1419 1420
v -68.844 1.444 -37.762
v -60.614 1.372 -44.082
v -62.746 1.388 -46.858
v -70.976 1.458 -40.538
f 1421 1422 1423 1424
v -60.884 1.375 -43.911
v -53.204 1.262 -47.831
v -54.796 1.264 -50.949
v -62.476 1.384 -47.029
f 1425 1426 1427 1428
v -53.673 1.269 -47.671
v -45.163 1.184 -49.291
v -45.817 1.174 -52.729
v -54.327 1.252 -51.109
f 1429 1430 1431 1432
v -45.305 1.188 -49.270
v -8.975 0.814 -53.140
v -9.345 0.732 -56.620
v -45.675 1.173 -52.750
f 1433 1434 1435 1436
v -9.383 0.814 -53.144
v 0.047 0.767 -51.934
v 0.493 0.751 -55.406
v -8.937 0.731 -56.616
f 1437 1438 1439 1440
v -0.427 0.766 -52.065
v 12.243 0.788 -46.565
v 13.637 0.787 -49.775
v 0.967 0.752 -55.275
f 1441 1442 1443 1444
v 11.926 0.785 -46.743
v 20.496 0.784 -40.653
v 22.524 0.836 -43.507
v 13.954 0.789 -49.597
f 1445 1446 1447 1448
v 20.072 0.783 -41.083
v 26.322 0.749 -32.073
v 29.198 0.764 -34.067
v 22.948 0.825 -43.077
f 1449 1450 1451 1452
v 26.239 0.750 -32.205
v 44.299 0.628 -0.445
v 47.341 0.684 -2.175
v 29.281 0.764 -33.935
f 1453 1454 1455 1456
v 44.298 0.628 -0.447
v 50.318 0.505 10.173
v 53.362 0.495 8.447
v 47.342 0.684 -2.173
f 1457 1458 1459 1460
v 50.321 0.505 10.179
v 54.341 0.532 17.209
v 57.379 0.536 15.471
v 53.359 0.496 8.441
f 1461 1462 1463 1464
v 80.100 0.970 -65.772
v 85.870 1.001 -45.922
v 89.230 0.973 -46.898
v 83.460 0.935 -66.748
f 1465 1466 1467 1468
v 85.817 1.012 -46.654
v 85.157 0.926 -41.964
v 88.623 0.940 -41.476
v 89.283 0.971 -46.166
f 1469 1470 1471 1472
v 85.544 0.943 -42.839
v 58.064 0.771 -9.789
v 60.756 0.712 -7.551
v 88.236 0.928 -40.601
f 1473 1474 1475 1476
v 92.390 0.876 -78.824
v 86.310 0.929 -73.004
v 88.730 0.860 -70.476
v 94.810 0.850 -76.296
f 1477 1478 1479 1480
v 86.312 0.929 -73.006
v 80.572 0.982 -67.526
v 82.988 0.942 -64.994
v 88.728 0.861 -70.474
f 1481 1482 1483 1484
v 80.429 0.983 -67.372
v 45.909 0.925 -25.422
v 48.611 0.909 -23.198
v 83.131 0.941 -65.148
f 1485 1486 1487 1488
v 31.213 1.741 -75.100
v 19.193 1.221 -59.780
v 21.947 1.247 -57.620
v 33.967 1.739 -72.940
f 1489 1490 1491 1492
v 38.722 1.746 -84.689
v 31.212 1.741 -75.099
v 33.968 1.739 -72.941
v 41.478 1.738 -82.531
f 1493 1494 1495 1496
v 54.611 1.172 -102.619
v 56.331 1.138 -109.729
v 52.929 1.064 -110.551
v 51.209 1.164 -103.441
f 1497 1498 1499 1500
v 56.377 1.137 -110.037
v 56.567 1.153 -113.257
v 53.073 1.079 -113.463
v 52.883 1.067 -110.243
f 1501 1502 1503 1504
v 56.508 1.163 -113.820
v 55.658 1.204 -116.940
v 52.282 1.102 -116.020
v 53.132 1.075 -112.900
f 1505 1506 1507 1508
v 55.423 1.214 -117.456
v 53.623 1.208 -120.136
v 50.717 1.092 -118.184
v 52.517 1.098 -115.504
f 1509 1510 1511 1512
v 53.241 1.211 -120.544
v 50.681 1.176 -122.524
v 48.539 1.077 -119.756
v 51.099 1.092 -117.776
f 1513 1514 1515 1516
v 50.188 1.174 -122.792
v 47.128 1.154 -123.862
v 45.972 1.062 -120.558
v 49.032 1.075 -119.488
f 1517 1518 1519 1520
v 46.577 1.151 -123.960
v 43.337 1.145 -124.010
v 43.283 1.039 -120.510
v 46.523 1.067 -120.460
f 1521 1522 1523 1524
v 42.745 1.147 -123.916
v -14.225 1.225 -104.466
v -13.095 1.255 -101.154
v 43.875 1.045 -120.604
f 1525 1526 1527 1528
v 62.714 0.998 -104.479
v 52.964 1.145 -104.779
v 52.856 1.208 -101.281
v 62.606 1.098 -100.981
f 1529 1530 1531 1532
v 52.963 1.145 -104.779
v 35.023 1.083 -105.319
v 34.917 1.202 -101.821
v 52.857 1.208 -101.281
f 1533 1534 1535 1536
v 33.640 1.066 -104.707
v 7.840 1.207 -74.537
v 10.500 1.192 -72.263
v 36.300 1.201 -102.433
f 1537 1538 1539 1540
v 76.687 0.960 -122.560
v 71.327 0.967 -116.030
v 74.033 0.940 -113.810
v 79.393 0.951 -120.340
f 1541 1542 1543 1544
v 71.328 0.967 -116.031
v 61.308 1.029 -103.841
v 64.012 1.109 -101.619
v 74.032 0.941 -113.809
f 1545 1546 1547 1548
v 61.308 1.029 -103.841
v 56.668 1.230 -98.191
v 59.372 1.242 -95.969
v 64.012 1.109 -101.619
f 1549 1550 1551 1552
v 57.403 1.204 -98.718
v 46.923 1.411 -94.768
v 48.157 1.472 -91.492
v 58.637 1.258 -95.442
f 1553 1554 1555 1556
v 46.161 1.428 -94.208
v 38.721 1.746 -84.688
v 41.479 1.738 -82.532
v 48.919 1.461 -92.052
f 1557 1558 1559 1560
v -57.666 1.084 -155.749
v -51.766 0.899 -148.239
v -49.014 0.909 -150.401
v -54.914 1.092 -157.911
f 1561 1562 1563 1564
v -51.763 0.899 -148.235
v -15.033 1.256 -101.725
v -12.287 1.215 -103.895
v -49.017 0.909 -150.405
f 1565 1566 1567 1568
v -15.042 1.256 -101.737
v 7.788 1.203 -72.327
v 10.552 1.198 -74.473
v -12.278 1.215 -103.883
f 1569 1570 1571 1572
v 7.787 1.203 -72.328
v 19.187 1.191 -57.628
v 21.953 1.296 -59.772
v 10.553 1.198 -74.472
f 1573 1574 1575 1576
v 19.187 1.191 -57.627
v 39.357 0.923 -31.637
v 42.123 1.114 -33.783
v 21.953 1.296 -59.773
f 1577 1578 1579 1580
v 39.358 0.923 -31.637
v 45.878 0.918 -23.237
v 48.642 0.904 -25.383
v 42.122 1.114 -33.783
f 1581 1582 1583 1584
v 45.878 0.918 -23.236
v 58.028 0.779 -7.596
v 60.792 0.723 -9.744
v 48.642 0.904 -25.384
f 1585 1586 1587 1588
v 58.017 0.779 -7.611
v 65.307 0.501 1.979
v 68.093 0.520 -0.139
v 60.803 0.722 -9.729
f 1589 1590 1591 1592
v 65.333 0.501 2.013
v 70.293 0.555 8.213
v 73.027 0.562 6.027
v 68.067 0.520 -0.173
f 1593 1594 1595 1596
v -37.393 1.176 -167.931
v -32.613 0.972 -159.701
v -29.587 1.005 -161.459
v -34.367 1.185 -169.689
f 1597 1598 1599 1600
v -32.643 0.973 -159.754
v -12.423 0.773 -121.994
v -9.337 0.900 -123.646
v -29.557 1.005 -161.406
f 1601 1602 1603 1604
v -11.977 0.779 -121.457
v -8.847 0.817 -118.937
v -6.653 0.976 -121.663
v -9.783 0.895 -124.183
f 1605 1606 1607 1608
v -7.984 0.841 -118.566
v -3.164 0.993 -117.916
v -2.696 1.129 -121.384
v -7.516 0.949 -122.034
f 1609 1610 1611 1612
v -2.372 1.024 -117.991
v 12.878 1.808 -123.121
v 11.762 1.956 -126.439
v -3.488 1.094 -121.309
f 1613 1614 1615 1616
v 13.631 1.843 -123.621
v 16.381 2.077 -126.731
v 13.759 2.148 -129.049
v 11.009 1.899 -125.939
f 1617 1618 1619 1620
v 16.810 2.122 -127.707
v 17.140 2.180 -130.837
v 13.660 2.276 -131.203
v 13.330 2.091 -128.073
f 1621 1622 1623 1624
v 17.058 2.184 -131.579
v 15.398 2.293 -136.499
v 12.082 2.504 -135.381
v 13.742 2.232 -130.461
f 1625 1626 1627 1628
v 15.273 2.311 -136.785
v -5.837 1.120 -175.095
v -8.903 1.106 -173.405
v 12.207 2.489 -135.095
f 1629 1630 1631 1632
v -5.870 1.119 -175.151
v -10.810 1.252 -183.381
v -13.810 1.237 -181.579
v -8.870 1.106 -173.349
f 1633 1634 1635 1636
v -227.307 1.133 -113.916
v -223.087 1.138 -109.106
v -218.953 1.103 -112.734
v -223.173 1.085 -117.544
f 1637 1638 1639 1640
v -223.087 1.138 -109.106
v -196.097 1.154 -78.346
v -191.963 1.136 -81.974
v -218.953 1.103 -112.734
f 1641 1642 1643 1644
v -196.098 1.154 -78.347
v -191.908 1.195 -73.567
v -187.772 1.170 -77.193
v -191.962 1.136 -81.973
f 1645 1646 1647 1648
v -191.696 1.198 -73.351
v -188.186 1.206 -70.141
v -184.474 1.204 -74.199
v -187.984 1.167 -77.409
f 1649 1650 1651 1652
v -2.558 1.089 162.400
v 5.212 1.060 160.710
v 4.468 1.085 157.290
v -3.302 1.089 158.980
f 1653 1654 1655 1656
v 5.438 1.068 160.644
v 149.758 0.708 108.124
v 148.562 0.720 104.836
v 4.242 1.076 157.356
f 1657 1658 1659 1660
v 149.765 0.707 108.122
v 157.095 0.673 105.422
v 155.885 0.686 102.138
v 148.555 0.720 104.838
f 1661 1662 1663 1664
v -225.426 1.118 -44.313
v -231.236 0.996 -53.393
v -234.184 0.973 -51.507
v -228.374 1.100 -42.427
f 1665 1666 1667 1668
v -231.267 0.997 -53.441
v -233.217 1.002 -56.281
v -236.103 0.967 -54.299
v -234.153 0.973 -51.459
f 1669 1670 1671 1672
v -233.121 1.004 -56.122
v -233.921 1.004 -57.602
v -236.999 0.954 -55.938
v -236.199 0.965 -54.458
f 1673 1674 1675 1676
v -233.712 0.989 -56.863
v -233.792 1.042 -58.373
v -237.288 0.962 -58.187
v -237.208 0.957 -56.677
f 1677 1678 1679 1680
v -233.792 1.034 -58.193
v -233.712 1.103 -59.793
v -237.208 0.993 -59.967
v -237.288 0.963 -58.367
f 1681 1682 1683 1684
v -233.713 1.110 -59.976
v -233.853 1.188 -62.536
v -237.347 1.079 -62.344
v -237.207 0.987 -59.784
f 1685 1686 1687 1688
v -233.852 1.188 -62.531
v -233.952 1.190 -64.461
v -237.448 1.139 -64.279
v -237.348 1.079 -62.349
f 1689 1690 1691 1692
v -234.017 1.186 -64.851
v -234.637 1.192 -67.021
v -238.003 1.176 -66.059
v -237.383 1.128 -63.889
f 1693 1694 1695 1696
v -234.958 1.197 -67.639
v -236.628 1.230 -69.709
v -239.352 1.209 -67.511
v -237.682 1.166 -65.441
f 1697 1698 1699 1700
v -236.883 1.237 -69.965
v -238.633 1.295 -71.395
v -240.847 1.241 -68.685
v -239.097 1.197 -67.255
f 1701 1702 1703 1704
v -239.204 1.314 -71.706
v -241.564 1.327 -72.466
v -242.636 1.268 -69.134
v -240.276 1.235 -68.374
f 1705 1706 1707 1708
v -241.964 1.327 -72.545
v -243.884 1.323 -72.695
v -244.156 1.295 -69.205
v -242.236 1.261 -69.055
f 1709 1710 1711 1712
v -244.289 1.322 -72.679
v -246.349 1.318 -72.359
v -245.811 1.315 -68.901
v -243.751 1.288 -69.221
f 1713 1714 1715 1716
v -246.911 1.315 -72.170
v -248.561 1.316 -71.280
v -246.899 1.349 -68.200
v -245.249 1.310 -69.090
f 1717 1718 1719 1720
v -251.412 0.964 -49.679
v -234.622 1.054 -60.989
v -236.578 1.120 -63.891
v -253.368 1.076 -52.581
f 1721 1722 1723 1724
v -226.284 1.131 -117.135
v -240.884 1.123 -106.285
v -238.796 1.153 -103.475
v -224.196 1.151 -114.325
f 1725 1726 1727 1728
v -241.228 1.179 -103.815
v -221.278 1.273 -77.815
v -218.502 1.284 -79.945
v -238.452 1.110 -105.945
f 1729 1730 1731 1732
v -220.941 1.250 -80.279
v -237.371 1.202 -67.939
v -235.269 1.154 -65.141
v -218.839 1.296 -77.481
f 1733 1734 1735 1736
v -122.487 1.021 -1.627
v -128.527 0.962 3.383
v -126.293 0.930 6.077
v -120.253 1.012 1.067
f 1737 1738 1739 1740
v -128.425 0.959 3.304
v -134.605 0.789 7.704
v -132.575 0.820 10.556
v -126.395 0.932 6.156
f 1741 1742 1743 1744
v -134.606 0.789 7.705
v -172.616 0.884 34.815
v -170.584 0.896 37.665
v -132.574 0.820 10.555
f 1745 1746 1747 1748
v -172.616 0.884 34.815
v -209.546 0.505 61.145
v -207.514 0.506 63.995
v -170.584 0.896 37.665
f 1749 1750 1751 1752
v -219.760 1.146 -48.246
v -214.750 0.984 -40.986
v -211.870 1.006 -42.974
v -216.880 1.159 -50.234
f 1753 1754 1755 1756
v -214.716 0.982 -40.939
v -206.476 0.956 -29.809
v -203.664 0.969 -31.891
v -211.904 1.007 -43.021
f 1757 1758 1759 1760
v -205.393 0.972 -29.130
v -171.363 0.871 -22.740
v -170.717 0.841 -26.180
v -204.747 0.952 -32.570
f 1761 1762 1763 1764
v -170.032 0.842 -23.029
v -159.312 0.894 -30.579
v -161.328 0.891 -33.441
v -172.048 0.875 -25.891
f 1765 1766 1767 1768
v -159.313 0.894 -30.579
v -153.133 0.984 -34.929
v -155.147 0.973 -37.791
v -161.327 0.891 -33.441
f 1769 1770 1771 1772
v -179.226 0.534 122.278
v -133.766 0.786 184.898
v -130.934 0.791 182.842
v -176.394 0.526 120.222
f 1773 1774 1775 1776
v -203.877 0.887 -134.999
v -209.067 0.884 -124.889
v -205.953 0.956 -123.291
v -200.763 0.871 -133.401
f 1777 1778 1779 1780
v -208.732 0.883 -125.343
v -222.242 1.152 -112.173
v -219.798 1.149 -109.667
v -206.288 0.959 -122.837
f 1781 1782 1783 1784
v -201.078 0.860 -132.967
v -146.348 1.357 -188.117
v -148.832 1.365 -190.583
v -203.562 0.881 -135.433
f 1785 1786 1787 1788
v -146.636 1.384 -190.817
v -191.186 1.196 -219.767
v -193.094 1.155 -216.833
v -148.544 1.327 -187.883
f 1789 1790 1791 1792
v -192.846 1.160 -219.901
v -242.456 1.217 -198.021
v -241.044 1.208 -194.819
v -191.434 1.164 -216.699
f 1793 1794 1795 1796
v -243.402 1.191 -195.841
v -237.192 1.011 -178.121
v -233.888 1.115 -179.279
v -240.098 1.214 -196.999
f 1797 1798 1799 1800
v -236.551 1.009 -177.271
v -231.801 1.040 -173.911
v -229.779 1.138 -176.769
v -234.529 1.119 -180.129
f 1801 1802 1803 1804
v -232.118 1.039 -174.200
v -223.928 0.976 -164.660
v -221.272 1.062 -166.940
v -229.462 1.135 -176.480
f 1805 1806 1807 1808
v -224.276 0.983 -165.298
v -222.626 0.864 -159.788
v -219.274 0.960 -160.792
v -220.924 1.053 -166.302
f 1809 1810 1811 1812
v -222.392 0.854 -159.299
v -219.862 0.801 -155.619
v -216.978 0.932 -157.601
v -219.508 0.967 -161.281
f 1813 1814 1815 1816
v -219.841 0.800 -155.589
v -203.741 0.864 -133.179
v -200.899 0.895 -135.221
v -216.999 0.932 -157.631
f 1817 1818 1819 1820
v -194.208 1.321 -181.014
v -219.598 0.881 -157.904
v -217.242 0.860 -155.316
v -191.852 1.317 -178.426
f 1821 1822 1823 1824
v 84.951 0.942 98.761
v 46.311 0.861 41.511
v 43.409 0.809 43.469
v 82.049 0.817 100.719
f 1825 1826 1827 1828
v 45.752 0.863 43.996
v 62.492 0.886 34.076
v 60.708 0.799 31.064
v 43.968 0.804 40.984
f 1829 1830 1831 1832
v 62.493 0.886 34.075
v 104.163 0.861 9.355
v 102.377 0.803 6.345
v 60.707 0.799 31.065
f 1833 1834 1835 1836
v 101.615 0.837 8.417
v 120.985 0.887 64.927
v 124.295 0.783 63.793
v 104.925 0.831 7.283
f 1837 1838 1839 1840
v 120.984 0.887 64.927
v 126.174 0.862 80.087
v 129.486 0.819 78.953
v 124.296 0.783 63.793
f 1841 1842 1843 1844
v 51.289 0.526 19.073
v 54.169 0.584 23.643
v 57.131 0.585 21.777
v 54.251 0.532 17.207
f 1845 1846 1847 1848
v 54.152 0.583 23.614
v 60.102 0.843 33.474
v 63.098 0.845 31.666
v 57.148 0.586 21.806
f 1849 1850 1851 1852
v 140.115 0.613 56.207
v 132.695 0.675 58.787
v 133.845 0.662 62.093
v 141.265 0.607 59.513
f 1853 1854 1855 1856
v 132.665 0.677 58.798
v 122.035 0.835 62.718
v 123.245 0.830 66.002
v 133.875 0.660 62.082
f 1857 1858 1859 1860
v -172.925 0.877 37.383
v -105.285 0.750 115.813
v -102.635 0.740 113.527
v -170.275 0.886 35.097
f 1861 1862 1863 1864
v -134.920 0.835 10.267
v -78.940 0.892 75.737
v -76.280 0.778 73.463
v -132.260 0.797 7.993
f 1865 1866 1867 1868
v -76.481 0.823 75.937
v -69.201 0.866 69.787
v -71.459 0.843 67.113
v -78.739 0.820 73.263
f 1869 1870 1871 1872
v -69.182 0.865 69.771
v -63.362 0.933 64.711
v -65.658 0.912 62.069
v -71.478 0.844 67.129
f 1873 1874 1875 1876
v -57.280 0.837 217.040
v -54.370 0.750 232.670
v -50.930 0.836 232.030
v -53.840 0.815 216.400
f 1877 1878 1879 1880
v -54.371 0.750 232.669
v -52.011 0.708 245.399
v -48.569 0.886 244.761
v -50.929 0.836 232.031
f 1881 1882 1883 1884
v -38.736 0.785 249.431
v -42.696 0.743 236.391
v -46.044 0.835 237.409
v -42.084 0.867 250.449
f 1885 1886 1887 1888
v -42.839 0.743 236.052
v -47.049 0.798 228.452
v -50.111 0.855 230.148
v -45.901 0.837 237.748
f 1889 1890 1891 1892
v -47.050 0.798 228.451
v -54.030 0.813 215.871
v -57.090 0.838 217.569
v -50.110 0.855 230.149
f 1893 1894 1895 1896
v 3.321 1.065 177.608
v -4.329 0.995 180.288
v -3.171 0.948 183.592
v 4.479 1.060 180.912
f 1897 1898 1899 1900
v -4.328 0.995 180.288
v -16.438 0.891 184.528
v -15.282 0.877 187.832
v -3.172 0.948 183.592
f 1901 1902 1903 1904
v -16.830 0.888 184.724
v -57.960 0.820 212.124
v -56.020 0.834 215.036
v -14.890 0.878 187.636
f 1905 1906 1907 1908
v 9.838 0.993 195.130
v 1.638 0.874 197.530
v 2.622 0.883 200.890
v 10.822 0.981 198.490
f 1909 1910 1911 1912
v 1.640 0.874 197.530
v -10.900 0.810 201.190
v -9.920 0.818 204.550
v 2.620 0.883 200.890
f 1913 1914 1915 1916
v -11.406 0.807 201.431
v -49.576 0.845 227.861
v -47.584 0.822 230.739
v -9.414 0.822 204.309
f 1917 1918 1919 1920
v -49.629 0.846 227.900
v -53.699 0.768 230.950
v -51.601 0.803 233.750
v -47.531 0.821 230.700
f 1921 1922 1923 1924
v 15.238 0.942 211.323
v 7.148 0.854 213.743
v 8.152 0.857 217.097
v 16.242 0.928 214.677
f 1925 1926 1927 1928
v 7.073 0.855 213.768
v 1.693 0.878 215.648
v 2.847 0.887 218.952
v 8.227 0.854 217.072
f 1929 1930 1931 1932
v 1.207 0.868 215.910
v -41.473 0.814 248.550
v -39.347 0.802 251.330
v 3.333 0.895 218.690
f 1933 1934 1935 1936
v 22.486 0.898 233.703
v 14.866 0.831 236.993
v 16.254 0.779 240.207
v 23.874 0.896 236.917
f 1937 1938 1939 1940
v 14.865 0.831 236.994
v 3.355 0.713 241.974
v 4.745 0.715 245.186
v 16.255 0.779 240.206
f 1941 1942 1943 1944
v 3.188 0.711 242.057
v -18.760 0.655 254.477
v -17.036 0.660 257.523
v 4.912 0.715 245.103
f 1945 1946 1947 1948
v -248.742 1.316 -71.168
v -255.162 1.295 -66.618
v -253.138 1.372 -63.762
v -246.718 1.345 -68.312
f 1949 1950 1951 1952
v -255.291 1.294 -66.517
v -256.861 1.287 -65.167
v -254.579 1.355 -62.513
v -253.009 1.370 -63.863
f 1953 1954 1955 1956
v -257.101 1.181 -52.083
v -255.751 1.130 -50.990
v -253.549 1.101 -53.710
v -254.899 1.145 -54.803
f 1957 1958 1959 1960
v -255.481 1.118 -50.810
v -253.221 1.035 -49.590
v -251.559 1.035 -52.670
v -253.819 1.109 -53.890
f 1961 1962 1963 1964
v -252.955 1.023 -49.474
v -249.875 0.917 -48.424
v -248.745 0.961 -51.736
v -251.825 1.044 -52.786
f 1965 1966 1967 1968
v -250.164 0.921 -48.553
v -248.394 0.911 -47.563
v -246.686 0.943 -50.617
v -248.456 0.957 -51.607
f 1969 1970 1971 1972
v -248.565 0.910 -47.672
v -246.725 0.916 -46.342
v -244.675 0.935 -49.178
v -246.515 0.942 -50.508
f 1973 1974 1975 1976
v -247.113 0.909 -46.727
v -244.853 0.910 -43.637
v -242.027 0.936 -45.703
v -244.287 0.939 -48.793
f 1977 1978 1979 1980
v -244.889 0.911 -43.689
v -238.989 1.042 -34.979
v -236.091 1.048 -36.941
v -241.991 0.935 -45.651
f 1981 1982 1983 1984
v -218.999 0.501 50.221
v -253.409 0.760 4.241
v -256.211 0.745 6.339
v -221.801 0.479 52.319
f 1985 1986 1987 1988
v -204.026 0.876 -133.808
v -198.826 0.805 -111.188
v -195.414 0.771 -111.972
v -200.614 0.890 -134.592
f 1989 1990 1991 1992
v -198.344 0.796 -110.330
v -178.144 1.165 -90.550
v -175.696 1.148 -93.050
v -195.896 0.786 -112.830
f 1993 1994 1995 1996
v -178.059 1.163 -90.472
v -169.689 1.183 -83.292
v -167.411 1.189 -85.948
v -175.781 1.149 -93.128
f 1997 1998 1999 2000
v -251.681 0.817 -16.824
v -233.221 0.969 -29.829
v -241.859 0.935 -42.091
v -260.319 0.879 -29.087
f 2001 2002 2003 2004
v -233.254 0.969 -29.805
v -222.614 0.945 -37.215
v -231.186 1.013 -49.525
v -241.826 0.935 -42.115
f 2005 2006 2007 2008
v -222.665 0.944 -37.180
v -214.085 1.000 -43.050
v -222.555 1.054 -55.430
v -231.135 1.013 -49.560
f 2009 2010 2011 2012
v -213.938 1.002 -43.153
v -206.368 1.060 -48.603
v -215.132 1.130 -60.777
v -222.702 1.053 -55.327
f 2013 2014 2015 2016
v -118.982 0.925 -112.472
v -81.262 0.905 -136.222
v -86.058 0.956 -143.838
v -123.778 0.990 -120.088
f 2017 2018 2019 2020
v -81.306 0.905 -136.195
v -53.936 0.997 -152.995
v -58.644 1.032 -160.665
v -86.014 0.956 -143.865
f 2021 2022 2023 2024
v -54.012 0.997 -152.949
v -33.602 1.098 -164.929
v -38.158 1.118 -172.691
v -58.568 1.032 -160.711
f 2025 2026 2027 2028
v -33.622 1.098 -164.917
v -10.052 1.164 -178.587
v -14.568 1.216 -186.373
v -38.138 1.118 -172.703
f 2029 2030 2031 2032
v -10.066 1.164 -178.579
v 6.204 1.123 -187.939
v 1.716 1.182 -195.741
v -14.554 1.216 -186.381
f 2033 2034 2035 2036
v 6.206 1.123 -187.941
v 22.506 1.074 -197.331
v 18.014 1.132 -205.129
v 1.714 1.182 -195.739
f 2037 2038 2039 2040
v 22.565 1.074 -197.365
v 27.025 1.057 -200.025
v 22.415 1.118 -207.755
v 17.955 1.132 -205.095
f 2041 2042 2043 2044
v 27.020 1.057 -200.022
v 49.300 1.019 -213.272
v 44.700 1.020 -221.008
v 22.420 1.118 -207.758
f 2045 2046 2047 2048
v 43.650 1.103 -216.126
v 56.140 0.763 -174.866
v 62.840 0.710 -176.894
v 50.350 1.074 -218.154
f 2049 2050 2051 2052
v 56.140 0.763 -174.867
v 59.880 0.798 -162.497
v 66.580 0.763 -164.523
v 62.840 0.710 -176.893
f 2053 2054 2055 2056
v 59.929 0.799 -162.347
v 65.009 0.828 -147.927
v 71.611 0.820 -150.253
v 66.531 0.763 -164.673
f 2057 2058 2059 2060
v 65.009 0.828 -147.928
v 74.739 0.931 -120.288
v 81.341 0.892 -122.612
v 71.611 0.820 -150.252
f 2061 2062 2063 2064
v 74.738 0.931 -120.290
v 77.098 0.952 -113.570
v 83.702 0.920 -115.890
v 81.342 0.892 -122.610
f 2065 2066 2067 2068
v 77.102 0.952 -113.559
v 90.302 0.837 -76.389
v 96.898 0.787 -78.731
v 83.698 0.920 -115.901
f 2069 2070 2071 2072
v 90.302 0.837 -76.388
v 108.812 0.694 -24.298
v 115.408 0.696 -26.642
v 96.898 0.787 -78.732
f 2073 2074 2075 2076
v 108.812 0.694 -24.298
v 111.462 0.721 -16.838
v 118.058 0.735 -19.182
v 115.408 0.696 -26.642
f 2077 2078 2079 2080
v 112.495 0.712 -21.898
v 105.045 0.692 -17.558
v 109.575 0.653 -9.782
v 117.025 0.707 -14.122
f 2081 2082 2083 2084
v 105.043 0.692 -17.557
v 69.393 0.539 3.233
v 73.927 0.620 11.007
v 109.577 0.653 -9.783
f 2085 2086 2087 2088
v 69.392 0.539 3.233
v 53.592 0.509 12.453
v 58.128 0.565 20.227
v 73.928 0.620 11.007
f 2089 2090 2091 2092
v 53.595 0.509 12.452
v 50.505 0.502 14.252
v 55.035 0.547 22.028
v 58.125 0.565 20.228
f 2093 2094 2095 2096
v 50.502 0.502 14.253
v 13.342 0.525 35.933
v 17.878 0.585 43.707
v 55.038 0.547 22.027
f 2097 2098 2099 2100
v 13.343 0.525 35.933
v -53.597 0.930 74.963
v -49.063 0.939 82.737
v 17.877 0.585 43.707
f 2101 2102 2103 2104
v -190.843 1.209 -68.216
v -181.583 1.079 -57.646
v -172.557 1.051 -65.554
v -181.817 1.198 -76.124
f 2105 2106 2107 2108
v -181.511 1.079 -57.565
v -158.581 0.866 -32.325
v -149.699 0.875 -40.395
v -172.629 1.053 -65.635
f 2109 2110 2111 2112
v -158.581 0.866 -32.326
v -125.811 0.923 3.754
v -116.929 0.920 -4.314
v -149.699 0.875 -40.394
f 2113 2114 2115 2116
v -125.812 0.923 3.753
v -115.842 0.872 14.733
v -106.958 0.885 6.667
v -116.928 0.920 -4.313
f 2117 2118 2119 2120
v -115.874 0.873 14.698
v -102.744 0.816 29.388
v -93.796 0.762 21.392
v -106.926 0.885 6.702
f 2121 2122 2123 2124
v -102.743 0.816 29.389
v -73.283 0.824 62.339
v -64.337 0.744 54.341
v -93.797 0.762 21.391
f 2125 2126 2127 2128
v -73.378 0.826 62.230
v -69.078 0.824 67.280
v -59.942 0.783 59.500
v -64.242 0.745 54.450
f 2129 2130 2131 2132
v -69.076 0.824 67.283
v -55.896 0.882 82.743
v -46.764 0.877 74.957
v -59.944 0.783 59.497
f 2133 2134 2135 2136
v 50.708 0.938 -210.621
v 94.628 0.988 -235.601
v 87.212 1.025 -248.639
v 43.292 0.965 -223.659
f 2137 2138 2139 2140
v -181.950 1.160 -66.082
v -171.760 1.132 -73.412
v -180.520 1.192 -85.588
v -190.710 1.148 -78.258
f 2141 2142 2143 2144
v -171.946 1.130 -73.282
v -164.356 1.184 -78.402
v -172.744 1.120 -90.838
v -180.334 1.191 -85.718
f 2145 2146 2147 2148
v -164.188 1.183 -78.519
v -150.748 1.074 -88.129
v -159.472 1.048 -100.331
v -172.912 1.122 -90.721
f 2149 2150 2151 2152
v -151.006 1.079 -87.952
v -117.276 0.915 -110.002
v -125.484 0.912 -122.558
v -159.214 1.045 -100.508
f 2153 2154 2155 2156
v -206.301 1.061 -48.652
v -191.181 1.193 -59.792
v -200.079 1.195 -71.868
v -215.199 1.129 -60.728
f 2157 2158 2159 2160
v -191.405 1.195 -59.633
v -182.105 1.160 -65.973
v -190.555 1.148 -78.367
v -199.855 1.195 -72.027
f 2161 2162 2163 2164
v 29.100 0.875 252.562
v 23.827 0.706 254.342
v 24.947 0.706 257.658
v 30.220 0.866 255.878
f 2165 2166 2167 2168
v 254.243 0.730 -103.012
v 185.783 0.949 -63.287
v 189.297 0.932 -57.233
v 257.757 0.729 -96.958
f 2169 2170 2171 2172
v 185.783 0.949 -63.287
v 118.613 0.729 -24.307
v 122.127 0.739 -18.253
v 189.297 0.932 -57.233
f 2173 2174 2175 2176
v 118.615 0.729 -24.308
v 117.735 0.731 -23.798
v 121.245 0.725 -17.742
v 122.125 0.739 -18.252
f 2177 2178 2179 2180
v 117.726 0.731 -23.793
v 112.996 0.717 -21.033
v 116.524 0.712 -14.987
v 121.254 0.726 -17.747
f 2181 2182 2183 2184
v -238.046 0.865 254.102
v -240.896 0.841 253.982
v -241.044 0.791 257.478
v -238.194 0.818 257.598
f 2185 2186 2187 2188
v 2.410 1.225 -191.028
v 6.860 1.042 -182.538
v 9.960 1.023 -184.162
v 5.510 1.211 -192.652
f 2189 2190 2191 2192
v 6.935 1.036 -182.409
v 8.205 0.951 -180.419
v 11.155 0.966 -182.301
v 9.885 1.027 -184.291
f 2193 2194 2195 2196
v 8.203 0.951 -180.421
v 11.123 0.980 -175.831
v 14.077 0.983 -177.709
v 11.157 0.966 -182.299
f 2197 2198 2199 2200
v 11.125 0.980 -175.829
v 16.535 1.060 -167.349
v 19.485 1.046 -169.231
v 14.075 0.983 -177.711
f 2201 2202 2203 2204
v 23.227 1.163 -202.977
v 28.257 0.963 -194.747
v 31.243 0.945 -196.573
v 26.213 1.148 -204.803
f 2205 2206 2207 2208
v 28.286 0.962 -194.701
v 29.616 0.887 -192.671
v 32.544 0.836 -194.589
v 31.214 0.948 -196.619
f 2209 2210 2211 2212
v 29.609 0.888 -192.681
v 31.989 0.863 -188.991
v 34.931 0.826 -190.889
v 32.551 0.836 -194.579
f 2213 2214 2215 2216
v 31.992 0.863 -188.987
v 40.702 0.881 -175.567
v 43.638 0.822 -177.473
v 34.928 0.826 -190.893
f 2217 2218 2219 2220
v 40.853 0.882 -175.367
v 45.133 0.836 -170.477
v 47.767 0.785 -172.783
v 43.487 0.825 -177.673
f 2221 2222 2223 2224
v 47.011 0.817 -169.972
v 53.041 0.764 -172.012
v 51.919 0.751 -175.328
v 45.889 0.811 -173.288
f 2225 2226 2227 2228
v 53.006 0.764 -172.001
v 60.016 0.800 -174.211
v 58.964 0.797 -177.549
v 51.954 0.750 -175.339
f 2229 2230 2231 2232
v 13.534 0.988 -175.290
v 19.304 1.008 -178.930
v 17.436 1.013 -181.890
v 11.666 0.966 -178.250
f 2233 2234 2235 2236
v 25.053 1.011 -182.570
v 34.393 0.846 -188.460
v 32.527 0.836 -191.420
v 23.187 1.006 -185.530
f 2237 2238 2239 2240
v 19.306 1.008 -178.931
v 25.056 1.011 -182.571
v 23.184 1.006 -185.529
v 17.434 1.013 -181.889
f 2241 2242 2243 2244
v 10.550 0.952 -179.842
v 31.950 0.838 -192.112
v 30.210 0.928 -195.148
v 8.810 1.019 -182.878
f 2245 2246 2247 2248
v -88.722 0.764 164.751
v -49.292 1.503 139.331
v -51.188 1.311 136.389
v -90.618 0.761 161.809
f 2249 2250 2251 2252
v -50.635 1.507 139.565
v -36.075 1.515 142.935
v -35.285 1.298 139.525
v -49.845 1.314 136.155
f 2253 2254 2255 2256
v -37.290 1.509 141.915
v -25.330 1.952 170.025
v -22.110 1.767 168.655
v -34.070 1.293 140.545
f 2257 2258 2259 2260
v -23.047 1.900 170.955
v -10.717 1.099 165.815
v -12.063 1.080 162.585
v -24.393 1.744 167.725
f 2261 2262 2263 2264
v -10.719 1.099 165.816
v -2.259 1.086 162.306
v -3.601 1.091 159.074
v -12.061 1.080 162.584
f 2265 2266 2267 2268
usemtl asphalt
