# Baked ultra-low Key West silhouette; generated by bake_key_west_far_city.py
mtllib far_city.mtl
usemtl massing
v -254.847 0.940 -252.444
v -238.785 0.940 -235.580
v -251.913 0.940 -223.076
v -267.975 0.940 -239.940
v -254.847 4.840 -252.444
v -238.785 4.840 -235.580
v -251.913 4.840 -223.076
v -267.975 4.840 -239.940
f 8 7 6 5
f 1 2 6 5
f 2 3 7 6
f 3 4 8 7
f 4 1 5 8
v -241.188 1.033 -196.414
v -225.125 1.033 -179.550
v -238.252 1.033 -167.046
v -254.315 1.033 -183.910
v -241.188 4.933 -196.414
v -225.125 4.933 -179.550
v -238.252 4.933 -167.046
v -254.315 4.933 -183.910
f 16 15 14 13
f 9 10 14 13
f 10 11 15 14
f 11 12 16 15
f 12 9 13 16
v -222.408 0.861 -220.184
v -206.345 0.861 -203.320
v -219.472 0.861 -190.816
v -235.535 0.861 -207.680
v -222.408 4.761 -220.184
v -206.345 4.761 -203.320
v -219.472 4.761 -190.816
v -235.535 4.761 -207.680
f 24 23 22 21
f 17 18 22 21
f 18 19 23 22
f 19 20 24 23
f 20 17 21 24
v -200.087 0.824 -239.304
v -184.025 0.824 -222.440
v -197.153 0.824 -209.936
v -213.215 0.824 -226.800
v -200.087 4.724 -239.304
v -184.025 4.724 -222.440
v -197.153 4.724 -209.936
v -213.215 4.724 -226.800
f 32 31 30 29
f 25 26 30 29
f 26 27 31 30
f 27 28 32 31
f 28 25 29 32
v -180.627 0.843 -259.514
v -164.565 0.843 -242.650
v -177.693 0.843 -230.146
v -193.755 0.843 -247.010
v -180.627 4.743 -259.514
v -164.565 4.743 -242.650
v -177.693 4.743 -230.146
v -193.755 4.743 -247.010
f 40 39 38 37
f 33 34 38 37
f 34 35 39 38
f 35 36 40 39
f 36 33 37 40
usemtl road
v -204.130 1.011 -257.924
v -233.295 0.991 -228.144
v -229.365 0.991 -224.296
v -200.201 0.935 -254.076
f 41 42 43 44
usemtl asphalt
