# Baked ultra-low Key West silhouette; generated by bake_key_west_far_city.py
mtllib far_city.mtl
usemtl massing
v -267.517 1.423 -123.974
v -251.574 1.423 -143.515
v -236.783 1.423 -131.446
v -252.726 1.423 -111.905
v -267.517 5.323 -123.974
v -251.574 5.323 -143.515
v -236.783 5.323 -131.446
v -252.726 5.323 -111.905
f 8 7 6 5
f 1 2 6 5
f 2 3 7 6
f 3 4 8 7
f 4 1 5 8
v -224.417 1.143 -99.644
v -207.826 1.143 -82.958
v -221.023 1.143 -69.836
v -237.614 1.143 -86.522
v -224.417 5.043 -99.644
v -207.826 5.043 -82.958
v -221.023 5.043 -69.836
v -237.614 5.043 -86.522
f 16 15 14 13
f 9 10 14 13
f 10 11 15 14
f 11 12 16 15
f 12 9 13 16
v -81.679 1.674 -260.178
v -79.051 1.674 -238.839
v -96.241 1.674 -236.722
v -98.869 1.674 -258.061
v -81.679 5.574 -260.178
v -79.051 5.574 -238.839
v -96.241 5.574 -236.722
v -98.869 5.574 -258.061
f 24 23 22 21
f 17 18 22 21
f 18 19 23 22
f 19 20 24 23
f 20 17 21 24
v -246.572 1.178 -74.314
v -231.042 1.178 -56.200
v -245.428 1.178 -43.866
v -260.958 1.178 -61.980
v -246.572 5.078 -74.314
v -231.042 5.078 -56.200
v -245.428 5.078 -43.866
v -260.958 5.078 -61.980
f 32 31 30 29
f 25 26 30 29
f 26 27 31 30
f 27 28 32 31
f 28 25 29 32
v -203.058 1.169 -57.794
v -186.439 1.169 -40.659
v -200.042 1.169 -27.466
v -216.661 1.169 -44.601
v -203.058 5.069 -57.794
v -186.439 5.069 -40.659
v -200.042 5.069 -27.466
v -216.661 5.069 -44.601
f 40 39 38 37
f 33 34 38 37
f 34 35 39 38
f 35 36 40 39
f 36 33 37 40
v -225.339 1.119 -34.316
v -207.969 1.119 -17.957
v -220.941 1.119 -4.184
v -238.311 1.119 -20.543
v -225.339 5.019 -34.316
v -207.969 5.019 -17.957
v -220.941 5.019 -4.184
v -238.311 5.019 -20.543
f 48 47 46 45
f 41 42 46 45
f 42 43 47 46
f 43 44 48 47
f 44 41 45 48
v -253.430 1.098 136.490
v -236.834 1.098 155.665
v -251.330 1.098 168.210
v -267.926 1.098 149.035
v -253.430 4.998 136.490
v -236.834 4.998 155.665
v -251.330 4.998 168.210
v -267.926 4.998 149.035
f 56 55 54 53
f 49 50 54 53
f 50 51 55 54
f 51 52 56 55
f 52 49 53 56
v -234.234 1.153 116.505
v -217.759 1.153 132.868
v -232.226 1.153 147.435
v -248.701 1.153 131.072
v -234.234 6.953 116.505
v -217.759 6.953 132.868
v -232.226 6.953 147.435
v -248.701 6.953 131.072
f 64 63 62 61
f 57 58 62 61
f 58 59 63 62
f 59 60 64 63
f 60 57 61 64
v -181.187 0.953 136.019
v -164.626 0.953 153.043
v -178.173 0.953 166.221
v -194.734 0.953 149.197
v -181.187 4.853 136.019
v -164.626 4.853 153.043
v -178.173 4.853 166.221
v -194.734 4.853 149.197
f 72 71 70 69
f 65 66 70 69
f 66 67 71 70
f 67 68 72 71
f 68 65 69 72
v -203.329 1.062 154.602
v -187.128 1.062 172.687
v -201.071 1.062 185.178
v -217.272 1.062 167.093
v -203.329 4.962 154.602
v -187.128 4.962 172.687
v -201.071 4.962 185.178
v -217.272 4.962 167.093
f 80 79 78 77
f 73 74 78 77
f 74 75 79 78
f 75 76 80 79
f 76 73 77 80
v -176.682 0.891 78.887
v -152.757 0.891 79.735
v -153.438 0.891 98.993
v -177.363 0.891 98.145
v -176.682 4.791 78.887
v -152.757 4.791 79.735
v -153.438 4.791 98.993
v -177.363 4.791 98.145
f 88 87 86 85
f 81 82 86 85
f 82 83 87 86
f 83 84 88 87
f 84 81 85 88
v -148.027 0.993 91.150
v -125.894 0.993 81.387
v -118.553 0.993 98.030
v -140.686 0.993 107.793
v -148.027 4.893 91.150
v -125.894 4.893 81.387
v -118.553 4.893 98.030
v -140.686 4.893 107.793
f 96 95 94 93
f 89 90 94 93
f 90 91 95 94
f 91 92 96 95
f 92 89 93 96
v -123.341 0.957 121.099
v -107.519 0.957 99.828
v -92.419 0.957 111.061
v -108.241 0.957 132.332
v -123.341 6.757 121.099
v -107.519 6.757 99.828
v -92.419 6.757 111.061
v -108.241 6.757 132.332
f 104 103 102 101
f 97 98 102 101
f 98 99 103 102
f 99 100 104 103
f 100 97 101 104
v -107.395 1.133 156.600
v -104.011 1.133 132.769
v -85.625 1.133 135.380
v -89.009 1.133 159.211
v -107.395 5.033 156.600
v -104.011 5.033 132.769
v -85.625 5.033 135.380
v -89.009 5.033 159.211
f 112 111 110 109
f 105 106 110 109
f 106 107 111 110
f 107 108 112 111
f 108 105 109 112
v -95.103 1.039 163.344
v -86.927 1.039 186.068
v -105.737 1.039 192.836
v -113.913 1.039 170.112
v -95.103 4.939 163.344
v -86.927 4.939 186.068
v -105.737 4.939 192.836
v -113.913 4.939 170.112
f 120 119 118 117
f 113 114 118 117
f 114 115 119 118
f 115 116 120 119
f 116 113 117 120
v -168.042 1.121 171.878
v -151.346 1.121 189.383
v -165.058 1.121 202.462
v -181.754 1.121 184.957
v -168.042 5.021 171.878
v -151.346 5.021 189.383
v -165.058 5.021 202.462
v -181.754 5.021 184.957
f 128 127 126 125
f 121 122 126 125
f 122 123 127 126
f 123 124 128 127
f 124 121 125 128
v -139.165 0.739 136.556
v -135.871 0.739 132.769
v -133.555 0.739 134.784
v -136.849 0.739 138.571
v -139.165 4.639 136.556
v -135.871 4.639 132.769
v -133.555 4.639 134.784
v -136.849 4.639 138.571
f 136 135 134 133
f 129 130 134 133
f 130 131 135 134
f 131 132 136 135
f 132 129 133 136
v -246.257 1.057 197.946
v -230.195 1.057 214.810
v -243.323 1.057 227.314
v -259.385 1.057 210.450
v -246.257 4.957 197.946
v -230.195 4.957 214.810
v -243.323 4.957 227.314
v -259.385 4.957 210.450
f 144 143 142 141
f 137 138 142 141
f 138 139 143 142
f 139 140 144 143
f 140 137 141 144
v -221.417 1.187 177.776
v -205.355 1.187 194.640
v -218.483 1.187 207.144
v -234.545 1.187 190.280
v -221.417 5.087 177.776
v -205.355 5.087 194.640
v -218.483 5.087 207.144
v -234.545 5.087 190.280
f 152 151 150 149
f 145 146 150 149
f 146 147 151 150
f 147 148 152 151
f 148 145 149 152
v -191.767 1.136 193.266
v -175.705 1.136 210.130
v -188.833 1.136 222.634
v -204.895 1.136 205.770
v -191.767 5.036 193.266
v -175.705 5.036 210.130
v -188.833 5.036 222.634
v -204.895 5.036 205.770
f 160 159 158 157
f 153 154 158 157
f 154 155 159 158
f 155 156 160 159
f 156 153 157 160
v -208.377 0.968 215.266
v -192.315 0.968 232.130
v -205.443 0.968 244.634
v -221.505 0.968 227.770
v -208.377 4.868 215.266
v -192.315 4.868 232.130
v -205.443 4.868 244.634
v -221.505 4.868 227.770
f 168 167 166 165
f 161 162 166 165
f 162 163 167 166
f 163 164 168 167
f 164 161 165 168
v -231.437 0.938 237.946
v -215.375 0.938 254.810
v -228.503 0.938 267.314
v -244.565 0.938 250.450
v -231.437 4.838 237.946
v -215.375 4.838 254.810
v -228.503 4.838 267.314
v -244.565 4.838 250.450
f 176 175 174 173
f 169 170 174 173
f 170 171 175 174
f 171 172 176 175
f 172 169 173 176
v -161.147 1.091 230.146
v -145.085 1.091 247.010
v -158.213 1.091 259.514
v -174.275 1.091 242.650
v -161.147 4.991 230.146
v -145.085 4.991 247.010
v -158.213 4.991 259.514
v -174.275 4.991 242.650
f 184 183 182 181
f 177 178 182 181
f 178 179 183 182
f 179 180 184 183
f 180 177 181 184
v -140.607 1.033 210.296
v -124.545 1.033 227.160
v -137.673 1.033 239.664
v -153.735 1.033 222.800
v -140.607 4.933 210.296
v -124.545 4.933 227.160
v -137.673 4.933 239.664
v -153.735 4.933 222.800
f 192 191 190 189
f 185 186 190 189
f 186 187 191 190
f 187 188 192 191
f 188 185 189 192
v -120.777 1.109 189.376
v -104.715 1.109 206.240
v -117.843 1.109 218.744
v -133.905 1.109 201.880
v -120.777 5.009 189.376
v -104.715 5.009 206.240
v -117.843 5.009 218.744
v -133.905 5.009 201.880
f 200 199 198 197
f 193 194 198 197
f 194 195 199 198
f 195 196 200 199
f 196 193 197 200
v 38.562 0.906 -198.257
v 40.133 0.906 -207.048
v 42.958 0.906 -206.543
v 41.387 0.906 -197.752
v 38.562 4.806 -198.257
v 40.133 4.806 -207.048
v 42.958 4.806 -206.543
v 41.387 4.806 -197.752
f 208 207 206 205
f 201 202 206 205
f 202 203 207 206
f 203 204 208 207
f 204 201 205 208
v -8.738 1.048 -192.657
v -6.074 1.048 -202.254
v -3.222 1.048 -201.463
v -5.886 1.048 -191.866
v -8.738 4.948 -192.657
v -6.074 4.948 -202.254
v -3.222 4.948 -201.463
v -5.886 4.948 -191.866
f 216 215 214 213
f 209 210 214 213
f 210 211 215 214
f 211 212 216 215
f 212 209 213 216
v -49.601 1.057 -182.688
v -46.859 1.057 -194.504
v -44.219 1.057 -193.892
v -46.961 1.057 -182.076
v -49.601 4.957 -182.688
v -46.859 4.957 -194.504
v -44.219 4.957 -193.892
v -46.961 4.957 -182.076
f 224 223 222 221
f 217 218 222 221
f 218 219 223 222
f 219 220 224 223
f 220 217 221 224
v -58.217 1.034 -181.186
v -55.072 1.034 -192.632
v -52.603 1.034 -191.954
v -55.748 1.034 -180.508
v -58.217 4.934 -181.186
v -55.072 4.934 -192.632
v -52.603 4.934 -191.954
v -55.748 4.934 -180.508
f 232 231 230 229
f 225 226 230 229
f 226 227 231 230
f 227 228 232 231
f 228 225 229 232
v -72.168 1.234 -169.361
v -69.300 1.234 -180.467
v -66.792 1.234 -179.819
v -69.660 1.234 -168.713
v -72.168 5.134 -169.361
v -69.300 5.134 -180.467
v -66.792 5.134 -179.819
v -69.660 5.134 -168.713
f 240 239 238 237
f 233 234 238 237
f 234 235 239 238
f 235 236 240 239
f 236 233 237 240
v -83.843 0.980 -173.633
v -80.148 0.980 -187.271
v -77.697 0.980 -186.607
v -81.392 0.980 -172.969
v -83.843 4.880 -173.633
v -80.148 4.880 -187.271
v -77.697 4.880 -186.607
v -81.392 4.880 -172.969
f 248 247 246 245
f 241 242 246 245
f 242 243 247 246
f 243 244 248 247
f 244 241 245 248
v -75.164 0.908 -210.944
v -73.631 0.908 -221.766
v -71.156 0.908 -221.416
v -72.689 0.908 -210.594
v -75.164 4.808 -210.944
v -73.631 4.808 -221.766
v -71.156 4.808 -221.416
v -72.689 4.808 -210.594
f 256 255 254 253
f 249 250 254 253
f 250 251 255 254
f 251 252 256 255
f 252 249 253 256
v -85.075 1.001 -207.727
v -82.758 1.001 -218.551
v -80.245 1.001 -218.013
v -82.562 1.001 -207.189
v -85.075 4.901 -207.727
v -82.758 4.901 -218.551
v -80.245 4.901 -218.013
v -82.562 4.901 -207.189
f 264 263 262 261
f 257 258 262 261
f 258 259 263 262
f 259 260 264 263
f 260 257 261 264
v -93.546 1.024 -206.643
v -91.546 1.024 -215.991
v -88.954 1.024 -215.437
v -90.954 1.024 -206.089
v -93.546 4.924 -206.643
v -91.546 4.924 -215.991
v -88.954 4.924 -215.437
v -90.954 4.924 -206.089
f 272 271 270 269
f 265 266 270 269
f 266 267 271 270
f 267 268 272 271
f 268 265 269 272
v -101.717 1.032 -205.555
v -99.635 1.032 -216.162
v -97.103 1.032 -215.665
v -99.185 1.032 -205.058
v -101.717 4.932 -205.555
v -99.635 4.932 -216.162
v -97.103 4.932 -215.665
v -99.185 4.932 -205.058
f 280 279 278 277
f 273 274 278 277
f 274 275 279 278
f 275 276 280 279
f 276 273 277 280
v -12.435 0.957 -253.042
v -7.707 0.957 -243.287
v -10.325 0.957 -242.018
v -15.053 0.957 -251.773
v -12.435 4.857 -253.042
v -7.707 4.857 -243.287
v -10.325 4.857 -242.018
v -15.053 4.857 -251.773
f 288 287 286 285
f 281 282 286 285
f 282 283 287 286
f 283 284 288 287
f 284 281 285 288
v -14.637 0.916 -228.451
v -13.042 0.916 -236.331
v -10.563 0.916 -235.829
v -12.158 0.916 -227.949
v -14.637 4.816 -228.451
v -13.042 4.816 -236.331
v -10.563 4.816 -235.829
v -12.158 4.816 -227.949
f 296 295 294 293
f 289 290 294 293
f 290 291 295 294
f 291 292 296 295
f 292 289 293 296
v -43.551 1.026 -239.874
v -33.160 1.026 -237.934
v -33.729 1.026 -234.886
v -44.120 1.026 -236.826
v -43.551 4.926 -239.874
v -33.160 4.926 -237.934
v -33.729 4.926 -234.886
v -44.120 4.926 -236.826
f 304 303 302 301
f 297 298 302 301
f 298 299 303 302
f 299 300 304 303
f 300 297 301 304
v -118.787 1.221 -251.001
v -113.458 1.221 -261.886
v -110.953 1.221 -260.659
v -116.282 1.221 -249.774
v -118.787 5.121 -251.001
v -113.458 5.121 -261.886
v -110.953 5.121 -260.659
v -116.282 5.121 -249.774
f 312 311 310 309
f 305 306 310 309
f 306 307 311 310
f 307 308 312 311
f 308 305 309 312
v -130.997 0.942 -244.908
v -123.657 0.942 -244.241
v -123.883 0.942 -241.752
v -131.223 0.942 -242.419
v -130.997 4.842 -244.908
v -123.657 4.842 -244.241
v -123.883 4.842 -241.752
v -131.223 4.842 -242.419
f 320 319 318 317
f 313 314 318 317
f 314 315 319 318
f 315 316 320 319
f 316 313 317 320
v -119.459 1.167 -218.787
v -118.508 1.167 -225.813
v -116.001 1.167 -225.473
v -116.952 1.167 -218.447
v -119.459 5.067 -218.787
v -118.508 5.067 -225.813
v -116.001 5.067 -225.473
v -116.952 5.067 -218.447
f 328 327 326 325
f 321 322 326 325
f 322 323 327 326
f 323 324 328 327
f 324 321 325 328
v -119.204 1.070 -202.925
v -116.935 1.070 -210.752
v -114.256 1.070 -209.975
v -116.525 1.070 -202.148
v -119.204 4.970 -202.925
v -116.935 4.970 -210.752
v -114.256 4.970 -209.975
v -116.525 4.970 -202.148
f 336 335 334 333
f 329 330 334 333
f 330 331 335 334
f 331 332 336 335
f 332 329 333 336
v -143.804 1.085 -194.203
v -141.261 1.085 -205.172
v -138.436 1.085 -204.517
v -140.979 1.085 -193.548
v -143.804 4.985 -194.203
v -141.261 4.985 -205.172
v -138.436 4.985 -204.517
v -140.979 4.985 -193.548
f 344 343 342 341
f 337 338 342 341
f 338 339 343 342
f 339 340 344 343
f 340 337 341 344
v -144.766 1.123 -211.905
v -142.327 1.123 -222.395
v -139.834 1.123 -221.815
v -142.273 1.123 -211.325
v -144.766 5.023 -211.905
v -142.327 5.023 -222.395
v -139.834 5.023 -221.815
v -142.273 5.023 -211.325
f 352 351 350 349
f 345 346 350 349
f 346 347 351 350
f 347 348 352 351
f 348 345 349 352
v -107.260 1.038 -168.030
v -104.260 1.038 -178.904
v -101.600 1.038 -178.170
v -104.600 1.038 -167.296
v -107.260 4.938 -168.030
v -104.260 4.938 -178.904
v -101.600 4.938 -178.170
v -104.600 4.938 -167.296
f 360 359 358 357
f 353 354 358 357
f 354 355 359 358
f 355 356 360 359
f 356 353 357 360
v -123.472 1.169 -165.963
v -120.612 1.169 -176.325
v -118.048 1.169 -175.617
v -120.908 1.169 -165.255
v -123.472 5.069 -165.963
v -120.612 5.069 -176.325
v -118.048 5.069 -175.617
v -120.908 5.069 -165.255
f 368 367 366 365
f 361 362 366 365
f 362 363 367 366
f 363 364 368 367
f 364 361 365 368
v -139.908 1.012 -157.571
v -136.900 1.012 -169.292
v -133.772 1.012 -168.489
v -136.780 1.012 -156.768
v -139.908 4.912 -157.571
v -136.900 4.912 -169.292
v -133.772 4.912 -168.489
v -136.780 4.912 -156.768
f 376 375 374 373
f 369 370 374 373
f 370 371 375 374
f 371 372 376 375
f 372 369 373 376
v -152.576 1.045 -149.377
v -146.668 1.045 -147.050
v -147.584 1.045 -144.723
v -153.492 1.045 -147.050
v -152.576 4.945 -149.377
v -146.668 4.945 -147.050
v -147.584 4.945 -144.723
v -153.492 4.945 -147.050
f 384 383 382 381
f 377 378 382 381
f 378 379 383 382
f 379 380 384 383
f 380 377 381 384
v -179.009 1.071 -203.127
v -172.851 1.071 -194.169
v -174.911 1.071 -192.753
v -181.069 1.071 -201.711
v -179.009 4.971 -203.127
v -172.851 4.971 -194.169
v -174.911 4.971 -192.753
v -181.069 4.971 -201.711
f 392 391 390 389
f 385 386 390 389
f 386 387 391 390
f 387 388 392 391
f 388 385 389 392
v -189.815 1.188 -211.784
v -180.829 1.188 -208.860
v -181.625 1.188 -206.416
v -190.611 1.188 -209.340
v -189.815 5.088 -211.784
v -180.829 5.088 -208.860
v -181.625 5.088 -206.416
v -190.611 5.088 -209.340
f 400 399 398 397
f 393 394 398 397
f 394 395 399 398
f 395 396 400 399
f 396 393 397 400
v -175.340 1.169 -231.491
v -166.060 1.169 -230.270
v -166.500 1.169 -226.929
v -175.780 1.169 -228.150
v -175.340 5.069 -231.491
v -166.060 5.069 -230.270
v -166.500 5.069 -226.929
v -175.780 5.069 -228.150
f 408 407 406 405
f 401 402 406 405
f 402 403 407 406
f 403 404 408 407
f 404 401 405 408
v -175.870 1.275 -247.478
v -164.826 1.275 -248.480
v -164.570 1.275 -245.662
v -175.614 1.275 -244.660
v -175.870 5.175 -247.478
v -164.826 5.175 -248.480
v -164.570 5.175 -245.662
v -175.614 5.175 -244.660
f 416 415 414 413
f 409 410 414 413
f 410 411 415 414
f 411 412 416 415
f 412 409 413 416
v -222.423 1.149 -254.032
v -210.684 1.149 -253.323
v -210.857 1.149 -250.448
v -222.596 1.149 -251.157
v -222.423 5.049 -254.032
v -210.684 5.049 -253.323
v -210.857 5.049 -250.448
v -222.596 5.049 -251.157
f 424 423 422 421
f 417 418 422 421
f 418 419 423 422
f 419 420 424 423
f 420 417 421 424
v -226.136 1.212 -245.291
v -214.046 1.212 -245.148
v -214.084 1.212 -241.929
v -226.174 1.212 -242.072
v -226.136 5.112 -245.291
v -214.046 5.112 -245.148
v -214.084 5.112 -241.929
v -226.174 5.112 -242.072
f 432 431 430 429
f 425 426 430 429
f 426 427 431 430
f 427 428 432 431
f 428 425 429 432
v -224.359 1.177 -229.202
v -214.059 1.177 -229.198
v -214.061 1.177 -226.238
v -224.361 1.177 -226.242
v -224.359 5.077 -229.202
v -214.059 5.077 -229.198
v -214.061 5.077 -226.238
v -224.361 5.077 -226.242
f 440 439 438 437
f 433 434 438 437
f 434 435 439 438
f 435 436 440 439
f 436 433 437 440
v -217.633 1.202 -201.937
v -206.501 1.202 -200.051
v -207.007 1.202 -197.063
v -218.139 1.202 -198.949
v -217.633 5.102 -201.937
v -206.501 5.102 -200.051
v -207.007 5.102 -197.063
v -218.139 5.102 -198.949
f 448 447 446 445
f 441 442 446 445
f 442 443 447 446
f 443 444 448 447
f 444 441 445 448
v -216.106 1.224 -191.003
v -208.137 1.224 -188.134
v -209.014 1.224 -185.697
v -216.983 1.224 -188.566
v -216.106 5.124 -191.003
v -208.137 5.124 -188.134
v -209.014 5.124 -185.697
v -216.983 5.124 -188.566
f 456 455 454 453
f 449 450 454 453
f 450 451 455 454
f 451 452 456 455
f 452 449 453 456
v -210.515 1.249 -181.951
v -203.228 1.249 -176.253
v -205.045 1.249 -173.929
v -212.332 1.249 -179.627
v -210.515 5.149 -181.951
v -203.228 5.149 -176.253
v -205.045 5.149 -173.929
v -212.332 5.149 -179.627
f 464 463 462 461
f 457 458 462 461
f 458 459 463 462
f 459 460 464 463
f 460 457 461 464
v -205.942 1.150 -173.395
v -199.689 1.150 -167.787
v -201.358 1.150 -165.925
v -207.611 1.150 -171.533
v -205.942 5.050 -173.395
v -199.689 5.050 -167.787
v -201.358 5.050 -165.925
v -207.611 5.050 -171.533
f 472 471 470 469
f 465 466 470 469
f 466 467 471 470
f 467 468 472 471
f 468 465 469 472
usemtl road
v -45.940 1.238 -209.621
v -56.080 1.506 -256.371
v -59.501 1.523 -255.629
v -49.360 1.251 -208.879
f 473 474 475 476
v -186.781 1.012 124.202
v -176.591 0.994 118.122
v -179.409 1.016 113.398
v -189.599 1.002 119.478
f 477 478 479 480
v -177.144 0.994 118.373
v -163.494 1.037 113.903
v -165.206 0.979 108.677
v -178.856 1.013 113.147
f 481 482 483 484
v -164.931 1.033 113.978
v -141.681 1.075 119.008
v -140.519 0.979 113.632
v -163.769 0.986 108.602
f 485 486 487 488
v -142.895 1.070 118.403
v -132.555 1.080 127.313
v -128.965 0.989 123.147
v -139.305 0.989 114.237
f 489 490 491 492
v -132.978 1.084 126.856
v -125.448 1.100 137.126
v -121.012 0.982 133.874
v -128.542 0.995 123.604
f 493 494 495 496
v -199.889 1.306 -79.169
v -256.069 1.258 -20.919
v -252.111 1.171 -17.101
v -195.931 1.284 -75.351
f 497 498 499 500
v -200.820 1.406 -256.015
v -201.060 1.396 -212.155
v -195.560 1.430 -212.125
v -195.320 1.411 -255.985
f 501 502 503 504
v -201.030 1.396 -211.736
v -198.940 1.375 -197.676
v -193.500 1.384 -198.484
v -195.590 1.431 -212.544
f 505 506 507 508
v -198.683 1.373 -196.857
v -192.233 1.353 -183.867
v -187.307 1.362 -186.313
v -193.757 1.390 -199.303
f 509 510 511 512
v -190.838 1.347 -182.556
v -177.828 1.305 -177.076
v -175.692 1.355 -182.144
v -188.702 1.370 -187.624
f 513 514 515 516
v -176.612 1.310 -176.864
v -163.852 1.310 -177.554
v -164.148 1.339 -183.046
v -176.908 1.357 -182.356
f 517 518 519 520
v -163.338 1.311 -177.631
v -111.688 1.278 -190.441
v -113.012 1.273 -195.779
v -164.662 1.339 -182.969
f 521 522 523 524
v -111.708 1.278 -190.436
v -62.888 1.250 -202.166
v -64.172 1.234 -207.514
v -112.992 1.273 -195.784
f 525 526 527 528
v -62.794 1.251 -202.190
v -46.914 1.239 -206.600
v -48.386 1.218 -211.900
v -64.266 1.234 -207.490
f 529 530 531 532
v -46.998 1.240 -206.578
v 8.762 1.173 -220.188
v 7.458 1.165 -225.532
v -48.302 1.218 -211.922
f 533 534 535 536
v 8.899 1.172 -220.226
v 35.849 1.114 -228.296
v 34.271 1.134 -233.564
v 7.321 1.165 -225.494
f 537 538 539 540
v 36.527 1.110 -228.604
v 46.947 1.152 -235.174
v 44.013 1.168 -239.826
v 33.593 1.135 -233.256
f 541 542 543 544
v 47.963 1.170 -236.319
v 54.623 1.146 -250.319
v 49.657 1.149 -252.681
v 42.997 1.171 -238.681
f 545 546 547 548
v -125.909 1.097 136.121
v -121.339 1.146 155.821
v -115.981 1.027 154.579
v -120.551 1.004 134.879
f 549 550 551 552
v -121.348 1.145 154.618
v -124.348 1.164 168.468
v -118.972 1.018 169.632
v -115.972 1.031 155.782
f 553 554 555 556
v -123.977 1.161 167.569
v -128.747 1.154 175.029
v -124.113 1.067 177.991
v -119.343 1.029 170.531
f 557 558 559 560
v -128.437 1.152 174.630
v -175.047 1.075 224.380
v -171.033 1.029 228.140
v -124.423 1.072 178.390
f 561 562 563 564
v 51.854 1.140 -249.774
v 74.704 1.247 -245.984
v 75.276 1.220 -249.436
v 52.426 1.141 -253.226
f 565 566 567 568
v 75.491 1.244 -246.033
v 95.891 1.208 -252.133
v 94.889 1.216 -255.487
v 74.489 1.221 -249.387
f 569 570 571 572
v 107.604 0.464 -256.248
v 101.728 0.552 -215.118
v 105.192 0.400 -214.622
v 111.069 0.411 -255.752
f 573 574 575 576
v 102.138 0.569 -216.016
v 88.748 0.673 -200.566
v 91.392 0.656 -198.274
v 104.782 0.374 -213.724
f 577 578 579 580
v 89.828 0.663 -201.153
v 72.158 0.992 -198.683
v 72.642 0.779 -195.217
v 90.312 0.660 -197.687
f 581 582 583 584
v -74.973 1.486 -255.673
v -65.249 1.246 -204.513
v -61.811 1.260 -205.167
v -71.535 1.493 -256.327
f 585 586 587 588
v -162.874 1.562 -248.239
v -161.544 1.564 -231.829
v -158.056 1.552 -232.111
v -159.386 1.552 -248.521
f 589 590 591 592
v -161.179 1.555 -230.892
v -156.449 1.531 -224.842
v -153.691 1.494 -226.998
v -158.421 1.558 -233.048
f 593 594 595 596
v -154.851 1.541 -224.184
v -134.351 1.510 -226.764
v -134.789 1.429 -230.236
v -155.289 1.518 -227.656
f 597 598 599 600
v -134.337 1.510 -226.766
v -113.317 1.565 -229.586
v -113.783 1.475 -233.054
v -134.803 1.429 -230.234
f 601 602 603 604
v -113.793 1.570 -229.587
v -99.503 1.559 -227.587
v -99.017 1.444 -231.053
v -113.307 1.474 -233.053
f 605 606 607 608
usemtl asphalt
