# Baked ultra-low Key West silhouette; generated by bake_key_west_far_city.py
mtllib far_city.mtl
usemtl massing
v -228.872 0.813 103.576
v -223.816 0.813 104.321
v -224.188 0.813 106.844
v -229.244 0.813 106.099
v -228.872 4.713 103.576
v -223.816 4.713 104.321
v -224.188 4.713 106.844
v -229.244 4.713 106.099
f 8 7 6 5
f 1 2 6 5
f 2 3 7 6
f 3 4 8 7
f 4 1 5 8
v -228.265 0.692 99.605
v -224.435 0.692 100.223
v -224.915 0.692 103.195
v -228.745 0.692 102.577
v -228.265 4.592 99.605
v -224.435 4.592 100.223
v -224.915 4.592 103.195
v -228.745 4.592 102.577
f 16 15 14 13
f 9 10 14 13
f 10 11 15 14
f 11 12 16 15
f 12 9 13 16
v -87.249 0.901 146.995
v -87.091 0.901 136.086
v -81.631 0.901 136.165
v -81.789 0.901 147.074
v -87.249 4.801 146.995
v -87.091 4.801 136.086
v -81.631 4.801 136.165
v -81.789 4.801 147.074
f 24 23 22 21
f 17 18 22 21
f 18 19 23 22
f 19 20 24 23
f 20 17 21 24
v -73.848 0.898 135.326
v -72.785 0.898 146.184
v -77.592 0.898 146.654
v -78.655 0.898 135.796
v -73.848 4.798 135.326
v -72.785 4.798 146.184
v -77.592 4.798 146.654
v -78.655 4.798 135.796
f 32 31 30 29
f 25 26 30 29
f 26 27 31 30
f 27 28 32 31
f 28 25 29 32
v -66.309 0.864 136.686
v -64.860 0.864 147.661
v -69.351 0.864 148.254
v -70.800 0.864 137.279
v -66.309 4.764 136.686
v -64.860 4.764 147.661
v -69.351 4.764 148.254
v -70.800 4.764 137.279
f 40 39 38 37
f 33 34 38 37
f 34 35 39 38
f 35 36 40 39
f 36 33 37 40
v -57.927 0.875 137.717
v -56.994 0.875 147.914
v -59.713 0.875 148.163
v -60.646 0.875 137.966
v -57.927 4.775 137.717
v -56.994 4.775 147.914
v -59.713 4.775 148.163
v -60.646 4.775 137.966
f 48 47 46 45
f 41 42 46 45
f 42 43 47 46
f 43 44 48 47
f 44 41 45 48
v -39.028 0.804 138.730
v -36.670 0.804 148.159
v -42.472 0.804 149.610
v -44.830 0.804 140.181
v -39.028 4.704 138.730
v -36.670 4.704 148.159
v -42.472 4.704 149.610
v -44.830 4.704 140.181
f 56 55 54 53
f 49 50 54 53
f 50 51 55 54
f 51 52 56 55
f 52 49 53 56
v -24.114 0.826 143.225
v -22.426 0.826 150.019
v -25.066 0.826 150.675
v -26.754 0.826 143.881
v -24.114 4.726 143.225
v -22.426 4.726 150.019
v -25.066 4.726 150.675
v -26.754 4.726 143.881
f 64 63 62 61
f 57 58 62 61
f 58 59 63 62
f 59 60 64 63
f 60 57 61 64
v -11.821 0.900 140.607
v -11.580 0.900 152.965
v -16.119 0.900 153.053
v -16.360 0.900 140.695
v -11.821 4.800 140.607
v -11.580 4.800 152.965
v -16.119 4.800 153.053
v -16.360 4.800 140.695
f 72 71 70 69
f 65 66 70 69
f 66 67 71 70
f 67 68 72 71
f 68 65 69 72
v 4.803 0.834 142.974
v 5.881 0.834 152.402
v 3.397 0.834 152.686
v 2.319 0.834 143.258
v 4.803 4.734 142.974
v 5.881 4.734 152.402
v 3.397 4.734 152.686
v 2.319 4.734 143.258
f 80 79 78 77
f 73 74 78 77
f 74 75 79 78
f 75 76 80 79
f 76 73 77 80
v 13.041 0.843 145.009
v 14.823 0.843 152.037
v 12.399 0.843 152.651
v 10.617 0.843 145.623
v 13.041 4.743 145.009
v 14.823 4.743 152.037
v 12.399 4.743 152.651
v 10.617 4.743 145.623
f 88 87 86 85
f 81 82 86 85
f 82 83 87 86
f 83 84 88 87
f 84 81 85 88
v 39.969 0.749 148.198
v 45.107 0.749 158.195
v 39.531 0.749 161.062
v 34.393 0.749 151.065
v 39.969 4.649 148.198
v 45.107 4.649 158.195
v 39.531 4.649 161.062
v 34.393 4.649 151.065
f 96 95 94 93
f 89 90 94 93
f 90 91 95 94
f 91 92 96 95
f 92 89 93 96
v 31.434 0.762 146.721
v 32.982 0.762 156.550
v 28.606 0.762 157.239
v 27.058 0.762 147.410
v 31.434 4.662 146.721
v 32.982 4.662 156.550
v 28.606 4.662 157.239
v 27.058 4.662 147.410
f 104 103 102 101
f 97 98 102 101
f 98 99 103 102
f 99 100 104 103
f 100 97 101 104
v -32.951 0.929 124.977
v -31.304 0.929 136.762
v -33.889 0.929 137.123
v -35.536 0.929 125.338
v -32.951 4.829 124.977
v -31.304 4.829 136.762
v -33.889 4.829 137.123
v -35.536 4.829 125.338
f 112 111 110 109
f 105 106 110 109
f 106 107 111 110
f 107 108 112 111
f 108 105 109 112
v -23.421 0.960 125.874
v -21.730 0.960 136.652
v -24.239 0.960 137.046
v -25.930 0.960 126.268
v -23.421 4.860 125.874
v -21.730 4.860 136.652
v -24.239 4.860 137.046
v -25.930 4.860 126.268
f 120 119 118 117
f 113 114 118 117
f 114 115 119 118
f 115 116 120 119
f 116 113 117 120
v -42.566 0.955 127.936
v -41.984 0.955 134.440
v -44.474 0.955 134.664
v -45.056 0.955 128.160
v -42.566 4.855 127.936
v -41.984 4.855 134.440
v -44.474 4.855 134.664
v -45.056 4.855 128.160
f 128 127 126 125
f 121 122 126 125
f 122 123 127 126
f 123 124 128 127
f 124 121 125 128
v -15.323 0.896 125.501
v -14.200 0.896 136.885
v -16.977 0.896 137.159
v -18.100 0.896 125.775
v -15.323 4.796 125.501
v -14.200 4.796 136.885
v -16.977 4.796 137.159
v -18.100 4.796 125.775
f 136 135 134 133
f 129 130 134 133
f 130 131 135 134
f 131 132 136 135
f 132 129 133 136
v 6.130 0.871 128.702
v 7.838 0.871 139.255
v 5.350 0.871 139.658
v 3.642 0.871 129.105
v 6.130 4.771 128.702
v 7.838 4.771 139.255
v 5.350 4.771 139.658
v 3.642 4.771 129.105
f 144 143 142 141
f 137 138 142 141
f 138 139 143 142
f 139 140 144 143
f 140 137 141 144
v -6.436 0.888 131.909
v -5.914 0.888 137.645
v -8.404 0.888 137.871
v -8.926 0.888 132.135
v -6.436 4.788 131.909
v -5.914 4.788 137.645
v -8.404 4.788 137.871
v -8.926 4.788 132.135
f 152 151 150 149
f 145 146 150 149
f 146 147 151 150
f 147 148 152 151
f 148 145 149 152
v 24.280 0.867 130.325
v 25.707 0.867 141.131
v 23.100 0.867 141.475
v 21.673 0.867 130.669
v 24.280 4.767 130.325
v 25.707 4.767 141.131
v 23.100 4.767 141.475
v 21.673 4.767 130.669
f 160 159 158 157
f 153 154 158 157
f 154 155 159 158
f 155 156 160 159
f 156 153 157 160
v 33.852 0.862 135.569
v 34.715 0.862 141.991
v 32.188 0.862 142.331
v 31.325 0.862 135.909
v 33.852 4.762 135.569
v 34.715 4.762 141.991
v 32.188 4.762 142.331
v 31.325 4.762 135.909
f 168 167 166 165
f 161 162 166 165
f 162 163 167 166
f 163 164 168 167
f 164 161 165 168
v 43.135 0.835 133.091
v 46.600 0.835 143.910
v 44.105 0.835 144.709
v 40.640 0.835 133.890
v 43.135 4.735 133.091
v 46.600 4.735 143.910
v 44.105 4.735 144.709
v 40.640 4.735 133.890
f 176 175 174 173
f 169 170 174 173
f 170 171 175 174
f 171 172 176 175
f 172 169 173 176
v -62.004 0.972 124.179
v -61.089 0.972 133.143
v -63.616 0.972 133.401
v -64.531 0.972 124.437
v -62.004 4.872 124.179
v -61.089 4.872 133.143
v -63.616 4.872 133.401
v -64.531 4.872 124.437
f 184 183 182 181
f 177 178 182 181
f 178 179 183 182
f 179 180 184 183
f 180 177 181 184
v -70.870 0.993 122.868
v -69.502 0.993 133.308
v -72.130 0.993 133.652
v -73.498 0.993 123.212
v -70.870 4.893 122.868
v -69.502 4.893 133.308
v -72.130 4.893 133.652
v -73.498 4.893 123.212
f 192 191 190 189
f 185 186 190 189
f 186 187 191 190
f 187 188 192 191
f 188 185 189 192
v -82.775 1.049 120.929
v -82.735 1.049 130.959
v -85.745 1.049 130.971
v -85.785 1.049 120.941
v -82.775 4.949 120.929
v -82.735 4.949 130.959
v -85.745 4.949 130.971
v -85.785 4.949 120.941
f 200 199 198 197
f 193 194 198 197
f 194 195 199 198
f 195 196 200 199
f 196 193 197 200
v -98.486 0.967 137.588
v -97.772 0.967 146.610
v -100.334 0.967 146.812
v -101.048 0.967 137.790
v -98.486 4.867 137.588
v -97.772 4.867 146.610
v -100.334 4.867 146.812
v -101.048 4.867 137.790
f 208 207 206 205
f 201 202 206 205
f 202 203 207 206
f 203 204 208 207
f 204 201 205 208
v -114.044 1.016 124.040
v -109.537 1.016 128.641
v -111.516 1.016 130.580
v -116.023 1.016 125.979
v -114.044 4.916 124.040
v -109.537 4.916 128.641
v -111.516 4.916 130.580
v -116.023 4.916 125.979
f 216 215 214 213
f 209 210 214 213
f 210 211 215 214
f 211 212 216 215
f 212 209 213 216
v -122.077 1.003 121.679
v -118.101 1.003 126.972
v -120.163 1.003 128.521
v -124.139 1.003 123.228
v -122.077 4.903 121.679
v -118.101 4.903 126.972
v -120.163 4.903 128.521
v -124.139 4.903 123.228
f 224 223 222 221
f 217 218 222 221
f 218 219 223 222
f 219 220 224 223
f 220 217 221 224
v -129.153 0.978 116.623
v -126.870 0.978 125.607
v -129.507 0.978 126.277
v -131.790 0.978 117.293
v -129.153 4.878 116.623
v -126.870 4.878 125.607
v -129.507 4.878 126.277
v -131.790 4.878 117.293
f 232 231 230 229
f 225 226 230 229
f 226 227 231 230
f 227 228 232 231
f 228 225 229 232
v -118.275 0.971 133.443
v -117.193 0.971 142.820
v -119.765 0.971 143.117
v -120.847 0.971 133.740
v -118.275 4.871 133.443
v -117.193 4.871 142.820
v -119.765 4.871 143.117
v -120.847 4.871 133.740
f 240 239 238 237
f 233 234 238 237
f 234 235 239 238
f 235 236 240 239
f 236 233 237 240
v -126.558 1.007 134.695
v -125.916 1.007 140.741
v -128.402 1.007 141.005
v -129.044 1.007 134.959
v -126.558 4.907 134.695
v -125.916 4.907 140.741
v -128.402 4.907 141.005
v -129.044 4.907 134.959
f 248 247 246 245
f 241 242 246 245
f 242 243 247 246
f 243 244 248 247
f 244 241 245 248
v -134.872 1.013 129.809
v -133.334 1.013 139.477
v -136.188 1.013 139.931
v -137.726 1.013 130.263
v -134.872 4.913 129.809
v -133.334 4.913 139.477
v -136.188 4.913 139.931
v -137.726 4.913 130.263
f 256 255 254 253
f 249 250 254 253
f 250 251 255 254
f 251 252 256 255
f 252 249 253 256
v -143.804 0.964 129.314
v -142.402 0.964 139.448
v -145.136 0.964 139.826
v -146.538 0.964 129.692
v -143.804 4.864 129.314
v -142.402 4.864 139.448
v -145.136 4.864 139.826
v -146.538 4.864 129.692
f 264 263 262 261
f 257 258 262 261
f 258 259 263 262
f 259 260 264 263
f 260 257 261 264
v -138.339 0.984 120.664
v -137.501 0.984 125.269
v -139.961 0.984 125.716
v -140.799 0.984 121.111
v -138.339 4.884 120.664
v -137.501 4.884 125.269
v -139.961 4.884 125.716
v -140.799 4.884 121.111
f 272 271 270 269
f 265 266 270 269
f 266 267 271 270
f 267 268 272 271
f 268 265 269 272
v -145.570 0.981 117.501
v -144.969 0.981 124.987
v -147.610 0.981 125.199
v -148.211 0.981 117.713
v -145.570 4.881 117.501
v -144.969 4.881 124.987
v -147.610 4.881 125.199
v -148.211 4.881 117.713
f 280 279 278 277
f 273 274 278 277
f 274 275 279 278
f 275 276 280 279
f 276 273 277 280
v -154.732 1.024 113.543
v -153.320 1.024 124.553
v -156.008 1.024 124.897
v -157.420 1.024 113.887
v -154.732 4.924 113.543
v -153.320 4.924 124.553
v -156.008 4.924 124.897
v -157.420 4.924 113.887
f 288 287 286 285
f 281 282 286 285
f 282 283 287 286
f 283 284 288 287
f 284 281 285 288
v -151.578 0.987 127.786
v -150.621 0.987 135.658
v -153.222 0.987 135.974
v -154.179 0.987 128.102
v -151.578 4.887 127.786
v -150.621 4.887 135.658
v -153.222 4.887 135.974
v -154.179 4.887 128.102
f 296 295 294 293
f 289 290 294 293
f 290 291 295 294
f 291 292 296 295
f 292 289 293 296
v -161.031 0.953 127.635
v -160.274 0.953 139.891
v -162.769 0.953 140.045
v -163.526 0.953 127.789
v -161.031 4.853 127.635
v -160.274 4.853 139.891
v -162.769 4.853 140.045
v -163.526 4.853 127.789
f 304 303 302 301
f 297 298 302 301
f 298 299 303 302
f 299 300 304 303
f 300 297 301 304
v -163.093 1.089 114.546
v -162.396 1.089 123.078
v -165.047 1.089 123.294
v -165.744 1.089 114.762
v -163.093 4.989 114.546
v -162.396 4.989 123.078
v -165.047 4.989 123.294
v -165.744 4.989 114.762
f 312 311 310 309
f 305 306 310 309
f 306 307 311 310
f 307 308 312 311
f 308 305 309 312
v -175.035 1.083 112.658
v -171.709 1.083 122.194
v -174.485 1.083 123.162
v -177.811 1.083 113.626
v -175.035 4.983 112.658
v -171.709 4.983 122.194
v -174.485 4.983 123.162
v -177.811 4.983 113.626
f 320 319 318 317
f 313 314 318 317
f 314 315 319 318
f 315 316 320 319
f 316 313 317 320
v -193.406 1.066 122.459
v -189.849 1.066 113.986
v -187.194 1.066 115.101
v -190.751 1.066 123.574
v -193.406 4.966 122.459
v -189.849 4.966 113.986
v -187.194 4.966 115.101
v -190.751 4.966 123.574
f 328 327 326 325
f 321 322 326 325
f 322 323 327 326
f 323 324 328 327
f 324 321 325 328
v -201.541 1.086 126.112
v -196.158 1.086 116.542
v -193.979 1.086 117.768
v -199.362 1.086 127.338
v -201.541 4.986 126.112
v -196.158 4.986 116.542
v -193.979 4.986 117.768
v -199.362 4.986 127.338
f 336 335 334 333
f 329 330 334 333
f 330 331 335 334
f 331 332 336 335
f 332 329 333 336
v -207.772 1.117 131.075
v -204.716 1.117 121.187
v -202.328 1.117 121.925
v -205.384 1.117 131.813
v -207.772 5.017 131.075
v -204.716 5.017 121.187
v -202.328 5.017 121.925
v -205.384 5.017 131.813
f 344 343 342 341
f 337 338 342 341
f 338 339 343 342
f 339 340 344 343
f 340 337 341 344
v -214.389 1.117 134.574
v -210.832 1.117 127.722
v -208.551 1.117 128.906
v -212.108 1.117 135.758
v -214.389 5.017 134.574
v -210.832 5.017 127.722
v -208.551 5.017 128.906
v -212.108 5.017 135.758
f 352 351 350 349
f 345 346 350 349
f 346 347 351 350
f 347 348 352 351
f 348 345 349 352
v -199.776 0.986 145.547
v -192.934 0.986 137.333
v -190.844 0.986 139.073
v -197.686 0.986 147.287
v -199.776 4.886 145.547
v -192.934 4.886 137.333
v -190.844 4.886 139.073
v -197.686 4.886 147.287
f 360 359 358 357
f 353 354 358 357
f 354 355 359 358
f 355 356 360 359
f 356 353 357 360
v -218.746 1.080 141.612
v -214.575 1.080 138.731
v -213.154 1.080 140.788
v -217.325 1.080 143.669
v -218.746 4.980 141.612
v -214.575 4.980 138.731
v -213.154 4.980 140.788
v -217.325 4.980 143.669
f 368 367 366 365
f 361 362 366 365
f 362 363 367 366
f 363 364 368 367
f 364 361 365 368
v 8.939 0.879 177.334
v 10.223 0.879 187.967
v 7.741 0.879 188.266
v 6.457 0.879 177.633
v 8.939 4.779 177.334
v 10.223 4.779 187.967
v 7.741 4.779 188.266
v 6.457 4.779 177.633
f 376 375 374 373
f 369 370 374 373
f 370 371 375 374
f 371 372 376 375
f 372 369 373 376
v 18.905 0.831 176.829
v 19.590 0.831 188.680
v 16.975 0.831 188.831
v 16.290 0.831 176.980
v 18.905 4.731 176.829
v 19.590 4.731 188.680
v 16.975 4.731 188.831
v 16.290 4.731 176.980
f 384 383 382 381
f 377 378 382 381
f 378 379 383 382
f 379 380 384 383
f 380 377 381 384
v 27.203 0.786 176.192
v 28.207 0.786 187.297
v 25.657 0.786 187.528
v 24.653 0.786 176.423
v 27.203 4.686 176.192
v 28.207 4.686 187.297
v 25.657 4.686 187.528
v 24.653 4.686 176.423
f 392 391 390 389
f 385 386 390 389
f 386 387 391 390
f 387 388 392 391
f 388 385 389 392
v 35.659 0.752 180.328
v 36.493 0.752 190.855
v 34.001 0.752 191.052
v 33.167 0.752 180.525
v 35.659 4.652 180.328
v 36.493 4.652 190.855
v 34.001 4.652 191.052
v 33.167 4.652 180.525
f 400 399 398 397
f 393 394 398 397
f 394 395 399 398
f 395 396 400 399
f 396 393 397 400
v 38.958 0.767 196.768
v 39.559 0.767 208.302
v 37.062 0.767 208.432
v 36.461 0.767 196.898
v 38.958 4.667 196.768
v 39.559 4.667 208.302
v 37.062 4.667 208.432
v 36.461 4.667 196.898
f 408 407 406 405
f 401 402 406 405
f 402 403 407 406
f 403 404 408 407
f 404 401 405 408
v 21.784 0.795 194.887
v 22.441 0.795 205.527
v 19.756 0.795 205.693
v 19.099 0.795 195.053
v 21.784 4.695 194.887
v 22.441 4.695 205.527
v 19.756 4.695 205.693
v 19.099 4.695 195.053
f 416 415 414 413
f 409 410 414 413
f 410 411 415 414
f 411 412 416 415
f 412 409 413 416
v -3.789 0.827 192.021
v -3.592 0.827 200.259
v -6.091 0.827 200.319
v -6.288 0.827 192.081
v -3.789 4.727 192.021
v -3.592 4.727 200.259
v -6.091 4.727 200.319
v -6.288 4.727 192.081
f 424 423 422 421
f 417 418 422 421
f 418 419 423 422
f 419 420 424 423
f 420 417 421 424
v -15.496 0.823 172.441
v -14.614 0.823 182.834
v -17.504 0.823 183.079
v -18.386 0.823 172.686
v -15.496 4.723 172.441
v -14.614 4.723 182.834
v -17.504 4.723 183.079
v -18.386 4.723 172.686
f 432 431 430 429
f 425 426 430 429
f 426 427 431 430
f 427 428 432 431
f 428 425 429 432
v -25.156 0.899 171.561
v -23.977 0.899 182.860
v -26.464 0.899 183.119
v -27.643 0.899 171.820
v -25.156 4.799 171.561
v -23.977 4.799 182.860
v -26.464 4.799 183.119
v -27.643 4.799 171.820
f 440 439 438 437
f 433 434 438 437
f 434 435 439 438
f 435 436 440 439
f 436 433 437 440
v -33.220 0.880 171.642
v -32.253 0.880 181.293
v -34.900 0.880 181.558
v -35.867 0.880 171.907
v -33.220 4.780 171.642
v -32.253 4.780 181.293
v -34.900 4.780 181.558
v -35.867 4.780 171.907
f 448 447 446 445
f 441 442 446 445
f 442 443 447 446
f 443 444 448 447
f 444 441 445 448
v -42.392 0.929 171.747
v -41.269 0.929 180.777
v -43.968 0.929 181.113
v -45.091 0.929 172.083
v -42.392 4.829 171.747
v -41.269 4.829 180.777
v -43.968 4.829 181.113
v -45.091 4.829 172.083
f 456 455 454 453
f 449 450 454 453
f 450 451 455 454
f 451 452 456 455
f 452 449 453 456
v -38.166 0.948 186.649
v -37.119 0.948 197.147
v -39.974 0.948 197.431
v -41.021 0.948 186.933
v -38.166 4.848 186.649
v -37.119 4.848 197.147
v -39.974 4.848 197.431
v -41.021 4.848 186.933
f 464 463 462 461
f 457 458 462 461
f 458 459 463 462
f 459 460 464 463
f 460 457 461 464
v -32.495 0.881 199.158
v -31.960 0.881 190.314
v -28.865 0.881 190.502
v -29.400 0.881 199.346
v -32.495 4.781 199.158
v -31.960 4.781 190.314
v -28.865 4.781 190.502
v -29.400 4.781 199.346
f 472 471 470 469
f 465 466 470 469
f 466 467 471 470
f 467 468 472 471
f 468 465 469 472
v -70.292 1.055 174.301
v -62.844 1.055 178.205
v -64.088 1.055 180.579
v -71.536 1.055 176.675
v -70.292 4.955 174.301
v -62.844 4.955 178.205
v -64.088 4.955 180.579
v -71.536 4.955 176.675
f 480 479 478 477
f 473 474 478 477
f 474 475 479 478
f 475 476 480 479
f 476 473 477 480
v -86.377 1.116 168.029
v -77.287 1.116 172.721
v -78.603 1.116 175.271
v -87.693 1.116 170.579
v -86.377 5.016 168.029
v -77.287 5.016 172.721
v -78.603 5.016 175.271
v -87.693 5.016 170.579
f 488 487 486 485
f 481 482 486 485
f 482 483 487 486
f 483 484 488 487
f 484 481 485 488
v -89.740 1.138 182.280
v -79.987 1.138 187.643
v -81.360 1.138 190.140
v -91.113 1.138 184.777
v -89.740 5.038 182.280
v -79.987 5.038 187.643
v -81.360 5.038 190.140
v -91.113 5.038 184.777
f 496 495 494 493
f 489 490 494 493
f 490 491 495 494
f 491 492 496 495
f 492 489 493 496
v -87.529 1.120 196.411
v -78.384 1.120 201.343
v -79.671 1.120 203.729
v -88.816 1.120 198.797
v -87.529 5.020 196.411
v -78.384 5.020 201.343
v -79.671 5.020 203.729
v -88.816 5.020 198.797
f 504 503 502 501
f 497 498 502 501
f 498 499 503 502
f 499 500 504 503
f 500 497 501 504
v -67.750 1.161 187.731
v -61.046 1.161 191.560
v -62.330 1.161 193.809
v -69.034 1.161 189.980
v -67.750 5.061 187.731
v -61.046 5.061 191.560
v -62.330 5.061 193.809
v -69.034 5.061 189.980
f 512 511 510 509
f 505 506 510 509
f 506 507 511 510
f 507 508 512 511
f 508 505 509 512
v -89.716 1.142 210.547
v -79.800 1.142 215.099
v -81.064 1.142 217.853
v -90.980 1.142 213.301
v -89.716 5.042 210.547
v -79.800 5.042 215.099
v -81.064 5.042 217.853
v -90.980 5.042 213.301
f 520 519 518 517
f 513 514 518 517
f 514 515 519 518
f 515 516 520 519
f 516 513 517 520
v -69.547 1.158 214.976
v -60.553 1.158 219.415
v -61.713 1.158 221.764
v -70.707 1.158 217.325
v -69.547 5.058 214.976
v -60.553 5.058 219.415
v -61.713 5.058 221.764
v -70.707 5.058 217.325
f 528 527 526 525
f 521 522 526 525
f 522 523 527 526
f 523 524 528 527
f 524 521 525 528
v -90.110 1.165 225.169
v -79.678 1.165 230.598
v -80.850 1.165 232.851
v -91.282 1.165 227.422
v -90.110 5.065 225.169
v -79.678 5.065 230.598
v -80.850 5.065 232.851
v -91.282 5.065 227.422
f 536 535 534 533
f 529 530 534 533
f 530 531 535 534
f 531 532 536 535
f 532 529 533 536
v -71.386 1.178 228.588
v -60.129 1.178 235.091
v -61.654 1.178 237.732
v -72.911 1.178 231.229
v -71.386 5.078 228.588
v -60.129 5.078 235.091
v -61.654 5.078 237.732
v -72.911 5.078 231.229
f 544 543 542 541
f 537 538 542 541
f 538 539 543 542
f 539 540 544 543
f 540 537 541 544
v -41.729 1.063 218.930
v -41.204 1.063 229.857
v -43.971 1.063 229.990
v -44.496 1.063 219.063
v -41.729 4.963 218.930
v -41.204 4.963 229.857
v -43.971 4.963 229.990
v -44.496 4.963 219.063
f 552 551 550 549
f 545 546 550 549
f 546 547 551 550
f 547 548 552 551
f 548 545 549 552
v -33.241 1.035 221.422
v -32.174 1.035 231.104
v -34.659 1.035 231.378
v -35.726 1.035 221.696
v -33.241 4.935 221.422
v -32.174 4.935 231.104
v -34.659 4.935 231.378
v -35.726 4.935 221.696
f 560 559 558 557
f 553 554 558 557
f 554 555 559 558
f 555 556 560 559
f 556 553 557 560
v -24.960 0.892 218.823
v -23.559 0.892 231.113
v -26.400 0.892 231.437
v -27.801 0.892 219.147
v -24.960 4.792 218.823
v -23.559 4.792 231.113
v -26.400 4.792 231.437
v -27.801 4.792 219.147
f 568 567 566 565
f 561 562 566 565
f 562 563 567 566
f 563 564 568 567
f 564 561 565 568
v -7.085 0.788 222.388
v -6.215 0.788 232.591
v -8.815 0.788 232.812
v -9.685 0.788 222.609
v -7.085 4.688 222.388
v -6.215 4.688 232.591
v -8.815 4.688 232.812
v -9.685 4.688 222.609
f 576 575 574 573
f 569 570 574 573
f 570 571 575 574
f 571 572 576 575
f 572 569 573 576
v -16.097 0.866 237.323
v -14.657 0.866 247.997
v -17.323 0.866 248.357
v -18.763 0.866 237.683
v -16.097 4.766 237.323
v -14.657 4.766 247.997
v -17.323 4.766 248.357
v -18.763 4.766 237.683
f 584 583 582 581
f 577 578 582 581
f 578 579 583 582
f 579 580 584 583
f 580 577 581 584
v 8.704 0.848 223.112
v 9.478 0.848 233.763
v 6.656 0.848 233.968
v 5.882 0.848 223.317
v 8.704 4.748 223.112
v 9.478 4.748 233.763
v 6.656 4.748 233.968
v 5.882 4.748 223.317
f 592 591 590 589
f 585 586 590 589
f 586 587 591 590
f 587 588 592 591
f 588 585 589 592
v 17.831 0.886 223.707
v 17.988 0.886 234.636
v 15.449 0.886 234.673
v 15.292 0.886 223.744
v 17.831 4.786 223.707
v 17.988 4.786 234.636
v 15.449 4.786 234.673
v 15.292 4.786 223.744
f 600 599 598 597
f 593 594 598 597
f 594 595 599 598
f 595 596 600 599
f 596 593 597 600
v 34.440 0.832 221.341
v 35.214 0.832 234.678
v 32.100 0.832 234.859
v 31.326 0.832 221.522
v 34.440 4.732 221.341
v 35.214 4.732 234.678
v 32.100 4.732 234.859
v 31.326 4.732 221.522
f 608 607 606 605
f 601 602 606 605
f 602 603 607 606
f 603 604 608 607
f 604 601 605 608
v 10.949 0.816 237.159
v 12.010 0.816 245.391
v 9.451 0.816 245.721
v 8.390 0.816 237.489
v 10.949 4.716 237.159
v 12.010 4.716 245.391
v 9.451 4.716 245.721
v 8.390 4.716 237.489
f 616 615 614 613
f 609 610 614 613
f 610 611 615 614
f 611 612 616 615
f 612 609 613 616
v 65.101 0.955 245.415
v 74.352 0.955 246.370
v 74.059 0.955 249.205
v 64.808 0.955 248.250
v 65.101 4.855 245.415
v 74.352 4.855 246.370
v 74.059 4.855 249.205
v 64.808 4.855 248.250
f 624 623 622 621
f 617 618 622 621
f 618 619 623 622
f 619 620 624 623
f 620 617 621 624
v 66.172 0.799 206.135
v 75.012 0.799 206.085
v 75.028 0.799 208.985
v 66.188 0.799 209.035
v 66.172 4.699 206.135
v 75.012 4.699 206.085
v 75.028 4.699 208.985
v 66.188 4.699 209.035
f 632 631 630 629
f 625 626 630 629
f 626 627 631 630
f 627 628 632 631
f 628 625 629 632
v 138.491 0.125 249.697
v 150.263 0.125 245.433
v 151.629 0.125 249.203
v 139.857 0.125 253.467
v 138.491 4.025 249.697
v 150.263 4.025 245.433
v 151.629 4.025 249.203
v 139.857 4.025 253.467
f 640 639 638 637
f 633 634 638 637
f 634 635 639 638
f 635 636 640 639
f 636 633 637 640
v 142.857 0.093 229.503
v 148.096 0.093 234.383
v 145.363 0.093 237.317
v 140.124 0.093 232.437
v 142.857 3.993 229.503
v 148.096 3.993 234.383
v 145.363 3.993 237.317
v 140.124 3.993 232.437
f 648 647 646 645
f 641 642 646 645
f 642 643 647 646
f 643 644 648 647
f 644 641 645 648
v -116.603 1.120 166.472
v -105.813 1.120 172.418
v -107.097 1.120 174.748
v -117.887 1.120 168.802
v -116.603 5.020 166.472
v -105.813 5.020 172.418
v -107.097 5.020 174.748
v -117.887 5.020 168.802
f 656 655 654 653
f 649 650 654 653
f 650 651 655 654
f 651 652 656 655
f 652 649 653 656
v -134.755 1.068 161.609
v -124.862 1.068 166.576
v -126.105 1.068 169.051
v -135.998 1.068 164.084
v -134.755 4.968 161.609
v -124.862 4.968 166.576
v -126.105 4.968 169.051
v -135.998 4.968 164.084
f 664 663 662 661
f 657 658 662 661
f 658 659 663 662
f 659 660 664 663
f 660 657 661 664
v -137.749 1.210 178.014
v -128.595 1.210 183.034
v -129.951 1.210 185.506
v -139.105 1.210 180.486
v -137.749 5.110 178.014
v -128.595 5.110 183.034
v -129.951 5.110 185.506
v -139.105 5.110 180.486
f 672 671 670 669
f 665 666 670 669
f 666 667 671 670
f 667 668 672 671
f 668 665 669 672
v -115.434 1.156 182.919
v -109.138 1.156 186.245
v -110.446 1.156 188.721
v -116.742 1.156 185.395
v -115.434 5.056 182.919
v -109.138 5.056 186.245
v -110.446 5.056 188.721
v -116.742 5.056 185.395
f 680 679 678 677
f 673 674 678 677
f 674 675 679 678
f 675 676 680 679
f 676 673 677 680
v -117.508 1.109 195.132
v -107.695 1.109 200.552
v -108.952 1.109 202.828
v -118.765 1.109 197.408
v -117.508 5.009 195.132
v -107.695 5.009 200.552
v -108.952 5.009 202.828
v -118.765 5.009 197.408
f 688 687 686 685
f 681 682 686 685
f 682 683 687 686
f 683 684 688 687
f 684 681 685 688
v -137.547 1.275 191.765
v -127.915 1.275 196.910
v -129.093 1.275 199.115
v -138.725 1.275 193.970
v -137.547 5.175 191.765
v -127.915 5.175 196.910
v -129.093 5.175 199.115
v -138.725 5.175 193.970
f 696 695 694 693
f 689 690 694 693
f 690 691 695 694
f 691 692 696 695
f 692 689 693 696
v -118.825 1.114 211.029
v -111.758 1.114 214.735
v -113.035 1.114 217.171
v -120.102 1.114 213.465
v -118.825 5.014 211.029
v -111.758 5.014 214.735
v -113.035 5.014 217.171
v -120.102 5.014 213.465
f 704 703 702 701
f 697 698 702 701
f 698 699 703 702
f 699 700 704 703
f 700 697 701 704
v -139.766 1.290 206.166
v -128.942 1.290 211.086
v -130.154 1.290 213.754
v -140.978 1.290 208.834
v -139.766 5.190 206.166
v -128.942 5.190 211.086
v -130.154 5.190 213.754
v -140.978 5.190 208.834
f 712 711 710 709
f 705 706 710 709
f 706 707 711 710
f 707 708 712 711
f 708 705 709 712
v -139.774 1.366 220.871
v -129.378 1.366 225.249
v -130.566 1.366 228.069
v -140.962 1.366 223.691
v -139.774 5.266 220.871
v -129.378 5.266 225.249
v -130.566 5.266 228.069
v -140.962 5.266 223.691
f 720 719 718 717
f 713 714 718 717
f 714 715 719 718
f 715 716 720 719
f 716 713 717 720
v -118.464 1.089 222.800
v -107.573 1.089 228.812
v -109.056 1.089 231.500
v -119.947 1.089 225.488
v -118.464 4.989 222.800
v -107.573 4.989 228.812
v -109.056 4.989 231.500
v -119.947 4.989 225.488
f 728 727 726 725
f 721 722 726 725
f 722 723 727 726
f 723 724 728 727
f 724 721 725 728
v -132.164 1.290 259.717
v -128.077 1.290 250.711
v -125.536 1.290 251.863
v -129.623 1.290 260.869
v -132.164 5.190 259.717
v -128.077 5.190 250.711
v -125.536 5.190 251.863
v -129.623 5.190 260.869
f 736 735 734 733
f 729 730 734 733
f 730 731 735 734
f 731 732 736 735
f 732 729 733 736
v -146.380 1.334 257.697
v -142.289 1.334 248.847
v -139.920 1.334 249.943
v -144.011 1.334 258.793
v -146.380 5.234 257.697
v -142.289 5.234 248.847
v -139.920 5.234 249.943
v -144.011 5.234 258.793
f 744 743 742 741
f 737 738 742 741
f 738 739 743 742
f 739 740 744 743
f 740 737 741 744
v -184.765 1.218 214.363
v -177.032 1.218 214.873
v -177.235 1.218 217.957
v -184.968 1.218 217.447
v -184.765 5.118 214.363
v -177.032 5.118 214.873
v -177.235 5.118 217.957
v -184.968 5.118 217.447
f 752 751 750 749
f 745 746 750 749
f 746 747 751 750
f 747 748 752 751
f 748 745 749 752
v -179.093 1.165 191.998
v -173.591 1.165 192.929
v -174.027 1.165 195.502
v -179.529 1.165 194.571
v -179.093 5.065 191.998
v -173.591 5.065 192.929
v -174.027 5.065 195.502
v -179.529 5.065 194.571
f 760 759 758 757
f 753 754 758 757
f 754 755 759 758
f 755 756 760 759
f 756 753 757 760
v -184.681 1.134 184.079
v -174.989 1.134 184.677
v -175.159 1.134 187.441
v -184.851 1.134 186.843
v -184.681 5.034 184.079
v -174.989 5.034 184.677
v -175.159 5.034 187.441
v -184.851 5.034 186.843
f 768 767 766 765
f 761 762 766 765
f 762 763 767 766
f 763 764 768 767
f 764 761 765 768
v -166.197 1.033 173.943
v -154.428 1.033 174.928
v -154.703 1.033 178.217
v -166.472 1.033 177.232
v -166.197 4.933 173.943
v -154.428 4.933 174.928
v -154.703 4.933 178.217
v -166.472 4.933 177.232
f 776 775 774 773
f 769 770 774 773
f 770 771 775 774
f 771 772 776 775
f 772 769 773 776
v -183.926 1.040 175.017
v -174.473 1.040 171.030
v -173.354 1.040 173.683
v -182.807 1.040 177.670
v -183.926 4.940 175.017
v -174.473 4.940 171.030
v -173.354 4.940 173.683
v -182.807 4.940 177.670
f 784 783 782 781
f 777 778 782 781
f 778 779 783 782
f 779 780 784 783
f 780 777 781 784
v -164.381 1.033 156.736
v -163.012 1.033 167.792
v -166.019 1.033 168.164
v -167.388 1.033 157.108
v -164.381 4.933 156.736
v -163.012 4.933 167.792
v -166.019 4.933 168.164
v -167.388 4.933 157.108
f 792 791 790 789
f 785 786 790 789
f 786 787 791 790
f 787 788 792 791
f 788 785 789 792
v -215.947 1.055 163.185
v -205.004 1.055 159.885
v -204.193 1.055 162.575
v -215.136 1.055 165.875
v -215.947 4.955 163.185
v -205.004 4.955 159.885
v -204.193 4.955 162.575
v -215.136 4.955 165.875
f 800 799 798 797
f 793 794 798 797
f 794 795 799 798
f 795 796 800 799
f 796 793 797 800
v -235.177 1.124 156.519
v -224.763 1.124 155.259
v -224.463 1.124 157.741
v -234.877 1.124 159.001
v -235.177 5.024 156.519
v -224.763 5.024 155.259
v -224.463 5.024 157.741
v -234.877 5.024 159.001
f 808 807 806 805
f 801 802 806 805
f 802 803 807 806
f 803 804 808 807
f 804 801 805 808
v -228.425 1.136 147.634
v -218.815 1.136 143.554
v -217.595 1.136 146.426
v -227.205 1.136 150.506
v -228.425 5.036 147.634
v -218.815 5.036 143.554
v -217.595 5.036 146.426
v -227.205 5.036 150.506
f 816 815 814 813
f 809 810 814 813
f 810 811 815 814
f 811 812 816 815
f 812 809 813 816
v -231.630 1.151 190.370
v -223.795 1.151 190.082
v -223.670 1.151 193.490
v -231.505 1.151 193.778
v -231.630 5.051 190.370
v -223.795 5.051 190.082
v -223.670 5.051 193.490
v -231.505 5.051 193.778
f 824 823 822 821
f 817 818 822 821
f 818 819 823 822
f 819 820 824 823
f 820 817 821 824
v -258.738 0.931 186.029
v -250.290 0.931 187.347
v -250.762 0.931 190.371
v -259.210 0.931 189.053
v -258.738 4.831 186.029
v -250.290 4.831 187.347
v -250.762 4.831 190.371
v -259.210 4.831 189.053
f 832 831 830 829
f 825 826 830 829
f 826 827 831 830
f 827 828 832 831
f 828 825 829 832
v -222.935 1.185 249.909
v -211.936 1.185 250.091
v -211.985 1.185 253.051
v -222.984 1.185 252.869
v -222.935 5.085 249.909
v -211.936 5.085 250.091
v -211.985 5.085 253.051
v -222.984 5.085 252.869
f 840 839 838 837
f 833 834 838 837
f 834 835 839 838
f 835 836 840 839
f 836 833 837 840
usemtl road
v 11.406 1.364 254.260
v -50.709 1.502 247.430
v -51.091 1.498 250.910
v 11.024 1.319 257.740
f 841 842 843 844
v -50.779 1.502 247.424
v -59.279 1.528 246.834
v -59.521 1.537 250.326
v -51.021 1.498 250.916
f 845 846 847 848
v -59.197 1.528 246.842
v -74.807 1.544 245.022
v -75.213 1.551 248.498
v -59.603 1.537 250.318
f 849 850 851 852
v -74.807 1.544 245.022
v -100.197 1.563 242.052
v -100.603 1.583 245.528
v -75.213 1.551 248.498
f 853 854 855 856
v -100.201 1.563 242.051
v -148.991 1.628 236.461
v -149.389 1.649 239.939
v -100.599 1.583 245.529
f 857 858 859 860
v -149.039 1.628 236.457
v -158.269 1.601 235.657
v -158.571 1.598 239.143
v -149.341 1.649 239.943
f 861 862 863 864
v -158.268 1.601 235.657
v -197.798 1.461 232.217
v -198.102 1.461 235.703
v -158.572 1.598 239.143
f 865 866 867 868
v -98.651 1.584 243.837
v -96.251 1.203 154.097
v -99.749 1.208 154.003
v -102.149 1.588 243.743
f 869 870 871 872
v -52.340 1.143 158.202
v -51.380 1.373 210.032
v -47.880 1.341 209.968
v -48.840 1.140 158.138
f 873 874 875 876
v -51.379 1.373 209.943
v -52.649 1.523 249.113
v -49.151 1.514 249.227
v -47.881 1.342 210.057
f 877 878 879 880
v -147.559 1.217 147.155
v -150.939 1.640 238.135
v -147.441 1.656 238.265
v -144.061 1.215 147.285
f 881 882 883 884
v -197.969 1.465 231.210
v -220.679 1.419 231.370
v -220.641 1.421 236.870
v -197.931 1.462 236.710
f 885 886 887 888
v -220.912 1.420 231.382
v -238.712 1.424 233.022
v -238.208 1.433 238.498
v -220.408 1.421 236.858
f 889 890 891 892
v -238.976 1.424 233.059
v -253.526 1.453 235.839
v -252.494 1.451 241.241
v -237.944 1.433 238.461
f 893 894 895 896
v 54.784 1.149 255.936
v 53.829 1.077 214.916
v 48.331 1.067 215.044
v 49.286 1.137 256.064
f 897 898 899 900
v 53.829 1.077 214.910
v 53.339 1.072 195.590
v 47.841 1.052 195.730
v 48.331 1.067 215.050
f 901 902 903 904
v 53.298 1.070 195.180
v 50.808 1.073 181.130
v 45.392 1.047 182.090
v 47.882 1.051 196.140
f 905 906 907 908
v 50.148 1.070 179.775
v 42.938 1.075 171.725
v 38.842 1.066 175.395
v 46.052 1.046 183.445
f 909 910 911 912
v 42.628 1.076 171.428
v 34.838 1.070 165.078
v 31.362 1.062 169.342
v 39.152 1.066 175.692
f 913 914 915 916
v 33.520 1.072 164.492
v 6.250 1.098 160.282
v 5.410 1.104 165.718
v 32.680 1.067 169.928
f 917 918 919 920
v 6.065 1.098 160.260
v -50.355 1.149 155.430
v -50.825 1.135 160.910
v 5.595 1.104 165.740
f 921 922 923 924
v -50.358 1.149 155.430
v -93.918 1.202 151.740
v -94.382 1.222 157.220
v -50.822 1.135 160.910
f 925 926 927 928
v -93.845 1.201 151.747
v -97.695 1.222 151.317
v -98.305 1.221 156.783
v -94.455 1.221 157.213
f 929 930 931 932
v -97.611 1.221 151.328
v -145.421 1.205 144.498
v -146.199 1.214 149.942
v -98.389 1.221 156.772
f 933 934 935 936
v -145.602 1.206 144.478
v -165.502 1.257 142.968
v -165.918 1.260 148.452
v -146.018 1.214 149.962
f 937 938 939 940
v -166.218 1.260 143.007
v -180.908 1.294 145.767
v -179.892 1.280 151.173
v -165.202 1.258 148.413
f 941 942 943 944
v -182.229 1.301 146.416
v -193.829 1.299 156.746
v -190.171 1.315 160.854
v -178.571 1.279 150.524
f 945 946 947 948
v -194.707 1.297 158.316
v -198.907 1.348 181.786
v -193.493 1.364 182.754
v -189.293 1.306 159.284
f 949 950 951 952
v -198.948 1.347 182.177
v -200.698 1.470 233.867
v -195.202 1.441 234.053
v -193.452 1.364 182.363
f 953 954 955 956
v -236.721 1.467 235.560
v -240.421 1.494 203.440
v -243.899 1.477 203.840
v -240.199 1.467 235.960
f 957 958 959 960
v -240.411 1.495 203.699
v -239.101 1.451 165.089
v -242.599 1.282 164.971
v -243.909 1.477 203.581
f 961 962 963 964
v -239.133 1.450 165.366
v -235.223 1.403 145.396
v -238.657 1.286 144.724
v -242.567 1.281 164.694
f 965 966 967 968
v -235.544 1.408 146.116
v -218.864 1.479 124.066
v -221.656 1.450 121.954
v -238.336 1.285 144.004
f 969 970 971 972
v -219.204 1.476 124.405
v -199.014 1.328 109.125
v -201.126 1.331 106.335
v -221.316 1.452 121.615
f 973 974 975 976
v -199.956 1.330 109.476
v -177.136 1.436 107.986
v -177.364 1.413 104.494
v -200.184 1.337 105.984
f 977 978 979 980
v -177.337 1.436 107.988
v -146.927 1.379 109.508
v -146.753 1.373 106.012
v -177.163 1.414 104.492
f 981 982 983 984
v -147.248 1.379 109.462
v -124.198 1.304 114.992
v -123.382 1.317 111.588
v -146.432 1.374 106.058
f 985 986 987 988
v -124.207 1.304 114.990
v -101.697 1.239 120.510
v -100.863 1.152 117.110
v -123.373 1.317 111.590
f 989 990 991 992
v -101.384 1.239 120.557
v -91.334 1.282 121.157
v -91.126 1.206 117.663
v -101.176 1.153 117.063
f 993 994 995 996
v -92.974 1.239 119.270
v -94.144 1.328 133.850
v -90.656 1.349 134.130
v -89.486 1.266 119.550
f 997 998 999 1000
v -94.144 1.328 133.841
v -95.894 1.199 154.331
v -92.406 1.194 154.629
v -90.656 1.349 134.139
f 1001 1002 1003 1004
v -49.716 1.377 211.748
v 50.994 1.077 216.728
v 51.166 1.073 213.232
v -49.544 1.354 208.252
f 1005 1006 1007 1008
v 99.348 1.145 257.397
v 111.724 0.291 248.067
v 109.616 0.304 245.273
v 97.241 1.202 254.603
f 1009 1010 1011 1012
v 111.099 0.301 248.367
v 125.779 0.273 244.657
v 124.921 0.342 241.263
v 110.241 0.281 244.973
f 1013 1014 1015 1016
v 125.237 0.267 244.706
v 129.717 0.323 244.996
v 129.943 0.352 241.504
v 125.463 0.343 241.214
f 1017 1018 1019 1020
v 112.419 0.234 246.728
v 113.389 0.312 217.558
v 109.891 0.336 217.442
v 108.921 0.324 246.612
f 1021 1022 1023 1024
v -48.841 1.139 158.213
v -47.951 1.310 122.123
v -51.449 1.312 122.037
v -52.339 1.144 158.127
f 1025 1026 1027 1028
v -49.411 1.334 120.354
v -82.781 1.227 114.764
v -83.359 1.300 118.216
v -49.989 1.287 123.806
f 1029 1030 1031 1032
v -83.660 1.222 114.842
v -91.820 1.208 117.762
v -90.640 1.288 121.058
v -82.480 1.299 118.138
f 1033 1034 1035 1036
v -49.594 1.286 123.827
v -31.114 1.258 122.707
v -31.326 1.265 119.213
v -49.806 1.333 120.333
f 1037 1038 1039 1040
v -31.411 1.260 122.700
v 50.289 1.183 131.660
v 50.671 1.024 128.180
v -31.029 1.262 119.220
f 1041 1042 1043 1044
v 49.409 1.178 131.304
v 59.959 1.146 139.474
v 62.101 1.067 136.706
v 51.551 1.012 128.536
f 1045 1046 1047 1048
v 59.354 1.185 138.595
v 61.754 1.089 146.565
v 65.106 1.077 145.555
v 62.706 1.059 137.585
f 1049 1050 1051 1052
v 61.853 1.089 145.300
v 58.283 1.096 152.710
v 61.437 1.189 154.230
v 65.007 1.096 146.820
f 1053 1054 1055 1056
v 58.588 1.090 152.269
v 39.618 1.099 172.359
v 42.162 1.082 174.761
v 61.132 1.201 154.671
f 1057 1058 1059 1060
v -252.417 0.598 154.907
v -251.117 0.565 140.467
v -254.603 0.399 140.153
v -255.903 0.399 154.593
f 1061 1062 1063 1064
v -251.319 0.602 139.482
v -254.459 0.414 133.639
v -257.541 0.351 135.296
v -254.401 0.395 141.138
f 1065 1066 1067 1068
v -160.161 1.599 237.220
v -162.083 1.576 255.820
v -158.602 1.559 256.180
v -156.679 1.619 237.580
f 1069 1070 1071 1072
usemtl asphalt
