# Baked ultra-low Key West silhouette; generated by bake_key_west_far_city.py
mtllib far_city.mtl
usemtl massing
v -21.050 1.240 -244.665
v 26.107 1.240 -228.687
v 17.930 1.240 -204.555
v -29.227 1.240 -220.533
v -21.050 9.540 -244.665
v 26.107 9.540 -228.687
v 17.930 9.540 -204.555
v -29.227 9.540 -220.533
f 8 7 6 5
f 1 2 6 5
f 2 3 7 6
f 3 4 8 7
f 4 1 5 8
v -25.546 1.370 -209.013
v 35.651 1.370 -196.566
v 24.806 1.370 -143.247
v -36.391 1.370 -155.694
v -25.546 9.670 -209.013
v 35.651 9.670 -196.566
v 24.806 9.670 -143.247
v -36.391 9.670 -155.694
f 16 15 14 13
f 9 10 14 13
f 10 11 15 14
f 11 12 16 15
f 12 9 13 16
v 93.199 1.655 -64.366
v 117.226 1.655 -196.530
v 179.801 1.655 -185.154
v 155.774 1.655 -52.990
v 93.199 9.955 -64.366
v 117.226 9.955 -196.530
v 179.801 9.955 -185.154
v 155.774 9.955 -52.990
f 24 23 22 21
f 17 18 22 21
f 18 19 23 22
f 19 20 24 23
f 20 17 21 24
v 172.104 0.671 107.653
v 204.871 0.671 87.100
v 226.816 0.671 122.087
v 194.049 0.671 142.640
v 172.104 6.471 107.653
v 204.871 6.471 87.100
v 226.816 6.471 122.087
v 194.049 6.471 142.640
f 32 31 30 29
f 25 26 30 29
f 26 27 31 30
f 27 28 32 31
f 28 25 29 32
v 23.455 1.235 -11.276
v 69.422 1.235 -8.676
v 67.025 1.235 33.696
v 21.058 1.235 31.096
v 23.455 7.035 -11.276
v 69.422 7.035 -8.676
v 67.025 7.035 33.696
v 21.058 7.035 31.096
f 40 39 38 37
f 33 34 38 37
f 34 35 39 38
f 35 36 40 39
f 36 33 37 40
v 72.362 0.776 153.100
v 106.467 0.776 27.010
v 145.398 0.776 37.540
v 111.293 0.776 163.630
v 72.362 9.076 153.100
v 106.467 9.076 27.010
v 145.398 9.076 37.540
v 111.293 9.076 163.630
f 48 47 46 45
f 41 42 46 45
f 42 43 47 46
f 43 44 48 47
f 44 41 45 48
v -103.338 0.335 -147.361
v -74.806 0.335 -211.019
v -46.782 0.335 -198.459
v -75.314 0.335 -134.801
v -103.338 8.635 -147.361
v -74.806 8.635 -211.019
v -46.782 8.635 -198.459
v -75.314 8.635 -134.801
f 56 55 54 53
f 49 50 54 53
f 50 51 55 54
f 51 52 56 55
f 52 49 53 56
v 11.927 0.551 262.812
v 16.411 0.551 241.437
v 31.053 0.551 244.508
v 26.569 0.551 265.883
v 11.927 6.851 262.812
v 16.411 6.851 241.437
v 31.053 6.851 244.508
v 26.569 6.851 265.883
f 64 63 62 61
f 57 58 62 61
f 58 59 63 62
f 59 60 64 63
f 60 57 61 64
v -184.014 0.647 224.052
v -166.223 0.647 210.758
v -154.186 0.647 226.868
v -171.977 0.647 240.162
v -184.014 4.547 224.052
v -166.223 4.547 210.758
v -154.186 4.547 226.868
v -171.977 4.547 240.162
f 72 71 70 69
f 65 66 70 69
f 66 67 71 70
f 67 68 72 71
f 68 65 69 72
v -235.107 0.378 245.451
v -223.638 0.378 229.643
v -209.433 0.378 239.949
v -220.902 0.378 255.757
v -235.107 4.278 245.451
v -223.638 4.278 229.643
v -209.433 4.278 239.949
v -220.902 4.278 255.757
f 80 79 78 77
f 73 74 78 77
f 74 75 79 78
f 75 76 80 79
f 76 73 77 80
v -133.829 0.302 248.431
v -129.657 0.302 232.209
v -112.931 0.302 236.509
v -117.103 0.302 252.731
v -133.829 4.202 248.431
v -129.657 4.202 232.209
v -112.931 4.202 236.509
v -117.103 4.202 252.731
f 88 87 86 85
f 81 82 86 85
f 82 83 87 86
f 83 84 88 87
f 84 81 85 88
v -122.185 0.728 29.196
v -106.015 0.728 31.544
v -107.955 0.728 44.904
v -124.125 0.728 42.556
v -122.185 4.628 29.196
v -106.015 4.628 31.544
v -107.955 4.628 44.904
v -124.125 4.628 42.556
f 96 95 94 93
f 89 90 94 93
f 90 91 95 94
f 91 92 96 95
f 92 89 93 96
v -251.346 0.496 241.359
v -241.331 0.496 256.723
v -257.374 0.496 267.181
v -267.389 0.496 251.817
v -251.346 4.396 241.359
v -241.331 4.396 256.723
v -257.374 4.396 267.181
v -267.389 4.396 251.817
f 104 103 102 101
f 97 98 102 101
f 98 99 103 102
f 99 100 104 103
f 100 97 101 104
v -131.468 1.099 65.253
v -114.534 1.099 63.544
v -112.812 1.099 80.607
v -129.746 1.099 82.316
v -131.468 4.999 65.253
v -114.534 4.999 63.544
v -112.812 4.999 80.607
v -129.746 4.999 82.316
f 112 111 110 109
f 105 106 110 109
f 106 107 111 110
f 107 108 112 111
f 108 105 109 112
v -143.150 1.099 58.688
v -139.901 1.099 35.566
v -123.630 1.099 37.852
v -126.879 1.099 60.974
v -143.150 4.999 58.688
v -139.901 4.999 35.566
v -123.630 4.999 37.852
v -126.879 4.999 60.974
f 120 119 118 117
f 113 114 118 117
f 114 115 119 118
f 115 116 120 119
f 116 113 117 120
v -265.444 0.667 -128.551
v -261.452 0.667 -153.605
v -242.896 0.667 -150.649
v -246.888 0.667 -125.595
v -265.444 4.567 -128.551
v -261.452 4.567 -153.605
v -242.896 4.567 -150.649
v -246.888 4.567 -125.595
f 128 127 126 125
f 121 122 126 125
f 122 123 127 126
f 123 124 128 127
f 124 121 125 128
v -246.549 0.804 -138.919
v -237.897 0.804 -154.795
v -222.311 0.804 -146.301
v -230.963 0.804 -130.425
v -246.549 4.704 -138.919
v -237.897 4.704 -154.795
v -222.311 4.704 -146.301
v -230.963 4.704 -130.425
f 136 135 134 133
f 129 130 134 133
f 130 131 135 134
f 131 132 136 135
f 132 129 133 136
v -231.043 0.601 -144.340
v -221.198 0.601 -161.312
v -205.697 0.601 -152.320
v -215.542 0.601 -135.348
v -231.043 4.501 -144.340
v -221.198 4.501 -161.312
v -205.697 4.501 -152.320
v -215.542 4.501 -135.348
f 144 143 142 141
f 137 138 142 141
f 138 139 143 142
f 139 140 144 143
f 140 137 141 144
v -202.651 0.595 -163.061
v -189.765 0.595 -154.555
v -197.869 0.595 -142.279
v -210.755 0.595 -150.785
v -202.651 4.495 -163.061
v -189.765 4.495 -154.555
v -197.869 4.495 -142.279
v -210.755 4.495 -150.785
f 152 151 150 149
f 145 146 150 149
f 146 147 151 150
f 147 148 152 151
f 148 145 149 152
v -175.912 0.552 -170.336
v -171.695 0.552 -153.805
v -185.968 0.552 -150.164
v -190.185 0.552 -166.695
v -175.912 4.452 -170.336
v -171.695 4.452 -153.805
v -185.968 4.452 -150.164
v -190.185 4.452 -166.695
f 160 159 158 157
f 153 154 158 157
f 154 155 159 158
f 155 156 160 159
f 156 153 157 160
v -170.660 0.646 -173.328
v -157.590 0.646 -168.747
v -161.500 0.646 -157.592
v -174.570 0.646 -162.173
v -170.660 4.546 -173.328
v -157.590 4.546 -168.747
v -161.500 4.546 -157.592
v -174.570 4.546 -162.173
f 168 167 166 165
f 161 162 166 165
f 162 163 167 166
f 163 164 168 167
f 164 161 165 168
v -141.208 0.603 -182.126
v -138.841 0.603 -161.240
v -159.012 0.603 -158.954
v -161.379 0.603 -179.840
v -141.208 4.503 -182.126
v -138.841 4.503 -161.240
v -159.012 4.503 -158.954
v -161.379 4.503 -179.840
f 176 175 174 173
f 169 170 174 173
f 170 171 175 174
f 171 172 176 175
f 172 169 173 176
v -137.927 0.530 -171.128
v -137.591 0.530 -188.155
v -125.233 0.530 -187.912
v -125.569 0.530 -170.885
v -137.927 4.430 -171.128
v -137.591 4.430 -188.155
v -125.233 4.430 -187.912
v -125.569 4.430 -170.885
f 184 183 182 181
f 177 178 182 181
f 178 179 183 182
f 179 180 184 183
f 180 177 181 184
v -122.855 0.679 -147.193
v -107.535 0.679 -141.039
v -111.765 0.679 -130.507
v -127.085 0.679 -136.661
v -122.855 4.579 -147.193
v -107.535 4.579 -141.039
v -111.765 4.579 -130.507
v -127.085 4.579 -136.661
f 192 191 190 189
f 185 186 190 189
f 186 187 191 190
f 187 188 192 191
f 188 185 189 192
v -119.990 0.590 -130.604
v -110.960 0.590 -127.345
v -112.970 0.590 -121.776
v -122.000 0.590 -125.035
v -119.990 4.490 -130.604
v -110.960 4.490 -127.345
v -112.970 4.490 -121.776
v -122.000 4.490 -125.035
f 200 199 198 197
f 193 194 198 197
f 194 195 199 198
f 195 196 200 199
f 196 193 197 200
v -126.305 0.709 -139.868
v -125.534 0.709 -123.486
v -142.835 0.709 -122.672
v -143.606 0.709 -139.054
v -126.305 4.609 -139.868
v -125.534 4.609 -123.486
v -142.835 4.609 -122.672
v -143.606 4.609 -139.054
f 208 207 206 205
f 201 202 206 205
f 202 203 207 206
f 203 204 208 207
f 204 201 205 208
v -136.079 0.709 -123.728
v -122.187 0.709 -118.481
v -124.441 0.709 -112.512
v -138.333 0.709 -117.759
v -136.079 4.609 -123.728
v -122.187 4.609 -118.481
v -124.441 4.609 -112.512
v -138.333 4.609 -117.759
f 216 215 214 213
f 209 210 214 213
f 210 211 215 214
f 211 212 216 215
f 212 209 213 216
v -169.884 0.572 -114.005
v -147.881 0.572 -142.182
v -133.016 0.572 -130.575
v -155.019 0.572 -102.398
v -169.884 4.472 -114.005
v -147.881 4.472 -142.182
v -133.016 4.472 -130.575
v -155.019 4.472 -102.398
f 224 223 222 221
f 217 218 222 221
f 218 219 223 222
f 219 220 224 223
f 220 217 221 224
v -183.699 0.752 -112.604
v -169.161 0.752 -131.624
v -153.581 0.752 -119.716
v -168.119 0.752 -100.696
v -183.699 4.652 -112.604
v -169.161 4.652 -131.624
v -153.581 4.652 -119.716
v -168.119 4.652 -100.696
f 232 231 230 229
f 225 226 230 229
f 226 227 231 230
f 227 228 232 231
f 228 225 229 232
v -193.667 0.574 -109.885
v -184.771 0.574 -123.484
v -174.913 0.574 -117.035
v -183.809 0.574 -103.436
v -193.667 4.474 -109.885
v -184.771 4.474 -123.484
v -174.913 4.474 -117.035
v -183.809 4.474 -103.436
f 240 239 238 237
f 233 234 238 237
f 234 235 239 238
f 235 236 240 239
f 236 233 237 240
v -212.768 0.661 -97.807
v -206.942 0.661 -116.385
v -192.552 0.661 -111.873
v -198.378 0.661 -93.295
v -212.768 4.561 -97.807
v -206.942 4.561 -116.385
v -192.552 4.561 -111.873
v -198.378 4.561 -93.295
f 248 247 246 245
f 241 242 246 245
f 242 243 247 246
f 243 244 248 247
f 244 241 245 248
v -213.740 0.528 -85.298
v -209.276 0.528 -97.081
v -205.900 0.528 -95.802
v -210.364 0.528 -84.019
v -213.740 4.428 -85.298
v -209.276 4.428 -97.081
v -205.900 4.428 -95.802
v -210.364 4.428 -84.019
f 256 255 254 253
f 249 250 254 253
f 250 251 255 254
f 251 252 256 255
f 252 249 253 256
v -224.906 0.763 -92.614
v -224.804 0.763 -106.504
v -214.194 0.763 -106.426
v -214.296 0.763 -92.536
v -224.906 4.663 -92.614
v -224.804 4.663 -106.504
v -214.194 4.663 -106.426
v -214.296 4.663 -92.536
f 264 263 262 261
f 257 258 262 261
f 258 259 263 262
f 259 260 264 263
f 260 257 261 264
v -245.570 0.766 -86.146
v -237.489 0.766 -102.375
v -228.850 0.766 -98.074
v -236.931 0.766 -81.845
v -245.570 4.666 -86.146
v -237.489 4.666 -102.375
v -228.850 4.666 -98.074
v -236.931 4.666 -81.845
f 272 271 270 269
f 265 266 270 269
f 266 267 271 270
f 267 268 272 271
f 268 265 269 272
v -238.927 0.680 -51.154
v -235.701 0.680 -72.694
v -220.293 0.680 -70.386
v -223.519 0.680 -48.846
v -238.927 4.580 -51.154
v -235.701 4.580 -72.694
v -220.293 4.580 -70.386
v -223.519 4.580 -48.846
f 280 279 278 277
f 273 274 278 277
f 274 275 279 278
f 275 276 280 279
f 276 273 277 280
v -216.065 0.694 -52.053
v -211.100 0.694 -72.654
v -197.295 0.694 -69.327
v -202.260 0.694 -48.726
v -216.065 4.594 -52.053
v -211.100 4.594 -72.654
v -197.295 4.594 -69.327
v -202.260 4.594 -48.726
f 288 287 286 285
f 281 282 286 285
f 282 283 287 286
f 283 284 288 287
f 284 281 285 288
v -205.618 0.553 -79.739
v -203.476 0.553 -85.897
v -199.462 0.553 -84.501
v -201.604 0.553 -78.343
v -205.618 4.453 -79.739
v -203.476 4.453 -85.897
v -199.462 4.453 -84.501
v -201.604 4.453 -78.343
f 296 295 294 293
f 289 290 294 293
f 290 291 295 294
f 291 292 296 295
f 292 289 293 296
v -184.178 0.711 -87.419
v -177.264 0.711 -60.348
v -196.322 0.711 -55.481
v -203.236 0.711 -82.552
v -184.178 4.611 -87.419
v -177.264 4.611 -60.348
v -196.322 4.611 -55.481
v -203.236 4.611 -82.552
f 304 303 302 301
f 297 298 302 301
f 298 299 303 302
f 299 300 304 303
f 300 297 301 304
v -183.485 0.703 -76.587
v -167.346 0.703 -84.235
v -161.175 0.703 -71.213
v -177.314 0.703 -63.565
v -183.485 4.603 -76.587
v -167.346 4.603 -84.235
v -161.175 4.603 -71.213
v -177.314 4.603 -63.565
f 312 311 310 309
f 305 306 310 309
f 306 307 311 310
f 307 308 312 311
f 308 305 309 312
v -149.819 0.564 -91.464
v -147.766 0.564 -76.383
v -162.361 0.564 -74.396
v -164.414 0.564 -89.477
v -149.819 4.464 -91.464
v -147.766 4.464 -76.383
v -162.361 4.464 -74.396
v -164.414 4.464 -89.477
f 320 319 318 317
f 313 314 318 317
f 314 315 319 318
f 315 316 320 319
f 316 313 317 320
v -153.773 0.769 -89.072
v -141.741 0.769 -104.226
v -126.227 0.769 -91.908
v -138.259 0.769 -76.754
v -153.773 4.669 -89.072
v -141.741 4.669 -104.226
v -126.227 4.669 -91.908
v -138.259 4.669 -76.754
f 328 327 326 325
f 321 322 326 325
f 322 323 327 326
f 323 324 328 327
f 324 321 325 328
v -139.874 0.678 -91.674
v -124.547 0.678 -112.041
v -108.766 0.678 -100.166
v -124.093 0.678 -79.799
v -139.874 4.578 -91.674
v -124.547 4.578 -112.041
v -108.766 4.578 -100.166
v -124.093 4.578 -79.799
f 336 335 334 333
f 329 330 334 333
f 330 331 335 334
f 331 332 336 335
f 332 329 333 336
v -112.756 0.604 -91.511
v -111.510 0.604 -112.304
v -98.244 0.604 -111.509
v -99.490 0.604 -90.716
v -112.756 4.504 -91.511
v -111.510 4.504 -112.304
v -98.244 4.504 -111.509
v -99.490 4.504 -90.716
f 344 343 342 341
f 337 338 342 341
f 338 339 343 342
f 339 340 344 343
f 340 337 341 344
v -239.694 0.722 -14.013
v -235.906 0.722 7.364
v -251.306 0.722 10.093
v -255.094 0.722 -11.284
v -239.694 4.622 -14.013
v -235.906 4.622 7.364
v -251.306 4.622 10.093
v -255.094 4.622 -11.284
f 352 351 350 349
f 345 346 350 349
f 346 347 351 350
f 347 348 352 351
f 348 345 349 352
v -261.243 0.412 41.698
v -256.332 0.412 26.114
v -245.517 0.412 29.522
v -250.428 0.412 45.106
v -261.243 4.312 41.698
v -256.332 4.312 26.114
v -245.517 4.312 29.522
v -250.428 4.312 45.106
f 360 359 358 357
f 353 354 358 357
f 354 355 359 358
f 355 356 360 359
f 356 353 357 360
v -246.979 1.007 45.448
v -243.853 1.007 21.612
v -225.401 1.007 24.032
v -228.527 1.007 47.868
v -246.979 4.907 45.448
v -243.853 4.907 21.612
v -225.401 4.907 24.032
v -228.527 4.907 47.868
f 368 367 366 365
f 361 362 366 365
f 362 363 367 366
f 363 364 368 367
f 364 361 365 368
v -235.900 0.574 13.124
v -229.942 0.574 15.233
v -231.380 0.574 19.296
v -237.338 0.574 17.187
v -235.900 4.474 13.124
v -229.942 4.474 15.233
v -231.380 4.474 19.296
v -237.338 4.474 17.187
f 376 375 374 373
f 369 370 374 373
f 370 371 375 374
f 371 372 376 375
f 372 369 373 376
v -192.844 1.061 51.147
v -175.974 1.061 52.312
v -177.096 1.061 68.573
v -193.966 1.061 67.408
v -192.844 4.961 51.147
v -175.974 4.961 52.312
v -177.096 4.961 68.573
v -193.966 4.961 67.408
f 384 383 382 381
f 377 378 382 381
f 378 379 383 382
f 379 380 384 383
f 380 377 381 384
v -180.145 1.353 61.085
v -170.408 1.353 39.928
v -155.355 1.353 46.855
v -165.092 1.353 68.012
v -180.145 5.253 61.085
v -170.408 5.253 39.928
v -155.355 5.253 46.855
v -165.092 5.253 68.012
f 392 391 390 389
f 385 386 390 389
f 386 387 391 390
f 387 388 392 391
f 388 385 389 392
v -155.553 0.970 39.462
v -142.890 0.970 44.114
v -146.807 0.970 54.778
v -159.470 0.970 50.126
v -155.553 4.870 39.462
v -142.890 4.870 44.114
v -146.807 4.870 54.778
v -159.470 4.870 50.126
f 400 399 398 397
f 393 394 398 397
f 394 395 399 398
f 395 396 400 399
f 396 393 397 400
v -149.803 0.796 60.894
v -145.227 0.796 62.375
v -146.557 0.796 66.486
v -151.133 0.796 65.005
v -149.803 4.696 60.894
v -145.227 4.696 62.375
v -146.557 4.696 66.486
v -151.133 4.696 65.005
f 408 407 406 405
f 401 402 406 405
f 402 403 407 406
f 403 404 408 407
f 404 401 405 408
v -142.145 0.880 57.432
v -136.909 0.880 59.148
v -138.535 0.880 64.108
v -143.771 0.880 62.392
v -142.145 4.780 57.432
v -136.909 4.780 59.148
v -138.535 4.780 64.108
v -143.771 4.780 62.392
f 416 415 414 413
f 409 410 414 413
f 410 411 415 414
f 411 412 416 415
f 412 409 413 416
v -110.331 1.081 50.748
v -99.995 1.081 54.422
v -101.449 1.081 58.512
v -111.785 1.081 54.838
v -110.331 4.981 50.748
v -99.995 4.981 54.422
v -101.449 4.981 58.512
v -111.785 4.981 54.838
f 424 423 422 421
f 417 418 422 421
f 418 419 423 422
f 419 420 424 423
f 420 417 421 424
v -222.470 0.515 -12.022
v -207.084 0.515 -27.873
v -195.510 0.515 -16.638
v -210.896 0.515 -0.787
v -222.470 4.415 -12.022
v -207.084 4.415 -27.873
v -195.510 4.415 -16.638
v -210.896 4.415 -0.787
f 432 431 430 429
f 425 426 430 429
f 426 427 431 430
f 427 428 432 431
f 428 425 429 432
v -201.801 0.619 -14.853
v -194.510 0.619 -31.431
v -181.539 0.619 -25.727
v -188.830 0.619 -9.149
v -201.801 4.519 -14.853
v -194.510 4.519 -31.431
v -181.539 4.519 -25.727
v -188.830 4.519 -9.149
f 440 439 438 437
f 433 434 438 437
f 434 435 439 438
f 435 436 440 439
f 436 433 437 440
v -181.259 0.614 -23.336
v -179.333 0.614 -35.859
v -169.221 0.614 -34.304
v -171.147 0.614 -21.781
v -181.259 4.514 -23.336
v -179.333 4.514 -35.859
v -169.221 4.514 -34.304
v -171.147 4.514 -21.781
f 448 447 446 445
f 441 442 446 445
f 442 443 447 446
f 443 444 448 447
f 444 441 445 448
v -113.264 0.762 -59.161
v -98.430 0.762 -55.374
v -101.656 0.762 -42.739
v -116.490 0.762 -46.526
v -113.264 4.662 -59.161
v -98.430 4.662 -55.374
v -101.656 4.662 -42.739
v -116.490 4.662 -46.526
f 456 455 454 453
f 449 450 454 453
f 450 451 455 454
f 451 452 456 455
f 452 449 453 456
v -123.349 0.698 -8.095
v -117.532 0.698 -23.279
v -103.711 0.698 -17.985
v -109.528 0.698 -2.801
v -123.349 4.598 -8.095
v -117.532 4.598 -23.279
v -103.711 4.598 -17.985
v -109.528 4.598 -2.801
f 464 463 462 461
f 457 458 462 461
f 458 459 463 462
f 459 460 464 463
f 460 457 461 464
v -141.861 0.719 -3.929
v -135.774 0.719 -20.783
v -122.559 0.719 -16.011
v -128.646 0.719 0.843
v -141.861 4.619 -3.929
v -135.774 4.619 -20.783
v -122.559 4.619 -16.011
v -128.646 4.619 0.843
f 472 471 470 469
f 465 466 470 469
f 466 467 471 470
f 467 468 472 471
f 468 465 469 472
v -157.869 0.630 5.297
v -153.743 0.630 -11.956
v -138.191 0.630 -8.237
v -142.317 0.630 9.016
v -157.869 4.530 5.297
v -153.743 4.530 -11.956
v -138.191 4.530 -8.237
v -142.317 4.530 9.016
f 480 479 478 477
f 473 474 478 477
f 474 475 479 478
f 475 476 480 479
f 476 473 477 480
v -156.266 0.450 -16.275
v -151.560 0.450 -15.061
v -152.694 0.450 -10.665
v -157.400 0.450 -11.879
v -156.266 4.350 -16.275
v -151.560 4.350 -15.061
v -152.694 4.350 -10.665
v -157.400 4.350 -11.879
f 488 487 486 485
f 481 482 486 485
f 482 483 487 486
f 483 484 488 487
f 484 481 485 488
v -180.001 1.049 7.860
v -168.514 1.049 -12.100
v -154.299 1.049 -3.920
v -165.786 1.049 16.040
v -180.001 4.949 7.860
v -168.514 4.949 -12.100
v -154.299 4.949 -3.920
v -165.786 4.949 16.040
f 496 495 494 493
f 489 490 494 493
f 490 491 495 494
f 491 492 496 495
f 492 489 493 496
v -191.574 0.723 19.284
v -186.933 0.723 2.608
v -172.386 0.723 6.656
v -177.027 0.723 23.332
v -191.574 4.623 19.284
v -186.933 4.623 2.608
v -172.386 4.623 6.656
v -177.027 4.623 23.332
f 504 503 502 501
f 497 498 502 501
f 498 499 503 502
f 499 500 504 503
f 500 497 501 504
v -191.001 0.885 5.038
v -188.723 0.885 30.486
v -207.219 0.885 32.142
v -209.497 0.885 6.694
v -191.001 4.785 5.038
v -188.723 4.785 30.486
v -207.219 4.785 32.142
v -209.497 4.785 6.694
f 512 511 510 509
f 505 506 510 509
f 506 507 511 510
f 507 508 512 511
f 508 505 509 512
v -161.737 0.762 -42.900
v -150.223 0.762 -40.556
v -152.543 0.762 -29.160
v -164.057 0.762 -31.504
v -161.737 4.662 -42.900
v -150.223 4.662 -40.556
v -152.543 4.662 -29.160
v -164.057 4.662 -31.504
f 520 519 518 517
f 513 514 518 517
f 514 515 519 518
f 515 516 520 519
f 516 513 517 520
v -146.710 0.583 -31.829
v -143.774 0.583 -43.134
v -132.750 0.583 -40.271
v -135.686 0.583 -28.966
v -146.710 4.483 -31.829
v -143.774 4.483 -43.134
v -132.750 4.483 -40.271
v -135.686 4.483 -28.966
f 528 527 526 525
f 521 522 526 525
f 522 523 527 526
f 523 524 528 527
f 524 521 525 528
v -131.666 0.819 -34.959
v -129.273 0.819 -47.482
v -118.694 0.819 -45.461
v -121.087 0.819 -32.938
v -131.666 4.719 -34.959
v -129.273 4.719 -47.482
v -118.694 4.719 -45.461
v -121.087 4.719 -32.938
f 536 535 534 533
f 529 530 534 533
f 530 531 535 534
f 531 532 536 535
f 532 529 533 536
v -260.355 0.965 197.588
v -246.657 0.965 202.188
v -250.305 0.965 213.052
v -264.003 0.965 208.452
v -260.355 4.865 197.588
v -246.657 4.865 202.188
v -250.305 4.865 213.052
v -264.003 4.865 208.452
f 544 543 542 541
f 537 538 542 541
f 538 539 543 542
f 539 540 544 543
f 540 537 541 544
v -257.193 0.926 174.625
v -256.170 0.926 156.684
v -239.827 0.926 157.615
v -240.850 0.926 175.556
v -257.193 4.826 174.625
v -256.170 4.826 156.684
v -239.827 4.826 157.615
v -240.850 4.826 175.556
f 552 551 550 549
f 545 546 550 549
f 546 547 551 550
f 547 548 552 551
f 548 545 549 552
v -244.594 0.934 167.229
v -230.804 0.934 147.844
v -216.626 0.934 157.931
v -230.416 0.934 177.316
v -244.594 4.834 167.229
v -230.804 4.834 147.844
v -216.626 4.834 157.931
v -230.416 4.834 177.316
f 560 559 558 557
f 553 554 558 557
f 554 555 559 558
f 555 556 560 559
f 556 553 557 560
v -225.799 1.270 153.720
v -216.239 1.270 140.778
v -203.241 1.270 150.380
v -212.801 1.270 163.322
v -225.799 5.170 153.720
v -216.239 5.170 140.778
v -203.241 5.170 150.380
v -212.801 5.170 163.322
f 568 567 566 565
f 561 562 566 565
f 562 563 567 566
f 563 564 568 567
f 564 561 565 568
v -201.233 0.942 149.884
v -197.123 0.942 138.503
v -186.787 0.942 142.236
v -190.897 0.942 153.617
v -201.233 4.842 149.884
v -197.123 4.842 138.503
v -186.787 4.842 142.236
v -190.897 4.842 153.617
f 576 575 574 573
f 569 570 574 573
f 570 571 575 574
f 571 572 576 575
f 572 569 573 576
v -200.623 0.681 177.500
v -189.335 0.681 193.949
v -202.437 0.681 202.940
v -213.725 0.681 186.491
v -200.623 4.581 177.500
v -189.335 4.581 193.949
v -202.437 4.581 202.940
v -213.725 4.581 186.491
f 584 583 582 581
f 577 578 582 581
f 578 579 583 582
f 579 580 584 583
f 580 577 581 584
v -226.093 0.514 201.271
v -223.017 0.514 182.978
v -210.227 0.514 185.129
v -213.303 0.514 203.422
v -226.093 4.414 201.271
v -223.017 4.414 182.978
v -210.227 4.414 185.129
v -213.303 4.414 203.422
f 592 591 590 589
f 585 586 590 589
f 586 587 591 590
f 587 588 592 591
f 588 585 589 592
v -245.867 0.645 204.422
v -240.995 0.645 190.468
v -228.193 0.645 194.938
v -233.065 0.645 208.892
v -245.867 4.545 204.422
v -240.995 4.545 190.468
v -228.193 4.545 194.938
v -233.065 4.545 208.892
f 600 599 598 597
f 593 594 598 597
f 594 595 599 598
f 595 596 600 599
f 596 593 597 600
v -252.541 0.580 245.951
v -236.383 0.580 234.997
v -225.379 0.580 251.229
v -241.537 0.580 262.183
v -252.541 4.480 245.951
v -236.383 4.480 234.997
v -225.379 4.480 251.229
v -241.537 4.480 262.183
f 608 607 606 605
f 601 602 606 605
f 602 603 607 606
f 603 604 608 607
f 604 601 605 608
v -213.760 0.604 242.413
v -209.046 0.604 227.858
v -195.680 0.604 232.187
v -200.394 0.604 246.742
v -213.760 4.504 242.413
v -209.046 4.504 227.858
v -195.680 4.504 232.187
v -200.394 4.504 246.742
f 616 615 614 613
f 609 610 614 613
f 610 611 615 614
f 611 612 616 615
f 612 609 613 616
v -166.842 0.111 238.518
v -150.094 0.111 241.131
v -153.178 0.111 260.902
v -169.926 0.111 258.289
v -166.842 4.011 238.518
v -150.094 4.011 241.131
v -153.178 4.011 260.902
v -169.926 4.011 258.289
f 624 623 622 621
f 617 618 622 621
f 618 619 623 622
f 619 620 624 623
f 620 617 621 624
v -125.476 0.370 214.124
v -119.606 0.370 195.853
v -106.524 0.370 200.056
v -112.394 0.370 218.327
v -125.476 4.270 214.124
v -119.606 4.270 195.853
v -106.524 4.270 200.056
v -112.394 4.270 218.327
f 632 631 630 629
f 625 626 630 629
f 626 627 631 630
f 627 628 632 631
f 628 625 629 632
v -108.508 0.699 204.150
v -105.129 0.699 190.255
v -91.332 0.699 193.610
v -94.711 0.699 207.505
v -108.508 4.599 204.150
v -105.129 4.599 190.255
v -91.332 4.599 193.610
v -94.711 4.599 207.505
f 640 639 638 637
f 633 634 638 637
f 634 635 639 638
f 635 636 640 639
f 636 633 637 640
v -89.453 0.597 183.425
v -73.902 0.597 185.268
v -75.487 0.597 198.635
v -91.038 0.597 196.792
v -89.453 4.497 183.425
v -73.902 4.497 185.268
v -75.487 4.497 198.635
v -91.038 4.497 196.792
f 648 647 646 645
f 641 642 646 645
f 642 643 647 646
f 643 644 648 647
f 644 641 645 648
v -69.973 0.295 178.363
v -57.899 0.295 182.459
v -61.127 0.295 191.977
v -73.201 0.295 187.881
v -69.973 4.195 178.363
v -57.899 4.195 182.459
v -61.127 4.195 191.977
v -73.201 4.195 187.881
f 656 655 654 653
f 649 650 654 653
f 650 651 655 654
f 651 652 656 655
f 652 649 653 656
v -57.421 0.443 192.130
v -48.960 0.443 169.992
v -35.939 0.443 174.970
v -44.400 0.443 197.108
v -57.421 4.343 192.130
v -48.960 4.343 169.992
v -35.939 4.343 174.970
v -44.400 4.343 197.108
f 664 663 662 661
f 657 658 662 661
f 658 659 663 662
f 659 660 664 663
f 660 657 661 664
v -25.141 0.793 159.853
v -14.775 0.793 178.906
v -33.599 0.793 189.147
v -43.965 0.793 170.094
v -25.141 4.693 159.853
v -14.775 4.693 178.906
v -33.599 4.693 189.147
v -43.965 4.693 170.094
f 672 671 670 669
f 665 666 670 669
f 666 667 671 670
f 667 668 672 671
f 668 665 669 672
v -19.494 0.568 174.245
v -13.404 0.568 158.256
v 0.614 0.568 163.595
v -5.476 0.568 179.584
v -19.494 4.468 174.245
v -13.404 4.468 158.256
v 0.614 4.468 163.595
v -5.476 4.468 179.584
f 680 679 678 677
f 673 674 678 677
f 674 675 679 678
f 675 676 680 679
f 676 673 677 680
v -12.825 0.594 199.334
v 0.229 0.594 189.081
v 12.045 0.594 204.126
v -1.009 0.594 214.379
v -12.825 4.494 199.334
v 0.229 4.494 189.081
v 12.045 4.494 204.126
v -1.009 4.494 214.379
f 688 687 686 685
f 681 682 686 685
f 682 683 687 686
f 683 684 688 687
f 684 681 685 688
v -29.669 0.279 207.999
v -19.925 0.279 195.637
v -7.131 0.279 205.721
v -16.875 0.279 218.083
v -29.669 4.179 207.999
v -19.925 4.179 195.637
v -7.131 4.179 205.721
v -16.875 4.179 218.083
f 696 695 694 693
f 689 690 694 693
f 690 691 695 694
f 691 692 696 695
f 692 689 693 696
v -27.658 0.377 197.888
v -26.532 0.377 220.690
v -42.762 0.377 221.492
v -43.888 0.377 198.690
v -27.658 4.277 197.888
v -26.532 4.277 220.690
v -42.762 4.277 221.492
v -43.888 4.277 198.690
f 704 703 702 701
f 697 698 702 701
f 698 699 703 702
f 699 700 704 703
f 700 697 701 704
v -63.655 0.204 215.058
v -49.165 0.204 209.093
v -43.645 0.204 222.502
v -58.135 0.204 228.467
v -63.655 4.104 215.058
v -49.165 4.104 209.093
v -43.645 4.104 222.502
v -58.135 4.104 228.467
f 712 711 710 709
f 705 706 710 709
f 706 707 711 710
f 707 708 712 711
f 708 705 709 712
v -84.018 0.304 224.051
v -70.823 0.304 211.516
v -59.962 0.304 222.949
v -73.157 0.304 235.484
v -84.018 4.204 224.051
v -70.823 4.204 211.516
v -59.962 4.204 222.949
v -73.157 4.204 235.484
f 720 719 718 717
f 713 714 718 717
f 714 715 719 718
f 715 716 720 719
f 716 713 717 720
v -96.629 0.195 236.256
v -92.832 0.195 220.147
v -78.251 0.195 223.584
v -82.048 0.195 239.693
v -96.629 4.095 236.256
v -92.832 4.095 220.147
v -78.251 4.095 223.584
v -82.048 4.095 239.693
f 728 727 726 725
f 721 722 726 725
f 722 723 727 726
f 723 724 728 727
f 724 721 725 728
v -116.395 0.361 238.525
v -106.829 0.361 225.439
v -93.565 0.361 235.135
v -103.131 0.361 248.221
v -116.395 4.261 238.525
v -106.829 4.261 225.439
v -93.565 4.261 235.135
v -103.131 4.261 248.221
f 736 735 734 733
f 729 730 734 733
f 730 731 735 734
f 731 732 736 735
f 732 729 733 736
v 13.909 0.238 189.294
v 33.707 0.238 136.633
v 51.511 0.238 143.326
v 31.713 0.238 195.987
v 13.909 6.038 189.294
v 33.707 6.038 136.633
v 51.511 6.038 143.326
v 31.713 6.038 195.987
f 744 743 742 741
f 737 738 742 741
f 738 739 743 742
f 739 740 744 743
f 740 737 741 744
v -166.193 1.179 127.370
v -150.793 1.179 130.152
v -152.827 1.179 141.410
v -168.227 1.179 138.628
v -166.193 5.079 127.370
v -150.793 5.079 130.152
v -152.827 5.079 141.410
v -168.227 5.079 138.628
f 752 751 750 749
f 745 746 750 749
f 746 747 751 750
f 747 748 752 751
f 748 745 749 752
v -131.808 1.256 115.918
v -115.312 1.256 116.821
v -116.012 1.256 129.622
v -132.508 1.256 128.719
v -131.808 5.156 115.918
v -115.312 5.156 116.821
v -116.012 5.156 129.622
v -132.508 5.156 128.719
f 760 759 758 757
f 753 754 758 757
f 754 755 759 758
f 755 756 760 759
f 756 753 757 760
v -112.857 1.168 112.085
v -100.199 1.168 110.474
v -98.643 1.168 122.695
v -111.301 1.168 124.306
v -112.857 5.068 112.085
v -100.199 5.068 110.474
v -98.643 5.068 122.695
v -111.301 5.068 124.306
f 768 767 766 765
f 761 762 766 765
f 762 763 767 766
f 763 764 768 767
f 764 761 765 768
v -99.294 1.336 116.240
v -94.969 1.336 102.337
v -81.906 1.336 106.400
v -86.231 1.336 120.303
v -99.294 5.236 116.240
v -94.969 5.236 102.337
v -81.906 5.236 106.400
v -86.231 5.236 120.303
f 776 775 774 773
f 769 770 774 773
f 770 771 775 774
f 771 772 776 775
f 772 769 773 776
v -77.744 1.507 98.309
v -64.310 1.507 102.848
v -67.696 1.507 112.871
v -81.130 1.507 108.332
v -77.744 5.407 98.309
v -64.310 5.407 102.848
v -67.696 5.407 112.871
v -81.130 5.407 108.332
f 784 783 782 781
f 777 778 782 781
f 778 779 783 782
f 779 780 784 783
f 780 777 781 784
v -60.578 0.921 90.272
v -48.292 0.921 95.744
v -52.882 0.921 106.048
v -65.168 0.921 100.576
v -60.578 4.821 90.272
v -48.292 4.821 95.744
v -52.882 4.821 106.048
v -65.168 4.821 100.576
f 792 791 790 789
f 785 786 790 789
f 786 787 791 790
f 787 788 792 791
f 788 785 789 792
v -6.972 0.925 120.777
v 11.816 0.925 65.408
v 32.252 0.925 72.343
v 13.464 0.925 127.712
v -6.972 6.725 120.777
v 11.816 6.725 65.408
v 32.252 6.725 72.343
v 13.464 6.725 127.712
f 800 799 798 797
f 793 794 798 797
f 794 795 799 798
f 795 796 800 799
f 796 793 797 800
v 28.814 1.068 109.881
v 50.909 1.068 47.934
v 78.006 1.068 57.599
v 55.911 1.068 119.546
v 28.814 9.368 109.881
v 50.909 9.368 47.934
v 78.006 9.368 57.599
v 55.911 9.368 119.546
f 808 807 806 805
f 801 802 806 805
f 802 803 807 806
f 803 804 808 807
f 804 801 805 808
v -143.255 0.784 68.327
v -127.450 0.784 76.002
v -134.925 0.784 91.393
v -150.730 0.784 83.718
v -143.255 4.684 68.327
v -127.450 4.684 76.002
v -134.925 4.684 91.393
v -150.730 4.684 83.718
f 816 815 814 813
f 809 810 814 813
f 810 811 815 814
f 811 812 816 815
f 812 809 813 816
v -170.099 1.093 82.950
v -161.934 1.093 98.088
v -175.621 1.093 105.470
v -183.786 1.093 90.332
v -170.099 4.993 82.950
v -161.934 4.993 98.088
v -175.621 4.993 105.470
v -183.786 4.993 90.332
f 824 823 822 821
f 817 818 822 821
f 818 819 823 822
f 819 820 824 823
f 820 817 821 824
v -165.714 0.942 97.625
v -164.794 0.942 78.407
v -145.826 0.942 79.315
v -146.746 0.942 98.533
v -165.714 4.842 97.625
v -164.794 4.842 78.407
v -145.826 4.842 79.315
v -146.746 4.842 98.533
f 832 831 830 829
f 825 826 830 829
f 826 827 831 830
f 827 828 832 831
f 828 825 829 832
v 181.147 0.403 234.634
v 186.114 0.403 214.497
v 195.473 0.403 216.806
v 190.506 0.403 236.943
v 181.147 4.303 234.634
v 186.114 4.303 214.497
v 195.473 4.303 216.806
v 190.506 4.303 236.943
f 840 839 838 837
f 833 834 838 837
f 834 835 839 838
f 835 836 840 839
f 836 833 837 840
v -98.050 0.574 -49.521
v -94.498 0.574 -67.025
v -80.670 0.574 -64.219
v -84.222 0.574 -46.715
v -98.050 4.474 -49.521
v -94.498 4.474 -67.025
v -80.670 4.474 -64.219
v -84.222 4.474 -46.715
f 848 847 846 845
f 841 842 846 845
f 842 843 847 846
f 843 844 848 847
f 844 841 845 848
v -106.905 0.785 -11.644
v -100.025 0.785 -29.644
v -86.135 0.785 -24.336
v -93.015 0.785 -6.336
v -106.905 4.685 -11.644
v -100.025 4.685 -29.644
v -86.135 4.685 -24.336
v -93.015 4.685 -6.336
f 856 855 854 853
f 849 850 854 853
f 850 851 855 854
f 851 852 856 855
f 852 849 853 856
v -91.230 0.593 -19.173
v -86.483 0.593 -37.674
v -67.750 0.593 -32.867
v -72.497 0.593 -14.366
v -91.230 4.493 -19.173
v -86.483 4.493 -37.674
v -67.750 4.493 -32.867
v -72.497 4.493 -14.366
f 864 863 862 861
f 857 858 862 861
f 858 859 863 862
f 859 860 864 863
f 860 857 861 864
v 44.360 0.740 154.274
v 51.574 0.740 133.342
v 62.900 0.740 137.246
v 55.686 0.740 158.178
v 44.360 4.640 154.274
v 51.574 4.640 133.342
v 62.900 4.640 137.246
v 55.686 4.640 158.178
f 872 871 870 869
f 865 866 870 869
f 866 867 871 870
f 867 868 872 871
f 868 865 869 872
v 51.951 0.699 176.492
v 59.391 0.699 156.139
v 70.849 0.699 160.328
v 63.409 0.699 180.681
v 51.951 4.599 176.492
v 59.391 4.599 156.139
v 70.849 4.599 160.328
v 63.409 4.599 180.681
f 880 879 878 877
f 873 874 878 877
f 874 875 879 878
f 875 876 880 879
f 876 873 877 880
v 62.099 0.488 135.469
v 66.219 0.488 124.028
v 74.781 0.488 127.111
v 70.661 0.488 138.552
v 62.099 4.388 135.469
v 66.219 4.388 124.028
v 74.781 4.388 127.111
v 70.661 4.388 138.552
f 888 887 886 885
f 881 882 886 885
f 882 883 887 886
f 883 884 888 887
f 884 881 885 888
v 77.988 0.466 163.727
v 90.634 0.466 167.545
v 87.032 0.466 179.473
v 74.386 0.466 175.655
v 77.988 4.366 163.727
v 90.634 4.366 167.545
v 87.032 4.366 179.473
v 74.386 4.366 175.655
f 896 895 894 893
f 889 890 894 893
f 890 891 895 894
f 891 892 896 895
f 892 889 893 896
v 76.586 0.612 128.678
v 83.558 0.612 116.112
v 95.974 0.612 123.002
v 89.002 0.612 135.568
v 76.586 4.512 128.678
v 83.558 4.512 116.112
v 95.974 4.512 123.002
v 89.002 4.512 135.568
f 904 903 902 901
f 897 898 902 901
f 898 899 903 902
f 899 900 904 903
f 900 897 901 904
v 83.811 0.604 148.731
v 90.040 0.604 132.420
v 101.269 0.604 136.709
v 95.040 0.604 153.020
v 83.811 4.504 148.731
v 90.040 4.504 132.420
v 101.269 4.504 136.709
v 95.040 4.504 153.020
f 912 911 910 909
f 905 906 910 909
f 906 907 911 910
f 907 908 912 911
f 908 905 909 912
v 90.282 0.594 167.642
v 96.411 0.594 150.877
v 107.738 0.594 155.018
v 101.609 0.594 171.783
v 90.282 4.494 167.642
v 96.411 4.494 150.877
v 107.738 4.494 155.018
v 101.609 4.494 171.783
f 920 919 918 917
f 913 914 918 917
f 914 915 919 918
f 915 916 920 919
f 916 913 917 920
v 166.228 0.521 197.446
v 181.179 0.521 184.679
v 191.712 0.521 197.014
v 176.761 0.521 209.781
v 166.228 4.421 197.446
v 181.179 4.421 184.679
v 191.712 4.421 197.014
v 176.761 4.421 209.781
f 928 927 926 925
f 921 922 926 925
f 922 923 927 926
f 923 924 928 927
f 924 921 925 928
v 152.640 0.450 209.793
v 157.173 0.450 197.120
v 168.820 0.450 201.287
v 164.287 0.450 213.960
v 152.640 4.350 209.793
v 157.173 4.350 197.120
v 168.820 4.350 201.287
v 164.287 4.350 213.960
f 936 935 934 933
f 929 930 934 933
f 930 931 935 934
f 931 932 936 935
f 932 929 933 936
v -108.517 0.727 36.551
v -104.103 0.727 20.186
v -89.563 0.727 24.109
v -93.977 0.727 40.474
v -108.517 4.627 36.551
v -104.103 4.627 20.186
v -89.563 4.627 24.109
v -93.977 4.627 40.474
f 944 943 942 941
f 937 938 942 941
f 938 939 943 942
f 939 940 944 943
f 940 937 941 944
v -90.997 0.731 31.454
v -86.102 0.731 15.551
v -71.823 0.731 19.946
v -76.718 0.731 35.849
v -90.997 4.631 31.454
v -86.102 4.631 15.551
v -71.823 4.631 19.946
v -76.718 4.631 35.849
f 952 951 950 949
f 945 946 950 949
f 946 947 951 950
f 947 948 952 951
f 948 945 949 952
v -71.777 1.112 24.082
v -68.061 1.112 10.149
v -53.403 1.112 14.058
v -57.119 1.112 27.991
v -71.777 5.012 24.082
v -68.061 5.012 10.149
v -53.403 5.012 14.058
v -57.119 5.012 27.991
f 960 959 958 957
f 953 954 958 957
f 954 955 959 958
f 955 956 960 959
f 956 953 957 960
v -52.492 1.004 26.547
v -47.717 1.004 28.161
v -49.168 1.004 32.453
v -53.943 1.004 30.839
v -52.492 4.904 26.547
v -47.717 4.904 28.161
v -49.168 4.904 32.453
v -53.943 4.904 30.839
f 968 967 966 965
f 961 962 966 965
f 962 963 967 966
f 963 964 968 967
f 964 961 965 968
v -25.232 1.205 47.531
v -16.375 1.205 17.073
v -3.528 1.205 20.809
v -12.385 1.205 51.267
v -25.232 5.105 47.531
v -16.375 5.105 17.073
v -3.528 5.105 20.809
v -12.385 5.105 51.267
f 976 975 974 973
f 969 970 974 973
f 970 971 975 974
f 971 972 976 975
f 972 969 973 976
v -3.250 1.134 24.711
v 10.481 1.134 29.433
v 6.630 1.134 40.629
v -7.101 1.134 35.907
v -3.250 5.034 24.711
v 10.481 5.034 29.433
v 6.630 5.034 40.629
v -7.101 5.034 35.907
f 984 983 982 981
f 977 978 982 981
f 978 979 983 982
f 979 980 984 983
f 980 977 981 984
v 10.257 0.969 28.166
v 15.277 0.969 29.361
v 14.103 0.969 34.294
v 9.083 0.969 33.099
v 10.257 4.869 28.166
v 15.277 4.869 29.361
v 14.103 4.869 34.294
v 9.083 4.869 33.099
f 992 991 990 989
f 985 986 990 989
f 986 987 991 990
f 987 988 992 991
f 988 985 989 992
v 12.210 0.944 37.461
v 13.645 0.944 33.291
v 17.390 0.944 34.579
v 15.955 0.944 38.749
v 12.210 4.844 37.461
v 13.645 4.844 33.291
v 17.390 4.844 34.579
v 15.955 4.844 38.749
f 1000 999 998 997
f 993 994 998 997
f 994 995 999 998
f 995 996 1000 999
f 996 993 997 1000
v -103.140 1.132 56.452
v -92.889 1.132 69.749
v -106.740 1.132 80.428
v -116.991 1.132 67.131
v -103.140 5.032 56.452
v -92.889 5.032 69.749
v -106.740 5.032 80.428
v -116.991 5.032 67.131
f 1008 1007 1006 1005
f 1001 1002 1006 1005
f 1002 1003 1007 1006
f 1003 1004 1008 1007
f 1004 1001 1005 1008
v -100.946 1.105 60.383
v -84.900 1.105 52.160
v -76.394 1.105 68.757
v -92.440 1.105 76.980
v -100.946 5.005 60.383
v -84.900 5.005 52.160
v -76.394 5.005 68.757
v -92.440 5.005 76.980
f 1016 1015 1014 1013
f 1009 1010 1014 1013
f 1010 1011 1015 1014
f 1011 1012 1016 1015
f 1012 1009 1013 1016
v -69.423 1.120 47.396
v -57.906 1.120 59.029
v -67.677 1.120 68.704
v -79.194 1.120 57.071
v -69.423 5.020 47.396
v -57.906 5.020 59.029
v -67.677 5.020 68.704
v -79.194 5.020 57.071
f 1024 1023 1022 1021
f 1017 1018 1022 1021
f 1018 1019 1023 1022
f 1019 1020 1024 1023
f 1020 1017 1021 1024
v -59.510 1.154 39.207
v -40.744 1.154 43.926
v -45.130 1.154 61.373
v -63.896 1.154 56.654
v -59.510 5.054 39.207
v -40.744 5.054 43.926
v -45.130 5.054 61.373
v -63.896 5.054 56.654
f 1032 1031 1030 1029
f 1025 1026 1030 1029
f 1026 1027 1031 1030
f 1027 1028 1032 1031
f 1028 1025 1029 1032
v 226.920 0.314 -225.180
v 239.210 0.314 -237.184
v 243.940 0.314 -232.340
v 231.650 0.314 -220.336
v 226.920 4.214 -225.180
v 239.210 4.214 -237.184
v 243.940 4.214 -232.340
v 231.650 4.214 -220.336
f 1040 1039 1038 1037
f 1033 1034 1038 1037
f 1034 1035 1039 1038
f 1035 1036 1040 1039
f 1036 1033 1037 1040
v 241.881 0.376 -224.644
v 244.247 0.376 -225.985
v 245.579 0.376 -223.636
v 243.213 0.376 -222.295
v 241.881 4.276 -224.644
v 244.247 4.276 -225.985
v 245.579 4.276 -223.636
v 243.213 4.276 -222.295
f 1048 1047 1046 1045
f 1041 1042 1046 1045
f 1042 1043 1047 1046
f 1043 1044 1048 1047
f 1044 1041 1045 1048
v 236.641 0.368 -227.306
v 251.633 0.368 -239.885
v 254.159 0.368 -236.874
v 239.167 0.368 -224.295
v 236.641 4.268 -227.306
v 251.633 4.268 -239.885
v 254.159 4.268 -236.874
v 239.167 4.268 -224.295
f 1056 1055 1054 1053
f 1049 1050 1054 1053
f 1050 1051 1055 1054
f 1051 1052 1056 1055
f 1052 1049 1053 1056
v 242.572 0.262 -223.557
v 254.286 0.262 -209.277
v 248.588 0.262 -204.603
v 236.874 0.262 -218.883
v 242.572 4.162 -223.557
v 254.286 4.162 -209.277
v 248.588 4.162 -204.603
v 236.874 4.162 -218.883
f 1064 1063 1062 1061
f 1057 1058 1062 1061
f 1058 1059 1063 1062
f 1059 1060 1064 1063
f 1060 1057 1061 1064
v 246.146 0.350 -214.835
v 257.298 0.350 -196.887
v 254.334 0.350 -195.045
v 243.182 0.350 -212.993
v 246.146 4.250 -214.835
v 257.298 4.250 -196.887
v 254.334 4.250 -195.045
v 243.182 4.250 -212.993
f 1072 1071 1070 1069
f 1065 1066 1070 1069
f 1066 1067 1071 1070
f 1067 1068 1072 1071
f 1068 1065 1069 1072
v 249.916 0.309 -203.256
v 259.963 0.309 -187.141
v 256.984 0.309 -185.284
v 246.937 0.309 -201.399
v 249.916 4.209 -203.256
v 259.963 4.209 -187.141
v 256.984 4.209 -185.284
v 246.937 4.209 -201.399
f 1080 1079 1078 1077
f 1073 1074 1078 1077
f 1074 1075 1079 1078
f 1075 1076 1080 1079
f 1076 1073 1077 1080
v 252.969 0.315 -193.722
v 264.402 0.315 -178.584
v 258.991 0.315 -174.498
v 247.558 0.315 -189.636
v 252.969 4.215 -193.722
v 264.402 4.215 -178.584
v 258.991 4.215 -174.498
v 247.558 4.215 -189.636
f 1088 1087 1086 1085
f 1081 1082 1086 1085
f 1082 1083 1087 1086
f 1083 1084 1088 1087
f 1084 1081 1085 1088
v -252.519 0.726 80.532
v -243.230 0.726 65.831
v -230.701 0.726 73.748
v -239.990 0.726 88.449
v -252.519 4.626 80.532
v -243.230 4.626 65.831
v -230.701 4.626 73.748
v -239.990 4.626 88.449
f 1096 1095 1094 1093
f 1089 1090 1094 1093
f 1090 1091 1095 1094
f 1091 1092 1096 1095
f 1092 1089 1093 1096
v -238.574 0.812 103.331
v -231.862 0.812 130.195
v -248.646 0.812 134.389
v -255.358 0.812 107.525
v -238.574 4.712 103.331
v -231.862 4.712 130.195
v -248.646 4.712 134.389
v -255.358 4.712 107.525
f 1104 1103 1102 1101
f 1097 1098 1102 1101
f 1098 1099 1103 1102
f 1099 1100 1104 1103
f 1100 1097 1101 1104
v -232.985 0.937 106.345
v -221.310 0.937 110.949
v -225.595 0.937 121.815
v -237.270 0.937 117.211
v -232.985 4.837 106.345
v -221.310 4.837 110.949
v -225.595 4.837 121.815
v -237.270 4.837 117.211
f 1112 1111 1110 1109
f 1105 1106 1110 1109
f 1106 1107 1111 1110
f 1107 1108 1112 1111
f 1108 1105 1109 1112
v -215.820 1.126 96.288
v -198.166 1.126 101.819
v -202.720 1.126 116.352
v -220.374 1.126 110.821
v -215.820 5.026 96.288
v -198.166 5.026 101.819
v -202.720 5.026 116.352
v -220.374 5.026 110.821
f 1120 1119 1118 1117
f 1113 1114 1118 1117
f 1114 1115 1119 1118
f 1115 1116 1120 1119
f 1116 1113 1117 1120
v -233.215 0.882 77.315
v -225.011 0.882 59.978
v -210.965 0.882 66.625
v -219.169 0.882 83.962
v -233.215 4.782 77.315
v -225.011 4.782 59.978
v -210.965 4.782 66.625
v -219.169 4.782 83.962
f 1128 1127 1126 1125
f 1121 1122 1126 1125
f 1122 1123 1127 1126
f 1123 1124 1128 1127
f 1124 1121 1125 1128
v 75.500 0.497 251.719
v 82.796 0.497 254.590
v 81.060 0.497 259.001
v 73.764 0.497 256.130
v 75.500 4.397 251.719
v 82.796 4.397 254.590
v 81.060 4.397 259.001
v 73.764 4.397 256.130
f 1136 1135 1134 1133
f 1129 1130 1134 1133
f 1130 1131 1135 1134
f 1131 1132 1136 1135
f 1132 1129 1133 1136
v 110.232 0.476 259.307
v 114.296 0.476 245.879
v 126.768 0.476 249.653
v 122.704 0.476 263.081
v 110.232 4.376 259.307
v 114.296 4.376 245.879
v 126.768 4.376 249.653
v 122.704 4.376 263.081
f 1144 1143 1142 1141
f 1137 1138 1142 1141
f 1138 1139 1143 1142
f 1139 1140 1144 1143
f 1140 1137 1141 1144
v 127.682 0.542 238.116
v 144.964 0.542 240.536
v 142.638 0.542 257.144
v 125.356 0.542 254.724
v 127.682 4.442 238.116
v 144.964 4.442 240.536
v 142.638 4.442 257.144
v 125.356 4.442 254.724
f 1152 1151 1150 1149
f 1145 1146 1150 1149
f 1146 1147 1151 1150
f 1147 1148 1152 1151
f 1148 1145 1149 1152
v 128.322 0.618 236.389
v 131.762 0.618 237.549
v 130.858 0.618 240.231
v 127.418 0.618 239.071
v 128.322 4.518 236.389
v 131.762 4.518 237.549
v 130.858 4.518 240.231
v 127.418 4.518 239.071
f 1160 1159 1158 1157
f 1153 1154 1158 1157
f 1154 1155 1159 1158
f 1155 1156 1160 1159
f 1156 1153 1157 1160
v 141.439 0.470 253.421
v 142.164 0.470 233.244
v 161.501 0.470 233.939
v 160.776 0.470 254.116
v 141.439 4.370 253.421
v 142.164 4.370 233.244
v 161.501 4.370 233.939
v 160.776 4.370 254.116
f 1168 1167 1166 1165
f 1161 1162 1166 1165
f 1162 1163 1167 1166
f 1163 1164 1168 1167
f 1164 1161 1165 1168
v 166.179 0.401 243.679
v 167.108 0.401 225.343
v 179.701 0.401 225.981
v 178.772 0.401 244.317
v 166.179 4.301 243.679
v 167.108 4.301 225.343
v 179.701 4.301 225.981
v 178.772 4.301 244.317
f 1176 1175 1174 1173
f 1169 1170 1174 1173
f 1170 1171 1175 1174
f 1171 1172 1176 1175
f 1172 1169 1173 1176
v 135.769 0.455 204.168
v 149.431 0.455 207.085
v 147.511 0.455 216.072
v 133.849 0.455 213.155
v 135.769 4.355 204.168
v 149.431 4.355 207.085
v 147.511 4.355 216.072
v 133.849 4.355 213.155
f 1184 1183 1182 1181
f 1177 1178 1182 1181
f 1178 1179 1183 1182
f 1179 1180 1184 1183
f 1180 1177 1181 1184
v 117.390 0.490 221.173
v 121.629 0.490 207.893
v 133.890 0.490 211.807
v 129.651 0.490 225.087
v 117.390 4.390 221.173
v 121.629 4.390 207.893
v 133.890 4.390 211.807
v 129.651 4.390 225.087
f 1192 1191 1190 1189
f 1185 1186 1190 1189
f 1186 1187 1191 1190
f 1187 1188 1192 1191
f 1188 1185 1189 1192
v 95.875 0.528 229.399
v 104.820 0.528 212.648
v 120.125 0.528 220.821
v 111.180 0.528 237.572
v 95.875 4.428 229.399
v 104.820 4.428 212.648
v 120.125 4.428 220.821
v 111.180 4.428 237.572
f 1200 1199 1198 1197
f 1193 1194 1198 1197
f 1194 1195 1199 1198
f 1195 1196 1200 1199
f 1196 1193 1197 1200
v 116.769 0.449 230.084
v 120.893 0.449 231.675
v 119.611 0.449 234.996
v 115.487 0.449 233.405
v 116.769 4.349 230.084
v 120.893 4.349 231.675
v 119.611 4.349 234.996
v 115.487 4.349 233.405
f 1208 1207 1206 1205
f 1201 1202 1206 1205
f 1202 1203 1207 1206
f 1203 1204 1208 1207
f 1204 1201 1205 1208
v 77.316 0.603 230.553
v 89.923 0.603 213.984
v 102.544 0.603 223.587
v 89.937 0.603 240.156
v 77.316 4.503 230.553
v 89.923 4.503 213.984
v 102.544 4.503 223.587
v 89.937 4.503 240.156
f 1216 1215 1214 1213
f 1209 1210 1214 1213
f 1210 1211 1215 1214
f 1211 1212 1216 1215
f 1212 1209 1213 1216
v 61.699 0.549 243.395
v 74.642 0.549 223.433
v 88.881 0.549 232.665
v 75.938 0.549 252.627
v 61.699 4.449 243.395
v 74.642 4.449 223.433
v 88.881 4.449 232.665
v 75.938 4.449 252.627
f 1224 1223 1222 1221
f 1217 1218 1222 1221
f 1218 1219 1223 1222
f 1219 1220 1224 1223
f 1220 1217 1221 1224
v 47.617 0.579 251.634
v 48.745 0.579 233.499
v 65.263 0.579 234.526
v 64.135 0.579 252.661
v 47.617 4.479 251.634
v 48.745 4.479 233.499
v 65.263 4.479 234.526
v 64.135 4.479 252.661
f 1232 1231 1230 1229
f 1225 1226 1230 1229
f 1226 1227 1231 1230
f 1227 1228 1232 1231
f 1228 1225 1229 1232
v 28.985 0.551 254.917
v 35.820 0.551 235.431
v 48.455 0.551 239.863
v 41.620 0.551 259.349
v 28.985 4.451 254.917
v 35.820 4.451 235.431
v 48.455 4.451 239.863
v 41.620 4.451 259.349
f 1240 1239 1238 1237
f 1233 1234 1238 1237
f 1234 1235 1239 1238
f 1235 1236 1240 1239
f 1236 1233 1237 1240
v -214.102 0.490 250.771
v -209.092 0.490 252.589
v -210.398 0.490 256.189
v -215.408 0.490 254.371
v -214.102 4.390 250.771
v -209.092 4.390 252.589
v -210.398 4.390 256.189
v -215.408 4.390 254.371
f 1248 1247 1246 1245
f 1241 1242 1246 1245
f 1242 1243 1247 1246
f 1243 1244 1248 1247
f 1244 1241 1245 1248
v -195.254 0.278 254.535
v -193.881 0.278 250.333
v -189.926 0.278 251.625
v -191.299 0.278 255.827
v -195.254 4.178 254.535
v -193.881 4.178 250.333
v -189.926 4.178 251.625
v -191.299 4.178 255.827
f 1256 1255 1254 1253
f 1249 1250 1254 1253
f 1250 1251 1255 1254
f 1251 1252 1256 1255
f 1252 1249 1253 1256
v -202.129 0.368 232.551
v -189.296 0.368 216.169
v -174.591 0.368 227.689
v -187.424 0.368 244.071
v -202.129 4.268 232.551
v -189.296 4.268 216.169
v -174.591 4.268 227.689
v -187.424 4.268 244.071
f 1264 1263 1262 1261
f 1257 1258 1262 1261
f 1258 1259 1263 1262
f 1259 1260 1264 1263
f 1260 1257 1261 1264
v -138.331 0.462 237.046
v -136.102 0.462 231.068
v -131.689 0.462 232.714
v -133.918 0.462 238.692
v -138.331 4.362 237.046
v -136.102 4.362 231.068
v -131.689 4.362 232.714
v -133.918 4.362 238.692
f 1272 1271 1270 1269
f 1265 1266 1270 1269
f 1266 1267 1271 1270
f 1267 1268 1272 1271
f 1268 1265 1269 1272
v -88.196 0.422 202.550
v -83.754 0.422 197.401
v -78.644 0.422 201.810
v -83.086 0.422 206.959
v -88.196 4.322 202.550
v -83.754 4.322 197.401
v -78.644 4.322 201.810
v -83.086 4.322 206.959
f 1280 1279 1278 1277
f 1273 1274 1278 1277
f 1274 1275 1279 1278
f 1275 1276 1280 1279
f 1276 1273 1277 1280
v -78.825 0.357 211.481
v -75.302 0.357 212.765
v -76.415 0.357 215.819
v -79.938 0.357 214.535
v -78.825 4.257 211.481
v -75.302 4.257 212.765
v -76.415 4.257 215.819
v -79.938 4.257 214.535
f 1288 1287 1286 1285
f 1281 1282 1286 1285
f 1282 1283 1287 1286
f 1283 1284 1288 1287
f 1284 1281 1285 1288
v -72.860 0.268 212.186
v -71.465 0.268 208.856
v -68.320 0.268 210.174
v -69.715 0.268 213.504
v -72.860 4.168 212.186
v -71.465 4.168 208.856
v -68.320 4.168 210.174
v -69.715 4.168 213.504
f 1296 1295 1294 1293
f 1289 1290 1294 1293
f 1290 1291 1295 1294
f 1291 1292 1296 1295
f 1292 1289 1293 1296
v -20.067 0.702 117.587
v -10.991 0.702 137.254
v -28.933 0.702 145.533
v -38.009 0.702 125.866
v -20.067 4.602 117.587
v -10.991 4.602 137.254
v -28.933 4.602 145.533
v -38.009 4.602 125.866
f 1304 1303 1302 1301
f 1297 1298 1302 1301
f 1298 1299 1303 1302
f 1299 1300 1304 1303
f 1300 1297 1301 1304
v -39.168 0.587 143.144
v -36.819 0.587 136.593
v -31.792 0.587 138.396
v -34.141 0.587 144.947
v -39.168 4.487 143.144
v -36.819 4.487 136.593
v -31.792 4.487 138.396
v -34.141 4.487 144.947
f 1312 1311 1310 1309
f 1305 1306 1310 1309
f 1306 1307 1311 1310
f 1307 1308 1312 1311
f 1308 1305 1309 1312
v -54.853 0.679 138.331
v -53.636 0.679 116.885
v -34.547 0.679 117.969
v -35.764 0.679 139.415
v -54.853 4.579 138.331
v -53.636 4.579 116.885
v -34.547 4.579 117.969
v -35.764 4.579 139.415
f 1320 1319 1318 1317
f 1313 1314 1318 1317
f 1314 1315 1319 1318
f 1315 1316 1320 1319
f 1316 1313 1317 1320
v -46.426 0.880 107.046
v -38.230 0.880 84.287
v -24.494 0.880 89.234
v -32.690 0.880 111.993
v -46.426 4.780 107.046
v -38.230 4.780 84.287
v -24.494 4.780 89.234
v -32.690 4.780 111.993
f 1328 1327 1326 1325
f 1321 1322 1326 1325
f 1322 1323 1327 1326
f 1323 1324 1328 1327
f 1324 1321 1325 1328
v -71.625 0.844 153.046
v -69.539 0.844 129.378
v -52.335 0.844 130.894
v -54.421 0.844 154.562
v -71.625 4.744 153.046
v -69.539 4.744 129.378
v -52.335 4.744 130.894
v -54.421 4.744 154.562
f 1336 1335 1334 1333
f 1329 1330 1334 1333
f 1330 1331 1335 1334
f 1331 1332 1336 1335
f 1332 1329 1333 1336
v -257.997 0.905 179.167
v -251.890 0.905 180.977
v -253.643 0.905 186.893
v -259.750 0.905 185.083
v -257.997 4.805 179.167
v -251.890 4.805 180.977
v -253.643 4.805 186.893
v -259.750 4.805 185.083
f 1344 1343 1342 1341
f 1337 1338 1342 1341
f 1338 1339 1343 1342
f 1339 1340 1344 1343
f 1340 1337 1341 1344
v -232.266 0.594 184.084
v -230.620 0.594 179.917
v -228.294 0.594 180.836
v -229.940 0.594 185.003
v -232.266 4.494 184.084
v -230.620 4.494 179.917
v -228.294 4.494 180.836
v -229.940 4.494 185.003
f 1352 1351 1350 1349
f 1345 1346 1350 1349
f 1346 1347 1351 1350
f 1347 1348 1352 1351
f 1348 1345 1349 1352
v -236.597 0.543 184.670
v -235.190 0.543 180.894
v -232.463 0.543 181.910
v -233.870 0.543 185.686
v -236.597 4.443 184.670
v -235.190 4.443 180.894
v -232.463 4.443 181.910
v -233.870 4.443 185.686
f 1360 1359 1358 1357
f 1353 1354 1358 1357
f 1354 1355 1359 1358
f 1355 1356 1360 1359
f 1356 1353 1357 1360
v -201.440 0.805 170.009
v -196.830 0.805 171.867
v -198.460 0.805 175.911
v -203.070 0.805 174.053
v -201.440 4.705 170.009
v -196.830 4.705 171.867
v -198.460 4.705 175.911
v -203.070 4.705 174.053
f 1368 1367 1366 1365
f 1361 1362 1366 1365
f 1362 1363 1367 1366
f 1363 1364 1368 1367
f 1364 1361 1365 1368
v -210.545 1.140 157.563
v -205.298 1.140 159.244
v -206.815 1.140 163.977
v -212.062 1.140 162.296
v -210.545 5.040 157.563
v -205.298 5.040 159.244
v -206.815 5.040 163.977
v -212.062 5.040 162.296
f 1376 1375 1374 1373
f 1369 1370 1374 1373
f 1370 1371 1375 1374
f 1371 1372 1376 1375
f 1372 1369 1373 1376
v -198.223 0.814 157.550
v -186.290 0.814 161.594
v -188.017 0.814 166.690
v -199.950 0.814 162.646
v -198.223 4.714 157.550
v -186.290 4.714 161.594
v -188.017 4.714 166.690
v -199.950 4.714 162.646
f 1384 1383 1382 1381
f 1377 1378 1382 1381
f 1378 1379 1383 1382
f 1379 1380 1384 1383
f 1380 1377 1381 1384
v -134.605 1.350 118.820
v -130.175 1.350 137.481
v -148.535 1.350 141.840
v -152.965 1.350 123.179
v -134.605 5.250 118.820
v -130.175 5.250 137.481
v -148.535 5.250 141.840
v -152.965 5.250 123.179
f 1392 1391 1390 1389
f 1385 1386 1390 1389
f 1386 1387 1391 1390
f 1387 1388 1392 1391
f 1388 1385 1389 1392
v -155.892 0.643 165.786
v -140.975 0.643 163.026
v -138.228 0.643 177.874
v -153.145 0.643 180.634
v -155.892 4.543 165.786
v -140.975 4.543 163.026
v -138.228 4.543 177.874
v -153.145 4.543 180.634
f 1400 1399 1398 1397
f 1393 1394 1398 1397
f 1394 1395 1399 1398
f 1395 1396 1400 1399
f 1396 1393 1397 1400
v -143.570 0.863 161.357
v -131.145 0.863 149.814
v -118.390 0.863 163.543
v -130.815 0.863 175.086
v -143.570 4.763 161.357
v -131.145 4.763 149.814
v -118.390 4.763 163.543
v -130.815 4.763 175.086
f 1408 1407 1406 1405
f 1401 1402 1406 1405
f 1402 1403 1407 1406
f 1403 1404 1408 1407
f 1404 1401 1405 1408
v -140.897 1.001 147.178
v -134.033 1.001 149.482
v -135.623 1.001 154.222
v -142.487 1.001 151.918
v -140.897 4.901 147.178
v -134.033 4.901 149.482
v -135.623 4.901 154.222
v -142.487 4.901 151.918
f 1416 1415 1414 1413
f 1409 1410 1414 1413
f 1410 1411 1415 1414
f 1411 1412 1416 1415
f 1412 1409 1413 1416
v -123.781 0.816 167.197
v -118.741 0.816 142.721
v -103.579 0.816 145.843
v -108.619 0.816 170.319
v -123.781 4.716 167.197
v -118.741 4.716 142.721
v -103.579 4.716 145.843
v -108.619 4.716 170.319
f 1424 1423 1422 1421
f 1417 1418 1422 1421
f 1418 1419 1423 1422
f 1419 1420 1424 1423
f 1420 1417 1421 1424
v -107.022 1.271 155.634
v -98.874 1.271 140.793
v -85.918 1.271 147.906
v -94.066 1.271 162.747
v -107.022 5.171 155.634
v -98.874 5.171 140.793
v -85.918 5.171 147.906
v -94.066 5.171 162.747
f 1432 1431 1430 1429
f 1425 1426 1430 1429
f 1426 1427 1431 1430
f 1427 1428 1432 1431
f 1428 1425 1429 1432
v -89.051 0.762 156.155
v -84.460 0.762 134.087
v -69.569 0.762 137.185
v -74.160 0.762 159.253
v -89.051 4.662 156.155
v -84.460 4.662 134.087
v -69.569 4.662 137.185
v -74.160 4.662 159.253
f 1440 1439 1438 1437
f 1433 1434 1438 1437
f 1434 1435 1439 1438
f 1435 1436 1440 1439
f 1436 1433 1437 1440
v -94.607 1.077 128.077
v -92.099 1.077 121.467
v -86.153 1.077 123.723
v -88.661 1.077 130.333
v -94.607 4.977 128.077
v -92.099 4.977 121.467
v -86.153 4.977 123.723
v -88.661 4.977 130.333
f 1448 1447 1446 1445
f 1441 1442 1446 1445
f 1442 1443 1447 1446
f 1443 1444 1448 1447
f 1444 1441 1445 1448
usemtl road
v -27.059 1.395 64.698
v -186.109 1.357 119.018
v -184.331 1.340 124.222
v -25.281 1.377 69.902
f 1449 1450 1451 1452
v -107.550 0.661 -163.452
v -256.860 0.559 -114.310
v -255.140 0.585 -109.085
v -105.830 0.661 -158.228
f 1453 1454 1455 1456
v -253.174 0.602 -67.320
v -238.724 0.631 -27.600
v -233.556 0.639 -29.480
v -248.006 0.639 -69.200
f 1457 1458 1459 1460
v -238.741 0.631 -27.648
v -212.611 0.989 48.572
v -207.409 0.952 46.788
v -233.539 0.638 -29.432
f 1461 1462 1463 1464
v -212.617 0.989 48.554
v -187.827 1.361 122.494
v -182.613 1.336 120.746
v -207.403 0.952 46.806
f 1465 1466 1467 1468
v -187.821 1.361 122.512
v -161.671 0.762 198.742
v -156.469 0.792 196.958
v -182.619 1.336 120.728
f 1469 1470 1471 1472
v -161.641 0.761 198.826
v -139.578 0.425 256.976
v -134.436 0.468 255.024
v -156.499 0.793 196.874
f 1473 1474 1475 1476
v -53.928 0.986 -9.169
v -210.908 0.987 45.081
v -209.112 0.993 50.279
v -52.132 1.002 -3.971
f 1477 1478 1479 1480
v -27.011 1.343 56.225
v -50.211 0.980 -7.595
v -55.849 0.990 -5.545
v -32.649 1.341 58.275
f 1481 1482 1483 1484
v -50.195 0.980 -7.552
v -77.245 0.678 -85.602
v -82.915 0.641 -83.638
v -55.865 0.990 -5.588
f 1485 1486 1487 1488
v -77.248 0.678 -85.609
v -89.208 0.615 -119.849
v -94.872 0.628 -117.871
v -82.912 0.641 -83.631
f 1489 1490 1491 1492
v -89.208 0.615 -119.848
v -96.798 0.645 -141.598
v -102.462 0.632 -139.622
v -94.872 0.628 -117.872
f 1493 1494 1495 1496
v -96.798 0.645 -141.598
v -103.858 0.608 -161.828
v -109.522 0.644 -159.852
v -102.462 0.632 -139.622
f 1497 1498 1499 1500
v -103.828 0.608 -161.738
v -111.018 0.614 -184.658
v -116.742 0.608 -182.862
v -109.552 0.644 -159.942
f 1501 1502 1503 1504
v -111.018 0.614 -184.659
v -117.658 0.545 -205.799
v -123.382 0.507 -204.001
v -116.742 0.608 -182.861
f 1505 1506 1507 1508
v -235.210 0.656 -25.952
v -79.150 0.684 -82.032
v -81.010 0.677 -87.208
v -237.070 0.664 -31.128
f 1509 1510 1511 1512
v 48.677 0.869 126.538
v 21.987 1.077 52.448
v 16.813 1.125 54.312
v 43.503 0.800 128.402
f 1513 1514 1515 1516
v -255.122 0.726 233.103
v -158.192 0.759 200.456
v -159.948 0.820 195.244
v -256.878 0.723 227.891
f 1517 1518 1519 1520
v -158.184 0.759 200.453
v 2.456 0.779 145.773
v 0.684 0.847 140.567
v -159.956 0.820 195.247
f 1521 1522 1523 1524
v 47.007 0.869 130.063
v 90.147 0.833 114.813
v 88.313 0.929 109.627
v 45.173 0.799 124.877
f 1525 1526 1527 1528
v -53.532 0.574 260.249
v 31.911 0.557 230.479
v 28.949 0.718 221.981
v -56.493 0.808 251.751
f 1529 1530 1531 1532
v 31.901 0.557 230.483
v 104.001 0.663 205.553
v 101.059 0.860 197.047
v 28.959 0.718 221.977
f 1533 1534 1535 1536
v 104.091 0.664 205.521
v 133.781 0.618 194.541
v 130.659 0.795 186.099
v 100.969 0.860 197.079
f 1537 1538 1539 1540
v 134.084 0.618 194.416
v 164.524 0.562 180.566
v 160.796 0.716 172.374
v 130.356 0.797 186.224
f 1541 1542 1543 1544
v 164.339 0.563 180.645
v 171.129 0.525 177.915
v 167.771 0.709 169.565
v 160.981 0.714 172.295
f 1545 1546 1547 1548
v 171.129 0.525 177.915
v 189.479 0.448 170.535
v 186.121 0.700 162.185
v 167.771 0.709 169.565
f 1549 1550 1551 1552
v 223.606 0.441 238.416
v 214.046 0.463 241.736
v 216.014 0.386 247.404
v 225.574 0.436 244.084
f 1553 1554 1555 1556
v 212.601 0.722 -235.609
v 252.691 0.732 -119.385
v 259.309 0.678 -121.668
v 219.219 0.666 -237.891
f 1557 1558 1559 1560
v 251.865 0.571 -250.856
v 222.245 0.743 -240.756
v 223.375 0.753 -237.444
v 252.995 0.629 -247.544
f 1561 1562 1563 1564
v 222.246 0.743 -240.757
v 215.346 0.740 -238.407
v 216.474 0.728 -235.093
v 223.374 0.753 -237.443
f 1565 1566 1567 1568
v 24.595 0.705 -254.054
v 37.174 0.816 -217.374
v 48.526 0.825 -221.266
v 35.946 0.764 -257.946
f 1569 1570 1571 1572
v 37.174 0.816 -217.374
v 40.754 0.842 -206.934
v 52.106 0.856 -210.826
v 48.526 0.825 -221.266
f 1573 1574 1575 1576
v 40.755 0.842 -206.933
v 49.025 0.811 -182.823
v 60.375 0.796 -186.717
v 52.105 0.856 -210.827
f 1577 1578 1579 1580
v 49.025 0.811 -182.823
v 51.255 0.780 -176.323
v 62.605 0.771 -180.217
v 60.375 0.796 -186.717
f 1581 1582 1583 1584
v 51.255 0.780 -176.321
v 54.875 0.737 -165.781
v 66.225 0.736 -169.679
v 62.605 0.771 -180.219
f 1585 1586 1587 1588
v 54.875 0.737 -165.783
v 59.855 0.699 -151.263
v 71.205 0.712 -155.157
v 66.225 0.736 -169.677
f 1589 1590 1591 1592
v 59.855 0.699 -151.263
v 99.025 0.716 -37.113
v 110.375 0.730 -41.007
v 71.205 0.712 -155.157
f 1593 1594 1595 1596
v 104.322 0.866 -40.769
v 96.322 0.699 -38.999
v 97.078 0.745 -35.581
v 105.078 0.884 -37.351
f 1597 1598 1599 1600
v 96.321 0.699 -38.998
v 92.221 0.703 -38.088
v 92.979 0.766 -34.672
v 97.079 0.745 -35.582
f 1601 1602 1603 1604
v 92.609 0.700 -38.130
v 86.489 0.753 -38.160
v 86.471 0.823 -34.660
v 92.591 0.770 -34.630
f 1605 1606 1607 1608
v 86.564 0.752 -38.158
v 80.514 0.799 -38.448
v 80.346 0.901 -34.952
v 86.396 0.824 -34.662
f 1609 1610 1611 1612
v 80.514 0.799 -38.448
v 70.494 0.856 -38.928
v 70.326 0.911 -35.432
v 80.346 0.901 -34.952
f 1613 1614 1615 1616
v 184.494 0.602 167.510
v 190.274 0.365 184.120
v 196.886 0.366 181.820
v 191.106 0.587 165.210
f 1617 1618 1619 1620
v 190.275 0.365 184.121
v 211.725 0.465 245.721
v 218.335 0.466 243.419
v 196.885 0.366 181.819
f 1621 1622 1623 1624
v -66.904 0.500 -257.434
v -121.213 0.657 -219.444
v -119.207 0.661 -216.576
v -64.898 0.526 -254.566
f 1625 1626 1627 1628
v -121.802 0.651 -218.737
v -123.632 0.639 -214.727
v -120.448 0.599 -213.273
v -118.618 0.682 -217.283
f 1629 1630 1631 1632
v -123.766 0.625 -213.711
v -122.916 0.537 -208.631
v -119.464 0.546 -209.209
v -120.314 0.620 -214.289
f 1633 1634 1635 1636
v -122.916 0.537 -208.632
v -122.246 0.514 -204.612
v -118.794 0.541 -205.188
v -119.464 0.545 -209.208
f 1637 1638 1639 1640
v 70.688 0.853 -38.908
v 60.498 0.986 -40.548
v 59.942 0.957 -37.092
v 70.132 0.907 -35.452
f 1641 1642 1643 1644
v 60.676 0.984 -40.510
v 42.806 1.161 -45.330
v 41.894 1.185 -41.950
v 59.764 0.958 -37.130
f 1645 1646 1647 1648
v 42.411 1.166 -45.389
v 34.701 1.281 -45.659
v 34.579 1.278 -42.161
v 42.289 1.178 -41.891
f 1649 1650 1651 1652
v 34.400 1.285 -45.644
v 25.210 1.383 -44.374
v 25.690 1.349 -40.906
v 34.880 1.275 -42.176
f 1653 1654 1655 1656
v 24.878 1.385 -44.294
v 2.998 1.280 -36.734
v 4.142 1.216 -33.426
v 26.022 1.350 -40.986
f 1657 1658 1659 1660
v 2.555 1.275 -36.505
v -4.045 1.172 -31.805
v -2.015 1.136 -28.955
v 4.585 1.224 -33.655
f 1661 1662 1663 1664
v -4.624 1.156 -31.102
v -7.374 1.058 -25.032
v -4.186 1.048 -23.588
v -1.436 1.155 -29.658
f 1665 1666 1667 1668
v -7.530 1.047 -24.321
v -7.560 0.994 -19.601
v -4.060 0.983 -19.579
v -4.030 1.064 -24.299
f 1669 1670 1671 1672
v -7.469 0.986 -19.032
v -3.899 0.925 -8.422
v -0.581 0.857 -9.538
v -4.151 0.993 -20.148
f 1673 1674 1675 1676
v -3.602 0.928 -7.881
v -0.672 0.895 -4.251
v 2.052 0.828 -6.449
v -0.878 0.863 -10.079
f 1677 1678 1679 1680
v -0.026 0.880 -3.753
v 4.034 0.837 -1.933
v 5.466 0.817 -5.127
v 1.406 0.826 -6.947
f 1681 1682 1683 1684
v 4.532 0.830 -1.794
v 10.182 0.815 -1.084
v 10.618 0.837 -4.556
v 4.968 0.820 -5.266
f 1685 1686 1687 1688
v 10.655 0.820 -1.089
v 16.555 0.920 -1.959
v 16.045 0.917 -5.421
v 10.145 0.830 -4.551
f 1689 1690 1691 1692
v 16.892 0.925 -2.043
v 54.572 1.350 -15.583
v 53.388 1.190 -18.877
v 15.708 0.914 -5.337
f 1693 1694 1695 1696
v 55.042 1.342 -15.839
v 59.142 1.199 -18.969
v 57.018 1.097 -21.751
v 52.918 1.200 -18.621
f 1697 1698 1699 1700
v 59.571 1.178 -19.444
v 66.191 1.009 -30.214
v 63.209 0.941 -32.046
v 56.589 1.109 -21.276
f 1701 1702 1703 1704
v 65.973 1.008 -29.929
v 71.683 0.893 -35.979
v 69.137 0.878 -38.381
v 63.427 0.938 -32.331
f 1705 1706 1707 1708
v 64.951 0.797 -154.861
v 57.051 0.687 -152.091
v 58.209 0.663 -148.789
v 66.109 0.791 -151.559
f 1709 1710 1711 1712
v 57.053 0.687 -152.092
v 44.603 1.071 -147.742
v 45.757 1.054 -144.438
v 58.207 0.663 -148.788
f 1713 1714 1715 1716
v 44.602 1.071 -147.742
v -39.168 1.007 -118.432
v -38.012 1.099 -115.128
v 45.758 1.054 -144.438
f 1717 1718 1719 1720
v -39.344 1.009 -118.359
v -47.174 1.143 -114.619
v -45.666 1.266 -111.461
v -37.836 1.098 -115.201
f 1721 1722 1723 1724
v -47.677 1.166 -114.258
v -52.027 1.288 -109.768
v -49.513 1.358 -107.332
v -45.163 1.256 -111.822
f 1725 1726 1727 1728
v -52.184 1.290 -109.581
v -63.704 1.092 -93.781
v -60.876 1.111 -91.719
v -49.356 1.355 -107.519
f 1729 1730 1731 1732
v -63.270 1.108 -94.200
v -66.880 0.974 -91.760
v -64.920 0.967 -88.860
v -61.310 1.094 -91.300
f 1733 1734 1735 1736
v -66.552 0.988 -91.934
v -73.032 0.741 -89.334
v -71.728 0.770 -86.086
v -65.248 0.963 -88.686
f 1737 1738 1739 1740
v -73.032 0.741 -89.334
v -80.732 0.678 -86.244
v -79.428 0.684 -82.996
v -71.728 0.770 -86.086
f 1741 1742 1743 1744
v 43.530 1.082 -145.507
v 66.280 1.050 -81.147
v 69.580 0.995 -82.313
v 46.830 1.030 -146.673
f 1745 1746 1747 1748
v 66.267 1.050 -81.185
v 76.737 0.875 -49.255
v 80.063 0.933 -50.345
v 69.593 0.995 -82.275
f 1749 1750 1751 1752
v 76.671 0.878 -49.532
v 78.701 0.849 -36.432
v 82.159 0.806 -36.968
v 80.129 0.929 -50.068
f 1753 1754 1755 1756
v 14.641 0.887 -3.132
v 28.401 1.395 37.788
v 31.719 1.419 36.672
v 17.959 0.933 -4.248
f 1757 1758 1759 1760
v 30.613 1.378 38.890
v 78.463 1.234 22.940
v 77.357 1.239 19.620
v 29.507 1.425 35.570
f 1761 1762 1763 1764
v 121.740 0.740 180.286
v 119.580 0.512 173.406
v 116.240 0.553 174.454
v 118.400 0.735 181.334
f 1765 1766 1767 1768
v 119.580 0.512 173.405
v 112.420 0.742 150.615
v 109.080 0.674 151.665
v 116.240 0.553 174.455
f 1769 1770 1771 1772
v 112.397 0.741 150.548
v 71.527 0.905 36.908
v 68.233 0.901 38.092
v 109.103 0.675 151.732
f 1773 1774 1775 1776
v 70.440 0.925 39.158
v 117.360 0.937 23.298
v 116.240 0.919 19.982
v 69.320 0.903 35.842
f 1777 1778 1779 1780
v 117.360 0.937 23.298
v 125.320 0.969 20.608
v 124.200 0.970 17.292
v 116.240 0.919 19.982
f 1781 1782 1783 1784
v 155.709 0.669 165.555
v 152.799 0.462 157.355
v 149.501 0.445 158.525
v 152.411 0.668 166.725
f 1785 1786 1787 1788
v 152.799 0.462 157.355
v 118.669 1.025 61.215
v 115.371 1.079 62.385
v 149.501 0.445 158.525
f 1789 1790 1791 1792
v 117.602 1.038 63.450
v 129.842 0.829 59.130
v 128.678 0.848 55.830
v 116.438 1.073 60.150
f 1793 1794 1795 1796
v 129.843 0.829 59.130
v 137.853 0.863 56.300
v 136.687 0.882 53.000
v 128.677 0.848 55.830
f 1797 1798 1799 1800
v 172.652 0.557 154.012
v 163.692 0.565 157.772
v 166.788 0.719 165.148
v 175.748 0.692 161.388
f 1801 1802 1803 1804
v 163.695 0.565 157.770
v 152.515 0.564 162.450
v 155.605 0.783 169.830
v 166.785 0.719 165.150
f 1805 1806 1807 1808
v 152.475 0.564 162.467
v 118.485 0.614 177.137
v 121.655 0.888 184.483
v 155.645 0.783 169.813
f 1809 1810 1811 1812
v 118.455 0.614 177.150
v 94.095 0.681 187.900
v 97.325 0.941 195.220
v 121.685 0.888 184.470
f 1813 1814 1815 1816
v 94.370 0.681 187.791
v 25.570 0.596 212.251
v 28.250 0.737 219.789
v 97.050 0.939 195.329
f 1817 1818 1819 1820
v 25.609 0.596 212.237
v -90.675 0.556 252.217
v -88.074 0.808 259.783
v 28.211 0.736 219.803
f 1821 1822 1823 1824
v -63.941 1.064 -92.170
v -39.351 0.970 -22.190
v -36.049 1.061 -23.350
v -60.639 1.154 -93.330
f 1825 1826 1827 1828
v -39.433 0.967 -22.525
v -39.053 0.995 -19.835
v -35.587 1.095 -20.325
v -35.967 1.069 -23.015
f 1829 1830 1831 1832
v -39.048 0.987 -20.356
v -39.478 1.029 -17.666
v -36.022 1.098 -17.114
v -35.592 1.096 -19.804
f 1833 1834 1835 1836
v -39.323 1.022 -18.157
v -40.513 1.040 -15.717
v -37.367 1.075 -14.183
v -36.177 1.096 -16.623
f 1837 1838 1839 1840
v -40.225 1.038 -16.138
v -42.075 1.040 -14.138
v -39.505 1.133 -11.762
v -37.655 1.073 -13.762
f 1841 1842 1843 1844
v -41.676 1.043 -14.459
v -44.026 1.020 -13.079
v -42.254 1.133 -10.061
v -39.904 1.159 -11.441
f 1845 1846 1847 1848
v -43.932 1.021 -13.130
v -46.552 0.989 -11.800
v -44.968 1.013 -8.680
v -42.348 1.130 -10.010
f 1849 1850 1851 1852
v -46.549 0.989 -11.802
v -53.819 0.987 -8.132
v -52.241 1.000 -5.008
v -44.971 1.013 -8.678
f 1853 1854 1855 1856
v 208.890 1.034 -51.066
v 181.930 1.640 -65.366
v 180.290 1.620 -62.274
v 207.250 0.979 -47.974
f 1857 1858 1859 1860
v 181.066 1.663 -65.569
v 178.696 1.703 -65.509
v 178.784 1.652 -62.011
v 181.154 1.600 -62.071
f 1861 1862 1863 1864
v 178.692 1.703 -65.509
v 172.862 1.809 -65.349
v 172.958 1.722 -61.851
v 178.788 1.652 -62.011
f 1865 1866 1867 1868
v 172.336 1.817 -65.253
v 141.206 1.821 -54.453
v 142.354 1.782 -51.147
v 173.484 1.726 -61.947
f 1869 1870 1871 1872
v 140.201 1.820 -53.554
v 138.491 1.805 -49.974
v 141.649 1.806 -48.466
v 143.359 1.784 -52.046
f 1873 1874 1875 1876
v 138.331 1.804 -49.414
v 137.891 1.784 -45.464
v 141.369 1.733 -45.076
v 141.809 1.807 -49.026
f 1877 1878 1879 1880
v 137.924 1.781 -44.882
v 138.804 1.731 -41.012
v 142.216 1.632 -41.788
v 141.336 1.756 -45.658
f 1881 1882 1883 1884
v 139.027 1.716 -40.471
v 141.137 1.621 -37.101
v 144.103 1.621 -38.959
v 141.993 1.629 -42.329
f 1885 1886 1887 1888
v 141.521 1.601 -36.668
v 144.621 1.487 -34.168
v 146.819 1.530 -36.892
v 143.719 1.625 -39.392
f 1889 1890 1891 1892
v 145.123 1.474 -33.885
v 148.873 1.400 -32.525
v 150.067 1.469 -35.815
v 146.317 1.542 -37.175
f 1893 1894 1895 1896
v 150.032 1.386 -32.513
v 183.052 1.299 -43.703
v 181.928 1.383 -47.017
v 148.908 1.476 -35.827
f 1897 1898 1899 1900
v 182.705 1.302 -43.623
v 190.475 1.236 -44.583
v 190.045 1.271 -48.057
v 182.275 1.379 -47.097
f 1901 1902 1903 1904
v 190.064 1.243 -44.581
v 197.854 1.037 -43.701
v 198.246 1.084 -47.179
v 190.456 1.264 -48.059
f 1905 1906 1907 1908
v 197.448 1.050 -43.797
v 204.788 0.931 -41.107
v 205.992 0.939 -44.393
v 198.652 1.069 -47.083
f 1909 1910 1911 1912
v 255.457 0.960 -68.265
v 210.367 1.087 -53.554
v 211.453 1.030 -50.226
v 256.543 0.965 -64.938
f 1913 1914 1915 1916
v 209.789 1.079 -53.234
v 206.949 1.013 -50.864
v 209.191 0.990 -48.176
v 212.031 1.037 -50.546
f 1917 1918 1919 1920
v 206.572 1.009 -50.425
v 204.662 0.952 -47.265
v 207.658 0.966 -45.455
v 209.568 1.000 -48.615
f 1921 1922 1923 1924
v 204.448 0.942 -46.725
v 203.678 0.921 -43.115
v 207.102 0.962 -42.385
v 207.872 0.969 -45.995
f 1925 1926 1927 1928
v 203.654 0.921 -42.532
v 204.114 0.934 -38.872
v 207.586 0.948 -39.308
v 207.126 0.969 -42.968
f 1929 1930 1931 1932
v 204.278 0.937 -38.321
v 205.898 0.901 -35.011
v 209.042 0.906 -36.549
v 207.422 0.951 -39.859
f 1933 1934 1935 1936
v 206.236 0.897 -34.539
v 208.106 0.881 -32.679
v 210.574 0.913 -35.161
v 208.704 0.910 -37.021
f 1937 1938 1939 1940
v 208.119 0.881 -32.666
v 208.879 0.880 -31.926
v 211.321 0.911 -34.434
v 210.561 0.913 -35.174
f 1941 1942 1943 1944
v 209.338 0.883 -31.604
v 212.668 0.921 -29.994
v 214.192 0.925 -33.146
v 210.862 0.908 -34.756
f 1945 1946 1947 1948
v 213.218 0.928 -29.833
v 216.908 0.963 -29.383
v 217.332 0.961 -32.857
v 213.642 0.921 -33.307
f 1949 1950 1951 1952
v 217.734 0.971 -29.481
v 256.614 1.037 -44.042
v 255.386 1.003 -47.319
v 216.506 0.951 -32.759
f 1953 1954 1955 1956
v 112.181 0.909 -21.049
v 118.141 0.834 -32.809
v 115.019 0.706 -34.391
v 109.059 0.891 -22.631
f 1957 1958 1959 1960
v 118.141 0.834 -32.809
v 124.061 1.253 -44.499
v 120.939 1.135 -46.081
v 115.019 0.706 -34.391
f 1961 1962 1963 1964
v 124.155 1.274 -45.858
v 109.085 1.526 -89.758
v 105.775 1.411 -88.622
v 120.845 1.110 -44.722
f 1965 1966 1967 1968
v 109.085 1.526 -89.758
v 81.555 1.194 -169.928
v 78.245 1.055 -168.792
v 105.775 1.411 -88.622
f 1969 1970 1971 1972
v 80.534 1.129 -170.991
v 67.434 0.793 -176.081
v 66.166 0.749 -172.819
v 79.266 1.088 -167.729
f 1973 1974 1975 1976
v 67.432 0.793 -176.082
v 57.562 0.854 -179.902
v 56.298 0.864 -176.638
v 66.168 0.749 -172.818
f 1977 1978 1979 1980
v -255.951 1.036 -163.287
v -243.381 0.913 -163.641
v -243.479 0.808 -167.139
v -256.049 1.026 -166.786
f 1981 1982 1983 1984
v -242.843 0.905 -163.741
v -228.633 0.844 -168.801
v -229.807 0.752 -172.099
v -244.017 0.821 -167.039
f 1985 1986 1987 1988
v -228.633 0.844 -168.801
v -120.603 0.526 -207.271
v -121.777 0.565 -210.569
v -229.807 0.752 -172.099
f 1989 1990 1991 1992
v -48.387 0.686 -255.457
v -41.324 0.620 -233.827
v -37.996 0.645 -234.913
v -45.060 0.914 -256.543
f 1993 1994 1995 1996
v -31.045 0.706 -237.217
v -34.575 0.582 -248.867
v -37.925 0.609 -247.853
v -34.395 0.680 -236.203
f 1997 1998 1999 2000
v -34.575 0.582 -248.868
v -36.895 0.770 -256.508
v -40.244 0.839 -255.492
v -37.925 0.609 -247.852
f 2001 2002 2003 2004
v -26.067 0.608 -253.342
v -36.767 0.625 -250.032
v -35.733 0.587 -246.688
v -25.033 0.621 -249.998
f 2005 2006 2007 2008
v 117.235 0.847 15.597
v 119.095 0.855 20.927
v 130.425 0.860 16.973
v 128.565 0.846 11.643
f 2009 2010 2011 2012
v 119.098 0.855 20.934
v 131.608 0.779 56.634
v 142.932 0.769 52.666
v 130.422 0.860 16.966
f 2013 2014 2015 2016
v 131.608 0.779 56.634
v 149.088 0.582 106.524
v 160.412 0.588 102.556
v 142.932 0.769 52.666
f 2017 2018 2019 2020
v 149.115 0.581 106.602
v 165.325 0.458 150.902
v 176.595 0.411 146.778
v 160.385 0.589 102.478
f 2021 2022 2023 2024
v 165.325 0.458 150.901
v 168.565 0.660 159.761
v 179.835 0.621 155.639
v 176.595 0.411 146.779
f 2025 2026 2027 2028
v 170.977 0.700 162.761
v 184.577 0.483 171.421
v 191.023 0.678 161.299
v 177.423 0.550 152.639
f 2029 2030 2031 2032
v 21.220 0.709 -256.778
v -33.280 0.636 -238.368
v -32.160 0.785 -235.052
v 22.340 0.736 -253.462
f 2033 2034 2035 2036
v -33.279 0.636 -238.368
v -40.219 0.621 -236.028
v -39.101 0.660 -232.712
v -32.161 0.785 -235.052
f 2037 2038 2039 2040
v -40.182 0.621 -236.040
v -43.732 0.596 -234.930
v -42.688 0.643 -231.590
v -39.138 0.660 -232.700
f 2041 2042 2043 2044
v -43.731 0.596 -234.931
v -59.281 0.582 -230.081
v -58.239 0.592 -226.739
v -42.689 0.643 -231.589
f 2045 2046 2047 2048
v -59.282 0.582 -230.080
v -121.712 0.565 -210.590
v -120.668 0.525 -207.250
v -58.238 0.592 -226.740
f 2049 2050 2051 2052
v -20.604 0.988 -172.486
v -41.554 0.619 -233.826
v -44.866 0.609 -232.694
v -23.916 0.940 -171.354
f 2053 2054 2055 2056
v -37.789 0.743 -167.001
v -57.089 0.585 -228.931
v -60.431 0.572 -227.889
v -41.131 0.721 -165.959
f 2057 2058 2059 2060
v 38.204 0.802 130.265
v 59.204 0.708 188.335
v 62.496 0.754 187.145
v 41.496 0.794 129.075
f 2061 2062 2063 2064
v 61.370 0.712 189.411
v 110.920 0.666 174.001
v 109.880 0.742 170.659
v 60.330 0.769 186.069
f 2065 2066 2067 2068
v 112.051 0.726 171.749
v 90.881 0.917 111.639
v 87.579 0.875 112.801
v 108.749 0.699 172.911
f 2069 2070 2071 2072
v 123.442 0.971 15.284
v 131.492 0.806 12.664
v 130.408 0.817 9.336
v 122.358 0.963 11.956
f 2073 2074 2075 2076
v 131.490 0.806 12.665
v 136.020 0.819 11.195
v 134.940 0.852 7.865
v 130.410 0.817 9.335
f 2077 2078 2079 2080
v 135.952 0.819 11.215
v 144.442 0.924 8.835
v 143.498 0.915 5.465
v 135.008 0.853 7.845
f 2081 2082 2083 2084
v 144.491 0.925 8.821
v 156.731 1.031 5.001
v 155.689 1.002 1.659
v 143.449 0.914 5.479
f 2085 2086 2087 2088
v 156.737 1.031 4.999
v 166.367 1.104 1.959
v 165.313 1.036 -1.379
v 155.683 1.002 1.661
f 2089 2090 2091 2092
v 166.476 1.101 1.920
v 177.916 1.027 -2.540
v 176.644 0.982 -5.800
v 165.204 1.036 -1.340
f 2093 2094 2095 2096
v 177.823 1.028 -2.507
v 187.373 1.027 -5.627
v 186.287 0.947 -8.953
v 176.737 0.982 -5.833
f 2097 2098 2099 2100
v 188.456 1.021 -6.642
v 189.776 0.901 -9.952
v 186.524 0.936 -11.248
v 185.204 0.966 -7.938
f 2101 2102 2103 2104
v 189.893 0.885 -10.752
v 189.433 1.051 -16.022
v 185.947 0.947 -15.718
v 186.407 0.939 -10.448
f 2105 2106 2107 2108
v 189.213 1.048 -16.733
v 187.513 0.937 -19.733
v 184.467 0.945 -18.007
v 186.167 0.946 -15.007
f 2109 2110 2111 2112
v 187.507 0.937 -19.743
v 186.057 0.903 -22.263
v 183.023 0.879 -20.517
v 184.473 0.945 -17.997
f 2113 2114 2115 2116
v 185.483 0.874 -22.864
v 183.043 0.805 -24.424
v 181.157 0.849 -21.476
v 183.597 0.898 -19.916
f 2117 2118 2119 2120
v 181.833 0.811 -24.679
v 178.533 0.839 -24.169
v 179.067 0.880 -20.711
v 182.367 0.856 -21.221
f 2121 2122 2123 2124
v 178.543 0.839 -24.171
v 174.103 0.900 -23.511
v 174.617 0.886 -20.049
v 179.057 0.880 -20.709
f 2125 2126 2127 2128
v 173.651 0.906 -23.380
v 166.051 0.976 -20.010
v 167.469 0.960 -16.810
v 175.069 0.881 -20.180
f 2129 2130 2131 2132
v 166.212 0.974 -20.072
v 157.062 1.059 -17.052
v 158.158 1.058 -13.728
v 167.308 0.962 -16.748
f 2133 2134 2135 2136
v 156.963 1.059 -17.016
v 148.313 1.054 -13.576
v 149.607 1.051 -10.324
v 158.257 1.057 -13.764
f 2137 2138 2139 2140
v 148.364 1.054 -13.595
v 140.444 0.999 -10.725
v 141.636 0.984 -7.435
v 149.556 1.050 -10.305
f 2141 2142 2143 2144
v 140.655 1.000 -10.787
v 135.025 0.966 -9.517
v 135.795 0.947 -6.103
v 141.425 0.982 -7.373
f 2145 2146 2147 2148
v 134.640 0.960 -9.382
v 128.860 0.847 -6.552
v 130.400 0.892 -3.408
v 136.180 0.950 -6.238
f 2149 2150 2151 2152
v 128.957 0.849 -6.596
v 125.187 0.789 -5.026
v 126.533 0.815 -1.794
v 130.303 0.891 -3.364
f 2153 2154 2155 2156
v 125.268 0.790 -5.057
v 117.168 0.956 -2.147
v 118.352 0.958 1.147
v 126.452 0.814 -1.763
f 2157 2158 2159 2160
v 2.488 0.779 145.762
v 7.828 0.805 143.872
v 5.992 0.837 138.688
v 0.652 0.847 140.578
f 2161 2162 2163 2164
v 7.824 0.805 143.874
v 40.764 0.822 132.264
v 38.936 0.822 127.076
v 5.996 0.837 138.686
f 2165 2166 2167 2168
v 40.764 0.822 132.264
v 47.004 0.869 130.064
v 45.176 0.799 124.876
v 38.936 0.822 127.076
f 2169 2170 2171 2172
v 33.266 0.612 225.252
v 29.746 0.737 215.042
v 24.074 0.681 216.998
v 27.594 0.595 227.208
f 2173 2174 2175 2176
v 29.744 0.737 215.035
v 27.164 0.466 207.615
v 21.496 0.467 209.585
v 24.076 0.681 217.005
f 2177 2178 2179 2180
v 27.163 0.466 207.614
v 4.403 0.788 142.184
v -1.263 0.831 144.156
v 21.497 0.467 209.586
f 2181 2182 2183 2184
v 4.387 0.789 142.140
v -21.743 1.321 70.690
v -27.377 1.321 72.750
v -1.247 0.831 144.200
f 2185 2186 2187 2188
v -249.077 0.686 -197.653
v -238.427 0.711 -182.953
v -235.593 0.706 -185.007
v -246.243 0.684 -199.707
f 2189 2190 2191 2192
v -238.427 0.711 -182.953
v -236.217 0.717 -179.903
v -233.383 0.704 -181.957
v -235.593 0.706 -185.007
f 2193 2194 2195 2196
v -236.345 0.717 -180.108
v -230.765 0.768 -169.628
v -227.675 0.758 -171.272
v -233.255 0.704 -181.752
f 2197 2198 2199 2200
v -235.975 0.710 -182.569
v -221.515 0.673 -193.169
v -223.585 0.665 -195.991
v -238.045 0.707 -185.391
f 2201 2202 2203 2204
v -221.516 0.673 -193.168
v -201.916 0.732 -207.518
v -203.984 0.732 -210.342
v -223.584 0.665 -195.992
f 2205 2206 2207 2208
v -201.916 0.732 -207.518
v -191.546 0.822 -215.108
v -193.614 0.809 -217.932
v -203.984 0.732 -210.342
f 2209 2210 2211 2212
v -191.055 0.856 -215.661
v -189.105 0.953 -219.121
v -192.155 0.924 -220.839
v -194.105 0.787 -217.379
f 2213 2214 2215 2216
v -188.889 0.942 -220.156
v -189.279 0.904 -224.006
v -192.761 0.929 -223.654
v -192.371 0.894 -219.804
f 2217 2218 2219 2220
v -189.595 0.894 -224.846
v -208.325 0.919 -251.096
v -211.175 0.902 -249.064
v -192.445 0.933 -222.814
f 2221 2222 2223 2224
v -201.526 0.730 -209.947
v -234.396 0.874 -255.987
v -237.244 0.818 -253.953
v -204.374 0.725 -207.913
f 2225 2226 2227 2228
v -235.021 0.879 -256.527
v -237.029 0.871 -257.557
v -238.626 0.815 -254.443
v -236.619 0.814 -253.413
f 2229 2230 2231 2232
v -242.350 0.813 -257.449
v -256.981 0.531 -247.542
v -255.019 0.535 -244.643
v -240.388 0.799 -254.551
f 2233 2234 2235 2236
v -257.420 0.551 -239.970
v -223.970 0.670 -193.557
v -221.130 0.670 -195.603
v -254.580 0.539 -242.016
f 2237 2238 2239 2240
v 42.294 0.927 -220.979
v 34.354 0.827 -218.319
v 35.466 0.837 -215.001
v 43.406 0.924 -217.661
f 2241 2242 2243 2244
v 34.356 0.827 -218.320
v 22.166 1.404 -214.250
v 23.274 1.422 -210.930
v 35.464 0.837 -215.000
f 2245 2246 2247 2248
v 21.063 1.472 -212.026
v 38.403 1.538 -161.096
v 41.717 1.370 -162.224
v 24.377 1.329 -213.154
f 2249 2250 2251 2252
v 40.560 1.338 -159.983
v 52.830 0.792 -163.643
v 51.830 0.785 -166.997
v 39.560 1.520 -163.337
f 2253 2254 2255 2256
v 52.822 0.793 -163.641
v 61.042 0.815 -166.051
v 60.058 0.826 -169.409
v 51.838 0.785 -166.999
f 2257 2258 2259 2260
v 39.495 1.523 -163.316
v -27.985 1.845 -140.316
v -26.855 1.750 -137.004
v 40.625 1.335 -160.004
f 2261 2262 2263 2264
v -25.772 1.814 -139.248
v -32.192 1.929 -157.258
v -35.488 1.914 -156.082
v -29.068 1.820 -138.072
f 2265 2266 2267 2268
v -99.075 0.673 -138.950
v -91.415 0.643 -141.510
v -92.525 0.620 -144.830
v -100.185 0.661 -142.270
f 2269 2270 2271 2272
v -91.388 0.645 -141.520
v -83.078 0.715 -144.450
v -84.242 0.834 -147.750
v -92.552 0.619 -144.820
f 2273 2274 2275 2276
v -85.331 0.772 -145.579
v -79.201 0.678 -125.909
v -75.859 0.647 -126.951
v -81.989 0.770 -146.621
f 2277 2278 2279 2280
v -76.954 0.675 -124.777
v -41.284 0.639 -137.207
v -42.436 0.620 -140.513
v -78.106 0.641 -128.083
f 2281 2282 2283 2284
v -40.213 0.637 -139.452
v -48.883 0.695 -163.572
v -52.177 0.695 -162.388
v -43.507 0.647 -138.268
f 2285 2286 2287 2288
v -48.881 0.695 -163.565
v -66.341 0.680 -212.825
v -69.639 0.704 -211.655
v -52.179 0.695 -162.395
f 2289 2290 2291 2292
v -97.968 0.662 -190.599
v -107.028 0.626 -187.549
v -105.912 0.631 -184.231
v -96.852 0.761 -187.281
f 2293 2294 2295 2296
v -106.953 0.628 -187.572
v -114.363 0.652 -185.442
v -113.397 0.645 -182.078
v -105.987 0.627 -184.208
f 2297 2298 2299 2300
v -91.460 0.644 -117.209
v -84.030 0.634 -119.819
v -85.190 0.630 -123.121
v -92.620 0.664 -120.511
f 2301 2302 2303 2304
v -84.036 0.633 -119.817
v -82.366 0.701 -120.397
v -83.514 0.695 -123.703
v -85.184 0.630 -123.123
f 2305 2306 2307 2308
v -82.419 0.700 -120.379
v -77.769 0.701 -121.829
v -78.811 0.683 -125.171
v -83.461 0.696 -123.721
f 2309 2310 2311 2312
v -76.596 0.692 -123.061
v -75.836 0.660 -125.991
v -79.224 0.668 -126.869
v -79.984 0.699 -123.939
f 2313 2314 2315 2316
v -50.002 0.673 -161.311
v -38.932 0.818 -164.811
v -39.988 0.709 -168.149
v -51.058 0.710 -164.649
f 2317 2318 2319 2320
v -38.932 0.818 -164.811
v -21.732 1.006 -170.251
v -22.788 0.932 -173.589
v -39.988 0.709 -168.149
f 2321 2322 2323 2324
v -103.670 0.654 -203.025
v -99.080 0.688 -188.415
v -95.740 0.725 -189.465
v -100.330 0.655 -204.075
f 2325 2326 2327 2328
v -99.076 0.688 -188.405
v -85.326 0.772 -145.565
v -81.994 0.771 -146.635
v -95.744 0.725 -189.475
f 2329 2330 2331 2332
v 194.175 0.426 184.616
v 256.595 0.758 162.040
v 255.405 0.724 158.748
v 192.985 0.442 181.324
f 2333 2334 2335 2336
v 189.293 0.462 170.071
v 202.913 0.414 164.591
v 199.927 0.685 157.169
v 186.307 0.695 162.649
f 2337 2338 2339 2340
v 202.722 0.414 164.662
v 257.302 0.503 145.866
v 254.698 0.769 138.302
v 200.118 0.684 157.098
f 2341 2342 2343 2344
v 254.717 0.513 125.095
v 191.157 0.465 146.621
v 193.723 0.666 154.199
v 257.283 0.804 132.672
f 2345 2346 2347 2348
v 190.955 0.466 146.696
v 172.715 0.557 153.986
v 175.685 0.692 161.414
v 193.925 0.667 154.124
f 2349 2350 2351 2352
v 99.027 0.716 -37.107
v 102.527 0.752 -26.937
v 113.873 0.746 -30.843
v 110.373 0.730 -41.013
f 2353 2354 2355 2356
v 102.525 0.752 -26.942
v 104.945 0.761 -19.892
v 116.295 0.806 -23.788
v 113.875 0.746 -30.838
f 2357 2358 2359 2360
v 104.946 0.761 -19.888
v 106.976 0.763 -13.988
v 118.324 0.831 -17.892
v 116.294 0.806 -23.792
f 2361 2362 2363 2364
v 106.954 0.762 -14.054
v 111.464 0.830 -0.434
v 122.856 0.811 -4.206
v 118.346 0.831 -17.826
f 2365 2366 2367 2368
v 111.462 0.829 -0.441
v 112.062 0.841 1.379
v 123.458 0.823 -2.379
v 122.858 0.811 -4.199
f 2369 2370 2371 2372
v 112.134 0.842 1.586
v 115.634 0.850 11.026
v 126.886 0.855 6.854
v 123.386 0.822 -2.586
f 2373 2374 2375 2376
v 115.598 0.849 10.924
v 117.238 0.847 15.604
v 128.562 0.846 11.636
v 126.922 0.854 6.956
f 2377 2378 2379 2380
v -23.351 1.366 66.273
v -27.011 1.343 56.223
v -32.649 1.341 58.277
v -28.989 1.378 68.327
f 2381 2382 2383 2384
v -21.741 1.321 70.693
v -23.351 1.366 66.273
v -28.989 1.378 68.327
v -27.379 1.321 72.747
f 2385 2386 2387 2388
usemtl asphalt
