# Baked ultra-low Key West silhouette; generated by bake_key_west_far_city.py
mtllib far_city.mtl
usemtl massing
v 46.382 1.006 -91.165
v 64.228 1.006 -83.455
v 59.778 1.006 -73.155
v 41.932 1.006 -80.865
v 46.382 4.506 -91.165
v 64.228 4.506 -83.455
v 59.778 4.506 -73.155
v 41.932 4.506 -80.865
f 8 7 6 5
f 1 2 6 5
f 2 3 7 6
f 3 4 8 7
f 4 1 5 8
v -6.520 0.544 -243.385
v 2.491 0.544 -262.431
v 17.360 0.544 -255.395
v 8.349 0.544 -236.349
v -6.520 4.444 -243.385
v 2.491 4.444 -262.431
v 17.360 4.444 -255.395
v 8.349 4.444 -236.349
f 16 15 14 13
f 9 10 14 13
f 10 11 15 14
f 11 12 16 15
f 12 9 13 16
v 83.742 0.861 -195.449
v 89.038 0.861 -210.027
v 102.018 0.861 -205.311
v 96.722 0.861 -190.733
v 83.742 4.761 -195.449
v 89.038 4.761 -210.027
v 102.018 4.761 -205.311
v 96.722 4.761 -190.733
f 24 23 22 21
f 17 18 22 21
f 18 19 23 22
f 19 20 24 23
f 20 17 21 24
v -85.383 0.697 -76.066
v -79.851 0.697 -92.235
v -68.157 0.697 -88.234
v -73.689 0.697 -72.065
v -85.383 4.597 -76.066
v -79.851 4.597 -92.235
v -68.157 4.597 -88.234
v -73.689 4.597 -72.065
f 32 31 30 29
f 25 26 30 29
f 26 27 31 30
f 27 28 32 31
f 28 25 29 32
v 188.400 0.726 35.525
v 195.989 0.726 12.872
v 210.980 0.726 17.895
v 203.391 0.726 40.548
v 188.400 4.626 35.525
v 195.989 4.626 12.872
v 210.980 4.626 17.895
v 203.391 4.626 40.548
f 40 39 38 37
f 33 34 38 37
f 34 35 39 38
f 35 36 40 39
f 36 33 37 40
v 235.848 0.832 26.935
v 261.167 0.832 30.910
v 258.932 0.832 45.145
v 233.613 0.832 41.170
v 235.848 4.732 26.935
v 261.167 4.732 30.910
v 258.932 4.732 45.145
v 233.613 4.732 41.170
f 48 47 46 45
f 41 42 46 45
f 42 43 47 46
f 43 44 48 47
f 44 41 45 48
v 217.052 0.773 -34.490
v 232.183 0.773 -29.477
v 227.768 0.773 -16.150
v 212.637 0.773 -21.163
v 217.052 4.673 -34.490
v 232.183 4.673 -29.477
v 227.768 4.673 -16.150
v 212.637 4.673 -21.163
f 56 55 54 53
f 49 50 54 53
f 50 51 55 54
f 51 52 56 55
f 52 49 53 56
v 174.766 0.698 -19.243
v 190.659 0.698 -13.830
v 186.874 0.698 -2.717
v 170.981 0.698 -8.130
v 174.766 4.598 -19.243
v 190.659 4.598 -13.830
v 186.874 4.598 -2.717
v 170.981 4.598 -8.130
f 64 63 62 61
f 57 58 62 61
f 58 59 63 62
f 59 60 64 63
f 60 57 61 64
v 124.902 0.801 -22.191
v 143.690 0.801 -14.531
v 139.058 0.801 -3.169
v 120.270 0.801 -10.829
v 124.902 4.701 -22.191
v 143.690 4.701 -14.531
v 139.058 4.701 -3.169
v 120.270 4.701 -10.829
f 72 71 70 69
f 65 66 70 69
f 66 67 71 70
f 67 68 72 71
f 68 65 69 72
v 49.825 0.888 -19.464
v 70.617 0.888 -18.198
v 69.695 0.888 -3.056
v 48.903 0.888 -4.322
v 49.825 4.788 -19.464
v 70.617 4.788 -18.198
v 69.695 4.788 -3.056
v 48.903 4.788 -4.322
f 80 79 78 77
f 73 74 78 77
f 74 75 79 78
f 75 76 80 79
f 76 73 77 80
v 131.578 0.791 -8.525
v 151.406 0.791 1.982
v 144.982 0.791 14.105
v 125.154 0.791 3.598
v 131.578 4.691 -8.525
v 151.406 4.691 1.982
v 144.982 4.691 14.105
v 125.154 4.691 3.598
f 88 87 86 85
f 81 82 86 85
f 82 83 87 86
f 83 84 88 87
f 84 81 85 88
v 83.439 0.865 30.758
v 95.472 0.865 18.848
v 107.501 0.865 31.002
v 95.468 0.865 42.912
v 83.439 4.765 30.758
v 95.472 4.765 18.848
v 107.501 4.765 31.002
v 95.468 4.765 42.912
f 96 95 94 93
f 89 90 94 93
f 90 91 95 94
f 91 92 96 95
f 92 89 93 96
v 2.265 0.748 -9.796
v 15.669 0.748 -22.255
v 27.855 0.748 -9.144
v 14.451 0.748 3.315
v 2.265 4.648 -9.796
v 15.669 4.648 -22.255
v 27.855 4.648 -9.144
v 14.451 4.648 3.315
f 104 103 102 101
f 97 98 102 101
f 98 99 103 102
f 99 100 104 103
f 100 97 101 104
v 48.149 0.857 23.009
v 63.507 0.857 21.882
v 64.351 0.857 33.391
v 48.993 0.857 34.518
v 48.149 4.757 23.009
v 63.507 4.757 21.882
v 64.351 4.757 33.391
v 48.993 4.757 34.518
f 112 111 110 109
f 105 106 110 109
f 106 107 111 110
f 107 108 112 111
f 108 105 109 112
v -16.929 0.861 -69.551
v 0.316 0.861 -63.248
v -3.251 0.861 -53.489
v -20.496 0.861 -59.792
v -16.929 4.761 -69.551
v 0.316 4.761 -63.248
v -3.251 4.761 -53.489
v -20.496 4.761 -59.792
f 120 119 118 117
f 113 114 118 117
f 114 115 119 118
f 115 116 120 119
f 116 113 117 120
v 2.906 0.696 -76.386
v 20.025 0.696 -72.800
v 17.774 0.696 -62.054
v 0.655 0.696 -65.640
v 2.906 4.596 -76.386
v 20.025 4.596 -72.800
v 17.774 4.596 -62.054
v 0.655 4.596 -65.640
f 128 127 126 125
f 121 122 126 125
f 122 123 127 126
f 123 124 128 127
f 124 121 125 128
v 5.676 0.559 -53.892
v 22.290 0.559 -53.453
v 21.944 0.559 -40.368
v 5.330 0.559 -40.807
v 5.676 4.459 -53.892
v 22.290 4.459 -53.453
v 21.944 4.459 -40.368
v 5.330 4.459 -40.807
f 136 135 134 133
f 129 130 134 133
f 130 131 135 134
f 131 132 136 135
f 132 129 133 136
v 44.721 1.033 -51.727
v 53.293 1.033 -69.886
v 67.979 1.033 -62.953
v 59.407 1.033 -44.794
v 44.721 4.933 -51.727
v 53.293 4.933 -69.886
v 67.979 4.933 -62.953
v 59.407 4.933 -44.794
f 144 143 142 141
f 137 138 142 141
f 138 139 143 142
f 139 140 144 143
f 140 137 141 144
v 48.327 0.897 -26.506
v 50.801 0.897 -41.382
v 62.273 0.897 -39.474
v 59.799 0.897 -24.598
v 48.327 4.797 -26.506
v 50.801 4.797 -41.382
v 62.273 4.797 -39.474
v 59.799 4.797 -24.598
f 152 151 150 149
f 145 146 150 149
f 146 147 151 150
f 147 148 152 151
f 148 145 149 152
v 83.611 0.928 -17.247
v 98.535 0.928 -6.552
v 89.349 0.928 6.267
v 74.425 0.928 -4.428
v 83.611 4.828 -17.247
v 98.535 4.828 -6.552
v 89.349 4.828 6.267
v 74.425 4.828 -4.428
f 160 159 158 157
f 153 154 158 157
f 154 155 159 158
f 155 156 160 159
f 156 153 157 160
v 9.301 0.613 22.372
v 22.453 0.613 22.833
v 22.159 0.613 31.208
v 9.007 0.613 30.747
v 9.301 4.513 22.372
v 22.453 4.513 22.833
v 22.159 4.513 31.208
v 9.007 4.513 30.747
f 168 167 166 165
f 161 162 166 165
f 162 163 167 166
f 163 164 168 167
f 164 161 165 168
v 208.227 1.146 -165.262
v 226.801 1.146 -181.315
v 242.633 1.146 -162.998
v 224.059 1.146 -146.945
v 208.227 5.046 -165.262
v 226.801 5.046 -181.315
v 242.633 5.046 -162.998
v 224.059 5.046 -146.945
f 176 175 174 173
f 169 170 174 173
f 170 171 175 174
f 171 172 176 175
f 172 169 173 176
v 115.509 0.746 -57.875
v 134.513 0.746 -46.853
v 126.551 0.746 -33.125
v 107.547 0.746 -44.147
v 115.509 4.646 -57.875
v 134.513 4.646 -46.853
v 126.551 4.646 -33.125
v 107.547 4.646 -44.147
f 184 183 182 181
f 177 178 182 181
f 178 179 183 182
f 179 180 184 183
f 180 177 181 184
v -71.367 1.001 -78.262
v -69.359 1.001 -99.257
v -50.973 1.001 -97.498
v -52.981 1.001 -76.503
v -71.367 4.901 -78.262
v -69.359 4.901 -99.257
v -50.973 4.901 -97.498
v -52.981 4.901 -76.503
f 192 191 190 189
f 185 186 190 189
f 186 187 191 190
f 187 188 192 191
f 188 185 189 192
v -166.425 0.599 -63.700
v -149.635 0.599 -58.291
v -154.535 0.599 -43.080
v -171.325 0.599 -48.489
v -166.425 4.499 -63.700
v -149.635 4.499 -58.291
v -154.535 4.499 -43.080
v -171.325 4.499 -48.489
f 200 199 198 197
f 193 194 198 197
f 194 195 199 198
f 195 196 200 199
f 196 193 197 200
v -247.553 0.609 -38.873
v -231.360 0.609 -34.788
v -233.767 0.609 -25.247
v -249.960 0.609 -29.332
v -247.553 4.509 -38.873
v -231.360 4.509 -34.788
v -233.767 4.509 -25.247
v -249.960 4.509 -29.332
f 208 207 206 205
f 201 202 206 205
f 202 203 207 206
f 203 204 208 207
f 204 201 205 208
v -224.090 0.600 -45.578
v -206.820 0.600 -39.741
v -209.990 0.600 -30.362
v -227.260 0.600 -36.199
v -224.090 4.500 -45.578
v -206.820 4.500 -39.741
v -209.990 4.500 -30.362
v -227.260 4.500 -36.199
f 216 215 214 213
f 209 210 214 213
f 210 211 215 214
f 211 212 216 215
f 212 209 213 216
v -200.487 1.037 -54.770
v -184.344 1.037 -47.961
v -189.333 1.037 -36.130
v -205.476 1.037 -42.939
v -200.487 4.937 -54.770
v -184.344 4.937 -47.961
v -189.333 4.937 -36.130
v -205.476 4.937 -42.939
f 224 223 222 221
f 217 218 222 221
f 218 219 223 222
f 219 220 224 223
f 220 217 221 224
v -187.584 0.687 -45.134
v -182.039 0.687 -59.951
v -170.856 0.687 -55.766
v -176.401 0.687 -40.949
v -187.584 4.587 -45.134
v -182.039 4.587 -59.951
v -170.856 4.587 -55.766
v -176.401 4.587 -40.949
f 232 231 230 229
f 225 226 230 229
f 226 227 231 230
f 227 228 232 231
f 228 225 229 232
v -133.405 0.589 -59.126
v -128.713 0.589 -73.772
v -117.295 0.589 -70.114
v -121.987 0.589 -55.468
v -133.405 4.489 -59.126
v -128.713 4.489 -73.772
v -117.295 4.489 -70.114
v -121.987 4.489 -55.468
f 240 239 238 237
f 233 234 238 237
f 234 235 239 238
f 235 236 240 239
f 236 233 237 240
v 20.787 0.976 -124.246
v 32.624 0.976 -110.579
v 20.333 0.976 -99.934
v 8.496 0.976 -113.601
v 20.787 4.876 -124.246
v 32.624 4.876 -110.579
v 20.333 4.876 -99.934
v 8.496 4.876 -113.601
f 248 247 246 245
f 241 242 246 245
f 242 243 247 246
f 243 244 248 247
f 244 241 245 248
v -81.609 0.419 -189.066
v -75.099 0.419 -202.602
v -63.311 0.419 -196.934
v -69.821 0.419 -183.398
v -81.609 4.319 -189.066
v -75.099 4.319 -202.602
v -63.311 4.319 -196.934
v -69.821 4.319 -183.398
f 256 255 254 253
f 249 250 254 253
f 250 251 255 254
f 251 252 256 255
f 252 249 253 256
v 31.086 0.644 -181.424
v 36.558 0.644 -194.970
v 49.614 0.644 -189.696
v 44.142 0.644 -176.150
v 31.086 4.544 -181.424
v 36.558 4.544 -194.970
v 49.614 4.544 -189.696
v 44.142 4.544 -176.150
f 264 263 262 261
f 257 258 262 261
f 258 259 263 262
f 259 260 264 263
f 260 257 261 264
v 8.903 0.760 0.642
v 23.263 0.760 1.168
v 22.757 0.760 14.998
v 8.397 0.760 14.472
v 8.903 4.660 0.642
v 23.263 4.660 1.168
v 22.757 4.660 14.998
v 8.397 4.660 14.472
f 272 271 270 269
f 265 266 270 269
f 266 267 271 270
f 267 268 272 271
f 268 265 269 272
v 4.229 0.713 -25.272
v 16.323 0.713 -37.768
v 27.151 0.713 -27.288
v 15.057 0.713 -14.792
v 4.229 4.613 -25.272
v 16.323 4.613 -37.768
v 27.151 4.613 -27.288
v 15.057 4.613 -14.792
f 280 279 278 277
f 273 274 278 277
f 274 275 279 278
f 275 276 280 279
f 276 273 277 280
v -23.845 0.278 -52.051
v -20.733 0.278 -50.707
v -21.855 0.278 -48.109
v -24.967 0.278 -49.453
v -23.845 4.178 -52.051
v -20.733 4.178 -50.707
v -21.855 4.178 -48.109
v -24.967 4.178 -49.453
f 288 287 286 285
f 281 282 286 285
f 282 283 287 286
f 283 284 288 287
f 284 281 285 288
v -152.240 0.686 -50.550
v -151.009 0.686 -68.447
v -133.600 0.686 -67.250
v -134.831 0.686 -49.353
v -152.240 4.586 -50.550
v -151.009 4.586 -68.447
v -133.600 4.586 -67.250
v -134.831 4.586 -49.353
f 296 295 294 293
f 289 290 294 293
f 290 291 295 294
f 291 292 296 295
f 292 289 293 296
v -116.330 0.673 -82.675
v -103.519 0.673 -79.027
v -105.650 0.673 -71.545
v -118.461 0.673 -75.193
v -116.330 4.573 -82.675
v -103.519 4.573 -79.027
v -105.650 4.573 -71.545
v -118.461 4.573 -75.193
f 304 303 302 301
f 297 298 302 301
f 298 299 303 302
f 299 300 304 303
f 300 297 301 304
v 50.234 0.735 0.770
v 67.530 0.735 -0.727
v 68.766 0.735 13.550
v 51.470 0.735 15.047
v 50.234 4.635 0.770
v 67.530 4.635 -0.727
v 68.766 4.635 13.550
v 51.470 4.635 15.047
f 312 311 310 309
f 305 306 310 309
f 306 307 311 310
f 307 308 312 311
f 308 305 309 312
v -6.870 0.986 -103.414
v 1.585 0.986 -119.021
v 15.310 0.986 -111.586
v 6.855 0.986 -95.979
v -6.870 4.886 -103.414
v 1.585 4.886 -119.021
v 15.310 4.886 -111.586
v 6.855 4.886 -95.979
f 320 319 318 317
f 313 314 318 317
f 314 315 319 318
f 315 316 320 319
f 316 313 317 320
v -19.617 0.113 -108.625
v -18.075 0.113 -90.611
v -37.643 0.113 -88.935
v -39.185 0.113 -106.949
v -19.617 4.013 -108.625
v -18.075 4.013 -90.611
v -37.643 4.013 -88.935
v -39.185 4.013 -106.949
f 328 327 326 325
f 321 322 326 325
f 322 323 327 326
f 323 324 328 327
f 324 321 325 328
v 39.936 1.224 -148.493
v 69.076 1.224 -122.498
v 49.904 1.224 -101.007
v 20.764 1.224 -127.002
v 39.936 7.024 -148.493
v 69.076 7.024 -122.498
v 49.904 7.024 -101.007
v 20.764 7.024 -127.002
f 336 335 334 333
f 329 330 334 333
f 330 331 335 334
f 331 332 336 335
f 332 329 333 336
v 82.604 0.705 16.860
v 87.362 0.705 16.722
v 87.476 0.705 20.640
v 82.718 0.705 20.778
v 82.604 4.605 16.860
v 87.362 4.605 16.722
v 87.476 4.605 20.640
v 82.718 4.605 20.778
f 344 343 342 341
f 337 338 342 341
f 338 339 343 342
f 339 340 344 343
f 340 337 341 344
v -103.232 0.748 -86.748
v -99.818 0.748 -85.673
v -100.788 0.748 -82.592
v -104.202 0.748 -83.667
v -103.232 4.648 -86.748
v -99.818 4.648 -85.673
v -100.788 4.648 -82.592
v -104.202 4.648 -83.667
f 352 351 350 349
f 345 346 350 349
f 346 347 351 350
f 347 348 352 351
f 348 345 349 352
v -110.142 0.646 -74.339
v -100.660 0.646 -71.258
v -103.518 0.646 -62.461
v -113.000 0.646 -65.542
v -110.142 4.546 -74.339
v -100.660 4.546 -71.258
v -103.518 4.546 -62.461
v -113.000 4.546 -65.542
f 360 359 358 357
f 353 354 358 357
f 354 355 359 358
f 355 356 360 359
f 356 353 357 360
v -101.252 0.896 -70.143
v -96.105 0.896 -84.763
v -88.248 0.896 -81.997
v -93.395 0.896 -67.377
v -101.252 4.796 -70.143
v -96.105 4.796 -84.763
v -88.248 4.796 -81.997
v -93.395 4.796 -67.377
f 368 367 366 365
f 361 362 366 365
f 362 363 367 366
f 363 364 368 367
f 364 361 365 368
v -91.732 0.731 -72.463
v -87.749 0.731 -83.709
v -84.328 0.731 -82.497
v -88.311 0.731 -71.251
v -91.732 4.631 -72.463
v -87.749 4.631 -83.709
v -84.328 4.631 -82.497
v -88.311 4.631 -71.251
f 376 375 374 373
f 369 370 374 373
f 370 371 375 374
f 371 372 376 375
f 372 369 373 376
v 85.618 0.818 3.960
v 99.170 0.818 4.967
v 98.442 0.818 14.760
v 84.890 0.818 13.753
v 85.618 4.718 3.960
v 99.170 4.718 4.967
v 98.442 4.718 14.760
v 84.890 4.718 13.753
f 384 383 382 381
f 377 378 382 381
f 378 379 383 382
f 379 380 384 383
f 380 377 381 384
v -53.724 0.775 -86.125
v -51.728 0.775 -104.144
v -35.576 0.775 -102.355
v -37.572 0.775 -84.336
v -53.724 4.675 -86.125
v -51.728 4.675 -104.144
v -35.576 4.675 -102.355
v -37.572 4.675 -84.336
f 392 391 390 389
f 385 386 390 389
f 386 387 391 390
f 387 388 392 391
f 388 385 389 392
v -25.896 0.489 -97.039
v -15.029 0.489 -118.975
v -4.464 0.489 -113.741
v -15.331 0.489 -91.805
v -25.896 4.389 -97.039
v -15.029 4.389 -118.975
v -4.464 4.389 -113.741
v -15.331 4.389 -91.805
f 400 399 398 397
f 393 394 398 397
f 394 395 399 398
f 395 396 400 399
f 396 393 397 400
v 92.048 0.884 -117.406
v 108.673 0.884 -112.172
v 104.952 0.884 -100.354
v 88.327 0.884 -105.588
v 92.048 4.784 -117.406
v 108.673 4.784 -112.172
v 104.952 4.784 -100.354
v 88.327 4.784 -105.588
f 408 407 406 405
f 401 402 406 405
f 402 403 407 406
f 403 404 408 407
f 404 401 405 408
v 98.384 1.169 -103.272
v 112.234 1.169 -94.714
v 106.236 1.169 -85.008
v 92.386 1.169 -93.566
v 98.384 5.069 -103.272
v 112.234 5.069 -94.714
v 106.236 5.069 -85.008
v 92.386 5.069 -93.566
f 416 415 414 413
f 409 410 414 413
f 410 411 415 414
f 411 412 416 415
f 412 409 413 416
v 101.202 0.843 -84.488
v 120.363 0.843 -81.266
v 118.138 0.843 -68.032
v 98.977 0.843 -71.254
v 101.202 4.743 -84.488
v 120.363 4.743 -81.266
v 118.138 4.743 -68.032
v 98.977 4.743 -71.254
f 424 423 422 421
f 417 418 422 421
f 418 419 423 422
f 419 420 424 423
f 420 417 421 424
v 109.863 0.831 -71.658
v 127.320 0.831 -61.455
v 119.797 0.831 -48.582
v 102.340 0.831 -58.785
v 109.863 4.731 -71.658
v 127.320 4.731 -61.455
v 119.797 4.731 -48.582
v 102.340 4.731 -58.785
f 432 431 430 429
f 425 426 430 429
f 426 427 431 430
f 427 428 432 431
f 428 425 429 432
v 127.748 0.793 -43.994
v 133.795 0.793 -41.777
v 132.332 0.793 -37.786
v 126.285 0.793 -40.003
v 127.748 4.693 -43.994
v 133.795 4.693 -41.777
v 132.332 4.693 -37.786
v 126.285 4.693 -40.003
f 440 439 438 437
f 433 434 438 437
f 434 435 439 438
f 435 436 440 439
f 436 433 437 440
v 117.781 -0.171 -43.132
v 140.986 -0.171 -27.535
v 132.579 -0.171 -15.028
v 109.374 -0.171 -30.625
v 117.781 3.729 -43.132
v 140.986 3.729 -27.535
v 132.579 3.729 -15.028
v 109.374 3.729 -30.625
f 448 447 446 445
f 441 442 446 445
f 442 443 447 446
f 443 444 448 447
f 444 441 445 448
v 133.850 0.882 12.650
v 147.920 0.882 11.349
v 149.410 0.882 27.470
v 135.340 0.882 28.771
v 133.850 4.782 12.650
v 147.920 4.782 11.349
v 149.410 4.782 27.470
v 135.340 4.782 28.771
f 456 455 454 453
f 449 450 454 453
f 450 451 455 454
f 451 452 456 455
f 452 449 453 456
v 148.099 0.908 21.733
v 171.329 0.908 23.548
v 170.021 0.908 40.287
v 146.791 0.908 38.472
v 148.099 4.808 21.733
v 171.329 4.808 23.548
v 170.021 4.808 40.287
v 146.791 4.808 38.472
f 464 463 462 461
f 457 458 462 461
f 458 459 463 462
f 459 460 464 463
f 460 457 461 464
v 168.757 0.688 22.300
v 188.295 0.688 18.683
v 191.383 0.688 35.360
v 171.845 0.688 38.977
v 168.757 4.588 22.300
v 188.295 4.588 18.683
v 191.383 4.588 35.360
v 171.845 4.588 38.977
f 472 471 470 469
f 465 466 470 469
f 466 467 471 470
f 467 468 472 471
f 468 465 469 472
v 179.467 0.580 -3.754
v 195.847 0.580 -5.365
v 197.513 0.580 11.574
v 181.133 0.580 13.185
v 179.467 4.480 -3.754
v 195.847 4.480 -5.365
v 197.513 4.480 11.574
v 181.133 4.480 13.185
f 480 479 478 477
f 473 474 478 477
f 474 475 479 478
f 475 476 480 479
f 476 473 477 480
v 180.347 0.682 -41.256
v 193.000 0.682 -25.548
v 177.253 0.682 -12.864
v 164.600 0.682 -28.572
v 180.347 4.582 -41.256
v 193.000 4.582 -25.548
v 177.253 4.582 -12.864
v 164.600 4.582 -28.572
f 488 487 486 485
f 481 482 486 485
f 482 483 487 486
f 483 484 488 487
f 484 481 485 488
v 168.260 0.800 -54.595
v 181.286 0.800 -47.199
v 173.840 0.800 -34.085
v 160.814 0.800 -41.481
v 168.260 4.700 -54.595
v 181.286 4.700 -47.199
v 173.840 4.700 -34.085
v 160.814 4.700 -41.481
f 496 495 494 493
f 489 490 494 493
f 490 491 495 494
f 491 492 496 495
f 492 489 493 496
v 158.927 0.729 -71.957
v 178.273 0.729 -61.824
v 171.693 0.729 -49.263
v 152.347 0.729 -59.396
v 158.927 4.629 -71.957
v 178.273 4.629 -61.824
v 171.693 4.629 -49.263
v 152.347 4.629 -59.396
f 504 503 502 501
f 497 498 502 501
f 498 499 503 502
f 499 500 504 503
f 500 497 501 504
v 151.468 0.805 -65.326
v 156.115 0.805 -63.905
v 154.852 0.805 -59.774
v 150.205 0.805 -61.195
v 151.468 4.705 -65.326
v 156.115 4.705 -63.905
v 154.852 4.705 -59.774
v 150.205 4.705 -61.195
f 512 511 510 509
f 505 506 510 509
f 506 507 511 510
f 507 508 512 511
f 508 505 509 512
v 154.630 0.796 -85.969
v 173.962 0.796 -72.981
v 165.530 0.796 -60.431
v 146.198 0.796 -73.419
v 154.630 4.696 -85.969
v 173.962 4.696 -72.981
v 165.530 4.696 -60.431
v 146.198 4.696 -73.419
f 520 519 518 517
f 513 514 518 517
f 514 515 519 518
f 515 516 520 519
f 516 513 517 520
v 135.840 0.746 -133.923
v 153.820 0.746 -128.823
v 150.120 0.746 -115.777
v 132.140 0.746 -120.877
v 135.840 4.646 -133.923
v 153.820 4.646 -128.823
v 150.120 4.646 -115.777
v 132.140 4.646 -120.877
f 528 527 526 525
f 521 522 526 525
f 522 523 527 526
f 523 524 528 527
f 524 521 525 528
v 131.603 0.709 -149.000
v 147.438 0.709 -142.680
v 142.337 0.709 -129.900
v 126.502 0.709 -136.220
v 131.603 4.609 -149.000
v 147.438 4.609 -142.680
v 142.337 4.609 -129.900
v 126.502 4.609 -136.220
f 536 535 534 533
f 529 530 534 533
f 530 531 535 534
f 531 532 536 535
f 532 529 533 536
v 121.503 0.713 -165.390
v 139.511 0.713 -160.060
v 135.577 0.713 -146.770
v 117.569 0.713 -152.100
v 121.503 4.613 -165.390
v 139.511 4.613 -160.060
v 135.577 4.613 -146.770
v 117.569 4.613 -152.100
f 544 543 542 541
f 537 538 542 541
f 538 539 543 542
f 539 540 544 543
f 540 537 541 544
v 150.498 0.532 -182.148
v 183.737 0.532 -178.230
v 182.002 0.532 -163.512
v 148.763 0.532 -167.430
v 150.498 4.432 -182.148
v 183.737 4.432 -178.230
v 182.002 4.432 -163.512
v 148.763 4.432 -167.430
f 552 551 550 549
f 545 546 550 549
f 546 547 551 550
f 547 548 552 551
f 548 545 549 552
v 182.060 1.107 -148.716
v 197.157 1.107 -138.659
v 189.340 1.107 -126.924
v 174.243 1.107 -136.981
v 182.060 5.007 -148.716
v 197.157 5.007 -138.659
v 189.340 5.007 -126.924
v 174.243 5.007 -136.981
f 560 559 558 557
f 553 554 558 557
f 554 555 559 558
f 555 556 560 559
f 556 553 557 560
v 194.035 1.090 -136.464
v 195.541 1.090 -141.053
v 198.885 1.090 -139.956
v 197.379 1.090 -135.367
v 194.035 4.990 -136.464
v 195.541 4.990 -141.053
v 198.885 4.990 -139.956
v 197.379 4.990 -135.367
f 568 567 566 565
f 561 562 566 565
f 562 563 567 566
f 563 564 568 567
f 564 561 565 568
v 185.144 0.783 -135.508
v 206.354 0.783 -125.297
v 199.756 0.783 -111.592
v 178.546 0.783 -121.803
v 185.144 4.683 -135.508
v 206.354 4.683 -125.297
v 199.756 4.683 -111.592
v 178.546 4.683 -121.803
f 576 575 574 573
f 569 570 574 573
f 570 571 575 574
f 571 572 576 575
f 572 569 573 576
v 180.516 0.780 -115.954
v 203.234 0.780 -114.949
v 202.424 0.780 -96.626
v 179.706 0.780 -97.631
v 180.516 4.680 -115.954
v 203.234 4.680 -114.949
v 202.424 4.680 -96.626
v 179.706 4.680 -97.631
f 584 583 582 581
f 577 578 582 581
f 578 579 583 582
f 579 580 584 583
f 580 577 581 584
v 203.971 0.893 -105.544
v 208.733 0.893 -104.020
v 207.669 0.893 -100.696
v 202.907 0.893 -102.220
v 203.971 4.793 -105.544
v 208.733 4.793 -104.020
v 207.669 4.793 -100.696
v 202.907 4.793 -102.220
f 592 591 590 589
f 585 586 590 589
f 586 587 591 590
f 587 588 592 591
f 588 585 589 592
v 191.820 0.812 -102.429
v 213.532 0.812 -88.679
v 206.320 0.812 -77.291
v 184.608 0.812 -91.041
v 191.820 4.712 -102.429
v 213.532 4.712 -88.679
v 206.320 4.712 -77.291
v 184.608 4.712 -91.041
f 600 599 598 597
f 593 594 598 597
f 594 595 599 598
f 595 596 600 599
f 596 593 597 600
v 194.340 0.708 -63.881
v 203.498 0.708 -83.621
v 218.720 0.708 -76.559
v 209.562 0.708 -56.819
v 194.340 4.608 -63.881
v 203.498 4.608 -83.621
v 218.720 4.608 -76.559
v 209.562 4.608 -56.819
f 608 607 606 605
f 601 602 606 605
f 602 603 607 606
f 603 604 608 607
f 604 601 605 608
v 217.029 0.712 -66.682
v 218.418 0.712 -70.635
v 221.711 0.712 -69.478
v 220.322 0.712 -65.525
v 217.029 4.612 -66.682
v 218.418 4.612 -70.635
v 221.711 4.612 -69.478
v 220.322 4.612 -65.525
f 616 615 614 613
f 609 610 614 613
f 610 611 615 614
f 611 612 616 615
f 612 609 613 616
v 211.504 0.930 -51.820
v 227.351 0.930 -46.334
v 222.796 0.930 -33.180
v 206.949 0.930 -38.666
v 211.504 4.830 -51.820
v 227.351 4.830 -46.334
v 222.796 4.830 -33.180
v 206.949 4.830 -38.666
f 624 623 622 621
f 617 618 622 621
f 618 619 623 622
f 619 620 624 623
f 620 617 621 624
v 225.284 0.683 -24.182
v 242.250 0.683 -11.138
v 231.456 0.683 2.902
v 214.490 0.683 -10.142
v 225.284 4.583 -24.182
v 242.250 4.583 -11.138
v 231.456 4.583 2.902
v 214.490 4.583 -10.142
f 632 631 630 629
f 625 626 630 629
f 626 627 631 630
f 627 628 632 631
f 628 625 629 632
v 226.578 0.846 -0.624
v 241.001 0.846 3.879
v 237.622 0.846 14.704
v 223.199 0.846 10.201
v 226.578 4.746 -0.624
v 241.001 4.746 3.879
v 237.622 4.746 14.704
v 223.199 4.746 10.201
f 640 639 638 637
f 633 634 638 637
f 634 635 639 638
f 635 636 640 639
f 636 633 637 640
v 232.199 0.709 9.893
v 251.272 0.709 18.845
v 245.901 0.709 30.287
v 226.828 0.709 21.335
v 232.199 4.609 9.893
v 251.272 4.609 18.845
v 245.901 4.609 30.287
v 226.828 4.609 21.335
f 648 647 646 645
f 641 642 646 645
f 642 643 647 646
f 643 644 648 647
f 644 641 645 648
v 76.426 0.798 -19.706
v 79.767 0.798 -37.953
v 90.794 0.798 -35.934
v 87.453 0.798 -17.687
v 76.426 4.698 -19.706
v 79.767 4.698 -37.953
v 90.794 4.698 -35.934
v 87.453 4.698 -17.687
f 656 655 654 653
f 649 650 654 653
f 650 651 655 654
f 651 652 656 655
f 652 649 653 656
v 248.106 0.670 -62.912
v 253.025 0.670 -62.458
v 252.574 0.670 -57.568
v 247.655 0.670 -58.022
v 248.106 4.570 -62.912
v 253.025 4.570 -62.458
v 252.574 4.570 -57.568
v 247.655 4.570 -58.022
f 664 663 662 661
f 657 658 662 661
f 658 659 663 662
f 659 660 664 663
f 660 657 661 664
v 234.412 0.975 -101.629
v 244.267 0.975 -98.368
v 242.508 0.975 -93.051
v 232.653 0.975 -96.312
v 234.412 4.875 -101.629
v 244.267 4.875 -98.368
v 242.508 4.875 -93.051
v 232.653 4.875 -96.312
f 672 671 670 669
f 665 666 670 669
f 666 667 671 670
f 667 668 672 671
f 668 665 669 672
v 240.718 0.853 -115.920
v 259.291 0.853 -114.121
v 257.662 0.853 -97.300
v 239.089 0.853 -99.099
v 240.718 4.753 -115.920
v 259.291 4.753 -114.121
v 257.662 4.753 -97.300
v 239.089 4.753 -99.099
f 680 679 678 677
f 673 674 678 677
f 674 675 679 678
f 675 676 680 679
f 676 673 677 680
v 231.233 0.970 -121.920
v 241.148 0.970 -132.827
v 253.587 0.970 -121.520
v 243.672 0.970 -110.613
v 231.233 4.870 -121.920
v 241.148 4.870 -132.827
v 253.587 4.870 -121.520
v 243.672 4.870 -110.613
f 688 687 686 685
f 681 682 686 685
f 682 683 687 686
f 683 684 688 687
f 684 681 685 688
v 224.521 1.021 -134.056
v 228.379 1.021 -153.885
v 242.779 1.021 -151.084
v 238.921 1.021 -131.255
v 224.521 4.921 -134.056
v 228.379 4.921 -153.885
v 242.779 4.921 -151.084
v 238.921 4.921 -131.255
f 696 695 694 693
f 689 690 694 693
f 690 691 695 694
f 691 692 696 695
f 692 689 693 696
v 207.817 0.988 -181.845
v 215.315 0.988 -198.746
v 227.783 0.988 -193.215
v 220.285 0.988 -176.314
v 207.817 4.888 -181.845
v 215.315 4.888 -198.746
v 227.783 4.888 -193.215
v 220.285 4.888 -176.314
f 704 703 702 701
f 697 698 702 701
f 698 699 703 702
f 699 700 704 703
f 700 697 701 704
v 142.834 0.859 -101.295
v 163.944 0.859 -98.453
v 161.826 0.859 -82.725
v 140.716 0.859 -85.567
v 142.834 4.759 -101.295
v 163.944 4.759 -98.453
v 161.826 4.759 -82.725
v 140.716 4.759 -85.567
f 712 711 710 709
f 705 706 710 709
f 706 707 711 710
f 707 708 712 711
f 708 705 709 712
v 158.594 0.477 -97.931
v 160.852 0.477 -103.984
v 166.146 0.477 -102.009
v 163.888 0.477 -95.956
v 158.594 4.377 -97.931
v 160.852 4.377 -103.984
v 166.146 4.377 -102.009
v 163.888 4.377 -95.956
f 720 719 718 717
f 713 714 718 717
f 714 715 719 718
f 715 716 720 719
f 716 713 717 720
v 140.075 0.838 -117.180
v 159.949 0.838 -112.896
v 157.005 0.838 -99.240
v 137.131 0.838 -103.524
v 140.075 4.738 -117.180
v 159.949 4.738 -112.896
v 157.005 4.738 -99.240
v 137.131 4.738 -103.524
f 728 727 726 725
f 721 722 726 725
f 722 723 727 726
f 723 724 728 727
f 724 721 725 728
v -85.379 0.930 -133.053
v -81.948 0.930 -151.069
v -67.861 0.930 -148.387
v -71.292 0.930 -130.371
v -85.379 4.830 -133.053
v -81.948 4.830 -151.069
v -67.861 4.830 -148.387
v -71.292 4.830 -130.371
f 736 735 734 733
f 729 730 734 733
f 730 731 735 734
f 731 732 736 735
f 732 729 733 736
v -72.587 0.751 -149.222
v -62.925 0.751 -162.126
v -50.413 0.751 -152.758
v -60.075 0.751 -139.854
v -72.587 4.651 -149.222
v -62.925 4.651 -162.126
v -50.413 4.651 -152.758
v -60.075 4.651 -139.854
f 744 743 742 741
f 737 738 742 741
f 738 739 743 742
f 739 740 744 743
f 740 737 741 744
v -56.696 0.507 -140.373
v -55.171 0.507 -144.607
v -51.784 0.507 -143.387
v -53.309 0.507 -139.153
v -56.696 4.407 -140.373
v -55.171 4.407 -144.607
v -51.784 4.407 -143.387
v -53.309 4.407 -139.153
f 752 751 750 749
f 745 746 750 749
f 746 747 751 750
f 747 748 752 751
f 748 745 749 752
v -52.199 0.418 -131.160
v -50.393 0.418 -136.482
v -46.321 0.418 -135.100
v -48.127 0.418 -129.778
v -52.199 4.318 -131.160
v -50.393 4.318 -136.482
v -46.321 4.318 -135.100
v -48.127 4.318 -129.778
f 760 759 758 757
f 753 754 758 757
f 754 755 759 758
f 755 756 760 759
f 756 753 757 760
v -53.895 0.537 -151.261
v -46.552 0.537 -165.431
v -35.685 0.537 -159.799
v -43.028 0.537 -145.629
v -53.895 4.437 -151.261
v -46.552 4.437 -165.431
v -35.685 4.437 -159.799
v -43.028 4.437 -145.629
f 768 767 766 765
f 761 762 766 765
f 762 763 767 766
f 763 764 768 767
f 764 761 765 768
v -36.803 0.730 -157.405
v -31.303 0.730 -171.564
v -18.617 0.730 -166.635
v -24.117 0.730 -152.476
v -36.803 4.630 -157.405
v -31.303 4.630 -171.564
v -18.617 4.630 -166.635
v -24.117 4.630 -152.476
f 776 775 774 773
f 769 770 774 773
f 770 771 775 774
f 771 772 776 775
f 772 769 773 776
v -10.952 0.538 -179.612
v 1.128 0.538 -168.285
v -10.028 0.538 -156.388
v -22.108 0.538 -167.715
v -10.952 4.438 -179.612
v 1.128 4.438 -168.285
v -10.028 4.438 -156.388
v -22.108 4.438 -167.715
f 784 783 782 781
f 777 778 782 781
f 778 779 783 782
f 779 780 784 783
f 780 777 781 784
v -2.116 0.662 -164.999
v 2.281 0.662 -182.423
v 16.796 0.662 -178.761
v 12.399 0.662 -161.337
v -2.116 4.562 -164.999
v 2.281 4.562 -182.423
v 16.796 4.562 -178.761
v 12.399 4.562 -161.337
f 792 791 790 789
f 785 786 790 789
f 786 787 791 790
f 787 788 792 791
f 788 785 789 792
v 3.214 0.613 -159.728
v 12.851 0.613 -159.489
v 12.606 0.613 -149.632
v 2.969 0.613 -149.871
v 3.214 4.513 -159.728
v 12.851 4.513 -159.489
v 12.606 4.513 -149.632
v 2.969 4.513 -149.871
f 800 799 798 797
f 793 794 798 797
f 794 795 799 798
f 795 796 800 799
f 796 793 797 800
v 20.668 0.270 -157.593
v 22.758 0.270 -163.515
v 27.652 0.270 -161.787
v 25.562 0.270 -155.865
v 20.668 4.170 -157.593
v 22.758 4.170 -163.515
v 27.652 4.170 -161.787
v 25.562 4.170 -155.865
f 808 807 806 805
f 801 802 806 805
f 802 803 807 806
f 803 804 808 807
f 804 801 805 808
v 21.804 0.595 -189.305
v 36.423 0.595 -181.192
v 27.256 0.595 -164.675
v 12.637 0.595 -172.788
v 21.804 4.495 -189.305
v 36.423 4.495 -181.192
v 27.256 4.495 -164.675
v 12.637 4.495 -172.788
f 816 815 814 813
f 809 810 814 813
f 810 811 815 814
f 811 812 816 815
f 812 809 813 816
v 52.810 0.610 -199.100
v 66.772 0.610 -195.336
v 62.810 0.610 -180.640
v 48.848 0.610 -184.404
v 52.810 4.510 -199.100
v 66.772 4.510 -195.336
v 62.810 4.510 -180.640
v 48.848 4.510 -184.404
f 824 823 822 821
f 817 818 822 821
f 818 819 823 822
f 819 820 824 823
f 820 817 821 824
v 64.744 0.529 -193.617
v 72.780 0.529 -206.859
v 83.056 0.529 -200.623
v 75.020 0.529 -187.381
v 64.744 4.429 -193.617
v 72.780 4.429 -206.859
v 83.056 4.429 -200.623
v 75.020 4.429 -187.381
f 832 831 830 829
f 825 826 830 829
f 826 827 831 830
f 827 828 832 831
f 828 825 829 832
v 79.700 0.524 -184.475
v 86.130 0.524 -182.202
v 84.540 0.524 -177.705
v 78.110 0.524 -179.978
v 79.700 4.424 -184.475
v 86.130 4.424 -182.202
v 84.540 4.424 -177.705
v 78.110 4.424 -179.978
f 840 839 838 837
f 833 834 838 837
f 834 835 839 838
f 835 836 840 839
f 836 833 837 840
v 88.448 0.291 -177.818
v 91.147 0.291 -185.200
v 96.012 0.291 -183.422
v 93.313 0.291 -176.040
v 88.448 4.191 -177.818
v 91.147 4.191 -185.200
v 96.012 4.191 -183.422
v 93.313 4.191 -176.040
f 848 847 846 845
f 841 842 846 845
f 842 843 847 846
f 843 844 848 847
f 844 841 845 848
v 95.659 0.712 -203.345
v 111.775 0.712 -221.759
v 125.101 0.712 -210.095
v 108.985 0.712 -191.681
v 95.659 4.612 -203.345
v 111.775 4.612 -221.759
v 125.101 4.612 -210.095
v 108.985 4.612 -191.681
f 856 855 854 853
f 849 850 854 853
f 850 851 855 854
f 851 852 856 855
f 852 849 853 856
v 115.089 0.449 -197.949
v 120.650 0.449 -195.671
v 119.331 0.449 -192.451
v 113.770 0.449 -194.729
v 115.089 4.349 -197.949
v 120.650 4.349 -195.671
v 119.331 4.349 -192.451
v 113.770 4.349 -194.729
f 864 863 862 861
f 857 858 862 861
f 858 859 863 862
f 859 860 864 863
f 860 857 861 864
v 116.643 0.695 -202.879
v 118.138 0.695 -222.954
v 136.297 0.695 -221.601
v 134.802 0.695 -201.526
v 116.643 4.595 -202.879
v 118.138 4.595 -222.954
v 136.297 4.595 -221.601
v 134.802 4.595 -201.526
f 872 871 870 869
f 865 866 870 869
f 866 867 871 870
f 867 868 872 871
f 868 865 869 872
v 132.464 0.817 -212.367
v 141.318 0.817 -231.089
v 154.716 0.817 -224.753
v 145.862 0.817 -206.031
v 132.464 4.717 -212.367
v 141.318 4.717 -231.089
v 154.716 4.717 -224.753
v 145.862 4.717 -206.031
f 880 879 878 877
f 873 874 878 877
f 874 875 879 878
f 875 876 880 879
f 876 873 877 880
v 154.850 0.763 -231.506
v 167.130 0.763 -227.148
v 164.250 0.763 -219.034
v 151.970 0.763 -223.392
v 154.850 4.663 -231.506
v 167.130 4.663 -227.148
v 164.250 4.663 -219.034
v 151.970 4.663 -223.392
f 888 887 886 885
f 881 882 886 885
f 882 883 887 886
f 883 884 888 887
f 884 881 885 888
v 158.064 0.339 -210.001
v 166.132 0.339 -207.296
v 164.276 0.339 -201.759
v 156.208 0.339 -204.464
v 158.064 4.239 -210.001
v 166.132 4.239 -207.296
v 164.276 4.239 -201.759
v 156.208 4.239 -204.464
f 896 895 894 893
f 889 890 894 893
f 890 891 895 894
f 891 892 896 895
f 892 889 893 896
v 181.950 0.481 -225.733
v 190.728 0.481 -249.611
v 205.210 0.481 -244.287
v 196.432 0.481 -220.409
v 181.950 4.381 -225.733
v 190.728 4.381 -249.611
v 205.210 4.381 -244.287
v 196.432 4.381 -220.409
f 904 903 902 901
f 897 898 902 901
f 898 899 903 902
f 899 900 904 903
f 900 897 901 904
v 202.276 0.544 -236.464
v 207.289 0.544 -250.165
v 220.324 0.544 -245.396
v 215.311 0.544 -231.695
v 202.276 4.444 -236.464
v 207.289 4.444 -250.165
v 220.324 4.444 -245.396
v 215.311 4.444 -231.695
f 912 911 910 909
f 905 906 910 909
f 906 907 911 910
f 907 908 912 911
f 908 905 909 912
v 232.989 0.672 -258.418
v 237.965 0.672 -237.378
v 222.171 0.672 -233.642
v 217.195 0.672 -254.682
v 232.989 4.572 -258.418
v 237.965 4.572 -237.378
v 222.171 4.572 -233.642
v 217.195 4.572 -254.682
f 920 919 918 917
f 913 914 918 917
f 914 915 919 918
f 915 916 920 919
f 916 913 917 920
v 232.774 0.806 -245.550
v 244.747 0.806 -262.875
v 257.226 0.806 -254.250
v 245.253 0.806 -236.925
v 232.774 4.706 -245.550
v 244.747 4.706 -262.875
v 257.226 4.706 -254.250
v 245.253 4.706 -236.925
f 928 927 926 925
f 921 922 926 925
f 922 923 927 926
f 923 924 928 927
f 924 921 925 928
v -189.265 0.298 -252.878
v -178.180 0.298 -264.719
v -165.535 0.298 -252.882
v -176.620 0.298 -241.041
v -189.265 4.198 -252.878
v -178.180 4.198 -264.719
v -165.535 4.198 -252.882
v -176.620 4.198 -241.041
f 936 935 934 933
f 929 930 934 933
f 930 931 935 934
f 931 932 936 935
f 932 929 933 936
v -203.287 0.220 -237.169
v -199.930 0.220 -255.047
v -184.293 0.220 -252.111
v -187.650 0.220 -234.233
v -203.287 4.120 -237.169
v -199.930 4.120 -255.047
v -184.293 4.120 -252.111
v -187.650 4.120 -234.233
f 944 943 942 941
f 937 938 942 941
f 938 939 943 942
f 939 940 944 943
f 940 937 941 944
v -216.791 0.299 -243.526
v -202.872 0.299 -240.564
v -205.249 0.299 -229.394
v -219.168 0.299 -232.356
v -216.791 4.199 -243.526
v -202.872 4.199 -240.564
v -205.249 4.199 -229.394
v -219.168 4.199 -232.356
f 952 951 950 949
f 945 946 950 949
f 946 947 951 950
f 947 948 952 951
f 948 945 949 952
v -231.929 0.218 -238.875
v -218.641 0.218 -232.995
v -223.371 0.218 -222.305
v -236.659 0.218 -228.185
v -231.929 4.118 -238.875
v -218.641 4.118 -232.995
v -223.371 4.118 -222.305
v -236.659 4.118 -228.185
f 960 959 958 957
f 953 954 958 957
f 954 955 959 958
f 955 956 960 959
f 956 953 957 960
v -254.872 0.239 -218.708
v -253.529 0.239 -237.820
v -237.768 0.239 -236.712
v -239.111 0.239 -217.600
v -254.872 4.139 -218.708
v -253.529 4.139 -237.820
v -237.768 4.139 -236.712
v -239.111 4.139 -217.600
f 968 967 966 965
f 961 962 966 965
f 962 963 967 966
f 963 964 968 967
f 964 961 965 968
v -101.885 0.724 -228.283
v -89.083 0.724 -217.590
v -98.615 0.724 -206.177
v -111.417 0.724 -216.870
v -101.885 4.624 -228.283
v -89.083 4.624 -217.590
v -98.615 4.624 -206.177
v -111.417 4.624 -216.870
f 976 975 974 973
f 969 970 974 973
f 970 971 975 974
f 971 972 976 975
f 972 969 973 976
v -97.828 0.417 -197.864
v -92.526 0.417 -196.256
v -93.472 0.417 -193.136
v -98.774 0.417 -194.744
v -97.828 4.317 -197.864
v -92.526 4.317 -196.256
v -93.472 4.317 -193.136
v -98.774 4.317 -194.744
f 984 983 982 981
f 977 978 982 981
f 978 979 983 982
f 979 980 984 983
f 980 977 981 984
v -93.505 0.416 -201.527
v -89.470 0.416 -200.361
v -90.195 0.416 -197.853
v -94.230 0.416 -199.019
v -93.505 4.316 -201.527
v -89.470 4.316 -200.361
v -90.195 4.316 -197.853
v -94.230 4.316 -199.019
f 992 991 990 989
f 985 986 990 989
f 986 987 991 990
f 987 988 992 991
f 988 985 989 992
v -82.749 0.335 -198.838
v -76.520 0.335 -183.279
v -92.451 0.335 -176.902
v -98.680 0.335 -192.461
v -82.749 4.235 -198.838
v -76.520 4.235 -183.279
v -92.451 4.235 -176.902
v -98.680 4.235 -192.461
f 1000 999 998 997
f 993 994 998 997
f 994 995 999 998
f 995 996 1000 999
f 996 993 997 1000
v -101.060 0.559 -225.334
v -80.049 0.559 -240.716
v -68.240 0.559 -224.586
v -89.251 0.559 -209.204
v -101.060 4.459 -225.334
v -80.049 4.459 -240.716
v -68.240 4.459 -224.586
v -89.251 4.459 -209.204
f 1008 1007 1006 1005
f 1001 1002 1006 1005
f 1002 1003 1007 1006
f 1003 1004 1008 1007
f 1004 1001 1005 1008
v -76.349 0.619 -210.981
v -74.339 0.619 -216.857
v -69.551 0.619 -215.219
v -71.561 0.619 -209.343
v -76.349 4.519 -210.981
v -74.339 4.519 -216.857
v -69.551 4.519 -215.219
v -71.561 4.519 -209.343
f 1016 1015 1014 1013
f 1009 1010 1014 1013
f 1010 1011 1015 1014
f 1011 1012 1016 1015
f 1012 1009 1013 1016
v -60.101 0.439 -207.585
v -46.558 0.439 -204.199
v -49.859 0.439 -190.995
v -63.402 0.439 -194.381
v -60.101 4.339 -207.585
v -46.558 4.339 -204.199
v -49.859 4.339 -190.995
v -63.402 4.339 -194.381
f 1024 1023 1022 1021
f 1017 1018 1022 1021
f 1018 1019 1023 1022
f 1019 1020 1024 1023
f 1020 1017 1021 1024
v -46.973 -0.208 -199.288
v -36.370 -0.208 -217.171
v -24.327 -0.208 -210.032
v -34.930 -0.208 -192.149
v -46.973 3.692 -199.288
v -36.370 3.692 -217.171
v -24.327 3.692 -210.032
v -34.930 3.692 -192.149
f 1032 1031 1030 1029
f 1025 1026 1030 1029
f 1026 1027 1031 1030
f 1027 1028 1032 1031
f 1028 1025 1029 1032
v -31.428 0.592 -208.996
v -23.706 0.592 -222.436
v -9.972 0.592 -214.544
v -17.694 0.592 -201.104
v -31.428 4.492 -208.996
v -23.706 4.492 -222.436
v -9.972 4.492 -214.544
v -17.694 4.492 -201.104
f 1040 1039 1038 1037
f 1033 1034 1038 1037
f 1034 1035 1039 1038
f 1035 1036 1040 1039
f 1036 1033 1037 1040
v -25.827 0.458 -228.069
v -15.462 0.458 -225.142
v -16.973 0.458 -219.791
v -27.338 0.458 -222.718
v -25.827 4.358 -228.069
v -15.462 4.358 -225.142
v -16.973 4.358 -219.791
v -27.338 4.358 -222.718
f 1048 1047 1046 1045
f 1041 1042 1046 1045
f 1042 1043 1047 1046
f 1043 1044 1048 1047
f 1044 1041 1045 1048
v -15.230 0.527 -212.836
v -7.125 0.527 -234.339
v 5.330 0.527 -229.644
v -2.775 0.527 -208.141
v -15.230 4.427 -212.836
v -7.125 4.427 -234.339
v 5.330 4.427 -229.644
v -2.775 4.427 -208.141
f 1056 1055 1054 1053
f 1049 1050 1054 1053
f 1050 1051 1055 1054
f 1051 1052 1056 1055
f 1052 1049 1053 1056
v 3.663 0.510 -228.315
v 22.701 0.510 -230.955
v 25.157 0.510 -213.245
v 6.119 0.510 -210.605
v 3.663 4.410 -228.315
v 22.701 4.410 -230.955
v 25.157 4.410 -213.245
v 6.119 4.410 -210.605
f 1064 1063 1062 1061
f 1057 1058 1062 1061
f 1058 1059 1063 1062
f 1059 1060 1064 1063
f 1060 1057 1061 1064
v 40.619 0.521 -238.358
v 41.452 0.521 -212.611
v 23.261 0.521 -212.022
v 22.428 0.521 -237.769
v 40.619 4.421 -238.358
v 41.452 4.421 -212.611
v 23.261 4.421 -212.022
v 22.428 4.421 -237.769
f 1072 1071 1070 1069
f 1065 1066 1070 1069
f 1066 1067 1071 1070
f 1067 1068 1072 1071
f 1068 1065 1069 1072
v 38.837 0.344 -218.055
v 40.934 0.344 -224.911
v 44.683 0.344 -223.765
v 42.586 0.344 -216.909
v 38.837 4.244 -218.055
v 40.934 4.244 -224.911
v 44.683 4.244 -223.765
v 42.586 4.244 -216.909
f 1080 1079 1078 1077
f 1073 1074 1078 1077
f 1074 1075 1079 1078
f 1075 1076 1080 1079
f 1076 1073 1077 1080
v 40.413 0.508 -239.845
v 57.131 0.508 -242.582
v 59.867 0.508 -225.875
v 43.149 0.508 -223.138
v 40.413 4.408 -239.845
v 57.131 4.408 -242.582
v 59.867 4.408 -225.875
v 43.149 4.408 -223.138
f 1088 1087 1086 1085
f 1081 1082 1086 1085
f 1082 1083 1087 1086
f 1083 1084 1088 1087
f 1084 1081 1085 1088
v 74.538 0.486 -251.009
v 77.451 0.486 -234.108
v 62.502 0.486 -231.531
v 59.589 0.486 -248.432
v 74.538 4.386 -251.009
v 77.451 4.386 -234.108
v 62.502 4.386 -231.531
v 59.589 4.386 -248.432
f 1096 1095 1094 1093
f 1089 1090 1094 1093
f 1090 1091 1095 1094
f 1091 1092 1096 1095
f 1092 1089 1093 1096
v 63.874 0.531 -256.501
v 69.805 0.531 -254.378
v 68.646 0.531 -251.139
v 62.715 0.531 -253.262
v 63.874 4.431 -256.501
v 69.805 4.431 -254.378
v 68.646 4.431 -251.139
v 62.715 4.431 -253.262
f 1104 1103 1102 1101
f 1097 1098 1102 1101
f 1098 1099 1103 1102
f 1099 1100 1104 1103
f 1100 1097 1101 1104
v 70.045 0.535 -249.957
v 89.591 0.535 -258.937
v 97.895 0.535 -240.863
v 78.349 0.535 -231.883
v 70.045 4.435 -249.957
v 89.591 4.435 -258.937
v 97.895 4.435 -240.863
v 78.349 4.435 -231.883
f 1112 1111 1110 1109
f 1105 1106 1110 1109
f 1106 1107 1111 1110
f 1107 1108 1112 1111
f 1108 1105 1109 1112
v 107.541 0.520 -263.490
v 111.744 0.520 -242.629
v 97.059 0.520 -239.670
v 92.856 0.520 -260.531
v 107.541 4.420 -263.490
v 111.744 4.420 -242.629
v 97.059 4.420 -239.670
v 92.856 4.420 -260.531
f 1120 1119 1118 1117
f 1113 1114 1118 1117
f 1114 1115 1119 1118
f 1115 1116 1120 1119
f 1116 1113 1117 1120
v -29.074 0.557 -245.270
v -11.878 0.557 -261.448
v 0.614 0.557 -248.170
v -16.582 0.557 -231.992
v -29.074 4.457 -245.270
v -11.878 4.457 -261.448
v 0.614 4.457 -248.170
v -16.582 4.457 -231.992
f 1128 1127 1126 1125
f 1121 1122 1126 1125
f 1122 1123 1127 1126
f 1123 1124 1128 1127
f 1124 1121 1125 1128
v -29.134 0.548 -252.905
v -21.582 0.548 -238.686
v -35.086 0.548 -231.515
v -42.638 0.548 -245.734
v -29.134 4.448 -252.905
v -21.582 4.448 -238.686
v -35.086 4.448 -231.515
v -42.638 4.448 -245.734
f 1136 1135 1134 1133
f 1129 1130 1134 1133
f 1130 1131 1135 1134
f 1131 1132 1136 1135
f 1132 1129 1133 1136
v -53.112 0.472 -242.843
v -39.184 0.472 -239.880
v -41.908 0.472 -227.077
v -55.836 0.472 -230.040
v -53.112 4.372 -242.843
v -39.184 4.372 -239.880
v -41.908 4.372 -227.077
v -55.836 4.372 -230.040
f 1144 1143 1142 1141
f 1137 1138 1142 1141
f 1138 1139 1143 1142
f 1139 1140 1144 1143
f 1140 1137 1141 1144
v -67.663 0.503 -241.016
v -55.447 0.503 -231.123
v -63.837 0.503 -220.764
v -76.053 0.503 -230.657
v -67.663 4.403 -241.016
v -55.447 4.403 -231.123
v -63.837 4.403 -220.764
v -76.053 4.403 -230.657
f 1152 1151 1150 1149
f 1145 1146 1150 1149
f 1146 1147 1151 1150
f 1147 1148 1152 1151
f 1148 1145 1149 1152
v 181.588 0.834 -244.238
v 192.148 0.834 -225.499
v 173.592 0.834 -215.042
v 163.032 0.834 -233.781
v 181.588 4.734 -244.238
v 192.148 4.734 -225.499
v 173.592 4.734 -215.042
v 163.032 4.734 -233.781
f 1160 1159 1158 1157
f 1153 1154 1158 1157
f 1154 1155 1159 1158
f 1155 1156 1160 1159
f 1156 1153 1157 1160
v 175.268 0.934 -166.531
v 192.819 0.934 -158.650
v 186.892 0.934 -145.449
v 169.341 0.934 -153.330
v 175.268 4.834 -166.531
v 192.819 4.834 -158.650
v 186.892 4.834 -145.449
v 169.341 4.834 -153.330
f 1168 1167 1166 1165
f 1161 1162 1166 1165
f 1162 1163 1167 1166
f 1163 1164 1168 1167
f 1164 1161 1165 1168
v 246.280 0.910 -98.495
v 260.708 0.910 -94.815
v 257.120 0.910 -80.745
v 242.692 0.910 -84.425
v 246.280 4.810 -98.495
v 260.708 4.810 -94.815
v 257.120 4.810 -80.745
v 242.692 4.810 -84.425
f 1176 1175 1174 1173
f 1169 1170 1174 1173
f 1170 1171 1175 1174
f 1171 1172 1176 1175
f 1172 1169 1173 1176
v -229.774 0.204 -256.095
v -224.890 0.204 -254.772
v -226.186 0.204 -249.985
v -231.070 0.204 -251.308
v -229.774 4.104 -256.095
v -224.890 4.104 -254.772
v -226.186 4.104 -249.985
v -231.070 4.104 -251.308
f 1184 1183 1182 1181
f 1177 1178 1182 1181
f 1178 1179 1183 1182
f 1179 1180 1184 1183
f 1180 1177 1181 1184
v -213.630 0.163 -249.748
v -210.507 0.163 -248.744
v -211.450 0.163 -245.812
v -214.573 0.163 -246.816
v -213.630 4.063 -249.748
v -210.507 4.063 -248.744
v -211.450 4.063 -245.812
v -214.573 4.063 -246.816
f 1192 1191 1190 1189
f 1185 1186 1190 1189
f 1186 1187 1191 1190
f 1187 1188 1192 1191
f 1188 1185 1189 1192
v -150.051 0.216 -188.013
v -146.164 0.216 -204.809
v -136.909 0.216 -202.667
v -140.796 0.216 -185.871
v -150.051 4.116 -188.013
v -146.164 4.116 -204.809
v -136.909 4.116 -202.667
v -140.796 4.116 -185.871
f 1200 1199 1198 1197
f 1193 1194 1198 1197
f 1194 1195 1199 1198
f 1195 1196 1200 1199
f 1196 1193 1197 1200
v -176.734 0.303 -184.582
v -168.794 0.303 -198.507
v -161.166 0.303 -194.158
v -169.106 0.303 -180.233
v -176.734 4.203 -184.582
v -168.794 4.203 -198.507
v -161.166 4.203 -194.158
v -169.106 4.203 -180.233
f 1208 1207 1206 1205
f 1201 1202 1206 1205
f 1202 1203 1207 1206
f 1203 1204 1208 1207
f 1204 1201 1205 1208
usemtl road
v -136.802 0.420 -247.708
v -134.092 0.566 -240.538
v -128.948 0.575 -242.482
v -131.658 0.424 -249.652
f 1209 1210 1211 1212
v -134.100 0.565 -240.558
v -130.120 0.469 -229.778
v -124.960 0.483 -231.682
v -128.940 0.576 -242.462
f 1213 1214 1215 1216
v -130.137 0.471 -229.825
v -127.997 0.383 -223.685
v -122.803 0.391 -225.495
v -124.943 0.481 -231.635
f 1217 1218 1219 1220
v -127.996 0.383 -223.683
v -104.846 0.327 -157.393
v -99.654 0.330 -159.207
v -122.804 0.391 -225.497
f 1221 1222 1223 1224
v -104.731 0.327 -157.114
v -96.291 0.368 -139.464
v -91.329 0.470 -141.836
v -99.769 0.331 -159.486
f 1225 1226 1227 1228
v -96.406 0.365 -139.744
v -88.376 0.120 -116.734
v -83.184 0.120 -118.546
v -91.214 0.467 -141.556
f 1229 1230 1231 1232
v -95.389 0.381 -141.405
v -99.029 0.425 -133.795
v -95.871 0.464 -132.285
v -92.231 0.430 -139.895
f 1233 1234 1235 1236
v -99.112 0.455 -132.492
v -91.562 0.120 -109.592
v -88.238 0.120 -110.688
v -95.788 0.446 -133.588
f 1237 1238 1239 1240
v -255.795 1.409 211.972
v -218.625 1.458 207.588
v -219.035 1.499 204.112
v -256.205 1.472 208.496
f 1241 1242 1243 1244
v -218.878 1.463 207.599
v -194.158 0.977 208.279
v -194.062 1.038 204.781
v -218.782 1.494 204.101
f 1245 1246 1247 1248
v -194.498 0.980 208.236
v -177.408 0.935 212.126
v -176.632 0.990 208.714
v -193.722 1.035 204.824
f 1249 1250 1251 1252
v -177.914 0.932 211.924
v -155.444 0.902 225.284
v -153.656 0.918 222.276
v -176.126 0.993 208.916
f 1253 1254 1255 1256
v -155.587 0.904 225.190
v -137.457 0.891 238.520
v -135.383 0.965 235.700
v -153.513 0.918 222.370
f 1257 1258 1259 1260
v -137.819 0.883 238.161
v -128.649 0.910 250.371
v -125.851 0.956 248.269
v -135.021 0.969 236.059
f 1261 1262 1263 1264
v -128.909 0.912 249.877
v -126.664 0.888 256.557
v -123.346 0.915 255.443
v -125.591 0.951 248.763
f 1265 1266 1267 1268
v -254.523 0.441 -181.825
v -158.593 0.433 -215.159
v -161.547 0.677 -223.661
v -257.477 0.671 -190.326
f 1269 1270 1271 1272
v -158.591 0.433 -215.160
v -126.061 0.369 -226.480
v -129.019 0.575 -234.980
v -161.549 0.677 -223.660
f 1273 1274 1275 1276
v 180.823 0.521 -258.837
v -103.226 0.324 -161.137
v -101.274 0.315 -155.463
v 182.775 0.436 -253.163
f 1277 1278 1279 1280
v -255.399 0.793 -8.373
v -161.229 0.723 -29.466
v -162.431 0.823 -34.834
v -256.601 0.847 -13.740
f 1281 1282 1283 1284
v -161.144 0.724 -29.487
v -128.814 0.732 -37.817
v -130.186 0.784 -43.143
v -162.516 0.822 -34.813
f 1285 1286 1287 1288
v -128.699 0.733 -37.849
v -60.119 0.691 -58.739
v -61.721 0.818 -64.001
v -130.301 0.784 -43.111
f 1289 1290 1291 1292
v -60.016 0.690 -58.773
v 32.444 0.722 -90.943
v 30.636 0.785 -96.137
v -61.824 0.818 -63.967
f 1293 1294 1295 1296
v 32.443 0.722 -90.943
v 53.783 0.625 -98.363
v 51.977 0.766 -103.557
v 30.637 0.785 -96.137
f 1297 1298 1299 1300
v 53.554 0.626 -98.294
v 64.074 0.577 -100.954
v 62.726 0.748 -106.286
v 52.206 0.767 -103.626
f 1301 1302 1303 1304
v 63.383 0.554 -100.870
v 69.993 0.648 -100.830
v 70.027 0.716 -106.330
v 63.417 0.746 -106.370
f 1305 1306 1307 1308
v 68.526 0.643 -101.265
v 72.786 0.659 -98.535
v 75.754 0.716 -103.165
v 71.494 0.710 -105.895
f 1309 1310 1311 1312
v 71.920 0.658 -99.421
v 76.170 0.727 -92.431
v 80.870 0.742 -95.289
v 76.620 0.715 -102.279
f 1313 1314 1315 1316
v 75.929 0.723 -92.939
v 126.499 0.738 49.301
v 131.681 0.772 47.459
v 81.111 0.751 -94.781
f 1317 1318 1319 1320
v 28.823 0.782 -93.115
v 30.683 0.923 -81.215
v 36.117 0.900 -82.065
v 34.257 0.766 -93.965
f 1321 1322 1323 1324
v 30.660 0.917 -81.405
v 31.930 1.016 -66.605
v 37.410 1.033 -67.075
v 36.140 0.904 -81.875
f 1325 1326 1327 1328
v 31.921 1.016 -66.775
v 34.471 0.847 40.315
v 39.969 0.858 40.185
v 37.419 1.034 -66.905
f 1329 1330 1331 1332
v 34.609 0.836 41.114
v 35.949 0.743 45.164
v 41.171 0.780 43.436
v 39.831 0.873 39.386
f 1333 1334 1335 1336
v 36.608 0.722 46.237
v 39.288 0.650 48.937
v 43.192 0.729 45.063
v 40.512 0.809 42.363
f 1337 1338 1339 1340
v 41.197 0.652 49.750
v 129.047 0.707 51.130
v 129.133 0.765 45.630
v 41.283 0.760 44.250
f 1341 1342 1343 1344
v 128.919 0.706 51.125
v 225.279 0.748 57.145
v 225.621 0.825 51.655
v 129.261 0.765 45.635
f 1345 1346 1347 1348
v 153.301 0.692 -153.571
v 222.841 0.805 55.269
v 228.059 0.833 53.531
v 158.519 0.662 -155.309
f 1349 1350 1351 1352
v -255.367 1.649 121.784
v -243.907 1.677 119.313
v -245.173 1.711 113.447
v -256.633 1.684 115.919
f 1353 1354 1355 1356
v -243.650 1.675 119.245
v -205.390 1.609 107.365
v -207.170 1.633 101.635
v -245.430 1.712 113.515
f 1357 1358 1359 1360
v -205.575 1.609 107.416
v -189.935 1.665 103.636
v -191.345 1.619 97.804
v -206.985 1.632 101.584
f 1361 1362 1363 1364
v -190.303 1.656 103.701
v -172.063 1.638 101.641
v -172.737 1.655 95.679
v -190.977 1.619 97.739
f 1365 1366 1367 1368
v -172.417 1.638 101.660
v -130.757 1.618 101.890
v -130.723 1.636 95.890
v -172.383 1.655 95.660
f 1369 1370 1371 1372
v -130.739 1.618 101.890
v -57.819 1.043 101.870
v -57.821 1.351 95.870
v -130.741 1.636 95.890
f 1373 1374 1375 1376
v -57.802 1.043 101.870
v 91.928 0.738 100.970
v 91.892 1.189 94.970
v -57.838 1.351 95.870
f 1377 1378 1379 1380
v 91.960 0.740 100.970
v 246.920 1.057 98.380
v 246.820 1.168 92.380
v 91.860 1.189 94.970
f 1381 1382 1383 1384
v -132.820 0.477 -245.293
v -162.670 0.479 -235.033
v -160.070 0.709 -227.467
v -130.220 0.601 -237.727
f 1385 1386 1387 1388
v -162.676 0.480 -235.031
v -257.306 0.441 -202.346
v -254.694 0.763 -194.785
v -160.064 0.709 -227.469
f 1389 1390 1391 1392
v -115.336 0.670 257.084
v -113.356 0.662 254.574
v -116.104 0.663 252.406
v -118.084 0.616 254.916
f 1393 1394 1395 1396
v -113.022 0.651 253.872
v -111.442 0.647 246.812
v -114.858 0.654 246.048
v -116.438 0.674 253.108
f 1397 1398 1399 1400
v -111.400 0.654 246.389
v -112.310 0.700 207.789
v -115.810 0.658 207.871
v -114.900 0.650 246.471
f 1401 1402 1403 1404
v -112.319 0.702 208.010
v -111.349 0.624 198.610
v -114.831 0.634 198.250
v -115.801 0.657 207.650
f 1405 1406 1407 1408
v -111.488 0.626 199.135
v -107.308 0.538 189.635
v -110.512 0.547 188.225
v -114.692 0.631 197.725
f 1409 1410 1411 1412
v -107.758 0.554 190.248
v -98.458 0.388 182.118
v -100.762 0.390 179.482
v -110.062 0.531 187.612
f 1413 1414 1415 1416
v -98.734 0.392 182.315
v -89.434 0.391 176.935
v -91.186 0.304 173.905
v -100.486 0.386 179.285
f 1417 1418 1419 1420
v -89.690 0.391 177.056
v -78.240 0.273 172.716
v -79.480 0.258 169.444
v -90.930 0.305 173.784
f 1421 1422 1423 1424
v -78.747 0.273 172.826
v -65.567 0.293 171.976
v -65.793 0.268 168.484
v -78.973 0.261 169.334
f 1425 1426 1427 1428
v -65.678 0.294 171.980
v -7.728 0.342 171.900
v -7.732 0.337 168.400
v -65.682 0.268 168.480
f 1429 1430 1431 1432
v -7.718 0.342 171.900
v 42.932 0.417 171.560
v 42.908 0.349 168.060
v -7.742 0.337 168.400
f 1433 1434 1435 1436
v 42.891 0.417 171.560
v 146.741 0.326 173.270
v 146.799 0.255 169.770
v 42.949 0.349 168.060
f 1437 1438 1439 1440
v 146.760 0.326 173.270
v 212.840 0.329 173.630
v 212.860 0.291 170.130
v 146.780 0.255 169.770
f 1441 1442 1443 1444
v 212.905 0.329 173.629
v 256.055 0.374 172.264
v 255.945 0.351 168.766
v 212.795 0.291 170.131
f 1445 1446 1447 1448
usemtl asphalt
v 67.815 0.841 242.640
v 90.325 0.863 242.530
v 90.175 0.819 212.030
v 67.665 0.802 212.140
f 1449 1450 1451 1452
v 90.327 0.863 242.530
v 256.077 0.753 241.695
v 255.923 0.741 211.196
v 90.173 0.819 212.030
f 1453 1454 1455 1456
v 99.199 0.746 256.016
v 99.250 1.027 227.296
v 81.250 0.996 227.264
v 81.199 0.730 255.984
f 1457 1458 1459 1460
v -15.895 0.940 232.810
v 67.765 0.936 232.390
v 67.715 0.932 222.390
v -15.945 0.957 222.810
f 1461 1462 1463 1464
v -30.980 0.889 209.258
v -30.850 0.796 246.398
v -20.850 0.799 246.362
v -20.980 0.814 209.222
f 1465 1466 1467 1468
v -25.867 0.871 241.380
v -109.057 1.016 241.670
v -109.023 0.678 251.670
v -25.833 0.711 251.380
f 1469 1470 1471 1472
v -104.040 0.769 246.651
v -104.180 0.962 209.501
v -114.180 0.737 209.539
v -114.040 0.686 246.689
f 1473 1474 1475 1476
v -109.163 1.041 214.520
v -25.963 0.888 214.240
v -25.997 0.724 204.240
v -109.197 0.704 204.520
f 1477 1478 1479 1480
