# Baked ultra-low Key West silhouette; generated by bake_key_west_far_city.py
mtllib far_city.mtl
usemtl massing
v -179.899 1.374 152.642
v -176.169 1.374 153.253
v -176.721 1.374 156.618
v -180.451 1.374 156.007
v -179.899 5.274 152.642
v -176.169 5.274 153.253
v -176.721 5.274 156.618
v -180.451 5.274 156.007
f 8 7 6 5
f 1 2 6 5
f 2 3 7 6
f 3 4 8 7
f 4 1 5 8
v -87.571 1.228 145.052
v -84.146 1.228 145.819
v -84.789 1.228 148.688
v -88.214 1.228 147.921
v -87.571 5.128 145.052
v -84.146 5.128 145.819
v -84.789 5.128 148.688
v -88.214 5.128 147.921
f 16 15 14 13
f 9 10 14 13
f 10 11 15 14
f 11 12 16 15
f 12 9 13 16
usemtl road
v -125.265 0.895 -251.448
v -124.035 0.910 -235.218
v -120.545 0.854 -235.482
v -121.775 0.886 -251.712
f 17 18 19 20
v -123.980 0.910 -234.896
v -121.290 0.912 -224.876
v -117.910 0.813 -225.784
v -120.600 0.858 -235.804
f 21 22 23 24
v -120.752 0.907 -224.013
v -114.062 0.896 -218.163
v -111.758 0.875 -220.797
v -118.448 0.833 -226.647
f 25 26 27 28
v -113.484 0.897 -217.827
v -104.374 0.861 -214.667
v -103.226 0.917 -217.973
v -112.336 0.870 -221.133
f 29 30 31 32
v -103.988 0.860 -214.580
v -88.938 1.022 -212.950
v -88.562 1.058 -216.430
v -103.612 0.918 -218.060
f 33 34 35 36
v -89.680 1.003 -213.207
v -81.230 1.119 -207.907
v -79.370 1.120 -210.873
v -87.820 1.068 -216.173
f 37 38 39 40
v -81.468 1.117 -208.087
v -12.008 0.700 -145.837
v -9.672 0.680 -148.443
v -79.132 1.122 -210.693
f 41 42 43 44
v -10.276 0.703 -145.483
v 61.574 0.326 -169.943
v 60.446 0.355 -173.257
v -11.404 0.680 -148.797
f 45 46 47 48
v 61.031 0.328 -169.850
v 233.201 0.490 -171.960
v 233.159 0.541 -175.460
v 60.989 0.350 -173.350
f 49 50 51 52
v 232.135 0.492 -172.306
v 243.025 0.283 -164.196
v 245.115 0.400 -167.004
v 234.225 0.536 -175.114
f 53 54 55 56
v 244.076 0.266 -163.850
v 256.006 0.293 -163.893
v 255.994 0.386 -167.393
v 244.064 0.397 -167.350
f 57 58 59 60
v 254.535 0.759 78.440
v 238.175 0.827 78.490
v 238.185 0.849 81.990
v 254.545 0.716 81.940
f 61 62 63 64
v 238.226 0.827 78.491
v 218.456 0.696 77.971
v 218.364 0.820 81.469
v 238.134 0.850 81.989
f 65 66 67 68
v 218.401 0.696 77.970
v 202.441 0.703 78.050
v 202.459 0.687 81.550
v 218.419 0.820 81.470
f 69 70 71 72
v 202.443 0.702 78.050
v 191.993 0.703 78.090
v 192.007 0.786 81.590
v 202.457 0.687 81.550
f 73 74 75 76
v 192.042 0.704 78.091
v 137.372 1.104 76.781
v 137.288 1.074 80.279
v 191.958 0.786 81.589
f 77 78 79 80
v 137.132 1.105 76.791
v 132.472 1.144 77.321
v 132.868 1.017 80.799
v 137.528 1.074 80.269
f 81 82 83 84
v 132.475 1.144 77.321
v 114.305 0.985 79.361
v 114.695 0.995 82.839
v 132.865 1.017 80.799
f 85 86 87 88
v 114.321 0.985 79.359
v 53.231 0.860 85.639
v 53.589 0.944 89.121
v 114.679 0.995 82.841
f 89 90 91 92
v 53.230 0.860 85.639
v 0.430 0.936 91.089
v 0.790 0.836 94.571
v 53.590 0.944 89.121
f 93 94 95 96
v 0.337 0.935 91.101
v -8.583 0.917 92.511
v -8.037 0.893 95.969
v 0.883 0.837 94.559
f 97 98 99 100
v -8.583 0.917 92.511
v -50.783 0.960 99.181
v -50.237 1.009 102.639
v -8.037 0.893 95.969
f 101 102 103 104
v -50.778 0.960 99.181
v -136.558 1.002 112.491
v -136.022 1.012 115.949
v -50.242 1.009 102.639
f 105 106 107 108
v -136.575 1.002 112.493
v -173.975 0.832 118.673
v -173.405 0.854 122.127
v -136.005 1.011 115.947
f 109 110 111 112
v -173.976 0.832 118.673
v -219.506 0.943 126.203
v -218.934 0.904 129.657
v -173.404 0.854 122.127
f 113 114 115 116
v -219.738 0.942 126.258
v -252.528 1.003 136.418
v -251.492 0.951 139.762
v -218.702 0.902 129.602
f 117 118 119 120
v -253.525 1.001 137.214
v -256.405 0.863 142.194
v -253.375 0.897 143.946
v -250.495 0.954 138.966
f 121 122 123 124
v -256.574 0.856 143.544
v -254.484 1.003 150.964
v -251.116 0.995 150.016
v -253.206 0.892 142.596
f 125 126 127 128
v -175.410 0.774 120.724
v -172.790 0.979 134.644
v -169.350 0.971 133.996
v -171.970 0.878 120.076
f 129 130 131 132
v -10.044 0.915 94.477
v -8.164 0.967 108.207
v -4.696 0.966 107.733
v -6.576 0.870 94.003
f 133 134 135 136
v 130.920 1.077 79.072
v 131.020 0.905 94.012
v 134.520 0.895 93.988
v 134.420 1.092 79.048
f 137 138 139 140
v 200.701 0.698 79.753
v 200.311 0.907 94.363
v 203.809 0.912 94.457
v 204.199 0.689 79.847
f 141 142 143 144
v 252.791 0.746 80.122
v 252.141 0.877 96.842
v 255.639 0.873 96.978
v 256.289 0.702 80.258
f 145 146 147 148
v 254.179 0.756 90.917
v 202.349 0.783 88.417
v 201.771 0.779 100.403
v 253.601 0.728 102.903
f 149 150 151 152
v 202.151 0.782 88.411
v 162.431 0.751 87.811
v 162.249 0.789 99.809
v 201.969 0.779 100.409
f 153 154 155 156
v 162.301 0.750 87.810
v 132.731 0.762 88.000
v 132.809 0.776 100.000
v 162.379 0.789 99.810
f 157 158 159 160
v 132.743 0.762 88.000
v 130.523 0.773 88.010
v 130.577 0.784 100.010
v 132.797 0.777 100.000
f 161 162 163 164
v 130.201 0.775 88.020
v 77.211 0.853 91.110
v 77.909 0.879 103.090
v 130.899 0.782 100.000
f 165 166 167 168
v 76.963 0.853 91.130
v 34.183 0.798 95.410
v 35.377 0.862 107.350
v 78.157 0.879 103.070
f 169 170 171 172
v 33.833 0.800 95.455
v -7.377 0.847 102.045
v -5.483 0.884 113.895
v 35.727 0.861 107.305
f 173 174 175 176
v -7.378 0.847 102.045
v -172.018 0.895 128.395
v -170.122 0.872 140.245
v -5.482 0.884 113.895
f 177 178 179 180
v -172.019 0.895 128.396
v -197.929 0.930 132.546
v -196.031 0.899 144.394
v -170.121 0.872 140.244
f 181 182 183 184
v -198.177 0.931 132.591
v -226.967 0.933 138.451
v -224.573 0.884 150.209
v -195.783 0.898 144.349
f 185 186 187 188
v -227.103 0.933 138.480
v -254.133 0.900 144.640
v -251.467 0.870 156.340
v -224.437 0.885 150.180
f 189 190 191 192
v -122.722 0.905 -250.023
v -117.142 0.658 -252.883
v -118.738 0.591 -255.997
v -124.318 0.913 -253.137
f 193 194 195 196
usemtl asphalt
v 137.703 0.680 -198.709
v 132.953 0.730 -198.779
v 132.687 0.642 -180.781
v 137.437 0.671 -180.711
f 197 198 199 200
v 133.510 0.725 -198.753
v 129.090 0.744 -199.093
v 127.710 0.650 -181.147
v 132.130 0.645 -180.807
f 201 202 203 204
v 130.359 0.741 -198.904
v 125.919 0.741 -199.894
v 122.001 0.699 -182.326
v 126.441 0.657 -181.336
f 205 206 207 208
v 126.882 0.740 -199.622
v 122.542 0.744 -201.112
v 116.698 0.771 -184.088
v 121.038 0.710 -182.598
f 209 210 211 212
v 122.998 0.746 -200.942
v 118.898 0.743 -202.602
v 112.142 0.784 -185.918
v 116.242 0.774 -184.258
f 213 214 215 216
v 119.871 0.742 -202.138
v 115.761 0.729 -204.408
v 107.059 0.803 -188.652
v 111.169 0.783 -186.382
f 217 218 219 220
v 116.670 0.735 -203.833
v 113.310 0.723 -206.253
v 102.790 0.792 -191.647
v 106.150 0.805 -189.227
f 221 222 223 224
v 113.824 0.722 -205.854
v 110.404 0.737 -208.714
v 98.856 0.798 -194.906
v 102.276 0.796 -192.046
f 225 226 227 228
v 110.994 0.733 -208.174
v 108.284 0.757 -210.884
v 95.556 0.800 -198.156
v 98.266 0.800 -195.446
f 229 230 231 232
v 108.914 0.756 -210.185
v 106.484 0.721 -213.185
v 92.496 0.817 -201.855
v 94.926 0.795 -198.855
f 233 234 235 236
v 107.039 0.731 -212.420
v 105.079 0.719 -215.440
v 89.981 0.810 -205.640
v 91.941 0.813 -202.620
f 237 238 239 240
v 105.209 0.719 -215.234
v 103.479 0.727 -218.064
v 88.121 0.811 -208.676
v 89.851 0.810 -205.846
f 241 242 243 244
v 104.027 0.722 -217.020
v 102.257 0.727 -221.010
v 85.803 0.781 -213.710
v 87.573 0.817 -209.720
f 245 246 247 248
v 102.470 0.728 -220.486
v 100.640 0.738 -225.426
v 83.760 0.770 -219.174
v 85.590 0.779 -214.234
f 249 250 251 252
v 100.977 0.736 -224.293
v 99.787 0.736 -229.533
v 82.233 0.747 -225.547
v 83.423 0.755 -220.307
f 253 254 255 256
v 99.927 0.738 -228.757
v 99.167 0.734 -234.327
v 81.333 0.739 -231.893
v 82.093 0.745 -226.323
f 257 258 259 260
v 99.249 0.733 -233.214
v 99.169 0.731 -240.124
v 81.171 0.736 -239.916
v 81.251 0.738 -233.006
f 261 262 263 264
v 99.170 0.731 -240.004
v 99.199 0.746 -255.984
v 81.199 0.730 -256.016
v 81.170 0.737 -240.036
f 265 266 267 268
v 255.966 0.643 -199.158
v 137.536 0.681 -198.710
v 137.604 0.671 -180.710
v 256.034 0.601 -181.158
f 269 270 271 272
