# Baked ultra-low Key West silhouette; generated by bake_key_west_far_city.py
mtllib far_city.mtl
usemtl massing
v -27.059 1.157 -223.338
v -17.033 1.157 -218.961
v -18.761 1.157 -215.002
v -28.787 1.157 -219.379
v -27.059 5.057 -223.338
v -17.033 5.057 -218.961
v -18.761 5.057 -215.002
v -28.787 5.057 -219.379
f 8 7 6 5
f 1 2 6 5
f 2 3 7 6
f 3 4 8 7
f 4 1 5 8
v -39.498 1.213 -233.591
v -32.291 1.213 -249.604
v -19.862 1.213 -244.009
v -27.069 1.213 -227.996
v -39.498 5.113 -233.591
v -32.291 5.113 -249.604
v -19.862 5.113 -244.009
v -27.069 5.113 -227.996
f 16 15 14 13
f 9 10 14 13
f 10 11 15 14
f 11 12 16 15
f 12 9 13 16
v -52.412 1.309 -226.296
v -35.832 1.309 -219.084
v -40.208 1.309 -209.024
v -56.788 1.309 -216.236
v -52.412 5.209 -226.296
v -35.832 5.209 -219.084
v -40.208 5.209 -209.024
v -56.788 5.209 -216.236
f 24 23 22 21
f 17 18 22 21
f 18 19 23 22
f 19 20 24 23
f 20 17 21 24
v -127.135 1.712 -207.950
v -71.333 1.712 -183.534
v -77.285 1.712 -169.930
v -133.087 1.712 -194.346
v -127.135 7.512 -207.950
v -71.333 7.512 -183.534
v -77.285 7.512 -169.930
v -133.087 7.512 -194.346
f 32 31 30 29
f 25 26 30 29
f 26 27 31 30
f 27 28 32 31
f 28 25 29 32
usemtl road
v -232.052 1.428 -124.855
v -221.442 1.631 -130.205
v -223.918 1.581 -135.115
v -234.528 1.396 -129.765
f 33 34 35 36
v -222.050 1.624 -129.983
v -217.840 1.691 -130.973
v -219.100 1.627 -136.327
v -223.310 1.584 -135.337
f 37 38 39 40
v -219.021 1.670 -130.956
v -214.671 1.737 -130.066
v -213.569 1.708 -135.454
v -217.919 1.642 -136.344
f 41 42 43 44
v -215.319 1.728 -130.285
v -211.109 1.824 -128.245
v -208.711 1.820 -133.195
v -212.921 1.722 -135.235
f 45 46 47 48
v -211.824 1.795 -128.745
v -207.934 2.401 -124.975
v -204.106 2.087 -128.925
v -207.996 1.847 -132.695
f 49 50 51 52
v -208.589 2.219 -125.970
v -202.139 4.508 -109.060
v -197.001 2.988 -111.020
v -203.451 2.199 -127.930
f 53 54 55 56
v -201.996 4.380 -108.745
v -197.976 1.910 -101.215
v -193.124 1.953 -103.805
v -197.144 3.138 -111.335
f 57 58 59 60
v -198.235 1.981 -101.917
v -197.245 1.797 -97.437
v -191.875 1.838 -98.623
v -192.865 1.935 -103.103
f 61 62 63 64
v -197.302 1.811 -98.233
v -197.612 1.758 -94.053
v -192.128 1.773 -93.647
v -191.818 1.823 -97.827
f 65 66 67 68
v -197.055 1.776 -95.519
v -199.255 1.740 -92.639
v -194.885 1.739 -89.301
v -192.685 1.761 -92.181
f 69 70 71 72
v -198.769 1.747 -93.132
v -202.409 1.684 -90.272
v -199.011 1.701 -85.948
v -195.371 1.734 -88.808
f 73 74 75 76
v -201.856 1.695 -90.610
v -214.076 1.476 -85.010
v -211.784 1.469 -80.010
v -199.564 1.692 -85.610
f 77 78 79 80
v -176.198 1.568 -2.809
v -191.258 1.602 -39.289
v -196.342 1.497 -37.191
v -181.282 1.498 -0.711
f 81 82 83 84
v -193.110 1.531 -35.578
v -182.580 1.745 -38.308
v -183.960 1.715 -43.632
v -194.490 1.556 -40.902
f 85 86 87 88
v -182.694 1.743 -38.281
v -177.464 1.792 -39.401
v -178.616 1.768 -44.779
v -183.846 1.717 -43.659
f 89 90 91 92
v -178.141 1.790 -39.342
v -173.781 1.818 -39.182
v -173.579 1.786 -44.678
v -177.939 1.774 -44.838
f 93 94 95 96
v -175.286 1.800 -39.698
v -170.226 1.980 -36.058
v -167.014 1.917 -40.522
v -172.074 1.798 -44.162
f 97 98 99 100
v -170.834 1.903 -36.658
v -167.524 3.238 -32.168
v -163.096 2.319 -35.432
v -166.406 1.942 -39.922
f 101 102 103 104
v -167.911 2.826 -32.907
v -164.191 5.198 -22.067
v -158.989 3.534 -23.853
v -162.709 2.466 -34.693
f 105 106 107 108
v -164.024 5.205 -21.680
v -158.704 2.092 -11.560
v -153.836 2.060 -14.120
v -159.156 3.685 -24.240
f 109 110 111 112
v -158.868 2.185 -11.937
v -157.308 1.857 -7.447
v -152.112 1.926 -9.253
v -153.672 2.038 -13.743
f 113 114 115 116
v -157.446 1.881 -8.623
v -157.906 1.811 -4.013
v -152.434 1.852 -3.467
v -151.974 1.907 -8.077
f 117 118 119 120
v -157.574 1.822 -5.076
v -159.174 1.785 -2.196
v -154.366 1.782 0.476
v -152.766 1.835 -2.404
f 121 122 123 124
v -158.829 1.796 -2.683
v -161.759 1.723 0.627
v -157.641 1.695 4.273
v -154.711 1.779 0.963
f 125 126 127 128
v -161.123 1.733 0.097
v -164.893 1.696 2.377
v -162.047 1.622 7.083
v -158.277 1.683 4.803
f 129 130 131 132
v -163.629 1.703 1.985
v -168.279 1.668 2.255
v -167.961 1.587 7.745
v -163.311 1.616 7.475
f 133 134 135 136
v -167.400 1.681 2.346
v -171.750 1.609 1.166
v -173.190 1.544 6.474
v -168.840 1.578 7.654
f 137 138 139 140
v -171.015 1.618 1.486
v -174.495 1.573 -0.684
v -177.405 1.515 3.984
v -173.925 1.539 6.154
f 141 142 143 144
v -173.822 1.579 -0.091
v -176.612 1.571 -3.501
v -180.868 1.493 -0.019
v -178.078 1.511 3.391
f 145 146 147 148
v -191.276 1.602 -39.331
v -210.406 1.493 -83.601
v -215.454 1.480 -81.419
v -196.324 1.497 -37.149
f 149 150 151 152
v -210.426 1.493 -83.648
v -230.786 1.464 -128.448
v -235.794 1.405 -126.172
v -215.434 1.481 -81.372
f 153 154 155 156
v -230.795 1.464 -128.467
v -247.845 0.888 -165.217
v -252.835 0.872 -162.903
v -235.785 1.405 -126.153
f 157 158 159 160
v -258.517 1.145 11.284
v -179.447 0.939 190.928
v -174.413 0.858 188.712
v -253.483 1.162 9.068
f 161 162 163 164
v -179.519 0.940 190.746
v -178.009 0.922 194.966
v -172.831 0.878 193.114
v -174.341 0.859 188.894
f 165 166 167 168
v -178.122 0.924 194.549
v -177.122 0.906 199.859
v -171.718 0.826 198.841
v -172.718 0.872 193.531
f 169 170 171 172
v -177.127 0.909 198.865
v -178.187 0.891 204.775
v -172.773 0.825 205.745
v -171.713 0.818 199.835
f 173 174 175 176
v -177.827 0.894 203.826
v -180.937 0.883 208.916
v -176.243 0.810 211.784
v -173.133 0.835 206.694
f 177 178 179 180
v -180.203 0.882 208.123
v -187.203 0.959 213.193
v -183.977 0.775 217.647
v -176.977 0.814 212.577
f 181 182 183 184
v -186.696 0.954 212.902
v -257.106 1.183 243.842
v -254.894 0.869 248.878
v -184.484 0.771 217.938
f 185 186 187 188
v -255.006 0.850 -159.313
v -249.346 0.893 -161.766
v -251.334 0.846 -166.354
v -256.994 0.840 -163.900
f 189 190 191 192
v -249.329 0.893 -161.773
v -41.352 1.314 -253.713
v -43.374 1.225 -258.287
v -251.351 0.846 -166.347
f 193 194 195 196
usemtl asphalt
