# Baked ultra-low Key West silhouette; generated by bake_key_west_far_city.py
mtllib far_city.mtl
usemtl massing
v 131.542 1.349 -138.550
v 134.441 1.349 -145.877
v 141.638 1.349 -143.030
v 138.739 1.349 -135.703
v 131.542 5.249 -138.550
v 134.441 5.249 -145.877
v 141.638 5.249 -143.030
v 138.739 5.249 -135.703
f 8 7 6 5
f 1 2 6 5
f 2 3 7 6
f 3 4 8 7
f 4 1 5 8
v 143.498 1.439 -149.653
v 155.297 1.439 -145.970
v 153.542 1.439 -140.347
v 141.743 1.439 -144.030
v 143.498 5.339 -149.653
v 155.297 5.339 -145.970
v 153.542 5.339 -140.347
v 141.743 5.339 -144.030
f 16 15 14 13
f 9 10 14 13
f 10 11 15 14
f 11 12 16 15
f 12 9 13 16
usemtl road
v -191.230 0.744 242.367
v 256.500 0.240 108.825
v 255.500 0.285 105.471
v -192.230 0.709 239.013
f 17 18 19 20
v 43.402 0.742 -253.824
v 221.728 0.541 -115.944
v 225.092 0.502 -120.296
v 46.766 0.781 -258.176
f 21 22 23 24
v 222.379 0.537 -115.571
v 232.519 0.517 -111.471
v 234.581 0.549 -116.569
v 224.441 0.493 -120.669
f 25 26 27 28
v 233.026 0.514 -111.320
v 252.856 0.291 -107.470
v 253.904 0.539 -112.870
v 234.074 0.551 -116.720
f 29 30 31 32
usemtl asphalt
