# Baked ultra-low Key West silhouette; generated by bake_key_west_far_city.py
mtllib far_city.mtl
usemtl massing
v -130.482 0.757 93.551
v -117.572 0.757 97.568
v -120.198 0.757 106.009
v -133.108 0.757 101.992
v -130.482 4.657 93.551
v -117.572 4.657 97.568
v -120.198 4.657 106.009
v -133.108 4.657 101.992
f 8 7 6 5
f 1 2 6 5
f 2 3 7 6
f 3 4 8 7
f 4 1 5 8
v -177.053 0.684 132.065
v -124.685 0.684 157.824
v -133.967 0.684 176.695
v -186.335 0.684 150.936
v -177.053 6.484 132.065
v -124.685 6.484 157.824
v -133.967 6.484 176.695
v -186.335 6.484 150.936
f 16 15 14 13
f 9 10 14 13
f 10 11 15 14
f 11 12 16 15
f 12 9 13 16
usemtl road
v -254.997 1.247 126.382
v -165.447 1.191 87.150
v -167.453 1.241 82.570
v -257.003 1.293 121.803
f 17 18 19 20
v -165.344 1.193 87.102
v -151.684 1.290 80.362
v -153.896 1.290 75.878
v -167.556 1.241 82.618
f 21 22 23 24
v -151.684 1.290 80.362
v 257.106 0.547 -121.366
v 254.894 0.598 -125.850
v -153.896 1.290 75.878
f 25 26 27 28
v -154.363 1.295 78.887
v -121.013 0.943 147.307
v -117.867 0.869 145.773
v -151.217 1.318 77.353
f 29 30 31 32
usemtl asphalt
