# Baked ultra-low Key West silhouette; generated by bake_key_west_far_city.py
mtllib far_city.mtl
usemtl massing
v 117.867 0.893 -14.322
v 136.587 0.893 -51.562
v 159.433 0.893 -40.078
v 140.713 0.893 -2.838
v 117.867 6.693 -14.322
v 136.587 6.693 -51.562
v 159.433 6.693 -40.078
v 140.713 6.693 -2.838
f 8 7 6 5
f 1 2 6 5
f 2 3 7 6
f 3 4 8 7
f 4 1 5 8
usemtl road
v -89.668 2.574 -249.308
v -84.108 2.548 -238.858
v -79.252 2.448 -241.442
v -84.812 2.542 -251.892
f 9 10 11 12
v 255.695 0.981 1.598
v 174.515 0.961 15.977
v 175.125 0.925 19.423
v 256.305 0.947 5.044
f 13 14 15 16
v -3.241 1.672 -118.450
v -93.231 1.518 -116.880
v -93.169 1.502 -113.380
v -3.179 1.690 -114.950
f 17 18 19 20
v -254.185 2.760 -205.350
v -223.975 2.418 -215.908
v -227.605 2.040 -226.292
v -257.815 2.454 -215.734
f 21 22 23 24
v -223.811 2.417 -215.968
v -163.631 2.060 -239.178
v -167.589 1.963 -249.442
v -227.769 2.041 -226.232
f 25 26 27 28
v -74.046 2.605 -228.927
v -84.946 2.498 -225.857
v -83.454 2.251 -220.563
v -72.554 2.460 -223.633
f 29 30 31 32
v -85.912 2.490 -225.362
v -92.032 2.379 -220.492
v -88.608 2.133 -216.188
v -82.488 2.286 -221.058
f 33 34 35 36
v -92.849 2.343 -219.420
v -95.799 2.091 -212.510
v -90.741 1.964 -210.350
v -87.791 2.137 -217.260
f 37 38 39 40
v -96.000 2.067 -211.764
v -97.390 1.530 -200.394
v -91.930 1.588 -199.726
v -90.540 1.994 -211.096
f 41 42 43 44
v -97.410 1.516 -200.013
v -95.950 1.462 -115.083
v -90.450 1.479 -115.177
v -91.910 1.596 -200.107
f 45 46 47 48
v -95.949 1.462 -115.069
v -92.979 1.589 19.511
v -87.481 1.591 19.389
v -90.451 1.479 -115.191
f 49 50 51 52
v -92.980 1.589 19.491
v -91.880 1.149 93.771
v -86.380 1.198 93.689
v -87.480 1.591 19.409
f 53 54 55 56
v -91.879 1.149 93.786
v -91.249 1.068 124.676
v -85.751 0.985 124.564
v -86.381 1.198 93.674
f 57 58 59 60
v -91.214 1.066 125.065
v -89.624 1.001 134.755
v -84.196 0.876 133.865
v -85.786 0.990 124.175
f 61 62 63 64
v -89.448 0.999 135.368
v -84.868 0.995 146.358
v -79.792 0.729 144.242
v -84.372 0.882 133.252
f 65 66 67 68
v -84.758 0.995 146.590
v -78.148 0.912 159.030
v -73.292 0.759 156.450
v -79.902 0.732 144.010
f 69 70 71 72
v -77.982 0.908 159.304
v -70.772 0.723 169.734
v -66.248 0.790 166.606
v -73.458 0.758 156.176
f 73 74 75 76
v -84.034 2.547 -238.728
v -75.654 2.532 -224.858
v -70.946 2.625 -227.702
v -79.326 2.449 -241.572
f 77 78 79 80
v -88.941 1.259 91.990
v -104.631 0.120 90.290
v -105.009 0.120 93.770
v -89.319 1.234 95.470
f 81 82 83 84
v -182.164 1.585 -261.092
v -211.038 1.783 -249.312
v -206.882 1.839 -239.128
v -178.008 1.714 -250.908
f 85 86 87 88
v -210.767 1.780 -249.415
v -257.807 2.211 -233.049
v -254.193 2.309 -222.659
v -207.153 1.839 -239.025
f 89 90 91 92
usemtl asphalt
