# Baked ultra-low Key West silhouette; generated by bake_key_west_far_city.py
mtllib far_city.mtl
usemtl massing
v 142.897 1.683 28.367
v 163.573 1.683 41.266
v 153.923 1.683 56.733
v 133.247 1.683 43.834
v 142.897 5.583 28.367
v 163.573 5.583 41.266
v 153.923 5.583 56.733
v 133.247 5.583 43.834
f 8 7 6 5
f 1 2 6 5
f 2 3 7 6
f 3 4 8 7
f 4 1 5 8
v 196.384 0.739 20.585
v 197.202 0.739 74.039
v 167.376 0.739 74.495
v 166.558 0.739 21.041
v 196.384 6.539 20.585
v 197.202 6.539 74.039
v 167.376 6.539 74.495
v 166.558 6.539 21.041
f 16 15 14 13
f 9 10 14 13
f 10 11 15 14
f 11 12 16 15
f 12 9 13 16
v 106.213 1.271 74.935
v 128.898 1.271 99.531
v 109.367 1.271 117.545
v 86.682 1.271 92.949
v 106.213 5.171 74.935
v 128.898 5.171 99.531
v 109.367 5.171 117.545
v 86.682 5.171 92.949
f 24 23 22 21
f 17 18 22 21
f 18 19 23 22
f 19 20 24 23
f 20 17 21 24
v 83.141 1.476 158.770
v 117.219 1.476 137.901
v 135.279 1.476 167.390
v 101.201 1.476 188.259
v 83.141 7.276 158.770
v 117.219 7.276 137.901
v 135.279 7.276 167.390
v 101.201 7.276 188.259
f 32 31 30 29
f 25 26 30 29
f 26 27 31 30
f 27 28 32 31
f 28 25 29 32
v -15.708 1.203 96.483
v -8.295 1.203 69.233
v 2.088 1.203 72.057
v -5.325 1.203 99.307
v -15.708 5.103 96.483
v -8.295 5.103 69.233
v 2.088 5.103 72.057
v -5.325 5.103 99.307
f 40 39 38 37
f 33 34 38 37
f 34 35 39 38
f 35 36 40 39
f 36 33 37 40
v 64.718 1.136 34.160
v 88.271 1.136 149.581
v 11.042 1.136 165.340
v -12.511 1.136 49.919
v 64.718 9.436 34.160
v 88.271 9.436 149.581
v 11.042 9.436 165.340
v -12.511 9.436 49.919
f 48 47 46 45
f 41 42 46 45
f 42 43 47 46
f 43 44 48 47
f 44 41 45 48
v -61.481 1.113 243.725
v -37.406 1.113 202.685
v -7.899 1.113 219.995
v -31.974 1.113 261.035
v -61.481 9.413 243.725
v -37.406 9.413 202.685
v -7.899 9.413 219.995
v -31.974 9.413 261.035
f 56 55 54 53
f 49 50 54 53
f 50 51 55 54
f 51 52 56 55
f 52 49 53 56
v 23.817 1.749 218.857
v 35.364 1.749 173.958
v 62.443 1.749 180.923
v 50.896 1.749 225.822
v 23.817 7.549 218.857
v 35.364 7.549 173.958
v 62.443 7.549 180.923
v 50.896 7.549 225.822
f 64 63 62 61
f 57 58 62 61
f 58 59 63 62
f 59 60 64 63
f 60 57 61 64
v -71.741 1.197 141.813
v -41.823 1.197 92.394
v -28.059 1.197 100.727
v -57.977 1.197 150.146
v -71.741 7.997 141.813
v -41.823 7.997 92.394
v -28.059 7.997 100.727
v -57.977 7.997 150.146
f 72 71 70 69
f 65 66 70 69
f 66 67 71 70
f 67 68 72 71
f 68 65 69 72
v -112.220 0.801 109.816
v -80.045 0.801 128.065
v -87.100 0.801 140.504
v -119.275 0.801 122.255
v -112.220 6.601 109.816
v -80.045 6.601 128.065
v -87.100 6.601 140.504
v -119.275 6.601 122.255
f 80 79 78 77
f 73 74 78 77
f 74 75 79 78
f 75 76 80 79
f 76 73 77 80
v -104.955 0.763 180.607
v -82.705 0.763 141.619
v -58.465 0.763 155.453
v -80.715 0.763 194.441
v -104.955 9.063 180.607
v -82.705 9.063 141.619
v -58.465 9.063 155.453
v -80.715 9.063 194.441
f 88 87 86 85
f 81 82 86 85
f 82 83 87 86
f 83 84 88 87
f 84 81 85 88
v -146.727 1.177 157.594
v -135.913 1.177 135.989
v -123.573 1.177 142.166
v -134.387 1.177 163.771
v -146.727 5.077 157.594
v -135.913 5.077 135.989
v -123.573 5.077 142.166
v -134.387 5.077 163.771
f 96 95 94 93
f 89 90 94 93
f 90 91 95 94
f 91 92 96 95
f 92 89 93 96
v 151.124 1.149 198.143
v 153.621 1.149 175.792
v 168.876 1.149 177.497
v 166.379 1.149 199.848
v 151.124 5.049 198.143
v 153.621 5.049 175.792
v 168.876 5.049 177.497
v 166.379 5.049 199.848
f 104 103 102 101
f 97 98 102 101
f 98 99 103 102
f 99 100 104 103
f 100 97 101 104
v 164.828 0.742 145.744
v 165.426 0.742 169.096
v 148.272 0.742 169.536
v 147.674 0.742 146.184
v 164.828 4.642 145.744
v 165.426 4.642 169.096
v 148.272 4.642 169.536
v 147.674 4.642 146.184
f 112 111 110 109
f 105 106 110 109
f 106 107 111 110
f 107 108 112 111
f 108 105 109 112
v 180.566 0.906 183.637
v 199.058 0.906 181.541
v 200.794 0.906 196.863
v 182.302 0.906 198.959
v 180.566 4.806 183.637
v 199.058 4.806 181.541
v 200.794 4.806 196.863
v 182.302 4.806 198.959
f 120 119 118 117
f 113 114 118 117
f 114 115 119 118
f 115 116 120 119
f 116 113 117 120
v 179.706 0.988 158.894
v 208.345 0.988 168.448
v 202.854 0.988 184.906
v 174.215 0.988 175.352
v 179.706 4.888 158.894
v 208.345 4.888 168.448
v 202.854 4.888 184.906
v 174.215 4.888 175.352
f 128 127 126 125
f 121 122 126 125
f 122 123 127 126
f 123 124 128 127
f 124 121 125 128
v 181.834 1.070 158.294
v 186.386 1.070 143.477
v 199.826 1.070 147.606
v 195.274 1.070 162.423
v 181.834 4.970 158.294
v 186.386 4.970 143.477
v 199.826 4.970 147.606
v 195.274 4.970 162.423
f 136 135 134 133
f 129 130 134 133
f 130 131 135 134
f 131 132 136 135
f 132 129 133 136
v 195.620 0.972 123.021
v 199.714 0.972 140.262
v 183.300 0.972 144.159
v 179.206 0.972 126.918
v 195.620 4.872 123.021
v 199.714 4.872 140.262
v 183.300 4.872 144.159
v 179.206 4.872 126.918
f 144 143 142 141
f 137 138 142 141
f 138 139 143 142
f 139 140 144 143
f 140 137 141 144
v 144.403 0.809 123.175
v 162.965 0.809 121.584
v 164.117 0.809 135.025
v 145.555 0.809 136.616
v 144.403 4.709 123.175
v 162.965 4.709 121.584
v 164.117 4.709 135.025
v 145.555 4.709 136.616
f 152 151 150 149
f 145 146 150 149
f 146 147 151 150
f 147 148 152 151
f 148 145 149 152
v 145.741 0.887 107.376
v 163.713 0.887 110.881
v 161.259 0.887 123.464
v 143.287 0.887 119.959
v 145.741 4.787 107.376
v 163.713 4.787 110.881
v 161.259 4.787 123.464
v 143.287 4.787 119.959
f 160 159 158 157
f 153 154 158 157
f 154 155 159 158
f 155 156 160 159
f 156 153 157 160
v 142.103 0.944 93.956
v 161.250 0.944 91.871
v 162.677 0.944 104.984
v 143.530 0.944 107.069
v 142.103 4.844 93.956
v 161.250 4.844 91.871
v 162.677 4.844 104.984
v 143.530 4.844 107.069
f 168 167 166 165
f 161 162 166 165
f 162 163 167 166
f 163 164 168 167
f 164 161 165 168
v 144.049 0.927 77.754
v 161.671 0.927 81.616
v 158.811 0.927 94.666
v 141.189 0.927 90.804
v 144.049 4.827 77.754
v 161.671 4.827 81.616
v 158.811 4.827 94.666
v 141.189 4.827 90.804
f 176 175 174 173
f 169 170 174 173
f 170 171 175 174
f 171 172 176 175
f 172 169 173 176
v 183.840 0.870 100.491
v 205.488 0.870 98.008
v 208.100 0.870 120.769
v 186.452 0.870 123.252
v 183.840 4.770 100.491
v 205.488 4.770 98.008
v 208.100 4.770 120.769
v 186.452 4.770 123.252
f 184 183 182 181
f 177 178 182 181
f 178 179 183 182
f 179 180 184 183
f 180 177 181 184
v 225.804 0.836 78.893
v 232.105 0.836 103.973
v 214.376 0.836 108.427
v 208.075 0.836 83.347
v 225.804 4.736 78.893
v 232.105 4.736 103.973
v 214.376 4.736 108.427
v 208.075 4.736 83.347
f 192 191 190 189
f 185 186 190 189
f 186 187 191 190
f 187 188 192 191
f 188 185 189 192
v 245.710 0.799 87.938
v 248.346 0.799 104.337
v 234.010 0.799 106.642
v 231.374 0.799 90.243
v 245.710 4.699 87.938
v 248.346 4.699 104.337
v 234.010 4.699 106.642
v 231.374 4.699 90.243
f 200 199 198 197
f 193 194 198 197
f 194 195 199 198
f 195 196 200 199
f 196 193 197 200
v 229.667 0.929 128.242
v 248.830 0.929 131.392
v 246.813 0.929 143.658
v 227.650 0.929 140.508
v 229.667 4.829 128.242
v 248.830 4.829 131.392
v 246.813 4.829 143.658
v 227.650 4.829 140.508
f 208 207 206 205
f 201 202 206 205
f 202 203 207 206
f 203 204 208 207
f 204 201 205 208
v 227.380 0.931 144.846
v 245.582 0.931 146.635
v 244.140 0.931 161.314
v 225.938 0.931 159.525
v 227.380 4.831 144.846
v 245.582 4.831 146.635
v 244.140 4.831 161.314
v 225.938 4.831 159.525
f 216 215 214 213
f 209 210 214 213
f 210 211 215 214
f 211 212 216 215
f 212 209 213 216
v 227.946 1.041 163.894
v 241.832 1.041 164.879
v 240.894 1.041 178.106
v 227.008 1.041 177.121
v 227.946 4.941 163.894
v 241.832 4.941 164.879
v 240.894 4.941 178.106
v 227.008 4.941 177.121
f 224 223 222 221
f 217 218 222 221
f 218 219 223 222
f 219 220 224 223
f 220 217 221 224
v 229.621 0.994 181.405
v 247.053 0.994 183.438
v 245.799 0.994 194.195
v 228.367 0.994 192.162
v 229.621 4.894 181.405
v 247.053 4.894 183.438
v 245.799 4.894 194.195
v 228.367 4.894 192.162
f 232 231 230 229
f 225 226 230 229
f 226 227 231 230
f 227 228 232 231
f 228 225 229 232
v 225.672 0.912 214.405
v 248.703 0.912 217.201
v 246.948 0.912 231.655
v 223.917 0.912 228.859
v 225.672 4.812 214.405
v 248.703 4.812 217.201
v 246.948 4.812 231.655
v 223.917 4.812 228.859
f 240 239 238 237
f 233 234 238 237
f 234 235 239 238
f 235 236 240 239
f 236 233 237 240
v 233.967 0.882 235.876
v 247.689 0.882 237.517
v 246.473 0.882 247.684
v 232.751 0.882 246.043
v 233.967 4.782 235.876
v 247.689 4.782 237.517
v 246.473 4.782 247.684
v 232.751 4.782 246.043
f 248 247 246 245
f 241 242 246 245
f 242 243 247 246
f 243 244 248 247
f 244 241 245 248
v 183.921 0.927 218.759
v 203.276 0.927 219.225
v 202.959 0.927 232.401
v 183.604 0.927 231.935
v 183.921 4.827 218.759
v 203.276 4.827 219.225
v 202.959 4.827 232.401
v 183.604 4.827 231.935
f 256 255 254 253
f 249 250 254 253
f 250 251 255 254
f 251 252 256 255
f 252 249 253 256
v 192.443 0.924 250.143
v 193.408 0.924 235.264
v 203.477 0.924 235.917
v 202.512 0.924 250.796
v 192.443 4.824 250.143
v 193.408 4.824 235.264
v 203.477 4.824 235.917
v 202.512 4.824 250.796
f 264 263 262 261
f 257 258 262 261
f 258 259 263 262
f 259 260 264 263
f 260 257 261 264
v 217.596 0.682 19.385
v 281.531 0.682 51.306
v 262.524 0.682 89.375
v 198.589 0.682 57.454
v 217.596 15.982 19.385
v 281.531 15.982 51.306
v 262.524 15.982 89.375
v 198.589 15.982 57.454
f 272 271 270 269
f 265 266 270 269
f 266 267 271 270
f 267 268 272 271
f 268 265 269 272
v 251.821 0.847 172.651
v 252.300 0.847 164.415
v 258.719 0.847 164.789
v 258.240 0.847 173.025
v 251.821 4.747 172.651
v 252.300 4.747 164.415
v 258.719 4.747 164.789
v 258.240 4.747 173.025
f 280 279 278 277
f 273 274 278 277
f 274 275 279 278
f 275 276 280 279
f 276 273 277 280
v 247.775 0.900 226.710
v 253.784 0.900 227.327
v 253.445 0.900 230.630
v 247.436 0.900 230.013
v 247.775 4.800 226.710
v 253.784 4.800 227.327
v 253.445 4.800 230.630
v 247.436 4.800 230.013
f 288 287 286 285
f 281 282 286 285
f 282 283 287 286
f 283 284 288 287
f 284 281 285 288
v 48.778 0.735 176.246
v 55.988 0.735 160.740
v 66.942 0.735 165.834
v 59.732 0.735 181.340
v 48.778 10.035 176.246
v 55.988 10.035 160.740
v 66.942 10.035 165.834
v 59.732 10.035 181.340
f 296 295 294 293
f 289 290 294 293
f 290 291 295 294
f 291 292 296 295
f 292 289 293 296
v 56.845 0.839 194.785
v 63.972 0.839 178.847
v 74.635 0.839 183.615
v 67.508 0.839 199.553
v 56.845 4.739 194.785
v 63.972 4.739 178.847
v 74.635 4.739 183.615
v 67.508 4.739 199.553
f 304 303 302 301
f 297 298 302 301
f 298 299 303 302
f 299 300 304 303
f 300 297 301 304
v 70.394 0.934 171.711
v 74.944 0.934 154.792
v 86.166 0.934 157.809
v 81.616 0.934 174.728
v 70.394 4.834 171.711
v 74.944 4.834 154.792
v 86.166 4.834 157.809
v 81.616 4.834 174.728
f 312 311 310 309
f 305 306 310 309
f 306 307 311 310
f 307 308 312 311
f 308 305 309 312
v 75.780 0.791 191.366
v 80.091 0.791 174.673
v 90.780 0.791 177.434
v 86.469 0.791 194.127
v 75.780 4.691 191.366
v 80.091 4.691 174.673
v 90.780 4.691 177.434
v 86.469 4.691 194.127
f 320 319 318 317
f 313 314 318 317
f 314 315 319 318
f 315 316 320 319
f 316 313 317 320
v 92.489 1.451 135.817
v 107.416 1.451 116.238
v 122.191 1.451 127.503
v 107.264 1.451 147.082
v 92.489 5.351 135.817
v 107.416 5.351 116.238
v 122.191 5.351 127.503
v 107.264 5.351 147.082
f 328 327 326 325
f 321 322 326 325
f 322 323 327 326
f 323 324 328 327
f 324 321 325 328
v 94.826 1.028 127.386
v 95.341 1.028 122.322
v 98.614 1.028 122.654
v 98.099 1.028 127.718
v 94.826 4.928 127.386
v 95.341 4.928 122.322
v 98.614 4.928 122.654
v 98.099 4.928 127.718
f 336 335 334 333
f 329 330 334 333
f 330 331 335 334
f 331 332 336 335
f 332 329 333 336
v -142.211 0.259 174.208
v -132.773 0.259 179.561
v -134.209 0.259 182.092
v -143.647 0.259 176.739
v -142.211 4.159 174.208
v -132.773 4.159 179.561
v -134.209 4.159 182.092
v -143.647 4.159 176.739
f 344 343 342 341
f 337 338 342 341
f 338 339 343 342
f 339 340 344 343
f 340 337 341 344
usemtl road
v 255.774 1.033 202.388
v 215.554 0.991 204.987
v 216.006 0.922 211.973
v 256.226 0.996 209.373
f 345 346 347 348
v 215.555 0.991 204.987
v 155.095 1.070 208.877
v 155.545 1.019 215.863
v 216.005 0.922 211.973
f 349 350 351 352
v 155.193 1.070 208.872
v 139.183 1.101 209.452
v 139.437 1.025 216.448
v 155.447 1.019 215.868
f 353 354 355 356
v 139.184 1.101 209.452
v 118.694 1.078 210.192
v 118.946 1.059 217.188
v 139.436 1.025 216.448
f 357 358 359 360
v 118.388 1.078 210.217
v 110.188 1.076 211.237
v 111.052 1.038 218.183
v 119.252 1.059 217.163
f 361 362 363 364
v 110.079 1.075 211.252
v 98.509 1.050 213.062
v 99.591 1.007 219.978
v 111.161 1.039 218.168
f 365 366 367 368
v 98.088 1.048 213.155
v 77.938 1.000 218.915
v 79.862 0.963 225.645
v 100.012 1.009 219.885
f 369 370 371 372
v 77.605 0.999 219.028
v 71.805 0.981 221.338
v 74.395 0.935 227.842
v 80.195 0.962 225.532
f 373 374 375 376
v 71.805 0.981 221.338
v 65.125 0.957 223.998
v 67.715 0.940 230.502
v 74.395 0.935 227.842
f 377 378 379 380
v 65.004 0.956 224.049
v 53.294 0.954 229.229
v 56.126 0.930 235.631
v 67.836 0.939 230.451
f 381 382 383 384
v 52.968 0.955 229.394
v 26.758 0.907 244.434
v 30.242 0.886 250.506
v 56.452 0.925 235.466
f 385 386 387 388
v 253.521 0.976 115.976
v 232.151 0.959 117.326
v 232.529 0.976 123.314
v 253.899 0.996 121.964
f 389 390 391 392
v 231.851 0.959 117.360
v 229.791 0.959 117.700
v 230.769 0.980 123.620
v 232.829 0.975 123.280
f 393 394 395 396
v 229.807 0.959 117.698
v 224.237 0.969 118.588
v 225.183 0.953 124.512
v 230.753 0.980 123.622
f 397 398 399 400
v 223.296 0.970 118.904
v 218.636 0.966 121.394
v 221.464 0.975 126.686
v 226.124 0.957 124.196
f 401 402 403 404
v 217.644 0.969 122.247
v 212.964 1.018 128.527
v 217.776 0.988 132.113
v 222.456 0.969 125.833
f 405 406 407 408
v 212.549 1.020 129.299
v 209.969 1.013 136.429
v 215.611 0.984 138.471
v 218.191 0.981 131.341
f 409 410 411 412
v 209.796 1.011 137.268
v 209.336 0.996 144.838
v 215.324 1.029 145.202
v 215.784 0.989 137.632
f 413 414 415 416
v 209.334 0.997 145.183
v 209.504 1.006 148.303
v 215.496 0.991 147.977
v 215.326 1.032 144.857
f 417 418 419 420
v 209.504 1.006 148.303
v 212.784 0.977 208.643
v 218.776 0.973 208.317
v 215.496 0.991 147.977
f 421 422 423 424
v 142.054 1.086 212.762
v 139.464 0.994 175.042
v 133.976 1.007 175.418
v 136.566 1.095 213.138
f 425 426 427 428
v 139.465 0.994 175.060
v 133.725 1.182 82.290
v 128.235 1.211 82.630
v 133.975 1.007 175.400
f 429 430 431 432
v 31.052 0.887 246.445
v 21.722 0.937 223.215
v 16.618 0.964 225.265
v 25.948 0.881 248.495
f 433 434 435 436
v 21.722 0.937 223.216
v 4.962 1.015 181.436
v -0.142 1.078 183.484
v 16.618 0.964 225.264
f 437 438 439 440
v 4.960 1.015 181.431
v -4.200 1.166 158.721
v -9.300 1.168 160.779
v -0.140 1.078 183.489
f 441 442 443 444
v -4.200 1.166 158.720
v -10.870 1.151 142.200
v -15.970 1.112 144.260
v -9.300 1.168 160.780
f 445 446 447 448
v -10.870 1.151 142.201
v -20.000 1.078 119.571
v -25.100 1.003 121.629
v -15.970 1.112 144.259
f 449 450 451 452
v -20.032 1.078 119.494
v -24.102 1.043 110.224
v -29.138 1.001 112.436
v -25.068 1.003 121.706
f 453 454 455 456
v -24.064 1.045 110.316
v -42.144 0.887 64.726
v -47.256 0.944 66.754
v -29.176 1.001 112.344
f 457 458 459 460
v -42.150 0.887 64.711
v -46.740 1.139 53.341
v -51.840 1.154 55.399
v -47.250 0.944 66.769
f 461 462 463 464
v -47.633 1.015 254.588
v -73.250 0.881 211.758
v -77.970 1.021 214.582
v -52.354 1.121 257.412
f 465 466 467 468
v -73.250 0.881 211.759
v -97.390 1.027 171.379
v -102.110 0.941 174.201
v -77.970 1.021 214.581
f 469 470 471 472
v -97.370 1.027 171.413
v -126.420 0.812 121.203
v -131.180 0.829 123.957
v -102.130 0.941 174.167
f 473 474 475 476
v -126.419 0.812 121.203
v -131.219 0.936 112.903
v -135.981 0.910 115.657
v -131.181 0.829 123.957
f 477 478 479 480
v -131.219 0.936 112.903
v -136.059 1.142 104.533
v -140.821 1.114 107.287
v -135.981 0.910 115.657
f 481 482 483 484
v -76.431 0.957 211.624
v -98.951 0.906 223.584
v -97.309 0.921 226.676
v -74.789 1.006 214.716
f 485 486 487 488
v -98.950 0.906 223.584
v -101.760 0.895 225.074
v -100.120 0.929 228.166
v -97.310 0.921 226.676
f 489 490 491 492
v -101.077 0.895 224.875
v -106.307 0.881 225.285
v -106.033 0.900 228.775
v -100.803 0.931 228.365
f 493 494 495 496
v -106.044 0.883 225.285
v -115.184 0.803 224.625
v -115.436 0.822 228.115
v -106.296 0.897 228.775
f 497 498 499 500
v -115.186 0.803 224.624
v -119.116 0.768 224.344
v -119.364 0.798 227.836
v -115.434 0.822 228.116
f 501 502 503 504
v -119.381 0.766 224.346
v -129.411 0.786 225.156
v -129.129 0.884 228.644
v -119.099 0.801 227.834
f 505 506 507 508
v -129.961 0.788 225.292
v -133.221 0.798 226.692
v -131.839 0.914 229.908
v -128.579 0.876 228.508
f 509 510 511 512
v -133.216 0.798 226.690
v -136.946 0.789 228.280
v -135.574 0.889 231.500
v -131.844 0.914 229.910
f 513 514 515 516
v -137.134 0.789 228.374
v -148.134 0.824 234.714
v -146.386 0.906 237.746
v -135.386 0.889 231.406
f 517 518 519 520
v -148.134 0.824 234.714
v -162.234 0.824 242.844
v -160.486 0.877 245.876
v -146.386 0.906 237.746
f 521 522 523 524
v -162.234 0.824 242.844
v -175.474 0.813 250.474
v -173.726 0.892 253.506
v -160.486 0.877 245.876
f 525 526 527 528
v -100.626 0.973 171.275
v -122.136 0.644 183.715
v -120.384 0.669 186.745
v -98.874 0.981 174.305
f 529 530 531 532
v -122.163 0.644 183.731
v -124.453 0.615 185.111
v -122.647 0.655 188.109
v -120.357 0.670 186.729
f 533 534 535 536
v -124.415 0.616 185.089
v -131.235 0.530 188.969
v -129.505 0.618 192.011
v -122.685 0.655 188.131
f 537 538 539 540
v -131.928 0.535 189.693
v -133.698 0.549 193.153
v -130.582 0.642 194.747
v -128.812 0.606 191.287
f 541 542 543 544
v -133.871 0.562 194.208
v -133.031 0.633 199.848
v -129.569 0.667 199.332
v -130.409 0.630 193.692
f 545 546 547 548
v -132.803 0.637 200.487
v -116.813 0.799 227.267
v -113.807 0.812 225.473
v -129.797 0.659 198.693
f 549 550 551 552
v -122.774 0.645 186.108
v -99.644 0.908 226.008
v -96.616 0.916 224.252
v -119.746 0.663 184.352
f 553 554 555 556
v -250.375 0.682 232.583
v -237.655 0.584 225.573
v -239.345 0.610 222.507
v -252.065 0.702 229.517
f 557 558 559 560
v -237.635 0.584 225.561
v -227.505 0.509 219.801
v -229.235 0.516 216.759
v -239.365 0.610 222.519
f 561 562 563 564
v -227.505 0.509 219.801
v -215.915 0.531 213.211
v -217.645 0.529 210.169
v -229.235 0.516 216.759
f 565 566 567 568
v -189.519 0.780 255.121
v -215.267 0.550 210.811
v -218.293 0.512 212.569
v -192.546 0.762 256.879
f 569 570 571 572
v -215.247 0.550 210.846
v -228.187 0.596 187.356
v -231.253 0.615 189.044
v -218.313 0.513 212.534
f 573 574 575 576
v -227.983 0.592 187.989
v -228.403 0.646 184.529
v -231.877 0.639 184.951
v -231.457 0.620 188.411
f 577 578 579 580
v -228.617 0.623 185.601
v -226.417 0.711 181.711
v -229.463 0.688 179.989
v -231.663 0.645 183.879
f 581 582 583 584
v -227.051 0.700 182.357
v -217.661 0.677 176.817
v -219.439 0.692 173.803
v -228.829 0.692 179.343
f 585 586 587 588
v -217.659 0.677 176.816
v -204.879 0.720 169.256
v -206.661 0.706 166.244
v -219.441 0.692 173.804
f 589 590 591 592
v -204.879 0.720 169.256
v -191.139 0.668 161.126
v -192.921 0.671 158.114
v -206.661 0.706 166.244
f 593 594 595 596
v -191.142 0.668 161.128
v -182.012 0.679 155.748
v -183.788 0.646 152.732
v -192.918 0.671 158.112
f 597 598 599 600
v -182.908 0.686 155.990
v -178.558 0.598 156.010
v -178.542 0.619 152.510
v -182.892 0.644 152.490
f 601 602 603 604
v -179.647 0.628 155.624
v -175.307 0.548 159.114
v -173.113 0.558 156.386
v -177.453 0.606 152.896
f 605 606 607 608
v -175.717 0.553 158.640
v -134.037 0.849 229.190
v -131.023 0.842 227.410
v -172.703 0.559 156.860
f 609 610 611 612
v -220.068 0.692 176.180
v -176.118 0.852 252.860
v -173.082 0.853 251.120
v -217.032 0.692 174.440
f 613 614 615 616
v -207.284 0.723 168.628
v -162.874 0.841 245.238
v -159.846 0.850 243.482
v -204.256 0.719 166.872
f 617 618 619 620
v -193.541 0.681 160.503
v -148.771 0.869 237.113
v -145.749 0.861 235.347
v -190.519 0.677 158.737
f 621 622 623 624
v -205.859 0.660 255.149
v -226.841 0.481 217.429
v -229.899 0.534 219.131
v -208.918 0.691 256.851
f 625 626 627 628
v -226.841 0.481 217.428
v -245.171 0.735 184.538
v -248.229 0.833 186.242
v -229.899 0.534 219.132
f 629 630 631 632
v -245.171 0.735 184.539
v -251.781 1.229 172.669
v -254.839 1.219 174.371
v -248.229 0.833 186.241
f 633 634 635 636
v -257.513 0.725 194.826
v -240.013 0.582 224.920
v -236.987 0.584 223.160
v -254.487 0.765 193.067
f 637 638 639 640
v -240.012 0.582 224.921
v -221.390 0.671 256.881
v -218.365 0.692 255.119
v -236.988 0.584 223.159
f 641 642 643 644
v -235.154 0.752 255.118
v -249.708 0.688 230.168
v -252.732 0.696 231.932
v -238.177 0.770 256.882
f 645 646 647 648
v 212.593 1.005 149.888
v 226.633 1.230 149.138
v 226.447 1.238 145.642
v 212.407 1.001 146.392
f 649 650 651 652
v 250.766 1.259 103.813
v 251.356 1.032 111.013
v 254.844 0.998 110.727
v 254.254 1.231 103.527
f 653 654 655 656
v 251.355 1.032 111.001
v 251.965 0.974 119.101
v 255.455 0.963 118.839
v 254.845 0.998 110.739
f 657 658 659 660
v 227.166 1.179 103.789
v 227.876 0.992 112.669
v 231.364 0.977 112.391
v 230.654 1.143 103.511
f 661 662 663 664
v 227.876 0.992 112.672
v 228.536 0.957 120.802
v 232.024 0.956 120.518
v 231.364 0.977 112.388
f 665 666 667 668
v 210.358 1.160 107.006
v 215.548 0.977 118.396
v 218.732 0.980 116.944
v 213.542 1.193 105.554
f 669 670 671 672
v 215.548 0.977 118.397
v 218.458 0.977 124.767
v 221.642 0.966 123.313
v 218.732 0.980 116.943
f 673 674 675 676
v 193.605 1.367 147.040
v 204.255 1.028 146.890
v 204.205 1.010 143.390
v 193.555 1.288 143.540
f 677 678 679 680
v 204.256 1.028 146.890
v 212.356 1.004 146.770
v 212.304 0.993 143.270
v 204.204 1.010 143.390
f 681 682 683 684
v 198.361 1.140 123.026
v 207.641 0.995 128.096
v 209.319 1.014 125.024
v 200.039 1.181 119.954
f 685 686 687 688
v 207.642 0.995 128.096
v 214.532 1.003 131.856
v 216.208 1.002 128.784
v 209.318 1.014 125.024
f 689 690 691 692
v 69.373 1.079 14.128
v 71.863 0.905 23.988
v 75.257 0.902 23.132
v 72.767 1.092 13.272
f 693 694 695 696
v 71.839 0.906 23.877
v 73.539 1.051 33.107
v 76.981 1.060 32.473
v 75.281 0.902 23.243
f 697 698 699 700
v 73.928 1.071 33.925
v 77.518 1.234 38.135
v 80.182 1.210 35.865
v 76.592 1.036 31.655
f 701 702 703 704
v 77.152 1.209 37.423
v 87.092 1.308 77.363
v 90.488 1.480 76.517
v 80.548 1.238 36.577
f 705 706 707 708
v 87.042 1.312 77.021
v 89.402 1.225 127.701
v 92.898 1.357 127.539
v 90.538 1.479 76.859
f 709 710 711 712
v 89.402 1.225 127.702
v 90.092 1.350 142.412
v 93.588 1.422 142.248
v 92.898 1.357 127.538
f 713 714 715 716
v 91.364 1.336 140.646
v 10.324 1.286 163.576
v 11.276 1.290 166.944
v 92.316 1.426 144.014
f 717 718 719 720
v 12.467 1.265 164.729
v 1.497 1.341 130.309
v -1.837 1.322 131.371
v 9.133 1.304 165.791
f 721 722 723 724
v 1.498 1.341 130.309
v -3.922 1.355 113.279
v -7.258 1.317 114.341
v -1.838 1.322 131.371
f 725 726 727 728
v 11.702 1.365 106.722
v 16.722 1.346 126.942
v 20.118 1.355 126.098
v 15.098 1.334 105.878
f 729 730 731 732
v 18.024 1.343 124.815
v -0.566 1.330 129.135
v 0.226 1.336 132.545
v 18.816 1.352 128.225
f 733 734 735 736
v 58.960 1.191 137.171
v 91.560 1.292 129.321
v 90.740 1.232 125.919
v 58.140 1.189 133.769
f 737 738 739 740
v -5.881 1.055 34.007
v -1.921 0.842 42.967
v 1.281 0.872 41.553
v -2.679 1.084 32.593
f 741 742 743 744
v -1.920 0.842 42.969
v 2.150 1.085 52.149
v 5.350 1.085 50.731
v 1.280 0.872 41.551
f 745 746 747 748
v 4.192 1.133 53.133
v 75.702 1.102 34.483
v 74.818 1.013 31.097
v 3.308 1.046 49.747
f 749 750 751 752
v -170.545 0.941 133.820
v -157.145 0.895 125.820
v -164.835 0.956 112.940
v -178.235 0.947 120.940
f 753 754 755 756
v -157.144 0.895 125.819
v -134.594 0.965 112.349
v -142.286 1.041 99.471
v -164.836 0.956 112.941
f 757 758 759 760
v -134.690 0.964 112.405
v -92.780 1.148 88.205
v -100.280 1.170 75.215
v -142.190 1.041 99.415
f 761 762 763 764
v -92.780 1.148 88.205
v -72.790 1.054 76.665
v -80.290 1.197 63.675
v -100.280 1.170 75.215
f 765 766 767 768
v -72.778 1.054 76.658
v -45.528 0.969 60.858
v -53.052 1.261 47.882
v -80.302 1.197 63.682
f 769 770 771 772
v -45.844 0.969 61.032
v -27.014 0.868 51.292
v -33.906 1.171 37.968
v -52.736 1.258 47.708
f 773 774 775 776
v -27.428 0.875 51.490
v -9.778 0.823 43.690
v -15.842 1.152 29.970
v -33.492 1.167 37.770
f 777 778 779 780
v -9.942 0.822 43.760
v -1.412 0.877 40.230
v -7.148 1.177 26.370
v -15.678 1.153 29.900
f 781 782 783 784
v -1.955 0.874 40.430
v 25.245 1.015 31.560
v 20.595 1.271 17.300
v -6.605 1.180 26.170
f 785 786 787 788
v 24.696 1.014 31.717
v 52.876 1.053 24.847
v 49.324 1.327 10.273
v 21.144 1.270 17.143
f 789 790 791 792
v 52.523 1.051 24.924
v 72.493 0.915 21.064
v 69.647 1.276 6.336
v 49.677 1.327 10.196
f 793 794 795 796
v 71.755 0.919 21.169
v 81.125 0.893 20.309
v 79.755 1.210 5.371
v 70.385 1.276 6.231
f 797 798 799 800
v 81.037 0.893 20.316
v 129.627 0.850 16.436
v 128.433 0.918 1.484
v 79.843 1.209 5.364
f 801 802 803 804
v 129.504 0.850 16.445
v 204.004 1.084 11.725
v 203.056 1.084 -3.245
v 128.556 0.917 1.475
f 805 806 807 808
v 204.035 1.084 11.723
v 209.225 1.091 11.373
v 208.215 1.128 -3.593
v 203.025 1.084 -3.243
f 809 810 811 812
v 209.168 1.091 11.377
v 238.748 1.111 9.607
v 237.852 1.134 -5.367
v 208.272 1.129 -3.597
f 813 814 815 816
v 238.757 1.111 9.606
v 256.457 1.041 8.525
v 255.543 1.066 -6.447
v 237.843 1.134 -5.366
f 817 818 819 820
v -249.061 1.004 179.700
v -241.731 1.097 174.660
v -250.229 1.189 162.300
v -257.559 1.203 167.340
f 821 822 823 824
v -242.245 1.077 174.984
v -205.365 1.039 153.804
v -212.835 1.030 140.796
v -249.715 1.185 161.976
f 825 826 827 828
v -205.367 1.039 153.805
v -170.657 0.942 133.885
v -178.123 0.947 120.875
v -212.833 1.030 140.795
f 829 830 831 832
v 127.283 0.994 9.065
v 127.863 0.927 18.745
v 131.357 0.919 18.535
v 130.777 1.005 8.855
f 833 834 835 836
v 127.864 0.928 18.756
v 128.424 1.462 27.186
v 131.916 1.408 26.954
v 131.356 0.918 18.524
f 837 838 839 840
v 128.424 1.462 27.186
v 131.384 1.481 71.596
v 134.876 1.413 71.364
v 131.916 1.408 26.954
f 841 842 843 844
v -14.471 0.988 37.381
v -11.291 0.814 46.971
v -7.969 0.815 45.869
v -11.149 0.999 36.279
f 845 846 847 848
v -11.291 0.814 46.970
v -7.871 1.093 57.310
v -4.549 1.086 56.210
v -7.969 0.815 45.870
f 849 850 851 852
v -6.747 1.062 55.095
v -26.337 1.055 61.415
v -25.263 1.174 64.745
v -5.673 1.114 58.425
f 853 854 855 856
v -27.472 1.111 63.596
v -15.782 1.361 101.486
v -12.438 1.386 100.454
v -24.128 1.121 62.564
f 857 858 859 860
v -5.741 1.114 58.446
v -0.381 1.138 56.956
v -1.319 1.071 53.584
v -6.679 1.062 55.074
f 861 862 863 864
v -2.549 1.092 55.690
v 7.041 1.472 94.470
v 10.439 1.478 93.630
v 0.849 1.120 54.850
f 865 866 867 868
v -153.509 0.647 136.401
v -133.529 0.589 172.281
v -130.471 0.637 170.579
v -150.451 0.708 134.699
f 869 870 871 872
v -133.529 0.589 172.281
v -125.079 0.617 187.461
v -122.021 0.651 185.759
v -130.471 0.637 170.579
f 873 874 875 876
v -131.827 0.568 173.171
v -124.487 0.651 172.441
v -124.833 0.699 168.959
v -132.173 0.649 169.689
f 877 878 879 880
v -123.607 0.652 172.098
v -118.097 0.745 167.948
v -120.203 0.746 165.152
v -125.713 0.690 169.302
f 881 882 883 884
v -117.503 0.747 167.140
v -115.493 0.831 161.530
v -118.787 0.737 160.350
v -120.797 0.746 165.960
f 885 886 887 888
v -115.649 0.841 160.024
v -135.309 0.912 128.024
v -138.291 0.901 129.856
v -118.631 0.722 161.856
f 889 890 891 892
v -136.918 0.887 127.194
v -141.358 0.860 127.494
v -141.122 0.898 130.986
v -136.682 0.947 130.686
f 893 894 895 896
v -142.126 0.859 127.731
v -152.866 0.657 134.041
v -151.094 0.687 137.059
v -140.354 0.906 130.749
f 897 898 899 900
v -162.519 1.064 120.231
v -157.779 0.836 128.751
v -154.721 0.848 127.049
v -159.461 1.079 118.529
f 901 902 903 904
v -157.778 0.836 128.753
v -153.508 0.647 136.403
v -150.452 0.708 134.697
v -154.722 0.848 127.047
f 905 906 907 908
v -152.875 0.656 134.046
v -168.735 0.587 143.486
v -166.945 0.515 146.494
v -151.085 0.687 137.054
f 909 910 911 912
v -169.349 0.558 145.876
v -148.749 0.369 180.986
v -145.731 0.538 179.214
v -166.331 0.573 144.104
f 913 914 915 916
v -98.005 1.286 82.652
v -93.195 1.114 90.182
v -90.245 1.144 88.298
v -95.055 1.289 80.768
f 917 918 919 920
v -93.234 1.116 90.118
v -90.984 0.891 93.998
v -87.956 0.989 92.242
v -90.206 1.143 88.362
f 921 922 923 924
v -90.985 0.891 93.996
v -69.795 1.278 130.666
v -66.765 1.306 128.914
v -87.955 0.989 92.244
f 925 926 927 928
v -69.795 1.278 130.667
v -62.675 1.226 142.967
v -59.645 1.221 141.213
v -66.765 1.306 128.913
f 929 930 931 932
v -62.675 1.226 142.966
v -50.255 1.338 164.456
v -47.225 1.301 162.704
v -59.645 1.221 141.214
f 933 934 935 936
v -50.255 1.338 164.456
v -41.245 1.199 180.046
v -38.215 1.113 178.294
v -47.225 1.301 162.704
f 937 938 939 940
v -41.202 1.200 180.116
v -30.452 1.044 196.836
v -27.508 0.892 194.944
v -38.258 1.113 178.224
f 941 942 943 944
v -28.224 0.939 197.468
v -5.524 0.948 186.598
v -7.036 0.942 183.442
v -29.736 0.959 194.312
f 945 946 947 948
v -5.785 0.939 186.699
v 2.905 1.083 184.139
v 1.915 1.085 180.781
v -6.775 0.951 183.341
f 949 950 951 952
v -127.971 0.821 124.121
v -99.441 0.927 108.781
v -101.099 0.898 105.699
v -129.629 0.853 121.039
f 953 954 955 956
v -98.963 0.924 108.404
v -95.123 0.908 104.094
v -97.737 0.878 101.766
v -101.577 0.900 106.076
f 957 958 959 960
v -94.985 0.907 103.917
v -91.415 0.880 98.687
v -94.305 0.828 96.713
v -97.875 0.879 101.943
f 961 962 963 964
v -91.453 0.880 98.741
v -88.063 0.938 94.161
v -90.877 0.986 92.079
v -94.267 0.828 96.659
f 965 966 967 968
v 206.971 1.256 3.954
v 207.311 1.082 13.284
v 210.809 1.087 13.156
v 210.469 1.259 3.826
f 969 970 971 972
v 207.312 1.082 13.309
v 209.062 1.095 47.679
v 212.558 1.105 47.501
v 210.808 1.087 13.131
f 973 974 975 976
v 213.370 0.974 66.053
v 220.200 0.919 73.503
v 222.780 0.913 71.137
v 215.950 1.029 63.687
f 977 978 979 980
v 221.591 0.925 74.067
v 249.311 0.970 72.457
v 249.109 0.944 68.963
v 221.389 0.907 70.573
f 981 982 983 984
v 3.053 1.081 184.088
v 13.463 1.144 179.978
v 12.177 1.032 176.722
v 1.767 1.087 180.832
f 985 986 987 988
v 13.462 1.144 179.978
v 31.752 1.188 172.768
v 30.468 1.159 169.512
v 12.178 1.032 176.722
f 989 990 991 992
v 31.679 1.187 172.795
v 40.319 1.141 169.825
v 39.181 1.188 166.515
v 30.541 1.159 169.485
f 993 994 995 996
v 11.197 1.008 179.006
v 22.277 1.847 206.426
v 25.523 2.131 205.114
v 14.443 1.141 177.694
f 997 998 999 1000
v 22.278 1.847 206.426
v 27.768 1.250 219.996
v 31.012 1.783 218.684
v 25.522 2.131 205.114
f 1001 1002 1003 1004
v 27.767 1.250 219.994
v 30.697 1.223 227.264
v 33.943 1.500 225.956
v 31.013 1.783 218.686
f 1005 1006 1007 1008
v 28.633 1.549 217.762
v 18.413 0.998 222.662
v 19.927 0.982 225.818
v 30.147 1.506 220.918
f 1009 1010 1011 1012
v 136.645 1.013 173.482
v 123.895 1.280 174.032
v 124.045 1.252 177.528
v 136.795 1.001 176.978
f 1013 1014 1015 1016
v 122.225 1.255 175.916
v 123.485 1.196 192.066
v 126.975 1.330 191.794
v 125.715 1.250 175.644
f 1017 1018 1019 1020
v 125.079 1.260 190.187
v 102.509 1.229 192.147
v 102.811 1.231 195.633
v 125.381 1.258 193.673
f 1021 1022 1023 1024
v 104.378 1.209 193.556
v 100.528 1.266 173.726
v 97.092 1.270 174.394
v 100.942 1.248 194.224
f 1025 1026 1027 1028
v 101.025 1.248 194.515
v 108.985 1.086 215.335
v 112.255 1.102 214.085
v 104.295 1.209 193.265
f 1029 1030 1031 1032
v -14.294 1.133 141.714
v -49.614 1.290 162.064
v -47.866 1.315 165.096
v -12.546 1.152 144.746
f 1033 1034 1035 1036
v -7.638 1.173 158.242
v -40.618 1.145 177.662
v -38.842 1.108 180.678
v -5.862 1.151 161.258
f 1037 1038 1039 1040
v -56.128 1.471 126.623
v -45.838 1.426 122.113
v -47.242 1.655 118.907
v -57.532 1.646 123.417
f 1041 1042 1043 1044
v -45.837 1.426 122.113
v -41.597 1.324 120.253
v -43.003 1.484 117.047
v -47.243 1.655 118.907
f 1045 1046 1047 1048
v -67.607 1.288 131.405
v -56.157 1.470 126.635
v -57.503 1.647 123.405
v -68.953 1.265 128.175
f 1049 1050 1051 1052
v -41.560 1.322 120.236
v -25.880 1.019 112.916
v -27.360 1.008 109.744
v -43.040 1.486 117.064
f 1053 1054 1055 1056
v -49.398 1.216 137.497
v -35.758 1.093 129.657
v -37.502 1.135 126.623
v -51.142 1.279 134.463
f 1057 1058 1059 1060
v -60.304 1.217 143.616
v -49.414 1.215 137.506
v -51.126 1.279 134.454
v -62.016 1.238 140.564
f 1061 1062 1063 1064
v -35.804 1.094 129.683
v -21.724 1.063 122.143
v -23.376 1.042 119.057
v -37.456 1.134 126.597
f 1065 1066 1067 1068
v 100.737 1.075 216.054
v 95.957 1.265 198.744
v 92.583 1.069 199.676
v 97.363 1.071 216.986
f 1069 1070 1071 1072
v 93.741 1.185 197.542
v 68.931 0.910 205.412
v 69.989 0.898 208.748
v 94.799 1.137 200.878
f 1073 1074 1075 1076
v 67.710 0.949 207.116
v 67.850 1.000 213.946
v 71.350 0.929 213.874
v 71.210 0.847 207.044
f 1077 1078 1079 1080
v 67.937 1.000 214.455
v 71.437 0.983 225.135
v 74.763 0.990 224.045
v 71.263 0.929 213.365
f 1081 1082 1083 1084
v 130.060 1.349 25.323
v 95.400 1.352 27.503
v 95.620 1.523 30.997
v 130.280 1.492 28.817
f 1085 1086 1087 1088
v 93.764 1.414 29.367
v 96.694 1.773 73.027
v 100.186 1.791 72.793
v 97.256 1.474 29.133
f 1089 1090 1091 1092
v 98.512 1.758 74.659
v 133.202 1.444 73.229
v 133.058 1.501 69.731
v 98.368 1.798 71.161
f 1093 1094 1095 1096
v 133.203 1.444 73.228
v 157.303 1.180 72.218
v 157.157 1.249 68.722
v 133.057 1.502 69.732
f 1097 1098 1099 1100
usemtl asphalt
