# Baked ultra-low Key West silhouette; generated by bake_key_west_far_city.py
mtllib far_city.mtl
usemtl massing
v -292.198 0.456 138.277
v -156.314 0.456 190.153
v -174.482 0.456 237.743
v -310.366 0.456 185.867
v -292.198 8.756 138.277
v -156.314 8.756 190.153
v -174.482 8.756 237.743
v -310.366 8.756 185.867
f 8 7 6 5
f 1 2 6 5
f 2 3 7 6
f 3 4 8 7
f 4 1 5 8
v -161.450 1.797 135.457
v -132.269 1.797 148.368
v -139.770 1.797 165.323
v -168.951 1.797 152.412
v -161.450 5.697 135.457
v -132.269 5.697 148.368
v -139.770 5.697 165.323
v -168.951 5.697 152.412
f 16 15 14 13
f 9 10 14 13
f 10 11 15 14
f 11 12 16 15
f 12 9 13 16
v -171.908 0.599 42.953
v -117.344 0.599 62.053
v -123.972 0.599 80.987
v -178.536 0.599 61.887
v -171.908 6.399 42.953
v -117.344 6.399 62.053
v -123.972 6.399 80.987
v -178.536 6.399 61.887
f 24 23 22 21
f 17 18 22 21
f 18 19 23 22
f 19 20 24 23
f 20 17 21 24
v -80.316 0.388 132.795
v -70.109 0.388 104.649
v -53.244 0.388 110.765
v -63.451 0.388 138.911
v -80.316 6.188 132.795
v -70.109 6.188 104.649
v -53.244 6.188 110.765
v -63.451 6.188 138.911
f 32 31 30 29
f 25 26 30 29
f 26 27 31 30
f 27 28 32 31
f 28 25 29 32
v -127.004 0.688 159.566
v -123.839 0.688 114.447
v -72.136 0.688 118.074
v -75.301 0.688 163.193
v -127.004 8.988 159.566
v -123.839 8.988 114.447
v -72.136 8.988 118.074
v -75.301 8.988 163.193
f 40 39 38 37
f 33 34 38 37
f 34 35 39 38
f 35 36 40 39
f 36 33 37 40
v -98.202 0.415 23.751
v -52.517 0.415 39.398
v -58.878 0.415 57.969
v -104.563 0.415 42.322
v -98.202 6.215 23.751
v -52.517 6.215 39.398
v -58.878 6.215 57.969
v -104.563 6.215 42.322
f 48 47 46 45
f 41 42 46 45
f 42 43 47 46
f 43 44 48 47
f 44 41 45 48
v -57.242 0.413 137.240
v -44.271 0.413 101.310
v -29.118 0.413 106.780
v -42.089 0.413 142.710
v -57.242 6.213 137.240
v -44.271 6.213 101.310
v -29.118 6.213 106.780
v -42.089 6.213 142.710
f 56 55 54 53
f 49 50 54 53
f 50 51 55 54
f 51 52 56 55
f 52 49 53 56
v -51.932 0.365 94.515
v -47.505 0.365 81.634
v -39.268 0.365 84.465
v -43.695 0.365 97.346
v -51.932 4.265 94.515
v -47.505 4.265 81.634
v -39.268 4.265 84.465
v -43.695 4.265 97.346
f 64 63 62 61
f 57 58 62 61
f 58 59 63 62
f 59 60 64 63
f 60 57 61 64
v -41.922 0.616 4.280
v -8.480 0.616 15.891
v -15.538 0.616 36.220
v -48.980 0.616 24.609
v -41.922 6.416 4.280
v -8.480 6.416 15.891
v -15.538 6.416 36.220
v -48.980 6.416 24.609
f 72 71 70 69
f 65 66 70 69
f 66 67 71 70
f 67 68 72 71
f 68 65 69 72
v 205.051 1.361 -240.116
v 285.844 1.361 -207.362
v 273.529 1.361 -176.984
v 192.736 1.361 -209.738
v 205.051 7.661 -240.116
v 285.844 7.661 -207.362
v 273.529 7.661 -176.984
v 192.736 7.661 -209.738
f 80 79 78 77
f 73 74 78 77
f 74 75 79 78
f 75 76 80 79
f 76 73 77 80
v 221.711 0.878 -118.735
v 239.131 0.878 -112.446
v 234.509 0.878 -99.645
v 217.089 0.878 -105.934
v 221.711 4.778 -118.735
v 239.131 4.778 -112.446
v 234.509 4.778 -99.645
v 217.089 4.778 -105.934
f 88 87 86 85
f 81 82 86 85
f 82 83 87 86
f 83 84 88 87
f 84 81 85 88
v -258.645 0.726 263.767
v -256.504 0.726 243.601
v -238.495 0.726 245.513
v -240.636 0.726 265.679
v -258.645 4.626 263.767
v -256.504 4.626 243.601
v -238.495 4.626 245.513
v -240.636 4.626 265.679
f 96 95 94 93
f 89 90 94 93
f 90 91 95 94
f 91 92 96 95
f 92 89 93 96
v -242.303 0.607 258.199
v -233.549 0.607 238.103
v -220.237 0.607 243.901
v -228.991 0.607 263.997
v -242.303 4.507 258.199
v -233.549 4.507 238.103
v -220.237 4.507 243.901
v -228.991 4.507 263.997
f 104 103 102 101
f 97 98 102 101
f 98 99 103 102
f 99 100 104 103
f 100 97 101 104
v -224.190 0.700 248.418
v -218.586 0.700 232.400
v -205.890 0.700 236.842
v -211.494 0.700 252.860
v -224.190 4.600 248.418
v -218.586 4.600 232.400
v -205.890 4.600 236.842
v -211.494 4.600 252.860
f 112 111 110 109
f 105 106 110 109
f 106 107 111 110
f 107 108 112 111
f 108 105 109 112
v -205.993 0.448 226.544
v -190.616 0.448 231.950
v -193.627 0.448 240.516
v -209.004 0.448 235.110
v -205.993 4.348 226.544
v -190.616 4.348 231.950
v -193.627 4.348 240.516
v -209.004 4.348 235.110
f 120 119 118 117
f 113 114 118 117
f 114 115 119 118
f 115 116 120 119
f 116 113 117 120
v -190.158 0.766 237.529
v -188.664 0.766 222.071
v -171.902 0.766 223.691
v -173.396 0.766 239.149
v -190.158 4.666 237.529
v -188.664 4.666 222.071
v -171.902 4.666 223.691
v -173.396 4.666 239.149
f 128 127 126 125
f 121 122 126 125
f 122 123 127 126
f 123 124 128 127
f 124 121 125 128
v -175.662 0.566 236.138
v -166.137 0.566 215.532
v -153.438 0.566 221.402
v -162.963 0.566 242.008
v -175.662 4.466 236.138
v -166.137 4.466 215.532
v -153.438 4.466 221.402
v -162.963 4.466 242.008
f 136 135 134 133
f 129 130 134 133
f 130 131 135 134
f 131 132 136 135
f 132 129 133 136
v -157.030 -0.300 241.640
v -154.504 -0.300 234.504
v -149.150 -0.300 236.400
v -151.676 -0.300 243.536
v -157.030 3.600 241.640
v -154.504 3.600 234.504
v -149.150 3.600 236.400
v -151.676 3.600 243.536
f 144 143 142 141
f 137 138 142 141
f 138 139 143 142
f 139 140 144 143
f 140 137 141 144
v -146.674 0.924 203.759
v -133.547 0.924 218.835
v -148.186 0.924 231.581
v -161.313 0.924 216.505
v -146.674 4.824 203.759
v -133.547 4.824 218.835
v -148.186 4.824 231.581
v -161.313 4.824 216.505
f 152 151 150 149
f 145 146 150 149
f 146 147 151 150
f 147 148 152 151
f 148 145 149 152
v -135.607 0.744 190.740
v -104.646 0.744 196.598
v -108.893 0.744 219.040
v -139.854 0.744 213.182
v -135.607 4.644 190.740
v -104.646 4.644 196.598
v -108.893 4.644 219.040
v -139.854 4.644 213.182
f 160 159 158 157
f 153 154 158 157
f 154 155 159 158
f 155 156 160 159
f 156 153 157 160
v -104.993 0.397 220.184
v -102.833 0.397 218.683
v -101.407 0.397 220.736
v -103.567 0.397 222.237
v -104.993 4.297 220.184
v -102.833 4.297 218.683
v -101.407 4.297 220.736
v -103.567 4.297 222.237
f 168 167 166 165
f 161 162 166 165
f 162 163 167 166
f 163 164 168 167
f 164 161 165 168
v -106.709 0.598 207.198
v -100.831 0.598 189.847
v -87.031 0.598 194.522
v -92.909 0.598 211.873
v -106.709 4.498 207.198
v -100.831 4.498 189.847
v -87.031 4.498 194.522
v -92.909 4.498 211.873
f 176 175 174 173
f 169 170 174 173
f 170 171 175 174
f 171 172 176 175
f 172 169 173 176
v -86.162 0.402 216.144
v -85.092 0.402 213.203
v -82.198 0.402 214.256
v -83.268 0.402 217.197
v -86.162 4.302 216.144
v -85.092 4.302 213.203
v -82.198 4.302 214.256
v -83.268 4.302 217.197
f 184 183 182 181
f 177 178 182 181
f 178 179 183 182
f 179 180 184 183
f 180 177 181 184
v -86.614 0.456 209.801
v -83.460 0.456 210.664
v -84.246 0.456 213.539
v -87.400 0.456 212.676
v -86.614 4.356 209.801
v -83.460 4.356 210.664
v -84.246 4.356 213.539
v -87.400 4.356 212.676
f 192 191 190 189
f 185 186 190 189
f 186 187 191 190
f 187 188 192 191
f 188 185 189 192
v -96.140 0.637 202.474
v -80.364 0.637 177.252
v -63.620 0.637 187.726
v -79.396 0.637 212.948
v -96.140 4.537 202.474
v -80.364 4.537 177.252
v -63.620 4.537 187.726
v -79.396 4.537 212.948
f 200 199 198 197
f 193 194 198 197
f 194 195 199 198
f 195 196 200 199
f 196 193 197 200
v -72.526 0.575 196.792
v -66.347 0.575 180.077
v -52.034 0.575 185.368
v -58.213 0.575 202.083
v -72.526 4.475 196.792
v -66.347 4.475 180.077
v -52.034 4.475 185.368
v -58.213 4.475 202.083
f 208 207 206 205
f 201 202 206 205
f 202 203 207 206
f 203 204 208 207
f 204 201 205 208
v -56.500 -0.300 200.490
v -49.544 -0.300 203.238
v -50.900 -0.300 206.670
v -57.856 -0.300 203.922
v -56.500 3.600 200.490
v -49.544 3.600 203.238
v -50.900 3.600 206.670
v -57.856 3.600 203.922
f 216 215 214 213
f 209 210 214 213
f 210 211 215 214
f 211 212 216 215
f 212 209 213 216
v -57.381 0.511 189.440
v -52.385 0.511 166.088
v -35.879 0.511 169.620
v -40.875 0.511 192.972
v -57.381 4.411 189.440
v -52.385 4.411 166.088
v -35.879 4.411 169.620
v -40.875 4.411 192.972
f 224 223 222 221
f 217 218 222 221
f 218 219 223 222
f 219 220 224 223
f 220 217 221 224
v -23.991 0.596 192.980
v -18.419 0.596 186.574
v -12.549 0.596 191.680
v -18.121 0.596 198.086
v -23.991 4.496 192.980
v -18.419 4.496 186.574
v -12.549 4.496 191.680
v -18.121 4.496 198.086
f 232 231 230 229
f 225 226 230 229
f 226 227 231 230
f 227 228 232 231
f 228 225 229 232
v -41.244 0.826 184.179
v -29.503 0.826 164.623
v -15.116 0.826 173.261
v -26.857 0.826 192.817
v -41.244 4.726 184.179
v -29.503 4.726 164.623
v -15.116 4.726 173.261
v -26.857 4.726 192.817
f 240 239 238 237
f 233 234 238 237
f 234 235 239 238
f 235 236 240 239
f 236 233 237 240
v -13.059 0.679 186.170
v -6.802 0.679 188.206
v -8.481 0.679 193.370
v -14.738 0.679 191.334
v -13.059 4.579 186.170
v -6.802 4.579 188.206
v -8.481 4.579 193.370
v -14.738 4.579 191.334
f 248 247 246 245
f 241 242 246 245
f 242 243 247 246
f 243 244 248 247
f 244 241 245 248
v -3.379 -0.300 182.644
v 3.348 -0.300 185.066
v 1.919 -0.300 189.036
v -4.808 -0.300 186.614
v -3.379 3.600 182.644
v 3.348 3.600 185.066
v 1.919 3.600 189.036
v -4.808 3.600 186.614
f 256 255 254 253
f 249 250 254 253
f 250 251 255 254
f 251 252 256 255
f 252 249 253 256
v -22.581 0.951 180.008
v -14.805 0.951 157.430
v -0.339 0.951 162.412
v -8.115 0.951 184.990
v -22.581 4.851 180.008
v -14.805 4.851 157.430
v -0.339 4.851 162.412
v -8.115 4.851 184.990
f 264 263 262 261
f 257 258 262 261
f 258 259 263 262
f 259 260 264 263
f 260 257 261 264
v 27.012 1.351 139.060
v 38.059 1.351 170.145
v 20.288 1.351 176.460
v 9.241 1.351 145.375
v 27.012 5.251 139.060
v 38.059 5.251 170.145
v 20.288 5.251 176.460
v 9.241 5.251 145.375
f 272 271 270 269
f 265 266 270 269
f 266 267 271 270
f 267 268 272 271
f 268 265 269 272
v 37.518 0.758 161.677
v 44.690 0.758 140.900
v 54.662 0.758 144.343
v 47.490 0.758 165.120
v 37.518 4.658 161.677
v 44.690 4.658 140.900
v 54.662 4.658 144.343
v 47.490 4.658 165.120
f 280 279 278 277
f 273 274 278 277
f 274 275 279 278
f 275 276 280 279
f 276 273 277 280
v 48.930 0.489 133.043
v 57.187 0.489 128.366
v 61.850 0.489 136.597
v 53.593 0.489 141.274
v 48.930 4.389 133.043
v 57.187 4.389 128.366
v 61.850 4.389 136.597
v 53.593 4.389 141.274
f 288 287 286 285
f 281 282 286 285
f 282 283 287 286
f 283 284 288 287
f 284 281 285 288
v 51.424 0.931 159.404
v 62.799 0.931 134.181
v 76.536 0.931 140.376
v 65.161 0.931 165.599
v 51.424 4.831 159.404
v 62.799 4.831 134.181
v 76.536 4.831 140.376
v 65.161 4.831 165.599
f 296 295 294 293
f 289 290 294 293
f 290 291 295 294
f 291 292 296 295
f 292 289 293 296
v 76.388 0.823 124.679
v 91.858 0.823 135.327
v 82.832 0.823 148.441
v 67.362 0.823 137.793
v 76.388 4.723 124.679
v 91.858 4.723 135.327
v 82.832 4.723 148.441
v 67.362 4.723 137.793
f 304 303 302 301
f 297 298 302 301
f 298 299 303 302
f 299 300 304 303
f 300 297 301 304
v 78.241 0.865 158.384
v 80.020 0.865 153.487
v 84.559 0.865 155.136
v 82.780 0.865 160.033
v 78.241 4.765 158.384
v 80.020 4.765 153.487
v 84.559 4.765 155.136
v 82.780 4.765 160.033
f 312 311 310 309
f 305 306 310 309
f 306 307 311 310
f 307 308 312 311
f 308 305 309 312
v 85.200 0.815 127.715
v 105.213 0.815 120.660
v 111.440 0.815 138.325
v 91.427 0.815 145.380
v 85.200 4.715 127.715
v 105.213 4.715 120.660
v 111.440 4.715 138.325
v 91.427 4.715 145.380
f 320 319 318 317
f 313 314 318 317
f 314 315 319 318
f 315 316 320 319
f 316 313 317 320
v 103.327 0.611 138.018
v 111.948 0.611 114.158
v 126.573 0.611 119.442
v 117.952 0.611 143.302
v 103.327 4.511 138.018
v 111.948 4.511 114.158
v 126.573 4.511 119.442
v 117.952 4.511 143.302
f 328 327 326 325
f 321 322 326 325
f 322 323 327 326
f 323 324 328 327
f 324 321 325 328
v 121.521 0.538 127.429
v 127.256 0.538 107.373
v 140.399 0.538 111.131
v 134.664 0.538 131.187
v 121.521 4.438 127.429
v 127.256 4.438 107.373
v 140.399 4.438 111.131
v 134.664 4.438 131.187
f 336 335 334 333
f 329 330 334 333
f 330 331 335 334
f 331 332 336 335
f 332 329 333 336
v 138.041 0.445 110.554
v 165.349 0.445 101.095
v 174.019 0.445 126.126
v 146.711 0.445 135.585
v 138.041 4.345 110.554
v 165.349 4.345 101.095
v 174.019 4.345 126.126
v 146.711 4.345 135.585
f 344 343 342 341
f 337 338 342 341
f 338 339 343 342
f 339 340 344 343
f 340 337 341 344
v 174.388 0.676 118.146
v 183.154 0.676 121.128
v 180.832 0.676 127.954
v 172.066 0.676 124.972
v 174.388 4.576 118.146
v 183.154 4.576 121.128
v 180.832 4.576 127.954
v 172.066 4.576 124.972
f 352 351 350 349
f 345 346 350 349
f 346 347 351 350
f 347 348 352 351
f 348 345 349 352
v 161.641 0.874 112.245
v 171.659 0.874 88.568
v 192.759 0.874 97.495
v 182.741 0.874 121.172
v 161.641 4.774 112.245
v 171.659 4.774 88.568
v 192.759 4.774 97.495
v 182.741 4.774 121.172
f 360 359 358 357
f 353 354 358 357
f 354 355 359 358
f 355 356 360 359
f 356 353 357 360
v 188.082 -0.300 119.753
v 188.780 -0.300 109.216
v 199.218 -0.300 109.907
v 198.520 -0.300 120.444
v 188.082 3.600 119.753
v 188.780 3.600 109.216
v 199.218 3.600 109.907
v 198.520 3.600 120.444
f 368 367 366 365
f 361 362 366 365
f 362 363 367 366
f 363 364 368 367
f 364 361 365 368
v 194.091 0.811 103.574
v 208.621 0.811 77.236
v 229.049 0.811 88.506
v 214.519 0.811 114.844
v 194.091 6.611 103.574
v 208.621 6.611 77.236
v 229.049 6.611 88.506
v 214.519 6.611 114.844
f 376 375 374 373
f 369 370 374 373
f 370 371 375 374
f 371 372 376 375
f 372 369 373 376
v 220.212 0.835 81.990
v 247.622 0.835 69.030
v 258.668 0.835 92.390
v 231.258 0.835 105.350
v 220.212 4.735 81.990
v 247.622 4.735 69.030
v 258.668 4.735 92.390
v 231.258 4.735 105.350
f 384 383 382 381
f 377 378 382 381
f 378 379 383 382
f 379 380 384 383
f 380 377 381 384
v 154.857 1.010 -239.025
v 166.001 1.010 -268.284
v 177.683 1.010 -263.835
v 166.539 1.010 -234.576
v 154.857 4.910 -239.025
v 166.001 4.910 -268.284
v 177.683 4.910 -263.835
v 166.539 4.910 -234.576
f 392 391 390 389
f 385 386 390 389
f 386 387 391 390
f 387 388 392 391
f 388 385 389 392
v 189.132 1.086 -241.373
v 197.930 1.086 -267.755
v 208.508 1.086 -264.227
v 199.710 1.086 -237.845
v 189.132 4.986 -241.373
v 197.930 4.986 -267.755
v 208.508 4.986 -264.227
v 199.710 4.986 -237.845
f 400 399 398 397
f 393 394 398 397
f 394 395 399 398
f 395 396 400 399
f 396 393 397 400
v 137.264 0.921 -125.755
v 141.555 0.921 -142.349
v 151.236 0.921 -139.845
v 146.945 0.921 -123.251
v 137.264 4.821 -125.755
v 141.555 4.821 -142.349
v 151.236 4.821 -139.845
v 146.945 4.821 -123.251
f 408 407 406 405
f 401 402 406 405
f 402 403 407 406
f 403 404 408 407
f 404 401 405 408
v 165.236 1.180 -176.722
v 173.747 1.180 -173.857
v 171.304 1.180 -166.598
v 162.793 1.180 -169.463
v 165.236 5.080 -176.722
v 173.747 5.080 -173.857
v 171.304 5.080 -166.598
v 162.793 5.080 -169.463
f 416 415 414 413
f 409 410 414 413
f 410 411 415 414
f 411 412 416 415
f 412 409 413 416
v 192.750 1.136 -186.377
v 201.783 1.136 -183.404
v 199.170 1.136 -175.463
v 190.137 1.136 -178.436
v 192.750 5.036 -186.377
v 201.783 5.036 -183.404
v 199.170 5.036 -175.463
v 190.137 5.036 -178.436
f 424 423 422 421
f 417 418 422 421
f 418 419 423 422
f 419 420 424 423
f 420 417 421 424
v 178.693 1.124 -181.435
v 187.573 1.124 -178.414
v 185.087 1.124 -171.105
v 176.207 1.124 -174.126
v 178.693 5.024 -181.435
v 187.573 5.024 -178.414
v 185.087 5.024 -171.105
v 176.207 5.024 -174.126
f 432 431 430 429
f 425 426 430 429
f 426 427 431 430
f 427 428 432 431
f 428 425 429 432
v -32.010 0.997 -163.844
v -13.634 0.997 -217.019
v -0.430 0.997 -212.456
v -18.806 0.997 -159.281
v -32.010 6.797 -163.844
v -13.634 6.797 -217.019
v -0.430 6.797 -212.456
v -18.806 6.797 -159.281
f 440 439 438 437
f 433 434 438 437
f 434 435 439 438
f 435 436 440 439
f 436 433 437 440
v 224.652 0.538 30.613
v 226.268 0.538 26.241
v 229.748 0.538 27.527
v 228.132 0.538 31.899
v 224.652 4.438 30.613
v 226.268 4.438 26.241
v 229.748 4.438 27.527
v 228.132 4.438 31.899
f 448 447 446 445
f 441 442 446 445
f 442 443 447 446
f 443 444 448 447
f 444 441 445 448
v 250.690 0.415 16.386
v 252.760 0.415 11.758
v 257.270 0.415 13.774
v 255.200 0.415 18.402
v 250.690 4.315 16.386
v 252.760 4.315 11.758
v 257.270 4.315 13.774
v 255.200 4.315 18.402
f 456 455 454 453
f 449 450 454 453
f 450 451 455 454
f 451 452 456 455
f 452 449 453 456
v -57.320 0.882 -154.595
v -41.514 0.882 -198.698
v -28.420 0.882 -194.005
v -44.226 0.882 -149.902
v -57.320 6.682 -154.595
v -41.514 6.682 -198.698
v -28.420 6.682 -194.005
v -44.226 6.682 -149.902
f 464 463 462 461
f 457 458 462 461
f 458 459 463 462
f 459 460 464 463
f 460 457 461 464
v 40.294 1.291 -225.264
v 49.330 1.291 -222.496
v 46.726 1.291 -213.996
v 37.690 1.291 -216.764
v 40.294 5.191 -225.264
v 49.330 5.191 -222.496
v 46.726 5.191 -213.996
v 37.690 5.191 -216.764
f 472 471 470 469
f 465 466 470 469
f 466 467 471 470
f 467 468 472 471
f 468 465 469 472
v 205.555 0.471 22.738
v 208.669 0.471 23.918
v 207.545 0.471 26.882
v 204.431 0.471 25.702
v 205.555 4.371 22.738
v 208.669 4.371 23.918
v 207.545 4.371 26.882
v 204.431 4.371 25.702
f 480 479 478 477
f 473 474 478 477
f 474 475 479 478
f 475 476 480 479
f 476 473 477 480
v -60.581 0.772 -193.007
v -55.797 0.772 -148.815
v -86.299 0.772 -145.513
v -91.083 0.772 -189.705
v -60.581 6.572 -193.007
v -55.797 6.572 -148.815
v -86.299 6.572 -145.513
v -91.083 6.572 -189.705
f 488 487 486 485
f 481 482 486 485
f 482 483 487 486
f 483 484 488 487
f 484 481 485 488
v -257.693 0.333 -217.123
v -256.402 0.333 -221.078
v -253.027 0.333 -219.977
v -254.318 0.333 -216.022
v -257.693 4.233 -217.123
v -256.402 4.233 -221.078
v -253.027 4.233 -219.977
v -254.318 4.233 -216.022
f 496 495 494 493
f 489 490 494 493
f 490 491 495 494
f 491 492 496 495
f 492 489 493 496
v -254.312 0.256 -204.396
v -251.473 0.256 -206.285
v -250.088 0.256 -204.204
v -252.927 0.256 -202.315
v -254.312 4.156 -204.396
v -251.473 4.156 -206.285
v -250.088 4.156 -204.204
v -252.927 4.156 -202.315
f 504 503 502 501
f 497 498 502 501
f 498 499 503 502
f 499 500 504 503
f 500 497 501 504
v -255.286 0.296 -185.783
v -242.741 0.296 -169.632
v -248.554 0.296 -165.117
v -261.099 0.296 -181.268
v -255.286 4.196 -185.783
v -242.741 4.196 -169.632
v -248.554 4.196 -165.117
v -261.099 4.196 -181.268
f 512 511 510 509
f 505 506 510 509
f 506 507 511 510
f 507 508 512 511
f 508 505 509 512
v -247.605 0.330 -188.209
v -246.021 0.330 -186.275
v -247.955 0.330 -184.691
v -249.539 0.330 -186.625
v -247.605 4.230 -188.209
v -246.021 4.230 -186.275
v -247.955 4.230 -184.691
v -249.539 4.230 -186.625
f 520 519 518 517
f 513 514 518 517
f 514 515 519 518
f 515 516 520 519
f 516 513 517 520
v -251.166 0.400 -175.140
v -240.728 0.400 -159.804
v -245.994 0.400 -156.220
v -256.432 0.400 -171.556
v -251.166 4.300 -175.140
v -240.728 4.300 -159.804
v -245.994 4.300 -156.220
v -256.432 4.300 -171.556
f 528 527 526 525
f 521 522 526 525
f 522 523 527 526
f 523 524 528 527
f 524 521 525 528
v -248.480 0.385 -164.867
v -237.117 0.385 -147.660
v -240.580 0.385 -145.373
v -251.943 0.385 -162.580
v -248.480 4.285 -164.867
v -237.117 4.285 -147.660
v -240.580 4.285 -145.373
v -251.943 4.285 -162.580
f 536 535 534 533
f 529 530 534 533
f 530 531 535 534
f 531 532 536 535
f 532 529 533 536
v -245.396 0.528 -154.839
v -233.500 0.528 -138.340
v -238.464 0.528 -134.761
v -250.360 0.528 -151.260
v -245.396 4.428 -154.839
v -233.500 4.428 -138.340
v -238.464 4.428 -134.761
v -250.360 4.428 -151.260
f 544 543 542 541
f 537 538 542 541
f 538 539 543 542
f 539 540 544 543
f 540 537 541 544
v -240.770 0.612 -144.640
v -229.497 0.612 -127.483
v -235.590 0.612 -123.480
v -246.863 0.612 -140.637
v -240.770 4.512 -144.640
v -229.497 4.512 -127.483
v -235.590 4.512 -123.480
v -246.863 4.512 -140.637
f 552 551 550 549
f 545 546 550 549
f 546 547 551 550
f 547 548 552 551
f 548 545 549 552
v -238.447 0.396 -131.256
v -228.869 0.396 -116.111
v -231.853 0.396 -114.224
v -241.431 0.396 -129.369
v -238.447 4.296 -131.256
v -228.869 4.296 -116.111
v -231.853 4.296 -114.224
v -241.431 4.296 -129.369
f 560 559 558 557
f 553 554 558 557
f 554 555 559 558
f 555 556 560 559
f 556 553 557 560
v -234.494 0.426 -123.305
v -223.387 0.426 -107.766
v -228.886 0.426 -103.835
v -239.993 0.426 -119.374
v -234.494 4.326 -123.305
v -223.387 4.326 -107.766
v -228.886 4.326 -103.835
v -239.993 4.326 -119.374
f 568 567 566 565
f 561 562 566 565
f 562 563 567 566
f 563 564 568 567
f 564 561 565 568
v -229.452 0.461 -114.232
v -220.107 0.461 -100.440
v -225.968 0.461 -96.468
v -235.313 0.461 -110.260
v -229.452 4.361 -114.232
v -220.107 4.361 -100.440
v -225.968 4.361 -96.468
v -235.313 4.361 -110.260
f 576 575 574 573
f 569 570 574 573
f 570 571 575 574
f 571 572 576 575
f 572 569 573 576
v -225.931 0.498 -103.682
v -216.506 0.498 -85.838
v -223.889 0.498 -81.938
v -233.314 0.498 -99.782
v -225.931 4.398 -103.682
v -216.506 4.398 -85.838
v -223.889 4.398 -81.938
v -233.314 4.398 -99.782
f 584 583 582 581
f 577 578 582 581
f 578 579 583 582
f 579 580 584 583
f 580 577 581 584
v -204.062 0.639 -115.611
v -161.614 0.639 -100.821
v -164.378 0.639 -92.889
v -206.826 0.639 -107.679
v -204.062 4.539 -115.611
v -161.614 4.539 -100.821
v -164.378 4.539 -92.889
v -206.826 4.539 -107.679
f 592 591 590 589
f 585 586 590 589
f 586 587 591 590
f 587 588 592 591
f 588 585 589 592
v -209.770 0.544 -131.669
v -167.054 0.544 -117.547
v -169.750 0.544 -109.391
v -212.466 0.544 -123.513
v -209.770 4.444 -131.669
v -167.054 4.444 -117.547
v -169.750 4.444 -109.391
v -212.466 4.444 -123.513
f 600 599 598 597
f 593 594 598 597
f 594 595 599 598
f 595 596 600 599
f 596 593 597 600
v -216.000 0.554 -155.369
v -175.447 0.554 -140.508
v -178.620 0.554 -131.851
v -219.173 0.554 -146.712
v -216.000 4.454 -155.369
v -175.447 4.454 -140.508
v -178.620 4.454 -131.851
v -219.173 4.454 -146.712
f 608 607 606 605
f 601 602 606 605
f 602 603 607 606
f 603 604 608 607
f 604 601 605 608
v -221.748 0.537 -170.223
v -181.066 0.537 -157.053
v -183.752 0.537 -148.757
v -224.434 0.537 -161.927
v -221.748 4.437 -170.223
v -181.066 4.437 -157.053
v -183.752 4.437 -148.757
v -224.434 4.437 -161.927
f 616 615 614 613
f 609 610 614 613
f 610 611 615 614
f 611 612 616 615
f 612 609 613 616
v -229.742 0.554 -194.602
v -188.928 0.554 -179.324
v -192.098 0.554 -170.858
v -232.912 0.554 -186.136
v -229.742 4.454 -194.602
v -188.928 4.454 -179.324
v -192.098 4.454 -170.858
v -232.912 4.454 -186.136
f 624 623 622 621
f 617 618 622 621
f 618 619 623 622
f 619 620 624 623
f 620 617 621 624
v -235.603 0.489 -209.550
v -194.668 0.489 -195.746
v -197.377 0.489 -187.710
v -238.312 0.489 -201.514
v -235.603 4.389 -209.550
v -194.668 4.389 -195.746
v -197.377 4.389 -187.710
v -238.312 4.389 -201.514
f 632 631 630 629
f 625 626 630 629
f 626 627 631 630
f 627 628 632 631
f 628 625 629 632
v -242.790 0.555 -232.235
v -202.034 0.555 -217.641
v -205.170 0.555 -208.885
v -245.926 0.555 -223.479
v -242.790 4.455 -232.235
v -202.034 4.455 -217.641
v -205.170 4.455 -208.885
v -245.926 4.455 -223.479
f 640 639 638 637
f 633 634 638 637
f 634 635 639 638
f 635 636 640 639
f 636 633 637 640
v -133.393 0.568 -140.183
v -92.462 0.568 -126.026
v -95.267 0.568 -117.917
v -136.198 0.568 -132.074
v -133.393 4.468 -140.183
v -92.462 4.468 -126.026
v -95.267 4.468 -117.917
v -136.198 4.468 -132.074
f 648 647 646 645
f 641 642 646 645
f 642 643 647 646
f 643 644 648 647
f 644 641 645 648
v -138.562 0.562 -155.929
v -97.526 0.562 -142.080
v -100.398 0.562 -133.571
v -141.434 0.562 -147.420
v -138.562 4.462 -155.929
v -97.526 4.462 -142.080
v -100.398 4.462 -133.571
v -141.434 4.462 -147.420
f 656 655 654 653
f 649 650 654 653
f 650 651 655 654
f 651 652 656 655
f 652 649 653 656
v -147.109 0.552 -180.052
v -105.733 0.552 -164.621
v -109.871 0.552 -153.528
v -151.247 0.552 -168.959
v -147.109 6.352 -180.052
v -105.733 6.352 -164.621
v -109.871 6.352 -153.528
v -151.247 6.352 -168.959
f 664 663 662 661
f 657 658 662 661
f 658 659 663 662
f 659 660 664 663
f 660 657 661 664
v -152.398 0.449 -194.206
v -111.760 0.449 -180.807
v -114.482 0.449 -172.554
v -155.120 0.449 -185.953
v -152.398 4.349 -194.206
v -111.760 4.349 -180.807
v -114.482 4.349 -172.554
v -155.120 4.349 -185.953
f 672 671 670 669
f 665 666 670 669
f 666 667 671 670
f 667 668 672 671
f 668 665 669 672
v -159.828 0.441 -218.053
v -119.206 0.441 -204.605
v -122.012 0.441 -196.127
v -162.634 0.441 -209.575
v -159.828 4.341 -218.053
v -119.206 4.341 -204.605
v -122.012 4.341 -196.127
v -162.634 4.341 -209.575
f 680 679 678 677
f 673 674 678 677
f 674 675 679 678
f 675 676 680 679
f 676 673 677 680
v -165.914 0.572 -234.049
v -124.913 0.572 -220.034
v -127.786 0.572 -211.631
v -168.787 0.572 -225.646
v -165.914 4.472 -234.049
v -124.913 4.472 -220.034
v -127.786 4.472 -211.631
v -168.787 4.472 -225.646
f 688 687 686 685
f 681 682 686 685
f 682 683 687 686
f 683 684 688 687
f 684 681 685 688
v -9.183 0.765 -184.810
v 12.581 0.765 -253.558
v 27.263 0.765 -248.910
v 5.499 0.765 -180.162
v -9.183 6.565 -184.810
v 12.581 6.565 -253.558
v 27.263 6.565 -248.910
v 5.499 6.565 -180.162
f 696 695 694 693
f 689 690 694 693
f 690 691 695 694
f 691 692 696 695
f 692 689 693 696
v 35.309 0.888 -219.346
v 79.370 0.888 -204.517
v 74.691 0.888 -190.614
v 30.630 0.888 -205.443
v 35.309 6.688 -219.346
v 79.370 6.688 -204.517
v 74.691 6.688 -190.614
v 30.630 6.688 -205.443
f 704 703 702 701
f 697 698 702 701
f 698 699 703 702
f 699 700 704 703
f 700 697 701 704
v 44.552 0.742 -269.526
v 89.942 0.742 -254.383
v 85.628 0.742 -241.454
v 40.238 0.742 -256.597
v 44.552 6.542 -269.526
v 89.942 6.542 -254.383
v 85.628 6.542 -241.454
v 40.238 6.542 -256.597
f 712 711 710 709
f 705 706 710 709
f 706 707 711 710
f 707 708 712 711
f 708 705 709 712
v 71.406 0.985 -206.175
v 86.003 0.985 -249.650
v 100.014 0.985 -244.945
v 85.417 0.985 -201.470
v 71.406 6.785 -206.175
v 86.003 6.785 -249.650
v 100.014 6.785 -244.945
v 85.417 6.785 -201.470
f 720 719 718 717
f 713 714 718 717
f 714 715 719 718
f 715 716 720 719
f 716 713 717 720
v 90.729 0.638 -235.030
v 104.666 0.638 -278.794
v 119.311 0.638 -274.130
v 105.374 0.638 -230.366
v 90.729 6.438 -235.030
v 104.666 6.438 -278.794
v 119.311 6.438 -274.130
v 105.374 6.438 -230.366
f 728 727 726 725
f 721 722 726 725
f 722 723 727 726
f 723 724 728 727
f 724 721 725 728
v -221.632 1.155 -34.446
v -217.430 1.155 -62.594
v -198.668 1.155 -59.794
v -202.870 1.155 -31.646
v -221.632 5.055 -34.446
v -217.430 5.055 -62.594
v -198.668 5.055 -59.794
v -202.870 5.055 -31.646
f 736 735 734 733
f 729 730 734 733
f 730 731 735 734
f 731 732 736 735
f 732 729 733 736
v -203.458 1.241 -66.553
v -183.568 1.241 -73.860
v -174.422 1.241 -48.967
v -194.312 1.241 -41.660
v -203.458 5.141 -66.553
v -183.568 5.141 -73.860
v -174.422 5.141 -48.967
v -194.312 5.141 -41.660
f 744 743 742 741
f 737 738 742 741
f 738 739 743 742
f 739 740 744 743
f 740 737 741 744
v -160.537 1.130 -76.481
v -155.652 1.130 -57.283
v -175.083 1.130 -52.339
v -179.968 1.130 -71.537
v -160.537 5.030 -76.481
v -155.652 5.030 -57.283
v -175.083 5.030 -52.339
v -179.968 5.030 -71.537
f 752 751 750 749
f 745 746 750 749
f 746 747 751 750
f 747 748 752 751
f 748 745 749 752
v -150.433 0.858 -64.101
v -145.125 0.858 -79.152
v -136.807 0.858 -76.219
v -142.115 0.858 -61.168
v -150.433 4.758 -64.101
v -145.125 4.758 -79.152
v -136.807 4.758 -76.219
v -142.115 4.758 -61.168
f 760 759 758 757
f 753 754 758 757
f 754 755 759 758
f 755 756 760 759
f 756 753 757 760
v -263.319 0.491 -231.935
v -249.505 0.491 -243.553
v -246.841 0.491 -240.385
v -260.655 0.491 -228.767
v -263.319 4.391 -231.935
v -249.505 4.391 -243.553
v -246.841 4.391 -240.385
v -260.655 4.391 -228.767
f 768 767 766 765
f 761 762 766 765
f 762 763 767 766
f 763 764 768 767
f 764 761 765 768
v -251.838 0.450 -237.904
v -238.456 0.450 -249.656
v -234.662 0.450 -245.336
v -248.044 0.450 -233.584
v -251.838 4.350 -237.904
v -238.456 4.350 -249.656
v -234.662 4.350 -245.336
v -248.044 4.350 -233.584
f 776 775 774 773
f 769 770 774 773
f 770 771 775 774
f 771 772 776 775
f 772 769 773 776
v -239.823 0.449 -239.756
v -225.695 0.449 -251.167
v -223.157 0.449 -248.024
v -237.285 0.449 -236.613
v -239.823 4.349 -239.756
v -225.695 4.349 -251.167
v -223.157 4.349 -248.024
v -237.285 4.349 -236.613
f 784 783 782 781
f 777 778 782 781
f 778 779 783 782
f 779 780 784 783
f 780 777 781 784
v -229.270 0.448 -245.067
v -214.991 0.448 -258.081
v -210.390 0.448 -253.033
v -224.669 0.448 -240.019
v -229.270 4.348 -245.067
v -214.991 4.348 -258.081
v -210.390 4.348 -253.033
v -224.669 4.348 -240.019
f 792 791 790 789
f 785 786 790 789
f 786 787 791 790
f 787 788 792 791
f 788 785 789 792
v -217.743 0.353 -248.798
v -203.916 0.353 -262.162
v -198.697 0.353 -256.762
v -212.524 0.353 -243.398
v -217.743 4.253 -248.798
v -203.916 4.253 -262.162
v -198.697 4.253 -256.762
v -212.524 4.253 -243.398
f 800 799 798 797
f 793 794 798 797
f 794 795 799 798
f 795 796 800 799
f 796 793 797 800
v -204.996 0.447 -232.854
v -190.529 0.447 -245.401
v -185.504 0.447 -239.606
v -199.971 0.447 -227.059
v -204.996 4.347 -232.854
v -190.529 4.347 -245.401
v -185.504 4.347 -239.606
v -199.971 4.347 -227.059
f 808 807 806 805
f 801 802 806 805
f 802 803 807 806
f 803 804 808 807
f 804 801 805 808
v -207.125 0.457 -251.811
v -193.039 0.457 -264.798
v -188.735 0.457 -260.129
v -202.821 0.457 -247.142
v -207.125 4.357 -251.811
v -193.039 4.357 -264.798
v -188.735 4.357 -260.129
v -202.821 4.357 -247.142
f 816 815 814 813
f 809 810 814 813
f 810 811 815 814
f 811 812 816 815
f 812 809 813 816
v -185.722 0.464 -239.029
v -173.480 0.464 -252.657
v -167.618 0.464 -247.391
v -179.860 0.464 -233.763
v -185.722 4.364 -239.029
v -173.480 4.364 -252.657
v -167.618 4.364 -247.391
v -179.860 4.364 -233.763
f 824 823 822 821
f 817 818 822 821
f 818 819 823 822
f 819 820 824 823
f 820 817 821 824
v -193.513 0.555 -236.177
v -180.302 0.555 -247.191
v -176.127 0.555 -242.183
v -189.338 0.555 -231.169
v -193.513 4.455 -236.177
v -180.302 4.455 -247.191
v -176.127 4.455 -242.183
v -189.338 4.455 -231.169
f 832 831 830 829
f 825 826 830 829
f 826 827 831 830
f 827 828 832 831
f 828 825 829 832
v -159.902 0.512 -252.239
v -155.689 0.512 -242.895
v -162.198 0.512 -239.961
v -166.411 0.512 -249.305
v -159.902 4.412 -252.239
v -155.689 4.412 -242.895
v -162.198 4.412 -239.961
v -166.411 4.412 -249.305
f 840 839 838 837
f 833 834 838 837
f 834 835 839 838
f 835 836 840 839
f 836 833 837 840
v -148.056 0.468 -256.133
v -146.705 0.468 -238.465
v -154.004 0.468 -237.907
v -155.355 0.468 -255.575
v -148.056 4.368 -256.133
v -146.705 4.368 -238.465
v -154.004 4.368 -237.907
v -155.355 4.368 -255.575
f 848 847 846 845
f 841 842 846 845
f 842 843 847 846
f 843 844 848 847
f 844 841 845 848
v -147.080 0.451 -245.552
v -139.235 0.451 -259.966
v -133.140 0.451 -256.648
v -140.985 0.451 -242.234
v -147.080 4.351 -245.552
v -139.235 4.351 -259.966
v -133.140 4.351 -256.648
v -140.985 4.351 -242.234
f 856 855 854 853
f 849 850 854 853
f 850 851 855 854
f 851 852 856 855
f 852 849 853 856
v -119.582 0.574 -251.209
v -109.474 0.574 -238.269
v -114.438 0.574 -234.391
v -124.546 0.574 -247.331
v -119.582 4.474 -251.209
v -109.474 4.474 -238.269
v -114.438 4.474 -234.391
v -124.546 4.474 -247.331
f 864 863 862 861
f 857 858 862 861
f 858 859 863 862
f 859 860 864 863
f 860 857 861 864
v -114.206 0.572 -242.520
v -104.951 0.572 -228.070
v -111.494 0.572 -223.880
v -120.749 0.572 -238.330
v -114.206 4.472 -242.520
v -104.951 4.472 -228.070
v -111.494 4.472 -223.880
v -120.749 4.472 -238.330
f 872 871 870 869
f 865 866 870 869
f 866 867 871 870
f 867 868 872 871
f 868 865 869 872
v -112.917 0.527 -232.384
v -101.422 0.527 -217.940
v -107.283 0.527 -213.276
v -118.778 0.527 -227.720
v -112.917 4.427 -232.384
v -101.422 4.427 -217.940
v -107.283 4.427 -213.276
v -118.778 4.427 -227.720
f 880 879 878 877
f 873 874 878 877
f 874 875 879 878
f 875 876 880 879
f 876 873 877 880
v -110.105 0.546 -222.400
v -98.583 0.546 -208.195
v -104.175 0.546 -203.660
v -115.697 0.546 -217.865
v -110.105 4.446 -222.400
v -98.583 4.446 -208.195
v -104.175 4.446 -203.660
v -115.697 4.446 -217.865
f 888 887 886 885
f 881 882 886 885
f 882 883 887 886
f 883 884 888 887
f 884 881 885 888
v -107.304 0.536 -211.079
v -95.380 0.536 -198.697
v -99.716 0.536 -194.521
v -111.640 0.536 -206.903
v -107.304 4.436 -211.079
v -95.380 4.436 -198.697
v -99.716 4.436 -194.521
v -111.640 4.436 -206.903
f 896 895 894 893
f 889 890 894 893
f 890 891 895 894
f 891 892 896 895
f 892 889 893 896
v -105.095 0.610 -202.251
v -91.164 0.610 -188.836
v -95.985 0.610 -183.829
v -109.916 0.610 -197.244
v -105.095 4.510 -202.251
v -91.164 4.510 -188.836
v -95.985 4.510 -183.829
v -109.916 4.510 -197.244
f 904 903 902 901
f 897 898 902 901
f 898 899 903 902
f 899 900 904 903
f 900 897 901 904
v -76.984 0.666 -198.152
v -66.703 0.666 -195.079
v -68.476 0.666 -189.148
v -78.757 0.666 -192.221
v -76.984 4.566 -198.152
v -66.703 4.566 -195.079
v -68.476 4.566 -189.148
v -78.757 4.566 -192.221
f 912 911 910 909
f 905 906 910 909
f 906 907 911 910
f 907 908 912 911
f 908 905 909 912
v -77.045 0.564 -206.790
v -71.592 0.564 -198.075
v -77.035 0.564 -194.670
v -82.488 0.564 -203.385
v -77.045 4.464 -206.790
v -71.592 4.464 -198.075
v -77.035 4.464 -194.670
v -82.488 4.464 -203.385
f 920 919 918 917
f 913 914 918 917
f 914 915 919 918
f 915 916 920 919
f 916 913 917 920
v -80.993 0.637 -222.356
v -68.706 0.637 -209.616
v -74.047 0.637 -204.464
v -86.334 0.637 -217.204
v -80.993 4.537 -222.356
v -68.706 4.537 -209.616
v -74.047 4.537 -204.464
v -86.334 4.537 -217.204
f 928 927 926 925
f 921 922 926 925
f 922 923 927 926
f 923 924 928 927
f 924 921 925 928
v -85.351 0.611 -231.393
v -73.380 0.611 -218.559
v -78.689 0.611 -213.607
v -90.660 0.611 -226.441
v -85.351 4.511 -231.393
v -73.380 4.511 -218.559
v -78.689 4.511 -213.607
v -90.660 4.511 -226.441
f 936 935 934 933
f 929 930 934 933
f 930 931 935 934
f 931 932 936 935
f 932 929 933 936
v -88.589 0.648 -241.864
v -76.969 0.648 -229.278
v -81.671 0.648 -224.936
v -93.291 0.648 -237.522
v -88.589 4.548 -241.864
v -76.969 4.548 -229.278
v -81.671 4.548 -224.936
v -93.291 4.548 -237.522
f 944 943 942 941
f 937 938 942 941
f 938 939 943 942
f 939 940 944 943
f 940 937 941 944
v -91.934 0.624 -252.332
v -79.267 0.624 -239.153
v -83.766 0.624 -234.828
v -96.433 0.624 -248.007
v -91.934 4.524 -252.332
v -79.267 4.524 -239.153
v -83.766 4.524 -234.828
v -96.433 4.524 -248.007
f 952 951 950 949
f 945 946 950 949
f 946 947 951 950
f 947 948 952 951
f 948 945 949 952
v -95.430 0.589 -262.043
v -83.069 0.589 -249.741
v -88.050 0.589 -244.737
v -100.411 0.589 -257.039
v -95.430 4.489 -262.043
v -83.069 4.489 -249.741
v -88.050 4.489 -244.737
v -100.411 4.489 -257.039
f 960 959 958 957
f 953 954 958 957
f 954 955 959 958
f 955 956 960 959
f 956 953 957 960
v -183.199 1.386 19.625
v -168.124 1.386 32.678
v -180.901 1.386 47.435
v -195.976 1.386 34.382
v -183.199 5.286 19.625
v -168.124 5.286 32.678
v -180.901 5.286 47.435
v -195.976 5.286 34.382
f 968 967 966 965
f 961 962 966 965
f 962 963 967 966
f 963 964 968 967
f 964 961 965 968
v -164.358 0.978 14.527
v -147.707 0.978 21.149
v -154.422 0.978 38.033
v -171.073 0.978 31.411
v -164.358 4.878 14.527
v -147.707 4.878 21.149
v -154.422 4.878 38.033
v -171.073 4.878 31.411
f 976 975 974 973
f 969 970 974 973
f 970 971 975 974
f 971 972 976 975
f 972 969 973 976
v -138.321 1.546 3.409
v -122.852 1.546 18.600
v -137.279 1.546 33.291
v -152.748 1.546 18.100
v -138.321 5.446 3.409
v -122.852 5.446 18.600
v -137.279 5.446 33.291
v -152.748 5.446 18.100
f 984 983 982 981
f 977 978 982 981
f 978 979 983 982
f 979 980 984 983
f 980 977 981 984
v -121.290 1.135 -2.925
v -102.699 1.135 7.368
v -112.310 1.135 24.725
v -130.901 1.135 14.432
v -121.290 5.035 -2.925
v -102.699 5.035 7.368
v -112.310 5.035 24.725
v -130.901 5.035 14.432
f 992 991 990 989
f 985 986 990 989
f 986 987 991 990
f 987 988 992 991
f 988 985 989 992
v -91.794 1.040 -9.134
v -81.304 1.040 8.386
v -98.386 1.040 18.614
v -108.876 1.040 1.094
v -91.794 4.940 -9.134
v -81.304 4.940 8.386
v -98.386 4.940 18.614
v -108.876 4.940 1.094
f 1000 999 998 997
f 993 994 998 997
f 994 995 999 998
f 995 996 1000 999
f 996 993 997 1000
v -83.687 1.549 6.077
v -83.492 1.549 -14.152
v -63.293 1.549 -13.957
v -63.488 1.549 6.272
v -83.687 5.449 6.077
v -83.492 5.449 -14.152
v -63.293 5.449 -13.957
v -63.488 5.449 6.272
f 1008 1007 1006 1005
f 1001 1002 1006 1005
f 1002 1003 1007 1006
f 1003 1004 1008 1007
f 1004 1001 1005 1008
v -65.614 1.633 -16.120
v -47.161 1.633 -24.116
v -39.086 1.633 -5.480
v -57.539 1.633 2.516
v -65.614 5.533 -16.120
v -47.161 5.533 -24.116
v -39.086 5.533 -5.480
v -57.539 5.533 2.516
f 1016 1015 1014 1013
f 1009 1010 1014 1013
f 1010 1011 1015 1014
f 1011 1012 1016 1015
f 1012 1009 1013 1016
v -36.493 1.321 -31.085
v -18.312 1.321 -23.952
v -25.467 1.321 -5.715
v -43.648 1.321 -12.848
v -36.493 5.221 -31.085
v -18.312 5.221 -23.952
v -25.467 5.221 -5.715
v -43.648 5.221 -12.848
f 1024 1023 1022 1021
f 1017 1018 1022 1021
f 1018 1019 1023 1022
f 1019 1020 1024 1023
f 1020 1017 1021 1024
v -213.919 1.142 -17.002
v -191.617 1.142 -26.550
v -183.581 1.142 -7.778
v -205.883 1.142 1.770
v -213.919 5.042 -17.002
v -191.617 5.042 -26.550
v -183.581 5.042 -7.778
v -205.883 5.042 1.770
f 1032 1031 1030 1029
f 1025 1026 1030 1029
f 1026 1027 1031 1030
f 1027 1028 1032 1031
f 1028 1025 1029 1032
v -175.320 0.936 -35.711
v -161.578 0.936 -19.385
v -177.660 0.936 -5.849
v -191.402 0.936 -22.175
v -175.320 4.836 -35.711
v -161.578 4.836 -19.385
v -177.660 4.836 -5.849
v -191.402 4.836 -22.175
f 1040 1039 1038 1037
f 1033 1034 1038 1037
f 1034 1035 1039 1038
f 1035 1036 1040 1039
f 1036 1033 1037 1040
v -151.214 0.930 -41.404
v -140.108 0.930 -24.340
v -157.046 0.930 -13.316
v -168.152 0.930 -30.380
v -151.214 4.830 -41.404
v -140.108 4.830 -24.340
v -157.046 4.830 -13.316
v -168.152 4.830 -30.380
f 1048 1047 1046 1045
f 1041 1042 1046 1045
f 1042 1043 1047 1046
f 1043 1044 1048 1047
f 1044 1041 1045 1048
v -125.594 1.100 -49.262
v -115.434 1.100 -30.610
v -137.046 1.100 -18.838
v -147.206 1.100 -37.490
v -125.594 5.000 -49.262
v -115.434 5.000 -30.610
v -137.046 5.000 -18.838
v -147.206 5.000 -37.490
f 1056 1055 1054 1053
f 1049 1050 1054 1053
f 1050 1051 1055 1054
f 1051 1052 1056 1055
f 1052 1049 1053 1056
v -104.598 0.922 -56.720
v -98.615 0.922 -35.746
v -121.002 0.922 -29.360
v -126.985 0.922 -50.334
v -104.598 4.822 -56.720
v -98.615 4.822 -35.746
v -121.002 4.822 -29.360
v -126.985 4.822 -50.334
f 1064 1063 1062 1061
f 1057 1058 1062 1061
f 1058 1059 1063 1062
f 1059 1060 1064 1063
f 1060 1057 1061 1064
v -102.917 0.928 -45.474
v -92.813 0.928 -62.965
v -76.543 0.928 -53.566
v -86.647 0.928 -36.075
v -102.917 4.828 -45.474
v -92.813 4.828 -62.965
v -76.543 4.828 -53.566
v -86.647 4.828 -36.075
f 1072 1071 1070 1069
f 1065 1066 1070 1069
f 1066 1067 1071 1070
f 1067 1068 1072 1071
f 1068 1065 1069 1072
v -83.260 0.961 -65.940
v -63.164 0.961 -75.089
v -52.880 0.961 -52.500
v -72.976 0.961 -43.351
v -83.260 4.861 -65.940
v -63.164 4.861 -75.089
v -52.880 4.861 -52.500
v -72.976 4.861 -43.351
f 1080 1079 1078 1077
f 1073 1074 1078 1077
f 1074 1075 1079 1078
f 1075 1076 1080 1079
f 1076 1073 1077 1080
v -61.896 0.996 -67.465
v -43.101 0.996 -80.248
v -30.864 0.996 -62.255
v -49.659 0.996 -49.472
v -61.896 4.896 -67.465
v -43.101 4.896 -80.248
v -30.864 4.896 -62.255
v -49.659 4.896 -49.472
f 1088 1087 1086 1085
f 1081 1082 1086 1085
f 1082 1083 1087 1086
f 1083 1084 1088 1087
f 1084 1081 1085 1088
v -138.344 1.217 -84.472
v -118.903 1.217 -94.313
v -109.536 1.217 -75.808
v -128.977 1.217 -65.967
v -138.344 5.117 -84.472
v -118.903 5.117 -94.313
v -109.536 5.117 -75.808
v -128.977 5.117 -65.967
f 1096 1095 1094 1093
f 1089 1090 1094 1093
f 1090 1091 1095 1094
f 1091 1092 1096 1095
f 1092 1089 1093 1096
v -115.197 1.284 -80.182
v -110.104 1.284 -100.019
v -90.703 1.284 -95.038
v -95.796 1.284 -75.201
v -115.197 5.184 -80.182
v -110.104 5.184 -100.019
v -90.703 5.184 -95.038
v -95.796 5.184 -75.201
f 1104 1103 1102 1101
f 1097 1098 1102 1101
f 1098 1099 1103 1102
f 1099 1100 1104 1103
f 1100 1097 1101 1104
v -80.897 1.028 -112.399
v -66.277 1.028 -96.417
v -84.243 1.028 -79.981
v -98.863 1.028 -95.963
v -80.897 4.928 -112.399
v -66.277 4.928 -96.417
v -84.243 4.928 -79.981
v -98.863 4.928 -95.963
f 1112 1111 1110 1109
f 1105 1106 1110 1109
f 1106 1107 1111 1110
f 1107 1108 1112 1111
f 1108 1105 1109 1112
v -74.303 1.004 -108.179
v -55.836 1.004 -119.613
v -43.297 1.004 -99.361
v -61.764 1.004 -87.927
v -74.303 4.904 -108.179
v -55.836 4.904 -119.613
v -43.297 4.904 -99.361
v -61.764 4.904 -87.927
f 1120 1119 1118 1117
f 1113 1114 1118 1117
f 1114 1115 1119 1118
f 1115 1116 1120 1119
f 1116 1113 1117 1120
v 20.658 0.840 -24.470
v 77.648 0.840 1.770
v 68.062 0.840 22.590
v 11.072 0.840 -3.650
v 20.658 6.640 -24.470
v 77.648 6.640 1.770
v 68.062 6.640 22.590
v 11.072 6.640 -3.650
f 1128 1127 1126 1125
f 1121 1122 1126 1125
f 1122 1123 1127 1126
f 1123 1124 1128 1127
f 1124 1121 1125 1128
v 88.224 0.635 -39.968
v 121.340 0.635 -21.454
v 112.136 0.635 -4.992
v 79.020 0.635 -23.506
v 88.224 6.435 -39.968
v 121.340 6.435 -21.454
v 112.136 6.435 -4.992
v 79.020 6.435 -23.506
f 1136 1135 1134 1133
f 1129 1130 1134 1133
f 1130 1131 1135 1134
f 1131 1132 1136 1135
f 1132 1129 1133 1136
v 128.154 0.712 -57.386
v 182.522 0.712 -36.336
v 176.326 0.712 -20.334
v 121.958 0.712 -41.384
v 128.154 6.512 -57.386
v 182.522 6.512 -36.336
v 176.326 6.512 -20.334
v 121.958 6.512 -41.384
f 1144 1143 1142 1141
f 1137 1138 1142 1141
f 1138 1139 1143 1142
f 1139 1140 1144 1143
f 1140 1137 1141 1144
v 11.875 0.988 -48.011
v 25.136 0.988 -27.863
v 7.185 0.988 -16.049
v -6.076 0.988 -36.197
v 11.875 4.888 -48.011
v 25.136 4.888 -27.863
v 7.185 4.888 -16.049
v -6.076 4.888 -36.197
f 1152 1151 1150 1149
f 1145 1146 1150 1149
f 1146 1147 1151 1150
f 1147 1148 1152 1151
f 1148 1145 1149 1152
v 19.514 1.126 -48.554
v 41.160 1.126 -48.122
v 40.766 1.126 -28.386
v 19.120 1.126 -28.818
v 19.514 5.026 -48.554
v 41.160 5.026 -48.122
v 40.766 5.026 -28.386
v 19.120 5.026 -28.818
f 1160 1159 1158 1157
f 1153 1154 1158 1157
f 1154 1155 1159 1158
f 1155 1156 1160 1159
f 1156 1153 1157 1160
v 37.096 0.937 -55.140
v 60.916 0.937 -56.687
v 62.264 0.937 -35.920
v 38.444 0.937 -34.373
v 37.096 4.837 -55.140
v 60.916 4.837 -56.687
v 62.264 4.837 -35.920
v 38.444 4.837 -34.373
f 1168 1167 1166 1165
f 1161 1162 1166 1165
f 1162 1163 1167 1166
f 1163 1164 1168 1167
f 1164 1161 1165 1168
v 65.233 0.914 -64.540
v 85.249 0.914 -60.502
v 81.367 0.914 -41.260
v 61.351 0.914 -45.298
v 65.233 4.814 -64.540
v 85.249 4.814 -60.502
v 81.367 4.814 -41.260
v 61.351 4.814 -45.298
f 1176 1175 1174 1173
f 1169 1170 1174 1173
f 1170 1171 1175 1174
f 1171 1172 1176 1175
f 1172 1169 1173 1176
v 100.296 0.985 -74.707
v 108.202 0.985 -55.415
v 88.724 0.985 -47.433
v 80.818 0.985 -66.725
v 100.296 4.885 -74.707
v 108.202 4.885 -55.415
v 88.724 4.885 -47.433
v 80.818 4.885 -66.725
f 1184 1183 1182 1181
f 1177 1178 1182 1181
f 1178 1179 1183 1182
f 1179 1180 1184 1183
f 1180 1177 1181 1184
v 116.065 1.019 -82.500
v 130.500 1.019 -67.372
v 116.255 1.019 -53.780
v 101.820 1.019 -68.908
v 116.065 4.919 -82.500
v 130.500 4.919 -67.372
v 116.255 4.919 -53.780
v 101.820 4.919 -68.908
f 1192 1191 1190 1189
f 1185 1186 1190 1189
f 1186 1187 1191 1190
f 1187 1188 1192 1191
f 1188 1185 1189 1192
v 122.738 1.218 -75.767
v 138.724 1.218 -90.457
v 152.622 1.218 -75.333
v 136.636 1.218 -60.643
v 122.738 5.118 -75.767
v 138.724 5.118 -90.457
v 152.622 5.118 -75.333
v 136.636 5.118 -60.643
f 1200 1199 1198 1197
f 1193 1194 1198 1197
f 1194 1195 1199 1198
f 1195 1196 1200 1199
f 1196 1193 1197 1200
v 167.153 0.943 -95.716
v 173.103 0.943 -74.671
v 152.847 0.943 -68.944
v 146.897 0.943 -89.989
v 167.153 4.843 -95.716
v 173.103 4.843 -74.671
v 152.847 4.843 -68.944
v 146.897 4.843 -89.989
f 1208 1207 1206 1205
f 1201 1202 1206 1205
f 1202 1203 1207 1206
f 1203 1204 1208 1207
f 1204 1201 1205 1208
v 186.905 0.627 -87.912
v 193.834 0.627 -103.479
v 204.195 0.627 -98.868
v 197.266 0.627 -83.301
v 186.905 4.527 -87.912
v 193.834 4.527 -103.479
v 204.195 4.527 -98.868
v 197.266 4.527 -83.301
f 1216 1215 1214 1213
f 1209 1210 1214 1213
f 1210 1211 1215 1214
f 1211 1212 1216 1215
f 1212 1209 1213 1216
v -9.270 1.086 -91.360
v 6.100 1.086 -78.023
v -6.830 1.086 -63.120
v -22.200 1.086 -76.457
v -9.270 4.986 -91.360
v 6.100 4.986 -78.023
v -6.830 4.986 -63.120
v -22.200 4.986 -76.457
f 1224 1223 1222 1221
f 1217 1218 1222 1221
f 1218 1219 1223 1222
f 1219 1220 1224 1223
f 1220 1217 1221 1224
v 22.605 1.193 -98.515
v 25.554 1.193 -76.784
v 4.635 1.193 -73.945
v 1.686 1.193 -95.676
v 22.605 5.093 -98.515
v 25.554 5.093 -76.784
v 4.635 5.093 -73.945
v 1.686 5.093 -95.676
f 1232 1231 1230 1229
f 1225 1226 1230 1229
f 1226 1227 1231 1230
f 1227 1228 1232 1231
f 1228 1225 1229 1232
v 20.916 1.711 -91.348
v 33.509 1.711 -108.066
v 49.724 1.711 -95.852
v 37.131 1.711 -79.134
v 20.916 5.611 -91.348
v 33.509 5.611 -108.066
v 49.724 5.611 -95.852
v 37.131 5.611 -79.134
f 1240 1239 1238 1237
f 1233 1234 1238 1237
f 1234 1235 1239 1238
f 1235 1236 1240 1239
f 1236 1233 1237 1240
v 61.568 1.627 -114.836
v 70.667 1.627 -96.277
v 51.632 1.627 -86.944
v 42.533 1.627 -105.503
v 61.568 5.527 -114.836
v 70.667 5.527 -96.277
v 51.632 5.527 -86.944
v 42.533 5.527 -105.503
f 1248 1247 1246 1245
f 1241 1242 1246 1245
f 1242 1243 1247 1246
f 1243 1244 1248 1247
f 1244 1241 1245 1248
v 83.652 1.505 -122.306
v 92.069 1.505 -102.979
v 72.908 1.505 -94.634
v 64.491 1.505 -113.961
v 83.652 5.405 -122.306
v 92.069 5.405 -102.979
v 72.908 5.405 -94.634
v 64.491 5.405 -113.961
f 1256 1255 1254 1253
f 1249 1250 1254 1253
f 1250 1251 1255 1254
f 1251 1252 1256 1255
f 1252 1249 1253 1256
v 106.330 1.713 -129.520
v 113.667 1.713 -110.250
v 93.210 1.713 -102.460
v 85.873 1.713 -121.730
v 106.330 5.613 -129.520
v 113.667 5.613 -110.250
v 93.210 5.613 -102.460
v 85.873 5.613 -121.730
f 1264 1263 1262 1261
f 1257 1258 1262 1261
f 1258 1259 1263 1262
f 1259 1260 1264 1263
f 1260 1257 1261 1264
v 109.378 1.069 -113.986
v 116.272 1.069 -132.429
v 125.302 1.069 -129.054
v 118.408 1.069 -110.611
v 109.378 4.969 -113.986
v 116.272 4.969 -132.429
v 125.302 4.969 -129.054
v 118.408 4.969 -110.611
f 1272 1271 1270 1269
f 1265 1266 1270 1269
f 1266 1267 1271 1270
f 1267 1268 1272 1271
f 1268 1265 1269 1272
v 120.560 0.968 -126.139
v 127.414 0.968 -147.149
v 139.640 0.968 -143.161
v 132.786 0.968 -122.151
v 120.560 4.868 -126.139
v 127.414 4.868 -147.149
v 139.640 4.868 -143.161
v 132.786 4.868 -122.151
f 1280 1279 1278 1277
f 1273 1274 1278 1277
f 1274 1275 1279 1278
f 1275 1276 1280 1279
f 1276 1273 1277 1280
v 166.511 1.178 -143.500
v 183.613 1.178 -155.721
v 194.589 1.178 -140.360
v 177.487 1.178 -128.139
v 166.511 5.078 -143.500
v 183.613 5.078 -155.721
v 194.589 5.078 -140.360
v 177.487 5.078 -128.139
f 1288 1287 1286 1285
f 1281 1282 1286 1285
f 1282 1283 1287 1286
f 1283 1284 1288 1287
f 1284 1281 1285 1288
v 195.194 1.585 -146.213
v 202.528 1.585 -163.339
v 217.686 1.585 -156.847
v 210.352 1.585 -139.721
v 195.194 5.485 -146.213
v 202.528 5.485 -163.339
v 217.686 5.485 -156.847
v 210.352 5.485 -139.721
f 1296 1295 1294 1293
f 1289 1290 1294 1293
f 1290 1291 1295 1294
f 1291 1292 1296 1295
f 1292 1289 1293 1296
v 212.490 1.199 -147.747
v 223.153 1.199 -165.033
v 235.570 1.199 -157.373
v 224.907 1.199 -140.087
v 212.490 5.099 -147.747
v 223.153 5.099 -165.033
v 235.570 5.099 -157.373
v 224.907 5.099 -140.087
f 1304 1303 1302 1301
f 1297 1298 1302 1301
f 1298 1299 1303 1302
f 1299 1300 1304 1303
f 1300 1297 1301 1304
v 216.282 1.110 -172.174
v 218.073 1.110 -176.584
v 221.418 1.110 -175.226
v 219.627 1.110 -170.816
v 216.282 5.010 -172.174
v 218.073 5.010 -176.584
v 221.418 5.010 -175.226
v 219.627 5.010 -170.816
f 1312 1311 1310 1309
f 1305 1306 1310 1309
f 1306 1307 1311 1310
f 1307 1308 1312 1311
f 1308 1305 1309 1312
v 228.644 1.349 -177.980
v 235.818 1.349 -175.471
v 233.996 1.349 -170.260
v 226.822 1.349 -172.769
v 228.644 5.249 -177.980
v 235.818 5.249 -175.471
v 233.996 5.249 -170.260
v 226.822 5.249 -172.769
f 1320 1319 1318 1317
f 1313 1314 1318 1317
f 1314 1315 1319 1318
f 1315 1316 1320 1319
f 1316 1313 1317 1320
v 223.397 1.212 -179.870
v 227.219 1.212 -178.561
v 226.023 1.212 -175.070
v 222.201 1.212 -176.379
v 223.397 5.112 -179.870
v 227.219 5.112 -178.561
v 226.023 5.112 -175.070
v 222.201 5.112 -176.379
f 1328 1327 1326 1325
f 1321 1322 1326 1325
f 1322 1323 1327 1326
f 1323 1324 1328 1327
f 1324 1321 1325 1328
v 233.577 1.024 -163.939
v 246.644 1.024 -175.878
v 257.423 1.024 -164.081
v 244.356 1.024 -152.142
v 233.577 4.924 -163.939
v 246.644 4.924 -175.878
v 257.423 4.924 -164.081
v 244.356 4.924 -152.142
f 1336 1335 1334 1333
f 1329 1330 1334 1333
f 1330 1331 1335 1334
f 1331 1332 1336 1335
f 1332 1329 1333 1336
v 185.537 1.205 -187.030
v 189.566 1.205 -198.863
v 195.303 1.205 -196.910
v 191.274 1.205 -185.077
v 185.537 5.105 -187.030
v 189.566 5.105 -198.863
v 195.303 5.105 -196.910
v 191.274 5.105 -185.077
f 1344 1343 1342 1341
f 1337 1338 1342 1341
f 1338 1339 1343 1342
f 1339 1340 1344 1343
f 1340 1337 1341 1344
v 171.278 1.289 -182.000
v 175.229 1.289 -193.806
v 181.042 1.289 -191.860
v 177.091 1.289 -180.054
v 171.278 5.189 -182.000
v 175.229 5.189 -193.806
v 181.042 5.189 -191.860
v 177.091 5.189 -180.054
f 1352 1351 1350 1349
f 1345 1346 1350 1349
f 1346 1347 1351 1350
f 1347 1348 1352 1351
f 1348 1345 1349 1352
v 157.962 1.372 -177.849
v 162.062 1.372 -189.647
v 167.918 1.372 -187.611
v 163.818 1.372 -175.813
v 157.962 5.272 -177.849
v 162.062 5.272 -189.647
v 167.918 5.272 -187.611
v 163.818 5.272 -175.813
f 1360 1359 1358 1357
f 1353 1354 1358 1357
f 1354 1355 1359 1358
f 1355 1356 1360 1359
f 1356 1353 1357 1360
v 116.931 1.565 -162.671
v 122.285 1.565 -182.190
v 141.389 1.565 -176.949
v 136.035 1.565 -157.430
v 116.931 5.465 -162.671
v 122.285 5.465 -182.190
v 141.389 5.465 -176.949
v 136.035 5.465 -157.430
f 1368 1367 1366 1365
f 1361 1362 1366 1365
f 1362 1363 1367 1366
f 1363 1364 1368 1367
f 1364 1361 1365 1368
v -3.543 0.656 121.352
v 0.934 0.656 95.954
v 17.243 0.656 98.828
v 12.766 0.656 124.226
v -3.543 4.556 121.352
v 0.934 4.556 95.954
v 17.243 4.556 98.828
v 12.766 4.556 124.226
f 1376 1375 1374 1373
f 1369 1370 1374 1373
f 1370 1371 1375 1374
f 1371 1372 1376 1375
f 1372 1369 1373 1376
v 15.167 0.623 111.430
v 22.847 0.623 93.604
v 37.853 0.623 100.070
v 30.173 0.623 117.896
v 15.167 4.523 111.430
v 22.847 4.523 93.604
v 37.853 4.523 100.070
v 30.173 4.523 117.896
f 1384 1383 1382 1381
f 1377 1378 1382 1381
f 1378 1379 1383 1382
f 1379 1380 1384 1383
f 1380 1377 1381 1384
v 31.554 0.774 109.885
v 39.062 0.774 83.857
v 55.626 0.774 88.635
v 48.118 0.774 114.663
v 31.554 4.674 109.885
v 39.062 4.674 83.857
v 55.626 4.674 88.635
v 48.118 4.674 114.663
f 1392 1391 1390 1389
f 1385 1386 1390 1389
f 1386 1387 1391 1390
f 1387 1388 1392 1391
f 1388 1385 1389 1392
v 52.571 0.441 105.553
v 57.435 0.441 86.959
v 73.369 0.441 91.127
v 68.505 0.441 109.721
v 52.571 4.341 105.553
v 57.435 4.341 86.959
v 73.369 4.341 91.127
v 68.505 4.341 109.721
f 1400 1399 1398 1397
f 1393 1394 1398 1397
f 1394 1395 1399 1398
f 1395 1396 1400 1399
f 1396 1393 1397 1400
v 68.755 0.546 95.198
v 75.001 0.546 77.795
v 89.345 0.546 82.942
v 83.099 0.546 100.345
v 68.755 4.446 95.198
v 75.001 4.446 77.795
v 89.345 4.446 82.942
v 83.099 4.446 100.345
f 1408 1407 1406 1405
f 1401 1402 1406 1405
f 1402 1403 1407 1406
f 1403 1404 1408 1407
f 1404 1401 1405 1408
v 84.624 0.500 85.433
v 98.959 0.500 73.192
v 111.116 0.500 87.427
v 96.781 0.500 99.668
v 84.624 4.400 85.433
v 98.959 4.400 73.192
v 111.116 4.400 87.427
v 96.781 4.400 99.668
f 1416 1415 1414 1413
f 1409 1410 1414 1413
f 1410 1411 1415 1414
f 1411 1412 1416 1415
f 1412 1409 1413 1416
v 101.454 0.567 86.334
v 113.185 0.567 64.212
v 127.806 0.567 71.966
v 116.075 0.567 94.088
v 101.454 4.467 86.334
v 113.185 4.467 64.212
v 127.806 4.467 71.966
v 116.075 4.467 94.088
f 1424 1423 1422 1421
f 1417 1418 1422 1421
f 1418 1419 1423 1422
f 1419 1420 1424 1423
f 1420 1417 1421 1424
v 118.805 0.875 76.537
v 124.771 0.875 58.088
v 142.135 0.875 63.703
v 136.169 0.875 82.152
v 118.805 4.775 76.537
v 124.771 4.775 58.088
v 142.135 4.775 63.703
v 136.169 4.775 82.152
f 1432 1431 1430 1429
f 1425 1426 1430 1429
f 1426 1427 1431 1430
f 1427 1428 1432 1431
f 1428 1425 1429 1432
v 139.486 0.667 73.015
v 144.459 0.667 52.139
v 157.494 0.667 55.245
v 152.521 0.667 76.121
v 139.486 4.567 73.015
v 144.459 4.567 52.139
v 157.494 4.567 55.245
v 152.521 4.567 76.121
f 1440 1439 1438 1437
f 1433 1434 1438 1437
f 1434 1435 1439 1438
f 1435 1436 1440 1439
f 1436 1433 1437 1440
v 154.155 0.796 70.664
v 158.378 0.796 47.506
v 176.745 0.796 50.856
v 172.522 0.796 74.014
v 154.155 4.696 70.664
v 158.378 4.696 47.506
v 176.745 4.696 50.856
v 172.522 4.696 74.014
f 1448 1447 1446 1445
f 1441 1442 1446 1445
f 1442 1443 1447 1446
f 1443 1444 1448 1447
f 1444 1441 1445 1448
v 208.154 0.539 -71.288
v 230.919 0.539 -62.422
v 225.486 0.539 -48.472
v 202.721 0.539 -57.338
v 208.154 4.439 -71.288
v 230.919 4.439 -62.422
v 225.486 4.439 -48.472
v 202.721 4.439 -57.338
f 1456 1455 1454 1453
f 1449 1450 1454 1453
f 1450 1451 1455 1454
f 1451 1452 1456 1455
f 1452 1449 1453 1456
v 215.650 0.673 -71.267
v 217.260 0.673 -75.448
v 220.050 0.673 -74.373
v 218.440 0.673 -70.192
v 215.650 4.573 -71.267
v 217.260 4.573 -75.448
v 220.050 4.573 -74.373
v 218.440 4.573 -70.192
f 1464 1463 1462 1461
f 1457 1458 1462 1461
f 1458 1459 1463 1462
f 1459 1460 1464 1463
f 1460 1457 1461 1464
v 227.823 0.813 -53.435
v 229.467 0.813 -77.218
v 246.137 0.813 -76.065
v 244.493 0.813 -52.282
v 227.823 4.713 -53.435
v 229.467 4.713 -77.218
v 246.137 4.713 -76.065
v 244.493 4.713 -52.282
f 1472 1471 1470 1469
f 1465 1466 1470 1469
f 1466 1467 1471 1470
f 1467 1468 1472 1471
f 1468 1465 1469 1472
v 244.149 0.468 -61.211
v 246.513 0.468 -77.804
v 259.531 0.468 -75.949
v 257.167 0.468 -59.356
v 244.149 4.368 -61.211
v 246.513 4.368 -77.804
v 259.531 4.368 -75.949
v 257.167 4.368 -59.356
f 1480 1479 1478 1477
f 1473 1474 1478 1477
f 1474 1475 1479 1478
f 1475 1476 1480 1479
f 1476 1473 1477 1480
v 243.577 0.477 -89.725
v 254.629 0.477 -85.707
v 252.763 0.477 -80.575
v 241.711 0.477 -84.593
v 243.577 4.377 -89.725
v 254.629 4.377 -85.707
v 252.763 4.377 -80.575
v 241.711 4.377 -84.593
f 1488 1487 1486 1485
f 1481 1482 1486 1485
f 1482 1483 1487 1486
f 1483 1484 1488 1487
f 1484 1481 1485 1488
v 232.100 0.682 -95.715
v 235.075 0.682 -103.539
v 241.580 0.682 -101.065
v 238.605 0.682 -93.241
v 232.100 4.582 -95.715
v 235.075 4.582 -103.539
v 241.580 4.582 -101.065
v 238.605 4.582 -93.241
f 1496 1495 1494 1493
f 1489 1490 1494 1493
f 1490 1491 1495 1494
f 1491 1492 1496 1495
f 1492 1489 1493 1496
v 245.594 0.745 -110.311
v 263.729 0.745 -111.439
v 264.686 0.745 -96.049
v 246.551 0.745 -94.921
v 245.594 4.645 -110.311
v 263.729 4.645 -111.439
v 264.686 4.645 -96.049
v 246.551 4.645 -94.921
f 1504 1503 1502 1501
f 1497 1498 1502 1501
f 1498 1499 1503 1502
f 1499 1500 1504 1503
f 1500 1497 1501 1504
v 200.783 0.858 -92.304
v 206.536 0.858 -108.120
v 218.697 0.858 -103.696
v 212.944 0.858 -87.880
v 200.783 4.758 -92.304
v 206.536 4.758 -108.120
v 218.697 4.758 -103.696
v 212.944 4.758 -87.880
f 1512 1511 1510 1509
f 1505 1506 1510 1509
f 1506 1507 1511 1510
f 1507 1508 1512 1511
f 1508 1505 1509 1512
v -16.481 -0.300 91.109
v -5.576 -0.300 64.507
v 10.681 -0.300 71.171
v -0.224 -0.300 97.773
v -16.481 3.600 91.109
v -5.576 3.600 64.507
v 10.681 3.600 71.171
v -0.224 3.600 97.773
f 1520 1519 1518 1517
f 1513 1514 1518 1517
f 1514 1515 1519 1518
f 1515 1516 1520 1519
f 1516 1513 1517 1520
v 4.522 0.558 75.509
v 14.834 0.558 58.012
v 27.558 0.558 65.511
v 17.246 0.558 83.008
v 4.522 4.458 75.509
v 14.834 4.458 58.012
v 27.558 4.458 65.511
v 17.246 4.458 83.008
f 1528 1527 1526 1525
f 1521 1522 1526 1525
f 1522 1523 1527 1526
f 1523 1524 1528 1527
f 1524 1521 1525 1528
v 244.288 0.466 30.415
v 254.483 0.466 18.725
v 265.192 0.466 28.065
v 254.997 0.466 39.755
v 244.288 4.366 30.415
v 254.483 4.366 18.725
v 265.192 4.366 28.065
v 254.997 4.366 39.755
f 1536 1535 1534 1533
f 1529 1530 1534 1533
f 1530 1531 1535 1534
f 1531 1532 1536 1535
f 1532 1529 1533 1536
v 227.172 0.712 46.329
v 228.471 0.712 28.406
v 244.808 0.712 29.591
v 243.509 0.712 47.514
v 227.172 4.612 46.329
v 228.471 4.612 28.406
v 244.808 4.612 29.591
v 243.509 4.612 47.514
f 1544 1543 1542 1541
f 1537 1538 1542 1541
f 1538 1539 1543 1542
f 1539 1540 1544 1543
f 1540 1537 1541 1544
v 209.249 0.626 49.405
v 212.630 0.626 30.841
v 227.751 0.626 33.595
v 224.370 0.626 52.159
v 209.249 4.526 49.405
v 212.630 4.526 30.841
v 227.751 4.526 33.595
v 224.370 4.526 52.159
f 1552 1551 1550 1549
f 1545 1546 1550 1549
f 1546 1547 1551 1550
f 1547 1548 1552 1551
f 1548 1545 1549 1552
v 206.023 0.595 28.103
v 210.639 0.595 29.625
v 209.277 0.595 33.757
v 204.661 0.595 32.235
v 206.023 4.495 28.103
v 210.639 4.495 29.625
v 209.277 4.495 33.757
v 204.661 4.495 32.235
f 1560 1559 1558 1557
f 1553 1554 1558 1557
f 1554 1555 1559 1558
f 1555 1556 1560 1559
f 1556 1553 1557 1560
v 198.820 0.743 36.247
v 213.840 0.743 48.207
v 202.640 0.743 62.273
v 187.620 0.743 50.313
v 198.820 4.643 36.247
v 213.840 4.643 48.207
v 202.640 4.643 62.273
v 187.620 4.643 50.313
f 1568 1567 1566 1565
f 1561 1562 1566 1565
f 1562 1563 1567 1566
f 1563 1564 1568 1567
f 1564 1561 1565 1568
v 188.306 0.739 43.310
v 189.285 0.739 32.092
v 200.034 0.739 33.030
v 199.055 0.739 44.248
v 188.306 4.639 43.310
v 189.285 4.639 32.092
v 200.034 4.639 33.030
v 199.055 4.639 44.248
f 1576 1575 1574 1573
f 1569 1570 1574 1573
f 1570 1571 1575 1574
f 1571 1572 1576 1575
f 1572 1569 1573 1576
v 174.400 0.659 60.847
v 178.012 0.659 42.887
v 193.060 0.659 45.913
v 189.448 0.659 63.873
v 174.400 4.559 60.847
v 178.012 4.559 42.887
v 193.060 4.559 45.913
v 189.448 4.559 63.873
f 1584 1583 1582 1581
f 1577 1578 1582 1581
f 1578 1579 1583 1582
f 1579 1580 1584 1583
f 1580 1577 1581 1584
v 231.309 0.551 -12.744
v 248.928 0.551 -12.495
v 248.671 0.551 5.684
v 231.052 0.551 5.435
v 231.309 4.451 -12.744
v 248.928 4.451 -12.495
v 248.671 4.451 5.684
v 231.052 4.451 5.435
f 1592 1591 1590 1589
f 1585 1586 1590 1589
f 1586 1587 1591 1590
f 1587 1588 1592 1591
f 1588 1585 1589 1592
v 215.984 0.572 6.579
v 219.434 0.572 -7.061
v 232.096 0.572 -3.859
v 228.646 0.572 9.781
v 215.984 4.472 6.579
v 219.434 4.472 -7.061
v 232.096 4.472 -3.859
v 228.646 4.472 9.781
f 1600 1599 1598 1597
f 1593 1594 1598 1597
f 1594 1595 1599 1598
f 1595 1596 1600 1599
f 1596 1593 1597 1600
v 199.939 0.556 -2.302
v 215.670 0.556 5.455
v 210.341 0.556 16.262
v 194.610 0.556 8.505
v 199.939 4.456 -2.302
v 215.670 4.456 5.455
v 210.341 4.456 16.262
v 194.610 4.456 8.505
f 1608 1607 1606 1605
f 1601 1602 1606 1605
f 1602 1603 1607 1606
f 1603 1604 1608 1607
f 1604 1601 1605 1608
v 176.351 0.555 12.473
v 189.099 0.555 -1.751
v 200.389 0.555 8.367
v 187.641 0.555 22.591
v 176.351 4.455 12.473
v 189.099 4.455 -1.751
v 200.389 4.455 8.367
v 187.641 4.455 22.591
f 1616 1615 1614 1613
f 1609 1610 1614 1613
f 1610 1611 1615 1614
f 1611 1612 1616 1615
f 1612 1609 1613 1616
v 163.270 0.630 24.846
v 168.487 0.630 9.393
v 180.870 0.630 13.574
v 175.653 0.630 29.027
v 163.270 4.530 24.846
v 168.487 4.530 9.393
v 180.870 4.530 13.574
v 175.653 4.530 29.027
f 1624 1623 1622 1621
f 1617 1618 1622 1621
f 1618 1619 1623 1622
f 1619 1620 1624 1623
f 1620 1617 1621 1624
v 150.367 0.500 45.011
v 153.022 0.500 37.879
v 156.433 0.500 39.149
v 153.778 0.500 46.281
v 150.367 4.400 45.011
v 153.022 4.400 37.879
v 156.433 4.400 39.149
v 153.778 4.400 46.281
f 1632 1631 1630 1629
f 1625 1626 1630 1629
f 1626 1627 1631 1630
f 1627 1628 1632 1631
f 1628 1625 1629 1632
v 143.910 0.519 16.051
v 161.441 0.519 13.685
v 163.910 0.519 31.969
v 146.379 0.519 34.335
v 143.910 4.419 16.051
v 161.441 4.419 13.685
v 163.910 4.419 31.969
v 146.379 4.419 34.335
f 1640 1639 1638 1637
f 1633 1634 1638 1637
f 1634 1635 1639 1638
f 1635 1636 1640 1639
f 1636 1633 1637 1640
v 128.327 0.354 36.616
v 134.342 0.354 19.714
v 147.013 0.354 24.224
v 140.998 0.354 41.126
v 128.327 4.254 36.616
v 134.342 4.254 19.714
v 147.013 4.254 24.224
v 140.998 4.254 41.126
f 1648 1647 1646 1645
f 1641 1642 1646 1645
f 1642 1643 1647 1646
f 1643 1644 1648 1647
f 1644 1641 1645 1648
v 123.273 0.598 24.219
v 129.368 0.598 40.784
v 114.427 0.598 46.281
v 108.332 0.598 29.716
v 123.273 4.498 24.219
v 129.368 4.498 40.784
v 114.427 4.498 46.281
v 108.332 4.498 29.716
f 1656 1655 1654 1653
f 1649 1650 1654 1653
f 1650 1651 1655 1654
f 1651 1652 1656 1655
f 1652 1649 1653 1656
v 95.804 0.686 31.656
v 111.473 0.686 36.000
v 107.756 0.686 49.404
v 92.087 0.686 45.060
v 95.804 4.586 31.656
v 111.473 4.586 36.000
v 107.756 4.586 49.404
v 92.087 4.586 45.060
f 1664 1663 1662 1661
f 1657 1658 1662 1661
f 1658 1659 1663 1662
f 1659 1660 1664 1663
f 1660 1657 1661 1664
v 88.489 0.459 33.501
v 96.251 0.459 54.844
v 77.511 0.459 61.659
v 69.749 0.459 40.316
v 88.489 4.359 33.501
v 96.251 4.359 54.844
v 77.511 4.359 61.659
v 69.749 4.359 40.316
f 1672 1671 1670 1669
f 1665 1666 1670 1669
f 1666 1667 1671 1670
f 1667 1668 1672 1671
f 1668 1665 1669 1672
v 53.506 0.484 56.887
v 65.502 0.484 38.077
v 79.954 0.484 47.293
v 67.958 0.484 66.103
v 53.506 4.384 56.887
v 65.502 4.384 38.077
v 79.954 4.384 47.293
v 67.958 4.384 66.103
f 1680 1679 1678 1677
f 1673 1674 1678 1677
f 1674 1675 1679 1678
f 1675 1676 1680 1679
f 1676 1673 1677 1680
v 36.391 0.635 51.938
v 56.837 0.635 47.277
v 61.949 0.635 69.702
v 41.503 0.635 74.363
v 36.391 4.535 51.938
v 56.837 4.535 47.277
v 61.949 4.535 69.702
v 41.503 4.535 74.363
f 1688 1687 1686 1685
f 1681 1682 1686 1685
f 1682 1683 1687 1686
f 1683 1684 1688 1687
f 1684 1681 1685 1688
v 20.672 0.787 58.270
v 41.374 0.787 52.771
v 47.048 0.787 74.130
v 26.346 0.787 79.629
v 20.672 4.687 58.270
v 41.374 4.687 52.771
v 47.048 4.687 74.130
v 26.346 4.687 79.629
f 1696 1695 1694 1693
f 1689 1690 1694 1693
f 1690 1691 1695 1694
f 1691 1692 1696 1695
f 1692 1689 1693 1696
v 27.965 0.647 85.477
v 30.677 0.647 78.377
v 37.235 0.647 80.883
v 34.523 0.647 87.983
v 27.965 4.547 85.477
v 30.677 4.547 78.377
v 37.235 4.547 80.883
v 34.523 4.547 87.983
f 1704 1703 1702 1701
f 1697 1698 1702 1701
f 1698 1699 1703 1702
f 1699 1700 1704 1703
f 1700 1697 1701 1704
v -32.827 0.932 -120.907
v -15.403 0.932 -128.708
v -7.373 0.932 -110.773
v -24.797 0.932 -102.972
v -32.827 4.832 -120.907
v -15.403 4.832 -128.708
v -7.373 4.832 -110.773
v -24.797 4.832 -102.972
f 1712 1711 1710 1709
f 1705 1706 1710 1709
f 1706 1707 1711 1710
f 1707 1708 1712 1711
f 1708 1705 1709 1712
v 5.703 1.206 -136.640
v 13.688 1.206 -117.476
v -4.543 1.206 -109.880
v -12.528 1.206 -129.044
v 5.703 5.106 -136.640
v 13.688 5.106 -117.476
v -4.543 5.106 -109.880
v -12.528 5.106 -129.044
f 1720 1719 1718 1717
f 1713 1714 1718 1717
f 1714 1715 1719 1718
f 1715 1716 1720 1719
f 1716 1713 1717 1720
v 28.311 1.337 -143.662
v 35.711 1.337 -124.737
v 16.889 1.337 -117.378
v 9.489 1.337 -136.303
v 28.311 5.237 -143.662
v 35.711 5.237 -124.737
v 16.889 5.237 -117.378
v 9.489 5.237 -136.303
f 1728 1727 1726 1725
f 1721 1722 1726 1725
f 1722 1723 1727 1726
f 1723 1724 1728 1727
f 1724 1721 1725 1728
v 49.534 1.177 -151.804
v 57.860 1.177 -132.526
v 38.526 1.177 -124.176
v 30.200 1.177 -143.454
v 49.534 5.077 -151.804
v 57.860 5.077 -132.526
v 38.526 5.077 -124.176
v 30.200 5.077 -143.454
f 1736 1735 1734 1733
f 1729 1730 1734 1733
f 1730 1731 1735 1734
f 1731 1732 1736 1735
f 1732 1729 1733 1736
v 50.594 1.121 -149.347
v 68.423 1.121 -161.001
v 79.946 1.121 -143.373
v 62.117 1.121 -131.719
v 50.594 5.021 -149.347
v 68.423 5.021 -161.001
v 79.946 5.021 -143.373
v 62.117 5.021 -131.719
f 1744 1743 1742 1741
f 1737 1738 1742 1741
f 1738 1739 1743 1742
f 1739 1740 1744 1743
f 1740 1737 1741 1744
v 98.505 1.311 -165.850
v 102.579 1.311 -144.108
v 78.675 1.311 -139.630
v 74.601 1.311 -161.372
v 98.505 5.211 -165.850
v 102.579 5.211 -144.108
v 78.675 5.211 -139.630
v 74.601 5.211 -161.372
f 1752 1751 1750 1749
f 1745 1746 1750 1749
f 1746 1747 1751 1750
f 1747 1748 1752 1751
f 1748 1745 1749 1752
v 95.157 1.593 -170.666
v 116.738 1.593 -174.892
v 120.983 1.593 -153.214
v 99.402 1.593 -148.988
v 95.157 5.493 -170.666
v 116.738 5.493 -174.892
v 120.983 5.493 -153.214
v 99.402 5.493 -148.988
f 1760 1759 1758 1757
f 1753 1754 1758 1757
f 1754 1755 1759 1758
f 1755 1756 1760 1759
f 1756 1753 1757 1760
v -54.035 0.809 -219.061
v -46.867 0.809 -206.584
v -54.185 0.809 -202.379
v -61.353 0.809 -214.856
v -54.035 4.709 -219.061
v -46.867 4.709 -206.584
v -54.185 4.709 -202.379
v -61.353 4.709 -214.856
f 1768 1767 1766 1765
f 1761 1762 1766 1765
f 1762 1763 1767 1766
f 1763 1764 1768 1767
f 1764 1761 1765 1768
v -59.823 0.769 -225.585
v -50.692 0.769 -214.360
v -55.517 0.769 -210.435
v -64.648 0.769 -221.660
v -59.823 4.669 -225.585
v -50.692 4.669 -214.360
v -55.517 4.669 -210.435
v -64.648 4.669 -221.660
f 1776 1775 1774 1773
f 1769 1770 1774 1773
f 1770 1771 1775 1774
f 1771 1772 1776 1775
f 1772 1769 1773 1776
v -64.757 0.783 -236.537
v -54.134 0.783 -223.137
v -59.423 0.783 -218.943
v -70.046 0.783 -232.343
v -64.757 4.683 -236.537
v -54.134 4.683 -223.137
v -59.423 4.683 -218.943
v -70.046 4.683 -232.343
f 1784 1783 1782 1781
f 1777 1778 1782 1781
f 1778 1779 1783 1782
f 1779 1780 1784 1783
f 1780 1777 1781 1784
v -68.629 0.837 -246.183
v -57.335 0.837 -233.237
v -62.791 0.837 -228.477
v -74.085 0.837 -241.423
v -68.629 4.737 -246.183
v -57.335 4.737 -233.237
v -62.791 4.737 -228.477
v -74.085 4.737 -241.423
f 1792 1791 1790 1789
f 1785 1786 1790 1789
f 1786 1787 1791 1790
f 1787 1788 1792 1791
f 1788 1785 1789 1792
v -70.259 0.773 -257.017
v -61.987 0.773 -242.751
v -68.761 0.773 -238.823
v -77.033 0.773 -253.089
v -70.259 4.673 -257.017
v -61.987 4.673 -242.751
v -68.761 4.673 -238.823
v -77.033 4.673 -253.089
f 1800 1799 1798 1797
f 1793 1794 1798 1797
f 1794 1795 1799 1798
f 1795 1796 1800 1799
f 1796 1793 1797 1800
v -55.951 0.722 -256.459
v -45.180 0.722 -260.071
v -42.789 0.722 -252.941
v -53.560 0.722 -249.329
v -55.951 4.622 -256.459
v -45.180 4.622 -260.071
v -42.789 4.622 -252.941
v -53.560 4.622 -249.329
f 1808 1807 1806 1805
f 1801 1802 1806 1805
f 1802 1803 1807 1806
f 1803 1804 1808 1807
f 1804 1801 1805 1808
v -52.876 0.736 -241.883
v -36.290 0.736 -247.918
v -34.484 0.736 -242.957
v -51.070 0.736 -236.922
v -52.876 4.636 -241.883
v -36.290 4.636 -247.918
v -34.484 4.636 -242.957
v -51.070 4.636 -236.922
f 1816 1815 1814 1813
f 1809 1810 1814 1813
f 1810 1811 1815 1814
f 1811 1812 1816 1815
f 1812 1809 1813 1816
v -49.482 0.684 -235.982
v -32.993 0.684 -239.038
v -31.358 0.684 -230.218
v -47.847 0.684 -227.162
v -49.482 4.584 -235.982
v -32.993 4.584 -239.038
v -31.358 4.584 -230.218
v -47.847 4.584 -227.162
f 1824 1823 1822 1821
f 1817 1818 1822 1821
f 1818 1819 1823 1822
f 1819 1820 1824 1823
f 1820 1817 1821 1824
v -32.380 0.754 -226.180
v -29.617 0.754 -243.643
v -22.140 0.754 -242.460
v -24.903 0.754 -224.997
v -32.380 4.654 -226.180
v -29.617 4.654 -243.643
v -22.140 4.654 -242.460
v -24.903 4.654 -224.997
f 1832 1831 1830 1829
f 1825 1826 1830 1829
f 1826 1827 1831 1830
f 1827 1828 1832 1831
f 1828 1825 1829 1832
v -43.254 0.736 -223.013
v -34.050 0.736 -226.321
v -32.866 0.736 -223.027
v -42.070 0.736 -219.719
v -43.254 4.636 -223.013
v -34.050 4.636 -226.321
v -32.866 4.636 -223.027
v -42.070 4.636 -219.719
f 1840 1839 1838 1837
f 1833 1834 1838 1837
f 1834 1835 1839 1838
f 1835 1836 1840 1839
f 1836 1833 1837 1840
v -217.127 1.182 84.106
v -206.175 1.182 106.234
v -219.753 1.182 112.954
v -230.705 1.182 90.826
v -217.127 5.082 84.106
v -206.175 5.082 106.234
v -219.753 5.082 112.954
v -230.705 5.082 90.826
f 1848 1847 1846 1845
f 1841 1842 1846 1845
f 1842 1843 1847 1846
f 1843 1844 1848 1847
f 1844 1841 1845 1848
usemtl road
v 255.013 1.598 -241.351
v 153.873 1.286 -206.133
v 155.847 1.290 -200.467
v 256.987 1.638 -235.684
f 1849 1850 1851 1852
v 153.873 1.286 -206.133
v 148.303 1.281 -204.193
v 150.277 1.320 -198.527
v 155.847 1.290 -200.467
f 1853 1854 1855 1856
v 148.304 1.281 -204.193
v 138.854 1.284 -200.903
v 140.826 1.349 -195.237
v 150.276 1.320 -198.527
f 1857 1858 1859 1860
v 138.853 1.284 -200.903
v 113.573 1.268 -192.093
v 115.547 1.300 -186.427
v 140.827 1.349 -195.237
f 1861 1862 1863 1864
v 113.573 1.268 -192.093
v 9.583 1.116 -155.883
v 11.557 1.088 -150.217
v 115.547 1.300 -186.427
f 1865 1866 1867 1868
v 9.583 1.116 -155.883
v -18.647 1.031 -146.053
v -16.673 1.013 -140.387
v 11.557 1.088 -150.217
f 1869 1870 1871 1872
v -18.646 1.031 -146.053
v -29.906 1.015 -142.133
v -27.934 0.999 -136.467
v -16.674 1.013 -140.387
f 1873 1874 1875 1876
v -29.895 1.015 -142.137
v -49.505 1.019 -135.397
v -47.555 1.047 -129.723
v -27.945 0.999 -136.463
f 1877 1878 1879 1880
v -49.471 1.019 -135.409
v -79.081 0.953 -125.629
v -77.199 0.972 -119.931
v -47.589 1.046 -129.711
f 1881 1882 1883 1884
v -79.081 0.953 -125.628
v -144.861 0.967 -103.888
v -142.979 0.990 -98.192
v -77.199 0.972 -119.932
f 1885 1886 1887 1888
v -144.914 0.967 -103.871
v -205.474 0.895 -82.611
v -203.486 0.885 -76.949
v -142.926 0.990 -98.209
f 1889 1890 1891 1892
v -205.474 0.895 -82.611
v -231.674 0.961 -73.411
v -229.686 0.947 -67.749
v -203.486 0.885 -76.949
f 1893 1894 1895 1896
v -231.676 0.961 -73.410
v -237.926 0.940 -71.210
v -235.934 0.943 -65.550
v -229.684 0.947 -67.750
f 1897 1898 1899 1900
v 169.934 1.160 -113.650
v 148.604 1.160 -106.300
v 150.396 1.093 -101.100
v 171.726 1.126 -108.450
f 1901 1902 1903 1904
v 148.612 1.160 -106.303
v -19.048 1.027 -49.093
v -17.272 0.963 -43.887
v 150.388 1.093 -101.097
f 1905 1906 1907 1908
v -19.045 1.027 -49.094
v -201.805 0.883 13.036
v -200.035 0.912 18.244
v -17.275 0.963 -43.886
f 1909 1910 1911 1912
v -201.802 0.883 13.035
v -207.652 0.850 15.015
v -205.888 0.856 20.225
v -200.038 0.912 18.245
f 1913 1914 1915 1916
v 171.647 0.808 79.742
v -6.063 0.453 140.662
v -4.117 0.384 146.338
v 173.593 0.752 85.418
f 1917 1918 1919 1920
v -6.062 0.453 140.662
v -52.962 0.511 156.732
v -51.018 0.465 162.408
v -4.118 0.384 146.338
f 1921 1922 1923 1924
v -52.954 0.511 156.729
v -150.834 0.641 189.929
v -148.906 0.626 195.611
v -51.026 0.465 162.411
f 1925 1926 1927 1928
v -150.867 0.641 189.941
v -256.997 0.555 227.349
v -255.003 0.484 233.008
v -148.873 0.625 195.599
f 1929 1930 1931 1932
v 209.510 0.628 -17.908
v 205.350 0.789 -30.418
v 200.130 0.778 -28.682
v 204.290 0.637 -16.172
f 1933 1934 1935 1936
v 205.244 0.778 -30.687
v 203.324 0.640 -34.917
v 198.316 0.659 -32.643
v 200.236 0.787 -28.413
f 1937 1938 1939 1940
v 203.324 0.640 -34.917
v 196.824 0.580 -49.237
v 191.816 0.549 -46.963
v 198.316 0.659 -32.643
f 1941 1942 1943 1944
v 196.877 0.579 -49.111
v 189.127 0.598 -68.711
v 184.013 0.719 -66.689
v 191.763 0.550 -47.089
f 1945 1946 1947 1948
v 189.155 0.602 -68.637
v 187.745 0.164 -72.527
v 182.575 0.615 -70.653
v 183.985 0.720 -66.763
f 1949 1950 1951 1952
v 187.745 0.164 -72.529
v 173.415 1.141 -111.989
v 168.245 1.133 -110.111
v 182.575 0.615 -70.651
f 1953 1954 1955 1956
v 173.421 1.141 -111.973
v 156.331 1.322 -159.953
v 151.149 1.277 -158.107
v 168.239 1.133 -110.127
f 1957 1958 1959 1960
v 156.331 1.322 -159.953
v 145.051 1.327 -191.623
v 139.869 1.359 -189.777
v 151.149 1.277 -158.107
f 1961 1962 1963 1964
v 145.051 1.327 -191.621
v 142.431 1.338 -198.991
v 137.249 1.332 -197.149
v 139.869 1.359 -189.779
f 1965 1966 1967 1968
v -192.689 0.855 60.838
v -186.099 0.879 58.638
v -187.841 0.884 53.422
v -194.431 0.860 55.622
f 1969 1970 1971 1972
v -186.100 0.879 58.639
v -116.760 0.798 35.509
v -118.500 0.872 30.291
v -187.840 0.884 53.421
f 1973 1974 1975 1976
v -116.760 0.798 35.509
v -57.630 0.763 15.779
v -59.370 0.847 10.561
v -118.500 0.872 30.291
f 1977 1978 1979 1980
v -57.630 0.763 15.779
v -3.970 0.761 -2.111
v -5.710 0.789 -7.329
v -59.370 0.847 10.561
f 1981 1982 1983 1984
v -3.964 0.761 -2.113
v 7.936 0.827 -6.113
v 6.184 0.751 -11.327
v -5.716 0.788 -7.327
f 1985 1986 1987 1988
v 7.975 0.827 -6.127
v 186.075 0.671 -68.997
v 184.245 0.140 -74.183
v 6.145 0.751 -11.313
f 1989 1990 1991 1992
v -33.572 1.086 -92.251
v -216.562 0.819 -29.541
v -214.778 0.906 -24.339
v -31.788 1.087 -87.049
f 1993 1994 1995 1996
v -216.560 0.819 -29.542
v -222.640 0.796 -27.462
v -220.860 0.789 -22.258
v -214.780 0.905 -24.338
f 1997 1998 1999 2000
v 15.605 0.624 49.078
v 11.495 0.768 36.468
v 6.265 0.785 38.172
v 10.375 0.620 50.782
f 2001 2002 2003 2004
v 11.494 0.767 36.467
v 10.124 0.638 32.267
v 4.896 0.650 33.973
v 6.266 0.785 38.173
f 2005 2006 2007 2008
v 10.124 0.638 32.266
v 6.894 0.584 22.376
v 1.666 0.524 24.084
v 4.896 0.650 33.974
f 2009 2010 2011 2012
v 6.894 0.584 22.377
v -2.226 0.734 -5.573
v -7.454 0.742 -3.867
v 1.666 0.524 24.083
f 2013 2014 2015 2016
v -2.220 0.733 -5.555
v -15.540 0.993 -47.325
v -20.780 0.990 -45.655
v -7.460 0.742 -3.885
f 2017 2018 2019 2020
v -15.554 0.993 -47.367
v -30.074 1.083 -90.527
v -35.286 1.062 -88.773
v -20.766 0.990 -45.613
f 2021 2022 2023 2024
v 9.313 0.334 179.423
v -2.227 0.457 142.603
v -7.953 0.444 144.397
v 3.587 0.354 181.217
f 2025 2026 2027 2028
v -2.240 0.458 142.563
v -27.470 0.577 65.843
v -33.170 0.596 67.717
v -7.940 0.443 144.437
f 2029 2030 2031 2032
v -27.474 0.577 65.831
v -28.054 0.626 64.091
v -33.746 0.646 65.989
v -33.166 0.595 67.729
f 2033 2034 2035 2036
v -28.023 0.623 64.188
v -31.783 0.762 51.488
v -37.537 0.729 53.192
v -33.777 0.649 65.892
f 2037 2038 2039 2040
v 116.199 1.298 -189.874
v 113.019 1.165 -198.354
v 109.741 1.182 -197.126
v 112.921 1.311 -188.646
f 2041 2042 2043 2044
v 113.019 1.165 -198.354
v 111.639 1.146 -202.034
v 108.361 1.147 -200.806
v 109.741 1.182 -197.126
f 2045 2046 2047 2048
v 111.639 1.146 -202.033
v 110.069 1.122 -206.233
v 106.791 1.104 -205.007
v 108.361 1.147 -200.807
f 2049 2050 2051 2052
v 110.178 1.123 -205.713
v 109.858 1.133 -211.733
v 106.362 1.089 -211.547
v 106.682 1.102 -205.527
f 2053 2054 2055 2056
v 109.798 1.127 -211.180
v 111.248 1.165 -216.500
v 107.872 1.090 -217.420
v 106.422 1.090 -212.100
f 2057 2058 2059 2060
v 110.464 1.163 -215.461
v 115.124 1.222 -218.271
v 113.316 1.116 -221.269
v 108.656 1.102 -218.459
f 2061 2062 2063 2064
v 114.823 1.222 -218.127
v 129.103 1.309 -223.367
v 127.897 1.224 -226.653
v 113.617 1.119 -221.413
f 2065 2066 2067 2068
v 129.728 1.300 -223.763
v 132.948 1.243 -226.933
v 130.492 1.201 -229.427
v 127.272 1.236 -226.257
f 2069 2070 2071 2072
v 133.470 1.233 -228.169
v 133.500 1.182 -233.129
v 130.000 1.248 -233.151
v 129.970 1.200 -228.191
f 2073 2074 2075 2076
v 133.441 1.181 -233.592
v 131.351 1.120 -241.402
v 127.969 1.077 -240.498
v 130.059 1.244 -232.688
f 2077 2078 2079 2080
v 12.232 1.127 -153.599
v 9.312 1.075 -162.429
v 5.988 1.071 -161.331
v 8.908 1.119 -152.501
f 2081 2082 2083 2084
v 9.312 1.075 -162.428
v 7.582 1.082 -167.678
v 4.258 1.090 -166.582
v 5.988 1.071 -161.332
f 2085 2086 2087 2088
v 7.580 1.082 -167.683
v 6.830 1.091 -169.933
v 3.510 1.099 -168.827
v 4.260 1.090 -166.577
f 2089 2090 2091 2092
v 6.832 1.091 -169.928
v -11.078 1.078 -224.258
v -14.402 1.031 -223.162
v 3.508 1.099 -168.832
f 2093 2094 2095 2096
v -11.078 1.078 -224.258
v -21.735 1.018 -256.548
v -25.059 0.991 -255.452
v -14.402 1.031 -223.162
f 2097 2098 2099 2100
v -13.275 1.066 -225.376
v -36.145 1.019 -218.026
v -35.075 1.043 -214.694
v -12.205 1.061 -222.044
f 2101 2102 2103 2104
v -35.600 1.020 -218.110
v -40.660 1.017 -218.140
v -40.680 1.011 -214.640
v -35.620 1.043 -214.610
f 2105 2106 2107 2108
v -40.110 1.016 -218.048
v -44.550 1.032 -219.548
v -45.670 1.051 -216.232
v -41.230 1.012 -214.732
f 2109 2110 2111 2112
v -43.732 1.021 -218.969
v -46.982 1.050 -223.119
v -49.738 1.052 -220.961
v -46.488 1.056 -216.811
f 2113 2114 2115 2116
v -46.700 1.052 -222.595
v -58.052 0.893 -256.555
v -61.372 0.798 -255.445
v -50.020 1.049 -221.485
f 2117 2118 2119 2120
v -16.003 1.048 -143.783
v -19.023 0.989 -152.663
v -22.337 0.990 -151.537
v -19.317 1.046 -142.657
f 2121 2122 2123 2124
v -19.023 0.989 -152.664
v -37.573 1.125 -207.184
v -40.887 1.131 -206.056
v -22.337 0.990 -151.536
f 2125 2126 2127 2128
v 6.468 1.076 -165.468
v 110.548 1.169 -199.758
v 109.452 1.127 -203.082
v 5.372 1.085 -168.792
f 2129 2130 2131 2132
v -141.315 1.002 -101.921
v -143.875 0.914 -109.491
v -149.085 0.899 -107.729
v -146.525 0.987 -100.159
f 2133 2134 2135 2136
v -143.875 0.914 -109.491
v -181.265 0.888 -219.981
v -186.475 0.865 -218.219
v -149.085 0.899 -107.729
f 2137 2138 2139 2140
v -251.309 0.824 -96.200
v -243.349 0.875 -75.380
v -236.811 0.939 -77.880
v -244.771 0.757 -98.700
f 2141 2142 2143 2144
v -243.350 0.875 -75.382
v -240.200 0.897 -67.132
v -233.660 0.948 -69.628
v -236.810 0.939 -77.878
f 2145 2146 2147 2148
v -108.171 0.849 -255.475
v -88.369 0.866 -192.555
v -85.031 0.906 -193.605
v -104.832 0.909 -256.525
f 2149 2150 2151 2152
v -237.043 0.945 -70.126
v -245.983 0.897 -69.546
v -245.757 0.923 -66.054
v -236.817 0.949 -66.634
f 2153 2154 2155 2156
v -245.983 0.897 -69.546
v -254.033 0.985 -69.026
v -253.807 0.970 -65.534
v -245.757 0.923 -66.054
f 2157 2158 2159 2160
v -239.366 0.901 -50.041
v -231.516 0.863 -52.981
v -232.744 0.896 -56.259
v -240.594 0.893 -53.319
f 2161 2162 2163 2164
v 255.392 1.634 -198.582
v 153.132 1.320 -160.671
v 154.348 1.296 -157.389
v 256.608 1.612 -195.300
f 2165 2166 2167 2168
v -202.819 0.908 -80.332
v -205.439 0.925 -88.212
v -208.761 0.913 -87.108
v -206.141 0.924 -79.228
f 2169 2170 2171 2172
v -205.439 0.925 -88.212
v -249.509 0.766 -220.852
v -252.831 0.673 -219.748
v -208.761 0.913 -87.108
f 2173 2174 2175 2176
v -249.508 0.766 -220.849
v -249.858 0.775 -221.909
v -253.182 0.687 -220.811
v -252.832 0.673 -219.751
f 2177 2178 2179 2180
v -76.484 0.996 -123.346
v -79.374 0.976 -131.806
v -82.686 0.957 -130.674
v -79.796 0.987 -122.214
f 2181 2182 2183 2184
v -79.374 0.976 -131.807
v -91.594 0.864 -167.517
v -94.906 0.859 -166.383
v -82.686 0.957 -130.673
f 2185 2186 2187 2188
v -91.594 0.864 -167.515
v -95.204 0.841 -178.105
v -98.516 0.775 -176.975
v -94.906 0.859 -166.385
f 2189 2190 2191 2192
v -235.435 0.844 -53.467
v -225.055 0.735 -23.707
v -218.445 0.780 -26.013
v -228.825 0.878 -55.773
f 2193 2194 2195 2196
v -225.051 0.735 -23.696
v -210.071 0.798 18.784
v -203.469 0.870 16.456
v -218.449 0.780 -26.024
f 2197 2198 2199 2200
v -210.098 0.798 18.703
v -196.888 0.875 59.313
v -190.232 0.801 57.147
v -203.442 0.870 16.537
f 2201 2202 2203 2204
v -196.872 0.874 59.361
v -184.832 0.569 94.611
v -178.208 0.544 92.349
v -190.248 0.800 57.099
f 2205 2206 2207 2208
v -184.833 0.569 94.609
v -183.293 0.668 99.129
v -176.667 0.659 96.871
v -178.207 0.544 92.351
f 2209 2210 2211 2212
v -183.291 0.668 99.134
v -181.811 0.783 103.454
v -175.189 0.791 101.186
v -176.669 0.659 96.866
f 2213 2214 2215 2216
v -181.651 0.793 103.843
v -176.331 0.696 114.853
v -170.029 0.710 111.807
v -175.349 0.779 100.797
f 2217 2218 2219 2220
v -169.020 1.198 130.515
v -162.510 1.988 151.235
v -159.170 2.010 150.185
v -165.680 1.212 129.465
f 2221 2222 2223 2224
v -119.285 0.813 33.468
v -107.405 0.368 68.088
v -104.095 0.366 66.952
v -115.975 0.810 32.332
f 2225 2226 2227 2228
v -107.405 0.368 68.088
v -105.935 0.451 72.368
v -102.625 0.450 71.232
v -104.095 0.366 66.952
f 2229 2230 2231 2232
v -105.935 0.451 72.368
v -104.505 0.582 76.538
v -101.195 0.591 75.402
v -102.625 0.450 71.232
f 2233 2234 2235 2236
v -60.098 0.773 13.884
v -47.488 0.665 42.084
v -44.292 0.706 40.656
v -56.902 0.772 12.456
f 2237 2238 2239 2240
v -45.981 0.638 43.118
v -38.531 0.603 43.508
v -38.349 0.681 40.012
v -45.799 0.733 39.622
f 2241 2242 2243 2244
v -37.744 0.602 43.365
v 4.976 0.590 24.835
v 3.584 0.589 21.625
v -39.136 0.683 40.155
f 2245 2246 2247 2248
v -162.531 1.988 151.162
v -161.201 1.954 156.132
v -157.819 1.948 155.228
v -159.149 2.010 150.258
f 2249 2250 2251 2252
v -157.977 1.358 171.751
v -151.547 0.705 193.271
v -148.193 0.698 192.269
v -154.623 1.400 170.749
f 2253 2254 2255 2256
v -31.783 1.087 -87.050
v 99.997 1.436 -132.510
v 98.203 1.407 -137.710
v -33.577 1.086 -92.250
f 2257 2258 2259 2260
v 100.272 1.433 -132.622
v 111.222 1.407 -137.782
v 108.878 1.384 -142.758
v 97.928 1.407 -137.598
f 2261 2262 2263 2264
v 111.630 1.407 -138.019
v 117.770 1.352 -142.329
v 114.610 1.357 -146.831
v 108.470 1.386 -142.521
f 2265 2266 2267 2268
v 117.737 1.352 -142.307
v 123.437 1.350 -146.187
v 120.343 1.383 -150.733
v 114.643 1.357 -146.853
f 2269 2270 2271 2272
v 122.756 1.354 -145.850
v 154.606 1.293 -156.420
v 152.874 1.328 -161.640
v 121.024 1.376 -151.070
f 2273 2274 2275 2276
v -30.100 1.083 -90.603
v -43.440 1.055 -126.713
v -48.600 1.028 -124.807
v -35.260 1.062 -88.697
f 2277 2278 2279 2280
v -43.440 1.055 -126.712
v -45.950 1.061 -133.512
v -51.110 1.035 -131.608
v -48.600 1.028 -124.808
f 2281 2282 2283 2284
v -240.235 0.898 -67.227
v -235.435 0.844 -53.467
v -228.825 0.878 -55.773
v -233.625 0.947 -69.533
f 2285 2286 2287 2288
v 156.508 1.312 -203.887
v 153.508 1.334 -212.307
v 150.212 1.341 -211.133
v 153.212 1.306 -202.713
f 2289 2290 2291 2292
v -214.790 0.761 147.297
v -211.530 0.729 145.127
v -213.470 0.707 142.213
v -216.730 0.715 144.383
f 2293 2294 2295 2296
v -210.896 0.719 144.369
v -208.936 0.685 139.869
v -212.144 0.684 138.471
v -214.104 0.711 142.971
f 2297 2298 2299 2300
v -208.793 0.684 139.064
v -209.553 0.705 126.584
v -213.047 0.755 126.796
v -212.287 0.688 139.276
f 2301 2302 2303 2304
v -209.998 0.540 130.472
v -185.938 0.530 122.192
v -188.542 0.827 114.628
v -212.602 0.834 122.908
f 2305 2306 2307 2308
v -185.881 0.530 122.172
v -171.821 0.491 117.092
v -174.539 0.808 109.568
v -188.599 0.827 114.648
f 2309 2310 2311 2312
v -171.896 0.492 117.118
v -147.266 0.440 108.768
v -149.834 0.740 101.192
v -174.464 0.808 109.542
f 2313 2314 2315 2316
v -147.274 0.440 108.771
v -133.454 0.435 104.121
v -136.006 0.700 96.539
v -149.826 0.740 101.189
f 2317 2318 2319 2320
v -133.440 0.435 104.116
v -98.410 0.367 92.186
v -100.990 0.644 84.614
v -136.020 0.700 96.544
f 2321 2322 2323 2324
v -98.387 0.368 92.178
v -88.607 0.395 88.778
v -91.233 0.675 81.222
v -101.013 0.644 84.622
f 2325 2326 2327 2328
v -88.682 0.394 88.804
v -70.742 0.420 82.964
v -73.218 0.695 75.356
v -91.158 0.675 81.196
f 2329 2330 2331 2332
v -70.680 0.420 82.943
v -29.600 0.545 68.823
v -32.200 0.738 61.257
v -73.280 0.695 75.377
f 2333 2334 2335 2336
v -29.608 0.545 68.826
v -14.308 0.539 63.606
v -16.892 0.746 56.034
v -32.192 0.738 61.254
f 2337 2338 2339 2340
v -14.292 0.538 63.600
v 14.298 0.522 53.710
v 11.682 0.740 46.150
v -16.908 0.746 56.040
f 2341 2342 2343 2344
v 14.296 0.522 53.711
v 208.206 0.548 -13.259
v 205.594 0.752 -20.821
v 11.684 0.740 46.149
f 2345 2346 2347 2348
v 208.206 0.548 -13.259
v 257.306 0.429 -30.222
v 254.694 0.673 -37.784
v 205.594 0.752 -20.821
f 2349 2350 2351 2352
v 254.695 0.544 -51.709
v 201.435 0.667 -33.331
v 204.045 0.854 -25.769
v 257.305 0.820 -44.147
f 2353 2354 2355 2356
v 201.436 0.667 -33.331
v 7.576 0.659 33.539
v 10.184 0.825 41.101
v 204.044 0.854 -25.769
f 2357 2358 2359 2360
v 7.576 0.659 33.539
v -35.964 0.639 48.559
v -33.356 0.796 56.121
v 10.184 0.825 41.101
f 2361 2362 2363 2364
v -35.965 0.639 48.559
v -76.815 0.542 62.659
v -74.205 0.784 70.221
v -33.355 0.796 56.121
f 2365 2366 2367 2368
v -76.827 0.542 62.663
v -104.167 0.464 72.193
v -101.533 0.718 79.747
v -74.193 0.784 70.217
f 2369 2370 2371 2372
v -104.166 0.464 72.193
v -179.816 0.676 98.543
v -177.184 0.851 106.097
v -101.534 0.718 79.747
f 2373 2374 2375 2376
v -179.857 0.677 98.557
v -194.217 0.658 103.737
v -191.503 0.896 111.263
v -177.143 0.851 106.083
f 2377 2378 2379 2380
v -166.750 1.296 131.634
v -142.300 1.305 122.714
v -143.500 1.055 119.426
v -167.950 1.104 128.346
f 2381 2382 2383 2384
v -141.249 1.156 120.490
v -146.899 0.634 104.400
v -150.201 0.641 105.560
v -144.551 1.171 121.650
f 2385 2386 2387 2388
v -143.494 1.285 122.716
v -136.844 1.484 125.116
v -135.656 1.307 121.824
v -142.306 1.078 119.424
f 2389 2390 2391 2392
v -137.900 1.424 124.053
v -125.170 1.492 160.073
v -121.870 1.381 158.907
v -134.600 1.340 122.887
f 2393 2394 2395 2396
v -124.111 1.494 157.843
v -156.891 1.461 169.603
v -155.709 1.289 172.897
v -122.929 1.344 161.137
f 2397 2398 2399 2400
v -136.391 0.602 100.882
v -131.201 0.599 116.482
v -127.879 0.597 115.378
v -133.069 0.595 99.778
f 2401 2402 2403 2404
v -128.946 0.593 117.576
v -94.246 0.560 105.046
v -95.434 0.536 101.754
v -130.134 0.584 114.284
f 2405 2406 2407 2408
v -93.175 0.573 102.861
v -98.035 0.532 87.861
v -101.365 0.517 88.939
v -96.505 0.543 103.939
f 2409 2410 2411 2412
v -174.832 0.707 113.908
v -169.002 1.200 130.568
v -165.698 1.209 129.412
v -171.528 0.701 112.752
f 2413 2414 2415 2416
v -161.224 1.955 156.033
v -158.014 1.364 171.603
v -154.586 1.391 170.897
v -157.796 1.947 155.327
f 2417 2418 2419 2420
v -91.583 0.556 85.544
v -86.743 0.653 100.344
v -83.417 0.616 99.256
v -88.257 0.568 84.456
f 2421 2422 2423 2424
v -84.487 0.639 101.447
v -66.457 0.615 94.957
v -67.643 0.602 91.663
v -85.673 0.626 98.153
f 2425 2426 2427 2428
v -65.397 0.624 92.734
v -70.327 0.581 78.584
v -73.633 0.577 79.736
v -68.703 0.597 93.886
f 2429 2430 2431 2432
v -94.234 0.560 105.042
v -84.474 0.639 101.442
v -85.686 0.627 98.158
v -95.446 0.536 101.758
f 2433 2434 2435 2436
usemtl asphalt
