# Baked ultra-low Key West silhouette; generated by bake_key_west_far_city.py
mtllib far_city.mtl
usemtl massing
v -207.270 0.886 -70.985
v -184.180 0.886 -57.479
v -192.430 0.886 -43.375
v -215.520 0.886 -56.881
v -207.270 4.786 -70.985
v -184.180 4.786 -57.479
v -192.430 4.786 -43.375
v -215.520 4.786 -56.881
f 8 7 6 5
f 1 2 6 5
f 2 3 7 6
f 3 4 8 7
f 4 1 5 8
v -209.430 0.792 9.645
v -202.687 0.792 39.093
v -224.970 0.792 44.195
v -231.713 0.792 14.747
v -209.430 4.692 9.645
v -202.687 4.692 39.093
v -224.970 4.692 44.195
v -231.713 4.692 14.747
f 16 15 14 13
f 9 10 14 13
f 10 11 15 14
f 11 12 16 15
f 12 9 13 16
v -200.645 0.925 -30.463
v -179.878 0.925 -28.200
v -181.475 0.925 -13.537
v -202.242 0.925 -15.800
v -200.645 4.825 -30.463
v -179.878 4.825 -28.200
v -181.475 4.825 -13.537
v -202.242 4.825 -15.800
f 24 23 22 21
f 17 18 22 21
f 18 19 23 22
f 19 20 24 23
f 20 17 21 24
v -189.851 0.851 -0.252
v -168.532 0.851 0.421
v -169.089 0.851 18.072
v -190.408 0.851 17.399
v -189.851 4.751 -0.252
v -168.532 4.751 0.421
v -169.089 4.751 18.072
v -190.408 4.751 17.399
f 32 31 30 29
f 25 26 30 29
f 26 27 31 30
f 27 28 32 31
f 28 25 29 32
v -257.497 0.933 -195.856
v -233.930 0.933 -194.598
v -234.923 0.933 -175.984
v -258.490 0.933 -177.242
v -257.497 4.833 -195.856
v -233.930 4.833 -194.598
v -234.923 4.833 -175.984
v -258.490 4.833 -177.242
f 40 39 38 37
f 33 34 38 37
f 34 35 39 38
f 35 36 40 39
f 36 33 37 40
v -224.722 1.025 -116.076
v -206.246 1.025 -106.011
v -213.638 1.025 -92.444
v -232.114 1.025 -102.509
v -224.722 4.925 -116.076
v -206.246 4.925 -106.011
v -213.638 4.925 -92.444
v -232.114 4.925 -102.509
f 48 47 46 45
f 41 42 46 45
f 42 43 47 46
f 43 44 48 47
f 44 41 45 48
v -227.960 0.068 19.570
v -218.679 0.068 38.797
v -234.700 0.068 46.530
v -243.981 0.068 27.303
v -227.960 3.968 19.570
v -218.679 3.968 38.797
v -234.700 3.968 46.530
v -243.981 3.968 27.303
f 56 55 54 53
f 49 50 54 53
f 50 51 55 54
f 51 52 56 55
f 52 49 53 56
v -235.779 0.851 0.236
v -218.431 0.851 5.904
v -221.881 0.851 16.464
v -239.229 0.851 10.796
v -235.779 4.751 0.236
v -218.431 4.751 5.904
v -221.881 4.751 16.464
v -239.229 4.751 10.796
f 64 63 62 61
f 57 58 62 61
f 58 59 63 62
f 59 60 64 63
f 60 57 61 64
v -237.483 0.832 -21.533
v -217.192 0.832 -6.540
v -228.477 0.832 8.733
v -248.768 0.832 -6.260
v -237.483 4.732 -21.533
v -217.192 4.732 -6.540
v -228.477 4.732 8.733
v -248.768 4.732 -6.260
f 72 71 70 69
f 65 66 70 69
f 66 67 71 70
f 67 68 72 71
f 68 65 69 72
v -238.461 0.785 -36.784
v -226.386 0.785 -27.454
v -236.939 0.785 -13.796
v -249.014 0.785 -23.126
v -238.461 4.685 -36.784
v -226.386 4.685 -27.454
v -236.939 4.685 -13.796
v -249.014 4.685 -23.126
f 80 79 78 77
f 73 74 78 77
f 74 75 79 78
f 75 76 80 79
f 76 73 77 80
v -249.533 0.789 -30.115
v -244.393 0.789 -28.525
v -245.847 0.789 -23.825
v -250.987 0.789 -25.415
v -249.533 4.689 -30.115
v -244.393 4.689 -28.525
v -245.847 4.689 -23.825
v -250.987 4.689 -25.415
f 88 87 86 85
f 81 82 86 85
f 82 83 87 86
f 83 84 88 87
f 84 81 85 88
v -249.484 0.937 -51.412
v -233.365 0.937 -43.954
v -239.836 0.937 -29.968
v -255.955 0.937 -37.426
v -249.484 4.837 -51.412
v -233.365 4.837 -43.954
v -239.836 4.837 -29.968
v -255.955 4.837 -37.426
f 96 95 94 93
f 89 90 94 93
f 90 91 95 94
f 91 92 96 95
f 92 89 93 96
v -256.461 0.998 -66.308
v -239.723 0.998 -61.340
v -243.999 0.998 -46.932
v -260.737 0.998 -51.900
v -256.461 4.898 -66.308
v -239.723 4.898 -61.340
v -243.999 4.898 -46.932
v -260.737 4.898 -51.900
f 104 103 102 101
f 97 98 102 101
f 98 99 103 102
f 99 100 104 103
f 100 97 101 104
v -259.370 0.928 -82.701
v -245.105 0.928 -78.399
v -249.170 0.928 -64.919
v -263.435 0.928 -69.221
v -259.370 4.828 -82.701
v -245.105 4.828 -78.399
v -249.170 4.828 -64.919
v -263.435 4.828 -69.221
f 112 111 110 109
f 105 106 110 109
f 106 107 111 110
f 107 108 112 111
f 108 105 109 112
v -258.239 0.701 -211.717
v -240.866 0.701 -208.718
v -243.721 0.701 -192.183
v -261.094 0.701 -195.182
v -258.239 4.601 -211.717
v -240.866 4.601 -208.718
v -243.721 4.601 -192.183
v -261.094 4.601 -195.182
f 120 119 118 117
f 113 114 118 117
f 114 115 119 118
f 115 116 120 119
f 116 113 117 120
v -239.970 1.157 -181.108
v -233.068 1.157 -162.678
v -247.930 1.157 -157.112
v -254.832 1.157 -175.542
v -239.970 5.057 -181.108
v -233.068 5.057 -162.678
v -247.930 5.057 -157.112
v -254.832 5.057 -175.542
f 128 127 126 125
f 121 122 126 125
f 122 123 127 126
f 123 124 128 127
f 124 121 125 128
v -240.360 0.848 -166.360
v -221.897 0.848 -154.525
v -230.720 0.848 -140.760
v -249.183 0.848 -152.595
v -240.360 4.748 -166.360
v -221.897 4.748 -154.525
v -230.720 4.748 -140.760
v -249.183 4.748 -152.595
f 136 135 134 133
f 129 130 134 133
f 130 131 135 134
f 131 132 136 135
f 132 129 133 136
v -241.045 0.871 -144.413
v -222.230 0.871 -142.073
v -224.235 0.871 -125.947
v -243.050 0.871 -128.287
v -241.045 4.771 -144.413
v -222.230 4.771 -142.073
v -224.235 4.771 -125.947
v -243.050 4.771 -128.287
f 144 143 142 141
f 137 138 142 141
f 138 139 143 142
f 139 140 144 143
f 140 137 141 144
v -230.742 1.014 -129.165
v -215.005 1.014 -123.727
v -219.218 1.014 -111.535
v -234.955 1.014 -116.973
v -230.742 4.914 -129.165
v -215.005 4.914 -123.727
v -219.218 4.914 -111.535
v -234.955 4.914 -116.973
f 152 151 150 149
f 145 146 150 149
f 146 147 151 150
f 147 148 152 151
f 148 145 149 152
v -218.656 0.734 -100.547
v -200.551 0.734 -89.441
v -209.204 0.734 -75.333
v -227.309 0.734 -86.439
v -218.656 4.634 -100.547
v -200.551 4.634 -89.441
v -209.204 4.634 -75.333
v -227.309 4.634 -86.439
f 160 159 158 157
f 153 154 158 157
f 154 155 159 158
f 155 156 160 159
f 156 153 157 160
v -205.723 0.961 -95.466
v -203.849 0.961 -99.885
v -199.817 0.961 -98.174
v -201.691 0.961 -93.755
v -205.723 4.861 -95.466
v -203.849 4.861 -99.885
v -199.817 4.861 -98.174
v -201.691 4.861 -93.755
f 168 167 166 165
f 161 162 166 165
f 162 163 167 166
f 163 164 168 167
f 164 161 165 168
v -215.259 0.723 -80.683
v -197.727 0.723 -74.592
v -200.421 0.723 -66.837
v -217.953 0.723 -72.928
v -215.259 4.623 -80.683
v -197.727 4.623 -74.592
v -200.421 4.623 -66.837
v -217.953 4.623 -72.928
f 176 175 174 173
f 169 170 174 173
f 170 171 175 174
f 171 172 176 175
f 172 169 173 176
v -199.072 0.934 -50.520
v -187.190 0.934 -37.523
v -199.028 0.934 -26.700
v -210.910 0.934 -39.697
v -199.072 4.834 -50.520
v -187.190 4.834 -37.523
v -199.028 4.834 -26.700
v -210.910 4.834 -39.697
f 184 183 182 181
f 177 178 182 181
f 178 179 183 182
f 179 180 184 183
f 180 177 181 184
v -200.464 0.886 -6.216
v -187.200 0.886 -18.953
v -174.996 0.886 -6.244
v -188.260 0.886 6.493
v -200.464 4.786 -6.216
v -187.200 4.786 -18.953
v -174.996 4.786 -6.244
v -188.260 4.786 6.493
f 192 191 190 189
f 185 186 190 189
f 186 187 191 190
f 187 188 192 191
f 188 185 189 192
v -180.300 0.847 17.551
v -168.979 0.847 21.850
v -173.780 0.847 34.489
v -185.101 0.847 30.190
v -180.300 4.747 17.551
v -168.979 4.747 21.850
v -173.780 4.747 34.489
v -185.101 4.747 30.190
f 200 199 198 197
f 193 194 198 197
f 194 195 199 198
f 195 196 200 199
f 196 193 197 200
v -178.858 0.853 34.295
v -161.843 0.853 32.143
v -159.662 0.853 49.385
v -176.677 0.853 51.537
v -178.858 4.753 34.295
v -161.843 4.753 32.143
v -159.662 4.753 49.385
v -176.677 4.753 51.537
f 208 207 206 205
f 201 202 206 205
f 202 203 207 206
f 203 204 208 207
f 204 201 205 208
v -161.579 0.761 48.847
v -156.423 0.761 48.656
v -156.241 0.761 53.553
v -161.397 0.761 53.744
v -161.579 4.661 48.847
v -156.423 4.661 48.656
v -156.241 4.661 53.553
v -161.397 4.661 53.744
f 216 215 214 213
f 209 210 214 213
f 210 211 215 214
f 211 212 216 215
f 212 209 213 216
v 194.602 1.075 -241.079
v 207.842 1.075 -241.071
v 207.838 1.075 -232.081
v 194.598 1.075 -232.089
v 194.602 4.975 -241.079
v 207.842 4.975 -241.071
v 207.838 4.975 -232.081
v 194.598 4.975 -232.089
f 224 223 222 221
f 217 218 222 221
f 218 219 223 222
f 219 220 224 223
f 220 217 221 224
v 157.446 1.141 -241.207
v 171.370 1.141 -241.599
v 171.654 1.141 -231.533
v 157.730 1.141 -231.141
v 157.446 5.041 -241.207
v 171.370 5.041 -241.599
v 171.654 5.041 -231.533
v 157.730 5.041 -231.141
f 232 231 230 229
f 225 226 230 229
f 226 227 231 230
f 227 228 232 231
f 228 225 229 232
v 121.366 0.988 -239.874
v 134.405 0.988 -240.036
v 134.514 0.988 -231.246
v 121.475 0.988 -231.084
v 121.366 4.888 -239.874
v 134.405 4.888 -240.036
v 134.514 4.888 -231.246
v 121.475 4.888 -231.084
f 240 239 238 237
f 233 234 238 237
f 234 235 239 238
f 235 236 240 239
f 236 233 237 240
v 127.523 1.014 -195.062
v 154.272 1.014 -195.307
v 154.357 1.014 -185.978
v 127.608 1.014 -185.733
v 127.523 4.914 -195.062
v 154.272 4.914 -195.307
v 154.357 4.914 -185.978
v 127.608 4.914 -185.733
f 248 247 246 245
f 241 242 246 245
f 242 243 247 246
f 243 244 248 247
f 244 241 245 248
v 30.363 1.025 -232.033
v 58.082 1.025 -229.667
v 57.157 1.025 -218.827
v 29.438 1.025 -221.193
v 30.363 4.925 -232.033
v 58.082 4.925 -229.667
v 57.157 4.925 -218.827
v 29.438 4.925 -221.193
f 256 255 254 253
f 249 250 254 253
f 250 251 255 254
f 251 252 256 255
f 252 249 253 256
v 241.501 1.015 -126.113
v 243.978 1.015 -130.190
v 246.319 1.015 -128.767
v 243.842 1.015 -124.690
v 241.501 4.915 -126.113
v 243.978 4.915 -130.190
v 246.319 4.915 -128.767
v 243.842 4.915 -124.690
f 264 263 262 261
f 257 258 262 261
f 258 259 263 262
f 259 260 264 263
f 260 257 261 264
v 247.291 1.080 -112.377
v 250.153 1.080 -118.101
v 252.389 1.080 -116.983
v 249.527 1.080 -111.259
v 247.291 4.980 -112.377
v 250.153 4.980 -118.101
v 252.389 4.980 -116.983
v 249.527 4.980 -111.259
f 272 271 270 269
f 265 266 270 269
f 266 267 271 270
f 267 268 272 271
f 268 265 269 272
usemtl road
v -256.171 0.836 59.050
v -185.851 0.792 63.435
v -185.509 0.849 57.945
v -255.829 0.846 53.560
f 273 274 275 276
v -185.851 0.792 63.435
v -146.611 0.754 65.885
v -146.269 0.889 60.395
v -185.509 0.849 57.945
f 277 278 279 280
v -258.598 0.742 -140.956
v -188.278 0.824 61.592
v -183.082 0.830 59.788
v -253.402 0.753 -142.760
f 281 282 283 284
v -255.977 0.887 98.309
v -6.417 0.972 96.360
v -6.463 1.198 90.360
v -256.023 1.156 92.309
f 285 286 287 288
v -5.793 0.971 96.289
v 3.767 1.050 94.179
v 2.473 1.171 88.321
v -7.087 1.200 90.431
f 289 290 291 292
v 4.840 1.048 93.708
v 10.940 1.053 89.438
v 7.500 1.152 84.522
v 1.400 1.173 88.792
f 293 294 295 296
v 11.920 1.038 88.287
v 16.300 1.049 79.237
v 10.900 1.159 76.623
v 6.520 1.153 85.673
f 297 298 299 300
v 16.597 1.062 77.787
v 16.207 1.106 69.597
v 10.213 1.169 69.883
v 10.603 1.156 78.073
f 301 302 303 304
v 16.083 1.105 68.877
v 11.403 1.142 53.297
v 5.657 1.186 55.023
v 10.337 1.168 70.603
f 305 306 307 308
v 11.374 1.143 53.207
v -0.236 1.061 18.567
v -5.924 1.167 20.473
v 5.686 1.186 55.113
f 309 310 311 312
v -0.235 1.061 18.568
v -7.135 1.062 -2.062
v -12.825 1.175 -0.158
v -5.925 1.167 20.472
f 313 314 315 316
v -7.136 1.062 -2.065
v -12.966 1.055 -19.435
v -18.654 1.183 -17.525
v -12.824 1.175 -0.155
f 317 318 319 320
v -12.949 1.052 -19.383
v -16.359 0.750 -30.183
v -22.081 1.209 -28.377
v -18.671 1.184 -17.577
f 321 322 323 324
v -16.404 0.755 -30.314
v -44.194 1.036 -106.004
v -49.826 1.121 -103.936
v -22.036 1.209 -28.246
f 325 326 327 328
v -44.059 1.038 -105.510
v -46.589 0.997 -119.340
v -52.491 1.194 -118.260
v -49.961 1.127 -104.430
f 329 330 331 332
v -46.543 0.994 -118.658
v -46.053 1.030 -129.008
v -52.047 1.172 -129.292
v -52.537 1.191 -118.942
f 333 334 335 336
v -46.346 1.018 -127.850
v -42.826 0.996 -135.170
v -48.234 1.192 -137.770
v -51.754 1.161 -130.450
f 337 338 339 340
v -42.946 1.000 -134.945
v -15.786 0.895 -180.975
v -20.954 1.205 -184.025
v -48.114 1.194 -137.995
f 341 342 343 344
v -16.166 0.907 -180.464
v -7.436 1.054 -189.914
v -11.844 1.168 -193.986
v -20.574 1.200 -184.536
f 345 346 347 348
v -7.957 1.060 -189.467
v 4.673 0.986 -198.027
v 1.307 1.149 -202.993
v -11.323 1.167 -194.433
f 349 350 351 352
v 3.698 0.988 -197.595
v 19.348 0.966 -201.395
v 17.932 1.133 -207.225
v 2.282 1.153 -203.425
f 353 354 355 356
v 18.941 0.966 -201.325
v 67.581 0.706 -206.235
v 66.979 1.141 -212.205
v 18.339 1.133 -207.295
f 357 358 359 360
v 67.201 0.687 -206.221
v 87.591 1.202 -205.681
v 87.749 1.089 -211.679
v 67.359 1.143 -212.219
f 361 362 363 364
v 87.324 1.201 -205.700
v 95.764 1.211 -204.720
v 96.456 1.125 -210.680
v 88.016 1.088 -211.660
f 365 366 367 368
v 95.763 1.211 -204.720
v 118.543 1.256 -202.070
v 119.237 1.205 -208.030
v 96.457 1.125 -210.680
f 369 370 371 372
v 118.661 1.258 -202.059
v 161.181 1.279 -198.799
v 161.639 1.237 -204.781
v 119.119 1.203 -208.041
f 373 374 375 376
v 161.308 1.274 -198.792
v 191.688 0.595 -197.762
v 191.892 1.185 -203.758
v 161.512 1.238 -204.788
f 377 378 379 380
v 191.301 0.608 -197.800
v 202.131 0.685 -196.010
v 203.109 1.177 -201.930
v 192.279 1.186 -203.720
f 381 382 383 384
v 200.868 0.668 -196.534
v 209.948 0.876 -190.004
v 213.452 1.100 -194.876
v 204.372 1.172 -201.406
f 385 386 387 388
v 209.301 0.860 -190.639
v 243.771 1.161 -144.709
v 248.569 1.178 -148.311
v 214.099 1.099 -194.241
f 389 390 391 392
v -3.918 1.174 17.984
v -17.178 1.368 25.214
v -15.502 1.307 28.286
v -2.242 1.167 21.056
f 393 394 395 396
v -16.738 1.360 25.046
v -25.558 1.437 27.106
v -24.762 1.193 30.514
v -15.942 1.307 28.454
f 397 398 399 400
v -24.902 1.425 27.079
v -32.292 1.515 25.979
v -32.808 1.532 29.441
v -25.418 1.156 30.541
f 401 402 403 404
v -31.136 1.494 26.679
v -34.986 1.540 21.399
v -37.814 1.616 23.461
v -33.964 1.564 28.741
f 405 406 407 408
v -34.659 1.538 22.255
v -35.329 1.477 15.585
v -38.811 1.548 15.935
v -38.141 1.621 22.605
f 409 410 411 412
v -35.516 1.499 16.565
v -32.696 1.409 11.125
v -35.804 1.402 9.515
v -38.624 1.532 14.955
f 413 414 415 416
v -33.384 1.410 11.840
v -18.504 0.589 3.360
v -20.236 0.550 0.320
v -35.116 1.391 8.800
f 417 418 419 420
v -18.845 0.582 3.510
v -9.455 1.173 0.560
v -10.505 1.177 -2.780
v -19.895 0.564 0.170
f 421 422 423 424
v 88.839 2.931 -91.945
v 89.449 2.066 -108.465
v 85.951 1.642 -108.595
v 85.341 3.106 -92.075
f 425 426 427 428
v 89.401 2.037 -108.940
v 86.721 1.235 -120.060
v 83.319 1.214 -119.240
v 85.999 1.771 -108.120
f 429 430 431 432
v 86.357 1.221 -120.779
v 81.707 1.170 -126.289
v 79.033 1.190 -124.031
v 83.683 1.214 -118.521
f 433 434 435 436
v 81.327 1.166 -126.625
v 56.257 1.211 -142.995
v 54.343 1.260 -140.065
v 79.413 1.190 -123.695
f 437 438 439 440
v 56.669 1.214 -142.621
v 53.139 1.197 -147.051
v 50.401 1.211 -144.869
v 53.931 1.252 -140.439
f 441 442 443 444
v 53.520 1.205 -145.967
v 53.490 1.202 -153.927
v 49.990 1.206 -153.913
v 50.020 1.218 -145.953
f 445 446 447 448
v 53.172 1.197 -152.915
v 61.672 1.071 -165.025
v 58.808 1.197 -167.035
v 50.308 1.205 -154.925
f 449 450 451 452
v 61.479 1.073 -164.794
v 89.899 1.255 -193.294
v 87.421 1.174 -195.766
v 59.001 1.198 -167.266
f 453 454 455 456
v 90.183 1.219 -193.668
v 97.633 1.195 -206.838
v 94.587 1.173 -208.562
v 87.137 1.173 -195.392
f 457 458 459 460
v -249.838 0.396 172.070
v -203.308 0.518 172.020
v -203.312 0.494 168.520
v -249.842 0.373 168.570
f 461 462 463 464
v -203.241 0.518 172.019
v -146.401 0.489 169.769
v -146.539 0.492 166.271
v -203.379 0.493 168.521
f 465 466 467 468
v -146.378 0.489 169.768
v -116.618 0.488 168.198
v -116.802 0.512 164.702
v -146.562 0.492 166.272
f 469 470 471 472
v -116.793 0.488 168.198
v -94.983 0.497 169.238
v -94.817 0.533 165.742
v -116.627 0.512 164.702
f 473 474 475 476
v -95.144 0.496 169.223
v -76.214 0.548 171.883
v -75.726 0.569 168.417
v -94.656 0.533 165.757
f 477 478 479 480
v -76.300 0.547 171.869
v -54.300 0.498 176.089
v -53.640 0.502 172.651
v -75.640 0.570 168.431
f 481 482 483 484
v -54.375 0.498 176.073
v -23.945 0.406 183.303
v -23.135 0.370 179.897
v -53.565 0.503 172.667
f 485 486 487 488
v -23.850 0.405 183.322
v -8.010 0.425 186.172
v -7.390 0.407 182.728
v -23.230 0.371 179.878
f 489 490 491 492
v -7.808 0.425 186.197
v 10.512 0.414 187.327
v 10.728 0.422 183.833
v -7.592 0.406 182.703
f 493 494 495 496
v 10.625 0.413 187.330
v 36.245 0.398 187.260
v 36.235 0.393 183.760
v 10.615 0.421 183.830
f 497 498 499 500
v 36.255 0.398 187.260
v 94.625 0.381 186.760
v 94.595 0.352 183.260
v 36.225 0.393 183.760
f 501 502 503 504
v 94.612 0.381 186.760
v 185.302 0.363 186.660
v 185.298 0.343 183.160
v 94.608 0.352 183.260
f 505 506 507 508
v 185.318 0.363 186.660
v 256.018 0.357 185.944
v 255.982 0.356 182.444
v 185.282 0.343 183.160
f 509 510 511 512
usemtl asphalt
v -255.923 0.753 241.695
v -2.663 0.787 240.420
v -2.817 0.792 209.920
v -256.077 0.741 211.196
f 513 514 515 516
v -2.668 0.787 240.420
v 5.772 0.810 240.380
v 5.628 0.785 209.880
v -2.812 0.792 209.920
f 517 518 519 520
v 5.777 0.810 240.380
v 45.377 0.808 240.180
v 45.223 0.790 209.680
v 5.623 0.785 209.880
f 521 522 523 524
v 45.376 0.808 240.180
v 61.486 0.774 240.100
v 61.334 0.774 209.600
v 45.224 0.790 209.680
f 525 526 527 528
v 61.487 0.774 240.100
v 256.077 0.814 239.114
v 255.923 0.794 208.614
v 61.333 0.774 209.600
f 529 530 531 532
v 36.958 0.647 255.949
v 36.880 0.786 242.219
v 18.880 0.806 242.321
v 18.959 0.657 256.051
f 533 534 535 536
v 4.285 0.879 234.018
v 12.075 0.870 235.258
v 14.905 0.879 217.482
v 7.115 0.866 216.242
f 537 538 539 540
v 10.286 0.876 234.780
v 14.066 0.861 236.220
v 20.474 0.910 219.400
v 16.694 0.889 217.960
f 541 542 543 544
v 12.552 0.869 235.474
v 15.622 0.854 237.364
v 25.058 0.960 222.036
v 21.988 0.925 220.146
f 545 546 547 548
v 14.184 0.860 236.265
v 17.714 0.838 239.575
v 30.026 0.972 226.445
v 26.496 0.984 223.135
f 549 550 551 552
v 16.175 0.852 237.678
v 18.395 0.808 241.338
v 33.785 0.906 232.002
v 31.565 0.958 228.342
f 553 554 555 556
v 17.464 0.844 239.239
v 18.274 0.808 241.959
v 35.526 0.861 236.821
v 34.716 0.891 234.101
f 557 558 559 560
v 18.380 0.808 242.289
v 19.360 0.792 245.169
v 36.400 0.832 239.371
v 35.420 0.866 236.491
f 561 562 563 564
v 36.568 0.769 244.619
v 37.728 0.814 240.329
v 20.352 0.867 235.631
v 19.192 0.831 239.921
f 565 566 567 568
v 36.800 0.782 242.539
v 38.110 0.814 240.309
v 22.590 0.924 231.191
v 21.280 0.885 233.421
f 569 570 571 572
v 37.658 0.802 241.003
v 39.678 0.842 238.193
v 25.062 0.958 227.687
v 23.042 0.934 230.497
f 573 574 575 576
v 38.803 0.835 239.235
v 41.543 0.858 236.435
v 28.677 0.987 223.845
v 25.937 0.973 226.645
f 577 578 579 580
v 39.905 0.845 237.756
v 42.875 0.866 235.886
v 33.285 0.954 220.654
v 30.315 0.969 222.524
f 581 582 583 584
v 42.455 0.863 236.135
v 46.015 0.883 234.155
v 37.265 0.913 218.425
v 33.705 0.950 220.405
f 585 586 587 588
v 44.775 0.875 234.726
v 48.435 0.901 233.366
v 42.165 0.880 216.494
v 38.505 0.904 217.854
f 589 590 591 592
