# Baked ultra-low Key West silhouette; generated by bake_key_west_far_city.py
mtllib far_city.mtl
usemtl massing
usemtl road
v 256.042 0.701 94.568
v 238.202 0.791 94.141
v 238.118 0.776 97.639
v 255.958 0.729 98.067
f 1 2 3 4
v 238.221 0.791 94.141
v 222.401 0.795 93.591
v 222.279 0.766 97.089
v 238.099 0.776 97.639
f 5 6 7 8
v 222.461 0.796 93.594
v 184.101 0.750 90.944
v 183.859 0.770 94.436
v 222.219 0.765 97.086
f 9 10 11 12
v 184.063 0.750 90.942
v 158.673 0.767 89.732
v 158.507 0.762 93.228
v 183.897 0.770 94.438
f 13 14 15 16
v 158.611 0.767 89.730
v 125.601 0.807 89.340
v 125.559 0.791 92.840
v 158.569 0.763 93.230
f 17 18 19 20
v 125.619 0.807 89.340
v 89.089 0.604 88.530
v 89.011 0.675 92.030
v 125.541 0.791 92.840
f 21 22 23 24
v 89.025 0.603 88.530
v 65.185 0.627 88.870
v 65.235 0.740 92.370
v 89.075 0.676 92.030
f 25 26 27 28
v 65.307 0.625 88.873
v 46.637 0.646 87.833
v 46.443 0.698 91.327
v 65.113 0.742 92.367
f 29 30 31 32
v 46.726 0.646 87.840
v 28.066 0.697 85.840
v 27.694 0.792 89.320
v 46.354 0.698 91.320
f 33 34 35 36
v 27.961 0.697 85.832
v 6.571 0.794 84.842
v 6.409 0.825 88.338
v 27.799 0.792 89.328
f 37 38 39 40
v 6.561 0.794 84.841
v -32.079 0.630 83.271
v -32.221 0.721 86.769
v 6.419 0.826 88.339
f 41 42 43 44
v -32.123 0.630 83.270
v -94.803 0.781 82.320
v -94.857 0.785 85.820
v -32.177 0.721 86.770
f 45 46 47 48
v -94.827 0.781 82.320
v -130.407 0.826 82.250
v -130.413 0.728 85.750
v -94.833 0.786 85.820
f 49 50 51 52
v -130.541 0.827 82.255
v -150.651 0.725 83.765
v -150.389 0.745 87.255
v -130.279 0.729 85.745
f 53 54 55 56
v -150.441 0.724 83.762
v -177.811 0.724 82.532
v -177.969 0.732 86.028
v -150.599 0.745 87.258
f 57 58 59 60
v -177.876 0.724 82.530
v -228.866 0.649 82.120
v -228.894 0.603 85.620
v -177.904 0.732 86.030
f 61 62 63 64
v -230.612 0.588 84.117
v -228.532 0.884 98.677
v -225.068 0.889 98.183
v -227.148 0.623 83.623
f 65 66 67 68
v -228.586 0.649 82.145
v -250.376 0.691 78.435
v -250.964 0.663 81.885
v -229.174 0.598 85.595
f 69 70 71 72
v -250.678 0.680 78.410
v -256.008 0.729 78.434
v -255.992 0.694 81.934
v -250.662 0.666 81.910
f 73 74 75 76
v -150.801 0.744 87.237
v -117.891 0.951 92.587
v -117.329 0.715 89.133
v -150.239 0.724 83.783
f 77 78 79 80
v -117.625 0.950 92.610
v -69.135 0.830 93.020
v -69.105 0.890 89.520
v -117.595 0.716 89.110
f 81 82 83 84
v -69.162 0.830 93.019
v -25.432 0.883 94.069
v -25.348 0.812 90.571
v -69.078 0.890 89.521
f 85 86 87 88
v -25.447 0.883 94.069
v 29.683 0.866 95.859
v 29.797 0.855 92.361
v -25.333 0.812 90.571
f 89 90 91 92
v 29.675 0.866 95.859
v 127.725 0.859 99.519
v 127.855 0.832 96.021
v 29.805 0.855 92.361
f 93 94 95 96
v 127.705 0.859 99.518
v 220.995 0.850 104.078
v 221.165 0.773 100.582
v 127.875 0.832 96.022
f 97 98 99 100
v 256.247 1.104 113.400
v -68.733 1.122 100.035
v -69.227 1.049 112.025
v 255.753 1.008 125.390
f 101 102 103 104
v -68.691 1.122 100.037
v -226.511 0.788 92.437
v -227.089 0.759 104.423
v -69.269 1.049 112.023
f 105 106 107 108
v -226.509 0.788 92.437
v -255.709 0.748 91.019
v -256.291 0.721 103.005
v -227.091 0.759 104.423
f 109 110 111 112
usemtl asphalt
v 37.210 0.516 -211.981
v 36.958 0.647 -256.051
v 18.959 0.657 -255.949
v 19.210 0.538 -211.879
f 113 114 115 116
v 255.959 0.576 -201.650
v 56.109 0.504 -200.750
v 56.191 0.523 -182.750
v 256.041 0.561 -183.651
f 117 118 119 120
v 56.069 0.504 -200.750
v 44.899 0.561 -200.650
v 45.061 0.510 -182.650
v 56.231 0.524 -182.750
f 121 122 123 124
v 44.936 0.561 -200.650
v 12.036 0.558 -200.490
v 12.124 0.516 -182.490
v 45.024 0.510 -182.650
f 125 126 127 128
v 12.040 0.558 -200.490
v -17.110 0.513 -200.360
v -17.030 0.537 -182.360
v 12.120 0.516 -182.490
f 129 130 131 132
v -17.085 0.513 -200.360
v -40.505 0.506 -200.320
v -40.475 0.557 -182.320
v -17.055 0.537 -182.360
f 133 134 135 136
v -40.550 0.505 -200.320
v -57.130 0.497 -200.210
v -57.010 0.537 -182.210
v -40.430 0.557 -182.320
f 137 138 139 140
v -57.090 0.497 -200.210
v -79.860 0.512 -200.160
v -79.820 0.545 -182.160
v -57.050 0.537 -182.210
f 141 142 143 144
v -79.930 0.511 -200.160
v -98.850 0.522 -199.970
v -98.670 0.565 -181.970
v -79.750 0.545 -182.160
f 145 146 147 148
v -98.755 0.522 -199.970
v -118.635 0.536 -199.980
v -118.645 0.573 -181.980
v -98.765 0.565 -181.970
f 149 150 151 152
v -118.686 0.536 -199.980
v -132.496 0.548 -199.910
v -132.404 0.585 -181.910
v -118.594 0.573 -181.980
f 153 154 155 156
v -132.567 0.548 -199.909
v -161.107 0.589 -199.539
v -160.873 0.603 -181.541
v -132.333 0.585 -181.911
f 157 158 159 160
v -161.040 0.588 -199.540
v -166.400 0.606 -199.510
v -166.300 0.596 -181.510
v -160.940 0.603 -181.540
f 161 162 163 164
v -166.384 0.606 -199.510
v -222.004 0.619 -199.300
v -221.936 0.545 -181.300
v -166.316 0.596 -181.510
f 165 166 167 168
v -222.008 0.619 -199.300
v -252.918 0.642 -199.170
v -252.842 0.593 -181.170
v -221.932 0.545 -181.300
f 169 170 171 172
v -252.914 0.642 -199.170
v -256.034 0.643 -199.158
v -255.966 0.601 -181.158
v -252.846 0.593 -181.170
f 173 174 175 176
v 56.069 0.504 -200.750
v 44.899 0.561 -200.650
v 45.061 0.510 -182.650
v 56.231 0.524 -182.750
f 177 178 179 180
v 47.404 0.546 -200.317
v 41.684 0.559 -201.917
v 36.836 0.547 -184.583
v 42.556 0.524 -182.983
f 181 182 183 184
v 43.394 0.562 -201.244
v 40.184 0.556 -202.904
v 31.916 0.569 -186.916
v 35.126 0.550 -185.256
f 185 186 187 188
v 41.902 0.560 -201.748
v 39.752 0.547 -203.588
v 28.048 0.624 -189.912
v 30.198 0.588 -188.072
f 189 190 191 192
v 40.621 0.557 -202.736
v 38.341 0.533 -205.296
v 24.899 0.648 -193.324
v 27.179 0.643 -190.764
f 193 194 195 196
v 39.417 0.545 -203.804
v 37.757 0.533 -206.684
v 22.163 0.613 -197.696
v 23.823 0.626 -194.816
f 197 198 199 200
v 38.547 0.534 -204.886
v 37.517 0.533 -208.166
v 20.343 0.615 -202.774
v 21.373 0.604 -199.494
f 201 202 203 204
v 37.682 0.532 -207.567
v 36.992 0.526 -210.447
v 19.488 0.572 -206.253
v 20.178 0.608 -203.373
f 205 206 207 208
v 37.240 0.536 -208.425
v 37.210 0.516 -212.005
v 19.210 0.538 -211.855
v 19.240 0.564 -208.275
f 209 210 211 212
v 14.834 0.526 -182.922
v 20.994 0.538 -184.902
v 15.486 0.572 -202.038
v 9.326 0.542 -200.058
f 213 214 215 216
v 23.354 0.567 -186.064
v 27.134 0.599 -188.674
v 16.906 0.571 -203.486
v 13.126 0.564 -200.876
f 217 218 219 220
v 28.577 0.624 -189.915
v 31.257 0.648 -192.765
v 18.143 0.568 -205.095
v 15.463 0.571 -202.245
f 221 222 223 224
v 32.579 0.639 -194.580
v 34.539 0.599 -198.130
v 18.781 0.562 -206.830
v 16.821 0.572 -203.280
f 225 226 227 228
v 35.243 0.589 -199.773
v 36.123 0.578 -202.563
v 18.957 0.562 -207.977
v 18.077 0.568 -205.187
f 229 230 231 232
v 36.316 0.570 -203.275
v 37.016 0.542 -206.355
v 19.464 0.549 -210.345
v 18.764 0.561 -207.265
f 233 234 235 236
v -157.390 0.429 -174.493
v -157.320 0.356 -165.093
v -139.320 0.388 -165.227
v -139.390 0.402 -174.627
f 237 238 239 240
v -157.320 0.356 -165.158
v -157.310 0.565 -120.118
v -139.310 0.606 -120.122
v -139.320 0.387 -165.162
f 241 242 243 244
v -117.660 0.558 -180.514
v -117.750 0.377 -165.524
v -99.750 0.397 -165.416
v -99.660 0.540 -180.406
f 245 246 247 248
v -117.750 0.377 -165.390
v -117.390 0.557 -124.900
v -99.390 0.564 -125.060
v -99.750 0.396 -165.550
f 249 250 251 252
v -78.240 0.530 -180.843
v -78.120 0.369 -164.753
v -60.120 0.392 -164.887
v -60.240 0.531 -180.977
f 253 254 255 256
v -78.120 0.369 -164.779
v -77.960 0.509 -129.639
v -59.960 0.539 -129.721
v -60.120 0.392 -164.861
f 257 258 259 260
v -38.579 0.547 -180.974
v -38.349 0.413 -164.604
v -20.351 0.370 -164.856
v -20.581 0.541 -181.226
f 261 262 263 264
v -38.350 0.413 -164.698
v -38.240 0.522 -134.208
v -20.240 0.475 -134.272
v -20.350 0.369 -164.762
f 265 266 267 268
v -167.433 0.593 -181.575
v -161.823 0.594 -180.895
v -159.657 0.611 -198.765
v -165.267 0.606 -199.445
f 269 270 271 272
v -164.422 0.604 -181.617
v -162.392 0.591 -180.707
v -155.028 0.636 -197.133
v -157.058 0.618 -198.043
f 273 274 275 276
v -163.564 0.602 -181.341
v -161.784 0.576 -180.201
v -152.076 0.662 -195.359
v -153.856 0.648 -196.499
f 277 278 279 280
v -162.149 0.583 -180.448
v -159.859 0.536 -178.818
v -149.421 0.691 -193.482
v -151.711 0.665 -195.112
f 281 282 283 284
v -160.860 0.557 -179.645
v -159.030 0.516 -177.895
v -146.590 0.715 -190.905
v -148.420 0.703 -192.655
f 285 286 287 288
v -160.020 0.540 -179.014
v -157.540 0.454 -175.694
v -143.120 0.663 -186.466
v -145.600 0.701 -189.786
f 289 290 291 292
v -158.801 0.519 -178.040
v -157.631 0.432 -174.780
v -140.689 0.581 -180.860
v -141.859 0.621 -184.120
f 293 294 295 296
v -157.919 0.456 -175.751
v -157.149 0.409 -172.491
v -139.631 0.472 -176.629
v -140.401 0.556 -179.889
f 297 298 299 300
v -139.624 0.377 -172.519
v -138.914 0.427 -175.569
v -156.446 0.559 -179.651
v -157.156 0.477 -176.601
f 301 302 303 304
v -139.120 0.403 -174.829
v -138.100 0.496 -177.969
v -155.220 0.616 -183.531
v -156.240 0.577 -180.391
f 305 306 307 308
v -139.268 0.431 -175.616
v -137.018 0.507 -178.856
v -151.802 0.697 -189.124
v -154.052 0.657 -185.884
f 309 310 311 312
v -137.951 0.489 -177.723
v -135.341 0.546 -180.413
v -148.259 0.698 -192.947
v -150.869 0.712 -190.257
f 313 314 315 316
v -137.048 0.511 -179.037
v -132.818 0.578 -181.667
v -142.322 0.629 -196.953
v -146.552 0.670 -194.323
f 317 318 319 320
v -134.886 0.553 -180.720
v -129.766 0.592 -182.320
v -135.134 0.561 -199.500
v -140.254 0.607 -197.900
f 321 322 323 324
v -122.121 0.583 -182.681
v -119.141 0.564 -181.431
v -112.179 0.571 -198.029
v -115.159 0.549 -199.279
f 325 326 327 328
v -119.739 0.568 -181.708
v -117.969 0.562 -180.808
v -109.811 0.591 -196.852
v -111.581 0.576 -197.752
f 329 330 331 332
v -119.905 0.576 -182.136
v -118.525 0.559 -180.896
v -106.495 0.629 -194.284
v -107.875 0.613 -195.524
f 333 334 335 336
v -119.257 0.567 -181.634
v -118.127 0.551 -180.354
v -104.633 0.651 -192.266
v -105.763 0.638 -193.546
f 337 338 339 340
v -118.672 0.561 -181.034
v -117.442 0.534 -179.334
v -102.858 0.638 -189.886
v -104.088 0.656 -191.586
f 341 342 343 344
v -118.449 0.564 -181.128
v -117.849 0.539 -179.698
v -101.251 0.601 -186.662
v -101.851 0.612 -188.092
f 345 346 347 348
v -118.104 0.552 -180.381
v -117.214 0.476 -177.661
v -100.106 0.578 -183.259
v -100.996 0.593 -185.979
f 349 350 351 352
v -99.917 0.497 -178.323
v -99.367 0.541 -180.573
v -116.853 0.585 -184.847
v -117.403 0.577 -182.597
f 353 354 355 356
v -99.730 0.522 -179.426
v -99.150 0.546 -180.906
v -115.910 0.639 -187.474
v -116.490 0.609 -185.994
f 357 358 359 360
v -100.109 0.518 -179.097
v -98.709 0.549 -181.137
v -113.551 0.658 -191.323
v -114.951 0.650 -189.283
f 361 362 363 364
v -99.233 0.538 -180.448
v -97.523 0.573 -182.488
v -111.317 0.631 -194.052
v -113.027 0.653 -192.012
f 365 366 367 368
v -99.676 0.544 -180.622
v -97.306 0.566 -182.092
v -106.794 0.587 -197.388
v -109.164 0.605 -195.918
f 369 370 371 372
v -99.086 0.552 -181.242
v -96.506 0.566 -182.142
v -102.434 0.558 -199.138
v -105.014 0.570 -198.238
f 373 374 375 376
v -95.677 0.572 -182.478
v -94.967 0.576 -182.808
v -102.553 0.559 -199.132
v -103.263 0.567 -198.802
f 377 378 379 380
v -82.104 0.555 -182.449
v -80.334 0.546 -181.989
v -75.806 0.526 -199.411
v -77.576 0.519 -199.871
f 381 382 383 384
v -81.084 0.551 -182.220
v -79.874 0.542 -181.790
v -73.846 0.536 -198.750
v -75.056 0.530 -199.180
f 385 386 387 388
v -80.902 0.551 -182.229
v -79.032 0.535 -181.289
v -70.948 0.545 -197.371
v -72.818 0.540 -198.311
f 389 390 391 392
v -80.618 0.551 -182.307
v -79.108 0.533 -181.097
v -67.852 0.579 -195.143
v -69.362 0.562 -196.353
f 393 394 395 396
v -79.808 0.541 -181.720
v -78.028 0.519 -179.960
v -65.372 0.615 -192.760
v -67.152 0.585 -194.520
f 397 398 399 400
v -78.997 0.533 -181.092
v -77.907 0.514 -179.582
v -63.313 0.631 -190.118
v -64.403 0.630 -191.628
f 401 402 403 404
v -79.133 0.541 -181.959
v -78.553 0.521 -180.249
v -61.507 0.562 -186.031
v -62.087 0.594 -187.741
f 405 406 407 408
v -78.513 0.520 -180.135
v -77.723 0.484 -177.905
v -60.757 0.549 -183.915
v -61.547 0.564 -186.145
f 409 410 411 412
v -60.722 0.480 -178.004
v -59.992 0.518 -180.144
v -77.028 0.566 -185.956
v -77.758 0.547 -183.816
f 413 414 415 416
v -60.324 0.509 -179.311
v -59.584 0.524 -180.931
v -75.956 0.598 -188.409
v -76.696 0.576 -186.789
f 417 418 419 420
v -60.136 0.516 -179.904
v -58.956 0.533 -181.794
v -74.224 0.638 -191.326
v -75.404 0.617 -189.436
f 421 422 423 424
v -60.065 0.521 -180.361
v -58.735 0.532 -181.761
v -71.785 0.596 -194.159
v -73.115 0.615 -192.759
f 425 426 427 428
v -59.609 0.525 -180.955
v -57.799 0.542 -182.415
v -69.101 0.561 -196.425
v -70.911 0.582 -194.965
f 429 430 431 432
v -59.383 0.529 -181.391
v -57.113 0.543 -182.541
v -65.247 0.534 -198.599
v -67.517 0.544 -197.449
f 433 434 435 436
v -59.254 0.534 -181.779
v -57.474 0.537 -182.169
v -61.326 0.506 -199.751
v -63.106 0.517 -199.361
f 437 438 439 440
v -58.440 0.536 -182.011
v -56.110 0.539 -182.261
v -58.030 0.494 -200.159
v -60.360 0.500 -199.909
f 441 442 443 444
v -42.604 0.553 -182.572
v -40.204 0.553 -181.992
v -35.976 0.538 -199.488
v -38.376 0.518 -200.068
f 445 446 447 448
v -41.671 0.554 -182.483
v -39.411 0.552 -181.503
v -32.249 0.572 -198.017
v -34.509 0.555 -198.997
f 449 450 451 452
v -41.175 0.556 -182.519
v -39.265 0.547 -181.109
v -28.575 0.604 -195.591
v -30.485 0.585 -197.001
f 453 454 455 456
v -40.360 0.553 -182.063
v -38.720 0.530 -180.383
v -25.840 0.646 -192.957
v -27.480 0.618 -194.637
f 457 458 459 460
v -39.480 0.548 -181.270
v -38.130 0.509 -179.470
v -23.730 0.664 -190.270
v -25.080 0.657 -192.070
f 461 462 463 464
v -39.086 0.548 -181.064
v -38.386 0.510 -179.564
v -22.074 0.606 -187.176
v -22.774 0.640 -188.676
f 465 466 467 468
v -38.882 0.545 -180.892
v -38.232 0.479 -178.622
v -20.928 0.562 -183.578
v -21.578 0.582 -185.848
f 469 470 471 472
v -20.919 0.505 -178.653
v -20.289 0.534 -180.883
v -37.611 0.600 -185.777
v -38.241 0.575 -183.547
f 473 474 475 476
v -20.877 0.518 -179.352
v -19.867 0.537 -181.402
v -36.013 0.663 -189.358
v -37.023 0.629 -187.308
f 477 478 479 480
v -20.740 0.526 -179.980
v -19.450 0.538 -181.700
v -33.850 0.661 -192.500
v -35.140 0.685 -190.780
f 481 482 483 484
v -20.202 0.533 -180.821
v -18.722 0.544 -182.341
v -31.618 0.615 -194.899
v -33.098 0.644 -193.379
f 485 486 487 488
v -20.017 0.536 -181.241
v -18.127 0.545 -182.561
v -28.433 0.575 -197.319
v -30.323 0.600 -195.999
f 489 490 491 492
v -19.988 0.540 -181.564
v -17.698 0.541 -182.464
v -24.282 0.539 -199.216
v -26.572 0.554 -198.316
f 493 494 495 496
v -18.507 0.541 -182.189
v -17.427 0.541 -182.499
v -22.393 0.520 -199.801
v -23.473 0.531 -199.491
f 497 498 499 500
v -19.246 0.544 -182.175
v -16.406 0.541 -182.385
v -17.734 0.510 -200.335
v -20.574 0.507 -200.125
f 501 502 503 504
v -255.142 0.613 -181.459
v -251.252 0.569 -180.449
v -246.728 0.676 -197.871
v -250.618 0.638 -198.881
f 505 506 507 508
v -253.114 0.594 -181.161
v -250.224 0.558 -179.671
v -241.976 0.715 -195.669
v -244.866 0.695 -197.159
f 509 510 511 512
v -251.391 0.569 -180.389
v -248.281 0.535 -178.129
v -237.699 0.754 -192.691
v -240.809 0.722 -194.951
f 513 514 515 516
v -249.097 0.546 -178.799
v -246.737 0.508 -176.619
v -234.523 0.755 -189.841
v -236.883 0.767 -192.021
f 517 518 519 520
v -247.768 0.527 -177.748
v -245.948 0.491 -175.378
v -231.672 0.710 -186.342
v -233.492 0.744 -188.712
f 521 522 523 524
v -246.948 0.514 -177.016
v -245.668 0.480 -174.306
v -229.392 0.575 -181.994
v -230.672 0.680 -184.704
f 525 526 527 528
v -246.202 0.496 -175.743
v -245.272 0.469 -172.393
v -227.928 0.491 -177.207
v -228.858 0.511 -180.557
f 529 530 531 532
v -245.598 0.483 -174.619
v -245.508 0.461 -170.149
v -227.512 0.435 -170.511
v -227.602 0.471 -174.981
f 533 534 535 536
v -227.876 0.451 -172.589
v -227.326 0.467 -174.759
v -244.774 0.515 -179.181
v -245.324 0.503 -177.011
f 537 538 539 540
v -227.724 0.459 -173.552
v -226.714 0.479 -176.012
v -243.366 0.640 -182.848
v -244.376 0.551 -180.388
f 541 542 543 544
v -227.290 0.467 -174.854
v -225.560 0.493 -177.784
v -241.060 0.732 -186.936
v -242.790 0.673 -184.006
f 545 546 547 548
v -226.451 0.487 -176.533
v -224.361 0.490 -178.993
v -238.079 0.778 -190.647
v -240.169 0.751 -188.187
f 549 550 551 552
v -225.150 0.492 -178.175
v -222.840 0.512 -180.285
v -234.980 0.745 -193.575
v -237.290 0.775 -191.465
f 553 554 555 556
v -223.894 0.498 -179.458
v -221.034 0.553 -181.378
v -231.066 0.693 -196.322
v -233.926 0.732 -194.402
f 557 558 559 560
v -221.990 0.526 -180.818
v -220.150 0.570 -181.748
v -228.270 0.658 -197.812
v -230.110 0.684 -196.882
f 561 562 563 564
v -222.175 0.530 -181.013
v -219.935 0.560 -181.533
v -224.005 0.637 -199.067
v -226.245 0.649 -198.547
f 565 566 567 568
v -227.550 0.365 -162.245
v -227.510 0.435 -170.285
v -245.510 0.464 -170.375
v -245.550 0.335 -162.335
f 569 570 571 572
