# Baked ultra-low Key West silhouette; generated by bake_key_west_far_city.py
mtllib far_city.mtl
usemtl massing
v 195.246 1.129 13.572
v 272.541 1.129 2.247
v 279.114 1.129 47.108
v 201.819 1.129 58.433
v 195.246 9.429 13.572
v 272.541 9.429 2.247
v 279.114 9.429 47.108
v 201.819 9.429 58.433
f 8 7 6 5
f 1 2 6 5
f 2 3 7 6
f 3 4 8 7
f 4 1 5 8
v 85.870 1.401 22.553
v 141.604 1.401 5.377
v 153.490 1.401 43.947
v 97.756 1.401 61.123
v 85.870 8.301 22.553
v 141.604 8.301 5.377
v 153.490 8.301 43.947
v 97.756 8.301 61.123
f 16 15 14 13
f 9 10 14 13
f 10 11 15 14
f 11 12 16 15
f 12 9 13 16
v 44.070 2.656 38.857
v 47.432 2.656 2.241
v 64.670 2.656 3.823
v 61.308 2.656 40.439
v 44.070 8.456 38.857
v 47.432 8.456 2.241
v 64.670 8.456 3.823
v 61.308 8.456 40.439
f 24 23 22 21
f 17 18 22 21
f 18 19 23 22
f 19 20 24 23
f 20 17 21 24
v -6.162 0.987 -0.686
v 9.207 0.987 0.441
v 8.262 0.987 13.326
v -7.107 0.987 12.199
v -6.162 4.887 -0.686
v 9.207 4.887 0.441
v 8.262 4.887 13.326
v -7.107 4.887 12.199
f 32 31 30 29
f 25 26 30 29
f 26 27 31 30
f 27 28 32 31
f 28 25 29 32
v -63.997 0.897 8.243
v -26.852 0.897 12.061
v -29.263 0.897 35.517
v -66.408 0.897 31.699
v -63.997 6.697 8.243
v -26.852 6.697 12.061
v -29.263 6.697 35.517
v -66.408 6.697 31.699
f 40 39 38 37
f 33 34 38 37
f 34 35 39 38
f 35 36 40 39
f 36 33 37 40
v -192.645 0.441 16.258
v -98.350 0.441 25.212
v -103.435 0.441 78.762
v -197.730 0.441 69.808
v -192.645 8.741 16.258
v -98.350 8.741 25.212
v -103.435 8.741 78.762
v -197.730 8.741 69.808
f 48 47 46 45
f 41 42 46 45
f 42 43 47 46
f 43 44 48 47
f 44 41 45 48
v -210.960 0.849 96.238
v -206.299 0.849 75.998
v -194.040 0.849 78.822
v -198.701 0.849 99.062
v -210.960 4.749 96.238
v -206.299 4.749 75.998
v -194.040 4.749 78.822
v -198.701 4.749 99.062
f 56 55 54 53
f 49 50 54 53
f 50 51 55 54
f 51 52 56 55
f 52 49 53 56
v 20.056 0.715 213.976
v 26.464 0.715 190.910
v 44.944 0.715 196.044
v 38.536 0.715 219.110
v 20.056 4.615 213.976
v 26.464 4.615 190.910
v 44.944 4.615 196.044
v 38.536 4.615 219.110
f 64 63 62 61
f 57 58 62 61
f 58 59 63 62
f 59 60 64 63
f 60 57 61 64
v 80.784 0.955 246.397
v 81.148 0.955 226.121
v 94.596 0.955 226.363
v 94.232 0.955 246.639
v 80.784 4.855 246.397
v 81.148 4.855 226.121
v 94.596 4.855 226.363
v 94.232 4.855 246.639
f 72 71 70 69
f 65 66 70 69
f 66 67 71 70
f 67 68 72 71
f 68 65 69 72
v -5.657 0.786 250.598
v -4.973 0.786 234.463
v 5.377 0.786 234.902
v 4.693 0.786 251.037
v -5.657 4.686 250.598
v -4.973 4.686 234.463
v 5.377 4.686 234.902
v 4.693 4.686 251.037
f 80 79 78 77
f 73 74 78 77
f 74 75 79 78
f 75 76 80 79
f 76 73 77 80
v -113.635 0.973 204.828
v -96.033 0.973 206.121
v -97.085 0.973 220.432
v -114.687 0.973 219.139
v -113.635 4.873 204.828
v -96.033 4.873 206.121
v -97.085 4.873 220.432
v -114.687 4.873 219.139
f 88 87 86 85
f 81 82 86 85
f 82 83 87 86
f 83 84 88 87
f 84 81 85 88
v -81.675 0.779 260.002
v -79.458 0.779 238.325
v -62.705 0.779 240.038
v -64.922 0.779 261.715
v -81.675 4.679 260.002
v -79.458 4.679 238.325
v -62.705 4.679 240.038
v -64.922 4.679 261.715
f 96 95 94 93
f 89 90 94 93
f 90 91 95 94
f 91 92 96 95
f 92 89 93 96
v -262.811 0.841 101.768
v -261.588 0.841 85.243
v -246.589 0.841 86.352
v -247.812 0.841 102.877
v -262.811 4.741 101.768
v -261.588 4.741 85.243
v -246.589 4.741 86.352
v -247.812 4.741 102.877
f 104 103 102 101
f 97 98 102 101
f 98 99 103 102
f 99 100 104 103
f 100 97 101 104
v -233.282 0.789 74.191
v -226.132 0.789 96.965
v -242.838 0.789 102.209
v -249.988 0.789 79.435
v -233.282 4.689 74.191
v -226.132 4.689 96.965
v -242.838 4.689 102.209
v -249.988 4.689 79.435
f 112 111 110 109
f 105 106 110 109
f 106 107 111 110
f 107 108 112 111
f 108 105 109 112
v -259.166 0.982 126.371
v -237.299 0.982 132.158
v -240.594 0.982 144.609
v -262.461 0.982 138.822
v -259.166 4.882 126.371
v -237.299 4.882 132.158
v -240.594 4.882 144.609
v -262.461 4.882 138.822
f 120 119 118 117
f 113 114 118 117
f 114 115 119 118
f 115 116 120 119
f 116 113 117 120
v -254.433 1.011 144.538
v -239.026 1.011 145.936
v -240.207 1.011 158.942
v -255.614 1.011 157.544
v -254.433 4.911 144.538
v -239.026 4.911 145.936
v -240.207 4.911 158.942
v -255.614 4.911 157.544
f 128 127 126 125
f 121 122 126 125
f 122 123 127 126
f 123 124 128 127
f 124 121 125 128
v -247.661 0.813 174.592
v -247.068 0.813 162.557
v -238.319 0.813 162.988
v -238.912 0.813 175.023
v -247.661 4.713 174.592
v -247.068 4.713 162.557
v -238.319 4.713 162.988
v -238.912 4.713 175.023
f 136 135 134 133
f 129 130 134 133
f 130 131 135 134
f 131 132 136 135
f 132 129 133 136
v -199.233 0.930 124.459
v -174.624 0.930 126.201
v -175.467 0.930 138.121
v -200.076 0.930 136.379
v -199.233 4.830 124.459
v -174.624 4.830 126.201
v -175.467 4.830 138.121
v -200.076 4.830 136.379
f 144 143 142 141
f 137 138 142 141
f 138 139 143 142
f 139 140 144 143
f 140 137 141 144
v -172.217 0.786 123.868
v -152.383 0.786 125.062
v -153.063 0.786 136.352
v -172.897 0.786 135.158
v -172.217 4.686 123.868
v -152.383 4.686 125.062
v -153.063 4.686 136.352
v -172.897 4.686 135.158
f 152 151 150 149
f 145 146 150 149
f 146 147 151 150
f 147 148 152 151
f 148 145 149 152
v -193.563 1.018 140.742
v -175.560 1.018 142.297
v -176.697 1.018 155.458
v -194.700 1.018 153.903
v -193.563 4.918 140.742
v -175.560 4.918 142.297
v -176.697 4.918 155.458
v -194.700 4.918 153.903
f 160 159 158 157
f 153 154 158 157
f 154 155 159 158
f 155 156 160 159
f 156 153 157 160
v -163.655 0.999 139.875
v -147.480 0.999 136.771
v -144.365 0.999 153.005
v -160.540 0.999 156.109
v -163.655 4.899 139.875
v -147.480 4.899 136.771
v -144.365 4.899 153.005
v -160.540 4.899 156.109
f 168 167 166 165
f 161 162 166 165
f 162 163 167 166
f 163 164 168 167
f 164 161 165 168
v -251.083 0.896 172.303
v -233.230 0.896 180.512
v -240.837 0.896 197.057
v -258.690 0.896 188.848
v -251.083 4.796 172.303
v -233.230 4.796 180.512
v -240.837 4.796 197.057
v -258.690 4.796 188.848
f 176 175 174 173
f 169 170 174 173
f 170 171 175 174
f 171 172 176 175
f 172 169 173 176
v -193.465 0.868 157.777
v -177.231 0.868 158.684
v -177.975 0.868 172.003
v -194.209 0.868 171.096
v -193.465 4.768 157.777
v -177.231 4.768 158.684
v -177.975 4.768 172.003
v -194.209 4.768 171.096
f 184 183 182 181
f 177 178 182 181
f 178 179 183 182
f 179 180 184 183
f 180 177 181 184
v -193.325 0.935 82.388
v -177.947 0.935 81.785
v -177.255 0.935 99.452
v -192.633 0.935 100.055
v -193.325 4.835 82.388
v -177.947 4.835 81.785
v -177.255 4.835 99.452
v -192.633 4.835 100.055
f 192 191 190 189
f 185 186 190 189
f 186 187 191 190
f 187 188 192 191
f 188 185 189 192
v -166.410 0.868 157.089
v -143.922 0.868 153.990
v -141.750 0.868 169.751
v -164.238 0.868 172.850
v -166.410 4.768 157.089
v -143.922 4.768 153.990
v -141.750 4.768 169.751
v -164.238 4.768 172.850
f 200 199 198 197
f 193 194 198 197
f 194 195 199 198
f 195 196 200 199
f 196 193 197 200
v -174.897 0.938 98.582
v -173.250 0.938 83.894
v -160.023 0.938 85.378
v -161.670 0.938 100.066
v -174.897 4.838 98.582
v -173.250 4.838 83.894
v -160.023 4.838 85.378
v -161.670 4.838 100.066
f 208 207 206 205
f 201 202 206 205
f 202 203 207 206
f 203 204 208 207
f 204 201 205 208
v -154.698 0.939 78.810
v -137.041 0.939 83.502
v -141.422 0.939 99.990
v -159.079 0.939 95.298
v -154.698 4.839 78.810
v -137.041 4.839 83.502
v -141.422 4.839 99.990
v -159.079 4.839 95.298
f 216 215 214 213
f 209 210 214 213
f 210 211 215 214
f 211 212 216 215
f 212 209 213 216
v -189.920 0.929 172.043
v -172.432 0.929 177.467
v -176.920 0.929 191.937
v -194.408 0.929 186.513
v -189.920 4.829 172.043
v -172.432 4.829 177.467
v -176.920 4.829 191.937
v -194.408 4.829 186.513
f 224 223 222 221
f 217 218 222 221
f 218 219 223 222
f 219 220 224 223
f 220 217 221 224
v -168.838 0.902 171.809
v -146.304 0.902 172.325
v -146.622 0.902 186.171
v -169.156 0.902 185.655
v -168.838 4.802 171.809
v -146.304 4.802 172.325
v -146.622 4.802 186.171
v -169.156 4.802 185.655
f 232 231 230 229
f 225 226 230 229
f 226 227 231 230
f 227 228 232 231
f 228 225 229 232
v -116.871 0.773 79.678
v -105.361 0.773 98.098
v -121.049 0.773 107.902
v -132.559 0.773 89.482
v -116.871 4.673 79.678
v -105.361 4.673 98.098
v -121.049 4.673 107.902
v -132.559 4.673 89.482
f 240 239 238 237
f 233 234 238 237
f 234 235 239 238
f 235 236 240 239
f 236 233 237 240
v -122.066 0.912 125.903
v -116.490 0.912 110.055
v -106.594 0.912 113.537
v -112.170 0.912 129.385
v -122.066 4.812 125.903
v -116.490 4.812 110.055
v -106.594 4.812 113.537
v -112.170 4.812 129.385
f 248 247 246 245
f 241 242 246 245
f 242 243 247 246
f 243 244 248 247
f 244 241 245 248
v -83.898 0.081 76.855
v -78.316 0.081 92.020
v -94.682 0.081 98.045
v -100.264 0.081 82.880
v -83.898 3.981 76.855
v -78.316 3.981 92.020
v -94.682 3.981 98.045
v -100.264 3.981 82.880
f 256 255 254 253
f 249 250 254 253
f 250 251 255 254
f 251 252 256 255
f 252 249 253 256
v -127.797 0.858 141.328
v -114.751 0.858 125.854
v -99.903 0.858 138.372
v -112.949 0.858 153.846
v -127.797 4.758 141.328
v -114.751 4.758 125.854
v -99.903 4.758 138.372
v -112.949 4.758 153.846
f 264 263 262 261
f 257 258 262 261
f 258 259 263 262
f 259 260 264 263
f 260 257 261 264
v -128.573 1.082 152.893
v -101.405 1.082 145.038
v -95.747 1.082 164.607
v -122.915 1.082 172.462
v -128.573 4.982 152.893
v -101.405 4.982 145.038
v -95.747 4.982 164.607
v -122.915 4.982 172.462
f 272 271 270 269
f 265 266 270 269
f 266 267 271 270
f 267 268 272 271
f 268 265 269 272
v -63.766 0.859 75.923
v -62.083 0.859 92.619
v -77.534 0.859 94.177
v -79.217 0.859 77.481
v -63.766 4.759 75.923
v -62.083 4.759 92.619
v -77.534 4.759 94.177
v -79.217 4.759 77.481
f 280 279 278 277
f 273 274 278 277
f 274 275 279 278
f 275 276 280 279
f 276 273 277 280
v -113.714 0.990 164.741
v -93.024 0.990 172.044
v -98.366 0.990 187.179
v -119.056 0.990 179.876
v -113.714 4.890 164.741
v -93.024 4.890 172.044
v -98.366 4.890 187.179
v -119.056 4.890 179.876
f 288 287 286 285
f 281 282 286 285
f 282 283 287 286
f 283 284 288 287
f 284 281 285 288
v -46.814 0.967 75.208
v -45.329 0.967 91.329
v -60.346 0.967 92.712
v -61.831 0.967 76.591
v -46.814 4.867 75.208
v -45.329 4.867 91.329
v -60.346 4.867 92.712
v -61.831 4.867 76.591
f 296 295 294 293
f 289 290 294 293
f 290 291 295 294
f 291 292 296 295
f 292 289 293 296
v -84.708 1.012 171.667
v -66.740 1.012 172.300
v -67.132 1.012 183.413
v -85.100 1.012 182.780
v -84.708 4.912 171.667
v -66.740 4.912 172.300
v -67.132 4.912 183.413
v -85.100 4.912 182.780
f 304 303 302 301
f 297 298 302 301
f 298 299 303 302
f 299 300 304 303
f 300 297 301 304
v -28.729 0.904 74.023
v -27.936 0.904 90.824
v -41.771 0.904 91.477
v -42.564 0.904 74.676
v -28.729 4.804 74.023
v -27.936 4.804 90.824
v -41.771 4.804 91.477
v -42.564 4.804 74.676
f 312 311 310 309
f 305 306 310 309
f 306 307 311 310
f 307 308 312 311
f 308 305 309 312
v -81.848 0.993 151.204
v -66.822 0.993 153.688
v -68.912 0.993 166.336
v -83.938 0.993 163.852
v -81.848 4.893 151.204
v -66.822 4.893 153.688
v -68.912 4.893 166.336
v -83.938 4.893 163.852
f 320 319 318 317
f 313 314 318 317
f 314 315 319 318
f 315 316 320 319
f 316 313 317 320
v -25.982 1.268 73.968
v -10.392 1.268 74.750
v -11.118 1.268 89.232
v -26.708 1.268 88.450
v -25.982 5.168 73.968
v -10.392 5.168 74.750
v -11.118 5.168 89.232
v -26.708 5.168 88.450
f 328 327 326 325
f 321 322 326 325
f 322 323 327 326
f 323 324 328 327
f 324 321 325 328
v -80.083 0.867 146.884
v -79.342 0.867 133.946
v -69.737 0.867 134.496
v -70.478 0.867 147.434
v -80.083 4.767 146.884
v -79.342 4.767 133.946
v -69.737 4.767 134.496
v -70.478 4.767 147.434
f 336 335 334 333
f 329 330 334 333
f 330 331 335 334
f 331 332 336 335
f 332 329 333 336
v -8.345 1.171 86.575
v -5.482 1.171 69.665
v 8.105 1.171 71.965
v 5.242 1.171 88.875
v -8.345 5.071 86.575
v -5.482 5.071 69.665
v 8.105 5.071 71.965
v 5.242 5.071 88.875
f 344 343 342 341
f 337 338 342 341
f 338 339 343 342
f 339 340 344 343
f 340 337 341 344
v -84.007 0.976 114.440
v -67.627 0.976 117.310
v -69.693 0.976 129.100
v -86.073 0.976 126.230
v -84.007 4.876 114.440
v -67.627 4.876 117.310
v -69.693 4.876 129.100
v -86.073 4.876 126.230
f 352 351 350 349
f 345 346 350 349
f 346 347 351 350
f 347 348 352 351
f 348 345 349 352
v 5.958 0.973 81.576
v 15.886 0.973 70.014
v 28.662 0.973 80.984
v 18.734 0.973 92.546
v 5.958 4.873 81.576
v 15.886 4.873 70.014
v 28.662 4.873 80.984
v 18.734 4.873 92.546
f 360 359 358 357
f 353 354 358 357
f 354 355 359 358
f 355 356 360 359
f 356 353 357 360
v 28.458 1.113 84.939
v 29.356 1.113 70.386
v 41.922 1.113 71.161
v 41.024 1.113 85.714
v 28.458 5.013 84.939
v 29.356 5.013 70.386
v 41.922 5.013 71.161
v 41.024 5.013 85.714
f 368 367 366 365
f 361 362 366 365
f 362 363 367 366
f 363 364 368 367
f 364 361 365 368
v -48.003 1.132 116.673
v -30.171 1.132 115.874
v -29.417 1.132 132.707
v -47.249 1.132 133.506
v -48.003 5.032 116.673
v -30.171 5.032 115.874
v -29.417 5.032 132.707
v -47.249 5.032 133.506
f 376 375 374 373
f 369 370 374 373
f 370 371 375 374
f 371 372 376 375
f 372 369 373 376
v 54.833 1.025 68.299
v 62.932 1.025 81.807
v 48.567 1.025 90.421
v 40.468 1.025 76.913
v 54.833 4.925 68.299
v 62.932 4.925 81.807
v 48.567 4.925 90.421
v 40.468 4.925 76.913
f 384 383 382 381
f 377 378 382 381
f 378 379 383 382
f 379 380 384 383
f 380 377 381 384
v -15.373 0.925 111.004
v -9.304 0.925 128.354
v -24.747 0.925 133.756
v -30.816 0.925 116.406
v -15.373 4.825 111.004
v -9.304 4.825 128.354
v -24.747 4.825 133.756
v -30.816 4.825 116.406
f 392 391 390 389
f 385 386 390 389
f 386 387 391 390
f 387 388 392 391
f 388 385 389 392
v 68.288 1.067 56.338
v 90.145 1.067 68.097
v 79.092 1.067 88.642
v 57.235 1.067 76.883
v 68.288 4.967 56.338
v 90.145 4.967 68.097
v 79.092 4.967 88.642
v 57.235 4.967 76.883
f 400 399 398 397
f 393 394 398 397
f 394 395 399 398
f 395 396 400 399
f 396 393 397 400
v 91.996 1.026 71.147
v 109.664 1.026 72.035
v 109.164 1.026 81.993
v 91.496 1.026 81.105
v 91.996 4.926 71.147
v 109.664 4.926 72.035
v 109.164 4.926 81.993
v 91.496 4.926 81.105
f 408 407 406 405
f 401 402 406 405
f 402 403 407 406
f 403 404 408 407
f 404 401 405 408
v -10.948 0.877 130.152
v -10.001 0.877 114.029
v 7.688 0.877 115.068
v 6.741 0.877 131.191
v -10.948 4.777 130.152
v -10.001 4.777 114.029
v 7.688 4.777 115.068
v 6.741 4.777 131.191
f 416 415 414 413
f 409 410 414 413
f 410 411 415 414
f 411 412 416 415
f 412 409 413 416
v 5.142 1.275 122.742
v 19.038 1.275 104.565
v 33.418 1.275 115.558
v 19.522 1.275 133.735
v 5.142 5.175 122.742
v 19.038 5.175 104.565
v 33.418 5.175 115.558
v 19.522 5.175 133.735
f 424 423 422 421
f 417 418 422 421
f 418 419 423 422
f 419 420 424 423
f 420 417 421 424
v 118.959 1.126 60.400
v 136.219 1.126 71.065
v 126.521 1.126 86.760
v 109.261 1.126 76.095
v 118.959 5.026 60.400
v 136.219 5.026 71.065
v 126.521 5.026 86.760
v 109.261 5.026 76.095
f 432 431 430 429
f 425 426 430 429
f 426 427 431 430
f 427 428 432 431
f 428 425 429 432
v 31.803 0.999 130.802
v 33.070 0.999 112.636
v 46.857 0.999 113.598
v 45.590 0.999 131.764
v 31.803 4.899 130.802
v 33.070 4.899 112.636
v 46.857 4.899 113.598
v 45.590 4.899 131.764
f 440 439 438 437
f 433 434 438 437
f 434 435 439 438
f 435 436 440 439
f 436 433 437 440
v 145.881 1.199 56.149
v 153.821 1.199 75.882
v 135.359 1.199 83.311
v 127.419 1.199 63.578
v 145.881 5.099 56.149
v 153.821 5.099 75.882
v 135.359 5.099 83.311
v 127.419 5.099 63.578
f 448 447 446 445
f 441 442 446 445
f 442 443 447 446
f 443 444 448 447
f 444 441 445 448
v 45.459 1.017 112.116
v 63.518 1.017 106.997
v 68.141 1.017 123.304
v 50.082 1.017 128.423
v 45.459 4.917 112.116
v 63.518 4.917 106.997
v 68.141 4.917 123.304
v 50.082 4.917 128.423
f 456 455 454 453
f 449 450 454 453
f 450 451 455 454
f 451 452 456 455
f 452 449 453 456
v 66.699 1.025 112.413
v 83.129 1.025 107.783
v 86.641 1.025 120.247
v 70.211 1.025 124.877
v 66.699 4.925 112.413
v 83.129 4.925 107.783
v 86.641 4.925 120.247
v 70.211 4.925 124.877
f 464 463 462 461
f 457 458 462 461
f 458 459 463 462
f 459 460 464 463
f 460 457 461 464
v -44.063 0.921 178.529
v -43.997 0.921 159.599
v -29.217 0.921 159.651
v -29.283 0.921 178.581
v -44.063 4.821 178.529
v -43.997 4.821 159.599
v -29.217 4.821 159.651
v -29.283 4.821 178.581
f 472 471 470 469
f 465 466 470 469
f 466 467 471 470
f 467 468 472 471
f 468 465 469 472
v -27.680 0.819 175.275
v -25.444 0.819 157.173
v -12.880 0.819 158.725
v -15.116 0.819 176.827
v -27.680 4.719 175.275
v -25.444 4.719 157.173
v -12.880 4.719 158.725
v -15.116 4.719 176.827
f 480 479 478 477
f 473 474 478 477
f 474 475 479 478
f 475 476 480 479
f 476 473 477 480
v 103.335 0.886 113.446
v 105.218 0.886 128.921
v 92.125 0.886 130.514
v 90.242 0.886 115.039
v 103.335 4.786 113.446
v 105.218 4.786 128.921
v 92.125 4.786 130.514
v 90.242 4.786 115.039
f 488 487 486 485
f 481 482 486 485
f 482 483 487 486
f 483 484 488 487
f 484 481 485 488
v -14.862 0.852 163.802
v 2.335 0.852 158.350
v 7.322 0.852 174.078
v -9.875 0.852 179.530
v -14.862 4.752 163.802
v 2.335 4.752 158.350
v 7.322 4.752 174.078
v -9.875 4.752 179.530
f 496 495 494 493
f 489 490 494 493
f 490 491 495 494
f 491 492 496 495
f 492 489 493 496
v 7.904 0.980 163.021
v 21.272 0.980 163.291
v 21.056 0.980 174.019
v 7.688 0.980 173.749
v 7.904 4.880 163.021
v 21.272 4.880 163.291
v 21.056 4.880 174.019
v 7.688 4.880 173.749
f 504 503 502 501
f 497 498 502 501
f 498 499 503 502
f 499 500 504 503
f 500 497 501 504
v 127.976 0.998 96.635
v 148.238 0.998 104.401
v 142.104 0.998 120.405
v 121.842 0.998 112.639
v 127.976 4.898 96.635
v 148.238 4.898 104.401
v 142.104 4.898 120.405
v 121.842 4.898 112.639
f 512 511 510 509
f 505 506 510 509
f 506 507 511 510
f 507 508 512 511
f 508 505 509 512
v 24.600 0.955 173.383
v 24.861 0.955 154.605
v 38.620 0.955 154.797
v 38.359 0.955 173.575
v 24.600 4.855 173.383
v 24.861 4.855 154.605
v 38.620 4.855 154.797
v 38.359 4.855 173.575
f 520 519 518 517
f 513 514 518 517
f 514 515 519 518
f 515 516 520 519
f 516 513 517 520
v 128.478 1.055 121.247
v 146.281 1.055 117.054
v 150.162 1.055 133.533
v 132.359 1.055 137.726
v 128.478 4.955 121.247
v 146.281 4.955 117.054
v 150.162 4.955 133.533
v 132.359 4.955 137.726
f 528 527 526 525
f 521 522 526 525
f 522 523 527 526
f 523 524 528 527
f 524 521 525 528
v 42.437 0.968 161.716
v 55.349 0.968 162.575
v 54.723 0.968 171.984
v 41.811 0.968 171.125
v 42.437 4.868 161.716
v 55.349 4.868 162.575
v 54.723 4.868 171.984
v 41.811 4.868 171.125
f 536 535 534 533
f 529 530 534 533
f 530 531 535 534
f 531 532 536 535
f 532 529 533 536
v 124.311 0.983 155.393
v 145.078 0.983 145.936
v 152.169 0.983 161.507
v 131.402 0.983 170.964
v 124.311 4.883 155.393
v 145.078 4.883 145.936
v 152.169 4.883 161.507
v 131.402 4.883 170.964
f 544 543 542 541
f 537 538 542 541
f 538 539 543 542
f 539 540 544 543
f 540 537 541 544
v 59.641 0.903 160.056
v 73.619 0.903 160.995
v 73.019 0.903 169.924
v 59.041 0.903 168.985
v 59.641 4.803 160.056
v 73.619 4.803 160.995
v 73.019 4.803 169.924
v 59.041 4.803 168.985
f 552 551 550 549
f 545 546 550 549
f 546 547 551 550
f 547 548 552 551
f 548 545 549 552
v 112.434 0.850 193.080
v 116.405 0.850 213.151
v 96.246 0.850 217.140
v 92.275 0.850 197.069
v 112.434 4.750 193.080
v 116.405 4.750 213.151
v 96.246 4.750 217.140
v 92.275 4.750 197.069
f 560 559 558 557
f 553 554 558 557
f 554 555 559 558
f 555 556 560 559
f 556 553 557 560
v 76.917 0.951 168.266
v 77.981 0.951 152.432
v 90.203 0.951 153.254
v 89.139 0.951 169.088
v 76.917 4.851 168.266
v 77.981 4.851 152.432
v 90.203 4.851 153.254
v 89.139 4.851 169.088
f 568 567 566 565
f 561 562 566 565
f 562 563 567 566
f 563 564 568 567
f 564 561 565 568
v 77.135 0.809 210.451
v 79.640 0.809 194.214
v 94.385 0.809 196.489
v 91.880 0.809 212.726
v 77.135 4.709 210.451
v 79.640 4.709 194.214
v 94.385 4.709 196.489
v 91.880 4.709 212.726
f 576 575 574 573
f 569 570 574 573
f 570 571 575 574
f 571 572 576 575
f 572 569 573 576
v 88.838 0.919 151.184
v 105.292 0.919 145.434
v 112.002 0.919 164.636
v 95.548 0.919 170.386
v 88.838 4.819 151.184
v 105.292 4.819 145.434
v 112.002 4.819 164.636
v 95.548 4.819 170.386
f 584 583 582 581
f 577 578 582 581
f 578 579 583 582
f 579 580 584 583
f 580 577 581 584
v 60.619 0.960 214.917
v 62.393 0.960 196.291
v 76.161 0.960 197.603
v 74.387 0.960 216.229
v 60.619 4.860 214.917
v 62.393 4.860 196.291
v 76.161 4.860 197.603
v 74.387 4.860 216.229
f 592 591 590 589
f 585 586 590 589
f 586 587 591 590
f 587 588 592 591
f 588 585 589 592
v 41.173 0.624 212.686
v 45.311 0.624 193.926
v 61.307 0.624 197.454
v 57.169 0.624 216.214
v 41.173 4.524 212.686
v 45.311 4.524 193.926
v 61.307 4.524 197.454
v 57.169 4.524 216.214
f 600 599 598 597
f 593 594 598 597
f 594 595 599 598
f 595 596 600 599
f 596 593 597 600
v 97.950 0.790 244.395
v 98.862 0.790 228.371
v 112.450 0.790 229.145
v 111.538 0.790 245.169
v 97.950 4.690 244.395
v 98.862 4.690 228.371
v 112.450 4.690 229.145
v 111.538 4.690 245.169
f 608 607 606 605
f 601 602 606 605
f 602 603 607 606
f 603 604 608 607
f 604 601 605 608
v 22.305 0.852 198.080
v 25.076 0.852 225.148
v 8.155 0.852 226.880
v 5.384 0.852 199.812
v 22.305 4.752 198.080
v 25.076 4.752 225.148
v 8.155 4.752 226.880
v 5.384 4.752 199.812
f 616 615 614 613
f 609 610 614 613
f 610 611 615 614
f 611 612 616 615
f 612 609 613 616
v 61.656 0.847 245.292
v 65.189 0.847 226.603
v 79.604 0.847 229.328
v 76.071 0.847 248.017
v 61.656 4.747 245.292
v 65.189 4.747 226.603
v 79.604 4.747 229.328
v 76.071 4.747 248.017
f 624 623 622 621
f 617 618 622 621
f 618 619 623 622
f 619 620 624 623
f 620 617 621 624
v -14.119 0.924 212.549
v -2.610 0.924 194.780
v 12.599 0.924 204.631
v 1.090 0.924 222.400
v -14.119 4.824 212.549
v -2.610 4.824 194.780
v 12.599 4.824 204.631
v 1.090 4.824 222.400
f 632 631 630 629
f 625 626 630 629
f 626 627 631 630
f 627 628 632 631
f 628 625 629 632
v -15.350 0.924 199.483
v -8.093 0.924 218.752
v -22.710 0.924 224.257
v -29.967 0.924 204.988
v -15.350 4.824 199.483
v -8.093 4.824 218.752
v -22.710 4.824 224.257
v -29.967 4.824 204.988
f 640 639 638 637
f 633 634 638 637
f 634 635 639 638
f 635 636 640 639
f 636 633 637 640
v 50.079 0.959 226.741
v 64.879 0.959 238.607
v 55.121 0.959 250.779
v 40.321 0.959 238.913
v 50.079 4.859 226.741
v 64.879 4.859 238.607
v 55.121 4.859 250.779
v 40.321 4.859 238.913
f 648 647 646 645
f 641 642 646 645
f 642 643 647 646
f 643 644 648 647
f 644 641 645 648
v -42.132 0.978 219.461
v -41.382 0.978 203.288
v -26.488 0.978 203.979
v -27.238 0.978 220.152
v -42.132 4.878 219.461
v -41.382 4.878 203.288
v -26.488 4.878 203.979
v -27.238 4.878 220.152
f 656 655 654 653
f 649 650 654 653
f 650 651 655 654
f 651 652 656 655
f 652 649 653 656
v 40.855 0.951 231.256
v 46.662 0.951 251.197
v 29.265 0.951 256.264
v 23.458 0.951 236.323
v 40.855 4.851 231.256
v 46.662 4.851 251.197
v 29.265 4.851 256.264
v 23.458 4.851 236.323
f 664 663 662 661
f 657 658 662 661
f 658 659 663 662
f 659 660 664 663
f 660 657 661 664
v -23.210 0.772 250.355
v -22.057 0.772 234.267
v -9.530 0.772 235.165
v -10.683 0.772 251.253
v -23.210 4.672 250.355
v -22.057 4.672 234.267
v -9.530 4.672 235.165
v -10.683 4.672 251.253
f 672 671 670 669
f 665 666 670 669
f 666 667 671 670
f 667 668 672 671
f 668 665 669 672
v -41.403 0.866 251.055
v -37.660 0.866 230.595
v -23.397 0.866 233.205
v -27.140 0.866 253.665
v -41.403 4.766 251.055
v -37.660 4.766 230.595
v -23.397 4.766 233.205
v -27.140 4.766 253.665
f 680 679 678 677
f 673 674 678 677
f 674 675 679 678
f 675 676 680 679
f 676 673 677 680
v 11.454 0.807 236.966
v 25.977 0.807 237.852
v 25.386 0.807 247.554
v 10.863 0.807 246.668
v 11.454 4.707 236.966
v 25.977 4.707 237.852
v 25.386 4.707 247.554
v 10.863 4.707 246.668
f 688 687 686 685
f 681 682 686 685
f 682 683 687 686
f 683 684 688 687
f 684 681 685 688
v 133.871 1.048 247.544
v 157.024 1.048 238.942
v 163.509 1.048 256.396
v 140.356 1.048 264.998
v 133.871 4.948 247.544
v 157.024 4.948 238.942
v 163.509 4.948 256.396
v 140.356 4.948 264.998
f 696 695 694 693
f 689 690 694 693
f 690 691 695 694
f 691 692 696 695
f 692 689 693 696
v -84.521 1.029 199.833
v -63.219 1.029 206.222
v -66.939 1.029 218.627
v -88.241 1.029 212.238
v -84.521 4.929 199.833
v -63.219 4.929 206.222
v -66.939 4.929 218.627
v -88.241 4.929 212.238
f 704 703 702 701
f 697 698 702 701
f 698 699 703 702
f 699 700 704 703
f 700 697 701 704
v -79.336 0.892 233.324
v -76.055 0.892 219.077
v -63.124 0.892 222.056
v -66.405 0.892 236.303
v -79.336 4.792 233.324
v -76.055 4.792 219.077
v -63.124 4.792 222.056
v -66.405 4.792 236.303
f 712 711 710 709
f 705 706 710 709
f 706 707 711 710
f 707 708 712 711
f 708 705 709 712
v 143.535 0.783 218.702
v 152.619 0.783 235.299
v 138.005 0.783 243.298
v 128.921 0.783 226.701
v 143.535 4.683 218.702
v 152.619 4.683 235.299
v 138.005 4.683 243.298
v 128.921 4.683 226.701
f 720 719 718 717
f 713 714 718 717
f 714 715 719 718
f 715 716 720 719
f 716 713 717 720
v 126.685 0.823 205.208
v 147.829 0.823 203.093
v 149.655 0.823 221.352
v 128.511 0.823 223.467
v 126.685 4.723 205.208
v 147.829 4.723 203.093
v 149.655 4.723 221.352
v 128.511 4.723 223.467
f 728 727 726 725
f 721 722 726 725
f 722 723 727 726
f 723 724 728 727
f 724 721 725 728
v 129.713 0.882 186.019
v 153.768 0.882 188.276
v 152.387 0.882 203.001
v 128.332 0.882 200.744
v 129.713 4.782 186.019
v 153.768 4.782 188.276
v 152.387 4.782 203.001
v 128.332 4.782 200.744
f 736 735 734 733
f 729 730 734 733
f 730 731 735 734
f 731 732 736 735
f 732 729 733 736
v -112.310 0.768 220.524
v -92.354 0.768 224.756
v -95.510 0.768 239.636
v -115.466 0.768 235.404
v -112.310 4.668 220.524
v -92.354 4.668 224.756
v -95.510 4.668 239.636
v -115.466 4.668 235.404
f 744 743 742 741
f 737 738 742 741
f 738 739 743 742
f 739 740 744 743
f 740 737 741 744
v -114.827 0.904 243.583
v -95.400 0.904 241.488
v -93.713 0.904 257.137
v -113.140 0.904 259.232
v -114.827 4.804 243.583
v -95.400 4.804 241.488
v -93.713 4.804 257.137
v -113.140 4.804 259.232
f 752 751 750 749
f 745 746 750 749
f 746 747 751 750
f 747 748 752 751
f 748 745 749 752
v 196.849 1.017 241.589
v 216.318 1.017 241.401
v 216.471 1.017 257.271
v 197.002 1.017 257.459
v 196.849 4.917 241.589
v 216.318 4.917 241.401
v 216.471 4.917 257.271
v 197.002 4.917 257.459
f 760 759 758 757
f 753 754 758 757
f 754 755 759 758
f 755 756 760 759
f 756 753 757 760
v 198.295 0.916 232.931
v 199.824 0.916 246.384
v 187.285 0.916 247.809
v 185.756 0.916 234.356
v 198.295 4.816 232.931
v 199.824 4.816 246.384
v 187.285 4.816 247.809
v 185.756 4.816 234.356
f 768 767 766 765
f 761 762 766 765
f 762 763 767 766
f 763 764 768 767
f 764 761 765 768
v 179.484 1.070 219.381
v 185.198 1.070 242.443
v 169.716 1.070 246.279
v 164.002 1.070 223.217
v 179.484 4.970 219.381
v 185.198 4.970 242.443
v 169.716 4.970 246.279
v 164.002 4.970 223.217
f 776 775 774 773
f 769 770 774 773
f 770 771 775 774
f 771 772 776 775
f 772 769 773 776
v 174.498 0.807 186.402
v 181.028 0.807 199.236
v 166.402 0.807 206.678
v 159.872 0.807 193.844
v 174.498 4.707 186.402
v 181.028 4.707 199.236
v 166.402 4.707 206.678
v 159.872 4.707 193.844
f 784 783 782 781
f 777 778 782 781
f 778 779 783 782
f 779 780 784 783
f 780 777 781 784
v 193.274 0.894 190.921
v 197.224 0.894 209.312
v 181.826 0.894 212.619
v 177.876 0.894 194.228
v 193.274 4.794 190.921
v 197.224 4.794 209.312
v 181.826 4.794 212.619
v 177.876 4.794 194.228
f 792 791 790 789
f 785 786 790 789
f 786 787 791 790
f 787 788 792 791
f 788 785 789 792
v 214.126 0.786 196.351
v 214.430 0.786 210.317
v 197.314 0.786 210.689
v 197.010 0.786 196.723
v 214.126 4.686 196.351
v 214.430 4.686 210.317
v 197.314 4.686 210.689
v 197.010 4.686 196.723
f 800 799 798 797
f 793 794 798 797
f 794 795 799 798
f 795 796 800 799
f 796 793 797 800
v -163.710 1.011 206.206
v -140.498 1.011 210.412
v -142.810 1.011 223.174
v -166.022 1.011 218.968
v -163.710 4.911 206.206
v -140.498 4.911 210.412
v -142.810 4.911 223.174
v -166.022 4.911 218.968
f 808 807 806 805
f 801 802 806 805
f 802 803 807 806
f 803 804 808 807
f 804 801 805 808
v -162.458 0.994 225.248
v -144.345 0.994 223.468
v -142.802 0.994 239.172
v -160.915 0.994 240.952
v -162.458 4.894 225.248
v -144.345 4.894 223.468
v -142.802 4.894 239.172
v -160.915 4.894 240.952
f 816 815 814 813
f 809 810 814 813
f 810 811 815 814
f 811 812 816 815
f 812 809 813 816
v 220.563 0.901 202.320
v 229.989 0.901 219.960
v 219.997 0.901 225.300
v 210.571 0.901 207.660
v 220.563 4.801 202.320
v 229.989 4.801 219.960
v 219.997 4.801 225.300
v 210.571 4.801 207.660
f 824 823 822 821
f 817 818 822 821
f 818 819 823 822
f 819 820 824 823
f 820 817 821 824
v -155.050 0.936 242.256
v -139.348 0.936 243.001
v -140.030 0.936 257.364
v -155.732 0.936 256.619
v -155.050 4.836 242.256
v -139.348 4.836 243.001
v -140.030 4.836 257.364
v -155.732 4.836 256.619
f 832 831 830 829
f 825 826 830 829
f 826 827 831 830
f 827 828 832 831
f 828 825 829 832
v 236.504 0.836 212.581
v 246.242 0.836 229.209
v 233.316 0.836 236.779
v 223.578 0.836 220.151
v 236.504 4.736 212.581
v 246.242 4.736 229.209
v 233.316 4.736 236.779
v 223.578 4.736 220.151
f 840 839 838 837
f 833 834 838 837
f 834 835 839 838
f 835 836 840 839
f 836 833 837 840
v 238.145 0.695 230.360
v 256.142 0.695 227.156
v 258.695 0.695 241.500
v 240.698 0.695 244.704
v 238.145 4.595 230.360
v 256.142 4.595 227.156
v 258.695 4.595 241.500
v 240.698 4.595 244.704
f 848 847 846 845
f 841 842 846 845
f 842 843 847 846
f 843 844 848 847
f 844 841 845 848
v -176.703 1.157 209.864
v -176.279 1.157 234.510
v -189.397 1.157 234.736
v -189.821 1.157 210.090
v -176.703 5.057 209.864
v -176.279 5.057 234.510
v -189.397 5.057 234.736
v -189.821 5.057 210.090
f 856 855 854 853
f 849 850 854 853
f 850 851 855 854
f 851 852 856 855
f 852 849 853 856
v -177.199 1.493 231.363
v -168.353 1.493 253.716
v -184.681 1.493 260.177
v -193.527 1.493 237.824
v -177.199 5.393 231.363
v -168.353 5.393 253.716
v -184.681 5.393 260.177
v -193.527 5.393 237.824
f 864 863 862 861
f 857 858 862 861
f 858 859 863 862
f 859 860 864 863
f 860 857 861 864
v -256.229 1.009 220.263
v -235.583 1.009 207.090
v -226.251 1.009 221.717
v -246.897 1.009 234.890
v -256.229 4.909 220.263
v -235.583 4.909 207.090
v -226.251 4.909 221.717
v -246.897 4.909 234.890
f 872 871 870 869
f 865 866 870 869
f 866 867 871 870
f 867 868 872 871
f 868 865 869 872
v -245.569 1.051 230.943
v -231.640 1.051 231.498
v -232.191 1.051 245.357
v -246.120 1.051 244.802
v -245.569 4.951 230.943
v -231.640 4.951 231.498
v -232.191 4.951 245.357
v -246.120 4.951 244.802
f 880 879 878 877
f 873 874 878 877
f 874 875 879 878
f 875 876 880 879
f 876 873 877 880
v -246.119 1.118 247.961
v -229.778 1.118 249.221
v -230.881 1.118 263.519
v -247.222 1.118 262.259
v -246.119 5.018 247.961
v -229.778 5.018 249.221
v -230.881 5.018 263.519
v -247.222 5.018 262.259
f 888 887 886 885
f 881 882 886 885
f 882 883 887 886
f 883 884 888 887
f 884 881 885 888
v 230.389 0.935 73.214
v 237.063 0.935 63.085
v 243.651 0.935 67.426
v 236.977 0.935 77.555
v 230.389 4.835 73.214
v 237.063 4.835 63.085
v 243.651 4.835 67.426
v 236.977 4.835 77.555
f 896 895 894 893
f 889 890 894 893
f 890 891 895 894
f 891 892 896 895
f 892 889 893 896
v 202.360 0.950 54.047
v 212.872 0.950 59.710
v 208.840 0.950 67.193
v 198.328 0.950 61.530
v 202.360 4.850 54.047
v 212.872 4.850 59.710
v 208.840 4.850 67.193
v 198.328 4.850 61.530
f 904 903 902 901
f 897 898 902 901
f 898 899 903 902
f 899 900 904 903
f 900 897 901 904
v 235.513 0.528 246.399
v 240.073 0.528 243.432
v 243.007 0.528 247.941
v 238.447 0.528 250.908
v 235.513 4.428 246.399
v 240.073 4.428 243.432
v 243.007 4.428 247.941
v 238.447 4.428 250.908
f 912 911 910 909
f 905 906 910 909
f 906 907 911 910
f 907 908 912 911
f 908 905 909 912
v 158.533 0.870 239.044
v 159.313 0.870 228.813
v 164.867 0.870 229.236
v 164.087 0.870 239.467
v 158.533 4.770 239.044
v 159.313 4.770 228.813
v 164.867 4.770 229.236
v 164.087 4.770 239.467
f 920 919 918 917
f 913 914 918 917
f 914 915 919 918
f 915 916 920 919
f 916 913 917 920
v 206.169 0.776 215.226
v 208.721 0.776 222.129
v 203.731 0.776 223.974
v 201.179 0.776 217.071
v 206.169 4.676 215.226
v 208.721 4.676 222.129
v 203.731 4.676 223.974
v 201.179 4.676 217.071
f 928 927 926 925
f 921 922 926 925
f 922 923 927 926
f 923 924 928 927
f 924 921 925 928
v 205.820 0.831 212.729
v 209.424 0.831 211.063
v 210.980 0.831 214.431
v 207.376 0.831 216.097
v 205.820 4.731 212.729
v 209.424 4.731 211.063
v 210.980 4.731 214.431
v 207.376 4.731 216.097
f 936 935 934 933
f 929 930 934 933
f 930 931 935 934
f 931 932 936 935
f 932 929 933 936
v 185.100 0.829 226.029
v 188.786 0.829 225.290
v 189.480 0.829 228.751
v 185.794 0.829 229.490
v 185.100 4.729 226.029
v 188.786 4.729 225.290
v 189.480 4.729 228.751
v 185.794 4.729 229.490
f 944 943 942 941
f 937 938 942 941
f 938 939 943 942
f 939 940 944 943
f 940 937 941 944
v 155.085 0.813 199.923
v 162.520 0.813 200.179
v 162.375 0.813 204.397
v 154.940 0.813 204.141
v 155.085 4.713 199.923
v 162.520 4.713 200.179
v 162.375 4.713 204.397
v 154.940 4.713 204.141
f 952 951 950 949
f 945 946 950 949
f 946 947 951 950
f 947 948 952 951
f 948 945 949 952
v -93.406 0.659 237.568
v -92.989 0.659 232.535
v -88.674 0.659 232.892
v -89.091 0.659 237.925
v -93.406 4.559 237.568
v -92.989 4.559 232.535
v -88.674 4.559 232.892
v -89.091 4.559 237.925
f 960 959 958 957
f 953 954 958 957
f 954 955 959 958
f 955 956 960 959
f 956 953 957 960
v -88.101 0.833 247.028
v -87.764 0.833 240.367
v -83.319 0.833 240.592
v -83.656 0.833 247.253
v -88.101 4.733 247.028
v -87.764 4.733 240.367
v -83.319 4.733 240.592
v -83.656 4.733 247.253
f 968 967 966 965
f 961 962 966 965
f 962 963 967 966
f 963 964 968 967
f 964 961 965 968
v -74.346 0.909 218.087
v -74.065 0.909 214.378
v -70.694 0.909 214.633
v -70.975 0.909 218.342
v -74.346 4.809 218.087
v -74.065 4.809 214.378
v -70.694 4.809 214.633
v -70.975 4.809 218.342
f 976 975 974 973
f 969 970 974 973
f 970 971 975 974
f 971 972 976 975
f 972 969 973 976
v -167.639 0.958 223.567
v -165.615 0.958 232.316
v -172.601 0.958 233.933
v -174.625 0.958 225.184
v -167.639 4.858 223.567
v -165.615 4.858 232.316
v -172.601 4.858 233.933
v -174.625 4.858 225.184
f 984 983 982 981
f 977 978 982 981
f 978 979 983 982
f 979 980 984 983
f 980 977 981 984
v -173.379 1.020 233.872
v -168.910 1.020 233.958
v -168.981 1.020 237.628
v -173.450 1.020 237.542
v -173.379 4.920 233.872
v -168.910 4.920 233.958
v -168.981 4.920 237.628
v -173.450 4.920 237.542
f 992 991 990 989
f 985 986 990 989
f 986 987 991 990
f 987 988 992 991
f 988 985 989 992
v -84.208 0.955 142.083
v -84.050 0.955 137.316
v -81.012 0.955 137.417
v -81.170 0.955 142.184
v -84.208 4.855 142.083
v -84.050 4.855 137.316
v -81.012 4.855 137.417
v -81.170 4.855 142.184
f 1000 999 998 997
f 993 994 998 997
f 994 995 999 998
f 995 996 1000 999
f 996 993 997 1000
v -77.392 0.909 217.792
v -76.822 0.909 215.358
v -74.388 0.909 215.928
v -74.958 0.909 218.362
v -77.392 4.809 217.792
v -76.822 4.809 215.358
v -74.388 4.809 215.928
v -74.958 4.809 218.362
f 1008 1007 1006 1005
f 1001 1002 1006 1005
f 1002 1003 1007 1006
f 1003 1004 1008 1007
f 1004 1001 1005 1008
v -95.445 0.853 220.270
v -95.249 0.853 217.437
v -92.755 0.853 217.610
v -92.951 0.853 220.443
v -95.445 4.753 220.270
v -95.249 4.753 217.437
v -92.755 4.753 217.610
v -92.951 4.753 220.443
f 1016 1015 1014 1013
f 1009 1010 1014 1013
f 1010 1011 1015 1014
f 1011 1012 1016 1015
f 1012 1009 1013 1016
v -234.966 0.703 190.036
v -234.460 0.703 184.198
v -230.694 0.703 184.524
v -231.200 0.703 190.362
v -234.966 4.603 190.036
v -234.460 4.603 184.198
v -230.694 4.603 184.524
v -231.200 4.603 190.362
f 1024 1023 1022 1021
f 1017 1018 1022 1021
f 1018 1019 1023 1022
f 1019 1020 1024 1023
f 1020 1017 1021 1024
v 196.629 0.738 68.275
v 210.033 0.738 67.040
v 211.231 0.738 80.045
v 197.827 0.738 81.280
v 196.629 4.638 68.275
v 210.033 4.638 67.040
v 211.231 4.638 80.045
v 197.827 4.638 81.280
f 1032 1031 1030 1029
f 1025 1026 1030 1029
f 1026 1027 1031 1030
f 1027 1028 1032 1031
f 1028 1025 1029 1032
usemtl road
v -94.338 1.123 111.924
v -76.888 0.933 110.864
v -77.252 1.074 104.876
v -94.702 1.002 105.936
f 1033 1034 1035 1036
v -76.887 0.933 110.864
v -59.377 0.938 109.794
v -59.743 1.050 103.806
v -77.253 1.074 104.876
f 1037 1038 1039 1040
v -59.373 0.938 109.794
v -57.293 0.946 109.664
v -57.667 1.047 103.676
v -59.747 1.050 103.806
f 1041 1042 1043 1044
v -57.295 0.946 109.664
v -41.915 0.950 108.714
v -42.285 1.059 102.726
v -57.665 1.047 103.676
f 1045 1046 1047 1048
v -41.919 0.950 108.715
v -28.519 0.968 107.905
v -28.881 1.039 101.915
v -42.281 1.059 102.725
f 1049 1050 1051 1052
v -28.568 0.968 107.907
v -25.168 0.993 107.757
v -25.432 1.039 101.763
v -28.832 1.039 101.913
f 1053 1054 1055 1056
v -25.102 0.994 107.753
v -10.552 0.998 106.793
v -10.948 1.096 100.807
v -25.498 1.039 101.767
f 1057 1058 1059 1060
v -10.572 0.998 106.795
v -6.532 1.024 106.555
v -6.888 1.106 100.565
v -10.928 1.096 100.805
f 1061 1062 1063 1064
v -6.527 1.024 106.554
v 11.443 1.038 105.454
v 11.077 1.083 99.466
v -6.893 1.106 100.566
f 1065 1066 1067 1068
v 11.443 1.038 105.454
v 30.263 1.076 104.304
v 29.897 1.158 98.316
v 11.077 1.083 99.466
f 1069 1070 1071 1072
v 30.264 1.076 104.304
v 49.154 1.032 103.144
v 48.786 1.150 97.156
v 29.896 1.158 98.316
f 1073 1074 1075 1076
v 49.152 1.032 103.144
v 65.802 1.049 102.134
v 65.438 1.125 96.146
v 48.788 1.150 97.156
f 1077 1078 1079 1080
v 65.813 1.049 102.134
v 69.223 1.043 101.914
v 68.837 1.125 95.926
v 65.427 1.125 96.146
f 1081 1082 1083 1084
v 69.211 1.043 101.915
v 87.371 1.064 100.815
v 87.009 1.131 94.825
v 68.849 1.125 95.925
f 1085 1086 1087 1088
v 87.374 1.063 100.814
v 96.154 1.021 100.274
v 95.786 1.142 94.286
v 87.006 1.131 94.826
f 1089 1090 1091 1092
v 96.154 1.021 100.274
v 114.424 1.161 99.154
v 114.056 1.207 93.166
v 95.786 1.142 94.286
f 1093 1094 1095 1096
v 114.422 1.161 99.154
v 116.722 1.157 99.014
v 116.358 1.215 93.026
v 114.058 1.207 93.166
f 1097 1098 1099 1100
v 116.722 1.157 99.014
v 128.382 1.071 98.304
v 128.018 1.131 92.316
v 116.358 1.215 93.026
f 1101 1102 1103 1104
v 128.385 1.071 98.304
v 135.035 1.085 97.894
v 134.665 1.158 91.906
v 128.015 1.131 92.316
f 1105 1106 1107 1108
v 135.032 1.085 97.894
v 148.522 1.030 97.074
v 148.158 1.097 91.086
v 134.668 1.158 91.906
f 1109 1110 1111 1112
v -45.619 0.788 255.822
v -49.395 1.069 192.242
v -55.385 1.069 192.598
v -51.609 0.799 256.178
f 1113 1114 1115 1116
v -49.395 1.069 192.241
v -51.145 1.003 162.891
v -57.135 1.115 163.249
v -55.385 1.069 192.599
f 1117 1118 1119 1120
v -51.145 1.003 162.895
v -51.855 0.996 150.745
v -57.845 1.072 151.095
v -57.135 1.115 163.245
f 1121 1122 1123 1124
v -51.856 0.996 150.737
v -52.026 0.993 147.957
v -58.014 1.075 148.323
v -57.844 1.072 151.103
f 1125 1126 1127 1128
v -52.025 0.992 147.965
v -52.595 1.026 138.235
v -58.585 1.089 138.585
v -58.015 1.075 148.315
f 1129 1130 1131 1132
v -52.595 1.026 138.230
v -52.945 0.990 132.400
v -58.935 1.080 132.760
v -58.585 1.089 138.590
f 1133 1134 1135 1136
v -52.945 0.990 132.402
v -54.485 1.038 106.492
v -60.475 1.028 106.848
v -58.935 1.080 132.758
f 1137 1138 1139 1140
v 126.450 0.781 255.828
v 124.755 0.770 226.328
v 118.765 0.815 226.672
v 120.460 0.787 256.172
f 1141 1142 1143 1144
v 124.755 0.770 226.327
v 122.685 0.802 190.437
v 116.695 0.817 190.783
v 118.765 0.815 226.673
f 1145 1146 1147 1148
v 122.685 0.802 190.436
v 122.165 0.912 181.466
v 116.175 0.942 181.814
v 116.695 0.817 190.784
f 1149 1150 1151 1152
v 116.570 1.121 136.543
v 108.880 1.033 136.983
v 109.080 1.020 140.477
v 116.770 1.118 140.037
f 1153 1154 1155 1156
v 108.880 1.033 136.983
v -55.120 1.082 146.393
v -54.920 1.080 149.887
v 109.080 1.020 140.477
f 1157 1158 1159 1160
v 118.951 0.932 178.147
v 107.611 0.974 178.857
v 108.049 0.811 185.843
v 119.389 0.847 185.133
f 1161 1162 1163 1164
v 107.609 0.974 178.857
v 77.749 1.047 180.747
v 78.191 0.873 187.733
v 108.051 0.811 185.843
f 1165 1166 1167 1168
v 77.750 1.047 180.747
v 60.250 1.048 181.847
v 60.690 0.896 188.833
v 78.190 0.873 187.733
f 1169 1170 1171 1172
v 60.251 1.048 181.847
v 42.221 1.052 182.977
v 42.659 0.903 189.963
v 60.689 0.896 188.833
f 1173 1174 1175 1176
v 42.222 1.052 182.977
v 26.342 1.079 183.967
v 26.778 0.930 190.953
v 42.658 0.903 189.963
f 1177 1178 1179 1180
v 26.340 1.079 183.967
v 7.330 1.108 185.167
v 7.770 0.958 192.153
v 26.780 0.930 190.953
f 1181 1182 1183 1184
v 7.331 1.108 185.167
v -8.959 1.101 186.187
v -8.521 0.954 193.173
v 7.769 0.958 192.153
f 1185 1186 1187 1188
v -8.959 1.101 186.187
v -25.879 1.095 187.247
v -25.441 0.936 194.233
v -8.521 0.954 193.173
f 1189 1190 1191 1192
v -25.880 1.095 187.247
v -52.610 1.109 188.927
v -52.170 0.905 195.913
v -25.440 0.936 194.233
f 1193 1194 1195 1196
v -52.633 1.109 188.928
v -80.483 1.140 190.868
v -79.997 1.011 197.852
v -52.147 0.904 195.912
f 1197 1198 1199 1200
v -80.484 1.140 190.869
v -112.134 1.107 193.079
v -111.646 1.029 200.061
v -79.996 1.011 197.851
f 1201 1202 1203 1204
v -112.134 1.107 193.079
v -115.704 1.067 193.329
v -115.216 0.981 200.311
v -111.646 1.029 200.061
f 1205 1206 1207 1208
v -115.682 1.067 193.327
v -129.502 1.025 194.207
v -129.058 0.945 201.193
v -115.238 0.980 200.313
f 1209 1210 1211 1212
v -129.505 1.025 194.207
v -189.045 1.064 198.047
v -188.595 0.996 205.033
v -129.055 0.945 201.193
f 1213 1214 1215 1216
v -189.045 1.064 198.047
v -201.305 1.083 198.837
v -200.855 1.019 205.823
v -188.595 0.996 205.033
f 1217 1218 1219 1220
v -201.305 1.083 198.837
v -224.085 1.089 200.307
v -223.635 1.077 207.293
v -200.855 1.019 205.823
f 1221 1222 1223 1224
v -224.086 1.089 200.307
v -250.026 1.036 201.987
v -249.574 0.987 208.973
v -223.634 1.077 207.293
f 1225 1226 1227 1228
v 122.165 0.912 181.467
v 119.665 1.039 138.117
v 113.675 1.116 138.463
v 116.175 0.942 181.813
f 1229 1230 1231 1232
v 119.665 1.039 138.120
v 119.385 1.048 133.200
v 113.395 1.132 133.540
v 113.675 1.116 138.460
f 1233 1234 1235 1236
v 119.385 1.048 133.195
v 118.705 1.117 121.565
v 112.715 1.181 121.915
v 113.395 1.132 133.545
f 1237 1238 1239 1240
v 118.705 1.117 121.568
v 117.235 1.205 95.988
v 111.245 1.186 96.332
v 112.715 1.181 121.912
f 1241 1242 1243 1244
v -126.288 1.026 197.487
v -130.768 0.973 134.427
v -136.752 0.991 134.853
v -132.272 1.014 197.913
f 1245 1246 1247 1248
v -130.767 0.973 134.432
v -130.917 0.975 132.272
v -136.903 0.985 132.688
v -136.753 0.991 134.848
f 1249 1250 1251 1252
v -131.060 0.976 131.542
v -133.970 0.965 122.702
v -139.670 0.977 124.578
v -136.760 0.988 133.418
f 1253 1254 1255 1256
v -134.597 0.966 121.625
v -135.757 0.969 120.345
v -140.203 0.971 124.375
v -139.043 0.980 125.655
f 1257 1258 1259 1260
v -135.772 0.969 120.330
v -139.652 0.966 116.110
v -144.068 0.947 120.170
v -140.188 0.971 124.390
f 1261 1262 1263 1264
v -140.307 0.966 115.573
v -143.117 0.956 113.873
v -146.223 0.960 119.007
v -143.413 0.944 120.707
f 1265 1266 1267 1268
v -143.124 0.956 113.869
v -146.634 0.953 111.759
v -149.726 0.946 116.901
v -146.216 0.960 119.011
f 1269 1270 1271 1272
v -147.793 0.953 111.355
v -154.553 0.942 110.475
v -155.327 0.975 116.425
v -148.567 0.951 117.305
f 1273 1274 1275 1276
v -155.060 0.941 110.452
v -159.560 0.930 110.632
v -159.320 0.970 116.628
v -154.820 0.973 116.448
f 1277 1278 1279 1280
v -159.568 0.930 110.633
v -170.108 0.921 111.083
v -169.852 0.943 117.077
v -159.312 0.970 116.627
f 1281 1282 1283 1284
v -170.100 0.921 111.082
v -173.340 0.923 111.212
v -173.100 0.927 117.208
v -169.860 0.943 117.078
f 1285 1286 1287 1288
v -173.346 0.923 111.213
v -196.926 0.921 112.203
v -196.674 0.937 118.197
v -173.094 0.927 117.207
f 1289 1290 1291 1292
v -196.927 0.921 112.203
v -206.347 0.899 112.603
v -206.093 0.874 118.597
v -196.673 0.937 118.197
f 1293 1294 1295 1296
v -206.423 0.899 112.607
v -218.983 0.875 113.457
v -218.577 0.919 119.443
v -206.017 0.875 118.593
f 1297 1298 1299 1300
v -195.001 1.114 255.830
v -195.995 1.118 239.740
v -201.485 0.925 240.080
v -200.491 0.951 256.170
f 1301 1302 1303 1304
v -195.995 1.118 239.739
v -197.645 1.108 213.219
v -203.135 0.995 213.561
v -201.485 0.925 240.081
f 1305 1306 1307 1308
v -197.645 1.108 213.220
v -197.925 1.064 208.710
v -203.415 1.002 209.050
v -203.135 0.995 213.560
f 1309 1310 1311 1312
v -197.925 1.064 208.708
v -198.335 1.090 202.158
v -203.825 1.102 202.502
v -203.415 1.002 209.052
f 1313 1314 1315 1316
v -198.335 1.090 202.167
v -198.805 1.027 194.247
v -204.295 1.029 194.573
v -203.825 1.102 202.493
f 1317 1318 1319 1320
v -198.805 1.027 194.247
v -200.055 1.057 173.177
v -205.545 0.934 173.503
v -204.295 1.029 194.573
f 1321 1322 1323 1324
v -200.055 1.057 173.177
v -203.035 0.933 122.997
v -208.525 0.886 123.323
v -205.545 0.934 173.503
f 1325 1326 1327 1328
v -203.035 0.933 123.000
v -203.475 0.901 115.440
v -208.965 0.883 115.760
v -208.525 0.886 123.320
f 1329 1330 1331 1332
v -232.104 0.892 117.306
v -231.614 0.862 124.936
v -226.126 0.899 124.584
v -226.616 0.890 116.954
f 1333 1334 1335 1336
v -231.615 0.862 124.933
v -229.275 0.925 162.013
v -223.785 0.983 161.667
v -226.125 0.900 124.587
f 1337 1338 1339 1340
v -229.274 0.925 162.015
v -227.114 1.023 195.865
v -221.626 1.019 195.515
v -223.786 0.983 161.665
f 1341 1342 1343 1344
v -227.115 1.023 195.863
v -226.605 1.105 203.973
v -221.115 1.113 203.627
v -221.625 1.019 195.517
f 1345 1346 1347 1348
v -226.604 1.105 203.983
v -226.434 1.083 206.533
v -220.946 1.079 206.167
v -221.116 1.113 203.617
f 1349 1350 1351 1352
v -226.434 1.083 206.527
v -226.194 1.060 210.247
v -220.706 1.031 209.893
v -220.946 1.079 206.173
f 1353 1354 1355 1356
v -226.194 1.060 210.250
v -224.114 0.945 241.940
v -218.626 0.929 241.580
v -220.706 1.031 209.890
f 1357 1358 1359 1360
v -224.114 0.945 241.941
v -223.175 0.950 256.181
v -217.687 0.909 255.819
v -218.626 0.929 241.579
f 1361 1362 1363 1364
v -218.972 0.875 113.456
v -229.552 0.885 114.136
v -229.168 0.886 120.124
v -218.588 0.919 119.444
f 1365 1366 1367 1368
v -229.550 0.885 114.136
v -256.190 0.969 115.830
v -255.810 0.998 121.818
v -229.170 0.886 120.124
f 1369 1370 1371 1372
v -215.785 0.892 116.277
v -218.925 0.886 61.947
v -224.915 0.908 62.293
v -221.775 0.897 116.623
f 1373 1374 1375 1376
v -218.926 0.886 61.930
v -220.386 0.852 38.920
v -226.374 0.892 39.300
v -224.914 0.908 62.310
f 1377 1378 1379 1380
v -220.387 0.851 38.906
v -220.697 0.852 34.366
v -226.683 0.887 34.774
v -226.373 0.892 39.314
f 1381 1382 1383 1384
v -220.694 0.852 34.418
v -221.324 0.799 22.028
v -227.316 0.850 22.332
v -226.686 0.887 34.722
f 1385 1386 1387 1388
v -221.325 0.799 22.014
v -222.015 0.853 9.594
v -228.005 0.892 9.926
v -227.315 0.850 22.346
f 1389 1390 1391 1392
v -222.027 0.853 9.441
v -223.157 1.112 -1.109
v -229.123 1.122 -0.471
v -227.993 0.891 10.079
f 1393 1394 1395 1396
v -92.788 1.019 108.678
v -93.968 0.965 100.568
v -97.432 1.000 101.072
v -96.252 1.054 109.182
f 1397 1398 1399 1400
v -93.952 0.944 100.913
v -93.582 1.011 93.943
v -97.078 0.966 93.757
v -97.448 1.007 100.727
f 1401 1402 1403 1404
v -75.321 1.027 107.810
v -75.611 0.983 99.290
v -79.109 0.981 99.410
v -78.819 1.028 107.930
f 1405 1406 1407 1408
v -75.614 0.982 99.234
v -76.584 1.238 84.674
v -80.076 0.962 84.906
v -79.106 0.982 99.466
f 1409 1410 1411 1412
v -57.813 1.028 106.704
v -58.333 1.016 97.254
v -61.827 0.997 97.446
v -61.307 1.029 106.896
f 1413 1414 1415 1416
v -58.339 1.020 97.171
v -59.739 1.280 83.551
v -63.221 1.228 83.909
v -61.821 0.994 97.529
f 1417 1418 1419 1420
v -44.898 1.233 82.760
v -43.848 1.038 105.800
v -40.352 1.033 105.640
v -41.402 1.369 82.600
f 1421 1422 1423 1424
v -28.536 1.255 82.175
v -27.046 1.023 104.875
v -23.554 1.023 104.645
v -25.044 1.362 81.945
f 1425 1426 1427 1428
v -9.708 1.444 79.922
v -8.458 1.079 103.652
v -4.962 1.088 103.468
v -6.212 1.468 79.738
f 1429 1430 1431 1432
v 25.453 1.102 91.074
v 24.613 1.147 89.824
v 21.707 1.066 91.776
v 22.547 1.036 93.026
f 1433 1434 1435 1436
v 24.289 1.154 89.463
v 23.839 1.159 89.083
v 21.581 1.068 91.757
v 22.031 1.056 92.137
f 1437 1438 1439 1440
v 23.560 1.162 88.890
v 22.840 1.171 88.490
v 21.140 1.077 91.550
v 21.860 1.061 91.950
f 1441 1442 1443 1444
v 22.679 1.173 88.411
v 21.839 1.178 88.051
v 20.461 1.093 91.269
v 21.301 1.073 91.629
f 1445 1446 1447 1448
v 21.793 1.178 88.033
v 20.503 1.184 87.523
v 19.217 1.122 90.777
v 20.507 1.092 91.287
f 1449 1450 1451 1452
v 20.189 1.183 87.431
v 18.829 1.169 87.171
v 18.171 1.128 90.609
v 19.531 1.117 90.869
f 1453 1454 1455 1456
v 18.384 1.167 87.144
v 17.934 1.163 87.174
v 18.166 1.128 90.666
v 18.616 1.127 90.636
f 1457 1458 1459 1460
v 17.788 1.162 87.190
v 17.128 1.157 87.290
v 17.652 1.130 90.750
v 18.312 1.128 90.650
f 1461 1462 1463 1464
v 16.214 1.159 87.724
v 15.344 1.153 88.514
v 17.696 1.125 91.106
v 18.566 1.127 90.316
f 1465 1466 1467 1468
v 18.027 1.134 88.920
v 17.637 1.146 88.260
v 14.623 1.141 90.040
v 15.013 1.132 90.700
f 1469 1470 1471 1472
v 15.694 1.168 87.455
v 14.334 1.184 87.805
v 15.206 1.122 91.195
v 16.566 1.131 90.845
f 1473 1474 1475 1476
v 14.317 1.185 87.810
v 13.757 1.194 87.960
v 14.663 1.119 91.340
v 15.223 1.122 91.190
f 1477 1478 1479 1480
v 13.202 1.197 88.219
v 12.492 1.181 88.719
v 14.508 1.111 91.581
v 15.218 1.126 91.081
f 1481 1482 1483 1484
v 11.994 1.166 89.259
v 11.704 1.156 89.749
v 14.716 1.112 91.531
v 15.006 1.128 91.041
f 1485 1486 1487 1488
v 11.735 1.157 89.699
v 11.365 1.144 90.279
v 14.315 1.090 92.161
v 14.685 1.110 91.581
f 1489 1490 1491 1492
v 11.375 1.145 90.262
v 11.035 1.133 90.782
v 13.965 1.071 92.698
v 14.305 1.089 92.178
f 1493 1494 1495 1496
v 10.792 1.121 91.360
v 10.732 1.113 91.630
v 14.148 1.082 92.390
v 14.208 1.092 92.120
f 1497 1498 1499 1500
v 10.776 1.118 91.468
v 10.636 1.105 91.898
v 13.964 1.060 92.982
v 14.104 1.076 92.552
f 1501 1502 1503 1504
v 10.560 1.092 92.257
v 10.520 1.078 92.637
v 14.000 1.059 93.003
v 14.040 1.073 92.623
f 1505 1506 1507 1508
v 10.519 1.078 92.639
v 9.519 1.076 102.279
v 13.001 1.081 102.641
v 14.001 1.059 93.001
f 1509 1510 1511 1512
v 88.784 1.108 97.098
v 84.324 1.098 87.248
v 81.136 1.053 88.692
v 85.596 1.077 98.542
f 1513 1514 1515 1516
v 83.850 1.126 86.626
v 83.130 1.156 86.026
v 80.890 1.054 88.714
v 81.610 1.044 89.314
f 1517 1518 1519 1520
v 83.121 1.157 86.018
v 82.221 1.201 85.278
v 79.999 1.096 87.982
v 80.899 1.054 88.722
f 1521 1522 1523 1524
v 81.973 1.212 85.108
v 80.703 1.251 84.388
v 78.977 1.136 87.432
v 80.247 1.085 88.152
f 1525 1526 1527 1528
v 80.487 1.257 84.284
v 79.407 1.287 83.854
v 78.113 1.165 87.106
v 79.193 1.128 87.536
f 1529 1530 1531 1532
v 79.371 1.288 83.840
v 77.251 1.328 83.050
v 76.029 1.224 86.330
v 78.149 1.164 87.120
f 1533 1534 1535 1536
v 77.055 1.331 82.990
v 75.295 1.350 82.560
v 74.465 1.253 85.960
v 76.225 1.220 86.390
f 1537 1538 1539 1540
v 75.422 1.348 82.596
v 74.102 1.372 82.166
v 73.018 1.278 85.494
v 74.338 1.255 85.924
f 1541 1542 1543 1544
v 73.301 1.377 82.099
v 71.361 1.362 82.389
v 71.879 1.266 85.851
v 73.819 1.269 85.561
f 1545 1546 1547 1548
v 71.247 1.361 82.410
v 69.917 1.346 82.700
v 70.663 1.250 86.120
v 71.993 1.267 85.830
f 1549 1550 1551 1552
v 69.657 1.342 82.779
v 67.957 1.347 83.439
v 69.223 1.224 86.701
v 70.923 1.253 86.041
f 1553 1554 1555 1556
v 67.262 1.336 83.930
v 66.292 1.287 85.060
v 68.948 1.192 87.340
v 69.918 1.242 86.210
f 1557 1558 1559 1560
v 65.983 1.262 85.582
v 64.873 1.079 88.522
v 68.147 1.060 89.758
v 69.257 1.222 86.818
f 1561 1562 1563 1564
v 64.767 1.052 88.985
v 63.877 1.094 98.985
v 67.363 1.082 99.295
v 68.253 1.069 89.295
f 1565 1566 1567 1568
v 94.000 1.327 83.548
v 94.220 1.108 97.308
v 97.720 1.114 97.252
v 97.500 1.309 83.492
f 1569 1570 1571 1572
v 114.022 1.354 81.110
v 114.792 1.204 96.110
v 118.288 1.202 95.930
v 117.518 1.366 80.930
f 1573 1574 1575 1576
v 131.864 1.417 75.783
v 133.104 1.126 95.013
v 136.596 1.132 94.787
v 135.356 1.444 75.557
f 1577 1578 1579 1580
v -26.243 1.257 116.523
v -26.633 1.065 110.153
v -30.127 1.040 110.367
v -29.737 1.246 116.737
f 1581 1582 1583 1584
v -26.633 1.065 110.156
v -26.953 1.023 104.806
v -30.447 1.038 105.014
v -30.127 1.040 110.364
f 1585 1586 1587 1588
v -7.317 1.257 113.185
v -8.107 1.073 108.725
v -11.553 1.095 109.335
v -10.763 1.258 113.795
f 1589 1590 1591 1592
v -8.106 1.073 108.727
v -9.026 1.083 103.497
v -12.474 1.067 104.103
v -11.554 1.094 109.333
f 1593 1594 1595 1596
v 13.704 1.261 110.512
v 13.444 1.120 107.442
v 9.956 1.081 107.738
v 10.216 1.238 110.808
f 1597 1598 1599 1600
v 13.444 1.120 107.440
v 13.004 1.084 102.310
v 9.516 1.073 102.610
v 9.956 1.081 107.740
f 1601 1602 1603 1604
v 32.696 1.405 114.062
v 32.166 1.161 106.232
v 28.674 1.146 106.468
v 29.204 1.342 114.298
f 1605 1606 1607 1608
v 32.166 1.161 106.232
v 31.826 1.133 101.192
v 28.334 1.151 101.428
v 28.674 1.146 106.468
f 1609 1610 1611 1612
v 51.977 1.414 111.310
v 51.197 1.103 104.860
v 47.723 1.117 105.280
v 48.503 1.349 111.730
f 1613 1614 1615 1616
v 51.201 1.104 104.897
v 50.711 1.106 99.977
v 47.229 1.091 100.323
v 47.719 1.115 105.243
f 1617 1618 1619 1620
v 72.463 1.345 110.917
v 71.423 1.087 103.487
v 67.957 1.106 103.973
v 68.997 1.331 111.403
f 1621 1622 1623 1624
v 71.424 1.088 103.492
v 70.764 1.102 98.682
v 67.296 1.085 99.158
v 67.956 1.106 103.968
f 1625 1626 1627 1628
v 130.640 1.279 101.686
v 130.460 1.157 99.986
v 126.980 1.156 100.354
v 127.160 1.274 102.054
f 1629 1630 1631 1632
v 130.460 1.157 99.984
v 129.940 1.124 95.124
v 126.460 1.124 95.496
v 126.980 1.157 100.356
f 1633 1634 1635 1636
v -54.747 1.073 139.943
v -48.637 1.091 136.583
v -50.323 1.037 133.517
v -56.433 1.087 136.877
f 1637 1638 1639 1640
v -48.638 1.091 136.584
v -43.028 1.172 133.504
v -44.712 1.189 130.436
v -50.322 1.037 133.516
f 1641 1642 1643 1644
v 115.623 1.183 123.488
v 122.023 1.053 123.808
v 122.197 1.056 120.312
v 115.797 1.202 119.992
f 1645 1646 1647 1648
v 121.995 1.052 123.806
v 122.605 1.065 123.846
v 122.835 1.072 120.354
v 122.225 1.056 120.314
f 1649 1650 1651 1652
v 122.220 1.057 123.777
v 123.460 1.090 124.147
v 124.460 1.118 120.793
v 123.220 1.082 120.423
f 1653 1654 1655 1656
v 123.210 1.081 124.051
v 124.580 1.130 124.701
v 126.080 1.163 121.539
v 124.710 1.126 120.889
f 1657 1658 1659 1660
v 124.060 1.112 124.324
v 124.970 1.143 125.284
v 127.510 1.210 122.876
v 126.600 1.180 121.916
f 1661 1662 1663 1664
v 124.679 1.133 124.871
v 125.399 1.156 126.291
v 128.521 1.235 124.709
v 127.801 1.217 123.289
f 1665 1666 1667 1668
v 125.320 1.154 126.111
v 125.730 1.167 127.211
v 129.010 1.231 125.989
v 128.600 1.237 124.889
f 1669 1670 1671 1672
v 125.623 1.163 126.703
v 125.703 1.171 128.063
v 129.197 1.218 127.857
v 129.117 1.226 126.497
f 1673 1674 1675 1676
v 125.711 1.169 127.764
v 125.521 1.175 129.454
v 128.999 1.226 129.846
v 129.189 1.218 128.156
f 1677 1678 1679 1680
v 125.603 1.174 129.088
v 125.003 1.166 130.858
v 128.317 1.243 131.982
v 128.917 1.231 130.212
f 1681 1682 1683 1684
v 125.575 1.182 130.047
v 124.145 1.130 131.177
v 126.315 1.168 133.923
v 127.745 1.231 132.793
f 1685 1686 1687 1688
v 124.541 1.148 130.941
v 123.491 1.099 131.391
v 124.869 1.105 134.609
v 125.919 1.150 134.159
f 1689 1690 1691 1692
v 124.103 1.127 131.252
v 122.743 1.072 131.312
v 122.897 1.021 134.808
v 124.257 1.076 134.748
f 1693 1694 1695 1696
v 122.736 1.072 131.312
v 116.306 1.125 131.622
v 116.474 1.120 135.118
v 122.904 1.021 134.808
f 1697 1698 1699 1700
v -53.996 1.092 164.814
v -48.076 1.063 164.324
v -48.364 1.063 160.836
v -54.284 1.082 161.326
f 1701 1702 1703 1704
v -48.081 1.063 164.324
v -42.571 1.267 163.884
v -42.849 1.112 160.396
v -48.359 1.064 160.836
f 1705 1706 1707 1708
v -29.167 1.224 176.585
v -28.317 1.050 183.465
v -24.843 1.067 183.035
v -25.693 1.300 176.155
f 1709 1710 1711 1712
v -28.317 1.050 183.463
v -27.397 1.076 190.953
v -23.923 1.082 190.527
v -24.843 1.067 183.037
f 1713 1714 1715 1716
v -11.803 1.220 175.095
v -11.163 1.043 182.285
v -7.677 1.049 181.975
v -8.317 1.311 174.785
f 1717 1718 1719 1720
v -11.163 1.043 182.287
v -10.483 1.098 189.837
v -6.997 1.101 189.523
v -7.677 1.049 181.973
f 1721 1722 1723 1724
v 5.154 1.262 174.600
v 5.604 1.021 181.170
v 9.096 1.004 180.930
v 8.646 1.322 174.360
f 1725 1726 1727 1728
v 5.601 1.021 181.096
v 5.801 1.090 188.706
v 9.299 1.091 188.614
v 9.099 1.000 181.004
f 1729 1730 1731 1732
v 23.885 1.215 173.691
v 24.355 1.005 179.931
v 27.845 1.030 179.669
v 27.375 1.252 173.429
f 1733 1734 1735 1736
v 24.353 1.006 179.905
v 24.813 1.079 187.565
v 28.307 1.076 187.355
v 27.847 1.029 179.695
f 1737 1738 1739 1740
v 39.773 1.239 172.504
v 40.113 0.973 178.824
v 43.607 0.982 178.636
v 43.267 1.290 172.316
f 1741 1742 1743 1744
v 40.115 0.971 178.861
v 40.695 1.031 186.601
v 44.185 1.034 186.339
v 43.605 0.984 178.599
f 1745 1746 1747 1748
v 57.754 1.221 170.512
v 58.214 0.991 177.672
v 61.706 0.998 177.448
v 61.246 1.229 170.288
f 1749 1750 1751 1752
v 58.214 0.991 177.674
v 58.724 1.042 185.454
v 62.216 1.036 185.226
v 61.706 0.998 177.446
f 1753 1754 1755 1756
v 75.453 1.132 170.336
v 75.793 0.974 176.506
v 79.287 0.977 176.314
v 78.947 1.266 170.144
f 1757 1758 1759 1760
v 75.793 0.974 176.506
v 76.223 1.033 184.336
v 79.717 1.031 184.144
v 79.287 0.977 176.314
f 1761 1762 1763 1764
v -70.934 1.213 134.709
v -64.074 1.027 134.489
v -64.186 1.026 130.991
v -71.046 1.230 131.211
f 1765 1766 1767 1768
v -64.096 1.028 134.490
v -55.906 1.068 134.330
v -55.974 1.046 130.830
v -64.164 1.026 130.990
f 1769 1770 1771 1772
v -69.484 1.283 152.780
v -62.824 1.011 152.720
v -62.856 0.991 149.220
v -69.516 1.196 149.280
f 1773 1774 1775 1776
v -62.829 1.011 152.720
v -54.839 1.075 152.670
v -54.861 1.078 149.170
v -62.851 0.991 149.220
f 1777 1778 1779 1780
v -115.309 1.272 181.967
v -114.479 1.034 189.297
v -111.001 1.097 188.903
v -111.831 1.299 181.573
f 1781 1782 1783 1784
v -114.479 1.034 189.298
v -113.629 1.089 196.768
v -110.151 1.124 196.372
v -111.001 1.097 188.902
f 1785 1786 1787 1788
v -83.765 1.170 184.154
v -83.255 1.035 187.144
v -79.805 1.076 186.556
v -80.315 1.268 183.566
f 1789 1790 1791 1792
v -83.255 1.035 187.146
v -81.965 1.131 194.656
v -78.515 1.132 194.064
v -79.805 1.076 186.554
f 1793 1794 1795 1796
v -119.907 1.176 131.597
v -126.777 1.025 132.217
v -126.463 1.036 135.703
v -119.593 1.235 135.083
f 1797 1798 1799 1800
v -126.786 1.025 132.218
v -133.926 1.000 132.898
v -133.594 1.005 136.382
v -126.454 1.036 135.702
f 1801 1802 1803 1804
v 249.047 0.954 227.505
v 254.337 0.724 223.185
v 252.123 0.675 220.475
v 246.833 0.986 224.795
f 1805 1806 1807 1808
v 254.338 0.724 223.185
v 257.108 0.772 220.920
v 254.892 0.775 218.210
v 252.122 0.675 220.475
f 1809 1810 1811 1812
v -122.646 1.198 113.513
v -131.026 1.029 117.273
v -129.594 1.033 120.467
v -121.214 1.246 116.707
f 1813 1814 1815 1816
v -131.035 1.029 117.277
v -138.705 0.972 120.767
v -137.255 0.988 123.953
v -129.585 1.034 120.463
f 1817 1818 1819 1820
v -129.762 1.158 93.442
v -140.902 0.951 108.342
v -138.098 0.995 110.438
v -126.958 1.154 95.538
f 1821 1822 1823 1824
v -140.911 0.950 108.355
v -146.081 0.951 115.405
v -143.259 0.952 117.475
v -138.089 0.995 110.425
f 1825 1826 1827 1828
v 218.979 1.164 205.332
v 222.579 0.756 198.672
v 219.501 0.737 197.008
v 215.901 1.067 203.668
f 1829 1830 1831 1832
v 222.580 0.756 198.671
v 225.430 0.812 193.391
v 222.350 0.806 191.729
v 219.500 0.737 197.009
f 1833 1834 1835 1836
v -145.069 1.105 98.722
v -147.299 0.963 105.772
v -143.961 0.940 106.828
v -141.731 1.071 99.778
f 1837 1838 1839 1840
v -147.298 0.963 105.770
v -149.848 0.949 113.800
v -146.512 0.952 114.860
v -143.962 0.940 106.830
f 1841 1842 1843 1844
v -162.138 1.221 97.931
v -161.808 0.963 104.301
v -158.312 0.981 104.119
v -158.642 1.196 97.749
f 1845 1846 1847 1848
v -161.806 0.962 104.325
v -161.186 0.935 113.745
v -157.694 0.942 113.515
v -158.314 0.983 104.095
f 1849 1850 1851 1852
v 188.474 1.053 191.139
v 189.114 0.809 187.449
v 185.666 0.809 186.851
v 185.026 1.094 190.541
f 1853 1854 1855 1856
v 189.114 0.809 187.451
v 190.184 0.911 181.321
v 186.736 0.900 180.719
v 185.666 0.809 186.849
f 1857 1858 1859 1860
v -176.612 1.157 97.193
v -175.862 0.946 105.213
v -172.378 0.968 104.887
v -173.128 1.217 96.867
f 1861 1862 1863 1864
v -175.862 0.946 105.221
v -174.962 0.925 114.381
v -171.478 0.929 114.039
v -172.378 0.969 104.879
f 1865 1866 1867 1868
v 167.649 1.290 191.199
v 167.489 0.960 185.739
v 163.991 0.936 185.841
v 164.151 1.283 191.301
f 1869 1870 1871 1872
v 167.489 0.960 185.740
v 167.299 0.940 179.130
v 163.801 0.954 179.230
v 163.991 0.936 185.840
f 1873 1874 1875 1876
v -166.180 1.177 123.349
v -168.270 0.936 113.709
v -171.690 0.929 114.451
v -169.600 1.130 124.091
f 1877 1878 1879 1880
v -194.493 1.223 125.403
v -194.733 1.122 121.083
v -198.227 1.042 121.277
v -197.987 1.193 125.597
f 1881 1882 1883 1884
v -194.733 1.122 121.086
v -195.053 0.938 115.106
v -198.547 0.923 115.294
v -198.227 1.041 121.274
f 1885 1886 1887 1888
v 134.602 1.057 223.815
v 128.922 0.816 224.265
v 129.198 0.766 227.755
v 134.878 1.016 227.305
f 1889 1890 1891 1892
v 128.943 0.817 224.264
v 121.643 0.817 224.754
v 121.877 0.811 228.246
v 129.177 0.765 227.756
f 1893 1894 1895 1896
v 183.083 1.288 243.677
v 181.253 0.971 249.397
v 184.587 0.987 250.463
v 186.417 1.337 244.743
f 1897 1898 1899 1900
v 181.254 0.971 249.394
v 179.302 0.878 255.464
v 182.634 0.886 256.536
v 184.586 0.987 250.466
f 1901 1902 1903 1904
v -202.720 0.976 175.088
v -200.540 1.093 174.988
v -200.700 1.048 171.492
v -202.880 0.947 171.592
f 1905 1906 1907 1908
v -200.538 1.093 174.988
v -176.408 1.257 173.858
v -176.572 1.243 170.362
v -200.702 1.048 171.492
f 1909 1910 1911 1912
v -187.071 1.072 201.478
v -187.351 1.062 193.628
v -190.849 1.036 193.752
v -190.569 1.082 201.602
f 1913 1914 1915 1916
v -187.351 1.062 193.627
v -187.571 1.275 187.567
v -191.069 1.164 187.693
v -190.849 1.036 193.753
f 1917 1918 1919 1920
v -253.277 1.216 191.885
v -252.587 1.047 197.455
v -249.113 1.039 197.025
v -249.803 1.239 191.455
f 1921 1922 1923 1924
v -252.586 1.047 197.462
v -252.526 1.020 197.932
v -249.054 1.023 197.488
v -249.114 1.039 197.018
f 1925 1926 1927 1928
v -252.526 1.020 197.931
v -251.536 1.058 205.701
v -248.064 1.065 205.259
v -249.054 1.023 197.489
f 1929 1930 1931 1932
v -238.914 1.263 163.249
v -230.554 0.976 163.509
v -230.446 0.939 160.011
v -238.806 1.250 159.751
f 1933 1934 1935 1936
v -230.535 0.975 163.510
v -226.565 0.915 163.590
v -226.495 0.909 160.090
v -230.465 0.939 160.010
f 1937 1938 1939 1940
v -189.918 1.345 210.875
v -198.628 1.061 211.515
v -198.372 1.077 215.005
v -189.662 1.387 214.365
f 1941 1942 1943 1944
v -198.620 1.061 211.514
v -200.510 1.010 211.644
v -200.270 1.008 215.136
v -198.380 1.076 215.006
f 1945 1946 1947 1948
v -198.651 0.953 241.658
v -196.681 1.049 241.558
v -196.859 1.045 238.062
v -198.829 0.943 238.162
f 1949 1950 1951 1952
v -196.682 1.049 241.558
v -183.422 1.868 240.888
v -183.598 1.719 237.392
v -196.858 1.045 238.062
f 1953 1954 1955 1956
v -9.688 1.107 247.973
v -9.253 1.015 256.093
v -5.758 1.049 255.907
v -6.192 1.209 247.787
f 1957 1958 1959 1960
v 1.750 1.117 251.773
v 1.831 0.995 256.033
v 5.330 0.977 255.967
v 5.250 1.038 251.707
f 1961 1962 1963 1964
v -225.013 1.109 205.205
v -228.613 1.039 209.365
v -225.967 1.058 211.655
v -222.367 1.067 207.495
f 1965 1966 1967 1968
v -228.612 1.039 209.363
v -229.992 1.076 210.953
v -227.348 1.072 213.247
v -225.968 1.058 211.657
f 1969 1970 1971 1972
v -229.995 1.076 210.957
v -236.795 1.340 218.837
v -234.145 1.351 221.123
v -227.345 1.072 213.243
f 1973 1974 1975 1976
v -230.988 1.288 243.968
v -225.028 0.977 243.688
v -225.192 0.977 240.192
v -231.152 1.290 240.472
f 1977 1978 1979 1980
v -225.026 0.977 243.688
v -221.286 0.931 243.508
v -221.454 0.920 240.012
v -225.194 0.977 240.192
f 1981 1982 1983 1984
v 12.355 1.096 254.559
v 12.471 1.019 256.129
v 15.962 1.035 255.871
v 15.845 1.121 254.301
f 1985 1986 1987 1988
v 47.887 1.304 247.968
v 48.437 1.032 254.038
v 51.923 1.034 253.722
v 51.373 1.304 247.652
f 1989 1990 1991 1992
v 68.162 1.085 247.472
v 68.432 0.985 252.582
v 71.928 0.980 252.398
v 71.658 1.075 247.288
f 1993 1994 1995 1996
v 108.826 1.031 243.862
v 109.326 0.768 250.022
v 112.814 0.738 249.738
v 112.314 0.910 243.578
f 1997 1998 1999 2000
v 109.324 0.769 250.003
v 109.754 0.777 256.123
v 113.245 0.738 255.877
v 112.816 0.738 249.757
f 2001 2002 2003 2004
v 257.893 0.892 212.587
v 257.523 0.896 212.137
v 252.117 0.732 216.583
v 252.487 0.734 217.033
f 2005 2006 2007 2008
v 257.179 0.900 211.774
v 242.679 0.960 198.544
v 237.961 0.727 203.716
v 252.461 0.735 216.946
f 2009 2010 2011 2012
v 241.939 0.963 198.027
v 225.509 0.918 189.457
v 222.271 0.705 195.663
v 238.701 0.723 204.233
f 2013 2014 2015 2016
v 225.529 0.918 189.468
v 223.699 0.913 188.498
v 220.421 0.702 194.682
v 222.251 0.705 195.652
f 2017 2018 2019 2020
v 223.357 0.910 188.339
v 219.097 0.884 186.639
v 216.503 0.719 193.141
v 220.763 0.700 194.841
f 2021 2022 2023 2024
v 219.102 0.884 186.641
v 205.432 0.914 181.161
v 202.828 0.753 187.659
v 216.498 0.719 193.139
f 2025 2026 2027 2028
v 204.870 0.918 180.989
v 189.200 0.927 177.599
v 187.720 0.770 184.441
v 203.390 0.749 187.831
f 2029 2030 2031 2032
v 189.201 0.927 177.599
v 187.261 0.928 177.179
v 185.779 0.785 184.021
v 187.719 0.770 184.441
f 2033 2034 2035 2036
v 186.787 0.929 177.110
v 167.807 0.929 175.660
v 167.273 0.864 182.640
v 186.253 0.782 184.090
f 2037 2038 2039 2040
v 167.487 0.931 175.650
v 165.497 0.934 175.680
v 165.603 0.857 182.680
v 167.593 0.863 182.650
f 2041 2042 2043 2044
v 165.495 0.934 175.680
v 152.735 0.942 175.880
v 152.845 0.829 182.880
v 165.605 0.857 182.680
f 2045 2046 2047 2048
v 152.556 0.941 175.888
v 130.516 0.918 177.368
v 130.984 0.825 184.352
v 153.024 0.830 182.872
f 2049 2050 2051 2052
v 130.515 0.918 177.368
v 118.935 0.932 178.148
v 119.405 0.847 185.132
v 130.985 0.825 184.352
f 2053 2054 2055 2056
v 256.948 0.846 188.578
v 238.538 0.809 176.719
v 236.642 0.800 179.661
v 255.052 0.813 191.520
f 2057 2058 2059 2060
v 239.262 0.821 178.708
v 257.672 0.870 119.297
v 254.328 0.858 118.261
v 235.918 0.780 177.672
f 2061 2062 2063 2064
v 256.649 0.862 115.413
v 243.049 0.710 109.985
v 241.751 0.716 113.235
v 255.351 0.843 118.664
f 2065 2066 2067 2068
v 240.730 0.725 111.086
v 234.990 0.738 129.376
v 238.330 0.656 130.424
v 244.070 0.695 112.134
f 2069 2070 2071 2072
v 235.048 0.737 129.219
v 231.348 0.732 137.979
v 234.572 0.649 139.341
v 238.272 0.655 130.581
f 2073 2074 2075 2076
v 231.282 0.731 138.163
v 228.392 0.699 147.913
v 231.748 0.662 148.907
v 234.638 0.647 139.157
f 2077 2078 2079 2080
v 228.392 0.699 147.914
v 223.062 0.725 165.934
v 226.418 0.672 166.926
v 231.748 0.662 148.906
f 2081 2082 2083 2084
v 223.062 0.725 165.934
v 218.502 0.868 181.354
v 221.858 0.896 182.346
v 226.418 0.672 166.926
f 2085 2086 2087 2088
v 218.502 0.868 181.353
v 216.122 0.806 189.393
v 219.478 0.805 190.387
v 221.858 0.896 182.347
f 2089 2090 2091 2092
v 31.157 1.267 -17.225
v 32.017 1.106 -7.555
v 35.503 1.129 -7.865
v 34.643 1.271 -17.535
f 2093 2094 2095 2096
v 32.018 1.106 -7.546
v 33.208 1.536 5.114
v 36.692 1.743 4.786
v 35.502 1.129 -7.874
f 2097 2098 2099 2100
v 33.203 1.534 5.051
v 33.373 1.606 7.991
v 36.867 1.806 7.789
v 36.697 1.747 4.849
f 2101 2102 2103 2104
v 33.844 1.647 9.088
v 38.434 1.971 13.978
v 40.986 2.199 11.582
v 36.396 1.761 6.692
f 2105 2106 2107 2108
v 37.963 1.931 12.880
v 39.573 1.935 40.980
v 43.067 2.166 40.780
v 41.457 2.333 12.680
f 2109 2110 2111 2112
v 39.912 1.926 41.919
v 42.412 1.926 45.309
v 45.228 2.169 43.231
v 42.728 2.179 39.841
f 2113 2114 2115 2116
v 43.130 1.931 45.878
v 46.650 1.943 47.388
v 48.030 2.197 44.172
v 44.510 2.178 42.662
f 2117 2118 2119 2120
v 47.529 1.950 47.520
v 54.049 2.036 46.810
v 53.671 2.299 43.330
v 47.151 2.183 44.040
f 2121 2122 2123 2124
v 54.501 2.043 46.698
v 61.101 2.154 44.098
v 59.819 2.393 40.842
v 53.219 2.296 43.442
f 2125 2126 2127 2128
v 61.553 2.167 43.837
v 65.653 2.304 40.557
v 63.467 2.406 37.823
v 59.367 2.387 41.103
f 2129 2130 2131 2132
v 66.310 2.321 39.199
v 66.340 2.306 33.459
v 62.840 2.543 33.441
v 62.810 2.383 39.181
f 2133 2134 2135 2136
v 66.334 2.308 33.303
v 65.304 2.505 21.073
v 61.816 2.845 21.367
v 62.846 2.538 33.597
f 2137 2138 2139 2140
v 65.309 2.504 21.148
v 64.959 2.502 12.638
v 61.461 2.845 12.782
v 61.811 2.845 21.292
f 2141 2142 2143 2144
v 64.958 2.502 12.619
v 64.588 2.350 5.529
v 61.092 2.605 5.711
v 61.462 2.846 12.801
f 2145 2146 2147 2148
v 64.588 2.358 5.704
v 64.818 2.054 0.914
v 61.322 2.154 0.746
v 61.092 2.596 5.536
f 2149 2150 2151 2152
v 63.993 2.194 2.316
v 70.673 1.593 -1.834
v 68.827 1.458 -4.806
v 62.147 2.017 -0.656
f 2153 2154 2155 2156
v 71.499 1.440 -3.392
v 71.229 1.077 -9.942
v 67.731 1.123 -9.798
v 68.001 1.617 -3.248
f 2157 2158 2159 2160
v 71.228 1.077 -9.943
v 70.838 1.237 -19.313
v 67.342 1.253 -19.167
v 67.732 1.123 -9.797
f 2161 2162 2163 2164
v 33.375 1.607 8.027
v 36.825 1.505 51.907
v 40.315 1.585 51.633
v 36.865 1.806 7.753
f 2165 2166 2167 2168
v 38.698 1.468 53.515
v 78.238 1.538 50.625
v 77.982 1.597 47.135
v 38.442 1.610 50.025
f 2169 2170 2171 2172
v 79.854 1.549 48.738
v 75.904 1.471 0.368
v 72.416 1.668 0.652
v 76.366 1.587 49.022
f 2173 2174 2175 2176
v 75.307 1.455 -0.811
v 70.897 1.369 -4.641
v 68.603 1.689 -1.999
v 73.013 1.667 1.831
f 2177 2178 2179 2180
v 246.470 1.263 -7.082
v 254.280 1.248 -4.745
v 257.720 1.561 -16.242
v 249.910 1.608 -18.578
f 2181 2182 2183 2184
v -35.513 0.928 -5.525
v -33.943 0.934 -5.625
v -34.897 0.977 -20.595
v -36.467 0.969 -20.495
f 2185 2186 2187 2188
v -33.940 0.934 -5.625
v -16.150 0.989 -6.765
v -17.110 1.019 -21.735
v -34.900 0.977 -20.595
f 2189 2190 2191 2192
v -16.156 0.989 -6.765
v 14.654 1.084 -8.715
v 13.706 1.122 -23.685
v -17.104 1.019 -21.735
f 2193 2194 2195 2196
v 14.652 1.084 -8.715
v 33.372 1.127 -9.895
v 32.428 1.179 -24.865
v 13.708 1.122 -23.685
f 2197 2198 2199 2200
v 33.285 1.127 -9.890
v 69.475 1.089 -11.750
v 68.705 1.144 -26.730
v 32.515 1.179 -24.870
f 2201 2202 2203 2204
v 69.459 1.089 -11.749
v 88.559 1.021 -12.689
v 87.821 1.090 -27.671
v 68.721 1.144 -26.731
f 2205 2206 2207 2208
v 88.669 1.020 -12.695
v 94.139 1.027 -13.045
v 93.181 1.077 -28.015
v 87.711 1.090 -27.665
f 2209 2210 2211 2212
v 94.131 1.027 -13.045
v 129.561 0.933 -15.275
v 128.619 1.153 -30.245
v 93.189 1.077 -28.015
f 2213 2214 2215 2216
v 129.586 0.933 -15.276
v 143.926 1.026 -16.226
v 142.934 1.266 -31.194
v 128.594 1.152 -30.244
f 2217 2218 2219 2220
v 143.696 1.027 -16.215
v 154.406 1.003 -16.595
v 153.874 1.367 -31.585
v 143.164 1.268 -31.205
f 2221 2222 2223 2224
v 154.397 1.003 -16.594
v 174.217 1.087 -17.274
v 173.703 1.456 -32.266
v 153.883 1.367 -31.586
f 2225 2226 2227 2228
v 173.702 1.089 -17.274
v 183.562 1.127 -16.934
v 184.078 1.521 -31.926
v 174.218 1.459 -32.266
f 2229 2230 2231 2232
v 182.949 1.121 -16.981
v 197.229 1.201 -15.311
v 198.971 1.559 -30.209
v 184.691 1.521 -31.879
f 2233 2234 2235 2236
v 197.003 1.201 -15.341
v 210.323 1.218 -13.371
v 212.517 1.595 -28.209
v 199.197 1.559 -30.179
f 2237 2238 2239 2240
v 210.237 1.218 -13.384
v 226.887 1.288 -10.724
v 229.253 1.663 -25.536
v 212.603 1.596 -28.196
f 2241 2242 2243 2244
v 226.160 1.287 -10.877
v 246.280 1.260 -5.577
v 250.100 1.666 -20.083
v 229.980 1.668 -25.383
f 2245 2246 2247 2248
v -67.487 0.986 -4.807
v -57.187 0.949 -5.587
v -58.093 1.009 -17.553
v -68.393 1.015 -16.773
f 2249 2250 2251 2252
v -57.182 0.949 -5.588
v -49.872 0.946 -6.148
v -50.788 1.021 -18.112
v -58.098 1.009 -17.552
f 2253 2254 2255 2256
v -49.962 0.946 -6.141
v -35.622 0.946 -7.021
v -36.358 0.991 -18.999
v -50.698 1.021 -18.119
f 2257 2258 2259 2260
v -255.402 1.040 8.516
v -225.682 0.933 6.696
v -226.598 0.981 -8.276
v -256.318 1.065 -6.456
f 2261 2262 2263 2264
v -225.658 0.933 6.694
v -200.818 0.884 5.094
v -201.782 0.928 -9.874
v -226.622 0.981 -8.274
f 2265 2266 2267 2268
v -200.829 0.884 5.095
v -155.029 1.012 2.215
v -155.971 1.043 -12.755
v -201.771 0.928 -9.875
f 2269 2270 2271 2272
v -155.028 1.012 2.215
v -89.168 1.009 -1.935
v -90.112 1.051 -16.905
v -155.972 1.043 -12.755
f 2273 2274 2275 2276
v -89.169 1.009 -1.935
v -71.699 0.957 -3.035
v -72.641 1.006 -18.005
v -90.111 1.051 -16.905
f 2277 2278 2279 2280
v -71.692 0.957 -3.035
v -67.462 0.962 -3.305
v -68.418 0.994 -18.275
v -72.648 1.006 -18.005
f 2281 2282 2283 2284
v -91.384 1.166 -9.277
v -90.624 1.011 0.003
v -87.136 0.999 -0.283
v -87.896 1.148 -9.563
f 2285 2286 2287 2288
v -90.624 1.011 -0.000
v -88.944 1.264 20.980
v -85.456 1.337 20.700
v -87.136 0.999 -0.280
f 2289 2290 2291 2292
v -88.948 1.265 20.933
v -87.138 1.280 54.803
v -83.642 1.283 54.617
v -85.452 1.337 20.747
f 2293 2294 2295 2296
v -85.330 1.286 56.459
v -22.520 1.439 54.319
v -22.640 1.455 50.821
v -85.450 1.290 52.961
f 2297 2298 2299 2300
v 182.074 1.286 -24.306
v 182.864 1.033 -13.156
v 186.356 1.073 -13.404
v 185.566 1.326 -24.554
f 2301 2302 2303 2304
v 182.862 1.034 -13.189
v 183.522 1.344 -0.479
v 187.018 1.288 -0.661
v 186.358 1.072 -13.371
f 2305 2306 2307 2308
v 183.522 1.343 -0.497
v 183.962 1.603 10.003
v 187.458 1.506 9.857
v 187.018 1.289 -0.643
f 2309 2310 2311 2312
v 183.961 1.602 9.976
v 184.181 1.674 18.336
v 187.679 1.539 18.244
v 187.459 1.506 9.884
f 2313 2314 2315 2316
v 184.180 1.674 18.261
v 183.700 0.978 46.871
v 187.200 0.967 46.929
v 187.680 1.539 18.319
f 2317 2318 2319 2320
v 183.710 0.983 46.715
v 179.410 0.814 87.125
v 182.890 0.784 87.495
v 187.190 0.962 47.085
f 2321 2322 2323 2324
v 179.402 0.814 87.237
v 176.412 0.622 159.127
v 179.908 0.120 159.273
v 182.898 0.783 87.383
f 2325 2326 2327 2328
v 177.884 0.471 160.928
v 188.234 0.120 162.578
v 188.786 0.120 159.122
v 178.436 0.404 157.472
f 2329 2330 2331 2332
v 191.548 0.743 143.306
v 193.708 0.729 125.106
v 190.232 0.699 124.694
v 188.072 0.700 142.894
f 2333 2334 2335 2336
v 193.713 0.729 125.062
v 195.423 0.760 106.632
v 191.937 0.703 106.308
v 190.227 0.699 124.738
f 2337 2338 2339 2340
v 195.425 0.760 106.608
v 196.785 0.761 89.368
v 193.295 0.795 89.092
v 191.935 0.703 106.332
f 2341 2342 2343 2344
v 230.299 0.688 146.675
v 190.039 0.713 141.365
v 189.581 0.722 144.835
v 229.841 0.671 150.145
f 2345 2346 2347 2348
v 191.775 0.708 126.639
v 236.465 0.693 131.639
v 236.855 0.711 128.161
v 192.165 0.716 123.161
f 2349 2350 2351 2352
v 10.317 1.079 59.074
v 20.487 1.147 57.684
v 20.013 1.069 54.216
v 9.843 1.075 55.606
f 2353 2354 2355 2356
v 21.994 1.105 55.801
v 20.594 1.386 39.461
v 17.106 1.455 39.759
v 18.506 1.068 56.099
f 2357 2358 2359 2360
v -5.703 1.352 60.612
v 10.247 1.079 59.082
v 9.913 1.075 55.598
v -6.037 1.324 57.128
f 2361 2362 2363 2364
v -6.761 1.461 39.559
v -12.491 1.403 41.459
v -11.389 1.393 44.781
v -5.659 1.406 42.881
f 2365 2366 2367 2368
v -12.599 1.402 41.499
v -13.189 1.400 41.739
v -11.871 1.397 44.981
v -11.281 1.393 44.741
f 2369 2370 2371 2372
v -13.771 1.402 42.126
v -16.921 1.409 45.296
v -14.439 1.390 47.764
v -11.289 1.393 44.594
f 2373 2374 2375 2376
v -17.418 1.404 46.328
v -18.228 1.376 53.288
v -14.752 1.431 53.692
v -13.942 1.396 46.732
f 2377 2378 2379 2380
v -17.806 1.392 54.643
v -13.846 1.465 59.163
v -11.214 1.447 56.857
v -15.174 1.413 52.337
f 2381 2382 2383 2384
v -12.754 1.477 59.746
v -6.094 1.362 60.606
v -5.646 1.312 57.134
v -12.306 1.449 56.274
f 2385 2386 2387 2388
v -18.378 1.112 -14.159
v -17.878 0.965 -4.589
v -14.382 0.971 -4.771
v -14.882 1.124 -14.341
f 2389 2390 2391 2392
v -17.754 0.965 -4.029
v -16.174 0.998 -0.089
v -12.926 0.972 -1.391
v -14.506 0.978 -5.331
f 2393 2394 2395 2396
v -16.175 0.998 -0.092
v -13.195 1.195 7.378
v -9.945 1.175 6.082
v -12.925 0.972 -1.388
f 2397 2398 2399 2400
v -13.249 1.191 7.225
v -11.099 1.349 14.515
v -7.741 1.381 13.525
v -9.891 1.180 6.235
f 2401 2402 2403 2404
v -9.300 1.391 15.766
v 16.800 1.408 13.966
v 16.560 1.336 10.474
v -9.540 1.339 12.274
f 2405 2406 2407 2408
v 18.423 1.347 12.063
v 17.693 1.136 3.953
v 14.207 1.161 4.267
v 14.937 1.395 12.377
f 2409 2410 2411 2412
v 17.693 1.136 3.958
v 17.083 0.967 -3.042
v 13.597 0.995 -2.738
v 14.207 1.161 4.262
f 2413 2414 2415 2416
v 17.084 0.967 -3.032
v 16.784 1.073 -6.712
v 13.296 1.062 -6.428
v 13.596 0.995 -2.748
f 2417 2418 2419 2420
v 16.783 1.074 -6.726
v 15.923 1.232 -16.356
v 12.437 1.224 -16.044
v 13.297 1.062 -6.414
f 2421 2422 2423 2424
v 245.118 1.193 8.408
v 226.848 1.246 2.748
v 225.812 1.296 6.092
v 244.082 1.239 11.752
f 2425 2426 2427 2428
v 226.866 1.246 2.754
v 204.716 0.983 -4.376
v 203.644 1.060 -1.044
v 225.794 1.295 6.086
f 2429 2430 2431 2432
v 205.798 1.069 -2.044
v 209.318 1.188 -10.594
v 206.082 1.175 -11.926
v 202.562 0.973 -3.376
f 2433 2434 2435 2436
v 209.330 1.189 -10.624
v 213.050 1.401 -20.154
v 209.790 1.405 -21.426
v 206.070 1.175 -11.896
f 2437 2438 2439 2440
v 188.065 0.700 142.972
v 186.765 0.120 160.722
v 190.255 0.411 160.978
v 191.555 0.743 143.228
f 2441 2442 2443 2444
v 188.244 0.120 162.580
v 224.474 0.692 168.160
v 225.006 0.702 164.700
v 188.776 0.120 159.120
f 2445 2446 2447 2448
v 193.496 0.722 108.210
v 242.216 0.712 113.350
v 242.584 0.716 109.870
v 193.864 0.729 104.730
f 2449 2450 2451 2452
v 185.473 1.022 45.150
v 155.053 1.243 44.750
v 155.007 1.091 48.250
v 185.427 0.902 48.650
f 2453 2454 2455 2456
v 156.780 1.161 46.481
v 156.120 0.987 -14.879
v 152.620 0.980 -14.841
v 153.280 1.173 46.519
f 2457 2458 2459 2460
v 156.119 0.988 -14.904
v 155.889 1.182 -24.134
v 152.391 1.176 -24.046
v 152.621 0.979 -14.816
f 2461 2462 2463 2464
v 194.862 0.754 90.971
v 233.972 0.808 94.961
v 234.328 0.825 91.479
v 195.218 0.808 87.489
f 2465 2466 2467 2468
v 232.553 0.822 93.936
v 240.803 0.724 112.326
v 243.997 0.696 110.894
v 235.747 0.807 92.504
f 2469 2470 2471 2472
v 202.908 0.962 -3.912
v 198.658 1.047 0.588
v 201.202 1.148 2.992
v 205.452 1.080 -1.508
f 2473 2474 2475 2476
v 198.228 1.069 1.381
v 196.348 1.162 9.211
v 199.752 1.253 10.029
v 201.632 1.142 2.199
f 2477 2478 2479 2480
v 196.349 1.162 9.210
v 191.499 1.345 29.350
v 194.901 1.361 30.170
v 199.751 1.253 10.030
f 2481 2482 2483 2484
v 191.450 1.346 29.750
v 191.380 1.243 41.540
v 194.880 1.260 41.560
v 194.950 1.361 29.770
f 2485 2486 2487 2488
v 191.382 1.241 41.635
v 192.312 0.995 60.675
v 195.808 1.017 60.505
v 194.878 1.261 41.465
f 2489 2490 2491 2492
v 192.319 0.997 60.413
v 189.659 0.887 86.643
v 193.141 0.827 86.997
v 195.801 1.011 60.767
f 2493 2494 2495 2496
v 190.434 0.856 88.279
v 194.074 0.767 90.689
v 196.006 0.798 87.771
v 192.366 0.864 85.361
f 2497 2498 2499 2500
v 198.006 1.154 7.871
v 185.666 1.546 8.181
v 185.754 1.596 11.679
v 198.094 1.205 11.369
f 2501 2502 2503 2504
v 239.203 1.352 13.617
v 227.963 1.395 10.167
v 226.937 1.438 13.513
v 238.177 1.451 16.963
f 2505 2506 2507 2508
v 242.974 1.228 9.433
v 241.944 1.281 12.023
v 245.196 1.264 13.317
v 246.226 1.190 10.727
f 2509 2510 2511 2512
v 242.317 1.265 11.449
v 240.427 1.328 13.389
v 242.933 1.390 15.831
v 244.823 1.301 13.891
f 2513 2514 2515 2516
v 241.292 1.305 12.904
v 238.302 1.370 13.584
v 239.078 1.444 16.996
v 242.068 1.416 16.316
f 2517 2518 2519 2520
v 228.963 1.421 10.961
v 227.813 1.375 8.981
v 224.787 1.367 10.739
v 225.937 1.422 12.719
f 2521 2522 2523 2524
v 228.050 1.391 9.830
v 227.990 1.364 6.350
v 224.490 1.280 6.410
v 224.550 1.347 9.890
f 2525 2526 2527 2528
v 227.988 1.368 6.460
v 228.078 1.300 4.500
v 224.582 1.248 4.340
v 224.492 1.278 6.300
f 2529 2530 2531 2532
v -157.246 1.157 -5.154
v -156.626 0.990 4.176
v -153.134 0.998 3.944
v -153.754 1.158 -5.386
f 2533 2534 2535 2536
v -156.628 0.990 4.138
v -155.878 0.778 21.038
v -152.382 0.773 20.882
v -153.132 0.998 3.982
f 2537 2538 2539 2540
v -155.106 0.783 22.412
v -149.006 0.777 26.512
v -147.054 0.768 23.608
v -153.154 0.782 19.508
f 2541 2542 2543 2544
v -147.909 0.781 26.806
v -120.069 0.791 24.876
v -120.311 0.785 21.384
v -148.151 0.763 23.314
f 2545 2546 2547 2548
v -120.069 0.791 24.876
v -87.079 1.271 22.586
v -87.321 1.313 19.094
v -120.311 0.785 21.384
f 2549 2550 2551 2552
v -121.936 0.797 23.246
v -120.296 0.858 47.896
v -116.804 0.859 47.664
v -118.444 0.787 23.014
f 2553 2554 2555 2556
v -118.617 0.847 46.031
v -139.137 0.861 46.821
v -139.003 0.865 50.319
v -118.483 0.860 49.529
f 2557 2558 2559 2560
v -221.813 0.924 63.867
v -214.643 0.848 63.427
v -214.857 0.848 59.933
v -222.027 0.924 60.373
f 2561 2562 2563 2564
v -214.640 0.848 63.427
v -193.680 0.886 62.107
v -193.900 0.870 58.613
v -214.860 0.848 59.933
f 2565 2566 2567 2568
v -186.215 0.886 61.656
v -167.815 0.899 60.446
v -168.045 0.848 56.954
v -186.445 0.840 58.164
f 2569 2570 2571 2572
v -193.685 0.886 62.107
v -186.225 0.886 61.657
v -186.435 0.839 58.163
v -193.895 0.870 58.613
f 2573 2574 2575 2576
v -223.311 0.899 40.859
v -216.451 0.857 40.589
v -216.589 0.847 37.091
v -223.449 0.896 37.361
f 2577 2578 2579 2580
v -216.469 0.857 40.589
v -198.659 0.877 40.069
v -198.761 0.890 36.571
v -216.571 0.847 37.091
f 2581 2582 2583 2584
v -224.224 0.848 23.927
v -217.654 0.802 23.567
v -217.846 0.811 20.073
v -224.416 0.839 20.433
f 2585 2586 2587 2588
v -217.648 0.802 23.567
v -199.908 0.981 22.527
v -200.112 0.798 19.033
v -217.852 0.811 20.073
f 2589 2590 2591 2592
v -73.911 1.109 -10.343
v -72.971 0.961 -1.093
v -69.489 0.944 -1.447
v -70.429 1.107 -10.697
f 2593 2594 2595 2596
v -72.977 0.961 -1.161
v -72.637 0.965 4.279
v -69.143 0.982 4.061
v -69.483 0.944 -1.379
f 2597 2598 2599 2600
v -72.573 0.956 3.692
v -75.263 1.022 13.162
v -71.897 1.073 14.118
v -69.207 0.994 4.648
f 2601 2602 2603 2604
v -75.327 1.025 13.738
v -73.977 1.213 37.928
v -70.483 1.216 37.732
v -71.833 1.071 13.542
f 2605 2606 2607 2608
v -72.127 1.216 39.577
v -32.277 1.212 37.227
v -32.483 1.189 33.733
v -72.333 1.200 36.083
f 2609 2610 2611 2612
v -30.953 1.198 36.493
v -24.293 1.178 27.113
v -27.147 1.114 25.087
v -33.807 1.202 34.467
f 2613 2614 2615 2616
v -23.970 1.178 26.065
v -24.220 1.096 13.395
v -27.720 1.020 13.465
v -27.470 1.120 26.135
f 2617 2618 2619 2620
v -25.180 1.044 11.869
v -32.470 0.979 8.179
v -34.050 1.048 11.301
v -26.760 1.045 14.991
f 2621 2622 2623 2624
v -31.512 0.978 9.661
v -32.112 0.927 -3.679
v -35.608 0.919 -3.521
v -35.008 1.055 9.819
f 2625 2626 2627 2628
v -32.113 0.927 -3.703
v -32.673 1.078 -13.213
v -36.167 1.059 -13.007
v -35.607 0.919 -3.497
f 2629 2630 2631 2632
v -30.632 1.190 35.399
v -31.252 1.089 22.099
v -34.748 1.158 22.261
v -34.128 1.211 35.561
f 2633 2634 2635 2636
v -31.701 1.101 16.152
v -31.511 0.979 9.792
v -35.009 1.053 9.688
v -35.199 1.140 16.048
f 2637 2638 2639 2640
v -31.255 1.089 22.051
v -31.705 1.098 15.971
v -35.195 1.142 16.229
v -34.745 1.158 22.309
f 2641 2642 2643 2644
v -255.864 0.971 71.925
v -242.794 0.984 70.905
v -243.066 0.892 67.415
v -256.136 0.919 68.435
f 2645 2646 2647 2648
v -242.297 0.977 70.791
v -234.697 0.930 67.841
v -235.963 0.860 64.579
v -243.563 0.893 67.529
f 2649 2650 2651 2652
v -233.923 0.969 67.250
v -230.893 0.833 63.150
v -233.707 0.824 61.070
v -236.737 0.862 65.170
f 2653 2654 2655 2656
v -232.178 0.866 63.856
v -228.588 0.853 63.606
v -228.832 0.832 60.114
v -232.422 0.814 60.364
f 2657 2658 2659 2660
v -228.777 0.852 63.609
v -221.987 0.925 63.869
v -221.853 0.923 60.371
v -228.643 0.835 60.111
f 2661 2662 2663 2664
v -257.601 1.202 1.208
v -256.651 1.029 10.498
v -253.169 1.018 10.142
v -254.119 1.198 0.852
f 2665 2666 2667 2668
v -256.656 1.030 10.436
v -255.966 0.891 20.856
v -252.474 0.878 20.624
v -253.164 1.018 10.204
f 2669 2670 2671 2672
v -254.467 0.921 22.472
v -249.347 0.895 23.202
v -248.853 0.833 19.738
v -253.973 0.847 19.008
f 2673 2674 2675 2676
v -250.095 0.901 22.909
v -242.285 0.823 28.309
v -240.295 0.807 25.431
v -248.105 0.833 20.031
f 2677 2678 2679 2680
v -242.786 0.825 27.778
v -238.146 0.817 35.428
v -235.154 0.798 33.612
v -239.794 0.806 25.962
f 2681 2682 2683 2684
v -236.645 0.818 36.270
v -230.005 0.834 36.250
v -230.015 0.826 32.750
v -236.655 0.801 32.770
f 2685 2686 2687 2688
v -230.029 0.834 36.250
v -223.709 0.897 36.320
v -223.671 0.891 32.820
v -229.991 0.827 32.750
f 2689 2690 2691 2692
v -238.398 0.814 34.593
v -237.628 0.888 52.933
v -234.132 0.896 52.787
v -234.902 0.802 34.447
f 2693 2694 2695 2696
v -237.629 0.888 52.932
v -237.079 0.880 66.282
v -233.581 0.947 66.138
v -234.131 0.896 52.788
f 2697 2698 2699 2700
v -242.373 1.009 55.203
v -235.723 0.864 54.603
v -236.037 0.870 51.117
v -242.687 1.022 51.717
f 2701 2702 2703 2704
v 120.033 1.047 -2.783
v 121.123 1.390 15.057
v 124.617 1.350 14.843
v 123.527 1.000 -2.997
f 2705 2706 2707 2708
v 122.952 1.390 16.698
v 131.472 1.328 16.298
v 131.308 1.248 12.802
v 122.788 1.323 13.202
f 2709 2710 2711 2712
v 133.137 1.279 14.442
v 132.027 0.999 -3.538
v 128.533 0.983 -3.322
v 129.643 1.300 14.658
f 2713 2714 2715 2716
v 121.891 1.035 -1.144
v 130.391 1.008 -1.684
v 130.169 0.964 -5.176
v 121.669 1.005 -4.636
f 2717 2718 2719 2720
v 121.655 1.005 -4.636
v 94.375 1.151 -2.686
v 94.625 1.283 0.806
v 121.905 1.034 -1.144
f 2721 2722 2723 2724
v 96.248 1.202 -1.027
v 95.728 1.019 -11.437
v 92.232 1.009 -11.263
v 92.752 1.238 -0.853
f 2725 2726 2727 2728
v 95.729 1.019 -11.411
v 95.409 1.198 -20.591
v 91.911 1.194 -20.469
v 92.231 1.010 -11.289
f 2729 2730 2731 2732
v 127.343 1.133 -22.652
v 127.913 0.908 -13.402
v 131.407 0.934 -13.618
v 130.837 1.143 -22.868
f 2733 2734 2735 2736
v 127.913 0.908 -13.403
v 128.533 0.983 -3.323
v 132.027 0.999 -3.537
v 131.407 0.934 -13.617
f 2737 2738 2739 2740
v 92.986 1.198 -1.818
v 89.676 1.344 3.892
v 92.704 1.411 5.648
v 96.014 1.241 -0.062
f 2741 2742 2743 2744
v 89.444 1.364 4.888
v 92.524 1.301 50.288
v 96.016 1.262 50.052
v 92.936 1.384 4.652
f 2745 2746 2747 2748
v 94.378 1.211 51.917
v 148.528 1.112 48.567
v 148.312 1.196 45.073
v 94.162 1.380 48.423
f 2749 2750 2751 2752
v 148.505 1.112 48.568
v 155.115 1.091 48.248
v 154.945 1.243 44.752
v 148.335 1.196 45.072
f 2753 2754 2755 2756
v -7.659 1.528 29.973
v -7.959 1.430 41.173
v -4.461 1.449 41.267
v -4.161 1.572 30.067
f 2757 2758 2759 2760
v -6.098 1.400 42.966
v 18.962 1.393 41.356
v 18.738 1.456 37.864
v -6.322 1.468 39.474
f 2761 2762 2763 2764
v 20.595 1.386 39.484
v 19.785 1.509 28.224
v 16.295 1.559 28.476
v 17.105 1.455 39.736
f 2765 2766 2767 2768
v 19.784 1.509 28.203
v 18.424 1.347 12.073
v 14.936 1.394 12.367
v 16.296 1.559 28.497
f 2769 2770 2771 2772
v -11.129 1.347 14.395
v -7.619 1.528 30.395
v -4.201 1.570 29.645
v -7.711 1.383 13.645
f 2773 2774 2775 2776
v -6.424 1.290 7.854
v 8.726 1.260 6.584
v 8.434 1.166 3.096
v -6.716 1.193 4.366
f 2777 2778 2779 2780
v 8.752 1.259 6.581
v 16.122 1.201 5.851
v 15.778 1.097 2.369
v 8.408 1.167 3.099
f 2781 2782 2783 2784
v -11.355 1.233 8.467
v -6.355 1.291 7.847
v -6.785 1.192 4.373
v -11.785 1.133 4.993
f 2785 2786 2787 2788
v -14.424 1.025 1.005
v 15.466 1.003 -1.145
v 15.214 1.025 -4.635
v -14.676 0.965 -2.485
f 2789 2790 2791 2792
usemtl asphalt
