# Baked ultra-low Key West silhouette; generated by bake_key_west_far_city.py
mtllib far_city.mtl
usemtl massing
v -25.570 0.607 -5.533
v -6.431 0.607 1.867
v -11.490 0.607 14.953
v -30.629 0.607 7.553
v -25.570 6.907 -5.533
v -6.431 6.907 1.867
v -11.490 6.907 14.953
v -30.629 6.907 7.553
f 8 7 6 5
f 1 2 6 5
f 2 3 7 6
f 3 4 8 7
f 4 1 5 8
v -141.057 1.053 -212.495
v -124.781 1.053 -207.187
v -128.043 1.053 -197.185
v -144.319 1.053 -202.493
v -141.057 4.953 -212.495
v -124.781 4.953 -207.187
v -128.043 4.953 -197.185
v -144.319 4.953 -202.493
f 16 15 14 13
f 9 10 14 13
f 10 11 15 14
f 11 12 16 15
f 12 9 13 16
v 224.144 0.910 -98.503
v 251.127 0.910 -93.913
v 248.236 0.910 -76.917
v 221.253 0.910 -81.507
v 224.144 4.810 -98.503
v 251.127 4.810 -93.913
v 248.236 4.810 -76.917
v 221.253 4.810 -81.507
f 24 23 22 21
f 17 18 22 21
f 18 19 23 22
f 19 20 24 23
f 20 17 21 24
v 61.200 0.882 -44.412
v 83.416 0.882 -24.822
v 67.920 0.882 -7.248
v 45.704 0.882 -26.838
v 61.200 4.782 -44.412
v 83.416 4.782 -24.822
v 67.920 4.782 -7.248
v 45.704 4.782 -26.838
f 32 31 30 29
f 25 26 30 29
f 26 27 31 30
f 27 28 32 31
f 28 25 29 32
v -164.183 1.302 -237.985
v -159.885 1.302 -258.755
v -147.997 1.302 -256.295
v -152.295 1.302 -235.525
v -164.183 5.202 -237.985
v -159.885 5.202 -258.755
v -147.997 5.202 -256.295
v -152.295 5.202 -235.525
f 40 39 38 37
f 33 34 38 37
f 34 35 39 38
f 35 36 40 39
f 36 33 37 40
v -123.169 0.953 -179.647
v -100.308 0.953 -165.776
v -110.491 0.953 -148.993
v -133.352 0.953 -162.864
v -123.169 4.853 -179.647
v -100.308 4.853 -165.776
v -110.491 4.853 -148.993
v -133.352 4.853 -162.864
f 48 47 46 45
f 41 42 46 45
f 42 43 47 46
f 43 44 48 47
f 44 41 45 48
v 76.412 1.144 -198.366
v 93.528 1.144 -193.975
v 89.808 1.144 -179.474
v 72.692 1.144 -183.865
v 76.412 5.044 -198.366
v 93.528 5.044 -193.975
v 89.808 5.044 -179.474
v 72.692 5.044 -183.865
f 56 55 54 53
f 49 50 54 53
f 50 51 55 54
f 51 52 56 55
f 52 49 53 56
v 131.744 0.632 -216.110
v 147.771 0.632 -210.591
v 143.356 0.632 -197.770
v 127.329 0.632 -203.289
v 131.744 4.532 -216.110
v 147.771 4.532 -210.591
v 143.356 4.532 -197.770
v 127.329 4.532 -203.289
f 64 63 62 61
f 57 58 62 61
f 58 59 63 62
f 59 60 64 63
f 60 57 61 64
v -37.293 1.746 -83.964
v -31.029 1.746 -100.508
v -22.547 1.746 -97.296
v -28.811 1.746 -80.752
v -37.293 5.646 -83.964
v -31.029 5.646 -100.508
v -22.547 5.646 -97.296
v -28.811 5.646 -80.752
f 72 71 70 69
f 65 66 70 69
f 66 67 71 70
f 67 68 72 71
f 68 65 69 72
v 26.913 0.546 -83.867
v 30.645 0.546 -94.384
v 37.667 0.546 -91.893
v 33.935 0.546 -81.376
v 26.913 4.446 -83.867
v 30.645 4.446 -94.384
v 37.667 4.446 -91.893
v 33.935 4.446 -81.376
f 80 79 78 77
f 73 74 78 77
f 74 75 79 78
f 75 76 80 79
f 76 73 77 80
v -131.589 0.659 -28.339
v -104.507 0.659 -28.996
v -104.031 0.659 -9.381
v -131.113 0.659 -8.724
v -131.589 4.559 -28.339
v -104.507 4.559 -28.996
v -104.031 4.559 -9.381
v -131.113 4.559 -8.724
f 88 87 86 85
f 81 82 86 85
f 82 83 87 86
f 83 84 88 87
f 84 81 85 88
v -65.770 0.507 -70.440
v -63.857 0.507 -76.337
v -60.290 0.507 -75.180
v -62.203 0.507 -69.283
v -65.770 4.407 -70.440
v -63.857 4.407 -76.337
v -60.290 4.407 -75.180
v -62.203 4.407 -69.283
f 96 95 94 93
f 89 90 94 93
f 90 91 95 94
f 91 92 96 95
f 92 89 93 96
v 161.128 0.670 -125.029
v 179.855 0.670 -118.723
v 176.692 0.670 -109.331
v 157.965 0.670 -115.637
v 161.128 4.570 -125.029
v 179.855 4.570 -118.723
v 176.692 4.570 -109.331
v 157.965 4.570 -115.637
f 104 103 102 101
f 97 98 102 101
f 98 99 103 102
f 99 100 104 103
f 100 97 101 104
v 119.941 0.592 -136.138
v 123.191 0.592 -145.182
v 130.259 0.592 -142.642
v 127.009 0.592 -133.598
v 119.941 4.492 -136.138
v 123.191 4.492 -145.182
v 130.259 4.492 -142.642
v 127.009 4.492 -133.598
f 112 111 110 109
f 105 106 110 109
f 106 107 111 110
f 107 108 112 111
f 108 105 109 112
v 125.464 0.781 -105.565
v 128.594 0.781 -114.376
v 135.916 0.781 -111.775
v 132.786 0.781 -102.964
v 125.464 4.681 -105.565
v 128.594 4.681 -114.376
v 135.916 4.681 -111.775
v 132.786 4.681 -102.964
f 120 119 118 117
f 113 114 118 117
f 114 115 119 118
f 115 116 120 119
f 116 113 117 120
v 52.477 -0.069 -64.973
v 53.960 -0.069 -69.496
v 57.343 -0.069 -68.387
v 55.860 -0.069 -63.864
v 52.477 3.831 -64.973
v 53.960 3.831 -69.496
v 57.343 3.831 -68.387
v 55.860 3.831 -63.864
f 128 127 126 125
f 121 122 126 125
f 122 123 127 126
f 123 124 128 127
f 124 121 125 128
v -228.981 0.731 -20.529
v -218.571 0.731 -32.107
v -207.119 0.731 -21.811
v -217.529 0.731 -10.233
v -228.981 4.631 -20.529
v -218.571 4.631 -32.107
v -207.119 4.631 -21.811
v -217.529 4.631 -10.233
f 136 135 134 133
f 129 130 134 133
f 130 131 135 134
f 131 132 136 135
f 132 129 133 136
v 57.932 0.460 -77.994
v 63.113 0.460 -92.039
v 72.148 0.460 -88.706
v 66.967 0.460 -74.661
v 57.932 4.360 -77.994
v 63.113 4.360 -92.039
v 72.148 4.360 -88.706
v 66.967 4.360 -74.661
f 144 143 142 141
f 137 138 142 141
f 138 139 143 142
f 139 140 144 143
f 140 137 141 144
v 214.558 1.091 -95.313
v 231.157 1.091 -72.170
v 210.322 1.091 -57.227
v 193.723 1.091 -80.370
v 214.558 4.991 -95.313
v 231.157 4.991 -72.170
v 210.322 4.991 -57.227
v 193.723 4.991 -80.370
f 152 151 150 149
f 145 146 150 149
f 146 147 151 150
f 147 148 152 151
f 148 145 149 152
v 243.439 0.789 -181.238
v 269.675 0.789 -174.099
v 265.241 0.789 -157.802
v 239.005 0.789 -164.941
v 243.439 4.689 -181.238
v 269.675 4.689 -174.099
v 265.241 4.689 -157.802
v 239.005 4.689 -164.941
f 160 159 158 157
f 153 154 158 157
f 154 155 159 158
f 155 156 160 159
f 156 153 157 160
v 229.682 0.252 -163.187
v 233.072 0.252 -172.179
v 241.578 0.252 -168.973
v 238.188 0.252 -159.981
v 229.682 4.152 -163.187
v 233.072 4.152 -172.179
v 241.578 4.152 -168.973
v 238.188 4.152 -159.981
f 168 167 166 165
f 161 162 166 165
f 162 163 167 166
f 163 164 168 167
f 164 161 165 168
v 246.911 1.109 -203.035
v 261.304 1.109 -185.070
v 246.069 1.109 -172.865
v 231.676 1.109 -190.830
v 246.911 5.009 -203.035
v 261.304 5.009 -185.070
v 246.069 5.009 -172.865
v 231.676 5.009 -190.830
f 176 175 174 173
f 169 170 174 173
f 170 171 175 174
f 171 172 176 175
f 172 169 173 176
v -253.437 1.346 -167.271
v -248.594 1.346 -180.290
v -238.163 1.346 -176.409
v -243.006 1.346 -163.390
v -253.437 5.246 -167.271
v -248.594 5.246 -180.290
v -238.163 5.246 -176.409
v -243.006 5.246 -163.390
f 184 183 182 181
f 177 178 182 181
f 178 179 183 182
f 179 180 184 183
f 180 177 181 184
v -240.437 0.969 -163.347
v -234.447 0.969 -188.000
v -221.163 0.969 -184.773
v -227.153 0.969 -160.120
v -240.437 4.869 -163.347
v -234.447 4.869 -188.000
v -221.163 4.869 -184.773
v -227.153 4.869 -160.120
f 192 191 190 189
f 185 186 190 189
f 186 187 191 190
f 187 188 192 191
f 188 185 189 192
v -221.168 1.051 -176.257
v -212.175 1.051 -207.249
v -192.372 1.051 -201.503
v -201.365 1.051 -170.511
v -221.168 4.951 -176.257
v -212.175 4.951 -207.249
v -192.372 4.951 -201.503
v -201.365 4.951 -170.511
f 200 199 198 197
f 193 194 198 197
f 194 195 199 198
f 195 196 200 199
f 196 193 197 200
v -196.662 0.996 -186.865
v -190.464 0.996 -203.711
v -182.158 0.996 -200.655
v -188.356 0.996 -183.809
v -196.662 4.896 -186.865
v -190.464 4.896 -203.711
v -182.158 4.896 -200.655
v -188.356 4.896 -183.809
f 208 207 206 205
f 201 202 206 205
f 202 203 207 206
f 203 204 208 207
f 204 201 205 208
v -181.379 0.993 -187.251
v -179.600 0.993 -205.555
v -166.781 0.993 -204.309
v -168.560 0.993 -186.005
v -181.379 4.893 -187.251
v -179.600 4.893 -205.555
v -166.781 4.893 -204.309
v -168.560 4.893 -186.005
f 216 215 214 213
f 209 210 214 213
f 210 211 215 214
f 211 212 216 215
f 212 209 213 216
v -207.142 1.547 -240.079
v -187.216 1.547 -228.492
v -193.258 1.547 -218.101
v -213.184 1.547 -229.688
v -207.142 5.447 -240.079
v -187.216 5.447 -228.492
v -193.258 5.447 -218.101
v -213.184 5.447 -229.688
f 224 223 222 221
f 217 218 222 221
f 218 219 223 222
f 219 220 224 223
f 220 217 221 224
v -135.099 0.279 -216.409
v -130.564 0.279 -222.780
v -124.821 0.279 -218.691
v -129.356 0.279 -212.320
v -135.099 4.179 -216.409
v -130.564 4.179 -222.780
v -124.821 4.179 -218.691
v -129.356 4.179 -212.320
f 232 231 230 229
f 225 226 230 229
f 226 227 231 230
f 227 228 232 231
f 228 225 229 232
v -146.708 1.193 -233.279
v -132.285 1.193 -230.654
v -134.132 1.193 -220.501
v -148.555 1.193 -223.126
v -146.708 5.093 -233.279
v -132.285 5.093 -230.654
v -134.132 5.093 -220.501
v -148.555 5.093 -223.126
f 240 239 238 237
f 233 234 238 237
f 234 235 239 238
f 235 236 240 239
f 236 233 237 240
v -134.942 1.066 -229.945
v -132.605 1.066 -237.628
v -127.238 1.066 -235.995
v -129.575 1.066 -228.312
v -134.942 4.966 -229.945
v -132.605 4.966 -237.628
v -127.238 4.966 -235.995
v -129.575 4.966 -228.312
f 248 247 246 245
f 241 242 246 245
f 242 243 247 246
f 243 244 248 247
f 244 241 245 248
v 223.830 1.213 -234.056
v 226.697 1.213 -256.000
v 242.890 1.213 -253.884
v 240.023 1.213 -231.940
v 223.830 5.113 -234.056
v 226.697 5.113 -256.000
v 242.890 5.113 -253.884
v 240.023 5.113 -231.940
f 256 255 254 253
f 249 250 254 253
f 250 251 255 254
f 251 252 256 255
f 252 249 253 256
v 211.459 0.037 -232.513
v 216.699 0.037 -249.168
v 228.461 0.037 -245.467
v 223.221 0.037 -228.812
v 211.459 3.937 -232.513
v 216.699 3.937 -249.168
v 228.461 3.937 -245.467
v 223.221 3.937 -228.812
f 264 263 262 261
f 257 258 262 261
f 258 259 263 262
f 259 260 264 263
f 260 257 261 264
v 199.259 0.746 -228.282
v 205.213 0.746 -244.728
v 213.581 0.746 -241.698
v 207.627 0.746 -225.252
v 199.259 4.646 -228.282
v 205.213 4.646 -244.728
v 213.581 4.646 -241.698
v 207.627 4.646 -225.252
f 272 271 270 269
f 265 266 270 269
f 266 267 271 270
f 267 268 272 271
f 268 265 269 272
v 182.556 0.650 -223.467
v 188.396 0.650 -239.603
v 199.144 0.650 -235.713
v 193.304 0.650 -219.577
v 182.556 4.550 -223.467
v 188.396 4.550 -239.603
v 199.144 4.550 -235.713
v 193.304 4.550 -219.577
f 280 279 278 277
f 273 274 278 277
f 274 275 279 278
f 275 276 280 279
f 276 273 277 280
v 174.666 0.654 -237.019
v 177.162 0.654 -241.942
v 182.014 0.654 -239.481
v 179.518 0.654 -234.558
v 174.666 4.554 -237.019
v 177.162 4.554 -241.942
v 182.014 4.554 -239.481
v 179.518 4.554 -234.558
f 288 287 286 285
f 281 282 286 285
f 282 283 287 286
f 283 284 288 287
f 284 281 285 288
v 169.728 0.733 -216.655
v 175.588 0.733 -233.346
v 184.532 0.733 -230.205
v 178.672 0.733 -213.514
v 169.728 4.633 -216.655
v 175.588 4.633 -233.346
v 184.532 4.633 -230.205
v 178.672 4.633 -213.514
f 296 295 294 293
f 289 290 294 293
f 290 291 295 294
f 291 292 296 295
f 292 289 293 296
v 165.060 0.706 -240.369
v 169.776 0.706 -209.599
v 148.060 0.706 -206.271
v 143.344 0.706 -237.041
v 165.060 4.606 -240.369
v 169.776 4.606 -209.599
v 148.060 4.606 -206.271
v 143.344 4.606 -237.041
f 304 303 302 301
f 297 298 302 301
f 298 299 303 302
f 299 300 304 303
f 300 297 301 304
v 125.384 0.874 -242.952
v 127.742 0.874 -262.067
v 142.976 0.874 -260.188
v 140.618 0.874 -241.073
v 125.384 4.774 -242.952
v 127.742 4.774 -262.067
v 142.976 4.774 -260.188
v 140.618 4.774 -241.073
f 312 311 310 309
f 305 306 310 309
f 306 307 311 310
f 307 308 312 311
f 308 305 309 312
v 111.593 0.775 -239.713
v 114.896 0.775 -255.358
v 129.347 0.775 -252.307
v 126.044 0.775 -236.662
v 111.593 4.675 -239.713
v 114.896 4.675 -255.358
v 129.347 4.675 -252.307
v 126.044 4.675 -236.662
f 320 319 318 317
f 313 314 318 317
f 314 315 319 318
f 315 316 320 319
f 316 313 317 320
v 96.636 0.810 -231.184
v 98.035 0.810 -251.285
v 114.824 0.810 -250.116
v 113.425 0.810 -230.015
v 96.636 4.710 -231.184
v 98.035 4.710 -251.285
v 114.824 4.710 -250.116
v 113.425 4.710 -230.015
f 328 327 326 325
f 321 322 326 325
f 322 323 327 326
f 323 324 328 327
f 324 321 325 328
v 127.136 0.954 -211.932
v 129.486 0.954 -192.685
v 109.524 0.954 -190.248
v 107.174 0.954 -209.495
v 127.136 4.854 -211.932
v 129.486 4.854 -192.685
v 109.524 4.854 -190.248
v 107.174 4.854 -209.495
f 336 335 334 333
f 329 330 334 333
f 330 331 335 334
f 331 332 336 335
f 332 329 333 336
v 97.294 0.675 -215.418
v 107.563 0.675 -211.792
v 104.586 0.675 -203.362
v 94.317 0.675 -206.988
v 97.294 4.575 -215.418
v 107.563 4.575 -211.792
v 104.586 4.575 -203.362
v 94.317 4.575 -206.988
f 344 343 342 341
f 337 338 342 341
f 338 339 343 342
f 339 340 344 343
f 340 337 341 344
v 98.437 0.566 -195.651
v 100.929 0.566 -201.870
v 106.323 0.566 -199.709
v 103.831 0.566 -193.490
v 98.437 4.466 -195.651
v 100.929 4.466 -201.870
v 106.323 4.466 -199.709
v 103.831 4.466 -193.490
f 352 351 350 349
f 345 346 350 349
f 346 347 351 350
f 347 348 352 351
f 348 345 349 352
v 88.552 0.897 -247.462
v 100.180 0.897 -241.152
v 94.008 0.897 -229.778
v 82.380 0.897 -236.088
v 88.552 4.797 -247.462
v 100.180 4.797 -241.152
v 94.008 4.797 -229.778
v 82.380 4.797 -236.088
f 360 359 358 357
f 353 354 358 357
f 354 355 359 358
f 355 356 360 359
f 356 353 357 360
v 67.730 1.006 -226.209
v 72.838 1.006 -241.150
v 85.650 1.006 -236.771
v 80.542 1.006 -221.830
v 67.730 4.906 -226.209
v 72.838 4.906 -241.150
v 85.650 4.906 -236.771
v 80.542 4.906 -221.830
f 368 367 366 365
f 361 362 366 365
f 362 363 367 366
f 363 364 368 367
f 364 361 365 368
v 80.752 0.893 -220.860
v 92.126 0.893 -216.645
v 89.648 0.893 -209.960
v 78.274 0.893 -214.175
v 80.752 4.793 -220.860
v 92.126 4.793 -216.645
v 89.648 4.793 -209.960
v 78.274 4.793 -214.175
f 376 375 374 373
f 369 370 374 373
f 370 371 375 374
f 371 372 376 375
f 372 369 373 376
v 56.504 0.792 -223.428
v 61.709 0.792 -239.758
v 71.456 0.792 -236.652
v 66.251 0.792 -220.322
v 56.504 4.692 -223.428
v 61.709 4.692 -239.758
v 71.456 4.692 -236.652
v 66.251 4.692 -220.322
f 384 383 382 381
f 377 378 382 381
f 378 379 383 382
f 379 380 384 383
f 380 377 381 384
v 61.657 0.411 -215.111
v 65.321 0.411 -223.800
v 73.743 0.411 -220.249
v 70.079 0.411 -211.560
v 61.657 4.311 -215.111
v 65.321 4.311 -223.800
v 73.743 4.311 -220.249
v 70.079 4.311 -211.560
f 392 391 390 389
f 385 386 390 389
f 386 387 391 390
f 387 388 392 391
f 388 385 389 392
v 63.236 0.798 -214.248
v 75.897 0.798 -211.043
v 74.304 0.798 -204.752
v 61.643 0.798 -207.957
v 63.236 4.698 -214.248
v 75.897 4.698 -211.043
v 74.304 4.698 -204.752
v 61.643 4.698 -207.957
f 400 399 398 397
f 393 394 398 397
f 394 395 399 398
f 395 396 400 399
f 396 393 397 400
v 78.164 0.735 -206.632
v 90.262 0.735 -202.735
v 88.076 0.735 -195.948
v 75.978 0.735 -199.845
v 78.164 4.635 -206.632
v 90.262 4.635 -202.735
v 88.076 4.635 -195.948
v 75.978 4.635 -199.845
f 408 407 406 405
f 401 402 406 405
f 402 403 407 406
f 403 404 408 407
f 404 401 405 408
v -128.920 1.378 -221.182
v -112.617 1.378 -234.608
v -100.800 1.378 -220.258
v -117.103 1.378 -206.832
v -128.920 5.278 -221.182
v -112.617 5.278 -234.608
v -100.800 5.278 -220.258
v -117.103 5.278 -206.832
f 416 415 414 413
f 409 410 414 413
f 410 411 415 414
f 411 412 416 415
f 412 409 413 416
v -114.741 1.169 -231.099
v -111.481 1.169 -240.246
v -106.639 1.169 -238.521
v -109.899 1.169 -229.374
v -114.741 5.069 -231.099
v -111.481 5.069 -240.246
v -106.639 5.069 -238.521
v -109.899 5.069 -229.374
f 424 423 422 421
f 417 418 422 421
f 418 419 423 422
f 419 420 424 423
f 420 417 421 424
v -83.892 1.074 -227.142
v -73.513 1.074 -242.949
v -61.008 1.074 -234.738
v -71.387 1.074 -218.931
v -83.892 4.974 -227.142
v -73.513 4.974 -242.949
v -61.008 4.974 -234.738
v -71.387 4.974 -218.931
f 432 431 430 429
f 425 426 430 429
f 426 427 431 430
f 427 428 432 431
f 428 425 429 432
v -104.584 1.055 -218.853
v -97.366 1.055 -235.920
v -82.676 1.055 -229.707
v -89.894 1.055 -212.640
v -104.584 4.955 -218.853
v -97.366 4.955 -235.920
v -82.676 4.955 -229.707
v -89.894 4.955 -212.640
f 440 439 438 437
f 433 434 438 437
f 434 435 439 438
f 435 436 440 439
f 436 433 437 440
v -114.323 1.411 -253.022
v -103.758 1.411 -249.488
v -106.337 1.411 -241.778
v -116.902 1.411 -245.312
v -114.323 5.311 -253.022
v -103.758 5.311 -249.488
v -106.337 5.311 -241.778
v -116.902 5.311 -245.312
f 448 447 446 445
f 441 442 446 445
f 442 443 447 446
f 443 444 448 447
f 444 441 445 448
v -64.918 1.042 -227.931
v -60.788 1.042 -246.323
v -47.362 1.042 -243.309
v -51.492 1.042 -224.917
v -64.918 4.942 -227.931
v -60.788 4.942 -246.323
v -47.362 4.942 -243.309
v -51.492 4.942 -224.917
f 456 455 454 453
f 449 450 454 453
f 450 451 455 454
f 451 452 456 455
f 452 449 453 456
v -51.020 1.250 -233.517
v -49.206 1.250 -252.490
v -30.720 1.250 -250.723
v -32.534 1.250 -231.750
v -51.020 5.150 -233.517
v -49.206 5.150 -252.490
v -30.720 5.150 -250.723
v -32.534 5.150 -231.750
f 464 463 462 461
f 457 458 462 461
f 458 459 463 462
f 459 460 464 463
f 460 457 461 464
v -26.367 1.357 -241.756
v -23.177 1.357 -250.097
v -16.293 1.357 -247.464
v -19.483 1.357 -239.123
v -26.367 5.257 -241.756
v -23.177 5.257 -250.097
v -16.293 5.257 -247.464
v -19.483 5.257 -239.123
f 472 471 470 469
f 465 466 470 469
f 466 467 471 470
f 467 468 472 471
f 468 465 469 472
v -22.455 1.095 -245.803
v -15.000 1.095 -266.268
v -4.045 1.095 -262.277
v -11.500 1.095 -241.812
v -22.455 4.995 -245.803
v -15.000 4.995 -266.268
v -4.045 4.995 -262.277
v -11.500 4.995 -241.812
f 480 479 478 477
f 473 474 478 477
f 474 475 479 478
f 475 476 480 479
f 476 473 477 480
v -109.544 1.043 -155.140
v -99.754 1.043 -185.700
v -86.516 1.043 -181.460
v -96.306 1.043 -150.900
v -109.544 4.943 -155.140
v -99.754 4.943 -185.700
v -86.516 4.943 -181.460
v -96.306 4.943 -150.900
f 488 487 486 485
f 481 482 486 485
f 482 483 487 486
f 483 484 488 487
f 484 481 485 488
v -104.941 0.634 -149.534
v -103.549 0.634 -153.613
v -100.539 0.634 -152.586
v -101.931 0.634 -148.507
v -104.941 4.534 -149.534
v -103.549 4.534 -153.613
v -100.539 4.534 -152.586
v -101.931 4.534 -148.507
f 496 495 494 493
f 489 490 494 493
f 490 491 495 494
f 491 492 496 495
f 492 489 493 496
v -123.117 0.768 -119.662
v -112.024 0.768 -140.504
v -101.643 0.768 -134.978
v -112.736 0.768 -114.136
v -123.117 4.668 -119.662
v -112.024 4.668 -140.504
v -101.643 4.668 -134.978
v -112.736 4.668 -114.136
f 504 503 502 501
f 497 498 502 501
f 498 499 503 502
f 499 500 504 503
f 500 497 501 504
v -110.410 0.729 -123.212
v -104.026 0.729 -137.171
v -90.330 0.729 -130.908
v -96.714 0.729 -116.949
v -110.410 4.629 -123.212
v -104.026 4.629 -137.171
v -90.330 4.629 -130.908
v -96.714 4.629 -116.949
f 512 511 510 509
f 505 506 510 509
f 506 507 511 510
f 507 508 512 511
f 508 505 509 512
v -94.958 0.656 -126.323
v -86.854 0.656 -143.707
v -75.162 0.656 -138.257
v -83.266 0.656 -120.873
v -94.958 4.556 -126.323
v -86.854 4.556 -143.707
v -75.162 4.556 -138.257
v -83.266 4.556 -120.873
f 520 519 518 517
f 513 514 518 517
f 514 515 519 518
f 515 516 520 519
f 516 513 517 520
v -79.009 0.486 -129.596
v -75.038 0.486 -147.234
v -62.111 0.486 -144.324
v -66.082 0.486 -126.686
v -79.009 4.386 -129.596
v -75.038 4.386 -147.234
v -62.111 4.386 -144.324
v -66.082 4.386 -126.686
f 528 527 526 525
f 521 522 526 525
f 522 523 527 526
f 523 524 528 527
f 524 521 525 528
v -64.464 0.422 -136.737
v -60.351 0.422 -154.220
v -47.356 0.422 -151.163
v -51.469 0.422 -133.680
v -64.464 4.322 -136.737
v -60.351 4.322 -154.220
v -47.356 4.322 -151.163
v -51.469 4.322 -133.680
f 536 535 534 533
f 529 530 534 533
f 530 531 535 534
f 531 532 536 535
f 532 529 533 536
v -52.279 0.566 -140.241
v -45.316 0.566 -157.510
v -31.201 0.566 -151.819
v -38.164 0.566 -134.550
v -52.279 4.466 -140.241
v -45.316 4.466 -157.510
v -31.201 4.466 -151.819
v -38.164 4.466 -134.550
f 544 543 542 541
f 537 538 542 541
f 538 539 543 542
f 539 540 544 543
f 540 537 541 544
v -35.426 0.899 -144.716
v -32.658 0.899 -164.009
v -16.454 0.899 -161.684
v -19.222 0.899 -142.391
v -35.426 4.799 -144.716
v -32.658 4.799 -164.009
v -16.454 4.799 -161.684
v -19.222 4.799 -142.391
f 552 551 550 549
f 545 546 550 549
f 546 547 551 550
f 547 548 552 551
f 548 545 549 552
v -24.089 0.583 -155.132
v -16.005 0.583 -170.631
v -6.031 0.583 -165.428
v -14.115 0.583 -149.929
v -24.089 4.483 -155.132
v -16.005 4.483 -170.631
v -6.031 4.483 -165.428
v -14.115 4.483 -149.929
f 560 559 558 557
f 553 554 558 557
f 554 555 559 558
f 555 556 560 559
f 556 553 557 560
v -1.878 0.690 -178.735
v 16.256 0.690 -171.483
v 11.258 0.690 -158.985
v -6.876 0.690 -166.237
v -1.878 4.590 -178.735
v 16.256 4.590 -171.483
v 11.258 4.590 -158.985
v -6.876 4.590 -166.237
f 568 567 566 565
f 561 562 566 565
f 562 563 567 566
f 563 564 568 567
f 564 561 565 568
v 13.866 0.654 -188.359
v 36.652 0.654 -195.734
v 42.274 0.654 -178.361
v 19.488 0.654 -170.986
v 13.866 4.554 -188.359
v 36.652 4.554 -195.734
v 42.274 4.554 -178.361
v 19.488 4.554 -170.986
f 576 575 574 573
f 569 570 574 573
f 570 571 575 574
f 571 572 576 575
f 572 569 573 576
v 22.179 0.976 -206.108
v 30.412 0.976 -227.724
v 40.841 0.976 -223.752
v 32.608 0.976 -202.136
v 22.179 4.876 -206.108
v 30.412 4.876 -227.724
v 40.841 4.876 -223.752
v 32.608 4.876 -202.136
f 584 583 582 581
f 577 578 582 581
f 578 579 583 582
f 579 580 584 583
f 580 577 581 584
v -1.812 1.183 -225.505
v 27.614 1.183 -208.533
v 17.372 1.183 -190.775
v -12.054 1.183 -207.747
v -1.812 6.983 -225.505
v 27.614 6.983 -208.533
v 17.372 6.983 -190.775
v -12.054 6.983 -207.747
f 592 591 590 589
f 585 586 590 589
f 586 587 591 590
f 587 588 592 591
f 588 585 589 592
v -35.139 0.867 -190.024
v -28.577 0.867 -207.118
v -17.421 0.867 -202.836
v -23.983 0.867 -185.742
v -35.139 4.767 -190.024
v -28.577 4.767 -207.118
v -17.421 4.767 -202.836
v -23.983 4.767 -185.742
f 600 599 598 597
f 593 594 598 597
f 594 595 599 598
f 595 596 600 599
f 596 593 597 600
v -49.576 1.004 -182.865
v -47.350 1.004 -201.784
v -33.844 1.004 -200.195
v -36.070 1.004 -181.276
v -49.576 4.904 -182.865
v -47.350 4.904 -201.784
v -33.844 4.904 -200.195
v -36.070 4.904 -181.276
f 608 607 606 605
f 601 602 606 605
f 602 603 607 606
f 603 604 608 607
f 604 601 605 608
v -68.035 1.022 -188.184
v -53.741 1.022 -201.551
v -43.065 1.022 -190.136
v -57.359 1.022 -176.769
v -68.035 4.922 -188.184
v -53.741 4.922 -201.551
v -43.065 4.922 -190.136
v -57.359 4.922 -176.769
f 616 615 614 613
f 609 610 614 613
f 610 611 615 614
f 611 612 616 615
f 612 609 613 616
v -76.150 0.736 -173.700
v -68.384 0.736 -192.044
v -59.350 0.736 -188.220
v -67.116 0.736 -169.876
v -76.150 4.636 -173.700
v -68.384 4.636 -192.044
v -59.350 4.636 -188.220
v -67.116 4.636 -169.876
f 624 623 622 621
f 617 618 622 621
f 618 619 623 622
f 619 620 624 623
f 620 617 621 624
v -55.316 0.527 -169.219
v -51.185 0.527 -168.264
v -52.124 0.527 -164.201
v -56.255 0.527 -165.156
v -55.316 4.427 -169.219
v -51.185 4.427 -168.264
v -52.124 4.427 -164.201
v -56.255 4.427 -165.156
f 632 631 630 629
f 625 626 630 629
f 626 627 631 630
f 627 628 632 631
f 628 625 629 632
v -91.680 0.737 -169.708
v -85.814 0.737 -186.418
v -74.520 0.737 -182.452
v -80.386 0.737 -165.742
v -91.680 4.637 -169.708
v -85.814 4.637 -186.418
v -74.520 4.637 -182.452
v -80.386 4.637 -165.742
f 640 639 638 637
f 633 634 638 637
f 634 635 639 638
f 635 636 640 639
f 636 633 637 640
v -77.127 0.784 -159.306
v -75.202 0.784 -163.888
v -70.693 0.784 -161.994
v -72.618 0.784 -157.412
v -77.127 4.684 -159.306
v -75.202 4.684 -163.888
v -70.693 4.684 -161.994
v -72.618 4.684 -157.412
f 648 647 646 645
f 641 642 646 645
f 642 643 647 646
f 643 644 648 647
f 644 641 645 648
v -252.257 0.427 -70.771
v -246.069 0.427 -92.684
v -236.243 0.427 -89.909
v -242.431 0.427 -67.996
v -252.257 4.327 -70.771
v -246.069 4.327 -92.684
v -236.243 4.327 -89.909
v -242.431 4.327 -67.996
f 656 655 654 653
f 649 650 654 653
f 650 651 655 654
f 651 652 656 655
f 652 649 653 656
v -237.881 0.500 -75.457
v -232.781 0.500 -89.734
v -223.119 0.500 -86.283
v -228.219 0.500 -72.006
v -237.881 4.400 -75.457
v -232.781 4.400 -89.734
v -223.119 4.400 -86.283
v -228.219 4.400 -72.006
f 664 663 662 661
f 657 658 662 661
f 658 659 663 662
f 659 660 664 663
f 660 657 661 664
v -225.888 0.412 -83.025
v -218.689 0.412 -97.482
v -207.992 0.412 -92.155
v -215.191 0.412 -77.698
v -225.888 4.312 -83.025
v -218.689 4.312 -97.482
v -207.992 4.312 -92.155
v -215.191 4.312 -77.698
f 672 671 670 669
f 665 666 670 669
f 666 667 671 670
f 667 668 672 671
f 668 665 669 672
v -210.439 0.547 -86.432
v -206.048 0.547 -101.255
v -195.021 0.547 -97.988
v -199.412 0.547 -83.165
v -210.439 4.447 -86.432
v -206.048 4.447 -101.255
v -195.021 4.447 -97.988
v -199.412 4.447 -83.165
f 680 679 678 677
f 673 674 678 677
f 674 675 679 678
f 675 676 680 679
f 676 673 677 680
v -193.664 0.685 -96.893
v -183.858 0.685 -110.088
v -173.416 0.685 -102.327
v -183.222 0.685 -89.132
v -193.664 4.585 -96.893
v -183.858 4.585 -110.088
v -173.416 4.585 -102.327
v -183.222 4.585 -89.132
f 688 687 686 685
f 681 682 686 685
f 682 683 687 686
f 683 684 688 687
f 684 681 685 688
v -183.864 0.676 -110.563
v -182.103 0.676 -115.350
v -178.696 0.676 -114.097
v -180.457 0.676 -109.310
v -183.864 4.576 -110.563
v -182.103 4.576 -115.350
v -178.696 4.576 -114.097
v -180.457 4.576 -109.310
f 696 695 694 693
f 689 690 694 693
f 690 691 695 694
f 691 692 696 695
f 692 689 693 696
v -182.107 0.622 -104.304
v -163.417 0.622 -125.739
v -150.913 0.622 -114.836
v -169.603 0.622 -93.401
v -182.107 4.522 -104.304
v -163.417 4.522 -125.739
v -150.913 4.522 -114.836
v -169.603 4.522 -93.401
f 704 703 702 701
f 697 698 702 701
f 698 699 703 702
f 699 700 704 703
f 700 697 701 704
v -141.626 0.471 -121.185
v -134.445 0.471 -105.753
v -150.774 0.471 -98.155
v -157.955 0.471 -113.587
v -141.626 4.371 -121.185
v -134.445 4.371 -105.753
v -150.774 4.371 -98.155
v -157.955 4.371 -113.587
f 712 711 710 709
f 705 706 710 709
f 706 707 711 710
f 707 708 712 711
f 708 705 709 712
v -160.493 0.578 -118.758
v -159.104 0.578 -122.101
v -155.927 0.578 -120.782
v -157.316 0.578 -117.439
v -160.493 4.478 -118.758
v -159.104 4.478 -122.101
v -155.927 4.478 -120.782
v -157.316 4.478 -117.439
f 720 719 718 717
f 713 714 718 717
f 714 715 719 718
f 715 716 720 719
f 716 713 717 720
v -156.660 0.579 -126.293
v -153.515 0.579 -125.361
v -154.320 0.579 -122.647
v -157.465 0.579 -123.579
v -156.660 4.479 -126.293
v -153.515 4.479 -125.361
v -154.320 4.479 -122.647
v -157.465 4.479 -123.579
f 728 727 726 725
f 721 722 726 725
f 722 723 727 726
f 723 724 728 727
f 724 721 725 728
v -172.484 0.627 -147.278
v -165.190 0.627 -159.204
v -150.636 0.627 -150.302
v -157.930 0.627 -138.376
v -172.484 4.527 -147.278
v -165.190 4.527 -159.204
v -150.636 4.527 -150.302
v -157.930 4.527 -138.376
f 736 735 734 733
f 729 730 734 733
f 730 731 735 734
f 731 732 736 735
f 732 729 733 736
v -179.807 0.141 -155.177
v -164.784 0.141 -127.946
v -180.413 0.141 -119.323
v -195.436 0.141 -146.554
v -179.807 4.041 -155.177
v -164.784 4.041 -127.946
v -180.413 4.041 -119.323
v -195.436 4.041 -146.554
f 744 743 742 741
f 737 738 742 741
f 738 739 743 742
f 739 740 744 743
f 740 737 741 744
v -211.732 0.912 -127.382
v -200.014 0.912 -145.061
v -187.728 0.912 -136.918
v -199.446 0.912 -119.239
v -211.732 4.812 -127.382
v -200.014 4.812 -145.061
v -187.728 4.812 -136.918
v -199.446 4.812 -119.239
f 752 751 750 749
f 745 746 750 749
f 746 747 751 750
f 747 748 752 751
f 748 745 749 752
v -225.291 0.756 -119.230
v -217.763 0.756 -141.376
v -206.449 0.756 -137.530
v -213.977 0.756 -115.384
v -225.291 4.656 -119.230
v -217.763 4.656 -141.376
v -206.449 4.656 -137.530
v -213.977 4.656 -115.384
f 760 759 758 757
f 753 754 758 757
f 754 755 759 758
f 755 756 760 759
f 756 753 757 760
v -236.394 0.773 -136.565
v -224.400 0.773 -133.666
v -227.246 0.773 -121.895
v -239.240 0.773 -124.794
v -236.394 4.673 -136.565
v -224.400 4.673 -133.666
v -227.246 4.673 -121.895
v -239.240 4.673 -124.794
f 768 767 766 765
f 761 762 766 765
f 762 763 767 766
f 763 764 768 767
f 764 761 765 768
v -232.892 0.805 -125.704
v -221.838 0.805 -122.155
v -224.528 0.805 -113.776
v -235.582 0.805 -117.325
v -232.892 4.705 -125.704
v -221.838 4.705 -122.155
v -224.528 4.705 -113.776
v -235.582 4.705 -117.325
f 776 775 774 773
f 769 770 774 773
f 770 771 775 774
f 771 772 776 775
f 772 769 773 776
v -253.803 0.754 -110.463
v -251.563 0.754 -128.544
v -235.357 0.754 -126.537
v -237.597 0.754 -108.456
v -253.803 4.654 -110.463
v -251.563 4.654 -128.544
v -235.357 4.654 -126.537
v -237.597 4.654 -108.456
f 784 783 782 781
f 777 778 782 781
f 778 779 783 782
f 779 780 784 783
f 780 777 781 784
v -150.185 0.588 -7.400
v -139.568 0.588 -23.181
v -125.355 0.588 -13.620
v -135.972 0.588 2.161
v -150.185 4.488 -7.400
v -139.568 4.488 -23.181
v -125.355 4.488 -13.620
v -135.972 4.488 2.161
f 792 791 790 789
f 785 786 790 789
f 786 787 791 790
f 787 788 792 791
f 788 785 789 792
v -145.268 0.654 -19.612
v -144.268 0.654 4.527
v -163.692 0.654 5.332
v -164.692 0.654 -18.807
v -145.268 4.554 -19.612
v -144.268 4.554 4.527
v -163.692 4.554 5.332
v -164.692 4.554 -18.807
f 800 799 798 797
f 793 794 798 797
f 794 795 799 798
f 795 796 800 799
f 796 793 797 800
v -164.095 0.524 -20.149
v -158.524 0.524 9.675
v -178.725 0.524 13.449
v -184.296 0.524 -16.375
v -164.095 4.424 -20.149
v -158.524 4.424 9.675
v -178.725 4.424 13.449
v -184.296 4.424 -16.375
f 808 807 806 805
f 801 802 806 805
f 802 803 807 806
f 803 804 808 807
f 804 801 805 808
v -137.657 0.373 -43.414
v -135.284 0.373 -62.799
v -118.023 0.373 -60.686
v -120.396 0.373 -41.301
v -137.657 4.273 -43.414
v -135.284 4.273 -62.799
v -118.023 4.273 -60.686
v -120.396 4.273 -41.301
f 816 815 814 813
f 809 810 814 813
f 810 811 815 814
f 811 812 816 815
f 812 809 813 816
v -157.310 0.551 -34.092
v -154.983 0.551 -54.963
v -139.430 0.551 -53.228
v -141.757 0.551 -32.357
v -157.310 4.451 -34.092
v -154.983 4.451 -54.963
v -139.430 4.451 -53.228
v -141.757 4.451 -32.357
f 824 823 822 821
f 817 818 822 821
f 818 819 823 822
f 819 820 824 823
f 820 817 821 824
v -179.679 1.118 -19.092
v -178.051 1.118 -48.908
v -157.901 1.118 -47.808
v -159.529 1.118 -17.992
v -179.679 5.018 -19.092
v -178.051 5.018 -48.908
v -157.901 5.018 -47.808
v -159.529 5.018 -17.992
f 832 831 830 829
f 825 826 830 829
f 826 827 831 830
f 827 828 832 831
f 828 825 829 832
v -160.735 0.677 -24.237
v -159.310 0.677 -31.457
v -153.865 0.677 -30.383
v -155.290 0.677 -23.163
v -160.735 4.577 -24.237
v -159.310 4.577 -31.457
v -153.865 4.577 -30.383
v -155.290 4.577 -23.163
f 840 839 838 837
f 833 834 838 837
f 834 835 839 838
f 835 836 840 839
f 836 833 837 840
v -194.712 0.427 -30.231
v -186.577 0.427 -44.838
v -173.848 0.427 -37.749
v -181.983 0.427 -23.142
v -194.712 4.327 -30.231
v -186.577 4.327 -44.838
v -173.848 4.327 -37.749
v -181.983 4.327 -23.142
f 848 847 846 845
f 841 842 846 845
f 842 843 847 846
f 843 844 848 847
f 844 841 845 848
v -214.011 0.721 -22.715
v -203.364 0.721 -39.551
v -188.869 0.721 -30.385
v -199.516 0.721 -13.549
v -214.011 4.621 -22.715
v -203.364 4.621 -39.551
v -188.869 4.621 -30.385
v -199.516 4.621 -13.549
f 856 855 854 853
f 849 850 854 853
f 850 851 855 854
f 851 852 856 855
f 852 849 853 856
v -203.883 0.605 10.708
v -194.600 0.605 -9.138
v -178.757 0.605 -1.728
v -188.040 0.605 18.118
v -203.883 4.505 10.708
v -194.600 4.505 -9.138
v -178.757 4.505 -1.728
v -188.040 4.505 18.118
f 864 863 862 861
f 857 858 862 861
f 858 859 863 862
f 859 860 864 863
f 860 857 861 864
v -194.619 0.497 -13.726
v -192.944 0.497 -18.764
v -188.161 0.497 -17.174
v -189.836 0.497 -12.136
v -194.619 4.397 -13.726
v -192.944 4.397 -18.764
v -188.161 4.397 -17.174
v -189.836 4.397 -12.136
f 872 871 870 869
f 865 866 870 869
f 866 867 871 870
f 867 868 872 871
f 868 865 869 872
v -219.850 0.647 17.624
v -212.849 0.647 -0.961
v -197.090 0.647 4.976
v -204.091 0.647 23.561
v -219.850 4.547 17.624
v -212.849 4.547 -0.961
v -197.090 4.547 4.976
v -204.091 4.547 23.561
f 880 879 878 877
f 873 874 878 877
f 874 875 879 878
f 875 876 880 879
f 876 873 877 880
v -225.284 0.408 8.507
v -223.255 0.408 1.027
v -219.616 0.408 2.013
v -221.645 0.408 9.493
v -225.284 4.308 8.507
v -223.255 4.308 1.027
v -219.616 4.308 2.013
v -221.645 4.308 9.493
f 888 887 886 885
f 881 882 886 885
f 882 883 887 886
f 883 884 888 887
f 884 881 885 888
v -232.977 0.578 21.826
v -223.147 0.578 8.637
v -212.283 0.578 16.734
v -222.113 0.578 29.923
v -232.977 4.478 21.826
v -223.147 4.478 8.637
v -212.283 4.478 16.734
v -222.113 4.478 29.923
f 896 895 894 893
f 889 890 894 893
f 890 891 895 894
f 891 892 896 895
f 892 889 893 896
v -249.783 0.738 29.124
v -245.122 0.738 14.593
v -232.457 0.738 18.656
v -237.118 0.738 33.187
v -249.783 4.638 29.124
v -245.122 4.638 14.593
v -232.457 4.638 18.656
v -237.118 4.638 33.187
f 904 903 902 901
f 897 898 902 901
f 898 899 903 902
f 899 900 904 903
f 900 897 901 904
v -242.324 0.529 -28.197
v -227.423 0.529 -18.849
v -234.076 0.529 -8.243
v -248.977 0.529 -17.591
v -242.324 4.429 -28.197
v -227.423 4.429 -18.849
v -234.076 4.429 -8.243
v -248.977 4.429 -17.591
f 912 911 910 909
f 905 906 910 909
f 906 907 911 910
f 907 908 912 911
f 908 905 909 912
v -265.800 0.676 -6.902
v -249.102 0.676 -23.721
v -238.180 0.676 -12.878
v -254.878 0.676 3.941
v -265.800 4.576 -6.902
v -249.102 4.576 -23.721
v -238.180 4.576 -12.878
v -254.878 4.576 3.941
f 920 919 918 917
f 913 914 918 917
f 914 915 919 918
f 915 916 920 919
f 916 913 917 920
v -10.332 0.889 -15.473
v 20.926 0.889 -20.980
v 25.012 0.889 2.213
v -6.246 0.889 7.720
v -10.332 4.789 -15.473
v 20.926 4.789 -20.980
v 25.012 4.789 2.213
v -6.246 4.789 7.720
f 928 927 926 925
f 921 922 926 925
f 922 923 927 926
f 923 924 928 927
f 924 921 925 928
v 25.416 1.036 -9.270
v 38.798 1.036 -31.012
v 54.204 1.036 -21.530
v 40.822 1.036 0.212
v 25.416 4.936 -9.270
v 38.798 4.936 -31.012
v 54.204 4.936 -21.530
v 40.822 4.936 0.212
f 936 935 934 933
f 929 930 934 933
f 930 931 935 934
f 931 932 936 935
f 932 929 933 936
v 77.425 1.800 -48.112
v 106.565 1.800 -45.456
v 104.975 1.800 -28.008
v 75.835 1.800 -30.664
v 77.425 5.700 -48.112
v 106.565 5.700 -45.456
v 104.975 5.700 -28.008
v 75.835 5.700 -30.664
f 944 943 942 941
f 937 938 942 941
f 938 939 943 942
f 939 940 944 943
f 940 937 941 944
v 88.764 0.197 -23.031
v 90.384 0.197 -26.885
v 93.656 0.197 -25.509
v 92.036 0.197 -21.655
v 88.764 4.097 -23.031
v 90.384 4.097 -26.885
v 93.656 4.097 -25.509
v 92.036 4.097 -21.655
f 952 951 950 949
f 945 946 950 949
f 946 947 951 950
f 947 948 952 951
f 948 945 949 952
v 116.716 0.818 -57.991
v 140.700 0.818 -50.291
v 136.044 0.818 -35.789
v 112.060 0.818 -43.489
v 116.716 4.718 -57.991
v 140.700 4.718 -50.291
v 136.044 4.718 -35.789
v 112.060 4.718 -43.489
f 960 959 958 957
f 953 954 958 957
f 954 955 959 958
f 955 956 960 959
f 956 953 957 960
v 143.295 0.940 -68.611
v 165.515 0.940 -61.731
v 161.365 0.940 -48.329
v 139.145 0.940 -55.209
v 143.295 4.840 -68.611
v 165.515 4.840 -61.731
v 161.365 4.840 -48.329
v 139.145 4.840 -55.209
f 968 967 966 965
f 961 962 966 965
f 962 963 967 966
f 963 964 968 967
f 964 961 965 968
v 142.961 0.124 -47.014
v 148.571 0.124 -46.437
v 147.999 0.124 -40.866
v 142.389 0.124 -41.443
v 142.961 4.024 -47.014
v 148.571 4.024 -46.437
v 147.999 4.024 -40.866
v 142.389 4.024 -41.443
f 976 975 974 973
f 969 970 974 973
f 970 971 975 974
f 971 972 976 975
f 972 969 973 976
v 174.424 1.047 -84.021
v 199.895 1.047 -68.649
v 188.796 1.047 -50.259
v 163.325 1.047 -65.631
v 174.424 4.947 -84.021
v 199.895 4.947 -68.649
v 188.796 4.947 -50.259
v 163.325 4.947 -65.631
f 984 983 982 981
f 977 978 982 981
f 978 979 983 982
f 979 980 984 983
f 980 977 981 984
v 156.380 1.001 -113.274
v 183.162 1.001 -103.855
v 177.940 1.001 -89.006
v 151.158 1.001 -98.425
v 156.380 4.901 -113.274
v 183.162 4.901 -103.855
v 177.940 4.901 -89.006
v 151.158 4.901 -98.425
f 992 991 990 989
f 985 986 990 989
f 986 987 991 990
f 987 988 992 991
f 988 985 989 992
v 145.892 0.807 -114.271
v 148.786 0.807 -122.983
v 155.628 0.807 -120.709
v 152.734 0.807 -111.997
v 145.892 4.707 -114.271
v 148.786 4.707 -122.983
v 155.628 4.707 -120.709
v 152.734 4.707 -111.997
f 1000 999 998 997
f 993 994 998 997
f 994 995 999 998
f 995 996 1000 999
f 996 993 997 1000
v 120.599 0.776 -99.873
v 139.439 0.776 -84.860
v 126.121 0.776 -68.147
v 107.281 0.776 -83.160
v 120.599 4.676 -99.873
v 139.439 4.676 -84.860
v 126.121 4.676 -68.147
v 107.281 4.676 -83.160
f 1008 1007 1006 1005
f 1001 1002 1006 1005
f 1002 1003 1007 1006
f 1003 1004 1008 1007
f 1004 1001 1005 1008
v 115.608 0.718 -114.406
v 133.370 0.718 -90.827
v 116.972 0.718 -78.474
v 99.210 0.718 -102.053
v 115.608 4.618 -114.406
v 133.370 4.618 -90.827
v 116.972 4.618 -78.474
v 99.210 4.618 -102.053
f 1016 1015 1014 1013
f 1009 1010 1014 1013
f 1010 1011 1015 1014
f 1011 1012 1016 1015
f 1012 1009 1013 1016
v 103.410 0.912 -129.321
v 117.883 0.912 -124.267
v 113.270 0.912 -111.059
v 98.797 0.912 -116.113
v 103.410 4.812 -129.321
v 117.883 4.812 -124.267
v 113.270 4.812 -111.059
v 98.797 4.812 -116.113
f 1024 1023 1022 1021
f 1017 1018 1022 1021
f 1018 1019 1023 1022
f 1019 1020 1024 1023
f 1020 1017 1021 1024
v 97.026 0.868 -149.159
v 116.531 0.868 -141.324
v 109.974 0.868 -125.001
v 90.469 0.868 -132.836
v 97.026 4.768 -149.159
v 116.531 4.768 -141.324
v 109.974 4.768 -125.001
v 90.469 4.768 -132.836
f 1032 1031 1030 1029
f 1025 1026 1030 1029
f 1026 1027 1031 1030
f 1027 1028 1032 1031
f 1028 1025 1029 1032
v 201.224 0.805 -125.773
v 231.093 0.805 -129.576
v 233.636 0.805 -109.607
v 203.767 0.805 -105.804
v 201.224 4.705 -125.773
v 231.093 4.705 -129.576
v 233.636 4.705 -109.607
v 203.767 4.705 -105.804
f 1040 1039 1038 1037
f 1033 1034 1038 1037
f 1034 1035 1039 1038
f 1035 1036 1040 1039
f 1036 1033 1037 1040
v 210.062 0.794 -149.794
v 224.046 0.794 -134.074
v 207.018 0.794 -118.926
v 193.034 0.794 -134.646
v 210.062 4.694 -149.794
v 224.046 4.694 -134.074
v 207.018 4.694 -118.926
v 193.034 4.694 -134.646
f 1048 1047 1046 1045
f 1041 1042 1046 1045
f 1042 1043 1047 1046
f 1043 1044 1048 1047
f 1044 1041 1045 1048
v 226.810 0.687 -138.059
v 232.255 0.687 -137.038
v 231.250 0.687 -131.681
v 225.805 0.687 -132.702
v 226.810 4.587 -138.059
v 232.255 4.587 -137.038
v 231.250 4.587 -131.681
v 225.805 4.587 -132.702
f 1056 1055 1054 1053
f 1049 1050 1054 1053
f 1050 1051 1055 1054
f 1051 1052 1056 1055
f 1052 1049 1053 1056
v 214.545 0.761 -139.661
v 218.431 0.761 -147.164
v 225.855 0.761 -143.319
v 221.969 0.761 -135.816
v 214.545 4.661 -139.661
v 218.431 4.661 -147.164
v 225.855 4.661 -143.319
v 221.969 4.661 -135.816
f 1064 1063 1062 1061
f 1057 1058 1062 1061
f 1058 1059 1063 1062
f 1059 1060 1064 1063
f 1060 1057 1061 1064
v 194.492 0.916 -160.190
v 214.571 0.916 -155.155
v 210.808 0.916 -140.150
v 190.729 0.916 -145.185
v 194.492 4.816 -160.190
v 214.571 4.816 -155.155
v 210.808 4.816 -140.150
v 190.729 4.816 -145.185
f 1072 1071 1070 1069
f 1065 1066 1070 1069
f 1066 1067 1071 1070
f 1067 1068 1072 1071
f 1068 1065 1069 1072
v 202.882 1.127 -181.166
v 205.201 1.127 -159.992
v 187.318 1.127 -158.034
v 184.999 1.127 -179.208
v 202.882 5.027 -181.166
v 205.201 5.027 -159.992
v 187.318 5.027 -158.034
v 184.999 5.027 -179.208
f 1080 1079 1078 1077
f 1073 1074 1078 1077
f 1074 1075 1079 1078
f 1075 1076 1080 1079
f 1076 1073 1077 1080
v 152.078 0.836 -151.585
v 179.287 0.836 -139.309
v 172.522 0.836 -124.315
v 145.313 0.836 -136.591
v 152.078 4.736 -151.585
v 179.287 4.736 -139.309
v 172.522 4.736 -124.315
v 145.313 4.736 -136.591
f 1088 1087 1086 1085
f 1081 1082 1086 1085
f 1082 1083 1087 1086
f 1083 1084 1088 1087
f 1084 1081 1085 1088
v 131.558 1.004 -160.220
v 160.575 1.004 -157.542
v 158.662 1.004 -136.800
v 129.645 1.004 -139.478
v 131.558 4.904 -160.220
v 160.575 4.904 -157.542
v 158.662 4.904 -136.800
v 129.645 4.904 -139.478
f 1096 1095 1094 1093
f 1089 1090 1094 1093
f 1090 1091 1095 1094
f 1091 1092 1096 1095
f 1092 1089 1093 1096
v 50.298 0.744 -134.266
v 69.004 0.744 -123.505
v 60.622 0.744 -108.934
v 41.916 0.744 -119.695
v 50.298 4.644 -134.266
v 69.004 4.644 -123.505
v 60.622 4.644 -108.934
v 41.916 4.644 -119.695
f 1104 1103 1102 1101
f 1097 1098 1102 1101
f 1098 1099 1103 1102
f 1099 1100 1104 1103
f 1100 1097 1101 1104
v 59.793 0.587 -117.688
v 63.426 0.587 -116.540
v 62.507 0.587 -113.632
v 58.874 0.587 -114.780
v 59.793 4.487 -117.688
v 63.426 4.487 -116.540
v 62.507 4.487 -113.632
v 58.874 4.487 -114.780
f 1112 1111 1110 1109
f 1105 1106 1110 1109
f 1106 1107 1111 1110
f 1107 1108 1112 1111
f 1108 1105 1109 1112
v 52.071 0.822 -112.336
v 69.752 0.822 -103.116
v 62.049 0.822 -88.344
v 44.368 0.822 -97.564
v 52.071 4.722 -112.336
v 69.752 4.722 -103.116
v 62.049 4.722 -88.344
v 44.368 4.722 -97.564
f 1120 1119 1118 1117
f 1113 1114 1118 1117
f 1114 1115 1119 1118
f 1115 1116 1120 1119
f 1116 1113 1117 1120
v 56.646 0.886 -76.928
v 87.455 0.886 -63.980
v 82.434 0.886 -52.032
v 51.625 0.886 -64.980
v 56.646 4.786 -76.928
v 87.455 4.786 -63.980
v 82.434 4.786 -52.032
v 51.625 4.786 -64.980
f 1128 1127 1126 1125
f 1121 1122 1126 1125
f 1122 1123 1127 1126
f 1123 1124 1128 1127
f 1124 1121 1125 1128
v 16.636 0.793 -62.536
v 34.968 0.793 -52.191
v 26.544 0.793 -37.264
v 8.212 0.793 -47.609
v 16.636 4.693 -62.536
v 34.968 4.693 -52.191
v 26.544 4.693 -37.264
v 8.212 4.693 -47.609
f 1136 1135 1134 1133
f 1129 1130 1134 1133
f 1130 1131 1135 1134
f 1131 1132 1136 1135
f 1132 1129 1133 1136
v 15.064 0.663 -85.126
v 42.026 0.663 -73.254
v 35.896 0.663 -59.334
v 8.934 0.663 -71.206
v 15.064 4.563 -85.126
v 42.026 4.563 -73.254
v 35.896 4.563 -59.334
v 8.934 4.563 -71.206
f 1144 1143 1142 1141
f 1137 1138 1142 1141
f 1138 1139 1143 1142
f 1139 1140 1144 1143
f 1140 1137 1141 1144
v 3.509 0.615 -72.826
v 10.738 0.615 -71.027
v 9.291 0.615 -65.214
v 2.062 0.615 -67.013
v 3.509 4.515 -72.826
v 10.738 4.515 -71.027
v 9.291 4.515 -65.214
v 2.062 4.515 -67.013
f 1152 1151 1150 1149
f 1145 1146 1150 1149
f 1146 1147 1151 1150
f 1147 1148 1152 1151
f 1148 1145 1149 1152
v -0.842 0.770 -119.376
v 29.872 0.770 -103.949
v 21.622 0.770 -87.524
v -9.092 0.770 -102.951
v -0.842 4.670 -119.376
v 29.872 4.670 -103.949
v 21.622 4.670 -87.524
v -9.092 4.670 -102.951
f 1160 1159 1158 1157
f 1153 1154 1158 1157
f 1154 1155 1159 1158
f 1155 1156 1160 1159
f 1156 1153 1157 1160
v -33.320 0.843 -76.136
v -14.796 0.843 -69.002
v -20.780 0.843 -53.464
v -39.304 0.843 -60.598
v -33.320 4.743 -76.136
v -14.796 4.743 -69.002
v -20.780 4.743 -53.464
v -39.304 4.743 -60.598
f 1168 1167 1166 1165
f 1161 1162 1166 1165
f 1162 1163 1167 1166
f 1163 1164 1168 1167
f 1164 1161 1165 1168
v -27.174 0.798 -30.149
v -19.586 0.798 -50.863
v -4.046 0.798 -45.171
v -11.634 0.798 -24.457
v -27.174 4.698 -30.149
v -19.586 4.698 -50.863
v -4.046 4.698 -45.171
v -11.634 4.698 -24.457
f 1176 1175 1174 1173
f 1169 1170 1174 1173
f 1170 1171 1175 1174
f 1171 1172 1176 1175
f 1172 1169 1173 1176
v -40.478 0.669 -49.386
v -30.549 0.669 -46.324
v -32.742 0.669 -39.214
v -42.671 0.669 -42.276
v -40.478 4.569 -49.386
v -30.549 4.569 -46.324
v -32.742 4.569 -39.214
v -42.671 4.569 -42.276
f 1184 1183 1182 1181
f 1177 1178 1182 1181
f 1178 1179 1183 1182
f 1179 1180 1184 1183
f 1180 1177 1181 1184
v -82.154 0.564 -89.567
v -63.739 0.564 -76.190
v -76.246 0.564 -58.973
v -94.661 0.564 -72.350
v -82.154 4.464 -89.567
v -63.739 4.464 -76.190
v -76.246 4.464 -58.973
v -94.661 4.464 -72.350
f 1192 1191 1190 1189
f 1185 1186 1190 1189
f 1186 1187 1191 1190
f 1187 1188 1192 1191
f 1188 1185 1189 1192
v -90.146 0.530 -64.260
v -67.466 0.530 -64.230
v -67.494 0.530 -42.720
v -90.174 0.530 -42.750
v -90.146 4.430 -64.260
v -67.466 4.430 -64.230
v -67.494 4.430 -42.720
v -90.174 4.430 -42.750
f 1200 1199 1198 1197
f 1193 1194 1198 1197
f 1194 1195 1199 1198
f 1195 1196 1200 1199
f 1196 1193 1197 1200
v -78.117 0.636 -45.990
v -64.276 0.636 -41.222
v -68.683 0.636 -28.430
v -82.524 0.636 -33.198
v -78.117 4.536 -45.990
v -64.276 4.536 -41.222
v -68.683 4.536 -28.430
v -82.524 4.536 -33.198
f 1208 1207 1206 1205
f 1201 1202 1206 1205
f 1202 1203 1207 1206
f 1203 1204 1208 1207
f 1204 1201 1205 1208
v -78.997 0.848 -28.839
v -52.575 0.848 -23.685
v -55.423 0.848 -9.081
v -81.845 0.848 -14.235
v -78.997 4.748 -28.839
v -52.575 4.748 -23.685
v -55.423 4.748 -9.081
v -81.845 4.748 -14.235
f 1216 1215 1214 1213
f 1209 1210 1214 1213
f 1210 1211 1215 1214
f 1211 1212 1216 1215
f 1212 1209 1213 1216
v -44.162 0.635 -4.188
v -27.738 0.635 13.407
v -43.938 0.635 28.528
v -60.362 0.635 10.933
v -44.162 4.535 -4.188
v -27.738 4.535 13.407
v -43.938 4.535 28.528
v -60.362 4.535 10.933
f 1224 1223 1222 1221
f 1217 1218 1222 1221
f 1218 1219 1223 1222
f 1219 1220 1224 1223
f 1220 1217 1221 1224
v -90.176 0.530 15.029
v -67.849 0.530 5.566
v -59.064 0.530 26.291
v -81.391 0.530 35.754
v -90.176 4.430 15.029
v -67.849 4.430 5.566
v -59.064 4.430 26.291
v -81.391 4.430 35.754
f 1232 1231 1230 1229
f 1225 1226 1230 1229
f 1226 1227 1231 1230
f 1227 1228 1232 1231
f 1228 1225 1229 1232
v -93.936 0.711 14.165
v -84.982 0.711 41.938
v -112.764 0.711 50.895
v -121.718 0.711 23.122
v -93.936 6.511 14.165
v -84.982 6.511 41.938
v -112.764 6.511 50.895
v -121.718 6.511 23.122
f 1240 1239 1238 1237
f 1233 1234 1238 1237
f 1234 1235 1239 1238
f 1235 1236 1240 1239
f 1236 1233 1237 1240
v -147.921 0.624 41.174
v -137.431 0.624 19.465
v -118.019 0.624 28.846
v -128.509 0.624 50.555
v -147.921 4.524 41.174
v -137.431 4.524 19.465
v -118.019 4.524 28.846
v -128.509 4.524 50.555
f 1248 1247 1246 1245
f 1241 1242 1246 1245
f 1242 1243 1247 1246
f 1243 1244 1248 1247
f 1244 1241 1245 1248
v -264.508 0.990 87.633
v -251.410 0.990 60.532
v -232.052 0.990 69.887
v -245.150 0.990 96.988
v -264.508 6.790 87.633
v -251.410 6.790 60.532
v -232.052 6.790 69.887
v -245.150 6.790 96.988
f 1256 1255 1254 1253
f 1249 1250 1254 1253
f 1250 1251 1255 1254
f 1251 1252 1256 1255
f 1252 1249 1253 1256
v -241.350 0.756 69.873
v -231.469 0.756 55.697
v -216.850 0.756 65.887
v -226.731 0.756 80.063
v -241.350 4.656 69.873
v -231.469 4.656 55.697
v -216.850 4.656 65.887
v -226.731 4.656 80.063
f 1264 1263 1262 1261
f 1257 1258 1262 1261
f 1258 1259 1263 1262
f 1259 1260 1264 1263
f 1260 1257 1261 1264
v -218.879 0.628 77.186
v -214.964 0.628 52.869
v -200.401 0.628 55.214
v -204.316 0.628 79.531
v -218.879 4.528 77.186
v -214.964 4.528 52.869
v -200.401 4.528 55.214
v -204.316 4.528 79.531
f 1272 1271 1270 1269
f 1265 1266 1270 1269
f 1266 1267 1271 1270
f 1267 1268 1272 1271
f 1268 1265 1269 1272
v -191.465 0.868 65.763
v -180.740 0.868 69.657
v -182.955 0.868 75.757
v -193.680 0.868 71.863
v -191.465 4.768 65.763
v -180.740 4.768 69.657
v -182.955 4.768 75.757
v -193.680 4.768 71.863
f 1280 1279 1278 1277
f 1273 1274 1278 1277
f 1274 1275 1279 1278
f 1275 1276 1280 1279
f 1276 1273 1277 1280
v -203.029 0.738 60.093
v -198.932 0.738 47.355
v -194.791 0.738 48.687
v -198.888 0.738 61.425
v -203.029 4.638 60.093
v -198.932 4.638 47.355
v -194.791 4.638 48.687
v -198.888 4.638 61.425
f 1288 1287 1286 1285
f 1281 1282 1286 1285
f 1282 1283 1287 1286
f 1283 1284 1288 1287
f 1284 1281 1285 1288
v -205.964 0.802 49.465
v -178.955 0.802 31.732
v -163.576 0.802 55.155
v -190.585 0.802 72.888
v -205.964 4.702 49.465
v -178.955 4.702 31.732
v -163.576 4.702 55.155
v -190.585 4.702 72.888
f 1296 1295 1294 1293
f 1289 1290 1294 1293
f 1290 1291 1295 1294
f 1291 1292 1296 1295
f 1292 1289 1293 1296
v -160.334 0.810 33.995
v -143.797 0.810 39.721
v -149.006 0.810 54.765
v -165.543 0.810 49.039
v -160.334 4.710 33.995
v -143.797 4.710 39.721
v -149.006 4.710 54.765
v -165.543 4.710 49.039
f 1304 1303 1302 1301
f 1297 1298 1302 1301
f 1298 1299 1303 1302
f 1299 1300 1304 1303
f 1300 1297 1301 1304
usemtl road
v -206.774 1.636 -258.833
v -229.696 1.670 -250.853
v -227.724 1.650 -245.187
v -204.802 1.605 -253.167
f 1305 1306 1307 1308
v 47.339 1.096 -248.245
v 39.689 1.085 -245.755
v 41.391 1.010 -240.525
v 49.041 1.038 -243.015
f 1309 1310 1311 1312
v 39.635 1.086 -245.737
v 31.605 1.112 -242.937
v 33.415 1.084 -237.743
v 41.445 1.009 -240.543
f 1313 1314 1315 1316
v 31.609 1.112 -242.938
v -144.231 1.097 -181.948
v -142.429 1.056 -176.752
v 33.411 1.084 -237.742
f 1317 1318 1319 1320
v -144.233 1.097 -181.947
v -150.473 1.120 -179.777
v -148.667 1.035 -174.583
v -142.427 1.056 -176.753
f 1321 1322 1323 1324
v -150.466 1.120 -179.780
v -156.846 1.090 -177.580
v -155.054 1.059 -172.380
v -148.674 1.035 -174.580
f 1325 1326 1327 1328
v -156.854 1.090 -177.577
v -162.224 1.101 -175.707
v -160.416 1.079 -170.513
v -155.046 1.059 -172.383
f 1329 1330 1331 1332
v -162.217 1.101 -175.710
v -256.897 1.133 -143.039
v -255.103 1.141 -137.840
v -160.423 1.079 -170.510
f 1333 1334 1335 1336
v 254.697 0.901 -228.168
v 196.917 0.935 -208.262
v 199.523 1.174 -200.698
v 257.303 1.018 -220.604
f 1337 1338 1339 1340
v 196.917 0.935 -208.262
v 162.617 0.903 -196.442
v 165.223 1.040 -188.878
v 199.523 1.174 -200.698
f 1341 1342 1343 1344
v 162.622 0.903 -196.444
v 66.622 0.695 -163.514
v 69.218 0.812 -155.946
v 165.218 1.040 -188.876
f 1345 1346 1347 1348
v 66.621 0.695 -163.513
v 8.541 0.489 -143.573
v 11.139 0.670 -136.007
v 69.219 0.812 -155.947
f 1349 1350 1351 1352
v 8.532 0.489 -143.570
v -26.818 0.467 -131.340
v -24.202 0.630 -123.780
v 11.148 0.670 -136.010
f 1353 1354 1355 1356
v -26.817 0.467 -131.340
v -123.137 0.716 -98.030
v -120.523 0.881 -90.470
v -24.203 0.630 -123.780
f 1357 1358 1359 1360
v 254.995 1.011 -114.634
v 198.265 0.968 -94.467
v 200.275 0.931 -88.813
v 257.005 0.950 -108.980
f 1361 1362 1363 1364
v 198.336 0.968 -94.491
v 101.936 0.882 -62.911
v 103.804 0.701 -57.209
v 200.204 0.932 -88.789
f 1365 1366 1367 1368
v 101.888 0.882 -62.895
v 6.748 1.004 -29.945
v 8.712 0.909 -24.275
v 103.852 0.701 -57.225
f 1369 1370 1371 1372
v 6.730 1.004 -29.938
v -74.300 0.700 -1.288
v -72.300 0.645 4.368
v 8.730 0.909 -24.282
f 1373 1374 1375 1376
v -73.352 0.704 -1.460
v -86.042 0.657 -1.240
v -85.938 0.561 4.760
v -73.248 0.647 4.540
f 1377 1378 1379 1380
v 201.866 0.858 -92.548
v 172.886 0.794 -175.388
v 167.694 0.755 -173.572
v 196.674 0.865 -90.732
f 1381 1382 1383 1384
v 172.886 0.794 -175.387
v 171.376 0.818 -179.707
v 166.184 0.795 -177.893
v 167.694 0.755 -173.573
f 1385 1386 1387 1388
v 171.374 0.818 -179.714
v 170.814 0.875 -181.304
v 165.626 0.861 -179.476
v 166.186 0.794 -177.886
f 1389 1390 1391 1392
v 170.815 0.875 -181.299
v 166.515 0.992 -193.569
v 161.325 0.995 -191.751
v 165.625 0.861 -179.481
f 1393 1394 1395 1396
v 105.462 0.811 -60.979
v 76.982 0.628 -141.349
v 71.798 0.587 -139.511
v 100.278 0.811 -59.141
f 1397 1398 1399 1400
v 76.965 0.627 -141.394
v 75.115 0.577 -146.334
v 69.965 0.557 -144.406
v 71.815 0.588 -139.466
f 1401 1402 1403 1404
v 75.057 0.581 -146.478
v 73.837 0.654 -149.248
v 68.803 0.627 -147.032
v 70.023 0.554 -144.262
f 1405 1406 1407 1408
v 73.959 0.645 -148.914
v 70.559 0.784 -160.504
v 65.281 0.755 -158.956
v 68.681 0.635 -147.366
f 1409 1410 1411 1412
v 70.532 0.783 -160.591
v 68.972 0.691 -165.321
v 63.748 0.658 -163.599
v 65.308 0.756 -158.869
f 1413 1414 1415 1416
v 68.957 0.690 -165.363
v 67.507 0.640 -169.533
v 62.313 0.569 -167.727
v 63.763 0.659 -163.557
f 1417 1418 1419 1420
v 67.524 0.640 -169.485
v 45.314 1.006 -237.405
v 40.086 0.983 -235.695
v 62.296 0.569 -167.775
f 1421 1422 1423 1424
v 45.313 1.006 -237.407
v 43.153 1.045 -243.997
v 37.927 1.072 -242.283
v 40.087 0.983 -235.693
f 1425 1426 1427 1428
v 43.141 1.045 -244.034
v 40.081 1.079 -252.934
v 34.879 1.133 -251.146
v 37.939 1.071 -242.246
f 1429 1430 1431 1432
v 10.579 0.975 -28.050
v -16.391 0.457 -109.750
v -22.089 0.357 -107.870
v 4.881 0.984 -26.170
f 1433 1434 1435 1436
v -16.391 0.457 -109.751
v -17.891 0.366 -114.291
v -23.589 0.375 -112.409
v -22.089 0.357 -107.869
f 1437 1438 1439 1440
v -17.888 0.366 -114.281
v -18.678 0.449 -116.701
v -24.382 0.457 -114.839
v -23.592 0.376 -112.419
f 1441 1442 1443 1444
v -18.688 0.450 -116.730
v -22.668 0.558 -128.520
v -28.352 0.562 -126.600
v -24.372 0.456 -114.810
f 1445 1446 1447 1448
v -119.223 0.802 -95.126
v -120.753 0.687 -99.676
v -125.967 0.705 -97.924
v -124.437 0.813 -93.374
f 1449 1450 1451 1452
v -120.752 0.687 -99.672
v -122.922 0.612 -106.162
v -128.138 0.610 -104.418
v -125.968 0.705 -97.928
f 1453 1454 1455 1456
v -122.922 0.612 -106.161
v -144.962 1.021 -172.181
v -150.178 0.994 -170.439
v -128.138 0.610 -104.419
f 1457 1458 1459 1460
v -144.967 1.021 -172.197
v -146.967 1.061 -178.067
v -152.173 1.063 -176.293
v -150.173 0.993 -170.423
f 1461 1462 1463 1464
v -146.974 1.062 -178.088
v -149.964 1.164 -186.638
v -155.156 1.153 -184.822
v -152.166 1.063 -176.272
f 1465 1466 1467 1468
v -149.970 1.164 -186.655
v -175.054 1.479 -256.925
v -180.234 1.501 -255.075
v -155.150 1.153 -184.805
f 1469 1470 1471 1472
v -91.948 0.676 -4.930
v -256.968 0.919 51.319
v -255.032 0.847 56.999
v -90.012 0.637 0.750
f 1473 1474 1475 1476
v -212.591 0.620 -49.016
v -216.991 0.745 -61.406
v -220.289 0.740 -60.234
v -215.889 0.604 -47.844
f 1477 1478 1479 1480
v -117.150 0.642 -77.908
v -39.780 0.373 -105.188
v -42.440 0.621 -112.732
v -119.810 0.801 -85.452
f 1481 1482 1483 1484
v -39.796 0.373 -105.182
v -20.216 0.323 -111.992
v -22.844 0.569 -119.548
v -42.424 0.621 -112.738
f 1485 1486 1487 1488
v -20.213 0.323 -111.993
v 72.637 0.551 -144.363
v 70.003 0.743 -151.917
v -22.847 0.569 -119.547
f 1489 1490 1491 1492
v 72.627 0.551 -144.359
v 88.857 0.597 -149.969
v 86.243 0.857 -157.531
v 70.013 0.743 -151.921
f 1493 1494 1495 1496
v 88.804 0.597 -149.952
v 169.474 0.752 -176.592
v 166.966 0.981 -184.188
v 86.296 0.857 -157.548
f 1497 1498 1499 1500
v 169.521 0.752 -176.608
v 208.641 0.872 -190.068
v 206.039 1.058 -197.632
v 166.919 0.981 -184.172
f 1501 1502 1503 1504
v 208.661 0.872 -190.074
v 257.321 0.769 -207.092
v 254.679 0.955 -214.644
v 206.019 1.058 -197.626
f 1505 1506 1507 1508
v -230.375 1.675 -247.482
v -227.835 1.724 -239.612
v -224.505 1.699 -240.688
v -227.045 1.674 -248.558
f 1509 1510 1511 1512
v -227.835 1.724 -239.612
v -218.555 1.631 -210.902
v -215.225 1.630 -211.978
v -224.505 1.699 -240.688
f 1513 1514 1515 1516
v -212.934 0.472 -44.649
v -140.654 0.675 -69.619
v -143.266 0.825 -77.181
v -215.546 0.728 -52.211
f 1517 1518 1519 1520
v -140.630 0.675 -69.628
v -124.150 0.635 -75.438
v -126.810 0.836 -82.982
v -143.290 0.825 -77.172
f 1521 1522 1523 1524
v -124.149 0.635 -75.438
v -117.149 0.642 -77.908
v -119.811 0.801 -85.452
v -126.811 0.836 -82.982
f 1525 1526 1527 1528
v -84.310 0.655 -0.417
v -89.300 0.648 -4.267
v -92.660 0.607 0.087
v -87.670 0.575 3.937
f 1529 1530 1531 1532
v -88.411 0.659 -3.072
v -91.331 0.569 -10.712
v -96.469 0.599 -8.748
v -93.549 0.637 -1.108
f 1533 1534 1535 1536
v -91.298 0.569 -10.619
v -113.568 0.629 -75.829
v -118.772 0.637 -74.051
v -96.502 0.598 -8.841
f 1537 1538 1539 1540
v -113.569 0.629 -75.832
v -115.239 0.644 -80.702
v -120.441 0.660 -78.918
v -118.771 0.637 -74.048
f 1541 1542 1543 1544
v -115.238 0.644 -80.700
v -115.878 0.696 -82.570
v -121.082 0.709 -80.790
v -120.442 0.661 -78.920
f 1545 1546 1547 1548
v -123.137 0.716 -98.030
v -131.957 0.752 -94.980
v -129.343 0.920 -87.420
v -120.523 0.881 -90.470
f 1549 1550 1551 1552
v -131.958 0.752 -94.980
v -153.538 0.746 -87.510
v -150.922 0.992 -79.950
v -129.342 0.920 -87.420
f 1553 1554 1555 1556
v -153.534 0.746 -87.511
v -219.944 0.623 -64.601
v -217.336 0.817 -57.039
v -150.926 0.992 -79.949
f 1557 1558 1559 1560
v -115.823 0.691 -82.388
v -119.173 0.807 -94.958
v -124.487 0.808 -93.542
v -121.137 0.714 -80.972
f 1561 1562 1563 1564
usemtl asphalt
