# Baked ultra-low Key West silhouette; generated by bake_key_west_far_city.py
mtllib far_city.mtl
usemtl massing
usemtl road
v -241.760 0.359 185.800
v -149.620 0.376 184.760
v -149.660 0.367 181.260
v -241.800 0.357 182.300
f 1 2 3 4
v -149.574 0.376 184.759
v -53.104 0.268 181.099
v -53.236 0.259 177.601
v -149.706 0.367 181.261
f 5 6 7 8
v -53.187 0.268 181.100
v 14.953 0.310 181.780
v 14.987 0.306 178.280
v -53.153 0.259 177.600
f 9 10 11 12
v 14.958 0.310 181.780
v 81.448 0.348 182.250
v 81.472 0.345 178.750
v 14.982 0.306 178.280
f 13 14 15 16
v 81.396 0.348 182.249
v 123.696 0.372 183.809
v 123.824 0.349 180.311
v 81.524 0.345 178.751
f 17 18 19 20
v 123.941 0.371 183.801
v 156.591 0.386 180.401
v 156.229 0.376 176.919
v 123.579 0.349 180.319
f 21 22 23 24
v 156.591 0.386 180.401
v 195.931 0.324 176.311
v 195.569 0.264 172.829
v 156.229 0.376 176.919
f 25 26 27 28
v 195.750 0.324 176.320
v 232.400 0.365 176.320
v 232.400 0.364 172.820
v 195.750 0.264 172.820
f 29 30 31 32
usemtl asphalt
v -255.923 0.814 239.114
v 113.897 0.753 237.240
v 113.743 0.767 206.740
v -256.077 0.794 208.614
f 33 34 35 36
v 113.909 0.753 237.240
v 124.209 0.805 237.180
v 124.031 0.762 206.680
v 113.731 0.767 206.740
f 37 38 39 40
v 124.196 0.805 237.180
v 170.146 0.792 236.950
v 169.994 0.770 206.450
v 124.044 0.762 206.680
f 41 42 43 44
v 170.148 0.792 236.950
v 179.878 0.779 236.900
v 179.722 0.795 206.400
v 169.992 0.770 206.450
f 45 46 47 48
v 179.877 0.779 236.900
v 256.077 0.741 236.513
v 255.923 0.755 206.014
v 179.723 0.795 206.400
f 49 50 51 52
v 136.240 0.650 250.604
v 136.231 0.613 255.984
v 154.230 0.589 256.016
v 154.240 0.634 250.636
f 53 54 55 56
v 122.666 0.857 230.812
v 128.836 0.842 231.822
v 131.744 0.865 214.058
v 125.574 0.843 213.048
f 57 58 59 60
v 127.098 0.845 231.355
v 131.448 0.829 233.005
v 137.832 0.900 216.175
v 133.482 0.872 214.525
f 61 62 63 64
v 129.722 0.839 232.128
v 133.462 0.830 234.568
v 143.298 0.948 219.492
v 139.558 0.914 217.052
f 65 66 67 68
v 131.918 0.829 233.294
v 135.088 0.805 236.564
v 148.012 0.920 224.036
v 144.842 0.969 220.766
f 69 70 71 72
v 133.702 0.830 234.706
v 135.712 0.779 238.286
v 151.408 0.882 229.474
v 149.398 0.897 225.894
f 73 74 75 76
v 134.981 0.804 236.602
v 136.361 0.743 240.952
v 153.519 0.834 235.508
v 152.139 0.863 231.158
f 77 78 79 80
v 135.976 0.768 239.038
v 136.186 0.739 241.368
v 154.114 0.779 239.752
v 153.904 0.808 237.422
f 81 82 83 84
v 136.186 0.739 241.361
v 136.346 0.714 243.151
v 154.274 0.758 241.549
v 154.114 0.779 239.759
f 85 86 87 88
v 136.310 0.726 242.274
v 136.240 0.650 250.544
v 154.240 0.633 250.696
v 154.310 0.747 242.426
f 89 90 91 92
v 169.209 0.858 212.741
v 161.719 0.866 213.461
v 163.441 0.847 231.379
v 170.931 0.872 230.659
f 93 94 95 96
v 160.563 0.869 213.649
v 155.953 0.881 214.709
v 159.987 0.857 232.251
v 164.597 0.842 231.191
f 97 98 99 100
v 154.000 0.889 215.403
v 151.030 0.906 216.863
v 158.970 0.848 233.017
v 161.940 0.857 231.557
f 101 102 103 104
v 150.234 0.912 217.305
v 147.014 0.945 219.315
v 156.546 0.845 234.585
v 159.766 0.853 232.575
f 105 106 107 108
v 145.105 0.971 220.913
v 142.455 0.938 223.843
v 155.805 0.830 235.917
v 158.455 0.848 232.987
f 109 110 111 112
v 141.299 0.917 225.444
v 139.639 0.880 228.374
v 155.301 0.809 237.246
v 156.961 0.846 234.316
f 113 114 115 116
v 139.214 0.869 229.228
v 137.704 0.835 232.708
v 154.216 0.777 239.872
v 155.726 0.822 236.392
f 117 118 119 120
v 137.118 0.837 234.613
v 136.308 0.771 238.883
v 153.992 0.750 242.237
v 154.802 0.800 237.967
f 121 122 123 124
