# Baked ultra-low Key West silhouette; generated by bake_key_west_far_city.py
mtllib far_city.mtl
usemtl massing
v -208.131 0.434 -133.191
v -169.691 0.434 -133.059
v -169.749 0.434 -116.449
v -208.189 0.434 -116.581
v -208.131 6.234 -133.191
v -169.691 6.234 -133.059
v -169.749 6.234 -116.449
v -208.189 6.234 -116.581
f 8 7 6 5
f 1 2 6 5
f 2 3 7 6
f 3 4 8 7
f 4 1 5 8
v 30.173 0.780 95.677
v 49.946 0.780 99.809
v 45.827 0.780 119.523
v 26.054 0.780 115.391
v 30.173 4.680 95.677
v 49.946 4.680 99.809
v 45.827 4.680 119.523
v 26.054 4.680 115.391
f 16 15 14 13
f 9 10 14 13
f 10 11 15 14
f 11 12 16 15
f 12 9 13 16
v -169.697 0.432 -133.321
v -131.127 0.432 -133.189
v -131.183 0.432 -116.579
v -169.753 0.432 -116.711
v -169.697 6.232 -133.321
v -131.127 6.232 -133.189
v -131.183 6.232 -116.579
v -169.753 6.232 -116.711
f 24 23 22 21
f 17 18 22 21
f 18 19 23 22
f 19 20 24 23
f 20 17 21 24
v -130.861 0.485 -137.562
v -65.353 0.485 -133.247
v -66.899 0.485 -109.778
v -132.407 0.485 -114.093
v -130.861 8.785 -137.562
v -65.353 8.785 -133.247
v -66.899 8.785 -109.778
v -132.407 8.785 -114.093
f 32 31 30 29
f 25 26 30 29
f 26 27 31 30
f 27 28 32 31
f 28 25 29 32
v -114.475 0.441 -91.194
v -75.845 0.441 -91.056
v -75.905 0.441 -74.206
v -114.535 0.441 -74.344
v -114.475 6.241 -91.194
v -75.845 6.241 -91.056
v -75.905 6.241 -74.206
v -114.535 6.241 -74.344
f 40 39 38 37
f 33 34 38 37
f 34 35 39 38
f 35 36 40 39
f 36 33 37 40
v -74.522 0.308 -33.594
v -28.842 0.308 -52.109
v -19.778 0.308 -29.746
v -65.458 0.308 -11.231
v -74.522 6.108 -33.594
v -28.842 6.108 -52.109
v -19.778 6.108 -29.746
v -65.458 6.108 -11.231
f 48 47 46 45
f 41 42 46 45
f 42 43 47 46
f 43 44 48 47
f 44 41 45 48
v -58.100 0.360 -92.743
v -54.704 0.360 -52.265
v -75.780 0.360 -50.497
v -79.176 0.360 -90.975
v -58.100 6.160 -92.743
v -54.704 6.160 -52.265
v -75.780 6.160 -50.497
v -79.176 6.160 -90.975
f 56 55 54 53
f 49 50 54 53
f 50 51 55 54
f 51 52 56 55
f 52 49 53 56
v -29.779 0.427 -28.888
v 0.967 0.427 -34.479
v 6.099 0.427 -6.252
v -24.647 0.427 -0.661
v -29.779 6.227 -28.888
v 0.967 6.227 -34.479
v 6.099 6.227 -6.252
v -24.647 6.227 -0.661
f 64 63 62 61
f 57 58 62 61
f 58 59 63 62
f 59 60 64 63
f 60 57 61 64
v 45.881 0.362 -55.067
v 91.201 0.362 -51.637
v 89.719 0.362 -32.053
v 44.399 0.362 -35.483
v 45.881 6.162 -55.067
v 91.201 6.162 -51.637
v 89.719 6.162 -32.053
v 44.399 6.162 -35.483
f 72 71 70 69
f 65 66 70 69
f 66 67 71 70
f 67 68 72 71
f 68 65 69 72
v 93.407 0.431 -50.065
v 106.104 0.431 -49.782
v 105.853 0.431 -38.535
v 93.156 0.431 -38.818
v 93.407 4.331 -50.065
v 106.104 4.331 -49.782
v 105.853 4.331 -38.535
v 93.156 4.331 -38.818
f 80 79 78 77
f 73 74 78 77
f 74 75 79 78
f 75 76 80 79
f 76 73 77 80
v 173.895 -0.300 5.193
v 305.219 -0.300 6.378
v 304.845 -0.300 47.847
v 173.521 -0.300 46.662
v 173.895 8.000 5.193
v 305.219 8.000 6.378
v 304.845 8.000 47.847
v 173.521 8.000 46.662
f 88 87 86 85
f 81 82 86 85
f 82 83 87 86
f 83 84 88 87
f 84 81 85 88
v 111.236 0.880 -34.981
v 287.554 0.880 -35.838
v 287.704 0.880 -4.839
v 111.386 0.880 -3.982
v 111.236 9.180 -34.981
v 287.554 9.180 -35.838
v 287.704 9.180 -4.839
v 111.386 9.180 -3.982
f 96 95 94 93
f 89 90 94 93
f 90 91 95 94
f 91 92 96 95
f 92 89 93 96
v 158.121 0.571 62.021
v 316.501 0.571 63.870
v 316.259 0.571 84.619
v 157.879 0.571 82.770
v 158.121 8.871 62.021
v 316.501 8.871 63.870
v 316.259 8.871 84.619
v 157.879 8.871 82.770
f 104 103 102 101
f 97 98 102 101
f 98 99 103 102
f 99 100 104 103
f 100 97 101 104
v 10.842 0.415 -39.056
v 34.740 0.415 -67.304
v 58.498 0.415 -47.204
v 34.600 0.415 -18.956
v 10.842 6.215 -39.056
v 34.740 6.215 -67.304
v 58.498 6.215 -47.204
v 34.600 6.215 -18.956
f 112 111 110 109
f 105 106 110 109
f 106 107 111 110
f 107 108 112 111
f 108 105 109 112
v 248.541 0.229 118.714
v 262.888 0.229 131.352
v 250.719 0.229 145.166
v 236.372 0.229 132.528
v 248.541 4.129 118.714
v 262.888 4.129 131.352
v 250.719 4.129 145.166
v 236.372 4.129 132.528
f 120 119 118 117
f 113 114 118 117
f 114 115 119 118
f 115 116 120 119
f 116 113 117 120
v 90.884 0.661 85.960
v 97.816 0.661 125.324
v 85.456 0.661 127.500
v 78.524 0.661 88.136
v 90.884 6.461 85.960
v 97.816 6.461 125.324
v 85.456 6.461 127.500
v 78.524 6.461 88.136
f 128 127 126 125
f 121 122 126 125
f 122 123 127 126
f 123 124 128 127
f 124 121 125 128
usemtl road
v 122.058 0.988 66.914
v 135.368 0.939 84.964
v 139.392 0.891 81.996
v 126.082 0.953 63.946
f 129 130 131 132
v 135.847 0.925 85.455
v 141.257 0.824 89.655
v 144.323 0.837 85.705
v 138.913 0.904 81.505
f 133 134 135 136
v 142.176 0.814 90.103
v 150.546 0.816 92.223
v 151.774 0.831 87.377
v 143.404 0.833 85.257
f 137 138 139 140
v 151.195 0.817 92.300
v 256.035 0.763 90.835
v 255.965 0.919 85.836
v 151.125 0.828 87.300
f 141 142 143 144
v 238.772 1.053 -2.160
v 187.622 1.062 -1.590
v 187.678 0.957 3.410
v 238.828 0.970 2.840
f 145 146 147 148
v 187.614 1.062 -1.590
v 169.554 1.030 -1.330
v 169.626 0.961 3.670
v 187.686 0.957 3.410
f 149 150 151 152
v 169.583 1.030 -1.330
v 155.253 1.007 -1.290
v 155.267 1.028 3.710
v 169.597 0.962 3.670
f 153 154 155 156
v 154.568 1.004 -1.192
v 151.478 0.986 -0.302
v 152.862 0.997 4.502
v 155.952 1.025 3.612
f 157 158 159 160
v 151.481 0.986 -0.303
v 144.091 1.005 1.817
v 145.469 0.951 6.623
v 152.859 0.997 4.503
f 161 162 163 164
v 143.053 1.014 2.412
v 137.883 1.017 7.352
v 141.337 0.936 10.968
v 146.507 0.947 6.028
f 165 166 167 168
v 137.518 1.016 7.791
v 131.828 0.991 16.481
v 136.012 0.969 19.219
v 141.702 0.940 10.529
f 169 170 171 172
v 131.534 0.989 17.105
v 127.904 0.964 28.735
v 132.676 0.871 30.225
v 136.306 0.966 18.595
f 173 174 175 176
v 127.826 0.964 29.057
v 126.696 0.948 35.637
v 131.624 0.886 36.483
v 132.754 0.873 29.903
f 177 178 179 180
v 126.697 0.948 35.634
v 122.817 0.954 58.054
v 127.743 0.940 58.906
v 131.623 0.886 36.486
f 181 182 183 184
v 122.817 0.954 58.051
v 121.607 0.971 65.001
v 126.533 0.954 65.859
v 127.743 0.940 58.909
f 185 186 187 188
v 121.631 0.971 64.879
v 118.781 1.019 77.499
v 123.659 1.045 78.601
v 126.509 0.955 65.981
f 189 190 191 192
v 118.766 1.019 77.574
v 113.316 0.879 105.664
v 118.224 0.865 106.616
v 123.674 1.046 78.526
f 193 194 195 196
v 113.312 0.878 105.683
v 111.332 0.850 116.323
v 116.248 0.839 117.237
v 118.228 0.865 106.597
f 197 198 199 200
v 111.339 0.851 116.286
v 105.209 0.850 146.676
v 110.111 0.814 147.664
v 116.241 0.839 117.274
f 201 202 203 204
v 105.210 0.850 146.673
v 104.240 0.907 151.453
v 109.140 0.897 152.447
v 110.110 0.814 147.667
f 205 206 207 208
v 104.236 0.907 151.473
v 102.086 0.929 162.523
v 106.994 0.934 163.477
v 109.144 0.897 152.427
f 209 210 211 212
v 255.971 0.120 54.531
v 200.601 0.958 55.460
v 200.659 0.907 58.960
v 256.029 0.120 58.031
f 213 214 215 216
v 200.601 0.958 55.460
v 125.251 0.951 56.730
v 125.309 0.954 60.230
v 200.659 0.907 58.960
f 217 218 219 220
v 181.075 1.154 175.876
v 182.885 1.073 165.346
v 179.435 1.067 164.754
v 177.625 1.153 175.284
f 221 222 223 224
v 182.885 1.073 165.347
v 190.935 0.756 118.657
v 187.485 0.753 118.063
v 179.435 1.067 164.753
f 225 226 227 228
v 189.969 0.776 116.783
v 173.209 0.737 108.713
v 171.691 0.682 111.867
v 188.451 0.777 119.937
f 229 230 231 232
v 172.784 0.738 108.572
v 156.494 0.694 105.402
v 155.826 0.678 108.838
v 172.116 0.681 112.008
f 233 234 235 236
v 156.139 0.693 105.370
v 142.169 0.762 105.540
v 142.211 0.746 109.040
v 156.181 0.678 108.870
f 237 238 239 240
v 141.987 0.761 105.552
v 129.297 0.766 107.032
v 129.703 0.705 110.508
v 142.393 0.747 109.028
f 241 242 243 244
v 128.705 0.766 107.211
v 112.995 0.829 115.221
v 114.585 0.828 118.339
v 130.295 0.704 110.329
f 245 246 247 248
v 155.657 1.001 -0.494
v 138.767 1.018 -4.424
v 137.973 1.053 -1.016
v 154.863 0.977 2.914
f 249 250 251 252
v 138.309 1.023 -4.469
v 135.459 1.013 -4.369
v 135.581 1.035 -0.871
v 138.431 1.057 -0.971
f 253 254 255 256
v 135.487 1.014 -4.370
v 105.327 0.884 -3.800
v 105.393 0.934 -0.300
v 135.553 1.035 -0.870
f 257 258 259 260
v 105.275 0.884 -3.798
v 97.095 0.883 -3.398
v 97.265 0.879 0.098
v 105.445 0.936 -0.302
f 261 262 263 264
v 107.110 0.912 -2.084
v 106.540 0.783 -31.684
v 103.040 0.752 -31.616
v 103.610 0.891 -2.016
f 265 266 267 268
v 95.522 0.919 -1.089
v 100.392 0.723 13.291
v 103.708 0.436 12.169
v 98.838 0.885 -2.211
f 269 270 271 272
v 100.411 0.725 13.345
v 105.021 0.856 25.635
v 108.299 0.800 24.405
v 103.689 0.434 12.115
f 273 274 275 276
v 105.026 0.856 25.647
v 112.036 0.890 43.927
v 115.304 1.016 42.673
v 108.294 0.799 24.393
f 277 278 279 280
v 111.974 0.889 43.731
v 112.434 0.889 45.541
v 115.826 1.008 44.679
v 115.366 1.017 42.869
f 281 282 283 284
v 112.463 0.889 45.643
v 115.763 0.898 55.953
v 119.097 0.946 54.887
v 115.797 1.008 44.577
f 285 286 287 288
v 115.972 0.901 56.387
v 122.612 0.984 66.397
v 125.528 0.961 64.463
v 118.888 0.954 54.453
f 289 290 291 292
v 97.167 0.882 -3.400
v 64.297 0.762 -3.160
v 64.323 0.808 0.340
v 97.193 0.880 0.100
f 293 294 295 296
v 64.321 0.763 -3.160
v 58.041 0.717 -3.200
v 58.019 0.746 0.300
v 64.299 0.807 0.340
f 297 298 299 300
v 58.257 0.718 -3.185
v 53.127 0.691 -3.855
v 52.673 0.726 -0.385
v 57.803 0.744 0.285
f 301 302 303 304
v 54.071 0.701 -3.421
v 47.451 0.617 -9.381
v 45.109 0.618 -6.779
v 51.729 0.718 -0.819
f 305 306 307 308
v 47.413 0.616 -9.414
v 43.703 0.584 -12.564
v 41.437 0.576 -9.896
v 45.147 0.618 -6.746
f 309 310 311 312
v 43.603 0.583 -12.642
v 38.423 0.561 -16.432
v 36.357 0.562 -13.608
v 41.537 0.577 -9.818
f 313 314 315 316
v 37.832 0.560 -16.713
v 30.982 0.539 -18.503
v 30.098 0.545 -15.117
v 36.948 0.560 -13.327
f 317 318 319 320
v 30.104 0.539 -18.505
v 24.084 0.499 -16.955
v 24.956 0.519 -13.565
v 30.976 0.546 -15.115
f 321 322 323 324
v 23.435 0.498 -16.633
v 17.775 0.491 -12.163
v 19.945 0.465 -9.417
v 25.605 0.523 -13.887
f 325 326 327 328
v 17.378 0.487 -11.721
v 8.318 0.512 2.699
v 11.282 0.560 4.561
v 20.342 0.475 -9.859
f 329 330 331 332
v 8.066 0.524 3.390
v 7.156 0.601 9.970
v 10.624 0.548 10.450
v 11.534 0.539 3.870
f 333 334 335 336
v 7.157 0.601 9.969
v 5.117 0.579 24.669
v 8.583 0.581 25.151
v 10.623 0.548 10.451
f 337 338 339 340
v 5.101 0.580 24.959
v 7.641 0.998 116.089
v 11.139 0.901 115.991
v 8.599 0.581 24.861
f 341 342 343 344
v 7.642 0.998 116.119
v 7.692 1.013 117.219
v 11.188 0.891 117.061
v 11.138 0.901 115.961
f 345 346 347 348
v 7.692 1.012 117.215
v 8.082 0.773 126.295
v 11.578 0.819 126.145
v 11.188 0.891 117.065
f 349 350 351 352
v 8.107 0.771 125.912
v 4.517 1.088 145.992
v 7.963 1.084 146.608
v 11.553 0.822 126.528
f 353 354 355 356
v 124.099 0.967 63.680
v 105.959 0.982 63.380
v 105.901 0.968 66.880
v 124.041 0.983 67.180
f 357 358 359 360
v 105.961 0.982 63.380
v 100.241 0.974 63.280
v 100.179 0.941 66.780
v 105.899 0.968 66.880
f 361 362 363 364
v 100.265 0.974 63.281
v 86.915 1.033 62.861
v 86.805 0.962 66.359
v 100.155 0.941 66.779
f 365 366 367 368
v 86.913 1.033 62.861
v 71.833 1.060 62.401
v 71.727 1.042 65.899
v 86.807 0.962 66.359
f 369 370 371 372
v 71.832 1.060 62.401
v 67.082 1.070 62.261
v 66.978 1.058 65.759
v 71.728 1.042 65.899
f 373 374 375 376
v 67.084 1.070 62.261
v 54.174 1.079 61.861
v 54.066 1.042 65.359
v 66.976 1.058 65.759
f 377 378 379 380
v 54.173 1.079 61.861
v 29.773 0.808 61.121
v 29.667 0.776 64.619
v 54.067 1.042 65.359
f 381 382 383 384
v 68.778 1.059 64.092
v 69.978 1.069 38.482
v 66.482 1.094 38.318
v 65.282 1.064 63.928
f 385 386 387 388
v 68.158 1.094 40.149
v 87.628 0.979 40.949
v 87.772 0.951 37.451
v 68.302 1.072 36.651
f 389 390 391 392
v 87.626 0.979 40.948
v 97.956 0.980 41.388
v 98.104 0.956 37.892
v 87.774 0.951 37.452
f 393 394 395 396
v 96.968 0.976 41.031
v 104.838 1.043 47.041
v 106.962 1.041 44.259
v 99.092 0.965 38.249
f 397 398 399 400
v 104.150 1.038 45.653
v 104.180 0.944 65.133
v 107.680 0.971 65.127
v 107.650 1.043 45.647
f 401 402 403 404
v 6.942 0.601 26.658
v 24.382 0.446 25.738
v 24.198 0.461 22.242
v 6.758 0.575 23.162
f 405 406 407 408
v 24.312 0.446 25.740
v 35.572 0.443 25.600
v 35.528 0.481 22.100
v 24.268 0.461 22.240
f 409 410 411 412
v 35.564 0.443 25.600
v 64.344 0.942 25.370
v 64.316 0.929 21.870
v 35.536 0.481 22.100
f 413 414 415 416
v 66.080 0.956 23.623
v 66.100 0.976 11.893
v 62.600 0.938 11.887
v 62.580 0.872 23.617
f 417 418 419 420
v 66.100 0.976 11.885
v 66.060 0.803 -1.415
v 62.560 0.765 -1.405
v 62.600 0.938 11.895
f 421 422 423 424
v 28.002 0.786 62.537
v 25.312 0.843 76.407
v 28.748 0.838 77.073
v 31.438 0.805 63.203
f 425 426 427 428
v 85.951 0.976 39.142
v 85.111 0.987 64.552
v 88.609 0.981 64.668
v 89.449 0.961 39.258
f 429 430 431 432
v 202.520 1.004 73.296
v 202.440 0.946 63.476
v 198.940 0.962 63.504
v 199.020 1.027 73.324
f 433 434 435 436
v 202.440 0.946 63.473
v 202.380 0.926 57.193
v 198.880 0.940 57.227
v 198.940 0.962 63.507
f 437 438 439 440
v 255.985 0.998 71.097
v 200.755 1.011 71.560
v 200.785 1.020 75.060
v 256.015 1.014 74.597
f 441 442 443 444
v 200.755 1.011 71.560
v 160.955 0.979 71.900
v 160.985 0.976 75.400
v 200.785 1.020 75.060
f 445 446 447 448
v 193.633 1.077 19.830
v 256.023 0.120 18.995
v 255.977 0.120 15.495
v 193.587 1.062 16.330
f 449 450 451 452
v 255.977 0.120 32.681
v 193.817 1.162 33.500
v 193.863 1.172 37.000
v 256.023 0.120 36.181
f 453 454 455 456
v 156.070 0.882 35.764
v 156.300 0.953 18.774
v 152.800 0.997 18.726
v 152.570 0.889 35.716
f 457 458 459 460
v 193.818 1.162 33.500
v 154.298 0.884 33.990
v 154.342 0.891 37.490
v 193.862 1.172 37.000
f 461 462 463 464
v 154.298 0.884 33.990
v 129.138 0.918 34.310
v 129.182 0.914 37.810
v 154.342 0.891 37.490
f 465 466 467 468
v 150.807 0.978 1.002
v 148.737 0.953 3.572
v 151.463 0.989 5.768
v 153.533 0.971 3.198
f 469 470 471 472
v 148.460 0.950 4.060
v 147.310 0.931 7.150
v 150.590 1.031 8.370
v 151.740 0.983 5.280
f 473 474 475 476
v 147.200 0.926 7.728
v 147.140 0.906 11.028
v 150.640 1.086 11.092
v 150.700 1.017 7.792
f 477 478 479 480
v 147.221 0.919 11.586
v 148.211 1.009 14.726
v 151.549 1.100 13.674
v 150.559 1.073 10.534
f 481 482 483 484
v 148.469 1.020 15.235
v 150.419 1.028 17.895
v 153.241 1.078 15.825
v 151.291 1.098 13.165
f 485 486 487 488
v 150.831 1.020 18.297
v 153.551 0.970 20.187
v 155.549 1.011 17.313
v 152.829 1.084 15.423
f 489 490 491 492
v 154.580 0.954 20.500
v 193.640 1.077 19.830
v 193.580 1.062 16.330
v 154.520 1.032 17.000
f 493 494 495 496
v 190.756 0.756 119.181
v 198.726 0.596 104.171
v 195.634 0.683 102.529
v 187.664 0.756 117.539
f 497 498 499 500
v 197.430 0.625 105.082
v 224.950 0.676 101.102
v 224.450 0.693 97.638
v 196.930 0.662 101.618
f 501 502 503 504
v 225.062 0.677 101.082
v 246.482 0.729 96.552
v 245.758 0.740 93.128
v 224.338 0.692 97.658
f 505 506 507 508
v 246.028 0.731 96.588
v 255.908 0.741 97.108
v 256.092 0.740 93.613
v 246.212 0.739 93.092
f 509 510 511 512
v 9.738 0.817 124.472
v -3.192 0.747 125.152
v -3.008 0.790 128.648
v 9.922 0.851 127.968
f 513 514 515 516
v -2.892 0.750 125.162
v -28.412 0.785 122.112
v -28.828 0.813 125.588
v -3.308 0.793 128.638
f 517 518 519 520
v -28.267 0.786 122.136
v -65.147 0.671 114.546
v -65.853 0.675 117.974
v -28.973 0.814 125.564
f 521 522 523 524
v -65.146 0.671 114.546
v -74.736 0.656 112.566
v -75.444 0.674 115.994
v -65.854 0.675 117.974
f 525 526 527 528
v -74.605 0.656 112.599
v -99.415 0.732 105.439
v -100.385 0.824 108.801
v -75.575 0.674 115.961
f 529 530 531 532
v -99.617 0.731 105.393
v -124.317 0.692 101.343
v -124.883 0.783 104.797
v -100.183 0.822 108.847
f 533 534 535 536
v -124.535 0.690 101.321
v -154.275 0.704 100.211
v -154.405 0.805 103.709
v -124.665 0.782 104.819
f 537 538 539 540
v -154.265 0.704 100.212
v -179.385 0.726 99.132
v -179.535 0.798 102.628
v -154.415 0.805 103.708
f 541 542 543 544
v -179.318 0.726 99.136
v -203.358 0.734 97.176
v -203.642 0.798 100.664
v -179.602 0.799 102.624
f 545 546 547 548
v -203.391 0.734 97.173
v -227.011 0.770 95.693
v -227.229 0.790 99.187
v -203.609 0.798 100.667
f 549 550 551 552
v -227.047 0.770 95.692
v -251.227 0.709 94.682
v -251.373 0.738 98.178
v -227.193 0.790 99.188
f 553 554 555 556
v -256.096 0.837 105.993
v -219.726 0.986 107.987
v -219.534 0.856 104.493
v -255.904 0.736 102.498
f 557 558 559 560
v -219.727 0.986 107.987
v -141.517 1.019 112.317
v -141.323 0.906 108.823
v -219.533 0.856 104.493
f 561 562 563 564
v -141.604 1.019 112.310
v -98.294 0.918 116.880
v -97.926 0.836 113.400
v -141.236 0.906 108.830
f 565 566 567 568
v -98.170 0.916 116.889
v -65.560 0.681 118.009
v -65.440 0.668 114.511
v -98.050 0.837 113.391
f 569 570 571 572
v 24.169 0.835 91.412
v 19.439 0.946 116.972
v 22.881 0.930 117.608
v 27.611 0.851 92.048
f 573 574 575 576
v 20.829 0.955 119.008
v 62.049 0.897 126.948
v 62.711 0.882 123.512
v 21.491 0.941 115.572
f 577 578 579 580
v 105.545 0.953 157.085
v 57.915 0.982 148.995
v 55.905 1.023 160.825
v 103.535 0.978 168.915
f 581 582 583 584
v 57.916 0.982 148.995
v 16.506 1.117 141.955
v 14.494 1.108 153.785
v 55.904 1.023 160.825
f 585 586 587 588
v 16.503 1.117 141.954
v 7.243 1.126 140.384
v 5.237 1.099 152.216
v 14.497 1.108 153.786
f 589 590 591 592
v 7.245 1.126 140.385
v -66.295 0.915 127.885
v -68.305 0.959 139.715
v 5.235 1.099 152.215
f 593 594 595 596
v -66.485 0.914 127.856
v -118.565 1.116 120.716
v -120.195 1.127 132.604
v -68.115 0.959 139.744
f 597 598 599 600
v -118.900 1.117 120.679
v -164.610 1.161 117.009
v -165.570 1.059 128.971
v -119.860 1.126 132.641
f 601 602 603 604
v -164.871 1.160 116.994
v -196.331 1.080 115.844
v -196.769 0.975 127.836
v -165.309 1.059 128.986
f 605 606 607 608
v 254.725 0.833 177.635
v 237.535 0.916 176.905
v 237.025 1.199 188.895
v 254.215 1.143 189.625
f 609 610 611 612
v 237.882 0.914 176.930
v 202.012 1.080 173.310
v 200.808 1.262 185.250
v 236.678 1.202 188.870
f 613 614 615 616
v 202.402 1.077 173.363
v 180.342 1.177 169.663
v 178.358 1.220 181.497
v 200.418 1.261 185.197
f 617 618 619 620
v 20.588 0.492 -11.064
v 15.038 0.472 -46.084
v 11.582 0.465 -45.536
v 17.132 0.471 -10.516
f 621 622 623 624
v 21.182 0.944 115.540
v 9.462 0.928 115.390
v 9.418 0.925 118.890
v 21.138 0.953 119.040
f 625 626 627 628
v 64.387 0.964 13.640
v 86.257 0.871 13.180
v 86.183 0.857 9.680
v 64.313 0.959 10.140
f 629 630 631 632
v 84.615 0.914 12.127
v 90.995 0.493 26.817
v 94.205 0.459 25.423
v 87.825 0.841 10.733
f 633 634 635 636
v 8.883 0.522 11.960
v 45.383 0.749 12.110
v 45.397 0.743 8.610
v 8.897 0.633 8.460
f 637 638 639 640
v 31.277 0.546 -15.223
v 44.907 0.519 -21.553
v 43.433 0.516 -24.727
v 29.803 0.540 -18.397
f 641 642 643 644
v 44.193 0.517 -21.390
v 48.793 0.498 -21.450
v 48.747 0.511 -24.950
v 44.147 0.514 -24.890
f 645 646 647 648
v 48.790 0.498 -21.450
v 71.210 0.532 -21.710
v 71.170 0.545 -25.210
v 48.750 0.511 -24.950
f 649 650 651 652
v 69.338 0.866 96.173
v 71.108 0.926 81.023
v 67.632 0.917 80.617
v 65.862 0.840 95.767
f 653 654 655 656
v 69.603 0.949 79.086
v 45.153 0.911 75.806
v 44.687 0.899 79.274
v 69.137 0.931 82.554
f 657 658 659 660
v 61.091 0.914 132.702
v 92.281 0.821 138.302
v 92.899 0.808 134.858
v 61.709 0.904 129.258
f 661 662 663 664
v 58.623 0.934 155.269
v 60.863 0.969 144.579
v 57.437 1.012 143.861
v 55.197 0.949 154.551
f 665 666 667 668
v 60.875 0.969 144.513
v 63.125 0.911 131.273
v 59.675 0.898 130.687
v 57.425 1.011 143.927
f 669 670 671 672
v 63.125 0.911 131.274
v 64.105 0.890 125.524
v 60.655 0.885 124.936
v 59.675 0.898 130.686
f 673 674 675 676
v 64.103 0.890 125.537
v 69.323 0.865 96.277
v 65.877 0.841 95.663
v 60.657 0.885 124.923
f 677 678 679 680
v 180.357 1.177 169.665
v 164.847 1.138 167.025
v 162.833 1.145 178.855
v 178.343 1.220 181.495
f 681 682 683 684
v 164.841 1.138 167.024
v 124.791 1.021 160.244
v 122.789 1.004 172.076
v 162.839 1.145 178.856
f 685 686 687 688
v 124.762 1.021 160.239
v 105.512 0.953 157.079
v 103.568 0.977 168.921
v 122.818 1.004 172.081
f 689 690 691 692
usemtl asphalt
v -46.160 0.571 -57.402
v -46.710 0.712 -109.882
v -56.710 0.725 -109.778
v -56.160 0.638 -57.298
f 693 694 695 696
v -46.710 0.712 -109.881
v -46.960 0.677 -134.591
v -56.960 0.750 -134.489
v -56.710 0.725 -109.779
f 697 698 699 700
v -46.960 0.677 -134.596
v -47.010 0.669 -139.046
v -57.010 0.750 -138.934
v -56.960 0.750 -134.484
f 701 702 703 704
v -47.010 0.669 -139.043
v -47.150 0.623 -152.203
v -57.150 0.712 -152.097
v -57.010 0.750 -138.937
f 705 706 707 708
v -47.151 0.623 -152.233
v -47.221 0.610 -156.463
v -57.219 0.686 -156.297
v -57.149 0.712 -152.067
f 709 710 711 712
v -47.220 0.610 -156.402
v -47.270 0.595 -167.582
v -57.270 0.618 -167.538
v -57.220 0.685 -156.358
f 713 714 715 716
v 127.995 0.672 -185.844
v 131.365 0.660 -185.114
v 135.175 0.733 -202.706
v 131.805 0.698 -203.436
f 717 718 719 720
v 129.187 0.671 -185.889
v 132.507 0.655 -184.199
v 140.673 0.745 -200.241
v 137.353 0.735 -201.931
f 721 722 723 724
v 131.617 0.658 -184.719
v 134.377 0.655 -182.889
v 144.323 0.734 -197.891
v 141.563 0.744 -199.721
f 725 726 727 728
v 132.918 0.656 -184.095
v 134.758 0.653 -182.215
v 147.622 0.737 -194.805
v 145.782 0.734 -196.685
f 729 730 731 732
v 134.052 0.655 -183.029
v 135.772 0.648 -180.789
v 150.048 0.710 -191.751
v 148.328 0.730 -193.991
f 733 734 735 736
v 134.994 0.653 -181.988
v 136.314 0.640 -179.548
v 152.146 0.685 -188.112
v 150.826 0.700 -190.552
f 737 738 739 740
v 135.638 0.649 -181.150
v 136.608 0.630 -178.040
v 153.792 0.659 -183.400
v 152.822 0.675 -186.510
f 741 742 743 744
v 136.301 0.639 -179.376
v 136.801 0.619 -176.066
v 154.599 0.643 -178.754
v 154.099 0.655 -182.064
f 745 746 747 748
v 136.700 0.626 -177.497
v 136.620 0.597 -169.257
v 154.620 0.582 -169.083
v 154.700 0.628 -177.323
f 749 750 751 752
v 154.612 0.620 -176.152
v 155.092 0.646 -179.552
v 137.268 0.653 -182.068
v 136.788 0.636 -178.668
f 753 754 755 756
v 154.718 0.634 -177.964
v 155.738 0.654 -181.024
v 138.662 0.680 -186.716
v 137.642 0.658 -183.656
f 757 758 759 760
v 155.196 0.647 -179.740
v 157.076 0.666 -183.380
v 141.084 0.717 -191.640
v 139.204 0.689 -188.000
f 761 762 763 764
v 155.590 0.655 -181.296
v 158.530 0.670 -184.376
v 145.510 0.733 -196.804
v 142.570 0.728 -193.724
f 765 766 767 768
v 157.348 0.666 -183.337
v 159.948 0.671 -185.247
v 149.292 0.742 -199.753
v 146.692 0.731 -197.843
f 769 770 771 772
v 158.676 0.670 -184.466
v 160.776 0.671 -185.526
v 152.664 0.732 -201.594
v 150.564 0.743 -200.534
f 773 774 775 776
v 159.514 0.671 -185.005
v 161.474 0.669 -185.645
v 155.886 0.718 -202.755
v 153.926 0.727 -202.115
f 777 778 779 780
v 161.441 0.669 -185.634
v 163.861 0.665 -186.414
v 158.339 0.710 -203.546
v 155.919 0.718 -202.766
f 781 782 783 784
v 224.530 0.374 -169.420
v 224.510 0.384 -178.630
v 206.510 0.410 -178.590
v 206.530 0.415 -169.380
f 785 786 787 788
v 224.405 0.419 -179.983
v 223.985 0.483 -182.703
v 206.195 0.439 -179.957
v 206.615 0.395 -177.237
f 789 790 791 792
v 223.381 0.517 -184.831
v 221.481 0.589 -189.331
v 204.899 0.497 -182.329
v 206.799 0.402 -177.829
f 793 794 795 796
v 220.472 0.623 -191.118
v 218.112 0.674 -194.368
v 203.548 0.540 -183.792
v 205.908 0.455 -180.542
f 797 798 799 800
v 216.842 0.712 -195.777
v 213.812 0.691 -198.497
v 201.788 0.581 -185.103
v 204.818 0.498 -182.383
f 801 802 803 804
v 211.825 0.681 -199.850
v 208.105 0.665 -201.710
v 200.055 0.601 -185.610
v 203.775 0.536 -183.750
f 805 806 807 808
v 207.002 0.659 -202.172
v 202.632 0.617 -203.672
v 196.788 0.633 -186.648
v 201.158 0.588 -185.148
f 809 810 811 812
v 224.400 0.354 -177.210
v 225.000 0.451 -181.020
v 207.220 0.507 -183.820
v 206.620 0.437 -180.010
f 813 814 815 816
v 224.515 0.398 -179.201
v 225.825 0.502 -182.621
v 209.015 0.603 -189.059
v 207.705 0.538 -185.639
f 817 818 819 820
v 225.009 0.450 -181.002
v 226.909 0.538 -183.982
v 211.731 0.677 -193.658
v 209.831 0.619 -190.678
f 821 822 823 824
v 225.621 0.493 -182.393
v 228.171 0.558 -184.893
v 215.569 0.707 -197.747
v 213.019 0.706 -195.247
f 825 826 827 828
v 226.566 0.530 -183.643
v 229.296 0.571 -185.313
v 219.904 0.681 -200.667
v 217.174 0.687 -198.997
f 829 830 831 832
v 228.437 0.559 -184.849
v 231.407 0.598 -186.249
v 223.733 0.651 -202.531
v 220.763 0.680 -201.131
f 833 834 835 836
v 230.049 0.581 -185.738
v 233.399 0.621 -186.698
v 228.441 0.610 -204.002
v 225.091 0.647 -203.042
f 837 838 839 840
v 255.950 0.521 -204.489
v 230.870 0.592 -204.350
v 230.970 0.595 -186.350
v 256.050 0.606 -186.490
f 841 842 843 844
v 230.874 0.592 -204.350
v 215.194 0.582 -204.270
v 215.286 0.498 -186.270
v 230.966 0.595 -186.350
f 845 846 847 848
v 215.176 0.582 -204.270
v 199.646 0.583 -204.160
v 199.774 0.613 -186.160
v 215.304 0.498 -186.270
f 849 850 851 852
v 199.710 0.584 -204.160
v 196.380 0.556 -204.160
v 196.380 0.623 -186.160
v 199.710 0.614 -186.160
f 853 854 855 856
v 196.323 0.556 -204.160
v 172.593 0.655 -204.010
v 172.707 0.619 -186.010
v 196.437 0.623 -186.160
f 857 858 859 860
v 172.627 0.654 -204.010
v 161.077 0.705 -203.980
v 161.123 0.672 -185.980
v 172.673 0.619 -186.010
f 861 862 863 864
v 161.002 0.705 -203.979
v 129.802 0.684 -203.639
v 129.998 0.668 -185.641
v 161.198 0.672 -185.981
f 865 866 867 868
v 129.886 0.685 -203.640
v 73.476 0.611 -203.550
v 73.504 0.625 -185.550
v 129.914 0.668 -185.640
f 869 870 871 872
v 73.427 0.611 -203.550
v 69.147 0.603 -203.520
v 69.273 0.604 -185.520
v 73.553 0.625 -185.550
f 873 874 875 876
v 69.147 0.603 -203.520
v 37.647 0.574 -203.300
v 37.773 0.569 -185.300
v 69.273 0.604 -185.520
f 877 878 879 880
v 37.649 0.574 -203.300
v 34.689 0.569 -203.280
v 34.811 0.566 -185.280
v 37.771 0.569 -185.300
f 881 882 883 884
v 34.764 0.569 -203.280
v 21.504 0.591 -203.300
v 21.476 0.579 -185.300
v 34.736 0.567 -185.280
f 885 886 887 888
v 21.445 0.591 -203.300
v 17.435 0.607 -203.280
v 17.525 0.583 -185.280
v 21.535 0.579 -185.300
f 889 890 891 892
v 17.432 0.607 -203.280
v -14.218 0.646 -203.110
v -14.122 0.621 -185.110
v 17.528 0.583 -185.280
f 893 894 895 896
v -14.211 0.646 -203.110
v -18.641 0.635 -203.090
v -18.559 0.625 -185.090
v -14.129 0.621 -185.110
f 897 898 899 900
v -18.668 0.635 -203.090
v -33.308 0.640 -202.980
v -33.172 0.613 -184.980
v -18.532 0.625 -185.090
f 901 902 903 904
v -33.308 0.640 -202.980
v -37.268 0.656 -202.950
v -37.132 0.585 -184.950
v -33.172 0.613 -184.980
f 905 906 907 908
v -37.271 0.656 -202.950
v -67.881 0.631 -202.710
v -67.739 0.584 -184.710
v -37.129 0.585 -184.950
f 909 910 911 912
v -67.878 0.631 -202.710
v -73.178 0.660 -202.670
v -73.042 0.610 -184.670
v -67.742 0.584 -184.710
f 913 914 915 916
v -73.151 0.660 -202.670
v -192.551 0.540 -202.120
v -192.469 0.582 -184.120
v -73.069 0.610 -184.670
f 917 918 919 920
v -192.601 0.540 -202.120
v -225.111 0.551 -201.790
v -224.929 0.633 -183.790
v -192.419 0.582 -184.120
f 921 922 923 924
v -225.061 0.551 -201.790
v -256.041 0.576 -201.650
v -255.959 0.561 -183.651
v -224.979 0.634 -183.790
f 925 926 927 928
v -111.968 0.806 -96.660
v -58.758 0.666 -96.890
v -58.802 0.679 -106.890
v -112.012 0.779 -106.660
f 929 930 931 932
v -57.894 0.678 -96.969
v -55.394 0.714 -97.419
v -57.166 0.711 -107.261
v -59.666 0.664 -106.811
f 933 934 935 936
v -52.774 0.735 -98.775
v -50.974 0.741 -100.545
v -57.986 0.695 -107.675
v -59.786 0.663 -105.905
f 937 938 939 940
v -50.749 0.743 -100.782
v -49.099 0.743 -102.632
v -56.561 0.727 -109.288
v -58.211 0.690 -107.438
f 941 942 943 944
v -48.027 0.734 -104.570
v -46.907 0.717 -108.440
v -56.513 0.731 -111.220
v -57.633 0.702 -107.350
f 945 946 947 948
v 104.921 0.338 -162.060
v 66.591 0.380 -161.840
v 66.649 0.454 -151.840
v 104.979 0.444 -152.060
f 949 950 951 952
v 66.592 0.380 -161.840
v 41.652 0.382 -161.700
v 41.708 0.526 -151.700
v 66.648 0.454 -151.840
f 953 954 955 956
v 41.651 0.382 -161.700
v 14.491 0.425 -161.540
v 14.549 0.514 -151.540
v 41.709 0.526 -151.700
f 957 958 959 960
v 14.491 0.425 -161.540
v -11.289 0.424 -161.390
v -11.231 0.512 -151.390
v 14.549 0.514 -151.540
f 961 962 963 964
v -11.237 0.424 -161.390
v -32.907 0.493 -161.490
v -32.953 0.539 -151.490
v -11.283 0.512 -151.390
f 965 966 967 968
v -32.913 0.493 -161.490
v -38.733 0.531 -161.510
v -38.767 0.547 -151.510
v -32.947 0.539 -151.490
f 969 970 971 972
v -37.716 0.525 -161.402
v -40.886 0.546 -162.072
v -42.954 0.583 -152.288
v -39.784 0.552 -151.618
f 973 974 975 976
v -39.815 0.538 -161.715
v -42.875 0.565 -163.135
v -47.085 0.619 -154.065
v -44.025 0.592 -152.645
f 977 978 979 980
v -41.723 0.555 -162.394
v -44.763 0.567 -165.004
v -51.277 0.677 -157.416
v -48.237 0.634 -154.806
f 981 982 983 984
v -44.150 0.566 -164.376
v -46.580 0.582 -167.346
v -54.320 0.680 -161.014
v -51.890 0.683 -158.044
f 985 986 987 988
v -46.048 0.576 -166.550
v -47.868 0.606 -169.930
v -56.672 0.639 -165.190
v -54.852 0.673 -161.810
f 989 990 991 992
v 106.074 0.608 -124.540
v -34.506 0.609 -123.820
v -34.454 0.672 -113.820
v 106.126 0.678 -114.540
f 993 994 995 996
v -34.509 0.609 -123.820
v -39.649 0.613 -123.790
v -39.591 0.663 -113.790
v -34.451 0.672 -113.820
f 997 998 999 1000
v -37.581 0.618 -123.355
v -41.791 0.614 -125.235
v -45.869 0.679 -116.105
v -41.659 0.663 -114.225
f 1001 1002 1003 1004
v -40.433 0.610 -124.339
v -44.473 0.644 -128.079
v -51.267 0.777 -120.741
v -47.227 0.698 -117.001
f 1005 1006 1007 1008
v -43.420 0.633 -126.689
v -45.730 0.665 -131.199
v -54.630 0.777 -126.641
v -52.320 0.792 -122.131
f 1009 1010 1011 1012
v -45.413 0.661 -130.430
v -47.193 0.684 -136.050
v -56.727 0.751 -133.030
v -54.947 0.772 -127.410
f 1013 1014 1015 1016
v 106.048 0.851 -87.300
v -30.792 0.763 -86.970
v -30.768 0.682 -76.970
v 106.072 0.889 -77.300
f 1017 1018 1019 1020
v -29.410 0.763 -86.779
v -35.480 0.756 -88.509
v -38.220 0.665 -78.891
v -32.150 0.675 -77.161
f 1021 1022 1023 1024
v -33.797 0.758 -87.660
v -38.467 0.742 -91.260
v -44.573 0.685 -83.340
v -39.903 0.670 -79.740
f 1025 1026 1027 1028
v -37.495 0.747 -90.266
v -41.975 0.737 -96.346
v -50.025 0.710 -90.414
v -45.545 0.687 -84.334
f 1029 1030 1031 1032
v -41.276 0.736 -95.020
v -46.986 0.706 -111.470
v -56.434 0.727 -108.190
v -50.724 0.716 -91.740
f 1033 1034 1035 1036
v 35.398 0.576 -185.602
v 41.268 0.546 -184.042
v 45.892 0.654 -201.438
v 40.022 0.589 -202.998
f 1037 1038 1039 1040
v 38.807 0.567 -185.110
v 43.107 0.509 -182.420
v 52.653 0.709 -197.680
v 48.353 0.678 -200.370
f 1041 1042 1043 1044
v 41.168 0.546 -184.055
v 44.178 0.459 -180.685
v 57.602 0.681 -192.675
v 54.592 0.723 -196.045
f 1045 1046 1047 1048
v 42.879 0.514 -182.579
v 45.459 0.371 -177.539
v 61.481 0.587 -185.741
v 58.901 0.655 -190.781
f 1049 1050 1051 1052
v 44.672 0.434 -179.744
v 45.422 0.335 -176.264
v 63.018 0.476 -180.056
v 62.268 0.550 -183.536
f 1053 1054 1055 1056
v 66.192 0.608 -202.999
v 63.242 0.638 -201.949
v 69.278 0.595 -184.991
v 72.228 0.624 -186.041
f 1057 1058 1059 1060
v 62.448 0.651 -201.623
v 58.598 0.692 -199.823
v 66.222 0.565 -183.517
v 70.072 0.604 -185.317
f 1061 1062 1063 1064
v 56.658 0.703 -198.592
v 53.758 0.721 -196.182
v 65.262 0.542 -182.338
v 68.162 0.592 -184.748
f 1065 1066 1067 1068
v 52.402 0.726 -194.781
v 49.932 0.674 -191.601
v 64.148 0.499 -180.559
v 66.618 0.570 -183.739
f 1069 1070 1071 1072
v 49.055 0.655 -190.232
v 47.625 0.621 -187.482
v 63.595 0.449 -179.178
v 65.025 0.534 -181.928
f 1073 1074 1075 1076
v 46.948 0.589 -185.773
v 46.178 0.523 -183.043
v 63.502 0.413 -178.157
v 64.272 0.510 -180.887
f 1077 1078 1079 1080
v 46.117 0.517 -182.816
v 45.497 0.453 -180.376
v 62.943 0.357 -175.944
v 63.563 0.421 -178.384
f 1081 1082 1083 1084
v 68.005 0.387 -161.644
v 63.945 0.355 -162.814
v 61.175 0.445 -153.206
v 65.235 0.457 -152.036
f 1085 1086 1087 1088
v 65.353 0.371 -162.157
v 62.873 0.340 -163.827
v 57.287 0.436 -155.533
v 59.767 0.442 -153.863
f 1089 1090 1091 1092
v 63.245 0.344 -163.551
v 61.215 0.315 -165.211
v 54.885 0.431 -157.469
v 56.915 0.437 -155.809
f 1093 1094 1095 1096
v 62.092 0.332 -164.283
v 60.672 0.295 -166.233
v 52.588 0.382 -160.347
v 54.008 0.420 -158.397
f 1097 1098 1099 1100
v 60.969 0.303 -165.775
v 59.629 0.286 -168.115
v 50.951 0.337 -163.145
v 52.291 0.371 -160.805
f 1101 1102 1103 1104
v 59.876 0.285 -167.622
v 58.916 0.300 -169.832
v 49.744 0.330 -165.848
v 50.704 0.340 -163.638
f 1105 1106 1107 1108
v -16.661 0.628 -185.462
v -14.161 0.615 -184.742
v -9.179 0.666 -202.038
v -11.679 0.658 -202.758
f 1109 1110 1111 1112
v -14.260 0.615 -184.771
v -11.930 0.599 -184.071
v -6.750 0.689 -201.309
v -9.080 0.667 -202.009
f 1113 1114 1115 1116
v -12.940 0.610 -184.441
v -10.580 0.585 -183.411
v -3.380 0.706 -199.909
v -5.740 0.700 -200.939
f 1117 1118 1119 1120
v -12.185 0.604 -184.318
v -10.055 0.572 -182.808
v 0.355 0.719 -197.492
v -1.775 0.714 -199.002
f 1121 1122 1123 1124
v -11.080 0.591 -183.655
v -8.630 0.532 -181.305
v 3.830 0.744 -194.295
v 1.380 0.729 -196.645
f 1125 1126 1127 1128
v -9.655 0.561 -182.473
v -8.025 0.494 -180.253
v 6.485 0.683 -190.907
v 4.855 0.726 -193.127
f 1129 1130 1131 1132
v -8.581 0.527 -181.109
v -6.881 0.430 -178.139
v 8.741 0.643 -187.081
v 7.041 0.675 -190.051
f 1133 1134 1135 1136
v -7.742 0.491 -180.202
v -6.512 0.387 -175.772
v 10.832 0.471 -180.588
v 9.602 0.579 -185.018
f 1137 1138 1139 1140
v 14.522 0.618 -202.780
v 11.562 0.656 -201.750
v 17.478 0.569 -184.750
v 20.438 0.595 -185.780
f 1141 1142 1143 1144
v 10.651 0.667 -201.376
v 6.871 0.704 -199.576
v 14.609 0.539 -183.324
v 18.389 0.579 -185.124
f 1145 1146 1147 1148
v 5.099 0.712 -198.463
v 2.389 0.735 -196.283
v 13.671 0.508 -182.257
v 16.381 0.562 -184.437
f 1149 1150 1151 1152
v 1.790 0.744 -195.756
v -0.320 0.739 -193.726
v 12.160 0.466 -180.754
v 14.270 0.525 -182.784
f 1153 1154 1155 1156
v -1.885 0.708 -191.722
v -3.315 0.669 -189.232
v 12.295 0.449 -180.268
v 13.725 0.525 -182.758
f 1157 1158 1159 1160
v -3.904 0.655 -187.996
v -5.014 0.594 -185.126
v 11.774 0.398 -178.634
v 12.884 0.484 -181.504
f 1161 1162 1163 1164
v -5.167 0.585 -184.698
v -6.387 0.508 -180.998
v 10.707 0.327 -175.362
v 11.927 0.411 -179.062
f 1165 1166 1167 1168
v 16.052 0.425 -161.300
v 12.882 0.420 -162.320
v 9.818 0.514 -152.800
v 12.988 0.514 -151.780
f 1169 1170 1171 1172
v 13.909 0.423 -161.855
v 11.509 0.411 -163.285
v 6.391 0.506 -154.695
v 8.791 0.513 -153.265
f 1173 1174 1175 1176
v 11.937 0.414 -162.999
v 9.387 0.395 -164.899
v 3.413 0.476 -156.881
v 5.963 0.504 -154.981
f 1177 1178 1179 1180
v 10.326 0.404 -163.987
v 8.906 0.387 -165.787
v 1.054 0.427 -159.593
v 2.474 0.457 -157.793
f 1181 1182 1183 1184
v 9.084 0.389 -165.547
v 7.664 0.381 -167.587
v -0.544 0.424 -161.873
v 0.876 0.426 -159.833
f 1185 1186 1187 1188
v 7.979 0.382 -167.069
v 6.709 0.378 -169.469
v -2.129 0.416 -164.791
v -0.859 0.425 -162.391
f 1189 1190 1191 1192
v -43.725 0.520 -175.626
v -43.415 0.530 -176.786
v -60.805 0.551 -181.434
v -61.115 0.545 -180.274
f 1193 1194 1195 1196
v -43.456 0.528 -176.638
v -42.636 0.545 -179.508
v -59.944 0.579 -184.452
v -60.764 0.551 -181.582
f 1197 1198 1199 1200
v -43.116 0.536 -178.214
v -41.766 0.564 -181.144
v -58.114 0.683 -188.676
v -59.464 0.613 -185.746
f 1201 1202 1203 1204
v -42.778 0.545 -179.460
v -40.708 0.569 -182.180
v -55.032 0.742 -193.080
v -57.102 0.705 -190.360
f 1205 1206 1207 1208
v -41.361 0.564 -181.414
v -39.031 0.575 -183.854
v -52.049 0.747 -196.286
v -54.379 0.747 -193.846
f 1209 1210 1211 1212
v -41.221 0.573 -182.174
v -37.181 0.579 -184.384
v -45.819 0.699 -200.176
v -49.859 0.727 -197.966
f 1213 1214 1215 1216
v -38.242 0.574 -183.890
v -33.942 0.618 -185.560
v -40.458 0.663 -202.340
v -44.758 0.689 -200.670
f 1217 1218 1219 1220
v -70.861 0.627 -185.243
v -67.781 0.577 -184.133
v -61.679 0.687 -201.067
v -64.759 0.646 -202.177
f 1221 1222 1223 1224
v -68.098 0.581 -184.254
v -64.728 0.542 -182.894
v -57.992 0.702 -199.586
v -61.362 0.690 -200.946
f 1225 1226 1227 1228
v -66.849 0.571 -184.107
v -63.899 0.539 -181.837
v -52.921 0.745 -196.103
v -55.871 0.712 -198.373
f 1229 1230 1231 1232
v -65.146 0.545 -183.001
v -62.966 0.533 -180.541
v -49.494 0.752 -192.479
v -51.674 0.768 -194.939
f 1233 1234 1235 1236
v -63.603 0.538 -181.349
v -61.993 0.535 -179.049
v -47.247 0.699 -189.371
v -48.857 0.741 -191.671
f 1237 1238 1239 1240
v -62.803 0.534 -180.463
v -61.553 0.533 -177.733
v -45.187 0.627 -185.227
v -46.437 0.674 -187.957
f 1241 1242 1243 1244
v -62.140 0.536 -179.456
v -61.570 0.531 -176.986
v -44.030 0.578 -181.034
v -44.600 0.608 -183.504
f 1245 1246 1247 1248
v -61.272 0.533 -175.973
v -60.892 0.537 -174.913
v -43.948 0.577 -180.987
v -44.328 0.591 -182.047
f 1249 1250 1251 1252
v 163.697 0.701 -203.597
v 159.317 0.701 -204.917
v 154.123 0.684 -187.683
v 158.503 0.677 -186.363
f 1253 1254 1255 1256
v 161.209 0.703 -204.101
v 158.359 0.701 -205.741
v 149.381 0.696 -190.139
v 152.231 0.687 -188.499
f 1257 1258 1259 1260
v 159.555 0.700 -204.917
v 155.885 0.697 -207.907
v 144.515 0.730 -193.953
v 148.185 0.704 -190.963
f 1261 1262 1263 1264
v 157.559 0.701 -206.111
v 155.419 0.694 -209.151
v 140.701 0.745 -198.789
v 142.841 0.736 -195.749
f 1265 1266 1267 1268
v 156.250 0.697 -207.702
v 154.500 0.693 -211.542
v 138.120 0.724 -204.078
v 139.870 0.743 -200.238
f 1269 1270 1271 1272
v 155.155 0.694 -209.476
v 154.445 0.685 -213.246
v 136.755 0.686 -209.914
v 137.465 0.720 -206.144
f 1273 1274 1275 1276
v 154.594 0.691 -211.909
v 154.464 0.664 -215.459
v 136.476 0.673 -214.801
v 136.606 0.680 -211.251
f 1277 1278 1279 1280
v -199.779 0.591 -174.095
v -198.709 0.560 -177.885
v -216.031 0.589 -182.775
v -217.101 0.574 -178.985
f 1281 1282 1283 1284
v -198.972 0.577 -177.095
v -198.032 0.540 -179.535
v -214.828 0.600 -186.005
v -215.768 0.592 -183.565
f 1285 1286 1287 1288
v -198.726 0.556 -178.117
v -196.896 0.548 -181.147
v -212.304 0.646 -190.453
v -214.134 0.609 -187.423
f 1289 1290 1291 1292
v -197.642 0.542 -180.092
v -195.952 0.559 -182.152
v -209.868 0.682 -193.568
v -211.558 0.666 -191.508
f 1293 1294 1295 1296
v -196.679 0.550 -181.366
v -194.949 0.569 -183.026
v -207.411 0.643 -196.014
v -209.141 0.672 -194.354
f 1297 1298 1299 1300
v -196.471 0.556 -181.850
v -192.871 0.583 -184.060
v -202.289 0.605 -199.400
v -205.889 0.624 -197.190
f 1301 1302 1303 1304
v -195.200 0.569 -183.050
v -190.130 0.579 -184.440
v -194.890 0.551 -201.800
v -199.960 0.593 -200.410
f 1305 1306 1307 1308
v -226.805 0.635 -183.969
v -221.615 0.598 -182.919
v -218.045 0.568 -200.561
v -223.235 0.544 -201.611
f 1309 1310 1311 1312
v -224.019 0.622 -183.774
v -220.919 0.592 -182.144
v -212.541 0.612 -198.076
v -215.641 0.589 -199.706
f 1313 1314 1315 1316
v -222.384 0.602 -183.108
v -219.424 0.584 -180.718
v -208.116 0.666 -194.722
v -211.076 0.619 -197.112
f 1317 1318 1319 1320
v -220.450 0.590 -181.689
v -218.220 0.580 -179.219
v -204.860 0.663 -191.281
v -207.090 0.684 -193.751
f 1321 1322 1323 1324
v -219.586 0.586 -181.217
v -217.496 0.579 -177.047
v -201.404 0.582 -185.113
v -203.494 0.636 -189.283
f 1325 1326 1327 1328
v -218.235 0.580 -179.126
v -217.225 0.570 -174.586
v -199.655 0.552 -178.494
v -200.665 0.563 -183.034
f 1329 1330 1331 1332
v -43.271 0.535 -167.690
v -43.421 0.539 -178.080
v -61.419 0.534 -177.820
v -61.269 0.582 -167.430
f 1333 1334 1335 1336
v -217.438 0.577 -176.366
v -217.258 0.524 -167.036
v -199.262 0.584 -167.384
v -199.442 0.583 -176.714
f 1337 1338 1339 1340
v -6.839 0.428 -178.074
v -6.709 0.379 -167.024
v 11.289 0.365 -167.236
v 11.159 0.389 -178.286
f 1341 1342 1343 1344
v -1.924 0.405 -169.821
v -3.214 0.385 -167.801
v 5.214 0.429 -162.419
v 6.504 0.413 -164.439
f 1345 1346 1347 1348
v -3.147 0.385 -167.903
v -4.447 0.392 -165.973
v 3.847 0.440 -160.387
v 5.147 0.430 -162.317
f 1349 1350 1351 1352
v -4.011 0.388 -166.531
v -6.341 0.409 -163.951
v 1.081 0.458 -157.249
v 3.411 0.441 -159.829
f 1353 1354 1355 1356
v -6.367 0.409 -163.922
v -6.607 0.412 -163.652
v 0.867 0.461 -157.008
v 1.107 0.458 -157.278
f 1357 1358 1359 1360
v -5.732 0.405 -164.430
v -8.382 0.421 -162.580
v -2.658 0.473 -154.380
v -0.008 0.459 -156.230
f 1361 1362 1363 1364
v -7.578 0.417 -163.037
v -10.368 0.423 -161.777
v -6.252 0.498 -152.663
v -3.462 0.478 -153.923
f 1365 1366 1367 1368
v -9.664 0.423 -162.033
v -12.614 0.425 -161.203
v -9.906 0.512 -151.577
v -6.956 0.504 -152.407
f 1369 1370 1371 1372
v 45.221 0.387 -178.064
v 45.331 0.277 -167.744
v 63.329 0.305 -167.936
v 63.219 0.416 -178.256
f 1373 1374 1375 1376
v 50.074 0.344 -170.465
v 47.934 0.287 -166.995
v 56.446 0.359 -161.745
v 58.586 0.319 -165.215
f 1377 1378 1379 1380
v 48.140 0.290 -167.303
v 46.250 0.309 -164.693
v 54.350 0.414 -158.827
v 56.240 0.364 -161.437
f 1381 1382 1383 1384
v 46.911 0.298 -165.436
v 44.481 0.333 -163.196
v 51.259 0.444 -155.844
v 53.689 0.424 -158.084
f 1385 1386 1387 1388
v 45.105 0.324 -163.686
v 42.755 0.362 -162.126
v 48.285 0.469 -153.794
v 50.635 0.449 -155.354
f 1389 1390 1391 1392
v 43.961 0.344 -162.711
v 40.121 0.396 -161.451
v 43.239 0.520 -151.949
v 47.079 0.474 -153.209
f 1393 1394 1395 1396
v 136.231 0.613 -256.016
v 136.190 0.546 -233.096
v 154.190 0.533 -233.064
v 154.230 0.589 -255.984
f 1397 1398 1399 1400
v 136.191 0.548 -232.940
v 136.471 0.672 -214.990
v 154.469 0.666 -215.270
v 154.189 0.532 -233.220
f 1401 1402 1403 1404
v 136.823 0.680 -213.573
v 136.253 0.679 -211.063
v 153.807 0.702 -207.077
v 154.377 0.692 -209.587
f 1405 1406 1407 1408
v 136.668 0.681 -212.397
v 135.188 0.684 -208.677
v 151.912 0.734 -202.023
v 153.392 0.714 -205.743
f 1409 1410 1411 1412
v 135.430 0.683 -209.231
v 133.910 0.691 -206.051
v 150.150 0.735 -198.289
v 151.670 0.737 -201.469
f 1413 1414 1415 1416
v 135.311 0.688 -208.157
v 133.021 0.690 -205.587
v 146.459 0.725 -193.613
v 148.749 0.737 -196.183
f 1417 1418 1419 1420
v 134.448 0.688 -206.880
v 131.738 0.687 -204.910
v 142.322 0.702 -190.350
v 145.032 0.716 -192.320
f 1421 1422 1423 1424
v 132.722 0.689 -205.532
v 129.732 0.682 -203.902
v 138.348 0.691 -188.098
v 141.338 0.696 -189.728
f 1425 1426 1427 1428
v 131.231 0.686 -204.550
v 127.091 0.683 -203.190
v 132.709 0.670 -186.090
v 136.849 0.686 -187.450
f 1429 1430 1431 1432
v 136.621 0.597 -169.283
v 136.571 0.582 -165.313
v 154.569 0.579 -165.087
v 154.619 0.581 -169.057
f 1433 1434 1435 1436
v 136.594 0.579 -164.547
v 136.864 0.581 -160.837
v 154.816 0.570 -162.143
v 154.546 0.580 -165.853
f 1437 1438 1439 1440
v 137.199 0.579 -158.973
v 138.469 0.572 -154.613
v 155.751 0.565 -159.647
v 154.481 0.575 -164.007
f 1441 1442 1443 1444
v 139.722 0.582 -151.990
v 142.602 0.584 -147.850
v 157.378 0.562 -158.130
v 154.498 0.571 -162.270
f 1445 1446 1447 1448
v 145.084 0.596 -145.444
v 148.914 0.611 -142.954
v 158.726 0.555 -158.046
v 154.896 0.568 -160.536
f 1449 1450 1451 1452
v 150.398 0.601 -142.176
v 154.168 0.572 -140.626
v 161.012 0.536 -157.274
v 157.242 0.562 -158.824
f 1453 1454 1455 1456
v 156.856 0.575 -139.980
v 160.766 0.577 -139.660
v 162.234 0.525 -157.600
v 158.324 0.558 -157.920
f 1457 1458 1459 1460
v 161.629 0.578 -139.631
v 170.669 0.578 -139.761
v 170.411 0.496 -157.759
v 161.371 0.532 -157.629
f 1461 1462 1463 1464
v 170.578 0.578 -139.760
v 194.478 0.599 -139.860
v 194.402 0.491 -157.860
v 170.502 0.496 -157.760
f 1465 1466 1467 1468
v 194.555 0.599 -139.861
v 196.125 0.601 -139.881
v 195.895 0.496 -157.879
v 194.325 0.491 -157.859
f 1469 1470 1471 1472
v 196.045 0.601 -139.880
v 231.855 0.585 -140.020
v 231.785 0.465 -158.020
v 195.975 0.496 -157.880
f 1473 1474 1475 1476
v 231.916 0.586 -140.021
v 232.856 0.590 -140.031
v 232.664 0.469 -158.029
v 231.724 0.464 -158.019
f 1477 1478 1479 1480
v 232.804 0.589 -140.030
v 236.864 0.588 -140.050
v 236.776 0.485 -158.050
v 232.716 0.469 -158.030
f 1481 1482 1483 1484
v 236.867 0.588 -140.050
v 256.047 0.612 -140.151
v 255.953 0.485 -158.151
v 236.773 0.485 -158.050
f 1485 1486 1487 1488
v 197.219 0.602 -139.962
v 202.679 0.600 -140.702
v 200.261 0.504 -158.538
v 194.801 0.492 -157.798
f 1489 1490 1491 1492
v 203.836 0.594 -140.937
v 207.506 0.573 -141.937
v 202.774 0.494 -159.303
v 199.104 0.501 -158.303
f 1493 1494 1495 1496
v 210.438 0.544 -143.344
v 214.668 0.559 -146.424
v 204.072 0.476 -160.976
v 199.842 0.505 -157.896
f 1497 1498 1499 1500
v 216.125 0.549 -147.753
v 219.585 0.521 -151.683
v 206.075 0.443 -163.577
v 202.615 0.493 -159.647
f 1501 1502 1503 1504
v 221.092 0.514 -154.061
v 223.062 0.464 -158.621
v 206.538 0.434 -165.759
v 204.568 0.470 -161.199
f 1505 1506 1507 1508
v 223.654 0.451 -160.578
v 224.344 0.430 -164.368
v 206.636 0.426 -167.592
v 205.946 0.442 -163.802
f 1509 1510 1511 1512
v 224.489 0.414 -165.875
v 224.529 0.375 -169.295
v 206.531 0.415 -169.505
v 206.491 0.433 -166.085
f 1513 1514 1515 1516
v 206.513 0.436 -165.339
v 206.703 0.450 -162.679
v 224.657 0.431 -163.961
v 224.467 0.405 -166.621
f 1517 1518 1519 1520
v 207.281 0.475 -160.087
v 208.251 0.486 -157.567
v 225.049 0.429 -164.033
v 224.079 0.408 -166.553
f 1521 1522 1523 1524
v 208.359 0.487 -157.298
v 209.529 0.518 -154.528
v 226.111 0.447 -161.532
v 224.941 0.428 -164.302
f 1525 1526 1527 1528
v 210.587 0.531 -152.674
v 212.527 0.536 -150.054
v 226.993 0.451 -160.766
v 225.053 0.433 -163.386
f 1529 1530 1531 1532
v 213.383 0.541 -149.059
v 215.793 0.559 -146.639
v 228.547 0.460 -159.341
v 226.137 0.445 -161.761
f 1533 1534 1535 1536
v 216.860 0.559 -145.723
v 219.830 0.562 -143.553
v 230.450 0.463 -158.087
v 227.480 0.454 -160.257
f 1537 1538 1539 1540
v 222.143 0.584 -142.334
v 225.683 0.600 -141.084
v 231.677 0.464 -158.056
v 228.137 0.459 -159.306
f 1541 1542 1543 1544
v 227.127 0.597 -140.705
v 230.267 0.585 -140.155
v 233.373 0.473 -157.885
v 230.233 0.462 -158.435
f 1545 1546 1547 1548
