# Baked ultra-low Key West silhouette; generated by bake_key_west_far_city.py
mtllib far_city.mtl
usemtl massing
v 155.734 0.470 53.809
v 234.342 0.470 109.107
v 215.206 0.470 136.311
v 136.598 0.470 81.013
v 155.734 8.770 53.809
v 234.342 8.770 109.107
v 215.206 8.770 136.311
v 136.598 8.770 81.013
f 8 7 6 5
f 1 2 6 5
f 2 3 7 6
f 3 4 8 7
f 4 1 5 8
v -38.289 0.584 92.651
v -30.888 0.584 71.001
v -19.751 0.584 74.809
v -27.152 0.584 96.459
v -38.289 4.484 92.651
v -30.888 4.484 71.001
v -19.751 4.484 74.809
v -27.152 4.484 96.459
f 16 15 14 13
f 9 10 14 13
f 10 11 15 14
f 11 12 16 15
f 12 9 13 16
v -183.071 0.513 -184.563
v -162.724 0.513 -176.171
v -166.689 0.513 -166.557
v -187.036 0.513 -174.949
v -183.071 4.413 -184.563
v -162.724 4.413 -176.171
v -166.689 4.413 -166.557
v -187.036 4.413 -174.949
f 24 23 22 21
f 17 18 22 21
f 18 19 23 22
f 19 20 24 23
f 20 17 21 24
v -83.058 0.689 -90.580
v -58.404 0.689 -95.180
v -54.082 0.689 -72.020
v -78.736 0.689 -67.420
v -83.058 4.589 -90.580
v -58.404 4.589 -95.180
v -54.082 4.589 -72.020
v -78.736 4.589 -67.420
f 32 31 30 29
f 25 26 30 29
f 26 27 31 30
f 27 28 32 31
f 28 25 29 32
v -148.062 0.644 -69.958
v -125.329 0.644 -65.230
v -129.138 0.644 -46.922
v -151.871 0.644 -51.650
v -148.062 4.544 -69.958
v -125.329 4.544 -65.230
v -129.138 4.544 -46.922
v -151.871 4.544 -51.650
f 40 39 38 37
f 33 34 38 37
f 34 35 39 38
f 35 36 40 39
f 36 33 37 40
v -147.813 0.743 -84.210
v -133.409 0.743 -77.890
v -139.227 0.743 -64.630
v -153.631 0.743 -70.950
v -147.813 4.643 -84.210
v -133.409 4.643 -77.890
v -139.227 4.643 -64.630
v -153.631 4.643 -70.950
f 48 47 46 45
f 41 42 46 45
f 42 43 47 46
f 43 44 48 47
f 44 41 45 48
v -155.354 0.460 -105.499
v -135.967 0.460 -96.628
v -142.586 0.460 -82.161
v -161.973 0.460 -91.032
v -155.354 4.360 -105.499
v -135.967 4.360 -96.628
v -142.586 4.360 -82.161
v -161.973 4.360 -91.032
f 56 55 54 53
f 49 50 54 53
f 50 51 55 54
f 51 52 56 55
f 52 49 53 56
v -164.769 0.535 -115.943
v -149.762 0.535 -115.684
v -150.051 0.535 -98.917
v -165.058 0.535 -99.176
v -164.769 4.435 -115.943
v -149.762 4.435 -115.684
v -150.051 4.435 -98.917
v -165.058 4.435 -99.176
f 64 63 62 61
f 57 58 62 61
f 58 59 63 62
f 59 60 64 63
f 60 57 61 64
v -175.881 0.663 -126.465
v -158.659 0.663 -137.950
v -148.339 0.663 -122.475
v -165.561 0.663 -110.990
v -175.881 4.563 -126.465
v -158.659 4.563 -137.950
v -148.339 4.563 -122.475
v -165.561 4.563 -110.990
f 72 71 70 69
f 65 66 70 69
f 66 67 71 70
f 67 68 72 71
f 68 65 69 72
v -170.716 0.624 -151.895
v -152.794 0.624 -144.895
v -158.524 0.624 -130.225
v -176.446 0.624 -137.225
v -170.716 4.524 -151.895
v -152.794 4.524 -144.895
v -158.524 4.524 -130.225
v -176.446 4.524 -137.225
f 80 79 78 77
f 73 74 78 77
f 74 75 79 78
f 75 76 80 79
f 76 73 77 80
v -185.415 0.778 -165.837
v -163.711 0.778 -171.212
v -158.945 0.778 -151.963
v -180.649 0.778 -146.588
v -185.415 4.678 -165.837
v -163.711 4.678 -171.212
v -158.945 4.678 -151.963
v -180.649 4.678 -146.588
f 88 87 86 85
f 81 82 86 85
f 82 83 87 86
f 83 84 88 87
f 84 81 85 88
v -151.663 0.673 -196.643
v -134.157 0.673 -188.660
v -140.497 0.673 -174.757
v -158.003 0.673 -182.740
v -151.663 4.573 -196.643
v -134.157 4.573 -188.660
v -140.497 4.573 -174.757
v -158.003 4.573 -182.740
f 96 95 94 93
f 89 90 94 93
f 90 91 95 94
f 91 92 96 95
f 92 89 93 96
v -135.649 0.525 -177.766
v -125.162 0.525 -167.055
v -135.151 0.525 -157.274
v -145.638 0.525 -167.985
v -135.649 4.425 -177.766
v -125.162 4.425 -167.055
v -135.151 4.425 -157.274
v -145.638 4.425 -167.985
f 104 103 102 101
f 97 98 102 101
f 98 99 103 102
f 99 100 104 103
f 100 97 101 104
v -143.898 0.715 -161.623
v -123.372 0.715 -157.429
v -126.422 0.715 -142.497
v -146.948 0.715 -146.691
v -143.898 4.615 -161.623
v -123.372 4.615 -157.429
v -126.422 4.615 -142.497
v -146.948 4.615 -146.691
f 112 111 110 109
f 105 106 110 109
f 106 107 111 110
f 107 108 112 111
f 108 105 109 112
v -143.370 0.428 -143.391
v -117.705 0.428 -140.311
v -119.510 0.428 -125.269
v -145.175 0.428 -128.349
v -143.370 4.328 -143.391
v -117.705 4.328 -140.311
v -119.510 4.328 -125.269
v -145.175 4.328 -128.349
f 120 119 118 117
f 113 114 118 117
f 114 115 119 118
f 115 116 120 119
f 116 113 117 120
v -119.148 0.716 -127.960
v -110.155 0.716 -118.067
v -119.952 0.716 -109.160
v -128.945 0.716 -119.053
v -119.148 4.616 -127.960
v -110.155 4.616 -118.067
v -119.952 4.616 -109.160
v -128.945 4.616 -119.053
f 128 127 126 125
f 121 122 126 125
f 122 123 127 126
f 123 124 128 127
f 124 121 125 128
v -127.977 0.596 -114.063
v -104.296 0.596 -108.224
v -108.523 0.596 -91.077
v -132.204 0.596 -96.916
v -127.977 4.496 -114.063
v -104.296 4.496 -108.224
v -108.523 4.496 -91.077
v -132.204 4.496 -96.916
f 136 135 134 133
f 129 130 134 133
f 130 131 135 134
f 131 132 136 135
f 132 129 133 136
v -115.864 0.811 -96.379
v -100.403 0.811 -91.217
v -104.736 0.811 -78.241
v -120.197 0.811 -83.403
v -115.864 4.711 -96.379
v -100.403 4.711 -91.217
v -104.736 4.711 -78.241
v -120.197 4.711 -83.403
f 144 143 142 141
f 137 138 142 141
f 138 139 143 142
f 139 140 144 143
f 140 137 141 144
v -123.404 0.748 -76.057
v -101.048 0.748 -75.600
v -101.396 0.748 -58.583
v -123.752 0.748 -59.040
v -123.404 4.648 -76.057
v -101.048 4.648 -75.600
v -101.396 4.648 -58.583
v -123.752 4.648 -59.040
f 152 151 150 149
f 145 146 150 149
f 146 147 151 150
f 147 148 152 151
f 148 145 149 152
v -68.539 0.712 -111.172
v -63.765 0.712 -92.028
v -79.241 0.712 -88.168
v -84.015 0.712 -107.312
v -68.539 4.612 -111.172
v -63.765 4.612 -92.028
v -79.241 4.612 -88.168
v -84.015 4.612 -107.312
f 160 159 158 157
f 153 154 158 157
f 154 155 159 158
f 155 156 160 159
f 156 153 157 160
v -85.183 0.891 -125.497
v -64.637 0.891 -121.563
v -67.797 0.891 -105.063
v -88.343 0.891 -108.997
v -85.183 4.791 -125.497
v -64.637 4.791 -121.563
v -67.797 4.791 -105.063
v -88.343 4.791 -108.997
f 168 167 166 165
f 161 162 166 165
f 162 163 167 166
f 163 164 168 167
f 164 161 165 168
v -87.072 0.575 -146.566
v -59.610 0.575 -139.094
v -63.948 0.575 -123.154
v -91.410 0.575 -130.626
v -87.072 4.475 -146.566
v -59.610 4.475 -139.094
v -63.948 4.475 -123.154
v -91.410 4.475 -130.626
f 176 175 174 173
f 169 170 174 173
f 170 171 175 174
f 171 172 176 175
f 172 169 173 176
v -96.054 0.718 -154.629
v -81.441 0.718 -151.617
v -84.026 0.718 -139.071
v -98.639 0.718 -142.083
v -96.054 4.618 -154.629
v -81.441 4.618 -151.617
v -84.026 4.618 -139.071
v -98.639 4.618 -142.083
f 184 183 182 181
f 177 178 182 181
f 178 179 183 182
f 179 180 184 183
f 180 177 181 184
v -123.193 0.539 -220.913
v -107.192 0.539 -223.173
v -104.847 0.539 -206.567
v -120.848 0.539 -204.307
v -123.193 4.439 -220.913
v -107.192 4.439 -223.173
v -104.847 4.439 -206.567
v -120.848 4.439 -204.307
f 192 191 190 189
f 185 186 190 189
f 186 187 191 190
f 187 188 192 191
f 188 185 189 192
v -111.608 0.479 -204.055
v -96.216 0.479 -199.198
v -99.572 0.479 -188.565
v -114.964 0.479 -193.422
v -111.608 4.379 -204.055
v -96.216 4.379 -199.198
v -99.572 4.379 -188.565
v -114.964 4.379 -193.422
f 200 199 198 197
f 193 194 198 197
f 194 195 199 198
f 195 196 200 199
f 196 193 197 200
v -49.281 0.941 -215.045
v -7.946 0.941 -192.364
v -23.359 0.941 -164.275
v -64.694 0.941 -186.956
v -49.281 6.741 -215.045
v -7.946 6.741 -192.364
v -23.359 6.741 -164.275
v -64.694 6.741 -186.956
f 208 207 206 205
f 201 202 206 205
f 202 203 207 206
f 203 204 208 207
f 204 201 205 208
v -106.400 0.680 -189.839
v -88.057 0.680 -182.906
v -92.080 0.680 -172.261
v -110.423 0.680 -179.194
v -106.400 4.580 -189.839
v -88.057 4.580 -182.906
v -92.080 4.580 -172.261
v -110.423 4.580 -179.194
f 216 215 214 213
f 209 210 214 213
f 210 211 215 214
f 211 212 216 215
f 212 209 213 216
v -102.684 0.560 -171.146
v -87.729 0.560 -168.162
v -90.076 0.560 -156.394
v -105.031 0.560 -159.378
v -102.684 4.460 -171.146
v -87.729 4.460 -168.162
v -90.076 4.460 -156.394
v -105.031 4.460 -159.378
f 224 223 222 221
f 217 218 222 221
f 218 219 223 222
f 219 220 224 223
f 220 217 221 224
v -128.430 0.595 -238.336
v -112.253 0.595 -242.904
v -107.130 0.595 -224.764
v -123.307 0.595 -220.196
v -128.430 4.495 -238.336
v -112.253 4.495 -242.904
v -107.130 4.495 -224.764
v -123.307 4.495 -220.196
f 232 231 230 229
f 225 226 230 229
f 226 227 231 230
f 227 228 232 231
f 228 225 229 232
v -132.694 0.669 -251.981
v -117.515 0.669 -254.133
v -115.586 0.669 -240.519
v -130.765 0.669 -238.367
v -132.694 4.569 -251.981
v -117.515 4.569 -254.133
v -115.586 4.569 -240.519
v -130.765 4.569 -238.367
f 240 239 238 237
f 233 234 238 237
f 234 235 239 238
f 235 236 240 239
f 236 233 237 240
v -179.803 0.715 -227.568
v -151.331 0.715 -235.550
v -144.917 0.715 -212.672
v -173.389 0.715 -204.690
v -179.803 4.615 -227.568
v -151.331 4.615 -235.550
v -144.917 4.615 -212.672
v -173.389 4.615 -204.690
f 248 247 246 245
f 241 242 246 245
f 242 243 247 246
f 243 244 248 247
f 244 241 245 248
v -170.363 0.630 -250.249
v -151.093 0.630 -241.752
v -157.637 0.630 -226.911
v -176.907 0.630 -235.408
v -170.363 4.530 -250.249
v -151.093 4.530 -241.752
v -157.637 4.530 -226.911
v -176.907 4.530 -235.408
f 256 255 254 253
f 249 250 254 253
f 250 251 255 254
f 251 252 256 255
f 252 249 253 256
v -179.543 0.874 -267.317
v -157.233 0.874 -258.230
v -163.477 0.874 -242.903
v -185.787 0.874 -251.990
v -179.543 4.774 -267.317
v -157.233 4.774 -258.230
v -163.477 4.774 -242.903
v -185.787 4.774 -251.990
f 264 263 262 261
f 257 258 262 261
f 258 259 263 262
f 259 260 264 263
f 260 257 261 264
v -248.591 0.877 -256.133
v -235.668 0.877 -248.283
v -243.149 0.877 -235.967
v -256.072 0.877 -243.817
v -248.591 4.777 -256.133
v -235.668 4.777 -248.283
v -243.149 4.777 -235.967
v -256.072 4.777 -243.817
f 272 271 270 269
f 265 266 270 269
f 266 267 271 270
f 267 268 272 271
f 268 265 269 272
v -248.831 0.682 -216.826
v -240.804 0.682 -234.904
v -229.069 0.682 -229.694
v -237.096 0.682 -211.616
v -248.831 4.582 -216.826
v -240.804 4.582 -234.904
v -229.069 4.582 -229.694
v -237.096 4.582 -211.616
f 280 279 278 277
f 273 274 278 277
f 274 275 279 278
f 275 276 280 279
f 276 273 277 280
v -229.893 0.731 -213.361
v -216.218 0.731 -195.181
v -234.887 0.731 -181.139
v -248.562 0.731 -199.319
v -229.893 4.631 -213.361
v -216.218 4.631 -195.181
v -234.887 4.631 -181.139
v -248.562 4.631 -199.319
f 288 287 286 285
f 281 282 286 285
f 282 283 287 286
f 283 284 288 287
f 284 281 285 288
v -199.930 0.685 -206.550
v -195.396 0.685 -219.637
v -184.870 0.685 -215.990
v -189.404 0.685 -202.903
v -199.930 4.585 -206.550
v -195.396 4.585 -219.637
v -184.870 4.585 -215.990
v -189.404 4.585 -202.903
f 296 295 294 293
f 289 290 294 293
f 290 291 295 294
f 291 292 296 295
f 292 289 293 296
v -195.364 0.590 -240.008
v -180.951 0.590 -225.459
v -191.536 0.590 -214.972
v -205.949 0.590 -229.521
v -195.364 4.490 -240.008
v -180.951 4.490 -225.459
v -191.536 4.490 -214.972
v -205.949 4.490 -229.521
f 304 303 302 301
f 297 298 302 301
f 298 299 303 302
f 299 300 304 303
f 300 297 301 304
v -212.221 0.649 -252.705
v -195.986 0.649 -253.110
v -195.559 0.649 -235.975
v -211.794 0.649 -235.570
v -212.221 4.549 -252.705
v -195.986 4.549 -253.110
v -195.559 4.549 -235.975
v -211.794 4.549 -235.570
f 312 311 310 309
f 305 306 310 309
f 306 307 311 310
f 307 308 312 311
f 308 305 309 312
v -225.224 0.580 -152.453
v -213.521 0.580 -170.951
v -198.056 0.580 -161.167
v -209.759 0.580 -142.669
v -225.224 4.480 -152.453
v -213.521 4.480 -170.951
v -198.056 4.480 -161.167
v -209.759 4.480 -142.669
f 320 319 318 317
f 313 314 318 317
f 314 315 319 318
f 315 316 320 319
f 316 313 317 320
v -235.976 0.471 -142.987
v -233.689 0.471 -160.105
v -218.484 0.471 -158.073
v -220.771 0.471 -140.955
v -235.976 4.371 -142.987
v -233.689 4.371 -160.105
v -218.484 4.371 -158.073
v -220.771 4.371 -140.955
f 328 327 326 325
f 321 322 326 325
f 322 323 327 326
f 323 324 328 327
f 324 321 325 328
v -259.201 0.730 -149.096
v -242.627 0.730 -159.874
v -232.579 0.730 -144.424
v -249.153 0.730 -133.646
v -259.201 4.630 -149.096
v -242.627 4.630 -159.874
v -232.579 4.630 -144.424
v -249.153 4.630 -133.646
f 336 335 334 333
f 329 330 334 333
f 330 331 335 334
f 331 332 336 335
f 332 329 333 336
v -247.493 0.671 -117.798
v -236.801 0.671 -103.882
v -250.987 0.671 -92.982
v -261.679 0.671 -106.898
v -247.493 4.571 -117.798
v -236.801 4.571 -103.882
v -250.987 4.571 -92.982
v -261.679 4.571 -106.898
f 344 343 342 341
f 337 338 342 341
f 338 339 343 342
f 339 340 344 343
f 340 337 341 344
v -239.812 0.598 -104.221
v -238.202 0.598 -119.848
v -223.948 0.598 -118.379
v -225.558 0.598 -102.752
v -239.812 4.498 -104.221
v -238.202 4.498 -119.848
v -223.948 4.498 -118.379
v -225.558 4.498 -102.752
f 352 351 350 349
f 345 346 350 349
f 346 347 351 350
f 347 348 352 351
f 348 345 349 352
v -230.698 0.605 -115.065
v -220.720 0.605 -130.643
v -205.562 0.605 -120.935
v -215.540 0.605 -105.357
v -230.698 4.505 -115.065
v -220.720 4.505 -130.643
v -205.562 4.505 -120.935
v -215.540 4.505 -105.357
f 360 359 358 357
f 353 354 358 357
f 354 355 359 358
f 355 356 360 359
f 356 353 357 360
v -212.470 0.844 -132.483
v -193.080 0.844 -136.236
v -190.050 0.844 -120.577
v -209.440 0.844 -116.824
v -212.470 4.744 -132.483
v -193.080 4.744 -136.236
v -190.050 4.744 -120.577
v -209.440 4.744 -116.824
f 368 367 366 365
f 361 362 366 365
f 362 363 367 366
f 363 364 368 367
f 364 361 365 368
v -267.708 0.748 -72.520
v -241.111 0.748 -72.127
v -241.472 0.748 -47.760
v -268.069 0.748 -48.153
v -267.708 4.648 -72.520
v -241.111 4.648 -72.127
v -241.472 4.648 -47.760
v -268.069 4.648 -48.153
f 376 375 374 373
f 369 370 374 373
f 370 371 375 374
f 371 372 376 375
f 372 369 373 376
v -244.563 0.703 -74.657
v -225.937 0.703 -79.900
v -219.977 0.703 -58.723
v -238.603 0.703 -53.480
v -244.563 4.603 -74.657
v -225.937 4.603 -79.900
v -219.977 4.603 -58.723
v -238.603 4.603 -53.480
f 384 383 382 381
f 377 378 382 381
f 378 379 383 382
f 379 380 384 383
f 380 377 381 384
v -232.684 0.833 -66.874
v -218.349 0.833 -87.878
v -203.416 0.833 -77.686
v -217.751 0.833 -56.682
v -232.684 4.733 -66.874
v -218.349 4.733 -87.878
v -203.416 4.733 -77.686
v -217.751 4.733 -56.682
f 392 391 390 389
f 385 386 390 389
f 386 387 391 390
f 387 388 392 391
f 388 385 389 392
v -213.228 0.695 -84.902
v -196.491 0.695 -91.359
v -189.732 0.695 -73.838
v -206.469 0.695 -67.381
v -213.228 4.595 -84.902
v -196.491 4.595 -91.359
v -189.732 4.595 -73.838
v -206.469 4.595 -67.381
f 400 399 398 397
f 393 394 398 397
f 394 395 399 398
f 395 396 400 399
f 396 393 397 400
v -199.487 0.728 -92.122
v -184.038 0.728 -98.595
v -176.513 0.728 -80.638
v -191.962 0.728 -74.165
v -199.487 4.628 -92.122
v -184.038 4.628 -98.595
v -176.513 4.628 -80.638
v -191.962 4.628 -74.165
f 408 407 406 405
f 401 402 406 405
f 402 403 407 406
f 403 404 408 407
f 404 401 405 408
v -235.734 0.818 -35.810
v -220.967 0.818 -44.957
v -213.826 0.818 -33.430
v -228.593 0.818 -24.283
v -235.734 4.718 -35.810
v -220.967 4.718 -44.957
v -213.826 4.718 -33.430
v -228.593 4.718 -24.283
f 416 415 414 413
f 409 410 414 413
f 410 411 415 414
f 411 412 416 415
f 412 409 413 416
v -220.974 0.709 -36.996
v -207.905 0.709 -52.869
v -193.106 0.709 -40.684
v -206.175 0.709 -24.811
v -220.974 4.609 -36.996
v -207.905 4.609 -52.869
v -193.106 4.609 -40.684
v -206.175 4.609 -24.811
f 424 423 422 421
f 417 418 422 421
f 418 419 423 422
f 419 420 424 423
f 420 417 421 424
v -201.707 0.715 -33.578
v -196.414 0.715 -58.972
v -181.113 0.715 -55.782
v -186.406 0.715 -30.388
v -201.707 4.615 -33.578
v -196.414 4.615 -58.972
v -181.113 4.615 -55.782
v -186.406 4.615 -30.388
f 432 431 430 429
f 425 426 430 429
f 426 427 431 430
f 427 428 432 431
f 428 425 429 432
v -181.860 0.733 -53.909
v -165.937 0.733 -53.426
v -166.280 0.733 -42.091
v -182.203 0.733 -42.574
v -181.860 4.633 -53.909
v -165.937 4.633 -53.426
v -166.280 4.633 -42.091
v -182.203 4.633 -42.574
f 440 439 438 437
f 433 434 438 437
f 434 435 439 438
f 435 436 440 439
f 436 433 437 440
v -261.051 0.707 29.563
v -257.054 0.707 10.395
v -238.249 0.707 14.317
v -242.246 0.707 33.485
v -261.051 4.607 29.563
v -257.054 4.607 10.395
v -238.249 4.607 14.317
v -242.246 4.607 33.485
f 448 447 446 445
f 441 442 446 445
f 442 443 447 446
f 443 444 448 447
f 444 441 445 448
v -241.871 0.633 9.719
v -222.626 0.633 5.606
v -218.229 0.633 26.181
v -237.474 0.633 30.294
v -241.871 4.533 9.719
v -222.626 4.533 5.606
v -218.229 4.533 26.181
v -237.474 4.533 30.294
f 456 455 454 453
f 449 450 454 453
f 450 451 455 454
f 451 452 456 455
f 452 449 453 456
v -226.582 0.646 15.581
v -218.967 0.646 -2.783
v -204.058 0.646 3.399
v -211.673 0.646 21.763
v -226.582 4.546 15.581
v -218.967 4.546 -2.783
v -204.058 4.546 3.399
v -211.673 4.546 21.763
f 464 463 462 461
f 457 458 462 461
f 458 459 463 462
f 459 460 464 463
f 460 457 461 464
v -208.758 0.613 11.139
v -208.079 0.613 -7.029
v -189.062 0.613 -6.319
v -189.741 0.613 11.849
v -208.758 4.513 11.139
v -208.079 4.513 -7.029
v -189.062 4.513 -6.319
v -189.741 4.513 11.849
f 472 471 470 469
f 465 466 470 469
f 466 467 471 470
f 467 468 472 471
f 468 465 469 472
v -190.619 0.671 4.142
v -185.935 0.671 -13.703
v -171.301 0.671 -9.862
v -175.985 0.671 7.983
v -190.619 4.571 4.142
v -185.935 4.571 -13.703
v -171.301 4.571 -9.862
v -175.985 4.571 7.983
f 480 479 478 477
f 473 474 478 477
f 474 475 479 478
f 475 476 480 479
f 476 473 477 480
v -178.979 0.628 -5.820
v -164.476 0.628 -24.184
v -148.921 0.628 -11.900
v -163.424 0.628 6.464
v -178.979 4.528 -5.820
v -164.476 4.528 -24.184
v -148.921 4.528 -11.900
v -163.424 4.528 6.464
f 488 487 486 485
f 481 482 486 485
f 482 483 487 486
f 483 484 488 487
f 484 481 485 488
v -170.460 0.680 31.272
v -144.758 0.680 20.704
v -136.780 0.680 40.108
v -162.482 0.680 50.676
v -170.460 4.580 31.272
v -144.758 4.580 20.704
v -136.780 4.580 40.108
v -162.482 4.580 50.676
f 496 495 494 493
f 489 490 494 493
f 490 491 495 494
f 491 492 496 495
f 492 489 493 496
v -181.397 0.356 52.953
v -178.069 0.356 33.972
v -166.003 0.356 36.087
v -169.331 0.356 55.068
v -181.397 4.256 52.953
v -178.069 4.256 33.972
v -166.003 4.256 36.087
v -169.331 4.256 55.068
f 504 503 502 501
f 497 498 502 501
f 498 499 503 502
f 499 500 504 503
f 500 497 501 504
v -205.687 0.690 49.592
v -193.116 0.690 28.365
v -178.893 0.690 36.788
v -191.464 0.690 58.015
v -205.687 4.590 49.592
v -193.116 4.590 28.365
v -178.893 4.590 36.788
v -191.464 4.590 58.015
f 512 511 510 509
f 505 506 510 509
f 506 507 511 510
f 507 508 512 511
f 508 505 509 512
v -209.975 0.445 60.917
v -206.703 0.445 47.212
v -197.025 0.445 49.523
v -200.297 0.445 63.228
v -209.975 4.345 60.917
v -206.703 4.345 47.212
v -197.025 4.345 49.523
v -200.297 4.345 63.228
f 520 519 518 517
f 513 514 518 517
f 514 515 519 518
f 515 516 520 519
f 516 513 517 520
v -240.403 0.904 61.077
v -229.554 0.904 45.043
v -215.217 0.904 54.743
v -226.066 0.904 70.777
v -240.403 4.804 61.077
v -229.554 4.804 45.043
v -215.217 4.804 54.743
v -226.066 4.804 70.777
f 528 527 526 525
f 521 522 526 525
f 522 523 527 526
f 523 524 528 527
f 524 521 525 528
v -242.745 0.605 57.813
v -234.388 0.605 72.926
v -250.595 0.605 81.887
v -258.952 0.605 66.774
v -242.745 4.505 57.813
v -234.388 4.505 72.926
v -250.595 4.505 81.887
v -258.952 4.505 66.774
f 536 535 534 533
f 529 530 534 533
f 530 531 535 534
f 531 532 536 535
f 532 529 533 536
v -195.267 1.210 110.843
v -192.589 1.210 88.392
v -177.953 1.210 90.137
v -180.631 1.210 112.588
v -195.267 5.110 110.843
v -192.589 5.110 88.392
v -177.953 5.110 90.137
v -180.631 5.110 112.588
f 544 543 542 541
f 537 538 542 541
f 538 539 543 542
f 539 540 544 543
f 540 537 541 544
v -182.708 0.900 98.627
v -176.469 0.900 77.020
v -164.652 0.900 80.433
v -170.891 0.900 102.040
v -182.708 4.800 98.627
v -176.469 4.800 77.020
v -164.652 4.800 80.433
v -170.891 4.800 102.040
f 552 551 550 549
f 545 546 550 549
f 546 547 551 550
f 547 548 552 551
f 548 545 549 552
v -167.071 0.558 92.881
v -162.659 0.558 77.335
v -152.289 0.558 80.279
v -156.701 0.558 95.825
v -167.071 4.458 92.881
v -162.659 4.458 77.335
v -152.289 4.458 80.279
v -156.701 4.458 95.825
f 560 559 558 557
f 553 554 558 557
f 554 555 559 558
f 555 556 560 559
f 556 553 557 560
v -136.907 0.618 -12.808
v -129.196 0.618 -31.110
v -116.433 0.618 -25.732
v -124.144 0.618 -7.430
v -136.907 4.518 -12.808
v -129.196 4.518 -31.110
v -116.433 4.518 -25.732
v -124.144 4.518 -7.430
f 568 567 566 565
f 561 562 566 565
f 562 563 567 566
f 563 564 568 567
f 564 561 565 568
v -120.063 0.552 -34.038
v -105.082 0.552 -37.338
v -102.017 0.552 -23.422
v -116.998 0.552 -20.122
v -120.063 4.452 -34.038
v -105.082 4.452 -37.338
v -102.017 4.452 -23.422
v -116.998 4.452 -20.122
f 576 575 574 573
f 569 570 574 573
f 570 571 575 574
f 571 572 576 575
f 572 569 573 576
v -103.376 0.740 -31.745
v -95.893 0.740 -42.387
v -83.304 0.740 -33.535
v -90.787 0.740 -22.893
v -103.376 4.640 -31.745
v -95.893 4.640 -42.387
v -83.304 4.640 -33.535
v -90.787 4.640 -22.893
f 584 583 582 581
f 577 578 582 581
f 578 579 583 582
f 579 580 584 583
f 580 577 581 584
v -89.295 0.779 -43.111
v -70.180 0.779 -52.210
v -62.305 0.779 -35.669
v -81.420 0.779 -26.570
v -89.295 4.679 -43.111
v -70.180 4.679 -52.210
v -62.305 4.679 -35.669
v -81.420 4.679 -26.570
f 592 591 590 589
f 585 586 590 589
f 586 587 591 590
f 587 588 592 591
f 588 585 589 592
v 20.718 0.678 -49.181
v 34.453 0.678 -59.797
v 45.442 0.678 -45.579
v 31.707 0.678 -34.963
v 20.718 4.578 -49.181
v 34.453 4.578 -59.797
v 45.442 4.578 -45.579
v 31.707 4.578 -34.963
f 600 599 598 597
f 593 594 598 597
f 594 595 599 598
f 595 596 600 599
f 596 593 597 600
v -3.221 0.577 -26.720
v 23.017 0.577 -30.647
v 25.341 0.577 -15.120
v -0.897 0.577 -11.193
v -3.221 4.477 -26.720
v 23.017 4.477 -30.647
v 25.341 4.477 -15.120
v -0.897 4.477 -11.193
f 608 607 606 605
f 601 602 606 605
f 602 603 607 606
f 603 604 608 607
f 604 601 605 608
v -7.878 0.520 -22.728
v -1.524 0.520 -6.476
v -19.182 0.520 0.428
v -25.536 0.520 -15.824
v -7.878 4.420 -22.728
v -1.524 4.420 -6.476
v -19.182 4.420 0.428
v -25.536 4.420 -15.824
f 616 615 614 613
f 609 610 614 613
f 610 611 615 614
f 611 612 616 615
f 612 609 613 616
v -24.168 0.662 -22.040
v -16.745 0.662 -0.175
v -40.532 0.662 7.900
v -47.955 0.662 -13.965
v -24.168 4.562 -22.040
v -16.745 4.562 -0.175
v -40.532 4.562 7.900
v -47.955 4.562 -13.965
f 624 623 622 621
f 617 618 622 621
f 618 619 623 622
f 619 620 624 623
f 620 617 621 624
v -66.098 0.876 8.085
v -64.796 0.876 -10.790
v -41.222 0.876 -9.165
v -42.524 0.876 9.710
v -66.098 4.776 8.085
v -64.796 4.776 -10.790
v -41.222 4.776 -9.165
v -42.524 4.776 9.710
f 632 631 630 629
f 625 626 630 629
f 626 627 631 630
f 627 628 632 631
f 628 625 629 632
v -57.967 0.963 -10.687
v -55.066 0.963 -9.746
v -55.933 0.963 -7.073
v -58.834 0.963 -8.014
v -57.967 4.863 -10.687
v -55.066 4.863 -9.746
v -55.933 4.863 -7.073
v -58.834 4.863 -8.014
f 640 639 638 637
f 633 634 638 637
f 634 635 639 638
f 635 636 640 639
f 636 633 637 640
v -55.211 0.656 -23.427
v -53.833 0.656 -27.669
v -50.029 0.656 -26.433
v -51.407 0.656 -22.191
v -55.211 4.556 -23.427
v -53.833 4.556 -27.669
v -50.029 4.556 -26.433
v -51.407 4.556 -22.191
f 648 647 646 645
f 641 642 646 645
f 642 643 647 646
f 643 644 648 647
f 644 641 645 648
v -77.887 0.836 -3.876
v -62.103 0.836 7.283
v -70.653 0.836 19.376
v -86.437 0.836 8.217
v -77.887 4.736 -3.876
v -62.103 4.736 7.283
v -70.653 4.736 19.376
v -86.437 4.736 8.217
f 656 655 654 653
f 649 650 654 653
f 650 651 655 654
f 651 652 656 655
f 652 649 653 656
v -112.877 1.188 14.245
v -95.488 1.188 22.755
v -100.843 1.188 33.695
v -118.232 1.188 25.185
v -112.877 5.088 14.245
v -95.488 5.088 22.755
v -100.843 5.088 33.695
v -118.232 5.088 25.185
f 664 663 662 661
f 657 658 662 661
f 658 659 663 662
f 659 660 664 663
f 660 657 661 664
v -121.627 1.197 11.874
v -116.234 1.197 -4.911
v -107.713 1.197 -2.174
v -113.106 1.197 14.611
v -121.627 5.097 11.874
v -116.234 5.097 -4.911
v -107.713 5.097 -2.174
v -113.106 5.097 14.611
f 672 671 670 669
f 665 666 670 669
f 666 667 671 670
f 667 668 672 671
f 668 665 669 672
v -105.228 0.631 77.945
v -100.048 0.631 60.081
v -89.032 0.631 63.275
v -94.212 0.631 81.139
v -105.228 4.531 77.945
v -100.048 4.531 60.081
v -89.032 4.531 63.275
v -94.212 4.531 81.139
f 680 679 678 677
f 673 674 678 677
f 674 675 679 678
f 675 676 680 679
f 676 673 677 680
v -84.126 0.417 48.818
v -75.714 0.417 60.320
v -86.134 0.417 67.942
v -94.546 0.417 56.440
v -84.126 4.317 48.818
v -75.714 4.317 60.320
v -86.134 4.317 67.942
v -94.546 4.317 56.440
f 688 687 686 685
f 681 682 686 685
f 682 683 687 686
f 683 684 688 687
f 684 681 685 688
v -81.647 0.455 66.016
v -75.664 0.455 68.051
v -76.913 0.455 71.724
v -82.896 0.455 69.689
v -81.647 4.355 66.016
v -75.664 4.355 68.051
v -76.913 4.355 71.724
v -82.896 4.355 69.689
f 696 695 694 693
f 689 690 694 693
f 690 691 695 694
f 691 692 696 695
f 692 689 693 696
v -84.006 0.464 81.371
v -80.139 0.464 82.705
v -80.954 0.464 85.069
v -84.821 0.464 83.735
v -84.006 4.364 81.371
v -80.139 4.364 82.705
v -80.954 4.364 85.069
v -84.821 4.364 83.735
f 704 703 702 701
f 697 698 702 701
f 698 699 703 702
f 699 700 704 703
f 700 697 701 704
v -83.076 -0.082 91.319
v -80.999 -0.082 84.917
v -77.964 -0.082 85.901
v -80.041 -0.082 92.303
v -83.076 3.818 91.319
v -80.999 3.818 84.917
v -77.964 3.818 85.901
v -80.041 3.818 92.303
f 712 711 710 709
f 705 706 710 709
f 706 707 711 710
f 707 708 712 711
f 708 705 709 712
v -99.274 0.089 79.915
v -89.386 0.089 83.537
v -90.246 0.089 85.885
v -100.134 0.089 82.263
v -99.274 3.989 79.915
v -89.386 3.989 83.537
v -90.246 3.989 85.885
v -100.134 3.989 82.263
f 720 719 718 717
f 713 714 718 717
f 714 715 719 718
f 715 716 720 719
f 716 713 717 720
v -95.663 0.458 84.316
v -91.715 0.458 85.690
v -92.757 0.458 88.684
v -96.705 0.458 87.310
v -95.663 4.358 84.316
v -91.715 4.358 85.690
v -92.757 4.358 88.684
v -96.705 4.358 87.310
f 728 727 726 725
f 721 722 726 725
f 722 723 727 726
f 723 724 728 727
f 724 721 725 728
v -69.787 0.267 70.979
v -61.430 0.267 73.637
v -63.333 0.267 79.621
v -71.690 0.267 76.963
v -69.787 4.167 70.979
v -61.430 4.167 73.637
v -63.333 4.167 79.621
v -71.690 4.167 76.963
f 736 735 734 733
f 729 730 734 733
f 730 731 735 734
f 731 732 736 735
f 732 729 733 736
v -64.473 0.401 43.129
v -57.024 0.401 61.851
v -76.527 0.401 69.611
v -83.976 0.401 50.889
v -64.473 4.301 43.129
v -57.024 4.301 61.851
v -76.527 4.301 69.611
v -83.976 4.301 50.889
f 744 743 742 741
f 737 738 742 741
f 738 739 743 742
f 739 740 744 743
f 740 737 741 744
v -58.112 0.517 39.775
v -45.913 0.517 46.764
v -53.648 0.517 60.265
v -65.847 0.517 53.276
v -58.112 4.417 39.775
v -45.913 4.417 46.764
v -53.648 4.417 60.265
v -65.847 4.417 53.276
f 752 751 750 749
f 745 746 750 749
f 746 747 751 750
f 747 748 752 751
f 748 745 749 752
v -53.412 0.548 56.423
v -43.891 0.548 36.069
v -29.208 0.548 42.937
v -38.729 0.548 63.291
v -53.412 4.448 56.423
v -43.891 4.448 36.069
v -29.208 4.448 42.937
v -38.729 4.448 63.291
f 760 759 758 757
f 753 754 758 757
f 754 755 759 758
f 755 756 760 759
f 756 753 757 760
v -17.742 0.600 34.320
v -15.007 0.600 55.626
v -30.698 0.600 57.640
v -33.433 0.600 36.334
v -17.742 4.500 34.320
v -15.007 4.500 55.626
v -30.698 4.500 57.640
v -33.433 4.500 36.334
f 768 767 766 765
f 761 762 766 765
f 762 763 767 766
f 763 764 768 767
f 764 761 765 768
v -26.381 0.546 55.088
v -19.015 0.546 57.624
v -21.359 0.546 64.432
v -28.725 0.546 61.896
v -26.381 4.446 55.088
v -19.015 4.446 57.624
v -21.359 4.446 64.432
v -28.725 4.446 61.896
f 776 775 774 773
f 769 770 774 773
f 770 771 775 774
f 771 772 776 775
f 772 769 773 776
v -15.858 0.657 37.585
v -9.272 0.657 24.926
v 2.198 0.657 30.895
v -4.388 0.657 43.554
v -15.858 4.557 37.585
v -9.272 4.557 24.926
v 2.198 4.557 30.895
v -4.388 4.557 43.554
f 784 783 782 781
f 777 778 782 781
f 778 779 783 782
f 779 780 784 783
f 780 777 781 784
v -1.677 0.518 27.277
v -0.327 0.518 24.643
v 1.897 0.518 25.783
v 0.547 0.518 28.417
v -1.677 4.418 27.277
v -0.327 4.418 24.643
v 1.897 4.418 25.783
v 0.547 4.418 28.417
f 792 791 790 789
f 785 786 790 789
f 786 787 791 790
f 787 788 792 791
f 788 785 789 792
v 0.383 0.606 25.675
v 2.438 0.606 20.241
v 4.777 0.606 21.125
v 2.722 0.606 26.559
v 0.383 4.506 25.675
v 2.438 4.506 20.241
v 4.777 4.506 21.125
v 2.722 4.506 26.559
f 800 799 798 797
f 793 794 798 797
f 794 795 799 798
f 795 796 800 799
f 796 793 797 800
v -0.310 0.825 34.511
v 9.122 0.825 18.654
v 25.150 0.825 28.189
v 15.718 0.825 44.046
v -0.310 4.725 34.511
v 9.122 4.725 18.654
v 25.150 4.725 28.189
v 15.718 4.725 44.046
f 808 807 806 805
f 801 802 806 805
f 802 803 807 806
f 803 804 808 807
f 804 801 805 808
v 9.680 0.622 51.124
v 10.996 0.622 47.125
v 13.400 0.622 47.916
v 12.084 0.622 51.915
v 9.680 4.522 51.124
v 10.996 4.522 47.125
v 13.400 4.522 47.916
v 12.084 4.522 51.915
f 816 815 814 813
f 809 810 814 813
f 810 811 815 814
f 811 812 816 815
f 812 809 813 816
v 22.079 0.298 36.803
v 25.446 0.298 37.865
v 24.421 0.298 41.117
v 21.054 0.298 40.055
v 22.079 4.198 36.803
v 25.446 4.198 37.865
v 24.421 4.198 41.117
v 21.054 4.198 40.055
f 824 823 822 821
f 817 818 822 821
f 818 819 823 822
f 819 820 824 823
f 820 817 821 824
v 3.971 0.326 53.224
v 10.107 0.326 55.243
v 8.189 0.326 61.076
v 2.053 0.326 59.057
v 3.971 4.226 53.224
v 10.107 4.226 55.243
v 8.189 4.226 61.076
v 2.053 4.226 59.057
f 832 831 830 829
f 825 826 830 829
f 826 827 831 830
f 827 828 832 831
f 828 825 829 832
v 15.636 0.650 21.896
v 30.887 0.650 6.656
v 46.304 0.650 22.084
v 31.053 0.650 37.324
v 15.636 4.550 21.896
v 30.887 4.550 6.656
v 46.304 4.550 22.084
v 31.053 4.550 37.324
f 840 839 838 837
f 833 834 838 837
f 834 835 839 838
f 835 836 840 839
f 836 833 837 840
v 38.935 0.616 31.811
v 47.070 0.616 34.377
v 44.745 0.616 41.749
v 36.610 0.616 39.183
v 38.935 4.516 31.811
v 47.070 4.516 34.377
v 44.745 4.516 41.749
v 36.610 4.516 39.183
f 848 847 846 845
f 841 842 846 845
f 842 843 847 846
f 843 844 848 847
f 844 841 845 848
v 59.028 0.759 5.239
v 60.801 0.759 38.392
v 38.952 0.759 39.561
v 37.179 0.759 6.408
v 59.028 4.659 5.239
v 60.801 4.659 38.392
v 38.952 4.659 39.561
v 37.179 4.659 6.408
f 856 855 854 853
f 849 850 854 853
f 850 851 855 854
f 851 852 856 855
f 852 849 853 856
v 55.999 0.581 34.697
v 73.402 0.581 31.696
v 76.701 0.581 50.823
v 59.298 0.581 53.824
v 55.999 4.481 34.697
v 73.402 4.481 31.696
v 76.701 4.481 50.823
v 59.298 4.481 53.824
f 864 863 862 861
f 857 858 862 861
f 858 859 863 862
f 859 860 864 863
f 860 857 861 864
v 57.173 0.705 61.179
v 58.976 0.705 56.036
v 62.987 0.705 57.441
v 61.184 0.705 62.584
v 57.173 4.605 61.179
v 58.976 4.605 56.036
v 62.987 4.605 57.441
v 61.184 4.605 62.584
f 872 871 870 869
f 865 866 870 869
f 866 867 871 870
f 867 868 872 871
f 868 865 869 872
v 68.046 0.676 51.354
v 81.986 0.676 57.875
v 77.134 0.676 68.246
v 63.194 0.676 61.725
v 68.046 4.576 51.354
v 81.986 4.576 57.875
v 77.134 4.576 68.246
v 63.194 4.576 61.725
f 880 879 878 877
f 873 874 878 877
f 874 875 879 878
f 875 876 880 879
f 876 873 877 880
v 36.301 0.727 62.850
v 49.288 0.727 56.050
v 55.059 0.727 67.070
v 42.072 0.727 73.870
v 36.301 4.627 62.850
v 49.288 4.627 56.050
v 55.059 4.627 67.070
v 42.072 4.627 73.870
f 888 887 886 885
f 881 882 886 885
f 882 883 887 886
f 883 884 888 887
f 884 881 885 888
v 19.927 0.584 67.872
v 32.097 0.584 56.760
v 41.253 0.584 66.788
v 29.083 0.584 77.900
v 19.927 4.484 67.872
v 32.097 4.484 56.760
v 41.253 4.484 66.788
v 29.083 4.484 77.900
f 896 895 894 893
f 889 890 894 893
f 890 891 895 894
f 891 892 896 895
f 892 889 893 896
v 104.510 0.556 64.599
v 116.961 0.556 34.633
v 126.750 0.556 38.701
v 114.299 0.556 68.667
v 104.510 4.456 64.599
v 116.961 4.456 34.633
v 126.750 4.456 38.701
v 114.299 4.456 68.667
f 904 903 902 901
f 897 898 902 901
f 898 899 903 902
f 899 900 904 903
f 900 897 901 904
v 150.364 0.670 15.545
v 167.900 0.670 10.983
v 170.156 0.670 19.655
v 152.620 0.670 24.217
v 150.364 4.570 15.545
v 167.900 4.570 10.983
v 170.156 4.570 19.655
v 152.620 4.570 24.217
f 912 911 910 909
f 905 906 910 909
f 906 907 911 910
f 907 908 912 911
f 908 905 909 912
v 145.292 0.613 24.027
v 150.409 0.613 25.783
v 148.848 0.613 30.333
v 143.731 0.613 28.577
v 145.292 4.513 24.027
v 150.409 4.513 25.783
v 148.848 4.513 30.333
v 143.731 4.513 28.577
f 920 919 918 917
f 913 914 918 917
f 914 915 919 918
f 915 916 920 919
f 916 913 917 920
v 163.454 0.406 42.856
v 185.816 0.406 50.081
v 180.186 0.406 67.504
v 157.824 0.406 60.279
v 163.454 4.306 42.856
v 185.816 4.306 50.081
v 180.186 4.306 67.504
v 157.824 4.306 60.279
f 928 927 926 925
f 921 922 926 925
f 922 923 927 926
f 923 924 928 927
f 924 921 925 928
v 98.250 0.409 -139.204
v 114.428 0.409 -131.568
v 108.410 0.409 -118.816
v 92.232 0.409 -126.452
v 98.250 4.309 -139.204
v 114.428 4.309 -131.568
v 108.410 4.309 -118.816
v 92.232 4.309 -126.452
f 936 935 934 933
f 929 930 934 933
f 930 931 935 934
f 931 932 936 935
f 932 929 933 936
v 125.828 1.729 -180.441
v 213.788 1.729 -120.966
v 173.172 1.729 -60.899
v 85.212 1.729 -120.374
v 125.828 8.029 -180.441
v 213.788 8.029 -120.966
v 173.172 8.029 -60.899
v 85.212 8.029 -120.374
f 944 943 942 941
f 937 938 942 941
f 938 939 943 942
f 939 940 944 943
f 940 937 941 944
v 55.410 0.972 -144.376
v 56.525 0.972 -147.461
v 59.450 0.972 -146.404
v 58.335 0.972 -143.319
v 55.410 4.872 -144.376
v 56.525 4.872 -147.461
v 59.450 4.872 -146.404
v 58.335 4.872 -143.319
f 952 951 950 949
f 945 946 950 949
f 946 947 951 950
f 947 948 952 951
f 948 945 949 952
v 151.347 1.227 -175.716
v 153.074 1.227 -144.524
v 127.413 1.227 -143.104
v 125.686 1.227 -174.296
v 151.347 5.127 -175.716
v 153.074 5.127 -144.524
v 127.413 5.127 -143.104
v 125.686 5.127 -174.296
f 960 959 958 957
f 953 954 958 957
f 954 955 959 958
f 955 956 960 959
f 956 953 957 960
v 80.450 0.533 -184.964
v 105.450 0.533 -173.341
v 99.590 0.533 -160.736
v 74.590 0.533 -172.359
v 80.450 4.433 -184.964
v 105.450 4.433 -173.341
v 99.590 4.433 -160.736
v 74.590 4.433 -172.359
f 968 967 966 965
f 961 962 966 965
f 962 963 967 966
f 963 964 968 967
f 964 961 965 968
v 111.525 0.742 -210.244
v 129.804 0.742 -195.651
v 120.195 0.742 -183.616
v 101.916 0.742 -198.209
v 111.525 4.642 -210.244
v 129.804 4.642 -195.651
v 120.195 4.642 -183.616
v 101.916 4.642 -198.209
f 976 975 974 973
f 969 970 974 973
f 970 971 975 974
f 971 972 976 975
f 972 969 973 976
v 145.899 0.839 -257.216
v 161.790 0.839 -241.987
v 152.241 0.839 -232.024
v 136.350 0.839 -247.253
v 145.899 4.739 -257.216
v 161.790 4.739 -241.987
v 152.241 4.739 -232.024
v 136.350 4.739 -247.253
f 984 983 982 981
f 977 978 982 981
f 978 979 983 982
f 979 980 984 983
f 980 977 981 984
v 50.994 0.702 158.576
v 57.388 0.702 140.133
v 68.206 0.702 143.884
v 61.812 0.702 162.327
v 50.994 4.602 158.576
v 57.388 4.602 140.133
v 68.206 4.602 143.884
v 61.812 4.602 162.327
f 992 991 990 989
f 985 986 990 989
f 986 987 991 990
f 987 988 992 991
f 988 985 989 992
v 62.449 0.999 218.136
v 68.693 0.999 198.055
v 93.291 0.999 205.704
v 87.047 0.999 225.785
v 62.449 4.899 218.136
v 68.693 4.899 198.055
v 93.291 4.899 205.704
v 87.047 4.899 225.785
f 1000 999 998 997
f 993 994 998 997
f 994 995 999 998
f 995 996 1000 999
f 996 993 997 1000
v 199.854 1.488 4.309
v 200.208 1.488 -23.289
v 217.426 1.488 -23.069
v 217.072 1.488 4.529
v 199.854 5.388 4.309
v 200.208 5.388 -23.289
v 217.426 5.388 -23.069
v 217.072 5.388 4.529
f 1008 1007 1006 1005
f 1001 1002 1006 1005
f 1002 1003 1007 1006
f 1003 1004 1008 1007
f 1004 1001 1005 1008
v 122.593 0.820 235.636
v 129.680 0.820 209.821
v 145.427 0.820 214.144
v 138.340 0.820 239.959
v 122.593 4.720 235.636
v 129.680 4.720 209.821
v 145.427 4.720 214.144
v 138.340 4.720 239.959
f 1016 1015 1014 1013
f 1009 1010 1014 1013
f 1010 1011 1015 1014
f 1011 1012 1016 1015
f 1012 1009 1013 1016
v 87.489 0.766 219.424
v 102.996 0.766 186.437
v 123.711 0.766 196.176
v 108.204 0.766 229.163
v 87.489 6.566 219.424
v 102.996 6.566 186.437
v 123.711 6.566 196.176
v 108.204 6.566 229.163
f 1024 1023 1022 1021
f 1017 1018 1022 1021
f 1018 1019 1023 1022
f 1019 1020 1024 1023
f 1020 1017 1021 1024
v 67.757 1.099 117.997
v 76.482 1.099 89.555
v 97.763 1.099 96.083
v 89.038 1.099 124.525
v 67.757 6.899 117.997
v 76.482 6.899 89.555
v 97.763 6.899 96.083
v 89.038 6.899 124.525
f 1032 1031 1030 1029
f 1025 1026 1030 1029
f 1026 1027 1031 1030
f 1027 1028 1032 1031
f 1028 1025 1029 1032
v 96.900 0.803 124.935
v 98.195 0.803 121.076
v 101.200 0.803 122.085
v 99.905 0.803 125.944
v 96.900 4.703 124.935
v 98.195 4.703 121.076
v 101.200 4.703 122.085
v 99.905 4.703 125.944
f 1040 1039 1038 1037
f 1033 1034 1038 1037
f 1034 1035 1039 1038
f 1035 1036 1040 1039
f 1036 1033 1037 1040
v 102.339 1.225 15.230
v 139.829 1.225 10.893
v 142.821 1.225 36.750
v 105.331 1.225 41.087
v 102.339 7.025 15.230
v 139.829 7.025 10.893
v 142.821 7.025 36.750
v 105.331 7.025 41.087
f 1048 1047 1046 1045
f 1041 1042 1046 1045
f 1042 1043 1047 1046
f 1043 1044 1048 1047
f 1044 1041 1045 1048
v 129.959 0.696 58.525
v 136.643 0.696 39.877
v 147.741 0.696 43.855
v 141.057 0.696 62.503
v 129.959 4.596 58.525
v 136.643 4.596 39.877
v 147.741 4.596 43.855
v 141.057 4.596 62.503
f 1056 1055 1054 1053
f 1049 1050 1054 1053
f 1050 1051 1055 1054
f 1051 1052 1056 1055
f 1052 1049 1053 1056
v 144.055 0.579 47.818
v 148.922 0.579 35.623
v 160.745 0.579 40.342
v 155.878 0.579 52.537
v 144.055 4.479 47.818
v 148.922 4.479 35.623
v 160.745 4.479 40.342
v 155.878 4.479 52.537
f 1064 1063 1062 1061
f 1057 1058 1062 1061
f 1058 1059 1063 1062
f 1059 1060 1064 1063
f 1060 1057 1061 1064
v 26.004 0.756 101.133
v 71.161 0.756 104.737
v 69.156 0.756 129.867
v 23.999 0.756 126.263
v 26.004 6.556 101.133
v 71.161 6.556 104.737
v 69.156 6.556 129.867
v 23.999 6.556 126.263
f 1072 1071 1070 1069
f 1065 1066 1070 1069
f 1066 1067 1071 1070
f 1067 1068 1072 1071
f 1068 1065 1069 1072
v 22.686 0.888 146.987
v 51.688 0.888 149.243
v 49.874 0.888 172.553
v 20.872 0.888 170.297
v 22.686 6.688 146.987
v 51.688 6.688 149.243
v 49.874 6.688 172.553
v 20.872 6.688 170.297
f 1080 1079 1078 1077
f 1073 1074 1078 1077
f 1074 1075 1079 1078
f 1075 1076 1080 1079
f 1076 1073 1077 1080
v 8.300 0.743 156.791
v 13.438 0.743 158.548
v 11.940 0.743 162.929
v 6.802 0.743 161.172
v 8.300 4.643 156.791
v 13.438 4.643 158.548
v 11.940 4.643 162.929
v 6.802 4.643 161.172
f 1088 1087 1086 1085
f 1081 1082 1086 1085
f 1082 1083 1087 1086
f 1083 1084 1088 1087
f 1084 1081 1085 1088
v 25.829 0.583 141.657
v 27.755 0.583 137.359
v 31.871 0.583 139.203
v 29.945 0.583 143.501
v 25.829 4.483 141.657
v 27.755 4.483 137.359
v 31.871 4.483 139.203
v 29.945 4.483 143.501
f 1096 1095 1094 1093
f 1089 1090 1094 1093
f 1090 1091 1095 1094
f 1091 1092 1096 1095
f 1092 1089 1093 1096
v -21.631 1.176 122.333
v 25.942 1.176 120.220
v 26.991 1.176 143.827
v -20.582 1.176 145.940
v -21.631 6.976 122.333
v 25.942 6.976 120.220
v 26.991 6.976 143.827
v -20.582 6.976 145.940
f 1104 1103 1102 1101
f 1097 1098 1102 1101
f 1098 1099 1103 1102
f 1099 1100 1104 1103
f 1100 1097 1101 1104
v -11.700 0.822 145.525
v -3.821 0.822 144.141
v -3.060 0.822 148.475
v -10.939 0.822 149.859
v -11.700 4.722 145.525
v -3.821 4.722 144.141
v -3.060 4.722 148.475
v -10.939 4.722 149.859
f 1112 1111 1110 1109
f 1105 1106 1110 1109
f 1106 1107 1111 1110
f 1107 1108 1112 1111
f 1108 1105 1109 1112
v 9.884 0.781 166.201
v 9.946 0.781 182.861
v -5.284 0.781 182.919
v -5.346 0.781 166.259
v 9.884 4.681 166.201
v 9.946 4.681 182.861
v -5.284 4.681 182.919
v -5.346 4.681 166.259
f 1120 1119 1118 1117
f 1113 1114 1118 1117
f 1114 1115 1119 1118
f 1115 1116 1120 1119
f 1116 1113 1117 1120
v -16.324 0.565 179.216
v -14.253 0.565 172.498
v -7.936 0.565 174.444
v -10.007 0.565 181.162
v -16.324 4.465 179.216
v -14.253 4.465 172.498
v -7.936 4.465 174.444
v -10.007 4.465 181.162
f 1128 1127 1126 1125
f 1121 1122 1126 1125
f 1122 1123 1127 1126
f 1123 1124 1128 1127
f 1124 1121 1125 1128
v -36.230 0.687 188.258
v -30.241 0.687 172.840
v -17.210 0.687 177.902
v -23.199 0.687 193.320
v -36.230 4.587 188.258
v -30.241 4.587 172.840
v -17.210 4.587 177.902
v -23.199 4.587 193.320
f 1136 1135 1134 1133
f 1129 1130 1134 1133
f 1130 1131 1135 1134
f 1131 1132 1136 1135
f 1132 1129 1133 1136
v -29.578 0.738 164.200
v -24.177 0.738 165.958
v -25.362 0.738 169.600
v -30.763 0.738 167.842
v -29.578 4.638 164.200
v -24.177 4.638 165.958
v -25.362 4.638 169.600
v -30.763 4.638 167.842
f 1144 1143 1142 1141
f 1137 1138 1142 1141
f 1138 1139 1143 1142
f 1139 1140 1144 1143
f 1140 1137 1141 1144
v -44.316 0.733 129.406
v -17.381 0.733 133.335
v -20.424 0.733 154.194
v -47.359 0.733 150.265
v -44.316 4.633 129.406
v -17.381 4.633 133.335
v -20.424 4.633 154.194
v -47.359 4.633 150.265
f 1152 1151 1150 1149
f 1145 1146 1150 1149
f 1146 1147 1151 1150
f 1147 1148 1152 1151
f 1148 1145 1149 1152
v -70.210 0.571 142.330
v -44.182 0.571 147.036
v -47.930 0.571 167.770
v -73.958 0.571 163.064
v -70.210 4.471 142.330
v -44.182 4.471 147.036
v -47.930 4.471 167.770
v -73.958 4.471 163.064
f 1160 1159 1158 1157
f 1153 1154 1158 1157
f 1154 1155 1159 1158
f 1155 1156 1160 1159
f 1156 1153 1157 1160
v -22.597 0.893 85.971
v -12.106 0.893 69.712
v 3.077 0.893 79.509
v -7.414 0.893 95.768
v -22.597 4.793 85.971
v -12.106 4.793 69.712
v 3.077 4.793 79.509
v -7.414 4.793 95.768
f 1168 1167 1166 1165
f 1161 1162 1166 1165
f 1162 1163 1167 1166
f 1163 1164 1168 1167
f 1164 1161 1165 1168
v 11.109 0.546 63.846
v 24.977 0.546 82.706
v 11.691 0.546 92.474
v -2.177 0.546 73.614
v 11.109 4.446 63.846
v 24.977 4.446 82.706
v 11.691 4.446 92.474
v -2.177 4.446 73.614
f 1176 1175 1174 1173
f 1169 1170 1174 1173
f 1170 1171 1175 1174
f 1171 1172 1176 1175
f 1172 1169 1173 1176
v -57.752 0.524 74.164
v -50.016 0.524 79.216
v -54.248 0.524 85.696
v -61.984 0.524 80.644
v -57.752 4.424 74.164
v -50.016 4.424 79.216
v -54.248 4.424 85.696
v -61.984 4.424 80.644
f 1184 1183 1182 1181
f 1177 1178 1182 1181
f 1178 1179 1183 1182
f 1179 1180 1184 1183
f 1180 1177 1181 1184
v -57.480 0.702 95.969
v -46.411 0.702 76.449
v -31.840 0.702 84.711
v -42.909 0.702 104.231
v -57.480 4.602 95.969
v -46.411 4.602 76.449
v -31.840 4.602 84.711
v -42.909 4.602 104.231
f 1192 1191 1190 1189
f 1185 1186 1190 1189
f 1186 1187 1191 1190
f 1187 1188 1192 1191
f 1188 1185 1189 1192
v -79.469 0.956 109.281
v -73.760 0.956 91.358
v -61.011 0.956 95.419
v -66.720 0.956 113.342
v -79.469 4.856 109.281
v -73.760 4.856 91.358
v -61.011 4.856 95.419
v -66.720 4.856 113.342
f 1200 1199 1198 1197
f 1193 1194 1198 1197
f 1194 1195 1199 1198
f 1195 1196 1200 1199
f 1196 1193 1197 1200
v -96.064 0.722 108.216
v -84.590 0.722 92.277
v -72.716 0.722 100.824
v -84.190 0.722 116.763
v -96.064 4.622 108.216
v -84.590 4.622 92.277
v -72.716 4.622 100.824
v -84.190 4.622 116.763
f 1208 1207 1206 1205
f 1201 1202 1206 1205
f 1202 1203 1207 1206
f 1203 1204 1208 1207
f 1204 1201 1205 1208
v -46.573 0.767 183.811
v -36.327 0.767 187.254
v -38.987 0.767 195.169
v -49.233 0.767 191.726
v -46.573 4.667 183.811
v -36.327 4.667 187.254
v -38.987 4.667 195.169
v -49.233 4.667 191.726
f 1216 1215 1214 1213
f 1209 1210 1214 1213
f 1210 1211 1215 1214
f 1211 1212 1216 1215
f 1212 1209 1213 1216
v -48.938 0.698 179.898
v -46.838 0.698 172.635
v -43.562 0.698 173.582
v -45.662 0.698 180.845
v -48.938 4.598 179.898
v -46.838 4.598 172.635
v -43.562 4.598 173.582
v -45.662 4.598 180.845
f 1224 1223 1222 1221
f 1217 1218 1222 1221
f 1218 1219 1223 1222
f 1219 1220 1224 1223
f 1220 1217 1221 1224
v 37.350 0.936 207.966
v 63.979 0.936 217.338
v 57.870 0.936 234.694
v 31.241 0.936 225.322
v 37.350 4.836 207.966
v 63.979 4.836 217.338
v 57.870 4.836 234.694
v 31.241 4.836 225.322
f 1232 1231 1230 1229
f 1225 1226 1230 1229
f 1226 1227 1231 1230
f 1227 1228 1232 1231
f 1228 1225 1229 1232
v 30.052 0.896 246.342
v 32.168 0.896 241.222
v 37.048 0.896 243.238
v 34.932 0.896 248.358
v 30.052 4.796 246.342
v 32.168 4.796 241.222
v 37.048 4.796 243.238
v 34.932 4.796 248.358
f 1240 1239 1238 1237
f 1233 1234 1238 1237
f 1234 1235 1239 1238
f 1235 1236 1240 1239
f 1236 1233 1237 1240
v 0.634 1.336 244.358
v 8.465 1.336 219.314
v 33.566 1.336 227.162
v 25.735 1.336 252.206
v 0.634 7.136 244.358
v 8.465 7.136 219.314
v 33.566 7.136 227.162
v 25.735 7.136 252.206
f 1248 1247 1246 1245
f 1241 1242 1246 1245
f 1242 1243 1247 1246
f 1243 1244 1248 1247
f 1244 1241 1245 1248
v -31.261 1.058 265.432
v -24.610 1.058 228.445
v 5.881 1.058 233.928
v -0.770 1.058 270.915
v -31.261 6.858 265.432
v -24.610 6.858 228.445
v 5.881 6.858 233.928
v -0.770 6.858 270.915
f 1256 1255 1254 1253
f 1249 1250 1254 1253
f 1250 1251 1255 1254
f 1251 1252 1256 1255
f 1252 1249 1253 1256
v -51.276 0.737 258.317
v -41.141 0.737 238.690
v -23.184 0.737 247.963
v -33.319 0.737 267.590
v -51.276 4.637 258.317
v -41.141 4.637 238.690
v -23.184 4.637 247.963
v -33.319 4.637 267.590
f 1264 1263 1262 1261
f 1257 1258 1262 1261
f 1258 1259 1263 1262
f 1259 1260 1264 1263
f 1260 1257 1261 1264
v -101.710 0.670 208.032
v -90.256 0.670 187.742
v -79.510 0.670 193.808
v -90.964 0.670 214.098
v -101.710 4.570 208.032
v -90.256 4.570 187.742
v -79.510 4.570 193.808
v -90.964 4.570 214.098
f 1272 1271 1270 1269
f 1265 1266 1270 1269
f 1266 1267 1271 1270
f 1267 1268 1272 1271
f 1268 1265 1269 1272
v -109.147 0.729 214.050
v -103.886 0.729 199.279
v -93.693 0.729 202.910
v -98.954 0.729 217.681
v -109.147 4.629 214.050
v -103.886 4.629 199.279
v -93.693 4.629 202.910
v -98.954 4.629 217.681
f 1280 1279 1278 1277
f 1273 1274 1278 1277
f 1274 1275 1279 1278
f 1275 1276 1280 1279
f 1276 1273 1277 1280
v -118.705 1.078 154.146
v -91.855 1.078 163.119
v -97.915 1.078 181.254
v -124.765 1.078 172.281
v -118.705 6.878 154.146
v -91.855 6.878 163.119
v -97.915 6.878 181.254
v -124.765 6.878 172.281
f 1288 1287 1286 1285
f 1281 1282 1286 1285
f 1282 1283 1287 1286
f 1283 1284 1288 1287
f 1284 1281 1285 1288
v -138.235 0.470 183.208
v -131.618 0.470 163.837
v -119.865 0.470 167.852
v -126.482 0.470 187.223
v -138.235 4.370 183.208
v -131.618 4.370 163.837
v -119.865 4.370 167.852
v -126.482 4.370 187.223
f 1296 1295 1294 1293
f 1289 1290 1294 1293
f 1290 1291 1295 1294
f 1291 1292 1296 1295
f 1292 1289 1293 1296
v -125.426 0.748 219.961
v -118.985 0.748 198.538
v -105.214 0.748 202.679
v -111.655 0.748 224.102
v -125.426 4.648 219.961
v -118.985 4.648 198.538
v -105.214 4.648 202.679
v -111.655 4.648 224.102
f 1304 1303 1302 1301
f 1297 1298 1302 1301
f 1298 1299 1303 1302
f 1299 1300 1304 1303
f 1300 1297 1301 1304
v -146.852 1.583 223.798
v -140.181 1.583 205.166
v -121.088 1.583 212.002
v -127.759 1.583 230.634
v -146.852 5.483 223.798
v -140.181 5.483 205.166
v -121.088 5.483 212.002
v -127.759 5.483 230.634
f 1312 1311 1310 1309
f 1305 1306 1310 1309
f 1306 1307 1311 1310
f 1307 1308 1312 1311
f 1308 1305 1309 1312
v -129.211 0.582 201.144
v -127.996 0.582 197.407
v -124.649 0.582 198.496
v -125.864 0.582 202.233
v -129.211 4.482 201.144
v -127.996 4.482 197.407
v -124.649 4.482 198.496
v -125.864 4.482 202.233
f 1320 1319 1318 1317
f 1313 1314 1318 1317
f 1314 1315 1319 1318
f 1315 1316 1320 1319
f 1316 1313 1317 1320
v -155.183 0.408 217.895
v -142.844 0.408 226.354
v -150.297 0.408 237.225
v -162.636 0.408 228.766
v -155.183 4.308 217.895
v -142.844 4.308 226.354
v -150.297 4.308 237.225
v -162.636 4.308 228.766
f 1328 1327 1326 1325
f 1321 1322 1326 1325
f 1322 1323 1327 1326
f 1323 1324 1328 1327
f 1324 1321 1325 1328
v -167.120 0.677 192.739
v -160.973 0.677 174.412
v -148.780 0.677 178.501
v -154.927 0.677 196.828
v -167.120 4.577 192.739
v -160.973 4.577 174.412
v -148.780 4.577 178.501
v -154.927 4.577 196.828
f 1336 1335 1334 1333
f 1329 1330 1334 1333
f 1330 1331 1335 1334
f 1331 1332 1336 1335
f 1332 1329 1333 1336
v -178.344 0.610 200.721
v -170.918 0.610 178.615
v -162.036 0.610 181.599
v -169.462 0.610 203.705
v -178.344 4.510 200.721
v -170.918 4.510 178.615
v -162.036 4.510 181.599
v -169.462 4.510 203.705
f 1344 1343 1342 1341
f 1337 1338 1342 1341
f 1338 1339 1343 1342
f 1339 1340 1344 1343
f 1340 1337 1341 1344
v -191.660 0.812 234.960
v -178.907 0.812 219.038
v -161.900 0.812 232.660
v -174.653 0.812 248.582
v -191.660 4.712 234.960
v -178.907 4.712 219.038
v -161.900 4.712 232.660
v -174.653 4.712 248.582
f 1352 1351 1350 1349
f 1345 1346 1350 1349
f 1346 1347 1351 1350
f 1347 1348 1352 1351
f 1348 1345 1349 1352
v -206.375 0.597 244.827
v -196.758 0.597 229.694
v -185.305 0.597 236.973
v -194.922 0.597 252.106
v -206.375 4.497 244.827
v -196.758 4.497 229.694
v -185.305 4.497 236.973
v -194.922 4.497 252.106
f 1360 1359 1358 1357
f 1353 1354 1358 1357
f 1354 1355 1359 1358
f 1355 1356 1360 1359
f 1356 1353 1357 1360
v -220.123 0.714 251.654
v -213.393 0.714 235.056
v -200.937 0.714 240.106
v -207.667 0.714 256.704
v -220.123 4.614 251.654
v -213.393 4.614 235.056
v -200.937 4.614 240.106
v -207.667 4.614 256.704
f 1368 1367 1366 1365
f 1361 1362 1366 1365
f 1362 1363 1367 1366
f 1363 1364 1368 1367
f 1364 1361 1365 1368
v -220.385 0.872 194.256
v -207.726 0.872 201.246
v -212.275 0.872 209.484
v -224.934 0.872 202.494
v -220.385 4.772 194.256
v -207.726 4.772 201.246
v -212.275 4.772 209.484
v -224.934 4.772 202.494
f 1376 1375 1374 1373
f 1369 1370 1374 1373
f 1370 1371 1375 1374
f 1371 1372 1376 1375
f 1372 1369 1373 1376
v -238.731 0.935 217.996
v -231.987 0.935 198.764
v -220.069 0.935 202.944
v -226.813 0.935 222.176
v -238.731 4.835 217.996
v -231.987 4.835 198.764
v -220.069 4.835 202.944
v -226.813 4.835 222.176
f 1384 1383 1382 1381
f 1377 1378 1382 1381
f 1378 1379 1383 1382
f 1379 1380 1384 1383
f 1380 1377 1381 1384
v -243.067 1.141 252.045
v -226.155 1.141 235.369
v -210.393 1.141 251.355
v -227.305 1.141 268.031
v -243.067 5.041 252.045
v -226.155 5.041 235.369
v -210.393 5.041 251.355
v -227.305 5.041 268.031
f 1392 1391 1390 1389
f 1385 1386 1390 1389
f 1386 1387 1391 1390
f 1387 1388 1392 1391
f 1388 1385 1389 1392
v -251.426 0.808 227.534
v -244.541 0.808 206.029
v -232.494 0.808 209.886
v -239.379 0.808 231.391
v -251.426 4.708 227.534
v -244.541 4.708 206.029
v -232.494 4.708 209.886
v -239.379 4.708 231.391
f 1400 1399 1398 1397
f 1393 1394 1398 1397
f 1394 1395 1399 1398
f 1395 1396 1400 1399
f 1396 1393 1397 1400
v -128.227 0.789 124.107
v -118.582 0.789 105.262
v -105.273 0.789 112.073
v -114.918 0.789 130.918
v -128.227 4.689 124.107
v -118.582 4.689 105.262
v -105.273 4.689 112.073
v -114.918 4.689 130.918
f 1408 1407 1406 1405
f 1401 1402 1406 1405
f 1402 1403 1407 1406
f 1403 1404 1408 1407
f 1404 1401 1405 1408
v -139.488 0.771 89.784
v -131.322 0.771 74.511
v -118.932 0.771 81.136
v -127.098 0.771 96.409
v -139.488 4.671 89.784
v -131.322 4.671 74.511
v -118.932 4.671 81.136
v -127.098 4.671 96.409
f 1416 1415 1414 1413
f 1409 1410 1414 1413
f 1410 1411 1415 1414
f 1411 1412 1416 1415
f 1412 1409 1413 1416
v -140.494 0.344 70.814
v -137.319 0.344 89.425
v -149.986 0.344 91.586
v -153.161 0.344 72.975
v -140.494 4.244 70.814
v -137.319 4.244 89.425
v -149.986 4.244 91.586
v -153.161 4.244 72.975
f 1424 1423 1422 1421
f 1417 1418 1422 1421
f 1418 1419 1423 1422
f 1419 1420 1424 1423
f 1420 1417 1421 1424
v -128.030 -0.300 96.219
v -114.564 -0.300 100.664
v -115.890 -0.300 104.681
v -129.356 -0.300 100.236
v -128.030 3.600 96.219
v -114.564 3.600 100.664
v -115.890 3.600 104.681
v -129.356 3.600 100.236
f 1432 1431 1430 1429
f 1425 1426 1430 1429
f 1426 1427 1431 1430
f 1427 1428 1432 1431
f 1428 1425 1429 1432
v -129.279 0.651 106.807
v -117.489 0.651 139.039
v -140.601 0.651 147.493
v -152.391 0.651 115.261
v -129.279 4.551 106.807
v -117.489 4.551 139.039
v -140.601 4.551 147.493
v -152.391 4.551 115.261
f 1440 1439 1438 1437
f 1433 1434 1438 1437
f 1434 1435 1439 1438
f 1435 1436 1440 1439
f 1436 1433 1437 1440
v -171.862 0.350 103.990
v -160.217 0.350 107.826
v -162.498 0.350 114.750
v -174.143 0.350 110.914
v -171.862 4.250 103.990
v -160.217 4.250 107.826
v -162.498 4.250 114.750
v -174.143 4.250 110.914
f 1448 1447 1446 1445
f 1441 1442 1446 1445
f 1442 1443 1447 1446
f 1443 1444 1448 1447
f 1444 1441 1445 1448
v -174.121 0.861 120.340
v -157.500 0.861 108.966
v -147.979 0.861 122.880
v -164.600 0.861 134.254
v -174.121 4.761 120.340
v -157.500 4.761 108.966
v -147.979 4.761 122.880
v -164.600 4.761 134.254
f 1456 1455 1454 1453
f 1449 1450 1454 1453
f 1450 1451 1455 1454
f 1451 1452 1456 1455
f 1452 1449 1453 1456
v -182.928 0.816 144.440
v -179.361 0.816 121.374
v -162.512 0.816 123.980
v -166.079 0.816 147.046
v -182.928 4.716 144.440
v -179.361 4.716 121.374
v -162.512 4.716 123.980
v -166.079 4.716 147.046
f 1464 1463 1462 1461
f 1457 1458 1462 1461
f 1458 1459 1463 1462
f 1459 1460 1464 1463
f 1460 1457 1461 1464
v -239.269 0.641 84.665
v -191.282 0.641 115.758
v -204.991 0.641 136.915
v -252.978 0.641 105.822
v -239.269 6.441 84.665
v -191.282 6.441 115.758
v -204.991 6.441 136.915
v -252.978 6.441 105.822
f 1472 1471 1470 1469
f 1465 1466 1470 1469
f 1466 1467 1471 1470
f 1467 1468 1472 1471
f 1468 1465 1469 1472
v -201.732 0.707 125.826
v -182.776 0.707 145.472
v -198.428 0.707 160.574
v -217.384 0.707 140.928
v -201.732 4.607 125.826
v -182.776 4.607 145.472
v -198.428 4.607 160.574
v -217.384 4.607 140.928
f 1480 1479 1478 1477
f 1473 1474 1478 1477
f 1474 1475 1479 1478
f 1475 1476 1480 1479
f 1476 1473 1477 1480
v -216.333 0.598 136.093
v -214.192 0.598 129.660
v -210.027 0.598 131.047
v -212.168 0.598 137.480
v -216.333 4.498 136.093
v -214.192 4.498 129.660
v -210.027 4.498 131.047
v -212.168 4.498 137.480
f 1488 1487 1486 1485
f 1481 1482 1486 1485
f 1482 1483 1487 1486
f 1483 1484 1488 1487
f 1484 1481 1485 1488
v -241.352 0.656 148.439
v -213.391 0.656 145.270
v -211.108 0.656 165.421
v -239.069 0.656 168.590
v -241.352 4.556 148.439
v -213.391 4.556 145.270
v -211.108 4.556 165.421
v -239.069 4.556 168.590
f 1496 1495 1494 1493
f 1489 1490 1494 1493
f 1490 1491 1495 1494
f 1491 1492 1496 1495
f 1492 1489 1493 1496
v -261.249 0.630 164.657
v -246.266 0.630 148.317
v -234.591 0.630 159.023
v -249.574 0.630 175.363
v -261.249 4.530 164.657
v -246.266 4.530 148.317
v -234.591 4.530 159.023
v -249.574 4.530 175.363
f 1504 1503 1502 1501
f 1497 1498 1502 1501
f 1498 1499 1503 1502
f 1499 1500 1504 1503
f 1500 1497 1501 1504
v -3.710 0.728 -45.609
v 6.826 0.728 -41.870
v 5.250 0.728 -37.431
v -5.286 0.728 -41.170
v -3.710 4.628 -45.609
v 6.826 4.628 -41.870
v 5.250 4.628 -37.431
v -5.286 4.628 -41.170
f 1512 1511 1510 1509
f 1505 1506 1510 1509
f 1506 1507 1511 1510
f 1507 1508 1512 1511
f 1508 1505 1509 1512
v -26.663 0.854 -36.747
v -19.253 0.854 -33.982
v -21.197 0.854 -28.773
v -28.607 0.854 -31.538
v -26.663 4.754 -36.747
v -19.253 4.754 -33.982
v -21.197 4.754 -28.773
v -28.607 4.754 -31.538
f 1520 1519 1518 1517
f 1513 1514 1518 1517
f 1514 1515 1519 1518
f 1515 1516 1520 1519
f 1516 1513 1517 1520
v -57.117 0.692 -49.478
v -37.175 0.692 -66.394
v -26.443 0.692 -53.742
v -46.385 0.692 -36.826
v -57.117 4.592 -49.478
v -37.175 4.592 -66.394
v -26.443 4.592 -53.742
v -46.385 4.592 -36.826
f 1528 1527 1526 1525
f 1521 1522 1526 1525
f 1522 1523 1527 1526
f 1523 1524 1528 1527
f 1524 1521 1525 1528
v -50.944 0.781 -57.423
v -45.475 0.781 -35.856
v -64.396 0.781 -31.057
v -69.865 0.781 -52.624
v -50.944 4.681 -57.423
v -45.475 4.681 -35.856
v -64.396 4.681 -31.057
v -69.865 4.681 -52.624
f 1536 1535 1534 1533
f 1529 1530 1534 1533
f 1530 1531 1535 1534
f 1531 1532 1536 1535
f 1532 1529 1533 1536
v -188.761 0.261 27.853
v -186.667 0.261 18.854
v -178.359 0.261 20.787
v -180.453 0.261 29.786
v -188.761 4.161 27.853
v -186.667 4.161 18.854
v -178.359 4.161 20.787
v -180.453 4.161 29.786
f 1544 1543 1542 1541
f 1537 1538 1542 1541
f 1538 1539 1543 1542
f 1539 1540 1544 1543
f 1540 1537 1541 1544
v -197.999 0.355 26.865
v -196.888 0.355 22.971
v -193.301 0.355 23.995
v -194.412 0.355 27.889
v -197.999 4.255 26.865
v -196.888 4.255 22.971
v -193.301 4.255 23.995
v -194.412 4.255 27.889
f 1552 1551 1550 1549
f 1545 1546 1550 1549
f 1546 1547 1551 1550
f 1547 1548 1552 1551
f 1548 1545 1549 1552
v -246.752 0.511 49.022
v -243.202 0.511 39.364
v -237.448 0.511 41.478
v -240.998 0.511 51.136
v -246.752 4.411 49.022
v -243.202 4.411 39.364
v -237.448 4.411 41.478
v -240.998 4.411 51.136
f 1560 1559 1558 1557
f 1553 1554 1558 1557
f 1554 1555 1559 1558
f 1555 1556 1560 1559
f 1556 1553 1557 1560
v -255.695 0.786 -22.662
v -249.502 0.786 -41.458
v -232.625 0.786 -35.898
v -238.818 0.786 -17.102
v -255.695 4.686 -22.662
v -249.502 4.686 -41.458
v -232.625 4.686 -35.898
v -238.818 4.686 -17.102
f 1568 1567 1566 1565
f 1561 1562 1566 1565
f 1562 1563 1567 1566
f 1563 1564 1568 1567
f 1564 1561 1565 1568
v -236.050 0.727 -55.126
v -229.559 0.727 -52.585
v -231.090 0.727 -48.674
v -237.581 0.727 -51.215
v -236.050 4.627 -55.126
v -229.559 4.627 -52.585
v -231.090 4.627 -48.674
v -237.581 4.627 -51.215
f 1576 1575 1574 1573
f 1569 1570 1574 1573
f 1570 1571 1575 1574
f 1571 1572 1576 1575
f 1572 1569 1573 1576
v -227.116 0.604 -44.593
v -224.467 0.604 -52.152
v -219.144 0.604 -50.287
v -221.793 0.604 -42.728
v -227.116 4.504 -44.593
v -224.467 4.504 -52.152
v -219.144 4.504 -50.287
v -221.793 4.504 -42.728
f 1584 1583 1582 1581
f 1577 1578 1582 1581
f 1578 1579 1583 1582
f 1579 1580 1584 1583
f 1580 1577 1581 1584
v -221.244 0.571 -39.314
v -220.145 0.571 -42.362
v -217.436 0.571 -41.386
v -218.535 0.571 -38.338
v -221.244 4.471 -39.314
v -220.145 4.471 -42.362
v -217.436 4.471 -41.386
v -218.535 4.471 -38.338
f 1592 1591 1590 1589
f 1585 1586 1590 1589
f 1586 1587 1591 1590
f 1587 1588 1592 1591
f 1588 1585 1589 1592
v -251.066 0.487 -118.554
v -248.508 0.487 -126.028
v -243.654 0.487 -124.366
v -246.212 0.487 -116.892
v -251.066 4.387 -118.554
v -248.508 4.387 -126.028
v -243.654 4.387 -124.366
v -246.212 4.387 -116.892
f 1600 1599 1598 1597
f 1593 1594 1598 1597
f 1594 1595 1599 1598
f 1595 1596 1600 1599
f 1596 1593 1597 1600
v -227.401 -0.300 -131.250
v -220.993 -0.300 -128.977
v -221.939 -0.300 -126.310
v -228.347 -0.300 -128.583
v -227.401 3.600 -131.250
v -220.993 3.600 -128.977
v -221.939 3.600 -126.310
v -228.347 3.600 -128.583
f 1608 1607 1606 1605
f 1601 1602 1606 1605
f 1602 1603 1607 1606
f 1603 1604 1608 1607
f 1604 1601 1605 1608
v -255.536 0.683 -238.015
v -252.176 0.683 -236.643
v -253.204 0.683 -234.125
v -256.564 0.683 -235.497
v -255.536 4.583 -238.015
v -252.176 4.583 -236.643
v -253.204 4.583 -234.125
v -256.564 4.583 -235.497
f 1616 1615 1614 1613
f 1609 1610 1614 1613
f 1610 1611 1615 1614
f 1611 1612 1616 1615
f 1612 1609 1613 1616
v -253.270 0.684 -233.946
v -250.256 0.684 -232.931
v -251.190 0.684 -230.154
v -254.204 0.684 -231.169
v -253.270 4.584 -233.946
v -250.256 4.584 -232.931
v -251.190 4.584 -230.154
v -254.204 4.584 -231.169
f 1624 1623 1622 1621
f 1617 1618 1622 1621
f 1618 1619 1623 1622
f 1619 1620 1624 1623
f 1620 1617 1621 1624
v -188.168 0.332 -164.479
v -186.654 0.332 -168.567
v -183.072 0.332 -167.241
v -184.586 0.332 -163.153
v -188.168 4.232 -164.479
v -186.654 4.232 -168.567
v -183.072 4.232 -167.241
v -184.586 4.232 -163.153
f 1632 1631 1630 1629
f 1625 1626 1630 1629
f 1626 1627 1631 1630
f 1627 1628 1632 1631
f 1628 1625 1629 1632
v -158.300 0.642 -165.504
v -155.387 0.642 -173.329
v -149.980 0.642 -171.316
v -152.893 0.642 -163.491
v -158.300 4.542 -165.504
v -155.387 4.542 -173.329
v -149.980 4.542 -171.316
v -152.893 4.542 -163.491
f 1640 1639 1638 1637
f 1633 1634 1638 1637
f 1634 1635 1639 1638
f 1635 1636 1640 1639
f 1636 1633 1637 1640
v -89.411 0.454 -199.251
v -84.653 0.454 -197.620
v -85.609 0.454 -194.829
v -90.367 0.454 -196.460
v -89.411 4.354 -199.251
v -84.653 4.354 -197.620
v -85.609 4.354 -194.829
v -90.367 4.354 -196.460
f 1648 1647 1646 1645
f 1641 1642 1646 1645
f 1642 1643 1647 1646
f 1643 1644 1648 1647
f 1644 1641 1645 1648
v 118.150 0.629 80.121
v 121.610 0.629 69.690
v 128.330 0.629 71.919
v 124.870 0.629 82.350
v 118.150 4.529 80.121
v 121.610 4.529 69.690
v 128.330 4.529 71.919
v 124.870 4.529 82.350
f 1656 1655 1654 1653
f 1649 1650 1654 1653
f 1650 1651 1655 1654
f 1651 1652 1656 1655
f 1652 1649 1653 1656
v 136.492 0.732 87.407
v 136.995 0.732 107.590
v 128.048 0.732 107.813
v 127.545 0.732 87.630
v 136.492 4.632 87.407
v 136.995 4.632 107.590
v 128.048 4.632 107.813
v 127.545 4.632 87.630
f 1664 1663 1662 1661
f 1657 1658 1662 1661
f 1658 1659 1663 1662
f 1659 1660 1664 1663
f 1660 1657 1661 1664
v -55.742 0.788 -66.664
v -26.109 0.788 -180.056
v 17.362 0.788 -168.696
v -12.271 0.788 -55.304
v -55.742 9.088 -66.664
v -26.109 9.088 -180.056
v 17.362 9.088 -168.696
v -12.271 9.088 -55.304
f 1672 1671 1670 1669
f 1665 1666 1670 1669
f 1666 1667 1671 1670
f 1667 1668 1672 1671
f 1668 1665 1669 1672
v -13.245 0.761 -72.820
v 10.220 0.761 -129.668
v 28.845 0.761 -121.980
v 5.380 0.761 -65.132
v -13.245 6.561 -72.820
v 10.220 6.561 -129.668
v 28.845 6.561 -121.980
v 5.380 6.561 -65.132
f 1680 1679 1678 1677
f 1673 1674 1678 1677
f 1674 1675 1679 1678
f 1675 1676 1680 1679
f 1676 1673 1677 1680
usemtl road
v 84.384 0.877 25.653
v 93.164 0.740 22.113
v 91.856 0.716 18.867
v 83.076 0.881 22.407
f 1681 1682 1683 1684
v 93.088 0.739 22.142
v 134.238 0.773 7.742
v 133.082 0.707 4.438
v 91.932 0.717 18.838
f 1685 1686 1687 1688
v 134.243 0.773 7.740
v 168.183 0.829 -4.260
v 167.017 0.796 -7.560
v 133.077 0.707 4.440
f 1689 1690 1691 1692
v 167.223 0.819 -4.201
v 173.613 0.756 -2.791
v 174.367 0.822 -6.209
v 167.977 0.808 -7.619
f 1693 1694 1695 1696
v 172.587 0.768 -3.454
v 176.517 0.759 1.816
v 179.323 0.876 -0.276
v 175.393 0.816 -5.546
f 1697 1698 1699 1700
v 176.283 0.758 1.390
v 195.473 0.882 52.080
v 198.747 0.907 50.840
v 179.557 0.877 0.150
f 1701 1702 1703 1704
v -255.116 0.853 -79.389
v -230.176 0.790 -87.856
v -231.944 0.855 -93.064
v -256.884 0.894 -84.597
f 1705 1706 1707 1708
v -230.175 0.790 -87.856
v -199.045 0.710 -98.436
v -200.815 0.773 -103.644
v -231.945 0.855 -93.064
f 1709 1710 1711 1712
v -199.045 0.710 -98.436
v -183.035 0.560 -103.876
v -184.805 0.497 -109.084
v -200.815 0.773 -103.644
f 1713 1714 1715 1716
v -183.036 0.560 -103.876
v -176.526 0.631 -106.086
v -178.294 0.634 -111.294
v -184.804 0.497 -109.084
f 1717 1718 1719 1720
v -54.872 1.027 230.723
v -59.052 1.200 219.553
v -65.608 1.163 222.007
v -61.428 0.992 233.177
f 1721 1722 1723 1724
v -59.006 1.202 219.684
v -60.756 1.060 214.374
v -67.404 1.025 216.566
v -65.654 1.161 221.876
f 1725 1726 1727 1728
v -60.757 1.060 214.370
v -62.167 0.929 210.110
v -68.813 0.909 212.310
v -67.403 1.026 216.570
f 1729 1730 1731 1732
v -62.167 0.929 210.112
v -79.887 0.986 156.482
v -86.533 1.025 158.678
v -68.813 0.909 212.308
f 1733 1734 1735 1736
v -79.914 0.985 156.403
v -87.204 0.800 135.993
v -93.796 0.800 138.347
v -86.506 1.026 158.757
f 1737 1738 1739 1740
v -87.210 0.800 135.977
v -115.950 0.826 56.717
v -122.530 0.832 59.103
v -93.790 0.799 138.363
f 1741 1742 1743 1744
v -115.950 0.826 56.715
v -118.770 0.716 48.955
v -125.350 0.742 51.345
v -122.530 0.832 59.105
f 1745 1746 1747 1748
v -77.873 0.781 -57.136
v -80.673 0.775 -65.466
v -85.887 0.745 -63.714
v -83.087 0.795 -55.384
f 1749 1750 1751 1752
v -80.673 0.775 -65.465
v -128.753 0.529 -208.675
v -133.967 0.507 -206.925
v -85.887 0.745 -63.715
f 1753 1754 1755 1756
v -255.103 0.855 5.393
v -240.393 0.865 0.320
v -242.187 0.914 -4.880
v -256.897 0.813 0.194
f 1757 1758 1759 1760
v -240.392 0.865 0.319
v -221.602 0.849 -6.171
v -223.398 0.893 -11.369
v -242.188 0.914 -4.879
f 1761 1762 1763 1764
v -221.603 0.849 -6.170
v -208.733 0.801 -10.610
v -210.527 0.895 -15.810
v -223.397 0.893 -11.370
f 1765 1766 1767 1768
v -208.734 0.801 -10.610
v -202.844 0.805 -12.640
v -204.636 0.894 -17.840
v -210.526 0.895 -15.810
f 1769 1770 1771 1772
v -202.843 0.805 -12.640
v -173.133 0.729 -22.890
v -174.927 0.784 -28.090
v -204.637 0.894 -17.840
f 1773 1774 1775 1776
v -173.133 0.729 -22.890
v -156.753 0.552 -28.540
v -158.547 0.607 -33.740
v -174.927 0.784 -28.090
f 1777 1778 1779 1780
v -156.752 0.552 -28.541
v -150.092 0.637 -30.841
v -151.888 0.639 -36.039
v -158.548 0.607 -33.739
f 1781 1782 1783 1784
v -150.143 0.637 -30.824
v -143.993 0.581 -32.814
v -145.687 0.606 -38.046
v -151.837 0.638 -36.056
f 1785 1786 1787 1788
v -143.993 0.581 -32.814
v -79.633 0.816 -53.644
v -81.327 0.803 -58.876
v -145.687 0.606 -38.046
f 1789 1790 1791 1792
v -79.633 0.816 -53.644
v -44.553 0.750 -65.004
v -46.247 0.735 -70.236
v -81.327 0.803 -58.876
f 1793 1794 1795 1796
v 63.665 0.717 -13.967
v 78.085 0.803 26.063
v 89.375 0.703 21.997
v 74.955 0.721 -18.033
f 1797 1798 1799 1800
v 78.073 0.803 26.031
v 94.593 0.705 72.741
v 105.907 0.629 68.739
v 89.387 0.703 22.029
f 1801 1802 1803 1804
v 94.586 0.705 72.718
v 96.046 0.705 76.898
v 107.374 0.647 72.942
v 105.914 0.629 68.762
f 1805 1806 1807 1808
v 96.049 0.705 76.907
v 98.959 0.673 85.197
v 110.281 0.703 81.223
v 107.371 0.647 72.933
f 1809 1810 1811 1812
v 98.984 0.672 85.268
v 114.784 0.739 128.538
v 126.056 0.674 124.422
v 110.256 0.703 81.152
f 1813 1814 1815 1816
v 114.784 0.739 128.539
v 121.474 0.829 146.849
v 132.746 0.736 142.731
v 126.056 0.674 124.421
f 1817 1818 1819 1820
v 121.475 0.829 146.851
v 124.715 0.908 155.711
v 135.985 0.826 151.589
v 132.745 0.736 142.729
f 1821 1822 1823 1824
v 124.714 0.908 155.707
v 128.944 0.940 167.297
v 140.216 0.894 163.183
v 135.986 0.826 151.593
f 1825 1826 1827 1828
v 128.945 0.940 167.301
v 132.185 0.956 176.161
v 143.455 1.001 172.039
v 140.215 0.894 163.179
f 1829 1830 1831 1832
v 132.153 0.956 176.071
v 154.783 2.592 241.151
v 166.117 2.590 237.209
v 143.487 1.002 172.129
f 1833 1834 1835 1836
v 154.783 2.592 241.151
v 160.634 3.112 257.971
v 171.968 3.109 254.029
v 166.117 2.590 237.209
f 1837 1838 1839 1840
v -0.243 1.281 -227.754
v 0.337 1.342 -240.034
v -4.157 1.486 -240.246
v -4.737 1.344 -227.966
f 1841 1842 1843 1844
v 0.266 1.342 -239.567
v 1.466 1.371 -244.127
v -2.886 1.524 -245.273
v -4.086 1.490 -240.713
f 1845 1846 1847 1848
v 1.425 1.368 -243.990
v 2.755 1.405 -247.990
v -1.515 1.542 -249.410
v -2.845 1.525 -245.410
f 1849 1850 1851 1852
v 2.658 1.404 -247.746
v 5.018 1.489 -252.786
v 0.942 1.576 -254.694
v -1.418 1.543 -249.654
f 1853 1854 1855 1856
v 4.937 1.486 -252.629
v 6.220 1.495 -254.889
v 2.307 1.562 -257.111
v 1.023 1.577 -254.851
f 1857 1858 1859 1860
v 70.098 0.818 -13.365
v 79.488 0.701 -16.175
v 77.912 0.698 -21.445
v 68.522 0.849 -18.635
f 1861 1862 1863 1864
v 79.585 0.703 -16.206
v 115.225 0.820 -28.316
v 113.455 0.895 -33.524
v 77.815 0.698 -21.414
f 1865 1866 1867 1868
v 115.236 0.820 -28.320
v 222.536 0.883 -65.320
v 220.744 0.946 -70.520
v 113.444 0.895 -33.520
f 1869 1870 1871 1872
v 222.536 0.883 -65.320
v 234.466 0.866 -69.430
v 232.674 0.946 -74.630
v 220.744 0.946 -70.520
f 1873 1874 1875 1876
v 235.396 0.851 -69.974
v 238.706 0.813 -72.914
v 235.054 0.915 -77.026
v 231.744 0.956 -74.086
f 1877 1878 1879 1880
v 239.401 0.795 -73.871
v 241.401 0.790 -78.461
v 236.359 0.932 -80.659
v 234.359 0.924 -76.069
f 1881 1882 1883 1884
v 241.630 0.792 -79.545
v 241.660 0.812 -85.135
v 236.160 0.964 -85.165
v 236.130 0.928 -79.575
f 1885 1886 1887 1888
v 241.542 0.819 -85.947
v 238.952 0.864 -94.497
v 233.688 0.946 -92.903
v 236.278 0.959 -84.353
f 1889 1890 1891 1892
v 238.913 0.865 -94.616
v 227.483 0.845 -126.956
v 222.297 0.939 -125.124
v 233.727 0.947 -92.784
f 1893 1894 1895 1896
v 227.483 0.845 -126.956
v 209.443 0.896 -178.026
v 204.257 0.953 -176.194
v 222.297 0.939 -125.124
f 1897 1898 1899 1900
v 209.443 0.896 -178.027
v 197.283 0.533 -212.417
v 192.097 0.540 -210.583
v 204.257 0.953 -176.193
f 1901 1902 1903 1904
v 30.565 0.842 -128.700
v 38.995 0.741 -131.600
v 37.205 0.832 -136.800
v 28.775 0.863 -133.900
f 1905 1906 1907 1908
v 39.017 0.741 -131.607
v 59.687 1.161 -138.917
v 57.853 1.317 -144.103
v 37.183 0.832 -136.793
f 1909 1910 1911 1912
v 59.687 1.161 -138.917
v 73.687 0.924 -143.867
v 71.853 0.835 -149.053
v 57.853 1.317 -144.103
f 1913 1914 1915 1916
v 73.684 0.924 -143.866
v 76.154 0.911 -144.736
v 74.326 0.807 -149.924
v 71.856 0.835 -149.054
f 1917 1918 1919 1920
v 76.161 0.911 -144.739
v 86.431 0.927 -148.389
v 84.589 0.781 -153.571
v 74.319 0.807 -149.921
f 1921 1922 1923 1924
v 86.429 0.927 -148.388
v 101.299 0.910 -153.658
v 99.461 0.775 -158.842
v 84.591 0.781 -153.572
f 1925 1926 1927 1928
v 101.300 0.910 -153.658
v 107.470 0.895 -155.848
v 105.630 0.771 -161.032
v 99.460 0.775 -158.842
f 1929 1930 1931 1932
v 107.588 0.895 -155.894
v 119.508 1.049 -160.754
v 117.432 0.843 -165.846
v 105.512 0.770 -160.986
f 1933 1934 1935 1936
v 120.363 1.049 -161.305
v 121.933 1.054 -162.795
v 118.147 0.829 -166.785
v 116.577 0.839 -165.295
f 1937 1938 1939 1940
v 121.930 1.054 -162.792
v 128.990 1.114 -169.472
v 125.210 0.852 -173.468
v 118.150 0.829 -166.788
f 1941 1942 1943 1944
v 129.333 1.122 -169.866
v 138.133 1.054 -182.116
v 133.667 0.849 -185.324
v 124.867 0.851 -173.074
f 1945 1946 1947 1948
v 138.132 1.054 -182.113
v 146.972 0.776 -194.393
v 142.508 0.809 -197.607
v 133.668 0.849 -185.327
f 1949 1950 1951 1952
v 147.255 0.762 -194.887
v 154.945 0.787 -212.257
v 149.915 0.705 -214.483
v 142.225 0.809 -197.113
f 1953 1954 1955 1956
v 154.699 0.790 -211.816
v 161.139 0.765 -221.216
v 156.601 0.660 -224.324
v 150.161 0.701 -214.924
f 1957 1958 1959 1960
v 161.135 0.765 -221.211
v 163.675 0.743 -224.901
v 159.145 0.691 -228.019
v 156.605 0.660 -224.329
f 1961 1962 1963 1964
v 163.192 0.747 -224.365
v 167.682 0.730 -228.185
v 164.118 0.660 -232.375
v 159.628 0.691 -228.555
f 1965 1966 1967 1968
v 167.679 0.730 -228.183
v 176.119 0.681 -235.343
v 172.561 0.608 -239.537
v 164.121 0.660 -232.377
f 1969 1970 1971 1972
v 176.121 0.681 -235.345
v 177.791 0.665 -236.765
v 174.229 0.585 -240.955
v 172.559 0.608 -239.535
f 1973 1974 1975 1976
v 177.195 0.662 -236.378
v 190.115 0.596 -242.548
v 187.745 0.525 -247.512
v 174.825 0.596 -241.342
f 1977 1978 1979 1980
v 189.641 0.599 -242.373
v 202.871 0.552 -245.913
v 201.449 0.511 -251.227
v 188.219 0.527 -247.687
f 1981 1982 1983 1984
v 202.143 0.559 -245.820
v 210.393 0.512 -245.770
v 210.427 0.502 -251.270
v 202.177 0.516 -251.320
f 1985 1986 1987 1988
v 209.644 0.517 -245.879
v 216.574 0.446 -243.869
v 218.106 0.469 -249.151
v 211.176 0.498 -251.161
f 1989 1990 1991 1992
v 215.331 0.440 -244.632
v 216.621 0.461 -243.252
v 220.639 0.465 -247.008
v 219.349 0.471 -248.388
f 1993 1994 1995 1996
v 216.618 0.461 -243.255
v 219.358 0.421 -240.315
v 223.382 0.485 -244.065
v 220.642 0.465 -247.005
f 1997 1998 1999 2000
v 219.363 0.421 -240.310
v 220.253 0.415 -239.360
v 224.267 0.502 -243.120
v 223.377 0.485 -244.070
f 2001 2002 2003 2004
v 219.552 0.415 -240.761
v 220.832 0.374 -233.521
v 226.248 0.388 -234.479
v 224.968 0.463 -241.719
f 2005 2006 2007 2008
v 220.830 0.380 -234.465
v 219.870 0.379 -228.865
v 225.290 0.522 -227.935
v 226.250 0.394 -233.535
f 2009 2010 2011 2012
v 219.872 0.379 -228.877
v 219.472 0.418 -226.607
v 224.888 0.546 -225.653
v 225.288 0.522 -227.923
f 2013 2014 2015 2016
v 220.250 0.401 -228.089
v 214.940 0.436 -222.859
v 218.800 0.524 -218.941
v 224.110 0.548 -224.171
f 2017 2018 2019 2020
v 215.797 0.429 -223.432
v 193.617 0.583 -214.032
v 195.763 0.614 -208.968
v 217.943 0.525 -218.368
f 2021 2022 2023 2024
v 193.875 0.582 -214.126
v 143.925 0.809 -198.626
v 145.555 0.795 -193.374
v 195.505 0.611 -208.874
f 2025 2026 2027 2028
v -123.047 0.707 47.317
v -131.117 0.660 50.127
v -129.143 0.754 55.793
v -121.073 0.776 52.983
f 2029 2030 2031 2032
v -131.116 0.660 50.127
v -180.406 0.666 67.277
v -178.434 0.632 72.943
v -129.144 0.754 55.793
f 2033 2034 2035 2036
v -180.362 0.666 67.262
v -199.722 0.686 73.662
v -197.838 0.681 79.358
v -178.478 0.632 72.958
f 2037 2038 2039 2040
v -199.759 0.687 73.674
v -256.979 0.799 93.429
v -255.021 0.758 99.100
v -197.801 0.681 79.346
f 2041 2042 2043 2044
v 99.345 0.763 68.143
v 89.365 0.808 71.623
v 91.175 0.739 76.817
v 101.155 0.800 73.337
f 2045 2046 2047 2048
v 89.366 0.808 71.623
v -91.404 0.832 134.573
v -89.596 0.776 139.767
v 91.174 0.739 76.817
f 2049 2050 2051 2052
v -91.398 0.832 134.571
v -256.898 0.841 191.726
v -255.102 0.780 196.925
v -89.602 0.776 139.769
f 2053 2054 2055 2056
v 129.036 0.872 149.872
v 118.976 0.820 153.372
v 121.604 0.986 160.928
v 131.664 0.904 157.428
f 2057 2058 2059 2060
v 118.973 0.820 153.373
v 29.033 0.990 184.723
v 31.667 1.158 192.277
v 121.607 0.986 160.927
f 2061 2062 2063 2064
v 29.034 0.990 184.723
v -63.646 1.085 217.003
v -61.014 1.200 224.557
v 31.666 1.158 192.277
f 2065 2066 2067 2068
v -63.645 1.085 217.002
v -94.355 0.915 227.692
v -91.725 1.121 235.248
v -61.015 1.200 224.558
f 2069 2070 2071 2072
v 28.704 1.107 189.095
v 32.814 0.981 200.455
v 36.106 0.975 199.265
v 31.996 1.115 187.905
f 2073 2074 2075 2076
v -255.026 0.868 -161.478
v -240.076 0.838 -166.613
v -242.024 0.904 -172.287
v -256.974 0.953 -167.153
f 2077 2078 2079 2080
v -240.073 0.838 -166.613
v -230.923 0.818 -169.763
v -232.877 0.854 -175.437
v -242.027 0.904 -172.287
f 2081 2082 2083 2084
v -230.926 0.819 -169.763
v -223.936 0.747 -172.163
v -225.884 0.842 -177.837
v -232.874 0.854 -175.437
f 2085 2086 2087 2088
v -223.934 0.747 -172.163
v -202.274 0.616 -179.613
v -204.226 0.641 -185.287
v -225.886 0.842 -177.837
f 2089 2090 2091 2092
v -202.253 0.616 -179.620
v -194.503 0.467 -182.350
v -196.497 0.471 -188.010
v -204.247 0.641 -185.280
f 2093 2094 2095 2096
v -194.502 0.467 -182.351
v -130.362 0.511 -204.971
v -132.358 0.538 -210.629
v -196.498 0.471 -188.009
f 2097 2098 2099 2100
v 159.535 2.590 236.587
v 142.735 1.955 242.517
v 144.565 1.824 247.703
v 161.365 2.753 241.773
f 2101 2102 2103 2104
v 141.928 1.895 242.966
v 138.928 1.631 245.376
v 142.372 1.599 249.664
v 145.372 1.902 247.254
f 2105 2106 2107 2108
v 138.030 1.539 246.683
v 136.650 1.364 251.003
v 141.890 1.343 252.677
v 143.270 1.724 248.357
f 2109 2110 2111 2112
v 136.546 1.319 252.218
v 137.123 1.190 256.378
v 142.571 1.135 255.622
v 141.994 1.449 251.462
f 2113 2114 2115 2116
v 206.080 0.916 -178.682
v 198.610 1.033 -175.022
v 200.150 1.002 -171.878
v 207.620 0.931 -175.538
f 2117 2118 2119 2120
v 198.323 1.037 -174.845
v 195.273 1.077 -172.535
v 197.387 1.044 -169.745
v 200.437 1.000 -172.055
f 2121 2122 2123 2124
v 194.764 1.090 -171.920
v 193.464 1.082 -169.310
v 196.596 1.072 -167.750
v 197.896 1.037 -170.360
f 2125 2126 2127 2128
v 193.300 1.078 -168.794
v 192.820 1.072 -165.654
v 196.280 1.112 -165.126
v 196.760 1.061 -168.266
f 2129 2130 2131 2132
v 192.800 1.072 -165.379
v 192.830 1.124 -160.549
v 196.330 1.097 -160.571
v 196.300 1.109 -165.401
f 2133 2134 2135 2136
v 193.179 1.132 -159.511
v 195.449 1.144 -156.481
v 198.251 1.092 -158.579
v 195.981 1.100 -161.609
f 2137 2138 2139 2140
v 195.443 1.144 -156.490
v 200.663 1.132 -149.430
v 203.477 1.123 -151.510
v 198.257 1.092 -158.570
f 2141 2142 2143 2144
v 200.427 1.134 -149.868
v 202.267 1.144 -144.848
v 205.553 1.141 -146.052
v 203.713 1.128 -151.072
f 2145 2146 2147 2148
v 202.168 1.143 -145.283
v 202.618 1.135 -140.583
v 206.102 1.122 -140.917
v 205.652 1.143 -145.617
f 2149 2150 2151 2152
v 202.610 1.135 -140.744
v 202.630 1.133 -135.274
v 206.130 1.106 -135.286
v 206.110 1.121 -140.756
f 2153 2154 2155 2156
v 202.650 1.131 -135.017
v 203.280 1.094 -130.877
v 206.740 1.080 -131.403
v 206.110 1.107 -135.543
f 2157 2158 2159 2160
v 203.331 1.096 -130.645
v 204.071 1.110 -128.135
v 207.429 1.046 -129.125
v 206.689 1.084 -131.635
f 2161 2162 2163 2164
v 204.607 1.101 -127.305
v 206.357 1.089 -125.795
v 208.643 1.048 -128.445
v 206.893 1.057 -129.955
f 2165 2166 2167 2168
v 206.808 1.085 -125.512
v 210.248 1.080 -124.032
v 211.632 1.015 -127.248
v 208.192 1.048 -128.728
f 2169 2170 2171 2172
v 210.559 1.080 -123.932
v 214.009 1.077 -123.162
v 214.771 0.987 -126.578
v 211.321 1.022 -127.348
f 2173 2174 2175 2176
v 214.380 1.072 -123.120
v 217.940 1.017 -123.100
v 217.960 0.978 -126.600
v 214.400 0.987 -126.620
f 2177 2178 2179 2180
v 218.246 1.012 -123.125
v 225.186 0.904 -124.315
v 224.594 0.895 -127.765
v 217.654 0.981 -126.575
f 2181 2182 2183 2184
v 74.429 0.816 -147.018
v 66.949 0.926 -169.268
v 63.631 0.904 -168.152
v 71.111 0.890 -145.902
f 2185 2186 2187 2188
v 66.951 0.926 -169.262
v 54.591 0.857 -206.412
v 51.269 0.906 -205.308
v 63.629 0.904 -168.158
f 2189 2190 2191 2192
v 54.038 0.858 -207.214
v 51.948 0.870 -208.924
v 49.732 0.918 -206.216
v 51.822 0.897 -204.506
f 2193 2194 2195 2196
v 51.425 0.880 -209.219
v 50.495 0.895 -209.549
v 49.325 0.922 -206.251
v 50.255 0.913 -205.921
f 2197 2198 2199 2200
v 50.510 0.895 -209.544
v 47.880 0.928 -210.504
v 46.680 0.944 -207.216
v 49.310 0.922 -206.256
f 2201 2202 2203 2204
v 46.702 0.937 -210.512
v 33.232 0.957 -205.802
v 34.388 0.962 -202.498
v 47.858 0.934 -207.208
f 2205 2206 2207 2208
v 64.785 0.891 -170.385
v 51.095 1.024 -166.255
v 52.105 0.993 -162.905
v 65.795 0.901 -167.035
f 2209 2210 2211 2212
v 51.609 1.023 -166.330
v 49.559 1.012 -166.340
v 49.541 0.985 -162.840
v 51.591 0.993 -162.830
f 2213 2214 2215 2216
v 50.463 1.018 -166.083
v 48.533 1.008 -167.263
v 46.707 0.967 -164.277
v 48.637 0.980 -163.097
f 2217 2218 2219 2220
v 49.145 1.011 -166.629
v 47.765 1.010 -169.079
v 44.715 0.954 -167.361
v 46.095 0.960 -164.911
f 2221 2222 2223 2224
v 47.894 1.010 -168.792
v 35.464 0.993 -204.722
v 32.156 0.924 -203.578
v 44.586 0.953 -167.648
f 2225 2226 2227 2228
v -56.829 0.883 235.726
v -39.789 0.938 229.766
v -42.431 1.229 222.214
v -59.471 1.120 228.174
f 2229 2230 2231 2232
v -39.803 0.938 229.770
v 35.767 0.852 203.640
v 33.153 1.091 196.080
v -42.417 1.229 222.210
f 2233 2234 2235 2236
v 35.767 0.852 203.640
v 125.547 0.804 172.590
v 122.933 0.945 165.030
v 33.153 1.091 196.080
f 2237 2238 2239 2240
v 125.545 0.804 172.591
v 135.885 0.993 169.021
v 133.275 0.925 161.459
v 122.935 0.945 165.029
f 2241 2242 2243 2244
v -204.687 0.741 63.491
v -203.077 0.664 68.881
v -199.723 0.681 67.879
v -201.333 0.830 62.489
f 2245 2246 2247 2248
v -203.066 0.662 68.917
v -200.446 0.702 77.047
v -197.114 0.697 75.973
v -199.734 0.682 67.843
f 2249 2250 2251 2252
v -185.621 0.866 55.667
v -183.761 0.696 62.087
v -180.399 0.655 61.113
v -182.259 0.727 54.693
f 2253 2254 2255 2256
v -183.750 0.694 62.122
v -181.090 0.681 70.632
v -177.750 0.664 69.588
v -180.410 0.657 61.078
f 2257 2258 2259 2260
v -204.593 1.038 -4.330
v -206.163 0.908 -8.710
v -209.457 0.850 -7.530
v -207.887 0.979 -3.150
f 2261 2262 2263 2264
v -206.162 0.908 -8.709
v -207.982 0.870 -13.799
v -211.278 0.862 -12.621
v -209.458 0.850 -7.531
f 2265 2266 2267 2268
v -248.455 1.004 -17.591
v -245.765 0.827 -9.761
v -242.455 0.836 -10.899
v -245.145 1.063 -18.729
f 2269 2270 2271 2272
v -245.762 0.827 -9.751
v -242.942 0.882 -1.701
v -239.638 0.907 -2.859
v -242.458 0.836 -10.909
f 2273 2274 2275 2276
v -233.307 1.069 -35.358
v -226.847 0.849 -16.308
v -223.533 0.826 -17.432
v -229.993 1.043 -36.482
f 2277 2278 2279 2280
v -226.851 0.849 -16.318
v -224.161 0.898 -8.218
v -220.839 0.892 -9.322
v -223.529 0.826 -17.422
f 2281 2282 2283 2284
v -210.644 1.039 -30.677
v -208.094 0.786 -22.857
v -204.766 0.805 -23.943
v -207.316 1.053 -31.763
f 2285 2286 2287 2288
v -208.092 0.786 -22.852
v -205.402 0.866 -14.692
v -202.078 0.859 -15.788
v -204.768 0.806 -23.948
f 2289 2290 2291 2292
v -181.088 1.028 -40.579
v -178.558 0.678 -33.109
v -175.242 0.708 -34.231
v -177.772 1.021 -41.701
f 2293 2294 2295 2296
v -178.551 0.677 -33.091
v -175.681 0.789 -24.911
v -172.379 0.785 -26.069
v -175.249 0.709 -34.249
f 2297 2298 2299 2300
v -194.064 1.144 -89.995
v -196.394 0.789 -96.435
v -199.686 0.806 -95.245
v -197.356 1.015 -88.805
f 2301 2302 2303 2304
v -196.395 0.789 -96.438
v -198.285 0.731 -101.638
v -201.575 0.760 -100.442
v -199.685 0.806 -95.242
f 2305 2306 2307 2308
v -226.079 1.139 -81.052
v -227.619 0.861 -85.682
v -230.941 0.819 -84.578
v -229.401 1.028 -79.948
f 2309 2310 2311 2312
v -227.620 0.861 -85.684
v -229.400 0.820 -91.014
v -232.720 0.825 -89.906
v -230.940 0.819 -84.576
f 2313 2314 2315 2316
v -238.945 0.910 -104.233
v -235.995 0.790 -97.443
v -232.785 0.804 -98.837
v -235.735 1.026 -105.627
f 2317 2318 2319 2320
v -235.996 0.790 -97.444
v -232.666 0.822 -89.764
v -229.454 0.823 -91.156
v -232.784 0.804 -98.836
f 2321 2322 2323 2324
v -208.644 0.870 -117.499
v -205.424 0.736 -108.169
v -202.116 0.716 -109.311
v -205.336 0.863 -118.641
f 2325 2326 2327 2328
v -205.336 0.732 -107.959
v -201.496 0.756 -100.259
v -198.364 0.733 -101.821
v -202.204 0.725 -109.521
f 2329 2330 2331 2332
v -219.551 0.837 -165.126
v -221.231 0.754 -169.856
v -224.529 0.765 -168.684
v -222.849 0.831 -163.954
f 2333 2334 2335 2336
v -221.230 0.754 -169.854
v -223.260 0.811 -175.584
v -226.560 0.829 -174.416
v -224.530 0.765 -168.686
f 2337 2338 2339 2340
v -234.073 0.924 -155.211
v -237.333 0.855 -164.291
v -240.627 0.828 -163.109
v -237.367 0.954 -154.029
f 2341 2342 2343 2344
v -237.333 0.855 -164.293
v -239.403 0.884 -170.043
v -242.697 0.905 -168.857
v -240.627 0.828 -163.107
f 2345 2346 2347 2348
v -238.748 0.960 -186.592
v -233.548 0.855 -172.012
v -230.252 0.844 -173.188
v -235.452 0.976 -187.768
f 2349 2350 2351 2352
v -237.241 1.134 -230.387
v -228.021 0.710 -233.937
v -229.279 0.734 -237.203
v -238.499 1.049 -233.653
f 2353 2354 2355 2356
v -228.021 0.710 -233.937
v -221.451 0.859 -236.467
v -222.709 0.870 -239.733
v -229.279 0.734 -237.203
f 2357 2358 2359 2360
v -249.915 1.145 -251.037
v -242.734 1.035 -254.417
v -244.224 1.051 -257.583
v -251.405 1.101 -254.203
f 2361 2362 2363 2364
v -219.389 0.718 -255.561
v -219.549 0.649 -251.641
v -216.051 0.871 -251.499
v -215.891 0.935 -255.419
f 2365 2366 2367 2368
v -218.675 0.702 -253.085
v -220.025 0.642 -252.305
v -218.275 0.706 -249.275
v -216.925 0.814 -250.055
f 2369 2370 2371 2372
v -220.028 0.642 -252.304
v -226.028 0.866 -248.824
v -224.272 0.857 -245.796
v -218.272 0.707 -249.276
f 2373 2374 2375 2376
v -53.865 0.740 17.423
v -54.295 0.856 16.003
v -57.645 0.829 17.017
v -57.215 0.737 18.437
f 2377 2378 2379 2380
v -54.295 0.856 16.004
v -56.485 1.272 8.754
v -59.835 1.148 9.766
v -57.645 0.829 17.016
f 2381 2382 2383 2384
v -56.500 1.271 8.707
v -56.740 1.255 7.987
v -60.060 1.152 9.093
v -59.820 1.147 9.813
f 2385 2386 2387 2388
v 102.218 0.813 76.595
v 110.888 0.778 73.965
v 109.872 0.745 70.615
v 101.202 0.799 73.245
f 2389 2390 2391 2392
v 110.891 0.778 73.964
v 126.621 0.900 69.164
v 125.599 0.831 65.816
v 109.869 0.745 70.616
f 2393 2394 2395 2396
v 126.100 0.917 69.240
v 129.700 0.820 69.260
v 129.720 0.776 65.760
v 126.120 0.822 65.740
f 2397 2398 2399 2400
v 129.230 0.822 69.193
v 134.070 0.758 70.573
v 135.030 0.737 67.207
v 130.190 0.773 65.827
f 2401 2402 2403 2404
v 133.392 0.776 70.202
v 136.192 0.713 72.672
v 138.508 0.650 70.048
v 135.708 0.716 67.578
f 2405 2406 2407 2408
v 132.022 0.752 6.707
v 141.342 0.901 31.457
v 144.618 0.929 30.223
v 135.298 0.740 5.473
f 2409 2410 2411 2412
v 120.915 0.845 128.158
v 129.015 0.703 125.768
v 128.025 0.698 122.412
v 119.925 0.834 124.802
f 2413 2414 2415 2416
v 129.007 0.703 125.771
v 140.047 0.911 122.571
v 139.073 0.892 119.209
v 128.033 0.699 122.409
f 2417 2418 2419 2420
v 138.386 0.900 122.188
v 156.766 0.811 138.808
v 159.114 0.738 136.212
v 140.734 0.906 119.592
f 2421 2422 2423 2424
v 141.062 0.913 121.789
v 159.302 0.874 91.309
v 156.298 0.884 89.511
v 138.058 0.885 119.991
f 2425 2426 2427 2428
v 159.034 0.881 91.651
v 163.914 0.854 86.801
v 161.446 0.884 84.319
v 156.566 0.885 89.169
f 2429 2430 2431 2432
v 163.540 0.855 87.084
v 174.710 0.849 80.784
v 172.990 0.823 77.736
v 161.820 0.884 84.036
f 2433 2434 2435 2436
v 174.524 0.848 80.875
v 191.204 0.873 73.915
v 189.856 0.831 70.685
v 173.176 0.823 77.645
f 2437 2438 2439 2440
v 191.067 0.876 73.966
v 221.927 0.831 64.026
v 220.853 0.734 60.694
v 189.993 0.831 70.634
f 2441 2442 2443 2444
v 220.508 0.851 63.871
v 230.858 0.753 69.911
v 232.622 0.708 66.889
v 222.272 0.732 60.849
f 2445 2446 2447 2448
v 230.021 0.743 68.070
v 228.561 0.854 75.670
v 231.999 0.790 76.330
v 233.459 0.712 68.730
f 2449 2450 2451 2452
v 127.513 1.072 -142.625
v 120.123 0.971 -163.875
v 116.817 0.937 -162.725
v 124.207 1.029 -141.475
f 2453 2454 2455 2456
v 116.001 0.848 -31.472
v 112.561 1.003 -41.812
v 109.239 0.959 -40.708
v 112.679 0.845 -30.368
f 2457 2458 2459 2460
v 112.558 1.003 -41.820
v 112.318 1.010 -42.530
v 109.002 0.965 -41.410
v 109.242 0.959 -40.700
f 2461 2462 2463 2464
v 112.313 1.010 -42.543
v 109.483 1.131 -50.703
v 106.177 1.053 -49.557
v 109.007 0.965 -41.397
f 2465 2466 2467 2468
v 109.532 1.128 -50.535
v 108.632 1.164 -54.315
v 105.228 1.073 -53.505
v 106.128 1.054 -49.725
f 2469 2470 2471 2472
v 108.677 1.162 -53.805
v 108.807 1.158 -55.975
v 105.313 1.056 -56.185
v 105.183 1.071 -54.015
f 2473 2474 2475 2476
v 108.718 1.162 -55.519
v 109.418 1.153 -57.589
v 106.102 1.037 -58.711
v 105.402 1.053 -56.641
f 2477 2478 2479 2480
v 109.157 1.152 -57.096
v 110.787 1.155 -59.256
v 107.993 1.030 -61.364
v 106.363 1.034 -59.204
f 2481 2482 2483 2484
v 110.456 1.154 -58.922
v 112.526 1.162 -60.512
v 110.394 1.047 -63.288
v 108.324 1.031 -61.698
f 2485 2486 2487 2488
v 112.034 1.161 -60.247
v 133.154 1.247 -67.577
v 132.006 1.204 -70.883
v 110.886 1.053 -63.553
f 2489 2490 2491 2492
v 133.156 1.247 -67.577
v 203.056 1.190 -91.937
v 201.904 1.108 -95.243
v 132.004 1.204 -70.883
f 2493 2494 2495 2496
v 203.058 1.190 -91.938
v 211.918 1.104 -95.038
v 210.762 1.050 -98.342
v 201.902 1.108 -95.242
f 2497 2498 2499 2500
v 209.692 1.092 -96.100
v 216.152 1.086 -78.060
v 219.448 1.118 -79.240
v 212.988 1.075 -97.280
f 2501 2502 2503 2504
v 216.152 1.086 -78.060
v 219.992 0.883 -67.330
v 223.288 0.903 -68.510
v 219.448 1.118 -79.240
f 2505 2506 2507 2508
v 217.229 1.114 -80.304
v 178.709 1.168 -67.014
v 179.851 1.154 -63.706
v 218.371 1.078 -76.996
f 2509 2510 2511 2512
v 178.698 1.168 -67.010
v 110.318 1.000 -42.910
v 111.482 0.970 -39.610
v 179.862 1.154 -63.710
f 2513 2514 2515 2516
v 79.057 0.847 -163.498
v 83.867 0.811 -150.378
v 87.153 0.787 -151.582
v 82.343 0.845 -164.702
f 2517 2518 2519 2520
v 96.662 0.930 -190.412
v 101.122 0.947 -186.652
v 103.378 0.969 -189.328
v 98.918 0.922 -193.088
f 2521 2522 2523 2524
v 100.957 0.945 -186.811
v 104.287 0.939 -183.161
v 106.873 0.966 -185.519
v 103.543 0.969 -189.169
f 2525 2526 2527 2528
v 104.217 0.940 -183.242
v 109.517 0.903 -176.662
v 112.243 0.936 -178.858
v 106.943 0.966 -185.438
f 2529 2530 2531 2532
v 109.461 0.904 -176.736
v 115.661 0.793 -168.146
v 118.499 0.798 -170.194
v 112.299 0.935 -178.784
f 2533 2534 2535 2536
v 115.630 0.793 -168.190
v 118.590 0.937 -163.810
v 121.490 0.939 -165.770
v 118.530 0.799 -170.150
f 2537 2538 2539 2540
v 103.492 0.951 -186.758
v 107.162 1.058 -190.458
v 104.678 1.063 -192.922
v 101.008 0.933 -189.222
f 2541 2542 2543 2544
v 143.240 0.953 -235.755
v 157.640 0.682 -221.525
v 160.100 0.687 -224.015
v 145.700 1.053 -238.245
f 2545 2546 2547 2548
v 166.091 0.992 -255.285
v 168.881 0.779 -247.415
v 172.179 0.839 -248.585
v 169.389 1.049 -256.455
f 2549 2550 2551 2552
v 168.884 0.779 -247.406
v 172.694 0.631 -236.846
v 175.986 0.613 -238.034
v 172.176 0.839 -248.594
f 2553 2554 2555 2556
v 218.498 0.750 -256.252
v 217.648 0.485 -250.412
v 221.112 0.603 -249.908
v 221.961 0.854 -255.748
f 2557 2558 2559 2560
v 217.649 0.485 -250.418
v 216.899 0.418 -245.388
v 220.361 0.441 -244.872
v 221.111 0.603 -249.902
f 2561 2562 2563 2564
v -3.073 1.353 -229.510
v -11.853 1.233 -226.410
v -10.687 1.198 -223.110
v -1.907 1.307 -226.210
f 2565 2566 2567 2568
v -11.853 1.233 -226.410
v -24.343 0.805 -222.000
v -23.177 0.828 -218.700
v -10.687 1.198 -223.110
f 2569 2570 2571 2572
v -118.719 0.719 49.108
v -121.279 0.557 40.898
v -127.961 0.650 42.982
v -125.401 0.740 51.192
f 2573 2574 2575 2576
v -121.275 0.557 40.911
v -121.995 0.581 38.571
v -128.685 0.646 40.629
v -127.965 0.650 42.969
f 2577 2578 2579 2580
v -122.038 0.583 38.441
v -145.688 0.591 -28.919
v -152.292 0.612 -26.601
v -128.642 0.646 40.759
f 2581 2582 2583 2584
v -145.689 0.591 -28.922
v -147.689 0.599 -34.602
v -154.291 0.620 -32.278
v -152.291 0.612 -26.598
f 2585 2586 2587 2588
v -147.687 0.599 -34.598
v -150.187 0.567 -41.728
v -156.793 0.649 -39.412
v -154.293 0.620 -32.282
f 2589 2590 2591 2592
v -150.188 0.567 -41.730
v -174.108 0.624 -109.850
v -180.712 0.573 -107.530
v -156.792 0.649 -39.410
f 2593 2594 2595 2596
v -174.108 0.624 -109.850
v -183.578 0.605 -136.800
v -190.182 0.630 -134.480
v -180.712 0.573 -107.530
f 2597 2598 2599 2600
v -183.576 0.605 -136.795
v -198.236 0.537 -178.735
v -204.844 0.609 -176.425
v -190.184 0.630 -134.485
f 2601 2602 2603 2604
v -198.238 0.537 -178.740
v -199.948 0.536 -183.610
v -206.552 0.639 -181.290
v -204.842 0.609 -176.420
f 2605 2606 2607 2608
v -199.946 0.536 -183.605
v -205.586 0.594 -199.735
v -212.194 0.657 -197.425
v -206.554 0.639 -181.295
f 2609 2610 2611 2612
v -205.570 0.594 -199.688
v -218.760 0.707 -239.208
v -225.400 0.809 -236.992
v -212.210 0.657 -197.472
f 2613 2614 2615 2616
v -218.760 0.707 -239.207
v -221.830 0.713 -248.417
v -228.470 0.831 -246.203
v -225.400 0.809 -236.993
f 2617 2618 2619 2620
v -221.830 0.713 -248.417
v -222.590 0.713 -250.697
v -229.230 0.828 -248.483
v -228.470 0.831 -246.203
f 2621 2622 2623 2624
v -222.698 0.713 -250.981
v -225.473 0.728 -257.391
v -231.897 0.826 -254.609
v -229.122 0.830 -248.199
f 2625 2626 2627 2628
v -16.468 1.601 -254.530
v -6.743 1.302 -226.390
v 1.763 1.233 -229.330
v -7.962 1.847 -257.470
f 2629 2630 2631 2632
v 68.424 0.847 -18.603
v 58.234 0.719 -15.133
v 60.006 0.682 -9.927
v 70.196 0.819 -13.397
f 2633 2634 2635 2636
v 58.221 0.719 -15.129
v -115.399 0.620 44.911
v -113.601 0.730 50.109
v 60.019 0.682 -9.931
f 2637 2638 2639 2640
v -115.407 0.620 44.914
v -122.967 0.709 47.554
v -121.153 0.772 52.746
v -113.593 0.730 50.106
f 2641 2642 2643 2644
v 3.995 0.735 -188.922
v 15.045 0.623 -156.162
v 26.415 0.618 -159.998
v 15.365 0.663 -192.758
f 2645 2646 2647 2648
v 15.039 0.622 -156.180
v 23.979 0.736 -129.400
v 35.361 0.770 -133.200
v 26.421 0.617 -159.980
f 2649 2650 2651 2652
v 23.992 0.736 -129.362
v 32.652 0.603 -103.992
v 44.008 0.591 -107.868
v 35.348 0.770 -133.238
f 2653 2654 2655 2656
v 32.668 0.602 -103.945
v 44.938 0.693 -68.945
v 56.262 0.688 -72.915
v 43.992 0.591 -107.915
f 2657 2658 2659 2660
v 44.920 0.693 -68.995
v 63.630 0.717 -14.065
v 74.990 0.720 -17.935
v 56.280 0.688 -72.865
f 2661 2662 2663 2664
v -8.164 1.265 -225.909
v -6.534 1.216 -221.169
v 4.814 1.148 -225.071
v 3.184 1.215 -229.811
f 2665 2666 2667 2668
v -6.564 1.217 -221.258
v 3.976 0.735 -188.978
v 15.384 0.663 -192.702
v 4.844 1.145 -224.982
f 2669 2670 2671 2672
v -82.252 0.909 -220.605
v -30.112 0.840 -238.505
v -31.248 0.814 -241.815
v -83.388 0.809 -223.915
f 2673 2674 2675 2676
v -32.314 0.833 -239.533
v -29.514 0.868 -232.233
v -26.246 0.901 -233.487
v -29.046 0.842 -240.787
f 2677 2678 2679 2680
v -29.542 0.868 -232.313
v -25.422 0.816 -219.803
v -22.098 0.817 -220.897
v -26.218 0.901 -233.407
f 2681 2682 2683 2684
v -24.341 0.805 -222.001
v -73.981 0.838 -204.531
v -72.819 0.806 -201.229
v -23.179 0.828 -218.699
f 2685 2686 2687 2688
v -75.051 0.828 -202.299
v -20.231 0.696 -46.409
v -16.929 0.703 -47.571
v -71.749 0.816 -203.461
f 2689 2690 2691 2692
v -18.008 0.703 -45.336
v 41.292 0.727 -65.846
v 40.148 0.709 -69.154
v -19.152 0.691 -48.644
f 2693 2694 2695 2696
v 41.294 0.727 -65.847
v 51.174 0.816 -69.277
v 50.026 0.803 -72.583
v 40.146 0.709 -69.153
f 2697 2698 2699 2700
v -25.398 0.817 -219.735
v -20.928 0.945 -207.835
v -17.652 0.945 -209.065
v -22.122 0.817 -220.965
f 2701 2702 2703 2704
v -20.245 0.947 -206.983
v -15.205 0.907 -203.703
v -13.295 0.916 -206.637
v -18.335 0.946 -209.917
f 2705 2706 2707 2708
v -15.904 0.921 -204.598
v -12.044 0.904 -193.428
v -8.736 0.900 -194.572
v -12.596 0.922 -205.742
f 2709 2710 2711 2712
v -10.939 0.873 -195.662
v -18.719 0.977 -193.092
v -17.621 0.973 -189.768
v -9.841 0.903 -192.338
f 2713 2714 2715 2716
v -16.540 0.962 -192.068
v -17.460 0.997 -194.418
v -20.720 0.993 -193.142
v -19.800 0.991 -190.792
f 2717 2718 2719 2720
v -20.304 1.026 -202.131
v -17.704 0.938 -207.711
v -20.876 0.938 -209.189
v -23.476 0.997 -203.609
f 2721 2722 2723 2724
v -17.418 0.995 -194.295
v -20.218 1.003 -203.385
v -23.562 1.016 -202.355
v -20.762 0.995 -193.265
f 2725 2726 2727 2728
usemtl asphalt
