# Baked ultra-low Key West silhouette; generated by bake_key_west_far_city.py
mtllib far_city.mtl
usemtl massing
v 137.855 0.408 58.529
v 170.769 0.408 -49.916
v 192.405 0.408 -43.349
v 159.491 0.408 65.096
v 137.855 9.708 58.529
v 170.769 9.708 -49.916
v 192.405 9.708 -43.349
v 159.491 9.708 65.096
f 8 7 6 5
f 1 2 6 5
f 2 3 7 6
f 3 4 8 7
f 4 1 5 8
v 153.473 1.047 67.169
v 179.943 1.047 72.342
v 176.107 1.047 91.971
v 149.637 1.047 86.798
v 153.473 10.347 67.169
v 179.943 10.347 72.342
v 176.107 10.347 91.971
v 149.637 10.347 86.798
f 16 15 14 13
f 9 10 14 13
f 10 11 15 14
f 11 12 16 15
f 12 9 13 16
v 60.516 0.456 71.409
v 130.476 0.456 -26.935
v 151.964 0.456 -11.649
v 82.004 0.456 86.695
v 60.516 9.756 71.409
v 130.476 9.756 -26.935
v 151.964 9.756 -11.649
v 82.004 9.756 86.695
f 24 23 22 21
f 17 18 22 21
f 18 19 23 22
f 19 20 24 23
f 20 17 21 24
v -1.217 1.888 101.755
v 101.056 1.888 146.867
v 83.157 1.888 187.445
v -19.116 1.888 142.333
v -1.217 11.188 101.755
v 101.056 11.188 146.867
v 83.157 11.188 187.445
v -19.116 11.188 142.333
f 32 31 30 29
f 25 26 30 29
f 26 27 31 30
f 27 28 32 31
f 28 25 29 32
v -52.703 1.395 125.113
v -34.321 1.395 37.705
v -6.637 1.395 43.527
v -25.019 1.395 130.935
v -52.703 13.695 125.113
v -34.321 13.695 37.705
v -6.637 13.695 43.527
v -25.019 13.695 130.935
f 40 39 38 37
f 33 34 38 37
f 34 35 39 38
f 35 36 40 39
f 36 33 37 40
v -3.842 2.011 80.378
v 73.356 2.011 103.055
v 65.622 2.011 129.382
v -11.576 2.011 106.705
v -3.842 14.311 80.378
v 73.356 14.311 103.055
v 65.622 14.311 129.382
v -11.576 14.311 106.705
f 48 47 46 45
f 41 42 46 45
f 42 43 47 46
f 43 44 48 47
f 44 41 45 48
v -218.815 0.985 54.001
v -180.890 0.985 53.383
v -180.465 0.985 79.419
v -218.390 0.985 80.037
v -218.815 4.885 54.001
v -180.890 4.885 53.383
v -180.465 4.885 79.419
v -218.390 4.885 80.037
f 56 55 54 53
f 49 50 54 53
f 50 51 55 54
f 51 52 56 55
f 52 49 53 56
v 0.309 1.196 85.692
v 5.579 1.196 71.403
v 14.811 1.196 74.808
v 9.541 1.196 89.097
v 0.309 7.996 85.692
v 5.579 7.996 71.403
v 14.811 7.996 74.808
v 9.541 7.996 89.097
f 64 63 62 61
f 57 58 62 61
f 58 59 63 62
f 59 60 64 63
f 60 57 61 64
v -143.009 0.746 236.754
v -116.502 0.746 238.976
v -117.951 0.746 256.266
v -144.458 0.746 254.044
v -143.009 4.646 236.754
v -116.502 4.646 238.976
v -117.951 4.646 256.266
v -144.458 4.646 254.044
f 72 71 70 69
f 65 66 70 69
f 66 67 71 70
f 67 68 72 71
f 68 65 69 72
v -136.940 0.904 217.609
v -119.197 0.904 233.079
v -129.600 0.904 245.011
v -147.343 0.904 229.541
v -136.940 4.804 217.609
v -119.197 4.804 233.079
v -129.600 4.804 245.011
v -147.343 4.804 229.541
f 80 79 78 77
f 73 74 78 77
f 74 75 79 78
f 75 76 80 79
f 76 73 77 80
v -147.620 0.748 208.522
v -127.067 0.748 213.804
v -129.800 0.748 224.438
v -150.353 0.748 219.156
v -147.620 4.648 208.522
v -127.067 4.648 213.804
v -129.800 4.648 224.438
v -150.353 4.648 219.156
f 88 87 86 85
f 81 82 86 85
f 82 83 87 86
f 83 84 88 87
f 84 81 85 88
v -158.232 0.668 187.999
v -134.192 0.668 190.503
v -136.148 0.668 209.281
v -160.188 0.668 206.777
v -158.232 4.568 187.999
v -134.192 4.568 190.503
v -136.148 4.568 209.281
v -160.188 4.568 206.777
f 96 95 94 93
f 89 90 94 93
f 90 91 95 94
f 91 92 96 95
f 92 89 93 96
v -149.453 0.724 169.100
v -136.612 0.724 183.961
v -151.147 0.724 196.520
v -163.988 0.724 181.659
v -149.453 4.624 169.100
v -136.612 4.624 183.961
v -151.147 4.624 196.520
v -163.988 4.624 181.659
f 104 103 102 101
f 97 98 102 101
f 98 99 103 102
f 99 100 104 103
f 100 97 101 104
v -168.853 0.708 158.765
v -146.789 0.708 154.062
v -142.647 0.708 173.495
v -164.711 0.708 178.198
v -168.853 4.608 158.765
v -146.789 4.608 154.062
v -142.647 4.608 173.495
v -164.711 4.608 178.198
f 112 111 110 109
f 105 106 110 109
f 106 107 111 110
f 107 108 112 111
f 108 105 109 112
v -139.830 0.532 179.129
v -132.326 0.532 181.217
v -133.610 0.532 185.831
v -141.114 0.532 183.743
v -139.830 4.432 179.129
v -132.326 4.432 181.217
v -133.610 4.432 185.831
v -141.114 4.432 183.743
f 120 119 118 117
f 113 114 118 117
f 114 115 119 118
f 115 116 120 119
f 116 113 117 120
v -115.245 1.211 259.168
v -79.932 1.211 168.405
v -35.655 1.211 185.632
v -70.968 1.211 276.395
v -115.245 9.511 259.168
v -79.932 9.511 168.405
v -35.655 9.511 185.632
v -70.968 9.511 276.395
f 128 127 126 125
f 121 122 126 125
f 122 123 127 126
f 123 124 128 127
f 124 121 125 128
v -133.759 1.363 156.120
v -99.439 1.363 123.166
v -68.681 1.363 155.200
v -103.001 1.363 188.154
v -133.759 7.163 156.120
v -99.439 7.163 123.166
v -68.681 7.163 155.200
v -103.001 7.163 188.154
f 136 135 134 133
f 129 130 134 133
f 130 131 135 134
f 131 132 136 135
f 132 129 133 136
v -121.818 0.577 100.109
v -83.937 0.577 129.717
v -101.722 0.577 152.471
v -139.603 0.577 122.863
v -121.818 6.377 100.109
v -83.937 6.377 129.717
v -101.722 6.377 152.471
v -139.603 6.377 122.863
f 144 143 142 141
f 137 138 142 141
f 138 139 143 142
f 139 140 144 143
f 140 137 141 144
v -190.132 0.641 235.572
v -168.408 0.641 226.769
v -160.708 0.641 245.768
v -182.432 0.641 254.571
v -190.132 4.541 235.572
v -168.408 4.541 226.769
v -160.708 4.541 245.768
v -182.432 4.541 254.571
f 152 151 150 149
f 145 146 150 149
f 146 147 151 150
f 147 148 152 151
f 148 145 149 152
v -185.318 0.651 224.214
v -183.299 0.651 210.866
v -172.462 0.651 212.506
v -174.481 0.651 225.854
v -185.318 4.551 224.214
v -183.299 4.551 210.866
v -172.462 4.551 212.506
v -174.481 4.551 225.854
f 160 159 158 157
f 153 154 158 157
f 154 155 159 158
f 155 156 160 159
f 156 153 157 160
v -187.657 0.851 182.150
v -171.236 0.851 211.131
v -193.683 0.851 223.850
v -210.104 0.851 194.869
v -187.657 4.751 182.150
v -171.236 4.751 211.131
v -193.683 4.751 223.850
v -210.104 4.751 194.869
f 168 167 166 165
f 161 162 166 165
f 162 163 167 166
f 163 164 168 167
f 164 161 165 168
v -193.446 0.570 180.806
v -184.159 0.570 185.375
v -187.474 0.570 192.114
v -196.761 0.570 187.545
v -193.446 4.470 180.806
v -184.159 4.470 185.375
v -187.474 4.470 192.114
v -196.761 4.470 187.545
f 176 175 174 173
f 169 170 174 173
f 170 171 175 174
f 171 172 176 175
f 172 169 173 176
v -237.161 0.426 178.197
v -218.219 0.426 203.315
v -228.759 0.426 211.263
v -247.701 0.426 186.145
v -237.161 9.726 178.197
v -218.219 9.726 203.315
v -228.759 9.726 211.263
v -247.701 9.726 186.145
f 184 183 182 181
f 177 178 182 181
f 178 179 183 182
f 179 180 184 183
f 180 177 181 184
v -165.735 0.686 99.905
v -146.950 0.686 124.565
v -157.045 0.686 132.255
v -175.830 0.686 107.595
v -165.735 9.986 99.905
v -146.950 9.986 124.565
v -157.045 9.986 132.255
v -175.830 9.986 107.595
f 192 191 190 189
f 185 186 190 189
f 186 187 191 190
f 187 188 192 191
f 188 185 189 192
v -106.753 0.526 82.108
v -102.599 0.526 87.841
v -106.947 0.526 90.992
v -111.101 0.526 85.259
v -106.753 3.826 82.108
v -102.599 3.826 87.841
v -106.947 3.826 90.992
v -111.101 3.826 85.259
f 200 199 198 197
f 193 194 198 197
f 194 195 199 198
f 195 196 200 199
f 196 193 197 200
v -247.267 0.676 239.344
v -242.344 0.676 253.798
v -257.253 0.676 258.876
v -262.176 0.676 244.422
v -247.267 4.576 239.344
v -242.344 4.576 253.798
v -257.253 4.576 258.876
v -262.176 4.576 244.422
f 208 207 206 205
f 201 202 206 205
f 202 203 207 206
f 203 204 208 207
f 204 201 205 208
v -219.492 0.719 242.997
v -194.070 0.719 242.036
v -193.408 0.719 259.563
v -218.830 0.719 260.524
v -219.492 4.619 242.997
v -194.070 4.619 242.036
v -193.408 4.619 259.563
v -218.830 4.619 260.524
f 216 215 214 213
f 209 210 214 213
f 210 211 215 214
f 211 212 216 215
f 212 209 213 216
v -225.538 0.744 226.382
v -206.575 0.744 221.082
v -201.662 0.744 238.658
v -220.625 0.744 243.958
v -225.538 4.644 226.382
v -206.575 4.644 221.082
v -201.662 4.644 238.658
v -220.625 4.644 243.958
f 224 223 222 221
f 217 218 222 221
f 218 219 223 222
f 219 220 224 223
f 220 217 221 224
v 162.006 0.915 243.777
v 186.862 0.915 242.690
v 187.634 0.915 260.323
v 162.778 0.915 261.410
v 162.006 4.815 243.777
v 186.862 4.815 242.690
v 187.634 4.815 260.323
v 162.778 4.815 261.410
f 232 231 230 229
f 225 226 230 229
f 226 227 231 230
f 227 228 232 231
f 228 225 229 232
v 214.886 0.789 247.610
v 236.338 0.789 235.859
v 243.914 0.789 249.690
v 222.462 0.789 261.441
v 214.886 4.689 247.610
v 236.338 4.689 235.859
v 243.914 4.689 249.690
v 222.462 4.689 261.441
f 240 239 238 237
f 233 234 238 237
f 234 235 239 238
f 235 236 240 239
f 236 233 237 240
v -63.281 1.210 209.112
v -60.821 1.210 202.027
v -54.019 1.210 204.388
v -56.479 1.210 211.473
v -63.281 5.110 209.112
v -60.821 5.110 202.027
v -54.019 5.110 204.388
v -56.479 5.110 211.473
f 248 247 246 245
f 241 242 246 245
f 242 243 247 246
f 243 244 248 247
f 244 241 245 248
v -251.083 0.797 70.113
v -182.081 0.797 170.591
v -204.297 0.797 185.847
v -273.299 0.797 85.369
v -251.083 9.097 70.113
v -182.081 9.097 170.591
v -204.297 9.097 185.847
v -273.299 9.097 85.369
f 256 255 254 253
f 249 250 254 253
f 250 251 255 254
f 251 252 256 255
f 252 249 253 256
v 164.673 1.166 97.131
v 168.033 1.166 87.078
v 174.947 1.166 89.389
v 171.587 1.166 99.442
v 164.673 5.066 97.131
v 168.033 5.066 87.078
v 174.947 5.066 89.389
v 171.587 5.066 99.442
f 264 263 262 261
f 257 258 262 261
f 258 259 263 262
f 259 260 264 263
f 260 257 261 264
v -12.880 1.048 88.897
v -6.998 1.048 85.668
v -4.520 1.048 90.183
v -10.402 1.048 93.412
v -12.880 4.948 88.897
v -6.998 4.948 85.668
v -4.520 4.948 90.183
v -10.402 4.948 93.412
f 272 271 270 269
f 265 266 270 269
f 266 267 271 270
f 267 268 272 271
f 268 265 269 272
v -129.765 0.624 71.425
v -124.187 0.624 67.861
v -122.695 0.624 70.195
v -128.273 0.624 73.759
v -129.765 4.124 71.425
v -124.187 4.124 67.861
v -122.695 4.124 70.195
v -128.273 4.124 73.759
f 280 279 278 277
f 273 274 278 277
f 274 275 279 278
f 275 276 280 279
f 276 273 277 280
v -84.264 1.014 13.223
v -18.928 1.014 34.906
v -28.516 1.014 63.797
v -93.852 1.014 42.114
v -84.264 13.314 13.223
v -18.928 13.314 34.906
v -28.516 13.314 63.797
v -93.852 13.314 42.114
f 288 287 286 285
f 281 282 286 285
f 282 283 287 286
f 283 284 288 287
f 284 281 285 288
usemtl road
v 232.835 2.755 150.178
v 210.275 2.033 157.918
v 213.845 2.266 168.322
v 236.405 2.092 160.582
f 289 290 291 292
v -19.890 1.695 241.491
v -12.980 1.813 243.351
v -10.120 1.835 232.729
v -17.030 1.810 230.869
f 293 294 295 296
v -12.037 1.829 243.518
v -2.927 1.789 244.328
v -1.953 1.905 233.372
v -11.063 1.842 232.562
f 297 298 299 300
v -1.670 1.786 244.296
v 3.990 1.789 243.496
v 2.450 2.014 232.604
v -3.210 1.884 233.404
f 301 302 303 304
v 4.521 1.783 243.394
v 17.131 1.494 240.324
v 14.529 2.026 229.636
v 1.919 2.009 232.706
f 305 306 307 308
v 17.077 1.495 240.337
v 32.457 1.468 236.757
v 29.963 1.852 226.043
v 14.583 2.027 229.623
f 309 310 311 312
v 218.924 1.104 -256.587
v 217.070 1.151 -245.697
v 223.970 0.993 -244.523
v 225.825 1.005 -255.413
f 313 314 315 316
v 217.071 1.151 -245.706
v 216.071 1.179 -239.916
v 222.969 1.027 -238.724
v 223.969 0.993 -244.514
f 317 318 319 320
v 216.038 1.179 -239.672
v 214.258 1.187 -222.082
v 221.222 1.056 -221.378
v 223.002 1.024 -238.968
f 321 322 323 324
v 214.252 1.186 -221.444
v 215.932 1.160 -200.954
v 222.908 1.082 -201.526
v 221.228 1.056 -222.016
f 325 326 327 328
v 215.981 1.158 -200.589
v 219.811 1.110 -180.359
v 226.689 1.082 -181.661
v 222.859 1.083 -201.891
f 329 330 331 332
v 219.947 1.108 -179.853
v 226.537 1.070 -161.043
v 233.143 1.061 -163.357
v 226.553 1.084 -182.167
f 333 334 335 336
v 226.659 1.071 -160.741
v 232.659 1.035 -147.661
v 239.021 1.023 -150.579
v 233.021 1.061 -163.659
f 337 338 339 340
v 232.936 1.039 -147.166
v 253.096 1.060 -117.208
v 258.904 1.012 -121.116
v 238.744 1.026 -151.074
f 341 342 343 344
v -145.141 0.590 255.115
v -172.246 0.771 175.375
v -177.454 0.712 177.145
v -150.348 0.608 256.885
f 345 346 347 348
v 6.247 1.496 257.055
v 9.647 1.489 251.815
v 5.873 1.574 249.365
v 2.473 1.562 254.605
f 349 350 351 352
v 9.439 1.489 252.087
v 13.799 1.484 247.197
v 10.441 1.570 244.203
v 6.081 1.574 249.093
f 353 354 355 356
v 13.604 1.486 247.391
v 18.594 1.451 243.011
v 15.626 1.529 239.629
v 10.636 1.569 244.009
f 357 358 359 360
v 18.405 1.455 243.160
v 32.505 1.536 233.240
v 29.915 1.652 229.560
v 15.815 1.528 239.480
f 361 362 363 364
v 7.629 1.582 214.741
v 1.779 1.578 213.931
v 1.161 1.697 218.389
v 7.011 1.719 219.199
f 365 366 367 368
v 1.916 1.577 213.955
v -3.874 1.578 212.785
v -4.766 1.704 217.195
v 1.024 1.697 218.365
f 369 370 371 372
v -3.524 1.573 212.885
v -7.704 1.581 211.305
v -9.296 1.687 215.515
v -5.116 1.706 217.095
f 373 374 375 376
v -7.441 1.586 211.425
v -13.701 1.561 208.085
v -15.819 1.707 212.055
v -9.559 1.688 215.395
f 377 378 379 380
v -13.261 1.559 208.392
v -19.051 1.522 203.222
v -22.049 1.665 206.578
v -16.259 1.704 211.748
f 381 382 383 384
v -18.897 1.525 203.374
v -22.127 1.494 199.874
v -25.433 1.602 202.926
v -22.203 1.664 206.426
f 385 386 387 388
v -21.981 1.497 200.048
v -34.441 1.257 183.468
v -38.039 1.219 186.172
v -25.579 1.596 202.752
f 389 390 391 392
v 148.085 1.082 204.997
v 154.415 1.136 198.947
v 151.305 1.207 195.693
v 144.975 1.166 201.743
f 393 394 395 396
v 154.649 1.138 198.684
v 157.309 1.188 195.194
v 153.731 1.247 192.466
v 151.071 1.202 195.956
f 397 398 399 400
v 157.312 1.188 195.191
v 159.742 1.238 191.991
v 156.158 1.241 189.269
v 153.728 1.247 192.469
f 401 402 403 404
v 159.892 1.239 191.766
v 166.102 1.234 181.146
v 162.218 1.121 178.874
v 156.008 1.244 189.494
f 405 406 407 408
v -244.645 1.129 1.660
v -234.105 1.101 5.530
v -228.935 1.457 -8.550
v -239.475 1.490 -12.420
f 409 410 411 412
v -234.569 1.103 5.342
v -224.409 1.024 9.862
v -218.311 1.384 -3.842
v -228.471 1.454 -8.362
f 413 414 415 416
v -224.687 1.025 9.732
v -219.777 1.004 12.162
v -213.123 1.341 -1.282
v -218.033 1.380 -3.712
f 417 418 419 420
v -219.785 1.004 12.157
v -175.095 0.801 34.347
v -168.425 0.864 20.913
v -213.115 1.341 -1.277
f 421 422 423 424
v -175.191 0.803 34.299
v -149.471 0.667 47.529
v -142.609 0.982 34.191
v -168.329 0.864 20.961
f 425 426 427 428
v -149.809 0.669 47.344
v -131.679 0.568 57.884
v -124.141 0.923 44.916
v -142.271 0.982 34.376
f 429 430 431 432
v -131.678 0.568 57.885
v -124.828 0.564 61.865
v -117.292 0.865 48.895
v -124.142 0.923 44.915
f 433 434 435 436
v -125.271 0.565 61.586
v -110.091 0.493 71.886
v -101.669 0.793 59.474
v -116.849 0.862 49.174
f 437 438 439 440
v 84.151 1.223 68.010
v 84.821 1.192 65.490
v 81.439 1.242 64.590
v 80.769 1.226 67.110
f 441 442 443 444
v 84.877 1.183 64.933
v 84.767 1.159 63.143
v 81.273 1.241 63.357
v 81.383 1.242 65.147
f 445 446 447 448
v 84.626 1.156 62.555
v 84.146 1.168 61.445
v 80.934 1.244 62.835
v 81.414 1.241 63.945
f 449 450 451 452
v 84.152 1.167 61.459
v 83.552 1.214 60.039
v 80.328 1.253 61.401
v 80.928 1.244 62.821
f 453 454 455 456
v 83.234 1.241 59.542
v 82.014 1.271 58.202
v 79.426 1.256 60.558
v 80.646 1.250 61.898
f 457 458 459 460
v 81.553 1.279 57.841
v 79.153 1.305 56.541
v 77.487 1.272 59.619
v 79.887 1.254 60.919
f 461 462 463 464
v 78.596 1.310 56.352
v 76.716 1.317 56.052
v 76.164 1.282 59.508
v 78.044 1.267 59.808
f 465 466 467 468
v 76.150 1.309 56.054
v 73.650 1.300 56.474
v 74.230 1.295 59.926
v 76.730 1.278 59.506
f 469 470 471 472
v 73.178 1.302 56.625
v 71.958 1.312 57.215
v 73.482 1.299 60.365
v 74.702 1.291 59.775
f 473 474 475 476
v 71.568 1.317 57.473
v 69.818 1.338 59.003
v 72.122 1.306 61.637
v 73.872 1.297 60.107
f 477 478 479 480
v 69.516 1.340 59.346
v 68.886 1.342 60.286
v 71.794 1.307 62.234
v 72.424 1.304 61.294
f 481 482 483 484
v 68.659 1.342 60.774
v 67.809 1.350 63.714
v 71.171 1.337 64.686
v 72.021 1.307 61.746
f 485 486 487 488
v 67.765 1.353 64.497
v 68.285 1.356 67.517
v 71.735 1.392 66.923
v 71.215 1.324 63.903
f 489 490 491 492
v 68.572 1.353 68.217
v 70.152 1.346 70.497
v 73.028 1.372 68.503
v 71.448 1.368 66.223
f 493 494 495 496
v 70.705 1.341 71.010
v 73.385 1.303 72.580
v 75.155 1.285 69.560
v 72.475 1.389 67.990
f 497 498 499 500
v 74.018 1.298 72.802
v 76.148 1.279 73.112
v 76.652 1.253 69.648
v 74.522 1.300 69.338
f 501 502 503 504
v 76.698 1.273 73.104
v 78.838 1.254 72.734
v 78.242 1.224 69.286
v 76.102 1.264 69.656
f 505 506 507 508
v 79.379 1.253 72.546
v 81.429 1.243 71.426
v 79.751 1.216 68.354
v 77.701 1.234 69.474
f 509 510 511 512
v 81.955 1.236 70.985
v 83.825 1.227 68.655
v 81.095 1.230 66.465
v 79.225 1.211 68.795
f 513 514 515 516
v -23.689 1.300 142.106
v -10.099 1.491 182.686
v -6.781 1.545 181.574
v -20.371 1.345 140.994
f 517 518 519 520
v -7.967 1.528 183.815
v 16.093 1.452 177.055
v 15.147 1.673 173.685
v -8.913 1.519 180.445
f 521 522 523 524
v 16.195 1.451 177.023
v 104.105 1.407 146.443
v 102.955 1.502 143.137
v 15.045 1.673 173.717
f 525 526 527 528
v 105.188 1.500 144.229
v 92.758 1.449 107.519
v 89.442 1.475 108.641
v 101.872 1.505 145.351
f 529 530 531 532
v 92.757 1.449 107.517
v 91.147 1.517 102.777
v 87.833 1.511 103.903
v 89.443 1.475 108.643
f 533 534 535 536
v 91.148 1.517 102.780
v 87.698 1.399 92.570
v 84.382 1.410 93.690
v 87.832 1.511 103.900
f 537 538 539 540
v 87.697 1.399 92.568
v 80.197 1.226 70.448
v 76.883 1.257 71.572
v 84.383 1.410 93.692
f 541 542 543 544
v -37.564 0.995 125.595
v -33.934 1.113 133.315
v -30.766 1.126 131.825
v -34.396 1.032 124.105
f 545 546 547 548
v -33.941 1.113 133.299
v -31.521 1.413 138.579
v -28.339 1.227 137.121
v -30.759 1.126 131.841
f 549 550 551 552
v -31.124 1.487 139.130
v -28.584 1.424 141.500
v -26.196 1.261 138.940
v -28.736 1.211 136.570
f 553 554 555 556
v -28.114 1.386 141.813
v -25.254 1.308 143.113
v -23.806 1.282 139.927
v -26.666 1.253 138.627
f 557 558 559 560
v -24.551 1.308 143.270
v -22.051 1.319 143.300
v -22.009 1.307 139.800
v -24.509 1.274 139.770
f 561 562 563 564
v -21.771 1.322 143.281
v -19.101 1.395 142.881
v -19.619 1.346 139.419
v -22.289 1.302 139.819
f 565 566 567 568
v -18.795 1.401 142.806
v 35.765 2.420 124.196
v 34.635 2.355 120.884
v -19.925 1.342 139.494
f 569 570 571 572
v 35.783 2.420 124.190
v 90.073 1.490 104.990
v 88.907 1.476 101.690
v 34.617 2.355 120.890
f 573 574 575 576
v -54.702 0.645 133.126
v -45.122 1.022 130.466
v -46.058 1.016 127.094
v -55.638 0.657 129.754
f 577 578 579 580
v -44.928 1.030 130.400
v -35.318 1.018 126.470
v -36.642 1.010 123.230
v -46.252 1.010 127.160
f 581 582 583 584
v -34.366 1.032 124.173
v -40.266 1.078 110.103
v -43.494 1.069 111.457
v -37.594 0.995 125.527
f 585 586 587 588
v -40.348 1.080 109.933
v -47.468 1.149 97.053
v -50.532 1.157 98.747
v -43.412 1.068 111.627
f 589 590 591 592
v -47.520 1.151 96.966
v -55.730 1.189 83.956
v -58.690 1.194 85.824
v -50.480 1.156 98.834
f 593 594 595 596
v -55.830 1.188 83.813
v -66.090 1.126 70.663
v -68.850 1.076 72.817
v -58.590 1.195 85.967
f 597 598 599 600
v -66.197 1.123 70.540
v -76.047 1.053 60.090
v -78.593 1.020 62.490
v -68.743 1.077 72.940
f 601 602 603 604
v -76.318 1.055 59.856
v -81.198 1.032 56.446
v -83.202 0.970 59.314
v -78.322 1.016 62.724
f 605 606 607 608
v -82.743 0.992 56.216
v -89.673 0.984 58.476
v -88.587 0.977 61.804
v -81.657 0.999 59.544
f 609 610 611 612
v -89.781 0.984 58.516
v -95.691 0.883 60.886
v -94.389 0.844 64.134
v -88.479 0.978 61.764
f 613 614 615 616
v -95.688 0.883 60.884
v -105.468 0.650 64.784
v -104.172 0.625 68.036
v -94.392 0.844 64.136
f 617 618 619 620
v 80.350 1.186 197.417
v 65.920 1.256 200.447
v 68.180 1.536 211.213
v 82.610 1.454 208.183
f 621 622 623 624
v 66.059 1.255 200.420
v 15.939 1.490 209.600
v 17.921 1.753 220.420
v 68.041 1.537 211.240
f 625 626 627 628
v 15.831 1.489 209.621
v 6.221 1.541 211.581
v 8.419 1.814 222.359
v 18.029 1.753 220.399
f 629 630 631 632
v 149.543 0.985 143.470
v 148.613 1.077 149.940
v 153.067 1.122 150.580
v 153.997 1.027 144.110
f 633 634 635 636
v 148.669 1.087 150.849
v 155.229 1.008 175.019
v 159.571 1.063 173.841
v 153.011 1.091 149.671
f 637 638 639 640
v 155.154 1.011 174.569
v 155.264 1.006 176.349
v 159.756 1.060 176.071
v 159.646 1.061 174.291
f 641 642 643 644
v 155.265 1.007 176.058
v 155.085 1.005 178.708
v 159.575 1.072 179.012
v 159.755 1.060 176.362
f 645 646 647 648
v 155.151 1.006 178.298
v 154.171 1.034 182.098
v 158.529 1.113 183.222
v 159.509 1.076 179.422
f 649 650 651 652
v 154.594 1.022 142.776
v 144.554 1.011 114.806
v 138.906 1.010 116.834
v 148.946 0.987 144.804
f 653 654 655 656
v -236.444 0.720 254.623
v -230.604 0.880 251.873
v -232.096 0.895 248.707
v -237.936 0.778 251.457
f 657 658 659 660
v -219.767 0.993 241.310
v -226.167 0.762 243.810
v -224.893 0.736 247.070
v -218.493 0.964 244.570
f 661 662 663 664
v -226.166 0.762 243.810
v -233.216 0.910 246.560
v -231.944 0.892 249.820
v -224.894 0.736 247.070
f 665 666 667 668
v -220.725 0.757 251.982
v -219.468 0.714 256.472
v -216.098 0.921 255.528
v -217.355 0.978 251.038
f 669 670 671 672
v -227.563 0.750 249.844
v -228.323 0.766 248.534
v -234.377 0.829 252.046
v -233.617 0.833 253.356
f 673 674 675 676
v -228.330 0.766 248.521
v -229.560 0.781 246.421
v -235.600 0.829 249.959
v -234.370 0.829 252.059
f 677 678 679 680
v -229.552 0.781 246.434
v -237.972 0.784 231.914
v -244.028 0.800 235.426
v -235.608 0.829 249.946
f 681 682 683 684
v -238.044 0.782 231.796
v -242.494 0.752 224.776
v -248.406 0.790 228.524
v -243.956 0.801 235.544
f 685 686 687 688
v -242.979 0.755 224.171
v -251.639 0.870 215.541
v -256.581 0.731 220.499
v -247.921 0.793 229.129
f 689 690 691 692
v -251.432 0.869 215.767
v -253.322 0.886 213.520
v -258.678 0.730 218.026
v -256.788 0.731 220.273
f 693 694 695 696
v -147.564 0.835 40.000
v -152.554 0.660 48.840
v -149.506 0.661 50.560
v -144.516 0.828 41.720
f 697 698 699 700
v -152.495 0.660 48.743
v -162.495 0.835 64.063
v -159.565 0.884 65.977
v -149.565 0.662 50.657
f 701 702 703 704
v -162.467 0.835 64.021
v -251.847 0.755 192.651
v -248.973 0.852 194.649
v -159.593 0.884 66.019
f 705 706 707 708
v -229.630 0.937 24.424
v -219.120 0.949 34.324
v -216.720 0.972 31.776
v -227.230 0.945 21.876
f 709 710 711 712
v -218.777 0.948 34.576
v -194.067 1.035 48.456
v -192.353 1.007 45.404
v -217.063 0.975 31.524
f 713 714 715 716
v -194.067 1.035 48.456
v -188.497 1.113 51.586
v -186.783 1.070 48.534
v -192.353 1.007 45.404
f 717 718 719 720
v -188.498 1.113 51.585
v -170.658 0.972 61.615
v -168.942 0.958 58.565
v -186.782 1.070 48.535
f 721 722 723 724
v -170.659 0.972 61.615
v -166.629 0.929 63.885
v -164.911 0.889 60.835
v -168.941 0.958 58.565
f 725 726 727 728
v -166.626 0.929 63.886
v -161.886 0.863 66.546
v -160.174 0.838 63.494
v -164.914 0.889 60.834
f 729 730 731 732
v 166.242 1.231 180.864
v 167.452 1.226 177.914
v 163.288 1.123 176.206
v 162.078 1.121 179.156
f 733 734 735 736
v 167.617 1.222 177.185
v 167.767 1.208 174.495
v 163.273 1.119 174.245
v 163.123 1.123 176.935
f 737 738 739 740
v 167.657 1.207 173.664
v 163.017 1.235 159.614
v 158.743 1.129 161.026
v 163.383 1.120 175.076
f 741 742 743 744
v 162.986 1.234 159.529
v 161.946 1.214 156.759
v 157.734 1.122 158.341
v 158.774 1.129 161.111
f 745 746 747 748
v 210.227 2.031 157.934
v 204.767 1.913 159.864
v 208.433 2.098 170.236
v 213.893 2.267 168.306
f 749 750 751 752
v 204.772 1.913 159.863
v 168.762 1.232 172.553
v 172.418 1.438 182.927
v 208.428 2.098 170.237
f 753 754 755 756
v 168.759 1.232 172.554
v 162.329 1.100 174.824
v 165.991 1.338 185.196
v 172.421 1.438 182.926
f 757 758 759 760
v 99.474 1.045 87.061
v 85.514 1.388 91.461
v 86.566 1.422 94.799
v 100.526 1.089 90.399
f 761 762 763 764
v 91.664 1.449 109.737
v 105.554 1.041 105.007
v 104.426 1.103 101.693
v 90.536 1.479 106.423
f 765 766 767 768
v 65.396 1.013 -6.317
v 88.526 0.972 60.463
v 91.834 0.968 59.317
v 68.704 0.937 -7.463
f 769 770 771 772
v 88.523 0.972 60.454
v 98.343 1.079 89.294
v 101.657 1.067 88.166
v 91.837 0.969 59.326
f 773 774 775 776
v 98.344 1.079 89.295
v 103.334 1.098 103.915
v 106.646 1.062 102.785
v 101.656 1.067 88.165
f 777 778 779 780
v 103.333 1.098 103.914
v 107.983 0.960 117.574
v 111.297 0.901 116.446
v 106.647 1.062 102.786
f 781 782 783 784
v 108.538 0.944 118.369
v 113.038 0.864 122.019
v 115.242 0.872 119.301
v 110.742 0.911 115.651
f 785 786 787 788
v 113.940 0.865 122.398
v 119.840 0.982 123.078
v 120.240 0.904 119.602
v 114.340 0.871 118.922
f 789 790 791 792
v 120.205 0.995 123.082
v 126.645 1.012 122.472
v 126.315 0.944 118.988
v 119.875 0.900 119.598
f 793 794 795 796
v 127.016 1.003 122.396
v 142.266 0.984 117.486
v 141.194 1.033 114.154
v 125.944 0.941 119.064
f 797 798 799 800
v 142.238 0.984 117.494
v 185.838 0.987 104.254
v 184.822 0.959 100.906
v 141.222 1.033 114.146
f 801 802 803 804
v 186.515 0.986 103.868
v 189.635 0.973 100.998
v 187.265 0.927 98.422
v 184.145 0.970 101.292
f 805 806 807 808
v 190.182 0.973 99.957
v 190.852 0.940 95.267
v 187.388 0.944 94.773
v 186.718 0.931 99.463
f 809 810 811 812
v 190.817 0.939 94.593
v 189.767 0.943 90.423
v 186.373 0.960 91.277
v 187.423 0.942 95.447
f 813 814 815 816
v 189.009 0.942 89.373
v 186.129 0.978 87.543
v 184.251 1.005 90.497
v 187.131 0.946 92.327
f 817 818 819 820
v 185.231 0.995 87.270
v 178.891 1.188 87.120
v 178.809 1.226 90.620
v 185.149 0.980 90.770
f 821 822 823 824
v 178.308 1.218 87.206
v 140.878 1.211 99.396
v 141.962 1.176 102.724
v 179.392 1.201 90.534
f 825 826 827 828
v 139.905 1.188 100.183
v 137.625 1.097 104.123
v 140.655 1.118 105.877
v 142.935 1.206 101.937
f 829 830 831 832
v 137.438 1.080 105.407
v 140.028 1.012 116.227
v 143.432 1.008 115.413
v 140.842 1.134 104.593
f 833 834 835 836
v 89.686 0.949 58.211
v 82.046 1.248 60.461
v 83.034 1.233 63.819
v 90.674 0.968 61.569
f 837 838 839 840
v -22.771 1.683 237.472
v -18.821 1.630 250.652
v -10.199 1.833 248.068
v -14.149 1.822 234.888
f 841 842 843 844
v -41.904 1.137 186.798
v -30.284 1.615 220.068
v -18.956 1.905 216.112
v -30.576 1.327 182.842
f 845 846 847 848
v -30.325 1.614 219.949
v -28.855 1.653 224.459
v -17.445 1.921 220.741
v -18.915 1.904 216.231
f 849 850 851 852
v -28.821 1.654 224.559
v -24.131 1.648 238.139
v -12.789 1.838 234.221
v -17.479 1.919 220.641
f 853 854 855 856
v -256.171 1.242 -4.297
v -244.181 1.144 0.233
v -239.939 1.461 -10.993
v -251.929 1.542 -15.523
f 857 858 859 860
v 220.796 1.071 -243.382
v 227.546 1.039 -244.462
v 226.994 1.039 -247.918
v 220.244 1.086 -246.838
f 861 862 863 864
v 227.657 1.041 -244.483
v 243.827 1.325 -248.153
v 243.053 1.333 -251.567
v 226.883 1.037 -247.897
f 865 866 867 868
v 230.535 1.130 -160.594
v 239.725 1.026 -164.574
v 238.335 1.065 -167.786
v 229.145 1.135 -163.806
f 869 870 871 872
v 239.725 1.026 -164.574
v 256.695 1.150 -171.913
v 255.305 1.320 -175.125
v 238.335 1.065 -167.786
f 873 874 875 876
v 154.627 0.999 177.437
v 148.717 0.960 179.387
v 152.163 1.322 189.833
v 158.073 1.181 187.883
f 877 878 879 880
v 148.771 0.960 179.369
v 131.811 0.986 184.769
v 135.149 1.359 195.251
v 152.109 1.321 189.851
f 881 882 883 884
v 131.975 0.986 184.720
v 117.455 1.053 188.850
v 120.465 1.396 199.430
v 134.985 1.359 195.300
f 885 886 887 888
v 117.644 1.053 188.800
v 98.244 1.116 193.580
v 100.876 1.436 204.260
v 120.276 1.395 199.480
f 889 890 891 892
v 98.406 1.115 193.542
v 80.326 1.186 197.422
v 82.634 1.454 208.178
v 100.714 1.435 204.298
f 893 894 895 896
v 162.393 1.102 174.802
v 154.583 0.999 177.452
v 158.117 1.181 187.868
v 165.927 1.338 185.218
f 897 898 899 900
v 32.469 1.468 236.754
v 91.519 1.241 222.864
v 89.001 1.509 212.156
v 29.951 1.852 226.046
f 901 902 903 904
v 148.015 1.117 208.666
v 169.975 1.126 202.506
v 167.005 1.205 191.914
v 145.045 1.227 198.074
f 905 906 907 908
v 170.268 1.121 202.415
v 197.078 1.417 193.255
v 193.522 1.467 182.845
v 166.712 1.204 192.005
f 909 910 911 912
v 197.114 1.419 193.242
v 242.084 2.450 177.532
v 238.456 2.485 167.148
v 193.486 1.465 182.858
f 913 914 915 916
v 91.500 1.241 222.868
v 122.190 1.069 215.768
v 119.710 1.332 205.052
v 89.020 1.509 212.152
f 917 918 919 920
v 122.409 1.067 215.713
v 147.989 1.117 208.673
v 145.071 1.226 198.067
v 119.491 1.333 205.107
f 921 922 923 924
v -62.239 0.495 133.947
v -43.309 1.102 187.327
v -29.171 1.355 182.313
v -48.101 0.888 128.933
f 925 926 927 928
v 4.795 1.561 212.084
v -5.365 1.714 217.334
v -0.315 2.038 227.106
v 9.845 1.790 221.856
f 929 930 931 932
v -5.383 1.714 217.343
v -8.413 1.760 218.923
v -3.327 1.962 228.677
v -0.297 2.039 227.097
f 933 934 935 936
v -9.554 1.793 219.716
v -18.144 1.817 227.466
v -10.776 1.838 235.634
v -2.186 1.993 227.884
f 937 938 939 940
v -18.622 1.803 227.954
v -22.622 1.707 232.584
v -14.298 1.808 239.776
v -10.298 1.833 235.146
f 941 942 943 944
v -134.257 0.845 120.915
v -139.797 0.794 134.885
v -136.543 0.854 136.175
v -131.003 0.836 122.205
f 945 946 947 948
v -139.817 0.819 136.121
v -96.577 0.892 256.591
v -93.283 0.930 255.409
v -136.523 0.846 134.939
f 949 950 951 952
v -103.283 0.736 92.370
v -89.053 0.783 109.710
v -86.347 0.855 107.490
v -100.577 0.732 90.150
f 953 954 955 956
v -89.348 0.783 109.189
v -79.098 1.006 137.889
v -75.802 0.991 136.711
v -86.052 0.859 108.011
f 957 958 959 960
v -79.098 1.006 137.890
v -76.868 1.007 144.120
v -73.572 0.974 142.940
v -75.802 0.991 136.710
f 961 962 963 964
v -77.393 1.141 152.274
v -75.093 1.071 158.534
v -71.807 1.024 157.326
v -74.107 1.052 151.066
f 965 966 967 968
v -76.881 1.010 142.979
v -78.521 1.054 147.919
v -75.199 1.011 149.021
v -73.559 0.962 144.081
f 969 970 971 972
v -78.513 1.075 149.044
v -77.403 1.141 152.244
v -74.097 1.051 151.096
v -75.207 0.992 147.896
f 973 974 975 976
v -75.107 1.072 158.493
v -73.537 1.061 163.113
v -70.223 1.017 161.987
v -71.793 1.024 157.367
f 977 978 979 980
v -71.285 1.028 164.196
v -66.115 1.020 162.326
v -67.305 0.997 159.034
v -72.475 1.033 160.904
f 981 982 983 984
v -65.048 0.997 160.132
v -69.388 0.919 146.962
v -72.712 0.936 148.058
v -68.372 1.014 161.228
f 985 986 987 988
v -69.842 0.926 146.244
v -74.012 0.998 142.264
v -76.428 0.999 144.796
v -72.258 0.931 148.776
f 989 990 991 992
v -76.963 1.001 138.981
v -65.013 0.475 135.521
v -65.987 0.445 132.159
v -77.937 0.997 135.619
f 993 994 995 996
v -65.104 0.479 135.545
v -54.774 0.644 133.145
v -55.566 0.659 129.735
v -65.896 0.445 132.135
f 997 998 999 1000
v -131.401 0.835 122.806
v -100.701 0.745 92.506
v -103.159 0.748 90.014
v -133.859 0.850 120.314
f 1001 1002 1003 1004
v -100.687 0.745 92.492
v -96.387 0.563 88.152
v -98.873 0.565 85.688
v -103.173 0.749 90.028
f 1005 1006 1007 1008
v -96.354 0.561 88.117
v -89.244 0.707 80.537
v -91.796 0.698 78.143
v -98.906 0.567 85.723
f 1009 1010 1011 1012
v 211.960 2.143 160.872
v 194.870 1.686 161.632
v 195.070 1.781 166.128
v 212.160 2.199 165.368
f 1013 1014 1015 1016
v 194.279 1.674 161.739
v 181.009 1.435 166.019
v 182.391 1.511 170.301
v 195.661 1.793 166.021
f 1017 1018 1019 1020
v 181.268 1.441 165.952
v 176.058 1.329 166.972
v 176.922 1.395 171.388
v 182.132 1.506 170.368
f 1021 1022 1023 1024
v 177.590 1.363 167.217
v 172.520 1.344 164.377
v 170.320 1.263 168.303
v 175.390 1.359 171.143
f 1025 1026 1027 1028
v 172.557 1.343 164.399
v 167.487 1.375 161.429
v 165.213 1.241 165.311
v 170.283 1.263 168.281
f 1029 1030 1031 1032
v 167.850 1.375 161.693
v 161.340 1.190 155.873
v 158.340 1.123 159.227
v 164.850 1.238 165.047
f 1033 1034 1035 1036
v 161.947 1.214 156.762
v 158.887 1.116 148.582
v 154.673 1.062 150.158
v 157.733 1.122 158.338
f 1037 1038 1039 1040
v 158.454 1.114 147.867
v 153.444 1.012 142.287
v 150.096 1.001 145.293
v 155.106 1.061 150.873
f 1041 1042 1043 1044
v -223.035 1.207 2.503
v -225.895 0.992 11.943
v -222.545 0.994 12.957
v -219.685 1.190 3.517
f 1045 1046 1047 1048
v -225.848 0.996 11.809
v -230.058 0.939 22.509
v -226.802 0.944 23.791
v -222.592 0.992 13.091
f 1049 1050 1051 1052
v -227.874 0.943 21.491
v -255.444 1.109 12.244
v -256.556 1.149 15.563
v -228.986 0.934 24.809
f 1053 1054 1055 1056
v -129.336 0.739 50.386
v -134.726 0.571 57.966
v -131.874 0.626 59.994
v -126.484 0.719 52.414
f 1057 1058 1059 1060
v -134.654 0.569 57.871
v -136.734 0.761 60.411
v -134.026 0.827 62.629
v -131.946 0.631 60.089
f 1061 1062 1063 1064
v -136.839 0.777 60.554
v -141.429 0.913 67.484
v -138.511 0.917 69.416
v -133.921 0.814 62.486
f 1065 1066 1067 1068
v -141.389 0.912 67.426
v -160.269 0.974 93.606
v -157.431 1.016 95.654
v -138.551 0.917 69.474
f 1069 1070 1071 1072
v -160.233 0.973 93.558
v -196.723 0.827 140.658
v -193.957 0.889 142.802
v -157.467 1.017 95.702
f 1073 1074 1075 1076
v -179.121 0.861 154.007
v -165.981 0.958 137.177
v -168.739 1.010 135.023
v -181.879 0.887 151.853
f 1077 1078 1079 1080
v -166.528 0.962 137.639
v -157.188 0.874 132.589
v -158.852 0.938 129.511
v -168.192 1.016 134.561
f 1081 1082 1083 1084
v -156.615 0.870 132.094
v -139.945 0.933 109.654
v -142.755 0.934 107.566
v -159.425 0.942 130.006
f 1085 1086 1087 1088
v -139.997 0.932 109.720
v -118.367 0.971 83.340
v -121.073 0.997 81.120
v -142.703 0.934 107.500
f 1089 1090 1091 1092
v -118.441 0.974 83.424
v -113.081 0.801 77.684
v -115.639 0.773 75.296
v -120.999 0.997 81.036
f 1093 1094 1095 1096
v -140.955 0.924 69.897
v -120.705 1.009 83.677
v -118.735 0.962 80.783
v -138.985 0.908 67.003
f 1097 1098 1099 1100
v -159.942 1.010 95.997
v -142.442 0.924 109.977
v -140.258 0.954 107.243
v -157.758 0.978 93.263
f 1101 1102 1103 1104
v -136.395 0.891 62.945
v -115.375 0.850 77.915
v -113.345 0.656 75.065
v -134.365 0.654 60.095
f 1105 1106 1107 1108
v -184.200 1.248 65.133
v -176.700 1.172 66.173
v -176.220 1.068 62.707
v -183.720 1.225 61.667
f 1109 1110 1111 1112
v -175.503 1.141 65.905
v -168.843 0.954 61.555
v -170.757 0.964 58.625
v -177.417 1.092 62.975
f 1113 1114 1115 1116
v -194.950 1.005 46.746
v -195.720 1.181 54.036
v -192.240 1.120 54.404
v -191.470 1.024 47.114
f 1117 1118 1119 1120
v -195.328 1.177 55.336
v -190.628 1.247 61.016
v -187.932 1.213 58.784
v -192.632 1.103 53.104
f 1121 1122 1123 1124
v -190.242 1.254 61.362
v -184.922 1.262 64.862
v -182.998 1.221 61.938
v -188.318 1.213 58.438
f 1125 1126 1127 1128
v -244.081 0.830 227.740
v -239.211 0.669 221.620
v -241.949 0.696 219.440
v -246.819 0.841 225.560
f 1129 1130 1131 1132
v -239.236 0.669 221.651
v -206.146 0.820 181.961
v -208.834 0.855 179.719
v -241.924 0.697 219.409
f 1133 1134 1135 1136
v -109.850 0.494 71.973
v -95.550 0.534 84.903
v -85.490 0.872 73.777
v -99.790 0.803 60.847
f 1137 1138 1139 1140
v -96.172 0.531 84.270
v -82.872 0.586 99.520
v -71.568 0.918 89.660
v -84.868 0.873 74.410
f 1141 1142 1143 1144
v -83.399 0.583 98.841
v -72.789 0.551 114.261
v -60.431 0.878 105.759
v -71.041 0.916 90.339
f 1145 1146 1147 1148
v -73.149 0.557 113.683
v -66.009 0.504 126.393
v -52.931 0.865 119.047
v -60.071 0.886 106.337
f 1149 1150 1151 1152
v -66.197 0.506 126.037
v -61.897 0.501 134.757
v -48.443 0.881 128.123
v -52.743 0.868 119.403
f 1153 1154 1155 1156
v -110.134 0.493 71.857
v -109.074 0.493 72.587
v -100.566 0.801 60.233
v -101.626 0.794 59.503
f 1157 1158 1159 1160
v -112.991 0.795 77.581
v -110.871 0.549 74.921
v -113.609 0.540 72.739
v -115.729 0.780 75.399
f 1161 1162 1163 1164
v -110.860 0.548 74.907
v -104.500 0.640 66.757
v -107.260 0.632 64.603
v -113.620 0.541 72.753
f 1165 1166 1167 1168
usemtl asphalt
