# Baked ultra-low Key West silhouette; generated by bake_key_west_far_city.py
mtllib far_city.mtl
usemtl massing
v -0.178 0.723 -48.840
v 17.057 0.723 -97.730
v 42.898 0.723 -88.620
v 25.663 0.723 -39.730
v -0.178 6.523 -48.840
v 17.057 6.523 -97.730
v 42.898 6.523 -88.620
v 25.663 6.523 -39.730
f 8 7 6 5
f 1 2 6 5
f 2 3 7 6
f 3 4 8 7
f 4 1 5 8
v 147.479 0.648 -74.038
v 202.581 0.648 -37.006
v 168.181 0.648 14.178
v 113.079 0.648 -22.854
v 147.479 8.948 -74.038
v 202.581 8.948 -37.006
v 168.181 8.948 14.178
v 113.079 8.948 -22.854
f 16 15 14 13
f 9 10 14 13
f 10 11 15 14
f 11 12 16 15
f 12 9 13 16
v 86.347 0.710 -96.211
v 185.404 0.710 66.322
v 103.053 0.710 116.511
v 3.996 0.710 -46.022
v 86.347 9.010 -96.211
v 185.404 9.010 66.322
v 103.053 9.010 116.511
v 3.996 9.010 -46.022
f 24 23 22 21
f 17 18 22 21
f 18 19 23 22
f 19 20 24 23
f 20 17 21 24
v 161.545 -0.239 -176.820
v 171.565 -0.239 -164.295
v 163.795 -0.239 -158.080
v 153.775 -0.239 -170.605
v 161.545 3.661 -176.820
v 171.565 3.661 -164.295
v 163.795 3.661 -158.080
v 153.775 3.661 -170.605
f 32 31 30 29
f 25 26 30 29
f 26 27 31 30
f 27 28 32 31
f 28 25 29 32
v 97.805 1.092 -159.134
v 125.357 1.092 -184.998
v 135.055 1.092 -174.666
v 107.503 1.092 -148.802
v 97.805 6.892 -159.134
v 125.357 6.892 -184.998
v 135.055 6.892 -174.666
v 107.503 6.892 -148.802
f 40 39 38 37
f 33 34 38 37
f 34 35 39 38
f 35 36 40 39
f 36 33 37 40
v 105.367 1.103 -159.043
v 109.432 1.103 -162.521
v 112.533 1.103 -158.897
v 108.468 1.103 -155.419
v 105.367 5.003 -159.043
v 109.432 5.003 -162.521
v 112.533 5.003 -158.897
v 108.468 5.003 -155.419
f 48 47 46 45
f 41 42 46 45
f 42 43 47 46
f 43 44 48 47
f 44 41 45 48
v 150.757 0.930 -126.858
v 159.546 0.930 -130.410
v 160.843 0.930 -127.202
v 152.054 0.930 -123.650
v 150.757 4.830 -126.858
v 159.546 4.830 -130.410
v 160.843 4.830 -127.202
v 152.054 4.830 -123.650
f 56 55 54 53
f 49 50 54 53
f 50 51 55 54
f 51 52 56 55
f 52 49 53 56
v -24.435 0.524 -206.180
v -15.508 0.524 -214.914
v -7.745 0.524 -206.980
v -16.672 0.524 -198.246
v -24.435 4.424 -206.180
v -15.508 4.424 -214.914
v -7.745 4.424 -206.980
v -16.672 4.424 -198.246
f 64 63 62 61
f 57 58 62 61
f 58 59 63 62
f 59 60 64 63
f 60 57 61 64
v -12.762 0.500 -182.191
v -9.010 0.500 -185.718
v -6.558 0.500 -183.109
v -10.310 0.500 -179.582
v -12.762 4.400 -182.191
v -9.010 4.400 -185.718
v -6.558 4.400 -183.109
v -10.310 4.400 -179.582
f 72 71 70 69
f 65 66 70 69
f 66 67 71 70
f 67 68 72 71
f 68 65 69 72
v -9.631 0.555 -185.596
v -6.011 0.555 -188.928
v -3.689 0.555 -186.404
v -7.309 0.555 -183.072
v -9.631 4.455 -185.596
v -6.011 4.455 -188.928
v -3.689 4.455 -186.404
v -7.309 4.455 -183.072
f 80 79 78 77
f 73 74 78 77
f 74 75 79 78
f 75 76 80 79
f 76 73 77 80
v -2.584 0.541 -184.438
v 1.121 0.541 -181.065
v -0.576 0.541 -179.202
v -4.281 0.541 -182.575
v -2.584 4.441 -184.438
v 1.121 4.441 -181.065
v -0.576 4.441 -179.202
v -4.281 4.441 -182.575
f 88 87 86 85
f 81 82 86 85
f 82 83 87 86
f 83 84 88 87
f 84 81 85 88
v -7.797 0.588 -187.785
v -2.519 0.588 -193.474
v -0.363 0.588 -191.475
v -5.641 0.588 -185.786
v -7.797 4.488 -187.785
v -2.519 4.488 -193.474
v -0.363 4.488 -191.475
v -5.641 4.488 -185.786
f 96 95 94 93
f 89 90 94 93
f 90 91 95 94
f 91 92 96 95
f 92 89 93 96
v -4.878 0.580 -190.895
v 0.473 0.580 -196.263
v 2.718 0.580 -194.025
v -2.633 0.580 -188.657
v -4.878 4.480 -190.895
v 0.473 4.480 -196.263
v 2.718 4.480 -194.025
v -2.633 4.480 -188.657
f 104 103 102 101
f 97 98 102 101
f 98 99 103 102
f 99 100 104 103
f 100 97 101 104
v -1.818 0.587 -193.858
v 3.535 0.587 -198.996
v 5.738 0.587 -196.702
v 0.385 0.587 -191.564
v -1.818 4.487 -193.858
v 3.535 4.487 -198.996
v 5.738 4.487 -196.702
v 0.385 4.487 -191.564
f 112 111 110 109
f 105 106 110 109
f 106 107 111 110
f 107 108 112 111
f 108 105 109 112
v 1.279 0.533 -196.606
v 6.624 0.533 -202.149
v 8.921 0.533 -199.934
v 3.576 0.533 -194.391
v 1.279 4.433 -196.606
v 6.624 4.433 -202.149
v 8.921 4.433 -199.934
v 3.576 4.433 -194.391
f 120 119 118 117
f 113 114 118 117
f 114 115 119 118
f 115 116 120 119
f 116 113 117 120
v 4.882 0.547 -195.185
v 14.787 0.547 -186.175
v 10.858 0.547 -181.855
v 0.953 0.547 -190.865
v 4.882 4.447 -195.185
v 14.787 4.447 -186.175
v 10.858 4.447 -181.855
v 0.953 4.447 -190.865
f 128 127 126 125
f 121 122 126 125
f 122 123 127 126
f 123 124 128 127
f 124 121 125 128
v -3.907 0.700 -169.873
v 0.186 0.700 -174.122
v 1.987 0.700 -172.387
v -2.106 0.700 -168.138
v -3.907 4.600 -169.873
v 0.186 4.600 -174.122
v 1.987 4.600 -172.387
v -2.106 4.600 -168.138
f 136 135 134 133
f 129 130 134 133
f 130 131 135 134
f 131 132 136 135
f 132 129 133 136
v -6.265 0.615 -169.491
v -2.889 0.615 -171.278
v -1.115 0.615 -167.929
v -4.491 0.615 -166.142
v -6.265 4.515 -169.491
v -2.889 4.515 -171.278
v -1.115 4.515 -167.929
v -4.491 4.515 -166.142
f 144 143 142 141
f 137 138 142 141
f 138 139 143 142
f 139 140 144 143
f 140 137 141 144
v 3.734 1.062 -189.846
v 18.821 1.062 -176.174
v 15.866 1.062 -172.914
v 0.779 1.062 -186.586
v 3.734 4.962 -189.846
v 18.821 4.962 -176.174
v 15.866 4.962 -172.914
v 0.779 4.962 -186.586
f 152 151 150 149
f 145 146 150 149
f 146 147 151 150
f 147 148 152 151
f 148 145 149 152
v 1.852 0.617 -164.022
v 7.634 0.617 -170.997
v 11.468 0.617 -167.818
v 5.686 0.617 -160.843
v 1.852 4.517 -164.022
v 7.634 4.517 -170.997
v 11.468 4.517 -167.818
v 5.686 4.517 -160.843
f 160 159 158 157
f 153 154 158 157
f 154 155 159 158
f 155 156 160 159
f 156 153 157 160
v 1.632 0.636 -162.751
v 4.977 0.636 -163.065
v 5.288 0.636 -159.749
v 1.943 0.636 -159.435
v 1.632 4.536 -162.751
v 4.977 4.536 -163.065
v 5.288 4.536 -159.749
v 1.943 4.536 -159.435
f 168 167 166 165
f 161 162 166 165
f 162 163 167 166
f 163 164 168 167
f 164 161 165 168
v 6.323 0.594 -165.894
v 14.455 0.594 -175.465
v 18.997 0.594 -171.606
v 10.865 0.594 -162.035
v 6.323 4.494 -165.894
v 14.455 4.494 -175.465
v 18.997 4.494 -171.606
v 10.865 4.494 -162.035
f 176 175 174 173
f 169 170 174 173
f 170 171 175 174
f 171 172 176 175
f 172 169 173 176
v 11.310 0.636 -171.338
v 19.732 0.636 -180.575
v 24.550 0.636 -176.182
v 16.128 0.636 -166.945
v 11.310 4.536 -171.338
v 19.732 4.536 -180.575
v 24.550 4.536 -176.182
v 16.128 4.536 -166.945
f 184 183 182 181
f 177 178 182 181
f 178 179 183 182
f 179 180 184 183
f 180 177 181 184
v 4.550 1.081 -145.346
v 16.025 1.081 -158.359
v 19.070 1.081 -155.674
v 7.595 1.081 -142.661
v 4.550 4.981 -145.346
v 16.025 4.981 -158.359
v 19.070 4.981 -155.674
v 7.595 4.981 -142.661
f 192 191 190 189
f 185 186 190 189
f 186 187 191 190
f 187 188 192 191
f 188 185 189 192
v 9.965 0.919 -148.763
v 20.881 0.919 -161.202
v 23.895 0.919 -158.557
v 12.979 0.919 -146.118
v 9.965 4.819 -148.763
v 20.881 4.819 -161.202
v 23.895 4.819 -158.557
v 12.979 4.819 -146.118
f 200 199 198 197
f 193 194 198 197
f 194 195 199 198
f 195 196 200 199
f 196 193 197 200
v 16.433 0.727 -154.223
v 25.244 0.727 -163.984
v 29.727 0.727 -159.937
v 20.916 0.727 -150.176
v 16.433 4.627 -154.223
v 25.244 4.627 -163.984
v 29.727 4.627 -159.937
v 20.916 4.627 -150.176
f 208 207 206 205
f 201 202 206 205
f 202 203 207 206
f 203 204 208 207
f 204 201 205 208
v 21.965 0.613 -158.564
v 30.493 0.613 -168.244
v 34.815 0.613 -164.436
v 26.287 0.613 -154.756
v 21.965 4.513 -158.564
v 30.493 4.513 -168.244
v 34.815 4.513 -164.436
v 26.287 4.513 -154.756
f 216 215 214 213
f 209 210 214 213
f 210 211 215 214
f 211 212 216 215
f 212 209 213 216
usemtl road
v 254.580 1.032 -74.168
v 249.840 1.045 -70.898
v 252.680 1.001 -66.782
v 257.420 0.997 -70.053
f 217 218 219 220
v 249.364 1.048 -70.469
v 237.604 1.046 -56.779
v 241.396 0.959 -53.521
v 253.156 1.002 -67.211
f 221 222 223 224
v 237.576 1.046 -56.747
v 233.766 1.032 -52.157
v 237.614 0.937 -48.963
v 241.424 0.959 -53.553
f 225 226 227 228
v 234.007 1.034 -52.409
v 226.777 1.026 -45.829
v 230.143 0.939 -42.131
v 237.373 0.939 -48.711
f 229 230 231 232
v 228.329 1.017 -46.477
v 221.259 1.084 -46.107
v 221.521 1.043 -41.113
v 228.591 0.938 -41.483
f 233 234 235 236
v 222.829 1.067 -45.654
v 212.009 1.160 -53.274
v 209.131 1.145 -49.186
v 219.951 1.050 -41.566
f 237 238 239 240
v 212.359 1.158 -52.976
v 198.719 1.169 -66.956
v 195.141 1.108 -63.464
v 208.781 1.146 -49.484
f 241 242 243 244
v 198.326 1.170 -67.284
v 132.626 1.227 -111.504
v 129.834 1.237 -107.356
v 195.534 1.111 -63.136
f 245 246 247 248
v 132.620 1.227 -111.508
v 130.930 1.236 -112.638
v 128.150 1.259 -108.482
v 129.840 1.237 -107.352
f 249 250 251 252
v 130.625 1.240 -112.812
v 118.435 1.268 -118.682
v 116.265 1.327 -114.178
v 128.455 1.254 -108.308
f 253 254 255 256
v 116.552 1.264 -118.799
v 113.582 1.283 -117.799
v 115.178 1.357 -113.061
v 118.148 1.331 -114.061
f 257 258 259 260
v 113.584 1.283 -117.800
v 108.254 1.238 -116.010
v 109.846 1.333 -111.270
v 115.176 1.357 -113.060
f 261 262 263 264
v 107.033 1.225 -115.117
v 101.423 1.191 -107.457
v 105.457 1.277 -104.503
v 111.067 1.335 -112.163
f 265 266 267 268
v 101.355 1.190 -107.359
v 85.335 1.034 -83.139
v 89.505 1.127 -80.381
v 105.525 1.279 -104.601
f 269 270 271 272
v 88.595 1.071 -83.966
v 75.625 1.137 -90.876
v 73.275 1.098 -86.464
v 86.245 1.038 -79.554
f 273 274 275 276
v 75.624 1.137 -90.877
v 69.644 1.183 -94.057
v 67.296 1.155 -89.643
v 73.276 1.098 -86.463
f 277 278 279 280
v 70.011 1.181 -93.819
v 49.551 1.277 -109.829
v 46.469 1.185 -105.891
v 66.929 1.166 -89.881
f 281 282 283 284
v 49.468 1.278 -109.891
v 25.058 0.884 -127.411
v 22.142 0.919 -123.349
v 46.552 1.185 -105.829
f 285 286 287 288
v 25.499 0.856 -127.006
v 21.159 0.907 -132.076
v 17.361 0.863 -128.824
v 21.701 0.911 -123.754
f 289 290 291 292
v 21.158 0.907 -132.077
v -6.782 0.779 -164.667
v -10.578 0.756 -161.413
v 17.362 0.863 -128.823
f 293 294 295 296
v -6.598 0.784 -164.423
v -13.108 0.706 -174.223
v -17.272 0.646 -171.457
v -10.762 0.753 -161.657
f 297 298 299 300
v -12.793 0.704 -173.549
v -15.193 0.672 -181.669
v -19.987 0.607 -180.251
v -17.587 0.644 -172.131
f 301 302 303 304
v -15.237 0.660 -180.115
v -12.627 0.810 -187.385
v -17.333 0.728 -189.075
v -19.943 0.619 -181.805
f 305 306 307 308
v -12.738 0.806 -187.124
v -8.748 0.834 -195.214
v -13.232 0.780 -197.426
v -17.222 0.734 -189.336
f 309 310 311 312
v -9.213 0.840 -194.561
v 0.617 0.769 -204.491
v -2.937 0.738 -208.009
v -12.767 0.783 -198.079
f 313 314 315 316
v 252.769 0.882 168.246
v 229.159 0.966 224.996
v 235.621 0.811 227.684
v 259.231 0.813 170.935
f 317 318 319 320
v 229.156 0.966 225.001
v 225.996 0.995 232.631
v 232.464 0.868 235.309
v 235.624 0.811 227.679
f 321 322 323 324
v 225.896 0.997 232.906
v 219.236 1.093 253.786
v 225.904 1.007 255.914
v 232.564 0.862 235.034
f 325 326 327 328
v 81.180 0.909 114.842
v 41.740 0.823 88.472
v 38.960 0.521 92.628
v 78.400 0.756 118.998
f 329 330 331 332
v 42.474 0.833 89.232
v 31.984 0.761 72.332
v 27.736 0.688 74.968
v 38.226 0.548 91.868
f 333 334 335 336
v 32.297 0.762 73.094
v 19.907 0.725 18.734
v 15.033 0.663 19.846
v 27.423 0.686 74.206
f 337 338 339 340
v 19.906 0.725 18.728
v 11.736 0.746 -16.702
v 6.864 0.661 -15.578
v 15.034 0.663 19.852
f 341 342 343 344
v 11.605 0.752 -15.173
v 16.265 0.820 -26.283
v 11.655 0.662 -28.217
v 6.995 0.668 -17.107
f 345 346 347 348
v 15.736 0.816 -25.490
v 22.156 0.801 -31.970
v 18.604 0.741 -35.490
v 12.184 0.667 -29.010
f 349 350 351 352
v 21.037 0.801 -31.318
v 41.207 0.999 -36.808
v 39.893 0.888 -41.632
v 19.723 0.727 -36.142
f 353 354 355 356
v 42.703 1.039 -37.949
v 52.713 0.944 -54.909
v 48.407 0.899 -57.451
v 38.397 0.873 -40.491
f 357 358 359 360
v 52.574 0.947 -54.699
v 76.464 1.086 -87.189
v 72.436 1.129 -90.151
v 48.546 0.902 -57.661
f 361 362 363 364
v 85.966 1.041 -82.734
v 40.436 1.103 -14.804
v 43.344 1.126 -12.856
v 88.874 1.092 -80.786
f 365 366 367 368
v 40.154 1.105 -14.054
v 39.114 1.043 -6.004
v 42.586 1.082 -5.556
v 43.626 1.127 -13.606
f 369 370 371 372
v 39.321 1.029 -4.929
v 43.261 0.977 2.151
v 46.319 1.001 0.449
v 42.379 1.097 -6.631
f 373 374 375 376
v 44.554 0.961 3.034
v 52.134 1.073 4.064
v 52.606 1.107 0.596
v 45.026 0.997 -0.434
f 377 378 379 380
v 53.129 1.085 3.907
v 61.919 1.238 -0.323
v 60.401 1.161 -3.477
v 51.611 1.090 0.753
f 381 382 383 384
v 62.626 1.261 -0.945
v 132.696 1.193 -108.475
v 129.764 1.234 -110.385
v 59.694 1.148 -2.855
f 385 386 387 388
v 114.511 1.253 -137.033
v 79.101 1.238 -175.063
v 76.539 1.163 -172.677
v 111.949 1.279 -134.647
f 389 390 391 392
v 112.293 1.281 -134.362
v 136.283 1.263 -119.142
v 138.157 1.231 -122.098
v 114.167 1.252 -137.318
f 393 394 395 396
v 136.277 1.263 -119.146
v 238.557 0.952 -53.676
v 240.443 0.973 -56.624
v 138.163 1.231 -122.094
f 397 398 399 400
v 132.772 1.192 -108.603
v 135.072 1.300 -112.893
v 131.988 1.251 -114.547
v 129.688 1.235 -110.257
f 401 402 403 404
v 135.073 1.300 -112.895
v 138.763 1.258 -119.795
v 135.677 1.259 -121.445
v 131.987 1.251 -114.545
f 405 406 407 408
v 138.686 1.260 -119.665
v 153.356 1.223 -142.175
v 150.424 1.245 -144.085
v 135.754 1.257 -121.575
f 409 410 411 412
v 152.949 1.246 -144.523
v 139.289 1.334 -154.913
v 137.171 1.309 -152.127
v 150.831 1.191 -141.737
f 413 414 415 416
v 61.355 1.203 -156.082
v 79.015 1.209 -172.592
v 76.625 1.205 -175.148
v 58.965 1.159 -158.638
f 417 418 419 420
v 79.063 1.211 -172.638
v 102.163 1.444 -195.938
v 99.677 1.468 -198.402
v 76.577 1.203 -175.102
f 421 422 423 424
v 102.148 1.259 -198.417
v 83.278 0.834 -217.007
v 80.822 1.236 -214.513
v 99.692 1.515 -195.923
f 425 426 427 428
v 80.844 1.101 -217.028
v 38.674 1.054 -176.898
v 41.086 1.147 -174.362
v 83.256 1.089 -214.492
f 429 430 431 432
v 46.536 1.190 -108.804
v 39.486 0.991 -97.794
v 42.434 1.037 -95.906
v 49.484 1.200 -106.916
f 433 434 435 436
v 39.257 0.979 -96.448
v 48.857 0.900 -55.778
v 52.263 0.931 -56.582
v 42.663 1.047 -97.252
f 437 438 439 440
v 17.945 0.887 -131.605
v 9.975 0.823 -122.535
v 12.605 0.836 -120.225
v 20.575 0.882 -129.295
f 441 442 443 444
v 9.757 0.823 -122.225
v 7.877 0.812 -118.815
v 10.943 0.855 -117.125
v 12.823 0.834 -120.535
f 445 446 447 448
v 7.706 0.816 -117.573
v 12.466 0.925 -97.163
v 15.874 0.940 -97.957
v 11.114 0.849 -118.367
f 449 450 451 452
usemtl asphalt
