# Baked ultra-low Key West silhouette; generated by bake_key_west_far_city.py
mtllib far_city.mtl
usemtl massing
v 107.639 0.805 129.412
v 129.479 0.805 81.868
v 152.861 0.805 92.608
v 131.021 0.805 140.152
v 107.639 6.605 129.412
v 129.479 6.605 81.868
v 152.861 6.605 92.608
v 131.021 6.605 140.152
f 8 7 6 5
f 1 2 6 5
f 2 3 7 6
f 3 4 8 7
f 4 1 5 8
v 102.821 1.026 87.126
v 110.354 1.026 74.876
v 115.099 1.026 77.794
v 107.566 1.026 90.044
v 102.821 4.926 87.126
v 110.354 4.926 74.876
v 115.099 4.926 77.794
v 107.566 4.926 90.044
f 16 15 14 13
f 9 10 14 13
f 10 11 15 14
f 11 12 16 15
f 12 9 13 16
v 133.227 0.881 161.654
v 173.389 0.881 123.829
v 192.373 0.881 143.986
v 152.211 0.881 181.811
v 133.227 6.681 161.654
v 173.389 6.681 123.829
v 192.373 6.681 143.986
v 152.211 6.681 181.811
f 24 23 22 21
f 17 18 22 21
f 18 19 23 22
f 19 20 24 23
f 20 17 21 24
v 178.146 0.998 173.483
v 191.042 0.998 167.144
v 198.214 0.998 181.737
v 185.318 0.998 188.076
v 178.146 4.898 173.483
v 191.042 4.898 167.144
v 198.214 4.898 181.737
v 185.318 4.898 188.076
f 32 31 30 29
f 25 26 30 29
f 26 27 31 30
f 27 28 32 31
f 28 25 29 32
v 176.118 1.119 218.922
v 214.205 1.119 179.355
v 232.202 1.119 196.678
v 194.115 1.119 236.245
v 176.118 6.919 218.922
v 214.205 6.919 179.355
v 232.202 6.919 196.678
v 194.115 6.919 236.245
f 40 39 38 37
f 33 34 38 37
f 34 35 39 38
f 35 36 40 39
f 36 33 37 40
v 219.701 0.872 267.092
v 245.864 0.872 227.136
v 260.939 0.872 237.008
v 234.776 0.872 276.964
v 219.701 6.672 267.092
v 245.864 6.672 227.136
v 260.939 6.672 237.008
v 234.776 6.672 276.964
f 48 47 46 45
f 41 42 46 45
f 42 43 47 46
f 43 44 48 47
f 44 41 45 48
usemtl road
v 136.851 1.086 95.888
v 253.791 1.191 253.550
v 258.209 0.924 250.273
v 141.269 1.095 92.612
f 49 50 51 52
v 253.789 4.144 62.908
v 243.399 4.106 68.958
v 245.161 3.612 71.982
v 255.551 3.711 65.932
f 53 54 55 56
v 242.675 4.088 69.772
v 237.455 4.016 81.772
v 240.665 3.343 83.168
v 245.885 3.644 71.168
f 57 58 59 60
v 237.321 4.021 82.663
v 238.711 4.114 95.173
v 242.189 3.639 94.787
v 240.799 3.353 82.277
f 61 62 63 64
v 239.027 4.124 95.999
v 247.557 4.151 107.909
v 250.403 3.807 105.871
v 241.873 3.619 93.961
f 65 66 67 68
usemtl asphalt
