# Baked ultra-low Key West silhouette; generated by bake_key_west_far_city.py
mtllib far_city.mtl
usemtl massing
v 178.313 0.935 212.358
v 220.751 0.935 188.023
v 234.007 0.935 211.142
v 191.569 0.935 235.477
v 178.313 6.735 212.358
v 220.751 6.735 188.023
v 234.007 6.735 211.142
v 191.569 6.735 235.477
f 8 7 6 5
f 1 2 6 5
f 2 3 7 6
f 3 4 8 7
f 4 1 5 8
v -192.950 0.874 -202.804
v -180.748 0.874 -223.250
v -162.930 0.874 -212.616
v -175.132 0.874 -192.170
v -192.950 4.774 -202.804
v -180.748 4.774 -223.250
v -162.930 4.774 -212.616
v -175.132 4.774 -192.170
f 16 15 14 13
f 9 10 14 13
f 10 11 15 14
f 11 12 16 15
f 12 9 13 16
v -207.172 0.174 -124.591
v -186.801 0.174 -138.488
v -172.668 0.174 -117.769
v -193.039 0.174 -103.872
v -207.172 4.074 -124.591
v -186.801 4.074 -138.488
v -172.668 4.074 -117.769
v -193.039 4.074 -103.872
f 24 23 22 21
f 17 18 22 21
f 18 19 23 22
f 19 20 24 23
f 20 17 21 24
v 161.744 0.684 117.805
v 239.559 0.684 145.302
v 233.456 0.684 162.575
v 155.641 0.684 135.078
v 161.744 8.984 117.805
v 239.559 8.984 145.302
v 233.456 8.984 162.575
v 155.641 8.984 135.078
f 32 31 30 29
f 25 26 30 29
f 26 27 31 30
f 27 28 32 31
f 28 25 29 32
v 169.184 0.724 193.668
v 174.969 0.724 169.275
v 195.616 0.724 174.172
v 189.831 0.724 198.565
v 169.184 6.524 193.668
v 174.969 6.524 169.275
v 195.616 6.524 174.172
v 189.831 6.524 198.565
f 40 39 38 37
f 33 34 38 37
f 34 35 39 38
f 35 36 40 39
f 36 33 37 40
v 235.784 0.799 199.866
v 263.525 0.799 209.235
v 260.296 0.799 218.794
v 232.555 0.799 209.425
v 235.784 4.699 199.866
v 263.525 4.699 209.235
v 260.296 4.699 218.794
v 232.555 4.699 209.425
f 48 47 46 45
f 41 42 46 45
f 42 43 47 46
f 43 44 48 47
f 44 41 45 48
v -113.293 0.614 248.520
v -80.869 0.614 152.644
v -55.747 0.614 161.140
v -88.171 0.614 257.016
v -113.293 8.914 248.520
v -80.869 8.914 152.644
v -55.747 8.914 161.140
v -88.171 8.914 257.016
f 56 55 54 53
f 49 50 54 53
f 50 51 55 54
f 51 52 56 55
f 52 49 53 56
v -42.142 0.800 174.972
v -35.700 0.800 176.742
v -37.438 0.800 183.068
v -43.880 0.800 181.298
v -42.142 4.700 174.972
v -35.700 4.700 176.742
v -37.438 4.700 183.068
v -43.880 4.700 181.298
f 64 63 62 61
f 57 58 62 61
f 58 59 63 62
f 59 60 64 63
f 60 57 61 64
v -155.296 0.472 100.184
v -25.901 0.472 98.172
v -25.124 0.472 148.156
v -154.519 0.472 150.168
v -155.296 8.772 100.184
v -25.901 8.772 98.172
v -25.124 8.772 148.156
v -154.519 8.772 150.168
f 72 71 70 69
f 65 66 70 69
f 66 67 71 70
f 67 68 72 71
f 68 65 69 72
v 130.615 0.948 -224.870
v 142.734 0.948 -245.875
v 161.045 0.948 -235.310
v 148.926 0.948 -214.305
v 130.615 4.848 -224.870
v 142.734 4.848 -245.875
v 161.045 4.848 -235.310
v 148.926 4.848 -214.305
f 80 79 78 77
f 73 74 78 77
f 74 75 79 78
f 75 76 80 79
f 76 73 77 80
v 122.781 -0.300 -208.999
v 125.152 -0.300 -214.315
v 130.339 -0.300 -212.001
v 127.968 -0.300 -206.685
v 122.781 3.600 -208.999
v 125.152 3.600 -214.315
v 130.339 3.600 -212.001
v 127.968 3.600 -206.685
f 88 87 86 85
f 81 82 86 85
f 82 83 87 86
f 83 84 88 87
f 84 81 85 88
v 109.127 0.972 -233.050
v 137.060 0.972 -226.863
v 133.433 0.972 -210.490
v 105.500 0.972 -216.677
v 109.127 4.872 -233.050
v 137.060 4.872 -226.863
v 133.433 4.872 -210.490
v 105.500 4.872 -216.677
f 96 95 94 93
f 89 90 94 93
f 90 91 95 94
f 91 92 96 95
f 92 89 93 96
v 93.455 0.721 -209.432
v 105.052 0.721 -213.650
v 109.525 0.721 -201.348
v 97.928 0.721 -197.130
v 93.455 4.621 -209.432
v 105.052 4.621 -213.650
v 109.525 4.621 -201.348
v 97.928 4.621 -197.130
f 104 103 102 101
f 97 98 102 101
f 98 99 103 102
f 99 100 104 103
f 100 97 101 104
v 92.681 0.745 -211.004
v 93.435 0.745 -194.261
v 79.559 0.745 -193.636
v 78.805 0.745 -210.379
v 92.681 4.645 -211.004
v 93.435 4.645 -194.261
v 79.559 4.645 -193.636
v 78.805 4.645 -210.379
f 112 111 110 109
f 105 106 110 109
f 106 107 111 110
f 107 108 112 111
f 108 105 109 112
v 98.659 0.883 -240.222
v 103.128 0.883 -252.472
v 110.841 0.883 -249.658
v 106.372 0.883 -237.408
v 98.659 4.783 -240.222
v 103.128 4.783 -252.472
v 110.841 4.783 -249.658
v 106.372 4.783 -237.408
f 120 119 118 117
f 113 114 118 117
f 114 115 119 118
f 115 116 120 119
f 116 113 117 120
v 105.142 1.159 -260.308
v 127.968 1.159 -269.099
v 135.458 1.159 -249.652
v 112.632 1.159 -240.861
v 105.142 5.059 -260.308
v 127.968 5.059 -269.099
v 135.458 5.059 -249.652
v 112.632 5.059 -240.861
f 128 127 126 125
f 121 122 126 125
f 122 123 127 126
f 123 124 128 127
f 124 121 125 128
v 99.102 0.897 -253.217
v 100.338 0.897 -237.857
v 87.978 0.897 -236.863
v 86.742 0.897 -252.223
v 99.102 4.797 -253.217
v 100.338 4.797 -237.857
v 87.978 4.797 -236.863
v 86.742 4.797 -252.223
f 136 135 134 133
f 129 130 134 133
f 130 131 135 134
f 131 132 136 135
f 132 129 133 136
v 7.340 1.291 190.614
v 98.474 1.291 134.794
v 140.500 1.291 203.406
v 49.366 1.291 259.226
v 7.340 9.591 190.614
v 98.474 9.591 134.794
v 140.500 9.591 203.406
v 49.366 9.591 259.226
f 144 143 142 141
f 137 138 142 141
f 138 139 143 142
f 139 140 144 143
f 140 137 141 144
v 86.957 1.059 208.503
v 91.361 1.059 216.500
v 84.503 1.059 220.277
v 80.099 1.059 212.280
v 86.957 4.959 208.503
v 91.361 4.959 216.500
v 84.503 4.959 220.277
v 80.099 4.959 212.280
f 152 151 150 149
f 145 146 150 149
f 146 147 151 150
f 147 148 152 151
f 148 145 149 152
v 61.640 0.594 254.259
v 64.566 0.594 253.120
v 65.680 0.594 255.981
v 62.754 0.594 257.120
v 61.640 4.494 254.259
v 64.566 4.494 253.120
v 65.680 4.494 255.981
v 62.754 4.494 257.120
f 160 159 158 157
f 153 154 158 157
f 154 155 159 158
f 155 156 160 159
f 156 153 157 160
v 50.130 0.554 252.229
v 53.056 0.554 251.090
v 54.170 0.554 253.951
v 51.244 0.554 255.090
v 50.130 4.454 252.229
v 53.056 4.454 251.090
v 54.170 4.454 253.951
v 51.244 4.454 255.090
f 168 167 166 165
f 161 162 166 165
f 162 163 167 166
f 163 164 168 167
f 164 161 165 168
v 48.556 0.544 248.011
v 51.696 0.544 246.995
v 52.684 0.544 250.049
v 49.544 0.544 251.065
v 48.556 4.444 248.011
v 51.696 4.444 246.995
v 52.684 4.444 250.049
v 49.544 4.444 251.065
f 176 175 174 173
f 169 170 174 173
f 170 171 175 174
f 171 172 176 175
f 172 169 173 176
v 47.115 0.539 243.736
v 50.122 0.539 242.642
v 51.185 0.539 245.564
v 48.178 0.539 246.658
v 47.115 4.439 243.736
v 50.122 4.439 242.642
v 51.185 4.439 245.564
v 48.178 4.439 246.658
f 184 183 182 181
f 177 178 182 181
f 178 179 183 182
f 179 180 184 183
f 180 177 181 184
v 49.323 0.458 224.997
v 54.527 0.458 234.197
v 46.137 0.458 238.943
v 40.933 0.458 229.743
v 49.323 4.358 224.997
v 54.527 4.358 234.197
v 46.137 4.358 238.943
v 40.933 4.358 229.743
f 192 191 190 189
f 185 186 190 189
f 186 187 191 190
f 187 188 192 191
f 188 185 189 192
v -211.928 1.303 -136.177
v -203.349 1.303 -141.949
v -198.192 1.303 -134.283
v -206.771 1.303 -128.511
v -211.928 5.203 -136.177
v -203.349 5.203 -141.949
v -198.192 5.203 -134.283
v -206.771 5.203 -128.511
f 200 199 198 197
f 193 194 198 197
f 194 195 199 198
f 195 196 200 199
f 196 193 197 200
v -25.069 1.800 -200.292
v 10.441 1.800 -189.173
v 2.429 1.800 -163.588
v -33.081 1.800 -174.707
v -25.069 7.600 -200.292
v 10.441 7.600 -189.173
v 2.429 7.600 -163.588
v -33.081 7.600 -174.707
f 208 207 206 205
f 201 202 206 205
f 202 203 207 206
f 203 204 208 207
f 204 201 205 208
v -46.053 0.850 -194.381
v -37.896 0.850 -191.889
v -40.307 0.850 -183.999
v -48.464 0.850 -186.491
v -46.053 4.750 -194.381
v -37.896 4.750 -191.889
v -40.307 4.750 -183.999
v -48.464 4.750 -186.491
f 216 215 214 213
f 209 210 214 213
f 210 211 215 214
f 211 212 216 215
f 212 209 213 216
v -70.013 0.785 -191.306
v -63.239 0.785 -189.622
v -64.887 0.785 -182.994
v -71.661 0.785 -184.678
v -70.013 4.685 -191.306
v -63.239 4.685 -189.622
v -64.887 4.685 -182.994
v -71.661 4.685 -184.678
f 224 223 222 221
f 217 218 222 221
f 218 219 223 222
f 219 220 224 223
f 220 217 221 224
v -94.381 1.635 -145.243
v -87.163 1.635 -176.367
v -67.719 1.635 -171.857
v -74.937 1.635 -140.733
v -94.381 7.435 -145.243
v -87.163 7.435 -176.367
v -67.719 7.435 -171.857
v -74.937 7.435 -140.733
f 232 231 230 229
f 225 226 230 229
f 226 227 231 230
f 227 228 232 231
f 228 225 229 232
v -94.535 2.143 -169.131
v -87.440 2.143 -134.398
v -115.285 2.143 -128.709
v -122.380 2.143 -163.442
v -94.535 7.943 -169.131
v -87.440 7.943 -134.398
v -115.285 7.943 -128.709
v -122.380 7.943 -163.442
f 240 239 238 237
f 233 234 238 237
f 234 235 239 238
f 235 236 240 239
f 236 233 237 240
v -151.555 1.589 -161.190
v -125.981 1.589 -160.644
v -126.565 1.589 -133.250
v -152.139 1.589 -133.796
v -151.555 7.389 -161.190
v -125.981 7.389 -160.644
v -126.565 7.389 -133.250
v -152.139 7.389 -133.796
f 248 247 246 245
f 241 242 246 245
f 242 243 247 246
f 243 244 248 247
f 244 241 245 248
v -184.830 1.306 -122.576
v -178.179 1.306 -154.317
v -147.290 1.306 -147.844
v -153.941 1.306 -116.103
v -184.830 7.106 -122.576
v -178.179 7.106 -154.317
v -147.290 7.106 -147.844
v -153.941 7.106 -116.103
f 256 255 254 253
f 249 250 254 253
f 250 251 255 254
f 251 252 256 255
f 252 249 253 256
v -228.192 0.777 -121.893
v -205.289 0.777 -110.477
v -213.828 0.777 -93.347
v -236.731 0.777 -104.763
v -228.192 4.677 -121.893
v -205.289 4.677 -110.477
v -213.828 4.677 -93.347
v -236.731 4.677 -104.763
f 264 263 262 261
f 257 258 262 261
f 258 259 263 262
f 259 260 264 263
f 260 257 261 264
v -243.784 0.699 -96.966
v -237.766 0.699 -106.459
v -229.776 0.699 -101.394
v -235.794 0.699 -91.901
v -243.784 4.599 -96.966
v -237.766 4.599 -106.459
v -229.776 4.599 -101.394
v -235.794 4.599 -91.901
f 272 271 270 269
f 265 266 270 269
f 266 267 271 270
f 267 268 272 271
f 268 265 269 272
v -251.640 0.638 -96.733
v -237.269 0.638 -92.400
v -240.500 0.638 -81.687
v -254.871 0.638 -86.020
v -251.640 4.538 -96.733
v -237.269 4.538 -92.400
v -240.500 4.538 -81.687
v -254.871 4.538 -86.020
f 280 279 278 277
f 273 274 278 277
f 274 275 279 278
f 275 276 280 279
f 276 273 277 280
v -266.729 0.746 -107.152
v -240.506 0.746 -108.885
v -239.511 0.746 -93.828
v -265.734 0.746 -92.095
v -266.729 4.646 -107.152
v -240.506 4.646 -108.885
v -239.511 4.646 -93.828
v -265.734 4.646 -92.095
f 288 287 286 285
f 281 282 286 285
f 282 283 287 286
f 283 284 288 287
f 284 281 285 288
v -263.080 0.842 -136.057
v -243.934 0.842 -145.043
v -236.940 0.842 -130.143
v -256.086 0.842 -121.157
v -263.080 4.742 -136.057
v -243.934 4.742 -145.043
v -236.940 4.742 -130.143
v -256.086 4.742 -121.157
f 296 295 294 293
f 289 290 294 293
f 290 291 295 294
f 291 292 296 295
f 292 289 293 296
v -202.277 1.062 -180.117
v -186.784 1.062 -156.590
v -204.623 1.062 -144.843
v -220.116 1.062 -168.370
v -202.277 4.962 -180.117
v -186.784 4.962 -156.590
v -204.623 4.962 -144.843
v -220.116 4.962 -168.370
f 304 303 302 301
f 297 298 302 301
f 298 299 303 302
f 299 300 304 303
f 300 297 301 304
v -174.243 0.981 -219.324
v -153.506 0.981 -229.320
v -146.697 0.981 -215.196
v -167.434 0.981 -205.200
v -174.243 4.881 -219.324
v -153.506 4.881 -229.320
v -146.697 4.881 -215.196
v -167.434 4.881 -205.200
f 312 311 310 309
f 305 306 310 309
f 306 307 311 310
f 307 308 312 311
f 308 305 309 312
v -259.415 0.970 -161.458
v -240.879 0.970 -155.244
v -245.465 0.970 -141.562
v -264.001 0.970 -147.776
v -259.415 4.870 -161.458
v -240.879 4.870 -155.244
v -245.465 4.870 -141.562
v -264.001 4.870 -147.776
f 320 319 318 317
f 313 314 318 317
f 314 315 319 318
f 315 316 320 319
f 316 313 317 320
v -228.410 0.850 -213.501
v -210.240 0.850 -203.440
v -216.930 0.850 -191.359
v -235.100 0.850 -201.420
v -228.410 4.750 -213.501
v -210.240 4.750 -203.440
v -216.930 4.750 -191.359
v -235.100 4.750 -201.420
f 328 327 326 325
f 321 322 326 325
f 322 323 327 326
f 323 324 328 327
f 324 321 325 328
v -211.747 0.724 -196.712
v -203.908 0.724 -213.513
v -185.593 0.724 -204.968
v -193.432 0.724 -188.167
v -211.747 4.624 -196.712
v -203.908 4.624 -213.513
v -185.593 4.624 -204.968
v -193.432 4.624 -188.167
f 336 335 334 333
f 329 330 334 333
f 330 331 335 334
f 331 332 336 335
f 332 329 333 336
v -207.585 1.257 -190.146
v -206.870 1.257 -173.281
v -223.535 1.257 -172.574
v -224.250 1.257 -189.439
v -207.585 5.157 -190.146
v -206.870 5.157 -173.281
v -223.535 5.157 -172.574
v -224.250 5.157 -189.439
f 344 343 342 341
f 337 338 342 341
f 338 339 343 342
f 339 340 344 343
f 340 337 341 344
v -154.974 1.268 -227.410
v -136.007 1.268 -239.061
v -121.466 1.268 -215.390
v -140.433 1.268 -203.739
v -154.974 5.168 -227.410
v -136.007 5.168 -239.061
v -121.466 5.168 -215.390
v -140.433 5.168 -203.739
f 352 351 350 349
f 345 346 350 349
f 346 347 351 350
f 347 348 352 351
f 348 345 349 352
v -71.638 0.681 -244.457
v -64.035 0.681 -270.823
v -44.962 0.681 -265.323
v -52.565 0.681 -238.957
v -71.638 4.581 -244.457
v -64.035 4.581 -270.823
v -44.962 4.581 -265.323
v -52.565 4.581 -238.957
f 360 359 358 357
f 353 354 358 357
f 354 355 359 358
f 355 356 360 359
f 356 353 357 360
v -130.007 0.693 -219.171
v -129.367 0.693 -246.154
v -108.113 0.693 -245.649
v -108.753 0.693 -218.666
v -130.007 4.593 -219.171
v -129.367 4.593 -246.154
v -108.113 4.593 -245.649
v -108.753 4.593 -218.666
f 368 367 366 365
f 361 362 366 365
f 362 363 367 366
f 363 364 368 367
f 364 361 365 368
v -117.459 0.637 -239.149
v -98.927 0.637 -260.735
v -81.241 0.637 -245.551
v -99.773 0.637 -223.965
v -117.459 4.537 -239.149
v -98.927 4.537 -260.735
v -81.241 4.537 -245.551
v -99.773 4.537 -223.965
f 376 375 374 373
f 369 370 374 373
f 370 371 375 374
f 371 372 376 375
f 372 369 373 376
v -93.284 0.917 -239.360
v -82.031 0.917 -261.493
v -62.456 0.917 -251.540
v -73.709 0.917 -229.407
v -93.284 4.817 -239.360
v -82.031 4.817 -261.493
v -62.456 4.817 -251.540
v -73.709 4.817 -229.407
f 384 383 382 381
f 377 378 382 381
f 378 379 383 382
f 379 380 384 383
f 380 377 381 384
v -254.449 0.667 -257.888
v -237.273 0.667 -262.483
v -233.091 0.667 -246.852
v -250.267 0.667 -242.257
v -254.449 4.567 -257.888
v -237.273 4.567 -262.483
v -233.091 4.567 -246.852
v -250.267 4.567 -242.257
f 392 391 390 389
f 385 386 390 389
f 386 387 391 390
f 387 388 392 391
f 388 385 389 392
v -12.267 0.285 234.914
v -9.117 0.285 231.187
v -5.733 0.285 234.046
v -8.883 0.285 237.773
v -12.267 4.185 234.914
v -9.117 4.185 231.187
v -5.733 4.185 234.046
v -8.883 4.185 237.773
f 400 399 398 397
f 393 394 398 397
f 394 395 399 398
f 395 396 400 399
f 396 393 397 400
usemtl road
v -219.654 0.937 -124.792
v -218.194 0.924 -128.372
v -223.286 1.055 -130.448
v -224.746 1.026 -126.868
f 401 402 403 404
v -218.058 0.925 -130.017
v -220.758 1.008 -141.957
v -226.122 1.110 -140.743
v -223.422 1.035 -128.803
f 405 406 407 408
v -220.844 1.009 -142.258
v -243.944 0.832 -208.268
v -249.136 0.821 -206.452
v -226.036 1.108 -140.442
f 409 410 411 412
v -243.902 0.836 -208.137
v -245.722 0.822 -214.317
v -250.998 0.851 -212.763
v -249.178 0.819 -206.583
f 413 414 415 416
v -245.771 0.827 -214.466
v -250.061 0.951 -226.466
v -255.239 0.969 -224.614
v -250.949 0.847 -212.614
f 417 418 419 420
v -250.051 0.951 -226.440
v -251.821 0.856 -231.550
v -257.019 0.878 -229.750
v -255.249 0.968 -224.640
f 421 422 423 424
v -251.818 0.856 -231.541
v -253.068 0.814 -235.191
v -258.272 0.850 -233.409
v -257.022 0.878 -229.759
f 425 426 427 428
v -165.542 0.691 -259.782
v -253.953 0.896 -229.322
v -251.347 1.008 -221.758
v -162.936 0.927 -252.218
f 429 430 431 432
v -224.099 1.034 -128.152
v -228.439 1.003 -124.602
v -224.641 0.960 -119.958
v -220.301 0.925 -123.508
f 433 434 435 436
v -222.570 1.069 -138.741
v -128.580 0.960 -170.071
v -130.320 0.878 -175.289
v -224.310 1.086 -143.959
f 437 438 439 440
v -128.623 0.960 -170.057
v -101.373 0.968 -178.647
v -103.027 0.949 -183.893
v -130.277 0.876 -175.303
f 441 442 443 444
v -101.374 0.968 -178.647
v -43.464 1.196 -196.887
v -45.116 1.017 -202.133
v -103.026 0.949 -183.893
f 445 446 447 448
v 165.141 3.486 -241.075
v 184.971 3.136 -182.875
v 196.329 3.116 -186.745
v 176.499 2.903 -244.945
f 449 450 451 452
v 255.188 0.853 220.351
v 238.398 0.835 226.115
v 240.022 0.887 230.845
v 256.812 0.977 225.080
f 453 454 455 456
v 238.395 0.835 226.117
v 231.555 0.898 228.477
v 233.185 0.929 233.203
v 240.025 0.887 230.843
f 457 458 459 460
v 231.559 0.898 228.475
v 223.429 0.925 231.265
v 225.051 0.877 235.995
v 233.181 0.929 233.205
f 461 462 463 464
v 223.434 0.926 231.263
v 206.434 0.731 237.053
v 208.046 0.916 241.787
v 225.046 0.877 235.997
f 465 466 467 468
v 206.408 0.731 237.062
v 201.958 0.789 238.632
v 203.622 0.927 243.348
v 208.072 0.915 241.778
f 469 470 471 472
v 201.572 0.799 238.807
v 197.002 0.924 241.357
v 199.438 0.954 245.723
v 204.008 0.919 243.173
f 473 474 475 476
v 197.783 0.915 241.079
v 193.673 0.999 241.809
v 194.547 1.034 246.731
v 198.657 0.953 246.001
f 477 478 479 480
v 195.481 0.953 242.180
v 192.951 1.022 240.520
v 190.209 1.109 244.700
v 192.739 1.078 246.360
f 481 482 483 484
v 192.277 1.034 240.209
v 189.347 1.057 239.359
v 187.953 1.154 244.161
v 190.883 1.088 245.011
f 485 486 487 488
v 188.601 1.058 239.260
v 185.561 1.051 239.320
v 185.659 1.167 244.320
v 188.699 1.143 244.260
f 489 490 491 492
v 184.829 1.050 239.445
v 181.939 1.054 240.395
v 183.501 1.152 245.145
v 186.391 1.169 244.195
f 493 494 495 496
v 181.213 1.054 240.775
v 178.433 1.062 242.875
v 181.447 1.150 246.865
v 184.227 1.154 244.765
f 497 498 499 500
v 177.850 1.063 243.498
v 175.940 1.063 246.408
v 180.120 1.143 249.152
v 182.030 1.169 246.242
f 501 502 503 504
v 175.596 1.060 247.211
v 174.806 1.036 250.591
v 179.674 1.145 251.729
v 180.464 1.138 248.349
f 505 506 507 508
v 174.757 1.035 251.455
v 175.167 1.060 254.905
v 180.133 1.127 254.315
v 179.723 1.157 250.865
f 509 510 511 512
v 236.851 0.874 238.768
v 234.031 0.893 230.288
v 230.709 0.899 231.392
v 233.529 0.900 239.872
f 513 514 515 516
v 234.014 0.893 230.239
v 232.354 0.874 225.699
v 229.066 0.894 226.901
v 230.726 0.899 231.441
f 517 518 519 520
v 232.374 0.874 225.759
v 225.404 0.925 204.339
v 222.076 0.946 205.421
v 229.046 0.895 226.841
f 521 522 523 524
v 225.143 0.923 203.835
v 220.823 0.972 198.035
v 218.017 1.012 200.125
v 222.337 0.948 205.925
f 525 526 527 528
v 220.379 0.978 197.616
v 212.049 0.977 192.156
v 210.131 1.013 195.084
v 218.461 1.006 200.544
f 529 530 531 532
v 211.983 0.976 192.115
v 207.903 0.922 189.695
v 206.117 0.923 192.705
v 210.197 1.015 195.125
f 533 534 535 536
v 207.902 0.922 189.694
v 205.842 0.893 188.474
v 204.058 0.878 191.486
v 206.118 0.923 192.706
f 537 538 539 540
v 206.243 0.892 188.800
v 202.273 0.882 184.450
v 199.687 0.854 186.810
v 203.657 0.862 191.160
f 541 542 543 544
v 202.642 0.885 185.083
v 196.572 0.907 166.633
v 193.248 0.867 167.727
v 199.318 0.860 186.177
f 545 546 547 548
v 196.660 0.907 167.206
v 196.690 0.910 165.216
v 193.190 0.829 165.164
v 193.160 0.858 167.154
f 549 550 551 552
v 196.690 0.910 165.181
v 196.680 0.880 163.211
v 193.180 0.811 163.229
v 193.190 0.829 165.199
f 553 554 555 556
v 196.155 0.882 164.470
v 198.715 0.939 161.960
v 196.265 0.851 159.460
v 193.705 0.813 161.970
f 557 558 559 560
v 198.039 0.924 162.372
v 220.719 0.991 154.882
v 219.621 0.922 151.558
v 196.941 0.852 159.048
f 561 562 563 564
v 220.719 0.991 154.882
v 245.249 0.836 146.782
v 244.151 0.796 143.458
v 219.621 0.922 151.558
f 565 566 567 568
v 245.249 0.836 146.782
v 249.339 0.834 145.432
v 248.241 0.807 142.108
v 244.151 0.796 143.458
f 569 570 571 572
v 239.238 0.912 120.347
v 247.128 0.770 144.317
v 250.452 0.904 143.223
v 242.562 0.930 119.253
f 573 574 575 576
v 247.126 0.770 144.312
v 248.166 0.815 147.502
v 251.494 0.933 146.418
v 250.454 0.904 143.228
f 577 578 579 580
v 248.168 0.815 147.507
v 254.338 0.896 166.250
v 257.662 0.940 165.156
v 251.492 0.933 146.413
f 581 582 583 584
v 255.487 0.863 193.281
v 226.897 0.911 202.047
v 227.923 0.958 205.393
v 256.513 1.018 196.627
f 585 586 587 588
v 226.883 0.911 202.051
v 223.213 0.937 203.211
v 224.267 0.943 206.549
v 227.937 0.958 205.389
f 589 590 591 592
v 233.568 0.899 239.976
v 235.578 0.888 244.946
v 238.822 0.871 243.634
v 236.812 0.876 238.664
f 593 594 595 596
v 235.559 0.888 244.897
v 239.887 1.031 256.607
v 243.170 1.002 255.393
v 238.841 0.872 243.683
f 597 598 599 600
v -9.199 0.798 247.644
v -26.839 0.846 237.214
v -28.621 0.831 240.226
v -10.981 0.797 250.656
f 601 602 603 604
v -27.422 0.845 236.997
v -36.262 0.791 235.417
v -36.878 0.768 238.863
v -28.038 0.831 240.443
f 605 606 607 608
v -36.983 0.787 235.439
v -47.773 0.769 238.059
v -46.947 0.770 241.461
v -36.157 0.773 238.841
f 609 610 611 612
v -46.957 0.773 238.057
v -51.947 0.756 236.877
v -52.753 0.715 240.283
v -47.763 0.760 241.463
f 613 614 615 616
v -50.892 0.758 237.612
v -53.952 0.795 233.002
v -56.868 0.768 234.938
v -53.808 0.718 239.548
f 617 618 619 620
v -53.755 0.790 233.401
v -61.735 0.758 210.171
v -65.045 0.709 211.309
v -57.065 0.770 234.539
f 621 622 623 624
v -61.735 0.758 210.171
v -65.945 0.802 197.921
v -69.255 0.770 199.059
v -65.045 0.709 211.309
f 625 626 627 628
v -65.945 0.802 197.921
v -77.595 0.821 164.021
v -80.905 0.747 165.159
v -69.255 0.770 199.059
f 629 630 631 632
v -77.596 0.821 164.019
v -77.986 0.820 162.889
v -81.294 0.753 164.031
v -80.904 0.747 165.161
f 633 634 635 636
v -77.895 0.817 163.587
v -77.475 0.829 157.837
v -80.965 0.785 157.583
v -81.385 0.757 163.333
f 637 638 639 640
v -77.993 0.830 158.958
v -73.743 0.796 154.778
v -76.197 0.799 152.282
v -80.447 0.789 156.462
f 641 642 643 644
v -74.418 0.800 155.191
v -58.908 0.828 150.031
v -60.012 0.759 146.709
v -75.522 0.798 151.869
f 645 646 647 648
v -58.908 0.828 150.031
v -25.388 0.809 138.881
v -26.492 0.820 135.559
v -60.012 0.759 146.709
f 649 650 651 652
v -25.387 0.809 138.880
v -22.387 0.828 137.880
v -23.493 0.829 134.560
v -26.493 0.820 135.560
f 653 654 655 656
v -21.649 0.843 137.402
v -18.169 0.921 133.602
v -20.751 0.823 131.238
v -24.231 0.828 135.038
f 657 658 659 660
v -17.710 0.950 132.431
v -17.670 1.014 126.301
v -21.170 0.806 126.279
v -21.210 0.824 132.409
f 661 662 663 664
v -17.784 1.017 125.667
v -25.374 0.923 105.727
v -28.646 0.724 106.973
v -21.056 0.804 126.913
f 665 666 667 668
v -26.159 0.869 104.821
v -29.609 0.736 102.901
v -31.311 0.713 105.959
v -27.861 0.744 107.879
f 669 670 671 672
v -30.557 0.721 102.683
v -36.707 0.727 103.023
v -36.513 0.775 106.517
v -30.363 0.713 106.177
f 673 674 675 676
v -37.214 0.730 103.128
v -76.154 0.737 117.458
v -74.946 0.766 120.742
v -36.006 0.768 106.412
f 677 678 679 680
v -75.541 0.736 117.350
v -79.391 0.733 117.330
v -79.409 0.764 120.830
v -75.559 0.766 120.850
f 681 682 683 684
v -78.195 0.739 117.811
v -80.365 0.732 115.751
v -82.775 0.735 118.289
v -80.605 0.758 120.349
f 685 686 687 688
v -80.005 0.732 116.237
v -81.275 0.762 113.697
v -84.405 0.734 115.263
v -83.135 0.734 117.803
f 689 690 691 692
v -81.197 0.758 113.877
v -87.247 0.845 97.387
v -90.533 0.812 98.593
v -84.483 0.733 115.083
f 693 694 695 696
v -87.959 0.844 96.508
v -91.029 0.832 94.578
v -92.891 0.814 97.542
v -89.821 0.808 99.472
f 697 698 699 700
v -91.950 0.826 94.310
v -97.340 0.777 94.280
v -97.360 0.822 97.780
v -91.970 0.814 97.810
f 701 702 703 704
v -97.924 0.769 94.377
v -156.514 0.701 114.717
v -155.366 0.754 118.023
v -96.776 0.825 97.683
f 705 706 707 708
v -157.246 0.704 115.205
v -159.956 0.743 118.245
v -157.344 0.755 120.575
v -154.634 0.756 117.535
f 709 710 711 712
v -160.400 0.750 119.402
v -160.420 0.753 124.002
v -156.920 0.761 124.018
v -156.900 0.746 119.418
f 713 714 715 716
v -160.316 0.752 124.605
v -153.116 0.794 144.525
v -149.824 0.790 143.335
v -157.024 0.764 123.415
f 717 718 719 720
v -152.781 0.802 145.089
v -149.721 0.815 148.549
v -147.099 0.774 146.231
v -150.159 0.790 142.771
f 721 722 723 724
v -148.705 0.804 149.115
v -144.085 0.728 149.905
v -143.495 0.765 146.455
v -148.115 0.779 145.665
f 725 726 727 728
v -143.222 0.724 149.835
v -123.682 0.772 143.135
v -124.818 0.776 139.825
v -144.358 0.767 146.525
f 729 730 731 732
v -123.682 0.772 143.135
v -109.532 1.057 138.275
v -110.668 0.755 134.965
v -124.818 0.776 139.825
f 733 734 735 736
v -109.531 1.057 138.275
v -100.451 0.722 135.155
v -101.589 0.770 131.845
v -110.669 0.755 134.965
f 737 738 739 740
v -101.185 0.724 135.242
v -96.955 0.730 135.642
v -96.625 0.774 132.158
v -100.855 0.773 131.758
f 741 742 743 744
v -98.149 0.732 135.003
v -94.709 0.734 139.243
v -91.991 0.829 137.037
v -95.431 0.778 132.797
f 745 746 747 748
v -95.012 0.734 138.688
v -91.602 0.806 149.028
v -88.278 0.848 147.932
v -91.688 0.807 137.592
f 749 750 751 752
v -91.499 0.800 147.685
v -93.059 0.790 150.745
v -89.941 0.798 152.335
v -88.381 0.830 149.275
f 753 754 755 756
v -92.220 0.798 149.945
v -97.230 0.776 152.205
v -95.790 0.984 155.395
v -90.780 0.802 153.135
f 757 758 759 760
v -97.069 0.776 152.142
v -118.269 0.716 159.292
v -117.151 0.719 162.608
v -95.951 0.996 155.458
f 761 762 763 764
v -125.909 0.768 142.037
v -119.369 0.725 161.507
v -116.051 0.709 160.393
v -122.591 0.779 140.923
f 765 766 767 768
v -119.370 0.725 161.505
v -114.340 0.752 176.545
v -111.020 0.759 175.435
v -116.050 0.709 160.395
f 769 770 771 772
v -114.340 0.752 176.544
v -102.860 0.729 210.934
v -99.540 0.732 209.826
v -111.020 0.759 175.436
f 773 774 775 776
v -102.860 0.729 210.934
v -87.643 0.771 256.554
v -84.323 0.791 255.446
v -99.540 0.732 209.826
f 777 778 779 780
v -62.854 0.737 212.406
v -59.684 0.770 211.386
v -60.756 0.770 208.054
v -63.926 0.737 209.074
f 781 782 783 784
v -59.684 0.770 211.386
v -26.214 0.817 200.606
v -27.286 0.793 197.274
v -60.756 0.770 208.054
f 785 786 787 788
v -25.880 0.816 200.458
v -21.240 0.797 197.798
v -22.980 0.797 194.762
v -27.620 0.793 197.422
f 789 790 791 792
v -20.385 0.782 196.577
v -19.595 0.817 191.997
v -23.045 0.822 191.403
v -23.835 0.789 195.983
f 793 794 795 796
v -19.570 0.821 191.708
v -19.550 0.844 187.508
v -23.050 0.817 187.492
v -23.070 0.820 191.692
f 797 798 799 800
v -19.581 0.844 187.827
v -18.781 0.799 183.617
v -22.219 0.798 182.963
v -23.019 0.815 187.173
f 801 802 803 804
v -19.274 0.798 184.539
v -16.564 0.817 181.879
v -19.016 0.787 179.381
v -21.726 0.798 182.041
f 805 806 807 808
v -16.629 0.817 181.940
v -12.769 0.801 178.520
v -15.091 0.770 175.900
v -18.951 0.786 179.320
f 809 810 811 812
v -12.206 0.804 177.510
v -11.406 0.777 172.910
v -14.854 0.768 172.310
v -15.654 0.771 176.910
f 813 814 815 816
v -11.446 0.775 172.135
v -12.956 0.763 166.785
v -16.324 0.760 167.735
v -14.814 0.771 173.085
f 817 818 819 820
v -13.002 0.762 166.644
v -24.302 0.826 136.604
v -27.578 0.808 137.836
v -16.278 0.761 167.876
f 821 822 823 824
v -113.155 0.743 174.306
v -124.825 0.779 177.596
v -123.875 0.753 180.964
v -112.205 0.741 177.674
f 825 826 827 828
v -124.181 0.784 177.538
v -128.411 0.770 177.128
v -128.749 0.750 180.612
v -124.519 0.744 181.022
f 829 830 831 832
v -127.842 0.769 177.283
v -132.832 0.790 174.963
v -134.308 0.785 178.137
v -129.318 0.754 180.457
f 833 834 835 836
v -131.907 0.789 176.005
v -133.787 0.778 170.265
v -137.113 0.791 171.355
v -135.233 0.787 177.095
f 837 838 839 840
v -133.808 0.778 170.205
v -142.148 0.752 147.575
v -145.432 0.754 148.785
v -137.092 0.791 171.415
f 841 842 843 844
v 137.762 1.123 -253.599
v 136.382 1.085 -250.099
v 141.498 0.994 -248.081
v 142.878 1.008 -251.581
f 845 846 847 848
v 136.942 1.084 -250.979
v 133.122 1.082 -246.939
v 137.118 1.104 -243.161
v 140.938 0.986 -247.201
f 849 850 851 852
v 134.221 1.080 -247.649
v 90.411 1.082 -232.499
v 92.209 1.117 -227.301
v 136.019 1.121 -242.451
f 853 854 855 856
v 112.767 0.672 257.663
v 131.325 0.787 251.583
v 130.235 0.800 248.257
v 111.677 0.663 254.337
f 857 858 859 860
v 132.220 0.787 250.914
v 135.960 0.752 245.494
v 133.080 0.759 243.506
v 129.340 0.796 248.926
f 861 862 863 864
v 136.104 0.749 245.243
v 145.044 0.743 226.193
v 141.876 0.734 224.707
v 132.936 0.761 243.757
f 865 866 867 868
v 145.147 0.746 225.915
v 147.637 0.800 216.875
v 144.263 0.830 215.945
v 141.773 0.731 224.985
f 869 870 871 872
v 147.688 0.800 216.612
v 148.248 0.779 211.792
v 144.772 0.793 211.388
v 144.212 0.830 216.208
f 873 874 875 876
v 148.156 0.770 210.995
v 140.476 0.705 189.755
v 137.184 0.673 190.945
v 144.864 0.800 212.185
f 877 878 879 880
v 140.476 0.705 189.756
v 123.326 0.976 142.246
v 120.034 0.943 143.434
v 137.184 0.673 190.944
f 881 882 883 884
v 122.133 0.960 141.150
v 113.663 0.811 138.880
v 112.757 0.839 142.260
v 121.227 0.955 144.530
f 885 886 887 888
v 113.426 0.808 138.833
v 63.986 0.619 132.683
v 63.554 0.659 136.157
v 112.994 0.842 142.307
f 889 890 891 892
v 63.986 0.619 132.683
v 48.826 0.781 130.793
v 48.394 0.776 134.267
v 63.554 0.659 136.157
f 893 894 895 896
v 47.950 0.774 130.909
v 43.900 0.747 132.559
v 45.220 0.765 135.801
v 49.270 0.779 134.151
f 897 898 899 900
v 43.001 0.744 133.386
v 13.031 0.793 192.206
v 16.149 0.802 193.794
v 46.119 0.763 134.974
f 901 902 903 904
v 12.841 0.803 193.062
v 13.061 0.813 199.262
v 16.559 0.798 199.138
v 16.339 0.801 192.938
f 905 906 907 908
v 13.176 0.815 199.826
v 34.921 0.660 256.626
v 38.190 0.647 255.374
v 16.444 0.802 198.574
f 909 910 911 912
v 255.418 0.710 93.803
v 121.098 0.948 141.190
v 122.262 0.966 144.490
v 256.582 0.695 97.104
f 913 914 915 916
v 137.249 0.681 189.600
v 106.104 0.714 255.250
v 109.266 0.694 256.750
v 140.411 0.674 191.100
f 917 918 919 920
v 184.369 1.068 242.184
v 182.859 1.033 237.934
v 179.561 1.040 239.106
v 181.071 1.060 243.356
f 921 922 923 924
v 182.824 1.032 237.844
v 178.004 0.903 226.334
v 174.776 0.961 227.686
v 179.596 1.041 239.196
f 925 926 927 928
v 178.004 0.903 226.333
v 173.054 1.136 214.533
v 169.826 1.011 215.887
v 174.776 0.961 227.687
f 929 930 931 932
v 172.367 1.133 213.726
v 165.627 1.028 209.516
v 163.773 1.001 212.484
v 170.513 1.006 216.694
f 933 934 935 936
v 164.965 1.013 209.270
v 157.845 0.919 208.180
v 157.315 0.913 211.640
v 164.435 1.006 212.730
f 937 938 939 940
v 157.317 0.909 208.180
v 146.247 0.760 209.860
v 146.773 0.800 213.320
v 157.843 0.922 211.640
f 941 942 943 944
v 223.069 0.953 -90.152
v 234.489 0.977 -94.002
v 233.371 0.974 -97.318
v 221.951 0.958 -93.468
f 945 946 947 948
v 234.601 0.979 -94.044
v 235.951 0.961 -94.604
v 234.609 0.940 -97.836
v 233.259 0.973 -97.276
f 949 950 951 952
v -247.040 0.776 -209.764
v -125.610 0.653 -252.224
v -128.250 0.893 -259.776
v -249.680 0.941 -217.316
f 953 954 955 956
v 235.829 0.962 -94.558
v 256.549 1.186 -101.408
v 255.451 1.218 -104.731
v 234.731 0.934 -97.882
f 957 958 959 960
v 198.364 1.023 256.963
v 202.754 0.963 253.823
v 199.846 0.912 249.757
v 195.456 1.031 252.897
f 961 962 963 964
v 202.688 0.962 253.869
v 205.758 0.957 251.819
v 202.982 0.910 247.661
v 199.912 0.910 249.711
f 965 966 967 968
v 205.172 0.980 252.108
v 212.962 0.795 249.468
v 211.358 0.846 244.732
v 203.568 0.900 247.372
f 969 970 971 972
v 212.959 0.795 249.469
v 227.929 0.856 244.419
v 226.331 0.879 239.681
v 211.361 0.846 244.731
f 973 974 975 976
v 227.932 0.856 244.418
v 235.992 0.875 241.688
v 234.388 0.911 236.952
v 226.328 0.879 239.682
f 977 978 979 980
v 235.989 0.875 241.689
v 242.839 0.837 239.379
v 241.241 0.870 234.641
v 234.391 0.911 236.951
f 981 982 983 984
v 177.003 1.062 252.195
v 172.933 1.022 253.285
v 174.227 1.060 258.115
v 178.297 1.074 257.025
f 985 986 987 988
v 102.637 2.044 175.470
v 128.227 0.886 187.670
v 129.733 0.787 184.510
v 104.143 2.032 172.310
f 989 990 991 992
v 128.285 0.884 187.696
v 138.135 0.660 191.956
v 139.525 0.715 188.744
v 129.675 0.789 184.484
f 993 994 995 996
v 91.088 2.099 169.970
v 102.638 2.044 175.470
v 104.142 2.032 172.310
v 92.592 2.083 166.810
f 997 998 999 1000
v 62.193 0.642 133.661
v 54.123 0.749 150.421
v 57.277 0.813 151.939
v 65.347 0.623 135.179
f 1001 1002 1003 1004
v 54.948 0.745 152.760
v 91.088 2.099 169.970
v 92.592 2.083 166.810
v 56.452 0.800 149.600
f 1005 1006 1007 1008
v -130.984 0.939 -171.837
v -128.204 1.096 -166.777
v -125.136 1.048 -168.463
v -127.916 0.943 -173.523
f 1009 1010 1011 1012
v -127.774 1.108 -166.262
v -121.834 1.191 -161.432
v -119.626 1.191 -164.148
v -125.566 1.031 -168.978
f 1013 1014 1015 1016
v -120.805 1.182 -161.042
v -111.765 1.242 -160.652
v -111.615 1.139 -164.148
v -120.655 1.154 -164.538
f 1017 1018 1019 1020
v -110.892 1.234 -160.842
v -103.062 1.260 -164.852
v -104.658 1.130 -167.968
v -112.488 1.137 -163.958
f 1021 1022 1023 1024
v -102.252 1.239 -165.720
v -99.302 1.189 -172.590
v -102.518 1.047 -173.970
v -105.468 1.142 -167.100
f 1025 1026 1027 1028
v -99.182 1.217 -173.559
v -100.472 0.950 -181.549
v -103.928 0.938 -180.991
v -102.638 1.059 -173.001
f 1029 1030 1031 1032
v 199.370 0.982 255.377
v 199.890 0.916 252.517
v 194.970 1.054 251.623
v 194.450 1.055 254.483
f 1033 1034 1035 1036
v 199.914 0.910 251.786
v 199.584 0.926 248.896
v 194.616 1.070 249.464
v 194.946 1.050 252.354
f 1037 1038 1039 1040
v 199.401 0.940 248.203
v 198.271 0.955 245.543
v 193.669 1.071 247.497
v 194.799 1.065 250.157
f 1041 1042 1043 1044
v 197.897 0.954 244.927
v 196.037 0.945 242.677
v 192.183 1.091 245.863
v 194.043 1.073 248.113
f 1045 1046 1047 1048
v 184.975 3.136 -182.862
v 212.455 0.951 -102.792
v 223.805 0.942 -106.688
v 196.325 3.116 -186.758
f 1049 1050 1051 1052
v 212.447 0.951 -102.815
v 216.827 0.895 -89.885
v 228.193 0.876 -93.735
v 223.813 0.943 -106.665
f 1053 1054 1055 1056
v 216.828 0.895 -89.884
v 239.248 0.667 -23.744
v 250.612 0.697 -27.596
v 228.192 0.876 -93.736
f 1057 1058 1059 1060
v 208.883 0.751 238.817
v 207.353 0.791 234.647
v 204.067 0.765 235.853
v 205.597 0.765 240.023
f 1061 1062 1063 1064
v 207.358 0.790 234.662
v 201.088 1.070 217.072
v 197.792 0.994 218.248
v 204.062 0.765 235.838
f 1065 1066 1067 1068
v 198.790 1.057 216.035
v 182.510 0.888 222.545
v 183.810 0.881 225.795
v 200.090 1.006 219.285
f 1069 1070 1071 1072
v 182.483 0.889 222.556
v 175.713 0.944 225.396
v 177.067 0.938 228.624
v 183.837 0.881 225.784
f 1073 1074 1075 1076
usemtl asphalt
