# Baked ultra-low Key West silhouette; generated by bake_key_west_far_city.py
mtllib far_city.mtl
usemtl massing
v 57.804 0.524 -13.906
v 156.931 0.524 -35.680
v 178.436 0.524 62.226
v 79.309 0.524 84.000
v 57.804 7.824 -13.906
v 156.931 7.824 -35.680
v 178.436 7.824 62.226
v 79.309 7.824 84.000
f 8 7 6 5
f 1 2 6 5
f 2 3 7 6
f 3 4 8 7
f 4 1 5 8
v -5.395 0.455 -188.518
v 98.996 0.455 -109.839
v 22.815 0.455 -8.762
v -81.576 0.455 -87.441
v -5.395 8.755 -188.518
v 98.996 8.755 -109.839
v 22.815 8.755 -8.762
v -81.576 8.755 -87.441
f 16 15 14 13
f 9 10 14 13
f 10 11 15 14
f 11 12 16 15
f 12 9 13 16
v 146.832 0.523 -71.983
v 170.980 0.523 -60.063
v 163.208 0.523 -44.317
v 139.060 0.523 -56.237
v 146.832 9.823 -71.983
v 170.980 9.823 -60.063
v 163.208 9.823 -44.317
v 139.060 9.823 -56.237
f 24 23 22 21
f 17 18 22 21
f 18 19 23 22
f 19 20 24 23
f 20 17 21 24
v 213.954 0.701 -261.533
v 236.667 0.701 -253.933
v 233.326 0.701 -243.947
v 210.613 0.701 -251.547
v 213.954 4.601 -261.533
v 236.667 4.601 -253.933
v 233.326 4.601 -243.947
v 210.613 4.601 -251.547
f 32 31 30 29
f 25 26 30 29
f 26 27 31 30
f 27 28 32 31
f 28 25 29 32
v 202.279 0.804 -213.277
v 210.476 0.804 -239.652
v 221.381 0.804 -236.263
v 213.184 0.804 -209.888
v 202.279 4.704 -213.277
v 210.476 4.704 -239.652
v 221.381 4.704 -236.263
v 213.184 4.704 -209.888
f 40 39 38 37
f 33 34 38 37
f 34 35 39 38
f 35 36 40 39
f 36 33 37 40
v 210.763 0.797 -185.287
v 217.903 0.797 -211.347
v 227.297 0.797 -208.773
v 220.157 0.797 -182.713
v 210.763 4.697 -185.287
v 217.903 4.697 -211.347
v 227.297 4.697 -208.773
v 220.157 4.697 -182.713
f 48 47 46 45
f 41 42 46 45
f 42 43 47 46
f 43 44 48 47
f 44 41 45 48
v 217.433 0.764 -156.336
v 223.633 0.764 -183.620
v 233.647 0.764 -181.344
v 227.447 0.764 -154.060
v 217.433 4.664 -156.336
v 223.633 4.664 -183.620
v 233.647 4.664 -181.344
v 227.447 4.664 -154.060
f 56 55 54 53
f 49 50 54 53
f 50 51 55 54
f 51 52 56 55
f 52 49 53 56
v 261.921 0.666 -149.911
v 267.092 0.666 -120.086
v 248.539 0.666 -116.869
v 243.368 0.666 -146.694
v 261.921 6.466 -149.911
v 267.092 6.466 -120.086
v 248.539 6.466 -116.869
v 243.368 6.466 -146.694
f 64 63 62 61
f 57 58 62 61
f 58 59 63 62
f 59 60 64 63
f 60 57 61 64
v -98.036 0.499 -182.264
v -74.751 0.499 -243.485
v -47.384 0.499 -233.076
v -70.669 0.499 -171.855
v -98.036 8.799 -182.264
v -74.751 8.799 -243.485
v -47.384 8.799 -233.076
v -70.669 8.799 -171.855
f 72 71 70 69
f 65 66 70 69
f 66 67 71 70
f 67 68 72 71
f 68 65 69 72
v -39.842 0.934 -235.425
v -37.776 0.934 -241.387
v -32.258 0.934 -239.475
v -34.324 0.934 -233.513
v -39.842 4.834 -235.425
v -37.776 4.834 -241.387
v -32.258 4.834 -239.475
v -34.324 4.834 -233.513
f 80 79 78 77
f 73 74 78 77
f 74 75 79 78
f 75 76 80 79
f 76 73 77 80
v 3.214 1.031 -222.357
v 18.658 1.031 -229.815
v 25.686 1.031 -215.263
v 10.242 1.031 -207.805
v 3.214 4.931 -222.357
v 18.658 4.931 -229.815
v 25.686 4.931 -215.263
v 10.242 4.931 -207.805
f 88 87 86 85
f 81 82 86 85
f 82 83 87 86
f 83 84 88 87
f 84 81 85 88
v 237.081 1.184 -229.608
v 253.090 1.184 -234.958
v 258.339 1.184 -219.252
v 242.330 1.184 -213.902
v 237.081 5.084 -229.608
v 253.090 5.084 -234.958
v 258.339 5.084 -219.252
v 242.330 5.084 -213.902
f 96 95 94 93
f 89 90 94 93
f 90 91 95 94
f 91 92 96 95
f 92 89 93 96
v 56.918 0.568 -256.616
v 60.007 0.568 -257.657
v 61.022 0.568 -254.644
v 57.933 0.568 -253.603
v 56.918 4.468 -256.616
v 60.007 4.468 -257.657
v 61.022 4.468 -254.644
v 57.933 4.468 -253.603
f 104 103 102 101
f 97 98 102 101
f 98 99 103 102
f 99 100 104 103
f 100 97 101 104
v 52.015 0.589 -255.534
v 55.022 0.589 -256.628
v 56.085 0.589 -253.706
v 53.078 0.589 -252.612
v 52.015 4.489 -255.534
v 55.022 4.489 -256.628
v 56.085 4.489 -253.706
v 53.078 4.489 -252.612
f 112 111 110 109
f 105 106 110 109
f 106 107 111 110
f 107 108 112 111
f 108 105 109 112
v 227.286 0.639 -234.504
v 230.403 0.639 -236.160
v 231.914 0.639 -233.316
v 228.797 0.639 -231.660
v 227.286 4.539 -234.504
v 230.403 4.539 -236.160
v 231.914 4.539 -233.316
v 228.797 4.539 -231.660
f 120 119 118 117
f 113 114 118 117
f 114 115 119 118
f 115 116 120 119
f 116 113 117 120
v 46.234 0.439 -98.870
v 65.779 0.439 -232.094
v 198.726 0.439 -212.590
v 179.181 0.439 -79.366
v 46.234 9.739 -98.870
v 65.779 9.739 -232.094
v 198.726 9.739 -212.590
v 179.181 9.739 -79.366
f 128 127 126 125
f 121 122 126 125
f 122 123 127 126
f 123 124 128 127
f 124 121 125 128
usemtl road
v 176.077 1.072 -254.907
v 176.781 1.069 -253.457
v 181.279 1.114 -255.643
v 180.574 1.125 -257.093
f 129 130 131 132
v 177.231 1.068 -252.814
v 179.431 1.062 -250.534
v 183.029 1.095 -254.006
v 180.829 1.112 -256.286
f 133 134 135 136
v 180.062 1.060 -250.060
v 182.862 1.052 -248.580
v 185.198 1.075 -253.000
v 182.398 1.098 -254.480
f 137 138 139 140
v 183.597 1.049 -248.328
v 186.727 1.053 -247.778
v 187.593 1.077 -252.702
v 184.463 1.085 -253.252
f 141 142 143 144
v 187.506 1.059 -247.764
v 190.656 1.058 -248.204
v 189.964 1.073 -253.156
v 186.814 1.078 -252.716
f 145 146 147 148
v 191.415 1.051 -248.438
v 194.255 1.030 -249.838
v 192.045 1.070 -254.322
v 189.205 1.073 -252.922
f 149 150 151 152
v 194.886 1.030 -250.281
v 197.166 1.036 -252.481
v 193.694 1.062 -256.079
v 191.414 1.072 -253.879
f 153 154 155 156
v 197.639 1.031 -253.108
v 198.551 1.023 -254.828
v 194.134 1.059 -257.172
v 193.221 1.065 -255.452
f 157 158 159 160
v 63.742 0.909 -221.844
v 57.202 0.927 -221.404
v 57.538 0.961 -216.416
v 64.078 0.960 -216.856
f 161 162 163 164
v 56.989 0.929 -221.381
v 52.449 0.919 -220.681
v 53.211 0.997 -215.739
v 57.751 0.961 -216.439
f 165 166 167 168
v 52.432 0.919 -220.678
v 50.322 0.930 -220.338
v 51.118 1.017 -215.402
v 53.228 0.997 -215.742
f 169 170 171 172
v 51.253 0.926 -220.312
v 46.033 0.971 -221.452
v 44.967 1.055 -216.568
v 50.187 1.020 -215.428
f 173 174 175 176
v 40.979 1.059 -202.411
v 43.479 0.938 -202.651
v 43.001 1.111 -207.629
v 40.501 1.126 -207.389
f 177 178 179 180
v 44.245 0.945 -202.851
v 46.545 0.965 -203.861
v 44.535 1.101 -208.439
v 42.235 1.115 -207.429
f 181 182 183 184
v 47.237 0.965 -204.314
v 49.077 0.943 -206.014
v 45.683 1.094 -209.686
v 43.843 1.107 -207.986
f 185 186 187 188
v 49.575 0.951 -206.653
v 50.775 0.995 -208.853
v 46.385 1.082 -211.247
v 45.185 1.095 -209.047
f 189 190 191 192
v 51.044 1.000 -209.629
v 51.464 1.006 -212.089
v 46.536 1.067 -212.931
v 46.116 1.089 -210.471
f 193 194 195 196
v 51.469 1.009 -212.900
v 51.079 1.017 -215.370
v 46.141 1.066 -214.590
v 46.531 1.072 -212.120
f 197 198 199 200
v 50.814 1.009 -216.159
v 49.594 0.974 -218.439
v 45.186 1.062 -216.081
v 46.406 1.065 -213.801
f 201 202 203 204
v 49.089 0.966 -219.094
v 47.199 0.968 -220.844
v 43.801 1.090 -217.176
v 45.691 1.066 -215.426
f 205 206 207 208
v 46.481 0.969 -221.309
v 44.091 0.970 -222.329
v 42.129 1.164 -217.731
v 44.519 1.080 -216.711
f 209 210 211 212
v 43.294 0.971 -222.523
v 40.714 0.979 -222.713
v 40.346 1.259 -217.727
v 42.926 1.112 -217.537
f 213 214 215 216
v 39.885 0.988 -222.635
v 37.375 1.035 -221.965
v 38.665 1.326 -217.135
v 41.175 1.229 -217.805
f 217 218 219 220
v 36.607 1.052 -221.612
v 34.477 1.092 -220.152
v 37.303 1.375 -216.028
v 39.433 1.302 -217.488
f 221 222 223 224
v 33.885 1.091 -219.584
v 32.365 1.077 -217.544
v 36.375 1.389 -214.556
v 37.895 1.355 -216.596
f 225 226 227 228
v 31.986 1.074 -216.802
v 31.226 1.065 -214.392
v 35.994 1.370 -212.888
v 36.754 1.392 -215.298
f 229 230 231 232
v 31.111 1.058 -213.581
v 31.171 1.034 -211.041
v 36.169 1.265 -211.159
v 36.109 1.376 -213.699
f 233 234 235 236
v 31.333 1.040 -210.212
v 32.233 1.048 -207.842
v 36.907 1.191 -209.618
v 36.007 1.307 -211.988
f 237 238 239 240
v 32.636 1.047 -207.145
v 34.226 1.043 -205.205
v 38.094 1.151 -208.375
v 36.504 1.230 -210.315
f 241 242 243 244
v 34.836 1.049 -204.669
v 36.966 1.065 -203.339
v 39.614 1.135 -207.581
v 37.484 1.149 -208.911
f 245 246 247 248
v 37.733 1.070 -203.023
v 40.183 1.077 -202.463
v 41.297 1.121 -207.337
v 38.847 1.148 -207.897
f 249 250 251 252
v 241.604 0.960 -250.749
v 243.914 0.964 -244.659
v 247.186 0.942 -245.901
v 244.876 0.943 -251.991
f 253 254 255 256
v 236.757 0.983 -123.571
v 241.137 0.934 -145.761
v 237.703 0.924 -146.439
v 233.323 0.941 -124.249
f 257 258 259 260
v 241.137 0.934 -145.762
v 242.407 0.988 -152.222
v 238.973 0.965 -152.898
v 237.703 0.924 -146.438
f 261 262 263 264
v 242.440 0.989 -152.552
v 242.470 0.988 -159.042
v 238.970 0.952 -159.058
v 238.940 0.964 -152.568
f 265 266 267 268
v 242.446 0.989 -159.340
v 238.926 0.996 -180.300
v 235.474 0.871 -179.720
v 238.994 0.953 -158.760
f 269 270 271 272
v 238.894 0.994 -180.450
v 237.184 0.927 -187.030
v 233.796 0.909 -186.150
v 235.506 0.871 -179.570
f 273 274 275 276
v 237.183 0.927 -187.033
v 233.093 0.837 -202.673
v 229.707 0.835 -201.787
v 233.797 0.909 -186.147
f 277 278 279 280
v 233.093 0.837 -202.674
v 229.783 0.926 -215.304
v 226.397 0.921 -214.416
v 229.707 0.835 -201.786
f 281 282 283 284
v 229.783 0.926 -215.303
v 225.383 0.965 -232.133
v 221.997 0.877 -231.247
v 226.397 0.921 -214.417
f 285 286 287 288
v 225.430 0.948 -231.507
v 225.810 1.039 -235.117
v 222.330 0.840 -235.483
v 221.950 0.871 -231.873
f 289 290 291 292
v 225.360 1.009 -234.118
v 228.650 1.036 -237.708
v 226.070 0.850 -240.072
v 222.780 0.830 -236.482
f 293 294 295 296
v 227.940 1.050 -237.239
v 240.720 1.015 -241.729
v 239.560 0.914 -245.031
v 226.780 0.853 -240.541
f 297 298 299 300
v 240.720 1.015 -241.729
v 246.130 1.037 -243.629
v 244.970 0.902 -246.931
v 239.560 0.914 -245.031
f 301 302 303 304
v 246.113 1.038 -243.623
v 249.323 1.006 -244.713
v 248.197 0.887 -248.027
v 244.987 0.901 -246.937
f 305 306 307 308
v 255.534 0.858 -210.701
v 239.794 0.845 -206.357
v 240.726 0.925 -202.983
v 256.466 0.928 -207.327
f 309 310 311 312
v 239.795 0.845 -206.357
v 230.935 0.762 -203.917
v 231.865 0.843 -200.543
v 240.725 0.925 -202.983
f 313 314 315 316
v 26.779 0.868 -233.055
v 15.629 0.823 -243.705
v 13.211 0.810 -241.175
v 24.361 0.888 -230.525
f 317 318 319 320
v 15.541 0.823 -243.784
v 11.631 0.807 -247.044
v 9.389 0.786 -244.356
v 13.299 0.810 -241.096
f 321 322 323 324
v 11.630 0.807 -247.045
v -0.742 0.762 -257.345
v -2.982 0.771 -254.655
v 9.390 0.786 -244.355
f 325 326 327 328
v -81.934 0.792 -243.860
v -96.574 0.776 -238.970
v -95.466 0.889 -235.650
v -80.826 0.844 -240.540
f 329 330 331 332
v -97.436 0.768 -238.339
v -99.376 0.729 -235.669
v -96.544 0.843 -233.611
v -94.604 0.888 -236.281
f 333 334 335 336
v -99.710 0.722 -234.647
v -99.730 0.736 -229.677
v -96.230 0.807 -229.663
v -96.210 0.863 -234.633
f 337 338 339 340
v -99.636 0.737 -229.103
v -92.026 0.737 -206.883
v -88.714 0.743 -208.017
v -96.324 0.811 -230.237
f 341 342 343 344
v -92.025 0.737 -206.883
v -80.325 0.718 -172.753
v -77.015 0.749 -173.887
v -88.715 0.743 -208.017
f 345 346 347 348
v -79.907 0.715 -172.083
v -77.227 0.703 -169.403
v -74.753 0.761 -171.877
v -77.433 0.759 -174.557
f 349 350 351 352
v -76.685 0.703 -169.034
v -74.005 0.727 -167.874
v -72.615 0.753 -171.086
v -75.295 0.761 -172.246
f 353 354 355 356
v -73.200 0.736 -167.733
v -67.810 0.718 -168.073
v -68.030 0.762 -171.567
v -73.420 0.756 -171.227
f 357 358 359 360
v -67.344 0.713 -168.167
v -41.134 0.829 -177.297
v -42.286 0.781 -180.603
v -68.496 0.760 -171.473
f 361 362 363 364
v -41.135 0.829 -177.297
v 5.525 0.860 -193.517
v 4.375 0.810 -196.823
v -42.285 0.782 -180.603
f 365 366 367 368
v 5.542 0.860 -193.523
v 19.352 0.937 -198.483
v 18.168 0.928 -201.777
v 4.358 0.810 -196.817
f 369 370 371 372
v -80.926 0.843 -240.510
v -69.746 0.779 -243.510
v -70.654 0.753 -246.890
v -81.834 0.791 -243.890
f 373 374 375 376
v -70.209 0.791 -243.450
v -66.359 0.751 -243.430
v -66.341 0.769 -246.930
v -70.191 0.753 -246.950
f 377 378 379 380
v -67.590 0.752 -243.945
v -64.910 0.743 -241.255
v -62.430 0.804 -243.725
v -65.110 0.781 -246.415
f 381 382 383 384
v -65.336 0.747 -241.954
v -57.816 0.770 -218.564
v -54.484 0.900 -219.636
v -62.004 0.807 -243.026
f 385 386 387 388
v -57.797 0.770 -218.508
v -43.357 0.796 -178.358
v -40.063 0.808 -179.542
v -54.503 0.898 -219.692
f 389 390 391 392
v 6.578 0.839 -195.812
v 1.678 0.855 -208.242
v -1.578 0.786 -206.958
v 3.322 0.820 -194.528
f 393 394 395 396
v 1.758 0.854 -207.981
v 0.108 0.882 -215.381
v -3.308 0.733 -214.619
v -1.658 0.785 -207.219
f 397 398 399 400
v 0.150 0.875 -214.989
v 0.190 0.877 -221.439
v -3.310 0.744 -221.461
v -3.350 0.733 -215.011
f 401 402 403 404
v 0.190 0.877 -221.444
v 0.200 0.788 -224.394
v -3.300 0.771 -224.406
v -3.310 0.744 -221.456
f 405 406 407 408
v 0.090 0.792 -223.789
v 2.840 0.867 -231.169
v -0.440 0.867 -232.391
v -3.190 0.775 -225.011
f 409 410 411 412
v 2.655 0.866 -230.807
v 11.965 0.802 -244.727
v 9.055 0.799 -246.673
v -0.255 0.870 -232.753
f 413 414 415 416
v 44.559 0.743 -238.086
v 51.539 0.773 -235.956
v 52.561 0.776 -239.304
v 45.581 0.762 -241.434
f 417 418 419 420
v 52.251 0.767 -235.892
v 58.491 0.739 -236.612
v 58.089 0.757 -240.088
v 51.849 0.783 -239.368
f 421 422 423 424
v 58.834 0.737 -236.687
v 107.394 0.749 -252.577
v 106.306 0.718 -255.903
v 57.746 0.759 -240.013
f 425 426 427 428
v 40.497 0.714 -241.395
v 43.927 0.738 -238.435
v 46.213 0.773 -241.085
v 42.783 0.724 -244.045
f 429 430 431 432
v 187.851 1.072 -250.228
v 188.631 1.043 -245.988
v 193.549 1.018 -246.892
v 192.769 1.043 -251.132
f 433 434 435 436
v 188.680 1.040 -245.775
v 193.030 0.941 -230.005
v 197.850 1.108 -231.335
v 193.500 1.020 -247.105
f 437 438 439 440
v 193.018 0.941 -230.049
v 210.758 0.915 -160.829
v 215.602 1.176 -162.071
v 197.862 1.108 -231.291
f 441 442 443 444
v 210.695 0.918 -161.724
v 208.195 0.919 -139.074
v 213.165 0.996 -138.526
v 215.665 1.176 -161.176
f 445 446 447 448
v 208.370 0.916 -139.755
v 207.510 0.909 -137.675
v 212.130 0.960 -135.765
v 212.990 0.993 -137.845
f 449 450 451 452
v 207.508 0.909 -137.671
v 201.338 0.967 -122.671
v 205.962 0.918 -120.769
v 212.132 0.960 -135.769
f 453 454 455 456
v 201.586 0.968 -123.131
v 190.386 0.937 -106.751
v 194.514 0.935 -103.929
v 205.714 0.918 -120.309
f 457 458 459 460
v 91.795 0.680 -39.414
v 121.315 0.637 1.956
v 124.165 0.629 -0.076
v 94.645 0.688 -41.446
f 461 462 463 464
v 123.763 0.644 2.360
v 158.763 0.731 -22.870
v 156.717 0.756 -25.710
v 121.717 0.632 -0.480
f 465 466 467 468
v 157.169 0.702 -22.636
v 162.849 0.737 -20.676
v 163.991 0.763 -23.984
v 158.311 0.777 -25.944
f 469 470 471 472
v 161.975 0.743 -21.343
v 176.855 0.764 0.437
v 179.745 0.751 -1.537
v 164.865 0.766 -23.317
f 473 474 475 476
v 176.792 0.770 -1.438
v 171.612 0.680 7.362
v 174.628 0.617 9.138
v 179.808 0.760 0.338
f 477 478 479 480
v 172.231 0.687 6.743
v 140.461 0.620 25.493
v 142.239 0.636 28.507
v 174.009 0.575 9.757
f 481 482 483 484
v 139.603 0.627 27.100
v 139.983 0.618 33.730
v 143.477 0.617 33.530
v 143.097 0.645 26.900
f 485 486 487 488
v 140.270 0.620 34.595
v 161.620 0.742 66.885
v 164.540 0.781 64.955
v 143.190 0.620 32.665
f 489 490 491 492
v 161.460 0.731 65.259
v 159.490 0.739 70.089
v 162.730 0.771 71.411
v 164.700 0.790 66.581
f 493 494 495 496
v 160.182 0.738 69.266
v 140.252 0.677 81.726
v 142.108 0.756 84.694
v 162.038 0.743 72.234
f 497 498 499 500
v 141.570 0.674 81.504
v 69.860 0.731 65.094
v 69.080 0.765 68.506
v 140.790 0.762 84.916
f 501 502 503 504
v 70.953 0.738 65.871
v 55.403 0.660 41.061
v 52.437 0.717 42.919
v 67.987 0.768 67.729
f 505 506 507 508
v 54.883 0.682 43.451
v 92.093 0.593 18.931
v 90.167 0.603 16.009
v 52.957 0.708 40.529
f 509 510 511 512
v 92.876 0.596 17.351
v 92.356 0.603 9.751
v 88.864 0.574 9.989
v 89.384 0.602 17.589
f 513 514 515 516
v 92.086 0.604 8.930
v 71.436 0.704 -23.500
v 68.484 0.739 -21.620
v 89.134 0.574 10.810
f 517 518 519 520
v 71.026 0.728 -21.172
v 94.286 0.670 -39.042
v 92.154 0.675 -41.818
v 68.894 0.742 -23.948
f 521 522 523 524
v 32.527 1.068 -212.425
v 28.607 1.013 -209.045
v 30.893 1.034 -206.395
v 34.813 1.093 -209.775
f 525 526 527 528
v 28.941 1.019 -209.272
v 28.231 1.006 -208.902
v 29.849 1.012 -205.798
v 30.559 1.026 -206.168
f 529 530 531 532
v 28.240 1.006 -208.906
v 21.800 0.965 -205.596
v 23.400 0.960 -202.484
v 29.840 1.012 -205.794
f 533 534 535 536
v 21.351 0.958 -205.266
v 17.511 0.921 -201.356
v 20.009 0.943 -198.904
v 23.849 0.962 -202.814
f 537 538 539 540
v 19.014 0.933 -198.399
v 24.464 0.968 -199.199
v 23.956 0.963 -202.661
v 18.506 0.929 -201.861
f 541 542 543 544
v 25.000 0.969 -199.368
v 31.330 1.047 -202.568
v 29.750 1.009 -205.692
v 23.420 0.960 -202.492
f 545 546 547 548
v 30.726 1.034 -202.390
v 31.566 1.045 -202.480
v 31.194 1.031 -205.960
v 30.354 1.019 -205.870
f 549 550 551 552
v 31.540 1.045 -202.477
v 34.160 1.063 -202.717
v 33.840 1.048 -206.203
v 31.220 1.031 -205.963
f 553 554 555 556
v 34.114 1.063 -202.714
v 40.854 1.061 -203.154
v 40.626 1.094 -206.646
v 33.886 1.048 -206.206
f 557 558 559 560
v 41.269 0.991 -221.806
v 35.389 0.972 -224.546
v 33.911 1.082 -221.374
v 39.791 1.140 -218.634
f 561 562 563 564
v 36.074 0.984 -223.977
v 35.574 0.964 -224.677
v 32.726 1.066 -222.643
v 33.226 1.076 -221.943
f 565 566 567 568
v 35.568 0.964 -224.686
v 31.958 0.882 -229.676
v 29.122 0.970 -227.624
v 32.732 1.066 -222.634
f 569 570 571 572
v 31.475 0.876 -230.129
v 26.505 0.867 -233.269
v 24.635 0.894 -230.311
v 29.605 0.972 -227.171
f 573 574 575 576
v 23.899 0.876 -231.271
v 25.539 0.962 -225.991
v 28.881 0.981 -227.029
v 27.241 0.878 -232.309
f 577 578 579 580
v 25.863 0.969 -225.393
v 28.283 1.018 -222.473
v 30.977 1.024 -224.707
v 28.557 0.968 -227.627
f 581 582 583 584
v 28.139 1.014 -222.674
v 29.669 1.026 -220.184
v 32.651 1.073 -222.016
v 31.121 1.026 -224.506
f 585 586 587 588
v 29.664 1.026 -220.192
v 30.824 1.047 -218.282
v 33.816 1.090 -220.098
v 32.656 1.073 -222.008
f 589 590 591 592
v 30.615 1.039 -218.794
v 31.905 1.066 -213.244
v 35.315 1.217 -214.036
v 34.025 1.092 -219.586
f 593 594 595 596
v 50.075 0.981 -208.046
v 54.845 0.974 -211.606
v 51.855 1.009 -215.614
v 47.085 1.053 -212.054
f 597 598 599 600
v 54.171 0.971 -211.249
v 62.191 0.902 -214.039
v 60.549 0.938 -218.761
v 52.529 1.002 -215.971
f 601 602 603 604
v 63.265 0.924 -214.769
v 65.805 0.956 -217.719
v 62.015 0.919 -220.981
v 59.475 0.946 -218.031
f 605 606 607 608
v 171.894 1.015 -258.365
v 140.469 0.863 -247.595
v 142.091 0.885 -242.865
v 173.515 1.056 -253.635
f 609 610 611 612
v 140.487 0.863 -247.601
v 94.987 0.816 -232.391
v 96.573 0.845 -227.649
v 142.073 0.885 -242.859
f 613 614 615 616
v 94.986 0.816 -232.391
v 63.116 0.910 -221.721
v 64.704 0.971 -216.979
v 96.574 0.845 -227.649
f 617 618 619 620
v 235.281 0.948 -125.643
v 227.361 0.906 -126.743
v 226.879 0.961 -123.277
v 234.799 0.982 -122.177
f 621 622 623 624
v 228.753 0.918 -125.638
v 226.203 0.848 -132.268
v 222.937 0.914 -131.012
v 225.487 0.982 -124.382
f 625 626 627 628
v 226.314 0.852 -131.780
v 225.624 0.877 -140.360
v 222.136 0.942 -140.080
v 222.826 0.912 -131.500
f 629 630 631 632
v 225.139 0.874 -139.004
v 229.359 0.893 -143.374
v 226.841 0.901 -145.806
v 222.621 0.942 -141.436
f 633 634 635 636
v 228.331 0.889 -142.855
v 239.651 0.941 -144.365
v 239.189 0.936 -147.835
v 227.869 0.904 -146.325
f 637 638 639 640
v 163.361 0.814 -202.694
v 143.961 0.764 -170.524
v 146.959 0.754 -168.716
v 166.359 0.787 -200.886
f 641 642 643 644
v 143.713 0.766 -169.721
v 143.443 0.762 -165.071
v 146.937 0.741 -164.869
v 147.207 0.752 -169.519
f 645 646 647 648
v 143.591 0.758 -164.260
v 145.581 0.759 -159.780
v 148.779 0.706 -161.200
v 146.789 0.747 -165.680
f 649 650 651 652
v 146.578 0.761 -158.847
v 181.288 0.851 -146.137
v 182.492 0.764 -149.423
v 147.782 0.724 -162.133
f 653 654 655 656
v 174.453 0.786 -217.737
v 140.513 0.766 -232.377
v 139.127 0.768 -229.163
v 173.067 0.789 -214.523
f 657 658 659 660
v 139.242 0.763 -232.422
v 124.602 0.718 -227.302
v 125.758 0.676 -223.998
v 140.398 0.779 -229.118
f 661 662 663 664
v 124.602 0.718 -227.302
v 73.592 0.731 -209.452
v 74.748 0.722 -206.148
v 125.758 0.676 -223.998
f 665 666 667 668
v 73.593 0.731 -209.452
v 63.173 0.768 -205.812
v 64.327 0.842 -202.508
v 74.747 0.722 -206.148
f 669 670 671 672
v 62.180 0.772 -204.932
v 46.310 0.893 -172.672
v 49.450 0.883 -171.128
v 65.320 0.843 -203.388
f 673 674 675 676
v 47.111 0.868 -170.328
v 98.321 0.740 -145.268
v 99.859 0.746 -148.412
v 48.649 0.881 -173.472
f 677 678 679 680
v 97.542 0.727 -147.656
v 65.972 0.638 -87.796
v 69.068 0.657 -86.164
v 100.638 0.771 -146.024
f 681 682 683 684
v 95.985 0.669 -74.419
v 78.835 0.657 -83.169
v 77.245 0.655 -80.051
v 94.395 0.667 -71.301
f 685 686 687 688
v 78.836 0.657 -83.169
v 68.316 0.653 -88.539
v 66.724 0.703 -85.421
v 77.244 0.655 -80.051
f 689 690 691 692
v 68.326 0.653 -88.533
v 28.246 0.625 -109.343
v 26.634 0.630 -106.237
v 66.714 0.703 -85.427
f 693 694 695 696
v 29.009 0.627 -107.014
v 52.419 0.795 -154.364
v 49.281 0.703 -155.916
v 25.871 0.629 -108.566
f 697 698 699 700
v 51.644 0.800 -156.700
v 23.734 0.686 -170.900
v 22.146 0.705 -167.780
v 50.056 0.703 -153.580
f 701 702 703 704
v 21.385 0.674 -170.143
v -3.385 0.621 -122.193
v -0.275 0.645 -120.587
v 24.495 0.704 -168.537
f 705 706 707 708
v -1.112 0.628 -122.986
v -51.852 0.740 -145.826
v -53.288 0.726 -142.634
v -2.548 0.628 -119.794
f 709 710 711 712
v -54.176 0.767 -144.926
v -66.226 0.734 -117.126
v -63.014 0.715 -115.734
v -50.964 0.711 -143.534
f 713 714 715 716
v -66.225 0.734 -117.128
v -66.825 0.743 -115.748
v -63.615 0.696 -114.352
v -63.015 0.715 -115.732
f 717 718 719 720
v -66.858 0.745 -114.433
v -49.928 0.714 -69.483
v -46.652 0.722 -70.717
v -63.582 0.712 -115.667
f 721 722 723 724
v -49.927 0.714 -69.483
v -41.247 0.657 -46.463
v -37.973 0.682 -47.697
v -46.653 0.722 -70.717
f 725 726 727 728
v -41.248 0.657 -46.463
v -38.278 0.680 -38.573
v -35.002 0.673 -39.807
v -37.972 0.682 -47.697
f 729 730 731 732
v -37.374 0.687 -37.601
v -13.154 0.733 -26.411
v -11.686 0.667 -29.589
v -35.906 0.668 -40.779
f 733 734 735 736
v -13.154 0.733 -26.411
v -10.144 0.745 -25.021
v -8.676 0.671 -28.199
v -11.686 0.667 -29.589
f 737 738 739 740
v -8.843 0.743 -24.955
v 40.387 0.719 -41.825
v 39.253 0.673 -45.135
v -9.977 0.668 -28.265
f 741 742 743 744
v 40.387 0.719 -41.824
v 62.187 0.716 -49.284
v 61.053 0.675 -52.596
v 39.253 0.673 -45.136
f 745 746 747 748
v 63.164 0.707 -50.115
v 64.414 0.707 -52.455
v 61.326 0.676 -54.105
v 60.076 0.680 -51.765
f 749 750 751 752
v 64.413 0.707 -52.454
v 79.583 0.627 -80.784
v 76.497 0.653 -82.436
v 61.327 0.676 -54.106
f 753 754 755 756
v 188.321 0.927 -105.073
v 167.201 0.808 -112.803
v 165.999 0.790 -109.517
v 187.119 0.956 -101.787
f 757 758 759 760
v 166.028 0.787 -112.814
v 164.178 0.768 -112.174
v 165.322 0.792 -108.866
v 167.172 0.798 -109.506
f 761 762 763 764
v 164.172 0.768 -112.172
v 112.402 0.833 -94.062
v 113.558 0.854 -90.758
v 165.328 0.792 -108.868
f 765 766 767 768
v 111.296 0.836 -91.935
v 114.776 0.757 -79.585
v 118.144 0.764 -80.535
v 114.664 0.846 -92.885
f 769 770 771 772
v 72.521 0.726 -207.215
v 76.011 0.787 -197.375
v 79.309 0.743 -198.545
v 75.819 0.722 -208.385
f 773 774 775 776
v 76.131 0.786 -197.108
v 77.101 0.772 -195.368
v 80.159 0.729 -197.072
v 79.189 0.744 -198.812
f 777 778 779 780
v 77.585 0.769 -194.817
v 79.035 0.766 -193.737
v 81.125 0.723 -196.543
v 79.675 0.737 -197.623
f 781 782 783 784
v 79.314 0.765 -193.567
v 110.924 0.735 -178.177
v 112.456 0.719 -181.323
v 80.846 0.726 -196.713
f 785 786 787 788
v 111.412 0.737 -178.022
v 113.962 0.754 -177.612
v 114.518 0.724 -181.068
v 111.968 0.715 -181.478
f 789 790 791 792
v 115.640 0.760 -178.290
v 117.680 0.759 -181.010
v 114.880 0.723 -183.110
v 112.840 0.726 -180.390
f 793 794 795 796
v 117.852 0.761 -181.290
v 130.812 0.704 -207.760
v 127.668 0.638 -209.300
v 114.708 0.722 -182.830
f 797 798 799 800
v 130.942 0.703 -208.122
v 131.632 0.694 -211.002
v 128.228 0.648 -211.818
v 127.538 0.637 -208.938
f 801 802 803 804
v 131.644 0.697 -211.762
v 130.994 0.702 -214.932
v 127.566 0.660 -214.228
v 128.216 0.642 -211.058
f 805 806 807 808
v 130.921 0.707 -215.188
v 126.821 0.691 -226.258
v 123.539 0.705 -225.042
v 127.639 0.659 -213.972
f 809 810 811 812
v 114.729 0.849 -92.358
v 114.959 0.864 -100.068
v 111.461 0.797 -100.172
v 111.231 0.833 -92.462
f 813 814 815 816
v 114.839 0.868 -99.480
v 116.559 0.862 -103.860
v 113.301 0.787 -105.140
v 111.581 0.794 -100.760
f 817 818 819 820
v 116.494 0.861 -103.715
v 129.484 0.757 -129.585
v 126.356 0.756 -131.155
v 113.366 0.786 -105.285
f 821 822 823 824
v 129.380 0.758 -129.405
v 131.060 0.750 -131.945
v 128.140 0.752 -133.875
v 126.460 0.756 -131.335
f 825 826 827 828
v 129.723 0.753 -131.164
v 131.993 0.744 -131.324
v 131.747 0.755 -134.816
v 129.477 0.753 -134.656
f 829 830 831 832
v 131.055 0.749 -131.521
v 160.815 0.750 -115.861
v 162.445 0.766 -118.959
v 132.685 0.752 -134.619
f 833 834 835 836
v 160.036 0.755 -116.688
v 163.156 0.776 -109.798
v 166.344 0.784 -111.242
v 163.224 0.775 -118.132
f 837 838 839 840
v 181.246 0.851 -146.153
v 209.176 0.999 -135.093
v 210.464 1.006 -138.347
v 182.534 0.765 -149.407
f 841 842 843 844
v 194.484 0.984 -232.136
v 181.534 0.787 -223.696
v 183.446 0.857 -220.764
v 196.396 1.018 -229.204
f 845 846 847 848
v 181.488 0.787 -223.665
v 172.758 0.801 -217.565
v 174.762 0.825 -214.695
v 183.492 0.857 -220.795
f 849 850 851 852
v 172.273 0.800 -217.053
v 163.373 0.814 -202.713
v 166.347 0.787 -200.867
v 175.247 0.825 -215.207
f 853 854 855 856
v 63.695 0.698 -54.823
v 34.385 0.629 -70.493
v 32.735 0.580 -67.407
v 62.045 0.693 -51.737
f 857 858 859 860
v 34.234 0.630 -70.565
v 13.134 0.633 -79.375
v 11.786 0.621 -76.145
v 32.886 0.579 -67.335
f 861 862 863 864
v 10.895 0.634 -78.543
v 1.895 0.587 -60.553
v 5.025 0.593 -58.987
v 14.025 0.622 -76.977
f 865 866 867 868
v 1.895 0.587 -60.552
v -13.985 0.676 -28.782
v -10.855 0.677 -27.218
v 5.025 0.593 -58.988
f 869 870 871 872
v 2.744 0.575 -58.173
v 39.104 0.710 -41.883
v 40.536 0.678 -45.077
v 4.176 0.582 -61.367
f 873 874 875 876
v -38.064 0.684 -46.259
v -13.624 0.637 -92.289
v -16.716 0.633 -93.931
v -41.156 0.646 -47.901
f 877 878 879 880
v -14.424 0.640 -94.693
v -33.684 0.639 -103.773
v -35.176 0.601 -100.607
v -15.916 0.634 -91.527
f 881 882 883 884
v -33.683 0.639 -103.773
v -63.873 0.726 -118.013
v -65.367 0.712 -114.847
v -35.177 0.601 -100.607
f 885 886 887 888
v -36.037 0.619 -102.884
v -49.897 0.700 -70.794
v -46.683 0.721 -69.406
v -32.823 0.619 -101.496
f 889 890 891 892
v 191.514 0.944 -107.658
v 186.784 0.887 -105.748
v 188.656 0.967 -101.112
v 193.386 0.939 -103.022
f 893 894 895 896
v 186.783 0.887 -105.748
v 166.603 0.913 -97.588
v 168.477 0.813 -92.952
v 188.657 0.967 -101.112
f 897 898 899 900
v 166.827 0.914 -97.666
v 115.747 0.804 -82.456
v 117.173 0.749 -77.664
v 168.253 0.811 -92.874
f 901 902 903 904
v 115.759 0.804 -82.460
v 114.389 0.810 -82.060
v 115.791 0.744 -77.260
v 117.161 0.749 -77.660
f 905 906 907 908
v 114.282 0.811 -82.026
v 94.382 0.683 -75.226
v 95.998 0.669 -70.494
v 115.898 0.744 -77.294
f 909 910 911 912
v 94.382 0.683 -75.226
v 91.602 0.669 -74.276
v 93.218 0.684 -69.544
v 95.998 0.669 -70.494
f 913 914 915 916
v 90.796 0.667 -73.820
v 83.826 0.728 -67.930
v 87.054 0.723 -64.110
v 94.024 0.678 -70.000
f 917 918 919 920
v 83.038 0.743 -66.713
v 81.048 0.813 -59.813
v 85.852 0.742 -58.427
v 87.842 0.715 -65.327
f 921 922 923 924
v 81.189 0.815 -58.053
v 87.919 0.742 -43.793
v 92.441 0.715 -45.927
v 85.711 0.740 -60.187
f 925 926 927 928
v 88.119 0.738 -43.445
v 91.159 0.684 -39.015
v 95.281 0.706 -41.845
v 92.241 0.715 -46.275
f 929 930 931 932
v -256.008 0.361 176.422
v -196.128 0.431 176.680
v -196.112 0.439 173.180
v -255.992 0.349 172.922
f 933 934 935 936
v -196.043 0.430 176.678
v -129.533 0.368 173.758
v -129.687 0.346 170.262
v -196.197 0.439 173.182
f 937 938 939 940
v -129.468 0.368 173.754
v -89.418 0.335 170.484
v -89.702 0.273 166.996
v -129.752 0.346 170.266
f 941 942 943 944
v -89.426 0.335 170.485
v -54.706 0.285 167.825
v -54.974 0.241 164.335
v -89.694 0.273 166.995
f 945 946 947 948
v -54.842 0.285 167.830
v -8.832 0.280 167.870
v -8.828 0.219 164.370
v -54.838 0.241 164.330
f 949 950 951 952
v -8.805 0.280 167.870
v 17.235 0.211 167.500
v 17.185 0.180 164.000
v -8.855 0.219 164.370
f 953 954 955 956
usemtl asphalt
v -255.923 0.741 236.513
v -28.603 0.802 235.360
v -28.757 0.768 204.860
v -256.077 0.755 206.014
f 957 958 959 960
v -28.600 0.802 235.360
v -13.340 0.789 235.280
v -13.500 0.747 204.780
v -28.760 0.768 204.860
f 961 962 963 964
v -13.326 0.789 235.280
v -5.256 0.725 235.230
v -5.444 0.701 204.730
v -13.514 0.747 204.780
f 965 966 967 968
v -0.510 0.605 201.395
v -0.100 0.627 238.665
v 9.900 0.569 238.555
v 9.490 0.692 201.285
f 969 970 971 972
v 4.911 0.500 243.610
v 109.501 0.429 243.370
v 109.479 0.510 233.370
v 4.889 0.719 233.610
f 973 974 975 976
v 114.490 0.317 238.378
v 114.520 0.342 219.468
v 104.520 1.220 219.452
v 104.490 0.547 238.362
f 977 978 979 980
v 114.517 0.340 219.300
v 113.877 0.344 199.310
v 103.883 0.588 199.630
v 104.523 1.218 219.620
f 981 982 983 984
v 108.790 0.386 194.471
v 4.400 0.461 196.341
v 4.580 0.748 206.339
v 108.970 0.516 204.469
f 985 986 987 988
v -5.327 0.882 224.980
v 109.543 0.574 224.460
v 109.497 0.614 214.460
v -5.373 0.829 214.980
f 989 990 991 992
v -4.270 0.569 255.962
v -4.420 0.870 219.992
v -22.420 0.928 220.068
v -22.270 0.685 256.038
f 993 994 995 996
