# Baked ultra-low Key West silhouette; generated by bake_key_west_far_city.py
mtllib far_city.mtl
usemtl massing
v -63.287 1.344 50.597
v -3.986 1.344 16.953
v 25.907 1.344 69.643
v -33.394 1.344 103.287
v -63.287 9.644 50.597
v -3.986 9.644 16.953
v 25.907 9.644 69.643
v -33.394 9.644 103.287
f 8 7 6 5
f 1 2 6 5
f 2 3 7 6
f 3 4 8 7
f 4 1 5 8
v 16.824 1.142 33.797
v 57.841 1.142 31.706
v 59.536 1.142 64.963
v 18.519 1.142 67.054
v 16.824 10.442 33.797
v 57.841 10.442 31.706
v 59.536 10.442 64.963
v 18.519 10.442 67.054
f 16 15 14 13
f 9 10 14 13
f 10 11 15 14
f 11 12 16 15
f 12 9 13 16
v 22.125 0.931 28.575
v 40.459 0.931 -6.322
v 56.995 0.931 2.365
v 38.661 0.931 37.262
v 22.125 10.231 28.575
v 40.459 10.231 -6.322
v 56.995 10.231 2.365
v 38.661 10.231 37.262
f 24 23 22 21
f 17 18 22 21
f 18 19 23 22
f 19 20 24 23
f 20 17 21 24
v 10.820 1.054 -70.662
v 55.308 1.054 -42.319
v 44.400 1.054 -25.198
v -0.088 1.054 -53.541
v 10.820 10.354 -70.662
v 55.308 10.354 -42.319
v 44.400 10.354 -25.198
v -0.088 10.354 -53.541
f 32 31 30 29
f 25 26 30 29
f 26 27 31 30
f 27 28 32 31
f 28 25 29 32
v 7.979 1.006 -3.777
v 19.311 1.006 -37.641
v 40.041 1.006 -30.703
v 28.709 1.006 3.161
v 7.979 10.306 -3.777
v 19.311 10.306 -37.641
v 40.041 10.306 -30.703
v 28.709 10.306 3.161
f 40 39 38 37
f 33 34 38 37
f 34 35 39 38
f 35 36 40 39
f 36 33 37 40
v 71.773 1.603 -84.733
v 74.976 1.603 -53.738
v 52.227 1.603 -51.387
v 49.024 1.603 -82.382
v 71.773 10.903 -84.733
v 74.976 10.903 -53.738
v 52.227 10.903 -51.387
v 49.024 10.903 -82.382
f 48 47 46 45
f 41 42 46 45
f 42 43 47 46
f 43 44 48 47
f 44 41 45 48
v 96.377 1.130 -66.648
v 98.250 1.130 -30.126
v 65.623 1.130 -28.452
v 63.750 1.130 -64.974
v 96.377 10.430 -66.648
v 98.250 10.430 -30.126
v 65.623 10.430 -28.452
v 63.750 10.430 -64.974
f 56 55 54 53
f 49 50 54 53
f 50 51 55 54
f 51 52 56 55
f 52 49 53 56
v 109.636 0.954 -59.739
v 128.066 0.954 -26.028
v 101.164 0.954 -11.321
v 82.734 0.954 -45.032
v 109.636 10.254 -59.739
v 128.066 10.254 -26.028
v 101.164 10.254 -11.321
v 82.734 10.254 -45.032
f 64 63 62 61
f 57 58 62 61
f 58 59 63 62
f 59 60 64 63
f 60 57 61 64
v 137.902 1.191 -22.288
v 140.350 1.191 -4.849
v 128.398 1.191 -3.172
v 125.950 1.191 -20.611
v 137.902 10.491 -22.288
v 140.350 10.491 -4.849
v 128.398 10.491 -3.172
v 125.950 10.491 -20.611
f 72 71 70 69
f 65 66 70 69
f 66 67 71 70
f 67 68 72 71
f 68 65 69 72
v 157.235 0.751 -70.553
v 221.587 0.751 -121.599
v 248.645 0.751 -87.487
v 184.293 0.751 -36.441
v 157.235 10.051 -70.553
v 221.587 10.051 -121.599
v 248.645 10.051 -87.487
v 184.293 10.051 -36.441
f 80 79 78 77
f 73 74 78 77
f 74 75 79 78
f 75 76 80 79
f 76 73 77 80
v 114.973 0.942 -67.888
v 191.733 0.942 -79.207
v 198.347 0.942 -34.352
v 121.587 0.942 -23.033
v 114.973 10.242 -67.888
v 191.733 10.242 -79.207
v 198.347 10.242 -34.352
v 121.587 10.242 -23.033
f 88 87 86 85
f 81 82 86 85
f 82 83 87 86
f 83 84 88 87
f 84 81 85 88
v -135.197 0.594 103.764
v -132.358 0.594 88.974
v -122.763 0.594 90.816
v -125.602 0.594 105.606
v -135.197 4.494 103.764
v -132.358 4.494 88.974
v -122.763 4.494 90.816
v -125.602 4.494 105.606
f 96 95 94 93
f 89 90 94 93
f 90 91 95 94
f 91 92 96 95
f 92 89 93 96
v -135.877 0.803 11.988
v -130.470 0.803 32.662
v -144.963 0.803 36.452
v -150.370 0.803 15.778
v -135.877 4.703 11.988
v -130.470 4.703 32.662
v -144.963 4.703 36.452
v -150.370 4.703 15.778
f 104 103 102 101
f 97 98 102 101
f 98 99 103 102
f 99 100 104 103
f 100 97 101 104
v -138.895 0.632 51.763
v -135.270 0.632 42.819
v -126.985 0.632 46.177
v -130.610 0.632 55.121
v -138.895 4.532 51.763
v -135.270 4.532 42.819
v -126.985 4.532 46.177
v -130.610 4.532 55.121
f 112 111 110 109
f 105 106 110 109
f 106 107 111 110
f 107 108 112 111
f 108 105 109 112
v -162.953 0.406 -29.204
v -131.564 0.406 -28.926
v -131.647 0.406 -19.536
v -163.036 0.406 -19.814
v -162.953 4.306 -29.204
v -131.564 4.306 -28.926
v -131.647 4.306 -19.536
v -163.036 4.306 -19.814
f 120 119 118 117
f 113 114 118 117
f 114 115 119 118
f 115 116 120 119
f 116 113 117 120
v -120.569 0.331 112.251
v -114.065 0.331 113.860
v -115.631 0.331 120.189
v -122.135 0.331 118.580
v -120.569 4.231 112.251
v -114.065 4.231 113.860
v -115.631 4.231 120.189
v -122.135 4.231 118.580
f 128 127 126 125
f 121 122 126 125
f 122 123 127 126
f 123 124 128 127
f 124 121 125 128
v -79.997 0.531 77.436
v -69.854 0.531 80.717
v -72.283 0.531 88.224
v -82.426 0.531 84.943
v -79.997 4.431 77.436
v -69.854 4.431 80.717
v -72.283 4.431 88.224
v -82.426 4.431 84.943
f 136 135 134 133
f 129 130 134 133
f 130 131 135 134
f 131 132 136 135
f 132 129 133 136
v -90.294 0.536 53.954
v -84.420 0.536 55.967
v -85.626 0.536 59.486
v -91.500 0.536 57.473
v -90.294 4.436 53.954
v -84.420 4.436 55.967
v -85.626 4.436 59.486
v -91.500 4.436 57.473
f 144 143 142 141
f 137 138 142 141
f 138 139 143 142
f 139 140 144 143
f 140 137 141 144
v -84.559 0.694 50.790
v -68.006 0.694 5.980
v -50.981 0.694 12.270
v -67.534 0.694 57.080
v -84.559 6.494 50.790
v -68.006 6.494 5.980
v -50.981 6.494 12.270
v -67.534 6.494 57.080
f 152 151 150 149
f 145 146 150 149
f 146 147 151 150
f 147 148 152 151
f 148 145 149 152
v -56.345 1.902 68.674
v -52.648 1.902 58.420
v -46.195 1.902 60.746
v -49.892 1.902 71.000
v -56.345 5.802 68.674
v -52.648 5.802 58.420
v -46.195 5.802 60.746
v -49.892 5.802 71.000
f 160 159 158 157
f 153 154 158 157
f 154 155 159 158
f 155 156 160 159
f 156 153 157 160
v -220.963 0.947 -35.509
v -168.815 0.947 -35.010
v -169.037 0.947 -11.811
v -221.185 0.947 -12.310
v -220.963 9.247 -35.509
v -168.815 9.247 -35.010
v -169.037 9.247 -11.811
v -221.185 9.247 -12.310
f 168 167 166 165
f 161 162 166 165
f 162 163 167 166
f 163 164 168 167
f 164 161 165 168
v 68.932 1.130 -80.435
v 84.423 1.130 -100.765
v 91.248 1.130 -95.565
v 75.757 1.130 -75.235
v 68.932 5.030 -80.435
v 84.423 5.030 -100.765
v 91.248 5.030 -95.565
v 75.757 5.030 -75.235
f 176 175 174 173
f 169 170 174 173
f 170 171 175 174
f 171 172 176 175
f 172 169 173 176
v 103.130 1.016 -88.242
v 125.948 1.016 -74.591
v 122.590 1.016 -68.978
v 99.772 1.016 -82.629
v 103.130 4.916 -88.242
v 125.948 4.916 -74.591
v 122.590 4.916 -68.978
v 99.772 4.916 -82.629
f 184 183 182 181
f 177 178 182 181
f 178 179 183 182
f 179 180 184 183
f 180 177 181 184
v -345.840 0.704 -68.617
v -163.864 0.704 -66.360
v -164.320 0.704 -29.623
v -346.296 0.704 -31.880
v -345.840 9.004 -68.617
v -163.864 9.004 -66.360
v -164.320 9.004 -29.623
v -346.296 9.004 -31.880
f 192 191 190 189
f 185 186 190 189
f 186 187 191 190
f 187 188 192 191
f 188 185 189 192
usemtl road
v 252.071 0.939 -48.606
v 237.921 0.969 -36.344
v 245.779 0.946 -27.276
v 259.929 0.881 -39.537
f 193 194 195 196
v 238.222 0.972 -36.589
v 223.472 1.035 -25.389
v 230.728 1.012 -15.831
v 245.478 0.949 -27.031
f 197 198 199 200
v 223.666 1.034 -25.530
v 213.306 1.072 -18.300
v 220.174 1.039 -8.460
v 230.534 1.014 -15.690
f 201 202 203 204
v 213.302 1.072 -18.297
v 204.792 1.113 -12.347
v 211.668 1.069 -2.513
v 220.178 1.040 -8.463
f 205 206 207 208
v 204.885 1.113 -12.411
v 171.685 1.119 9.889
v 178.375 1.104 19.851
v 211.575 1.069 -2.449
f 209 210 211 212
v 171.760 1.119 9.839
v 144.450 1.038 27.589
v 150.990 1.017 37.651
v 178.300 1.105 19.901
f 213 214 215 216
v 144.623 1.038 27.481
v 132.773 1.003 34.621
v 138.967 0.921 44.899
v 150.817 1.019 37.759
f 217 218 219 220
v 132.769 1.003 34.624
v 120.679 0.977 41.924
v 126.881 0.950 52.196
v 138.971 0.921 44.896
f 221 222 223 224
v 120.885 0.977 41.805
v 96.945 0.987 54.995
v 102.735 0.945 65.505
v 126.675 0.950 52.315
f 225 226 227 228
v 97.062 0.986 54.932
v 71.032 1.053 68.532
v 76.588 1.016 79.168
v 102.618 0.947 65.568
f 229 230 231 232
v 71.351 1.048 68.377
v 37.781 1.139 83.457
v 42.699 1.075 94.403
v 76.269 1.020 79.323
f 233 234 235 236
v 37.781 1.139 83.457
v 28.231 1.102 87.747
v 33.149 1.052 98.693
v 42.699 1.075 94.403
f 237 238 239 240
v -74.823 1.094 132.287
v -78.333 1.033 121.017
v -83.107 1.040 122.503
v -79.597 1.105 133.773
f 241 242 243 244
v -78.333 1.033 121.015
v -82.813 0.765 106.655
v -87.587 0.709 108.145
v -83.107 1.040 122.505
f 245 246 247 248
v -82.813 0.765 106.656
v -93.123 0.637 73.576
v -97.897 0.607 75.064
v -87.587 0.709 108.144
f 249 250 251 252
v -93.124 0.637 73.572
v -94.904 0.605 67.892
v -99.676 0.573 69.388
v -97.896 0.607 75.068
f 253 254 255 256
v -94.903 0.605 67.895
v -96.753 0.631 61.965
v -101.527 0.611 63.455
v -99.677 0.573 69.385
f 257 258 259 260
v -96.753 0.631 61.966
v -107.523 0.650 27.406
v -112.297 0.583 28.894
v -101.527 0.611 63.454
f 261 262 263 264
v -107.523 0.650 27.406
v -113.513 0.579 8.186
v -118.287 0.577 9.674
v -112.297 0.583 28.894
f 265 266 267 268
v -113.513 0.579 8.186
v -114.913 0.565 3.696
v -119.687 0.561 5.184
v -118.287 0.577 9.674
f 269 270 271 272
v -114.913 0.565 3.696
v -119.693 0.581 -11.644
v -124.467 0.605 -10.156
v -119.687 0.561 5.184
f 273 274 275 276
v -126.975 1.092 149.440
v -130.665 0.984 138.210
v -135.415 0.951 139.770
v -131.725 1.047 151.000
f 277 278 279 280
v -130.648 0.985 138.262
v -148.528 0.876 79.482
v -153.312 0.880 80.938
v -135.432 0.950 139.718
f 281 282 283 284
v -210.342 0.718 90.193
v -189.822 0.796 88.643
v -190.198 0.756 83.657
v -210.718 0.874 85.207
f 285 286 287 288
v -189.711 0.797 88.632
v -159.971 0.935 85.052
v -160.569 0.865 80.088
v -190.309 0.757 83.668
f 289 290 291 292
v -159.658 0.942 84.994
v -150.308 0.870 82.634
v -151.532 0.896 77.786
v -160.882 0.865 80.146
f 293 294 295 296
v -148.530 0.876 79.476
v -151.120 0.924 71.046
v -155.900 0.950 72.514
v -153.310 0.880 80.944
f 297 298 299 300
v -151.211 0.922 70.799
v -161.541 1.042 46.589
v -166.139 0.997 48.551
v -155.809 0.949 72.761
f 301 302 303 304
v -161.594 1.042 46.471
v -168.864 1.037 31.611
v -173.356 0.966 33.809
v -166.086 0.998 48.669
f 305 306 307 308
v -168.864 1.037 31.611
v -172.774 1.037 23.621
v -177.266 0.955 25.819
v -173.356 0.966 33.809
f 309 310 311 312
v -173.143 1.041 23.069
v -182.703 1.053 12.199
v -186.457 0.906 15.501
v -176.897 0.957 26.371
f 313 314 315 316
v -183.219 1.055 11.753
v -185.099 1.047 10.533
v -187.821 0.903 14.727
v -185.941 0.905 15.947
f 317 318 319 320
v -185.090 1.047 10.539
v -193.650 1.026 4.929
v -196.390 0.923 9.111
v -187.830 0.903 14.721
f 321 322 323 324
v -194.030 1.024 4.724
v -208.410 1.018 -1.476
v -210.390 0.921 3.116
v -196.010 0.921 9.316
f 325 326 327 328
v -209.321 1.019 -1.679
v -234.031 1.036 -2.459
v -234.189 0.997 2.539
v -209.479 0.917 3.319
f 329 330 331 332
v -234.129 1.036 -2.460
v -256.019 1.020 -2.292
v -255.981 0.975 2.708
v -234.091 0.997 2.540
f 333 334 335 336
v -149.976 0.869 82.525
v -147.326 0.877 81.445
v -149.214 0.895 76.815
v -151.864 0.896 77.895
f 337 338 339 340
v -147.479 0.877 81.502
v -134.619 0.651 77.212
v -136.201 0.769 72.468
v -149.061 0.895 76.758
f 341 342 343 344
v -134.617 0.651 77.211
v -98.347 0.599 65.081
v -99.933 0.627 60.339
v -136.203 0.769 72.469
f 345 346 347 348
v -149.885 0.888 78.799
v -170.025 1.214 64.029
v -172.095 1.185 66.851
v -151.955 0.875 81.621
f 349 350 351 352
v -170.290 1.220 63.868
v -184.910 1.003 56.708
v -186.450 0.993 59.852
v -171.830 1.179 67.012
f 353 354 355 356
v -185.329 0.996 56.566
v -197.869 0.976 53.996
v -198.571 0.988 57.424
v -186.031 1.002 59.994
f 357 358 359 360
v -198.225 0.978 53.960
v -226.755 1.067 54.040
v -226.745 1.022 57.540
v -198.215 0.985 57.460
f 361 362 363 364
v 218.205 1.028 -14.337
v 211.135 0.991 -25.157
v 208.205 0.983 -23.243
v 215.275 1.048 -12.423
f 365 366 367 368
v 211.122 0.992 -25.176
v 206.732 1.062 -31.706
v 203.828 1.059 -29.754
v 208.218 0.982 -23.224
f 369 370 371 372
v 206.726 1.062 -31.716
v 206.576 1.064 -31.936
v 203.684 1.059 -29.964
v 203.834 1.059 -29.744
f 373 374 375 376
v 206.556 1.064 -31.964
v 175.506 1.296 -75.634
v 172.654 1.277 -73.606
v 203.704 1.059 -29.936
f 377 378 379 380
v 175.282 1.294 -75.892
v 168.632 1.212 -82.172
v 166.228 1.273 -79.628
v 172.878 1.275 -73.348
f 381 382 383 384
v 167.729 1.206 -82.624
v 150.039 1.216 -85.694
v 149.441 1.269 -82.246
v 167.131 1.273 -79.176
f 385 386 387 388
v 148.887 1.216 -85.498
v 123.997 1.301 -71.598
v 125.703 1.336 -68.542
v 150.593 1.283 -82.442
f 389 390 391 392
v 123.989 1.301 -71.593
v 95.489 1.402 -55.483
v 97.211 1.447 -52.437
v 125.711 1.336 -68.547
f 393 394 395 396
v 97.740 1.405 -55.023
v 79.080 1.731 -79.423
v 76.300 1.744 -77.297
v 94.960 1.441 -52.897
f 397 398 399 400
v 79.080 1.731 -79.424
v 74.540 1.875 -85.354
v 71.760 1.910 -83.226
v 76.300 1.744 -77.296
f 401 402 403 404
v 74.282 1.878 -85.624
v 68.332 1.999 -90.674
v 66.068 2.008 -88.006
v 72.018 1.901 -82.956
f 405 406 407 408
v 67.630 2.008 -91.036
v 63.530 2.023 -92.076
v 62.670 2.019 -88.684
v 66.770 2.002 -87.644
f 409 410 411 412
v 62.993 2.021 -92.127
v 59.903 1.997 -91.937
v 60.117 2.031 -88.443
v 63.207 2.020 -88.633
f 413 414 415 416
v 59.203 1.986 -91.743
v 55.683 1.931 -89.913
v 57.297 2.047 -86.807
v 60.817 2.025 -88.637
f 417 418 419 420
v 55.514 1.928 -89.813
v 45.224 1.723 -82.903
v 47.176 1.728 -79.997
v 57.466 2.046 -86.907
f 421 422 423 424
v 45.290 1.724 -82.945
v 31.310 1.526 -74.435
v 33.130 1.540 -71.445
v 47.110 1.725 -79.955
f 425 426 427 428
v 31.385 1.526 -74.478
v -5.775 1.350 -54.308
v -4.105 1.376 -51.232
v 33.055 1.540 -71.402
f 429 430 431 432
v -5.823 1.350 -54.281
v -26.483 1.267 -42.211
v -24.717 1.269 -39.189
v -4.057 1.377 -51.259
f 433 434 435 436
v -27.154 1.248 -39.896
v -9.734 1.404 -6.226
v -6.626 1.460 -7.834
v -24.046 1.262 -41.504
f 437 438 439 440
v -9.723 1.404 -6.204
v -4.993 1.482 2.626
v -1.907 1.467 0.974
v -6.637 1.460 -7.856
f 441 442 443 444
v -4.525 1.490 3.181
v 8.405 1.561 13.241
v 10.555 1.610 10.479
v -2.375 1.467 0.419
f 445 446 447 448
v 8.144 1.559 12.990
v 12.204 1.586 17.790
v 14.876 1.636 15.530
v 10.816 1.614 10.730
f 449 450 451 452
v 11.999 1.584 17.489
v 15.399 1.632 23.809
v 18.481 1.698 22.151
v 15.081 1.639 15.831
f 453 454 455 456
v 15.307 1.625 22.351
v 12.967 1.599 28.421
v 16.233 1.654 29.679
v 18.573 1.686 23.609
f 457 458 459 460
v 13.594 1.610 27.618
v 0.234 1.473 36.998
v 2.246 1.502 39.862
v 15.606 1.646 30.482
f 461 462 463 464
v -0.303 1.507 39.256
v 23.327 1.081 83.396
v 26.413 1.102 81.744
v 2.783 1.489 37.604
f 465 466 467 468
v 23.334 1.080 83.409
v 29.154 1.140 94.059
v 32.226 1.151 92.381
v 26.406 1.102 81.731
f 469 470 471 472
v 254.284 0.890 -75.190
v 252.364 0.896 -75.150
v 252.436 0.916 -71.650
v 254.356 0.908 -71.690
f 473 474 475 476
v 252.354 0.896 -75.149
v 250.064 0.902 -75.089
v 250.156 0.930 -71.591
v 252.446 0.916 -71.651
f 477 478 479 480
v 250.359 0.901 -75.072
v 247.439 0.908 -75.492
v 246.941 0.969 -72.028
v 249.861 0.933 -71.608
f 481 482 483 484
v 248.197 0.911 -75.191
v 245.697 0.883 -76.951
v 243.683 0.970 -74.089
v 246.183 0.969 -72.329
f 485 486 487 488
v 245.827 0.883 -76.850
v 239.137 0.884 -82.570
v 236.863 0.975 -79.910
v 243.553 0.971 -74.190
f 489 490 491 492
v 238.774 0.890 -82.809
v 225.174 0.946 -89.519
v 223.626 0.975 -86.381
v 237.226 0.975 -79.671
f 493 494 495 496
v 224.629 0.948 -89.685
v 211.739 1.041 -91.385
v 211.281 1.091 -87.915
v 224.171 0.973 -86.215
f 497 498 499 500
v 212.912 1.036 -90.697
v 187.292 0.954 -125.007
v 184.488 0.984 -122.913
v 210.108 1.090 -88.603
f 501 502 503 504
v 184.983 0.963 -125.457
v 166.853 0.806 -114.477
v 168.667 0.872 -111.483
v 186.797 0.977 -122.463
f 505 506 507 508
v 256.807 0.871 -89.564
v 249.257 0.860 -100.674
v 246.363 0.817 -98.706
v 253.913 0.769 -87.596
f 509 510 511 512
v 249.328 0.861 -100.561
v 235.798 0.963 -124.141
v 232.762 0.912 -122.399
v 246.292 0.817 -98.819
f 513 514 515 516
v 235.880 0.961 -123.978
v 232.550 1.013 -131.508
v 229.350 0.947 -130.092
v 232.680 0.914 -122.562
f 517 518 519 520
v 232.676 1.014 -131.089
v 232.196 1.005 -133.959
v 228.744 0.936 -133.381
v 229.224 0.944 -130.511
f 521 522 523 524
v 232.194 1.006 -133.368
v 233.004 1.012 -137.998
v 229.556 0.933 -138.602
v 228.746 0.935 -133.972
f 525 526 527 528
v 232.807 1.010 -137.446
v 235.017 1.025 -141.396
v 231.963 0.930 -143.104
v 229.753 0.934 -139.154
f 529 530 531 532
v 234.802 1.024 -141.092
v 257.312 1.001 -166.586
v 254.688 0.952 -168.903
v 232.178 0.930 -143.408
f 533 534 535 536
v -224.850 1.017 72.596
v -224.870 0.986 62.686
v -228.370 0.991 62.694
v -228.350 1.022 72.604
f 537 538 539 540
v -224.870 0.986 62.657
v -225.000 1.015 55.757
v -228.500 1.073 55.823
v -228.370 0.991 62.723
f 541 542 543 544
v -198.634 1.019 70.620
v -226.614 1.013 70.850
v -226.586 1.030 74.350
v -198.606 1.119 74.120
f 545 546 547 548
v -197.583 0.966 45.492
v -199.413 1.042 43.692
v -201.867 0.982 46.188
v -200.037 0.921 47.988
f 549 550 551 552
v -198.952 1.012 44.480
v -199.762 1.113 41.510
v -203.138 1.103 42.430
v -202.328 1.004 45.400
f 553 554 555 556
v -199.700 1.099 41.980
v -199.660 1.043 34.810
v -203.160 1.093 34.790
v -203.200 1.118 41.960
f 557 558 559 560
v -199.759 1.064 35.380
v -197.959 0.885 30.260
v -201.261 0.882 29.100
v -203.061 1.070 34.220
f 561 562 563 564
v -198.224 0.892 30.749
v -185.074 0.964 13.699
v -187.846 0.970 11.561
v -200.996 0.875 28.611
f 565 566 567 568
v -162.723 1.022 46.223
v -170.103 0.979 40.103
v -172.337 0.940 42.797
v -164.957 1.011 48.917
f 569 570 571 572
v -170.038 0.980 40.160
v -172.308 0.956 38.080
v -174.672 0.917 40.660
v -172.402 0.939 42.740
f 573 574 575 576
v -172.755 0.950 37.782
v -175.565 0.928 36.482
v -177.035 0.919 39.658
v -174.225 0.919 40.958
f 577 578 579 580
v -176.091 0.925 36.333
v -179.161 0.909 35.963
v -179.579 0.924 39.437
v -176.509 0.918 39.807
f 581 582 583 584
v -179.698 0.907 35.981
v -182.738 0.919 36.561
v -182.082 0.933 39.999
v -179.042 0.922 39.419
f 585 586 587 588
v -183.262 0.927 36.751
v -192.862 1.042 42.101
v -191.158 1.014 45.159
v -181.558 0.932 39.809
f 589 590 591 592
v -192.782 1.041 42.060
v -198.842 0.990 45.040
v -197.298 0.909 48.180
v -191.238 1.016 45.200
f 593 594 595 596
v -198.373 0.992 44.886
v -199.113 0.992 45.016
v -198.507 0.905 48.464
v -197.767 0.907 48.334
f 597 598 599 600
v -198.857 0.992 44.991
v -204.797 1.068 45.151
v -204.703 1.003 48.649
v -198.763 0.904 48.489
f 601 602 603 604
v -221.946 1.027 18.540
v -216.226 1.044 18.460
v -216.274 1.075 14.960
v -221.994 1.070 15.040
f 605 606 607 608
v -218.000 1.050 16.733
v -217.770 1.115 33.933
v -214.270 1.136 33.887
v -214.500 1.071 16.687
f 609 610 611 612
v -216.041 1.104 32.160
v -221.761 1.083 32.230
v -221.719 1.122 35.730
v -215.999 1.146 35.660
f 613 614 615 616
v -169.381 1.030 32.982
v -167.901 1.005 23.562
v -171.359 1.048 23.018
v -172.839 0.983 32.438
f 617 618 619 620
v -167.897 1.002 23.047
v -168.937 0.951 15.617
v -172.403 1.015 16.103
v -171.363 1.044 23.533
f 621 622 623 624
v -169.128 0.947 15.032
v -173.638 0.955 6.632
v -176.722 1.023 8.288
v -172.212 1.016 16.688
f 625 626 627 628
v -173.949 0.960 6.216
v -179.019 0.966 1.196
v -181.481 1.022 3.684
v -176.411 1.021 8.704
f 629 630 631 632
v -179.492 0.965 0.863
v -186.462 0.926 -2.487
v -187.978 1.001 0.667
v -181.008 1.024 4.017
f 633 634 635 636
v -186.999 0.927 -2.646
v -194.869 0.986 -3.646
v -195.311 1.034 -0.174
v -187.441 1.001 0.826
f 637 638 639 640
v -195.418 0.992 -3.629
v -209.728 0.993 -0.899
v -209.072 0.926 2.539
v -194.762 1.030 -0.191
f 641 642 643 644
v -250.917 0.718 97.233
v -239.537 0.699 102.963
v -237.963 0.680 99.837
v -249.343 0.679 94.107
f 645 646 647 648
v -240.091 0.698 102.524
v -231.301 0.680 113.014
v -228.619 0.686 110.766
v -237.409 0.696 100.276
f 649 650 651 652
v -231.301 0.680 113.014
v -226.271 0.647 119.014
v -223.589 0.604 116.766
v -228.619 0.686 110.766
f 653 654 655 656
v -226.239 0.648 119.051
v -221.779 0.710 124.081
v -219.161 0.645 121.759
v -223.621 0.604 116.729
f 657 658 659 660
v -221.320 0.705 124.450
v -213.600 0.656 128.740
v -211.900 0.624 125.680
v -219.620 0.631 121.390
f 661 662 663 664
v -230.634 0.687 110.275
v -239.164 0.923 113.835
v -237.816 0.890 117.065
v -229.286 0.671 113.505
f 665 666 667 668
v -230.469 0.674 113.564
v -224.939 0.603 115.244
v -223.921 0.655 111.896
v -229.451 0.693 110.216
f 669 670 671 672
v -224.181 0.609 115.302
v -215.541 0.648 114.062
v -216.039 0.673 110.598
v -224.679 0.650 111.838
f 673 674 675 676
v 2.781 1.488 37.601
v -8.519 1.130 16.601
v -11.601 1.163 18.259
v -0.301 1.507 39.259
f 677 678 679 680
v -131.229 1.056 144.522
v -194.449 0.873 165.372
v -190.691 1.069 176.768
v -127.471 1.027 155.918
f 681 682 683 684
v -194.030 0.875 165.250
v -215.630 0.785 170.670
v -212.710 1.071 182.310
v -191.110 1.075 176.890
f 685 686 687 688
v -215.499 0.786 170.639
v -235.669 0.763 175.219
v -233.011 1.059 186.921
v -212.841 1.071 182.341
f 689 690 691 692
v -234.998 0.763 175.106
v -256.658 0.829 177.497
v -255.342 1.138 189.425
v -233.682 1.056 187.034
f 693 694 695 696
v -10.661 1.142 15.786
v -51.161 0.531 30.586
v -49.959 0.578 33.874
v -9.459 1.132 19.074
f 697 698 699 700
v -48.928 0.559 31.599
v -55.598 0.488 14.349
v -58.862 0.475 15.611
v -52.192 0.549 32.861
f 701 702 703 704
v -55.591 0.488 14.367
v -61.821 0.694 -2.293
v -65.099 0.695 -1.067
v -58.869 0.475 15.593
f 705 706 707 708
v -62.845 0.614 -0.042
v -33.425 1.094 -11.092
v -34.655 1.122 -14.368
v -64.075 0.771 -3.318
f 709 710 711 712
v -35.584 1.045 -11.906
v -26.554 1.037 5.024
v -23.466 1.169 3.376
v -32.496 1.172 -13.554
f 713 714 715 716
v -26.170 1.042 5.511
v -11.220 1.161 18.741
v -8.900 1.129 16.119
v -23.850 1.162 2.889
f 717 718 719 720
v -25.565 1.104 2.540
v -57.785 0.477 13.320
v -56.675 0.473 16.640
v -24.455 1.085 5.860
f 721 722 723 724
v -84.654 0.738 109.063
v -39.704 0.975 94.293
v -40.796 0.926 90.967
v -85.746 0.730 105.737
f 725 726 727 728
v -38.622 0.952 91.987
v -44.542 0.961 76.997
v -47.798 0.945 78.283
v -41.878 0.955 93.273
f 729 730 731 732
v -44.542 0.961 76.998
v -46.012 1.352 73.268
v -49.268 1.293 74.552
v -47.798 0.945 78.282
f 733 734 735 736
v -89.462 0.688 67.752
v -71.032 0.768 61.302
v -72.188 0.773 57.998
v -90.618 0.651 64.448
f 737 738 739 740
v -69.960 0.769 59.067
v -80.000 1.009 30.667
v -83.300 0.985 31.833
v -73.260 0.754 60.233
f 741 742 743 744
v -80.992 1.004 29.628
v -93.692 0.926 24.478
v -95.008 0.865 27.722
v -82.308 0.986 32.872
f 745 746 747 748
v -94.184 0.917 24.358
v -101.444 0.794 23.668
v -101.776 0.807 27.152
v -94.516 0.873 27.842
f 749 750 751 752
v -102.159 0.789 23.748
v -110.459 0.630 26.488
v -109.361 0.616 29.812
v -101.061 0.827 27.072
f 753 754 755 756
v -92.525 0.937 1.157
v -87.895 0.990 -9.513
v -91.105 0.905 -10.907
v -95.735 0.886 -0.237
f 757 758 759 760
v -126.943 0.643 5.683
v -133.013 0.798 7.623
v -131.947 0.827 10.957
v -125.877 0.634 9.017
f 761 762 763 764
v -133.012 0.798 7.623
v -155.432 0.836 14.773
v -154.368 0.885 18.107
v -131.948 0.827 10.957
f 765 766 767 768
v -156.560 0.870 16.994
v -148.030 0.873 42.564
v -144.710 0.912 41.456
v -153.240 0.843 15.886
f 769 770 771 772
v -148.030 0.873 42.563
v -141.310 0.811 62.723
v -137.990 0.873 61.617
v -144.710 0.912 41.457
f 773 774 775 776
v -141.308 0.811 62.730
v -140.518 0.799 65.070
v -137.202 0.841 63.950
v -137.992 0.873 61.610
f 777 778 779 780
v -140.520 0.799 65.064
v -137.070 0.785 75.394
v -133.750 0.780 74.286
v -137.200 0.841 63.956
f 781 782 783 784
v -137.737 1.010 45.812
v -134.727 0.997 54.192
v -131.433 0.998 53.008
v -134.443 1.017 44.628
f 785 786 787 788
v -133.508 0.940 40.412
v -134.428 0.867 37.782
v -137.732 0.890 38.938
v -136.812 0.949 41.568
f 789 790 791 792
v -135.547 0.914 40.027
v -123.547 0.772 36.187
v -124.613 0.759 32.853
v -136.613 0.864 36.693
f 793 794 795 796
v -122.420 0.724 33.967
v -130.820 0.759 8.737
v -134.140 0.861 9.843
v -125.740 0.783 35.073
f 797 798 799 800
v -136.665 0.864 36.711
v -146.955 0.898 40.361
v -145.785 0.891 43.659
v -135.495 0.914 40.009
f 801 802 803 804
v -139.105 0.817 63.833
v -128.735 0.830 60.433
v -129.825 0.923 57.107
v -140.195 0.855 60.507
f 805 806 807 808
v -127.535 0.847 58.908
v -127.015 0.968 52.338
v -130.505 0.998 52.062
v -131.025 0.899 58.632
f 809 810 811 812
v -134.490 0.992 54.636
v -130.690 0.865 59.806
v -127.870 0.881 57.734
v -131.670 1.001 52.564
f 813 814 815 816
v -127.100 0.969 51.645
v -129.960 0.986 43.095
v -133.280 1.015 44.205
v -130.420 0.997 52.755
f 817 818 819 820
v -130.569 0.984 42.251
v -134.109 0.910 39.591
v -136.211 0.973 42.389
v -132.671 1.030 45.049
f 821 822 823 824
v -136.869 0.925 40.614
v -137.799 1.002 44.844
v -134.381 1.029 45.596
v -133.451 0.966 41.366
f 825 826 827 828
v -122.353 0.596 -12.629
v -164.903 0.672 -5.919
v -164.357 0.663 -2.461
v -121.807 0.575 -9.171
f 829 830 831 832
v -96.048 0.614 72.655
v -112.698 0.825 78.035
v -111.622 0.844 81.365
v -94.972 0.624 75.985
f 833 834 835 836
v -112.698 0.825 78.035
v -139.388 0.913 86.665
v -138.312 0.920 89.995
v -111.622 0.844 81.365
f 837 838 839 840
v -140.511 0.886 88.881
v -132.741 0.707 112.281
v -129.419 0.756 111.179
v -137.189 0.907 87.779
f 841 842 843 844
v -132.741 0.707 112.281
v -129.311 0.698 122.621
v -125.989 0.687 121.519
v -129.419 0.756 111.179
f 845 846 847 848
v -128.071 0.718 123.769
v -122.061 0.739 125.259
v -121.219 0.699 121.861
v -127.229 0.692 120.371
f 849 850 851 852
v -121.129 0.734 125.234
v -98.689 0.701 118.384
v -99.711 0.689 115.036
v -122.151 0.700 121.886
f 853 854 855 856
v -97.542 0.681 116.151
v -102.242 0.797 102.211
v -105.558 0.854 103.329
v -100.858 0.685 117.269
f 857 858 859 860
v -102.252 0.797 102.180
v -110.512 0.778 79.110
v -113.808 0.876 80.290
v -105.548 0.853 103.360
f 861 862 863 864
v -130.532 0.721 113.392
v -103.352 0.815 104.432
v -104.448 0.846 101.108
v -131.628 0.731 110.068
f 865 866 867 868
v -117.832 0.557 2.773
v -126.942 0.643 5.683
v -125.878 0.634 9.017
v -116.768 0.570 6.107
f 869 870 871 872
v -108.911 0.624 4.666
v -116.471 0.577 7.276
v -115.329 0.598 10.584
v -107.769 0.687 7.974
f 873 874 875 876
v -96.711 0.596 70.292
v -89.461 0.688 67.752
v -90.619 0.651 64.448
v -97.869 0.581 66.988
f 877 878 879 880
v -94.797 0.898 -1.158
v -109.007 0.623 4.702
v -107.673 0.687 7.938
v -93.463 0.915 2.078
f 881 882 883 884
v 28.234 1.102 87.746
v 6.304 1.030 97.586
v 11.216 1.000 108.534
v 33.146 1.052 98.694
f 885 886 887 888
v 6.675 1.031 97.434
v -33.175 0.949 112.204
v -29.005 0.883 123.456
v 10.845 0.998 108.686
f 889 890 891 892
v -32.968 0.949 112.132
v -79.088 1.111 127.332
v -75.332 1.013 138.728
v -29.212 0.885 123.528
f 893 894 895 896
v -79.061 1.111 127.323
v -115.841 1.138 139.253
v -112.139 1.053 150.667
v -75.359 1.013 138.737
f 897 898 899 900
v -115.934 1.138 139.284
v -131.294 1.056 144.544
v -127.406 1.027 155.896
v -112.046 1.054 150.636
f 901 902 903 904
v 67.070 2.069 -77.638
v 77.520 1.703 -76.618
v 77.860 1.750 -80.102
v 67.410 2.105 -81.122
f 905 906 907 908
v 46.028 1.693 -79.708
v 57.078 2.108 -78.618
v 57.422 2.168 -82.102
v 46.372 1.739 -83.192
f 909 910 911 912
v 57.079 2.108 -78.618
v 67.069 2.069 -77.638
v 67.411 2.105 -81.122
v 57.421 2.168 -82.102
f 913 914 915 916
usemtl asphalt
v -82.680 0.694 -170.240
v -82.670 0.632 -179.700
v -100.670 0.522 -179.720
v -100.680 0.580 -170.260
f 917 918 919 920
v -82.723 0.639 -178.733
v -82.353 0.620 -182.123
v -100.247 0.559 -184.077
v -100.617 0.534 -180.687
f 921 922 923 924
v -82.944 0.629 -179.757
v -81.224 0.634 -184.057
v -97.936 0.591 -190.743
v -99.656 0.559 -186.443
f 925 926 927 928
v -82.443 0.620 -181.917
v -80.653 0.640 -184.247
v -94.927 0.648 -195.213
v -96.717 0.616 -192.883
f 929 930 931 932
v -81.177 0.635 -183.625
v -79.257 0.647 -185.705
v -92.483 0.657 -197.915
v -94.403 0.659 -195.835
f 933 934 935 936
v -80.541 0.640 -184.557
v -78.091 0.647 -186.357
v -88.749 0.620 -200.863
v -91.199 0.643 -199.063
f 937 938 939 940
v -79.423 0.647 -185.546
v -76.013 0.644 -187.236
v -84.007 0.581 -203.364
v -87.417 0.604 -201.674
f 941 942 943 944
v -77.846 0.646 -186.564
v -73.526 0.650 -187.634
v -77.854 0.548 -205.106
v -82.174 0.571 -204.036
f 945 946 947 948
v -246.228 0.599 -187.029
v -242.748 0.574 -185.859
v -237.012 0.605 -202.921
v -240.492 0.554 -204.091
f 949 950 951 952
v -243.165 0.576 -186.011
v -239.365 0.563 -184.521
v -232.795 0.662 -201.279
v -236.595 0.611 -202.769
f 953 954 955 956
v -241.853 0.572 -185.995
v -239.353 0.558 -183.905
v -227.807 0.701 -197.715
v -230.307 0.680 -199.805
f 957 958 959 960
v -239.819 0.561 -184.323
v -237.199 0.529 -181.803
v -224.721 0.705 -194.777
v -227.341 0.710 -197.297
f 961 962 963 964
v -238.624 0.553 -183.572
v -236.494 0.507 -180.112
v -221.166 0.592 -189.548
v -223.296 0.666 -193.008
f 965 966 967 968
v -237.424 0.533 -182.158
v -236.314 0.482 -178.588
v -219.126 0.524 -183.932
v -220.236 0.554 -187.502
f 969 970 971 972
v -236.574 0.501 -179.646
v -236.184 0.457 -177.506
v -218.476 0.488 -180.734
v -218.866 0.500 -182.874
f 973 974 975 976
v -236.330 0.494 -179.120
v -236.330 0.405 -169.720
v -218.330 0.428 -169.720
v -218.330 0.489 -179.120
f 977 978 979 980
v -218.455 0.453 -177.626
v -218.115 0.491 -179.646
v -235.865 0.538 -182.634
v -236.205 0.513 -180.614
f 981 982 983 984
v -218.398 0.475 -178.461
v -217.528 0.505 -181.251
v -234.712 0.567 -186.609
v -235.582 0.547 -183.819
f 985 986 987 988
v -217.842 0.496 -180.397
v -217.172 0.510 -181.967
v -233.728 0.590 -189.033
v -234.398 0.576 -187.463
f 989 990 991 992
v -217.484 0.506 -181.312
v -216.664 0.513 -182.872
v -232.596 0.642 -191.248
v -233.416 0.605 -189.688
f 993 994 995 996
v -217.389 0.508 -181.715
v -216.149 0.517 -183.395
v -230.631 0.694 -194.085
v -231.871 0.664 -192.405
f 997 998 999 1000
v -216.619 0.513 -182.811
v -215.139 0.517 -184.501
v -228.681 0.706 -196.359
v -230.161 0.703 -194.669
f 1001 1002 1003 1004
v -216.102 0.518 -183.555
v -214.492 0.520 -184.915
v -226.108 0.696 -198.665
v -227.718 0.708 -197.305
f 1005 1006 1007 1008
v -215.283 0.518 -184.318
v -213.153 0.542 -185.748
v -223.187 0.663 -200.692
v -225.317 0.692 -199.262
f 1009 1010 1011 1012
v -214.274 0.524 -185.107
v -211.754 0.560 -186.317
v -219.546 0.631 -202.543
v -222.066 0.652 -201.333
f 1013 1014 1015 1016
v -212.447 0.550 -186.019
v -209.427 0.595 -187.169
v -215.833 0.586 -203.991
v -218.853 0.626 -202.841
f 1017 1018 1019 1020
v -176.655 0.607 -186.955
v -172.815 0.585 -186.335
v -169.945 0.613 -204.105
v -173.785 0.601 -204.725
f 1021 1022 1023 1024
v -174.346 0.598 -186.723
v -171.596 0.579 -185.763
v -165.664 0.644 -202.757
v -168.414 0.621 -203.717
f 1025 1026 1027 1028
v -173.246 0.588 -186.534
v -170.116 0.562 -184.664
v -160.884 0.688 -200.116
v -164.014 0.654 -201.986
f 1029 1030 1031 1032
v -171.364 0.577 -185.562
v -168.744 0.539 -183.312
v -157.016 0.709 -196.968
v -159.636 0.697 -199.218
f 1033 1034 1035 1036
v -170.128 0.564 -184.804
v -167.338 0.498 -181.014
v -152.842 0.630 -191.686
v -155.632 0.683 -195.476
f 1037 1038 1039 1040
v -168.490 0.533 -183.118
v -167.120 0.487 -179.558
v -150.320 0.550 -186.022
v -151.690 0.598 -189.582
f 1041 1042 1043 1044
v -167.367 0.495 -180.295
v -166.507 0.441 -177.315
v -149.213 0.500 -182.305
v -150.073 0.541 -185.285
f 1045 1046 1047 1048
v -148.880 0.370 -170.032
v -148.860 0.462 -179.792
v -166.860 0.485 -179.828
v -166.880 0.419 -170.068
f 1049 1050 1051 1052
v -149.089 0.407 -177.792
v -148.369 0.476 -180.922
v -165.911 0.549 -184.958
v -166.631 0.499 -181.828
f 1053 1054 1055 1056
v -148.851 0.456 -179.434
v -147.451 0.503 -182.744
v -164.029 0.636 -189.756
v -165.429 0.569 -186.446
f 1057 1058 1059 1060
v -148.450 0.477 -180.972
v -146.220 0.515 -184.052
v -160.800 0.704 -194.608
v -163.030 0.660 -191.528
f 1061 1062 1063 1064
v -146.928 0.509 -183.192
v -144.578 0.536 -185.712
v -157.742 0.702 -197.988
v -160.092 0.718 -195.468
f 1065 1066 1067 1068
v -145.911 0.523 -184.539
v -142.791 0.547 -186.779
v -153.289 0.645 -201.401
v -156.409 0.672 -199.161
f 1069 1070 1071 1072
v -145.139 0.535 -185.570
v -139.529 0.554 -187.480
v -145.331 0.546 -204.520
v -150.941 0.621 -202.610
f 1073 1074 1075 1076
v -22.110 0.656 -217.720
v -22.110 0.641 -213.540
v -4.110 0.479 -213.540
v -4.110 0.472 -217.720
f 1077 1078 1079 1080
v -21.912 0.642 -215.415
v -22.762 0.648 -211.425
v -5.158 0.467 -207.675
v -4.308 0.471 -211.665
f 1081 1082 1083 1084
v -22.325 0.643 -212.871
v -23.675 0.659 -209.471
v -6.945 0.470 -202.829
v -5.595 0.469 -206.229
f 1085 1086 1087 1088
v -22.625 0.647 -211.393
v -25.435 0.682 -207.473
v -10.805 0.436 -196.987
v -7.995 0.462 -200.907
f 1089 1090 1091 1092
v -24.302 0.666 -208.771
v -26.492 0.693 -206.701
v -14.128 0.476 -193.619
v -11.938 0.448 -195.689
f 1093 1094 1095 1096
v -25.257 0.680 -207.678
v -27.567 0.698 -206.158
v -17.673 0.487 -191.122
v -15.363 0.492 -192.642
f 1097 1098 1099 1100
v -25.656 0.685 -207.112
v -28.586 0.700 -206.062
v -22.514 0.524 -189.118
v -19.584 0.487 -190.168
f 1101 1102 1103 1104
v -27.529 0.698 -206.370
v -31.079 0.710 -205.570
v -27.121 0.547 -188.010
v -23.571 0.538 -188.810
f 1105 1106 1107 1108
v -29.173 0.703 -205.790
v -32.883 0.714 -205.760
v -32.737 0.600 -187.760
v -29.027 0.568 -187.790
f 1109 1110 1111 1112
v -32.893 0.714 -205.760
v -46.943 0.625 -205.630
v -46.777 0.708 -187.630
v -32.727 0.600 -187.760
f 1113 1114 1115 1116
v -47.060 0.625 -205.628
v -55.140 0.585 -205.448
v -54.740 0.722 -187.452
v -46.660 0.707 -187.632
f 1117 1118 1119 1120
v -54.954 0.584 -205.450
v -61.214 0.583 -205.440
v -61.186 0.711 -187.440
v -54.926 0.722 -187.450
f 1121 1122 1123 1124
v -61.243 0.583 -205.440
v -75.733 0.554 -205.370
v -75.647 0.644 -187.370
v -61.157 0.712 -187.440
f 1125 1126 1127 1128
v -75.724 0.554 -205.370
v -109.674 0.506 -205.240
v -109.606 0.562 -187.240
v -75.656 0.644 -187.370
f 1129 1130 1131 1132
v -109.706 0.506 -205.240
v -142.496 0.529 -205.000
v -142.364 0.551 -187.000
v -109.574 0.562 -187.240
f 1133 1134 1135 1136
v -142.474 0.529 -205.000
v -175.264 0.607 -204.840
v -175.176 0.604 -186.840
v -142.386 0.551 -187.000
f 1137 1138 1139 1140
v -175.283 0.607 -204.840
v -212.693 0.565 -204.580
v -212.567 0.555 -186.580
v -175.157 0.604 -186.840
f 1141 1142 1143 1144
v -212.636 0.565 -204.580
v -243.366 0.530 -204.560
v -243.354 0.576 -186.560
v -212.624 0.555 -186.580
f 1145 1146 1147 1148
v -243.410 0.530 -204.560
v -256.050 0.521 -204.489
v -255.950 0.606 -186.490
v -243.310 0.575 -186.560
f 1149 1150 1151 1152
v -4.110 0.472 -217.758
v -4.270 0.569 -256.038
v -22.270 0.685 -255.962
v -22.110 0.656 -217.682
f 1153 1154 1155 1156
v -111.101 0.563 -187.359
v -107.211 0.548 -186.719
v -104.289 0.558 -204.481
v -108.179 0.518 -205.121
f 1157 1158 1159 1160
v -109.047 0.562 -187.226
v -105.237 0.533 -185.726
v -98.643 0.597 -202.474
v -102.453 0.562 -203.974
f 1161 1162 1163 1164
v -106.634 0.543 -186.421
v -103.444 0.533 -184.471
v -94.056 0.633 -199.829
v -97.246 0.607 -201.779
f 1165 1166 1167 1168
v -105.134 0.533 -185.806
v -102.024 0.534 -182.676
v -89.256 0.655 -195.364
v -92.366 0.648 -198.494
f 1169 1170 1171 1172
v -102.974 0.531 -183.803
v -101.274 0.535 -181.413
v -86.606 0.631 -191.847
v -88.306 0.646 -194.237
f 1173 1174 1175 1176
v -102.336 0.535 -183.388
v -100.946 0.521 -179.788
v -84.154 0.607 -186.272
v -85.544 0.616 -189.872
f 1177 1178 1179 1180
v -101.250 0.530 -180.724
v -100.370 0.494 -177.404
v -82.970 0.612 -182.016
v -83.850 0.607 -185.336
f 1181 1182 1183 1184
v -255.953 0.612 -140.151
v -244.813 0.587 -140.210
v -244.907 0.482 -158.210
v -256.047 0.485 -158.151
f 1185 1186 1187 1188
v -244.835 0.587 -140.210
v -237.775 0.581 -140.230
v -237.825 0.460 -158.230
v -244.885 0.482 -158.210
f 1189 1190 1191 1192
v -237.750 0.581 -140.230
v -214.120 0.603 -140.360
v -214.220 0.501 -158.360
v -237.850 0.460 -158.230
f 1193 1194 1195 1196
v -214.105 0.603 -140.360
v -209.955 0.604 -140.390
v -210.085 0.504 -158.390
v -214.235 0.501 -158.360
f 1197 1198 1199 1200
v -209.952 0.604 -140.390
v -195.352 0.620 -140.500
v -195.488 0.507 -158.500
v -210.088 0.504 -158.390
f 1201 1202 1203 1204
v -195.357 0.620 -140.500
v -176.707 0.611 -140.630
v -176.833 0.500 -158.630
v -195.483 0.507 -158.500
f 1205 1206 1207 1208
v -176.697 0.611 -140.630
v -163.187 0.642 -140.740
v -163.333 0.508 -158.740
v -176.843 0.500 -158.630
f 1209 1210 1211 1212
v -163.250 0.642 -140.740
v -153.810 0.692 -140.750
v -153.830 0.551 -158.750
v -163.270 0.509 -158.740
f 1213 1214 1215 1216
v -153.799 0.692 -140.750
v -140.919 0.639 -140.780
v -140.961 0.530 -158.780
v -153.841 0.551 -158.750
f 1217 1218 1219 1220
v -140.926 0.639 -140.780
v -116.066 0.581 -140.820
v -116.094 0.636 -158.820
v -140.954 0.530 -158.780
f 1221 1222 1223 1224
v -116.159 0.581 -140.820
v -109.349 0.545 -140.760
v -109.191 0.662 -158.760
v -116.001 0.636 -158.820
f 1225 1226 1227 1228
v -108.968 0.542 -140.765
v -107.178 0.518 -140.825
v -107.782 0.672 -158.815
v -109.572 0.661 -158.755
f 1229 1230 1231 1232
v -105.787 0.507 -140.981
v -103.907 0.508 -141.341
v -107.293 0.677 -159.019
v -109.173 0.661 -158.659
f 1233 1234 1235 1236
v -102.971 0.510 -141.573
v -100.941 0.481 -142.193
v -106.199 0.678 -159.407
v -108.229 0.668 -158.787
f 1237 1238 1239 1240
v -99.634 0.477 -142.706
v -97.454 0.484 -143.766
v -105.326 0.680 -159.954
v -107.506 0.674 -158.894
f 1241 1242 1243 1244
v -96.536 0.480 -144.281
v -94.756 0.466 -145.421
v -104.464 0.685 -160.579
v -106.244 0.678 -159.439
f 1245 1246 1247 1248
v -94.143 0.458 -145.851
v -92.613 0.463 -147.021
v -103.547 0.686 -161.319
v -105.077 0.681 -160.149
f 1249 1250 1251 1252
v -91.969 0.460 -147.562
v -90.639 0.468 -148.792
v -102.861 0.680 -162.008
v -104.191 0.687 -160.778
f 1253 1254 1255 1256
v -89.917 0.465 -149.543
v -88.777 0.449 -150.873
v -102.443 0.674 -162.587
v -103.583 0.687 -161.257
f 1257 1258 1259 1260
v -88.422 0.448 -151.314
v -87.352 0.449 -152.734
v -101.728 0.666 -163.566
v -102.798 0.678 -162.146
f 1261 1262 1263 1264
v -86.762 0.456 -153.622
v -85.592 0.474 -155.632
v -101.148 0.648 -164.688
v -102.318 0.674 -162.678
f 1265 1266 1267 1268
v -84.970 0.480 -156.929
v -84.370 0.491 -158.489
v -101.170 0.644 -164.951
v -101.770 0.668 -163.391
f 1269 1270 1271 1272
v -84.251 0.493 -158.818
v -83.631 0.534 -160.638
v -100.669 0.639 -166.442
v -101.289 0.649 -164.622
f 1273 1274 1275 1276
v -83.308 0.573 -161.860
v -82.888 0.632 -164.070
v -100.572 0.632 -167.430
v -100.992 0.642 -165.220
f 1277 1278 1279 1280
v -82.730 0.654 -165.673
v -82.710 0.678 -168.013
v -100.710 0.623 -168.167
v -100.730 0.641 -165.827
f 1281 1282 1283 1284
v -82.711 0.677 -167.965
v -82.681 0.693 -170.125
v -100.679 0.577 -170.375
v -100.709 0.622 -168.215
f 1285 1286 1287 1288
v -243.465 0.586 -140.319
v -239.385 0.578 -140.959
v -242.175 0.471 -158.741
v -246.255 0.484 -158.101
f 1289 1290 1291 1292
v -237.883 0.576 -141.329
v -234.353 0.567 -142.529
v -240.147 0.455 -159.571
v -243.677 0.478 -158.371
f 1293 1294 1295 1296
v -232.219 0.560 -143.587
v -229.549 0.546 -145.387
v -239.611 0.448 -160.313
v -242.281 0.473 -158.513
f 1297 1298 1299 1300
v -228.851 0.543 -145.909
v -226.331 0.551 -147.989
v -237.789 0.435 -161.871
v -240.309 0.455 -159.791
f 1301 1302 1303 1304
v -224.851 0.545 -149.541
v -223.341 0.537 -151.561
v -237.759 0.433 -162.339
v -239.269 0.445 -160.319
f 1305 1306 1307 1308
v -222.556 0.535 -152.815
v -221.056 0.513 -155.715
v -237.044 0.426 -163.985
v -238.544 0.439 -161.085
f 1309 1310 1311 1312
v -220.664 0.506 -156.583
v -219.694 0.492 -159.073
v -236.466 0.423 -165.607
v -237.436 0.429 -163.117
f 1313 1314 1315 1316
v -219.270 0.477 -160.501
v -218.650 0.464 -163.471
v -236.270 0.421 -167.149
v -236.890 0.425 -164.179
f 1317 1318 1319 1320
v -218.467 0.464 -164.943
v -218.427 0.459 -165.923
v -236.413 0.421 -166.657
v -236.453 0.423 -165.677
f 1321 1322 1323 1324
v -218.428 0.459 -165.909
v -218.378 0.451 -167.089
v -236.362 0.414 -167.851
v -236.412 0.421 -166.671
f 1325 1326 1327 1328
v -218.371 0.449 -167.310
v -218.331 0.429 -169.560
v -236.329 0.406 -169.880
v -236.369 0.416 -167.630
f 1329 1330 1331 1332
v -236.233 0.426 -164.465
v -235.763 0.430 -162.195
v -218.137 0.459 -165.845
v -218.607 0.439 -168.115
f 1333 1334 1335 1336
v -235.650 0.434 -161.715
v -234.720 0.462 -158.205
v -217.320 0.472 -162.815
v -218.250 0.457 -166.325
f 1337 1338 1339 1340
v -234.024 0.477 -156.394
v -232.944 0.504 -154.294
v -216.936 0.475 -162.526
v -218.016 0.465 -164.626
f 1341 1342 1343 1344
v -232.311 0.524 -153.246
v -231.141 0.541 -151.576
v -216.399 0.479 -161.904
v -217.569 0.469 -163.574
f 1345 1346 1347 1348
v -230.379 0.543 -150.631
v -229.159 0.543 -149.311
v -215.941 0.481 -161.529
v -217.161 0.473 -162.849
f 1349 1350 1351 1352
v -228.866 0.544 -149.009
v -227.516 0.547 -147.679
v -214.884 0.487 -160.501
v -216.234 0.479 -161.831
f 1353 1354 1355 1356
v -226.640 0.550 -146.920
v -224.940 0.558 -145.630
v -214.060 0.492 -159.970
v -215.760 0.482 -161.260
f 1357 1358 1359 1360
v -224.327 0.561 -145.204
v -222.407 0.569 -143.984
v -212.753 0.496 -159.176
v -214.673 0.488 -160.396
f 1361 1362 1363 1364
v -221.409 0.575 -143.435
v -219.069 0.580 -142.335
v -211.411 0.502 -158.625
v -213.751 0.493 -159.725
f 1365 1366 1367 1368
v -217.374 0.584 -141.737
v -214.834 0.600 -141.117
v -210.566 0.503 -158.603
v -213.106 0.495 -159.223
f 1369 1370 1371 1372
v -214.255 0.601 -140.995
v -211.575 0.601 -140.525
v -208.465 0.505 -158.255
v -211.145 0.502 -158.725
f 1373 1374 1375 1376
v -176.033 0.607 -140.660
v -171.163 0.608 -141.060
v -172.637 0.502 -159.000
v -177.507 0.501 -158.600
f 1377 1378 1379 1380
v -169.258 0.609 -141.426
v -165.578 0.615 -142.556
v -170.862 0.502 -159.764
v -174.542 0.496 -158.634
f 1381 1382 1383 1384
v -163.228 0.620 -143.672
v -159.988 0.625 -145.832
v -169.972 0.492 -160.808
v -173.212 0.501 -158.648
f 1385 1386 1387 1388
v -159.008 0.631 -146.587
v -156.708 0.626 -148.627
v -168.652 0.483 -162.093
v -170.952 0.501 -160.053
f 1389 1390 1391 1392
v -155.607 0.620 -149.795
v -153.577 0.606 -152.375
v -167.723 0.474 -163.505
v -169.753 0.490 -160.925
f 1393 1394 1395 1396
v -152.828 0.599 -153.489
v -151.468 0.584 -155.879
v -167.112 0.460 -164.781
v -168.472 0.482 -162.391
f 1397 1398 1399 1400
v -150.680 0.553 -157.708
v -149.730 0.479 -160.828
v -166.950 0.448 -166.072
v -167.900 0.479 -162.952
f 1401 1402 1403 1404
v -149.496 0.457 -161.783
v -149.036 0.411 -164.223
v -166.724 0.435 -167.557
v -167.184 0.457 -165.117
f 1405 1406 1407 1408
v -148.880 0.393 -165.890
v -148.880 0.370 -170.050
v -166.880 0.419 -170.050
v -166.880 0.450 -165.890
f 1409 1410 1411 1412
v -166.674 0.467 -163.975
v -166.014 0.481 -160.945
v -148.426 0.405 -164.775
v -149.086 0.380 -167.805
f 1413 1414 1415 1416
v -165.631 0.494 -159.659
v -164.611 0.525 -156.979
v -147.789 0.423 -163.381
v -148.809 0.392 -166.061
f 1417 1418 1419 1420
v -163.803 0.543 -155.365
v -162.473 0.565 -153.265
v -147.267 0.431 -162.895
v -148.597 0.402 -164.995
f 1421 1422 1423 1424
v -162.157 0.569 -152.798
v -160.207 0.593 -150.108
v -145.633 0.472 -160.672
v -147.583 0.424 -163.362
f 1425 1426 1427 1428
v -158.712 0.619 -148.502
v -155.632 0.648 -145.912
v -144.048 0.494 -159.688
v -147.128 0.440 -162.278
f 1429 1430 1431 1432
v -154.231 0.659 -144.944
v -151.011 0.696 -143.144
v -142.229 0.518 -158.856
v -145.449 0.474 -160.656
f 1433 1434 1435 1436
v -149.100 0.705 -142.349
v -146.240 0.686 -141.529
v -141.280 0.527 -158.831
v -144.140 0.494 -159.651
f 1437 1438 1439 1440
v -145.024 0.664 -141.269
v -142.204 0.647 -140.869
v -139.676 0.535 -158.691
v -142.496 0.512 -159.091
f 1441 1442 1443 1444
