# Baked ultra-low Key West silhouette; generated by bake_key_west_far_city.py
mtllib far_city.mtl
usemtl massing
v 27.244 0.668 3.254
v 33.903 0.668 23.023
v 22.436 0.668 26.886
v 15.777 0.668 7.117
v 27.244 4.168 3.254
v 33.903 4.168 23.023
v 22.436 4.168 26.886
v 15.777 4.168 7.117
f 8 7 6 5
f 1 2 6 5
f 2 3 7 6
f 3 4 8 7
f 4 1 5 8
v 234.344 0.207 45.552
v 250.344 0.207 45.528
v 250.356 0.207 54.248
v 234.356 0.207 54.272
v 234.344 4.107 45.552
v 250.344 4.107 45.528
v 250.356 4.107 54.248
v 234.356 4.107 54.272
f 16 15 14 13
f 9 10 14 13
f 10 11 15 14
f 11 12 16 15
f 12 9 13 16
v -65.921 0.345 -229.727
v -65.789 0.345 -208.987
v -71.059 0.345 -208.953
v -71.191 0.345 -229.693
v -65.921 4.245 -229.727
v -65.789 4.245 -208.987
v -71.059 4.245 -208.953
v -71.191 4.245 -229.693
f 24 23 22 21
f 17 18 22 21
f 18 19 23 22
f 19 20 24 23
f 20 17 21 24
v 36.595 0.611 -106.261
v 36.943 0.611 -89.795
v 27.705 0.611 -89.599
v 27.357 0.611 -106.065
v 36.595 4.511 -106.261
v 36.943 4.511 -89.795
v 27.705 4.511 -89.599
v 27.357 4.511 -106.065
f 32 31 30 29
f 25 26 30 29
f 26 27 31 30
f 27 28 32 31
f 28 25 29 32
v 40.038 0.523 -227.005
v 40.112 0.523 -208.435
v 34.982 0.523 -208.415
v 34.908 0.523 -226.985
v 40.038 4.423 -227.005
v 40.112 4.423 -208.435
v 34.982 4.423 -208.415
v 34.908 4.423 -226.985
f 40 39 38 37
f 33 34 38 37
f 34 35 39 38
f 35 36 40 39
f 36 33 37 40
v 78.856 0.818 -178.606
v 78.934 0.818 -160.156
v 73.824 0.818 -160.134
v 73.746 0.818 -178.584
v 78.856 4.718 -178.606
v 78.934 4.718 -160.156
v 73.824 4.718 -160.134
v 73.746 4.718 -178.584
f 48 47 46 45
f 41 42 46 45
f 42 43 47 46
f 43 44 48 47
f 44 41 45 48
v 231.141 0.175 59.743
v 252.191 0.175 59.807
v 252.179 0.175 63.857
v 231.129 0.175 63.793
v 231.141 4.075 59.743
v 252.191 4.075 59.807
v 252.179 4.075 63.857
v 231.129 4.075 63.793
f 56 55 54 53
f 49 50 54 53
f 50 51 55 54
f 51 52 56 55
f 52 49 53 56
v -44.563 0.689 -241.254
v -34.925 0.689 -241.446
v -34.837 0.689 -237.046
v -44.475 0.689 -236.854
v -44.563 4.589 -241.254
v -34.925 4.589 -241.446
v -34.837 4.589 -237.046
v -44.475 4.589 -236.854
f 64 63 62 61
f 57 58 62 61
f 58 59 63 62
f 59 60 64 63
f 60 57 61 64
v 199.991 0.505 -199.932
v 200.098 0.505 -183.803
v 191.849 0.505 -183.748
v 191.742 0.505 -199.877
v 199.991 4.405 -199.932
v 200.098 4.405 -183.803
v 191.849 4.405 -183.748
v 191.742 4.405 -199.877
f 72 71 70 69
f 65 66 70 69
f 66 67 71 70
f 67 68 72 71
f 68 65 69 72
v 192.461 0.709 213.624
v 209.826 0.709 214.571
v 209.279 0.709 224.596
v 191.914 0.709 223.649
v 192.461 4.609 213.624
v 209.826 4.609 214.571
v 209.279 4.609 224.596
v 191.914 4.609 223.649
f 80 79 78 77
f 73 74 78 77
f 74 75 79 78
f 75 76 80 79
f 76 73 77 80
v 17.744 0.496 -134.419
v 17.836 0.496 -122.189
v 8.896 0.496 -122.121
v 8.804 0.496 -134.351
v 17.744 4.396 -134.419
v 17.836 4.396 -122.189
v 8.896 4.396 -122.121
v 8.804 4.396 -134.351
f 88 87 86 85
f 81 82 86 85
f 82 83 87 86
f 83 84 88 87
f 84 81 85 88
v 146.263 0.939 -176.125
v 146.317 0.939 -189.905
v 153.997 0.939 -189.875
v 153.943 0.939 -176.095
v 146.263 4.839 -176.125
v 146.317 4.839 -189.905
v 153.997 4.839 -189.875
v 153.943 4.839 -176.095
f 96 95 94 93
f 89 90 94 93
f 90 91 95 94
f 91 92 96 95
f 92 89 93 96
v 239.215 0.533 191.943
v 252.184 0.533 192.087
v 252.105 0.533 199.257
v 239.136 0.533 199.113
v 239.215 4.433 191.943
v 252.184 4.433 192.087
v 252.105 4.433 199.257
v 239.136 4.433 199.113
f 104 103 102 101
f 97 98 102 101
f 98 99 103 102
f 99 100 104 103
f 100 97 101 104
v 107.555 0.683 -225.003
v 107.795 0.683 -208.995
v 102.625 0.683 -208.917
v 102.385 0.683 -224.925
v 107.555 4.583 -225.003
v 107.795 4.583 -208.995
v 102.625 4.583 -208.917
v 102.385 4.583 -224.925
f 112 111 110 109
f 105 106 110 109
f 106 107 111 110
f 107 108 112 111
f 108 105 109 112
v -73.938 0.261 -229.419
v -73.583 0.261 -208.942
v -81.702 0.261 -208.801
v -82.057 0.261 -229.278
v -73.938 4.161 -229.419
v -73.583 4.161 -208.942
v -81.702 4.161 -208.801
v -82.057 4.161 -229.278
f 120 119 118 117
f 113 114 118 117
f 114 115 119 118
f 115 116 120 119
f 116 113 117 120
v 136.381 0.790 -62.448
v 149.530 0.790 -75.262
v 156.439 0.790 -68.172
v 143.290 0.790 -55.358
v 136.381 4.690 -62.448
v 149.530 4.690 -75.262
v 156.439 4.690 -68.172
v 143.290 4.690 -55.358
f 128 127 126 125
f 121 122 126 125
f 122 123 127 126
f 123 124 128 127
f 124 121 125 128
v 121.954 0.698 -247.253
v 136.544 0.698 -247.257
v 136.546 0.698 -239.027
v 121.956 0.698 -239.023
v 121.954 4.598 -247.253
v 136.544 4.598 -247.257
v 136.546 4.598 -239.027
v 121.956 4.598 -239.023
f 136 135 134 133
f 129 130 134 133
f 130 131 135 134
f 131 132 136 135
f 132 129 133 136
v 193.609 0.368 -3.246
v 212.359 0.368 -3.860
v 212.631 0.368 4.446
v 193.881 0.368 5.060
v 193.609 4.268 -3.246
v 212.359 4.268 -3.860
v 212.631 4.268 4.446
v 193.881 4.268 5.060
f 144 143 142 141
f 137 138 142 141
f 138 139 143 142
f 139 140 144 143
f 140 137 141 144
v -15.577 0.717 -30.642
v -1.231 0.717 -18.600
v -7.763 0.717 -10.818
v -22.109 0.717 -22.860
v -15.577 4.617 -30.642
v -1.231 4.617 -18.600
v -7.763 4.617 -10.818
v -22.109 4.617 -22.860
f 152 151 150 149
f 145 146 150 149
f 146 147 151 150
f 147 148 152 151
f 148 145 149 152
v 122.120 0.723 -223.578
v 136.727 0.723 -223.250
v 136.540 0.723 -214.942
v 121.933 0.723 -215.270
v 122.120 4.623 -223.578
v 136.727 4.623 -223.250
v 136.540 4.623 -214.942
v 121.933 4.623 -215.270
f 160 159 158 157
f 153 154 158 157
f 154 155 159 158
f 155 156 160 159
f 156 153 157 160
v 191.416 0.462 -87.590
v 208.735 0.462 -87.729
v 208.804 0.462 -79.090
v 191.485 0.462 -78.951
v 191.416 4.362 -87.590
v 208.735 4.362 -87.729
v 208.804 4.362 -79.090
v 191.485 4.362 -78.951
f 168 167 166 165
f 161 162 166 165
f 162 163 167 166
f 163 164 168 167
f 164 161 165 168
v -12.308 0.328 -227.613
v -11.973 0.328 -208.916
v -16.972 0.328 -208.827
v -17.307 0.328 -227.524
v -12.308 4.228 -227.613
v -11.973 4.228 -208.916
v -16.972 4.228 -208.827
v -17.307 4.228 -227.524
f 176 175 174 173
f 169 170 174 173
f 170 171 175 174
f 171 172 176 175
f 172 169 173 176
v 3.188 0.612 -244.333
v 9.590 0.612 -264.480
v 14.412 0.612 -262.947
v 8.010 0.612 -242.800
v 3.188 4.512 -244.333
v 9.590 4.512 -264.480
v 14.412 4.512 -262.947
v 8.010 4.512 -242.800
f 184 183 182 181
f 177 178 182 181
f 178 179 183 182
f 179 180 184 183
f 180 177 181 184
v 122.404 0.573 -211.251
v 136.564 0.573 -211.239
v 136.556 0.573 -202.769
v 122.396 0.573 -202.781
v 122.404 4.473 -211.251
v 136.564 4.473 -211.239
v 136.556 4.473 -202.769
v 122.396 4.473 -202.781
f 192 191 190 189
f 185 186 190 189
f 186 187 191 190
f 187 188 192 191
f 188 185 189 192
v 34.683 0.644 -136.262
v 37.076 0.644 -119.310
v 21.837 0.644 -117.158
v 19.444 0.644 -134.110
v 34.683 4.544 -136.262
v 37.076 4.544 -119.310
v 21.837 4.544 -117.158
v 19.444 4.544 -134.110
f 200 199 198 197
f 193 194 198 197
f 194 195 199 198
f 195 196 200 199
f 196 193 197 200
v 73.241 0.508 -256.416
v 73.289 0.508 -237.036
v 68.799 0.508 -237.024
v 68.751 0.508 -256.404
v 73.241 4.408 -256.416
v 73.289 4.408 -237.036
v 68.799 4.408 -237.024
v 68.751 4.408 -256.404
f 208 207 206 205
f 201 202 206 205
f 202 203 207 206
f 203 204 208 207
f 204 201 205 208
v 6.936 0.513 -93.573
v 19.512 0.513 -104.863
v 25.684 0.513 -97.987
v 13.108 0.513 -86.697
v 6.936 4.413 -93.573
v 19.512 4.413 -104.863
v 25.684 4.413 -97.987
v 13.108 4.413 -86.697
f 216 215 214 213
f 209 210 214 213
f 210 211 215 214
f 211 212 216 215
f 212 209 213 216
v 11.733 0.387 -48.671
v 24.735 0.387 -38.032
v 19.087 0.387 -31.129
v 6.085 0.387 -41.768
v 11.733 4.287 -48.671
v 24.735 4.287 -38.032
v 19.087 4.287 -31.129
v 6.085 4.287 -41.768
f 224 223 222 221
f 217 218 222 221
f 218 219 223 222
f 219 220 224 223
f 220 217 221 224
v 154.082 0.700 -205.112
v 154.088 0.700 -190.932
v 146.298 0.700 -190.928
v 146.292 0.700 -205.108
v 154.082 4.600 -205.112
v 154.088 4.600 -190.932
v 146.298 4.600 -190.928
v 146.292 4.600 -205.108
f 232 231 230 229
f 225 226 230 229
f 226 227 231 230
f 227 228 232 231
f 228 225 229 232
v -37.067 0.690 -54.794
v -21.880 0.690 -43.970
v -27.713 0.690 -35.786
v -42.900 0.690 -46.610
v -37.067 4.590 -54.794
v -21.880 4.590 -43.970
v -27.713 4.590 -35.786
v -42.900 4.590 -46.610
f 240 239 238 237
f 233 234 238 237
f 234 235 239 238
f 235 236 240 239
f 236 233 237 240
v 194.673 0.147 32.997
v 213.003 0.147 32.854
v 213.067 0.147 41.023
v 194.737 0.147 41.166
v 194.673 4.047 32.997
v 213.003 4.047 32.854
v 213.067 4.047 41.023
v 194.737 4.047 41.166
f 248 247 246 245
f 241 242 246 245
f 242 243 247 246
f 243 244 248 247
f 244 241 245 248
v 49.677 0.754 -87.805
v 49.733 0.754 -78.755
v 43.103 0.754 -78.715
v 43.047 0.754 -87.765
v 49.677 4.654 -87.805
v 49.733 4.654 -78.755
v 43.103 4.654 -78.715
v 43.047 4.654 -87.765
f 256 255 254 253
f 249 250 254 253
f 250 251 255 254
f 251 252 256 255
f 252 249 253 256
v -7.048 0.625 -70.933
v 5.755 0.625 -60.399
v 0.068 0.625 -53.487
v -12.735 0.625 -64.021
v -7.048 4.525 -70.933
v 5.755 4.525 -60.399
v 0.068 4.525 -53.487
v -12.735 4.525 -64.021
f 264 263 262 261
f 257 258 262 261
f 258 259 263 262
f 259 260 264 263
f 260 257 261 264
v 127.886 0.641 -177.027
v 127.914 0.641 -192.427
v 135.694 0.641 -192.413
v 135.666 0.641 -177.013
v 127.886 4.541 -177.027
v 127.914 4.541 -192.427
v 135.694 4.541 -192.413
v 135.666 4.541 -177.013
f 272 271 270 269
f 265 266 270 269
f 266 267 271 270
f 267 268 272 271
f 268 265 269 272
v 191.799 0.201 -27.315
v 211.836 0.201 -27.654
v 211.981 0.201 -19.145
v 191.944 0.201 -18.806
v 191.799 4.101 -27.315
v 211.836 4.101 -27.654
v 211.981 4.101 -19.145
v 191.944 4.101 -18.806
f 280 279 278 277
f 273 274 278 277
f 274 275 279 278
f 275 276 280 279
f 276 273 277 280
v -6.103 0.649 -19.684
v 8.293 0.649 -8.033
v 1.983 0.649 -0.236
v -12.413 0.649 -11.887
v -6.103 4.549 -19.684
v 8.293 4.549 -8.033
v 1.983 4.549 -0.236
v -12.413 4.549 -11.887
f 288 287 286 285
f 281 282 286 285
f 282 283 287 286
f 283 284 288 287
f 284 281 285 288
v 213.413 0.257 -121.811
v 214.034 0.257 -136.729
v 221.727 0.257 -136.409
v 221.106 0.257 -121.491
v 213.413 4.157 -121.811
v 214.034 4.157 -136.729
v 221.727 4.157 -136.409
v 221.106 4.157 -121.491
f 296 295 294 293
f 289 290 294 293
f 290 291 295 294
f 291 292 296 295
f 292 289 293 296
v 147.593 0.904 -73.465
v 160.726 0.904 -86.338
v 167.747 0.904 -79.175
v 154.614 0.904 -66.302
v 147.593 4.804 -73.465
v 160.726 4.804 -86.338
v 167.747 4.804 -79.175
v 154.614 4.804 -66.302
f 304 303 302 301
f 297 298 302 301
f 298 299 303 302
f 299 300 304 303
f 300 297 301 304
v 42.008 0.632 -42.632
v 42.032 0.632 -58.562
v 50.692 0.632 -58.548
v 50.668 0.632 -42.618
v 42.008 4.532 -42.632
v 42.032 4.532 -58.562
v 50.692 4.532 -58.548
v 50.668 4.532 -42.618
f 312 311 310 309
f 305 306 310 309
f 306 307 311 310
f 307 308 312 311
f 308 305 309 312
v 122.102 0.765 -259.946
v 136.290 0.765 -260.153
v 136.418 0.765 -251.374
v 122.230 0.765 -251.167
v 122.102 4.665 -259.946
v 136.290 4.665 -260.153
v 136.418 4.665 -251.374
v 122.230 4.665 -251.167
f 320 319 318 317
f 313 314 318 317
f 314 315 319 318
f 315 316 320 319
f 316 313 317 320
v -22.156 0.560 -97.634
v -5.478 0.560 -98.484
v -5.024 0.560 -89.566
v -21.702 0.560 -88.716
v -22.156 4.460 -97.634
v -5.478 4.460 -98.484
v -5.024 4.460 -89.566
v -21.702 4.460 -88.716
f 328 327 326 325
f 321 322 326 325
f 322 323 327 326
f 323 324 328 327
f 324 321 325 328
v -6.793 0.087 -205.836
v -6.223 0.087 -221.436
v 0.673 0.087 -221.184
v 0.103 0.087 -205.584
v -6.793 3.987 -205.836
v -6.223 3.987 -221.436
v 0.673 3.987 -221.184
v 0.103 3.987 -205.584
f 336 335 334 333
f 329 330 334 333
f 330 331 335 334
f 331 332 336 335
f 332 329 333 336
v 64.565 0.781 -160.282
v 64.686 0.781 -178.552
v 69.895 0.781 -178.518
v 69.774 0.781 -160.248
v 64.565 4.681 -160.282
v 64.686 4.681 -178.552
v 69.895 4.681 -178.518
v 69.774 4.681 -160.248
f 344 343 342 341
f 337 338 342 341
f 338 339 343 342
f 339 340 344 343
f 340 337 341 344
v 233.589 0.206 -10.337
v 244.628 0.206 -10.523
v 244.691 0.206 -6.803
v 233.652 0.206 -6.617
v 233.589 4.106 -10.337
v 244.628 4.106 -10.523
v 244.691 4.106 -6.803
v 233.652 4.106 -6.617
f 352 351 350 349
f 345 346 350 349
f 346 347 351 350
f 347 348 352 351
f 348 345 349 352
v 6.295 0.640 -7.422
v 18.806 0.640 6.110
v 11.265 0.640 13.082
v -1.246 0.640 -0.450
v 6.295 4.540 -7.422
v 18.806 4.540 6.110
v 11.265 4.540 13.082
v -1.246 4.540 -0.450
f 360 359 358 357
f 353 354 358 357
f 354 355 359 358
f 355 356 360 359
f 356 353 357 360
v 16.845 0.513 -33.282
v 20.730 0.513 -30.008
v 18.075 0.513 -26.858
v 14.190 0.513 -30.132
v 16.845 4.413 -33.282
v 20.730 4.413 -30.008
v 18.075 4.413 -26.858
v 14.190 4.413 -30.132
f 368 367 366 365
f 361 362 366 365
f 362 363 367 366
f 363 364 368 367
f 364 361 365 368
v 61.723 0.549 -30.441
v 73.912 0.549 -42.234
v 80.177 0.549 -35.759
v 67.988 0.549 -23.966
v 61.723 4.449 -30.441
v 73.912 4.449 -42.234
v 80.177 4.449 -35.759
v 67.988 4.449 -23.966
f 376 375 374 373
f 369 370 374 373
f 370 371 375 374
f 371 372 376 375
f 372 369 373 376
v 91.810 0.774 -160.136
v 91.960 0.774 -178.525
v 97.070 0.774 -178.484
v 96.920 0.774 -160.095
v 91.810 4.674 -160.136
v 91.960 4.674 -178.525
v 97.070 4.674 -178.484
v 96.920 4.674 -160.095
f 384 383 382 381
f 377 378 382 381
f 378 379 383 382
f 379 380 384 383
f 380 377 381 384
v 232.415 0.693 -2.313
v 247.395 0.693 -2.406
v 247.445 0.693 5.633
v 232.465 0.693 5.726
v 232.415 4.593 -2.313
v 247.395 4.593 -2.406
v 247.445 4.593 5.633
v 232.465 4.593 5.726
f 392 391 390 389
f 385 386 390 389
f 386 387 391 390
f 387 388 392 391
f 388 385 389 392
v 194.833 0.254 142.415
v 213.243 0.254 142.315
v 213.287 0.254 150.485
v 194.877 0.254 150.585
v 194.833 4.154 142.415
v 213.243 4.154 142.315
v 213.287 4.154 150.485
v 194.877 4.154 150.585
f 400 399 398 397
f 393 394 398 397
f 394 395 399 398
f 395 396 400 399
f 396 393 397 400
v -54.756 0.633 -84.532
v -36.689 0.633 -81.750
v -38.224 0.633 -71.788
v -56.291 0.633 -74.570
v -54.756 4.533 -84.532
v -36.689 4.533 -81.750
v -38.224 4.533 -71.788
v -56.291 4.533 -74.570
f 408 407 406 405
f 401 402 406 405
f 402 403 407 406
f 403 404 408 407
f 404 401 405 408
v -47.548 0.669 -69.184
v -30.213 0.669 -62.305
v -33.932 0.669 -52.936
v -51.267 0.669 -59.815
v -47.548 4.569 -69.184
v -30.213 4.569 -62.305
v -33.932 4.569 -52.936
v -51.267 4.569 -59.815
f 416 415 414 413
f 409 410 414 413
f 410 411 415 414
f 411 412 416 415
f 412 409 413 416
v -54.850 0.726 -116.437
v -36.270 0.726 -116.292
v -36.350 0.726 -106.023
v -54.930 0.726 -106.168
v -54.850 4.626 -116.437
v -36.270 4.626 -116.292
v -36.350 4.626 -106.023
v -54.930 4.626 -106.168
f 424 423 422 421
f 417 418 422 421
f 418 419 423 422
f 419 420 424 423
f 420 417 421 424
v 191.290 0.549 -112.648
v 212.550 0.549 -112.652
v 212.550 0.549 -107.312
v 191.290 0.549 -107.308
v 191.290 4.449 -112.648
v 212.550 4.449 -112.652
v 212.550 4.449 -107.312
v 191.290 4.449 -107.308
f 432 431 430 429
f 425 426 430 429
f 426 427 431 430
f 427 428 432 431
f 428 425 429 432
v 234.401 0.158 107.550
v 251.728 0.158 107.221
v 251.859 0.158 114.110
v 234.532 0.158 114.439
v 234.401 4.058 107.550
v 251.728 4.058 107.221
v 251.859 4.058 114.110
v 234.532 4.058 114.439
f 440 439 438 437
f 433 434 438 437
f 434 435 439 438
f 435 436 440 439
f 436 433 437 440
v 233.805 0.281 9.486
v 250.955 0.281 9.325
v 251.035 0.281 17.834
v 233.885 0.281 17.995
v 233.805 4.181 9.486
v 250.955 4.181 9.325
v 251.035 4.181 17.834
v 233.885 4.181 17.995
f 448 447 446 445
f 441 442 446 445
f 442 443 447 446
f 443 444 448 447
f 444 441 445 448
v -54.886 0.309 -229.684
v -54.804 0.309 -208.955
v -59.654 0.309 -208.936
v -59.736 0.309 -229.665
v -54.886 4.209 -229.684
v -54.804 4.209 -208.955
v -59.654 4.209 -208.936
v -59.736 4.209 -229.665
f 456 455 454 453
f 449 450 454 453
f 450 451 455 454
f 451 452 456 455
f 452 449 453 456
v 56.619 0.453 -252.094
v 56.890 0.453 -236.697
v 52.841 0.453 -236.626
v 52.570 0.453 -252.023
v 56.619 4.353 -252.094
v 56.890 4.353 -236.697
v 52.841 4.353 -236.626
v 52.570 4.353 -252.023
f 464 463 462 461
f 457 458 462 461
f 458 459 463 462
f 459 460 464 463
f 460 457 461 464
v 2.402 0.478 -59.838
v 15.211 0.478 -49.137
v 9.518 0.478 -42.322
v -3.291 0.478 -53.023
v 2.402 4.378 -59.838
v 15.211 4.378 -49.137
v 9.518 4.378 -42.322
v -3.291 4.378 -53.023
f 472 471 470 469
f 465 466 470 469
f 466 467 471 470
f 467 468 472 471
f 468 465 469 472
v 154.541 0.790 -251.964
v 154.798 0.790 -237.846
v 146.579 0.790 -237.696
v 146.322 0.790 -251.814
v 154.541 4.690 -251.964
v 154.798 4.690 -237.846
v 146.579 4.690 -237.696
v 146.322 4.690 -251.814
f 480 479 478 477
f 473 474 478 477
f 474 475 479 478
f 475 476 480 479
f 476 473 477 480
v 146.325 0.618 -159.947
v 146.385 0.618 -173.967
v 154.315 0.618 -173.933
v 154.255 0.618 -159.913
v 146.325 4.518 -159.947
v 146.385 4.518 -173.967
v 154.315 4.518 -173.933
v 154.255 4.518 -159.913
f 488 487 486 485
f 481 482 486 485
f 482 483 487 486
f 483 484 488 487
f 484 481 485 488
v 251.124 0.375 64.155
v 256.104 0.375 64.135
v 256.116 0.375 67.105
v 251.136 0.375 67.125
v 251.124 4.275 64.155
v 256.104 4.275 64.135
v 256.116 4.275 67.105
v 251.136 4.275 67.125
f 496 495 494 493
f 489 490 494 493
f 490 491 495 494
f 491 492 496 495
f 492 489 493 496
v -18.298 0.532 -83.719
v -2.474 0.532 -77.814
v -5.562 0.532 -69.541
v -21.386 0.532 -75.446
v -18.298 4.432 -83.719
v -2.474 4.432 -77.814
v -5.562 4.432 -69.541
v -21.386 4.432 -75.446
f 504 503 502 501
f 497 498 502 501
f 498 499 503 502
f 499 500 504 503
f 500 497 501 504
v 87.998 0.813 -178.416
v 88.002 0.813 -160.226
v 82.902 0.813 -160.224
v 82.898 0.813 -178.414
v 87.998 4.713 -178.416
v 88.002 4.713 -160.226
v 82.902 4.713 -160.224
v 82.898 4.713 -178.414
f 512 511 510 509
f 505 506 510 509
f 506 507 511 510
f 507 508 512 511
f 508 505 509 512
v 194.652 0.274 70.599
v 213.062 0.274 70.541
v 213.088 0.274 78.781
v 194.678 0.274 78.839
v 194.652 4.174 70.599
v 213.062 4.174 70.541
v 213.088 4.174 78.781
v 194.678 4.174 78.839
f 520 519 518 517
f 513 514 518 517
f 514 515 519 518
f 515 516 520 519
f 516 513 517 520
v 195.081 0.507 -64.264
v 211.460 0.507 -64.416
v 211.539 0.507 -55.956
v 195.160 0.507 -55.804
v 195.081 4.407 -64.264
v 211.460 4.407 -64.416
v 211.539 4.407 -55.956
v 195.160 4.407 -55.804
f 528 527 526 525
f 521 522 526 525
f 522 523 527 526
f 523 524 528 527
f 524 521 525 528
v -55.448 0.696 -100.271
v -37.068 0.696 -100.339
v -37.032 0.696 -90.669
v -55.412 0.696 -90.601
v -55.448 4.596 -100.271
v -37.068 4.596 -100.339
v -37.032 4.596 -90.669
v -55.412 4.596 -90.601
f 536 535 534 533
f 529 530 534 533
f 530 531 535 534
f 531 532 536 535
f 532 529 533 536
v 29.788 0.465 -226.917
v 29.802 0.465 -208.427
v 24.532 0.465 -208.423
v 24.518 0.465 -226.913
v 29.788 4.365 -226.917
v 29.802 4.365 -208.427
v 24.532 4.365 -208.423
v 24.518 4.365 -226.913
f 544 543 542 541
f 537 538 542 541
f 538 539 543 542
f 539 540 544 543
f 540 537 541 544
v 122.026 0.706 -235.560
v 136.573 0.706 -235.278
v 136.414 0.706 -227.040
v 121.867 0.706 -227.322
v 122.026 4.606 -235.560
v 136.573 4.606 -235.278
v 136.414 4.606 -227.040
v 121.867 4.606 -227.322
f 552 551 550 549
f 545 546 550 549
f 546 547 551 550
f 547 548 552 551
f 548 545 549 552
v 232.480 0.470 -76.543
v 252.740 0.470 -76.457
v 252.700 0.470 -67.017
v 232.440 0.470 -67.103
v 232.480 4.370 -76.543
v 252.740 4.370 -76.457
v 252.700 4.370 -67.017
v 232.440 4.370 -67.103
f 560 559 558 557
f 553 554 558 557
f 554 555 559 558
f 555 556 560 559
f 556 553 557 560
v 230.983 0.146 84.837
v 248.732 0.146 84.663
v 248.777 0.146 89.263
v 231.028 0.146 89.437
v 230.983 4.046 84.837
v 248.732 4.046 84.663
v 248.777 4.046 89.263
v 231.028 4.046 89.437
f 568 567 566 565
f 561 562 566 565
f 562 563 567 566
f 563 564 568 567
f 564 561 565 568
v 19.278 0.535 -227.091
v 19.322 0.535 -208.461
v 14.362 0.535 -208.449
v 14.318 0.535 -227.079
v 19.278 4.435 -227.091
v 19.322 4.435 -208.461
v 14.362 4.435 -208.449
v 14.318 4.435 -227.079
f 576 575 574 573
f 569 570 574 573
f 570 571 575 574
f 571 572 576 575
f 572 569 573 576
v -33.702 0.233 -229.527
v -33.419 0.233 -208.399
v -38.318 0.233 -208.333
v -38.601 0.233 -229.461
v -33.702 4.133 -229.527
v -33.419 4.133 -208.399
v -38.318 4.133 -208.333
v -38.601 4.133 -229.461
f 584 583 582 581
f 577 578 582 581
f 578 579 583 582
f 579 580 584 583
f 580 577 581 584
v -77.057 0.239 -127.170
v -76.841 0.239 -139.928
v -66.343 0.239 -139.750
v -66.559 0.239 -126.992
v -77.057 4.139 -127.170
v -76.841 4.139 -139.928
v -66.343 4.139 -139.750
v -66.559 4.139 -126.992
f 592 591 590 589
f 585 586 590 589
f 586 587 591 590
f 587 588 592 591
f 588 585 589 592
v 60.757 0.408 -237.319
v 60.833 0.408 -254.479
v 64.843 0.408 -254.461
v 64.767 0.408 -237.301
v 60.757 4.308 -237.319
v 60.833 4.308 -254.479
v 64.843 4.308 -254.461
v 64.767 4.308 -237.301
f 600 599 598 597
f 593 594 598 597
f 594 595 599 598
f 595 596 600 599
f 596 593 597 600
v -8.689 0.584 -243.551
v -4.037 0.584 -259.736
v 5.449 0.584 -257.009
v 0.797 0.584 -240.824
v -8.689 4.484 -243.551
v -4.037 4.484 -259.736
v 5.449 4.484 -257.009
v 0.797 4.484 -240.824
f 608 607 606 605
f 601 602 606 605
f 602 603 607 606
f 603 604 608 607
f 604 601 605 608
v -87.820 0.037 -138.561
v -77.330 0.037 -138.519
v -77.360 0.037 -131.099
v -87.850 0.037 -131.141
v -87.820 3.937 -138.561
v -77.330 3.937 -138.519
v -77.360 3.937 -131.099
v -87.850 3.937 -131.141
f 616 615 614 613
f 609 610 614 613
f 610 611 615 614
f 611 612 616 615
f 612 609 613 616
v 233.247 0.639 248.256
v 254.917 0.639 248.224
v 254.933 0.639 259.364
v 233.263 0.639 259.396
v 233.247 4.539 248.256
v 254.917 4.539 248.224
v 254.933 4.539 259.364
v 233.263 4.539 259.396
f 624 623 622 621
f 617 618 622 621
f 618 619 623 622
f 619 620 624 623
f 620 617 621 624
v 232.692 0.534 238.995
v 248.977 0.534 238.587
v 249.168 0.534 246.225
v 232.883 0.534 246.633
v 232.692 4.434 238.995
v 248.977 4.434 238.587
v 249.168 4.434 246.225
v 232.883 4.434 246.633
f 632 631 630 629
f 625 626 630 629
f 626 627 631 630
f 627 628 632 631
f 628 625 629 632
v 233.754 0.487 227.994
v 249.831 0.487 227.688
v 249.966 0.487 234.746
v 233.889 0.487 235.052
v 233.754 4.387 227.994
v 249.831 4.387 227.688
v 249.966 4.387 234.746
v 233.889 4.387 235.052
f 640 639 638 637
f 633 634 638 637
f 634 635 639 638
f 635 636 640 639
f 636 633 637 640
v 231.212 0.398 216.514
v 246.945 0.398 215.590
v 247.408 0.398 223.466
v 231.675 0.398 224.390
v 231.212 4.298 216.514
v 246.945 4.298 215.590
v 247.408 4.298 223.466
v 231.675 4.298 224.390
f 648 647 646 645
f 641 642 646 645
f 642 643 647 646
f 643 644 648 647
f 644 641 645 648
v 232.180 0.721 203.161
v 255.208 0.721 202.940
v 255.280 0.721 210.439
v 232.252 0.721 210.660
v 232.180 4.621 203.161
v 255.208 4.621 202.940
v 255.280 4.621 210.439
v 232.252 4.621 210.660
f 656 655 654 653
f 649 650 654 653
f 650 651 655 654
f 651 652 656 655
f 652 649 653 656
v 191.572 0.300 200.115
v 212.342 0.300 200.145
v 212.328 0.300 209.585
v 191.558 0.300 209.555
v 191.572 4.200 200.115
v 212.342 4.200 200.145
v 212.328 4.200 209.585
v 191.558 4.200 209.555
f 664 663 662 661
f 657 658 662 661
f 658 659 663 662
f 659 660 664 663
f 660 657 661 664
v 250.015 0.404 -119.173
v 250.630 0.404 -138.453
v 258.965 0.404 -138.187
v 258.350 0.404 -118.907
v 250.015 4.304 -119.173
v 250.630 4.304 -138.453
v 258.965 4.304 -138.187
v 258.350 4.304 -118.907
f 672 671 670 669
f 665 666 670 669
f 666 667 671 670
f 667 668 672 671
f 668 665 669 672
v 246.221 0.280 -136.206
v 246.259 0.280 -121.276
v 237.499 0.280 -121.254
v 237.461 0.280 -136.184
v 246.221 4.180 -136.206
v 246.259 4.180 -121.276
v 237.499 4.180 -121.254
v 237.461 4.180 -136.184
f 680 679 678 677
f 673 674 678 677
f 674 675 679 678
f 675 676 680 679
f 676 673 677 680
v 243.799 0.226 -120.488
v 249.255 0.226 -117.480
v 247.421 0.226 -114.152
v 241.965 0.226 -117.160
v 243.799 4.126 -120.488
v 249.255 4.126 -117.480
v 247.421 4.126 -114.152
v 241.965 4.126 -117.160
f 688 687 686 685
f 681 682 686 685
f 682 683 687 686
f 683 684 688 687
f 684 681 685 688
v 234.444 0.348 -139.098
v 236.874 0.348 -119.720
v 226.356 0.348 -118.402
v 223.926 0.348 -137.780
v 234.444 4.248 -139.098
v 236.874 4.248 -119.720
v 226.356 4.248 -118.402
v 223.926 4.248 -137.780
f 696 695 694 693
f 689 690 694 693
f 690 691 695 694
f 691 692 696 695
f 692 689 693 696
v 207.318 0.417 -138.613
v 211.121 0.417 -116.264
v 201.262 0.417 -114.587
v 197.459 0.417 -136.936
v 207.318 4.317 -138.613
v 211.121 4.317 -116.264
v 201.262 4.317 -114.587
v 197.459 4.317 -136.936
f 704 703 702 701
f 697 698 702 701
f 698 699 703 702
f 699 700 704 703
f 700 697 701 704
v 199.347 0.353 -138.097
v 199.760 0.353 -119.202
v 187.893 0.353 -118.943
v 187.480 0.353 -137.838
v 199.347 4.253 -138.097
v 199.760 4.253 -119.202
v 187.893 4.253 -118.943
v 187.480 4.253 -137.838
f 712 711 710 709
f 705 706 710 709
f 706 707 711 710
f 707 708 712 711
f 708 705 709 712
v 11.984 0.601 -63.897
v 27.723 0.601 -91.839
v 46.996 0.601 -80.983
v 31.257 0.601 -53.041
v 11.984 6.401 -63.897
v 27.723 6.401 -91.839
v 46.996 6.401 -80.983
v 31.257 6.401 -53.041
f 720 719 718 717
f 713 714 718 717
f 714 715 719 718
f 715 716 720 719
f 716 713 717 720
v 24.054 0.507 -27.467
v 60.349 0.507 -29.627
v 61.546 0.507 -9.513
v 25.251 0.507 -7.353
v 24.054 6.307 -27.467
v 60.349 6.307 -29.627
v 61.546 6.307 -9.513
v 25.251 6.307 -7.353
f 728 727 726 725
f 721 722 726 725
f 722 723 727 726
f 723 724 728 727
f 724 721 725 728
v -5.509 0.486 -134.962
v 5.617 0.486 -113.607
v -13.211 0.486 -103.798
v -24.337 0.486 -125.153
v -5.509 4.386 -134.962
v 5.617 4.386 -113.607
v -13.211 4.386 -103.798
v -24.337 4.386 -125.153
f 736 735 734 733
f 729 730 734 733
f 730 731 735 734
f 731 732 736 735
f 732 729 733 736
v -54.821 0.749 -131.661
v -36.381 0.749 -131.699
v -36.359 0.749 -120.619
v -54.799 0.749 -120.581
v -54.821 4.649 -131.661
v -36.381 4.649 -131.699
v -36.359 4.649 -120.619
v -54.799 4.649 -120.581
f 744 743 742 741
f 737 738 742 741
f 738 739 743 742
f 739 740 744 743
f 740 737 741 744
v -123.087 0.443 -158.891
v -118.346 0.443 -174.602
v -104.253 0.443 -170.349
v -108.994 0.443 -154.638
v -123.087 4.343 -158.891
v -118.346 4.343 -174.602
v -104.253 4.343 -170.349
v -108.994 4.343 -154.638
f 752 751 750 749
f 745 746 750 749
f 746 747 751 750
f 747 748 752 751
f 748 745 749 752
v -62.938 0.468 -178.251
v -62.702 0.468 -160.213
v -67.562 0.468 -160.149
v -67.798 0.468 -178.187
v -62.938 4.368 -178.251
v -62.702 4.368 -160.213
v -67.562 4.368 -160.149
v -67.798 4.368 -178.187
f 760 759 758 757
f 753 754 758 757
f 754 755 759 758
f 755 756 760 759
f 756 753 757 760
v -10.072 0.326 -159.988
v -10.048 0.326 -178.278
v -4.908 0.326 -178.272
v -4.932 0.326 -159.982
v -10.072 4.226 -159.988
v -10.048 4.226 -178.278
v -4.908 4.226 -178.272
v -4.932 4.226 -159.982
f 768 767 766 765
f 761 762 766 765
f 762 763 767 766
f 763 764 768 767
f 764 761 765 768
v 14.058 0.470 -178.100
v 14.232 0.470 -159.970
v 9.042 0.470 -159.920
v 8.868 0.470 -178.050
v 14.058 4.370 -178.100
v 14.232 4.370 -159.970
v 9.042 4.370 -159.920
v 8.868 4.370 -178.050
f 776 775 774 773
f 769 770 774 773
f 770 771 775 774
f 771 772 776 775
f 772 769 773 776
v 27.339 0.663 -159.824
v 27.441 0.663 -178.254
v 34.441 0.663 -178.216
v 34.339 0.663 -159.786
v 27.339 4.563 -159.824
v 27.441 4.563 -178.254
v 34.441 4.563 -178.216
v 34.339 4.563 -159.786
f 784 783 782 781
f 777 778 782 781
f 778 779 783 782
f 779 780 784 783
f 780 777 781 784
v 36.815 0.613 -160.149
v 37.096 0.613 -178.247
v 43.305 0.613 -178.151
v 43.024 0.613 -160.053
v 36.815 4.513 -160.149
v 37.096 4.513 -178.247
v 43.305 4.513 -178.151
v 43.024 4.513 -160.053
f 792 791 790 789
f 785 786 790 789
f 786 787 791 790
f 787 788 792 791
f 788 785 789 792
v 103.000 0.812 -162.920
v 103.140 0.812 -178.180
v 107.540 0.812 -178.140
v 107.400 0.812 -162.880
v 103.000 4.712 -162.920
v 103.140 4.712 -178.180
v 107.540 4.712 -178.140
v 107.400 4.712 -162.880
f 800 799 798 797
f 793 794 798 797
f 794 795 799 798
f 795 796 800 799
f 796 793 797 800
v 145.425 0.565 -222.123
v 145.636 0.565 -236.511
v 153.415 0.565 -236.397
v 153.204 0.565 -222.009
v 145.425 4.465 -222.123
v 145.636 4.465 -236.511
v 153.415 4.465 -236.397
v 153.204 4.465 -222.009
f 808 807 806 805
f 801 802 806 805
f 802 803 807 806
f 803 804 808 807
f 804 801 805 808
v 152.997 0.579 -221.089
v 153.142 0.579 -206.810
v 145.323 0.579 -206.731
v 145.178 0.579 -221.010
v 152.997 4.479 -221.089
v 153.142 4.479 -206.810
v 145.323 4.479 -206.731
v 145.178 4.479 -221.010
f 816 815 814 813
f 809 810 814 813
f 810 811 815 814
f 811 812 816 815
f 812 809 813 816
v 179.721 0.638 -215.865
v 198.222 0.638 -215.290
v 197.879 0.638 -204.235
v 179.378 0.638 -204.810
v 179.721 4.538 -215.865
v 198.222 4.538 -215.290
v 197.879 4.538 -204.235
v 179.378 4.538 -204.810
f 824 823 822 821
f 817 818 822 821
f 818 819 823 822
f 819 820 824 823
f 820 817 821 824
v 179.207 0.623 -248.439
v 201.112 0.623 -246.761
v 200.073 0.623 -233.201
v 178.168 0.623 -234.879
v 179.207 4.523 -248.439
v 201.112 4.523 -246.761
v 200.073 4.523 -233.201
v 178.168 4.523 -234.879
f 832 831 830 829
f 825 826 830 829
f 826 827 831 830
f 827 828 832 831
f 828 825 829 832
v 218.563 0.453 -170.392
v 230.356 0.453 -169.982
v 230.057 0.453 -161.388
v 218.264 0.453 -161.798
v 218.563 4.353 -170.392
v 230.356 4.353 -169.982
v 230.057 4.353 -161.388
v 218.264 4.353 -161.798
f 840 839 838 837
f 833 834 838 837
f 834 835 839 838
f 835 836 840 839
f 836 833 837 840
v 230.785 0.622 -188.746
v 233.954 0.622 -173.788
v 219.915 0.622 -170.814
v 216.746 0.622 -185.772
v 230.785 4.522 -188.746
v 233.954 4.522 -173.788
v 219.915 4.522 -170.814
v 216.746 4.522 -185.772
f 848 847 846 845
f 841 842 846 845
f 842 843 847 846
f 843 844 848 847
f 844 841 845 848
v 220.377 0.452 -188.371
v 221.528 0.452 -203.146
v 233.043 0.452 -202.249
v 231.892 0.452 -187.474
v 220.377 4.352 -188.371
v 221.528 4.352 -203.146
v 233.043 4.352 -202.249
v 231.892 4.352 -187.474
f 856 855 854 853
f 849 850 854 853
f 850 851 855 854
f 851 852 856 855
f 852 849 853 856
v 214.379 0.516 -218.581
v 234.443 0.516 -214.233
v 231.501 0.516 -200.659
v 211.437 0.516 -205.007
v 214.379 4.416 -218.581
v 234.443 4.416 -214.233
v 231.501 4.416 -200.659
v 211.437 4.416 -205.007
f 864 863 862 861
f 857 858 862 861
f 858 859 863 862
f 859 860 864 863
f 860 857 861 864
v 224.491 0.669 -237.055
v 236.430 0.669 -226.661
v 226.909 0.669 -215.725
v 214.970 0.669 -226.119
v 224.491 4.569 -237.055
v 236.430 4.569 -226.661
v 226.909 4.569 -215.725
v 214.970 4.569 -226.119
f 872 871 870 869
f 865 866 870 869
f 866 867 871 870
f 867 868 872 871
f 868 865 869 872
v 218.329 0.627 -246.054
v 232.468 0.627 -246.255
v 232.631 0.627 -234.766
v 218.492 0.627 -234.565
v 218.329 4.527 -246.054
v 232.468 4.527 -246.255
v 232.631 4.527 -234.766
v 218.492 4.527 -234.565
f 880 879 878 877
f 873 874 878 877
f 874 875 879 878
f 875 876 880 879
f 876 873 877 880
v 202.082 0.524 -241.166
v 202.198 0.524 -248.215
v 205.878 0.524 -248.154
v 205.762 0.524 -241.105
v 202.082 4.424 -241.166
v 202.198 4.424 -248.215
v 205.878 4.424 -248.154
v 205.762 4.424 -241.105
f 888 887 886 885
f 881 882 886 885
f 882 883 887 886
f 883 884 888 887
f 884 881 885 888
v 202.745 0.488 -208.520
v 203.016 0.488 -211.869
v 206.355 0.488 -211.600
v 206.084 0.488 -208.251
v 202.745 4.388 -208.520
v 203.016 4.388 -211.869
v 206.355 4.388 -211.600
v 206.084 4.388 -208.251
f 896 895 894 893
f 889 890 894 893
f 890 891 895 894
f 891 892 896 895
f 892 889 893 896
v 181.291 0.610 -267.497
v 202.618 0.610 -259.321
v 196.669 0.610 -243.803
v 175.342 0.610 -251.979
v 181.291 4.510 -267.497
v 202.618 4.510 -259.321
v 196.669 4.510 -243.803
v 175.342 4.510 -251.979
f 904 903 902 901
f 897 898 902 901
f 898 899 903 902
f 899 900 904 903
f 900 897 901 904
v 88.852 0.501 -204.964
v 89.058 0.501 -222.633
v 95.708 0.501 -222.556
v 95.502 0.501 -204.887
v 88.852 4.401 -204.964
v 89.058 4.401 -222.633
v 95.708 4.401 -222.556
v 95.502 4.401 -204.887
f 912 911 910 909
f 905 906 910 909
f 906 907 911 910
f 907 908 912 911
f 908 905 909 912
v 85.100 0.394 -223.780
v 85.320 0.394 -204.381
v 78.200 0.394 -204.300
v 77.980 0.394 -223.699
v 85.100 4.294 -223.780
v 85.320 4.294 -204.381
v 78.200 4.294 -204.300
v 77.980 4.294 -223.699
f 920 919 918 917
f 913 914 918 917
f 914 915 919 918
f 915 916 920 919
f 916 913 917 920
v 85.002 0.325 -208.161
v 85.106 0.325 -205.213
v 82.438 0.325 -205.119
v 82.334 0.325 -208.067
v 85.002 4.225 -208.161
v 85.106 4.225 -205.213
v 82.438 4.225 -205.119
v 82.334 4.225 -208.067
f 928 927 926 925
f 921 922 926 925
f 922 923 927 926
f 923 924 928 927
f 924 921 925 928
v 54.862 0.488 -204.341
v 56.988 0.488 -221.580
v 67.538 0.488 -220.279
v 65.412 0.488 -203.040
v 54.862 4.388 -204.341
v 56.988 4.388 -221.580
v 67.538 4.388 -220.279
v 65.412 4.388 -203.040
f 936 935 934 933
f 929 930 934 933
f 930 931 935 934
f 931 932 936 935
f 932 929 933 936
v 54.017 0.460 -222.463
v 54.232 0.460 -203.704
v 46.643 0.460 -203.617
v 46.428 0.460 -222.376
v 54.017 4.360 -222.463
v 54.232 4.360 -203.704
v 46.643 4.360 -203.617
v 46.428 4.360 -222.376
f 944 943 942 941
f 937 938 942 941
f 938 939 943 942
f 939 940 944 943
f 940 937 941 944
v 9.915 0.282 -222.051
v 10.913 0.282 -203.848
v 2.905 0.282 -203.409
v 1.907 0.282 -221.612
v 9.915 4.182 -222.051
v 10.913 4.182 -203.848
v 2.905 4.182 -203.409
v 1.907 4.182 -221.612
f 952 951 950 949
f 945 946 950 949
f 946 947 951 950
f 947 948 952 951
f 948 945 949 952
v -20.682 0.329 -222.400
v -20.509 0.329 -204.710
v -27.658 0.329 -204.640
v -27.831 0.329 -222.330
v -20.682 4.229 -222.400
v -20.509 4.229 -204.710
v -27.658 4.229 -204.640
v -27.831 4.229 -222.330
f 960 959 958 957
f 953 954 958 957
f 954 955 959 958
f 955 956 960 959
f 956 953 957 960
v -42.389 0.285 -222.319
v -42.122 0.285 -204.211
v -49.511 0.285 -204.101
v -49.778 0.285 -222.209
v -42.389 4.185 -222.319
v -42.122 4.185 -204.211
v -49.511 4.185 -204.101
v -49.778 4.185 -222.209
f 968 967 966 965
f 961 962 966 965
f 962 963 967 966
f 963 964 968 967
f 964 961 965 968
v 190.286 0.542 236.151
v 211.754 0.542 236.410
v 211.654 0.542 244.709
v 190.186 0.542 244.450
v 190.286 4.442 236.151
v 211.754 4.442 236.410
v 211.654 4.442 244.709
v 190.186 4.442 244.450
f 976 975 974 973
f 969 970 974 973
f 970 971 975 974
f 971 972 976 975
f 972 969 973 976
v 190.620 0.370 226.098
v 212.593 0.370 223.734
v 213.760 0.370 234.582
v 191.787 0.370 236.946
v 190.620 4.270 226.098
v 212.593 4.270 223.734
v 213.760 4.270 234.582
v 191.787 4.270 236.946
f 984 983 982 981
f 977 978 982 981
f 978 979 983 982
f 979 980 984 983
f 980 977 981 984
v 193.383 0.283 190.910
v 213.310 0.283 190.195
v 213.577 0.283 197.630
v 193.650 0.283 198.345
v 193.383 4.183 190.910
v 213.310 4.183 190.195
v 213.577 4.183 197.630
v 193.650 4.183 198.345
f 992 991 990 989
f 985 986 990 989
f 986 987 991 990
f 987 988 992 991
f 988 985 989 992
v 198.230 0.208 176.474
v 213.177 0.208 177.093
v 212.850 0.208 184.986
v 197.903 0.208 184.367
v 198.230 4.108 176.474
v 213.177 4.108 177.093
v 212.850 4.108 184.986
v 197.903 4.108 184.367
f 1000 999 998 997
f 993 994 998 997
f 994 995 999 998
f 995 996 1000 999
f 996 993 997 1000
v 185.758 0.259 176.854
v 195.487 0.259 172.449
v 198.882 0.259 179.946
v 189.153 0.259 184.351
v 185.758 4.159 176.854
v 195.487 4.159 172.449
v 198.882 4.159 179.946
v 189.153 4.159 184.351
f 1008 1007 1006 1005
f 1001 1002 1006 1005
f 1002 1003 1007 1006
f 1003 1004 1008 1007
f 1004 1001 1005 1008
v 191.980 0.210 163.658
v 211.818 0.210 162.362
v 212.440 0.210 171.882
v 192.602 0.210 173.178
v 191.980 4.110 163.658
v 211.818 4.110 162.362
v 212.440 4.110 171.882
v 192.602 4.110 173.178
f 1016 1015 1014 1013
f 1009 1010 1014 1013
f 1010 1011 1015 1014
f 1011 1012 1016 1015
f 1012 1009 1013 1016
v 189.213 0.340 170.431
v 196.552 0.340 170.280
v 196.647 0.340 174.909
v 189.308 0.340 175.060
v 189.213 4.240 170.431
v 196.552 4.240 170.280
v 196.647 4.240 174.909
v 189.308 4.240 175.060
f 1024 1023 1022 1021
f 1017 1018 1022 1021
f 1018 1019 1023 1022
f 1019 1020 1024 1023
f 1020 1017 1021 1024
v 191.334 0.217 149.871
v 214.033 0.217 151.899
v 213.146 0.217 161.829
v 190.447 0.217 159.801
v 191.334 4.117 149.871
v 214.033 4.117 151.899
v 213.146 4.117 161.829
v 190.447 4.117 159.801
f 1032 1031 1030 1029
f 1025 1026 1030 1029
f 1026 1027 1031 1030
f 1027 1028 1032 1031
f 1028 1025 1029 1032
v 185.648 0.292 127.818
v 209.266 0.292 128.133
v 209.172 0.292 135.202
v 185.554 0.292 134.887
v 185.648 4.192 127.818
v 209.266 4.192 128.133
v 209.172 4.192 135.202
v 185.554 4.192 134.887
f 1040 1039 1038 1037
f 1033 1034 1038 1037
f 1034 1035 1039 1038
f 1035 1036 1040 1039
f 1036 1033 1037 1040
v 197.442 0.322 136.357
v 205.722 0.322 136.313
v 205.738 0.322 139.363
v 197.458 0.322 139.407
v 197.442 4.222 136.357
v 205.722 4.222 136.313
v 205.738 4.222 139.363
v 197.458 4.222 139.407
f 1048 1047 1046 1045
f 1041 1042 1046 1045
f 1042 1043 1047 1046
f 1043 1044 1048 1047
f 1044 1041 1045 1048
v 192.678 0.299 136.579
v 195.828 0.299 136.561
v 195.842 0.299 139.061
v 192.692 0.299 139.079
v 192.678 4.199 136.579
v 195.828 4.199 136.561
v 195.842 4.199 139.061
v 192.692 4.199 139.079
f 1056 1055 1054 1053
f 1049 1050 1054 1053
f 1050 1051 1055 1054
f 1051 1052 1056 1055
f 1052 1049 1053 1056
v 190.965 0.458 113.641
v 212.561 0.458 114.858
v 211.855 0.458 127.399
v 190.259 0.458 126.182
v 190.965 4.358 113.641
v 212.561 4.358 114.858
v 211.855 4.358 127.399
v 190.259 4.358 126.182
f 1064 1063 1062 1061
f 1057 1058 1062 1061
f 1058 1059 1063 1062
f 1059 1060 1064 1063
f 1060 1057 1061 1064
v 182.566 0.047 114.987
v 182.807 0.047 107.891
v 188.754 0.047 108.093
v 188.513 0.047 115.189
v 182.566 3.947 114.987
v 182.807 3.947 107.891
v 188.754 3.947 108.093
v 188.513 3.947 115.189
f 1072 1071 1070 1069
f 1065 1066 1070 1069
f 1066 1067 1071 1070
f 1067 1068 1072 1071
f 1068 1065 1069 1072
v 194.293 0.308 104.382
v 213.341 0.308 104.639
v 213.307 0.308 107.138
v 194.259 0.308 106.881
v 194.293 4.208 104.382
v 213.341 4.208 104.639
v 213.307 4.208 107.138
v 194.259 4.208 106.881
f 1080 1079 1078 1077
f 1073 1074 1078 1077
f 1074 1075 1079 1078
f 1075 1076 1080 1079
f 1076 1073 1077 1080
v 195.965 0.551 89.142
v 212.207 0.551 91.745
v 210.615 0.551 101.678
v 194.373 0.551 99.075
v 195.965 4.451 89.142
v 212.207 4.451 91.745
v 210.615 4.451 101.678
v 194.373 4.451 99.075
f 1088 1087 1086 1085
f 1081 1082 1086 1085
f 1082 1083 1087 1086
f 1083 1084 1088 1087
f 1084 1081 1085 1088
v 185.691 0.036 80.199
v 213.300 0.036 80.986
v 212.989 0.036 91.921
v 185.380 0.036 91.134
v 185.691 3.936 80.199
v 213.300 3.936 80.986
v 212.989 3.936 91.921
v 185.380 3.936 91.134
f 1096 1095 1094 1093
f 1089 1090 1094 1093
f 1090 1091 1095 1094
f 1091 1092 1096 1095
f 1092 1089 1093 1096
v 188.839 0.362 54.853
v 212.699 0.362 52.776
v 213.581 0.362 62.907
v 189.721 0.362 64.984
v 188.839 4.262 54.853
v 212.699 4.262 52.776
v 213.581 4.262 62.907
v 189.721 4.262 64.984
f 1104 1103 1102 1101
f 1097 1098 1102 1101
f 1098 1099 1103 1102
f 1099 1100 1104 1103
f 1100 1097 1101 1104
v 191.489 0.185 43.382
v 212.019 0.185 43.318
v 212.031 0.185 47.298
v 191.501 0.185 47.362
v 191.489 4.085 43.382
v 212.019 4.085 43.318
v 212.031 4.085 47.298
v 191.501 4.085 47.362
f 1112 1111 1110 1109
f 1105 1106 1110 1109
f 1106 1107 1111 1110
f 1107 1108 1112 1111
f 1108 1105 1109 1112
v 183.435 0.174 18.664
v 213.896 0.174 16.624
v 214.725 0.174 28.996
v 184.264 0.174 31.036
v 183.435 4.074 18.664
v 213.896 4.074 16.624
v 214.725 4.074 28.996
v 184.264 4.074 31.036
f 1120 1119 1118 1117
f 1113 1114 1118 1117
f 1114 1115 1119 1118
f 1115 1116 1120 1119
f 1116 1113 1117 1120
v 185.109 0.030 27.495
v 191.148 0.030 27.585
v 191.111 0.030 30.125
v 185.072 0.030 30.035
v 185.109 3.930 27.495
v 191.148 3.930 27.585
v 191.111 3.930 30.125
v 185.072 3.930 30.035
f 1128 1127 1126 1125
f 1121 1122 1126 1125
f 1122 1123 1127 1126
f 1123 1124 1128 1127
f 1124 1121 1125 1128
v 184.990 0.254 -17.040
v 211.371 0.254 -18.939
v 211.970 0.254 -10.620
v 185.589 0.254 -8.721
v 184.990 4.154 -17.040
v 211.371 4.154 -18.939
v 211.970 4.154 -10.620
v 185.589 4.154 -8.721
f 1136 1135 1134 1133
f 1129 1130 1134 1133
f 1130 1131 1135 1134
f 1131 1132 1136 1135
f 1132 1129 1133 1136
v 190.484 0.259 -40.545
v 212.642 0.259 -41.741
v 213.156 0.259 -32.215
v 190.998 0.259 -31.019
v 190.484 4.159 -40.545
v 212.642 4.159 -41.741
v 213.156 4.159 -32.215
v 190.998 4.159 -31.019
f 1144 1143 1142 1141
f 1137 1138 1142 1141
f 1138 1139 1143 1142
f 1139 1140 1144 1143
f 1140 1137 1141 1144
v 186.434 0.196 -42.173
v 191.562 0.196 -42.306
v 191.626 0.196 -39.807
v 186.498 0.196 -39.674
v 186.434 4.096 -42.173
v 191.562 4.096 -42.306
v 191.626 4.096 -39.807
v 186.498 4.096 -39.674
f 1152 1151 1150 1149
f 1145 1146 1150 1149
f 1146 1147 1151 1150
f 1147 1148 1152 1151
f 1148 1145 1149 1152
v 192.949 0.322 -52.933
v 212.691 0.322 -56.435
v 214.871 0.322 -44.147
v 195.129 0.322 -40.645
v 192.949 4.222 -52.933
v 212.691 4.222 -56.435
v 214.871 4.222 -44.147
v 195.129 4.222 -40.645
f 1160 1159 1158 1157
f 1153 1154 1158 1157
f 1154 1155 1159 1158
f 1155 1156 1160 1159
f 1156 1153 1157 1160
v 192.572 0.270 -65.866
v 192.908 0.270 -61.138
v 188.908 0.270 -60.854
v 188.572 0.270 -65.582
v 192.572 4.170 -65.866
v 192.908 4.170 -61.138
v 188.908 4.170 -60.854
v 188.572 4.170 -65.582
f 1168 1167 1166 1165
f 1161 1162 1166 1165
f 1162 1163 1167 1166
f 1163 1164 1168 1167
f 1164 1161 1165 1168
v 188.621 0.302 -77.491
v 213.179 0.302 -77.828
v 213.239 0.302 -73.429
v 188.681 0.302 -73.092
v 188.621 4.202 -77.491
v 213.179 4.202 -77.828
v 213.239 4.202 -73.429
v 188.681 4.202 -73.092
f 1176 1175 1174 1173
f 1169 1170 1174 1173
f 1170 1171 1175 1174
f 1171 1172 1176 1175
f 1172 1169 1173 1176
v 231.646 0.439 -96.596
v 253.034 0.439 -99.954
v 254.314 0.439 -91.804
v 232.926 0.439 -88.446
v 231.646 4.339 -96.596
v 253.034 4.339 -99.954
v 254.314 4.339 -91.804
v 232.926 4.339 -88.446
f 1184 1183 1182 1181
f 1177 1178 1182 1181
f 1178 1179 1183 1182
f 1179 1180 1184 1183
f 1180 1177 1181 1184
v 232.091 0.325 -86.972
v 249.681 0.325 -87.574
v 249.929 0.325 -80.308
v 232.339 0.325 -79.706
v 232.091 4.225 -86.972
v 249.681 4.225 -87.574
v 249.929 4.225 -80.308
v 232.339 4.225 -79.706
f 1192 1191 1190 1189
f 1185 1186 1190 1189
f 1186 1187 1191 1190
f 1187 1188 1192 1191
f 1188 1185 1189 1192
v 229.441 0.334 -62.117
v 248.958 0.334 -67.324
v 252.459 0.334 -54.203
v 232.942 0.334 -48.996
v 229.441 4.234 -62.117
v 248.958 4.234 -67.324
v 252.459 4.234 -54.203
v 232.942 4.234 -48.996
f 1200 1199 1198 1197
f 1193 1194 1198 1197
f 1194 1195 1199 1198
f 1195 1196 1200 1199
f 1196 1193 1197 1200
v 231.544 0.235 -48.062
v 246.313 0.235 -47.888
v 246.256 0.235 -43.058
v 231.487 0.235 -43.232
v 231.544 4.135 -48.062
v 246.313 4.135 -47.888
v 246.256 4.135 -43.058
v 231.487 4.135 -43.232
f 1208 1207 1206 1205
f 1201 1202 1206 1205
f 1202 1203 1207 1206
f 1203 1204 1208 1207
f 1204 1201 1205 1208
v 231.622 0.130 -36.110
v 252.470 0.130 -35.869
v 252.418 0.130 -31.370
v 231.570 0.130 -31.611
v 231.622 4.030 -36.110
v 252.470 4.030 -35.869
v 252.418 4.030 -31.370
v 231.570 4.030 -31.611
f 1216 1215 1214 1213
f 1209 1210 1214 1213
f 1210 1211 1215 1214
f 1211 1212 1216 1215
f 1212 1209 1213 1216
v 233.650 0.458 -27.564
v 251.759 0.458 -27.766
v 251.850 0.458 -19.656
v 233.741 0.458 -19.454
v 233.650 4.358 -27.564
v 251.759 4.358 -27.766
v 251.850 4.358 -19.656
v 233.741 4.358 -19.454
f 1224 1223 1222 1221
f 1217 1218 1222 1221
f 1218 1219 1223 1222
f 1219 1220 1224 1223
f 1220 1217 1221 1224
v 235.245 0.309 18.145
v 253.351 0.309 21.186
v 251.415 0.309 32.715
v 233.309 0.309 29.674
v 235.245 4.209 18.145
v 253.351 4.209 21.186
v 251.415 4.209 32.715
v 233.309 4.209 29.674
f 1232 1231 1230 1229
f 1225 1226 1230 1229
f 1226 1227 1231 1230
f 1227 1228 1232 1231
f 1228 1225 1229 1232
v 252.134 0.279 29.352
v 252.309 0.279 25.295
v 255.846 0.279 25.448
v 255.671 0.279 29.505
v 252.134 4.179 29.352
v 252.309 4.179 25.295
v 255.846 4.179 25.448
v 255.671 4.179 29.505
f 1240 1239 1238 1237
f 1233 1234 1238 1237
f 1234 1235 1239 1238
f 1235 1236 1240 1239
f 1236 1233 1237 1240
v 250.530 0.125 30.769
v 254.580 0.125 30.781
v 254.570 0.125 33.651
v 250.520 0.125 33.639
v 250.530 4.025 30.769
v 254.580 4.025 30.781
v 254.570 4.025 33.651
v 250.520 4.025 33.639
f 1248 1247 1246 1245
f 1241 1242 1246 1245
f 1242 1243 1247 1246
f 1243 1244 1248 1247
f 1244 1241 1245 1248
v 230.842 0.128 33.714
v 248.559 0.128 33.042
v 248.858 0.128 40.906
v 231.141 0.128 41.578
v 230.842 4.028 33.714
v 248.559 4.028 33.042
v 248.858 4.028 40.906
v 231.141 4.028 41.578
f 1256 1255 1254 1253
f 1249 1250 1254 1253
f 1250 1251 1255 1254
f 1251 1252 1256 1255
f 1252 1249 1253 1256
v 252.470 0.106 39.027
v 252.490 0.106 42.577
v 249.470 0.106 42.593
v 249.450 0.106 39.043
v 252.470 4.006 39.027
v 252.490 4.006 42.577
v 249.470 4.006 42.593
v 249.450 4.006 39.043
f 1264 1263 1262 1261
f 1257 1258 1262 1261
f 1258 1259 1263 1262
f 1259 1260 1264 1263
f 1260 1257 1261 1264
v 229.308 0.113 67.124
v 236.018 0.113 67.491
v 235.832 0.113 70.896
v 229.122 0.113 70.529
v 229.308 4.013 67.124
v 236.018 4.013 67.491
v 235.832 4.013 70.896
v 229.122 4.013 70.529
f 1272 1271 1270 1269
f 1265 1266 1270 1269
f 1266 1267 1271 1270
f 1267 1268 1272 1271
f 1268 1265 1269 1272
v 230.241 0.233 68.478
v 250.685 0.233 69.522
v 250.299 0.233 77.082
v 229.855 0.233 76.038
v 230.241 4.133 68.478
v 250.685 4.133 69.522
v 250.299 4.133 77.082
v 229.855 4.133 76.038
f 1280 1279 1278 1277
f 1273 1274 1278 1277
f 1274 1275 1279 1278
f 1275 1276 1280 1279
f 1276 1273 1277 1280
v 248.396 0.357 67.093
v 251.657 0.357 67.602
v 251.204 0.357 70.507
v 247.943 0.357 69.998
v 248.396 4.257 67.093
v 251.657 4.257 67.602
v 251.204 4.257 70.507
v 247.943 4.257 69.998
f 1288 1287 1286 1285
f 1281 1282 1286 1285
f 1282 1283 1287 1286
f 1283 1284 1288 1287
f 1284 1281 1285 1288
v 252.012 0.338 74.472
v 252.088 0.338 68.232
v 255.068 0.338 68.268
v 254.992 0.338 74.508
v 252.012 4.238 74.472
v 252.088 4.238 68.232
v 255.068 4.238 68.268
v 254.992 4.238 74.508
f 1296 1295 1294 1293
f 1289 1290 1294 1293
f 1290 1291 1295 1294
f 1291 1292 1296 1295
f 1292 1289 1293 1296
v 252.345 0.258 75.848
v 256.433 0.258 75.983
v 256.335 0.258 78.952
v 252.247 0.258 78.817
v 252.345 4.158 75.848
v 256.433 4.158 75.983
v 256.335 4.158 78.952
v 252.247 4.158 78.817
f 1304 1303 1302 1301
f 1297 1298 1302 1301
f 1298 1299 1303 1302
f 1299 1300 1304 1303
f 1300 1297 1301 1304
v 229.624 0.225 94.120
v 248.310 0.225 90.415
v 250.496 0.225 101.440
v 231.810 0.225 105.145
v 229.624 4.125 94.120
v 248.310 4.125 90.415
v 250.496 4.125 101.440
v 231.810 4.125 105.145
f 1312 1311 1310 1309
f 1305 1306 1310 1309
f 1306 1307 1311 1310
f 1307 1308 1312 1311
f 1308 1305 1309 1312
v 229.348 0.290 117.884
v 255.856 0.290 117.556
v 255.972 0.290 126.936
v 229.464 0.290 127.264
v 229.348 4.190 117.884
v 255.856 4.190 117.556
v 255.972 4.190 126.936
v 229.464 4.190 127.264
f 1320 1319 1318 1317
f 1313 1314 1318 1317
f 1314 1315 1319 1318
f 1315 1316 1320 1319
f 1316 1313 1317 1320
v 230.289 0.336 126.980
v 251.815 0.336 128.013
v 251.271 0.336 139.340
v 229.745 0.336 138.307
v 230.289 4.236 126.980
v 251.815 4.236 128.013
v 251.271 4.236 139.340
v 229.745 4.236 138.307
f 1328 1327 1326 1325
f 1321 1322 1326 1325
f 1322 1323 1327 1326
f 1323 1324 1328 1327
f 1324 1321 1325 1328
v 231.898 0.246 143.238
v 249.780 0.246 142.676
v 250.022 0.246 150.382
v 232.140 0.246 150.944
v 231.898 4.146 143.238
v 249.780 4.146 142.676
v 250.022 4.146 150.382
v 232.140 4.146 150.944
f 1336 1335 1334 1333
f 1329 1330 1334 1333
f 1330 1331 1335 1334
f 1331 1332 1336 1335
f 1332 1329 1333 1336
v 232.869 0.220 155.690
v 252.364 0.220 154.719
v 252.751 0.220 162.490
v 233.256 0.220 163.461
v 232.869 4.120 155.690
v 252.364 4.120 154.719
v 252.751 4.120 162.490
v 233.256 4.120 163.461
f 1344 1343 1342 1341
f 1337 1338 1342 1341
f 1338 1339 1343 1342
f 1339 1340 1344 1343
f 1340 1337 1341 1344
v 245.412 0.180 164.049
v 253.319 0.180 164.272
v 253.208 0.180 168.191
v 245.301 0.180 167.968
v 245.412 4.080 164.049
v 253.319 4.080 164.272
v 253.208 4.080 168.191
v 245.301 4.080 167.968
f 1352 1351 1350 1349
f 1345 1346 1350 1349
f 1346 1347 1351 1350
f 1347 1348 1352 1351
f 1348 1345 1349 1352
v 231.094 0.286 169.214
v 255.762 0.286 170.474
v 255.466 0.286 176.266
v 230.798 0.286 175.006
v 231.094 4.186 169.214
v 255.762 4.186 170.474
v 255.466 4.186 176.266
v 230.798 4.186 175.006
f 1360 1359 1358 1357
f 1353 1354 1358 1357
f 1354 1355 1359 1358
f 1355 1356 1360 1359
f 1356 1353 1357 1360
v 232.621 0.329 175.038
v 258.470 0.329 180.047
v 256.239 0.329 191.562
v 230.390 0.329 186.553
v 232.621 4.229 175.038
v 258.470 4.229 180.047
v 256.239 4.229 191.562
v 230.390 4.229 186.553
f 1368 1367 1366 1365
f 1361 1362 1366 1365
f 1362 1363 1367 1366
f 1363 1364 1368 1367
f 1364 1361 1365 1368
v 233.760 0.437 175.901
v 239.500 0.437 175.870
v 239.520 0.437 179.579
v 233.780 0.437 179.610
v 233.760 4.337 175.901
v 239.500 4.337 175.870
v 239.520 4.337 179.579
v 233.780 4.337 179.610
f 1376 1375 1374 1373
f 1369 1370 1374 1373
f 1370 1371 1375 1374
f 1371 1372 1376 1375
f 1372 1369 1373 1376
v -52.058 0.366 -178.495
v -51.229 0.366 -159.593
v -58.702 0.366 -159.265
v -59.531 0.366 -178.167
v -52.058 4.266 -178.495
v -51.229 4.266 -159.593
v -58.702 4.266 -159.265
v -59.531 4.266 -178.167
f 1384 1383 1382 1381
f 1377 1378 1382 1381
f 1378 1379 1383 1382
f 1379 1380 1384 1383
f 1380 1377 1381 1384
v -48.829 0.299 -161.787
v -48.651 0.299 -178.666
v -43.611 0.299 -178.613
v -43.789 0.299 -161.734
v -48.829 4.199 -161.787
v -48.651 4.199 -178.666
v -43.611 4.199 -178.613
v -43.789 4.199 -161.734
f 1392 1391 1390 1389
f 1385 1386 1390 1389
f 1386 1387 1391 1390
f 1387 1388 1392 1391
f 1388 1385 1389 1392
v -38.965 0.437 -159.657
v -38.915 0.437 -178.237
v -33.915 0.437 -178.223
v -33.965 0.437 -159.643
v -38.965 4.337 -159.657
v -38.915 4.337 -178.237
v -33.915 4.337 -178.223
v -33.965 4.337 -159.643
f 1400 1399 1398 1397
f 1393 1394 1398 1397
f 1394 1395 1399 1398
f 1395 1396 1400 1399
f 1396 1393 1397 1400
v -24.431 0.190 -178.147
v -24.419 0.190 -159.917
v -29.429 0.190 -159.913
v -29.441 0.190 -178.143
v -24.431 4.090 -178.147
v -24.419 4.090 -159.917
v -29.429 4.090 -159.913
v -29.441 4.090 -178.143
f 1408 1407 1406 1405
f 1401 1402 1406 1405
f 1402 1403 1407 1406
f 1403 1404 1408 1407
f 1404 1401 1405 1408
v -14.659 0.085 -178.193
v -14.561 0.085 -160.174
v -19.561 0.085 -160.147
v -19.659 0.085 -178.166
v -14.659 3.985 -178.193
v -14.561 3.985 -160.174
v -19.561 3.985 -160.147
v -19.659 3.985 -178.166
f 1416 1415 1414 1413
f 1409 1410 1414 1413
f 1410 1411 1415 1414
f 1411 1412 1416 1415
f 1412 1409 1413 1416
v 0.263 0.381 -160.203
v 0.357 0.381 -178.083
v 5.197 0.381 -178.057
v 5.103 0.381 -160.177
v 0.263 4.281 -160.203
v 0.357 4.281 -178.083
v 5.197 4.281 -178.057
v 5.103 4.281 -160.177
f 1424 1423 1422 1421
f 1417 1418 1422 1421
f 1418 1419 1423 1422
f 1419 1420 1424 1423
f 1420 1417 1421 1424
v 18.219 0.697 -160.066
v 18.331 0.697 -178.186
v 23.441 0.697 -178.154
v 23.329 0.697 -160.034
v 18.219 4.597 -160.066
v 18.331 4.597 -178.186
v 23.441 4.597 -178.154
v 23.329 4.597 -160.034
f 1432 1431 1430 1429
f 1425 1426 1430 1429
f 1426 1427 1431 1430
f 1427 1428 1432 1431
f 1428 1425 1429 1432
v 46.075 0.664 -160.443
v 46.206 0.664 -178.743
v 52.665 0.664 -178.697
v 52.534 0.664 -160.397
v 46.075 4.564 -160.443
v 46.206 4.564 -178.743
v 52.665 4.564 -178.697
v 52.534 4.564 -160.397
f 1440 1439 1438 1437
f 1433 1434 1438 1437
f 1434 1435 1439 1438
f 1435 1436 1440 1439
f 1436 1433 1437 1440
v 61.200 0.685 -179.178
v 63.641 0.685 -160.456
v 55.400 0.685 -159.382
v 52.959 0.685 -178.104
v 61.200 4.585 -179.178
v 63.641 4.585 -160.456
v 55.400 4.585 -159.382
v 52.959 4.585 -178.104
f 1448 1447 1446 1445
f 1441 1442 1446 1445
f 1442 1443 1447 1446
f 1443 1444 1448 1447
f 1444 1441 1445 1448
v -23.788 0.571 -44.984
v -10.923 0.571 -27.794
v -22.252 0.571 -19.316
v -35.117 0.571 -36.506
v -23.788 4.471 -44.984
v -10.923 4.471 -27.794
v -22.252 4.471 -19.316
v -35.117 4.471 -36.506
f 1456 1455 1454 1453
f 1449 1450 1454 1453
f 1450 1451 1455 1454
f 1451 1452 1456 1455
f 1452 1449 1453 1456
usemtl road
v 140.247 0.950 -256.037
v 139.020 1.009 -197.787
v 142.520 1.108 -197.713
v 143.747 1.062 -255.963
f 1457 1458 1459 1460
v 139.020 1.009 -197.787
v 138.100 0.795 -154.197
v 141.600 0.801 -154.123
v 142.520 1.108 -197.713
f 1461 1462 1463 1464
v 138.100 0.795 -154.196
v 138.010 0.807 -149.816
v 141.510 0.807 -149.744
v 141.600 0.801 -154.124
f 1465 1466 1467 1468
v 114.170 0.981 -232.217
v 114.230 1.044 -198.167
v 117.730 1.025 -198.173
v 117.670 1.003 -232.223
f 1469 1470 1471 1472
v 114.232 1.043 -198.085
v 116.362 0.814 -154.075
v 119.858 0.809 -154.245
v 117.728 1.026 -198.255
f 1473 1474 1475 1476
v 116.362 0.814 -154.077
v 116.572 0.812 -149.677
v 120.068 0.808 -149.843
v 119.858 0.809 -154.243
f 1477 1478 1479 1480
v -78.842 0.464 -147.110
v -28.952 0.462 -146.660
v -28.888 0.503 -153.660
v -78.778 0.515 -154.110
f 1481 1482 1483 1484
v -28.941 0.462 -146.660
v 43.819 0.767 -146.230
v 43.861 0.801 -153.230
v -28.899 0.503 -153.660
f 1485 1486 1487 1488
v 43.841 0.767 -146.230
v 118.321 0.716 -146.260
v 118.319 0.817 -153.260
v 43.839 0.801 -153.230
f 1489 1490 1491 1492
v 118.323 0.716 -146.260
v 139.763 0.727 -146.280
v 139.757 0.811 -153.280
v 118.317 0.817 -153.260
f 1493 1494 1495 1496
v 139.760 0.727 -146.280
v 167.210 0.747 -146.280
v 167.210 0.788 -153.280
v 139.760 0.811 -153.280
f 1497 1498 1499 1500
v 167.212 0.747 -146.280
v 249.792 0.783 -146.320
v 249.788 0.810 -153.320
v 167.208 0.788 -153.280
f 1501 1502 1503 1504
v 222.523 0.746 -102.720
v 256.003 0.965 -102.756
v 255.997 0.684 -108.256
v 222.517 0.761 -108.220
f 1505 1506 1507 1508
v 163.511 0.731 -255.975
v 164.420 0.829 -154.335
v 169.920 0.768 -154.385
v 169.011 0.668 -256.025
f 1509 1510 1511 1512
v 164.420 0.829 -154.336
v 164.460 0.816 -149.756
v 169.960 0.778 -149.804
v 169.920 0.768 -154.384
f 1513 1514 1515 1516
v 245.481 0.858 -255.957
v 247.090 0.807 -153.937
v 252.590 0.764 -154.023
v 250.980 0.733 -256.043
f 1517 1518 1519 1520
v 247.090 0.806 -154.013
v 247.040 0.817 -149.853
v 252.540 0.807 -149.787
v 252.590 0.766 -153.947
f 1521 1522 1523 1524
v 115.851 0.984 -233.969
v 100.901 0.774 -233.379
v 101.039 0.797 -229.881
v 115.989 0.998 -230.471
f 1525 1526 1527 1528
v 100.996 0.774 -233.380
v -15.764 0.561 -235.090
v -15.816 0.505 -231.590
v 100.944 0.798 -229.880
f 1529 1530 1531 1532
v -15.772 0.561 -235.090
v -78.252 0.535 -235.720
v -78.288 0.517 -232.220
v -15.808 0.505 -231.590
f 1533 1534 1535 1536
v -77.673 0.533 -235.615
v -82.273 0.549 -237.285
v -83.467 0.544 -233.995
v -78.867 0.515 -232.325
f 1537 1538 1539 1540
v -81.168 0.543 -236.047
v -83.818 0.672 -247.137
v -87.222 0.613 -246.323
v -84.572 0.552 -235.233
f 1541 1542 1543 1544
v -85.564 0.619 -248.479
v -123.534 0.426 -247.529
v -123.446 0.365 -244.031
v -85.476 0.641 -244.981
f 1545 1546 1547 1548
v 227.952 0.946 255.980
v 225.270 0.773 -105.490
v 219.770 0.724 -105.450
v 222.452 0.793 256.020
f 1549 1550 1551 1552
v -14.066 0.572 -233.040
v -11.036 0.611 -250.430
v -14.484 0.590 -251.030
v -17.514 0.577 -233.640
f 1553 1554 1555 1556
v -11.130 0.603 -250.093
v -9.071 0.678 -255.363
v -12.331 0.592 -256.637
v -14.390 0.587 -251.367
f 1557 1558 1559 1560
v 41.090 0.825 -149.740
v 40.960 0.775 -112.810
v 46.460 0.763 -112.790
v 46.590 0.841 -149.720
f 1561 1562 1563 1564
v 43.689 0.787 -115.550
v 13.099 0.741 -115.320
v 13.141 0.767 -109.820
v 43.731 0.814 -110.050
f 1565 1566 1567 1568
v 12.015 0.748 -115.088
v 7.915 0.756 -113.288
v 10.125 0.799 -108.252
v 14.225 0.732 -110.052
f 1569 1570 1571 1572
v 7.244 0.763 -112.870
v 3.024 0.826 -109.300
v 6.576 0.817 -105.100
v 10.796 0.791 -108.670
f 1573 1574 1575 1576
v 2.670 0.829 -108.940
v -1.610 0.853 -103.700
v 2.650 0.876 -100.220
v 6.930 0.812 -105.460
f 1577 1578 1579 1580
v -2.142 0.857 -102.651
v -4.012 0.836 -95.451
v 1.312 0.863 -94.069
v 3.182 0.870 -101.269
f 1581 1582 1583 1584
v -4.100 0.841 -94.749
v -4.070 0.783 -86.969
v 1.430 0.812 -86.991
v 1.400 0.868 -94.771
f 1585 1586 1587 1588
v -3.930 0.770 -86.113
v -0.920 0.669 -77.053
v 4.300 0.823 -78.787
v 1.290 0.815 -87.847
f 1589 1590 1591 1592
v -0.470 0.695 -76.218
v 27.450 0.881 -40.768
v 31.770 0.881 -44.172
v 3.850 0.820 -79.622
f 1593 1594 1595 1596
v 27.838 0.891 -40.367
v 35.098 0.879 -34.247
v 38.642 0.875 -38.453
v 31.382 0.873 -44.573
f 1597 1598 1599 1600
v 36.566 0.869 -33.617
v 45.386 0.795 -32.637
v 45.994 0.864 -38.103
v 37.174 0.883 -39.083
f 1601 1602 1603 1604
v 46.551 0.811 -32.758
v 52.831 0.836 -34.828
v 51.109 0.877 -40.052
v 44.829 0.861 -37.982
f 1605 1606 1607 1608
v 53.485 0.838 -35.145
v 59.285 0.910 -38.975
v 56.255 0.835 -43.565
v 50.455 0.879 -39.735
f 1609 1610 1611 1612
v 59.781 0.915 -39.394
v 126.791 0.804 -111.234
v 122.769 0.820 -114.986
v 55.759 0.838 -43.146
f 1613 1614 1615 1616
v 115.950 1.034 -196.420
v 140.740 1.010 -196.000
v 140.800 1.027 -199.500
v 116.010 1.038 -199.920
f 1617 1618 1619 1620
v -31.670 0.532 -150.200
v -32.100 0.904 -120.670
v -26.600 0.842 -120.590
v -26.170 0.557 -150.120
f 1621 1622 1623 1624
v -32.095 0.904 -120.798
v -33.285 0.882 -101.348
v -27.795 0.777 -101.012
v -26.605 0.842 -120.462
f 1625 1626 1627 1628
v -33.288 0.881 -101.287
v -33.928 0.888 -84.817
v -28.432 0.733 -84.603
v -27.792 0.778 -101.073
f 1629 1630 1631 1632
v -33.872 0.884 -84.151
v -31.092 0.869 -70.771
v -25.708 0.732 -71.889
v -28.488 0.732 -85.269
f 1633 1634 1635 1636
v -30.905 0.871 -70.195
v -25.135 0.932 -57.455
v -20.125 0.787 -59.725
v -25.895 0.730 -72.465
f 1637 1638 1639 1640
v -24.727 0.932 -56.810
v -17.707 0.905 -48.540
v -13.513 0.788 -52.100
v -20.533 0.785 -60.370
f 1641 1642 1643 1644
v -17.724 0.905 -48.561
v 11.286 0.960 -13.701
v 15.514 0.817 -17.219
v -13.496 0.788 -52.079
f 1645 1646 1647 1648
v 11.491 0.960 -13.481
v 21.351 0.947 -3.971
v 25.169 0.774 -7.929
v 15.309 0.818 -17.439
f 1649 1650 1651 1652
v 22.084 0.950 -3.464
v 30.754 0.910 0.636
v 33.106 0.749 -4.336
v 24.436 0.774 -8.436
f 1653 1654 1655 1656
v 31.406 0.910 0.850
v 41.446 0.938 2.800
v 42.494 0.811 -2.600
v 32.454 0.749 -4.550
f 1657 1658 1659 1660
v 42.342 0.937 2.825
v 50.912 0.946 1.655
v 50.168 0.776 -3.795
v 41.598 0.797 -2.625
f 1661 1662 1663 1664
v 51.544 0.946 1.490
v 59.704 0.940 -1.710
v 57.696 0.753 -6.830
v 49.536 0.778 -3.630
f 1665 1666 1667 1668
v 60.160 0.938 -1.940
v 68.060 0.942 -6.890
v 65.140 0.792 -11.550
v 57.240 0.753 -6.600
f 1669 1670 1671 1672
v 68.538 0.945 -7.268
v 156.748 1.015 -94.848
v 152.872 0.840 -98.752
v 64.662 0.784 -11.172
f 1673 1674 1675 1676
v 156.960 1.022 -95.086
v 162.430 0.960 -101.946
v 158.130 0.840 -105.374
v 152.660 0.839 -98.514
f 1677 1678 1679 1680
v 162.801 0.969 -102.562
v 165.971 0.858 -109.842
v 160.929 0.797 -112.038
v 157.759 0.841 -104.758
f 1681 1682 1683 1684
v 166.189 0.856 -110.697
v 166.419 0.852 -113.287
v 160.941 0.797 -113.773
v 160.711 0.804 -111.183
f 1685 1686 1687 1688
v 166.416 0.852 -113.257
v 167.046 0.893 -119.577
v 161.574 0.863 -120.123
v 160.944 0.797 -113.803
f 1689 1690 1691 1692
v 167.047 0.893 -119.585
v 169.177 0.721 -141.575
v 163.703 0.782 -142.105
v 161.573 0.863 -120.115
f 1693 1694 1695 1696
v 169.177 0.721 -141.575
v 169.947 0.774 -149.515
v 164.473 0.820 -150.045
v 163.703 0.782 -142.105
f 1697 1698 1699 1700
v 43.721 0.814 -110.050
v 124.791 0.807 -110.360
v 124.769 0.822 -115.860
v 43.699 0.787 -115.550
f 1701 1702 1703 1704
v 124.810 0.807 -110.360
v 163.710 0.833 -110.780
v 163.650 0.833 -116.280
v 124.750 0.821 -115.860
f 1705 1706 1707 1708
v -101.294 0.509 -177.929
v -96.094 0.635 -161.919
v -92.766 0.656 -163.001
v -97.966 0.563 -179.011
f 1709 1710 1711 1712
v -94.835 0.623 -160.758
v -79.205 0.523 -157.038
v -78.395 0.520 -160.442
v -94.025 0.655 -164.162
f 1713 1714 1715 1716
v -80.550 0.511 -158.742
v -80.560 0.497 -150.612
v -77.060 0.504 -150.608
v -77.050 0.518 -158.738
f 1717 1718 1719 1720
v -77.054 0.517 -158.627
v -75.724 0.688 -179.177
v -79.216 0.730 -179.403
v -80.546 0.509 -158.853
f 1721 1722 1723 1724
usemtl asphalt
