# Baked ultra-low Key West silhouette; generated by bake_key_west_far_city.py
mtllib far_city.mtl
usemtl massing
v 21.057 0.530 262.802
v 27.317 0.530 242.746
v 32.223 0.530 244.278
v 25.963 0.530 264.334
v 21.057 4.430 262.802
v 27.317 4.430 242.746
v 32.223 4.430 244.278
v 25.963 4.430 264.334
f 8 7 6 5
f 1 2 6 5
f 2 3 7 6
f 3 4 8 7
f 4 1 5 8
v 38.579 0.494 257.873
v 44.786 0.494 237.989
v 49.521 0.494 239.467
v 43.314 0.494 259.351
v 38.579 4.394 257.873
v 44.786 4.394 237.989
v 49.521 4.394 239.467
v 43.314 4.394 259.351
f 16 15 14 13
f 9 10 14 13
f 10 11 15 14
f 11 12 16 15
f 12 9 13 16
v 121.844 0.630 214.204
v 135.854 0.630 214.236
v 135.836 0.630 222.476
v 121.826 0.630 222.444
v 121.844 4.530 214.204
v 135.854 4.530 214.236
v 135.836 4.530 222.476
v 121.826 4.530 222.444
f 24 23 22 21
f 17 18 22 21
f 18 19 23 22
f 19 20 24 23
f 20 17 21 24
v 64.732 0.484 250.321
v 70.896 0.484 230.591
v 75.468 0.484 232.019
v 69.304 0.484 251.749
v 64.732 4.384 250.321
v 70.896 4.384 230.591
v 75.468 4.384 232.019
v 69.304 4.384 251.749
f 32 31 30 29
f 25 26 30 29
f 26 27 31 30
f 27 28 32 31
f 28 25 29 32
v 98.252 0.603 238.962
v 104.512 0.603 218.885
v 109.428 0.603 220.418
v 103.168 0.603 240.495
v 98.252 4.503 238.962
v 104.512 4.503 218.885
v 109.428 4.503 220.418
v 103.168 4.503 240.495
f 40 39 38 37
f 33 34 38 37
f 34 35 39 38
f 35 36 40 39
f 36 33 37 40
v 11.977 0.610 265.209
v 18.439 0.610 245.144
v 23.303 0.610 246.711
v 16.841 0.610 266.776
v 11.977 4.510 265.209
v 18.439 4.510 245.144
v 23.303 4.510 246.711
v 16.841 4.510 266.776
f 48 47 46 45
f 41 42 46 45
f 42 43 47 46
f 43 44 48 47
f 44 41 45 48
v 29.803 0.462 260.522
v 36.012 0.462 240.618
v 40.757 0.462 242.098
v 34.548 0.462 262.002
v 29.803 4.362 260.522
v 36.012 4.362 240.618
v 40.757 4.362 242.098
v 34.548 4.362 262.002
f 56 55 54 53
f 49 50 54 53
f 50 51 55 54
f 51 52 56 55
f 52 49 53 56
v 154.275 0.610 229.041
v 154.325 0.610 243.091
v 146.545 0.610 243.119
v 146.495 0.610 229.069
v 154.275 4.510 229.041
v 154.325 4.510 243.091
v 146.545 4.510 243.119
v 146.495 4.510 229.069
f 64 63 62 61
f 57 58 62 61
f 58 59 63 62
f 59 60 64 63
f 60 57 61 64
v 80.819 0.749 245.093
v 87.026 0.749 225.209
v 91.761 0.749 226.687
v 85.554 0.749 246.571
v 80.819 4.649 245.093
v 87.026 4.649 225.209
v 91.761 4.649 226.687
v 85.554 4.649 246.571
f 72 71 70 69
f 65 66 70 69
f 66 67 71 70
f 67 68 72 71
f 68 65 69 72
v 154.441 0.519 211.611
v 154.955 0.519 227.733
v 146.299 0.519 228.009
v 145.785 0.519 211.887
v 154.441 4.419 211.611
v 154.955 4.419 227.733
v 146.299 4.419 228.009
v 145.785 4.419 211.887
f 80 79 78 77
f 73 74 78 77
f 74 75 79 78
f 75 76 80 79
f 76 73 77 80
v 121.882 0.726 225.933
v 136.546 0.726 226.340
v 136.318 0.726 234.587
v 121.654 0.726 234.180
v 121.882 4.626 225.933
v 136.546 4.626 226.340
v 136.318 4.626 234.587
v 121.654 4.626 234.180
f 88 87 86 85
f 81 82 86 85
f 82 83 87 86
f 83 84 88 87
f 84 81 85 88
v 154.252 0.593 244.873
v 154.507 0.593 258.780
v 146.488 0.593 258.927
v 146.233 0.593 245.020
v 154.252 4.493 244.873
v 154.507 4.493 258.780
v 146.488 4.493 258.927
v 146.233 4.493 245.020
f 96 95 94 93
f 89 90 94 93
f 90 91 95 94
f 91 92 96 95
f 92 89 93 96
v 47.339 0.513 255.579
v 53.486 0.513 235.886
v 58.021 0.513 237.301
v 51.874 0.513 256.994
v 47.339 4.413 255.579
v 53.486 4.413 235.886
v 58.021 4.413 237.301
v 51.874 4.413 256.994
f 104 103 102 101
f 97 98 102 101
f 98 99 103 102
f 99 100 104 103
f 100 97 101 104
v 89.644 0.727 242.245
v 95.887 0.727 222.236
v 100.756 0.727 223.755
v 94.513 0.727 243.764
v 89.644 4.627 242.245
v 95.887 4.627 222.236
v 100.756 4.627 223.755
v 94.513 4.627 243.764
f 112 111 110 109
f 105 106 110 109
f 106 107 111 110
f 107 108 112 111
f 108 105 109 112
v 55.892 0.552 252.987
v 62.081 0.552 233.150
v 66.768 0.552 234.613
v 60.579 0.552 254.450
v 55.892 4.452 252.987
v 62.081 4.452 233.150
v 66.768 4.452 234.613
v 60.579 4.452 254.450
f 120 119 118 117
f 113 114 118 117
f 114 115 119 118
f 115 116 120 119
f 116 113 117 120
v 121.972 0.711 237.666
v 136.579 0.711 237.956
v 136.408 0.711 246.614
v 121.801 0.711 246.324
v 121.972 4.611 237.666
v 136.579 4.611 237.956
v 136.408 4.611 246.614
v 121.801 4.611 246.324
f 128 127 126 125
f 121 122 126 125
f 122 123 127 126
f 123 124 128 127
f 124 121 125 128
v 72.330 0.646 248.071
v 78.593 0.646 227.995
v 83.510 0.646 229.529
v 77.247 0.646 249.605
v 72.330 4.546 248.071
v 78.593 4.546 227.995
v 83.510 4.546 229.529
v 77.247 4.546 249.605
f 136 135 134 133
f 129 130 134 133
f 130 131 135 134
f 131 132 136 135
f 132 129 133 136
v 189.387 1.025 98.221
v 198.475 1.025 73.211
v 216.333 1.025 79.699
v 207.245 1.025 104.709
v 189.387 6.825 98.221
v 198.475 6.825 73.211
v 216.333 6.825 79.699
v 207.245 6.825 104.709
f 144 143 142 141
f 137 138 142 141
f 138 139 143 142
f 139 140 144 143
f 140 137 141 144
v 233.548 0.528 216.278
v 239.387 0.528 216.202
v 239.432 0.528 219.642
v 233.593 0.528 219.718
v 233.548 4.428 216.278
v 239.387 4.428 216.202
v 239.432 4.428 219.642
v 233.593 4.428 219.718
f 152 151 150 149
f 145 146 150 149
f 146 147 151 150
f 147 148 152 151
f 148 145 149 152
v 173.572 0.081 103.368
v 179.405 0.081 105.529
v 178.308 0.081 108.492
v 172.475 0.081 106.331
v 173.572 3.981 103.368
v 179.405 3.981 105.529
v 178.308 3.981 108.492
v 172.475 3.981 106.331
f 160 159 158 157
f 153 154 158 157
f 154 155 159 158
f 155 156 160 159
f 156 153 157 160
v 181.934 0.733 220.055
v 197.982 0.733 222.340
v 196.506 0.733 232.705
v 180.458 0.733 230.420
v 181.934 4.633 220.055
v 197.982 4.633 222.340
v 196.506 4.633 232.705
v 180.458 4.633 230.420
f 168 167 166 165
f 161 162 166 165
f 162 163 167 166
f 163 164 168 167
f 164 161 165 168
v -150.168 0.821 -72.417
v -143.623 0.821 -74.696
v -141.572 0.821 -68.803
v -148.117 0.821 -66.524
v -150.168 4.721 -72.417
v -143.623 4.721 -74.696
v -141.572 4.721 -68.803
v -148.117 4.721 -66.524
f 176 175 174 173
f 169 170 174 173
f 170 171 175 174
f 171 172 176 175
f 172 169 173 176
v -139.217 1.083 -74.360
v -121.935 1.083 -77.242
v -119.543 1.083 -62.900
v -136.825 1.083 -60.018
v -139.217 4.983 -74.360
v -121.935 4.983 -77.242
v -119.543 4.983 -62.900
v -136.825 4.983 -60.018
f 184 183 182 181
f 177 178 182 181
f 178 179 183 182
f 179 180 184 183
f 180 177 181 184
v -245.525 0.940 -169.935
v -215.935 0.940 -149.012
v -233.815 0.940 -123.725
v -263.405 0.940 -144.648
v -245.525 6.740 -169.935
v -215.935 6.740 -149.012
v -233.815 6.740 -123.725
v -263.405 6.740 -144.648
f 192 191 190 189
f 185 186 190 189
f 186 187 191 190
f 187 188 192 191
f 188 185 189 192
v -155.394 0.906 -250.597
v -137.765 0.906 -257.042
v -132.846 0.906 -243.583
v -150.475 0.906 -237.138
v -155.394 4.806 -250.597
v -137.765 4.806 -257.042
v -132.846 4.806 -243.583
v -150.475 4.806 -237.138
f 200 199 198 197
f 193 194 198 197
f 194 195 199 198
f 195 196 200 199
f 196 193 197 200
v 139.297 0.852 -254.817
v 155.636 0.852 -259.438
v 158.343 0.852 -249.863
v 142.004 0.852 -245.242
v 139.297 4.752 -254.817
v 155.636 4.752 -259.438
v 158.343 4.752 -249.863
v 142.004 4.752 -245.242
f 208 207 206 205
f 201 202 206 205
f 202 203 207 206
f 203 204 208 207
f 204 201 205 208
v 136.626 0.872 -243.590
v 152.338 0.872 -247.738
v 155.054 0.872 -237.450
v 139.342 0.872 -233.302
v 136.626 4.772 -243.590
v 152.338 4.772 -247.738
v 155.054 4.772 -237.450
v 139.342 4.772 -233.302
f 216 215 214 213
f 209 210 214 213
f 210 211 215 214
f 211 212 216 215
f 212 209 213 216
v 132.491 0.867 -232.038
v 149.444 0.867 -236.379
v 152.009 0.867 -226.362
v 135.056 0.867 -222.021
v 132.491 4.767 -232.038
v 149.444 4.767 -236.379
v 152.009 4.767 -226.362
v 135.056 4.767 -222.021
f 224 223 222 221
f 217 218 222 221
f 218 219 223 222
f 219 220 224 223
f 220 217 221 224
v 128.369 1.057 -217.831
v 143.651 1.057 -223.114
v 147.131 1.057 -213.049
v 131.849 1.057 -207.766
v 128.369 4.957 -217.831
v 143.651 4.957 -223.114
v 147.131 4.957 -213.049
v 131.849 4.957 -207.766
f 232 231 230 229
f 225 226 230 229
f 226 227 231 230
f 227 228 232 231
f 228 225 229 232
v 125.567 1.019 -207.747
v 141.737 1.019 -210.929
v 143.833 1.019 -200.273
v 127.663 1.019 -197.091
v 125.567 4.919 -207.747
v 141.737 4.919 -210.929
v 143.833 4.919 -200.273
v 127.663 4.919 -197.091
f 240 239 238 237
f 233 234 238 237
f 234 235 239 238
f 235 236 240 239
f 236 233 237 240
v 114.214 1.362 -194.773
v 128.323 1.362 -202.876
v 134.026 1.362 -192.947
v 119.917 1.362 -184.844
v 114.214 5.262 -194.773
v 128.323 5.262 -202.876
v 134.026 5.262 -192.947
v 119.917 5.262 -184.844
f 248 247 246 245
f 241 242 246 245
f 242 243 247 246
f 243 244 248 247
f 244 241 245 248
v 124.822 1.053 -205.822
v 130.357 1.053 -201.124
v 125.718 1.053 -195.658
v 120.183 1.053 -200.356
v 124.822 4.953 -205.822
v 130.357 4.953 -201.124
v 125.718 4.953 -195.658
v 120.183 4.953 -200.356
f 256 255 254 253
f 249 250 254 253
f 250 251 255 254
f 251 252 256 255
f 252 249 253 256
v 88.649 1.164 -185.765
v 103.611 1.164 -194.065
v 108.631 1.164 -185.015
v 93.669 1.164 -176.715
v 88.649 5.064 -185.765
v 103.611 5.064 -194.065
v 108.631 5.064 -185.015
v 93.669 5.064 -176.715
f 264 263 262 261
f 257 258 262 261
f 258 259 263 262
f 259 260 264 263
f 260 257 261 264
v 77.716 1.345 -172.260
v 90.265 1.345 -181.693
v 96.544 1.345 -173.340
v 83.995 1.345 -163.907
v 77.716 5.245 -172.260
v 90.265 5.245 -181.693
v 96.544 5.245 -173.340
v 83.995 5.245 -163.907
f 272 271 270 269
f 265 266 270 269
f 266 267 271 270
f 267 268 272 271
f 268 265 269 272
v 69.794 1.317 -160.078
v 83.730 1.317 -169.280
v 88.166 1.317 -162.562
v 74.230 1.317 -153.360
v 69.794 5.217 -160.078
v 83.730 5.217 -169.280
v 88.166 5.217 -162.562
v 74.230 5.217 -153.360
f 280 279 278 277
f 273 274 278 277
f 274 275 279 278
f 275 276 280 279
f 276 273 277 280
v 91.455 1.176 -178.168
v 98.623 1.176 -182.828
v 99.985 1.176 -180.732
v 92.817 1.176 -176.072
v 91.455 5.076 -178.168
v 98.623 5.076 -182.828
v 99.985 5.076 -180.732
v 92.817 5.076 -176.072
f 288 287 286 285
f 281 282 286 285
f 282 283 287 286
f 283 284 288 287
f 284 281 285 288
v 64.377 1.354 -159.893
v 73.127 1.354 -144.622
v 63.783 1.354 -139.267
v 55.033 1.354 -154.538
v 64.377 5.254 -159.893
v 73.127 5.254 -144.622
v 63.783 5.254 -139.267
v 55.033 5.254 -154.538
f 296 295 294 293
f 289 290 294 293
f 290 291 295 294
f 291 292 296 295
f 292 289 293 296
v 113.227 1.197 -257.255
v 124.438 1.197 -260.425
v 126.813 1.197 -252.025
v 115.602 1.197 -248.855
v 113.227 5.097 -257.255
v 124.438 5.097 -260.425
v 126.813 5.097 -252.025
v 115.602 5.097 -248.855
f 304 303 302 301
f 297 298 302 301
f 298 299 303 302
f 299 300 304 303
f 300 297 301 304
v 93.385 1.015 -251.615
v 104.498 1.015 -255.045
v 106.955 1.015 -247.085
v 95.842 1.015 -243.655
v 93.385 4.915 -251.615
v 104.498 4.915 -255.045
v 106.955 4.915 -247.085
v 95.842 4.915 -243.655
f 312 311 310 309
f 305 306 310 309
f 306 307 311 310
f 307 308 312 311
f 308 305 309 312
v 109.127 1.186 -246.859
v 120.695 1.186 -252.026
v 125.173 1.186 -242.001
v 113.605 1.186 -236.834
v 109.127 5.086 -246.859
v 120.695 5.086 -252.026
v 125.173 5.086 -242.001
v 113.605 5.086 -236.834
f 320 319 318 317
f 313 314 318 317
f 314 315 319 318
f 315 316 320 319
f 316 313 317 320
v 90.621 1.127 -243.931
v 103.520 1.127 -244.824
v 104.239 1.127 -234.429
v 91.340 1.127 -233.536
v 90.621 5.027 -243.931
v 103.520 5.027 -244.824
v 104.239 5.027 -234.429
v 91.340 5.027 -233.536
f 328 327 326 325
f 321 322 326 325
f 322 323 327 326
f 323 324 328 327
f 324 321 325 328
v 106.752 1.298 -237.658
v 119.570 1.298 -240.162
v 121.528 1.298 -230.142
v 108.710 1.298 -227.638
v 106.752 5.198 -237.658
v 119.570 5.198 -240.162
v 121.528 5.198 -230.142
v 108.710 5.198 -227.638
f 336 335 334 333
f 329 330 334 333
f 330 331 335 334
f 331 332 336 335
f 332 329 333 336
v 86.717 1.505 -231.626
v 97.667 1.505 -235.454
v 101.023 1.505 -225.854
v 90.073 1.505 -222.026
v 86.717 5.405 -231.626
v 97.667 5.405 -235.454
v 101.023 5.405 -225.854
v 90.073 5.405 -222.026
f 344 343 342 341
f 337 338 342 341
f 338 339 343 342
f 339 340 344 343
f 340 337 341 344
v 103.851 1.379 -227.641
v 115.626 1.379 -230.595
v 118.169 1.379 -220.459
v 106.394 1.379 -217.505
v 103.851 5.279 -227.641
v 115.626 5.279 -230.595
v 118.169 5.279 -220.459
v 106.394 5.279 -217.505
f 352 351 350 349
f 345 346 350 349
f 346 347 351 350
f 347 348 352 351
f 348 345 349 352
v 101.237 1.531 -216.581
v 113.081 1.531 -220.385
v 116.043 1.531 -211.159
v 104.199 1.531 -207.355
v 101.237 5.431 -216.581
v 113.081 5.431 -220.385
v 116.043 5.431 -211.159
v 104.199 5.431 -207.355
f 360 359 358 357
f 353 354 358 357
f 354 355 359 358
f 355 356 360 359
f 356 353 357 360
v 81.285 1.399 -217.699
v 90.045 1.399 -227.494
v 99.295 1.399 -219.221
v 90.535 1.399 -209.426
v 81.285 5.299 -217.699
v 90.045 5.299 -227.494
v 99.295 5.299 -219.221
v 90.535 5.299 -209.426
f 368 367 366 365
f 361 362 366 365
f 362 363 367 366
f 363 364 368 367
f 364 361 365 368
v 56.281 1.096 -202.348
v 76.099 1.096 -211.164
v 82.919 1.096 -195.832
v 63.101 1.096 -187.016
v 56.281 4.996 -202.348
v 76.099 4.996 -211.164
v 82.919 4.996 -195.832
v 63.101 4.996 -187.016
f 376 375 374 373
f 369 370 374 373
f 370 371 375 374
f 371 372 376 375
f 372 369 373 376
v 54.305 1.249 -186.105
v 67.061 1.249 -195.580
v 73.275 1.249 -187.215
v 60.519 1.249 -177.740
v 54.305 5.149 -186.105
v 67.061 5.149 -195.580
v 73.275 5.149 -187.215
v 60.519 5.149 -177.740
f 384 383 382 381
f 377 378 382 381
f 378 379 383 382
f 379 380 384 383
f 380 377 381 384
v 46.673 1.247 -172.797
v 59.756 1.247 -182.145
v 64.087 1.247 -176.083
v 51.004 1.247 -166.735
v 46.673 5.147 -172.797
v 59.756 5.147 -182.145
v 64.087 5.147 -176.083
v 51.004 5.147 -166.735
f 392 391 390 389
f 385 386 390 389
f 386 387 391 390
f 387 388 392 391
f 388 385 389 392
v 49.894 1.251 -168.920
v 58.926 1.251 -156.546
v 53.546 1.251 -152.620
v 44.514 1.251 -164.994
v 49.894 5.151 -168.920
v 58.926 5.151 -156.546
v 53.546 5.151 -152.620
v 44.514 5.151 -164.994
f 400 399 398 397
f 393 394 398 397
f 394 395 399 398
f 395 396 400 399
f 396 393 397 400
v 58.616 1.372 -160.682
v 62.724 1.372 -154.515
v 57.564 1.372 -151.078
v 53.456 1.372 -157.245
v 58.616 5.272 -160.682
v 62.724 5.272 -154.515
v 57.564 5.272 -151.078
v 53.456 5.272 -157.245
f 408 407 406 405
f 401 402 406 405
f 402 403 407 406
f 403 404 408 407
f 404 401 405 408
v 54.634 1.444 -223.215
v 71.639 1.444 -225.797
v 73.466 1.444 -213.765
v 56.461 1.444 -211.183
v 54.634 5.344 -223.215
v 71.639 5.344 -225.797
v 73.466 5.344 -213.765
v 56.461 5.344 -211.183
f 416 415 414 413
f 409 410 414 413
f 410 411 415 414
f 411 412 416 415
f 412 409 413 416
v 57.583 0.978 -237.380
v 73.044 0.978 -241.870
v 75.997 0.978 -231.700
v 60.536 0.978 -227.210
v 57.583 4.878 -237.380
v 73.044 4.878 -241.870
v 75.997 4.878 -231.700
v 60.536 4.878 -227.210
f 424 423 422 421
f 417 418 422 421
f 418 419 423 422
f 419 420 424 423
f 420 417 421 424
v 60.393 0.905 -249.875
v 76.798 0.905 -253.304
v 79.327 0.905 -241.205
v 62.922 0.905 -237.776
v 60.393 4.805 -249.875
v 76.798 4.805 -253.304
v 79.327 4.805 -241.205
v 62.922 4.805 -237.776
f 432 431 430 429
f 425 426 430 429
f 426 427 431 430
f 427 428 432 431
f 428 425 429 432
v 214.631 0.821 223.316
v 227.894 0.821 212.554
v 237.509 0.821 224.404
v 224.246 0.821 235.166
v 214.631 4.721 223.316
v 227.894 4.721 212.554
v 237.509 4.721 224.404
v 224.246 4.721 235.166
f 440 439 438 437
f 433 434 438 437
f 434 435 439 438
f 435 436 440 439
f 436 433 437 440
v 201.874 0.299 239.031
v 201.946 0.299 233.462
v 205.626 0.299 233.509
v 205.554 0.299 239.078
v 201.874 4.199 239.031
v 201.946 4.199 233.462
v 205.626 4.199 233.509
v 205.554 4.199 239.078
f 448 447 446 445
f 441 442 446 445
f 442 443 447 446
f 443 444 448 447
f 444 441 445 448
v 211.878 0.675 247.678
v 233.720 0.675 246.811
v 234.202 0.675 258.962
v 212.360 0.675 259.829
v 211.878 4.575 247.678
v 233.720 4.575 246.811
v 234.202 4.575 258.962
v 212.360 4.575 259.829
f 456 455 454 453
f 449 450 454 453
f 450 451 455 454
f 451 452 456 455
f 452 449 453 456
v 213.111 0.586 231.655
v 232.868 0.586 233.956
v 231.129 0.586 248.885
v 211.372 0.586 246.584
v 213.111 4.486 231.655
v 232.868 4.486 233.956
v 231.129 4.486 248.885
v 211.372 4.486 246.584
f 464 463 462 461
f 457 458 462 461
f 458 459 463 462
f 459 460 464 463
f 460 457 461 464
v 178.696 0.675 233.004
v 199.059 0.675 231.961
v 199.664 0.675 243.756
v 179.301 0.675 244.799
v 178.696 4.575 233.004
v 199.059 4.575 231.961
v 199.664 4.575 243.756
v 179.301 4.575 244.799
f 472 471 470 469
f 465 466 470 469
f 466 467 471 470
f 467 468 472 471
f 468 465 469 472
v 174.949 0.267 135.543
v 177.874 0.267 117.712
v 192.291 0.267 120.077
v 189.366 0.267 137.908
v 174.949 4.167 135.543
v 177.874 4.167 117.712
v 192.291 4.167 120.077
v 189.366 4.167 137.908
f 480 479 478 477
f 473 474 478 477
f 474 475 479 478
f 475 476 480 479
f 476 473 477 480
v 61.587 0.771 115.036
v 76.487 0.771 158.207
v 48.393 0.771 167.904
v 33.493 0.771 124.733
v 61.587 6.571 115.036
v 76.487 6.571 158.207
v 48.393 6.571 167.904
v 33.493 6.571 124.733
f 488 487 486 485
f 481 482 486 485
f 482 483 487 486
f 483 484 488 487
f 484 481 485 488
v 24.397 0.643 164.375
v 29.405 0.643 165.774
v 28.323 0.643 169.645
v 23.315 0.643 168.246
v 24.397 4.543 164.375
v 29.405 4.543 165.774
v 28.323 4.543 169.645
v 23.315 4.543 168.246
f 496 495 494 493
f 489 490 494 493
f 490 491 495 494
f 491 492 496 495
f 492 489 493 496
v 0.705 0.050 169.682
v 6.827 0.050 173.715
v 4.335 0.050 177.498
v -1.787 0.050 173.465
v 0.705 3.950 169.682
v 6.827 3.950 173.715
v 4.335 3.950 177.498
v -1.787 3.950 173.465
f 504 503 502 501
f 497 498 502 501
f 498 499 503 502
f 499 500 504 503
f 500 497 501 504
v -19.080 0.304 130.605
v -17.180 0.304 101.567
v 11.060 0.304 103.415
v 9.160 0.304 132.453
v -19.080 4.204 130.605
v -17.180 4.204 101.567
v 11.060 4.204 103.415
v 9.160 4.204 132.453
f 512 511 510 509
f 505 506 510 509
f 506 507 511 510
f 507 508 512 511
f 508 505 509 512
v -20.582 0.279 96.728
v -6.697 0.279 101.432
v -8.398 0.279 106.452
v -22.283 0.279 101.748
v -20.582 4.179 96.728
v -6.697 4.179 101.432
v -8.398 4.179 106.452
v -22.283 4.179 101.748
f 520 519 518 517
f 513 514 518 517
f 514 515 519 518
f 515 516 520 519
f 516 513 517 520
v 5.982 0.808 139.737
v 11.580 0.808 127.222
v 19.138 0.808 130.603
v 13.540 0.808 143.118
v 5.982 4.308 139.737
v 11.580 4.308 127.222
v 19.138 4.308 130.603
v 13.540 4.308 143.118
f 528 527 526 525
f 521 522 526 525
f 522 523 527 526
f 523 524 528 527
f 524 521 525 528
v 146.871 0.357 82.507
v 160.477 0.357 43.820
v 168.929 0.357 46.793
v 155.323 0.357 85.480
v 146.871 4.257 82.507
v 160.477 4.257 43.820
v 168.929 4.257 46.793
v 155.323 4.257 85.480
f 536 535 534 533
f 529 530 534 533
f 530 531 535 534
f 531 532 536 535
f 532 529 533 536
v 192.617 0.743 13.502
v 211.891 0.743 51.110
v 186.003 0.743 64.378
v 166.729 0.743 26.770
v 192.617 6.543 13.502
v 211.891 6.543 51.110
v 186.003 6.543 64.378
v 166.729 6.543 26.770
f 544 543 542 541
f 537 538 542 541
f 538 539 543 542
f 539 540 544 543
f 540 537 541 544
v 198.614 0.682 47.206
v 202.295 0.682 37.159
v 210.746 0.682 40.254
v 207.065 0.682 50.301
v 198.614 4.582 47.206
v 202.295 4.582 37.159
v 210.746 4.582 40.254
v 207.065 4.582 50.301
f 552 551 550 549
f 545 546 550 549
f 546 547 551 550
f 547 548 552 551
f 548 545 549 552
v 202.811 1.079 40.257
v 210.879 1.079 17.018
v 224.029 1.079 21.583
v 215.961 1.079 44.822
v 202.811 4.979 40.257
v 210.879 4.979 17.018
v 224.029 4.979 21.583
v 215.961 4.979 44.822
f 560 559 558 557
f 553 554 558 557
f 554 555 559 558
f 555 556 560 559
f 556 553 557 560
v 215.969 1.162 40.618
v 223.362 1.162 10.821
v 239.571 1.162 14.842
v 232.178 1.162 44.639
v 215.969 5.062 40.618
v 223.362 5.062 10.821
v 239.571 5.062 14.842
v 232.178 5.062 44.639
f 568 567 566 565
f 561 562 566 565
f 562 563 567 566
f 563 564 568 567
f 564 561 565 568
v 200.066 0.748 119.619
v 204.603 0.748 105.258
v 208.474 0.748 106.481
v 203.937 0.748 120.842
v 200.066 4.648 119.619
v 204.603 4.648 105.258
v 208.474 4.648 106.481
v 203.937 4.648 120.842
f 576 575 574 573
f 569 570 574 573
f 570 571 575 574
f 571 572 576 575
f 572 569 573 576
v 226.534 1.125 111.017
v 231.247 1.125 112.356
v 230.506 1.125 114.963
v 225.793 1.125 113.624
v 226.534 5.025 111.017
v 231.247 5.025 112.356
v 230.506 5.025 114.963
v 225.793 5.025 113.624
f 584 583 582 581
f 577 578 582 581
f 578 579 583 582
f 579 580 584 583
f 580 577 581 584
v 211.151 0.832 109.268
v 225.246 0.832 69.301
v 232.309 0.832 71.792
v 218.214 0.832 111.759
v 211.151 4.732 109.268
v 225.246 4.732 69.301
v 232.309 4.732 71.792
v 218.214 4.732 111.759
f 592 591 590 589
f 585 586 590 589
f 586 587 591 590
f 587 588 592 591
f 588 585 589 592
v 229.897 0.421 110.647
v 235.630 0.421 97.809
v 243.163 0.421 101.173
v 237.430 0.421 114.011
v 229.897 4.321 110.647
v 235.630 4.321 97.809
v 243.163 4.321 101.173
v 237.430 4.321 114.011
f 600 599 598 597
f 593 594 598 597
f 594 595 599 598
f 595 596 600 599
f 596 593 597 600
v 248.572 0.069 89.527
v 252.360 0.069 77.772
v 256.148 0.069 78.993
v 252.360 0.069 90.748
v 248.572 3.969 89.527
v 252.360 3.969 77.772
v 256.148 3.969 78.993
v 252.360 3.969 90.748
f 608 607 606 605
f 601 602 606 605
f 602 603 607 606
f 603 604 608 607
f 604 601 605 608
v -138.044 1.284 55.447
v -133.699 1.284 43.727
v -126.076 1.284 46.553
v -130.421 1.284 58.273
v -138.044 5.184 55.447
v -133.699 5.184 43.727
v -126.076 5.184 46.553
v -130.421 5.184 58.273
f 616 615 614 613
f 609 610 614 613
f 610 611 615 614
f 611 612 616 615
f 612 609 613 616
v -201.496 0.900 26.833
v -198.511 0.900 22.600
v -195.324 0.900 24.847
v -198.309 0.900 29.080
v -201.496 4.800 26.833
v -198.511 4.800 22.600
v -195.324 4.800 24.847
v -198.309 4.800 29.080
f 624 623 622 621
f 617 618 622 621
f 618 619 623 622
f 619 620 624 623
f 620 617 621 624
v -155.348 0.717 11.764
v -149.448 0.717 12.448
v -149.832 0.717 15.756
v -155.732 0.717 15.072
v -155.348 4.617 11.764
v -149.448 4.617 12.448
v -149.832 4.617 15.756
v -155.732 4.617 15.072
f 632 631 630 629
f 625 626 630 629
f 626 627 631 630
f 627 628 632 631
f 628 625 629 632
v -107.393 0.675 0.711
v -105.924 0.675 -3.764
v -103.207 0.675 -2.871
v -104.676 0.675 1.604
v -107.393 4.575 0.711
v -105.924 4.575 -3.764
v -103.207 4.575 -2.871
v -104.676 4.575 1.604
f 640 639 638 637
f 633 634 638 637
f 634 635 639 638
f 635 636 640 639
f 636 633 637 640
v -150.317 0.959 53.289
v -147.797 0.959 48.570
v -144.763 0.959 50.191
v -147.283 0.959 54.910
v -150.317 4.859 53.289
v -147.797 4.859 48.570
v -144.763 4.859 50.191
v -147.283 4.859 54.910
f 648 647 646 645
f 641 642 646 645
f 642 643 647 646
f 643 644 648 647
f 644 641 645 648
v -143.245 0.653 51.856
v -140.600 0.653 46.348
v -138.275 0.653 47.464
v -140.920 0.653 52.972
v -143.245 4.553 51.856
v -140.600 4.553 46.348
v -138.275 4.553 47.464
v -140.920 4.553 52.972
f 656 655 654 653
f 649 650 654 653
f 650 651 655 654
f 651 652 656 655
f 652 649 653 656
v -233.175 0.869 -198.144
v -227.999 0.869 -194.195
v -230.165 0.869 -191.356
v -235.341 0.869 -195.305
v -233.175 4.769 -198.144
v -227.999 4.769 -194.195
v -230.165 4.769 -191.356
v -235.341 4.769 -195.305
f 664 663 662 661
f 657 658 662 661
f 658 659 663 662
f 659 660 664 663
f 660 657 661 664
v 1.593 0.345 127.927
v 5.041 0.345 122.931
v 9.247 0.345 125.833
v 5.799 0.345 130.829
v 1.593 4.245 127.927
v 5.041 4.245 122.931
v 9.247 4.245 125.833
v 5.799 4.245 130.829
f 672 671 670 669
f 665 666 670 669
f 666 667 671 670
f 667 668 672 671
f 668 665 669 672
usemtl road
v 112.511 0.851 211.132
v 113.596 0.875 256.042
v 117.095 0.881 255.958
v 116.009 0.823 211.048
f 673 674 675 676
v 163.120 0.676 212.426
v 163.150 0.664 215.656
v 168.650 0.640 215.604
v 168.620 0.637 212.374
f 677 678 679 680
v 244.650 0.795 203.647
v 244.700 0.803 206.587
v 250.200 0.770 206.493
v 250.150 0.752 203.553
f 681 682 683 684
v 189.289 0.535 68.179
v 231.719 0.577 53.509
v 229.921 0.684 48.311
v 187.491 0.588 62.981
f 685 686 687 688
v -8.119 0.607 252.658
v 6.441 0.787 246.928
v 5.159 0.654 243.672
v -9.401 0.612 249.402
f 689 690 691 692
v 6.326 0.783 246.969
v 114.786 0.829 212.759
v 113.734 0.859 209.421
v 5.274 0.656 243.631
f 693 694 695 696
v 114.822 0.829 212.747
v 129.452 0.837 207.787
v 128.328 0.843 204.473
v 113.698 0.859 209.433
f 697 698 699 700
v 129.192 0.842 207.854
v 143.402 0.734 205.364
v 142.798 0.667 201.916
v 128.588 0.842 204.406
f 701 702 703 704
v 142.472 0.749 205.273
v 165.242 0.669 214.033
v 166.498 0.673 210.767
v 143.728 0.657 202.007
f 705 706 707 708
v 45.702 1.238 65.106
v 119.212 1.172 39.136
v 115.548 1.558 28.764
v 42.038 1.600 54.734
f 709 710 711 712
v 119.116 1.173 39.169
v 132.376 1.147 34.759
v 128.904 1.541 24.321
v 115.644 1.555 28.731
f 713 714 715 716
v 132.413 1.147 34.746
v 229.063 1.064 1.826
v 225.517 1.518 -8.586
v 128.867 1.542 24.334
f 717 718 719 720
v -254.195 0.120 172.069
v -165.985 2.581 141.415
v -169.595 2.627 131.025
v -257.805 0.120 161.678
f 721 722 723 724
v -175.325 2.647 114.331
v -257.795 0.120 142.800
v -254.205 0.120 153.198
v -171.735 2.347 124.729
f 725 726 727 728
v -255.950 1.041 -112.851
v -227.620 1.045 -78.821
v -222.240 0.963 -83.299
v -250.570 0.986 -117.329
f 729 730 731 732
v -227.620 1.045 -78.821
v -210.620 1.049 -58.391
v -205.240 0.982 -62.869
v -222.240 0.963 -83.299
f 733 734 735 736
v -210.222 1.051 -57.985
v -188.592 1.088 -39.245
v -184.008 0.995 -44.535
v -205.638 0.977 -63.275
f 737 738 739 740
v -188.589 1.089 -39.243
v -183.709 1.071 -35.023
v -179.131 0.970 -40.317
v -184.011 0.995 -44.537
f 741 742 743 744
v -183.717 1.071 -35.030
v -178.867 1.054 -30.810
v -174.273 0.979 -36.090
v -179.123 0.970 -40.310
f 745 746 747 748
v -178.570 1.054 -30.578
v -150.430 1.138 -10.988
v -146.430 1.035 -16.732
v -174.570 0.977 -36.322
f 749 750 751 752
v -150.666 1.132 -11.168
v -135.206 1.111 1.672
v -130.734 1.048 -3.712
v -146.194 1.036 -16.552
f 753 754 755 756
v -135.207 1.111 1.672
v -125.787 1.150 9.502
v -121.313 1.102 4.118
v -130.733 1.048 -3.712
f 757 758 759 760
v -126.356 1.145 8.902
v -106.946 1.075 34.942
v -101.334 0.938 30.758
v -120.744 1.113 4.718
f 761 762 763 764
v -107.426 1.081 34.055
v -92.716 1.184 74.175
v -86.144 1.088 71.765
v -100.854 0.933 31.645
f 765 766 767 768
v -92.715 1.184 74.178
v -86.695 1.470 90.548
v -80.125 1.455 88.132
v -86.145 1.088 71.762
f 769 770 771 772
v 112.532 1.481 23.778
v 115.702 1.515 34.448
v 119.058 1.450 33.452
v 115.888 1.440 22.782
f 773 774 775 776
v 57.134 0.818 96.398
v 33.984 0.852 104.948
v 35.196 0.946 108.232
v 58.346 0.891 99.682
f 777 778 779 780
v 32.940 0.888 107.173
v 43.770 1.128 137.813
v 47.070 1.111 136.647
v 36.240 0.899 106.007
f 781 782 783 784
v 43.943 1.129 136.291
v 41.603 1.123 139.971
v 44.557 1.105 141.849
v 46.897 1.106 138.169
f 785 786 787 788
v 42.453 1.126 139.276
v 29.493 1.051 144.246
v 30.747 1.086 147.514
v 43.707 1.103 142.544
f 789 790 791 792
v 29.400 1.050 144.285
v 20.780 1.023 148.175
v 22.220 1.024 151.365
v 30.840 1.087 147.475
f 793 794 795 796
v 19.851 1.016 150.357
v 23.971 0.973 161.937
v 27.269 0.984 160.763
v 23.149 1.025 149.183
f 797 798 799 800
v 112.425 1.298 18.078
v 18.485 1.226 50.318
v 22.055 1.511 60.722
v 115.995 1.542 28.482
f 801 802 803 804
v 166.165 0.649 215.134
v 247.695 0.796 206.334
v 247.105 0.763 200.866
v 165.575 0.685 209.666
f 805 806 807 808
v 84.797 1.018 -245.998
v 79.627 1.142 -230.838
v 84.833 1.267 -229.062
v 90.003 1.266 -244.222
f 809 810 811 812
v 79.529 1.149 -230.466
v 76.449 1.292 -214.336
v 81.851 1.282 -213.304
v 84.931 1.255 -229.434
f 813 814 815 816
v 76.661 1.320 -212.650
v 79.661 1.343 -206.270
v 84.639 1.310 -208.610
v 81.639 1.264 -214.990
f 817 818 819 820
v 80.471 1.324 -205.262
v 88.111 1.258 -199.372
v 91.469 1.235 -203.728
v 83.829 1.302 -209.618
f 821 822 823 824
v 87.534 1.247 -203.122
v 61.564 1.593 -165.842
v 66.076 1.619 -162.698
v 92.046 1.272 -199.978
f 825 826 827 828
v 89.313 1.251 -198.842
v 106.023 1.358 -195.902
v 106.977 1.232 -201.318
v 90.267 1.234 -204.258
f 829 830 831 832
v 108.038 1.356 -196.330
v 116.978 1.283 -202.360
v 113.902 1.206 -206.920
v 104.962 1.244 -200.890
f 833 834 835 836
v 117.869 1.258 -203.350
v 126.849 1.241 -220.260
v 121.991 1.148 -222.840
v 113.011 1.210 -205.930
f 837 838 839 840
v 127.035 1.229 -220.698
v 138.261 1.295 -255.148
v 133.031 1.143 -256.852
v 121.805 1.151 -222.402
f 841 842 843 844
v -179.731 1.086 -37.211
v -177.081 0.762 -46.951
v -180.459 0.885 -47.869
v -183.109 1.093 -38.129
f 845 846 847 848
v -177.082 0.762 -46.950
v -166.652 0.995 -85.220
v -170.028 1.026 -86.140
v -180.458 0.885 -47.870
f 849 850 851 852
v -166.918 0.994 -86.701
v -178.988 1.079 -103.511
v -181.832 1.110 -101.469
v -169.762 1.030 -84.659
f 853 854 855 856
v -181.892 1.096 -103.420
v -193.542 0.999 -84.860
v -190.578 0.996 -83.000
v -178.928 1.111 -101.560
f 857 858 859 860
v -169.626 1.032 -84.494
v -161.566 0.977 -75.754
v -158.994 0.982 -78.126
v -167.054 0.994 -86.866
f 861 862 863 864
v -162.029 0.993 -76.890
v -161.239 0.905 -49.270
v -157.741 1.178 -49.370
v -158.531 0.987 -76.990
f 865 866 867 868
v -160.480 0.929 -47.877
v -121.310 0.991 -20.987
v -119.330 0.997 -23.873
v -158.500 1.152 -50.763
f 869 870 871 872
v -121.827 0.992 -23.320
v -129.527 0.978 -10.280
v -126.513 1.038 -8.500
v -118.813 1.009 -21.540
f 873 874 875 876
v -129.526 0.978 -10.281
v -134.476 1.194 -1.911
v -131.464 1.194 -0.129
v -126.514 1.038 -8.499
f 877 878 879 880
v -118.741 1.009 -21.675
v -95.071 1.363 -71.185
v -98.229 1.323 -72.695
v -121.899 0.992 -23.185
f 881 882 883 884
v 129.010 1.409 30.178
v 170.430 0.476 135.948
v 173.690 0.504 134.672
v 132.270 1.406 28.902
f 885 886 887 888
v 60.461 0.967 104.916
v 111.191 0.557 85.646
v 109.949 0.660 82.374
v 59.219 0.930 101.644
f 889 890 891 892
v 112.190 0.550 84.672
v 127.190 0.948 47.962
v 123.950 0.964 46.638
v 108.950 0.668 83.348
f 893 894 895 896
v 127.062 0.945 46.385
v 118.872 1.462 33.035
v 115.888 1.504 34.865
v 124.078 1.105 48.215
f 897 898 899 900
v 65.924 0.767 160.412
v 72.254 0.120 175.642
v 75.486 0.120 174.298
v 69.156 0.800 159.068
f 901 902 903 904
v 20.818 1.022 148.158
v 9.428 0.933 152.978
v 10.792 0.921 156.202
v 22.182 1.024 151.382
f 905 906 907 908
v 9.429 0.933 152.978
v 0.479 0.853 156.758
v 1.841 0.662 159.982
v 10.791 0.921 156.202
f 909 910 911 912
v -0.008 0.851 157.067
v -9.148 0.533 165.257
v -6.812 0.445 167.863
v 2.328 0.690 159.673
f 913 914 915 916
v -8.855 0.554 165.044
v -15.805 0.242 169.054
v -14.055 0.246 172.086
v -7.105 0.433 168.076
f 917 918 919 920
v -15.229 0.255 168.846
v -25.829 0.173 170.686
v -25.231 0.120 174.134
v -14.631 0.233 172.294
f 921 922 923 924
v -25.446 0.171 170.662
v -41.206 0.246 169.902
v -41.374 0.146 173.398
v -25.614 0.120 174.158
f 925 926 927 928
v -41.220 0.246 169.901
v -60.630 0.140 169.121
v -60.770 0.137 172.619
v -41.360 0.146 173.399
f 929 930 931 932
v -59.867 0.149 169.331
v -75.987 0.120 160.601
v -77.653 0.236 163.679
v -61.533 0.140 172.409
f 933 934 935 936
v 45.001 0.882 168.914
v 68.081 0.763 161.404
v 66.999 0.825 158.076
v 43.919 0.924 165.586
f 937 938 939 940
v 68.087 0.763 161.402
v 71.337 0.794 160.332
v 70.243 0.856 157.008
v 66.993 0.825 158.078
f 941 942 943 944
v 72.384 0.824 159.393
v 77.724 0.948 147.623
v 74.536 0.963 146.177
v 69.196 0.829 157.947
f 945 946 947 948
v 77.769 0.937 146.288
v 61.479 0.922 102.668
v 58.201 0.980 103.892
v 74.491 0.959 147.512
f 949 950 951 952
v 61.464 0.922 102.629
v 59.364 0.818 97.389
v 56.116 0.876 98.691
v 58.216 0.981 103.931
f 953 954 955 956
v 59.385 0.819 97.442
v 45.515 1.381 59.322
v 42.225 1.388 60.518
v 56.095 0.875 98.638
f 957 958 959 960
v 35.754 0.877 105.283
v 28.654 0.719 98.963
v 26.326 0.770 101.577
v 33.426 0.913 107.897
f 961 962 963 964
v 27.007 0.733 98.588
v 19.037 0.848 100.878
v 20.003 0.867 104.242
v 27.973 0.769 101.952
f 965 966 967 968
v 17.913 0.867 101.868
v 16.363 0.906 105.468
v 19.577 0.894 106.852
v 21.127 0.841 103.252
f 969 970 971 972
v 16.364 0.906 105.466
v 14.894 0.926 108.866
v 18.106 0.933 110.254
v 19.576 0.894 106.854
f 973 974 975 976
v 14.861 0.929 110.174
v 28.481 1.043 146.494
v 31.759 1.056 145.266
v 18.139 0.924 108.946
f 977 978 979 980
v -165.927 2.584 141.395
v -76.417 1.445 109.165
v -80.143 1.514 98.815
v -169.653 2.618 131.045
f 981 982 983 984
v -85.157 1.368 84.125
v -175.277 2.645 114.315
v -171.783 2.340 124.745
v -81.663 1.530 94.555
f 985 986 987 988
v -86.713 1.470 90.497
v -81.583 1.429 105.147
v -74.977 1.409 102.833
v -80.107 1.456 88.183
f 989 990 991 992
v -205.137 0.983 -109.042
v -220.167 0.849 -90.222
v -217.433 0.832 -88.038
v -202.403 0.975 -106.858
f 993 994 995 996
v -220.194 0.849 -90.189
v -226.324 1.044 -82.119
v -223.536 1.037 -80.001
v -217.406 0.831 -88.071
f 997 998 999 1000
v -108.867 1.052 -3.206
v -112.137 1.051 4.084
v -108.943 1.100 5.516
v -105.673 1.097 -1.774
f 1001 1002 1003 1004
v -229.936 0.873 -103.670
v -209.526 1.026 -125.340
v -212.074 1.077 -127.740
v -232.484 0.855 -106.070
f 1005 1006 1007 1008
v -209.221 1.081 -127.295
v -213.541 1.146 -136.325
v -216.699 1.109 -134.815
v -212.379 1.032 -125.785
f 1009 1010 1011 1012
v -213.802 1.147 -134.419
v -200.312 1.403 -149.859
v -202.948 1.549 -152.161
v -216.438 1.122 -136.721
f 1013 1014 1015 1016
v -200.021 1.528 -151.697
v -222.201 1.339 -203.627
v -225.419 1.302 -202.253
v -203.239 1.420 -150.323
f 1017 1018 1019 1020
v -223.747 1.319 -204.689
v -255.937 1.144 -205.846
v -256.063 1.129 -202.348
v -223.873 1.317 -201.191
f 1021 1022 1023 1024
v -241.039 1.259 -178.471
v -234.189 1.264 -176.781
v -233.351 1.294 -180.179
v -240.201 1.306 -181.869
f 1025 1026 1027 1028
v -235.198 1.267 -177.469
v -227.098 1.236 -166.029
v -224.242 1.226 -168.051
v -232.342 1.287 -179.491
f 1029 1030 1031 1032
v 18.564 1.226 50.291
v -85.116 1.368 84.111
v -81.704 1.530 94.569
v 21.976 1.511 60.749
f 1033 1034 1035 1036
v 205.921 1.065 -13.688
v 112.441 1.298 18.072
v 115.979 1.543 28.488
v 209.459 1.477 -3.272
f 1037 1038 1039 1040
v 254.216 1.193 -30.244
v 205.906 1.065 -13.683
v 209.474 1.477 -3.277
v 257.784 1.622 -19.839
f 1041 1042 1043 1044
v -34.953 1.369 94.204
v 1.967 1.198 80.884
v -1.767 1.523 70.536
v -38.687 1.517 83.856
f 1045 1046 1047 1048
v 1.966 1.198 80.884
v 45.736 1.239 65.094
v 42.004 1.600 54.746
v -1.766 1.523 70.536
f 1049 1050 1051 1052
v -76.413 1.446 109.164
v -34.953 1.369 94.204
v -38.687 1.517 83.856
v -80.147 1.514 98.816
f 1053 1054 1055 1056
v 229.156 0.612 51.453
v 251.936 0.640 121.263
v 255.264 0.533 120.177
v 232.484 0.607 50.367
f 1057 1058 1059 1060
usemtl asphalt
