# Baked ultra-low Key West silhouette; generated by bake_key_west_far_city.py
mtllib far_city.mtl
usemtl massing
v 186.592 0.362 -163.844
v 208.510 0.362 -172.181
v 214.468 0.362 -156.516
v 192.550 0.362 -148.179
v 186.592 4.262 -163.844
v 208.510 4.262 -172.181
v 214.468 4.262 -156.516
v 192.550 4.262 -148.179
f 8 7 6 5
f 1 2 6 5
f 2 3 7 6
f 3 4 8 7
f 4 1 5 8
v 138.274 1.741 -82.387
v 168.523 1.741 -114.629
v 193.566 1.741 -91.133
v 163.317 1.741 -58.891
v 138.274 7.541 -82.387
v 168.523 7.541 -114.629
v 193.566 7.541 -91.133
v 163.317 7.541 -58.891
f 16 15 14 13
f 9 10 14 13
f 10 11 15 14
f 11 12 16 15
f 12 9 13 16
v -76.604 3.250 -255.488
v -62.226 3.250 -235.000
v -71.156 3.250 -228.732
v -85.534 3.250 -249.220
v -76.604 7.150 -255.488
v -62.226 7.150 -235.000
v -71.156 7.150 -228.732
v -85.534 7.150 -249.220
f 24 23 22 21
f 17 18 22 21
f 18 19 23 22
f 19 20 24 23
f 20 17 21 24
v 55.088 0.444 -230.642
v 64.850 0.444 -238.719
v 69.152 0.444 -233.518
v 59.390 0.444 -225.441
v 55.088 4.344 -230.642
v 64.850 4.344 -238.719
v 69.152 4.344 -233.518
v 59.390 4.344 -225.441
f 32 31 30 29
f 25 26 30 29
f 26 27 31 30
f 27 28 32 31
f 28 25 29 32
v 70.784 0.469 -239.211
v 75.017 0.469 -235.763
v 71.796 0.469 -231.809
v 67.563 0.469 -235.257
v 70.784 4.369 -239.211
v 75.017 4.369 -235.763
v 71.796 4.369 -231.809
v 67.563 4.369 -235.257
f 40 39 38 37
f 33 34 38 37
f 34 35 39 38
f 35 36 40 39
f 36 33 37 40
v 0.961 0.683 -132.377
v 31.728 0.683 -130.565
v 30.779 0.683 -114.463
v 0.012 0.683 -116.275
v 0.961 6.483 -132.377
v 31.728 6.483 -130.565
v 30.779 6.483 -114.463
v 0.012 6.483 -116.275
f 48 47 46 45
f 41 42 46 45
f 42 43 47 46
f 43 44 48 47
f 44 41 45 48
v 213.449 1.044 26.271
v 213.809 1.044 19.280
v 220.191 1.044 19.609
v 219.831 1.044 26.600
v 213.449 4.944 26.271
v 213.809 4.944 19.280
v 220.191 4.944 19.609
v 219.831 4.944 26.600
f 56 55 54 53
f 49 50 54 53
f 50 51 55 54
f 51 52 56 55
f 52 49 53 56
v 203.490 0.950 33.119
v 220.347 0.950 35.615
v 218.670 0.950 46.941
v 201.813 0.950 44.445
v 203.490 4.850 33.119
v 220.347 4.850 35.615
v 218.670 4.850 46.941
v 201.813 4.850 44.445
f 64 63 62 61
f 57 58 62 61
f 58 59 63 62
f 59 60 64 63
f 60 57 61 64
v 199.705 1.033 45.732
v 215.844 1.033 45.879
v 215.755 1.033 55.648
v 199.616 1.033 55.501
v 199.705 4.933 45.732
v 215.844 4.933 45.879
v 215.755 4.933 55.648
v 199.616 4.933 55.501
f 72 71 70 69
f 65 66 70 69
f 66 67 71 70
f 67 68 72 71
f 68 65 69 72
v 201.302 0.692 58.988
v 217.222 0.692 58.902
v 217.258 0.692 65.692
v 201.338 0.692 65.778
v 201.302 4.592 58.988
v 217.222 4.592 58.902
v 217.258 4.592 65.692
v 201.338 4.592 65.778
f 80 79 78 77
f 73 74 78 77
f 74 75 79 78
f 75 76 80 79
f 76 73 77 80
v 200.594 0.891 74.157
v 215.694 0.891 74.173
v 215.686 0.891 81.383
v 200.586 0.891 81.367
v 200.594 4.791 74.157
v 215.694 4.791 74.173
v 215.686 4.791 81.383
v 200.586 4.791 81.367
f 88 87 86 85
f 81 82 86 85
f 82 83 87 86
f 83 84 88 87
f 84 81 85 88
v 200.939 0.980 83.396
v 215.689 0.980 85.362
v 214.361 0.980 95.324
v 199.611 0.980 93.358
v 200.939 4.880 83.396
v 215.689 4.880 85.362
v 214.361 4.880 95.324
v 199.611 4.880 93.358
f 96 95 94 93
f 89 90 94 93
f 90 91 95 94
f 91 92 96 95
f 92 89 93 96
v 200.605 1.021 83.099
v 206.168 1.021 82.825
v 206.335 1.021 86.201
v 200.772 1.021 86.475
v 200.605 4.921 83.099
v 206.168 4.921 82.825
v 206.335 4.921 86.201
v 200.772 4.921 86.475
f 104 103 102 101
f 97 98 102 101
f 98 99 103 102
f 99 100 104 103
f 100 97 101 104
v 200.155 0.950 92.825
v 216.240 0.950 97.425
v 212.885 0.950 109.155
v 196.800 0.950 104.555
v 200.155 4.850 92.825
v 216.240 4.850 97.425
v 212.885 4.850 109.155
v 196.800 4.850 104.555
f 112 111 110 109
f 105 106 110 109
f 106 107 111 110
f 107 108 112 111
f 108 105 109 112
v 197.583 0.906 107.368
v 212.286 0.906 106.918
v 212.637 0.906 118.392
v 197.934 0.906 118.842
v 197.583 4.806 107.368
v 212.286 4.806 106.918
v 212.637 4.806 118.392
v 197.934 4.806 118.842
f 120 119 118 117
f 113 114 118 117
f 114 115 119 118
f 115 116 120 119
f 116 113 117 120
v 201.901 1.041 121.894
v 219.150 1.041 122.513
v 218.759 1.041 133.406
v 201.510 1.041 132.787
v 201.901 4.941 121.894
v 219.150 4.941 122.513
v 218.759 4.941 133.406
v 201.510 4.941 132.787
f 128 127 126 125
f 121 122 126 125
f 122 123 127 126
f 123 124 128 127
f 124 121 125 128
v 202.675 1.150 137.619
v 220.361 1.150 134.857
v 222.105 1.150 146.021
v 204.419 1.150 148.783
v 202.675 5.050 137.619
v 220.361 5.050 134.857
v 222.105 5.050 146.021
v 204.419 5.050 148.783
f 136 135 134 133
f 129 130 134 133
f 130 131 135 134
f 131 132 136 135
f 132 129 133 136
v 206.194 1.073 134.019
v 212.187 1.073 133.446
v 212.506 1.073 136.781
v 206.513 1.073 137.354
v 206.194 4.973 134.019
v 212.187 4.973 133.446
v 212.506 4.973 136.781
v 206.513 4.973 137.354
f 144 143 142 141
f 137 138 142 141
f 138 139 143 142
f 139 140 144 143
f 140 137 141 144
v 199.086 1.079 151.617
v 213.671 1.079 143.360
v 220.534 1.079 155.483
v 205.949 1.079 163.740
v 199.086 4.979 151.617
v 213.671 4.979 143.360
v 220.534 4.979 155.483
v 205.949 4.979 163.740
f 152 151 150 149
f 145 146 150 149
f 146 147 151 150
f 147 148 152 151
f 148 145 149 152
v 191.131 1.020 168.747
v 202.411 1.020 159.780
v 206.729 1.020 165.213
v 195.449 1.020 174.180
v 191.131 4.920 168.747
v 202.411 4.920 159.780
v 206.729 4.920 165.213
v 195.449 4.920 174.180
f 160 159 158 157
f 153 154 158 157
f 154 155 159 158
f 155 156 160 159
f 156 153 157 160
v 183.616 1.039 175.303
v 196.167 1.039 166.659
v 201.704 1.039 174.697
v 189.153 1.039 183.341
v 183.616 4.939 175.303
v 196.167 4.939 166.659
v 201.704 4.939 174.697
v 189.153 4.939 183.341
f 168 167 166 165
f 161 162 166 165
f 162 163 167 166
f 163 164 168 167
f 164 161 165 168
v 180.625 0.883 179.362
v 185.586 0.883 175.335
v 187.635 0.883 177.858
v 182.674 0.883 181.885
v 180.625 4.783 179.362
v 185.586 4.783 175.335
v 187.635 4.783 177.858
v 182.674 4.783 181.885
f 176 175 174 173
f 169 170 174 173
f 170 171 175 174
f 171 172 176 175
f 172 169 173 176
v 173.590 0.825 187.623
v 187.491 0.825 177.443
v 191.910 0.825 183.477
v 178.009 0.825 193.657
v 173.590 4.725 187.623
v 187.491 4.725 177.443
v 191.910 4.725 183.477
v 178.009 4.725 193.657
f 184 183 182 181
f 177 178 182 181
f 178 179 183 182
f 179 180 184 183
f 180 177 181 184
v 166.231 0.872 195.355
v 179.261 0.872 184.624
v 185.949 0.872 192.745
v 172.919 0.872 203.476
v 166.231 4.772 195.355
v 179.261 4.772 184.624
v 185.949 4.772 192.745
v 172.919 4.772 203.476
f 192 191 190 189
f 185 186 190 189
f 186 187 191 190
f 187 188 192 191
f 188 185 189 192
v 158.110 1.120 202.924
v 170.541 1.120 192.441
v 177.890 1.120 201.156
v 165.459 1.120 211.639
v 158.110 5.020 202.924
v 170.541 5.020 192.441
v 177.890 5.020 201.156
v 165.459 5.020 211.639
f 200 199 198 197
f 193 194 198 197
f 194 195 199 198
f 195 196 200 199
f 196 193 197 200
v 153.221 0.949 212.964
v 168.671 0.949 208.766
v 170.619 0.949 215.936
v 155.169 0.949 220.134
v 153.221 4.849 212.964
v 168.671 4.849 208.766
v 170.619 4.849 215.936
v 155.169 4.849 220.134
f 208 207 206 205
f 201 202 206 205
f 202 203 207 206
f 203 204 208 207
f 204 201 205 208
v 150.828 0.950 222.017
v 166.694 0.950 218.067
v 169.252 0.950 228.343
v 153.386 0.950 232.293
v 150.828 4.850 222.017
v 166.694 4.850 218.067
v 169.252 4.850 228.343
v 153.386 4.850 232.293
f 216 215 214 213
f 209 210 214 213
f 210 211 215 214
f 211 212 216 215
f 212 209 213 216
v 146.731 0.919 233.790
v 163.189 0.919 229.692
v 165.649 0.919 239.570
v 149.191 0.919 243.668
v 146.731 4.819 233.790
v 163.189 4.819 229.692
v 165.649 4.819 239.570
v 149.191 4.819 243.668
f 224 223 222 221
f 217 218 222 221
f 218 219 223 222
f 219 220 224 223
f 220 217 221 224
v 142.026 0.864 246.157
v 157.726 0.864 239.009
v 162.914 0.864 250.403
v 147.214 0.864 257.551
v 142.026 4.764 246.157
v 157.726 4.764 239.009
v 162.914 4.764 250.403
v 147.214 4.764 257.551
f 232 231 230 229
f 225 226 230 229
f 226 227 231 230
f 227 228 232 231
f 228 225 229 232
v 165.165 1.007 89.079
v 175.730 1.007 74.113
v 186.195 1.007 81.501
v 175.630 1.007 96.467
v 165.165 4.907 89.079
v 175.730 4.907 74.113
v 186.195 4.907 81.501
v 175.630 4.907 96.467
f 240 239 238 237
f 233 234 238 237
f 234 235 239 238
f 235 236 240 239
f 236 233 237 240
v 160.604 0.937 97.146
v 175.391 0.937 89.130
v 180.976 0.937 99.434
v 166.189 0.937 107.450
v 160.604 4.837 97.146
v 175.391 4.837 89.130
v 180.976 4.837 99.434
v 166.189 4.837 107.450
f 248 247 246 245
f 241 242 246 245
f 242 243 247 246
f 243 244 248 247
f 244 241 245 248
v 151.936 1.175 106.545
v 166.555 1.175 98.186
v 172.244 1.175 108.135
v 157.625 1.175 116.494
v 151.936 5.075 106.545
v 166.555 5.075 98.186
v 172.244 5.075 108.135
v 157.625 5.075 116.494
f 256 255 254 253
f 249 250 254 253
f 250 251 255 254
f 251 252 256 255
f 252 249 253 256
v 143.324 0.970 115.636
v 157.584 0.970 106.699
v 163.516 0.970 116.164
v 149.256 0.970 125.101
v 143.324 4.870 115.636
v 157.584 4.870 106.699
v 163.516 4.870 116.164
v 149.256 4.870 125.101
f 264 263 262 261
f 257 258 262 261
f 258 259 263 262
f 259 260 264 263
f 260 257 261 264
v 136.465 1.050 125.418
v 150.949 1.050 116.907
v 156.775 1.050 126.822
v 142.291 1.050 135.333
v 136.465 4.950 125.418
v 150.949 4.950 116.907
v 156.775 4.950 126.822
v 142.291 4.950 135.333
f 272 271 270 269
f 265 266 270 269
f 266 267 271 270
f 267 268 272 271
f 268 265 269 272
v 130.774 1.031 135.033
v 146.218 1.031 127.645
v 150.706 1.031 137.027
v 135.262 1.031 144.415
v 130.774 4.931 135.033
v 146.218 4.931 127.645
v 150.706 4.931 137.027
v 135.262 4.931 144.415
f 280 279 278 277
f 273 274 278 277
f 274 275 279 278
f 275 276 280 279
f 276 273 277 280
v 137.616 0.972 137.828
v 144.543 0.972 140.783
v 141.604 0.972 147.672
v 134.677 0.972 144.717
v 137.616 4.872 137.828
v 144.543 4.872 140.783
v 141.604 4.872 147.672
v 134.677 4.872 144.717
f 288 287 286 285
f 281 282 286 285
f 282 283 287 286
f 283 284 288 287
f 284 281 285 288
v 123.350 1.075 148.880
v 136.100 1.075 137.172
v 143.730 1.075 145.480
v 130.980 1.075 157.188
v 123.350 4.975 148.880
v 136.100 4.975 137.172
v 143.730 4.975 145.480
v 130.980 4.975 157.188
f 296 295 294 293
f 289 290 294 293
f 290 291 295 294
f 291 292 296 295
f 292 289 293 296
v 174.844 1.732 129.024
v 180.728 1.732 138.329
v 173.316 1.732 143.016
v 167.432 1.732 133.711
v 174.844 5.632 129.024
v 180.728 5.632 138.329
v 173.316 5.632 143.016
v 167.432 5.632 133.711
f 304 303 302 301
f 297 298 302 301
f 298 299 303 302
f 299 300 304 303
f 300 297 301 304
v 183.174 1.435 134.547
v 188.834 1.435 142.864
v 182.766 1.435 146.993
v 177.106 1.435 138.676
v 183.174 5.335 134.547
v 188.834 5.335 142.864
v 182.766 5.335 146.993
v 177.106 5.335 138.676
f 312 311 310 309
f 305 306 310 309
f 306 307 311 310
f 307 308 312 311
f 308 305 309 312
v 176.090 1.589 146.207
v 183.566 1.589 157.806
v 174.370 1.589 163.733
v 166.894 1.589 152.134
v 176.090 5.489 146.207
v 183.566 5.489 157.806
v 174.370 5.489 163.733
v 166.894 5.489 152.134
f 320 319 318 317
f 313 314 318 317
f 314 315 319 318
f 315 316 320 319
f 316 313 317 320
v 165.830 1.352 141.675
v 172.705 1.352 152.175
v 165.970 1.352 156.585
v 159.095 1.352 146.085
v 165.830 5.252 141.675
v 172.705 5.252 152.175
v 165.970 5.252 156.585
v 159.095 5.252 146.085
f 328 327 326 325
f 321 322 326 325
f 322 323 327 326
f 323 324 328 327
f 324 321 325 328
v 149.266 1.004 160.810
v 158.039 1.004 151.544
v 166.114 1.004 159.190
v 157.341 1.004 168.456
v 149.266 4.904 160.810
v 158.039 4.904 151.544
v 166.114 4.904 159.190
v 157.341 4.904 168.456
f 336 335 334 333
f 329 330 334 333
f 330 331 335 334
f 331 332 336 335
f 332 329 333 336
v 144.344 1.269 167.455
v 154.206 1.269 161.919
v 159.116 1.269 170.665
v 149.254 1.269 176.201
v 144.344 5.169 167.455
v 154.206 5.169 161.919
v 159.116 5.169 170.665
v 149.254 5.169 176.201
f 344 343 342 341
f 337 338 342 341
f 338 339 343 342
f 339 340 344 343
f 340 337 341 344
v 137.733 1.497 179.532
v 146.459 1.497 170.222
v 153.807 1.497 177.108
v 145.081 1.497 186.418
v 137.733 5.397 179.532
v 146.459 5.397 170.222
v 153.807 5.397 177.108
v 145.081 5.397 186.418
f 352 351 350 349
f 345 346 350 349
f 346 347 351 350
f 347 348 352 351
f 348 345 349 352
v 133.288 1.594 185.611
v 142.184 1.594 179.683
v 147.252 1.594 187.289
v 138.356 1.594 193.217
v 133.288 5.494 185.611
v 142.184 5.494 179.683
v 147.252 5.494 187.289
v 138.356 5.494 193.217
f 360 359 358 357
f 353 354 358 357
f 354 355 359 358
f 355 356 360 359
f 356 353 357 360
v 127.541 1.413 194.236
v 136.558 1.413 188.550
v 141.459 1.413 196.324
v 132.442 1.413 202.010
v 127.541 5.313 194.236
v 136.558 5.313 188.550
v 141.459 5.313 196.324
v 132.442 5.313 202.010
f 368 367 366 365
f 361 362 366 365
f 362 363 367 366
f 363 364 368 367
f 364 361 365 368
v 133.245 0.893 211.227
v 138.924 0.893 232.854
v 133.595 0.893 234.253
v 127.916 0.893 212.626
v 133.245 4.793 211.227
v 138.924 4.793 232.854
v 133.595 4.793 234.253
v 127.916 4.793 212.626
f 376 375 374 373
f 369 370 374 373
f 370 371 375 374
f 371 372 376 375
f 372 369 373 376
v 115.578 0.861 208.742
v 130.519 0.861 216.725
v 124.422 0.861 228.138
v 109.481 0.861 220.155
v 115.578 4.761 208.742
v 130.519 4.761 216.725
v 124.422 4.761 228.138
v 109.481 4.761 220.155
f 384 383 382 381
f 377 378 382 381
f 378 379 383 382
f 379 380 384 383
f 380 377 381 384
v 104.054 1.016 234.024
v 126.207 1.016 227.304
v 128.146 1.016 233.696
v 105.993 1.016 240.416
v 104.054 4.916 234.024
v 126.207 4.916 227.304
v 128.146 4.916 233.696
v 105.993 4.916 240.416
f 392 391 390 389
f 385 386 390 389
f 386 387 391 390
f 387 388 392 391
f 388 385 389 392
v 116.096 1.126 244.325
v 127.476 1.126 240.948
v 130.184 1.126 250.075
v 118.804 1.126 253.452
v 116.096 5.026 244.325
v 127.476 5.026 240.948
v 130.184 5.026 250.075
v 118.804 5.026 253.452
f 400 399 398 397
f 393 394 398 397
f 394 395 399 398
f 395 396 400 399
f 396 393 397 400
v 99.223 1.054 239.744
v 110.633 1.054 236.225
v 113.277 1.054 244.796
v 101.867 1.054 248.315
v 99.223 4.954 239.744
v 110.633 4.954 236.225
v 113.277 4.954 244.796
v 101.867 4.954 248.315
f 408 407 406 405
f 401 402 406 405
f 402 403 407 406
f 403 404 408 407
f 404 401 405 408
v 96.043 1.056 248.768
v 107.180 1.056 246.111
v 109.637 1.056 256.412
v 98.500 1.056 259.069
v 96.043 4.956 248.768
v 107.180 4.956 246.111
v 109.637 4.956 256.412
v 98.500 4.956 259.069
f 416 415 414 413
f 409 410 414 413
f 410 411 415 414
f 411 412 416 415
f 412 409 413 416
v 63.090 0.954 252.083
v 79.054 0.954 246.010
v 83.150 0.954 256.777
v 67.186 0.954 262.850
v 63.090 4.854 252.083
v 79.054 4.854 246.010
v 83.150 4.854 256.777
v 67.186 4.854 262.850
f 424 423 422 421
f 417 418 422 421
f 418 419 423 422
f 419 420 424 423
f 420 417 421 424
v 66.644 0.995 239.319
v 82.684 0.995 235.123
v 85.576 0.995 246.181
v 69.536 0.995 250.377
v 66.644 4.895 239.319
v 82.684 4.895 235.123
v 85.576 4.895 246.181
v 69.536 4.895 250.377
f 432 431 430 429
f 425 426 430 429
f 426 427 431 430
f 427 428 432 431
f 428 425 429 432
v 70.710 0.942 227.321
v 86.884 0.942 223.164
v 89.690 0.942 234.079
v 73.516 0.942 238.236
v 70.710 4.842 227.321
v 86.884 4.842 223.164
v 89.690 4.842 234.079
v 73.516 4.842 238.236
f 440 439 438 437
f 433 434 438 437
f 434 435 439 438
f 435 436 440 439
f 436 433 437 440
v 76.359 1.024 218.297
v 90.054 1.024 208.008
v 96.421 1.024 216.483
v 82.726 1.024 226.772
v 76.359 4.924 218.297
v 90.054 4.924 208.008
v 96.421 4.924 216.483
v 82.726 4.924 226.772
f 448 447 446 445
f 441 442 446 445
f 442 443 447 446
f 443 444 448 447
f 444 441 445 448
v 83.088 0.914 207.749
v 96.365 0.914 198.731
v 102.152 0.914 207.251
v 88.875 0.914 216.269
v 83.088 4.814 207.749
v 96.365 4.814 198.731
v 102.152 4.814 207.251
v 88.875 4.814 216.269
f 456 455 454 453
f 449 450 454 453
f 450 451 455 454
f 451 452 456 455
f 452 449 453 456
v 89.723 0.962 196.835
v 103.723 0.962 188.547
v 109.357 0.962 198.065
v 95.357 0.962 206.353
v 89.723 4.862 196.835
v 103.723 4.862 188.547
v 109.357 4.862 198.065
v 95.357 4.862 206.353
f 464 463 462 461
f 457 458 462 461
f 458 459 463 462
f 459 460 464 463
f 460 457 461 464
v 95.372 0.984 186.195
v 110.427 0.984 177.774
v 115.948 0.984 187.645
v 100.893 0.984 196.066
v 95.372 4.884 186.195
v 110.427 4.884 177.774
v 115.948 4.884 187.645
v 100.893 4.884 196.066
f 472 471 470 469
f 465 466 470 469
f 466 467 471 470
f 467 468 472 471
f 468 465 469 472
v 103.198 1.077 177.621
v 117.003 1.077 167.820
v 123.562 1.077 177.059
v 109.757 1.077 186.860
v 103.198 4.977 177.621
v 117.003 4.977 167.820
v 123.562 4.977 177.059
v 109.757 4.977 186.860
f 480 479 478 477
f 473 474 478 477
f 474 475 479 478
f 475 476 480 479
f 476 473 477 480
v 109.835 1.166 167.028
v 123.533 1.166 157.670
v 130.065 1.166 167.232
v 116.367 1.166 176.590
v 109.835 5.066 167.028
v 123.533 5.066 157.670
v 130.065 5.066 167.232
v 116.367 5.066 176.590
f 488 487 486 485
f 481 482 486 485
f 482 483 487 486
f 483 484 488 487
f 484 481 485 488
v 116.135 1.048 157.558
v 130.163 1.048 146.764
v 137.225 1.048 155.942
v 123.197 1.048 166.736
v 116.135 4.948 157.558
v 130.163 4.948 146.764
v 137.225 4.948 155.942
v 123.197 4.948 166.736
f 496 495 494 493
f 489 490 494 493
f 490 491 495 494
f 491 492 496 495
f 492 489 493 496
v -184.297 1.056 187.766
v -168.151 1.056 181.924
v -165.643 1.056 188.854
v -181.789 1.056 194.696
v -184.297 4.956 187.766
v -168.151 4.956 181.924
v -165.643 4.956 188.854
v -181.789 4.956 194.696
f 504 503 502 501
f 497 498 502 501
f 498 499 503 502
f 499 500 504 503
f 500 497 501 504
v -170.865 0.994 192.284
v -167.655 0.994 198.313
v -173.595 0.994 201.476
v -176.805 0.994 195.447
v -170.865 4.894 192.284
v -167.655 4.894 198.313
v -173.595 4.894 201.476
v -176.805 4.894 195.447
f 512 511 510 509
f 505 506 510 509
f 506 507 511 510
f 507 508 512 511
f 508 505 509 512
v -198.633 1.132 190.603
v -192.870 1.132 188.237
v -190.687 1.132 193.557
v -196.450 1.132 195.923
v -198.633 5.032 190.603
v -192.870 5.032 188.237
v -190.687 5.032 193.557
v -196.450 5.032 195.923
f 520 519 518 517
f 513 514 518 517
f 514 515 519 518
f 515 516 520 519
f 516 513 517 520
v -217.376 0.650 167.637
v -216.147 0.650 170.989
v -218.804 0.650 171.963
v -220.033 0.650 168.611
v -217.376 4.550 167.637
v -216.147 4.550 170.989
v -218.804 4.550 171.963
v -220.033 4.550 168.611
f 528 527 526 525
f 521 522 526 525
f 522 523 527 526
f 523 524 528 527
f 524 521 525 528
v -150.815 1.001 252.158
v -132.600 1.001 248.864
v -131.345 1.001 255.802
v -149.560 1.001 259.096
v -150.815 4.901 252.158
v -132.600 4.901 248.864
v -131.345 4.901 255.802
v -149.560 4.901 259.096
f 536 535 534 533
f 529 530 534 533
f 530 531 535 534
f 531 532 536 535
f 532 529 533 536
usemtl road
v -251.007 1.189 -248.749
v -212.207 1.178 -189.769
v -207.613 1.033 -192.791
v -246.413 0.947 -251.771
f 537 538 539 540
v -212.180 1.178 -189.727
v -135.220 0.809 -77.217
v -130.680 0.835 -80.323
v -207.640 1.033 -192.833
f 541 542 543 544
v -135.190 0.809 -77.175
v -132.320 0.785 -73.145
v -127.840 0.858 -76.335
v -130.710 0.835 -80.365
f 545 546 547 548
v 253.779 1.296 -51.384
v 245.729 1.511 -45.454
v 248.991 2.159 -41.026
v 257.041 2.114 -46.956
f 549 550 551 552
v 245.727 1.511 -45.453
v 240.687 1.283 -41.733
v 243.953 2.027 -37.307
v 248.993 2.159 -41.027
f 553 554 555 556
v 239.917 1.286 -40.857
v 232.407 1.125 -27.357
v 237.213 1.080 -24.683
v 244.723 2.006 -38.183
f 557 558 559 560
v 232.408 1.125 -27.359
v 222.998 1.099 -10.479
v 227.802 1.370 -7.801
v 237.212 1.080 -24.681
f 561 562 563 564
v 223.176 1.106 -10.757
v 206.126 1.198 12.693
v 210.574 1.151 15.927
v 227.624 1.403 -7.523
f 565 566 567 568
v 205.747 1.187 13.422
v 194.707 1.233 45.772
v 199.913 1.421 47.548
v 210.953 1.162 15.198
f 569 570 571 572
v 194.600 1.235 46.190
v 191.230 1.241 65.620
v 196.650 1.459 66.560
v 200.020 1.423 47.130
f 573 574 575 576
v 191.194 1.240 65.946
v 189.304 1.066 102.076
v 194.796 1.198 102.364
v 196.686 1.451 66.234
f 577 578 579 580
v -161.823 0.842 -36.150
v -230.473 1.110 -73.180
v -232.847 1.147 -68.780
v -164.197 0.835 -31.750
f 581 582 583 584
v -230.774 1.108 -73.318
v -242.704 1.065 -77.838
v -244.476 1.100 -73.162
v -232.546 1.142 -68.642
f 585 586 587 588
v -243.777 1.054 -77.993
v -252.187 1.061 -77.363
v -251.813 1.028 -72.377
v -243.403 1.111 -73.007
f 589 590 591 592
v -62.879 0.821 -138.377
v -53.669 0.822 -139.177
v -53.971 0.827 -142.663
v -63.181 0.835 -141.863
f 593 594 595 596
v -53.664 0.822 -139.177
v -30.714 0.769 -141.237
v -31.026 0.688 -144.723
v -53.976 0.827 -142.663
f 597 598 599 600
v -30.726 0.769 -141.236
v 15.964 0.954 -145.086
v 15.676 0.702 -148.574
v -31.014 0.688 -144.724
f 601 602 603 604
v 15.952 0.954 -145.085
v 106.362 0.627 -151.945
v 106.098 0.531 -155.435
v 15.688 0.702 -148.575
f 605 606 607 608
v 106.702 0.625 -152.005
v 134.182 0.374 -159.705
v 133.238 0.336 -163.075
v 105.758 0.533 -155.375
f 609 610 611 612
v 134.075 0.374 -159.679
v 146.075 0.344 -162.239
v 145.345 0.332 -165.661
v 133.345 0.336 -163.101
f 613 614 615 616
v 146.075 0.344 -162.238
v 168.305 0.364 -166.978
v 167.575 0.332 -170.402
v 145.345 0.332 -165.662
f 617 618 619 620
v 168.653 0.363 -167.092
v 193.293 0.440 -178.092
v 191.867 0.411 -181.288
v 167.227 0.332 -170.288
f 621 622 623 624
v 192.146 0.449 -177.995
v 217.666 0.377 -171.455
v 218.534 0.343 -174.845
v 193.014 0.403 -181.385
f 625 626 627 628
v 216.587 0.380 -172.271
v 227.037 0.383 -154.281
v 230.063 0.388 -156.039
v 219.613 0.358 -174.029
f 629 630 631 632
v 226.843 0.379 -155.543
v 224.993 0.817 -147.303
v 228.407 0.780 -146.537
v 230.257 0.407 -154.777
f 633 634 635 636
v 37.859 1.126 -258.325
v -12.926 1.174 -201.165
v -7.694 0.937 -196.515
v 43.092 0.822 -253.675
f 637 638 639 640
v -12.957 1.174 -201.130
v -25.477 1.116 -186.660
v -20.183 0.802 -182.080
v -7.663 0.937 -196.550
f 641 642 643 644
v -25.421 1.116 -186.723
v -65.621 0.814 -142.473
v -60.439 0.809 -137.767
v -20.239 0.801 -182.017
f 645 646 647 648
v -65.473 0.813 -142.626
v -132.523 0.825 -77.246
v -127.637 0.814 -72.234
v -60.587 0.806 -137.614
f 649 650 651 652
v -132.734 0.822 -77.022
v -148.564 0.815 -58.612
v -143.256 0.816 -54.048
v -127.426 0.814 -72.458
f 653 654 655 656
v -148.691 0.814 -58.455
v -165.791 0.828 -36.075
v -160.229 0.773 -31.825
v -143.129 0.816 -54.205
f 657 658 659 660
v -166.037 0.829 -35.707
v -180.417 0.837 -10.937
v -174.363 0.772 -7.423
v -159.983 0.774 -32.193
f 661 662 663 664
v -180.491 0.837 -10.803
v -192.161 0.836 11.497
v -185.959 0.760 14.743
v -174.289 0.772 -7.557
f 665 666 667 668
v -192.277 0.836 11.742
v -239.257 0.850 121.452
v -232.823 0.750 124.208
v -185.843 0.762 14.498
f 669 670 671 672
v -239.258 0.850 121.453
v -257.308 0.870 163.623
v -250.872 0.827 166.377
v -232.822 0.750 124.207
f 673 674 675 676
v 190.121 1.076 100.260
v 175.931 0.977 114.230
v 179.789 1.115 118.150
v 193.979 1.149 104.180
f 677 678 679 680
v 175.717 0.980 114.467
v 159.297 1.114 134.897
v 163.583 1.355 138.343
v 180.003 1.092 117.913
f 681 682 683 684
v 159.202 1.115 135.022
v 123.082 1.271 185.612
v 127.558 1.385 188.808
v 163.678 1.360 138.218
f 685 686 687 688
v 122.983 1.267 185.760
v 94.873 1.166 231.050
v 99.547 1.312 233.950
v 127.657 1.387 188.660
f 689 690 691 692
v 94.565 1.168 231.746
v 87.862 0.995 255.246
v 93.151 1.234 256.754
v 99.855 1.345 233.254
f 693 694 695 696
v 139.603 1.258 252.695
v 147.393 1.268 218.175
v 142.027 1.299 216.965
v 134.237 1.162 251.485
f 697 698 699 700
v 147.037 1.266 219.036
v 161.287 1.390 196.416
v 156.633 1.193 193.484
v 142.383 1.305 216.104
f 701 702 703 704
v 161.161 1.395 196.599
v 191.801 1.207 155.719
v 187.399 1.018 152.421
v 156.759 1.191 193.301
f 705 706 707 708
v 192.298 1.168 154.604
v 196.348 1.010 134.164
v 190.952 1.970 133.096
v 186.902 0.965 153.536
f 709 710 711 712
v 196.352 0.991 133.117
v 192.912 1.073 115.007
v 187.508 1.054 116.033
v 190.948 1.814 134.143
f 713 714 715 716
v 192.934 1.061 115.897
v 194.774 1.197 102.597
v 189.326 1.068 101.843
v 187.486 1.065 115.143
f 717 718 719 720
v -88.758 4.086 -250.474
v -79.360 4.224 -254.384
v -80.705 4.279 -257.616
v -90.102 4.318 -253.706
f 721 722 723 724
v 103.659 0.612 -152.713
v 110.029 0.589 -135.953
v 115.171 0.666 -137.907
v 108.801 0.532 -154.667
f 725 726 727 728
v 110.145 0.587 -135.691
v 120.175 0.759 -115.821
v 125.085 0.758 -118.299
v 115.055 0.664 -138.169
f 729 730 731 732
v 120.791 0.773 -115.016
v 134.241 0.935 -102.916
v 137.919 0.912 -107.004
v 124.469 0.746 -119.104
f 733 734 735 736
v 133.420 0.929 -104.261
v 135.250 0.933 -97.301
v 140.570 0.823 -98.699
v 138.740 0.890 -105.659
f 737 738 739 740
v 135.173 0.936 -97.736
v 135.803 0.870 -91.196
v 141.277 0.817 -91.724
v 140.647 0.824 -98.264
f 741 742 743 744
v 135.790 0.873 -91.435
v 135.850 0.813 -84.725
v 141.350 0.771 -84.775
v 141.290 0.816 -91.485
f 745 746 747 748
v 135.917 0.800 -84.146
v 137.487 0.693 -77.176
v 142.853 0.684 -78.384
v 141.283 0.777 -85.354
f 749 750 751 752
v 137.802 0.680 -76.382
v 140.552 0.689 -71.722
v 145.288 0.768 -74.518
v 142.538 0.701 -79.178
f 753 754 755 756
v 141.764 0.730 -70.625
v 149.664 1.015 -66.965
v 151.976 0.991 -71.955
v 144.076 0.711 -75.615
f 757 758 759 760
v 150.034 1.032 -66.825
v 161.234 1.185 -63.485
v 162.806 1.129 -68.755
v 151.606 0.981 -72.095
f 761 762 763 764
v 160.760 1.195 -63.676
v 163.940 1.094 -62.036
v 166.460 1.086 -66.924
v 163.280 1.127 -68.564
f 765 766 767 768
v 163.220 1.119 -62.571
v 165.110 1.075 -60.611
v 169.070 1.157 -64.429
v 167.180 1.079 -66.389
f 769 770 771 772
v 164.977 1.080 -60.759
v 166.677 1.004 -58.719
v 170.903 1.248 -62.241
v 169.203 1.161 -64.281
f 773 774 775 776
v 166.064 1.021 -60.118
v 166.494 1.047 -56.878
v 171.946 1.053 -57.602
v 171.516 1.218 -60.842
f 777 778 779 780
v 166.482 1.048 -56.979
v 166.732 1.029 -54.359
v 172.208 0.861 -54.881
v 171.958 1.048 -57.501
f 781 782 783 784
v 166.721 1.030 -54.534
v 166.831 1.058 -51.004
v 172.329 0.979 -51.176
v 172.219 0.862 -54.706
f 785 786 787 788
v 148.012 1.036 -94.721
v 157.022 0.875 -117.841
v 151.898 0.818 -119.839
v 142.888 0.820 -96.719
f 789 790 791 792
v 137.114 0.866 -95.368
v 144.654 0.886 -93.088
v 146.246 0.952 -98.352
v 138.706 0.861 -100.632
f 793 794 795 796
v 153.565 0.905 -116.240
v 179.915 1.883 -107.170
v 181.705 1.757 -112.370
v 155.355 0.803 -121.440
f 797 798 799 800
v 179.765 1.883 -107.226
v 186.995 2.065 -104.256
v 189.085 1.759 -109.344
v 181.855 1.758 -112.314
f 801 802 803 804
v 186.343 2.036 -104.636
v 195.193 1.686 -97.696
v 198.587 1.601 -102.024
v 189.737 1.753 -108.964
f 805 806 807 808
v 195.265 1.683 -97.641
v 200.865 1.464 -93.541
v 204.115 1.499 -97.979
v 198.515 1.605 -102.079
f 809 810 811 812
v 201.002 1.459 -93.448
v 210.962 1.229 -87.038
v 213.938 1.212 -91.662
v 203.978 1.501 -98.072
f 813 814 815 816
v 210.496 1.238 -87.415
v 227.396 1.191 -70.345
v 231.304 1.202 -74.215
v 214.404 1.209 -91.285
f 817 818 819 820
v 227.258 1.192 -70.496
v 233.168 1.163 -63.566
v 237.352 1.216 -67.134
v 231.442 1.201 -74.064
f 821 822 823 824
v 232.848 1.163 -64.030
v 244.948 1.867 -41.920
v 249.772 2.306 -44.560
v 237.672 1.211 -66.670
f 825 826 827 828
v -249.487 0.981 257.661
v -224.779 1.122 249.471
v -225.881 1.265 246.149
v -250.588 0.947 254.339
f 829 830 831 832
v -224.587 1.124 249.395
v -190.447 1.317 233.395
v -191.933 1.334 230.225
v -226.073 1.249 246.225
f 833 834 835 836
v -191.681 1.321 233.490
v -180.501 1.254 236.760
v -179.519 1.252 233.400
v -190.699 1.335 230.130
f 837 838 839 840
v -180.526 1.254 236.752
v -132.106 1.346 251.692
v -131.074 1.273 248.348
v -179.494 1.252 233.408
f 841 842 843 844
v -254.684 0.890 166.646
v -245.644 0.731 169.906
v -244.456 0.753 166.614
v -253.496 0.887 163.354
f 845 846 847 848
v -245.629 0.730 169.911
v -235.159 0.743 173.581
v -234.001 0.825 170.279
v -244.471 0.752 166.609
f 849 850 851 852
v -236.218 0.800 171.313
v -257.638 0.707 228.179
v -254.362 0.716 229.413
v -232.942 0.811 172.547
f 853 854 855 856
v -235.182 0.743 173.573
v -184.622 1.363 192.093
v -183.418 1.403 188.807
v -233.978 0.825 170.287
f 857 858 859 860
v -185.469 1.363 191.432
v -181.219 1.345 197.702
v -178.321 1.346 195.738
v -182.571 1.425 189.468
f 861 862 863 864
v -181.434 1.347 196.178
v -192.854 1.333 231.268
v -189.526 1.317 232.352
v -178.106 1.350 197.262
f 865 866 867 868
v -61.734 3.333 -254.606
v -56.824 3.197 -245.406
v -53.736 3.249 -247.054
v -58.646 3.285 -256.254
f 869 870 871 872
v -56.549 3.188 -245.025
v -47.899 3.091 -235.915
v -45.361 3.141 -238.325
v -54.011 3.252 -247.435
f 873 874 875 876
v -47.899 3.091 -235.915
v -15.909 1.248 -202.205
v -13.371 1.234 -204.615
v -45.361 3.141 -238.325
f 877 878 879 880
v -15.910 1.248 -202.206
v -11.580 1.117 -197.636
v -9.040 1.117 -200.044
v -13.370 1.234 -204.614
f 881 882 883 884
v -47.881 3.135 -238.343
v -73.991 2.895 -211.633
v -71.489 2.831 -209.187
v -45.379 3.085 -235.897
f 885 886 887 888
v -71.567 2.861 -211.709
v -80.297 3.168 -219.589
v -82.643 3.113 -216.991
v -73.913 2.854 -209.111
f 889 890 891 892
v -80.193 3.099 -217.093
v -54.003 3.208 -245.033
v -56.557 3.249 -247.427
v -82.747 3.184 -219.487
f 893 894 895 896
v -232.948 0.810 172.562
v -216.788 0.992 130.862
v -220.052 0.842 129.598
v -236.212 0.801 171.298
f 897 898 899 900
v -217.734 0.880 128.620
v -227.994 0.718 124.250
v -229.366 0.756 127.470
v -219.106 0.884 131.840
f 901 902 903 904
v -228.014 0.716 124.242
v -235.374 0.852 121.212
v -236.706 0.852 124.448
v -229.346 0.756 127.478
f 905 906 907 908
v 144.863 0.342 -162.419
v 149.833 0.365 -159.669
v 151.527 0.349 -162.731
v 146.557 0.337 -165.481
f 909 910 911 912
v 149.834 0.365 -159.668
v 166.304 0.393 -150.568
v 167.996 0.440 -153.632
v 151.526 0.349 -162.732
f 913 914 915 916
v 168.126 0.435 -150.648
v 178.806 0.480 -157.828
v 176.854 0.435 -160.732
v 166.174 0.428 -153.552
f 917 918 919 920
v 179.036 0.460 -160.548
v 169.146 0.339 -169.958
v 166.734 0.359 -167.422
v 176.624 0.452 -158.012
f 921 922 923 924
v 230.684 1.178 -71.148
v 249.154 1.331 -92.908
v 246.486 1.302 -95.172
v 228.016 1.177 -73.412
f 925 926 927 928
v 249.570 1.330 -94.049
v 249.480 1.213 -112.009
v 245.980 1.221 -111.991
v 246.070 1.296 -94.031
f 929 930 931 932
v 247.652 1.218 -113.748
v 215.672 1.177 -112.328
v 215.828 1.197 -108.832
v 247.808 1.226 -110.252
f 933 934 935 936
v 214.021 1.185 -110.849
v 210.721 1.238 -89.619
v 214.179 1.208 -89.081
v 217.479 1.192 -110.311
f 937 938 939 940
v 211.175 1.234 -90.548
v 206.055 1.374 -85.098
v 208.605 1.320 -82.702
v 213.725 1.211 -88.152
f 941 942 943 944
v 205.719 1.371 -84.584
v 198.179 1.230 -66.834
v 201.401 1.215 -65.466
v 208.941 1.320 -83.216
f 945 946 947 948
v 199.241 1.201 -64.489
v 214.481 1.131 -59.449
v 215.579 1.172 -62.771
v 200.339 1.231 -67.811
f 949 950 951 952
v 215.500 1.133 -59.424
v 221.450 1.151 -61.084
v 220.510 1.196 -64.456
v 214.560 1.166 -62.796
f 953 954 955 956
v 222.294 1.161 -61.614
v 230.664 1.178 -71.124
v 228.036 1.177 -73.436
v 219.666 1.192 -63.926
f 957 958 959 960
v 179.151 1.792 -110.328
v 176.171 1.967 -101.468
v 179.489 2.020 -100.352
v 182.469 1.829 -109.212
f 961 962 963 964
v 176.222 1.973 -100.220
v 178.362 2.134 -95.230
v 181.578 2.017 -96.610
v 179.438 2.004 -101.600
f 965 966 967 968
v 179.004 2.130 -94.461
v 183.114 2.063 -91.741
v 185.046 1.968 -94.659
v 180.936 2.017 -97.379
f 969 970 971 972
v 184.321 2.032 -91.467
v 188.781 1.921 -92.087
v 188.299 1.873 -95.553
v 183.839 1.993 -94.933
f 973 974 975 976
v 189.566 1.895 -92.402
v 197.916 1.584 -98.442
v 195.864 1.677 -101.278
v 187.514 1.897 -95.238
f 977 978 979 980
usemtl asphalt
