# Baked ultra-low Key West silhouette; generated by bake_key_west_far_city.py
mtllib far_city.mtl
usemtl massing
v 246.190 -0.300 -288.288
v 279.971 -0.300 -156.168
v 197.930 -0.300 -135.192
v 164.149 -0.300 -267.312
v 246.190 8.000 -288.288
v 279.971 8.000 -156.168
v 197.930 8.000 -135.192
v 164.149 8.000 -267.312
f 8 7 6 5
f 1 2 6 5
f 2 3 7 6
f 3 4 8 7
f 4 1 5 8
v -52.451 3.316 256.773
v -22.036 3.316 230.732
v -2.109 3.316 254.007
v -32.524 3.316 280.048
v -52.451 11.616 256.773
v -22.036 11.616 230.732
v -2.109 11.616 254.007
v -32.524 11.616 280.048
f 16 15 14 13
f 9 10 14 13
f 10 11 15 14
f 11 12 16 15
f 12 9 13 16
usemtl road
v 116.376 1.131 162.295
v 100.916 1.082 179.965
v 106.184 1.030 184.575
v 121.644 1.056 166.905
f 17 18 19 20
v 100.869 1.082 180.020
v 63.669 1.079 224.340
v 69.031 0.850 228.840
v 106.231 1.030 184.520
f 21 22 23 24
v 63.722 1.079 224.278
v 38.212 1.126 253.278
v 43.468 0.825 257.902
v 68.978 0.849 228.902
f 25 26 27 28
v 253.222 1.354 32.376
v 230.652 1.362 48.066
v 234.648 1.327 53.814
v 257.218 1.317 38.124
f 29 30 31 32
v 230.348 1.364 48.303
v 217.528 1.383 59.493
v 222.132 1.321 64.767
v 234.952 1.325 53.577
f 33 34 35 36
v 217.529 1.383 59.493
v 188.129 1.280 85.153
v 192.731 1.116 90.427
v 222.131 1.321 64.767
f 37 38 39 40
v 187.890 1.280 85.382
v 166.290 1.223 108.172
v 171.370 1.041 112.988
v 192.970 1.118 90.198
f 41 42 43 44
v 166.257 1.222 108.207
v 136.397 1.080 140.587
v 141.543 1.033 145.333
v 171.403 1.041 112.953
f 45 46 47 48
v 136.397 1.080 140.587
v 116.437 1.131 162.227
v 121.583 1.057 166.973
v 141.543 1.033 145.333
f 49 50 51 52
v 159.105 2.044 50.707
v 143.945 3.886 21.367
v 140.835 2.050 22.973
v 155.995 1.895 52.313
f 53 54 55 56
v 143.335 3.473 20.697
v 139.345 2.160 18.137
v 137.455 1.936 21.083
v 141.445 2.101 23.643
f 57 58 59 60
v 138.580 2.071 17.869
v 131.820 1.957 17.169
v 131.460 1.963 20.651
v 138.220 1.970 21.351
f 61 62 63 64
v 131.194 1.958 17.218
v 122.204 1.745 19.588
v 123.096 1.712 22.972
v 132.086 1.972 20.602
f 65 66 67 68
v 121.642 1.736 19.850
v 114.962 1.664 24.560
v 116.978 1.688 27.420
v 123.658 1.719 22.710
f 69 70 71 72
v 114.469 1.657 25.091
v 111.439 1.546 30.151
v 114.441 1.597 31.949
v 117.471 1.694 26.889
f 73 74 75 76
v 111.212 1.538 30.775
v 110.422 1.582 35.735
v 113.878 1.577 36.285
v 114.668 1.599 31.325
f 77 78 79 80
v 110.461 1.553 36.469
v 111.871 1.465 41.659
v 115.249 1.528 40.741
v 113.839 1.587 35.551
f 81 82 83 84
v 111.996 1.459 41.985
v 115.936 1.404 49.835
v 119.064 1.490 48.265
v 115.124 1.528 40.415
f 85 86 87 88
v 115.974 1.403 49.907
v 122.244 1.344 61.077
v 125.296 1.535 59.363
v 119.026 1.490 48.193
f 89 90 91 92
v 123.118 1.338 61.844
v 130.088 1.620 64.644
v 131.392 1.640 61.396
v 124.422 1.511 58.596
f 93 94 95 96
v 130.732 1.644 64.770
v 137.382 1.645 64.800
v 137.398 1.663 61.300
v 130.748 1.633 61.270
f 97 98 99 100
v 138.153 1.652 64.625
v 146.043 1.689 60.805
v 144.517 1.696 57.655
v 136.627 1.651 61.475
f 101 102 103 104
v 146.212 1.683 60.711
v 158.482 1.982 52.991
v 156.618 2.032 50.029
v 144.348 1.703 57.749
f 105 106 107 108
v 85.302 4.025 96.986
v 74.802 5.430 68.436
v 71.518 5.735 69.644
v 82.018 4.038 98.194
f 109 110 111 112
v 74.683 5.427 68.178
v 56.623 6.968 36.258
v 53.577 7.250 37.982
v 71.637 5.723 69.902
f 113 114 115 116
v 56.525 6.976 36.104
v 46.375 8.646 21.874
v 43.525 9.031 23.906
v 53.675 7.234 38.136
f 117 118 119 120
v 45.985 8.725 21.479
v 27.435 11.562 7.879
v 25.365 11.661 10.701
v 43.915 8.962 24.301
f 121 122 123 124
v 27.040 11.632 7.661
v 0.930 14.526 -2.599
v -0.350 14.523 0.659
v 25.760 11.611 10.919
f 125 126 127 128
v 0.566 14.566 -2.698
v -10.774 15.826 -4.508
v -11.326 15.765 -1.052
v 0.014 14.486 0.758
f 129 130 131 132
v -11.433 15.911 -4.487
v -23.503 17.383 -1.777
v -22.737 17.186 1.637
v -10.667 15.681 -1.073
f 133 134 135 136
v -24.123 17.464 -1.504
v -34.753 18.895 5.936
v -32.747 18.508 8.804
v -22.117 17.118 1.364
f 137 138 139 140
v -35.118 18.948 6.278
v -43.738 20.509 17.078
v -41.002 20.457 19.262
v -32.382 18.446 8.462
f 141 142 143 144
v -43.977 20.557 17.477
v -55.427 23.163 44.027
v -52.213 23.044 45.413
v -40.763 20.402 18.863
f 145 146 147 148
v -55.372 23.151 43.911
v -65.942 24.543 64.181
v -62.838 24.472 65.799
v -52.268 23.059 45.529
f 149 150 151 152
v -65.772 24.531 63.916
v -88.882 26.468 93.656
v -86.118 26.245 95.804
v -63.008 24.469 66.064
f 153 154 155 156
v -89.080 26.491 93.977
v -99.510 28.201 115.867
v -96.350 28.155 117.373
v -85.920 26.213 95.483
f 157 158 159 160
v -222.889 4.205 148.571
v -211.249 4.011 165.761
v -208.351 4.077 163.799
v -219.991 3.878 146.609
f 161 162 163 164
v -211.198 4.016 165.833
v -188.828 4.017 195.533
v -186.032 4.099 193.427
v -208.402 4.078 163.727
f 165 166 167 168
v -188.651 4.002 195.734
v -170.521 4.188 213.394
v -168.079 3.990 210.886
v -186.209 4.106 193.226
f 169 170 171 172
v -170.346 4.177 213.543
v -142.986 4.090 233.953
v -140.894 4.164 231.147
v -168.254 3.986 210.737
f 173 174 175 176
v -142.749 4.080 234.102
v -97.743 4.281 257.552
v -96.126 4.288 254.448
v -141.131 4.170 230.998
f 177 178 179 180
v -75.492 4.115 255.857
v -34.032 4.366 213.677
v -36.528 4.664 211.223
v -77.988 4.333 253.403
f 181 182 183 184
v -34.169 4.365 213.802
v -8.539 4.302 192.742
v -10.761 4.193 190.038
v -36.391 4.666 211.098
f 185 186 187 188
v -9.020 4.333 193.023
v 19.950 4.061 181.853
v 18.690 4.150 178.587
v -10.280 4.173 189.757
f 189 190 191 192
v 20.489 4.076 181.522
v 30.999 4.108 172.082
v 28.661 4.084 169.478
v 18.151 4.155 178.918
f 193 194 195 196
v 31.311 4.092 171.712
v 57.111 4.093 130.732
v 54.149 4.032 128.868
v 28.349 4.077 169.848
f 197 198 199 200
v 56.950 4.095 130.949
v 84.980 4.012 98.739
v 82.340 4.027 96.441
v 54.310 4.032 128.651
f 201 202 203 204
v 85.297 4.008 98.207
v 92.547 4.152 78.977
v 89.273 4.169 77.743
v 82.023 4.028 96.973
f 205 206 207 208
v 92.548 4.152 78.976
v 98.028 3.389 64.396
v 94.752 4.102 63.164
v 89.272 4.169 77.744
f 209 210 211 212
v 98.044 3.221 63.207
v 86.804 3.379 30.747
v 83.496 4.012 31.893
v 94.736 4.134 64.353
f 213 214 215 216
v 86.699 3.370 30.505
v 19.039 3.549 -98.085
v 15.941 3.953 -96.455
v 83.601 4.011 32.135
f 217 218 219 220
v 18.218 3.597 -98.861
v 9.128 4.123 -103.021
v 7.672 4.013 -99.839
v 16.762 3.952 -95.679
f 221 222 223 224
v 8.229 4.117 -103.172
v -1.051 4.082 -102.262
v -0.709 3.995 -98.778
v 8.571 4.013 -99.688
f 225 226 227 228
v -2.105 4.074 -101.770
v -27.885 4.157 -76.500
v -25.435 3.871 -74.000
v 0.345 4.002 -99.270
f 229 230 231 232
v -27.226 4.158 -76.906
v -69.746 4.215 -62.366
v -68.614 4.181 -59.054
v -26.094 3.874 -73.594
f 233 234 235 236
v -69.913 4.212 -62.299
v -96.053 4.067 -50.249
v -94.587 4.006 -47.071
v -68.447 4.179 -59.121
f 237 238 239 240
v -96.713 4.062 -49.719
v -106.593 4.083 -36.729
v -103.807 3.973 -34.611
v -93.927 4.002 -47.601
f 241 242 243 244
v -106.870 4.083 -36.194
v -114.740 3.979 -11.104
v -111.400 3.840 -10.056
v -103.530 3.978 -35.146
f 245 246 247 248
v -114.456 3.973 -11.648
v -129.866 4.094 8.342
v -127.094 3.891 10.478
v -111.684 3.835 -9.512
f 249 250 251 252
v -129.610 4.090 8.074
v -148.790 4.156 24.294
v -146.530 3.797 26.966
v -127.350 3.894 10.746
f 253 254 255 256
v -148.373 4.153 24.032
v -206.843 4.167 50.112
v -205.417 3.612 53.308
v -146.947 3.806 27.228
f 257 258 259 260
v -206.552 4.167 50.012
v -256.422 4.138 62.391
v -255.578 3.688 65.788
v -205.708 3.613 53.408
f 261 262 263 264
v -257.180 4.155 114.595
v -242.360 4.116 128.132
v -240.000 3.964 125.548
v -254.820 3.859 112.010
f 265 266 267 268
v -242.448 4.117 128.046
v -222.708 4.202 148.796
v -220.172 3.881 146.384
v -239.912 3.963 125.634
f 269 270 271 272
v 253.418 1.276 -25.798
v 248.818 1.304 -27.438
v 247.642 1.283 -24.142
v 252.242 1.278 -22.502
f 273 274 275 276
v 249.134 1.302 -27.288
v 244.394 1.295 -30.148
v 242.586 1.284 -27.152
v 247.326 1.281 -24.292
f 277 278 279 280
v 244.995 1.291 -29.543
v 242.985 1.321 -32.933
v 239.975 1.346 -31.147
v 241.985 1.292 -27.757
f 281 282 283 284
v 243.198 1.319 -32.375
v 242.538 1.339 -35.755
v 239.102 1.336 -35.085
v 239.762 1.347 -31.705
f 285 286 287 288
v 242.549 1.339 -35.147
v 243.359 1.332 -40.277
v 239.901 1.354 -40.823
v 239.091 1.336 -35.693
f 289 290 291 292
v 243.358 1.332 -40.273
v 252.098 1.357 -94.783
v 248.642 1.364 -95.337
v 239.902 1.354 -40.827
f 293 294 295 296
v 251.915 1.362 -94.238
v 253.565 1.332 -97.338
v 250.475 1.352 -98.982
v 248.825 1.365 -95.882
f 297 298 299 300
v 252.748 1.345 -96.569
v 256.728 1.286 -98.390
v 255.272 1.271 -101.573
v 251.292 1.344 -99.751
f 301 302 303 304
v 139.972 1.113 141.525
v 135.072 1.118 138.105
v 133.068 1.106 140.975
v 137.968 1.132 144.395
f 305 306 307 308
v 135.201 1.111 138.205
v 132.121 1.239 135.595
v 129.859 1.282 138.265
v 132.939 1.114 140.875
f 309 310 311 312
v 132.345 1.231 135.822
v 127.805 1.525 130.272
v 125.095 1.566 132.488
v 129.635 1.291 138.038
f 313 314 315 316
v 128.048 1.504 130.668
v 122.848 1.859 118.998
v 119.652 1.910 120.422
v 124.852 1.595 132.092
f 317 318 319 320
v 122.760 1.857 118.825
v 105.550 1.921 89.455
v 102.530 1.949 91.225
v 119.740 1.909 120.595
f 321 322 323 324
v 105.220 1.920 89.047
v 92.090 4.163 77.067
v 89.730 4.195 79.653
v 102.860 1.942 91.633
f 325 326 327 328
v 17.987 4.144 181.354
v 30.557 3.123 196.134
v 33.223 3.125 193.866
v 20.653 4.174 179.086
f 329 330 331 332
v 30.516 3.123 196.084
v 36.846 2.998 204.104
v 39.594 2.963 201.936
v 33.264 3.125 193.916
f 333 334 335 336
v 37.098 2.991 204.363
v 60.888 1.061 224.233
v 63.132 1.066 221.547
v 39.342 2.971 201.677
f 337 338 339 340
v 60.875 1.061 224.222
v 65.215 1.076 227.922
v 67.485 1.078 225.258
v 63.145 1.066 221.558
f 341 342 343 344
v 104.499 1.133 180.800
v 100.349 1.052 178.120
v 98.451 1.060 181.060
v 102.601 1.122 183.740
f 345 346 347 348
v 100.347 1.052 178.118
v 81.217 2.248 165.808
v 79.323 2.293 168.752
v 98.453 1.060 181.062
f 349 350 351 352
v 80.383 2.296 165.534
v 68.323 2.619 164.754
v 68.097 2.649 168.246
v 80.157 2.244 169.026
f 353 354 355 356
v 66.945 2.639 165.291
v 40.565 3.070 192.901
v 43.095 3.033 195.319
v 69.475 2.627 167.709
f 357 358 359 360
v 41.674 3.062 192.367
v 31.734 3.138 193.257
v 32.046 3.112 196.743
v 41.986 3.036 195.853
f 361 362 363 364
v 31.761 3.137 193.255
v 23.911 3.157 193.835
v 24.169 3.140 197.325
v 32.019 3.113 196.745
f 365 366 367 368
v 23.910 3.157 193.835
v 5.270 3.186 195.225
v 5.530 3.114 198.715
v 24.170 3.140 197.325
f 369 370 371 372
v 4.684 3.188 195.373
v -11.916 3.287 202.813
v -10.484 3.226 206.007
v 6.116 3.110 198.567
f 373 374 375 376
v -12.353 3.279 203.093
v -33.973 3.204 222.023
v -31.667 3.231 224.657
v -10.047 3.225 205.727
f 377 378 379 380
v -34.171 3.198 222.227
v -61.071 3.277 254.887
v -58.370 3.301 257.113
v -31.469 3.233 224.453
f 381 382 383 384
v 36.904 3.014 201.867
v -3.296 3.309 247.737
v -0.664 3.305 250.043
v 39.536 2.925 204.173
f 385 386 387 388
v -0.863 3.286 247.543
v -12.953 3.250 237.523
v -15.187 3.333 240.217
v -3.097 3.329 250.237
f 389 390 391 392
v -12.954 3.250 237.522
v -31.704 3.225 221.992
v -33.936 3.188 224.688
v -15.186 3.333 240.218
f 393 394 395 396
v -12.756 3.289 240.026
v 25.354 3.140 196.736
v 22.726 3.148 194.424
v -15.384 3.284 237.714
f 397 398 399 400
v 232.110 1.939 -24.534
v 218.920 1.890 -50.454
v 215.800 2.014 -48.866
v 228.990 2.122 -22.946
f 401 402 403 404
v 218.214 1.911 -51.188
v 211.144 2.019 -55.138
v 209.436 2.037 -52.082
v 216.506 2.002 -48.132
f 405 406 407 408
v 210.768 2.022 -55.293
v 203.238 2.086 -57.433
v 202.282 2.063 -54.067
v 209.812 2.034 -51.927
f 409 410 411 412
v 202.278 2.079 -57.432
v 193.508 2.121 -54.922
v 194.472 2.174 -51.558
v 203.242 2.058 -54.068
f 413 414 415 416
v 192.953 2.120 -54.649
v 186.283 2.038 -49.739
v 188.357 2.042 -46.921
v 195.027 2.166 -51.831
f 417 418 419 420
v 185.795 2.040 -49.188
v 184.275 2.024 -46.488
v 187.325 2.017 -44.772
v 188.845 2.057 -47.472
f 421 422 423 424
v 184.073 2.018 -45.915
v 182.663 2.026 -37.365
v 186.117 2.055 -36.795
v 187.527 2.018 -45.345
f 425 426 427 428
v 182.640 2.023 -37.089
v 182.610 2.008 -31.089
v 186.110 2.053 -31.071
v 186.140 2.055 -37.071
f 429 430 431 432
v 182.611 2.008 -31.037
v 182.741 2.092 -25.787
v 186.239 0.120 -25.873
v 186.109 2.053 -31.123
f 433 434 435 436
v 182.740 2.092 -25.793
v 182.860 0.120 -20.093
v 186.360 0.120 -20.167
v 186.240 0.120 -25.867
f 437 438 439 440
v 183.542 0.120 -21.516
v 177.922 3.313 -17.186
v 180.058 0.120 -14.414
v 185.678 0.120 -18.744
f 441 442 443 444
v 178.067 3.293 -17.287
v 153.387 6.559 -1.967
v 155.233 6.594 1.007
v 179.913 0.120 -14.313
f 445 446 447 448
v 152.684 6.580 -1.126
v 150.544 6.641 4.264
v 153.796 6.625 5.556
v 155.936 6.597 0.166
f 449 450 451 452
v 150.421 6.644 4.860
v 150.251 6.667 10.860
v 153.749 6.640 10.960
v 153.919 6.623 4.960
f 453 454 455 456
v 150.465 6.669 11.751
v 153.385 6.659 17.081
v 156.455 6.642 15.399
v 153.535 6.636 10.069
f 457 458 459 460
v 155.759 6.649 17.776
v 170.459 7.246 9.746
v 168.781 6.677 6.674
v 154.081 6.654 14.704
f 461 462 463 464
v 170.459 7.246 9.746
v 190.419 0.120 -1.164
v 188.741 0.120 -4.236
v 168.781 6.677 6.674
f 465 466 467 468
v 190.420 0.120 -1.165
v 207.100 0.120 -10.295
v 205.420 0.120 -13.365
v 188.740 0.120 -4.235
f 469 470 471 472
v 207.030 0.120 -10.259
v 231.320 2.081 -22.169
v 229.780 2.074 -25.311
v 205.490 0.120 -13.401
f 473 474 475 476
v 168.079 6.916 9.039
v 190.489 1.748 50.699
v 193.571 1.748 49.041
v 171.161 6.803 7.381
f 477 478 479 480
v 188.011 0.120 -1.925
v 202.641 2.618 27.675
v 205.779 2.450 26.125
v 191.149 0.120 -3.475
f 481 482 483 484
v 202.887 2.558 28.045
v 205.527 2.044 31.095
v 208.173 2.074 28.805
v 205.533 2.503 25.755
f 485 486 487 488
v 206.523 2.016 31.669
v 211.093 1.988 32.539
v 211.747 1.997 29.101
v 207.177 2.173 28.231
f 489 490 491 492
v 212.100 1.973 32.432
v 216.960 1.955 30.382
v 215.600 2.018 27.158
v 210.740 1.994 29.208
f 493 494 495 496
v 217.143 1.953 30.292
v 220.953 1.905 28.132
v 219.227 2.020 25.088
v 215.417 2.018 27.248
f 497 498 499 500
v 221.428 1.913 27.738
v 223.728 1.973 25.008
v 221.052 1.985 22.752
v 218.752 2.019 25.482
f 501 502 503 504
v 224.123 1.972 24.121
v 224.623 1.980 20.531
v 221.157 2.004 20.049
v 220.657 1.992 23.639
f 505 506 507 508
v 224.444 1.997 19.485
v 207.814 2.352 -12.635
v 204.706 0.120 -11.025
v 221.336 2.001 21.095
f 509 510 511 512
v 156.043 1.894 52.399
v 165.263 1.644 68.029
v 168.277 1.653 66.251
v 159.057 2.049 50.621
f 513 514 515 516
v 165.606 1.631 68.447
v 183.896 1.222 84.737
v 186.224 1.228 82.123
v 167.934 1.666 65.833
f 517 518 519 520
v 183.957 1.223 84.789
v 189.327 1.276 89.149
v 191.533 1.284 86.431
v 186.163 1.227 82.071
f 521 522 523 524
v 153.386 6.659 17.082
v 168.236 2.261 44.122
v 171.304 3.687 42.438
v 156.454 6.642 15.398
f 525 526 527 528
v 168.374 2.233 44.335
v 174.064 1.936 51.865
v 176.856 1.972 49.755
v 171.166 3.851 42.225
f 529 530 531 532
v 174.785 1.912 52.425
v 179.165 1.761 54.255
v 180.515 1.878 51.025
v 176.135 1.990 49.195
f 533 534 535 536
v 179.704 1.755 54.385
v 185.884 1.692 54.865
v 186.156 1.780 51.375
v 179.976 1.901 50.895
f 537 538 539 540
v 186.852 1.682 54.659
v 192.862 1.698 51.409
v 191.198 1.794 48.331
v 185.188 1.784 51.581
f 541 542 543 544
v 192.862 1.698 51.409
v 252.432 1.563 19.199
v 250.768 1.615 16.121
v 191.198 1.794 48.331
f 545 546 547 548
v 257.560 1.412 25.513
v 253.160 1.578 16.866
v 250.040 1.612 18.454
v 254.440 1.393 27.100
f 549 550 551 552
v 253.160 1.578 16.867
v 232.110 1.939 -24.533
v 228.990 2.122 -22.947
v 250.040 1.612 18.453
f 553 554 555 556
usemtl asphalt
