# Baked ultra-low Key West silhouette; generated by bake_key_west_far_city.py
mtllib far_city.mtl
usemtl massing
v 128.820 2.112 139.118
v 178.019 2.112 123.332
v 183.900 2.112 141.662
v 134.701 2.112 157.448
v 128.820 7.912 139.118
v 178.019 7.912 123.332
v 183.900 7.912 141.662
v 134.701 7.912 157.448
f 8 7 6 5
f 1 2 6 5
f 2 3 7 6
f 3 4 8 7
f 4 1 5 8
v 254.352 2.348 121.148
v 261.110 2.348 142.211
v 244.028 2.348 147.692
v 237.270 2.348 126.629
v 254.352 6.248 121.148
v 261.110 6.248 142.211
v 244.028 6.248 147.692
v 237.270 6.248 126.629
f 16 15 14 13
f 9 10 14 13
f 10 11 15 14
f 11 12 16 15
f 12 9 13 16
v 246.634 1.899 148.087
v 250.038 1.899 158.883
v 240.806 1.899 161.793
v 237.402 1.899 150.997
v 246.634 5.799 148.087
v 250.038 5.799 158.883
v 240.806 5.799 161.793
v 237.402 5.799 150.997
f 24 23 22 21
f 17 18 22 21
f 18 19 23 22
f 19 20 24 23
f 20 17 21 24
v 94.341 1.607 165.371
v 159.180 1.607 141.510
v 166.539 1.607 161.509
v 101.700 1.607 185.370
v 94.341 9.907 165.371
v 159.180 9.907 141.510
v 166.539 9.907 161.509
v 101.700 9.907 185.370
f 32 31 30 29
f 25 26 30 29
f 26 27 31 30
f 27 28 32 31
f 28 25 29 32
usemtl road
v 110.573 1.869 142.472
v 171.023 1.756 163.582
v 172.177 1.779 160.278
v 111.727 1.688 139.168
f 33 34 35 36
v 171.925 1.747 163.649
v 190.315 1.795 160.169
v 189.665 1.867 156.731
v 171.275 1.793 160.211
f 37 38 39 40
v 189.479 1.794 160.124
v 240.769 1.863 175.784
v 241.791 1.884 172.436
v 190.501 1.866 156.776
f 41 42 43 44
v 117.026 1.929 118.488
v 109.496 1.752 140.248
v 112.804 1.754 141.392
v 120.334 1.967 119.632
f 45 46 47 48
usemtl asphalt
