# Baked ultra-low Key West silhouette; generated by bake_key_west_far_city.py
mtllib far_city.mtl
usemtl massing
v 179.731 0.926 -211.491
v 200.277 0.926 -246.218
v 227.809 0.926 -229.929
v 207.263 0.926 -195.202
v 179.731 7.226 -211.491
v 200.277 7.226 -246.218
v 227.809 7.226 -229.929
v 207.263 7.226 -195.202
f 8 7 6 5
f 1 2 6 5
f 2 3 7 6
f 3 4 8 7
f 4 1 5 8
v -262.594 0.738 236.980
v -236.214 0.738 245.496
v -239.366 0.738 255.260
v -265.746 0.738 246.744
v -262.594 4.638 236.980
v -236.214 4.638 245.496
v -239.366 4.638 255.260
v -265.746 4.638 246.744
f 16 15 14 13
f 9 10 14 13
f 10 11 15 14
f 11 12 16 15
f 12 9 13 16
v -265.353 0.692 199.475
v -234.426 0.692 108.445
v -216.587 0.692 114.505
v -247.514 0.692 205.535
v -265.353 8.992 199.475
v -234.426 8.992 108.445
v -216.587 8.992 114.505
v -247.514 8.992 205.535
f 24 23 22 21
f 17 18 22 21
f 18 19 23 22
f 19 20 24 23
f 20 17 21 24
v -188.874 1.284 -139.810
v -178.585 1.284 -126.039
v -187.646 1.284 -119.270
v -197.935 1.284 -133.041
v -188.874 5.184 -139.810
v -178.585 5.184 -126.039
v -187.646 5.184 -119.270
v -197.935 5.184 -133.041
f 32 31 30 29
f 25 26 30 29
f 26 27 31 30
f 27 28 32 31
f 28 25 29 32
v -179.029 0.700 -128.166
v -171.412 0.700 -136.861
v -167.591 0.700 -133.514
v -175.208 0.700 -124.819
v -179.029 4.600 -128.166
v -171.412 4.600 -136.861
v -167.591 4.600 -133.514
v -175.208 4.600 -124.819
f 40 39 38 37
f 33 34 38 37
f 34 35 39 38
f 35 36 40 39
f 36 33 37 40
v -201.049 0.979 -131.202
v -198.515 0.979 -133.939
v -196.571 0.979 -132.138
v -199.105 0.979 -129.401
v -201.049 4.879 -131.202
v -198.515 4.879 -133.939
v -196.571 4.879 -132.138
v -199.105 4.879 -129.401
f 48 47 46 45
f 41 42 46 45
f 42 43 47 46
f 43 44 48 47
f 44 41 45 48
v -205.458 0.895 -134.651
v -202.059 0.895 -138.167
v -200.262 0.895 -136.429
v -203.661 0.895 -132.913
v -205.458 4.795 -134.651
v -202.059 4.795 -138.167
v -200.262 4.795 -136.429
v -203.661 4.795 -132.913
f 56 55 54 53
f 49 50 54 53
f 50 51 55 54
f 51 52 56 55
f 52 49 53 56
v -170.366 1.188 -109.655
v -162.422 1.188 -97.061
v -170.534 1.188 -91.945
v -178.478 1.188 -104.539
v -170.366 5.088 -109.655
v -162.422 5.088 -97.061
v -170.534 5.088 -91.945
v -178.478 5.088 -104.539
f 64 63 62 61
f 57 58 62 61
f 58 59 63 62
f 59 60 64 63
f 60 57 61 64
v -197.823 1.942 -96.813
v -166.315 1.942 -67.699
v -178.117 1.942 -54.927
v -209.625 1.942 -84.041
v -197.823 7.742 -96.813
v -166.315 7.742 -67.699
v -178.117 7.742 -54.927
v -209.625 7.742 -84.041
f 72 71 70 69
f 65 66 70 69
f 66 67 71 70
f 67 68 72 71
f 68 65 69 72
v -219.373 1.759 -44.904
v -210.046 1.759 -53.772
v -207.007 1.759 -50.576
v -216.334 1.759 -41.708
v -219.373 5.659 -44.904
v -210.046 5.659 -53.772
v -207.007 5.659 -50.576
v -216.334 5.659 -41.708
f 80 79 78 77
f 73 74 78 77
f 74 75 79 78
f 75 76 80 79
f 76 73 77 80
v 243.662 -0.300 -212.181
v 253.281 -0.300 -212.239
v 253.318 -0.300 -206.159
v 243.699 -0.300 -206.101
v 243.662 3.600 -212.181
v 253.281 3.600 -212.239
v 253.318 3.600 -206.159
v 243.699 3.600 -206.101
f 88 87 86 85
f 81 82 86 85
f 82 83 87 86
f 83 84 88 87
f 84 81 85 88
v 221.311 1.151 -214.193
v 226.821 1.151 -236.348
v 246.609 1.151 -231.427
v 241.099 1.151 -209.272
v 221.311 5.051 -214.193
v 226.821 5.051 -236.348
v 246.609 5.051 -231.427
v 241.099 5.051 -209.272
f 96 95 94 93
f 89 90 94 93
f 90 91 95 94
f 91 92 96 95
f 92 89 93 96
usemtl road
v -191.056 0.912 205.049
v -182.256 0.797 234.299
v -170.764 0.819 230.841
v -179.564 0.899 201.591
f 97 98 99 100
v -185.186 0.981 200.823
v -197.646 0.873 200.203
v -197.894 0.934 205.197
v -185.434 0.973 205.817
f 101 102 103 104
v -198.583 0.879 200.336
v -244.653 0.945 216.176
v -243.027 1.022 220.904
v -196.957 0.916 205.064
f 105 106 107 108
v -253.512 0.829 178.858
v -248.912 0.878 192.808
v -245.588 0.909 191.712
v -250.188 0.883 177.762
f 109 110 111 112
v -248.912 0.878 192.808
v -243.842 0.965 208.198
v -240.518 0.969 207.102
v -245.588 0.909 191.712
f 113 114 115 116
v -247.766 0.870 190.588
v -254.676 0.868 192.718
v -253.644 1.032 196.062
v -246.734 0.882 193.932
f 117 118 119 120
v -232.061 0.993 256.812
v -225.731 0.902 254.722
v -226.829 0.864 251.398
v -233.159 0.931 253.488
f 121 122 123 124
v -233.124 0.960 235.255
v -227.964 0.876 253.535
v -224.596 0.935 252.585
v -229.756 0.957 234.305
f 125 126 127 128
v -199.348 1.918 -81.429
v -196.018 1.930 -83.119
v -197.602 1.851 -86.241
v -200.932 1.861 -84.551
f 129 130 131 132
v -195.582 1.939 -83.433
v -192.932 1.941 -86.043
v -195.388 1.847 -88.537
v -198.038 1.855 -85.927
f 133 134 135 136
v -192.591 1.943 -86.516
v -190.761 1.904 -90.226
v -193.899 1.838 -91.774
v -195.729 1.848 -88.064
f 137 138 139 140
v -190.590 1.912 -90.809
v -190.140 1.857 -94.899
v -193.620 1.809 -95.281
v -194.070 1.840 -91.191
f 141 142 143 144
v -190.182 1.842 -95.514
v -191.182 1.759 -99.514
v -194.578 1.772 -98.666
v -193.578 1.815 -94.666
f 145 146 147 148
v -191.427 1.749 -100.066
v -193.737 1.690 -103.506
v -196.643 1.726 -101.554
v -194.333 1.778 -98.114
f 149 150 151 152
v -194.160 1.687 -103.945
v -197.500 1.644 -106.375
v -199.560 1.694 -103.545
v -196.220 1.732 -101.115
f 153 154 155 156
v -198.044 1.640 -106.641
v -202.024 1.621 -107.791
v -202.996 1.680 -104.429
v -199.016 1.693 -103.279
f 157 158 159 160
v -202.628 1.616 -107.856
v -206.768 1.592 -107.576
v -206.532 1.642 -104.084
v -202.392 1.683 -104.364
f 161 162 163 164
v -207.352 1.587 -107.433
v -211.142 1.530 -105.773
v -209.738 1.600 -102.567
v -205.948 1.650 -104.227
f 165 166 167 168
v -211.536 1.526 -105.534
v -214.586 1.529 -103.084
v -212.394 1.583 -100.356
v -209.344 1.601 -102.806
f 169 170 171 172
v -215.089 1.531 -102.431
v -216.739 1.537 -98.721
v -213.541 1.601 -97.299
v -211.891 1.588 -101.009
f 173 174 175 176
v -216.867 1.540 -98.293
v -217.467 1.553 -94.633
v -214.013 1.620 -94.067
v -213.413 1.596 -97.727
f 177 178 179 180
v -217.469 1.556 -94.082
v -216.899 1.594 -90.402
v -213.441 1.637 -90.938
v -214.011 1.620 -94.618
f 181 182 183 184
v -216.731 1.600 -89.880
v -215.051 1.677 -86.560
v -211.929 1.708 -88.140
v -213.609 1.633 -91.460
f 185 186 187 188
v -214.725 1.687 -86.110
v -212.085 1.772 -83.480
v -209.615 1.762 -85.960
v -212.255 1.694 -88.590
f 189 190 191 192
v -211.648 1.785 -83.162
v -208.328 1.825 -81.462
v -206.732 1.781 -84.578
v -210.052 1.756 -86.278
f 193 194 195 196
v -207.810 1.835 -81.293
v -204.110 1.898 -80.693
v -203.550 1.838 -84.147
v -207.250 1.774 -84.747
f 197 198 199 200
v -203.563 1.907 -80.691
v -199.873 1.922 -81.261
v -200.407 1.861 -84.719
v -204.097 1.829 -84.149
f 201 202 203 204
v -228.570 1.251 -109.021
v -224.900 1.328 -110.651
v -226.320 1.242 -113.849
v -229.990 1.217 -112.219
f 205 206 207 208
v -224.221 1.338 -111.186
v -221.801 1.330 -114.346
v -224.579 1.231 -116.474
v -226.999 1.244 -113.314
f 209 210 211 212
v -221.580 1.325 -114.725
v -219.500 1.267 -119.615
v -222.720 1.217 -120.985
v -224.800 1.233 -116.095
f 213 214 215 216
v -219.397 1.265 -119.944
v -217.747 1.228 -127.894
v -221.173 1.188 -128.606
v -222.823 1.220 -120.656
f 217 218 219 220
v -217.751 1.228 -127.875
v -216.581 1.225 -133.215
v -219.999 1.182 -133.965
v -221.169 1.188 -128.625
f 221 222 223 224
v -216.610 1.226 -133.100
v -215.320 1.199 -137.520
v -218.680 1.184 -138.500
v -219.970 1.182 -134.080
f 225 226 227 228
v -215.429 1.202 -137.239
v -213.809 1.172 -140.539
v -216.951 1.163 -142.081
v -218.571 1.182 -138.781
f 229 230 231 232
v -213.994 1.174 -140.242
v -211.814 1.148 -143.072
v -214.586 1.162 -145.208
v -216.766 1.162 -142.378
f 233 234 235 236
v -212.132 1.152 -142.754
v -210.522 1.149 -143.994
v -212.658 1.167 -146.766
v -214.268 1.157 -145.526
f 237 238 239 240
v -211.092 1.146 -143.702
v -208.802 1.160 -144.382
v -209.798 1.181 -147.738
v -212.088 1.172 -147.058
f 241 242 243 244
v -209.231 1.156 -144.311
v -206.941 1.187 -144.401
v -207.079 1.187 -147.899
v -209.369 1.185 -147.809
f 245 246 247 248
v -207.273 1.181 -144.420
v -204.183 1.271 -143.950
v -203.657 1.230 -147.410
v -206.747 1.189 -147.880
f 249 250 251 252
v -204.563 1.262 -144.052
v -202.513 1.298 -143.242
v -201.227 1.295 -146.498
v -203.277 1.238 -147.308
f 253 254 255 256
v -202.782 1.300 -143.376
v -200.162 1.286 -141.776
v -198.338 1.260 -144.764
v -200.958 1.298 -146.364
f 257 258 259 260
v -253.299 1.160 -102.119
v -235.839 1.191 -107.909
v -236.941 1.172 -111.231
v -254.401 1.162 -105.441
f 261 262 263 264
v -236.134 1.188 -107.839
v -229.024 1.241 -108.889
v -229.536 1.219 -112.351
v -236.646 1.172 -111.301
f 265 266 267 268
v -230.139 1.238 -109.095
v -214.349 1.551 -100.195
v -212.631 1.540 -103.245
v -228.421 1.245 -112.145
f 269 270 271 272
v -255.199 0.859 234.656
v -240.009 0.902 229.518
v -241.611 1.005 224.782
v -256.801 0.951 229.920
f 273 274 275 276
v -240.009 0.902 229.518
v -192.939 0.869 213.608
v -194.541 0.880 208.872
v -241.611 1.005 224.782
f 277 278 279 280
v -192.028 0.872 213.062
v -183.598 0.966 205.142
v -187.022 0.979 201.498
v -195.452 0.897 209.418
f 281 282 283 284
v -261.656 0.710 7.609
v -233.386 0.789 87.482
v -222.074 0.838 83.478
v -250.344 0.747 3.605
f 285 286 287 288
v -233.387 0.789 87.481
v -217.727 0.720 131.761
v -206.413 0.684 127.759
v -222.073 0.838 83.479
f 289 290 291 292
v -217.709 0.720 131.811
v -195.499 0.931 192.871
v -184.221 0.873 188.769
v -206.431 0.683 127.709
f 293 294 295 296
v -195.498 0.931 192.872
v -190.948 0.912 205.372
v -179.672 0.900 201.268
v -184.222 0.873 188.768
f 297 298 299 300
usemtl asphalt
