# Baked ultra-low Key West silhouette; generated by bake_key_west_far_city.py
mtllib far_city.mtl
usemtl massing
v -225.163 0.698 -192.154
v -199.591 0.698 -285.971
v -180.497 0.698 -280.766
v -206.069 0.698 -186.949
v -225.163 8.998 -192.154
v -199.591 8.998 -285.971
v -180.497 8.998 -280.766
v -206.069 8.998 -186.949
f 8 7 6 5
f 1 2 6 5
f 2 3 7 6
f 3 4 8 7
f 4 1 5 8
v -246.455 0.693 -211.037
v -216.767 0.693 -202.874
v -221.945 0.693 -184.043
v -251.633 0.693 -192.206
v -246.455 6.493 -211.037
v -216.767 6.493 -202.874
v -221.945 6.493 -184.043
v -251.633 6.493 -192.206
f 16 15 14 13
f 9 10 14 13
f 10 11 15 14
f 11 12 16 15
f 12 9 13 16
v -266.841 0.818 -159.093
v -261.765 0.818 -183.245
v -242.839 0.818 -179.267
v -247.915 0.818 -155.115
v -266.841 4.718 -159.093
v -261.765 4.718 -183.245
v -242.839 4.718 -179.267
v -247.915 4.718 -155.115
f 24 23 22 21
f 17 18 22 21
f 18 19 23 22
f 19 20 24 23
f 20 17 21 24
usemtl road
v -175.583 0.705 -254.351
v -164.789 0.762 -216.581
v -153.251 0.740 -219.879
v -164.045 0.748 -257.649
f 25 26 27 28
v -164.903 0.760 -217.049
v -154.403 0.908 -164.749
v -142.637 0.896 -167.111
v -153.137 0.737 -219.411
f 29 30 31 32
v -154.463 0.905 -165.101
v -144.333 0.953 -92.451
v -132.447 0.760 -94.109
v -142.577 0.898 -166.759
f 33 34 35 36
v -144.332 0.953 -92.447
v -109.252 0.685 157.653
v -97.368 0.673 155.987
v -132.448 0.760 -94.113
f 37 38 39 40
v -109.264 0.685 157.558
v -101.454 0.871 220.548
v -89.546 1.369 219.072
v -97.356 0.673 156.082
f 41 42 43 44
v -101.500 0.867 219.778
v -101.620 0.980 242.258
v -89.620 1.542 242.322
v -89.500 1.380 219.842
f 45 46 47 48
v -101.576 0.978 241.566
v -103.243 0.988 255.276
v -91.331 1.597 256.724
v -89.664 1.543 243.014
f 49 50 51 52
v -255.433 0.930 -247.191
v -234.528 1.021 -254.344
v -235.661 0.944 -257.656
v -256.567 0.800 -250.503
f 53 54 55 56
v -227.130 0.895 -255.523
v -225.154 0.924 -248.553
v -221.786 0.957 -249.507
v -223.763 0.948 -256.477
f 57 58 59 60
v -225.154 0.924 -248.553
v -217.004 0.831 -219.753
v -213.636 0.913 -220.707
v -221.786 0.957 -249.507
f 61 62 63 64
v -217.003 0.831 -219.750
v -216.193 0.869 -216.910
v -212.827 0.956 -217.870
v -213.637 0.913 -220.710
f 65 66 67 68
v -216.195 0.869 -216.916
v -213.905 0.901 -208.776
v -210.535 0.990 -209.724
v -212.825 0.956 -217.864
f 69 70 71 72
v -213.924 0.901 -208.853
v -208.954 0.986 -187.533
v -205.546 0.985 -188.327
v -210.516 0.989 -209.647
f 73 74 75 76
v -215.786 0.845 -221.917
v -223.176 0.868 -219.877
v -222.244 0.987 -216.503
v -214.854 0.870 -218.543
f 77 78 79 80
v -223.175 0.868 -219.877
v -255.755 0.859 -210.897
v -254.825 0.935 -207.523
v -222.245 0.987 -216.503
f 81 82 83 84
usemtl asphalt
