# Baked ultra-low Key West silhouette; generated by bake_key_west_far_city.py
mtllib far_city.mtl
usemtl massing
v -250.901 1.011 -194.885
v -177.100 1.011 -154.227
v -212.199 1.011 -90.515
v -286.000 1.011 -131.173
v -250.901 9.311 -194.885
v -177.100 9.311 -154.227
v -212.199 9.311 -90.515
v -286.000 9.311 -131.173
f 8 7 6 5
f 1 2 6 5
f 2 3 7 6
f 3 4 8 7
f 4 1 5 8
v -199.041 0.705 -165.927
v -180.953 0.705 -213.901
v -170.959 0.705 -210.133
v -189.047 0.705 -162.159
v -199.041 6.505 -165.927
v -180.953 6.505 -213.901
v -170.959 6.505 -210.133
v -189.047 6.505 -162.159
f 16 15 14 13
f 9 10 14 13
f 10 11 15 14
f 11 12 16 15
f 12 9 13 16
v -230.804 0.346 -187.014
v -211.419 0.346 -210.236
v -197.056 0.346 -198.246
v -216.441 0.346 -175.024
v -230.804 4.246 -187.014
v -211.419 4.246 -210.236
v -197.056 4.246 -198.246
v -216.441 4.246 -175.024
f 24 23 22 21
f 17 18 22 21
f 18 19 23 22
f 19 20 24 23
f 20 17 21 24
v -236.178 1.016 -142.624
v -229.703 1.016 -148.524
v -225.102 1.016 -143.476
v -231.577 1.016 -137.576
v -236.178 4.916 -142.624
v -229.703 4.916 -148.524
v -225.102 4.916 -143.476
v -231.577 4.916 -137.576
f 32 31 30 29
f 25 26 30 29
f 26 27 31 30
f 27 28 32 31
f 28 25 29 32
usemtl road
v -104.271 1.006 -247.271
v -110.601 0.890 -228.321
v -99.219 1.513 -224.519
v -92.889 1.618 -243.469
f 33 34 35 36
v -110.599 0.890 -228.327
v -112.399 0.881 -222.957
v -101.021 1.507 -219.143
v -99.221 1.513 -224.513
f 37 38 39 40
v -112.148 0.881 -223.584
v -122.158 0.834 -202.104
v -111.282 1.453 -197.036
v -101.272 1.507 -218.516
f 41 42 43 44
v -121.721 0.832 -202.884
v -135.021 0.805 -182.814
v -125.019 1.385 -176.186
v -111.719 1.449 -196.256
f 45 46 47 48
v -134.548 0.802 -183.436
v -165.908 1.030 -147.356
v -156.852 1.115 -139.484
v -125.492 1.382 -175.564
f 49 50 51 52
v -165.908 1.030 -147.357
v -189.698 1.101 -119.997
v -180.642 1.059 -112.123
v -156.852 1.115 -139.483
f 53 54 55 56
v -189.698 1.101 -119.996
v -218.438 1.011 -86.936
v -209.382 0.948 -79.064
v -180.642 1.059 -112.124
f 57 58 59 60
v -218.053 1.017 -87.340
v -218.713 1.005 -86.710
v -210.427 0.930 -78.030
v -209.767 0.941 -78.660
f 61 62 63 64
v -218.706 1.005 -86.717
v -228.996 0.982 -76.927
v -220.724 0.922 -68.233
v -210.434 0.930 -78.023
f 65 66 67 68
v -228.996 0.982 -76.927
v -246.936 0.909 -59.857
v -238.664 0.865 -51.163
v -220.724 0.922 -68.233
f 69 70 71 72
v -224.389 0.995 -74.265
v -237.849 0.845 -78.025
v -238.791 0.846 -74.655
v -225.331 0.945 -70.895
f 73 74 75 76
v -237.847 0.845 -78.025
v -244.897 0.833 -80.005
v -245.843 0.843 -76.635
v -238.793 0.846 -74.655
f 77 78 79 80
v -246.135 0.832 -79.894
v -249.325 0.826 -78.344
v -247.795 0.855 -75.196
v -244.605 0.841 -76.746
f 81 82 83 84
v -249.261 0.826 -78.373
v -254.431 0.861 -76.113
v -253.029 0.897 -72.907
v -247.859 0.855 -75.167
f 85 86 87 88
v -254.188 0.859 -76.199
v -256.458 0.882 -75.584
v -255.542 0.895 -72.206
v -253.272 0.898 -72.821
f 89 90 91 92
v -175.728 0.864 -155.948
v -181.818 0.931 -155.218
v -181.402 0.926 -151.742
v -175.312 0.871 -152.472
f 93 94 95 96
v -182.154 0.938 -155.143
v -185.704 1.008 -153.983
v -184.616 1.010 -150.657
v -181.066 0.919 -151.817
f 97 98 99 100
v -186.197 1.016 -153.730
v -188.807 1.101 -151.810
v -186.733 1.165 -148.990
v -184.123 0.986 -150.910
f 101 102 103 104
v -189.226 1.133 -151.371
v -190.286 1.274 -149.781
v -187.374 1.236 -147.839
v -186.314 1.126 -149.429
f 105 106 107 108
v -192.163 0.895 -163.089
v -176.483 0.870 -152.749
v -174.557 0.865 -155.671
v -190.237 0.837 -166.011
f 109 110 111 112
v -176.581 0.869 -152.818
v -171.361 0.923 -148.838
v -169.239 0.908 -151.622
v -174.459 0.866 -155.602
f 113 114 115 116
v -171.362 0.923 -148.839
v -162.442 1.111 -142.029
v -160.318 1.098 -144.811
v -169.238 0.908 -151.621
f 117 118 119 120
v -194.468 1.202 -141.971
v -195.108 1.087 -140.481
v -191.892 1.018 -139.099
v -191.252 1.145 -140.589
f 121 122 123 124
v -195.191 1.078 -140.240
v -195.801 1.015 -137.950
v -192.419 0.925 -137.050
v -191.809 1.039 -139.340
f 125 126 127 128
v -195.850 1.002 -137.310
v -195.710 0.971 -136.030
v -192.230 0.913 -136.410
v -192.370 0.948 -137.690
f 129 130 131 132
v -195.708 0.971 -136.016
v -195.568 0.944 -134.826
v -192.092 0.889 -135.234
v -192.232 0.913 -136.424
f 133 134 135 136
v -195.428 0.931 -134.317
v -192.618 0.892 -128.017
v -189.422 0.948 -129.443
v -192.232 0.899 -135.743
f 137 138 139 140
v -192.613 0.892 -128.005
v -192.003 0.925 -126.665
v -188.817 0.983 -128.115
v -189.427 0.947 -129.455
f 141 142 143 144
v -191.998 0.925 -126.655
v -186.758 1.144 -115.325
v -183.582 1.111 -116.795
v -188.822 0.982 -128.125
f 145 146 147 148
v -190.373 1.286 -149.636
v -194.403 1.215 -142.106
v -191.317 1.134 -140.454
v -187.287 1.226 -147.984
f 149 150 151 152
v -189.551 0.855 -165.137
v -207.461 0.478 -215.467
v -210.759 0.447 -214.293
v -192.849 0.879 -163.963
f 153 154 155 156
v -190.354 0.835 -166.082
v -236.264 0.689 -191.452
v -237.956 0.744 -188.388
v -192.046 0.896 -163.018
f 157 158 159 160
v -244.331 0.833 -79.728
v -249.861 0.842 -83.808
v -251.939 0.865 -80.992
v -246.409 0.844 -76.912
f 161 162 163 164
v -249.621 0.842 -83.594
v -252.851 0.845 -87.054
v -255.409 0.848 -84.666
v -252.179 0.870 -81.206
f 165 166 167 168
v -252.844 0.845 -87.047
v -254.714 0.866 -89.073
v -257.286 0.797 -86.700
v -255.416 0.847 -84.673
f 169 170 171 172
v -240.241 0.805 -182.956
v -235.721 0.715 -188.856
v -238.499 0.722 -190.984
v -243.019 0.776 -185.084
f 173 174 175 176
v -235.718 0.715 -188.859
v -234.438 0.668 -190.539
v -237.222 0.674 -192.661
v -238.502 0.722 -190.981
f 177 178 179 180
v -234.144 0.654 -191.130
v -232.934 0.577 -195.470
v -236.306 0.539 -196.410
v -237.516 0.689 -192.070
f 181 182 183 184
v -233.089 0.583 -195.093
v -231.069 0.544 -198.743
v -234.131 0.486 -200.437
v -236.151 0.528 -196.787
f 185 186 187 188
v -231.374 0.548 -198.341
v -228.084 0.550 -201.571
v -230.536 0.467 -204.069
v -233.826 0.482 -200.839
f 189 190 191 192
v -228.446 0.547 -201.298
v -214.486 0.510 -209.218
v -216.214 0.502 -212.262
v -230.174 0.468 -204.342
f 193 194 195 196
v -214.383 0.506 -209.282
v -208.143 0.505 -213.422
v -210.077 0.420 -216.338
v -216.317 0.506 -212.198
f 197 198 199 200
v -208.137 0.505 -213.425
v -204.697 0.538 -215.725
v -206.643 0.423 -218.635
v -210.083 0.420 -216.335
f 201 202 203 204
v -205.083 0.530 -215.531
v -193.513 0.610 -219.651
v -194.687 0.600 -222.949
v -206.257 0.426 -218.829
f 205 206 207 208
v -193.939 0.619 -219.557
v -158.069 0.573 -222.877
v -158.391 0.521 -226.363
v -194.261 0.588 -223.043
f 209 210 211 212
v -158.003 0.573 -222.885
v -123.343 0.537 -227.425
v -123.797 0.500 -230.895
v -158.457 0.521 -226.355
f 213 214 215 216
v -123.657 0.528 -227.412
v -114.417 0.720 -226.952
v -114.243 0.706 -230.448
v -123.483 0.495 -230.908
f 217 218 219 220
v -114.742 0.704 -226.999
v -105.322 1.197 -224.719
v -104.498 1.187 -228.121
v -113.918 0.718 -230.401
f 221 222 223 224
usemtl asphalt
