# Baked ultra-low Key West silhouette; generated by bake_key_west_far_city.py
mtllib far_city.mtl
usemtl massing
v 187.117 2.013 -135.371
v 187.203 2.013 -114.401
v 174.623 2.013 -114.349
v 174.537 2.013 -135.319
v 187.117 5.913 -135.371
v 187.203 5.913 -114.401
v 174.623 5.913 -114.349
v 174.537 5.913 -135.319
f 8 7 6 5
f 1 2 6 5
f 2 3 7 6
f 3 4 8 7
f 4 1 5 8
v -110.944 1.149 -35.377
v -89.621 1.149 -27.679
v -93.476 1.149 -17.003
v -114.799 1.149 -24.701
v -110.944 5.049 -35.377
v -89.621 5.049 -27.679
v -93.476 5.049 -17.003
v -114.799 5.049 -24.701
f 16 15 14 13
f 9 10 14 13
f 10 11 15 14
f 11 12 16 15
f 12 9 13 16
v 149.832 1.217 -49.451
v 232.921 1.217 -49.008
v 232.848 1.217 -35.349
v 149.759 1.217 -35.792
v 149.832 7.017 -49.451
v 232.921 7.017 -49.008
v 232.848 7.017 -35.349
v 149.759 7.017 -35.792
f 24 23 22 21
f 17 18 22 21
f 18 19 23 22
f 19 20 24 23
f 20 17 21 24
v 113.147 1.017 -126.637
v 129.377 1.017 -126.653
v 129.393 1.017 -111.863
v 113.163 1.017 -111.847
v 113.147 4.917 -126.637
v 129.377 4.917 -126.653
v 129.393 4.917 -111.863
v 113.163 4.917 -111.847
f 32 31 30 29
f 25 26 30 29
f 26 27 31 30
f 27 28 32 31
f 28 25 29 32
v 198.679 1.198 -155.858
v 218.948 1.198 -155.752
v 218.901 1.198 -146.842
v 198.632 1.198 -146.948
v 198.679 5.098 -155.858
v 218.948 5.098 -155.752
v 218.901 5.098 -146.842
v 198.632 5.098 -146.948
f 40 39 38 37
f 33 34 38 37
f 34 35 39 38
f 35 36 40 39
f 36 33 37 40
v 53.029 1.123 -27.886
v 53.031 1.123 -34.636
v 57.311 1.123 -34.634
v 57.309 1.123 -27.884
v 53.029 5.023 -27.886
v 53.031 5.023 -34.636
v 57.311 5.023 -34.634
v 57.309 5.023 -27.884
f 48 47 46 45
f 41 42 46 45
f 42 43 47 46
f 43 44 48 47
f 44 41 45 48
v -17.058 1.025 -64.463
v 6.130 1.025 -64.156
v 6.018 1.025 -55.737
v -17.170 1.025 -56.044
v -17.058 4.925 -64.463
v 6.130 4.925 -64.156
v 6.018 4.925 -55.737
v -17.170 4.925 -56.044
f 56 55 54 53
f 49 50 54 53
f 50 51 55 54
f 51 52 56 55
f 52 49 53 56
v 43.662 1.214 -8.696
v 46.699 1.214 11.153
v 38.178 1.214 12.456
v 35.141 1.214 -7.393
v 43.662 5.114 -8.696
v 46.699 5.114 11.153
v 38.178 5.114 12.456
v 35.141 5.114 -7.393
f 64 63 62 61
f 57 58 62 61
f 58 59 63 62
f 59 60 64 63
f 60 57 61 64
v -250.069 0.726 225.430
v -228.661 0.726 229.439
v -232.091 0.726 247.750
v -253.499 0.726 243.741
v -250.069 4.626 225.430
v -228.661 4.626 229.439
v -232.091 4.626 247.750
v -253.499 4.626 243.741
f 72 71 70 69
f 65 66 70 69
f 66 67 71 70
f 67 68 72 71
f 68 65 69 72
v 198.882 1.075 -143.771
v 219.002 1.075 -143.669
v 218.958 1.075 -134.909
v 198.838 1.075 -135.011
v 198.882 4.975 -143.771
v 219.002 4.975 -143.669
v 218.958 4.975 -134.909
v 198.838 4.975 -135.011
f 80 79 78 77
f 73 74 78 77
f 74 75 79 78
f 75 76 80 79
f 76 73 77 80
v 221.393 0.888 -162.143
v 227.782 0.888 -162.246
v 227.867 0.888 -156.977
v 221.478 0.888 -156.874
v 221.393 4.788 -162.143
v 227.782 4.788 -162.246
v 227.867 4.788 -156.977
v 221.478 4.788 -156.874
f 88 87 86 85
f 81 82 86 85
f 82 83 87 86
f 83 84 88 87
f 84 81 85 88
v 61.707 1.111 -42.720
v 81.807 1.111 -42.640
v 81.773 1.111 -34.000
v 61.673 1.111 -34.080
v 61.707 5.011 -42.720
v 81.807 5.011 -42.640
v 81.773 5.011 -34.000
v 61.673 5.011 -34.080
f 96 95 94 93
f 89 90 94 93
f 90 91 95 94
f 91 92 96 95
f 92 89 93 96
v 198.618 1.087 -131.951
v 218.887 1.087 -131.849
v 218.842 1.087 -122.949
v 198.573 1.087 -123.051
v 198.618 4.987 -131.951
v 218.887 4.987 -131.849
v 218.842 4.987 -122.949
v 198.573 4.987 -123.051
f 104 103 102 101
f 97 98 102 101
f 98 99 103 102
f 99 100 104 103
f 100 97 101 104
v -103.655 0.980 -51.539
v -91.680 0.980 -47.817
v -95.465 0.980 -35.641
v -107.440 0.980 -39.363
v -103.655 4.880 -51.539
v -91.680 4.880 -47.817
v -95.465 4.880 -35.641
v -107.440 4.880 -39.363
f 112 111 110 109
f 105 106 110 109
f 106 107 111 110
f 107 108 112 111
f 108 105 109 112
v 103.703 1.103 -29.233
v 127.033 1.103 -29.137
v 126.997 1.103 -20.567
v 103.667 1.103 -20.663
v 103.703 5.003 -29.233
v 127.033 5.003 -29.137
v 126.997 5.003 -20.567
v 103.667 5.003 -20.663
f 120 119 118 117
f 113 114 118 117
f 114 115 119 118
f 115 116 120 119
f 116 113 117 120
v 23.406 1.219 10.927
v 23.464 1.219 -9.232
v 32.094 1.219 -9.207
v 32.036 1.219 10.952
v 23.406 5.119 10.927
v 23.464 5.119 -9.232
v 32.094 5.119 -9.207
v 32.036 5.119 10.952
f 128 127 126 125
f 121 122 126 125
f 122 123 127 126
f 123 124 128 127
f 124 121 125 128
v 95.439 1.003 -0.922
v 98.463 1.003 18.818
v 90.081 1.003 20.102
v 87.057 1.003 0.362
v 95.439 4.903 -0.922
v 98.463 4.903 18.818
v 90.081 4.903 20.102
v 87.057 4.903 0.362
f 136 135 134 133
f 129 130 134 133
f 130 131 135 134
f 131 132 136 135
f 132 129 133 136
v -16.891 1.135 -52.573
v 6.246 1.135 -52.256
v 6.131 1.135 -43.887
v -17.006 1.135 -44.204
v -16.891 5.035 -52.573
v 6.246 5.035 -52.256
v 6.131 5.035 -43.887
v -17.006 5.035 -44.204
f 144 143 142 141
f 137 138 142 141
f 138 139 143 142
f 139 140 144 143
f 140 137 141 144
v 198.697 1.302 -108.305
v 218.947 1.302 -108.205
v 218.903 1.302 -99.315
v 198.653 1.302 -99.415
v 198.697 5.202 -108.305
v 218.947 5.202 -108.205
v 218.903 5.202 -99.315
v 198.653 5.202 -99.415
f 152 151 150 149
f 145 146 150 149
f 146 147 151 150
f 147 148 152 151
f 148 145 149 152
v 82.733 1.091 -2.573
v 85.741 1.091 17.099
v 77.407 1.091 18.373
v 74.399 1.091 -1.299
v 82.733 4.991 -2.573
v 85.741 4.991 17.099
v 77.407 4.991 18.373
v 74.399 4.991 -1.299
f 160 159 158 157
f 153 154 158 157
f 154 155 159 158
f 155 156 160 159
f 156 153 157 160
v 28.952 1.129 -47.123
v 49.162 1.129 -47.046
v 49.128 1.129 -38.297
v 28.918 1.129 -38.374
v 28.952 5.029 -47.123
v 49.162 5.029 -47.046
v 49.128 5.029 -38.297
v 28.918 5.029 -38.374
f 168 167 166 165
f 161 162 166 165
f 162 163 167 166
f 163 164 168 167
f 164 161 165 168
v 103.838 1.144 -52.853
v 127.158 1.144 -52.757
v 127.122 1.144 -44.187
v 103.802 1.144 -44.283
v 103.838 5.044 -52.853
v 127.158 5.044 -52.757
v 127.122 5.044 -44.187
v 103.802 5.044 -44.283
f 176 175 174 173
f 169 170 174 173
f 170 171 175 174
f 171 172 176 175
f 172 169 173 176
v 198.692 1.055 -120.205
v 218.952 1.055 -120.105
v 218.908 1.055 -111.195
v 198.648 1.055 -111.295
v 198.692 4.955 -120.205
v 218.952 4.955 -120.105
v 218.908 4.955 -111.195
v 198.648 4.955 -111.295
f 184 183 182 181
f 177 178 182 181
f 178 179 183 182
f 179 180 184 183
f 180 177 181 184
v 104.083 1.143 -17.388
v 127.473 1.143 -17.292
v 127.437 1.143 -8.652
v 104.047 1.143 -8.748
v 104.083 5.043 -17.388
v 127.473 5.043 -17.292
v 127.437 5.043 -8.652
v 104.047 5.043 -8.748
f 192 191 190 189
f 185 186 190 189
f 186 187 191 190
f 187 188 192 191
f 188 185 189 192
v -147.606 1.105 -33.992
v -120.372 1.105 -41.539
v -113.834 1.105 -17.948
v -141.068 1.105 -10.401
v -147.606 5.005 -33.992
v -120.372 5.005 -41.539
v -113.834 5.005 -17.948
v -141.068 5.005 -10.401
f 200 199 198 197
f 193 194 198 197
f 194 195 199 198
f 195 196 200 199
f 196 193 197 200
v 61.986 1.435 -31.017
v 81.946 1.435 -30.943
v 81.914 1.435 -22.443
v 61.954 1.435 -22.517
v 61.986 5.335 -31.017
v 81.946 5.335 -30.943
v 81.914 5.335 -22.443
v 61.954 5.335 -22.517
f 208 207 206 205
f 201 202 206 205
f 202 203 207 206
f 203 204 208 207
f 204 201 205 208
v 69.834 1.110 -4.903
v 72.867 1.110 14.926
v 64.386 1.110 16.223
v 61.353 1.110 -3.606
v 69.834 5.010 -4.903
v 72.867 5.010 14.926
v 64.386 5.010 16.223
v 61.353 5.010 -3.606
f 216 215 214 213
f 209 210 214 213
f 210 211 215 214
f 211 212 216 215
f 212 209 213 216
v -209.566 0.915 220.401
v -195.536 0.915 220.459
v -195.574 0.915 229.779
v -209.604 0.915 229.721
v -209.566 4.815 220.401
v -195.536 4.815 220.459
v -195.574 4.815 229.779
v -209.604 4.815 229.721
f 224 223 222 221
f 217 218 222 221
f 218 219 223 222
f 219 220 224 223
f 220 217 221 224
v 62.052 1.035 -54.640
v 82.002 1.035 -54.560
v 81.968 1.035 -46.080
v 62.018 1.035 -46.160
v 62.052 4.935 -54.640
v 82.002 4.935 -54.560
v 81.968 4.935 -46.080
v 62.018 4.935 -46.160
f 232 231 230 229
f 225 226 230 229
f 226 227 231 230
f 227 228 232 231
f 228 225 229 232
v -215.409 0.585 210.421
v -195.300 0.585 210.519
v -195.331 0.585 216.879
v -215.440 0.585 216.781
v -215.409 4.485 210.421
v -195.300 4.485 210.519
v -195.331 4.485 216.879
v -215.440 4.485 216.781
f 240 239 238 237
f 233 234 238 237
f 234 235 239 238
f 235 236 240 239
f 236 233 237 240
v 9.878 1.093 11.136
v 9.942 1.093 -9.064
v 18.602 1.093 -9.036
v 18.538 1.093 11.164
v 9.878 4.993 11.136
v 9.942 4.993 -9.064
v 18.602 4.993 -9.036
v 18.538 4.993 11.164
f 248 247 246 245
f 241 242 246 245
f 242 243 247 246
f 243 244 248 247
f 244 241 245 248
v -108.946 0.310 5.435
v -101.504 0.310 -3.798
v -93.734 0.310 2.465
v -101.176 0.310 11.698
v -108.946 9.610 5.435
v -101.504 9.610 -3.798
v -93.734 9.610 2.465
v -101.176 9.610 11.698
f 256 255 254 253
f 249 250 254 253
f 250 251 255 254
f 251 252 256 255
f 252 249 253 256
v 104.093 0.992 -64.468
v 127.162 0.992 -64.372
v 127.127 0.992 -56.052
v 104.058 0.992 -56.148
v 104.093 4.892 -64.468
v 127.162 4.892 -64.372
v 127.127 4.892 -56.052
v 104.058 4.892 -56.148
f 264 263 262 261
f 257 258 262 261
f 258 259 263 262
f 259 260 264 263
f 260 257 261 264
v -16.986 1.069 -17.258
v 6.242 1.069 -16.941
v 6.126 1.069 -8.482
v -17.102 1.069 -8.799
v -16.986 4.969 -17.258
v 6.242 4.969 -16.941
v 6.126 4.969 -8.482
v -17.102 4.969 -8.799
f 272 271 270 269
f 265 266 270 269
f 266 267 271 270
f 267 268 272 271
f 268 265 269 272
v 56.849 1.166 -6.890
v 59.938 1.166 13.224
v 51.171 1.166 14.570
v 48.082 1.166 -5.544
v 56.849 5.066 -6.890
v 59.938 5.066 13.224
v 51.171 5.066 14.570
v 48.082 5.066 -5.544
f 280 279 278 277
f 273 274 278 277
f 274 275 279 278
f 275 276 280 279
f 276 273 277 280
v -266.946 1.109 0.038
v -223.727 1.109 14.860
v -228.694 1.109 29.342
v -271.913 1.109 14.520
v -266.946 6.909 0.038
v -223.727 6.909 14.860
v -228.694 6.909 29.342
v -271.913 6.909 14.520
f 288 287 286 285
f 281 282 286 285
f 282 283 287 286
f 283 284 288 287
f 284 281 285 288
v 80.635 0.711 37.540
v 117.203 0.711 37.121
v 117.345 0.711 49.480
v 80.777 0.711 49.899
v 80.635 6.511 37.540
v 117.203 6.511 37.121
v 117.345 6.511 49.480
v 80.777 6.511 49.899
f 296 295 294 293
f 289 290 294 293
f 290 291 295 294
f 291 292 296 295
f 292 289 293 296
v 28.910 1.102 -54.636
v 48.910 1.102 -54.544
v 48.890 1.102 -50.224
v 28.890 1.102 -50.316
v 28.910 5.002 -54.636
v 48.910 5.002 -54.544
v 48.890 5.002 -50.224
v 28.890 5.002 -50.316
f 304 303 302 301
f 297 298 302 301
f 298 299 303 302
f 299 300 304 303
f 300 297 301 304
v -17.013 1.027 -29.147
v 6.245 1.027 -28.842
v 6.133 1.027 -20.353
v -17.125 1.027 -20.658
v -17.013 4.927 -29.147
v 6.245 4.927 -28.842
v 6.133 4.927 -20.353
v -17.125 4.927 -20.658
f 312 311 310 309
f 305 306 310 309
f 306 307 311 310
f 307 308 312 311
f 308 305 309 312
v -16.817 1.092 -40.823
v 6.311 1.092 -40.506
v 6.197 1.092 -32.157
v -16.931 1.092 -32.474
v -16.817 4.992 -40.823
v 6.311 4.992 -40.506
v 6.197 4.992 -32.157
v -16.931 4.992 -32.474
f 320 319 318 317
f 313 314 318 317
f 314 315 319 318
f 315 316 320 319
f 316 313 317 320
v 28.822 1.251 -35.260
v 49.032 1.251 -35.180
v 48.998 1.251 -26.420
v 28.788 1.251 -26.500
v 28.822 5.151 -35.260
v 49.032 5.151 -35.180
v 48.998 5.151 -26.420
v 28.788 5.151 -26.500
f 328 327 326 325
f 321 322 326 325
f 322 323 327 326
f 323 324 328 327
f 324 321 325 328
v 103.823 1.139 -40.843
v 127.173 1.139 -40.747
v 127.137 1.139 -32.157
v 103.787 1.139 -32.253
v 103.823 5.039 -40.843
v 127.173 5.039 -40.747
v 127.137 5.039 -32.157
v 103.787 5.039 -32.253
f 336 335 334 333
f 329 330 334 333
f 330 331 335 334
f 331 332 336 335
f 332 329 333 336
v 108.140 0.961 1.032
v 111.162 0.961 20.782
v 102.760 0.961 22.068
v 99.738 0.961 2.318
v 108.140 4.861 1.032
v 111.162 4.861 20.782
v 102.760 4.861 22.068
v 99.738 4.861 2.318
f 344 343 342 341
f 337 338 342 341
f 338 339 343 342
f 339 340 344 343
f 340 337 341 344
v -17.085 1.115 -5.743
v 6.343 1.115 -5.426
v 6.225 1.115 3.223
v -17.203 1.115 2.906
v -17.085 5.015 -5.743
v 6.343 5.015 -5.426
v 6.225 5.015 3.223
v -17.203 5.015 2.906
f 352 351 350 349
f 345 346 350 349
f 346 347 351 350
f 347 348 352 351
f 348 345 349 352
v 80.506 0.707 77.389
v 117.053 0.707 76.972
v 117.194 0.707 89.311
v 80.647 0.707 89.728
v 80.506 6.507 77.389
v 117.053 6.507 76.972
v 117.194 6.507 89.311
v 80.647 6.507 89.728
f 360 359 358 357
f 353 354 358 357
f 354 355 359 358
f 355 356 360 359
f 356 353 357 360
v 112.352 1.040 147.216
v 112.498 1.040 127.637
v 124.188 1.040 127.724
v 124.042 1.040 147.303
v 112.352 4.940 147.216
v 112.498 4.940 127.637
v 124.188 4.940 127.724
v 124.042 4.940 147.303
f 368 367 366 365
f 361 362 366 365
f 362 363 367 366
f 363 364 368 367
f 364 361 365 368
v 76.901 0.354 130.456
v 77.211 0.354 120.841
v 81.619 0.354 120.984
v 81.309 0.354 130.599
v 76.901 4.254 130.456
v 77.211 4.254 120.841
v 81.619 4.254 120.984
v 81.309 4.254 130.599
f 376 375 374 373
f 369 370 374 373
f 370 371 375 374
f 371 372 376 375
f 372 369 373 376
v 72.003 0.756 152.185
v 87.133 0.756 152.205
v 87.117 0.756 164.095
v 71.987 0.756 164.075
v 72.003 4.656 152.185
v 87.133 4.656 152.205
v 87.117 4.656 164.095
v 71.987 4.656 164.075
f 384 383 382 381
f 377 378 382 381
f 378 379 383 382
f 379 380 384 383
f 380 377 381 384
v 31.434 0.566 187.911
v 47.493 0.566 187.094
v 48.066 0.566 198.349
v 32.007 0.566 199.166
v 31.434 4.466 187.911
v 47.493 4.466 187.094
v 48.066 4.466 198.349
v 32.007 4.466 199.166
f 392 391 390 389
f 385 386 390 389
f 386 387 391 390
f 387 388 392 391
f 388 385 389 392
v 29.922 0.367 203.205
v 46.153 0.367 202.083
v 46.958 0.367 213.735
v 30.727 0.367 214.857
v 29.922 4.267 203.205
v 46.153 4.267 202.083
v 46.958 4.267 213.735
v 30.727 4.267 214.857
f 400 399 398 397
f 393 394 398 397
f 394 395 399 398
f 395 396 400 399
f 396 393 397 400
v 31.097 0.547 242.501
v 35.527 0.547 224.416
v 51.543 0.547 228.339
v 47.113 0.547 246.424
v 31.097 4.447 242.501
v 35.527 4.447 224.416
v 51.543 4.447 228.339
v 47.113 4.447 246.424
f 408 407 406 405
f 401 402 406 405
f 402 403 407 406
f 403 404 408 407
f 404 401 405 408
v 48.608 0.374 230.909
v 55.227 0.374 230.851
v 55.252 0.374 233.751
v 48.633 0.374 233.809
v 48.608 4.274 230.909
v 55.227 4.274 230.851
v 55.252 4.274 233.751
v 48.633 4.274 233.809
f 416 415 414 413
f 409 410 414 413
f 410 411 415 414
f 411 412 416 415
f 412 409 413 416
v 78.876 0.700 55.313
v 118.795 0.700 55.547
v 118.704 0.700 70.947
v 78.785 0.700 70.713
v 78.876 6.500 55.313
v 118.795 6.500 55.547
v 118.704 6.500 70.947
v 78.785 6.500 70.713
f 424 423 422 421
f 417 418 422 421
f 418 419 423 422
f 419 420 424 423
f 420 417 421 424
v 77.430 0.419 93.102
v 108.270 0.419 93.108
v 108.270 0.419 97.318
v 77.430 0.419 97.312
v 77.430 4.319 93.102
v 108.270 4.319 93.108
v 108.270 4.319 97.318
v 77.430 4.319 97.312
f 432 431 430 429
f 425 426 430 429
f 426 427 431 430
f 427 428 432 431
f 428 425 429 432
v 113.699 0.483 93.298
v 129.878 0.483 93.372
v 129.861 0.483 97.062
v 113.682 0.483 96.988
v 113.699 4.383 93.298
v 129.878 4.383 93.372
v 129.861 4.383 97.062
v 113.682 4.383 96.988
f 440 439 438 437
f 433 434 438 437
f 434 435 439 438
f 435 436 440 439
f 436 433 437 440
v -154.555 0.380 64.148
v -151.441 0.380 53.369
v -141.325 0.380 56.292
v -144.439 0.380 67.071
v -154.555 9.680 64.148
v -151.441 9.680 53.369
v -141.325 9.680 56.292
v -144.439 9.680 67.071
f 448 447 446 445
f 441 442 446 445
f 442 443 447 446
f 443 444 448 447
f 444 441 445 448
v -122.530 0.294 54.952
v -113.719 0.294 37.803
v -104.290 0.294 42.648
v -113.101 0.294 59.797
v -122.530 4.194 54.952
v -113.719 4.194 37.803
v -104.290 4.194 42.648
v -113.101 4.194 59.797
f 456 455 454 453
f 449 450 454 453
f 450 451 455 454
f 451 452 456 455
f 452 449 453 456
v 20.250 0.405 143.176
v 21.261 0.405 124.503
v 28.670 0.405 124.904
v 27.659 0.405 143.577
v 20.250 4.305 143.176
v 21.261 4.305 124.503
v 28.670 4.305 124.904
v 27.659 4.305 143.577
f 464 463 462 461
f 457 458 462 461
f 458 459 463 462
f 459 460 464 463
f 460 457 461 464
v 46.518 0.417 123.135
v 53.749 0.417 142.029
v 36.462 0.417 148.645
v 29.231 0.417 129.751
v 46.518 4.317 123.135
v 53.749 4.317 142.029
v 36.462 4.317 148.645
v 29.231 4.317 129.751
f 472 471 470 469
f 465 466 470 469
f 466 467 471 470
f 467 468 472 471
f 468 465 469 472
v 31.761 0.355 148.898
v 49.426 0.355 151.246
v 48.159 0.355 160.782
v 30.494 0.355 158.434
v 31.761 4.255 148.898
v 49.426 4.255 151.246
v 48.159 4.255 160.782
v 30.494 4.255 158.434
f 480 479 478 477
f 473 474 478 477
f 474 475 479 478
f 475 476 480 479
f 476 473 477 480
v 14.792 0.416 156.658
v 23.723 0.416 146.924
v 33.008 0.416 155.442
v 24.077 0.416 165.176
v 14.792 4.316 156.658
v 23.723 4.316 146.924
v 33.008 4.316 155.442
v 24.077 4.316 165.176
f 488 487 486 485
f 481 482 486 485
f 482 483 487 486
f 483 484 488 487
f 484 481 485 488
v 29.960 1.029 176.221
v 46.863 1.029 175.252
v 47.320 1.029 183.219
v 30.417 1.029 184.188
v 29.960 4.929 176.221
v 46.863 4.929 175.252
v 47.320 4.929 183.219
v 30.417 4.929 184.188
f 496 495 494 493
f 489 490 494 493
f 490 491 495 494
f 491 492 496 495
f 492 489 493 496
v -15.370 0.414 214.189
v 7.490 0.414 213.515
v 7.750 0.414 222.331
v -15.110 0.414 223.005
v -15.370 4.314 214.189
v 7.490 4.314 213.515
v 7.750 4.314 222.331
v -15.110 4.314 223.005
f 504 503 502 501
f 497 498 502 501
f 498 499 503 502
f 499 500 504 503
f 500 497 501 504
v -6.720 0.420 203.921
v 11.987 0.420 204.240
v 11.880 0.420 210.519
v -6.827 0.420 210.200
v -6.720 4.320 203.921
v 11.987 4.320 204.240
v 11.880 4.320 210.519
v -6.827 4.320 210.200
f 512 511 510 509
f 505 506 510 509
f 506 507 511 510
f 507 508 512 511
f 508 505 509 512
v -1.912 0.426 182.749
v 19.661 0.426 189.583
v 15.052 0.426 204.131
v -6.521 0.426 197.297
v -1.912 4.326 182.749
v 19.661 4.326 189.583
v 15.052 4.326 204.131
v -6.521 4.326 197.297
f 520 519 518 517
f 513 514 518 517
f 514 515 519 518
f 515 516 520 519
f 516 513 517 520
v 4.843 0.375 183.101
v 5.683 0.375 167.704
v 9.617 0.375 167.919
v 8.777 0.375 183.316
v 4.843 4.275 183.101
v 5.683 4.275 167.704
v 9.617 4.275 167.919
v 8.777 4.275 183.316
f 528 527 526 525
f 521 522 526 525
f 522 523 527 526
f 523 524 528 527
f 524 521 525 528
v -10.079 0.140 176.856
v 2.451 0.140 176.380
v 2.739 0.140 183.964
v -9.791 0.140 184.440
v -10.079 4.040 176.856
v 2.451 4.040 176.380
v 2.739 4.040 183.964
v -9.791 4.040 184.440
f 536 535 534 533
f 529 530 534 533
f 530 531 535 534
f 531 532 536 535
f 532 529 533 536
v -1.036 0.207 138.173
v 10.062 0.207 138.368
v 9.936 0.207 145.507
v -1.162 0.207 145.312
v -1.036 4.107 138.173
v 10.062 4.107 138.368
v 9.936 4.107 145.507
v -1.162 4.107 145.312
f 544 543 542 541
f 537 538 542 541
f 538 539 543 542
f 539 540 544 543
f 540 537 541 544
v -11.834 0.407 138.486
v 0.311 0.407 143.037
v -2.686 0.407 151.034
v -14.831 0.407 146.483
v -11.834 4.307 138.486
v 0.311 4.307 143.037
v -2.686 4.307 151.034
v -14.831 4.307 146.483
f 552 551 550 549
f 545 546 550 549
f 546 547 551 550
f 547 548 552 551
f 548 545 549 552
v -10.550 0.345 157.982
v 11.070 0.345 158.088
v 11.050 0.345 162.238
v -10.570 0.345 162.132
v -10.550 4.245 157.982
v 11.070 4.245 158.088
v 11.050 4.245 162.238
v -10.570 4.245 162.132
f 560 559 558 557
f 553 554 558 557
f 554 555 559 558
f 555 556 560 559
f 556 553 557 560
v -150.433 0.381 13.006
v -135.240 0.381 18.362
v -139.087 0.381 29.274
v -154.280 0.381 23.918
v -150.433 4.281 13.006
v -135.240 4.281 18.362
v -139.087 4.281 29.274
v -154.280 4.281 23.918
f 568 567 566 565
f 561 562 566 565
f 562 563 567 566
f 563 564 568 567
f 564 561 565 568
v -187.894 0.853 -11.593
v -163.729 0.853 -31.519
v -150.426 0.853 -15.387
v -174.591 0.853 4.539
v -187.894 7.653 -11.593
v -163.729 7.653 -31.519
v -150.426 7.653 -15.387
v -174.591 7.653 4.539
f 576 575 574 573
f 569 570 574 573
f 570 571 575 574
f 571 572 576 575
f 572 569 573 576
v -203.387 0.828 11.722
v -199.168 0.828 -0.352
v -192.673 0.828 1.918
v -196.892 0.828 13.992
v -203.387 4.728 11.722
v -199.168 4.728 -0.352
v -192.673 4.728 1.918
v -196.892 4.728 13.992
f 584 583 582 581
f 577 578 582 581
f 578 579 583 582
f 579 580 584 583
f 580 577 581 584
v -208.136 0.883 -15.444
v -187.667 0.883 -16.896
v -186.544 0.883 -1.076
v -207.013 0.883 0.376
v -208.136 7.683 -15.444
v -187.667 7.683 -16.896
v -186.544 7.683 -1.076
v -207.013 7.683 0.376
f 592 591 590 589
f 585 586 590 589
f 586 587 591 590
f 587 588 592 591
f 588 585 589 592
v -193.768 0.824 -244.654
v -179.919 0.824 -251.748
v -173.832 0.824 -239.866
v -187.681 0.824 -232.772
v -193.768 4.724 -244.654
v -179.919 4.724 -251.748
v -173.832 4.724 -239.866
v -187.681 4.724 -232.772
f 600 599 598 597
f 593 594 598 597
f 594 595 599 598
f 595 596 600 599
f 596 593 597 600
v -171.839 0.833 -231.561
v -163.824 0.833 -244.570
v -155.301 0.833 -239.319
v -163.316 0.833 -226.310
v -171.839 4.733 -231.561
v -163.824 4.733 -244.570
v -155.301 4.733 -239.319
v -163.316 4.733 -226.310
f 608 607 606 605
f 601 602 606 605
f 602 603 607 606
f 603 604 608 607
f 604 601 605 608
v -158.827 0.850 -239.202
v -151.142 0.850 -252.025
v -142.453 0.850 -246.818
v -150.138 0.850 -233.995
v -158.827 4.750 -239.202
v -151.142 4.750 -252.025
v -142.453 4.750 -246.818
v -150.138 4.750 -233.995
f 616 615 614 613
f 609 610 614 613
f 610 611 615 614
f 611 612 616 615
f 612 609 613 616
v -143.860 0.910 -247.205
v -135.948 0.910 -259.748
v -129.080 0.910 -255.415
v -136.992 0.910 -242.872
v -143.860 4.810 -247.205
v -135.948 4.810 -259.748
v -129.080 4.810 -255.415
v -136.992 4.810 -242.872
f 624 623 622 621
f 617 618 622 621
f 618 619 623 622
f 619 620 624 623
f 620 617 621 624
v -202.762 1.080 242.716
v -189.287 1.080 255.911
v -200.698 1.080 267.564
v -214.173 1.080 254.369
v -202.762 4.980 242.716
v -189.287 4.980 255.911
v -200.698 4.980 267.564
v -214.173 4.980 254.369
f 632 631 630 629
f 625 626 630 629
f 626 627 631 630
f 627 628 632 631
f 628 625 629 632
v -210.306 1.002 235.879
v -195.023 1.002 235.153
v -194.494 1.002 246.281
v -209.777 1.002 247.007
v -210.306 4.902 235.879
v -195.023 4.902 235.153
v -194.494 4.902 246.281
v -209.777 4.902 247.007
f 640 639 638 637
f 633 634 638 637
f 634 635 639 638
f 635 636 640 639
f 636 633 637 640
v -216.195 1.126 232.895
v -211.831 1.126 234.557
v -213.525 1.126 239.005
v -217.889 1.126 237.343
v -216.195 5.026 232.895
v -211.831 5.026 234.557
v -213.525 5.026 239.005
v -217.889 5.026 237.343
f 648 647 646 645
f 641 642 646 645
f 642 643 647 646
f 643 644 648 647
f 644 641 645 648
v -220.041 0.963 233.981
v -216.661 0.963 233.979
v -216.659 0.963 236.479
v -220.039 0.963 236.481
v -220.041 4.863 233.981
v -216.661 4.863 233.979
v -216.659 4.863 236.479
v -220.039 4.863 236.481
f 656 655 654 653
f 649 650 654 653
f 650 651 655 654
f 651 652 656 655
f 652 649 653 656
v -247.589 0.900 211.343
v -224.233 0.900 209.133
v -223.051 0.900 221.617
v -246.407 0.900 223.827
v -247.589 4.800 211.343
v -224.233 4.800 209.133
v -223.051 4.800 221.617
v -246.407 4.800 223.827
f 664 663 662 661
f 657 658 662 661
f 658 659 663 662
f 659 660 664 663
f 660 657 661 664
v -247.003 0.712 109.041
v -245.745 0.712 120.181
v -254.937 0.712 121.219
v -256.195 0.712 110.079
v -247.003 4.612 109.041
v -245.745 4.612 120.181
v -254.937 4.612 121.219
v -256.195 4.612 110.079
f 672 671 670 669
f 665 666 670 669
f 666 667 671 670
f 667 668 672 671
f 668 665 669 672
v -258.096 0.030 105.150
v -254.097 0.030 93.328
v -250.544 0.030 94.530
v -254.543 0.030 106.352
v -258.096 3.930 105.150
v -254.097 3.930 93.328
v -250.544 3.930 94.530
v -254.543 3.930 106.352
f 680 679 678 677
f 673 674 678 677
f 674 675 679 678
f 675 676 680 679
f 676 673 677 680
v -245.603 0.221 56.729
v -241.789 0.221 48.313
v -237.117 0.221 50.431
v -240.931 0.221 58.847
v -245.603 4.121 56.729
v -241.789 4.121 48.313
v -237.117 4.121 50.431
v -240.931 4.121 58.847
f 688 687 686 685
f 681 682 686 685
f 682 683 687 686
f 683 684 688 687
f 684 681 685 688
v -238.718 0.227 57.835
v -231.328 0.227 60.628
v -233.042 0.227 65.165
v -240.432 0.227 62.372
v -238.718 4.127 57.835
v -231.328 4.127 60.628
v -233.042 4.127 65.165
v -240.432 4.127 62.372
f 696 695 694 693
f 689 690 694 693
f 690 691 695 694
f 691 692 696 695
f 692 689 693 696
v -62.830 1.007 -56.156
v -40.468 1.007 -48.037
v -45.570 1.007 -33.984
v -67.932 1.007 -42.103
v -62.830 4.907 -56.156
v -40.468 4.907 -48.037
v -45.570 4.907 -33.984
v -67.932 4.907 -42.103
f 704 703 702 701
f 697 698 702 701
f 698 699 703 702
f 699 700 704 703
f 700 697 701 704
v 35.085 1.186 -106.516
v 59.371 1.186 -107.787
v 60.415 1.186 -87.824
v 36.129 1.186 -86.553
v 35.085 5.086 -106.516
v 59.371 5.086 -107.787
v 60.415 5.086 -87.824
v 36.129 5.086 -86.553
f 712 711 710 709
f 705 706 710 709
f 706 707 711 710
f 707 708 712 711
f 708 705 709 712
v 67.495 1.139 -123.668
v 99.038 1.139 -110.529
v 92.525 1.139 -94.892
v 60.982 1.139 -108.031
v 67.495 6.939 -123.668
v 99.038 6.939 -110.529
v 92.525 6.939 -94.892
v 60.982 6.939 -108.031
f 720 719 718 717
f 713 714 718 717
f 714 715 719 718
f 715 716 720 719
f 716 713 717 720
usemtl road
v 140.573 0.834 252.830
v 74.151 0.844 253.250
v 74.186 0.766 258.750
v 140.607 0.812 258.330
f 721 722 723 724
v -255.101 0.646 44.800
v -199.701 0.922 25.639
v -201.499 0.966 20.441
v -256.899 0.750 39.602
f 725 726 727 728
v -199.669 0.922 25.628
v -192.329 0.764 22.988
v -194.191 0.872 17.812
v -201.531 0.966 20.452
f 729 730 731 732
v -192.331 0.764 22.988
v -168.361 0.751 14.388
v -170.219 0.772 9.212
v -194.189 0.872 17.812
f 733 734 735 736
v -168.361 0.751 14.388
v -145.171 0.813 6.068
v -147.029 0.743 0.892
v -170.219 0.772 9.212
f 737 738 739 740
v -145.168 0.813 6.067
v -138.948 0.749 3.827
v -140.812 0.713 -1.347
v -147.032 0.742 0.893
f 741 742 743 744
v -138.951 0.749 3.828
v -113.831 0.739 -5.192
v -115.689 0.759 -10.368
v -140.809 0.713 -1.348
f 745 746 747 748
v -113.831 0.739 -5.192
v -95.351 0.704 -11.822
v -97.209 0.716 -16.998
v -115.689 0.759 -10.368
f 749 750 751 752
v -95.350 0.704 -11.822
v -64.250 0.711 -22.992
v -66.110 0.777 -28.168
v -97.210 0.716 -16.998
f 753 754 755 756
v -64.249 0.711 -22.992
v -58.299 0.732 -25.132
v -60.161 0.796 -30.308
v -66.111 0.777 -28.168
f 757 758 759 760
v -58.302 0.732 -25.131
v -31.502 0.730 -34.741
v -33.358 0.827 -39.919
v -60.158 0.796 -30.309
f 761 762 763 764
v 62.091 0.573 118.617
v 59.231 0.713 128.377
v 64.509 0.615 129.923
v 67.369 0.497 120.163
f 765 766 767 768
v 59.121 0.721 129.211
v 61.929 0.827 256.061
v 67.428 0.823 255.939
v 64.619 0.594 129.089
f 769 770 771 772
v 136.366 0.660 -78.754
v 136.856 0.615 -70.024
v 143.844 0.636 -70.416
v 143.354 0.677 -79.146
f 773 774 775 776
v 136.850 0.613 -70.217
v 136.860 0.641 -56.667
v 143.860 0.755 -56.673
v 143.850 0.640 -70.223
f 777 778 779 780
v 136.860 0.641 -56.688
v 136.710 0.617 -27.708
v 143.710 0.627 -27.672
v 143.860 0.755 -56.652
f 781 782 783 784
v 136.710 0.617 -27.709
v 136.590 0.661 -5.399
v 143.590 0.610 -5.361
v 143.710 0.627 -27.671
f 785 786 787 788
v 136.590 0.661 -5.398
v 136.190 0.793 71.912
v 143.190 0.751 71.948
v 143.590 0.610 -5.362
f 789 790 791 792
v 136.190 0.793 71.912
v 135.990 0.831 111.282
v 142.990 0.874 111.318
v 143.190 0.751 71.948
f 793 794 795 796
v 135.990 0.831 111.327
v 137.090 0.828 255.607
v 144.090 0.714 255.553
v 142.990 0.874 111.273
f 797 798 799 800
v -218.711 1.277 -20.066
v -211.621 1.247 -22.536
v -215.239 1.531 -32.924
v -222.329 1.515 -30.454
f 801 802 803 804
v -211.676 1.247 -22.517
v -160.736 1.248 -39.657
v -164.244 1.567 -50.083
v -215.184 1.531 -32.943
f 805 806 807 808
v -160.652 1.248 -39.686
v -118.012 1.076 -54.806
v -121.688 1.445 -65.174
v -164.328 1.569 -50.054
f 809 810 811 812
v -118.010 1.076 -54.807
v -94.370 1.166 -63.197
v -98.050 1.487 -73.563
v -121.690 1.445 -65.173
f 813 814 815 816
v -94.369 1.166 -63.197
v -75.199 1.219 -70.007
v -78.881 1.529 -80.373
v -98.051 1.487 -73.563
f 817 818 819 820
v -77.071 1.246 -71.690
v -67.961 1.198 -71.610
v -67.899 1.389 -78.610
v -77.009 1.449 -78.690
f 821 822 823 824
v -67.964 1.198 -71.610
v -62.784 1.192 -71.560
v -62.716 1.354 -78.560
v -67.896 1.389 -78.610
f 825 826 827 828
v -62.919 1.192 -71.564
v -55.279 1.293 -71.194
v -54.941 1.334 -78.186
v -62.581 1.354 -78.556
f 829 830 831 832
v -55.156 1.295 -71.190
v -46.866 1.191 -71.080
v -46.774 1.393 -78.080
v -55.064 1.333 -78.190
f 833 834 835 836
v -46.867 1.191 -71.080
v -34.937 1.113 -70.920
v -34.843 1.444 -77.920
v -46.773 1.393 -78.080
f 837 838 839 840
v -34.937 1.113 -70.920
v -17.787 1.170 -70.690
v -17.693 1.186 -77.690
v -34.843 1.444 -77.920
f 841 842 843 844
v -16.650 1.164 -70.864
v -3.260 1.033 -75.254
v -5.440 1.059 -81.906
v -18.830 1.215 -77.516
f 845 846 847 848
v -3.539 1.050 -81.985
v -16.309 1.114 -85.025
v -17.931 1.198 -78.215
v -5.161 1.043 -75.175
f 849 850 851 852
v -16.234 1.113 -85.006
v -20.554 1.234 -86.136
v -22.326 1.292 -79.364
v -18.006 1.200 -78.234
f 853 854 855 856
v -20.024 1.215 -85.951
v -23.414 1.332 -87.451
v -26.246 1.318 -81.049
v -22.856 1.297 -79.549
f 857 858 859 860
v -23.045 1.322 -87.261
v -27.785 1.405 -90.071
v -31.355 1.369 -84.049
v -26.615 1.324 -81.239
f 861 862 863 864
v -27.321 1.398 -89.742
v -31.411 1.455 -93.172
v -35.909 1.393 -87.808
v -31.819 1.374 -84.378
f 865 866 867 868
v 255.994 0.559 -82.639
v 234.364 0.510 -82.600
v 234.376 0.488 -75.600
v 256.006 0.531 -75.639
f 869 870 871 872
v 234.357 0.510 -82.600
v 226.547 0.507 -82.570
v 226.573 0.484 -75.570
v 234.383 0.488 -75.600
f 873 874 875 876
v 226.544 0.507 -82.570
v 192.244 0.464 -82.410
v 192.276 0.440 -75.410
v 226.576 0.484 -75.570
f 877 878 879 880
v 192.244 0.464 -82.410
v 150.594 0.604 -82.220
v 150.626 0.573 -75.220
v 192.276 0.440 -75.410
f 881 882 883 884
v 150.685 0.604 -82.219
v 139.935 0.633 -82.449
v 139.785 0.586 -75.451
v 150.535 0.574 -75.221
f 885 886 887 888
v 139.860 0.634 -82.450
v 132.670 0.647 -82.450
v 132.670 0.630 -75.450
v 139.860 0.586 -75.450
f 889 890 891 892
v 132.660 0.647 -82.450
v 89.190 0.789 -82.330
v 89.210 0.761 -75.330
v 132.680 0.630 -75.450
f 893 894 895 896
v 89.193 0.789 -82.330
v 69.253 0.834 -82.290
v 69.267 0.828 -75.290
v 89.207 0.761 -75.330
f 897 898 899 900
v 69.250 0.834 -82.290
v -4.360 1.050 -82.080
v -4.340 1.037 -75.080
v 69.270 0.828 -75.290
f 901 902 903 904
v -255.661 0.829 205.259
v -177.281 1.225 195.509
v -177.959 1.403 190.051
v -256.339 0.752 199.801
f 905 906 907 908
v 66.854 0.482 121.137
v 71.944 0.466 114.947
v 67.696 0.502 111.453
v 62.606 0.556 117.643
f 909 910 911 912
v 69.862 0.475 115.950
v 132.692 0.667 115.000
v 132.608 0.655 109.500
v 69.778 0.509 110.450
f 913 914 915 916
v 133.028 0.689 114.974
v 139.868 0.889 114.024
v 139.112 0.891 108.576
v 132.272 0.635 109.526
f 917 918 919 920
v 139.871 0.889 114.024
v 147.741 0.834 112.924
v 146.979 0.845 107.476
v 139.109 0.891 108.576
f 921 922 923 924
v 147.360 0.837 112.950
v 245.500 0.840 112.960
v 245.500 0.901 107.460
v 147.360 0.844 107.450
f 925 926 927 928
v 245.500 0.840 112.960
v 256.000 0.834 112.960
v 256.000 0.906 107.460
v 245.500 0.901 107.460
f 929 930 931 932
v -43.382 1.216 -104.703
v -124.012 1.131 -76.573
v -120.388 1.433 -66.187
v -39.758 1.441 -94.317
f 933 934 935 936
v -170.933 0.834 12.404
v -157.863 0.635 47.974
v -154.577 0.668 46.766
v -167.647 0.840 11.196
f 937 938 939 940
v -157.967 0.639 47.272
v -158.537 0.679 57.412
v -155.043 0.748 57.608
v -154.473 0.667 47.468
f 941 942 943 944
v -158.493 0.680 57.913
v -154.263 0.508 75.793
v -150.857 0.516 74.987
v -155.087 0.742 57.107
f 945 946 947 948
v -151.800 0.487 76.966
v -119.710 0.364 61.486
v -121.230 0.455 58.334
v -153.320 0.555 73.814
f 949 950 951 952
v -141.548 0.770 1.770
v -138.918 0.808 10.040
v -135.582 0.758 8.980
v -138.212 0.734 0.710
f 953 954 955 956
v -138.821 0.807 10.282
v -124.321 0.661 39.792
v -121.179 0.622 38.248
v -135.679 0.763 8.738
f 957 958 959 960
v -116.401 0.777 -7.173
v -103.331 0.715 28.187
v -100.049 0.619 26.973
v -113.119 0.765 -8.387
f 961 962 963 964
v -97.808 0.725 -13.558
v -89.868 0.602 0.682
v -86.812 0.606 -1.022
v -94.752 0.740 -15.262
f 965 966 967 968
v -89.740 0.601 0.881
v -72.280 0.480 24.141
v -69.480 0.484 22.039
v -86.940 0.606 -1.221
f 969 970 971 972
v -72.554 0.489 23.601
v -67.914 0.454 38.791
v -64.566 0.438 37.769
v -69.206 0.480 22.579
f 973 974 975 976
v -60.643 0.772 -26.687
v -55.323 0.740 -19.407
v -52.497 0.705 -21.473
v -57.817 0.803 -28.753
f 977 978 979 980
v -55.567 0.741 -19.878
v -39.877 0.496 26.392
v -36.563 0.519 25.268
v -52.253 0.694 -21.002
f 981 982 983 984
v 135.481 1.345 -162.782
v 135.211 1.392 -151.302
v 142.209 1.370 -151.138
v 142.479 1.395 -162.618
f 985 986 987 988
v 231.394 2.286 -44.442
v 234.314 1.368 -56.932
v 230.906 1.335 -57.728
v 227.986 2.124 -45.238
f 989 990 991 992
v 230.549 2.179 -36.707
v 231.429 2.282 -44.647
v 227.951 2.140 -45.033
v 227.071 2.178 -37.093
f 993 994 995 996
v 140.373 0.682 -54.920
v 232.623 1.415 -55.580
v 232.597 1.285 -59.080
v 140.347 0.675 -58.420
f 997 998 999 1000
v 234.303 1.370 -56.888
v 235.873 1.379 -62.908
v 232.487 1.306 -63.792
v 230.917 1.334 -57.772
f 1001 1002 1003 1004
v 235.930 1.377 -63.328
v 236.020 0.661 -70.598
v 232.520 0.628 -70.642
v 232.430 1.318 -63.372
f 1005 1006 1007 1008
v 236.020 0.661 -70.599
v 236.120 0.561 -79.079
v 232.620 0.562 -79.121
v 232.520 0.628 -70.641
f 1009 1010 1011 1012
v 239.771 1.430 -28.761
v 233.391 1.740 -30.751
v 232.349 1.772 -27.409
v 238.729 1.410 -25.419
f 1013 1014 1015 1016
v 234.051 1.711 -30.372
v 230.331 1.946 -33.772
v 227.969 1.860 -31.188
v 231.689 1.792 -27.788
f 1017 1018 1019 1020
v 230.875 1.857 -32.777
v 230.455 2.070 -35.217
v 227.005 2.049 -34.623
v 227.425 1.912 -32.183
f 1021 1022 1023 1024
v 230.479 2.041 -34.849
v 230.559 2.188 -36.829
v 227.061 2.173 -36.971
v 226.981 2.071 -34.991
f 1025 1026 1027 1028
v 140.253 0.641 -25.941
v 192.403 1.406 -27.221
v 192.317 1.451 -30.719
v 140.167 0.654 -29.439
f 1029 1030 1031 1032
v 192.592 1.408 -27.235
v 210.472 1.531 -29.625
v 210.008 1.543 -33.095
v 192.128 1.450 -30.705
f 1033 1034 1035 1036
v 210.585 1.533 -29.644
v 219.425 1.831 -31.424
v 218.735 1.822 -34.856
v 209.895 1.542 -33.076
f 1037 1038 1039 1040
v 219.032 1.818 -31.391
v 224.862 1.918 -31.231
v 224.958 2.057 -34.729
v 219.128 1.840 -34.889
f 1041 1042 1043 1044
v 224.705 1.918 -31.242
v 228.945 1.829 -30.742
v 229.355 1.994 -34.218
v 225.115 2.057 -34.718
f 1045 1046 1047 1048
v 139.673 0.813 70.180
v 122.903 0.880 70.340
v 122.937 0.890 73.840
v 139.707 0.822 73.680
f 1049 1050 1051 1052
v 122.904 0.880 70.340
v 76.584 0.955 70.760
v 76.616 0.950 74.260
v 122.936 0.890 73.840
f 1053 1054 1055 1056
v 77.779 0.942 90.894
v 78.349 0.936 72.564
v 74.851 0.944 72.456
v 74.281 0.927 90.786
f 1057 1058 1059 1060
v 78.350 0.936 72.537
v 78.680 0.910 51.477
v 75.180 0.869 51.423
v 74.850 0.943 72.483
f 1061 1062 1063 1064
v 78.680 0.910 51.477
v 78.960 0.689 33.537
v 75.460 0.625 33.483
v 75.180 0.869 51.423
f 1065 1066 1067 1068
v 77.184 0.676 35.260
v 123.094 0.730 35.930
v 123.146 0.723 32.430
v 77.236 0.643 31.760
f 1069 1070 1071 1072
v 121.370 0.762 34.171
v 121.280 0.810 51.911
v 124.780 0.790 51.929
v 124.870 0.700 34.189
f 1073 1074 1075 1076
v 121.280 0.810 51.910
v 121.170 0.918 72.080
v 124.670 0.844 72.100
v 124.780 0.790 51.930
f 1077 1078 1079 1080
v 121.170 0.918 72.080
v 121.060 0.903 91.730
v 124.560 0.853 91.750
v 124.670 0.844 72.100
f 1081 1082 1083 1084
v 122.844 0.867 89.990
v 76.064 0.967 89.090
v 75.996 0.922 92.590
v 122.776 0.899 93.490
f 1085 1086 1087 1088
v 76.912 0.920 53.200
v 123.012 0.808 53.670
v 123.048 0.790 50.170
v 76.948 0.876 49.700
f 1089 1090 1091 1092
v 17.390 1.189 -15.546
v 18.000 1.143 -60.066
v 14.500 1.168 -60.114
v 13.890 1.218 -15.594
f 1093 1094 1095 1096
v 16.249 1.175 -58.340
v 91.959 1.283 -58.300
v 91.961 1.231 -61.800
v 16.251 1.124 -61.840
f 1097 1098 1099 1100
v 90.210 1.257 -60.033
v 90.670 1.305 -11.873
v 94.170 1.282 -11.907
v 93.710 1.275 -60.067
f 1101 1102 1103 1104
v 90.670 1.305 -11.859
v 90.780 1.330 -5.689
v 94.280 1.315 -5.751
v 94.170 1.282 -11.921
f 1105 1106 1107 1108
v 140.070 0.673 -7.130
v 97.360 1.282 -6.630
v 97.400 1.341 -3.130
v 140.110 0.681 -3.630
f 1109 1110 1111 1112
v 97.679 1.281 -6.604
v 92.829 1.304 -7.444
v 92.231 1.390 -3.996
v 97.081 1.351 -3.156
f 1113 1114 1115 1116
v 92.770 1.304 -7.453
v 21.960 1.177 -17.273
v 21.480 1.204 -13.807
v 92.290 1.390 -3.987
f 1117 1118 1119 1120
v 21.729 1.175 -17.290
v 15.649 1.192 -17.320
v 15.631 1.239 -13.820
v 21.711 1.206 -13.790
f 1121 1122 1123 1124
v -213.709 1.031 -16.968
v -217.239 1.431 -26.478
v -223.801 1.416 -24.042
v -220.271 1.091 -14.532
f 1125 1126 1127 1128
v -173.409 1.207 -59.384
v -219.859 1.292 -43.204
v -216.241 1.530 -32.816
v -169.791 1.605 -48.996
f 1129 1130 1131 1132
v -219.804 1.292 -43.223
v -226.254 1.225 -41.053
v -222.746 1.518 -30.627
v -216.296 1.529 -32.797
f 1133 1134 1135 1136
v -75.211 1.220 -70.003
v -31.831 1.372 -85.303
v -35.489 1.444 -95.677
v -78.869 1.529 -80.377
f 1137 1138 1139 1140
v -164.107 1.349 -44.201
v -159.337 1.119 -32.681
v -156.103 1.147 -34.019
v -160.873 1.341 -45.539
f 1141 1142 1143 1144
v -159.163 1.113 -32.360
v -153.893 1.249 -24.680
v -151.007 1.323 -26.660
v -156.277 1.152 -34.340
f 1145 1146 1147 1148
v -154.138 1.244 -25.210
v -148.578 0.915 -4.800
v -145.202 1.003 -5.720
v -150.762 1.330 -26.130
f 1149 1150 1151 1152
v -148.633 0.926 -5.102
v -147.843 0.809 3.638
v -144.357 0.809 3.322
v -145.147 0.990 -5.418
f 1153 1154 1155 1156
v 194.010 0.492 -78.889
v 194.730 1.167 -138.489
v 191.230 1.084 -138.531
v 190.510 0.502 -78.931
f 1157 1158 1159 1160
v 194.210 1.135 -139.755
v 189.310 0.935 -144.595
v 186.850 1.027 -142.105
v 191.750 1.102 -137.265
f 1161 1162 1163 1164
v 188.358 0.952 -145.078
v 180.018 1.047 -146.418
v 179.462 1.044 -142.962
v 187.802 1.022 -141.622
f 1165 1166 1167 1168
v 179.198 1.032 -146.354
v 169.838 0.983 -143.304
v 170.922 1.070 -139.976
v 180.282 1.045 -143.026
f 1169 1170 1171 1172
v 169.425 0.993 -143.106
v 160.755 1.030 -137.456
v 162.665 0.992 -134.524
v 171.335 1.061 -140.174
f 1173 1174 1175 1176
v 159.960 1.008 -135.955
v 160.510 0.893 -108.155
v 164.010 0.929 -108.225
v 163.460 1.028 -136.025
f 1177 1178 1179 1180
v 160.762 0.921 -109.094
v 157.522 0.749 -103.724
v 160.518 0.637 -101.916
v 163.758 0.897 -107.286
f 1181 1182 1183 1184
v 159.265 0.750 -104.553
v 149.725 0.858 -105.903
v 149.235 0.775 -102.437
v 158.775 0.668 -101.087
f 1185 1186 1187 1188
v 149.762 0.859 -105.897
v 138.932 0.942 -107.667
v 138.368 0.917 -104.213
v 149.198 0.775 -102.443
f 1189 1190 1191 1192
v -34.096 0.759 -36.796
v -30.746 0.681 -26.346
v -27.414 0.677 -27.414
v -30.764 0.764 -37.864
f 1193 1194 1195 1196
v -30.809 0.684 -26.609
v -28.179 0.609 -9.859
v -24.721 0.593 -10.401
v -27.351 0.674 -27.151
f 1197 1198 1199 1200
v -194.903 0.879 21.003
v -181.033 0.693 58.813
v -177.747 0.628 57.607
v -191.617 0.836 19.797
f 1201 1202 1203 1204
v 243.751 0.921 110.275
v 244.111 0.722 120.025
v 247.609 0.723 119.895
v 247.249 0.921 110.145
f 1205 1206 1207 1208
v 244.110 0.722 119.992
v 244.270 0.802 128.722
v 247.770 0.818 128.658
v 247.610 0.723 119.928
f 1209 1210 1211 1212
v 246.089 0.827 130.439
v 256.069 0.821 130.043
v 255.931 0.820 126.546
v 245.951 0.780 126.941
f 1213 1214 1215 1216
v 228.298 0.558 -78.867
v 230.038 0.925 -93.737
v 226.562 0.934 -94.143
v 224.822 0.558 -79.273
f 1217 1218 1219 1220
v 229.909 0.900 -93.251
v 232.389 1.017 -99.041
v 229.171 1.031 -100.419
v 226.691 0.965 -94.629
f 1221 1222 1223 1224
v 232.215 1.019 -98.728
v 234.835 1.056 -102.478
v 231.965 1.025 -104.482
v 229.345 1.029 -100.732
f 1225 1226 1227 1228
v 235.150 1.067 -103.456
v 235.290 1.077 -113.736
v 231.790 1.054 -113.784
v 231.650 1.018 -103.504
f 1229 1230 1231 1232
v 235.289 1.078 -113.824
v 234.049 1.112 -147.644
v 230.551 1.056 -147.516
v 231.791 1.053 -113.696
f 1233 1234 1235 1236
v 233.959 1.113 -147.024
v 235.479 1.115 -151.564
v 232.161 1.028 -152.676
v 230.641 1.047 -148.136
f 1237 1238 1239 1240
v 234.859 1.101 -150.712
v 238.979 1.135 -153.752
v 236.901 1.066 -156.568
v 232.781 1.033 -153.528
f 1241 1242 1243 1244
v 238.431 1.133 -153.480
v 256.491 1.142 -158.759
v 255.509 1.094 -162.118
v 237.449 1.067 -156.840
f 1245 1246 1247 1248
v 98.944 1.287 -137.060
v 104.364 1.132 -126.180
v 107.496 1.204 -127.740
v 102.076 1.300 -138.620
f 1249 1250 1251 1252
v 105.098 1.142 -125.420
v 110.928 1.232 -122.270
v 112.592 1.384 -125.350
v 106.762 1.214 -128.500
f 1253 1254 1255 1256
v 110.010 1.213 -123.804
v 110.060 1.105 -108.544
v 113.560 1.208 -108.556
v 113.510 1.463 -123.816
f 1257 1258 1259 1260
v 110.352 1.126 -107.582
v 111.972 1.145 -105.142
v 114.888 1.139 -107.078
v 113.268 1.237 -109.518
f 1261 1262 1263 1264
v 111.966 1.146 -105.152
v 117.556 0.896 -96.612
v 120.484 0.913 -98.528
v 114.894 1.138 -107.068
f 1265 1266 1267 1268
v 118.987 0.886 -95.820
v 138.607 0.785 -95.450
v 138.673 0.871 -98.950
v 119.053 0.923 -99.320
f 1269 1270 1271 1272
v 137.160 1.220 -167.890
v -27.680 1.239 -110.100
v -24.040 1.495 -99.720
v 140.800 1.419 -157.510
f 1273 1274 1275 1276
v -27.648 1.239 -110.111
v -43.358 1.216 -104.711
v -39.782 1.441 -94.309
v -24.072 1.495 -99.709
f 1277 1278 1279 1280
v 239.844 1.529 -203.359
v 137.184 1.220 -167.899
v 140.776 1.419 -157.501
v 243.436 1.541 -192.961
f 1281 1282 1283 1284
v 65.770 1.241 -119.753
v 102.340 1.198 -132.653
v 98.680 1.502 -143.027
v 62.110 1.486 -130.127
f 1285 1286 1287 1288
v 102.328 1.198 -132.649
v 140.528 1.258 -146.029
v 136.892 1.403 -156.411
v 98.692 1.502 -143.031
f 1289 1290 1291 1292
v -124.008 1.131 -76.574
v -173.408 1.207 -59.384
v -169.792 1.605 -48.996
v -120.392 1.433 -66.186
f 1293 1294 1295 1296
v -254.226 1.111 -7.960
v -218.746 1.277 -20.054
v -222.294 1.515 -30.466
v -257.774 1.564 -18.372
f 1297 1298 1299 1300
v -217.244 1.432 -26.492
v -221.224 1.453 -37.072
v -227.776 1.443 -34.608
v -223.796 1.416 -24.028
f 1301 1302 1303 1304
v -31.029 1.452 -92.798
v -38.939 1.366 -101.818
v -44.201 1.427 -97.202
v -36.291 1.399 -88.182
f 1305 1306 1307 1308
v -31.715 1.372 -85.346
v -19.735 1.399 -89.876
v -23.625 1.497 -100.164
v -35.605 1.444 -95.634
f 1309 1310 1311 1312
v -19.864 1.400 -89.829
v 56.876 1.250 -116.679
v 53.244 1.520 -127.061
v -23.496 1.498 -100.211
f 1313 1314 1315 1316
v 56.857 1.250 -116.672
v 65.737 1.241 -119.742
v 62.143 1.486 -130.138
v 53.263 1.520 -127.068
f 1317 1318 1319 1320
v 135.210 1.392 -151.260
v 135.110 1.204 -142.610
v 142.110 1.210 -142.530
v 142.210 1.371 -151.180
f 1321 1322 1323 1324
v 135.110 1.203 -142.566
v 135.150 0.904 -105.936
v 142.150 0.897 -105.944
v 142.110 1.210 -142.574
f 1325 1326 1327 1328
v 135.150 0.904 -105.944
v 135.140 0.784 -97.204
v 142.140 0.703 -97.196
v 142.150 0.897 -105.936
f 1329 1330 1331 1332
v 135.140 0.783 -97.144
v 135.300 0.609 -87.184
v 142.300 0.618 -87.296
v 142.140 0.696 -97.256
f 1333 1334 1335 1336
v 135.328 0.607 -86.796
v 136.388 0.654 -78.506
v 143.332 0.676 -79.394
v 142.272 0.625 -87.684
f 1337 1338 1339 1340
v 140.469 1.258 -146.009
v 240.249 1.489 -179.679
v 236.731 1.578 -190.101
v 136.951 1.403 -156.431
f 1341 1342 1343 1344
v -181.899 0.714 69.616
v -197.269 0.888 21.966
v -203.931 1.007 24.114
v -188.561 0.912 71.764
f 1345 1346 1347 1348
v -197.376 0.894 21.678
v -213.766 1.037 -17.112
v -220.214 1.086 -14.388
v -203.824 1.006 24.402
f 1349 1350 1351 1352
v -174.121 0.448 192.683
v -176.131 0.837 120.323
v -183.129 1.336 120.517
v -181.119 1.549 192.877
f 1353 1354 1355 1356
v -176.138 0.839 120.180
v -177.848 0.839 95.320
v -184.832 1.005 95.800
v -183.122 1.338 120.660
f 1357 1358 1359 1360
v -177.882 0.842 95.019
v -181.772 0.714 70.149
v -188.688 0.913 71.231
v -184.798 1.006 96.101
f 1361 1362 1363 1364
v -66.139 1.218 -59.151
v -35.879 1.216 -60.201
v -36.001 1.183 -63.699
v -66.261 1.191 -62.649
f 1365 1366 1367 1368
v -69.680 1.306 -75.075
v -69.560 1.187 -69.125
v -66.060 1.191 -69.195
v -66.180 1.287 -75.145
f 1369 1370 1371 1372
v -69.528 1.186 -68.825
v -67.918 1.207 -60.565
v -64.482 1.203 -61.235
v -66.092 1.190 -69.495
f 1373 1374 1375 1376
v -34.204 1.215 -61.731
v -33.184 1.122 -69.831
v -36.656 1.114 -70.269
v -37.676 1.199 -62.169
f 1377 1378 1379 1380
v -33.170 1.121 -70.038
v -33.140 1.148 -74.408
v -36.640 1.162 -74.432
v -36.670 1.113 -70.062
f 1381 1382 1383 1384
v -30.747 0.763 -37.808
v -33.517 1.079 -47.558
v -36.883 1.037 -46.602
v -34.113 0.760 -36.852
f 1385 1386 1387 1388
v -33.450 1.061 -47.075
v -33.440 1.160 -50.305
v -36.940 1.180 -50.315
v -36.950 1.059 -47.085
f 1389 1390 1391 1392
v -33.444 1.162 -50.423
v -34.194 1.212 -62.063
v -37.686 1.202 -61.837
v -36.936 1.177 -50.197
f 1393 1394 1395 1396
v -67.746 1.198 -61.720
v -71.746 1.233 -54.180
v -68.654 1.260 -52.540
v -64.654 1.213 -60.080
f 1397 1398 1399 1400
v -71.851 1.235 -53.941
v -73.451 1.258 -49.391
v -70.149 1.324 -48.229
v -68.549 1.257 -52.779
f 1401 1402 1403 1404
v -73.479 1.256 -48.317
v -70.669 1.149 -38.737
v -67.311 1.213 -39.723
v -70.121 1.314 -49.303
f 1405 1406 1407 1408
v -70.676 1.149 -38.760
v -66.866 0.742 -25.110
v -63.494 0.755 -26.050
v -67.304 1.212 -39.700
f 1409 1410 1411 1412
v -97.845 1.307 -67.756
v -94.625 1.105 -59.326
v -91.355 1.071 -60.574
v -94.575 1.315 -69.004
f 1413 1414 1415 1416
v -94.665 1.106 -59.445
v -92.265 1.189 -51.485
v -88.915 1.150 -52.495
v -91.315 1.070 -60.455
f 1417 1418 1419 1420
v -92.266 1.189 -51.487
v -90.656 1.285 -46.117
v -87.304 1.256 -47.123
v -88.914 1.150 -52.493
f 1421 1422 1423 1424
v -90.656 1.285 -46.116
v -88.836 1.382 -40.066
v -85.484 1.407 -41.074
v -87.304 1.256 -47.124
f 1425 1426 1427 1428
v -121.508 1.264 -59.430
v -118.638 1.032 -50.940
v -115.322 1.050 -52.060
v -118.192 1.272 -60.550
f 1429 1430 1431 1432
v -118.543 1.035 -50.714
v -115.223 1.217 -44.114
v -112.097 1.213 -45.686
v -115.417 1.048 -52.286
f 1433 1434 1435 1436
v -115.222 1.217 -44.112
v -112.992 1.331 -39.692
v -109.868 1.323 -41.268
v -112.098 1.213 -45.688
f 1437 1438 1439 1440
v -112.797 1.334 -39.387
v -111.797 1.345 -38.137
v -109.063 1.337 -40.323
v -110.063 1.317 -41.573
f 1441 1442 1443 1444
v -111.792 1.345 -38.131
v -108.872 1.403 -34.511
v -106.148 1.393 -36.709
v -109.068 1.337 -40.329
f 1445 1446 1447 1448
v -108.137 1.422 -33.976
v -104.567 1.559 -32.606
v -103.313 1.453 -35.874
v -106.883 1.381 -37.244
f 1449 1450 1451 1452
v -103.322 1.620 -32.603
v -86.542 1.417 -38.933
v -87.778 1.337 -42.207
v -104.558 1.429 -35.877
f 1453 1454 1455 1456
v -106.451 1.326 -44.835
v -94.951 1.264 -48.555
v -96.029 1.215 -51.885
v -107.529 1.272 -48.165
f 1457 1458 1459 1460
v -104.554 1.369 -39.541
v -93.094 1.349 -43.381
v -94.206 1.294 -46.699
v -105.666 1.342 -42.859
f 1461 1462 1463 1464
v -113.252 1.265 -43.198
v -106.582 1.323 -44.798
v -107.398 1.277 -48.202
v -114.068 1.163 -46.602
f 1465 1466 1467 1468
v -94.895 1.263 -48.574
v -89.995 1.203 -50.344
v -91.185 1.134 -53.636
v -96.085 1.217 -51.866
f 1469 1470 1471 1472
v -93.089 1.349 -43.382
v -88.419 1.294 -44.962
v -89.541 1.244 -48.278
v -94.211 1.294 -46.698
f 1473 1474 1475 1476
v -109.822 1.345 -37.589
v -104.502 1.370 -39.559
v -105.718 1.341 -42.841
v -111.038 1.321 -40.871
f 1477 1478 1479 1480
v 90.947 0.817 -78.932
v 90.457 0.818 -87.352
v 86.963 0.813 -87.148
v 87.453 0.822 -78.728
f 1481 1482 1483 1484
v 90.452 0.822 -87.413
v 89.972 1.005 -92.543
v 86.488 1.022 -92.217
v 86.968 0.810 -87.087
f 1485 1486 1487 1488
v 87.943 1.056 -94.106
v 66.293 1.153 -90.506
v 66.867 0.870 -87.054
v 88.517 0.969 -90.654
f 1489 1490 1491 1492
v 64.906 0.989 -88.271
v 65.356 0.867 -86.791
v 68.704 0.919 -87.809
v 68.254 1.038 -89.289
f 1493 1494 1495 1496
v 65.337 0.868 -86.856
v 67.567 0.873 -78.346
v 70.953 0.868 -79.234
v 68.723 0.914 -87.744
f 1497 1498 1499 1500
v 68.233 1.043 -89.355
v 56.713 1.300 -122.445
v 53.407 1.316 -121.295
v 64.927 0.983 -88.205
f 1501 1502 1503 1504
usemtl asphalt
