# Baked ultra-low Key West silhouette; generated by bake_key_west_far_city.py
mtllib far_city.mtl
usemtl massing
v -113.974 1.031 58.017
v -101.242 1.031 64.701
v -105.086 1.031 72.023
v -117.818 1.031 65.339
v -113.974 4.931 58.017
v -101.242 4.931 64.701
v -105.086 4.931 72.023
v -117.818 4.931 65.339
f 8 7 6 5
f 1 2 6 5
f 2 3 7 6
f 3 4 8 7
f 4 1 5 8
v -120.128 1.046 46.798
v -106.866 1.046 50.757
v -109.632 1.046 60.022
v -122.894 1.046 56.063
v -120.128 4.946 46.798
v -106.866 4.946 50.757
v -109.632 4.946 60.022
v -122.894 4.946 56.063
f 16 15 14 13
f 9 10 14 13
f 10 11 15 14
f 11 12 16 15
f 12 9 13 16
v -90.795 0.863 21.070
v -83.066 0.863 32.406
v -89.965 0.863 37.110
v -97.694 0.863 25.774
v -90.795 4.763 21.070
v -83.066 4.763 32.406
v -89.965 4.763 37.110
v -97.694 4.763 25.774
f 24 23 22 21
f 17 18 22 21
f 18 19 23 22
f 19 20 24 23
f 20 17 21 24
v -112.127 0.888 15.477
v -99.595 0.888 9.349
v -95.853 0.888 17.003
v -108.385 0.888 23.131
v -112.127 4.788 15.477
v -99.595 4.788 9.349
v -95.853 4.788 17.003
v -108.385 4.788 23.131
f 32 31 30 29
f 25 26 30 29
f 26 27 31 30
f 27 28 32 31
f 28 25 29 32
v -123.385 1.075 35.444
v -110.031 1.075 31.342
v -107.195 1.075 40.576
v -120.549 1.075 44.678
v -123.385 4.975 35.444
v -110.031 4.975 31.342
v -107.195 4.975 40.576
v -120.549 4.975 44.678
f 40 39 38 37
f 33 34 38 37
f 34 35 39 38
f 35 36 40 39
f 36 33 37 40
v -117.066 1.021 26.767
v -104.545 1.021 20.219
v -100.814 1.021 27.353
v -113.335 1.021 33.901
v -117.066 4.921 26.767
v -104.545 4.921 20.219
v -100.814 4.921 27.353
v -113.335 4.921 33.901
f 48 47 46 45
f 41 42 46 45
f 42 43 47 46
f 43 44 48 47
f 44 41 45 48
v -103.965 0.852 92.141
v -90.575 0.852 95.836
v -92.915 0.852 104.319
v -106.305 0.852 100.624
v -103.965 4.752 92.141
v -90.575 4.752 95.836
v -92.915 4.752 104.319
v -106.305 4.752 100.624
f 56 55 54 53
f 49 50 54 53
f 50 51 55 54
f 51 52 56 55
f 52 49 53 56
v -65.693 1.022 160.173
v -65.064 1.022 174.629
v -72.827 1.022 174.967
v -73.456 1.022 160.511
v -65.693 4.922 160.173
v -65.064 4.922 174.629
v -72.827 4.922 174.967
v -73.456 4.922 160.511
f 64 63 62 61
f 57 58 62 61
f 58 59 63 62
f 59 60 64 63
f 60 57 61 64
v -94.048 0.940 162.843
v -80.062 0.940 162.227
v -79.632 0.940 171.977
v -93.618 0.940 172.593
v -94.048 4.840 162.843
v -80.062 4.840 162.227
v -79.632 4.840 171.977
v -93.618 4.840 172.593
f 72 71 70 69
f 65 66 70 69
f 66 67 71 70
f 67 68 72 71
f 68 65 69 72
v -95.917 1.082 138.524
v -81.636 1.082 139.923
v -82.603 1.082 149.796
v -96.884 1.082 148.397
v -95.917 4.982 138.524
v -81.636 4.982 139.923
v -82.603 4.982 149.796
v -96.884 4.982 148.397
f 80 79 78 77
f 73 74 78 77
f 74 75 79 78
f 75 76 80 79
f 76 73 77 80
v -96.328 1.081 123.250
v -82.549 1.081 125.996
v -84.532 1.081 135.950
v -98.311 1.081 133.204
v -96.328 4.981 123.250
v -82.549 4.981 125.996
v -84.532 4.981 135.950
v -98.311 4.981 133.204
f 88 87 86 85
f 81 82 86 85
f 82 83 87 86
f 83 84 88 87
f 84 81 85 88
v 243.184 0.780 87.415
v 249.179 0.780 75.196
v 257.636 0.780 79.345
v 251.641 0.780 91.564
v 243.184 4.680 87.415
v 249.179 4.680 75.196
v 257.636 4.680 79.345
v 251.641 4.680 91.564
f 96 95 94 93
f 89 90 94 93
f 90 91 95 94
f 91 92 96 95
f 92 89 93 96
v 228.360 0.915 80.386
v 242.098 0.915 84.282
v 238.300 0.915 97.674
v 224.562 0.915 93.778
v 228.360 4.815 80.386
v 242.098 4.815 84.282
v 238.300 4.815 97.674
v 224.562 4.815 93.778
f 104 103 102 101
f 97 98 102 101
f 98 99 103 102
f 99 100 104 103
f 100 97 101 104
v 214.374 1.062 86.774
v 226.721 1.062 90.613
v 223.186 1.062 101.986
v 210.839 1.062 98.147
v 214.374 4.962 86.774
v 226.721 4.962 90.613
v 223.186 4.962 101.986
v 210.839 4.962 98.147
f 112 111 110 109
f 105 106 110 109
f 106 107 111 110
f 107 108 112 111
f 108 105 109 112
v 194.362 0.994 105.922
v 197.585 0.994 89.251
v 211.998 0.994 92.038
v 208.775 0.994 108.709
v 194.362 4.894 105.922
v 197.585 4.894 89.251
v 211.998 4.894 92.038
v 208.775 4.894 108.709
f 120 119 118 117
f 113 114 118 117
f 114 115 119 118
f 115 116 120 119
f 116 113 117 120
v 177.865 0.936 108.521
v 190.642 0.936 95.100
v 202.215 0.936 106.119
v 189.438 0.936 119.540
v 177.865 4.836 108.521
v 190.642 4.836 95.100
v 202.215 4.836 106.119
v 189.438 4.836 119.540
f 128 127 126 125
f 121 122 126 125
f 122 123 127 126
f 123 124 128 127
f 124 121 125 128
v 179.007 0.690 142.754
v 192.253 0.690 136.980
v 196.973 0.690 147.806
v 183.727 0.690 153.580
v 179.007 4.590 142.754
v 192.253 4.590 136.980
v 196.973 4.590 147.806
v 183.727 4.590 153.580
f 136 135 134 133
f 129 130 134 133
f 130 131 135 134
f 131 132 136 135
f 132 129 133 136
v 203.244 0.711 145.750
v 211.845 0.711 156.696
v 204.776 0.711 162.250
v 196.175 0.711 151.304
v 203.244 4.611 145.750
v 211.845 4.611 156.696
v 204.776 4.611 162.250
v 196.175 4.611 151.304
f 144 143 142 141
f 137 138 142 141
f 138 139 143 142
f 139 140 144 143
f 140 137 141 144
v 214.994 0.827 156.208
v 226.696 0.827 164.821
v 221.006 0.827 172.552
v 209.304 0.827 163.939
v 214.994 4.727 156.208
v 226.696 4.727 164.821
v 221.006 4.727 172.552
v 209.304 4.727 163.939
f 152 151 150 149
f 145 146 150 149
f 146 147 151 150
f 147 148 152 151
f 148 145 149 152
v 239.874 0.770 162.633
v 253.442 0.770 168.367
v 248.606 0.770 179.807
v 235.038 0.770 174.073
v 239.874 4.670 162.633
v 253.442 4.670 168.367
v 248.606 4.670 179.807
v 235.038 4.670 174.073
f 160 159 158 157
f 153 154 158 157
f 154 155 159 158
f 155 156 160 159
f 156 153 157 160
v 246.219 0.892 178.946
v 259.753 0.892 184.605
v 256.061 0.892 193.434
v 242.527 0.892 187.775
v 246.219 4.792 178.946
v 259.753 4.792 184.605
v 256.061 4.792 193.434
v 242.527 4.792 187.775
f 168 167 166 165
f 161 162 166 165
f 162 163 167 166
f 163 164 168 167
f 164 161 165 168
v 242.125 0.805 212.314
v 245.799 0.805 203.218
v 253.495 0.805 206.326
v 249.821 0.805 215.422
v 242.125 4.705 212.314
v 245.799 4.705 203.218
v 253.495 4.705 206.326
v 249.821 4.705 215.422
f 176 175 174 173
f 169 170 174 173
f 170 171 175 174
f 171 172 176 175
f 172 169 173 176
v 228.522 0.821 218.605
v 233.301 0.821 208.101
v 241.638 0.821 211.895
v 236.859 0.821 222.399
v 228.522 4.721 218.605
v 233.301 4.721 208.101
v 241.638 4.721 211.895
v 236.859 4.721 222.399
f 184 183 182 181
f 177 178 182 181
f 178 179 183 182
f 179 180 184 183
f 180 177 181 184
v 214.678 0.811 224.876
v 219.813 0.811 213.261
v 227.102 0.811 216.484
v 221.967 0.811 228.099
v 214.678 4.711 224.876
v 219.813 4.711 213.261
v 227.102 4.711 216.484
v 221.967 4.711 228.099
f 192 191 190 189
f 185 186 190 189
f 186 187 191 190
f 187 188 192 191
f 188 185 189 192
v 201.886 0.813 233.124
v 208.192 0.813 219.558
v 215.374 0.813 222.896
v 209.068 0.813 236.462
v 201.886 4.713 233.124
v 208.192 4.713 219.558
v 215.374 4.713 222.896
v 209.068 4.713 236.462
f 200 199 198 197
f 193 194 198 197
f 194 195 199 198
f 195 196 200 199
f 196 193 197 200
v 187.510 0.842 238.640
v 192.828 0.842 226.843
v 200.850 0.842 230.460
v 195.532 0.842 242.257
v 187.510 4.742 238.640
v 192.828 4.742 226.843
v 200.850 4.742 230.460
v 195.532 4.742 242.257
f 208 207 206 205
f 201 202 206 205
f 202 203 207 206
f 203 204 208 207
f 204 201 205 208
v 200.081 1.037 203.562
v 204.253 1.037 220.444
v 190.439 1.037 223.858
v 186.267 1.037 206.976
v 200.081 4.937 203.562
v 204.253 4.937 220.444
v 190.439 4.937 223.858
v 186.267 4.937 206.976
f 216 215 214 213
f 209 210 214 213
f 210 211 215 214
f 211 212 216 215
f 212 209 213 216
v 178.239 1.034 204.117
v 184.008 1.034 191.076
v 195.101 1.034 195.983
v 189.332 1.034 209.024
v 178.239 4.934 204.117
v 184.008 4.934 191.076
v 195.101 4.934 195.983
v 189.332 4.934 209.024
f 224 223 222 221
f 217 218 222 221
f 218 219 223 222
f 219 220 224 223
f 220 217 221 224
v 175.429 0.820 177.420
v 183.877 0.820 185.046
v 177.491 0.820 192.120
v 169.043 0.820 184.494
v 175.429 4.720 177.420
v 183.877 4.720 185.046
v 177.491 4.720 192.120
v 169.043 4.720 184.494
f 232 231 230 229
f 225 226 230 229
f 226 227 231 230
f 227 228 232 231
f 228 225 229 232
v 162.637 0.598 173.125
v 164.184 0.598 187.502
v 155.703 0.598 188.415
v 154.156 0.598 174.038
v 162.637 4.498 173.125
v 164.184 4.498 187.502
v 155.703 4.498 188.415
v 154.156 4.498 174.038
f 240 239 238 237
f 233 234 238 237
f 234 235 239 238
f 235 236 240 239
f 236 233 237 240
v 137.887 1.152 173.451
v 150.987 1.152 172.103
v 152.253 1.152 184.409
v 139.153 1.152 185.757
v 137.887 5.052 173.451
v 150.987 5.052 172.103
v 152.253 5.052 184.409
v 139.153 5.052 185.757
f 248 247 246 245
f 241 242 246 245
f 242 243 247 246
f 243 244 248 247
f 244 241 245 248
v 134.888 0.722 167.602
v 136.097 0.722 182.422
v 128.552 0.722 183.038
v 127.343 0.722 168.218
v 134.888 4.622 167.602
v 136.097 4.622 182.422
v 128.552 4.622 183.038
v 127.343 4.622 168.218
f 256 255 254 253
f 249 250 254 253
f 250 251 255 254
f 251 252 256 255
f 252 249 253 256
v 158.255 0.015 65.854
v 166.788 0.015 68.988
v 164.305 0.015 75.746
v 155.772 0.015 72.612
v 158.255 3.915 65.854
v 166.788 3.915 68.988
v 164.305 3.915 75.746
v 155.772 3.915 72.612
f 264 263 262 261
f 257 258 262 261
f 258 259 263 262
f 259 260 264 263
f 260 257 261 264
v -153.487 0.612 -50.467
v -148.251 0.612 -38.622
v -155.193 0.612 -35.553
v -160.429 0.612 -47.398
v -153.487 4.512 -50.467
v -148.251 4.512 -38.622
v -155.193 4.512 -35.553
v -160.429 4.512 -47.398
f 272 271 270 269
f 265 266 270 269
f 266 267 271 270
f 267 268 272 271
f 268 265 269 272
v -142.565 0.564 -46.713
v -136.465 0.564 -33.823
v -143.895 0.564 -30.307
v -149.995 0.564 -43.197
v -142.565 4.464 -46.713
v -136.465 4.464 -33.823
v -143.895 4.464 -30.307
v -149.995 4.464 -43.197
f 280 279 278 277
f 273 274 278 277
f 274 275 279 278
f 275 276 280 279
f 276 273 277 280
v -225.404 0.905 -47.876
v -219.203 0.905 -35.380
v -227.336 0.905 -31.344
v -233.537 0.905 -43.840
v -225.404 4.805 -47.876
v -219.203 4.805 -35.380
v -227.336 4.805 -31.344
v -233.537 4.805 -43.840
f 288 287 286 285
f 281 282 286 285
f 282 283 287 286
f 283 284 288 287
f 284 281 285 288
v -251.382 1.024 -80.843
v -237.473 1.024 -80.289
v -237.898 1.024 -69.597
v -251.807 1.024 -70.151
v -251.382 4.924 -80.843
v -237.473 4.924 -80.289
v -237.898 4.924 -69.597
v -251.807 4.924 -70.151
f 296 295 294 293
f 289 290 294 293
f 290 291 295 294
f 291 292 296 295
f 292 289 293 296
v -225.691 0.968 -81.347
v -224.182 0.968 -69.705
v -232.909 0.968 -68.573
v -234.418 0.968 -80.215
v -225.691 4.868 -81.347
v -224.182 4.868 -69.705
v -232.909 4.868 -68.573
v -234.418 4.868 -80.215
f 304 303 302 301
f 297 298 302 301
f 298 299 303 302
f 299 300 304 303
f 300 297 301 304
v -216.535 0.713 -81.337
v -211.830 0.713 -67.802
v -218.905 0.713 -65.343
v -223.610 0.713 -78.878
v -216.535 4.613 -81.337
v -211.830 4.613 -67.802
v -218.905 4.613 -65.343
v -223.610 4.613 -78.878
f 312 311 310 309
f 305 306 310 309
f 306 307 311 310
f 307 308 312 311
f 308 305 309 312
v -206.900 0.614 -77.446
v -200.679 0.614 -64.215
v -208.380 0.614 -60.594
v -214.601 0.614 -73.825
v -206.900 4.514 -77.446
v -200.679 4.514 -64.215
v -208.380 4.514 -60.594
v -214.601 4.514 -73.825
f 320 319 318 317
f 313 314 318 317
f 314 315 319 318
f 315 316 320 319
f 316 313 317 320
v -198.080 0.553 -72.183
v -191.834 0.553 -59.620
v -198.720 0.553 -56.197
v -204.966 0.553 -68.760
v -198.080 4.453 -72.183
v -191.834 4.453 -59.620
v -198.720 4.453 -56.197
v -204.966 4.453 -68.760
f 328 327 326 325
f 321 322 326 325
f 322 323 327 326
f 323 324 328 327
f 324 321 325 328
v -188.560 0.593 -70.072
v -182.146 0.593 -56.359
v -188.840 0.593 -53.228
v -195.254 0.593 -66.941
v -188.560 4.493 -70.072
v -182.146 4.493 -56.359
v -188.840 4.493 -53.228
v -195.254 4.493 -66.941
f 336 335 334 333
f 329 330 334 333
f 330 331 335 334
f 331 332 336 335
f 332 329 333 336
v -178.141 0.573 -65.661
v -171.725 0.573 -52.781
v -179.879 0.573 -48.719
v -186.295 0.573 -61.599
v -178.141 4.473 -65.661
v -171.725 4.473 -52.781
v -179.879 4.473 -48.719
v -186.295 4.473 -61.599
f 344 343 342 341
f 337 338 342 341
f 338 339 343 342
f 339 340 344 343
f 340 337 341 344
v -162.430 0.727 -60.212
v -155.551 0.727 -46.825
v -168.350 0.727 -40.248
v -175.229 0.727 -53.635
v -162.430 4.627 -60.212
v -155.551 4.627 -46.825
v -168.350 4.627 -40.248
v -175.229 4.627 -53.635
f 352 351 350 349
f 345 346 350 349
f 346 347 351 350
f 347 348 352 351
f 348 345 349 352
v -215.767 0.867 -42.511
v -209.536 0.867 -29.617
v -217.333 0.867 -25.849
v -223.564 0.867 -38.743
v -215.767 4.767 -42.511
v -209.536 4.767 -29.617
v -217.333 4.767 -25.849
v -223.564 4.767 -38.743
f 360 359 358 357
f 353 354 358 357
f 354 355 359 358
f 355 356 360 359
f 356 353 357 360
v -205.560 0.855 -39.105
v -197.120 0.855 -24.336
v -206.080 0.855 -19.215
v -214.520 0.855 -33.984
v -205.560 4.755 -39.105
v -197.120 4.755 -24.336
v -206.080 4.755 -19.215
v -214.520 4.755 -33.984
f 368 367 366 365
f 361 362 366 365
f 362 363 367 366
f 363 364 368 367
f 364 361 365 368
v -194.726 0.866 -35.312
v -184.795 0.866 -22.729
v -195.314 0.866 -14.428
v -205.245 0.866 -27.011
v -194.726 4.766 -35.312
v -184.795 4.766 -22.729
v -195.314 4.766 -14.428
v -205.245 4.766 -27.011
f 376 375 374 373
f 369 370 374 373
f 370 371 375 374
f 371 372 376 375
f 372 369 373 376
v -183.679 0.900 -25.921
v -177.299 0.900 -12.767
v -184.821 0.900 -9.119
v -191.201 0.900 -22.273
v -183.679 4.800 -25.921
v -177.299 4.800 -12.767
v -184.821 4.800 -9.119
v -191.201 4.800 -22.273
f 384 383 382 381
f 377 378 382 381
f 378 379 383 382
f 379 380 384 383
f 380 377 381 384
v -172.831 0.905 -21.654
v -166.714 0.905 -8.518
v -174.429 0.905 -4.926
v -180.546 0.905 -18.062
v -172.831 4.805 -21.654
v -166.714 4.805 -8.518
v -174.429 4.805 -4.926
v -180.546 4.805 -18.062
f 392 391 390 389
f 385 386 390 389
f 386 387 391 390
f 387 388 392 391
f 388 385 389 392
v -163.131 0.881 -16.626
v -155.797 0.881 -2.136
v -163.229 0.881 1.626
v -170.563 0.881 -12.864
v -163.131 4.781 -16.626
v -155.797 4.781 -2.136
v -163.229 4.781 1.626
v -170.563 4.781 -12.864
f 400 399 398 397
f 393 394 398 397
f 394 395 399 398
f 395 396 400 399
f 396 393 397 400
v -152.849 0.820 -11.300
v -145.968 0.820 2.644
v -152.891 0.820 6.060
v -159.772 0.820 -7.884
v -152.849 4.720 -11.300
v -145.968 4.720 2.644
v -152.891 4.720 6.060
v -159.772 4.720 -7.884
f 408 407 406 405
f 401 402 406 405
f 402 403 407 406
f 403 404 408 407
f 404 401 405 408
v -141.654 0.875 -7.598
v -135.592 0.875 5.750
v -143.186 0.875 9.198
v -149.248 0.875 -4.150
v -141.654 4.775 -7.598
v -135.592 4.775 5.750
v -143.186 4.775 9.198
v -149.248 4.775 -4.150
f 416 415 414 413
f 409 410 414 413
f 410 411 415 414
f 411 412 416 415
f 412 409 413 416
v -132.301 0.792 -2.447
v -126.082 0.792 10.563
v -134.039 0.792 14.367
v -140.258 0.792 1.357
v -132.301 4.692 -2.447
v -126.082 4.692 10.563
v -134.039 4.692 14.367
v -140.258 4.692 1.357
f 424 423 422 421
f 417 418 422 421
f 418 419 423 422
f 419 420 424 423
f 420 417 421 424
v -157.133 0.906 18.659
v -140.620 0.906 14.138
v -138.927 0.906 20.321
v -155.440 0.906 24.842
v -157.133 4.806 18.659
v -140.620 4.806 14.138
v -138.927 4.806 20.321
v -155.440 4.806 24.842
f 432 431 430 429
f 425 426 430 429
f 426 427 431 430
f 427 428 432 431
f 428 425 429 432
v -158.488 0.933 24.729
v -141.833 0.933 22.946
v -140.792 0.933 32.671
v -157.447 0.933 34.454
v -158.488 4.833 24.729
v -141.833 4.833 22.946
v -140.792 4.833 32.671
v -157.447 4.833 34.454
f 440 439 438 437
f 433 434 438 437
f 434 435 439 438
f 435 436 440 439
f 436 433 437 440
v -161.184 0.940 34.885
v -144.008 0.940 36.121
v -144.736 0.940 46.235
v -161.912 0.940 44.999
v -161.184 4.840 34.885
v -144.008 4.840 36.121
v -144.736 4.840 46.235
v -161.912 4.840 44.999
f 448 447 446 445
f 441 442 446 445
f 442 443 447 446
f 443 444 448 447
f 444 441 445 448
v -158.323 0.932 45.380
v -142.798 0.932 48.422
v -144.777 0.932 58.520
v -160.302 0.932 55.478
v -158.323 4.832 45.380
v -142.798 4.832 48.422
v -144.777 4.832 58.520
v -160.302 4.832 55.478
f 456 455 454 453
f 449 450 454 453
f 450 451 455 454
f 451 452 456 455
f 452 449 453 456
v -154.690 0.906 57.299
v -139.507 0.906 62.891
v -142.870 0.906 72.021
v -158.053 0.906 66.429
v -154.690 4.806 57.299
v -139.507 4.806 62.891
v -142.870 4.806 72.021
v -158.053 4.806 66.429
f 464 463 462 461
f 457 458 462 461
f 458 459 463 462
f 459 460 464 463
f 460 457 461 464
v -150.041 0.952 66.957
v -134.517 0.952 72.810
v -138.179 0.952 82.523
v -153.703 0.952 76.670
v -150.041 4.852 66.957
v -134.517 4.852 72.810
v -138.179 4.852 82.523
v -153.703 4.852 76.670
f 472 471 470 469
f 465 466 470 469
f 466 467 471 470
f 467 468 472 471
f 468 465 469 472
v -145.712 0.891 77.935
v -129.645 0.891 82.668
v -132.508 0.891 92.385
v -148.575 0.891 87.652
v -145.712 4.791 77.935
v -129.645 4.791 82.668
v -132.508 4.791 92.385
v -148.575 4.791 87.652
f 480 479 478 477
f 473 474 478 477
f 474 475 479 478
f 475 476 480 479
f 476 473 477 480
v -141.065 0.782 88.817
v -123.069 0.782 92.696
v -126.575 0.782 108.963
v -144.571 0.782 105.084
v -141.065 4.682 88.817
v -123.069 4.682 92.696
v -126.575 4.682 108.963
v -144.571 4.682 105.084
f 488 487 486 485
f 481 482 486 485
f 482 483 487 486
f 483 484 488 487
f 484 481 485 488
v -133.981 1.004 121.349
v -117.502 1.004 122.987
v -118.639 1.004 134.431
v -135.118 1.004 132.793
v -133.981 4.904 121.349
v -117.502 4.904 122.987
v -118.639 4.904 134.431
v -135.118 4.904 132.793
f 496 495 494 493
f 489 490 494 493
f 490 491 495 494
f 491 492 496 495
f 492 489 493 496
v -135.697 0.912 106.697
v -118.869 0.912 111.850
v -121.923 0.912 121.823
v -138.751 0.912 116.670
v -135.697 4.812 106.697
v -118.869 4.812 111.850
v -121.923 4.812 121.823
v -138.751 4.812 116.670
f 504 503 502 501
f 497 498 502 501
f 498 499 503 502
f 499 500 504 503
f 500 497 501 504
v -136.236 0.900 134.233
v -116.779 0.900 137.118
v -118.284 0.900 147.267
v -137.741 0.900 144.382
v -136.236 4.800 134.233
v -116.779 4.800 137.118
v -118.284 4.800 147.267
v -137.741 4.800 144.382
f 512 511 510 509
f 505 506 510 509
f 506 507 511 510
f 507 508 512 511
f 508 505 509 512
v -134.501 0.989 149.247
v -116.533 0.989 147.882
v -115.759 0.989 158.073
v -133.727 0.989 159.438
v -134.501 4.889 149.247
v -116.533 4.889 147.882
v -115.759 4.889 158.073
v -133.727 4.889 159.438
f 520 519 518 517
f 513 514 518 517
f 514 515 519 518
f 515 516 520 519
f 516 513 517 520
v -131.874 0.922 163.526
v -120.050 0.922 158.728
v -116.086 0.922 168.494
v -127.910 0.922 173.292
v -131.874 4.822 163.526
v -120.050 4.822 158.728
v -116.086 4.822 168.494
v -127.910 4.822 173.292
f 528 527 526 525
f 521 522 526 525
f 522 523 527 526
f 523 524 528 527
f 524 521 525 528
v -140.472 0.996 174.688
v -125.759 0.996 168.608
v -121.848 0.996 178.072
v -136.561 0.996 184.152
v -140.472 4.896 174.688
v -125.759 4.896 168.608
v -121.848 4.896 178.072
v -136.561 4.896 184.152
f 536 535 534 533
f 529 530 534 533
f 530 531 535 534
f 531 532 536 535
f 532 529 533 536
v -145.676 0.993 187.942
v -127.931 0.993 180.354
v -123.944 0.993 189.678
v -141.689 0.993 197.266
v -145.676 4.893 187.942
v -127.931 4.893 180.354
v -123.944 4.893 189.678
v -141.689 4.893 197.266
f 544 543 542 541
f 537 538 542 541
f 538 539 543 542
f 539 540 544 543
f 540 537 541 544
v -150.672 0.862 196.688
v -134.171 0.862 191.524
v -130.688 0.862 202.652
v -147.189 0.862 207.816
v -150.672 4.762 196.688
v -134.171 4.762 191.524
v -130.688 4.762 202.652
v -147.189 4.762 207.816
f 552 551 550 549
f 545 546 550 549
f 546 547 551 550
f 547 548 552 551
f 548 545 549 552
v -155.221 1.055 207.931
v -141.517 1.055 201.980
v -138.239 1.055 209.529
v -151.943 1.055 215.480
v -155.221 4.955 207.931
v -141.517 4.955 201.980
v -138.239 4.955 209.529
v -151.943 4.955 215.480
f 560 559 558 557
f 553 554 558 557
f 554 555 559 558
f 555 556 560 559
f 556 553 557 560
v -162.952 0.986 216.523
v -148.429 0.986 210.718
v -143.488 0.986 223.077
v -158.011 0.986 228.882
v -162.952 4.886 216.523
v -148.429 4.886 210.718
v -143.488 4.886 223.077
v -158.011 4.886 228.882
f 568 567 566 565
f 561 562 566 565
f 562 563 567 566
f 563 564 568 567
f 564 561 565 568
v -172.162 1.630 228.154
v -158.281 1.630 222.185
v -153.818 1.630 232.566
v -167.699 1.630 238.535
v -172.162 5.530 228.154
v -158.281 5.530 222.185
v -153.818 5.530 232.566
v -167.699 5.530 238.535
f 576 575 574 573
f 569 570 574 573
f 570 571 575 574
f 571 572 576 575
f 572 569 573 576
v -180.463 1.003 240.242
v -166.444 1.003 233.701
v -160.977 1.003 245.418
v -174.996 1.003 251.959
v -180.463 4.903 240.242
v -166.444 4.903 233.701
v -160.977 4.903 245.418
v -174.996 4.903 251.959
f 584 583 582 581
f 577 578 582 581
f 578 579 583 582
f 579 580 584 583
f 580 577 581 584
v -188.118 0.640 252.398
v -173.935 0.640 245.524
v -167.742 0.640 258.302
v -181.925 0.640 265.176
v -188.118 4.540 252.398
v -173.935 4.540 245.524
v -167.742 4.540 258.302
v -181.925 4.540 265.176
f 592 591 590 589
f 585 586 590 589
f 586 587 591 590
f 587 588 592 591
f 588 585 589 592
v -136.975 0.739 256.644
v -129.263 0.739 244.012
v -121.625 0.739 248.676
v -129.337 0.739 261.308
v -136.975 4.639 256.644
v -129.263 4.639 244.012
v -121.625 4.639 248.676
v -129.337 4.639 261.308
f 600 599 598 597
f 593 594 598 597
f 594 595 599 598
f 595 596 600 599
f 596 593 597 600
v -129.852 0.808 249.770
v -120.624 0.808 235.911
v -114.048 0.808 240.290
v -123.276 0.808 254.149
v -129.852 4.708 249.770
v -120.624 4.708 235.911
v -114.048 4.708 240.290
v -123.276 4.708 254.149
f 608 607 606 605
f 601 602 606 605
f 602 603 607 606
f 603 604 608 607
f 604 601 605 608
v -120.804 0.750 241.109
v -112.720 0.750 227.907
v -102.196 0.750 234.351
v -110.280 0.750 247.553
v -120.804 4.650 241.109
v -112.720 4.650 227.907
v -102.196 4.650 234.351
v -110.280 4.650 247.553
f 616 615 614 613
f 609 610 614 613
f 610 611 615 614
f 611 612 616 615
f 612 609 613 616
v -108.439 0.710 230.248
v -99.283 0.710 217.458
v -87.501 0.710 225.892
v -96.657 0.710 238.682
v -108.439 4.610 230.248
v -99.283 4.610 217.458
v -87.501 4.610 225.892
v -96.657 4.610 238.682
f 624 623 622 621
f 617 618 622 621
f 618 619 623 622
f 619 620 624 623
f 620 617 621 624
v -96.234 0.800 218.295
v -81.822 0.800 204.997
v -70.686 0.800 217.065
v -85.098 0.800 230.363
v -96.234 4.700 218.295
v -81.822 4.700 204.997
v -70.686 4.700 217.065
v -85.098 4.700 230.363
f 632 631 630 629
f 625 626 630 629
f 626 627 631 630
f 627 628 632 631
f 628 625 629 632
v -78.281 0.816 216.470
v -72.642 0.816 201.979
v -60.639 0.816 206.650
v -66.278 0.816 221.141
v -78.281 4.716 216.470
v -72.642 4.716 201.979
v -60.639 4.716 206.650
v -66.278 4.716 221.141
f 640 639 638 637
f 633 634 638 637
f 634 635 639 638
f 635 636 640 639
f 636 633 637 640
v -63.404 0.730 214.243
v -56.847 0.730 198.223
v -41.716 0.730 204.417
v -48.273 0.730 220.437
v -63.404 4.630 214.243
v -56.847 4.630 198.223
v -41.716 4.630 204.417
v -48.273 4.630 220.437
f 648 647 646 645
f 641 642 646 645
f 642 643 647 646
f 643 644 648 647
f 644 641 645 648
v -43.991 0.754 211.786
v -39.629 0.754 197.402
v -31.609 0.754 199.834
v -35.971 0.754 214.218
v -43.991 4.654 211.786
v -39.629 4.654 197.402
v -31.609 4.654 199.834
v -35.971 4.654 214.218
f 656 655 654 653
f 649 650 654 653
f 650 651 655 654
f 651 652 656 655
f 652 649 653 656
v -34.919 0.709 209.732
v -27.677 0.709 195.006
v -12.341 0.709 202.548
v -19.583 0.709 217.274
v -34.919 4.609 209.732
v -27.677 4.609 195.006
v -12.341 4.609 202.548
v -19.583 4.609 217.274
f 664 663 662 661
f 657 658 662 661
f 658 659 663 662
f 659 660 664 663
f 660 657 661 664
v 0.032 0.683 192.871
v 1.166 0.683 210.615
v -14.692 0.683 211.629
v -15.826 0.683 193.885
v 0.032 4.583 192.871
v 1.166 4.583 210.615
v -14.692 4.583 211.629
v -15.826 4.583 193.885
f 672 671 670 669
f 665 666 670 669
f 666 667 671 670
f 667 668 672 671
f 668 665 669 672
v -3.610 0.855 192.990
v -1.283 0.855 178.091
v 13.310 0.855 180.370
v 10.983 0.855 195.269
v -3.610 4.755 192.990
v -1.283 4.755 178.091
v 13.310 4.755 180.370
v 10.983 4.755 195.269
f 680 679 678 677
f 673 674 678 677
f 674 675 679 678
f 675 676 680 679
f 676 673 677 680
v 10.871 0.805 187.942
v 15.132 0.805 173.601
v 21.449 0.805 175.478
v 17.188 0.805 189.819
v 10.871 4.705 187.942
v 15.132 4.705 173.601
v 21.449 4.705 175.478
v 17.188 4.705 189.819
f 688 687 686 685
f 681 682 686 685
f 682 683 687 686
f 683 684 688 687
f 684 681 685 688
v 20.594 0.834 187.065
v 23.732 0.834 171.948
v 30.606 0.834 173.375
v 27.468 0.834 188.492
v 20.594 4.734 187.065
v 23.732 4.734 171.948
v 30.606 4.734 173.375
v 27.468 4.734 188.492
f 696 695 694 693
f 689 690 694 693
f 690 691 695 694
f 691 692 696 695
f 692 689 693 696
v 30.694 0.841 183.513
v 31.720 0.841 169.802
v 43.806 0.841 170.707
v 42.780 0.841 184.418
v 30.694 4.741 183.513
v 31.720 4.741 169.802
v 43.806 4.741 170.707
v 42.780 4.741 184.418
f 704 703 702 701
f 697 698 702 701
f 698 699 703 702
f 699 700 704 703
f 700 697 701 704
v 53.180 1.009 172.177
v 66.296 1.009 171.234
v 67.180 1.009 183.523
v 54.064 1.009 184.466
v 53.180 4.909 172.177
v 66.296 4.909 171.234
v 67.180 4.909 183.523
v 54.064 4.909 184.466
f 712 711 710 709
f 705 706 710 709
f 706 707 711 710
f 707 708 712 711
f 708 705 709 712
v 70.614 0.889 171.354
v 86.499 0.889 170.660
v 87.126 0.889 185.026
v 71.241 0.889 185.720
v 70.614 4.789 171.354
v 86.499 4.789 170.660
v 87.126 4.789 185.026
v 71.241 4.789 185.720
f 720 719 718 717
f 713 714 718 717
f 714 715 719 718
f 715 716 720 719
f 716 713 717 720
v 107.883 0.544 165.378
v 107.887 0.544 181.378
v 95.497 0.544 181.382
v 95.493 0.544 165.382
v 107.883 4.444 165.378
v 107.887 4.444 181.378
v 95.497 4.444 181.382
v 95.493 4.444 165.382
f 728 727 726 725
f 721 722 726 725
f 722 723 727 726
f 723 724 728 727
f 724 721 725 728
v 121.084 0.611 160.147
v 128.836 0.611 176.846
v 115.076 0.611 183.233
v 107.324 0.611 166.534
v 121.084 4.511 160.147
v 128.836 4.511 176.846
v 115.076 4.511 183.233
v 107.324 4.511 166.534
f 736 735 734 733
f 729 730 734 733
f 730 731 735 734
f 731 732 736 735
f 732 729 733 736
v -6.528 0.819 152.054
v 1.554 0.819 140.943
v 9.228 0.819 146.526
v 1.146 0.819 157.637
v -6.528 4.719 152.054
v 1.554 4.719 140.943
v 9.228 4.719 146.526
v 1.146 4.719 157.637
f 744 743 742 741
f 737 738 742 741
f 738 739 743 742
f 739 740 744 743
f 740 737 741 744
v -95.201 1.008 150.377
v -80.302 1.008 151.165
v -80.759 1.008 159.823
v -95.658 1.008 159.035
v -95.201 4.908 150.377
v -80.302 4.908 151.165
v -80.759 4.908 159.823
v -95.658 4.908 159.035
f 752 751 750 749
f 745 746 750 749
f 746 747 751 750
f 747 748 752 751
f 748 745 749 752
v -62.289 1.052 174.806
v -61.775 1.052 160.275
v -52.751 1.052 160.594
v -53.265 1.052 175.125
v -62.289 4.952 174.806
v -61.775 4.952 160.275
v -52.751 4.952 160.594
v -53.265 4.952 175.125
f 760 759 758 757
f 753 754 758 757
f 754 755 759 758
f 755 756 760 759
f 756 753 757 760
v -51.231 1.044 173.666
v -49.282 1.044 159.610
v -40.169 1.044 160.874
v -42.118 1.044 174.930
v -51.231 4.944 173.666
v -49.282 4.944 159.610
v -40.169 4.944 160.874
v -42.118 4.944 174.930
f 768 767 766 765
f 761 762 766 765
f 762 763 767 766
f 763 764 768 767
f 764 761 765 768
v -39.788 1.036 171.015
v -35.734 1.036 157.887
v -27.192 1.036 160.525
v -31.246 1.036 173.653
v -39.788 4.936 171.015
v -35.734 4.936 157.887
v -27.192 4.936 160.525
v -31.246 4.936 173.653
f 776 775 774 773
f 769 770 774 773
f 770 771 775 774
f 771 772 776 775
f 772 769 773 776
v -28.643 0.853 166.549
v -23.139 0.853 153.188
v -15.317 0.853 156.411
v -20.821 0.853 169.772
v -28.643 4.753 166.549
v -23.139 4.753 153.188
v -15.317 4.753 156.411
v -20.821 4.753 169.772
f 784 783 782 781
f 777 778 782 781
f 778 779 783 782
f 779 780 784 783
f 780 777 781 784
v -18.390 0.906 158.440
v -11.633 0.906 146.845
v -4.090 0.906 151.240
v -10.847 0.906 162.835
v -18.390 4.806 158.440
v -11.633 4.806 146.845
v -4.090 4.806 151.240
v -10.847 4.806 162.835
f 792 791 790 789
f 785 786 790 789
f 786 787 791 790
f 787 788 792 791
f 788 785 789 792
v -17.287 0.967 128.886
v -6.957 0.967 138.947
v -13.313 0.967 145.474
v -23.643 0.967 135.413
v -17.287 4.867 128.886
v -6.957 4.867 138.947
v -13.313 4.867 145.474
v -23.643 4.867 135.413
f 800 799 798 797
f 793 794 798 797
f 794 795 799 798
f 795 796 800 799
f 796 793 797 800
v -26.566 0.916 119.702
v -15.061 0.916 128.739
v -21.454 0.916 136.878
v -32.959 0.916 127.841
v -26.566 4.816 119.702
v -15.061 4.816 128.739
v -21.454 4.816 136.878
v -32.959 4.816 127.841
f 808 807 806 805
f 801 802 806 805
f 802 803 807 806
f 803 804 808 807
f 804 801 805 808
v -35.447 1.192 109.704
v -23.908 1.192 117.089
v -29.353 1.192 125.596
v -40.892 1.192 118.211
v -35.447 5.092 109.704
v -23.908 5.092 117.089
v -29.353 5.092 125.596
v -40.892 5.092 118.211
f 816 815 814 813
f 809 810 814 813
f 810 811 815 814
f 811 812 816 815
f 812 809 813 816
v -42.843 0.891 98.703
v -29.450 0.891 105.827
v -33.657 0.891 113.737
v -47.050 0.891 106.613
v -42.843 4.791 98.703
v -29.450 4.791 105.827
v -33.657 4.791 113.737
v -47.050 4.791 106.613
f 824 823 822 821
f 817 818 822 821
f 818 819 823 822
f 819 820 824 823
f 820 817 821 824
v -76.007 1.043 92.642
v -60.175 1.043 96.882
v -64.233 1.043 112.038
v -80.065 1.043 107.798
v -76.007 4.943 92.642
v -60.175 4.943 96.882
v -64.233 4.943 112.038
v -80.065 4.943 107.798
f 832 831 830 829
f 825 826 830 829
f 826 827 831 830
f 827 828 832 831
f 828 825 829 832
v -105.289 0.860 80.445
v -91.557 0.860 85.103
v -94.091 0.860 92.575
v -107.823 0.860 87.917
v -105.289 4.760 80.445
v -91.557 4.760 85.103
v -94.091 4.760 92.575
v -107.823 4.760 87.917
f 840 839 838 837
f 833 834 838 837
f 834 835 839 838
f 835 836 840 839
f 836 833 837 840
v -108.889 0.971 68.529
v -95.758 0.971 74.269
v -99.291 0.971 82.351
v -112.422 0.971 76.611
v -108.889 4.871 68.529
v -95.758 4.871 74.269
v -99.291 4.871 82.351
v -112.422 4.871 76.611
f 848 847 846 845
f 841 842 846 845
f 842 843 847 846
f 843 844 848 847
f 844 841 845 848
v -55.880 0.845 72.164
v -44.195 0.845 78.433
v -48.960 0.845 87.316
v -60.645 0.845 81.047
v -55.880 4.745 72.164
v -44.195 4.745 78.433
v -48.960 4.745 87.316
v -60.645 4.745 81.047
f 856 855 854 853
f 849 850 854 853
f 850 851 855 854
f 851 852 856 855
f 852 849 853 856
v -63.473 1.039 61.077
v -51.156 1.039 67.434
v -55.527 1.039 75.903
v -67.844 1.039 69.546
v -63.473 4.939 61.077
v -51.156 4.939 67.434
v -55.527 4.939 75.903
v -67.844 4.939 69.546
f 864 863 862 861
f 857 858 862 861
f 858 859 863 862
f 859 860 864 863
f 860 857 861 864
v -69.517 0.979 49.630
v -56.943 0.979 56.851
v -60.883 0.979 63.710
v -73.457 0.979 56.489
v -69.517 4.879 49.630
v -56.943 4.879 56.851
v -60.883 4.879 63.710
v -73.457 4.879 56.489
f 872 871 870 869
f 865 866 870 869
f 866 867 871 870
f 867 868 872 871
f 868 865 869 872
v -76.141 0.944 38.980
v -64.379 0.944 48.078
v -69.439 0.944 54.620
v -81.201 0.944 45.522
v -76.141 4.844 38.980
v -64.379 4.844 48.078
v -69.439 4.844 54.620
v -81.201 4.844 45.522
f 880 879 878 877
f 873 874 878 877
f 874 875 879 878
f 875 876 880 879
f 876 873 877 880
v -82.950 0.842 29.291
v -72.539 0.842 40.146
v -79.590 0.842 46.909
v -90.001 0.842 36.054
v -82.950 4.742 29.291
v -72.539 4.742 40.146
v -79.590 4.742 46.909
v -90.001 4.742 36.054
f 888 887 886 885
f 881 882 886 885
f 882 883 887 886
f 883 884 888 887
f 884 881 885 888
v -132.697 0.496 -42.813
v -125.782 0.496 -30.103
v -134.083 0.496 -25.587
v -140.998 0.496 -38.297
v -132.697 4.396 -42.813
v -125.782 4.396 -30.103
v -134.083 4.396 -25.587
v -140.998 4.396 -38.297
f 896 895 894 893
f 889 890 894 893
f 890 891 895 894
f 891 892 896 895
f 892 889 893 896
v -121.695 0.621 -36.664
v -115.411 0.621 -23.331
v -124.185 0.621 -19.196
v -130.469 0.621 -32.529
v -121.695 4.521 -36.664
v -115.411 4.521 -23.331
v -124.185 4.521 -19.196
v -130.469 4.521 -32.529
f 904 903 902 901
f 897 898 902 901
f 898 899 903 902
f 899 900 904 903
f 900 897 901 904
v -109.657 0.585 -32.221
v -103.211 0.585 -18.944
v -112.243 0.585 -14.559
v -118.689 0.585 -27.836
v -109.657 4.485 -32.221
v -103.211 4.485 -18.944
v -112.243 4.485 -14.559
v -118.689 4.485 -27.836
f 912 911 910 909
f 905 906 910 909
f 906 907 911 910
f 907 908 912 911
f 908 905 909 912
v -98.320 0.606 -29.265
v -87.250 0.606 -15.633
v -98.700 0.606 -6.335
v -109.770 0.606 -19.967
v -98.320 4.506 -29.265
v -87.250 4.506 -15.633
v -98.700 4.506 -6.335
v -109.770 4.506 -19.967
f 920 919 918 917
f 913 914 918 917
f 914 915 919 918
f 915 916 920 919
f 916 913 917 920
v -86.502 0.777 -20.435
v -80.277 0.777 -7.306
v -88.038 0.777 -3.625
v -94.263 0.777 -16.754
v -86.502 4.677 -20.435
v -80.277 4.677 -7.306
v -88.038 4.677 -3.625
v -94.263 4.677 -16.754
f 928 927 926 925
f 921 922 926 925
f 922 923 927 926
f 923 924 928 927
f 924 921 925 928
v 72.764 0.565 134.461
v 74.357 0.565 148.581
v 63.556 0.565 149.799
v 61.963 0.565 135.679
v 72.764 4.465 134.461
v 74.357 4.465 148.581
v 63.556 4.465 149.799
v 61.963 4.465 135.679
f 936 935 934 933
f 929 930 934 933
f 930 931 935 934
f 931 932 936 935
f 932 929 933 936
v 55.697 0.685 131.612
v 59.562 0.685 145.691
v 51.703 0.685 147.848
v 47.838 0.685 133.769
v 55.697 4.585 131.612
v 59.562 4.585 145.691
v 51.703 4.585 147.848
v 47.838 4.585 133.769
f 944 943 942 941
f 937 938 942 941
f 938 939 943 942
f 939 940 944 943
f 940 937 941 944
v 42.353 0.546 125.982
v 49.053 0.546 138.604
v 41.527 0.546 142.598
v 34.827 0.546 129.976
v 42.353 4.446 125.982
v 49.053 4.446 138.604
v 41.527 4.446 142.598
v 34.827 4.446 129.976
f 952 951 950 949
f 945 946 950 949
f 946 947 951 950
f 947 948 952 951
f 948 945 949 952
v 32.316 0.526 119.260
v 40.452 0.526 131.671
v 31.804 0.526 137.340
v 23.668 0.526 124.929
v 32.316 4.426 119.260
v 40.452 4.426 131.671
v 31.804 4.426 137.340
v 23.668 4.426 124.929
f 960 959 958 957
f 953 954 958 957
f 954 955 959 958
f 955 956 960 959
f 956 953 957 960
v 21.943 0.615 113.832
v 30.882 0.615 125.172
v 24.317 0.615 130.348
v 15.378 0.615 119.008
v 21.943 4.515 113.832
v 30.882 4.515 125.172
v 24.317 4.515 130.348
v 15.378 4.515 119.008
f 968 967 966 965
f 961 962 966 965
f 962 963 967 966
f 963 964 968 967
f 964 961 965 968
v 11.952 0.841 105.541
v 21.812 0.841 115.296
v 14.328 0.841 122.859
v 4.468 0.841 113.104
v 11.952 4.741 105.541
v 21.812 4.741 115.296
v 14.328 4.741 122.859
v 4.468 4.741 113.104
f 976 975 974 973
f 969 970 974 973
f 970 971 975 974
f 971 972 976 975
f 972 969 973 976
v 0.717 0.709 94.813
v 11.805 0.709 103.196
v 6.383 0.709 110.367
v -4.705 0.709 101.984
v 0.717 4.609 94.813
v 11.805 4.609 103.196
v 6.383 4.609 110.367
v -4.705 4.609 101.984
f 984 983 982 981
f 977 978 982 981
f 978 979 983 982
f 979 980 984 983
f 980 977 981 984
v -9.029 0.617 83.521
v 3.651 0.617 90.261
v -0.611 0.617 98.279
v -13.291 0.617 91.539
v -9.029 4.517 83.521
v 3.651 4.517 90.261
v -0.611 4.517 98.279
v -13.291 4.517 91.539
f 992 991 990 989
f 985 986 990 989
f 986 987 991 990
f 987 988 992 991
f 988 985 989 992
v -16.204 0.729 69.034
v -0.169 0.729 74.496
v -4.996 0.729 88.666
v -21.031 0.729 83.204
v -16.204 4.629 69.034
v -0.169 4.629 74.496
v -4.996 4.629 88.666
v -21.031 4.629 83.204
f 1000 999 998 997
f 993 994 998 997
f 994 995 999 998
f 995 996 1000 999
f 996 993 997 1000
v -26.887 0.874 56.078
v -6.956 0.874 57.964
v -8.473 0.874 74.002
v -28.404 0.874 72.116
v -26.887 4.774 56.078
v -6.956 4.774 57.964
v -8.473 4.774 74.002
v -28.404 4.774 72.116
f 1008 1007 1006 1005
f 1001 1002 1006 1005
f 1002 1003 1007 1006
f 1003 1004 1008 1007
f 1004 1001 1005 1008
v -30.364 0.803 44.875
v -17.011 0.803 52.054
v -21.576 0.803 60.545
v -34.929 0.803 53.366
v -30.364 4.703 44.875
v -17.011 4.703 52.054
v -21.576 4.703 60.545
v -34.929 4.703 53.366
f 1016 1015 1014 1013
f 1009 1010 1014 1013
f 1010 1011 1015 1014
f 1011 1012 1016 1015
f 1012 1009 1013 1016
v -36.170 0.600 32.028
v -23.654 0.600 38.987
v -28.650 0.600 47.972
v -41.166 0.600 41.013
v -36.170 4.500 32.028
v -23.654 4.500 38.987
v -28.650 4.500 47.972
v -41.166 4.500 41.013
f 1024 1023 1022 1021
f 1017 1018 1022 1021
f 1018 1019 1023 1022
f 1019 1020 1024 1023
f 1020 1017 1021 1024
v -42.828 0.606 19.760
v -31.110 0.606 28.078
v -36.152 0.606 35.180
v -47.870 0.606 26.862
v -42.828 4.506 19.760
v -31.110 4.506 28.078
v -36.152 4.506 35.180
v -47.870 4.506 26.862
f 1032 1031 1030 1029
f 1025 1026 1030 1029
f 1026 1027 1031 1030
f 1027 1028 1032 1031
f 1028 1025 1029 1032
v -51.361 0.715 8.306
v -41.030 0.715 17.858
v -48.219 0.715 25.634
v -58.550 0.715 16.082
v -51.361 4.615 8.306
v -41.030 4.615 17.858
v -48.219 4.615 25.634
v -58.550 4.615 16.082
f 1040 1039 1038 1037
f 1033 1034 1038 1037
f 1034 1035 1039 1038
f 1035 1036 1040 1039
f 1036 1033 1037 1040
v -59.161 0.723 -0.495
v -49.825 0.723 10.521
v -56.119 0.723 15.855
v -65.455 0.723 4.839
v -59.161 4.623 -0.495
v -49.825 4.623 10.521
v -56.119 4.623 15.855
v -65.455 4.623 4.839
f 1048 1047 1046 1045
f 1041 1042 1046 1045
f 1042 1043 1047 1046
f 1043 1044 1048 1047
f 1044 1041 1045 1048
v -67.196 0.736 -8.220
v -58.478 0.736 3.429
v -66.644 0.736 9.540
v -75.362 0.736 -2.109
v -67.196 4.636 -8.220
v -58.478 4.636 3.429
v -66.644 4.636 9.540
v -75.362 4.636 -2.109
f 1056 1055 1054 1053
f 1049 1050 1054 1053
f 1050 1051 1055 1054
f 1051 1052 1056 1055
f 1052 1049 1053 1056
v -76.960 0.680 -13.805
v -69.866 0.680 -1.793
v -77.280 0.680 2.585
v -84.374 0.680 -9.427
v -76.960 4.580 -13.805
v -69.866 4.580 -1.793
v -77.280 4.580 2.585
v -84.374 4.580 -9.427
f 1064 1063 1062 1061
f 1057 1058 1062 1061
f 1058 1059 1063 1062
f 1059 1060 1064 1063
f 1060 1057 1061 1064
usemtl road
v -105.010 1.107 180.215
v -81.130 1.273 186.305
v -79.770 1.232 180.975
v -103.650 1.133 174.885
f 1065 1066 1067 1068
v -80.613 1.276 186.385
v -67.963 1.296 187.135
v -67.637 1.272 181.645
v -80.287 1.233 180.895
f 1069 1070 1071 1072
v -67.967 1.296 187.135
v -59.237 1.327 187.665
v -58.903 1.286 182.175
v -67.633 1.272 181.645
f 1073 1074 1075 1076
v -58.830 1.327 187.660
v -32.190 1.272 185.330
v -32.670 1.304 179.850
v -59.310 1.285 182.180
f 1077 1078 1079 1080
v -31.728 1.265 185.249
v -4.778 1.318 178.129
v -6.182 1.192 172.811
v -33.132 1.305 179.931
f 1081 1082 1083 1084
v -3.995 1.321 177.785
v 14.745 1.127 165.765
v 11.775 1.080 161.135
v -6.965 1.200 173.155
f 1085 1086 1087 1088
v 14.988 1.124 165.590
v 31.458 1.085 152.290
v 28.002 0.993 148.010
v 11.532 1.082 161.310
f 1089 1090 1091 1092
v 248.776 1.143 58.122
v 226.726 1.166 67.072
v 228.794 1.210 72.168
v 250.844 1.082 63.218
f 1093 1094 1095 1096
v 226.652 1.166 67.103
v 181.212 1.227 87.103
v 183.428 1.377 92.137
v 228.868 1.209 72.137
f 1097 1098 1099 1100
v 180.972 1.228 87.223
v 161.302 1.326 98.283
v 163.998 1.396 103.077
v 183.668 1.376 92.017
f 1101 1102 1103 1104
v 161.023 1.326 98.463
v 145.863 1.213 109.593
v 149.117 1.127 114.027
v 164.277 1.397 102.897
f 1105 1106 1107 1108
v 145.712 1.211 109.712
v 133.532 1.176 120.032
v 137.088 1.080 124.228
v 149.268 1.129 113.908
f 1109 1110 1111 1112
v 133.259 1.177 120.298
v 127.639 1.163 126.588
v 131.741 1.083 130.252
v 137.361 1.077 123.962
f 1113 1114 1115 1116
v 127.828 1.164 126.396
v 113.338 1.092 139.726
v 117.062 1.102 143.774
v 131.552 1.084 130.444
f 1117 1118 1119 1120
v 113.540 1.094 139.557
v 100.870 1.191 149.147
v 104.190 1.209 153.533
v 116.860 1.102 143.943
f 1121 1122 1123 1124
v 101.404 1.190 148.831
v 87.564 1.200 155.041
v 89.816 1.210 160.059
v 103.656 1.198 153.849
f 1125 1126 1127 1128
v 88.219 1.202 154.841
v 74.479 1.282 157.231
v 75.421 1.231 162.649
v 89.161 1.222 160.259
f 1129 1130 1131 1132
v 75.235 1.281 157.205
v 55.335 1.233 155.135
v 54.765 1.238 160.605
v 74.665 1.228 162.675
f 1133 1134 1135 1136
v 56.042 1.238 155.305
v 43.092 1.388 150.295
v 41.108 1.156 155.425
v 54.058 1.232 160.435
f 1137 1138 1139 1140
v 42.689 1.373 150.174
v 30.319 1.019 147.464
v 29.141 1.028 152.836
v 41.511 1.158 155.546
f 1141 1142 1143 1144
v 31.570 1.042 148.106
v 6.840 1.242 125.836
v 3.160 1.241 129.924
v 27.890 0.986 152.194
f 1145 1146 1147 1148
v 7.089 1.241 126.091
v -19.061 1.046 95.561
v -23.239 1.213 99.139
v 2.911 1.242 129.669
f 1149 1150 1151 1152
v -18.746 1.053 96.014
v -44.976 1.231 48.804
v -49.784 1.240 51.476
v -23.554 1.209 98.686
f 1153 1154 1155 1156
v -45.021 1.232 48.727
v -50.851 1.279 38.997
v -55.569 1.269 41.823
v -49.739 1.239 51.553
f 1157 1158 1159 1160
v -51.109 1.276 38.636
v -70.769 1.240 15.356
v -74.971 1.217 18.904
v -55.311 1.270 42.184
f 1161 1162 1163 1164
v -71.581 1.237 14.701
v -112.751 1.030 -7.139
v -115.329 1.050 -2.281
v -74.159 1.214 19.559
f 1165 1166 1167 1168
v -112.797 1.028 -7.163
v -204.277 1.164 -53.523
v -206.763 1.178 -48.617
v -115.283 1.049 -2.257
f 1169 1170 1171 1172
v -204.880 1.162 -53.744
v -216.990 1.092 -56.644
v -218.270 1.118 -51.296
v -206.160 1.171 -48.396
f 1173 1174 1175 1176
v -216.505 1.098 -56.479
v -227.165 1.085 -61.259
v -229.415 1.083 -56.241
v -218.755 1.117 -51.461
f 1177 1178 1179 1180
v -228.780 1.111 -61.456
v -246.180 1.172 -58.306
v -245.200 1.905 -52.894
v -227.800 1.047 -56.044
f 1181 1182 1183 1184
v -247.087 1.174 -57.969
v -257.397 1.294 -51.887
v -254.603 2.129 -47.149
v -244.293 1.881 -53.231
f 1185 1186 1187 1188
v -153.450 1.236 257.549
v -137.880 1.209 242.369
v -141.720 1.189 238.431
v -157.290 1.283 253.611
f 1189 1190 1191 1192
v -137.625 1.211 242.083
v -120.675 1.288 220.173
v -125.025 1.255 216.807
v -141.975 1.187 238.717
f 1193 1194 1195 1196
v -120.344 1.289 219.623
v -101.824 1.141 178.683
v -106.836 1.133 176.417
v -125.356 1.256 217.357
f 1197 1198 1199 1200
v -101.584 1.142 177.701
v -100.184 1.250 152.161
v -105.676 1.212 151.859
v -107.076 1.132 177.399
f 1201 1202 1203 1204
v -100.206 1.252 151.634
v -104.666 1.182 119.364
v -110.114 1.117 120.116
v -105.654 1.212 152.386
f 1205 1206 1207 1208
v -104.858 1.169 118.666
v -123.878 1.254 73.836
v -128.942 1.340 75.984
v -109.922 1.120 120.814
f 1209 1210 1211 1212
v -123.877 1.254 73.838
v -132.467 1.248 53.538
v -137.533 1.313 55.682
v -128.943 1.340 75.982
f 1213 1214 1215 1216
v -132.283 1.246 55.034
v -128.913 1.227 33.434
v -134.347 1.260 32.586
v -137.717 1.353 54.186
f 1217 1218 1219 1220
v -129.138 1.238 34.172
v -111.548 1.060 -3.548
v -116.532 1.061 -5.872
v -134.122 1.246 31.848
f 1221 1222 1223 1224
v 113.607 1.090 143.992
v 125.637 1.150 152.542
v 128.823 1.132 148.058
v 116.793 1.118 139.508
f 1225 1226 1227 1228
v 126.249 1.149 152.869
v 136.829 1.241 156.909
v 138.791 1.170 151.771
v 128.211 1.133 147.731
f 1229 1230 1231 1232
v 137.031 1.245 156.977
v 148.131 1.254 160.257
v 149.689 1.216 154.983
v 138.589 1.168 151.703
f 1233 1234 1235 1236
v 148.491 1.256 160.338
v 160.051 1.255 162.118
v 160.889 1.240 156.682
v 149.329 1.217 154.902
f 1237 1238 1239 1240
v 159.942 1.255 162.099
v 170.472 1.257 164.159
v 171.528 1.186 158.761
v 160.998 1.240 156.701
f 1241 1242 1243 1244
v 170.286 1.254 164.116
v 180.556 1.149 166.876
v 181.984 1.159 161.564
v 171.714 1.185 158.804
f 1245 1246 1247 1248
v 179.969 1.159 166.643
v 191.349 1.141 172.753
v 193.951 1.097 167.907
v 182.571 1.163 161.797
f 1249 1250 1251 1252
v 190.719 1.146 172.288
v 197.449 1.117 178.928
v 201.311 1.022 175.012
v 194.581 1.093 168.372
f 1253 1254 1255 1256
v 197.223 1.114 178.676
v 200.973 1.155 183.416
v 205.287 1.201 180.004
v 201.537 1.035 175.264
f 1257 1258 1259 1260
v 200.769 1.156 183.119
v 203.329 1.184 187.409
v 208.051 1.183 184.591
v 205.491 1.199 180.301
f 1261 1262 1263 1264
v 203.022 1.178 186.665
v 203.842 1.209 189.955
v 209.178 1.223 188.625
v 208.358 1.187 185.335
f 1265 1266 1267 1268
v 203.940 1.212 190.270
v 205.930 1.232 195.490
v 211.070 1.321 193.530
v 209.080 1.218 188.310
f 1269 1270 1271 1272
v 206.200 1.233 196.017
v 209.450 1.248 200.977
v 214.050 1.245 197.963
v 210.800 1.330 193.003
f 1273 1274 1275 1276
v 209.637 1.250 201.230
v 211.927 1.282 203.980
v 216.153 1.228 200.460
v 213.863 1.248 197.710
f 1277 1278 1279 1280
v 214.789 1.288 204.866
v 220.299 1.306 203.306
v 218.801 1.231 198.014
v 213.291 1.242 199.574
f 1281 1282 1283 1284
v 220.422 1.307 203.268
v 224.222 1.330 201.998
v 222.478 1.226 196.782
v 218.678 1.231 198.052
f 1285 1286 1287 1288
v 224.525 1.331 201.876
v 228.335 1.346 200.076
v 225.985 1.244 195.104
v 222.175 1.226 196.904
f 1289 1290 1291 1292
v 228.978 1.345 199.653
v 232.178 1.318 196.833
v 228.542 1.247 192.707
v 225.342 1.241 195.527
f 1293 1294 1295 1296
v 233.110 1.294 194.788
v 233.140 1.276 190.258
v 227.640 1.235 190.222
v 227.610 1.255 194.752
f 1297 1298 1299 1300
v 233.063 1.277 189.594
v 231.813 1.270 184.424
v 226.467 1.220 185.716
v 227.717 1.236 190.886
f 1301 1302 1303 1304
v 230.860 1.248 182.924
v 228.540 1.195 181.064
v 225.100 1.212 185.356
v 227.420 1.232 187.216
f 1305 1306 1307 1308
v 228.017 1.188 180.734
v 224.707 1.180 179.134
v 222.313 1.209 184.086
v 225.623 1.218 185.686
f 1309 1310 1311 1312
v 222.622 1.188 179.007
v 216.552 1.179 181.077
v 218.328 1.219 186.283
v 224.398 1.200 184.213
f 1313 1314 1315 1316
v 216.299 1.180 181.178
v 210.929 1.200 183.628
v 213.211 1.251 188.632
v 218.581 1.219 186.182
f 1317 1318 1319 1320
v 210.711 1.198 183.739
v 205.151 1.188 186.899
v 207.869 1.253 191.681
v 213.429 1.245 188.521
f 1321 1322 1323 1324
usemtl asphalt
