# Baked ultra-low Key West silhouette; generated by bake_key_west_far_city.py
mtllib far_city.mtl
usemtl massing
v -221.152 2.364 -209.123
v -176.342 2.364 -225.181
v -167.388 2.364 -200.197
v -212.198 2.364 -184.139
v -221.152 8.164 -209.123
v -176.342 8.164 -225.181
v -167.388 8.164 -200.197
v -212.198 8.164 -184.139
f 8 7 6 5
f 1 2 6 5
f 2 3 7 6
f 3 4 8 7
f 4 1 5 8
v -63.326 0.756 -197.816
v -21.948 0.756 -177.356
v -35.334 0.756 -150.284
v -76.712 0.756 -170.744
v -63.326 9.056 -197.816
v -21.948 9.056 -177.356
v -35.334 9.056 -150.284
v -76.712 9.056 -170.744
f 16 15 14 13
f 9 10 14 13
f 10 11 15 14
f 11 12 16 15
f 12 9 13 16
v -258.623 1.082 -125.664
v -221.902 1.082 -150.354
v -195.397 1.082 -110.936
v -232.118 1.082 -86.246
v -258.623 9.382 -125.664
v -221.902 9.382 -150.354
v -195.397 9.382 -110.936
v -232.118 9.382 -86.246
f 24 23 22 21
f 17 18 22 21
f 18 19 23 22
f 19 20 24 23
f 20 17 21 24
v -115.103 2.054 -232.725
v -102.852 2.054 -195.194
v -122.397 2.054 -188.815
v -134.648 2.054 -226.346
v -115.103 7.854 -232.725
v -102.852 7.854 -195.194
v -122.397 7.854 -188.815
v -134.648 7.854 -226.346
f 32 31 30 29
f 25 26 30 29
f 26 27 31 30
f 27 28 32 31
f 28 25 29 32
v -151.504 2.392 -155.754
v -144.407 2.392 -104.847
v -177.556 2.392 -100.226
v -184.653 2.392 -151.133
v -151.504 10.692 -155.754
v -144.407 10.692 -104.847
v -177.556 10.692 -100.226
v -184.653 10.692 -151.133
f 40 39 38 37
f 33 34 38 37
f 34 35 39 38
f 35 36 40 39
f 36 33 37 40
v -252.400 2.403 -159.584
v -200.538 2.403 -176.910
v -188.760 2.403 -141.656
v -240.622 2.403 -124.330
v -252.400 10.703 -159.584
v -200.538 10.703 -176.910
v -188.760 10.703 -141.656
v -240.622 10.703 -124.330
f 48 47 46 45
f 41 42 46 45
f 42 43 47 46
f 43 44 48 47
f 44 41 45 48
v -189.050 2.193 -165.199
v -182.058 2.193 -115.307
v -194.230 2.193 -113.601
v -201.222 2.193 -163.493
v -189.050 7.993 -165.199
v -182.058 7.993 -115.307
v -194.230 7.993 -113.601
v -201.222 7.993 -163.493
f 56 55 54 53
f 49 50 54 53
f 50 51 55 54
f 51 52 56 55
f 52 49 53 56
v -165.240 2.320 -171.114
v -105.518 2.320 -191.851
v -94.940 2.320 -161.386
v -154.662 2.320 -140.649
v -165.240 10.620 -171.114
v -105.518 10.620 -191.851
v -94.940 10.620 -161.386
v -154.662 10.620 -140.649
f 64 63 62 61
f 57 58 62 61
f 58 59 63 62
f 59 60 64 63
f 60 57 61 64
v -227.781 1.484 -181.097
v -205.956 1.484 -184.821
v -204.639 1.484 -177.103
v -226.464 1.484 -173.379
v -227.781 5.384 -181.097
v -205.956 5.384 -184.821
v -204.639 5.384 -177.103
v -226.464 5.384 -173.379
f 72 71 70 69
f 65 66 70 69
f 66 67 71 70
f 67 68 72 71
f 68 65 69 72
v -71.615 0.983 -190.287
v -57.969 0.983 -202.254
v -52.285 0.983 -195.773
v -65.931 0.983 -183.806
v -71.615 4.883 -190.287
v -57.969 4.883 -202.254
v -52.285 4.883 -195.773
v -65.931 4.883 -183.806
f 80 79 78 77
f 73 74 78 77
f 74 75 79 78
f 75 76 80 79
f 76 73 77 80
v -97.406 1.569 -200.286
v -71.605 1.569 -207.078
v -67.934 1.569 -193.134
v -93.735 1.569 -186.342
v -97.406 5.469 -200.286
v -71.605 5.469 -207.078
v -67.934 5.469 -193.134
v -93.735 5.469 -186.342
f 88 87 86 85
f 81 82 86 85
f 82 83 87 86
f 83 84 88 87
f 84 81 85 88
v -88.592 0.756 -78.591
v -84.005 0.756 -83.253
v -79.408 0.756 -78.729
v -83.995 0.756 -74.067
v -88.592 4.656 -78.591
v -84.005 4.656 -83.253
v -79.408 4.656 -78.729
v -83.995 4.656 -74.067
f 96 95 94 93
f 89 90 94 93
f 90 91 95 94
f 91 92 96 95
f 92 89 93 96
v -47.254 1.346 -142.190
v -19.326 1.346 -127.663
v -25.366 1.346 -116.050
v -53.294 1.346 -130.577
v -47.254 5.246 -142.190
v -19.326 5.246 -127.663
v -25.366 5.246 -116.050
v -53.294 5.246 -130.577
f 104 103 102 101
f 97 98 102 101
f 98 99 103 102
f 99 100 104 103
f 100 97 101 104
v -120.803 1.426 100.911
v -89.566 1.426 109.847
v -95.397 1.426 130.229
v -126.634 1.426 121.293
v -120.803 7.226 100.911
v -89.566 7.226 109.847
v -95.397 7.226 130.229
v -126.634 7.226 121.293
f 112 111 110 109
f 105 106 110 109
f 106 107 111 110
f 107 108 112 111
f 108 105 109 112
v 245.211 1.439 -275.815
v 265.105 1.439 -246.909
v 244.989 1.439 -233.065
v 225.095 1.439 -261.971
v 245.211 5.339 -275.815
v 265.105 5.339 -246.909
v 244.989 5.339 -233.065
v 225.095 5.339 -261.971
f 120 119 118 117
f 113 114 118 117
f 114 115 119 118
f 115 116 120 119
f 116 113 117 120
v -30.572 2.095 -3.266
v -2.697 2.095 10.458
v -10.568 2.095 26.446
v -38.443 2.095 12.722
v -30.572 7.895 -3.266
v -2.697 7.895 10.458
v -10.568 7.895 26.446
v -38.443 7.895 12.722
f 128 127 126 125
f 121 122 126 125
f 122 123 127 126
f 123 124 128 127
f 124 121 125 128
v -109.590 1.061 118.681
v -81.543 1.061 130.041
v -83.810 1.061 135.639
v -111.857 1.061 124.279
v -109.590 4.961 118.681
v -81.543 4.961 130.041
v -83.810 4.961 135.639
v -111.857 4.961 124.279
f 136 135 134 133
f 129 130 134 133
f 130 131 135 134
f 131 132 136 135
f 132 129 133 136
v -196.752 0.920 86.013
v -166.427 0.920 14.812
v -112.108 0.920 37.947
v -142.433 0.920 109.148
v -196.752 9.220 86.013
v -166.427 9.220 14.812
v -112.108 9.220 37.947
v -142.433 9.220 109.148
f 144 143 142 141
f 137 138 142 141
f 138 139 143 142
f 139 140 144 143
f 140 137 141 144
v -65.552 -0.300 0.658
v 28.905 -0.300 42.870
v 2.372 -0.300 102.242
v -92.085 -0.300 60.030
v -65.552 8.000 0.658
v 28.905 8.000 42.870
v 2.372 8.000 102.242
v -92.085 8.000 60.030
f 152 151 150 149
f 145 146 150 149
f 146 147 151 150
f 147 148 152 151
f 148 145 149 152
v -18.715 1.759 -3.740
v 3.161 1.759 -22.763
v 18.155 1.759 -5.520
v -3.721 1.759 13.503
v -18.715 5.259 -3.740
v 3.161 5.259 -22.763
v 18.155 5.259 -5.520
v -3.721 5.259 13.503
f 160 159 158 157
f 153 154 158 157
f 154 155 159 158
f 155 156 160 159
f 156 153 157 160
v -143.723 0.992 141.764
v -137.529 0.992 127.851
v -129.837 0.992 131.276
v -136.031 0.992 145.189
v -143.723 4.892 141.764
v -137.529 4.892 127.851
v -129.837 4.892 131.276
v -136.031 4.892 145.189
f 168 167 166 165
f 161 162 166 165
f 162 163 167 166
f 163 164 168 167
f 164 161 165 168
v -121.986 0.636 131.110
v -113.695 0.636 135.121
v -115.354 0.636 138.550
v -123.645 0.636 134.539
v -121.986 4.536 131.110
v -113.695 4.536 135.121
v -115.354 4.536 138.550
v -123.645 4.536 134.539
f 176 175 174 173
f 169 170 174 173
f 170 171 175 174
f 171 172 176 175
f 172 169 173 176
usemtl road
v -142.108 1.162 -27.079
v -123.158 1.317 5.951
v -120.122 1.299 4.209
v -139.072 1.155 -28.821
f 177 178 179 180
v -123.198 1.317 5.876
v -116.348 1.438 19.286
v -113.232 1.389 17.694
v -120.082 1.299 4.284
f 181 182 183 184
v -116.347 1.438 19.290
v -106.537 1.741 38.380
v -103.423 1.742 36.780
v -113.233 1.389 17.690
f 185 186 187 188
v -104.162 1.768 39.127
v -63.062 1.871 17.387
v -64.698 1.780 14.293
v -105.798 1.720 36.033
f 189 190 191 192
v -63.057 1.871 17.384
v -58.947 1.863 15.194
v -60.593 1.785 12.106
v -64.703 1.780 14.296
f 193 194 195 196
v -58.995 1.864 15.219
v -54.865 1.885 13.179
v -56.415 1.782 10.041
v -60.545 1.785 12.081
f 197 198 199 200
v 250.034 1.164 250.936
v 225.844 1.107 225.746
v 220.796 1.141 230.594
v 244.986 1.210 255.784
f 201 202 203 204
v 226.335 1.107 226.392
v 193.595 1.082 170.892
v 187.565 1.092 174.448
v 220.305 1.135 229.948
f 205 206 207 208
v 193.602 1.082 170.904
v 176.382 1.161 141.434
v 170.338 1.154 144.966
v 187.558 1.092 174.436
f 209 210 211 212
v 176.685 1.166 142.106
v 168.135 1.101 116.126
v 161.485 1.183 118.314
v 170.035 1.155 144.294
f 213 214 215 216
v 168.187 1.103 116.302
v 156.307 1.251 72.602
v 149.553 1.283 74.438
v 161.433 1.183 118.138
f 217 218 219 220
v 156.355 1.253 72.797
v 141.835 1.091 4.007
v 134.985 1.152 5.453
v 149.505 1.283 74.243
f 221 222 223 224
v 141.662 1.097 3.436
v 127.742 1.019 -31.554
v 121.238 1.068 -28.966
v 135.158 1.153 6.024
f 225 226 227 228
v 127.492 1.016 -32.060
v 114.302 0.996 -54.060
v 108.298 1.048 -50.460
v 121.488 1.065 -28.460
f 229 230 231 232
v 113.985 0.996 -54.505
v 98.915 1.083 -72.525
v 93.545 1.110 -68.035
v 108.615 1.048 -50.015
f 233 234 235 236
v 98.231 1.075 -73.151
v 76.581 1.127 -88.241
v 72.579 1.164 -82.499
v 94.229 1.108 -67.409
f 237 238 239 240
v 75.864 1.132 -88.626
v 54.184 1.152 -97.176
v 51.616 1.209 -90.664
v 73.296 1.158 -82.114
f 241 242 243 244
v 53.701 1.156 -97.327
v 30.531 1.249 -102.777
v 28.929 1.286 -95.963
v 52.099 1.205 -90.513
f 245 246 247 248
v 29.602 1.247 -102.868
v 4.532 1.175 -101.948
v 4.788 1.211 -94.952
v 29.858 1.284 -95.872
f 249 250 251 252
v 3.716 1.170 -101.820
v -19.384 1.109 -95.350
v -17.496 1.156 -88.610
v 5.604 1.214 -95.080
f 253 254 255 256
v -20.060 1.103 -95.083
v -86.150 0.949 -60.583
v -82.910 1.108 -54.377
v -16.820 1.160 -88.877
f 257 258 259 260
v -166.939 1.162 -16.876
v -190.219 1.181 -4.246
v -186.881 1.074 1.906
v -163.601 1.071 -10.724
f 261 262 263 264
v -190.144 1.181 -4.286
v -227.234 1.252 14.684
v -224.046 1.241 20.916
v -186.956 1.074 1.946
f 265 266 267 268
v -227.202 1.252 14.668
v -235.102 1.225 18.608
v -231.978 1.255 24.872
v -224.078 1.241 20.932
f 269 270 271 272
v -235.298 1.224 18.713
v -254.428 1.354 29.823
v -250.912 1.318 35.877
v -231.782 1.253 24.767
f 273 274 275 276
v -254.435 1.354 29.828
v -257.765 1.353 31.772
v -254.235 1.316 37.817
v -250.905 1.318 35.872
f 277 278 279 280
v -106.507 1.741 38.435
v -88.757 1.507 70.115
v -85.703 1.488 68.405
v -103.453 1.741 36.725
f 281 282 283 284
v -88.974 1.525 69.109
v -91.864 1.304 102.589
v -88.376 1.211 102.891
v -85.486 1.452 69.411
f 285 286 287 288
v -90.815 1.286 104.346
v -71.855 1.171 112.546
v -70.465 1.140 109.334
v -89.425 1.261 101.134
f 289 290 291 292
v -70.344 1.142 112.488
v 39.156 0.599 54.738
v 37.524 1.330 51.642
v -71.976 1.144 109.392
f 293 294 295 296
v 39.739 0.706 54.241
v 47.399 1.570 44.041
v 44.601 1.808 41.939
v 36.941 1.325 52.139
f 297 298 299 300
v -22.279 1.245 -30.242
v -61.039 1.454 -11.292
v -59.501 1.500 -8.148
v -20.741 1.291 -27.098
f 301 302 303 304
v 7.133 1.183 -61.088
v -17.507 1.210 -52.308
v -16.333 1.198 -49.012
v 8.307 1.164 -57.792
f 305 306 307 308
v -17.702 1.207 -52.225
v -68.762 1.247 -26.715
v -67.198 1.281 -23.585
v -16.138 1.200 -49.095
f 309 310 311 312
v -49.082 1.836 8.324
v -58.712 1.439 -10.516
v -61.828 1.533 -8.924
v -52.198 1.818 9.916
f 313 314 315 316
v -58.705 1.439 -10.502
v -66.415 1.248 -25.932
v -69.545 1.293 -24.368
v -61.835 1.532 -8.938
f 317 318 319 320
v -66.422 1.248 -25.947
v -82.972 1.051 -58.277
v -86.088 1.045 -56.683
v -69.538 1.293 -24.353
f 321 322 323 324
v -114.038 1.443 20.070
v -67.568 1.608 -2.050
v -69.072 1.549 -5.210
v -115.542 1.412 16.910
f 325 326 327 328
v -76.141 1.360 -18.490
v -122.391 1.303 3.500
v -120.889 1.337 6.660
v -74.639 1.397 -15.330
f 329 330 331 332
v -170.970 1.260 31.477
v -135.560 1.105 13.847
v -137.120 1.077 10.713
v -172.530 1.188 28.343
f 333 334 335 336
v -137.891 1.098 13.091
v -129.641 1.339 28.861
v -126.539 1.321 27.239
v -134.789 1.090 11.469
f 337 338 339 340
v 30.156 1.657 2.858
v 45.386 1.380 -4.682
v 43.834 1.361 -7.818
v 28.604 1.635 -0.278
f 341 342 343 344
v 43.071 1.400 -5.416
v 44.751 1.411 -2.316
v 47.829 1.350 -3.984
v 46.149 1.342 -7.084
f 345 346 347 348
v 44.720 1.411 -2.376
v 59.990 1.742 28.594
v 63.130 1.706 27.046
v 47.860 1.350 -3.924
f 349 350 351 352
v 77.056 1.532 17.993
v 63.616 1.326 -11.937
v 60.424 1.327 -10.503
v 73.864 1.572 19.427
f 353 354 355 356
v 61.221 1.343 -12.777
v 45.491 1.378 -4.707
v 47.089 1.380 -1.593
v 62.819 1.330 -9.663
f 357 358 359 360
v -96.706 1.035 -52.271
v -76.926 1.333 -16.071
v -73.854 1.483 -17.749
v -93.634 1.028 -53.949
f 361 362 363 364
v -76.935 1.333 -16.088
v -69.865 1.541 -2.808
v -66.775 1.670 -4.452
v -73.845 1.484 -17.732
f 365 366 367 368
v -69.889 1.540 -2.854
v -61.339 1.806 14.426
v -58.201 1.799 12.874
v -66.751 1.670 -4.406
f 369 370 371 372
v -135.417 1.269 87.840
v -104.917 1.687 72.340
v -106.503 1.688 69.220
v -137.003 1.301 84.720
f 373 374 375 376
v 138.093 1.076 3.009
v 108.303 1.268 8.489
v 108.937 1.267 11.931
v 138.727 1.077 6.451
f 377 378 379 380
v 108.304 1.268 8.489
v 100.304 1.352 9.959
v 100.936 1.341 13.401
v 108.936 1.267 11.931
f 381 382 383 384
v 100.149 1.353 9.995
v 74.989 1.541 17.025
v 75.931 1.543 20.395
v 101.091 1.339 13.365
f 385 386 387 388
v 74.501 1.545 17.246
v 60.601 1.738 26.356
v 62.519 1.695 29.284
v 76.419 1.537 20.174
f 389 390 391 392
v 60.540 1.739 26.398
v 46.910 1.904 36.178
v 48.950 1.847 39.022
v 62.580 1.694 29.242
f 393 394 395 396
v 46.282 1.909 37.010
v 44.352 1.784 42.400
v 47.648 1.599 43.580
v 49.578 1.843 38.190
f 397 398 399 400
v -108.654 1.265 -75.626
v -102.524 1.170 -64.136
v -99.436 1.219 -65.784
v -105.566 1.282 -77.274
f 401 402 403 404
v -102.551 1.171 -64.190
v -96.741 1.034 -52.340
v -93.599 1.030 -53.880
v -99.409 1.218 -65.730
f 405 406 407 408
v -83.050 1.047 -58.413
v -97.780 1.269 -81.783
v -100.740 1.288 -79.917
v -86.010 1.048 -56.547
f 409 410 411 412
v 46.579 1.807 41.339
v 39.939 1.953 39.009
v 38.781 1.944 42.311
v 45.421 1.594 44.641
f 413 414 415 416
v 39.194 1.956 38.918
v 27.364 2.056 40.048
v 27.696 2.050 43.532
v 39.526 1.925 42.402
f 417 418 419 420
v 29.064 2.050 40.948
v 12.074 1.946 9.978
v 9.006 1.976 11.662
v 25.996 2.064 42.632
f 421 422 423 424
v 11.330 1.976 12.382
v 30.170 1.657 2.852
v 28.590 1.635 -0.272
v 9.750 1.939 9.258
f 425 426 427 428
v 27.822 1.683 2.086
v 46.372 1.898 38.396
v 49.488 1.872 36.804
v 30.938 1.617 0.494
f 429 430 431 432
v -49.724 1.915 10.611
v -46.584 1.879 8.681
v -48.416 1.788 5.699
v -51.556 1.789 7.629
f 433 434 435 436
v -46.583 1.879 8.681
v -18.593 1.748 -8.539
v -20.427 1.686 -11.521
v -48.417 1.788 5.699
f 437 438 439 440
v -17.811 1.765 -9.610
v -15.381 1.599 -19.450
v -18.779 1.526 -20.290
v -21.209 1.694 -10.450
f 441 442 443 444
v -15.517 1.571 -20.657
v -19.947 1.256 -29.457
v -23.073 1.273 -27.883
v -18.643 1.572 -19.083
f 445 446 447 448
v -20.397 1.290 -27.320
v -10.307 1.280 -35.640
v -12.533 1.220 -38.340
v -22.623 1.247 -30.020
f 449 450 451 452
v -9.796 1.268 -37.643
v -15.296 1.221 -51.313
v -18.544 1.190 -50.007
v -13.044 1.231 -36.337
f 453 454 455 456
v -150.059 2.340 41.900
v -127.259 1.350 29.590
v -128.921 1.310 26.510
v -151.721 2.200 38.820
f 457 458 459 460
v -129.640 1.339 28.862
v -107.260 1.671 71.592
v -104.160 1.693 69.968
v -126.540 1.321 27.238
f 461 462 463 464
v -105.567 1.682 72.524
v -87.087 1.458 71.004
v -87.373 1.514 67.516
v -105.853 1.690 69.036
f 465 466 467 468
v -156.630 2.332 45.441
v -150.060 2.340 41.901
v -151.720 2.200 38.819
v -158.290 2.261 42.359
f 469 470 471 472
v -190.089 1.194 -0.338
v -173.289 1.248 30.742
v -170.211 1.193 29.078
v -187.011 1.189 -2.002
f 473 474 475 476
v -173.319 1.247 30.685
v -168.219 1.517 41.005
v -165.081 1.640 39.455
v -170.181 1.194 29.135
f 477 478 479 480
v -168.001 1.527 41.342
v -166.321 1.613 43.382
v -163.619 1.774 41.158
v -165.299 1.623 39.118
f 481 482 483 484
v -165.884 1.633 43.762
v -163.614 1.755 45.152
v -161.786 1.938 42.168
v -164.056 1.736 40.778
f 485 486 487 488
v -163.073 1.783 45.370
v -160.463 1.973 45.940
v -159.717 2.132 42.520
v -162.327 1.889 41.950
f 489 490 491 492
v -159.872 2.035 45.966
v -157.242 2.294 45.636
v -157.678 2.310 42.164
v -160.308 2.074 42.494
f 493 494 495 496
v -222.509 1.647 -252.793
v -221.549 1.527 -227.803
v -218.051 1.608 -227.937
v -219.011 1.769 -252.927
f 497 498 499 500
v -221.306 1.550 -228.762
v -238.296 1.255 -200.082
v -235.284 1.318 -198.298
v -218.294 1.559 -226.978
f 501 502 503 504
v -238.398 1.253 -199.881
v -250.098 1.345 -172.671
v -246.882 1.456 -171.289
v -235.182 1.318 -198.499
f 505 506 507 508
v -250.223 1.345 -172.222
v -254.593 1.320 -140.922
v -251.127 1.398 -140.438
v -246.757 1.451 -171.738
f 509 510 511 512
v -254.606 1.319 -140.794
v -257.246 1.287 -100.324
v -253.754 1.263 -100.096
v -251.114 1.402 -140.566
f 513 514 515 516
v -256.188 1.293 -98.601
v -242.418 1.331 -92.711
v -241.042 1.318 -95.929
v -254.812 1.258 -101.819
f 517 518 519 520
v -243.463 1.298 -94.565
v -253.673 1.214 -22.455
v -250.207 1.220 -21.965
v -239.997 1.340 -94.075
f 521 522 523 524
v -252.355 1.222 -20.510
v -229.265 1.226 -14.870
v -228.435 1.203 -18.270
v -251.525 1.213 -23.910
f 525 526 527 528
v -229.080 1.226 -14.835
v -222.810 1.249 -14.005
v -222.350 1.223 -17.475
v -228.620 1.202 -18.305
f 529 530 531 532
v -221.766 1.255 -14.191
v -106.296 1.261 -74.901
v -107.924 1.289 -77.999
v -223.394 1.217 -17.289
f 533 534 535 536
v -106.297 1.261 -74.900
v -102.237 1.282 -77.030
v -103.863 1.291 -80.130
v -107.923 1.289 -78.000
f 537 538 539 540
v -102.151 1.283 -77.079
v -98.361 1.271 -79.349
v -100.159 1.287 -82.351
v -103.949 1.291 -80.081
f 541 542 543 544
v -139.934 1.937 -245.925
v -95.474 1.684 -228.945
v -94.226 1.707 -232.215
v -138.686 1.877 -249.195
f 545 546 547 548
v -96.534 1.697 -231.054
v -105.954 1.404 -197.604
v -102.586 1.372 -196.656
v -93.166 1.690 -230.106
f 549 550 551 552
v -105.810 1.391 -196.300
v -79.250 1.276 -147.030
v -76.170 1.349 -148.690
v -102.730 1.394 -197.960
f 553 554 555 556
v -79.251 1.276 -147.030
v -64.941 1.318 -120.450
v -61.859 1.354 -122.110
v -76.169 1.349 -148.690
f 557 558 559 560
v -64.967 1.326 -122.059
v -75.947 1.179 -99.989
v -72.813 1.212 -98.431
v -61.833 1.334 -120.501
f 561 562 563 564
v -75.510 1.176 -100.546
v -91.200 1.233 -87.276
v -88.940 1.237 -84.604
v -73.250 1.214 -97.874
f 565 566 567 568
v -90.918 1.231 -87.471
v -100.108 1.287 -82.381
v -98.412 1.271 -79.319
v -89.222 1.238 -84.409
f 569 570 571 572
v -251.486 1.213 -23.900
v -255.546 1.222 -24.990
v -256.454 1.237 -21.609
v -252.394 1.222 -20.520
f 573 574 575 576
v -242.355 1.332 -92.685
v -220.935 1.237 -84.495
v -219.685 1.217 -87.765
v -241.105 1.317 -95.955
f 577 578 579 580
v -220.841 1.236 -84.463
v -195.171 1.206 -76.283
v -194.109 1.230 -79.617
v -219.779 1.218 -87.797
f 581 582 583 584
v -193.931 1.214 -76.350
v -118.381 1.314 -109.840
v -119.799 1.318 -113.040
v -195.349 1.214 -79.550
f 585 586 587 588
v -120.663 1.313 -110.672
v -113.793 1.330 -96.602
v -110.647 1.311 -98.138
v -117.517 1.327 -112.208
f 589 590 591 592
v -113.793 1.330 -96.602
v -104.623 1.286 -77.812
v -101.477 1.289 -79.348
v -110.647 1.311 -98.138
f 593 594 595 596
v -113.030 1.321 -98.921
v -227.030 1.212 -39.431
v -225.410 1.191 -36.329
v -111.410 1.316 -95.819
f 597 598 599 600
v -227.957 1.227 -38.094
v -230.587 1.216 -16.784
v -227.113 1.221 -16.356
v -224.483 1.188 -37.666
f 601 602 603 604
v -224.483 1.188 -37.667
v -218.573 1.206 -85.917
v -222.047 1.249 -86.343
v -227.957 1.227 -38.093
f 605 606 607 608
v -111.157 1.314 -95.980
v -93.997 1.212 -109.110
v -96.123 1.218 -111.890
v -113.283 1.322 -98.760
f 609 610 611 612
v -93.681 1.205 -109.423
v -86.851 1.202 -118.173
v -89.609 1.185 -120.327
v -96.439 1.224 -111.577
f 613 614 615 616
v -86.706 1.203 -118.390
v -79.566 1.298 -131.040
v -82.614 1.303 -132.760
v -89.754 1.182 -120.110
f 617 618 619 620
v -79.378 1.299 -131.537
v -75.998 1.350 -147.497
v -79.422 1.284 -148.223
v -82.802 1.301 -132.263
f 621 622 623 624
v -178.517 1.773 -251.224
v -159.667 1.805 -244.774
v -158.533 1.757 -248.086
v -177.383 1.686 -254.536
f 625 626 627 628
v -65.629 1.805 15.779
v -65.829 1.945 21.519
v -62.331 2.029 21.641
v -62.131 1.840 15.901
f 629 630 631 632
v -65.755 1.966 22.086
v -64.285 2.047 26.956
v -60.935 2.102 25.944
v -62.405 2.010 21.074
f 633 634 635 636
v -63.696 2.070 27.822
v -59.236 2.176 31.352
v -57.064 2.248 28.608
v -61.524 2.087 25.078
f 637 638 639 640
v -58.353 2.208 31.718
v -53.463 2.303 32.288
v -53.057 2.324 28.812
v -57.947 2.224 28.242
f 641 642 643 644
v -52.936 2.313 32.270
v -50.546 2.377 31.820
v -51.194 2.452 28.380
v -53.584 2.312 28.830
f 645 646 647 648
v -50.086 2.379 31.665
v -40.626 2.321 26.925
v -42.194 2.310 23.795
v -51.654 2.417 28.535
f 649 650 651 652
v -40.031 2.304 26.438
v -38.131 2.267 24.008
v -40.889 2.248 21.852
v -42.789 2.344 24.282
f 653 654 655 656
v -37.869 2.265 23.538
v -36.769 2.197 20.568
v -40.051 2.200 19.352
v -41.151 2.261 22.322
f 657 658 659 660
v -36.666 2.197 20.104
v -36.376 2.212 16.594
v -39.864 2.128 16.306
v -40.154 2.209 19.816
f 661 662 663 664
v -36.452 2.201 15.921
v -37.782 2.136 11.731
v -41.118 2.026 12.789
v -39.788 2.143 16.979
f 665 666 667 668
v -38.140 2.121 11.100
v -41.380 1.965 7.440
v -44.000 1.936 9.760
v -40.760 2.047 13.420
f 669 670 671 672
v -42.198 1.918 6.921
v -47.008 1.806 5.511
v -47.992 1.863 8.869
v -43.182 1.952 10.279
f 673 674 675 676
v -142.325 1.091 -30.990
v -147.125 1.112 -28.250
v -143.655 1.218 -22.170
v -138.855 1.210 -24.910
f 677 678 679 680
v -147.132 1.112 -28.246
v -167.012 1.163 -16.836
v -163.528 1.073 -10.764
v -143.648 1.218 -22.174
f 681 682 683 684
v -85.860 0.950 -60.718
v -96.500 0.967 -56.348
v -93.840 1.114 -49.872
v -83.200 1.107 -54.242
f 685 686 687 688
v -96.866 0.968 -56.172
v -142.286 1.091 -31.012
v -138.894 1.210 -24.888
v -93.474 1.114 -50.048
f 689 690 691 692
v -54.860 1.885 13.176
v -49.860 1.913 10.686
v -51.420 1.790 7.554
v -56.420 1.782 10.044
f 693 694 695 696
v 8.826 1.156 -57.198
v 17.256 1.305 -61.358
v 15.044 1.232 -65.842
v 6.614 1.196 -61.682
f 697 698 699 700
v 16.203 1.307 -61.101
v 36.843 1.318 -61.541
v 36.737 1.270 -66.539
v 16.097 1.226 -66.099
f 701 702 703 704
v 35.889 1.315 -61.708
v 54.319 1.273 -54.588
v 56.121 1.173 -59.252
v 37.691 1.263 -66.372
f 705 706 707 708
v 53.751 1.275 -54.897
v 82.971 1.254 -33.667
v 85.909 1.026 -37.713
v 56.689 1.187 -58.943
f 709 710 711 712
v 82.200 1.264 -34.579
v 98.320 1.313 -2.079
v 102.800 1.208 -4.301
v 86.680 1.016 -36.801
f 713 714 715 716
v 98.418 1.315 -1.901
v 106.478 1.294 11.499
v 110.762 1.244 8.921
v 102.702 1.204 -4.479
f 717 718 719 720
usemtl asphalt
