# Baked ultra-low Key West silhouette; generated by bake_key_west_far_city.py
mtllib far_city.mtl
usemtl massing
v -80.386 0.637 252.377
v -68.918 0.637 249.315
v -67.074 0.637 256.223
v -78.542 0.637 259.285
v -80.386 4.537 252.377
v -68.918 4.537 249.315
v -67.074 4.537 256.223
v -78.542 4.537 259.285
f 8 7 6 5
f 1 2 6 5
f 2 3 7 6
f 3 4 8 7
f 4 1 5 8
v -117.329 1.762 219.595
v -111.200 1.762 238.653
v -120.691 1.762 241.705
v -126.820 1.762 222.647
v -117.329 5.662 219.595
v -111.200 5.662 238.653
v -120.691 5.662 241.705
v -126.820 5.662 222.647
f 16 15 14 13
f 9 10 14 13
f 10 11 15 14
f 11 12 16 15
f 12 9 13 16
v 196.353 2.159 179.968
v 221.479 2.159 188.607
v 213.907 2.159 210.632
v 188.781 2.159 201.993
v 196.353 5.659 179.968
v 221.479 5.659 188.607
v 213.907 5.659 210.632
v 188.781 5.659 201.993
f 24 23 22 21
f 17 18 22 21
f 18 19 23 22
f 19 20 24 23
f 20 17 21 24
v 180.570 0.661 -229.877
v 193.485 0.661 -240.162
v 202.530 0.661 -228.803
v 189.615 0.661 -218.518
v 180.570 4.161 -229.877
v 193.485 4.161 -240.162
v 202.530 4.161 -228.803
v 189.615 4.161 -218.518
f 32 31 30 29
f 25 26 30 29
f 26 27 31 30
f 27 28 32 31
f 28 25 29 32
v 255.613 0.934 -113.896
v 264.047 0.934 -82.385
v 239.907 0.934 -75.924
v 231.473 0.934 -107.435
v 255.613 7.234 -113.896
v 264.047 7.234 -82.385
v 239.907 7.234 -75.924
v 231.473 7.234 -107.435
f 40 39 38 37
f 33 34 38 37
f 34 35 39 38
f 35 36 40 39
f 36 33 37 40
v 240.635 0.949 -226.610
v 253.547 0.949 -236.994
v 262.365 0.949 -226.030
v 249.453 0.949 -215.646
v 240.635 4.849 -226.610
v 253.547 4.849 -236.994
v 262.365 4.849 -226.030
v 249.453 4.849 -215.646
f 48 47 46 45
f 41 42 46 45
f 42 43 47 46
f 43 44 48 47
f 44 41 45 48
v 232.807 0.513 -212.679
v 245.003 0.513 -222.614
v 250.813 0.513 -215.481
v 238.617 0.513 -205.546
v 232.807 4.413 -212.679
v 245.003 4.413 -222.614
v 250.813 4.413 -215.481
v 238.617 4.413 -205.546
f 56 55 54 53
f 49 50 54 53
f 50 51 55 54
f 51 52 56 55
f 52 49 53 56
v 205.967 1.164 -185.333
v 219.276 1.164 -195.372
v 227.713 1.164 -184.187
v 214.404 1.164 -174.148
v 205.967 5.064 -185.333
v 219.276 5.064 -195.372
v 227.713 5.064 -184.187
v 214.404 5.064 -174.148
f 64 63 62 61
f 57 58 62 61
f 58 59 63 62
f 59 60 64 63
f 60 57 61 64
v 143.905 0.692 -188.892
v 159.316 0.692 -198.096
v 167.335 0.692 -184.668
v 151.924 0.692 -175.464
v 143.905 4.592 -188.892
v 159.316 4.592 -198.096
v 167.335 4.592 -184.668
v 151.924 4.592 -175.464
f 72 71 70 69
f 65 66 70 69
f 66 67 71 70
f 67 68 72 71
f 68 65 69 72
v 156.805 0.793 -201.099
v 169.614 0.793 -211.626
v 178.395 0.793 -200.941
v 165.586 0.793 -190.414
v 156.805 4.693 -201.099
v 169.614 4.693 -211.626
v 178.395 4.693 -200.941
v 165.586 4.693 -190.414
f 80 79 78 77
f 73 74 78 77
f 74 75 79 78
f 75 76 80 79
f 76 73 77 80
v 193.446 0.695 -243.802
v 206.683 0.695 -255.017
v 215.714 0.695 -244.358
v 202.477 0.695 -233.143
v 193.446 4.595 -243.802
v 206.683 4.595 -255.017
v 215.714 4.595 -244.358
v 202.477 4.595 -233.143
f 88 87 86 85
f 81 82 86 85
f 82 83 87 86
f 83 84 88 87
f 84 81 85 88
v 220.227 1.150 -131.948
v 243.276 1.150 -129.134
v 240.353 1.150 -105.192
v 217.304 1.150 -108.006
v 220.227 5.050 -131.948
v 243.276 5.050 -129.134
v 240.353 5.050 -105.192
v 217.304 5.050 -108.006
f 96 95 94 93
f 89 90 94 93
f 90 91 95 94
f 91 92 96 95
f 92 89 93 96
v 181.455 1.065 -85.347
v 205.644 1.065 -100.017
v 215.145 1.065 -84.353
v 190.956 1.065 -69.683
v 181.455 4.965 -85.347
v 205.644 4.965 -100.017
v 215.145 4.965 -84.353
v 190.956 4.965 -69.683
f 104 103 102 101
f 97 98 102 101
f 98 99 103 102
f 99 100 104 103
f 100 97 101 104
v 219.127 0.729 -80.448
v 232.164 0.729 -66.231
v 220.453 0.729 -55.492
v 207.416 0.729 -69.709
v 219.127 4.629 -80.448
v 232.164 4.629 -66.231
v 220.453 4.629 -55.492
v 207.416 4.629 -69.709
f 112 111 110 109
f 105 106 110 109
f 106 107 111 110
f 107 108 112 111
f 108 105 109 112
v 189.566 1.590 -47.500
v 191.202 1.590 -17.956
v 169.954 1.590 -16.780
v 168.318 1.590 -46.324
v 189.566 5.490 -47.500
v 191.202 5.490 -17.956
v 169.954 5.490 -16.780
v 168.318 5.490 -46.324
f 120 119 118 117
f 113 114 118 117
f 114 115 119 118
f 115 116 120 119
f 116 113 117 120
v 149.862 1.131 -50.155
v 165.290 1.131 -62.389
v 174.778 1.131 -50.425
v 159.350 1.131 -38.191
v 149.862 5.031 -50.155
v 165.290 5.031 -62.389
v 174.778 5.031 -50.425
v 159.350 5.031 -38.191
f 128 127 126 125
f 121 122 126 125
f 122 123 127 126
f 123 124 128 127
f 124 121 125 128
v 216.326 0.947 -202.225
v 233.369 0.947 -209.573
v 240.214 0.947 -193.695
v 223.171 0.947 -186.347
v 216.326 4.847 -202.225
v 233.369 4.847 -209.573
v 240.214 4.847 -193.695
v 223.171 4.847 -186.347
f 136 135 134 133
f 129 130 134 133
f 130 131 135 134
f 131 132 136 135
f 132 129 133 136
v 188.454 0.354 -166.800
v 204.116 0.354 -159.863
v 196.806 0.354 -143.360
v 181.144 0.354 -150.297
v 188.454 4.254 -166.800
v 204.116 4.254 -159.863
v 196.806 4.254 -143.360
v 181.144 4.254 -150.297
f 144 143 142 141
f 137 138 142 141
f 138 139 143 142
f 139 140 144 143
f 140 137 141 144
v 169.064 0.714 -142.491
v 182.399 0.714 -153.163
v 191.196 0.714 -142.169
v 177.861 0.714 -131.497
v 169.064 4.614 -142.491
v 182.399 4.614 -153.163
v 191.196 4.614 -142.169
v 177.861 4.614 -131.497
f 152 151 150 149
f 145 146 150 149
f 146 147 151 150
f 147 148 152 151
f 148 145 149 152
v 193.665 0.694 -169.433
v 205.973 0.694 -179.562
v 214.215 0.694 -169.547
v 201.907 0.694 -159.418
v 193.665 4.594 -169.433
v 205.973 4.594 -179.562
v 214.215 4.594 -169.547
v 201.907 4.594 -159.418
f 160 159 158 157
f 153 154 158 157
f 154 155 159 158
f 155 156 160 159
f 156 153 157 160
v 135.868 0.828 -100.407
v 146.604 0.828 -110.434
v 155.272 0.828 -101.153
v 144.536 0.828 -91.126
v 135.868 4.728 -100.407
v 146.604 4.728 -110.434
v 155.272 4.728 -101.153
v 144.536 4.728 -91.126
f 168 167 166 165
f 161 162 166 165
f 162 163 167 166
f 163 164 168 167
f 164 161 165 168
v 146.524 0.690 -114.575
v 158.342 0.690 -124.135
v 166.876 0.690 -113.585
v 155.058 0.690 -104.025
v 146.524 4.590 -114.575
v 158.342 4.590 -124.135
v 166.876 4.590 -113.585
v 155.058 4.590 -104.025
f 176 175 174 173
f 169 170 174 173
f 170 171 175 174
f 171 172 176 175
f 172 169 173 176
v 157.810 0.707 -129.024
v 169.968 0.707 -138.925
v 178.770 0.707 -128.116
v 166.612 0.707 -118.215
v 157.810 4.607 -129.024
v 169.968 4.607 -138.925
v 178.770 4.607 -128.116
v 166.612 4.607 -118.215
f 184 183 182 181
f 177 178 182 181
f 178 179 183 182
f 179 180 184 183
f 180 177 181 184
v 109.457 1.653 -76.186
v 125.958 1.653 -84.258
v 133.543 1.653 -68.754
v 117.042 1.653 -60.682
v 109.457 5.553 -76.186
v 125.958 5.553 -84.258
v 133.543 5.553 -68.754
v 117.042 5.553 -60.682
f 192 191 190 189
f 185 186 190 189
f 186 187 191 190
f 187 188 192 191
f 188 185 189 192
v 122.480 1.070 -86.997
v 135.185 1.070 -97.112
v 144.060 1.070 -85.963
v 131.355 1.070 -75.848
v 122.480 4.970 -86.997
v 135.185 4.970 -97.112
v 144.060 4.970 -85.963
v 131.355 4.970 -75.848
f 200 199 198 197
f 193 194 198 197
f 194 195 199 198
f 195 196 200 199
f 196 193 197 200
v 100.542 2.304 -58.602
v 111.124 2.304 -67.600
v 120.038 2.304 -57.118
v 109.456 2.304 -48.120
v 100.542 6.204 -58.602
v 111.124 6.204 -67.600
v 120.038 6.204 -57.118
v 109.456 6.204 -48.120
f 208 207 206 205
f 201 202 206 205
f 202 203 207 206
f 203 204 208 207
f 204 201 205 208
v 74.511 1.114 -32.870
v 88.962 1.114 -42.179
v 97.329 1.114 -29.190
v 82.878 1.114 -19.881
v 74.511 5.014 -32.870
v 88.962 5.014 -42.179
v 97.329 5.014 -29.190
v 82.878 5.014 -19.881
f 216 215 214 213
f 209 210 214 213
f 210 211 215 214
f 211 212 216 215
f 212 209 213 216
v 88.599 1.056 -48.488
v 102.934 1.056 -56.225
v 110.561 1.056 -42.092
v 96.226 1.056 -34.355
v 88.599 4.956 -48.488
v 102.934 4.956 -56.225
v 110.561 4.956 -42.092
v 96.226 4.956 -34.355
f 224 223 222 221
f 217 218 222 221
f 218 219 223 222
f 219 220 224 223
f 220 217 221 224
v 51.261 1.160 -8.978
v 69.313 1.160 -15.805
v 75.479 1.160 0.498
v 57.427 1.160 7.325
v 51.261 5.060 -8.978
v 69.313 5.060 -15.805
v 75.479 5.060 0.498
v 57.427 5.060 7.325
f 232 231 230 229
f 225 226 230 229
f 226 227 231 230
f 227 228 232 231
f 228 225 229 232
v 62.985 0.754 -17.739
v 75.673 0.754 -27.666
v 84.535 0.754 -16.341
v 71.847 0.754 -6.414
v 62.985 4.654 -17.739
v 75.673 4.654 -27.666
v 84.535 4.654 -16.341
v 71.847 4.654 -6.414
f 240 239 238 237
f 233 234 238 237
f 234 235 239 238
f 235 236 240 239
f 236 233 237 240
v 104.353 0.850 39.936
v 113.813 0.850 22.394
v 131.187 0.850 31.764
v 121.727 0.850 49.306
v 104.353 4.750 39.936
v 113.813 4.750 22.394
v 131.187 4.750 31.764
v 121.727 4.750 49.306
f 248 247 246 245
f 241 242 246 245
f 242 243 247 246
f 243 244 248 247
f 244 241 245 248
v 100.895 0.841 11.357
v 114.126 0.841 22.841
v 104.785 0.841 33.603
v 91.554 0.841 22.119
v 100.895 4.741 11.357
v 114.126 4.741 22.841
v 104.785 4.741 33.603
v 91.554 4.741 22.119
f 256 255 254 253
f 249 250 254 253
f 250 251 255 254
f 251 252 256 255
f 252 249 253 256
v 133.948 0.691 39.634
v 159.476 0.691 46.081
v 154.772 0.691 64.706
v 129.244 0.691 58.259
v 133.948 4.591 39.634
v 159.476 4.591 46.081
v 154.772 4.591 64.706
v 129.244 4.591 58.259
f 264 263 262 261
f 257 258 262 261
f 258 259 263 262
f 259 260 264 263
f 260 257 261 264
v 160.844 0.210 24.102
v 176.684 0.210 33.909
v 168.456 0.210 47.198
v 152.616 0.210 37.391
v 160.844 4.110 24.102
v 176.684 4.110 33.909
v 168.456 4.110 47.198
v 152.616 4.110 37.391
f 272 271 270 269
f 265 266 270 269
f 266 267 271 270
f 267 268 272 271
f 268 265 269 272
v 188.672 0.716 11.854
v 201.856 0.716 -4.118
v 217.488 0.716 8.786
v 204.304 0.716 24.758
v 188.672 4.616 11.854
v 201.856 4.616 -4.118
v 217.488 4.616 8.786
v 204.304 4.616 24.758
f 280 279 278 277
f 273 274 278 277
f 274 275 279 278
f 275 276 280 279
f 276 273 277 280
v 170.712 0.789 25.756
v 181.649 0.789 9.431
v 196.088 0.789 19.104
v 185.151 0.789 35.429
v 170.712 4.689 25.756
v 181.649 4.689 9.431
v 196.088 4.689 19.104
v 185.151 4.689 35.429
f 288 287 286 285
f 281 282 286 285
f 282 283 287 286
f 283 284 288 287
f 284 281 285 288
v 142.200 1.601 -187.437
v 157.551 1.601 -153.311
v 137.260 1.601 -144.183
v 121.909 1.601 -178.309
v 142.200 5.501 -187.437
v 157.551 5.501 -153.311
v 137.260 5.501 -144.183
v 121.909 5.501 -178.309
f 296 295 294 293
f 289 290 294 293
f 290 291 295 294
f 291 292 296 295
f 292 289 293 296
v -46.672 2.020 -59.135
v -10.524 2.020 -48.680
v -16.128 2.020 -29.305
v -52.276 2.020 -39.760
v -46.672 5.920 -59.135
v -10.524 5.920 -48.680
v -16.128 5.920 -29.305
v -52.276 5.920 -39.760
f 304 303 302 301
f 297 298 302 301
f 298 299 303 302
f 299 300 304 303
f 300 297 301 304
v 4.025 2.428 10.570
v 8.196 2.428 -0.340
v 17.275 2.428 3.130
v 13.104 2.428 14.040
v 4.025 6.328 10.570
v 8.196 6.328 -0.340
v 17.275 6.328 3.130
v 13.104 6.328 14.040
f 312 311 310 309
f 305 306 310 309
f 306 307 311 310
f 307 308 312 311
f 308 305 309 312
v 17.330 0.821 -37.248
v 28.041 0.821 -44.773
v 35.250 0.821 -34.512
v 24.539 0.821 -26.987
v 17.330 4.721 -37.248
v 28.041 4.721 -44.773
v 35.250 4.721 -34.512
v 24.539 4.721 -26.987
f 320 319 318 317
f 313 314 318 317
f 314 315 319 318
f 315 316 320 319
f 316 313 317 320
v 27.466 0.892 -48.601
v 39.306 0.892 -58.587
v 47.494 0.892 -48.879
v 35.654 0.892 -38.893
v 27.466 4.792 -48.601
v 39.306 4.792 -58.587
v 47.494 4.792 -48.879
v 35.654 4.792 -38.893
f 328 327 326 325
f 321 322 326 325
f 322 323 327 326
f 323 324 328 327
f 324 321 325 328
v 41.511 0.736 -62.217
v 52.354 0.736 -72.114
v 60.889 0.736 -62.763
v 50.046 0.736 -52.866
v 41.511 4.636 -62.217
v 52.354 4.636 -72.114
v 60.889 4.636 -62.763
v 50.046 4.636 -52.866
f 336 335 334 333
f 329 330 334 333
f 330 331 335 334
f 331 332 336 335
f 332 329 333 336
v 47.827 1.098 -80.192
v 65.782 1.098 -88.562
v 72.893 1.098 -73.308
v 54.938 1.098 -64.938
v 47.827 4.998 -80.192
v 65.782 4.998 -88.562
v 72.893 4.998 -73.308
v 54.938 4.998 -64.938
f 344 343 342 341
f 337 338 342 341
f 338 339 343 342
f 339 340 344 343
f 340 337 341 344
v 61.207 1.005 -87.979
v 71.049 1.005 -103.773
v 85.673 1.005 -94.661
v 75.831 1.005 -78.867
v 61.207 4.905 -87.979
v 71.049 4.905 -103.773
v 85.673 4.905 -94.661
v 75.831 4.905 -78.867
f 352 351 350 349
f 345 346 350 349
f 346 347 351 350
f 347 348 352 351
f 348 345 349 352
v 74.287 0.913 -104.139
v 86.512 0.913 -113.990
v 94.933 0.913 -103.541
v 82.708 0.913 -93.690
v 74.287 4.813 -104.139
v 86.512 4.813 -113.990
v 94.933 4.813 -103.541
v 82.708 4.813 -93.690
f 360 359 358 357
f 353 354 358 357
f 354 355 359 358
f 355 356 360 359
f 356 353 357 360
v 87.228 0.998 -119.243
v 99.622 0.998 -129.090
v 107.752 0.998 -118.857
v 95.358 0.998 -109.010
v 87.228 4.898 -119.243
v 99.622 4.898 -129.090
v 107.752 4.898 -118.857
v 95.358 4.898 -109.010
f 368 367 366 365
f 361 362 366 365
f 362 363 367 366
f 363 364 368 367
f 364 361 365 368
v 235.258 1.830 115.257
v 257.690 1.830 130.103
v 245.962 1.830 147.823
v 223.530 1.830 132.977
v 235.258 5.730 115.257
v 257.690 5.730 130.103
v 245.962 5.730 147.823
v 223.530 5.730 132.977
f 376 375 374 373
f 369 370 374 373
f 370 371 375 374
f 371 372 376 375
f 372 369 373 376
v 234.288 2.019 91.304
v 251.395 2.019 108.322
v 229.912 2.019 129.916
v 212.805 2.019 112.898
v 234.288 5.919 91.304
v 251.395 5.919 108.322
v 229.912 5.919 129.916
v 212.805 5.919 112.898
f 384 383 382 381
f 377 378 382 381
f 378 379 383 382
f 379 380 384 383
f 380 377 381 384
v 222.661 1.553 66.077
v 254.237 1.553 73.980
v 248.419 1.553 97.223
v 216.843 1.553 89.320
v 222.661 5.453 66.077
v 254.237 5.453 73.980
v 248.419 5.453 97.223
v 216.843 5.453 89.320
f 392 391 390 389
f 385 386 390 389
f 386 387 391 390
f 387 388 392 391
f 388 385 389 392
v 237.246 1.432 38.273
v 259.772 1.432 44.647
v 254.514 1.432 63.227
v 231.988 1.432 56.853
v 237.246 5.332 38.273
v 259.772 5.332 44.647
v 254.514 5.332 63.227
v 231.988 5.332 56.853
f 400 399 398 397
f 393 394 398 397
f 394 395 399 398
f 395 396 400 399
f 396 393 397 400
v 225.191 0.876 -16.313
v 241.366 0.876 -29.036
v 254.429 0.876 -12.427
v 238.254 0.876 0.296
v 225.191 4.776 -16.313
v 241.366 4.776 -29.036
v 254.429 4.776 -12.427
v 238.254 4.776 0.296
f 408 407 406 405
f 401 402 406 405
f 402 403 407 406
f 403 404 408 407
f 404 401 405 408
v 217.306 0.635 -13.751
v 231.113 0.635 -5.906
v 223.534 0.635 7.431
v 209.727 0.635 -0.414
v 217.306 4.535 -13.751
v 231.113 4.535 -5.906
v 223.534 4.535 7.431
v 209.727 4.535 -0.414
f 416 415 414 413
f 409 410 414 413
f 410 411 415 414
f 411 412 416 415
f 412 409 413 416
v 128.103 1.230 -27.613
v 137.304 1.230 -16.955
v 128.977 1.230 -9.767
v 119.776 1.230 -20.425
v 128.103 5.130 -27.613
v 137.304 5.130 -16.955
v 128.977 5.130 -9.767
v 119.776 5.130 -20.425
f 424 423 422 421
f 417 418 422 421
f 418 419 423 422
f 419 420 424 423
f 420 417 421 424
v 136.329 2.050 -20.257
v 152.736 2.050 -9.049
v 144.371 2.050 3.197
v 127.964 2.050 -8.011
v 136.329 5.950 -20.257
v 152.736 5.950 -9.049
v 144.371 5.950 3.197
v 127.964 5.950 -8.011
f 432 431 430 429
f 425 426 430 429
f 426 427 431 430
f 427 428 432 431
f 428 425 429 432
v 207.533 2.308 202.803
v 233.879 2.308 207.074
v 231.687 2.308 220.597
v 205.341 2.308 216.326
v 207.533 6.208 202.803
v 233.879 6.208 207.074
v 231.687 6.208 220.597
v 205.341 6.208 216.326
f 440 439 438 437
f 433 434 438 437
f 434 435 439 438
f 435 436 440 439
f 436 433 437 440
v 189.430 2.037 157.429
v 211.420 2.037 177.228
v 197.570 2.037 192.611
v 175.580 2.037 172.812
v 189.430 5.937 157.429
v 211.420 5.937 177.228
v 197.570 5.937 192.611
v 175.580 5.937 172.812
f 448 447 446 445
f 441 442 446 445
f 442 443 447 446
f 443 444 448 447
f 444 441 445 448
v 164.451 2.109 153.717
v 180.397 2.109 139.961
v 194.029 2.109 155.763
v 178.083 2.109 169.519
v 164.451 6.009 153.717
v 180.397 6.009 139.961
v 194.029 6.009 155.763
v 178.083 6.009 169.519
f 456 455 454 453
f 449 450 454 453
f 450 451 455 454
f 451 452 456 455
f 452 449 453 456
v 126.432 1.378 113.413
v 151.065 1.378 109.084
v 155.048 1.378 131.747
v 130.415 1.378 136.076
v 126.432 5.278 113.413
v 151.065 5.278 109.084
v 155.048 5.278 131.747
v 130.415 5.278 136.076
f 464 463 462 461
f 457 458 462 461
f 458 459 463 462
f 459 460 464 463
f 460 457 461 464
v 161.539 1.674 126.219
v 176.462 1.674 137.504
v 164.681 1.674 153.081
v 149.758 1.674 141.796
v 161.539 5.574 126.219
v 176.462 5.574 137.504
v 164.681 5.574 153.081
v 149.758 5.574 141.796
f 472 471 470 469
f 465 466 470 469
f 466 467 471 470
f 467 468 472 471
f 468 465 469 472
v 121.849 1.118 93.110
v 136.685 1.118 104.494
v 125.271 1.118 119.370
v 110.435 1.118 107.986
v 121.849 5.018 93.110
v 136.685 5.018 104.494
v 125.271 5.018 119.370
v 110.435 5.018 107.986
f 480 479 478 477
f 473 474 478 477
f 474 475 479 478
f 475 476 480 479
f 476 473 477 480
v 78.146 1.374 76.739
v 92.872 1.374 64.559
v 101.674 1.374 75.201
v 86.948 1.374 87.381
v 78.146 5.274 76.739
v 92.872 5.274 64.559
v 101.674 5.274 75.201
v 86.948 5.274 87.381
f 488 487 486 485
f 481 482 486 485
f 482 483 487 486
f 483 484 488 487
f 484 481 485 488
v 105.963 1.225 78.019
v 118.807 1.225 94.073
v 104.197 1.225 105.761
v 91.353 1.225 89.707
v 105.963 5.125 78.019
v 118.807 5.125 94.073
v 104.197 5.125 105.761
v 91.353 5.125 89.707
f 496 495 494 493
f 489 490 494 493
f 490 491 495 494
f 491 492 496 495
f 492 489 493 496
v 44.589 0.957 58.639
v 62.338 0.957 36.429
v 79.571 0.957 50.201
v 61.822 0.957 72.411
v 44.589 4.857 58.639
v 62.338 4.857 36.429
v 79.571 4.857 50.201
v 61.822 4.857 72.411
f 504 503 502 501
f 497 498 502 501
f 498 499 503 502
f 499 500 504 503
f 500 497 501 504
v 254.088 1.556 130.903
v 272.907 1.556 156.338
v 252.312 1.556 171.577
v 233.493 1.556 146.142
v 254.088 5.456 130.903
v 272.907 5.456 156.338
v 252.312 5.456 171.577
v 233.493 5.456 146.142
f 512 511 510 509
f 505 506 510 509
f 506 507 511 510
f 507 508 512 511
f 508 505 509 512
v -56.159 1.907 -28.238
v -43.552 1.907 -38.333
v -40.821 1.907 -34.922
v -53.428 1.907 -24.827
v -56.159 5.807 -28.238
v -43.552 5.807 -38.333
v -40.821 5.807 -34.922
v -53.428 5.807 -24.827
f 520 519 518 517
f 513 514 518 517
f 514 515 519 518
f 515 516 520 519
f 516 513 517 520
v -190.700 1.571 207.465
v -174.762 1.571 260.554
v -191.820 1.571 265.675
v -207.758 1.571 212.586
v -190.700 7.371 207.465
v -174.762 7.371 260.554
v -191.820 7.371 265.675
v -207.758 7.371 212.586
f 528 527 526 525
f 521 522 526 525
f 522 523 527 526
f 523 524 528 527
f 524 521 525 528
usemtl road
v -256.573 1.842 180.862
v -203.013 1.804 199.414
v -201.867 1.837 196.106
v -255.427 1.882 177.555
f 529 530 531 532
v -203.012 1.804 199.414
v -164.882 1.857 212.604
v -163.738 1.912 209.296
v -201.868 1.837 196.106
f 533 534 535 536
v -164.883 1.857 212.603
v -144.783 1.967 219.573
v -143.637 2.026 216.267
v -163.737 1.912 209.297
f 537 538 539 540
v -144.782 1.967 219.574
v -128.792 2.418 225.104
v -127.648 2.407 221.796
v -143.638 2.026 216.266
f 541 542 543 544
v -129.909 2.322 222.993
v -138.716 1.875 255.543
v -135.337 1.930 256.457
v -126.531 2.537 223.907
f 545 546 547 548
v 131.410 0.959 -45.134
v 156.370 1.350 -22.214
v 160.090 1.353 -26.266
v 135.130 0.957 -49.186
f 549 550 551 552
v 230.217 0.880 22.581
v 184.757 0.910 49.811
v 187.583 0.960 54.529
v 233.043 0.890 27.299
f 553 554 555 556
v 184.663 0.910 49.869
v 135.723 0.955 81.919
v 138.737 0.953 86.521
v 187.677 0.961 54.471
f 557 558 559 560
v 250.957 0.922 -192.977
v 191.277 0.923 -120.457
v 195.523 0.890 -116.963
v 255.203 0.887 -189.483
f 561 562 563 564
v 191.295 0.923 -120.479
v 131.165 0.938 -48.929
v 135.375 0.978 -45.391
v 195.505 0.890 -116.941
f 565 566 567 568
v 131.176 0.938 -48.943
v 68.166 0.992 25.047
v 72.354 0.992 28.613
v 135.364 0.978 -45.377
f 569 570 571 572
v 173.152 0.950 -246.070
v 26.022 0.945 -74.390
v 30.198 0.926 -70.810
v 177.328 0.837 -242.490
f 573 574 575 576
v 26.009 0.945 -74.374
v 7.369 0.914 -52.294
v 11.571 0.856 -48.746
v 30.211 0.926 -70.826
f 577 578 579 580
v 7.083 0.913 -51.885
v 2.413 0.904 -43.715
v 7.187 0.848 -40.985
v 11.857 0.860 -49.155
f 581 582 583 584
v 2.351 0.903 -43.601
v 1.391 0.895 -41.721
v 6.289 0.841 -39.219
v 7.249 0.850 -41.099
f 585 586 587 588
v 254.321 0.876 3.976
v 229.951 0.880 22.762
v 233.309 0.892 27.118
v 257.679 0.967 8.332
f 589 590 591 592
v 229.204 0.884 23.645
v 217.444 0.923 45.665
v 222.296 0.863 48.255
v 234.056 0.896 26.235
f 593 594 595 596
v 217.338 0.922 45.888
v 208.808 0.872 66.028
v 213.872 0.901 68.172
v 222.402 0.862 48.032
f 597 598 599 600
v 208.649 0.874 66.536
v 204.599 0.871 85.846
v 209.981 0.873 86.974
v 214.031 0.899 67.664
f 601 602 603 604
v 204.541 0.871 86.466
v 205.041 0.925 111.146
v 210.539 0.866 111.034
v 210.039 0.874 86.354
f 605 606 607 608
v 205.091 0.924 111.620
v 208.101 0.867 126.960
v 213.499 0.806 125.900
v 210.489 0.871 110.560
f 609 610 611 612
v 208.260 0.864 127.484
v 213.570 0.891 140.274
v 218.650 0.878 138.166
v 213.340 0.792 125.376
f 613 614 615 616
v 213.517 0.890 140.137
v 219.787 0.883 157.867
v 224.973 0.852 156.033
v 218.703 0.876 138.303
f 617 618 619 620
v 191.652 0.922 -116.587
v 222.912 0.971 -90.857
v 226.408 1.022 -95.103
v 195.148 0.927 -120.833
f 621 622 623 624
v 37.464 0.936 2.136
v 67.924 0.954 29.436
v 72.596 1.003 24.224
v 42.136 0.963 -3.076
f 625 626 627 628
v 67.983 0.954 29.488
v 134.953 0.893 86.878
v 139.507 0.975 81.562
v 72.537 1.002 24.172
f 629 630 631 632
v 134.951 0.893 86.876
v 186.801 0.913 131.356
v 191.359 1.017 126.044
v 139.509 0.975 81.564
f 633 634 635 636
v 186.816 0.913 131.369
v 220.116 0.862 159.619
v 224.644 0.852 154.281
v 191.344 1.017 126.031
f 637 638 639 640
v 219.476 0.864 158.904
v 237.536 0.880 185.744
v 243.344 0.859 181.836
v 225.284 0.853 154.996
f 641 642 643 644
v 0.354 0.900 -40.159
v 1.174 1.022 -30.979
v 8.146 0.895 -31.601
v 7.326 0.852 -40.781
f 645 646 647 648
v 1.892 1.012 -29.148
v 8.902 0.984 -20.088
v 14.438 0.902 -24.372
v 7.428 0.886 -33.432
f 649 650 651 652
v 9.529 0.987 -19.462
v 37.659 0.936 2.298
v 41.941 0.964 -3.238
v 13.811 0.896 -24.998
f 653 654 655 656
v -204.119 1.809 197.268
v -216.899 1.701 240.848
v -213.541 1.741 241.832
v -200.761 1.826 198.252
f 657 658 659 660
v -216.891 1.701 240.820
v -221.454 1.680 255.480
v -218.112 1.774 256.520
v -213.549 1.741 241.860
f 661 662 663 664
v -165.994 1.879 210.473
v -178.750 1.703 255.523
v -175.383 1.728 256.477
v -162.626 1.895 211.427
f 665 666 667 668
v -154.439 1.874 256.522
v -142.540 1.999 218.442
v -145.880 1.992 217.398
v -157.780 1.821 255.478
f 669 670 671 672
usemtl asphalt
