# Baked ultra-low Key West silhouette; generated by bake_key_west_far_city.py
mtllib far_city.mtl
usemtl massing
v 216.198 0.605 241.623
v 229.364 0.605 230.742
v 238.022 0.605 241.217
v 224.856 0.605 252.098
v 216.198 4.505 241.623
v 229.364 4.505 230.742
v 238.022 4.505 241.217
v 224.856 4.505 252.098
f 8 7 6 5
f 1 2 6 5
f 2 3 7 6
f 3 4 8 7
f 4 1 5 8
v 228.646 0.695 227.753
v 242.051 0.695 216.457
v 248.514 0.695 224.127
v 235.109 0.695 235.423
v 228.646 4.595 227.753
v 242.051 4.595 216.457
v 248.514 4.595 224.127
v 235.109 4.595 235.423
f 16 15 14 13
f 9 10 14 13
f 10 11 15 14
f 11 12 16 15
f 12 9 13 16
v 232.619 0.730 138.730
v 249.425 0.730 172.007
v 229.261 0.730 182.190
v 212.455 0.730 148.913
v 232.619 6.530 138.730
v 249.425 6.530 172.007
v 229.261 6.530 182.190
v 212.455 6.530 148.913
f 24 23 22 21
f 17 18 22 21
f 18 19 23 22
f 19 20 24 23
f 20 17 21 24
usemtl road
v 253.906 0.875 171.057
v 183.122 0.954 254.218
v 187.310 0.897 257.782
v 258.094 0.975 174.622
f 25 26 27 28
usemtl asphalt
