# Baked ultra-low Key West silhouette; generated by bake_key_west_far_city.py
mtllib far_city.mtl
usemtl massing
v 24.165 0.453 -211.821
v 24.607 0.453 -235.556
v 35.195 0.453 -235.359
v 34.753 0.453 -211.624
v 24.165 6.753 -211.821
v 24.607 6.753 -235.556
v 35.195 6.753 -235.359
v 34.753 6.753 -211.624
f 8 7 6 5
f 1 2 6 5
f 2 3 7 6
f 3 4 8 7
f 4 1 5 8
v -235.059 0.326 -213.528
v -228.721 0.326 -213.660
v -228.601 0.326 -207.892
v -234.939 0.326 -207.760
v -235.059 4.226 -213.528
v -228.721 4.226 -213.660
v -228.601 4.226 -207.892
v -234.939 4.226 -207.760
f 16 15 14 13
f 9 10 14 13
f 10 11 15 14
f 11 12 16 15
f 12 9 13 16
v -182.580 0.506 -217.173
v -182.389 0.506 -235.612
v -174.100 0.506 -235.527
v -174.291 0.506 -217.088
v -182.580 4.406 -217.173
v -182.389 4.406 -235.612
v -174.100 4.406 -235.527
v -174.291 4.406 -217.088
f 24 23 22 21
f 17 18 22 21
f 18 19 23 22
f 19 20 24 23
f 20 17 21 24
v -11.466 0.636 -217.348
v -11.263 0.636 -235.787
v -2.674 0.636 -235.692
v -2.877 0.636 -217.253
v -11.466 4.536 -217.348
v -11.263 4.536 -235.787
v -2.674 4.536 -235.692
v -2.877 4.536 -217.253
f 32 31 30 29
f 25 26 30 29
f 26 27 31 30
f 27 28 32 31
f 28 25 29 32
v 64.306 0.583 -220.864
v 64.444 0.583 -237.544
v 72.594 0.583 -237.476
v 72.456 0.583 -220.796
v 64.306 4.483 -220.864
v 64.444 4.483 -237.544
v 72.594 4.483 -237.476
v 72.456 4.483 -220.796
f 40 39 38 37
f 33 34 38 37
f 34 35 39 38
f 35 36 40 39
f 36 33 37 40
v 59.305 0.496 -235.836
v 59.335 0.496 -213.136
v 50.775 0.496 -213.124
v 50.745 0.496 -235.824
v 59.305 4.396 -235.836
v 59.335 4.396 -213.136
v 50.775 4.396 -213.124
v 50.745 4.396 -235.824
f 48 47 46 45
f 41 42 46 45
f 42 43 47 46
f 43 44 48 47
f 44 41 45 48
v 45.775 0.546 -237.526
v 49.386 0.546 -211.525
v 36.925 0.546 -209.794
v 33.314 0.546 -235.795
v 45.775 4.446 -237.526
v 49.386 4.446 -211.525
v 36.925 4.446 -209.794
v 33.314 4.446 -235.795
f 56 55 54 53
f 49 50 54 53
f 50 51 55 54
f 51 52 56 55
f 52 49 53 56
v 12.618 0.633 -212.205
v 12.642 0.633 -235.765
v 21.202 0.633 -235.755
v 21.178 0.633 -212.195
v 12.618 4.533 -212.205
v 12.642 4.533 -235.765
v 21.202 4.533 -235.755
v 21.178 4.533 -212.195
f 64 63 62 61
f 57 58 62 61
f 58 59 63 62
f 59 60 64 63
f 60 57 61 64
v 1.503 0.529 -215.663
v 2.081 0.529 -236.435
v 11.337 0.529 -236.177
v 10.759 0.529 -215.405
v 1.503 4.429 -215.663
v 2.081 4.429 -236.435
v 11.337 4.429 -236.177
v 10.759 4.429 -215.405
f 72 71 70 69
f 65 66 70 69
f 66 67 71 70
f 67 68 72 71
f 68 65 69 72
v -23.598 0.829 -215.337
v -23.512 0.829 -235.936
v -15.562 0.829 -235.903
v -15.648 0.829 -215.304
v -23.598 4.729 -215.337
v -23.512 4.729 -235.936
v -15.562 4.729 -235.903
v -15.648 4.729 -215.304
f 80 79 78 77
f 73 74 78 77
f 74 75 79 78
f 75 76 80 79
f 76 73 77 80
v -28.049 0.723 -236.051
v -27.802 0.723 -217.402
v -36.291 0.723 -217.289
v -36.538 0.723 -235.938
v -28.049 4.623 -236.051
v -27.802 4.623 -217.402
v -36.291 4.623 -217.289
v -36.538 4.623 -235.938
f 88 87 86 85
f 81 82 86 85
f 82 83 87 86
f 83 84 88 87
f 84 81 85 88
v -51.187 0.619 -210.481
v -48.057 0.619 -237.209
v -36.873 0.619 -235.899
v -40.003 0.619 -209.171
v -51.187 4.519 -210.481
v -48.057 4.519 -237.209
v -36.873 4.519 -235.899
v -40.003 4.519 -209.171
f 96 95 94 93
f 89 90 94 93
f 90 91 95 94
f 91 92 96 95
f 92 89 93 96
v -64.088 0.694 -212.632
v -60.175 0.694 -236.919
v -48.812 0.694 -235.088
v -52.725 0.694 -210.801
v -64.088 4.594 -212.632
v -60.175 4.594 -236.919
v -48.812 4.594 -235.088
v -52.725 4.594 -210.801
f 104 103 102 101
f 97 98 102 101
f 98 99 103 102
f 99 100 104 103
f 100 97 101 104
v -76.307 0.751 -210.328
v -71.737 0.751 -237.314
v -60.033 0.751 -235.332
v -64.603 0.751 -208.346
v -76.307 4.651 -210.328
v -71.737 4.651 -237.314
v -60.033 4.651 -235.332
v -64.603 4.651 -208.346
f 112 111 110 109
f 105 106 110 109
f 106 107 111 110
f 107 108 112 111
f 108 105 109 112
v -83.709 0.751 -217.139
v -83.661 0.751 -235.779
v -76.391 0.751 -235.761
v -76.439 0.751 -217.121
v -83.709 4.651 -217.139
v -83.661 4.651 -235.779
v -76.391 4.651 -235.761
v -76.439 4.651 -217.121
f 120 119 118 117
f 113 114 118 117
f 114 115 119 118
f 115 116 120 119
f 116 113 117 120
v -89.317 0.961 -236.006
v -89.034 0.961 -217.499
v -97.183 0.961 -217.374
v -97.466 0.961 -235.881
v -89.317 4.861 -236.006
v -89.034 4.861 -217.499
v -97.183 4.861 -217.374
v -97.466 4.861 -235.881
f 128 127 126 125
f 121 122 126 125
f 122 123 127 126
f 123 124 128 127
f 124 121 125 128
v -109.762 0.619 -213.557
v -109.568 0.619 -236.546
v -99.698 0.619 -236.463
v -99.892 0.619 -213.474
v -109.762 4.519 -213.557
v -109.568 4.519 -236.546
v -99.698 4.519 -236.463
v -99.892 4.519 -213.474
f 136 135 134 133
f 129 130 134 133
f 130 131 135 134
f 131 132 136 135
f 132 129 133 136
v -113.185 0.737 -236.008
v -112.717 0.737 -213.983
v -121.755 0.737 -213.792
v -122.223 0.737 -235.817
v -113.185 4.637 -236.008
v -112.717 4.637 -213.983
v -121.755 4.637 -213.792
v -122.223 4.637 -235.817
f 144 143 142 141
f 137 138 142 141
f 138 139 143 142
f 139 140 144 143
f 140 137 141 144
v -124.798 0.538 -235.559
v -124.403 0.538 -213.222
v -130.122 0.538 -213.121
v -130.517 0.538 -235.458
v -124.798 4.438 -235.559
v -124.403 4.438 -213.222
v -130.122 4.438 -213.121
v -130.517 4.438 -235.458
f 152 151 150 149
f 145 146 150 149
f 146 147 151 150
f 147 148 152 151
f 148 145 149 152
v -147.391 0.737 -213.549
v -144.445 0.737 -237.821
v -132.989 0.737 -236.431
v -135.935 0.737 -212.159
v -147.391 4.637 -213.549
v -144.445 4.637 -237.821
v -132.989 4.637 -236.431
v -135.935 4.637 -212.159
f 160 159 158 157
f 153 154 158 157
f 154 155 159 158
f 155 156 160 159
f 156 153 157 160
v -158.766 0.741 -211.793
v -158.484 0.741 -235.881
v -148.694 0.741 -235.767
v -148.976 0.741 -211.679
v -158.766 4.641 -211.793
v -158.484 4.641 -235.881
v -148.694 4.641 -235.767
v -148.976 4.641 -211.679
f 168 167 166 165
f 161 162 166 165
f 162 163 167 166
f 163 164 168 167
f 164 161 165 168
v -186.543 0.502 -236.121
v -184.362 0.502 -213.395
v -200.577 0.502 -211.839
v -202.758 0.502 -234.565
v -186.543 4.402 -236.121
v -184.362 4.402 -213.395
v -200.577 4.402 -211.839
v -202.758 4.402 -234.565
f 176 175 174 173
f 169 170 174 173
f 170 171 175 174
f 171 172 176 175
f 172 169 173 176
v -232.796 0.663 -226.982
v -214.623 0.663 -240.850
v -202.144 0.663 -224.498
v -220.317 0.663 -210.630
v -232.796 4.563 -226.982
v -214.623 4.563 -240.850
v -202.144 4.563 -224.498
v -220.317 4.563 -210.630
f 184 183 182 181
f 177 178 182 181
f 178 179 183 182
f 179 180 184 183
f 180 177 181 184
v -231.959 0.568 -235.545
v -231.603 0.568 -217.049
v -242.741 0.568 -216.835
v -243.097 0.568 -235.331
v -231.959 4.468 -235.545
v -231.603 4.468 -217.049
v -242.741 4.468 -216.835
v -243.097 4.468 -235.331
f 192 191 190 189
f 185 186 190 189
f 186 187 191 190
f 187 188 192 191
f 188 185 189 192
v -267.531 0.801 -216.959
v -261.057 0.801 -243.222
v -240.609 0.801 -238.181
v -247.083 0.801 -211.918
v -267.531 4.701 -216.959
v -261.057 4.701 -243.222
v -240.609 4.701 -238.181
v -247.083 4.701 -211.918
f 200 199 198 197
f 193 194 198 197
f 194 195 199 198
f 195 196 200 199
f 196 193 197 200
v -161.111 0.669 -236.952
v -160.641 0.669 -211.766
v -168.069 0.669 -211.628
v -168.539 0.669 -236.814
v -161.111 4.569 -236.952
v -160.641 4.569 -211.766
v -168.069 4.569 -211.628
v -168.539 4.569 -236.814
f 208 207 206 205
f 201 202 206 205
f 202 203 207 206
f 203 204 208 207
f 204 201 205 208
usemtl road
v -255.978 0.929 -240.277
v -217.128 0.785 -240.590
v -217.172 0.864 -246.090
v -256.022 0.915 -245.777
f 209 210 211 212
v -217.128 0.785 -240.590
v -174.548 0.848 -240.930
v -174.592 0.932 -246.430
v -217.172 0.864 -246.090
f 213 214 215 216
v 250.268 0.495 -248.067
v 247.338 0.508 -222.857
v 252.802 0.594 -222.223
v 255.732 0.595 -247.433
f 217 218 219 220
v 247.330 0.508 -222.768
v 237.220 0.540 -101.508
v 242.700 0.487 -101.052
v 252.810 0.594 -222.312
f 221 222 223 224
v 237.218 0.540 -101.494
v 228.238 0.537 13.416
v 233.722 0.512 13.844
v 242.702 0.487 -101.066
f 225 226 227 228
v 228.292 0.542 14.213
v 230.402 0.532 23.943
v 235.778 0.509 22.777
v 233.668 0.507 13.047
f 229 230 231 232
v 230.990 0.554 25.136
v 239.370 0.611 35.046
v 243.570 0.469 31.494
v 235.190 0.517 21.584
f 233 234 235 236
v 240.323 0.610 35.769
v 252.243 0.605 41.239
v 254.537 0.578 36.241
v 242.617 0.466 30.771
f 237 238 239 240
v 135.258 0.786 -256.069
v 135.061 0.876 -246.129
v 142.059 0.841 -245.991
v 142.257 0.834 -255.931
f 241 242 243 244
v 256.016 0.558 -102.887
v 239.976 0.533 -103.030
v 239.944 0.544 -99.530
v 255.984 0.561 -99.387
f 245 246 247 248
v -174.549 0.848 -240.930
v 138.581 0.876 -243.310
v 138.539 0.879 -248.810
v -174.591 0.932 -246.430
f 249 250 251 252
usemtl asphalt
