# Baked ultra-low Key West silhouette; generated by bake_key_west_far_city.py
mtllib far_city.mtl
usemtl massing
v -224.116 1.099 144.851
v -189.711 1.099 156.613
v -200.204 1.099 187.309
v -234.609 1.099 175.547
v -224.116 6.899 144.851
v -189.711 6.899 156.613
v -200.204 6.899 187.309
v -234.609 6.899 175.547
f 8 7 6 5
f 1 2 6 5
f 2 3 7 6
f 3 4 8 7
f 4 1 5 8
v -227.337 1.152 112.197
v -187.296 1.152 107.212
v -182.643 1.152 144.583
v -222.684 1.152 149.568
v -227.337 9.452 112.197
v -187.296 9.452 107.212
v -182.643 9.452 144.583
v -222.684 9.452 149.568
f 16 15 14 13
f 9 10 14 13
f 10 11 15 14
f 11 12 16 15
f 12 9 13 16
v -194.449 1.292 -24.709
v -179.619 1.292 -38.587
v -166.391 1.292 -24.451
v -181.221 1.292 -10.573
v -194.449 5.192 -24.709
v -179.619 5.192 -38.587
v -166.391 5.192 -24.451
v -181.221 5.192 -10.573
f 24 23 22 21
f 17 18 22 21
f 18 19 23 22
f 19 20 24 23
f 20 17 21 24
v -192.263 0.837 3.404
v -143.770 0.837 -0.240
v -142.577 0.837 15.636
v -191.070 0.837 19.280
v -192.263 6.637 3.404
v -143.770 6.637 -0.240
v -142.577 6.637 15.636
v -191.070 6.637 19.280
f 32 31 30 29
f 25 26 30 29
f 26 27 31 30
f 27 28 32 31
f 28 25 29 32
v -141.923 0.692 -25.457
v -93.429 0.692 -29.098
v -92.237 0.692 -13.223
v -140.731 0.692 -9.582
v -141.923 6.492 -25.457
v -93.429 6.492 -29.098
v -92.237 6.492 -13.223
v -140.731 6.492 -9.582
f 40 39 38 37
f 33 34 38 37
f 34 35 39 38
f 35 36 40 39
f 36 33 37 40
v -22.850 0.801 -23.190
v -18.499 0.801 32.971
v -34.750 0.801 34.230
v -39.101 0.801 -21.931
v -22.850 6.601 -23.190
v -18.499 6.601 32.971
v -34.750 6.601 34.230
v -39.101 6.601 -21.931
f 48 47 46 45
f 41 42 46 45
f 42 43 47 46
f 43 44 48 47
f 44 41 45 48
v -195.941 0.814 32.270
v -192.490 0.814 80.487
v -208.459 0.814 81.630
v -211.910 0.814 33.413
v -195.941 6.614 32.270
v -192.490 6.614 80.487
v -208.459 6.614 81.630
v -211.910 6.614 33.413
f 56 55 54 53
f 49 50 54 53
f 50 51 55 54
f 51 52 56 55
f 52 49 53 56
v -166.515 0.721 -52.639
v -118.281 0.721 -59.359
v -116.085 0.721 -43.601
v -164.319 0.721 -36.881
v -166.515 6.521 -52.639
v -118.281 6.521 -59.359
v -116.085 6.521 -43.601
v -164.319 6.521 -36.881
f 64 63 62 61
f 57 58 62 61
f 58 59 63 62
f 59 60 64 63
f 60 57 61 64
v -201.030 0.784 -61.590
v -194.076 0.784 -13.641
v -209.870 0.784 -11.350
v -216.824 0.784 -59.299
v -201.030 6.584 -61.590
v -194.076 6.584 -13.641
v -209.870 6.584 -11.350
v -216.824 6.584 -59.299
f 72 71 70 69
f 65 66 70 69
f 66 67 71 70
f 67 68 72 71
f 68 65 69 72
v -135.256 0.814 8.662
v -58.346 0.814 5.869
v -57.744 0.814 22.438
v -134.654 0.814 25.231
v -135.256 6.614 8.662
v -58.346 6.614 5.869
v -57.744 6.614 22.438
v -134.654 6.614 25.231
f 80 79 78 77
f 73 74 78 77
f 74 75 79 78
f 75 76 80 79
f 76 73 77 80
v -59.409 0.577 -86.671
v -4.645 0.577 -92.371
v -3.331 0.577 -79.749
v -58.095 0.577 -74.049
v -59.409 6.377 -86.671
v -4.645 6.377 -92.371
v -3.331 6.377 -79.749
v -58.095 6.377 -74.049
f 88 87 86 85
f 81 82 86 85
f 82 83 87 86
f 83 84 88 87
f 84 81 85 88
v -21.850 0.797 -257.419
v 30.247 0.797 -263.661
v 32.430 0.797 -245.441
v -19.667 0.797 -239.199
v -21.850 6.597 -257.419
v 30.247 6.597 -263.661
v 32.430 6.597 -245.441
v -19.667 6.597 -239.199
f 96 95 94 93
f 89 90 94 93
f 90 91 95 94
f 91 92 96 95
f 92 89 93 96
v -65.136 0.666 -53.522
v -9.633 0.666 -66.367
v -5.244 0.666 -47.398
v -60.747 0.666 -34.553
v -65.136 6.466 -53.522
v -9.633 6.466 -66.367
v -5.244 6.466 -47.398
v -60.747 6.466 -34.553
f 104 103 102 101
f 97 98 102 101
f 98 99 103 102
f 99 100 104 103
f 100 97 101 104
v -167.087 0.750 -24.662
v -150.404 0.750 -35.801
v -140.453 0.750 -20.898
v -157.136 0.750 -9.759
v -167.087 4.650 -24.662
v -150.404 4.650 -35.801
v -140.453 4.650 -20.898
v -157.136 4.650 -9.759
f 112 111 110 109
f 105 106 110 109
f 106 107 111 110
f 107 108 112 111
f 108 105 109 112
v -14.337 0.900 175.825
v 23.844 0.900 168.756
v 27.017 0.900 185.895
v -11.164 0.900 192.964
v -14.337 7.200 175.825
v 23.844 7.200 168.756
v 27.017 7.200 185.895
v -11.164 7.200 192.964
f 120 119 118 117
f 113 114 118 117
f 114 115 119 118
f 115 116 120 119
f 116 113 117 120
v -35.277 1.201 77.828
v -29.539 1.201 77.332
v -29.063 1.201 82.832
v -34.801 1.201 83.328
v -35.277 5.101 77.828
v -29.539 5.101 77.332
v -29.063 5.101 82.832
v -34.801 5.101 83.328
f 128 127 126 125
f 121 122 126 125
f 122 123 127 126
f 123 124 128 127
f 124 121 125 128
v -201.562 1.040 100.249
v -189.293 1.040 98.597
v -187.858 1.040 109.251
v -200.127 1.040 110.903
v -201.562 4.940 100.249
v -189.293 4.940 98.597
v -187.858 4.940 109.251
v -200.127 4.940 110.903
f 136 135 134 133
f 129 130 134 133
f 130 131 135 134
f 131 132 136 135
f 132 129 133 136
v -179.245 0.581 101.056
v -178.383 0.581 107.155
v -181.135 0.581 107.544
v -181.997 0.581 101.445
v -179.245 4.481 101.056
v -178.383 4.481 107.155
v -181.135 4.481 107.544
v -181.997 4.481 101.445
f 144 143 142 141
f 137 138 142 141
f 138 139 143 142
f 139 140 144 143
f 140 137 141 144
v -180.365 0.669 108.630
v -179.614 0.669 114.814
v -182.215 0.669 115.130
v -182.966 0.669 108.946
v -180.365 4.569 108.630
v -179.614 4.569 114.814
v -182.215 4.569 115.130
v -182.966 4.569 108.946
f 152 151 150 149
f 145 146 150 149
f 146 147 151 150
f 147 148 152 151
f 148 145 149 152
v -175.240 0.702 109.490
v -174.985 0.702 113.532
v -177.480 0.702 113.690
v -177.735 0.702 109.648
v -175.240 4.602 109.490
v -174.985 4.602 113.532
v -177.480 4.602 113.690
v -177.735 4.602 109.648
f 160 159 158 157
f 153 154 158 157
f 154 155 159 158
f 155 156 160 159
f 156 153 157 160
v -216.254 0.870 98.696
v -204.045 0.870 97.382
v -203.526 0.870 102.204
v -215.735 0.870 103.518
v -216.254 4.770 98.696
v -204.045 4.770 97.382
v -203.526 4.770 102.204
v -215.735 4.770 103.518
f 168 167 166 165
f 161 162 166 165
f 162 163 167 166
f 163 164 168 167
f 164 161 165 168
v -217.095 1.009 98.868
v -216.537 1.009 103.716
v -219.985 1.009 104.112
v -220.543 1.009 99.264
v -217.095 4.909 98.868
v -216.537 4.909 103.716
v -219.985 4.909 104.112
v -220.543 4.909 99.264
f 176 175 174 173
f 169 170 174 173
f 170 171 175 174
f 171 172 176 175
f 172 169 173 176
v -233.755 0.627 99.586
v -221.237 0.627 97.903
v -220.805 0.627 101.114
v -233.323 0.627 102.797
v -233.755 4.527 99.586
v -221.237 4.527 97.903
v -220.805 4.527 101.114
v -233.323 4.527 102.797
f 184 183 182 181
f 177 178 182 181
f 178 179 183 182
f 179 180 184 183
f 180 177 181 184
v -199.933 0.785 172.088
v -195.030 0.785 171.682
v -194.807 0.785 174.372
v -199.710 0.785 174.778
v -199.933 4.685 172.088
v -195.030 4.685 171.682
v -194.807 4.685 174.372
v -199.710 4.685 174.778
f 192 191 190 189
f 185 186 190 189
f 186 187 191 190
f 187 188 192 191
f 188 185 189 192
v -186.119 0.806 157.558
v -185.342 0.806 163.598
v -187.861 0.806 163.922
v -188.638 0.806 157.882
v -186.119 4.706 157.558
v -185.342 4.706 163.598
v -187.861 4.706 163.922
v -188.638 4.706 157.882
f 200 199 198 197
f 193 194 198 197
f 194 195 199 198
f 195 196 200 199
f 196 193 197 200
v -175.197 0.795 171.148
v -170.898 0.795 170.631
v -170.583 0.795 173.252
v -174.882 0.795 173.769
v -175.197 4.695 171.148
v -170.898 4.695 170.631
v -170.583 4.695 173.252
v -174.882 4.695 173.769
f 208 207 206 205
f 201 202 206 205
f 202 203 207 206
f 203 204 208 207
f 204 201 205 208
v -210.160 0.510 -164.425
v -209.861 0.510 -144.717
v -217.880 0.510 -144.595
v -218.179 0.510 -164.303
v -210.160 4.410 -164.425
v -209.861 4.410 -144.717
v -217.880 4.410 -144.595
v -218.179 4.410 -164.303
f 216 215 214 213
f 209 210 214 213
f 210 211 215 214
f 211 212 216 215
f 212 209 213 216
v -207.395 0.381 -143.931
v -207.375 0.381 -157.161
v -199.225 0.381 -157.149
v -199.245 0.381 -143.919
v -207.395 4.281 -143.931
v -207.375 4.281 -157.161
v -199.225 4.281 -157.149
v -199.245 4.281 -143.919
f 224 223 222 221
f 217 218 222 221
f 218 219 223 222
f 219 220 224 223
f 220 217 221 224
v -136.128 0.992 -190.355
v -116.460 0.992 -192.358
v -115.532 0.992 -183.245
v -135.200 0.992 -181.242
v -136.128 4.892 -190.355
v -116.460 4.892 -192.358
v -115.532 4.892 -183.245
v -135.200 4.892 -181.242
f 232 231 230 229
f 225 226 230 229
f 226 227 231 230
f 227 228 232 231
f 228 225 229 232
v -239.689 0.556 -188.558
v -239.521 0.556 -201.127
v -231.611 0.556 -201.022
v -231.779 0.556 -188.453
v -239.689 4.456 -188.558
v -239.521 4.456 -201.127
v -231.611 4.456 -201.022
v -231.779 4.456 -188.453
f 240 239 238 237
f 233 234 238 237
f 234 235 239 238
f 235 236 240 239
f 236 233 237 240
v -254.601 0.593 -149.040
v -254.409 0.593 -167.879
v -246.659 0.593 -167.800
v -246.851 0.593 -148.961
v -254.601 4.493 -149.040
v -254.409 4.493 -167.879
v -246.659 4.493 -167.800
v -246.851 4.493 -148.961
f 248 247 246 245
f 241 242 246 245
f 242 243 247 246
f 243 244 248 247
f 244 241 245 248
v 74.568 1.204 -195.267
v 90.208 1.204 -197.035
v 91.592 1.204 -184.793
v 75.952 1.204 -183.025
v 74.568 5.104 -195.267
v 90.208 5.104 -197.035
v 91.592 5.104 -184.793
v 75.952 5.104 -183.025
f 256 255 254 253
f 249 250 254 253
f 250 251 255 254
f 251 252 256 255
f 252 249 253 256
v -38.401 0.616 -195.340
v -36.391 0.616 -177.574
v -49.239 0.616 -176.120
v -51.249 0.616 -193.886
v -38.401 4.516 -195.340
v -36.391 4.516 -177.574
v -49.239 4.516 -176.120
v -51.249 4.516 -193.886
f 264 263 262 261
f 257 258 262 261
f 258 259 263 262
f 259 260 264 263
f 260 257 261 264
v -233.439 0.529 -232.340
v -233.252 0.529 -215.181
v -240.721 0.529 -215.100
v -240.908 0.529 -232.259
v -233.439 4.429 -232.340
v -233.252 4.429 -215.181
v -240.721 4.429 -215.100
v -240.908 4.429 -232.259
f 272 271 270 269
f 265 266 270 269
f 266 267 271 270
f 267 268 272 271
f 268 265 269 272
v -203.743 0.502 -185.439
v -203.707 0.502 -203.059
v -195.017 0.502 -203.041
v -195.053 0.502 -185.421
v -203.743 4.402 -185.439
v -203.707 4.402 -203.059
v -195.017 4.402 -203.041
v -195.053 4.402 -185.421
f 280 279 278 277
f 273 274 278 277
f 274 275 279 278
f 275 276 280 279
f 276 273 277 280
v -37.358 0.919 -169.551
v -36.298 0.919 -192.556
v -22.702 0.919 -191.929
v -23.762 0.919 -168.924
v -37.358 4.819 -169.551
v -36.298 4.819 -192.556
v -22.702 4.819 -191.929
v -23.762 4.819 -168.924
f 288 287 286 285
f 281 282 286 285
f 282 283 287 286
f 283 284 288 287
f 284 281 285 288
v -207.699 0.557 -202.184
v -207.501 0.557 -183.145
v -216.001 0.557 -183.056
v -216.199 0.557 -202.095
v -207.699 4.457 -202.184
v -207.501 4.457 -183.145
v -216.001 4.457 -183.056
v -216.199 4.457 -202.095
f 296 295 294 293
f 289 290 294 293
f 290 291 295 294
f 291 292 296 295
f 292 289 293 296
v 86.110 0.354 -234.140
v 86.130 0.354 -225.290
v 81.670 0.354 -225.280
v 81.650 0.354 -234.130
v 86.110 4.254 -234.140
v 86.130 4.254 -225.290
v 81.670 4.254 -225.280
v 81.650 4.254 -234.130
f 304 303 302 301
f 297 298 302 301
f 298 299 303 302
f 299 300 304 303
f 300 297 301 304
v 77.366 0.667 -241.291
v 77.494 0.667 -219.881
v 65.374 0.667 -219.809
v 65.246 0.667 -241.219
v 77.366 4.567 -241.291
v 77.494 4.567 -219.881
v 65.374 4.567 -219.809
v 65.246 4.567 -241.219
f 312 311 310 309
f 305 306 310 309
f 306 307 311 310
f 307 308 312 311
f 308 305 309 312
v 49.344 0.716 -254.517
v 62.594 0.716 -254.543
v 62.616 0.716 -243.223
v 49.366 0.716 -243.197
v 49.344 4.616 -254.517
v 62.594 4.616 -254.543
v 62.616 4.616 -243.223
v 49.366 4.616 -243.197
f 320 319 318 317
f 313 314 318 317
f 314 315 319 318
f 315 316 320 319
f 316 313 317 320
v -109.630 0.701 -49.578
v -84.811 0.701 -51.704
v -83.470 0.701 -36.062
v -108.289 0.701 -33.936
v -109.630 4.601 -49.578
v -84.811 4.601 -51.704
v -83.470 4.601 -36.062
v -108.289 4.601 -33.936
f 328 327 326 325
f 321 322 326 325
f 322 323 327 326
f 323 324 328 327
f 324 321 325 328
v -248.552 0.642 -187.075
v -248.548 0.642 -206.965
v -244.708 0.642 -206.965
v -244.712 0.642 -187.075
v -248.552 4.542 -187.075
v -248.548 4.542 -206.965
v -244.708 4.542 -206.965
v -244.712 4.542 -187.075
f 336 335 334 333
f 329 330 334 333
f 330 331 335 334
f 331 332 336 335
f 332 329 333 336
v -219.582 0.450 -200.899
v -219.568 0.450 -184.849
v -227.178 0.450 -184.841
v -227.192 0.450 -200.891
v -219.582 4.350 -200.899
v -219.568 4.350 -184.849
v -227.178 4.350 -184.841
v -227.192 4.350 -200.891
f 344 343 342 341
f 337 338 342 341
f 338 339 343 342
f 339 340 344 343
f 340 337 341 344
v -190.971 0.499 -182.820
v -190.046 0.499 -198.613
v -182.649 0.499 -198.180
v -183.574 0.499 -182.387
v -190.971 4.399 -182.820
v -190.046 4.399 -198.613
v -182.649 4.399 -198.180
v -183.574 4.399 -182.387
f 352 351 350 349
f 345 346 350 349
f 346 347 351 350
f 347 348 352 351
f 348 345 349 352
v -171.909 0.436 -200.752
v -168.276 0.436 -179.917
v -172.571 0.436 -179.168
v -176.204 0.436 -200.003
v -171.909 4.336 -200.752
v -168.276 4.336 -179.917
v -172.571 4.336 -179.168
v -176.204 4.336 -200.003
f 360 359 358 357
f 353 354 358 357
f 354 355 359 358
f 355 356 360 359
f 356 353 357 360
v -144.045 0.505 -195.958
v -136.425 0.505 -155.642
v -166.895 0.505 -149.882
v -174.515 0.505 -190.198
v -144.045 6.305 -195.958
v -136.425 6.305 -155.642
v -166.895 6.305 -149.882
v -174.515 6.305 -190.198
f 368 367 366 365
f 361 362 366 365
f 362 363 367 366
f 363 364 368 367
f 364 361 365 368
v -153.420 0.922 -211.360
v -151.626 0.922 -194.496
v -157.980 0.922 -193.820
v -159.774 0.922 -210.684
v -153.420 4.822 -211.360
v -151.626 4.822 -194.496
v -157.980 4.822 -193.820
v -159.774 4.822 -210.684
f 376 375 374 373
f 369 370 374 373
f 370 371 375 374
f 371 372 376 375
f 372 369 373 376
v -173.253 0.503 -226.313
v -173.187 0.503 -208.793
v -180.287 0.503 -208.767
v -180.353 0.503 -226.287
v -173.253 4.403 -226.313
v -173.187 4.403 -208.793
v -180.287 4.403 -208.767
v -180.353 4.403 -226.287
f 384 383 382 381
f 377 378 382 381
f 378 379 383 382
f 379 380 384 383
f 380 377 381 384
v -194.502 0.546 -209.192
v -192.188 0.546 -229.974
v -180.818 0.546 -228.708
v -183.132 0.546 -207.926
v -194.502 4.446 -209.192
v -192.188 4.446 -229.974
v -180.818 4.446 -228.708
v -183.132 4.446 -207.926
f 392 391 390 389
f 385 386 390 389
f 386 387 391 390
f 387 388 392 391
f 388 385 389 392
v -190.294 0.643 -208.232
v -181.945 0.643 -208.138
v -181.986 0.643 -204.488
v -190.335 0.643 -204.582
v -190.294 4.543 -208.232
v -181.945 4.543 -208.138
v -181.986 4.543 -204.488
v -190.335 4.543 -204.582
f 400 399 398 397
f 393 394 398 397
f 394 395 399 398
f 395 396 400 399
f 396 393 397 400
v -207.918 0.507 -205.903
v -204.783 0.507 -228.951
v -192.922 0.507 -227.337
v -196.057 0.507 -204.289
v -207.918 4.407 -205.903
v -204.783 4.407 -228.951
v -192.922 4.407 -227.337
v -196.057 4.407 -204.289
f 408 407 406 405
f 401 402 406 405
f 402 403 407 406
f 403 404 408 407
f 404 401 405 408
v -212.842 0.466 -230.519
v -212.459 0.466 -209.863
v -216.878 0.466 -209.781
v -217.261 0.466 -230.437
v -212.842 4.366 -230.519
v -212.459 4.366 -209.863
v -216.878 4.366 -209.781
v -217.261 4.366 -230.437
f 416 415 414 413
f 409 410 414 413
f 410 411 415 414
f 411 412 416 415
f 412 409 413 416
v -221.655 0.548 -229.082
v -221.316 0.548 -209.464
v -229.765 0.548 -209.318
v -230.104 0.548 -228.936
v -221.655 4.448 -229.082
v -221.316 4.448 -209.464
v -229.765 4.448 -209.318
v -230.104 4.448 -228.936
f 424 423 422 421
f 417 418 422 421
f 418 419 423 422
f 419 420 424 423
f 420 417 421 424
v -256.456 0.558 -210.985
v -254.506 0.558 -234.866
v -243.104 0.558 -233.935
v -245.054 0.558 -210.054
v -256.456 4.458 -210.985
v -254.506 4.458 -234.866
v -243.104 4.458 -233.935
v -245.054 4.458 -210.054
f 432 431 430 429
f 425 426 430 429
f 426 427 431 430
f 427 428 432 431
f 428 425 429 432
v -126.187 0.719 -218.001
v -123.757 0.719 -199.631
v -133.373 0.719 -198.359
v -135.803 0.719 -216.729
v -126.187 4.619 -218.001
v -123.757 4.619 -199.631
v -133.373 4.619 -198.359
v -135.803 4.619 -216.729
f 440 439 438 437
f 433 434 438 437
f 434 435 439 438
f 435 436 440 439
f 436 433 437 440
v -110.988 0.602 -215.623
v -108.979 0.602 -197.635
v -118.272 0.602 -196.597
v -120.281 0.602 -214.585
v -110.988 4.502 -215.623
v -108.979 4.502 -197.635
v -118.272 4.502 -196.597
v -120.281 4.502 -214.585
f 448 447 446 445
f 441 442 446 445
f 442 443 447 446
f 443 444 448 447
f 444 441 445 448
v -93.938 0.603 -195.501
v -91.887 0.603 -216.471
v -78.262 0.603 -215.139
v -80.313 0.603 -194.169
v -93.938 4.503 -195.501
v -91.887 4.503 -216.471
v -78.262 4.503 -215.139
v -80.313 4.503 -194.169
f 456 455 454 453
f 449 450 454 453
f 450 451 455 454
f 451 452 456 455
f 452 449 453 456
v -83.566 1.169 -175.328
v -77.120 1.169 -210.452
v -44.534 1.169 -204.472
v -50.980 1.169 -169.348
v -83.566 6.969 -175.328
v -77.120 6.969 -210.452
v -44.534 6.969 -204.472
v -50.980 6.969 -169.348
f 464 463 462 461
f 457 458 462 461
f 458 459 463 462
f 459 460 464 463
f 460 457 461 464
v -11.433 0.765 -186.145
v -9.413 0.765 -169.427
v -21.267 0.765 -167.995
v -23.287 0.765 -184.713
v -11.433 4.665 -186.145
v -9.413 4.665 -169.427
v -21.267 4.665 -167.995
v -23.287 4.665 -184.713
f 472 471 470 469
f 465 466 470 469
f 466 467 471 470
f 467 468 472 471
f 468 465 469 472
v 16.176 0.600 -209.077
v 19.928 0.600 -181.925
v -4.976 0.600 -178.483
v -8.728 0.600 -205.635
v 16.176 6.400 -209.077
v 19.928 6.400 -181.925
v -4.976 6.400 -178.483
v -8.728 6.400 -205.635
f 480 479 478 477
f 473 474 478 477
f 474 475 479 478
f 475 476 480 479
f 476 473 477 480
v -4.488 0.979 -175.574
v 19.104 0.979 -177.834
v 19.988 0.979 -168.606
v -3.604 0.979 -166.346
v -4.488 4.879 -175.574
v 19.104 4.879 -177.834
v 19.988 4.879 -168.606
v -3.604 4.879 -166.346
f 488 487 486 485
f 481 482 486 485
f 482 483 487 486
f 483 484 488 487
f 484 481 485 488
v -11.384 0.565 -166.888
v -9.451 0.565 -150.482
v -18.876 0.565 -149.372
v -20.809 0.565 -165.778
v -11.384 4.465 -166.888
v -9.451 4.465 -150.482
v -18.876 4.465 -149.372
v -20.809 4.465 -165.778
f 496 495 494 493
f 489 490 494 493
f 490 491 495 494
f 491 492 496 495
f 492 489 493 496
v -18.170 0.848 -150.883
v -14.297 0.848 -127.279
v -24.550 0.848 -125.597
v -28.423 0.848 -149.201
v -18.170 4.748 -150.883
v -14.297 4.748 -127.279
v -24.550 4.748 -125.597
v -28.423 4.748 -149.201
f 504 503 502 501
f 497 498 502 501
f 498 499 503 502
f 499 500 504 503
f 500 497 501 504
v -28.321 0.690 -151.986
v -25.540 0.690 -129.044
v -36.679 0.690 -127.694
v -39.460 0.690 -150.636
v -28.321 4.590 -151.986
v -25.540 4.590 -129.044
v -36.679 4.590 -127.694
v -39.460 4.590 -150.636
f 512 511 510 509
f 505 506 510 509
f 506 507 511 510
f 507 508 512 511
f 508 505 509 512
v 41.766 0.584 -206.524
v 44.266 0.584 -182.242
v 31.394 0.584 -180.916
v 28.894 0.584 -205.198
v 41.766 4.484 -206.524
v 44.266 4.484 -182.242
v 31.394 4.484 -180.916
v 28.894 4.484 -205.198
f 520 519 518 517
f 513 514 518 517
f 514 515 519 518
f 515 516 520 519
f 516 513 517 520
v 50.583 0.829 -203.689
v 52.117 0.829 -187.773
v 45.657 0.829 -187.151
v 44.123 0.829 -203.067
v 50.583 4.729 -203.689
v 52.117 4.729 -187.773
v 45.657 4.729 -187.151
v 44.123 4.729 -203.067
f 528 527 526 525
f 521 522 526 525
f 522 523 527 526
f 523 524 528 527
f 524 521 525 528
v 68.105 0.674 -203.810
v 68.374 0.674 -184.502
v 57.475 0.674 -184.350
v 57.206 0.674 -203.658
v 68.105 4.574 -203.810
v 68.374 4.574 -184.502
v 57.475 4.574 -184.350
v 57.206 4.574 -203.658
f 536 535 534 533
f 529 530 534 533
f 530 531 535 534
f 531 532 536 535
f 532 529 533 536
v 66.903 1.569 -169.667
v 72.492 1.569 -165.272
v 69.977 1.569 -162.073
v 64.388 1.569 -166.468
v 66.903 5.469 -169.667
v 72.492 5.469 -165.272
v 69.977 5.469 -162.073
v 64.388 5.469 -166.468
f 544 543 542 541
f 537 538 542 541
f 538 539 543 542
f 539 540 544 543
f 540 537 541 544
v 9.689 0.646 -128.946
v 41.245 0.646 -130.403
v 41.731 0.646 -119.874
v 10.175 0.646 -118.417
v 9.689 4.546 -128.946
v 41.245 4.546 -130.403
v 41.731 4.546 -119.874
v 10.175 4.546 -118.417
f 552 551 550 549
f 545 546 550 549
f 546 547 551 550
f 547 548 552 551
f 548 545 549 552
v -9.165 0.697 -145.864
v 0.983 0.697 -146.359
v 1.285 0.697 -140.156
v -8.863 0.697 -139.661
v -9.165 4.597 -145.864
v 0.983 4.597 -146.359
v 1.285 4.597 -140.156
v -8.863 4.597 -139.661
f 560 559 558 557
f 553 554 558 557
f 554 555 559 558
f 555 556 560 559
f 556 553 557 560
v 4.601 1.177 -157.779
v 16.912 1.177 -156.675
v 16.339 1.177 -150.281
v 4.028 1.177 -151.385
v 4.601 5.077 -157.779
v 16.912 5.077 -156.675
v 16.339 5.077 -150.281
v 4.028 5.077 -151.385
f 568 567 566 565
f 561 562 566 565
f 562 563 567 566
f 563 564 568 567
f 564 561 565 568
v 5.305 0.952 -162.885
v 17.425 0.952 -163.580
v 17.575 0.952 -160.955
v 5.455 0.952 -160.260
v 5.305 4.852 -162.885
v 17.425 4.852 -163.580
v 17.575 4.852 -160.955
v 5.455 4.852 -160.260
f 576 575 574 573
f 569 570 574 573
f 570 571 575 574
f 571 572 576 575
f 572 569 573 576
v -59.231 1.019 -170.998
v -56.399 1.019 -140.479
v -65.629 1.019 -139.622
v -68.461 1.019 -170.141
v -59.231 4.919 -170.998
v -56.399 4.919 -140.479
v -65.629 4.919 -139.622
v -68.461 4.919 -170.141
f 584 583 582 581
f 577 578 582 581
f 578 579 583 582
f 579 580 584 583
f 580 577 581 584
v -106.465 0.777 -156.388
v -80.595 0.777 -157.413
v -79.675 0.777 -134.192
v -105.545 0.777 -133.167
v -106.465 6.577 -156.388
v -80.595 6.577 -157.413
v -79.675 6.577 -134.192
v -105.545 6.577 -133.167
f 592 591 590 589
f 585 586 590 589
f 586 587 591 590
f 587 588 592 591
f 588 585 589 592
v -120.182 0.893 -156.955
v -118.574 0.893 -139.710
v -122.278 0.893 -139.365
v -123.886 0.893 -156.610
v -120.182 4.793 -156.955
v -118.574 4.793 -139.710
v -122.278 4.793 -139.365
v -123.886 4.793 -156.610
f 600 599 598 597
f 593 594 598 597
f 594 595 599 598
f 595 596 600 599
f 596 593 597 600
v -133.825 0.541 -161.956
v -131.463 0.541 -140.898
v -135.875 0.541 -140.404
v -138.237 0.541 -161.462
v -133.825 4.441 -161.956
v -131.463 4.441 -140.898
v -135.875 4.441 -140.404
v -138.237 4.441 -161.462
f 608 607 606 605
f 601 602 606 605
f 602 603 607 606
f 603 604 608 607
f 604 601 605 608
v -186.591 0.440 -160.198
v -183.793 0.440 -143.268
v -190.729 0.440 -142.122
v -193.527 0.440 -159.052
v -186.591 4.340 -160.198
v -183.793 4.340 -143.268
v -190.729 4.340 -142.122
v -193.527 4.340 -159.052
f 616 615 614 613
f 609 610 614 613
f 610 611 615 614
f 611 612 616 615
f 612 609 613 616
v -242.880 0.995 -149.229
v -242.023 0.995 -169.461
v -233.740 0.995 -169.111
v -234.597 0.995 -148.879
v -242.880 4.895 -149.229
v -242.023 4.895 -169.461
v -233.740 4.895 -169.111
v -234.597 4.895 -148.879
f 624 623 622 621
f 617 618 622 621
f 618 619 623 622
f 619 620 624 623
f 620 617 621 624
v -228.607 0.712 -147.127
v -228.553 0.712 -167.047
v -223.393 0.712 -167.033
v -223.447 0.712 -147.113
v -228.607 4.612 -147.127
v -228.553 4.612 -167.047
v -223.393 4.612 -167.033
v -223.447 4.612 -147.113
f 632 631 630 629
f 625 626 630 629
f 626 627 631 630
f 627 628 632 631
f 628 625 629 632
v 64.023 0.695 -255.646
v 77.763 0.695 -255.663
v 77.777 0.695 -244.174
v 64.037 0.695 -244.157
v 64.023 4.595 -255.646
v 77.763 4.595 -255.663
v 77.777 4.595 -244.174
v 64.037 4.595 -244.157
f 640 639 638 637
f 633 634 638 637
f 634 635 639 638
f 635 636 640 639
f 636 633 637 640
v 78.441 0.451 -242.383
v 78.927 0.451 -256.475
v 91.059 0.451 -256.057
v 90.573 0.451 -241.965
v 78.441 4.351 -242.383
v 78.927 4.351 -256.475
v 91.059 4.351 -256.057
v 90.573 4.351 -241.965
f 648 647 646 645
f 641 642 646 645
f 642 643 647 646
f 643 644 648 647
f 644 641 645 648
v 93.638 0.459 -256.106
v 110.608 0.459 -256.064
v 110.582 0.459 -245.734
v 93.612 0.459 -245.776
v 93.638 4.359 -256.106
v 110.608 4.359 -256.064
v 110.582 4.359 -245.734
v 93.612 4.359 -245.776
f 656 655 654 653
f 649 650 654 653
f 650 651 655 654
f 651 652 656 655
f 652 649 653 656
v 139.919 0.368 -246.763
v 150.367 0.368 -236.239
v 144.101 0.368 -230.017
v 133.653 0.368 -240.541
v 139.919 4.268 -246.763
v 150.367 4.268 -236.239
v 144.101 4.268 -230.017
v 133.653 4.268 -240.541
f 664 663 662 661
f 657 658 662 661
f 658 659 663 662
f 659 660 664 663
f 660 657 661 664
v 158.490 0.483 -255.450
v 162.196 0.483 -250.294
v 159.630 0.483 -248.450
v 155.924 0.483 -253.606
v 158.490 4.383 -255.450
v 162.196 4.383 -250.294
v 159.630 4.383 -248.450
v 155.924 4.383 -253.606
f 672 671 670 669
f 665 666 670 669
f 666 667 671 670
f 667 668 672 671
f 668 665 669 672
v 158.661 0.546 -145.718
v 170.617 0.546 -138.747
v 168.119 0.546 -134.462
v 156.163 0.546 -141.433
v 158.661 4.446 -145.718
v 170.617 4.446 -138.747
v 168.119 4.446 -134.462
v 156.163 4.446 -141.433
f 680 679 678 677
f 673 674 678 677
f 674 675 679 678
f 675 676 680 679
f 676 673 677 680
v 174.801 0.775 -215.113
v 191.099 0.775 -234.346
v 199.239 0.775 -227.447
v 182.941 0.775 -208.214
v 174.801 4.675 -215.113
v 191.099 4.675 -234.346
v 199.239 4.675 -227.447
v 182.941 4.675 -208.214
f 688 687 686 685
f 681 682 686 685
f 682 683 687 686
f 683 684 688 687
f 684 681 685 688
v 201.302 0.405 -208.486
v 217.395 0.405 -205.078
v 214.658 0.405 -192.154
v 198.565 0.405 -195.562
v 201.302 4.305 -208.486
v 217.395 4.305 -205.078
v 214.658 4.305 -192.154
v 198.565 4.305 -195.562
f 696 695 694 693
f 689 690 694 693
f 690 691 695 694
f 691 692 696 695
f 692 689 693 696
v 220.854 0.574 -153.416
v 222.669 0.574 -147.593
v 218.726 0.574 -146.364
v 216.911 0.574 -152.187
v 220.854 4.474 -153.416
v 222.669 4.474 -147.593
v 218.726 4.474 -146.364
v 216.911 4.474 -152.187
f 704 703 702 701
f 697 698 702 701
f 698 699 703 702
f 699 700 704 703
f 700 697 701 704
v 138.452 0.846 -157.214
v 141.592 0.846 -171.472
v 152.608 0.846 -169.046
v 149.468 0.846 -154.788
v 138.452 4.746 -157.214
v 141.592 4.746 -171.472
v 152.608 4.746 -169.046
v 149.468 4.746 -154.788
f 712 711 710 709
f 705 706 710 709
f 706 707 711 710
f 707 708 712 711
f 708 705 709 712
v 170.317 0.768 -201.622
v 181.699 0.768 -189.170
v 176.303 0.768 -184.238
v 164.921 0.768 -196.690
v 170.317 4.668 -201.622
v 181.699 4.668 -189.170
v 176.303 4.668 -184.238
v 164.921 4.668 -196.690
f 720 719 718 717
f 713 714 718 717
f 714 715 719 718
f 715 716 720 719
f 716 713 717 720
v 107.241 0.439 -127.147
v 114.737 0.439 -139.395
v 124.119 0.439 -133.653
v 116.623 0.439 -121.405
v 107.241 4.339 -127.147
v 114.737 4.339 -139.395
v 124.119 4.339 -133.653
v 116.623 4.339 -121.405
f 728 727 726 725
f 721 722 726 725
f 722 723 727 726
f 723 724 728 727
f 724 721 725 728
v 110.053 0.315 -154.085
v 122.912 0.315 -146.557
v 119.047 0.315 -139.955
v 106.188 0.315 -147.483
v 110.053 4.215 -154.085
v 122.912 4.215 -146.557
v 119.047 4.215 -139.955
v 106.188 4.215 -147.483
f 736 735 734 733
f 729 730 734 733
f 730 731 735 734
f 731 732 736 735
f 732 729 733 736
v 147.276 0.722 -158.106
v 154.884 0.722 -149.258
v 152.344 0.722 -147.074
v 144.736 0.722 -155.922
v 147.276 4.622 -158.106
v 154.884 4.622 -149.258
v 152.344 4.622 -147.074
v 144.736 4.622 -155.922
f 744 743 742 741
f 737 738 742 741
f 738 739 743 742
f 739 740 744 743
f 740 737 741 744
v 130.571 0.551 -146.859
v 139.521 0.551 -150.997
v 142.949 0.551 -143.581
v 133.999 0.551 -139.443
v 130.571 4.451 -146.859
v 139.521 4.451 -150.997
v 142.949 4.451 -143.581
v 133.999 4.451 -139.443
f 752 751 750 749
f 745 746 750 749
f 746 747 751 750
f 747 748 752 751
f 748 745 749 752
v 200.528 0.509 -174.931
v 206.411 0.509 -179.991
v 208.752 0.509 -177.269
v 202.869 0.509 -172.209
v 200.528 4.409 -174.931
v 206.411 4.409 -179.991
v 208.752 4.409 -177.269
v 202.869 4.409 -172.209
f 760 759 758 757
f 753 754 758 757
f 754 755 759 758
f 755 756 760 759
f 756 753 757 760
v 90.751 0.409 -109.788
v 97.046 0.409 -110.450
v 97.469 0.409 -106.432
v 91.174 0.409 -105.770
v 90.751 4.309 -109.788
v 97.046 4.309 -110.450
v 97.469 4.309 -106.432
v 91.174 4.309 -105.770
f 768 767 766 765
f 761 762 766 765
f 762 763 767 766
f 763 764 768 767
f 764 761 765 768
v 197.128 0.411 -215.843
v 204.110 0.411 -209.081
v 202.072 0.411 -206.977
v 195.090 0.411 -213.739
v 197.128 4.311 -215.843
v 204.110 4.311 -209.081
v 202.072 4.311 -206.977
v 195.090 4.311 -213.739
f 776 775 774 773
f 769 770 774 773
f 770 771 775 774
f 771 772 776 775
f 772 769 773 776
v -206.265 1.304 191.938
v -186.739 1.304 272.238
v -237.335 1.304 284.542
v -256.861 1.304 204.242
v -206.265 9.604 191.938
v -186.739 9.604 272.238
v -237.335 9.604 284.542
v -256.861 9.604 204.242
f 784 783 782 781
f 777 778 782 781
f 778 779 783 782
f 779 780 784 783
f 780 777 781 784
usemtl road
v -75.639 0.977 -20.099
v -43.409 1.051 -16.779
v -43.051 1.055 -20.261
v -75.281 0.958 -23.581
f 785 786 787 788
v -44.059 1.048 -16.979
v -40.529 1.049 -15.079
v -38.871 1.072 -18.161
v -42.401 1.057 -20.061
f 789 790 791 792
v -41.321 1.050 -15.961
v -40.021 1.036 -12.761
v -36.779 1.098 -14.079
v -38.079 1.086 -17.279
f 793 794 795 796
v -40.139 1.041 -13.614
v -42.309 0.887 5.806
v -38.831 0.956 6.194
v -36.661 1.098 -13.226
f 797 798 799 800
v -42.308 0.887 5.793
v -42.848 0.887 10.333
v -39.372 0.945 10.747
v -38.832 0.956 6.207
f 801 802 803 804
v -42.851 0.887 10.365
v -44.451 1.088 26.305
v -40.969 1.092 26.655
v -39.369 0.945 10.715
f 805 806 807 808
v 38.641 1.189 173.681
v 18.021 0.836 148.241
v 13.359 0.866 152.019
v 33.979 1.173 177.459
f 809 810 811 812
v 16.331 0.827 147.199
v -31.059 0.859 136.829
v -32.341 0.951 142.691
v 15.049 0.876 153.061
f 813 814 815 816
v -29.006 0.866 138.441
v -37.266 0.868 121.571
v -42.654 0.797 124.209
v -34.394 0.904 141.079
f 817 818 819 820
v -37.448 0.872 121.250
v -42.248 0.903 113.900
v -47.272 0.830 117.180
v -42.472 0.802 124.530
f 821 822 823 824
v -42.824 0.900 113.249
v -49.664 0.874 107.469
v -53.536 0.859 112.051
v -46.696 0.827 117.831
f 825 826 827 828
v -51.283 0.905 106.777
v -99.073 1.089 101.697
v -99.707 0.915 107.663
v -51.917 0.863 112.743
f 829 830 831 832
v -99.073 1.089 101.697
v -121.123 1.070 99.357
v -121.757 0.906 105.323
v -99.707 0.915 107.663
f 833 834 835 836
v -121.121 1.070 99.357
v -141.151 1.063 97.217
v -141.789 0.907 103.183
v -121.759 0.906 105.323
f 837 838 839 840
v -141.154 1.063 97.217
v -162.554 1.024 94.947
v -163.186 0.904 100.913
v -141.786 0.907 103.183
f 841 842 843 844
v -162.518 1.024 94.951
v -238.698 0.779 85.961
v -239.402 0.798 91.919
v -163.222 0.904 100.909
f 845 846 847 848
v -178.219 0.721 -129.408
v -173.379 0.795 -170.398
v -178.841 0.821 -171.042
v -183.681 0.717 -130.052
f 849 850 851 852
v 129.294 0.648 -208.681
v 47.244 0.921 -215.401
v 46.796 0.982 -209.919
v 128.846 0.728 -203.199
f 853 854 855 856
v 47.329 0.921 -215.393
v -36.891 0.904 -224.913
v -37.509 0.863 -219.447
v 46.711 0.981 -209.927
f 857 858 859 860
v -36.901 0.904 -224.914
v -173.721 0.857 -239.864
v -174.319 0.895 -234.396
v -37.499 0.863 -219.446
f 861 862 863 864
v -173.721 0.857 -239.864
v -255.701 0.559 -248.821
v -256.299 0.570 -243.354
v -174.319 0.895 -234.396
f 865 866 867 868
v 257.882 0.789 -251.414
v 250.862 0.792 -258.005
v 247.098 0.751 -253.995
v 254.118 0.769 -247.405
f 869 870 871 872
v 169.354 0.614 -254.091
v 152.914 0.549 -236.521
v 158.026 0.578 -231.739
v 174.466 0.562 -249.309
f 873 874 875 876
v 152.915 0.549 -236.522
v 126.515 0.638 -208.332
v 131.625 0.716 -203.548
v 158.025 0.578 -231.738
f 877 878 879 880
v 126.485 0.638 -208.299
v 47.025 0.539 -121.239
v 52.195 0.578 -116.521
v 131.655 0.716 -203.581
f 881 882 883 884
v 47.312 0.539 -121.520
v 38.202 0.521 -113.590
v 42.798 0.587 -108.310
v 51.908 0.571 -116.240
f 885 886 887 888
v -241.783 0.767 88.635
v -250.303 0.657 164.945
v -244.837 0.865 165.555
v -236.317 0.775 89.245
f 889 890 891 892
v -250.302 0.657 164.932
v -252.552 0.658 184.252
v -247.088 0.764 184.888
v -244.838 0.865 165.568
f 893 894 895 896
v -252.555 0.658 184.281
v -254.915 0.695 206.631
v -249.445 0.851 207.209
v -247.085 0.765 184.859
f 897 898 899 900
v -254.911 0.695 206.595
v -258.731 0.555 238.707
v -253.269 0.710 239.356
v -249.449 0.852 207.245
f 901 902 903 904
v -171.793 0.801 -253.072
v -148.883 0.865 -250.402
v -148.477 0.862 -253.878
v -171.387 0.799 -256.548
f 905 906 907 908
v -148.883 0.865 -250.402
v -129.573 0.830 -248.152
v -129.167 0.836 -251.628
v -148.477 0.862 -253.878
f 909 910 911 912
v -129.516 0.830 -248.146
v -111.246 0.773 -246.616
v -110.954 0.772 -250.104
v -129.224 0.836 -251.634
f 913 914 915 916
v -111.245 0.773 -246.616
v -63.515 0.654 -242.656
v -63.225 0.621 -246.144
v -110.955 0.772 -250.104
f 917 918 919 920
v -63.515 0.654 -242.656
v -37.325 0.821 -240.476
v -37.035 0.825 -243.964
v -63.225 0.621 -246.144
f 921 922 923 924
v -39.930 0.824 -242.223
v -39.950 0.914 -222.183
v -34.450 0.904 -222.177
v -34.430 0.812 -242.217
f 925 926 927 928
v -216.639 0.626 -129.989
v -181.319 0.687 -126.249
v -180.581 0.661 -133.211
v -215.901 0.708 -136.951
f 929 930 931 932
v -181.318 0.687 -126.249
v -65.868 0.686 -114.059
v -65.132 0.819 -121.021
v -180.582 0.661 -133.211
f 933 934 935 936
v -65.840 0.686 -114.057
v 26.560 0.565 -105.027
v 27.240 0.528 -111.993
v -65.160 0.819 -121.023
f 937 938 939 940
v 27.518 0.566 -105.065
v 41.118 0.587 -107.505
v 39.882 0.524 -114.395
v 26.282 0.534 -111.955
f 941 942 943 944
v 119.411 0.642 -223.693
v 126.251 0.677 -204.913
v 131.889 0.685 -206.967
v 125.049 0.535 -225.747
f 945 946 947 948
v 215.066 0.927 144.987
v 220.336 0.938 163.577
v 223.704 0.942 162.623
v 218.434 0.886 144.033
f 949 950 951 952
v 220.611 0.940 164.138
v 226.211 1.030 171.738
v 229.029 0.972 169.662
v 223.429 0.943 162.062
f 953 954 955 956
v 226.056 1.025 171.485
v 231.966 0.940 183.265
v 235.094 0.939 181.695
v 229.184 0.979 169.915
f 957 958 959 960
v 232.340 0.946 183.763
v 236.590 0.960 187.703
v 238.970 0.948 185.137
v 234.720 0.937 181.197
f 961 962 963 964
v 237.395 0.953 188.127
v 244.445 0.840 189.717
v 245.215 0.934 186.303
v 238.165 0.948 184.713
f 965 966 967 968
v 42.423 0.605 -37.380
v 49.763 0.708 -90.340
v 46.297 0.798 -90.820
v 38.957 0.613 -37.860
f 969 970 971 972
v 49.764 0.708 -90.341
v 51.114 0.779 -100.131
v 47.646 0.826 -100.609
v 46.296 0.798 -90.819
f 973 974 975 976
v 50.720 0.792 -101.495
v 41.840 0.586 -112.075
v 39.160 0.593 -109.825
v 48.040 0.830 -99.245
f 977 978 979 980
v -250.000 0.705 186.311
v -232.330 1.023 188.141
v -231.970 1.293 184.659
v -249.640 0.700 182.829
f 981 982 983 984
v -232.299 1.023 188.144
v -229.249 1.096 188.404
v -228.951 1.271 184.916
v -232.001 1.293 184.656
f 985 986 987 988
v -229.250 1.096 188.404
v -205.360 1.105 190.454
v -205.060 1.353 186.966
v -228.950 1.271 184.916
f 989 990 991 992
v -205.123 1.104 190.458
v -202.313 1.103 190.318
v -202.487 1.347 186.822
v -205.297 1.351 186.962
f 993 994 995 996
v -201.954 1.100 190.262
v -199.144 1.104 189.522
v -200.036 1.392 186.138
v -202.846 1.341 186.878
f 997 998 999 1000
v -198.992 1.106 189.475
v -196.572 1.161 188.595
v -197.768 1.380 185.305
v -200.188 1.390 186.185
f 1001 1002 1003 1004
v -196.296 1.171 188.466
v -194.076 1.228 187.186
v -195.824 1.264 184.154
v -198.044 1.385 185.434
f 1005 1006 1007 1008
v -193.825 1.237 187.010
v -192.145 1.271 185.600
v -194.395 1.208 182.920
v -196.075 1.281 184.330
f 1009 1010 1011 1012
v -191.908 1.275 185.359
v -191.198 1.275 184.479
v -193.922 1.200 182.281
v -194.632 1.212 183.161
f 1013 1014 1015 1016
v -191.057 1.274 184.276
v -190.497 1.265 183.336
v -193.503 1.192 181.544
v -194.063 1.203 182.484
f 1017 1018 1019 1020
v -190.259 1.261 182.614
v -189.599 1.208 176.004
v -193.081 1.050 175.656
v -193.741 1.200 182.266
f 1021 1022 1023 1024
v -189.598 1.208 176.002
v -187.798 1.169 157.802
v -191.282 1.096 157.458
v -193.082 1.050 175.658
f 1025 1026 1027 1028
v 48.187 0.780 -92.323
v 15.347 0.659 -95.283
v 15.033 0.606 -91.797
v 47.873 0.743 -88.837
f 1029 1030 1031 1032
v 14.536 0.660 -95.163
v 8.756 0.630 -92.833
v 10.064 0.590 -89.587
v 15.844 0.609 -91.917
f 1033 1034 1035 1036
v 8.047 0.645 -92.307
v 4.627 0.677 -88.057
v 7.353 0.606 -85.863
v 10.773 0.585 -90.113
f 1037 1038 1039 1040
v 4.252 0.682 -87.162
v -3.448 0.610 -20.962
v 0.028 0.592 -20.558
v 7.728 0.606 -86.758
f 1041 1042 1043 1044
v 49.734 0.801 -98.656
v 61.564 0.593 -101.096
v 60.856 0.731 -104.524
v 49.026 0.800 -102.084
f 1045 1046 1047 1048
v 61.317 0.594 -101.063
v 72.457 0.678 -101.743
v 72.243 0.713 -105.237
v 61.103 0.731 -104.557
f 1049 1050 1051 1052
v 72.021 0.672 -101.771
v 100.301 0.193 -96.351
v 100.959 0.749 -99.789
v 72.679 0.716 -105.209
f 1053 1054 1055 1056
v 100.521 0.188 -96.323
v 128.841 0.828 -94.563
v 129.059 0.890 -98.057
v 100.739 0.747 -99.817
f 1057 1058 1059 1060
v 128.715 0.827 -94.576
v 160.945 0.427 -90.216
v 161.415 0.662 -93.684
v 129.185 0.889 -98.044
f 1061 1062 1063 1064
v -40.379 0.921 4.260
v -71.939 0.939 0.790
v -72.321 0.923 4.270
v -40.761 0.885 7.740
f 1065 1066 1067 1068
v -72.207 0.938 0.782
v -78.107 0.879 1.042
v -77.953 0.885 4.538
v -72.053 0.926 4.278
f 1069 1070 1071 1072
v -78.129 0.879 1.043
v -89.639 0.974 1.693
v -89.441 1.013 5.187
v -77.931 0.885 4.537
f 1073 1074 1075 1076
v -89.364 0.971 1.699
v -116.354 1.024 -1.031
v -116.706 1.034 2.451
v -89.716 1.014 5.181
f 1077 1078 1079 1080
v -116.354 1.024 -1.031
v -145.114 1.008 -3.931
v -145.466 1.034 -0.449
v -116.706 1.034 2.451
f 1081 1082 1083 1084
v -145.116 1.008 -3.931
v -172.836 1.048 -6.701
v -173.184 1.088 -3.219
v -145.464 1.034 -0.449
f 1085 1086 1087 1088
v -172.835 1.048 -6.701
v -190.135 0.956 -8.441
v -190.485 0.969 -4.959
v -173.185 1.088 -3.219
f 1089 1090 1091 1092
v -190.850 0.953 -8.365
v -197.450 0.927 -6.225
v -196.370 0.975 -2.895
v -189.770 0.973 -5.035
f 1093 1094 1095 1096
v -198.068 0.934 -5.872
v -203.168 0.976 -1.372
v -200.852 1.000 1.252
v -195.752 0.970 -3.248
f 1097 1098 1099 1100
v -203.395 0.975 -1.129
v -206.205 0.960 2.511
v -203.435 0.997 4.649
v -200.625 0.998 1.009
f 1101 1102 1103 1104
v -206.207 0.960 2.514
v -208.267 0.932 5.194
v -205.493 0.989 7.326
v -203.433 0.997 4.646
f 1105 1106 1107 1108
v -208.499 0.929 5.597
v -211.039 0.948 11.797
v -207.801 1.045 13.123
v -205.261 0.983 6.923
f 1109 1110 1111 1112
v -211.108 0.952 11.997
v -213.258 1.026 19.827
v -209.882 1.050 20.753
v -207.732 1.042 12.923
f 1113 1114 1115 1116
v -213.310 1.026 20.102
v -219.950 1.189 81.512
v -216.470 1.182 81.888
v -209.830 1.052 20.478
f 1117 1118 1119 1120
v -173.324 0.789 -255.048
v -175.754 0.910 -237.368
v -172.286 0.910 -236.892
v -169.856 0.799 -254.572
f 1121 1122 1123 1124
v -70.574 1.144 -68.658
v -8.274 0.642 -62.778
v -7.946 0.624 -66.262
v -70.246 1.151 -72.142
f 1125 1126 1127 1128
v -229.990 0.713 2.852
v -219.450 0.923 3.882
v -219.110 0.919 0.398
v -229.650 0.713 -0.632
f 1129 1130 1131 1132
v -219.453 0.923 3.881
v -204.993 0.979 5.321
v -204.647 0.972 1.839
v -219.107 0.919 0.399
f 1133 1134 1135 1136
v -196.742 0.926 -6.302
v -218.022 0.965 -8.352
v -218.358 0.949 -4.868
v -197.078 0.976 -2.818
f 1137 1138 1139 1140
v -218.021 0.965 -8.352
v -228.771 0.738 -9.392
v -229.109 0.720 -5.908
v -218.359 0.949 -4.868
f 1141 1142 1143 1144
v -67.241 0.795 -117.721
v -72.151 1.165 -70.581
v -68.669 1.131 -70.219
v -63.759 0.785 -117.359
f 1145 1146 1147 1148
v -72.151 1.165 -70.581
v -75.541 0.967 -38.021
v -72.059 0.969 -37.659
v -68.669 1.131 -70.219
f 1149 1150 1151 1152
v -192.374 0.937 -37.990
v -181.874 1.043 -36.880
v -181.506 1.011 -40.360
v -192.006 0.930 -41.470
f 1153 1154 1155 1156
v -181.876 1.043 -36.880
v -82.676 0.989 -26.280
v -82.304 0.976 -29.760
v -181.504 1.011 -40.360
f 1157 1158 1159 1160
v -82.678 0.989 -26.280
v -75.098 0.937 -25.460
v -74.722 0.894 -28.940
v -82.302 0.976 -29.760
f 1161 1162 1163 1164
v -75.541 0.967 -38.022
v -76.651 0.919 -27.382
v -73.169 0.931 -27.018
v -72.059 0.969 -37.658
f 1165 1166 1167 1168
v -76.651 0.919 -27.379
v -77.201 0.982 -22.019
v -73.719 0.977 -21.661
v -73.169 0.931 -27.021
f 1169 1170 1171 1172
v -77.201 0.982 -22.022
v -79.771 0.862 2.608
v -76.289 0.867 2.972
v -73.719 0.977 -21.658
f 1173 1174 1175 1176
v -195.167 0.954 -4.406
v -194.437 0.938 -12.686
v -197.923 0.950 -12.994
v -198.653 0.950 -4.714
f 1177 1178 1179 1180
v -194.437 0.938 -12.688
v -194.217 0.963 -15.208
v -197.703 0.976 -15.512
v -197.923 0.950 -12.992
f 1181 1182 1183 1184
v -194.221 0.962 -15.165
v -192.731 1.073 -28.455
v -196.209 1.043 -28.845
v -197.699 0.976 -15.555
f 1185 1186 1187 1188
v -192.756 1.074 -28.297
v -190.476 0.936 -39.377
v -193.904 0.938 -40.083
v -196.184 1.042 -29.003
f 1189 1190 1191 1192
v -190.489 0.936 -39.318
v -189.799 0.932 -42.168
v -193.201 0.947 -42.992
v -193.891 0.938 -40.142
f 1193 1194 1195 1196
v -189.761 0.931 -42.387
v -187.511 1.251 -62.667
v -190.989 1.268 -63.053
v -193.239 0.945 -42.773
f 1197 1198 1199 1200
v 85.067 0.936 61.408
v 61.407 0.866 64.858
v 61.913 0.950 68.322
v 85.573 1.020 64.872
f 1201 1202 1203 1204
v 61.900 0.867 64.857
v 42.800 0.629 62.207
v 42.320 0.736 65.673
v 61.420 0.943 68.323
f 1205 1206 1207 1208
v 43.090 0.634 62.272
v 23.820 0.534 56.142
v 22.760 0.520 59.478
v 42.030 0.727 65.608
f 1209 1210 1211 1212
v 24.673 0.536 56.737
v 14.713 0.507 43.897
v 11.947 0.488 46.043
v 21.907 0.523 58.883
f 1213 1214 1215 1216
v 14.997 0.504 44.438
v 9.797 0.503 28.128
v 6.463 0.492 29.192
v 11.663 0.487 45.502
f 1217 1218 1219 1220
v 9.846 0.504 28.318
v 0.006 0.598 -21.102
v -3.426 0.606 -20.418
v 6.414 0.489 29.002
f 1221 1222 1223 1224
v 160.993 0.426 -90.210
v 227.573 0.634 -83.050
v 227.947 0.692 -86.530
v 161.367 0.663 -93.690
f 1225 1226 1227 1228
v 255.629 0.535 37.211
v 193.949 0.450 50.600
v 194.691 0.405 54.020
v 256.371 0.566 40.631
f 1229 1230 1231 1232
v 242.319 1.186 -178.500
v 235.669 0.939 -150.920
v 239.071 0.895 -150.100
v 245.721 1.189 -177.680
f 1233 1234 1235 1236
v 154.245 0.588 -232.880
v 208.585 0.799 -179.620
v 211.035 0.808 -182.120
v 156.695 0.602 -235.380
f 1237 1238 1239 1240
v -129.009 1.105 171.885
v -118.039 1.103 172.695
v -117.781 1.139 169.205
v -128.751 1.150 168.395
f 1241 1242 1243 1244
v -117.669 1.102 172.683
v -112.629 1.125 171.983
v -113.111 1.101 168.517
v -118.151 1.140 169.217
f 1245 1246 1247 1248
v -111.953 1.132 171.740
v -108.233 1.179 169.450
v -110.067 1.192 166.470
v -113.787 1.105 168.760
f 1249 1250 1251 1252
v -107.690 1.197 168.925
v -105.490 1.210 165.595
v -108.410 1.175 163.665
v -110.610 1.196 166.995
f 1253 1254 1255 1256
v -105.213 1.189 164.842
v -102.683 0.913 144.142
v -106.157 0.947 143.718
v -108.687 1.172 164.418
f 1257 1258 1259 1260
v -102.684 0.913 144.148
v -100.344 0.879 125.548
v -103.816 0.927 125.112
v -106.156 0.947 143.712
f 1261 1262 1263 1264
v -100.345 0.879 125.556
v -99.205 0.858 116.806
v -102.675 0.863 116.354
v -103.815 0.927 125.104
f 1265 1266 1267 1268
v -99.205 0.858 116.806
v -97.655 1.003 104.906
v -101.125 0.987 104.454
v -102.675 0.863 116.354
f 1269 1270 1271 1272
v -169.152 1.035 167.092
v -161.132 0.965 98.132
v -164.608 0.960 97.728
v -172.628 1.011 166.688
f 1273 1274 1275 1276
v -147.983 1.052 168.760
v -139.733 0.986 100.410
v -143.207 0.995 99.990
v -151.457 1.058 168.340
f 1277 1278 1279 1280
v -127.140 1.153 170.331
v -119.700 1.021 102.531
v -123.180 1.016 102.149
v -130.620 1.108 169.949
f 1281 1282 1283 1284
v -189.641 1.210 176.249
v -189.301 1.204 174.869
v -192.699 1.054 174.031
v -193.039 1.044 175.411
f 1285 1286 1287 1288
v -189.368 1.204 175.082
v -188.888 1.206 173.842
v -192.152 1.088 172.578
v -192.632 1.059 173.818
f 1289 1290 1291 1292
v -189.018 1.207 174.107
v -187.698 1.197 171.897
v -190.702 1.165 170.103
v -192.022 1.097 172.313
f 1293 1294 1295 1296
v -187.836 1.198 172.097
v -186.396 1.167 170.307
v -189.124 1.223 168.113
v -190.564 1.172 169.903
f 1297 1298 1299 1300
v -186.655 1.177 170.567
v -184.825 1.069 169.077
v -187.035 1.192 166.363
v -188.865 1.223 167.853
f 1301 1302 1303 1304
v -185.269 1.094 169.340
v -183.529 1.067 168.630
v -184.851 1.048 165.390
v -186.591 1.164 166.100
f 1305 1306 1307 1308
v -183.712 1.067 168.694
v -181.562 1.075 168.084
v -182.518 0.969 164.716
v -184.668 1.043 165.326
f 1309 1310 1311 1312
v -181.886 1.073 168.143
v -179.626 1.049 167.943
v -179.934 0.975 164.457
v -182.194 0.966 164.657
f 1313 1314 1315 1316
v -179.915 1.055 167.945
v -171.025 1.039 168.635
v -170.755 0.998 165.145
v -179.645 0.980 164.455
f 1317 1318 1319 1320
v -171.027 1.039 168.635
v -149.857 1.058 170.295
v -149.583 1.112 166.805
v -170.753 0.998 165.145
f 1321 1322 1323 1324
v -149.856 1.058 170.295
v -135.146 1.058 171.445
v -134.874 1.040 167.955
v -149.584 1.112 166.805
f 1325 1326 1327 1328
v -135.135 1.058 171.446
v -129.005 1.105 171.886
v -128.755 1.150 168.394
v -134.885 1.039 167.954
f 1329 1330 1331 1332
v -193.746 1.201 182.323
v -194.916 1.285 199.853
v -191.424 1.306 200.087
v -190.254 1.261 182.557
f 1333 1334 1335 1336
v -193.029 1.255 198.226
v -195.989 1.203 197.986
v -196.271 1.337 201.474
v -193.311 1.357 201.714
f 1337 1338 1339 1340
v -228.939 1.013 202.713
v -227.359 1.161 186.833
v -230.841 1.126 186.487
v -232.421 1.360 202.367
f 1341 1342 1343 1344
v -252.336 0.746 208.663
v -238.026 1.602 209.943
v -237.714 1.433 206.457
v -252.024 0.728 205.177
f 1345 1346 1347 1348
v -236.788 1.605 209.575
v -229.598 1.202 203.915
v -231.762 1.340 201.165
v -238.952 1.438 206.825
f 1349 1350 1351 1352
v -247.804 0.748 166.984
v -243.054 0.973 167.624
v -242.586 0.967 164.156
v -247.336 0.747 163.516
f 1353 1354 1355 1356
v -243.008 0.976 167.630
v -228.138 1.449 169.240
v -227.762 1.453 165.760
v -242.632 0.965 164.150
f 1357 1358 1359 1360
v -219.006 0.721 -133.746
v -231.676 0.747 -7.926
v -226.204 0.714 -7.374
v -213.534 0.733 -133.194
f 1361 1362 1363 1364
v -231.676 0.747 -7.925
v -232.556 0.740 0.835
v -227.084 0.676 1.385
v -226.204 0.714 -7.375
f 1365 1366 1367 1368
v -232.556 0.740 0.831
v -233.126 0.749 6.411
v -227.654 0.735 6.969
v -227.084 0.676 1.389
f 1369 1370 1371 1372
v -233.125 0.749 6.402
v -237.605 0.706 48.972
v -232.135 0.888 49.548
v -227.655 0.735 6.978
f 1373 1374 1375 1376
v -237.605 0.706 48.972
v -241.785 0.767 88.652
v -236.315 0.776 89.228
v -232.135 0.888 49.548
f 1377 1378 1379 1380
v 206.811 0.851 -254.712
v 232.045 0.985 -231.482
v 234.415 0.972 -234.058
v 209.181 0.833 -257.288
f 1381 1382 1383 1384
v 232.147 0.984 -231.395
v 236.897 0.969 -227.655
v 239.063 0.957 -230.405
v 234.313 0.972 -234.145
f 1385 1386 1387 1388
v 236.588 0.973 -227.969
v 239.948 0.951 -223.559
v 242.732 0.907 -225.681
v 239.372 0.950 -230.091
f 1389 1390 1391 1392
v 239.601 0.951 -224.819
v 238.991 0.955 -219.499
v 242.469 0.952 -219.101
v 243.079 0.911 -224.421
f 1393 1394 1395 1396
v 239.293 0.959 -220.299
v 235.763 1.022 -215.219
v 238.637 1.037 -213.221
v 242.167 0.943 -218.301
f 1397 1398 1399 1400
v 235.755 1.022 -215.208
v 232.125 1.075 -209.898
v 235.015 1.063 -207.922
v 238.645 1.037 -213.232
f 1401 1402 1403 1404
v 232.797 1.065 -210.480
v 229.527 1.102 -208.870
v 231.073 1.045 -205.730
v 234.343 1.060 -207.340
f 1405 1406 1407 1408
v 229.845 1.101 -208.990
v 225.645 1.096 -207.860
v 226.555 1.063 -204.480
v 230.755 1.045 -205.610
f 1409 1410 1411 1412
v 226.260 1.092 -207.913
v 220.800 1.088 -208.413
v 220.480 1.047 -204.927
v 225.940 1.070 -204.427
f 1413 1414 1415 1416
v 221.738 1.093 -208.033
v 208.288 1.124 -218.863
v 206.092 1.115 -216.137
v 219.542 1.050 -205.307
f 1417 1418 1419 1420
v 208.408 1.124 -218.757
v 173.128 0.619 -252.957
v 170.692 0.626 -250.443
v 205.972 1.114 -216.243
f 1421 1422 1423 1424
v 229.263 0.674 -83.893
v 235.863 0.743 -94.953
v 232.857 0.741 -96.747
v 226.257 0.696 -85.687
f 1425 1426 1427 1428
v 235.839 0.743 -94.915
v 254.209 0.881 -123.985
v 251.251 0.883 -125.855
v 232.881 0.741 -96.785
f 1429 1430 1431 1432
v 254.230 0.878 -125.821
v 238.870 0.901 -151.411
v 235.870 0.932 -149.609
v 251.230 0.886 -124.019
f 1433 1434 1435 1436
v -234.681 0.717 47.520
v -241.581 0.653 46.770
v -241.959 0.661 50.250
v -235.059 0.706 51.000
f 1437 1438 1439 1440
v -241.714 0.653 46.761
v -253.874 0.548 46.371
v -253.986 0.556 49.869
v -241.826 0.661 50.259
f 1441 1442 1443 1444
v -255.677 0.551 48.024
v -257.447 0.526 80.234
v -253.953 0.558 80.426
v -252.183 0.558 48.216
f 1445 1446 1447 1448
usemtl asphalt
