# Baked ultra-low Key West silhouette; generated by bake_key_west_far_city.py
mtllib far_city.mtl
usemtl massing
v 87.758 0.779 -28.082
v 105.418 0.779 -28.088
v 105.422 0.779 -16.258
v 87.762 0.779 -16.252
v 87.758 4.679 -28.082
v 105.418 4.679 -28.088
v 105.422 4.679 -16.258
v 87.762 4.679 -16.252
f 8 7 6 5
f 1 2 6 5
f 2 3 7 6
f 3 4 8 7
f 4 1 5 8
v -276.719 1.567 -49.115
v -216.010 1.567 -49.245
v -215.981 1.567 -35.705
v -276.690 1.567 -35.575
v -276.719 7.367 -49.115
v -216.010 7.367 -49.245
v -215.981 7.367 -35.705
v -276.690 7.367 -35.575
f 16 15 14 13
f 9 10 14 13
f 10 11 15 14
f 11 12 16 15
f 12 9 13 16
v -146.952 1.130 182.944
v -146.908 1.130 145.184
v -136.948 1.130 145.196
v -136.992 1.130 182.956
v -146.952 5.030 182.944
v -146.908 5.030 145.184
v -136.948 5.030 145.196
v -136.992 5.030 182.956
f 24 23 22 21
f 17 18 22 21
f 18 19 23 22
f 19 20 24 23
f 20 17 21 24
v -52.201 1.128 151.196
v -52.169 1.128 193.136
v -62.119 1.128 193.144
v -62.151 1.128 151.204
v -52.201 5.028 151.196
v -52.169 5.028 193.136
v -62.119 5.028 193.144
v -62.151 5.028 151.204
f 32 31 30 29
f 25 26 30 29
f 26 27 31 30
f 27 28 32 31
f 28 25 29 32
v -202.686 1.214 237.799
v -202.554 1.214 195.589
v -192.394 1.214 195.621
v -192.526 1.214 237.831
v -202.686 5.114 237.799
v -202.554 5.114 195.589
v -192.394 5.114 195.621
v -192.526 5.114 237.831
f 40 39 38 37
f 33 34 38 37
f 34 35 39 38
f 35 36 40 39
f 36 33 37 40
v -22.854 1.037 208.526
v 14.974 1.037 208.126
v 15.234 1.037 232.774
v -22.594 1.037 233.174
v -22.854 6.837 208.526
v 14.974 6.837 208.126
v 15.234 6.837 232.774
v -22.594 6.837 233.174
f 48 47 46 45
f 41 42 46 45
f 42 43 47 46
f 43 44 48 47
f 44 41 45 48
v -203.187 1.206 187.369
v -203.053 1.206 145.159
v -192.893 1.206 145.191
v -193.027 1.206 187.401
v -203.187 5.106 187.369
v -203.053 5.106 145.159
v -192.893 5.106 145.191
v -193.027 5.106 187.401
f 56 55 54 53
f 49 50 54 53
f 50 51 55 54
f 51 52 56 55
f 52 49 53 56
v -104.319 1.904 65.562
v -78.509 1.904 65.648
v -78.561 1.904 81.318
v -104.371 1.904 81.232
v -104.319 5.804 65.562
v -78.509 5.804 65.648
v -78.561 5.804 81.318
v -104.371 5.804 81.232
f 64 63 62 61
f 57 58 62 61
f 58 59 63 62
f 59 60 64 63
f 60 57 61 64
v -188.549 1.209 228.585
v -150.870 1.209 228.805
v -150.931 1.209 239.275
v -188.610 1.209 239.055
v -188.549 5.109 228.585
v -150.870 5.109 228.805
v -150.931 5.109 239.275
v -188.610 5.109 239.055
f 72 71 70 69
f 65 66 70 69
f 66 67 71 70
f 67 68 72 71
f 68 65 69 72
v -146.994 1.177 237.448
v -146.886 1.177 190.648
v -136.726 1.177 190.672
v -136.834 1.177 237.472
v -146.994 6.977 237.448
v -146.886 6.977 190.648
v -136.726 6.977 190.672
v -136.834 6.977 237.472
f 80 79 78 77
f 73 74 78 77
f 74 75 79 78
f 75 76 80 79
f 76 73 77 80
v -108.192 1.241 149.889
v -66.012 1.241 149.791
v -65.988 1.241 159.691
v -108.168 1.241 159.789
v -108.192 5.141 149.889
v -66.012 5.141 149.791
v -65.988 5.141 159.691
v -108.168 5.141 159.789
f 88 87 86 85
f 81 82 86 85
f 82 83 87 86
f 83 84 88 87
f 84 81 85 88
v -108.227 1.229 235.257
v -66.057 1.229 235.153
v -66.033 1.229 245.043
v -108.203 1.229 245.147
v -108.227 5.129 235.257
v -66.057 5.129 235.153
v -66.033 5.129 245.043
v -108.203 5.129 245.147
f 96 95 94 93
f 89 90 94 93
f 90 91 95 94
f 91 92 96 95
f 92 89 93 96
v -112.402 1.174 151.146
v -112.368 1.174 193.086
v -122.318 1.174 193.094
v -122.352 1.174 151.154
v -112.402 5.074 151.146
v -112.368 5.074 193.086
v -122.318 5.074 193.094
v -122.352 5.074 151.154
f 104 103 102 101
f 97 98 102 101
f 98 99 103 102
f 99 100 104 103
f 100 97 101 104
v -188.909 1.243 143.401
v -151.230 1.243 143.620
v -151.291 1.243 154.079
v -188.970 1.243 153.860
v -188.909 5.143 143.401
v -151.230 5.143 143.620
v -151.291 5.143 154.079
v -188.970 5.143 153.860
f 112 111 110 109
f 105 106 110 109
f 106 107 111 110
f 107 108 112 111
f 108 105 109 112
v -24.058 0.623 78.793
v 5.742 0.623 78.867
v 5.698 0.623 97.167
v -24.102 0.623 97.093
v -24.058 6.423 78.793
v 5.742 6.423 78.867
v 5.698 6.423 97.167
v -24.102 6.423 97.093
f 120 119 118 117
f 113 114 118 117
f 114 115 119 118
f 115 116 120 119
f 116 113 117 120
v -52.277 1.139 201.108
v -51.137 1.139 243.273
v -62.183 1.139 243.572
v -63.323 1.139 201.407
v -52.277 5.039 201.108
v -51.137 5.039 243.273
v -62.183 5.039 243.572
v -63.323 5.039 201.407
f 128 127 126 125
f 121 122 126 125
f 122 123 127 126
f 123 124 128 127
f 124 121 125 128
v -123.413 1.194 243.806
v -122.354 1.194 199.019
v -110.727 1.194 199.294
v -111.786 1.194 244.081
v -123.413 6.994 243.806
v -122.354 6.994 199.019
v -110.727 6.994 199.294
v -111.786 6.994 244.081
f 136 135 134 133
f 129 130 134 133
f 130 131 135 134
f 131 132 136 135
f 132 129 133 136
v -178.469 0.683 -5.942
v -177.699 0.683 -61.287
v -155.511 0.683 -60.978
v -156.281 0.683 -5.633
v -178.469 7.483 -5.942
v -177.699 7.483 -61.287
v -155.511 7.483 -60.978
v -156.281 7.483 -5.633
f 144 143 142 141
f 137 138 142 141
f 138 139 143 142
f 139 140 144 143
f 140 137 141 144
v -79.582 0.610 -64.209
v -76.232 0.610 -20.778
v -101.218 0.610 -18.851
v -104.568 0.610 -62.282
v -79.582 6.410 -64.209
v -76.232 6.410 -20.778
v -101.218 6.410 -18.851
v -104.568 6.410 -62.282
f 152 151 150 149
f 145 146 150 149
f 146 147 151 150
f 147 148 152 151
f 148 145 149 152
v 53.169 1.095 27.532
v 57.648 1.095 95.795
v 33.071 1.095 97.408
v 28.592 1.095 29.145
v 53.169 7.395 27.532
v 57.648 7.395 95.795
v 33.071 7.395 97.408
v 28.592 7.395 29.145
f 160 159 158 157
f 153 154 158 157
f 154 155 159 158
f 155 156 160 159
f 156 153 157 160
v 41.288 2.529 -230.231
v 92.550 2.529 -223.362
v 88.252 2.529 -191.289
v 36.990 2.529 -198.158
v 41.288 8.829 -230.231
v 92.550 8.829 -223.362
v 88.252 8.829 -191.289
v 36.990 8.829 -198.158
f 168 167 166 165
f 161 162 166 165
f 162 163 167 166
f 163 164 168 167
f 164 161 165 168
v -117.977 1.157 -146.572
v -109.104 1.157 -129.107
v -123.823 1.157 -121.628
v -132.696 1.157 -139.093
v -117.977 7.457 -146.572
v -109.104 7.457 -129.107
v -123.823 7.457 -121.628
v -132.696 7.457 -139.093
f 176 175 174 173
f 169 170 174 173
f 170 171 175 174
f 171 172 176 175
f 172 169 173 176
v 67.279 1.437 -120.927
v 101.574 1.437 -126.347
v 105.341 1.437 -102.513
v 71.046 1.437 -97.093
v 67.279 7.737 -120.927
v 101.574 7.737 -126.347
v 105.341 7.737 -102.513
v 71.046 7.737 -97.093
f 184 183 182 181
f 177 178 182 181
f 178 179 183 182
f 179 180 184 183
f 180 177 181 184
v 234.662 1.294 153.314
v 234.979 1.294 122.716
v 253.378 1.294 122.906
v 253.061 1.294 153.504
v 234.662 8.094 153.314
v 234.979 8.094 122.716
v 253.378 8.094 122.906
v 253.061 8.094 153.504
f 192 191 190 189
f 185 186 190 189
f 186 187 191 190
f 187 188 192 191
f 188 185 189 192
v 135.205 0.715 -194.572
v 155.219 0.715 -204.940
v 164.115 0.715 -187.768
v 144.101 0.715 -177.400
v 135.205 4.615 -194.572
v 155.219 4.615 -204.940
v 164.115 4.615 -187.768
v 144.101 4.615 -177.400
f 200 199 198 197
f 193 194 198 197
f 194 195 199 198
f 195 196 200 199
f 196 193 197 200
v 147.264 0.679 -243.201
v 148.124 0.679 -197.519
v 137.496 0.679 -197.319
v 136.636 0.679 -243.001
v 147.264 6.479 -243.201
v 148.124 6.479 -197.519
v 137.496 6.479 -197.319
v 136.636 6.479 -243.001
f 208 207 206 205
f 201 202 206 205
f 202 203 207 206
f 203 204 208 207
f 204 201 205 208
v 183.086 0.169 -254.932
v 203.785 0.169 -251.700
v 202.914 0.169 -246.128
v 182.215 0.169 -249.360
v 183.086 4.069 -254.932
v 203.785 4.069 -251.700
v 202.914 4.069 -246.128
v 182.215 4.069 -249.360
f 216 215 214 213
f 209 210 214 213
f 210 211 215 214
f 211 212 216 215
f 212 209 213 216
v 165.949 0.413 -252.340
v 184.765 0.413 -248.726
v 182.091 0.413 -234.800
v 163.275 0.413 -238.414
v 165.949 4.313 -252.340
v 184.765 4.313 -248.726
v 182.091 4.313 -234.800
v 163.275 4.313 -238.414
f 224 223 222 221
f 217 218 222 221
f 218 219 223 222
f 219 220 224 223
f 220 217 221 224
v -72.523 1.191 -206.567
v -65.717 1.191 -195.797
v -73.477 1.191 -190.893
v -80.283 1.191 -201.663
v -72.523 5.091 -206.567
v -65.717 5.091 -195.797
v -73.477 5.091 -190.893
v -80.283 5.091 -201.663
f 232 231 230 229
f 225 226 230 229
f 226 227 231 230
f 227 228 232 231
f 228 225 229 232
v -62.237 1.068 -202.650
v -55.928 1.068 -190.737
v -64.023 1.068 -186.450
v -70.332 1.068 -198.363
v -62.237 4.968 -202.650
v -55.928 4.968 -190.737
v -64.023 4.968 -186.450
v -70.332 4.968 -198.363
f 240 239 238 237
f 233 234 238 237
f 234 235 239 238
f 235 236 240 239
f 236 233 237 240
v -54.917 1.051 -194.777
v -48.359 1.051 -182.805
v -56.103 1.051 -178.563
v -62.661 1.051 -190.535
v -54.917 4.951 -194.777
v -48.359 4.951 -182.805
v -56.103 4.951 -178.563
v -62.661 4.951 -190.535
f 248 247 246 245
f 241 242 246 245
f 242 243 247 246
f 243 244 248 247
f 244 241 245 248
v -106.098 1.180 -155.314
v -105.106 1.180 -167.895
v -96.622 1.180 -167.226
v -97.614 1.180 -154.645
v -106.098 5.080 -155.314
v -105.106 5.080 -167.895
v -96.622 5.080 -167.226
v -97.614 5.080 -154.645
f 256 255 254 253
f 249 250 254 253
f 250 251 255 254
f 251 252 256 255
f 252 249 253 256
v -70.472 1.162 -110.861
v -63.909 1.162 -121.910
v -56.988 1.162 -117.799
v -63.551 1.162 -106.750
v -70.472 5.062 -110.861
v -63.909 5.062 -121.910
v -56.988 5.062 -117.799
v -63.551 5.062 -106.750
f 264 263 262 261
f 257 258 262 261
f 258 259 263 262
f 259 260 264 263
f 260 257 261 264
v -28.762 0.865 -162.507
v -11.062 0.865 -162.523
v -11.058 0.865 -157.973
v -28.758 0.865 -157.957
v -28.762 4.765 -162.507
v -11.062 4.765 -162.523
v -11.058 4.765 -157.973
v -28.758 4.765 -157.957
f 272 271 270 269
f 265 266 270 269
f 266 267 271 270
f 267 268 272 271
f 268 265 269 272
v -29.634 1.023 -154.167
v -10.945 1.023 -154.073
v -10.966 1.023 -149.933
v -29.655 1.023 -150.027
v -29.634 4.923 -154.167
v -10.945 4.923 -154.073
v -10.966 4.923 -149.933
v -29.655 4.923 -150.027
f 280 279 278 277
f 273 274 278 277
f 274 275 279 278
f 275 276 280 279
f 276 273 277 280
v -28.993 1.125 -144.483
v -14.130 1.125 -145.192
v -13.907 1.125 -140.517
v -28.770 1.125 -139.808
v -28.993 5.025 -144.483
v -14.130 5.025 -145.192
v -13.907 5.025 -140.517
v -28.770 5.025 -139.808
f 288 287 286 285
f 281 282 286 285
f 282 283 287 286
f 283 284 288 287
f 284 281 285 288
v -28.898 0.917 -138.247
v -12.704 0.917 -138.662
v -12.602 0.917 -134.693
v -28.796 0.917 -134.278
v -28.898 4.817 -138.247
v -12.704 4.817 -138.662
v -12.602 4.817 -134.693
v -28.796 4.817 -134.278
f 296 295 294 293
f 289 290 294 293
f 290 291 295 294
f 291 292 296 295
f 292 289 293 296
v -28.942 0.893 -131.951
v -10.262 0.893 -131.969
v -10.258 0.893 -128.309
v -28.938 0.893 -128.291
v -28.942 4.793 -131.951
v -10.262 4.793 -131.969
v -10.258 4.793 -128.309
v -28.938 4.793 -128.291
f 304 303 302 301
f 297 298 302 301
f 298 299 303 302
f 299 300 304 303
f 300 297 301 304
v -0.534 0.735 -162.920
v 14.292 0.735 -163.279
v 14.374 0.735 -159.900
v -0.452 0.735 -159.541
v -0.534 4.635 -162.920
v 14.292 4.635 -163.279
v 14.374 4.635 -159.900
v -0.452 4.635 -159.541
f 312 311 310 309
f 305 306 310 309
f 306 307 311 310
f 307 308 312 311
f 308 305 309 312
v -0.115 0.804 -156.152
v 14.720 0.804 -156.546
v 14.835 0.804 -152.248
v -0.000 0.804 -151.854
v -0.115 4.704 -156.152
v 14.720 4.704 -156.546
v 14.835 4.704 -152.248
v -0.000 4.704 -151.854
f 320 319 318 317
f 313 314 318 317
f 314 315 319 318
f 315 316 320 319
f 316 313 317 320
v 0.181 0.859 -149.375
v 13.976 0.859 -149.733
v 14.079 0.859 -145.745
v 0.284 0.859 -145.387
v 0.181 4.759 -149.375
v 13.976 4.759 -149.733
v 14.079 4.759 -145.745
v 0.284 4.759 -145.387
f 328 327 326 325
f 321 322 326 325
f 322 323 327 326
f 323 324 328 327
f 324 321 325 328
v -0.167 0.858 -143.961
v 14.213 0.858 -143.939
v 14.207 0.858 -140.259
v -0.173 0.858 -140.281
v -0.167 4.758 -143.961
v 14.213 4.758 -143.939
v 14.207 4.758 -140.259
v -0.173 4.758 -140.281
f 336 335 334 333
f 329 330 334 333
f 330 331 335 334
f 331 332 336 335
f 332 329 333 336
v -3.333 0.928 -137.935
v 13.869 0.928 -139.211
v 14.233 0.928 -134.305
v -2.969 0.928 -133.029
v -3.333 4.828 -137.935
v 13.869 4.828 -139.211
v 14.233 4.828 -134.305
v -2.969 4.828 -133.029
f 344 343 342 341
f 337 338 342 341
f 338 339 343 342
f 339 340 344 343
f 340 337 341 344
v -5.504 0.780 -131.528
v 14.113 0.780 -131.851
v 14.184 0.780 -127.552
v -5.433 0.780 -127.229
v -5.504 4.680 -131.528
v 14.113 4.680 -131.851
v 14.184 4.680 -127.552
v -5.433 4.680 -127.229
f 352 351 350 349
f 345 346 350 349
f 346 347 351 350
f 347 348 352 351
f 348 345 349 352
v 20.658 0.982 -153.321
v 21.400 0.982 -142.367
v 15.962 0.982 -141.999
v 15.220 0.982 -152.953
v 20.658 4.882 -153.321
v 21.400 4.882 -142.367
v 15.962 4.882 -141.999
v 15.220 4.882 -152.953
f 360 359 358 357
f 353 354 358 357
f 354 355 359 358
f 355 356 360 359
f 356 353 357 360
v 11.075 1.295 -130.457
v 19.807 1.295 -147.568
v 36.045 1.295 -139.283
v 27.313 1.295 -122.172
v 11.075 5.195 -130.457
v 19.807 5.195 -147.568
v 36.045 5.195 -139.283
v 27.313 5.195 -122.172
f 368 367 366 365
f 361 362 366 365
f 362 363 367 366
f 363 364 368 367
f 364 361 365 368
v -5.334 1.026 -114.061
v 6.623 1.026 -130.317
v 21.494 1.026 -119.379
v 9.537 1.026 -103.123
v -5.334 4.926 -114.061
v 6.623 4.926 -130.317
v 21.494 4.926 -119.379
v 9.537 4.926 -103.123
f 376 375 374 373
f 369 370 374 373
f 370 371 375 374
f 371 372 376 375
f 372 369 373 376
v 88.433 0.714 -159.503
v 98.614 0.714 -128.407
v 70.607 0.714 -119.237
v 60.426 0.714 -150.333
v 88.433 6.514 -159.503
v 98.614 6.514 -128.407
v 70.607 6.514 -119.237
v 60.426 6.514 -150.333
f 384 383 382 381
f 377 378 382 381
f 378 379 383 382
f 379 380 384 383
f 380 377 381 384
v 110.268 0.313 -141.295
v 122.097 0.313 -141.444
v 122.172 0.313 -135.465
v 110.343 0.313 -135.316
v 110.268 4.213 -141.295
v 122.097 4.213 -141.444
v 122.172 4.213 -135.465
v 110.343 4.213 -135.316
f 392 391 390 389
f 385 386 390 389
f 386 387 391 390
f 387 388 392 391
f 388 385 389 392
v 120.164 0.579 -130.996
v 127.673 0.579 -104.895
v 113.316 0.579 -100.764
v 105.807 0.579 -126.865
v 120.164 4.479 -130.996
v 127.673 4.479 -104.895
v 113.316 4.479 -100.764
v 105.807 4.479 -126.865
f 400 399 398 397
f 393 394 398 397
f 394 395 399 398
f 395 396 400 399
f 396 393 397 400
v 105.264 0.842 -14.939
v 118.973 0.842 -14.790
v 118.876 0.842 -5.901
v 105.167 0.842 -6.050
v 105.264 4.742 -14.939
v 118.973 4.742 -14.790
v 118.876 4.742 -5.901
v 105.167 4.742 -6.050
f 408 407 406 405
f 401 402 406 405
f 402 403 407 406
f 403 404 408 407
f 404 401 405 408
v 70.066 0.722 -19.794
v 70.722 0.722 -40.424
v 85.754 0.722 -39.946
v 85.098 0.722 -19.316
v 70.066 4.622 -19.794
v 70.722 4.622 -40.424
v 85.754 4.622 -39.946
v 85.098 4.622 -19.316
f 416 415 414 413
f 409 410 414 413
f 410 411 415 414
f 411 412 416 415
f 412 409 413 416
v 47.530 0.916 -19.688
v 48.244 0.916 -49.289
v 63.010 0.916 -48.932
v 62.296 0.916 -19.331
v 47.530 4.816 -19.688
v 48.244 4.816 -49.289
v 63.010 4.816 -48.932
v 62.296 4.816 -19.331
f 424 423 422 421
f 417 418 422 421
f 418 419 423 422
f 419 420 424 423
f 420 417 421 424
v 32.820 1.216 -34.375
v 33.487 1.216 -54.454
v 45.200 1.216 -54.065
v 44.533 1.216 -33.986
v 32.820 5.116 -34.375
v 33.487 5.116 -54.454
v 45.200 5.116 -54.065
v 44.533 5.116 -33.986
f 432 431 430 429
f 425 426 430 429
f 426 427 431 430
f 427 428 432 431
f 428 425 429 432
v 30.253 1.348 -54.933
v 30.596 1.348 -21.585
v 22.967 1.348 -21.507
v 22.624 1.348 -54.855
v 30.253 5.248 -54.933
v 30.596 5.248 -21.585
v 22.967 5.248 -21.507
v 22.624 5.248 -54.855
f 440 439 438 437
f 433 434 438 437
f 434 435 439 438
f 435 436 440 439
f 436 433 437 440
v 16.610 1.167 -14.636
v 17.006 1.167 -22.246
v 21.670 1.167 -22.004
v 21.274 1.167 -14.394
v 16.610 5.067 -14.636
v 17.006 5.067 -22.246
v 21.670 5.067 -22.004
v 21.274 5.067 -14.394
f 448 447 446 445
f 441 442 446 445
f 442 443 447 446
f 443 444 448 447
f 444 441 445 448
v 15.310 1.190 -21.161
v 15.589 1.190 -7.413
v 7.990 1.190 -7.259
v 7.711 1.190 -21.007
v 15.310 5.090 -21.161
v 15.589 5.090 -7.413
v 7.990 5.090 -7.259
v 7.711 5.090 -21.007
f 456 455 454 453
f 449 450 454 453
f 450 451 455 454
f 451 452 456 455
f 452 449 453 456
v 6.167 1.044 -20.952
v 6.183 1.044 0.448
v 0.613 1.044 0.452
v 0.597 1.044 -20.948
v 6.167 4.944 -20.952
v 6.183 4.944 0.448
v 0.613 4.944 0.452
v 0.597 4.944 -20.948
f 464 463 462 461
f 457 458 462 461
f 458 459 463 462
f 459 460 464 463
f 460 457 461 464
v -24.391 1.217 -61.920
v -5.511 1.217 -62.079
v -5.409 1.217 -49.920
v -24.289 1.217 -49.761
v -24.391 5.117 -61.920
v -5.511 5.117 -62.079
v -5.409 5.117 -49.920
v -24.289 5.117 -49.761
f 472 471 470 469
f 465 466 470 469
f 466 467 471 470
f 467 468 472 471
f 468 465 469 472
v -24.816 1.258 -54.560
v 1.710 1.258 -48.770
v -3.024 1.258 -27.080
v -29.550 1.258 -32.870
v -24.816 5.158 -54.560
v 1.710 5.158 -48.770
v -3.024 5.158 -27.080
v -29.550 5.158 -32.870
f 480 479 478 477
f 473 474 478 477
f 474 475 479 478
f 475 476 480 479
f 476 473 477 480
v 15.457 1.170 -52.030
v 15.543 1.170 -20.911
v 7.943 1.170 -20.890
v 7.857 1.170 -52.009
v 15.457 5.070 -52.030
v 15.543 5.070 -20.911
v 7.943 5.070 -20.890
v 7.857 5.070 -52.009
f 488 487 486 485
f 481 482 486 485
f 482 483 487 486
f 483 484 488 487
f 484 481 485 488
v 15.985 1.184 -29.487
v 16.248 1.184 -39.693
v 23.235 1.184 -39.513
v 22.972 1.184 -29.307
v 15.985 5.084 -29.487
v 16.248 5.084 -39.693
v 23.235 5.084 -39.513
v 22.972 5.084 -29.307
f 496 495 494 493
f 489 490 494 493
f 490 491 495 494
f 491 492 496 495
f 492 489 493 496
v 22.363 1.208 -11.743
v 22.878 1.208 -21.960
v 30.877 1.208 -21.557
v 30.362 1.208 -11.340
v 22.363 5.108 -11.743
v 22.878 5.108 -21.960
v 30.877 5.108 -21.557
v 30.362 5.108 -11.340
f 504 503 502 501
f 497 498 502 501
f 498 499 503 502
f 499 500 504 503
f 500 497 501 504
v 29.618 1.104 -13.871
v 32.476 1.104 -3.976
v 23.522 1.104 -1.389
v 20.664 1.104 -11.284
v 29.618 5.004 -13.871
v 32.476 5.004 -3.976
v 23.522 5.004 -1.389
v 20.664 5.004 -11.284
f 512 511 510 509
f 505 506 510 509
f 506 507 511 510
f 507 508 512 511
f 508 505 509 512
v -95.939 0.548 1.806
v -95.811 0.548 -17.013
v -91.901 0.548 -16.986
v -92.029 0.548 1.833
v -95.939 4.448 1.806
v -95.811 4.448 -17.013
v -91.901 4.448 -16.986
v -92.029 4.448 1.833
f 520 519 518 517
f 513 514 518 517
f 514 515 519 518
f 515 516 520 519
f 516 513 517 520
v -88.874 0.561 1.802
v -88.576 0.561 -16.925
v -84.606 0.561 -16.862
v -84.904 0.561 1.865
v -88.874 4.461 1.802
v -88.576 4.461 -16.925
v -84.606 4.461 -16.862
v -84.904 4.461 1.865
f 528 527 526 525
f 521 522 526 525
f 522 523 527 526
f 523 524 528 527
f 524 521 525 528
v -81.621 0.561 1.977
v -81.498 0.561 -17.063
v -77.479 0.561 -17.037
v -77.602 0.561 2.003
v -81.621 4.461 1.977
v -81.498 4.461 -17.063
v -77.479 4.461 -17.037
v -77.602 4.461 2.003
f 536 535 534 533
f 529 530 534 533
f 530 531 535 534
f 531 532 536 535
f 532 529 533 536
v -74.492 0.581 1.634
v -74.128 0.581 -16.793
v -70.108 0.581 -16.714
v -70.472 0.581 1.713
v -74.492 4.481 1.634
v -74.128 4.481 -16.793
v -70.108 4.481 -16.714
v -70.472 4.481 1.713
f 544 543 542 541
f 537 538 542 541
f 538 539 543 542
f 539 540 544 543
f 540 537 541 544
v -67.182 0.611 -18.046
v -48.294 0.611 -18.254
v -48.238 0.611 -13.174
v -67.126 0.611 -12.966
v -67.182 4.511 -18.046
v -48.294 4.511 -18.254
v -48.238 4.511 -13.174
v -67.126 4.511 -12.966
f 552 551 550 549
f 545 546 550 549
f 546 547 551 550
f 547 548 552 551
f 548 545 549 552
v -66.876 0.594 -9.407
v -48.336 0.594 -9.373
v -48.344 0.594 -4.973
v -66.884 0.594 -5.007
v -66.876 4.494 -9.407
v -48.336 4.494 -9.373
v -48.344 4.494 -4.973
v -66.884 4.494 -5.007
f 560 559 558 557
f 553 554 558 557
f 554 555 559 558
f 555 556 560 559
f 556 553 557 560
v -66.946 0.550 -2.145
v -48.126 0.550 -2.105
v -48.134 0.550 2.005
v -66.954 0.550 1.965
v -66.946 4.450 -2.145
v -48.126 4.450 -2.105
v -48.134 4.450 2.005
v -66.954 4.450 1.965
f 568 567 566 565
f 561 562 566 565
f 562 563 567 566
f 563 564 568 567
f 564 561 565 568
v -172.650 1.055 -111.041
v -172.431 1.055 -97.793
v -180.550 1.055 -97.659
v -180.769 1.055 -110.907
v -172.650 4.955 -111.041
v -172.431 4.955 -97.793
v -180.550 4.955 -97.659
v -180.769 4.955 -110.907
f 576 575 574 573
f 569 570 574 573
f 570 571 575 574
f 571 572 576 575
f 572 569 573 576
v -232.159 1.144 -142.507
v -208.989 1.144 -142.583
v -208.961 1.144 -134.053
v -232.131 1.144 -133.977
v -232.159 5.044 -142.507
v -208.989 5.044 -142.583
v -208.961 5.044 -134.053
v -232.131 5.044 -133.977
f 584 583 582 581
f 577 578 582 581
f 578 579 583 582
f 579 580 584 583
f 580 577 581 584
v -110.683 0.494 -26.939
v -110.647 0.494 -45.709
v -106.117 0.494 -45.701
v -106.153 0.494 -26.931
v -110.683 4.394 -26.939
v -110.647 4.394 -45.709
v -106.117 4.394 -45.701
v -106.153 4.394 -26.931
f 592 591 590 589
f 585 586 590 589
f 586 587 591 590
f 587 588 592 591
f 588 585 589 592
v 9.520 0.421 69.558
v 13.219 0.421 69.643
v 13.140 0.421 73.042
v 9.441 0.421 72.957
v 9.520 4.321 69.558
v 13.219 4.321 69.643
v 13.140 4.321 73.042
v 9.441 4.321 72.957
f 600 599 598 597
f 593 594 598 597
f 594 595 599 598
f 595 596 600 599
f 596 593 597 600
v -10.306 0.407 59.374
v -5.476 0.407 59.306
v -5.434 0.407 62.286
v -10.264 0.407 62.354
v -10.306 4.307 59.374
v -5.476 4.307 59.306
v -5.434 4.307 62.286
v -10.264 4.307 62.354
f 608 607 606 605
f 601 602 606 605
f 602 603 607 606
f 603 604 608 607
f 604 601 605 608
v 98.492 0.638 86.296
v 98.717 0.638 97.834
v 93.048 0.638 97.944
v 92.823 0.638 86.406
v 98.492 4.538 86.296
v 98.717 4.538 97.834
v 93.048 4.538 97.944
v 92.823 4.538 86.406
f 616 615 614 613
f 609 610 614 613
f 610 611 615 614
f 611 612 616 615
f 612 609 613 616
v 105.989 1.158 28.245
v 106.051 1.158 58.695
v 96.211 1.158 58.715
v 96.149 1.158 28.265
v 105.989 5.058 28.245
v 106.051 5.058 58.695
v 96.211 5.058 58.715
v 96.149 5.058 28.265
f 624 623 622 621
f 617 618 622 621
f 618 619 623 622
f 619 620 624 623
f 620 617 621 624
v -4.792 0.450 56.502
v -1.053 0.450 56.439
v -1.008 0.450 59.138
v -4.747 0.450 59.201
v -4.792 4.350 56.502
v -1.053 4.350 56.439
v -1.008 4.350 59.138
v -4.747 4.350 59.201
f 632 631 630 629
f 625 626 630 629
f 626 627 631 630
f 627 628 632 631
f 628 625 629 632
v -231.949 1.143 -130.698
v -208.919 1.143 -130.772
v -208.891 1.143 -122.382
v -231.921 1.143 -122.308
v -231.949 5.043 -130.698
v -208.919 5.043 -130.772
v -208.891 5.043 -122.382
v -231.921 5.043 -122.308
f 640 639 638 637
f 633 634 638 637
f 634 635 639 638
f 635 636 640 639
f 636 633 637 640
v 29.934 1.048 29.447
v 30.226 1.048 60.165
v 20.946 1.048 60.253
v 20.654 1.048 29.535
v 29.934 4.948 29.447
v 30.226 4.948 60.165
v 20.946 4.948 60.253
v 20.654 4.948 29.535
f 648 647 646 645
f 641 642 646 645
f 642 643 647 646
f 643 644 648 647
f 644 641 645 648
v -72.626 0.721 51.679
v -72.393 0.721 27.900
v -62.034 0.721 28.001
v -62.267 0.721 51.780
v -72.626 4.621 51.679
v -72.393 4.621 27.900
v -62.034 4.621 28.001
v -62.267 4.621 51.780
f 656 655 654 653
f 649 650 654 653
f 650 651 655 654
f 651 652 656 655
f 652 649 653 656
v 61.048 1.603 177.831
v 61.292 1.603 127.662
v 75.052 1.603 127.729
v 74.808 1.603 177.898
v 61.048 7.403 177.831
v 61.292 7.403 127.662
v 75.052 7.403 127.729
v 74.808 7.403 177.898
f 664 663 662 661
f 657 658 662 661
f 658 659 663 662
f 659 660 664 663
f 660 657 661 664
v 4.847 0.682 63.600
v 15.537 0.682 63.610
v 15.533 0.682 68.740
v 4.843 0.682 68.730
v 4.847 4.582 63.600
v 15.537 4.582 63.610
v 15.533 4.582 68.740
v 4.843 4.582 68.730
f 672 671 670 669
f 665 666 670 669
f 666 667 671 670
f 667 668 672 671
f 668 665 669 672
v 152.717 1.065 123.152
v 152.943 1.065 150.171
v 141.323 1.065 150.268
v 141.097 1.065 123.249
v 152.717 4.965 123.152
v 152.943 4.965 150.171
v 141.323 4.965 150.268
v 141.097 4.965 123.249
f 680 679 678 677
f 673 674 678 677
f 674 675 679 678
f 675 676 680 679
f 676 673 677 680
v -232.159 1.169 -154.447
v -208.869 1.169 -154.523
v -208.841 1.169 -145.873
v -232.131 1.169 -145.797
v -232.159 5.069 -154.447
v -208.869 5.069 -154.523
v -208.841 5.069 -145.873
v -232.131 5.069 -145.797
f 688 687 686 685
f 681 682 686 685
f 682 683 687 686
f 683 684 688 687
f 684 681 685 688
v -232.020 1.119 -166.325
v -208.730 1.119 -166.405
v -208.700 1.119 -157.755
v -231.990 1.119 -157.675
v -232.020 5.019 -166.325
v -208.730 5.019 -166.405
v -208.700 5.019 -157.755
v -231.990 5.019 -157.675
f 696 695 694 693
f 689 690 694 693
f 690 691 695 694
f 691 692 696 695
f 692 689 693 696
v 5.297 1.358 49.939
v 15.106 1.358 49.802
v 15.203 1.358 56.761
v 5.394 1.358 56.898
v 5.297 5.258 49.939
v 15.106 5.258 49.802
v 15.203 5.258 56.761
v 5.394 5.258 56.898
f 704 703 702 701
f 697 698 702 701
f 698 699 703 702
f 699 700 704 703
f 700 697 701 704
v -176.287 1.029 -142.863
v -162.937 1.029 -142.867
v -162.933 1.029 -134.697
v -176.283 1.029 -134.693
v -176.287 4.929 -142.863
v -162.937 4.929 -142.867
v -162.933 4.929 -134.697
v -176.283 4.929 -134.693
f 712 711 710 709
f 705 706 710 709
f 706 707 711 710
f 707 708 712 711
f 708 705 709 712
v -228.894 1.182 -178.315
v -208.754 1.182 -178.245
v -208.786 1.182 -169.325
v -228.926 1.182 -169.395
v -228.894 5.082 -178.315
v -208.754 5.082 -178.245
v -208.786 5.082 -169.325
v -228.926 5.082 -169.395
f 720 719 718 717
f 713 714 718 717
f 714 715 719 718
f 715 716 720 719
f 716 713 717 720
v -232.073 1.198 -107.199
v -208.773 1.198 -107.271
v -208.747 1.198 -98.621
v -232.047 1.198 -98.549
v -232.073 5.098 -107.199
v -208.773 5.098 -107.271
v -208.747 5.098 -98.621
v -232.047 5.098 -98.549
f 728 727 726 725
f 721 722 726 725
f 722 723 727 726
f 723 724 728 727
f 724 721 725 728
v -106.460 0.467 -24.240
v -106.280 0.467 -5.801
v -110.520 0.467 -5.760
v -110.700 0.467 -24.199
v -106.460 4.367 -24.240
v -106.280 4.367 -5.801
v -110.520 4.367 -5.760
v -110.700 4.367 -24.199
f 736 735 734 733
f 729 730 734 733
f 730 731 735 734
f 731 732 736 735
f 732 729 733 736
v -134.745 0.295 38.048
v -134.665 0.295 29.079
v -130.955 0.295 29.112
v -131.035 0.295 38.081
v -134.745 4.195 38.048
v -134.665 4.195 29.079
v -130.955 4.195 29.112
v -131.035 4.195 38.081
f 744 743 742 741
f 737 738 742 741
f 738 739 743 742
f 739 740 744 743
f 740 737 741 744
v 49.307 0.759 244.398
v 62.787 0.759 244.392
v 62.793 0.759 255.942
v 49.313 0.759 255.948
v 49.307 4.659 244.398
v 62.787 4.659 244.392
v 62.793 4.659 255.942
v 49.313 4.659 255.948
f 752 751 750 749
f 745 746 750 749
f 746 747 751 750
f 747 748 752 751
f 748 745 749 752
v -232.008 1.028 -118.891
v -208.838 1.028 -118.959
v -208.812 1.028 -110.429
v -231.982 1.028 -110.361
v -232.008 4.928 -118.891
v -208.838 4.928 -118.959
v -208.812 4.928 -110.429
v -231.982 4.928 -110.361
f 760 759 758 757
f 753 754 758 757
f 754 755 759 758
f 755 756 760 759
f 756 753 757 760
v 79.235 0.706 227.274
v 79.384 0.706 240.654
v 67.565 0.706 240.786
v 67.416 0.706 227.406
v 79.235 4.606 227.274
v 79.384 4.606 240.654
v 67.565 4.606 240.786
v 67.416 4.606 227.406
f 768 767 766 765
f 761 762 766 765
f 762 763 767 766
f 763 764 768 767
f 764 761 765 768
v -179.023 1.180 192.183
v -158.368 1.180 190.667
v -157.297 1.180 205.257
v -177.952 1.180 206.773
v -179.023 5.080 192.183
v -158.368 5.080 190.667
v -157.297 5.080 205.257
v -177.952 5.080 206.773
f 776 775 774 773
f 769 770 774 773
f 770 771 775 774
f 771 772 776 775
f 772 769 773 776
v -23.043 1.755 193.738
v -22.626 1.755 124.019
v 31.443 1.755 124.342
v 31.026 1.755 194.061
v -23.043 10.055 193.738
v -22.626 10.055 124.019
v 31.443 10.055 124.342
v 31.026 10.055 194.061
f 784 783 782 781
f 777 778 782 781
f 778 779 783 782
f 779 780 784 783
f 780 777 781 784
v 204.493 0.477 154.748
v 204.909 0.477 124.771
v 223.787 0.477 125.032
v 223.371 0.477 155.009
v 204.493 7.277 154.748
v 204.909 7.277 124.771
v 223.787 7.277 125.032
v 223.371 7.277 155.009
f 792 791 790 789
f 785 786 790 789
f 786 787 791 790
f 787 788 792 791
f 788 785 789 792
v 182.323 0.380 116.888
v 200.481 0.380 134.778
v 185.217 0.380 150.272
v 167.059 0.380 132.382
v 182.323 4.280 116.888
v 200.481 4.280 134.778
v 185.217 4.280 150.272
v 167.059 4.280 132.382
f 800 799 798 797
f 793 794 798 797
f 794 795 799 798
f 795 796 800 799
f 796 793 797 800
v 84.717 0.666 121.892
v 108.216 0.666 121.193
v 108.543 0.666 132.168
v 85.044 0.666 132.867
v 84.717 4.566 121.892
v 108.216 4.566 121.193
v 108.543 4.566 132.168
v 85.044 4.566 132.867
f 808 807 806 805
f 801 802 806 805
f 802 803 807 806
f 803 804 808 807
f 804 801 805 808
v 88.965 0.441 134.445
v 104.795 0.441 134.555
v 104.715 0.441 146.175
v 88.885 0.441 146.065
v 88.965 4.341 134.445
v 104.795 4.341 134.555
v 104.715 4.341 146.175
v 88.885 4.341 146.065
f 816 815 814 813
f 809 810 814 813
f 810 811 815 814
f 811 812 816 815
f 812 809 813 816
v 87.327 0.617 141.707
v 89.160 0.617 152.907
v 80.693 0.617 154.293
v 78.860 0.617 143.093
v 87.327 4.517 141.707
v 89.160 4.517 152.907
v 80.693 4.517 154.293
v 78.860 4.517 143.093
f 824 823 822 821
f 817 818 822 821
f 818 819 823 822
f 819 820 824 823
f 820 817 821 824
v 84.169 0.609 153.491
v 105.223 0.609 154.306
v 104.851 0.609 163.909
v 83.797 0.609 163.094
v 84.169 4.509 153.491
v 105.223 4.509 154.306
v 104.851 4.509 163.909
v 83.797 4.509 163.094
f 832 831 830 829
f 825 826 830 829
f 826 827 831 830
f 827 828 832 831
f 828 825 829 832
v 88.998 0.739 166.265
v 105.967 0.739 166.445
v 105.842 0.739 178.255
v 88.873 0.739 178.075
v 88.998 4.639 166.265
v 105.967 4.639 166.445
v 105.842 4.639 178.255
v 88.873 4.639 178.075
f 840 839 838 837
f 833 834 838 837
f 834 835 839 838
f 835 836 840 839
f 836 833 837 840
v 88.477 0.465 181.653
v 107.638 0.465 176.703
v 111.463 0.465 191.507
v 92.302 0.465 196.457
v 88.477 4.365 181.653
v 107.638 4.365 176.703
v 111.463 4.365 191.507
v 92.302 4.365 196.457
f 848 847 846 845
f 841 842 846 845
f 842 843 847 846
f 843 844 848 847
f 844 841 845 848
v 92.247 0.428 197.027
v 92.819 0.428 220.190
v 80.533 0.428 220.493
v 79.961 0.428 197.330
v 92.247 4.328 197.027
v 92.819 4.328 220.190
v 80.533 4.328 220.493
v 79.961 4.328 197.330
f 856 855 854 853
f 849 850 854 853
f 850 851 855 854
f 851 852 856 855
f 852 849 853 856
v 49.404 0.672 209.485
v 67.718 0.672 210.920
v 66.556 0.672 225.755
v 48.242 0.672 224.320
v 49.404 4.572 209.485
v 67.718 4.572 210.920
v 66.556 4.572 225.755
v 48.242 4.572 224.320
f 864 863 862 861
f 857 858 862 861
f 858 859 863 862
f 859 860 864 863
f 860 857 861 864
v 65.545 0.654 240.436
v 79.806 0.654 241.736
v 78.675 0.654 254.144
v 64.414 0.654 252.844
v 65.545 4.554 240.436
v 79.806 4.554 241.736
v 78.675 4.554 254.144
v 64.414 4.554 252.844
f 872 871 870 869
f 865 866 870 869
f 866 867 871 870
f 867 868 872 871
f 868 865 869 872
v 82.849 0.432 228.903
v 99.895 0.432 229.269
v 99.671 0.432 239.677
v 82.625 0.432 239.311
v 82.849 4.332 228.903
v 99.895 4.332 229.269
v 99.671 4.332 239.677
v 82.625 4.332 239.311
f 880 879 878 877
f 873 874 878 877
f 874 875 879 878
f 875 876 880 879
f 876 873 877 880
v 160.365 0.559 202.370
v 167.399 0.559 251.014
v 145.715 0.559 254.150
v 138.681 0.559 205.506
v 160.365 6.359 202.370
v 167.399 6.359 251.014
v 145.715 6.359 254.150
v 138.681 6.359 205.506
f 888 887 886 885
f 881 882 886 885
f 882 883 887 886
f 883 884 888 887
f 884 881 885 888
v 221.718 0.279 89.412
v 247.206 0.279 71.124
v 256.522 0.279 84.108
v 231.034 0.279 102.396
v 221.718 7.079 89.412
v 247.206 7.079 71.124
v 256.522 7.079 84.108
v 231.034 7.079 102.396
f 896 895 894 893
f 889 890 894 893
f 890 891 895 894
f 891 892 896 895
f 892 889 893 896
v 162.937 0.532 56.717
v 219.603 0.532 64.446
v 214.543 0.532 101.543
v 157.877 0.532 93.814
v 162.937 8.832 56.717
v 219.603 8.832 64.446
v 214.543 8.832 101.543
v 157.877 8.832 93.814
f 904 903 902 901
f 897 898 902 901
f 898 899 903 902
f 899 900 904 903
f 900 897 901 904
v 139.208 1.540 34.287
v 160.911 1.540 29.522
v 164.312 1.540 45.013
v 142.609 1.540 49.778
v 139.208 5.440 34.287
v 160.911 5.440 29.522
v 164.312 5.440 45.013
v 142.609 5.440 49.778
f 912 911 910 909
f 905 906 910 909
f 906 907 911 910
f 907 908 912 911
f 908 905 909 912
v 208.143 0.760 -21.202
v 246.692 0.760 -32.352
v 256.617 0.760 1.962
v 218.068 0.760 13.112
v 208.143 6.560 -21.202
v 246.692 6.560 -32.352
v 256.617 6.560 1.962
v 218.068 6.560 13.112
f 920 919 918 917
f 913 914 918 917
f 914 915 919 918
f 915 916 920 919
f 916 913 917 920
v 246.702 0.306 216.064
v 259.828 0.306 229.086
v 257.398 0.306 231.536
v 244.272 0.306 218.514
v 246.702 4.206 216.064
v 259.828 4.206 229.086
v 257.398 4.206 231.536
v 244.272 4.206 218.514
f 928 927 926 925
f 921 922 926 925
f 922 923 927 926
f 923 924 928 927
f 924 921 925 928
v 223.543 0.411 226.819
v 238.425 0.411 217.442
v 240.957 0.411 221.461
v 226.075 0.411 230.838
v 223.543 4.311 226.819
v 238.425 4.311 217.442
v 240.957 4.311 221.461
v 226.075 4.311 230.838
f 936 935 934 933
f 929 930 934 933
f 930 931 935 934
f 931 932 936 935
f 932 929 933 936
v 233.890 0.442 207.226
v 244.941 0.442 200.628
v 247.130 0.442 204.294
v 236.079 0.442 210.892
v 233.890 4.342 207.226
v 244.941 4.342 200.628
v 247.130 4.342 204.294
v 236.079 4.342 210.892
f 944 943 942 941
f 937 938 942 941
f 938 939 943 942
f 939 940 944 943
f 940 937 941 944
v 240.435 0.522 201.537
v 257.103 0.522 190.813
v 261.085 0.522 197.003
v 244.417 0.522 207.727
v 240.435 4.422 201.537
v 257.103 4.422 190.813
v 261.085 4.422 197.003
v 244.417 4.422 207.727
f 952 951 950 949
f 945 946 950 949
f 946 947 951 950
f 947 948 952 951
f 948 945 949 952
v -90.768 0.745 54.174
v -90.652 0.745 25.744
v -75.372 0.745 25.806
v -75.488 0.745 54.236
v -90.768 4.645 54.174
v -90.652 4.645 25.744
v -75.372 4.645 25.806
v -75.488 4.645 54.236
f 960 959 958 957
f 953 954 958 957
f 954 955 959 958
f 955 956 960 959
f 956 953 957 960
v -107.634 0.562 27.211
v -107.396 0.562 48.830
v -118.246 0.562 48.949
v -118.484 0.562 27.330
v -107.634 4.462 27.211
v -107.396 4.462 48.830
v -118.246 4.462 48.949
v -118.484 4.462 27.330
f 968 967 966 965
f 961 962 966 965
f 962 963 967 966
f 963 964 968 967
f 964 961 965 968
v -149.478 0.359 50.271
v -149.362 0.359 31.891
v -137.062 0.359 31.969
v -137.178 0.359 50.349
v -149.478 4.259 50.271
v -149.362 4.259 31.891
v -137.062 4.259 31.969
v -137.178 4.259 50.349
f 976 975 974 973
f 969 970 974 973
f 970 971 975 974
f 971 972 976 975
f 972 969 973 976
v -167.913 1.576 94.521
v -165.530 1.576 61.828
v -147.807 1.576 63.119
v -150.190 1.576 95.812
v -167.913 7.376 94.521
v -165.530 7.376 61.828
v -147.807 7.376 63.119
v -150.190 7.376 95.812
f 984 983 982 981
f 977 978 982 981
f 978 979 983 982
f 979 980 984 983
f 980 977 981 984
v -194.063 1.263 94.551
v -193.765 1.263 74.233
v -177.737 1.263 74.469
v -178.035 1.263 94.787
v -194.063 5.163 94.551
v -193.765 5.163 74.233
v -177.737 5.163 74.469
v -178.035 5.163 94.787
f 992 991 990 989
f 985 986 990 989
f 986 987 991 990
f 987 988 992 991
f 988 985 989 992
v -171.578 0.576 27.523
v -171.214 0.576 44.939
v -181.662 0.576 45.157
v -182.026 0.576 27.741
v -171.578 4.476 27.523
v -171.214 4.476 44.939
v -181.662 4.476 45.157
v -182.026 4.476 27.741
f 1000 999 998 997
f 993 994 998 997
f 994 995 999 998
f 995 996 1000 999
f 996 993 997 1000
v -49.291 0.333 71.878
v -47.069 0.333 93.514
v -60.389 0.333 94.882
v -62.611 0.333 73.246
v -49.291 4.233 71.878
v -47.069 4.233 93.514
v -60.389 4.233 94.882
v -62.611 4.233 73.246
f 1008 1007 1006 1005
f 1001 1002 1006 1005
f 1002 1003 1007 1006
f 1003 1004 1008 1007
f 1004 1001 1005 1008
v 20.430 1.157 87.992
v 20.450 1.157 72.392
v 32.550 1.157 72.408
v 32.530 1.157 88.008
v 20.430 5.057 87.992
v 20.450 5.057 72.392
v 32.550 5.057 72.408
v 32.530 5.057 88.008
f 1016 1015 1014 1013
f 1009 1010 1014 1013
f 1010 1011 1015 1014
f 1011 1012 1016 1015
f 1012 1009 1013 1016
v 85.121 1.163 44.773
v 85.129 1.163 61.923
v 74.399 1.163 61.927
v 74.391 1.163 44.777
v 85.121 5.063 44.773
v 85.129 5.063 61.923
v 74.399 5.063 61.927
v 74.391 5.063 44.777
f 1024 1023 1022 1021
f 1017 1018 1022 1021
f 1018 1019 1023 1022
f 1019 1020 1024 1023
f 1020 1017 1021 1024
v 107.346 0.837 61.718
v 107.464 0.837 28.698
v 119.614 0.837 28.742
v 119.496 0.837 61.762
v 107.346 7.637 61.718
v 107.464 7.637 28.698
v 119.614 7.637 28.742
v 119.496 7.637 61.762
f 1032 1031 1030 1029
f 1025 1026 1030 1029
f 1026 1027 1031 1030
f 1027 1028 1032 1031
f 1028 1025 1029 1032
v 88.443 0.630 48.101
v 118.269 0.630 80.816
v 90.757 0.630 105.899
v 60.931 0.630 73.184
v 88.443 6.430 48.101
v 118.269 6.430 80.816
v 90.757 6.430 105.899
v 60.931 6.430 73.184
f 1040 1039 1038 1037
f 1033 1034 1038 1037
f 1034 1035 1039 1038
f 1035 1036 1040 1039
f 1036 1033 1037 1040
v 108.046 0.697 84.002
v 108.144 0.697 66.572
v 119.894 0.697 66.638
v 119.796 0.697 84.068
v 108.046 9.997 84.002
v 108.144 9.997 66.572
v 119.894 9.997 66.638
v 119.796 9.997 84.068
f 1048 1047 1046 1045
f 1041 1042 1046 1045
f 1042 1043 1047 1046
f 1043 1044 1048 1047
f 1044 1041 1045 1048
v 108.091 0.727 86.967
v 120.121 0.727 87.013
v 120.089 0.727 95.393
v 108.059 0.727 95.347
v 108.091 10.027 86.967
v 120.121 10.027 87.013
v 120.089 10.027 95.393
v 108.059 10.027 95.347
f 1056 1055 1054 1053
f 1049 1050 1054 1053
f 1050 1051 1055 1054
f 1051 1052 1056 1055
f 1052 1049 1053 1056
v -190.872 1.154 -98.634
v -190.848 1.154 -110.044
v -182.628 1.154 -110.026
v -182.652 1.154 -98.616
v -190.872 5.054 -98.634
v -190.848 5.054 -110.044
v -182.628 5.054 -110.026
v -182.652 5.054 -98.616
f 1064 1063 1062 1061
f 1057 1058 1062 1061
f 1058 1059 1063 1062
f 1059 1060 1064 1063
f 1060 1057 1061 1064
v -171.609 1.109 -97.140
v -167.465 1.109 -113.369
v -150.431 1.109 -109.020
v -154.575 1.109 -92.791
v -171.609 5.009 -97.140
v -167.465 5.009 -113.369
v -150.431 5.009 -109.020
v -154.575 5.009 -92.791
f 1072 1071 1070 1069
f 1065 1066 1070 1069
f 1066 1067 1071 1070
f 1067 1068 1072 1071
f 1068 1065 1069 1072
v -165.093 1.169 -135.433
v -140.658 1.169 -147.358
v -132.347 1.169 -130.327
v -156.782 1.169 -118.402
v -165.093 5.069 -135.433
v -140.658 5.069 -147.358
v -132.347 5.069 -130.327
v -156.782 5.069 -118.402
f 1080 1079 1078 1077
f 1073 1074 1078 1077
f 1074 1075 1079 1078
f 1075 1076 1080 1079
f 1076 1073 1077 1080
v -204.816 1.000 -95.589
v -203.235 1.000 -110.847
v -192.264 1.000 -109.711
v -193.845 1.000 -94.453
v -204.816 4.900 -95.589
v -203.235 4.900 -110.847
v -192.264 4.900 -109.711
v -193.845 4.900 -94.453
f 1088 1087 1086 1085
f 1081 1082 1086 1085
f 1082 1083 1087 1086
f 1083 1084 1088 1087
f 1084 1081 1085 1088
v -205.053 0.928 -124.292
v -202.055 0.928 -141.554
v -185.207 0.928 -138.628
v -188.205 0.928 -121.366
v -205.053 4.828 -124.292
v -202.055 4.828 -141.554
v -185.207 4.828 -138.628
v -188.205 4.828 -121.366
f 1096 1095 1094 1093
f 1089 1090 1094 1093
f 1090 1091 1095 1094
f 1091 1092 1096 1095
f 1092 1089 1093 1096
v -181.336 0.885 -146.254
v -176.630 0.885 -163.566
v -158.604 0.885 -158.666
v -163.310 0.885 -141.354
v -181.336 4.785 -146.254
v -176.630 4.785 -163.566
v -158.604 4.785 -158.666
v -163.310 4.785 -141.354
f 1104 1103 1102 1101
f 1097 1098 1102 1101
f 1098 1099 1103 1102
f 1099 1100 1104 1103
f 1100 1097 1101 1104
v -188.428 0.908 -161.389
v -187.526 0.908 -145.014
v -203.532 0.908 -144.131
v -204.434 0.908 -160.506
v -188.428 4.808 -161.389
v -187.526 4.808 -145.014
v -203.532 4.808 -144.131
v -204.434 4.808 -160.506
f 1112 1111 1110 1109
f 1105 1106 1110 1109
f 1106 1107 1111 1110
f 1107 1108 1112 1111
f 1108 1105 1109 1112
v -133.085 1.259 -165.232
v -132.133 1.259 -150.132
v -141.075 1.259 -149.568
v -142.027 1.259 -164.668
v -133.085 5.159 -165.232
v -132.133 5.159 -150.132
v -141.075 5.159 -149.568
v -142.027 5.159 -164.668
f 1120 1119 1118 1117
f 1113 1114 1118 1117
f 1114 1115 1119 1118
f 1115 1116 1120 1119
f 1116 1113 1117 1120
v -119.518 1.129 -104.952
v -118.985 1.129 -118.511
v -110.782 1.129 -118.188
v -111.315 1.129 -104.629
v -119.518 5.029 -104.952
v -118.985 5.029 -118.511
v -110.782 5.029 -118.188
v -111.315 5.029 -104.629
f 1128 1127 1126 1125
f 1121 1122 1126 1125
f 1122 1123 1127 1126
f 1123 1124 1128 1127
f 1124 1121 1125 1128
v -123.145 1.061 -108.752
v -123.105 1.061 -115.452
v -119.035 1.061 -115.428
v -119.075 1.061 -108.728
v -123.145 4.961 -108.752
v -123.105 4.961 -115.452
v -119.035 4.961 -115.428
v -119.075 4.961 -108.728
f 1136 1135 1134 1133
f 1129 1130 1134 1133
f 1130 1131 1135 1134
f 1131 1132 1136 1135
f 1132 1129 1133 1136
v -103.522 1.197 -129.725
v -79.709 1.197 -114.085
v -91.078 1.197 -96.775
v -114.891 1.197 -112.415
v -103.522 5.097 -129.725
v -79.709 5.097 -114.085
v -91.078 5.097 -96.775
v -114.891 5.097 -112.415
f 1144 1143 1142 1141
f 1137 1138 1142 1141
f 1138 1139 1143 1142
f 1139 1140 1144 1143
f 1140 1137 1141 1144
v -85.305 1.240 -105.699
v -83.602 1.240 -123.779
v -69.395 1.240 -122.441
v -71.098 1.240 -104.361
v -85.305 5.140 -105.699
v -83.602 5.140 -123.779
v -69.395 5.140 -122.441
v -71.098 5.140 -104.361
f 1152 1151 1150 1149
f 1145 1146 1150 1149
f 1146 1147 1151 1150
f 1147 1148 1152 1151
f 1148 1145 1149 1152
v -79.720 1.346 -125.003
v -70.150 1.346 -148.197
v -56.820 1.346 -142.697
v -66.390 1.346 -119.503
v -79.720 5.246 -125.003
v -70.150 5.246 -148.197
v -56.820 5.246 -142.697
v -66.390 5.246 -119.503
f 1160 1159 1158 1157
f 1153 1154 1158 1157
f 1154 1155 1159 1158
f 1155 1156 1160 1159
f 1156 1153 1157 1160
v -56.956 1.099 -126.081
v -56.300 1.099 -118.841
v -62.724 1.099 -118.259
v -63.380 1.099 -125.499
v -56.956 4.999 -126.081
v -56.300 4.999 -118.841
v -62.724 4.999 -118.259
v -63.380 4.999 -125.499
f 1168 1167 1166 1165
f 1161 1162 1166 1165
f 1162 1163 1167 1166
f 1163 1164 1168 1167
f 1164 1161 1165 1168
v -145.336 1.113 -172.707
v -139.340 1.113 -154.088
v -157.644 1.113 -148.193
v -163.640 1.113 -166.812
v -145.336 5.013 -172.707
v -139.340 5.013 -154.088
v -157.644 5.013 -148.193
v -163.640 5.013 -166.812
f 1176 1175 1174 1173
f 1169 1170 1174 1173
f 1170 1171 1175 1174
f 1171 1172 1176 1175
f 1172 1169 1173 1176
v -130.059 1.148 -170.151
v -104.548 1.148 -162.442
v -109.061 1.148 -147.509
v -134.572 1.148 -155.218
v -130.059 5.048 -170.151
v -104.548 5.048 -162.442
v -109.061 5.048 -147.509
v -134.572 5.048 -155.218
f 1184 1183 1182 1181
f 1177 1178 1182 1181
f 1178 1179 1183 1182
f 1179 1180 1184 1183
f 1180 1177 1181 1184
v -93.023 0.973 -177.056
v -78.151 0.973 -169.909
v -84.977 0.973 -155.704
v -99.849 0.973 -162.851
v -93.023 4.873 -177.056
v -78.151 4.873 -169.909
v -84.977 4.873 -155.704
v -99.849 4.873 -162.851
f 1192 1191 1190 1189
f 1185 1186 1190 1189
f 1186 1187 1191 1190
f 1187 1188 1192 1191
f 1188 1185 1189 1192
v -81.183 1.141 -168.368
v -64.751 1.141 -156.638
v -75.877 1.141 -141.052
v -92.309 1.141 -152.782
v -81.183 5.041 -168.368
v -64.751 5.041 -156.638
v -75.877 5.041 -141.052
v -92.309 5.041 -152.782
f 1200 1199 1198 1197
f 1193 1194 1198 1197
f 1194 1195 1199 1198
f 1195 1196 1200 1199
f 1196 1193 1197 1200
v -188.072 0.979 -187.402
v -186.783 0.979 -171.725
v -203.168 0.979 -170.378
v -204.457 0.979 -186.055
v -188.072 4.879 -187.402
v -186.783 4.879 -171.725
v -203.168 4.879 -170.378
v -204.457 4.879 -186.055
f 1208 1207 1206 1205
f 1201 1202 1206 1205
f 1202 1203 1207 1206
f 1203 1204 1208 1207
f 1204 1201 1205 1208
v -180.485 1.014 -197.648
v -155.371 1.014 -185.633
v -163.915 1.014 -167.772
v -189.029 1.014 -179.787
v -180.485 4.914 -197.648
v -155.371 4.914 -185.633
v -163.915 4.914 -167.772
v -189.029 4.914 -179.787
f 1216 1215 1214 1213
f 1209 1210 1214 1213
f 1210 1211 1215 1214
f 1211 1212 1216 1215
f 1212 1209 1213 1216
v -150.225 1.162 -192.119
v -150.195 1.162 -178.619
v -158.395 1.162 -178.601
v -158.425 1.162 -192.101
v -150.225 5.062 -192.119
v -150.195 5.062 -178.619
v -158.395 5.062 -178.601
v -158.425 5.062 -192.101
f 1224 1223 1222 1221
f 1217 1218 1222 1221
f 1218 1219 1223 1222
f 1219 1220 1224 1223
f 1220 1217 1221 1224
v -149.650 1.306 -180.833
v -147.035 1.306 -195.837
v -134.130 1.306 -193.587
v -136.745 1.306 -178.583
v -149.650 5.206 -180.833
v -147.035 5.206 -195.837
v -134.130 5.206 -193.587
v -136.745 5.206 -178.583
f 1232 1231 1230 1229
f 1225 1226 1230 1229
f 1226 1227 1231 1230
f 1227 1228 1232 1231
f 1228 1225 1229 1232
v -128.165 1.119 -206.533
v -104.413 1.119 -190.264
v -116.275 1.119 -172.947
v -140.027 1.119 -189.216
v -128.165 5.019 -206.533
v -104.413 5.019 -190.264
v -116.275 5.019 -172.947
v -140.027 5.019 -189.216
f 1240 1239 1238 1237
f 1233 1234 1238 1237
f 1234 1235 1239 1238
f 1235 1236 1240 1239
f 1236 1233 1237 1240
v -96.227 1.194 -200.822
v -95.876 1.194 -185.446
v -108.493 1.194 -185.158
v -108.844 1.194 -200.534
v -96.227 5.094 -200.822
v -95.876 5.094 -185.446
v -108.493 5.094 -185.158
v -108.844 5.094 -200.534
f 1248 1247 1246 1245
f 1241 1242 1246 1245
f 1242 1243 1247 1246
f 1243 1244 1248 1247
f 1244 1241 1245 1248
v -83.712 1.121 -205.785
v -77.717 1.121 -188.654
v -91.488 1.121 -183.835
v -97.483 1.121 -200.966
v -83.712 5.021 -205.785
v -77.717 5.021 -188.654
v -91.488 5.021 -183.835
v -97.483 5.021 -200.966
f 1256 1255 1254 1253
f 1249 1250 1254 1253
f 1250 1251 1255 1254
f 1251 1252 1256 1255
f 1252 1249 1253 1256
v -93.695 1.328 -130.209
v -89.194 1.328 -132.016
v -87.465 1.328 -127.711
v -91.966 1.328 -125.904
v -93.695 5.228 -130.209
v -89.194 5.228 -132.016
v -87.465 5.228 -127.711
v -91.966 5.228 -125.904
f 1264 1263 1262 1261
f 1257 1258 1262 1261
f 1258 1259 1263 1262
f 1259 1260 1264 1263
f 1260 1257 1261 1264
v 190.341 0.445 60.604
v 194.759 0.445 34.861
v 211.859 0.445 37.796
v 207.441 0.445 63.539
v 190.341 7.245 60.604
v 194.759 7.245 34.861
v 211.859 7.245 37.796
v 207.441 7.245 63.539
f 1272 1271 1270 1269
f 1265 1266 1270 1269
f 1266 1267 1271 1270
f 1267 1268 1272 1271
f 1268 1265 1269 1272
usemtl road
v -6.731 1.228 -172.176
v -3.801 1.310 -136.316
v 1.681 1.340 -136.764
v -1.249 1.205 -172.624
f 1273 1274 1275 1276
v -37.133 0.756 127.820
v -62.513 0.657 127.870
v -62.507 0.665 131.370
v -37.127 0.761 131.320
f 1277 1278 1279 1280
v -62.513 0.657 127.870
v -113.433 0.781 127.950
v -113.427 0.785 131.450
v -62.507 0.665 131.370
f 1281 1282 1283 1284
v -113.432 0.781 127.950
v -149.022 0.748 128.000
v -149.018 0.802 131.500
v -113.428 0.785 131.450
f 1285 1286 1287 1288
v -149.023 0.748 128.000
v -174.273 0.598 128.040
v -174.267 0.648 131.540
v -149.017 0.802 131.500
f 1289 1290 1291 1292
v -174.275 0.598 128.040
v -191.815 0.512 128.090
v -191.805 0.511 131.590
v -174.265 0.648 131.540
f 1293 1294 1295 1296
v -191.815 0.512 128.090
v -206.765 0.667 128.130
v -206.755 0.691 131.630
v -191.805 0.511 131.590
f 1297 1298 1299 1300
v 214.620 0.744 -144.102
v 214.240 0.729 -87.892
v 217.740 0.776 -87.868
v 218.120 0.737 -144.078
f 1301 1302 1303 1304
v 214.240 0.729 -87.892
v 213.940 0.870 -44.582
v 217.440 0.889 -44.558
v 217.740 0.776 -87.868
f 1305 1306 1307 1308
v -41.258 2.183 -248.200
v -42.118 1.424 -225.090
v -35.122 1.442 -224.830
v -34.262 2.176 -247.940
f 1309 1310 1311 1312
v -42.120 1.421 -224.904
v -41.270 1.293 -171.594
v -34.270 1.310 -171.706
v -35.120 1.447 -225.016
f 1313 1314 1315 1316
v -41.270 1.293 -171.648
v -41.220 1.021 -79.508
v -34.220 1.017 -79.512
v -34.270 1.311 -171.652
f 1317 1318 1319 1320
v -6.820 1.232 -172.333
v -7.710 2.761 -219.343
v -11.210 2.760 -219.277
v -10.320 1.261 -172.267
f 1321 1322 1323 1324
v -7.746 2.762 -218.958
v -6.916 2.746 -222.998
v -10.344 2.769 -223.702
v -11.174 2.760 -219.662
f 1325 1326 1327 1328
v -7.798 2.751 -221.810
v -2.338 2.717 -224.760
v -4.002 2.707 -227.840
v -9.462 2.764 -224.890
f 1329 1330 1331 1332
v -2.885 2.722 -224.573
v 7.345 2.565 -226.263
v 6.775 2.561 -229.717
v -3.455 2.701 -228.027
f 1333 1334 1335 1336
v 7.345 2.565 -226.263
v 24.945 2.521 -229.163
v 24.375 2.496 -232.617
v 6.775 2.561 -229.717
f 1337 1338 1339 1340
v 24.945 2.521 -229.163
v 91.875 2.450 -240.203
v 91.305 2.357 -243.657
v 24.375 2.496 -232.617
f 1341 1342 1343 1344
v 90.035 2.432 -241.128
v 103.735 2.486 -214.578
v 106.845 2.441 -216.182
v 93.145 2.347 -242.732
f 1345 1346 1347 1348
v 105.111 2.422 -213.639
v 128.001 1.324 -211.289
v 128.359 1.379 -214.771
v 105.469 2.520 -217.121
f 1349 1350 1351 1352
v 233.906 0.694 238.077
v 229.166 0.695 233.377
v 225.294 0.748 237.283
v 230.034 0.715 241.983
f 1353 1354 1355 1356
v 229.097 0.695 233.311
v 211.977 0.660 217.481
v 208.243 0.652 221.519
v 225.363 0.747 237.349
f 1357 1358 1359 1360
v 43.530 0.909 110.921
v 44.100 0.814 256.011
v 49.600 0.959 255.989
v 49.030 0.866 110.899
f 1361 1362 1363 1364
v 256.012 0.787 14.630
v 195.712 0.720 14.360
v 195.688 0.729 19.860
v 255.988 0.844 20.130
f 1365 1366 1367 1368
v 195.743 0.720 14.360
v 181.663 0.597 14.140
v 181.577 0.733 19.640
v 195.657 0.729 19.860
f 1369 1370 1371 1372
v 181.663 0.597 14.140
v 129.803 1.265 13.320
v 129.717 1.240 18.820
v 181.577 0.733 19.640
f 1373 1374 1375 1376
v 129.770 1.266 13.320
v -37.730 0.917 12.700
v -37.750 0.900 18.200
v 129.750 1.240 18.820
f 1377 1378 1379 1380
v -37.771 0.917 12.700
v -191.421 0.883 14.440
v -191.359 0.807 19.940
v -37.709 0.900 18.200
f 1381 1382 1383 1384
v -190.554 0.886 14.570
v -200.204 0.809 11.490
v -201.876 0.815 16.730
v -192.226 0.812 19.810
f 1385 1386 1387 1388
v 253.355 0.657 164.240
v 207.465 0.655 217.208
v 212.755 0.653 221.792
v 258.645 0.681 168.824
f 1389 1390 1391 1392
v 207.555 0.656 217.108
v 187.855 0.552 238.148
v 192.965 0.501 242.932
v 212.665 0.654 221.892
f 1393 1394 1395 1396
v 187.855 0.552 238.148
v 173.381 0.609 253.608
v 178.491 0.577 258.392
v 192.965 0.501 242.932
f 1397 1398 1399 1400
v -209.093 0.673 254.578
v -192.603 0.736 256.508
v -192.197 0.752 253.032
v -208.687 0.710 251.102
f 1401 1402 1403 1404
v -192.602 0.736 256.508
v -182.025 0.759 257.738
v -181.621 0.775 254.262
v -192.198 0.752 253.032
f 1405 1406 1407 1408
v -171.153 1.642 -210.464
v -159.163 1.733 -213.734
v -162.057 1.870 -224.346
v -174.047 1.856 -221.076
f 1409 1410 1411 1412
v -159.184 1.733 -213.728
v -141.754 1.838 -218.408
v -144.606 1.938 -229.032
v -162.036 1.870 -224.352
f 1413 1414 1415 1416
v -141.891 1.837 -218.373
v -125.091 1.839 -222.423
v -127.669 1.977 -233.117
v -144.469 1.938 -229.067
f 1417 1418 1419 1420
v -125.011 1.839 -222.443
v -101.851 1.832 -228.393
v -104.589 2.006 -239.047
v -127.749 1.977 -233.097
f 1421 1422 1423 1424
v -102.009 1.831 -228.355
v -73.399 1.911 -234.815
v -75.821 2.045 -245.545
v -104.431 2.006 -239.085
f 1425 1426 1427 1428
v -73.441 1.911 -234.806
v -52.151 1.953 -239.436
v -54.489 2.143 -250.184
v -75.779 2.046 -245.554
f 1429 1430 1431 1432
v -52.192 1.952 -239.427
v -36.632 2.032 -242.687
v -38.888 2.183 -253.453
v -54.448 2.143 -250.193
f 1433 1434 1435 1436
v -67.133 1.182 -167.793
v -60.233 1.292 -147.533
v -55.027 1.255 -149.307
v -61.927 1.343 -169.567
f 1437 1438 1439 1440
v -60.273 1.289 -147.659
v -55.343 1.417 -130.529
v -50.057 1.510 -132.051
v -54.987 1.254 -149.181
f 1441 1442 1443 1444
v -55.450 1.418 -131.246
v -55.170 1.366 -113.886
v -49.670 1.432 -113.974
v -49.950 1.521 -131.334
f 1445 1446 1447 1448
v -55.043 1.358 -114.757
v -58.673 1.351 -103.247
v -53.427 1.215 -101.593
v -49.797 1.437 -113.103
f 1449 1450 1451 1452
v -56.435 1.355 -105.143
v -74.245 1.430 -102.623
v -73.475 1.395 -97.177
v -55.665 1.276 -99.697
f 1453 1454 1455 1456
v -73.825 1.433 -102.650
v -116.665 1.236 -103.190
v -116.735 1.334 -97.690
v -73.895 1.395 -97.150
f 1457 1458 1459 1460
v -115.358 1.218 -102.840
v -123.118 1.324 -107.180
v -125.802 1.290 -102.380
v -118.042 1.324 -98.040
f 1461 1462 1463 1464
v -40.470 1.022 -79.513
v -40.480 0.947 -70.753
v -34.980 0.943 -70.747
v -34.970 1.016 -79.507
f 1465 1466 1467 1468
v -40.480 0.947 -70.750
v -40.490 0.922 15.450
v -34.990 0.916 15.450
v -34.980 0.943 -70.750
f 1469 1470 1471 1472
v -40.490 0.922 15.468
v -39.880 0.850 110.238
v -34.380 0.798 110.202
v -34.990 0.917 15.432
f 1473 1474 1475 1476
v -39.880 0.850 110.220
v -39.880 0.730 129.570
v -34.380 0.805 129.570
v -34.380 0.797 110.220
f 1477 1478 1479 1480
v -39.880 0.730 129.569
v -39.925 0.824 255.999
v -34.425 0.837 256.001
v -34.380 0.805 129.571
f 1481 1482 1483 1484
v -37.740 1.012 -83.010
v -124.040 0.810 -82.520
v -124.000 0.773 -75.520
v -37.700 0.978 -76.010
f 1485 1486 1487 1488
v -123.953 0.810 -82.519
v -141.073 0.761 -82.849
v -141.207 0.749 -75.851
v -124.087 0.772 -75.521
f 1489 1490 1491 1492
v -141.147 0.761 -82.850
v -205.507 0.701 -82.730
v -205.493 0.656 -75.730
v -141.133 0.749 -75.850
f 1493 1494 1495 1496
v -205.506 0.701 -82.730
v -244.656 0.586 -82.660
v -244.644 0.551 -75.660
v -205.494 0.656 -75.730
f 1497 1498 1499 1500
v -51.187 1.351 -173.983
v -65.037 1.262 -171.383
v -64.023 1.260 -165.977
v -50.173 1.504 -168.577
f 1501 1502 1503 1504
v -63.393 1.316 -171.184
v -70.503 1.129 -174.414
v -72.777 1.151 -169.406
v -65.667 1.224 -166.176
f 1505 1506 1507 1508
v -69.982 1.139 -174.104
v -81.582 1.103 -182.874
v -84.898 1.098 -178.486
v -73.298 1.147 -169.716
f 1509 1510 1511 1512
v -83.594 1.100 -183.407
v -106.624 1.168 -180.417
v -105.916 1.212 -174.963
v -82.886 1.086 -177.953
f 1513 1514 1515 1516
v -106.549 1.167 -180.426
v -153.699 1.395 -175.616
v -153.141 1.345 -170.144
v -105.991 1.212 -174.954
f 1517 1518 1519 1520
v -154.223 1.389 -175.510
v -168.703 1.078 -171.090
v -167.097 1.203 -165.830
v -152.617 1.353 -170.250
f 1521 1522 1523 1524
v -169.315 1.069 -170.818
v -181.435 0.959 -163.548
v -178.605 1.047 -158.832
v -166.485 1.194 -166.102
f 1525 1526 1527 1528
v -182.692 1.002 -161.839
v -185.342 1.165 -150.929
v -179.998 1.245 -149.631
v -177.348 1.017 -160.541
f 1529 1530 1531 1532
v -185.418 1.176 -150.172
v -184.498 0.995 -126.842
v -179.002 0.988 -127.058
v -179.922 1.231 -150.388
f 1533 1534 1535 1536
v -183.425 0.924 -124.769
v -177.175 1.096 -119.969
v -173.825 1.070 -124.331
v -180.075 1.044 -129.131
f 1537 1538 1539 1540
v -176.258 1.124 -119.507
v -143.168 1.210 -110.017
v -141.652 1.230 -115.303
v -174.742 1.059 -124.793
f 1541 1542 1543 1544
v -143.515 1.208 -110.142
v -125.565 1.289 -102.262
v -123.355 1.326 -107.298
v -141.305 1.229 -115.178
f 1545 1546 1547 1548
v -198.507 0.848 13.040
v -202.377 0.758 3.880
v -207.443 0.853 6.020
v -203.573 0.858 15.180
f 1549 1550 1551 1552
v -202.160 0.753 4.930
v -202.390 0.854 -27.290
v -207.890 0.887 -27.250
v -207.660 0.846 4.970
f 1553 1554 1555 1556
v -202.390 0.854 -27.289
v -202.600 0.853 -57.889
v -208.100 0.925 -57.851
v -207.890 0.887 -27.251
f 1557 1558 1559 1560
v -202.600 0.853 -57.889
v -202.750 0.719 -79.249
v -208.250 0.731 -79.211
v -208.100 0.925 -57.851
f 1561 1562 1563 1564
v -249.879 0.860 112.960
v -223.989 0.868 112.950
v -223.991 0.919 107.450
v -249.881 0.921 107.460
f 1565 1566 1567 1568
v -223.990 0.868 112.950
v -199.190 0.872 112.950
v -199.190 0.928 107.450
v -223.990 0.919 107.450
f 1569 1570 1571 1572
v -199.191 0.872 112.950
v -174.301 0.839 112.960
v -174.299 0.940 107.460
v -199.189 0.928 107.450
f 1573 1574 1575 1576
v -174.300 0.839 112.960
v -37.130 0.767 112.970
v -37.130 0.851 107.470
v -174.300 0.940 107.460
f 1577 1578 1579 1580
v -37.153 0.768 112.970
v 46.257 0.801 113.660
v 46.303 0.938 108.160
v -37.107 0.851 107.470
f 1581 1582 1583 1584
v 46.296 0.800 113.660
v 128.116 0.659 113.170
v 128.084 0.651 107.670
v 46.264 0.938 108.160
f 1585 1586 1587 1588
v 128.121 0.659 113.170
v 256.021 0.494 112.192
v 255.979 0.595 106.692
v 128.079 0.651 107.670
f 1589 1590 1591 1592
v 251.077 0.255 -174.420
v 127.997 0.987 -176.520
v 127.903 0.950 -171.020
v 250.983 0.354 -168.920
f 1593 1594 1595 1596
v 127.921 0.986 -176.520
v -4.019 1.220 -175.150
v -3.961 1.208 -169.650
v 127.979 0.951 -171.020
f 1597 1598 1599 1600
v -4.050 1.220 -175.149
v -8.630 1.247 -175.049
v -8.510 1.238 -169.551
v -3.930 1.207 -169.651
f 1601 1602 1603 1604
v -8.631 1.247 -175.049
v -37.831 1.298 -174.399
v -37.709 1.317 -168.901
v -8.509 1.238 -169.551
f 1605 1606 1607 1608
v 255.995 0.859 -46.428
v 215.685 0.847 -46.320
v 215.695 0.959 -42.820
v 256.005 0.873 -42.928
f 1609 1610 1611 1612
v 215.242 0.850 -46.262
v 206.862 0.882 -44.042
v 207.758 0.890 -40.658
v 216.138 0.954 -42.878
f 1613 1614 1615 1616
v 208.159 0.872 -43.880
v 194.309 0.961 -51.560
v 192.611 0.991 -48.500
v 206.461 0.874 -40.820
f 1617 1618 1619 1620
v 194.426 0.960 -51.489
v 176.046 1.012 -63.649
v 174.114 1.044 -60.731
v 192.494 0.991 -48.571
f 1621 1622 1623 1624
v 176.821 1.037 -62.371
v 175.751 0.971 -72.661
v 172.269 0.989 -72.299
v 173.339 0.982 -62.009
f 1625 1626 1627 1628
v -80.353 1.996 -259.106
v -108.383 1.964 -252.326
v -105.797 1.860 -241.634
v -77.767 1.898 -248.414
f 1629 1630 1631 1632
v -108.442 1.964 -252.311
v -137.672 1.957 -244.901
v -134.968 1.821 -234.239
v -105.738 1.861 -241.649
f 1633 1634 1635 1636
v -137.788 1.956 -244.871
v -167.298 1.870 -236.701
v -164.362 1.778 -226.099
v -134.852 1.821 -234.269
f 1637 1638 1639 1640
v -167.383 1.869 -236.676
v -197.723 1.773 -227.746
v -194.617 1.719 -217.194
v -164.277 1.778 -226.124
f 1641 1642 1643 1644
v -197.792 1.773 -227.726
v -234.642 1.673 -216.356
v -231.398 1.680 -205.844
v -194.548 1.720 -217.214
f 1645 1646 1647 1648
v -234.821 1.672 -216.297
v -257.801 1.571 -208.333
v -254.199 1.632 -197.940
v -231.219 1.681 -205.903
f 1649 1650 1651 1652
v 127.324 1.992 -254.953
v 125.184 1.350 -213.183
v 131.176 1.314 -212.877
v 133.316 1.836 -254.647
f 1653 1654 1655 1656
v 125.180 1.348 -213.048
v 124.950 0.914 -173.788
v 130.950 0.962 -173.752
v 131.180 1.315 -213.012
f 1657 1658 1659 1660
v 124.950 0.913 -173.741
v 125.450 0.939 -121.901
v 131.450 1.021 -121.959
v 130.950 0.962 -173.799
f 1661 1662 1663 1664
v 125.450 0.939 -121.920
v 125.590 1.439 -78.240
v 131.590 1.434 -78.260
v 131.450 1.021 -121.940
f 1665 1666 1667 1668
v 125.590 1.439 -78.243
v 125.650 1.300 -52.573
v 131.650 1.252 -52.587
v 131.590 1.434 -78.257
f 1669 1670 1671 1672
v 125.650 1.300 -52.571
v 125.700 0.762 -36.501
v 131.700 0.823 -36.519
v 131.650 1.252 -52.589
f 1673 1674 1675 1676
v 125.701 0.760 -36.452
v 125.891 0.738 -26.692
v 131.889 0.675 -26.808
v 131.699 0.824 -36.568
f 1677 1678 1679 1680
v 125.891 0.738 -26.689
v 126.761 1.247 16.131
v 132.759 1.202 16.009
v 131.889 0.674 -26.811
f 1681 1682 1683 1684
v 126.760 1.249 16.017
v 125.100 0.645 110.367
v 131.100 0.653 110.473
v 132.760 1.202 16.123
f 1685 1686 1687 1688
v 125.102 0.645 110.320
v 120.270 0.628 255.900
v 126.267 0.690 256.100
v 131.098 0.653 110.520
f 1689 1690 1691 1692
v 155.521 0.456 -255.766
v 157.756 0.939 -239.176
v 161.224 0.925 -239.644
v 158.990 0.435 -256.234
f 1693 1694 1695 1696
v 158.021 0.933 -238.459
v 163.361 0.440 -230.209
v 166.299 0.720 -232.111
v 160.959 0.919 -240.361
f 1697 1698 1699 1700
v 163.148 0.656 -230.675
v 164.598 0.120 -225.645
v 167.962 0.120 -226.615
v 166.512 0.602 -231.645
f 1701 1702 1703 1704
v -130.500 1.499 195.494
v -131.063 0.865 255.984
v -127.563 0.900 256.016
v -127.000 1.569 195.526
f 1705 1706 1707 1708
v -205.145 0.896 -29.020
v -256.005 1.534 -28.885
v -255.995 1.489 -25.385
v -205.135 0.887 -25.520
f 1709 1710 1711 1712
v -176.050 0.920 110.213
v -176.020 0.605 129.793
v -172.520 0.609 129.787
v -172.550 0.927 110.207
f 1713 1714 1715 1716
v -255.987 1.485 -55.751
v -205.337 0.915 -56.120
v -205.363 0.911 -59.620
v -256.013 1.438 -59.251
f 1717 1718 1719 1720
v -41.557 2.130 -255.868
v -41.258 2.180 -247.938
v -34.262 2.180 -248.202
v -34.562 2.165 -256.132
f 1721 1722 1723 1724
v 60.238 1.132 -72.650
v 13.278 1.111 -79.810
v 12.222 0.969 -72.890
v 59.182 0.913 -65.730
f 1725 1726 1727 1728
v 12.969 1.112 -79.843
v -37.501 1.013 -83.003
v -37.939 0.977 -76.017
v 12.531 0.970 -72.857
f 1729 1730 1731 1732
v 258.388 0.688 70.847
v 198.088 0.720 14.552
v 193.312 0.676 19.668
v 253.612 0.669 75.964
f 1733 1734 1735 1736
v 197.887 0.718 14.377
v 130.887 0.877 -39.243
v 126.513 0.708 -33.777
v 193.513 0.679 19.843
f 1737 1738 1739 1740
v 130.390 0.882 -39.575
v 101.280 0.918 -55.625
v 97.900 0.744 -49.495
v 127.010 0.708 -33.445
f 1741 1742 1743 1744
v 101.036 0.919 -55.748
v 79.626 1.045 -65.458
v 76.734 0.855 -59.082
v 98.144 0.743 -49.372
f 1745 1746 1747 1748
v 79.408 1.049 -65.548
v 60.938 1.130 -72.468
v 58.482 0.915 -65.912
v 76.952 0.855 -58.992
f 1749 1750 1751 1752
v -225.740 0.927 110.223
v -225.610 0.780 120.013
v -222.110 0.761 119.967
v -222.240 0.934 110.177
f 1753 1754 1755 1756
v -225.610 0.780 120.013
v -225.310 0.806 142.723
v -221.810 0.806 142.677
v -222.110 0.761 119.967
f 1757 1758 1759 1760
v -247.820 0.852 128.021
v -247.910 0.799 119.671
v -251.410 0.772 119.709
v -251.320 0.815 128.059
f 1761 1762 1763 1764
v -247.910 0.799 119.649
v -248.130 0.935 110.169
v -251.630 0.938 110.251
v -251.410 0.773 119.731
f 1765 1766 1767 1768
v -251.395 1.076 -160.466
v -248.015 1.064 -158.716
v -246.405 1.022 -161.824
v -249.785 1.060 -163.574
f 1769 1770 1771 1772
v -248.804 1.069 -159.547
v -247.094 1.075 -155.777
v -243.906 1.089 -157.223
v -245.616 1.031 -160.993
f 1773 1774 1775 1776
v -247.250 1.071 -156.469
v -246.820 1.163 -131.979
v -243.320 1.169 -132.041
v -243.750 1.098 -156.531
f 1777 1778 1779 1780
v -246.820 1.163 -132.042
v -247.380 1.093 -101.062
v -243.880 1.105 -100.998
v -243.320 1.169 -131.978
f 1781 1782 1783 1784
v -247.378 1.094 -100.952
v -246.398 0.618 -79.082
v -242.902 0.625 -79.238
v -243.882 1.104 -101.108
f 1785 1786 1787 1788
v 215.993 0.720 -86.130
v 256.003 0.534 -86.205
v 255.997 0.541 -89.705
v 215.987 0.772 -89.630
f 1789 1790 1791 1792
v 216.379 0.717 -142.340
v 256.009 0.498 -142.533
v 255.991 0.518 -146.033
v 216.361 0.726 -145.840
f 1793 1794 1795 1796
v 216.363 0.726 -145.840
v 209.153 0.551 -145.810
v 209.167 0.628 -142.310
v 216.377 0.717 -142.340
f 1797 1798 1799 1800
v 209.152 0.551 -145.810
v 174.202 0.707 -145.650
v 174.218 0.738 -142.150
v 209.168 0.628 -142.310
f 1801 1802 1803 1804
v 172.460 0.736 -143.905
v 172.270 0.967 -81.715
v 175.770 0.962 -81.705
v 175.960 0.738 -143.895
f 1805 1806 1807 1808
v 172.270 0.967 -81.712
v 172.260 0.992 -72.482
v 175.760 0.967 -72.478
v 175.770 0.962 -81.708
f 1809 1810 1811 1812
v 210.909 0.616 -144.015
v 211.359 0.531 -161.485
v 207.861 0.527 -161.575
v 207.411 0.616 -144.105
f 1813 1814 1815 1816
v 209.600 0.457 -163.280
v 174.130 0.624 -163.070
v 174.150 0.690 -159.570
v 209.620 0.583 -159.780
f 1817 1818 1819 1820
v 174.152 0.624 -163.070
v 147.622 0.580 -163.250
v 147.598 0.553 -159.750
v 174.128 0.690 -159.570
f 1821 1822 1823 1824
v 172.390 0.626 -161.313
v 172.460 0.736 -143.893
v 175.960 0.738 -143.907
v 175.890 0.595 -161.327
f 1825 1826 1827 1828
v 173.965 0.953 -83.459
v 158.125 1.080 -82.959
v 158.235 1.119 -79.461
v 174.075 0.986 -79.961
f 1829 1830 1831 1832
v 158.146 1.079 -82.960
v 140.896 1.238 -82.620
v 140.964 1.321 -79.120
v 158.214 1.119 -79.460
f 1833 1834 1835 1836
v 139.829 1.259 -82.230
v 135.779 1.385 -78.950
v 137.981 1.332 -76.230
v 142.031 1.298 -79.510
f 1837 1838 1839 1840
v 156.430 1.104 -81.170
v 156.640 1.172 -72.060
v 160.140 1.120 -72.140
v 159.930 1.034 -81.250
f 1841 1842 1843 1844
v 128.737 1.414 -80.996
v 60.877 1.121 -84.636
v 60.583 1.089 -79.144
v 128.443 1.462 -75.504
f 1845 1846 1847 1848
v 57.989 1.061 -82.110
v 56.969 1.007 -69.410
v 62.451 1.017 -68.970
v 63.471 1.148 -81.670
f 1849 1850 1851 1852
v 135.530 1.367 -76.476
v 140.390 1.207 -70.586
v 143.090 1.185 -72.814
v 138.230 1.362 -78.704
f 1853 1854 1855 1856
v 141.782 1.223 -69.951
v 158.432 1.158 -70.351
v 158.348 1.120 -73.849
v 141.698 1.210 -73.449
f 1857 1858 1859 1860
v 158.433 1.158 -70.351
v 174.053 0.961 -70.731
v 173.967 0.999 -74.229
v 158.347 1.120 -73.849
f 1861 1862 1863 1864
v 205.629 0.871 -42.836
v 203.779 0.990 -36.436
v 207.141 0.916 -35.464
v 208.991 0.889 -41.864
f 1865 1866 1867 1868
v 204.052 0.992 -36.990
v 197.892 0.849 -28.650
v 200.708 0.878 -26.570
v 206.868 0.921 -34.910
f 1869 1870 1871 1872
v 195.088 0.947 -49.389
v 197.708 0.930 -56.039
v 194.452 0.916 -57.321
v 191.832 0.987 -50.671
f 1873 1874 1875 1876
v 197.830 0.927 -56.654
v 197.970 0.875 -65.924
v 194.470 0.946 -65.976
v 194.330 0.929 -56.706
f 1877 1878 1879 1880
v 137.019 1.369 -79.334
v 128.729 1.431 -79.994
v 128.451 1.466 -76.506
v 136.741 1.331 -75.846
f 1881 1882 1883 1884
v -254.326 1.485 -185.246
v -220.546 1.549 -196.041
v -223.894 1.759 -206.519
v -257.674 1.666 -195.724
f 1885 1886 1887 1888
v -220.635 1.550 -196.013
v -186.815 1.551 -206.193
v -189.985 1.808 -216.727
v -223.805 1.759 -206.547
f 1889 1890 1891 1892
v -186.953 1.551 -206.154
v -171.153 1.642 -210.464
v -174.047 1.856 -221.076
v -189.847 1.808 -216.766
f 1893 1894 1895 1896
v 32.500 2.277 -188.531
v 43.250 2.330 -188.101
v 43.390 2.591 -191.599
v 32.640 2.413 -192.029
f 1897 1898 1899 1900
v 43.312 2.330 -188.100
v 57.992 2.437 -188.030
v 58.008 2.620 -191.530
v 43.328 2.591 -191.600
f 1901 1902 1903 1904
v 58.055 2.437 -188.031
v 75.945 2.409 -188.591
v 75.835 2.546 -192.089
v 57.945 2.620 -191.529
f 1905 1906 1907 1908
v 76.148 2.410 -188.609
v 85.758 2.413 -190.039
v 85.242 2.515 -193.501
v 75.632 2.549 -192.071
f 1909 1910 1911 1912
v 86.491 2.430 -190.327
v 94.441 2.501 -195.787
v 92.459 2.497 -198.673
v 84.509 2.510 -193.213
f 1913 1914 1915 1916
v 94.783 2.489 -196.096
v 97.563 2.400 -199.366
v 94.897 2.456 -201.634
v 92.117 2.500 -198.364
f 1917 1918 1919 1920
v 97.725 2.396 -199.590
v 103.585 2.443 -209.220
v 100.595 2.499 -211.040
v 94.735 2.460 -201.410
f 1921 1922 1923 1924
v 103.584 2.443 -209.219
v 106.784 2.382 -214.469
v 103.796 2.535 -216.291
v 100.596 2.499 -211.041
f 1925 1926 1927 1928
v 22.942 2.482 -230.555
v 30.852 2.337 -189.945
v 34.288 2.392 -190.615
v 26.378 2.502 -231.225
f 1929 1930 1931 1932
v 77.221 2.469 -189.204
v 82.991 2.685 -195.964
v 80.329 2.784 -198.236
v 74.559 2.548 -191.476
f 1933 1934 1935 1936
v 86.284 2.730 -199.986
v 102.894 2.431 -208.576
v 101.286 2.496 -211.684
v 84.676 2.780 -203.094
f 1937 1938 1939 1940
v 82.987 2.684 -195.959
v 86.807 2.711 -200.399
v 84.153 2.803 -202.681
v 80.333 2.784 -198.241
f 1941 1942 1943 1944
v 5.338 2.538 -227.678
v 12.028 2.395 -190.698
v 15.472 2.321 -191.322
v 8.782 2.582 -228.302
f 1945 1946 1947 1948
v 13.682 2.342 -189.261
v 32.502 2.277 -188.531
v 32.638 2.413 -192.029
v 13.818 2.382 -192.759
f 1949 1950 1951 1952
v -50.601 1.524 -168.531
v -37.691 1.317 -168.901
v -37.849 1.298 -174.399
v -50.759 1.336 -174.029
f 1953 1954 1955 1956
v -145.158 1.185 -112.545
v -144.488 1.400 -96.555
v -138.992 1.365 -96.785
v -139.662 1.215 -112.775
f 1957 1958 1959 1960
v -144.488 1.401 -96.575
v -143.888 0.791 -79.255
v -138.392 0.802 -79.445
v -138.992 1.365 -96.765
f 1961 1962 1963 1964
v 223.738 0.446 -250.159
v 229.448 0.546 -235.379
v 232.712 0.506 -236.641
v 227.002 0.432 -251.421
f 1965 1966 1967 1968
v 229.716 0.544 -234.914
v 238.706 0.435 -223.724
v 241.434 0.421 -225.916
v 232.444 0.508 -237.106
f 1969 1970 1971 1972
v 254.385 0.394 -257.723
v 225.064 0.398 -252.513
v 225.676 0.474 -249.067
v 254.998 0.397 -254.277
f 1973 1974 1975 1976
v 157.930 0.936 -240.202
v 153.330 0.984 -231.142
v 156.450 0.954 -229.558
v 161.050 0.917 -238.618
f 1977 1978 1979 1980
v 153.145 0.984 -230.484
v 152.055 0.984 -216.304
v 155.545 0.927 -216.036
v 156.635 0.953 -230.216
f 1981 1982 1983 1984
v 152.070 0.985 -215.908
v 153.730 1.019 -204.938
v 157.190 0.937 -205.462
v 155.530 0.929 -216.432
f 1985 1986 1987 1988
v -121.270 0.840 -79.067
v -121.580 1.412 -97.017
v -127.080 1.396 -96.923
v -126.770 0.832 -78.973
f 1989 1990 1991 1992
v -121.580 1.412 -97.016
v -121.710 1.284 -104.826
v -127.210 1.285 -104.734
v -127.080 1.396 -96.924
f 1993 1994 1995 1996
v 189.256 0.541 241.856
v 205.886 0.834 256.436
v 208.194 0.802 253.804
v 191.564 0.550 239.224
f 1997 1998 1999 2000
v 208.265 0.856 256.370
v 228.455 0.814 236.580
v 226.005 0.819 234.080
v 205.815 0.800 253.870
f 2001 2002 2003 2004
v -179.232 0.966 -162.752
v -187.042 1.064 -166.692
v -188.618 1.114 -163.568
v -180.808 1.020 -159.628
f 2005 2006 2007 2008
v -187.840 1.089 -166.880
v -201.320 1.342 -166.800
v -201.300 1.314 -163.300
v -187.820 1.091 -163.380
f 2009 2010 2011 2012
v -183.103 0.977 -128.060
v -187.343 0.969 -122.890
v -184.637 0.964 -120.670
v -180.397 0.945 -125.840
f 2013 2014 2015 2016
v -186.040 0.963 -123.529
v -200.730 1.205 -123.109
v -200.630 1.214 -119.611
v -185.940 0.979 -120.031
f 2017 2018 2019 2020
usemtl asphalt
