# Baked ultra-low Key West silhouette; generated by bake_key_west_far_city.py
mtllib far_city.mtl
usemtl massing
v -105.031 0.648 -35.583
v -100.839 0.648 -27.506
v -106.369 0.648 -24.637
v -110.561 0.648 -32.714
v -105.031 4.548 -35.583
v -100.839 4.548 -27.506
v -106.369 4.548 -24.637
v -110.561 4.548 -32.714
f 8 7 6 5
f 1 2 6 5
f 2 3 7 6
f 3 4 8 7
f 4 1 5 8
v -106.416 1.108 -16.363
v -102.322 1.108 -8.596
v -107.064 1.108 -6.097
v -111.158 1.108 -13.864
v -106.416 5.008 -16.363
v -102.322 5.008 -8.596
v -107.064 5.008 -6.097
v -111.158 5.008 -13.864
f 16 15 14 13
f 9 10 14 13
f 10 11 15 14
f 11 12 16 15
f 12 9 13 16
v -100.125 0.997 -16.624
v -95.174 0.997 -5.836
v -100.055 0.997 -3.596
v -105.006 0.997 -14.384
v -100.125 4.897 -16.624
v -95.174 4.897 -5.836
v -100.055 4.897 -3.596
v -105.006 4.897 -14.384
f 24 23 22 21
f 17 18 22 21
f 18 19 23 22
f 19 20 24 23
f 20 17 21 24
v -96.454 1.191 -4.512
v -85.237 1.191 -10.317
v -80.306 1.191 -0.788
v -91.523 1.191 5.017
v -96.454 5.091 -4.512
v -85.237 5.091 -10.317
v -80.306 5.091 -0.788
v -91.523 5.091 5.017
f 32 31 30 29
f 25 26 30 29
f 26 27 31 30
f 27 28 32 31
f 28 25 29 32
v -81.461 1.030 5.145
v -68.783 1.030 -1.071
v -64.799 1.030 7.055
v -77.477 1.030 13.271
v -81.461 4.930 5.145
v -68.783 4.930 -1.071
v -64.799 4.930 7.055
v -77.477 4.930 13.271
f 40 39 38 37
f 33 34 38 37
f 34 35 39 38
f 35 36 40 39
f 36 33 37 40
v -102.646 0.919 22.448
v -94.364 0.919 7.831
v -81.514 0.919 15.112
v -89.796 0.919 29.729
v -102.646 4.819 22.448
v -94.364 4.819 7.831
v -81.514 4.819 15.112
v -89.796 4.819 29.729
f 48 47 46 45
f 41 42 46 45
f 42 43 47 46
f 43 44 48 47
f 44 41 45 48
v -100.273 0.878 28.482
v -94.853 0.878 39.602
v -103.627 0.878 43.878
v -109.047 0.878 32.758
v -100.273 4.778 28.482
v -94.853 4.778 39.602
v -103.627 4.778 43.878
v -109.047 4.778 32.758
f 56 55 54 53
f 49 50 54 53
f 50 51 55 54
f 51 52 56 55
f 52 49 53 56
v -110.982 0.742 44.193
v -104.426 0.742 55.661
v -113.498 0.742 60.847
v -120.054 0.742 49.379
v -110.982 4.642 44.193
v -104.426 4.642 55.661
v -113.498 4.642 60.847
v -120.054 4.642 49.379
f 64 63 62 61
f 57 58 62 61
f 58 59 63 62
f 59 60 64 63
f 60 57 61 64
v -109.822 0.425 -35.665
v -107.738 0.425 -31.802
v -109.938 0.425 -30.615
v -112.022 0.425 -34.478
v -109.822 4.325 -35.665
v -107.738 4.325 -31.802
v -109.938 4.325 -30.615
v -112.022 4.325 -34.478
f 72 71 70 69
f 65 66 70 69
f 66 67 71 70
f 67 68 72 71
f 68 65 69 72
v -126.055 0.578 -24.767
v -115.662 0.578 -30.686
v -112.465 0.578 -25.073
v -122.858 0.578 -19.154
v -126.055 4.478 -24.767
v -115.662 4.478 -30.686
v -112.465 4.478 -25.073
v -122.858 4.478 -19.154
f 80 79 78 77
f 73 74 78 77
f 74 75 79 78
f 75 76 80 79
f 76 73 77 80
v -131.890 0.688 -20.607
v -115.536 0.688 -22.183
v -114.070 0.688 -6.973
v -130.424 0.688 -5.397
v -131.890 4.588 -20.607
v -115.536 4.588 -22.183
v -114.070 4.588 -6.973
v -130.424 4.588 -5.397
f 88 87 86 85
f 81 82 86 85
f 82 83 87 86
f 83 84 88 87
f 84 81 85 88
v -138.849 0.762 -8.244
v -121.786 0.762 -5.160
v -124.411 0.762 9.364
v -141.474 0.762 6.280
v -138.849 4.662 -8.244
v -121.786 4.662 -5.160
v -124.411 4.662 9.364
v -141.474 4.662 6.280
f 96 95 94 93
f 89 90 94 93
f 90 91 95 94
f 91 92 96 95
f 92 89 93 96
v -150.085 0.655 12.550
v -136.303 0.655 1.977
v -127.855 0.655 12.990
v -141.637 0.655 23.563
v -150.085 4.555 12.550
v -136.303 4.555 1.977
v -127.855 4.555 12.990
v -141.637 4.555 23.563
f 104 103 102 101
f 97 98 102 101
f 98 99 103 102
f 99 100 104 103
f 100 97 101 104
v -143.693 0.651 17.852
v -136.356 0.651 28.292
v -146.567 0.651 35.468
v -153.904 0.651 25.028
v -143.693 4.551 17.852
v -136.356 4.551 28.292
v -146.567 4.551 35.468
v -153.904 4.551 25.028
f 112 111 110 109
f 105 106 110 109
f 106 107 111 110
f 107 108 112 111
f 108 105 109 112
v -187.795 0.949 -39.012
v -185.781 0.949 -34.208
v -189.645 0.949 -32.588
v -191.659 0.949 -37.392
v -187.795 4.849 -39.012
v -185.781 4.849 -34.208
v -189.645 4.849 -32.588
v -191.659 4.849 -37.392
f 120 119 118 117
f 113 114 118 117
f 114 115 119 118
f 115 116 120 119
f 116 113 117 120
v -242.947 0.764 -30.479
v -232.425 0.764 -35.574
v -229.213 0.764 -28.941
v -239.735 0.764 -23.846
v -242.947 4.664 -30.479
v -232.425 4.664 -35.574
v -229.213 4.664 -28.941
v -239.735 4.664 -23.846
f 128 127 126 125
f 121 122 126 125
f 122 123 127 126
f 123 124 128 127
f 124 121 125 128
v -249.534 0.883 -21.099
v -235.877 0.883 -23.689
v -234.366 0.883 -15.721
v -248.023 0.883 -13.131
v -249.534 4.783 -21.099
v -235.877 4.783 -23.689
v -234.366 4.783 -15.721
v -248.023 4.783 -13.131
f 136 135 134 133
f 129 130 134 133
f 130 131 135 134
f 131 132 136 135
f 132 129 133 136
v -252.026 0.609 -9.861
v -237.496 0.609 -9.939
v -237.454 0.609 -2.099
v -251.984 0.609 -2.021
v -252.026 4.509 -9.861
v -237.496 4.509 -9.939
v -237.454 4.509 -2.099
v -251.984 4.509 -2.021
f 144 143 142 141
f 137 138 142 141
f 138 139 143 142
f 139 140 144 143
f 140 137 141 144
v -247.946 0.746 1.492
v -235.241 0.746 4.432
v -237.114 0.746 12.528
v -249.819 0.746 9.588
v -247.946 4.646 1.492
v -235.241 4.646 4.432
v -237.114 4.646 12.528
v -249.819 4.646 9.588
f 152 151 150 149
f 145 146 150 149
f 146 147 151 150
f 147 148 152 151
f 148 145 149 152
v -242.120 0.698 12.147
v -229.045 0.698 17.556
v -233.040 0.698 27.213
v -246.115 0.698 21.804
v -242.120 4.598 12.147
v -229.045 4.598 17.556
v -233.040 4.598 27.213
v -246.115 4.598 21.804
f 160 159 158 157
f 153 154 158 157
f 154 155 159 158
f 155 156 160 159
f 156 153 157 160
v -220.783 1.196 42.228
v -205.738 1.196 42.626
v -206.077 1.196 55.472
v -221.122 1.196 55.074
v -220.783 5.096 42.228
v -205.738 5.096 42.626
v -206.077 5.096 55.472
v -221.122 5.096 55.074
f 168 167 166 165
f 161 162 166 165
f 162 163 167 166
f 163 164 168 167
f 164 161 165 168
v -197.488 0.881 45.308
v -194.180 0.881 56.531
v -200.492 0.881 58.392
v -203.800 0.881 47.169
v -197.488 4.781 45.308
v -194.180 4.781 56.531
v -200.492 4.781 58.392
v -203.800 4.781 47.169
f 176 175 174 173
f 169 170 174 173
f 170 171 175 174
f 171 172 176 175
f 172 169 173 176
v -236.260 0.928 64.624
v -231.232 0.928 50.513
v -218.760 0.928 54.956
v -223.788 0.928 69.067
v -236.260 4.828 64.624
v -231.232 4.828 50.513
v -218.760 4.828 54.956
v -223.788 4.828 69.067
f 184 183 182 181
f 177 178 182 181
f 178 179 183 182
f 179 180 184 183
f 180 177 181 184
v -250.005 0.722 73.526
v -242.381 0.722 61.879
v -234.935 0.722 66.754
v -242.559 0.722 78.401
v -250.005 4.622 73.526
v -242.381 4.622 61.879
v -234.935 4.622 66.754
v -242.559 4.622 78.401
f 192 191 190 189
f 185 186 190 189
f 186 187 191 190
f 187 188 192 191
f 188 185 189 192
v -259.588 0.763 82.744
v -251.307 0.763 67.691
v -243.772 0.763 71.836
v -252.053 0.763 86.889
v -259.588 4.663 82.744
v -251.307 4.663 67.691
v -243.772 4.663 71.836
v -252.053 4.663 86.889
f 200 199 198 197
f 193 194 198 197
f 194 195 199 198
f 195 196 200 199
f 196 193 197 200
v -257.443 0.749 207.976
v -251.706 0.749 194.845
v -242.597 0.749 198.824
v -248.334 0.749 211.955
v -257.443 4.649 207.976
v -251.706 4.649 194.845
v -242.597 4.649 198.824
v -248.334 4.649 211.955
f 208 207 206 205
f 201 202 206 205
f 202 203 207 206
f 203 204 208 207
f 204 201 205 208
v -235.923 0.713 -39.981
v -227.566 0.713 -46.071
v -222.937 0.713 -39.719
v -231.294 0.713 -33.629
v -235.923 4.613 -39.981
v -227.566 4.613 -46.071
v -222.937 4.613 -39.719
v -231.294 4.613 -33.629
f 216 215 214 213
f 209 210 214 213
f 210 211 215 214
f 211 212 216 215
f 212 209 213 216
v -236.917 0.346 -45.191
v -234.683 0.346 -41.946
v -236.743 0.346 -40.529
v -238.977 0.346 -43.774
v -236.917 4.246 -45.191
v -234.683 4.246 -41.946
v -236.743 4.246 -40.529
v -238.977 4.246 -43.774
f 224 223 222 221
f 217 218 222 221
f 218 219 223 222
f 219 220 224 223
f 220 217 221 224
v -233.279 0.632 -48.752
v -222.894 0.632 -56.621
v -218.141 0.632 -50.348
v -228.526 0.632 -42.479
v -233.279 4.532 -48.752
v -222.894 4.532 -56.621
v -218.141 4.532 -50.348
v -228.526 4.532 -42.479
f 232 231 230 229
f 225 226 230 229
f 226 227 231 230
f 227 228 232 231
f 228 225 229 232
v -226.252 0.809 -58.548
v -213.310 0.809 -64.093
v -210.148 0.809 -56.712
v -223.090 0.809 -51.167
v -226.252 4.709 -58.548
v -213.310 4.709 -64.093
v -210.148 4.709 -56.712
v -223.090 4.709 -51.167
f 240 239 238 237
f 233 234 238 237
f 234 235 239 238
f 235 236 240 239
f 236 233 237 240
v -221.854 0.771 -68.825
v -208.974 0.771 -73.889
v -206.146 0.771 -66.695
v -219.026 0.771 -61.631
v -221.854 4.671 -68.825
v -208.974 4.671 -73.889
v -206.146 4.671 -66.695
v -219.026 4.671 -61.631
f 248 247 246 245
f 241 242 246 245
f 242 243 247 246
f 243 244 248 247
f 244 241 245 248
v -215.388 0.775 -77.479
v -204.286 0.775 -82.188
v -201.272 0.775 -75.081
v -212.374 0.775 -70.372
v -215.388 4.675 -77.479
v -204.286 4.675 -82.188
v -201.272 4.675 -75.081
v -212.374 4.675 -70.372
f 256 255 254 253
f 249 250 254 253
f 250 251 255 254
f 251 252 256 255
f 252 249 253 256
v -214.965 0.743 -86.641
v -202.163 0.743 -93.577
v -197.775 0.743 -85.479
v -210.577 0.743 -78.543
v -214.965 4.643 -86.641
v -202.163 4.643 -93.577
v -197.775 4.643 -85.479
v -210.577 4.643 -78.543
f 264 263 262 261
f 257 258 262 261
f 258 259 263 262
f 259 260 264 263
f 260 257 261 264
v -209.945 0.784 -95.961
v -196.841 0.784 -101.483
v -193.695 0.784 -94.019
v -206.799 0.784 -88.497
v -209.945 4.684 -95.961
v -196.841 4.684 -101.483
v -193.695 4.684 -94.019
v -206.799 4.684 -88.497
f 272 271 270 269
f 265 266 270 269
f 266 267 271 270
f 267 268 272 271
f 268 265 269 272
v -206.781 0.665 -105.824
v -195.315 0.665 -111.580
v -191.699 0.665 -104.376
v -203.165 0.665 -98.620
v -206.781 4.565 -105.824
v -195.315 4.565 -111.580
v -191.699 4.565 -104.376
v -203.165 4.565 -98.620
f 280 279 278 277
f 273 274 278 277
f 274 275 279 278
f 275 276 280 279
f 276 273 277 280
v -199.574 0.863 -115.376
v -189.534 0.863 -119.569
v -186.266 0.863 -111.744
v -196.306 0.863 -107.551
v -199.574 4.763 -115.376
v -189.534 4.763 -119.569
v -186.266 4.763 -111.744
v -196.306 4.763 -107.551
f 288 287 286 285
f 281 282 286 285
f 282 283 287 286
f 283 284 288 287
f 284 281 285 288
v -178.389 1.151 -144.877
v -160.432 1.151 -140.427
v -163.591 1.151 -127.683
v -181.548 1.151 -132.133
v -178.389 5.051 -144.877
v -160.432 5.051 -140.427
v -163.591 5.051 -127.683
v -181.548 5.051 -132.133
f 296 295 294 293
f 289 290 294 293
f 290 291 295 294
f 291 292 296 295
f 292 289 293 296
v -177.191 1.022 -111.392
v -172.368 1.022 -100.132
v -180.549 1.022 -96.628
v -185.372 1.022 -107.888
v -177.191 4.922 -111.392
v -172.368 4.922 -100.132
v -180.549 4.922 -96.628
v -185.372 4.922 -107.888
f 304 303 302 301
f 297 298 302 301
f 298 299 303 302
f 299 300 304 303
f 300 297 301 304
v -168.235 0.992 -107.774
v -162.861 0.992 -94.523
v -170.645 0.992 -91.366
v -176.019 0.992 -104.617
v -168.235 4.892 -107.774
v -162.861 4.892 -94.523
v -170.645 4.892 -91.366
v -176.019 4.892 -104.617
f 312 311 310 309
f 305 306 310 309
f 306 307 311 310
f 307 308 312 311
f 308 305 309 312
v -157.730 1.076 -103.431
v -152.409 1.076 -90.158
v -161.310 1.076 -86.589
v -166.631 1.076 -99.862
v -157.730 4.976 -103.431
v -152.409 4.976 -90.158
v -161.310 4.976 -86.589
v -166.631 4.976 -99.862
f 320 319 318 317
f 313 314 318 317
f 314 315 319 318
f 315 316 320 319
f 316 313 317 320
usemtl road
v -210.668 1.037 18.644
v -177.638 1.151 55.914
v -173.522 1.102 52.266
v -206.552 1.180 14.996
f 321 322 323 324
v -176.882 1.146 56.512
v -165.182 1.175 62.802
v -162.578 1.192 57.958
v -174.278 1.102 51.668
f 325 326 327 328
v -163.750 1.166 63.127
v -149.410 1.141 62.447
v -149.670 1.233 56.953
v -164.010 1.172 57.633
f 329 330 331 332
v -148.834 1.147 62.358
v -139.654 1.288 59.918
v -141.066 1.185 54.602
v -150.246 1.238 57.042
f 333 334 335 336
v -138.324 1.266 59.109
v -131.404 1.260 51.489
v -135.476 1.211 47.791
v -142.396 1.196 55.411
f 337 338 339 340
v -131.082 1.259 51.055
v -124.502 1.297 40.095
v -129.218 1.255 37.265
v -135.798 1.206 48.225
f 341 342 343 344
v -124.436 1.297 39.978
v -105.876 1.324 5.328
v -110.724 1.299 2.732
v -129.284 1.256 37.382
f 345 346 347 348
v -202.657 1.130 -1.476
v -211.077 1.081 15.604
v -206.143 1.131 18.036
v -197.723 1.084 0.956
f 349 350 351 352
v -210.437 1.084 14.764
v -239.917 1.190 40.964
v -236.263 1.217 45.076
v -206.783 1.083 18.876
f 353 354 355 356
v -239.715 1.189 40.801
v -257.625 1.177 53.918
v -254.375 1.155 58.355
v -236.465 1.219 45.239
f 357 358 359 360
v -206.613 1.168 14.929
v -215.323 1.292 5.729
v -219.317 1.034 9.511
v -210.607 1.037 18.711
f 361 362 363 364
v -214.647 1.150 6.973
v -216.907 1.604 -2.367
v -222.253 1.095 -1.073
v -219.993 1.034 8.267
f 365 366 367 368
v -216.833 1.600 -1.586
v -216.303 1.276 -12.436
v -221.797 1.174 -12.704
v -222.327 1.099 -1.854
f 369 370 371 372
v -216.519 1.279 -11.495
v -211.669 1.572 -22.915
v -216.731 1.103 -25.065
v -221.581 1.178 -13.645
f 373 374 375 376
v -211.878 1.559 -22.516
v -191.968 1.114 -53.886
v -196.612 1.050 -56.834
v -216.522 1.104 -25.464
f 377 378 379 380
v -191.791 1.114 -54.212
v -177.791 1.239 -84.692
v -182.789 1.155 -86.988
v -196.789 1.052 -56.508
f 381 382 383 384
v 208.488 2.486 207.648
v 205.728 1.989 191.838
v 198.832 2.058 193.042
v 201.592 2.481 208.852
f 385 386 387 388
v 205.729 1.989 191.847
v 203.209 1.610 177.197
v 196.311 1.705 178.383
v 198.831 2.058 193.033
f 389 390 391 392
v 203.185 1.607 177.071
v 200.915 1.372 166.261
v 194.065 1.507 167.699
v 196.335 1.707 178.509
f 393 394 395 396
v 200.913 1.372 166.250
v 195.033 1.104 138.670
v 188.187 1.152 140.130
v 194.067 1.507 167.710
f 397 398 399 400
v 194.988 1.103 138.483
v 191.458 1.080 125.473
v 184.702 1.124 127.307
v 188.232 1.153 140.317
f 401 402 403 404
v 191.438 1.080 125.404
v 167.518 1.237 43.944
v 160.802 1.238 45.916
v 184.722 1.124 127.376
f 405 406 407 408
v 167.401 1.239 43.607
v 156.141 1.196 16.017
v 149.659 1.248 18.663
v 160.919 1.238 46.253
f 409 410 411 412
v 156.031 1.196 15.777
v 149.761 1.194 3.217
v 143.499 1.228 6.343
v 149.769 1.249 18.903
f 413 414 415 416
v 149.445 1.189 2.700
v 139.585 1.181 -10.640
v 133.955 1.194 -6.480
v 143.815 1.229 6.860
f 417 418 419 420
v 139.170 1.186 -11.108
v 129.000 1.161 -20.688
v 124.200 1.183 -15.592
v 134.370 1.195 -6.012
f 421 422 423 424
v 128.574 1.162 -21.030
v 75.114 1.017 -57.540
v 71.166 1.051 -51.760
v 124.626 1.188 -15.250
f 425 426 427 428
v 74.986 1.019 -57.624
v -69.314 1.156 -147.194
v -73.006 1.259 -141.246
v 71.294 1.051 -51.676
f 429 430 431 432
v -69.318 1.156 -147.196
v -89.198 1.107 -159.496
v -92.882 1.208 -153.544
v -73.002 1.259 -141.244
f 433 434 435 436
v -89.319 1.108 -159.568
v -231.819 1.218 -240.018
v -235.261 1.300 -233.922
v -92.761 1.208 -153.472
f 437 438 439 440
v -231.533 1.217 -239.837
v -253.993 1.211 -255.563
v -258.007 1.240 -249.829
v -235.547 1.299 -234.103
f 441 442 443 444
v -39.479 2.055 243.743
v -55.629 2.002 247.223
v -53.311 2.059 257.977
v -37.161 2.126 254.497
f 445 446 447 448
v -55.700 2.001 247.239
v -70.523 1.969 250.639
v -68.064 1.909 261.361
v -53.240 2.060 257.961
f 449 450 451 452
v 83.892 2.069 249.227
v 131.292 2.243 241.437
v 129.508 2.469 230.583
v 82.108 2.329 238.373
f 453 454 455 456
v 131.258 2.243 241.443
v 208.398 2.251 229.263
v 206.682 2.622 218.397
v 129.542 2.469 230.577
f 457 458 459 460
v 127.400 2.414 235.999
v 127.325 2.011 255.989
v 133.325 1.868 256.011
v 133.400 2.400 236.021
f 461 462 463 464
v 139.211 1.290 257.733
v 157.160 0.437 255.243
v 156.680 0.434 251.777
v 138.730 1.536 254.267
f 465 466 467 468
v -133.649 1.120 -79.090
v -142.529 1.370 -100.910
v -145.771 1.544 -99.590
v -136.891 1.067 -77.770
f 469 470 471 472
v -142.458 1.370 -100.697
v -146.458 1.183 -115.837
v -149.842 1.172 -114.943
v -145.842 1.547 -99.803
f 473 474 475 476
v -146.469 1.182 -115.878
v -150.199 1.135 -128.728
v -153.561 1.168 -127.752
v -149.831 1.172 -114.902
f 477 478 479 480
v -150.199 1.135 -128.726
v -153.129 1.115 -138.866
v -156.491 1.242 -137.894
v -153.561 1.168 -127.754
f 481 482 483 484
v -153.335 1.102 -139.321
v -157.915 1.016 -146.501
v -160.865 1.207 -144.619
v -156.285 1.243 -137.439
f 485 486 487 488
v -158.685 1.005 -147.162
v -164.915 0.954 -149.902
v -166.325 1.132 -146.698
v -160.095 1.210 -143.958
f 489 490 491 492
v -165.611 0.956 -150.050
v -173.621 1.053 -150.090
v -173.639 1.204 -146.590
v -165.629 1.140 -146.550
f 493 494 495 496
v -173.734 1.054 -150.087
v -182.164 1.093 -149.587
v -181.956 1.187 -146.093
v -173.526 1.203 -146.593
f 497 498 499 500
v -182.377 1.095 -149.561
v -196.347 0.780 -146.991
v -195.713 0.806 -143.549
v -181.743 1.186 -146.119
f 501 502 503 504
v 208.413 2.251 229.260
v 219.603 2.179 227.460
v 217.857 2.631 216.600
v 206.667 2.622 218.400
f 505 506 507 508
v -174.336 1.230 -58.550
v -191.206 1.312 -44.280
v -187.654 1.368 -40.080
v -170.784 1.149 -54.350
f 509 510 511 512
v -191.923 1.315 -43.341
v -195.753 1.269 -35.121
v -190.767 1.424 -32.799
v -186.937 1.384 -41.019
f 513 514 515 516
v -195.753 1.269 -35.120
v -202.923 1.400 -19.710
v -197.937 1.277 -17.390
v -190.767 1.424 -32.800
f 517 518 519 520
v -203.180 1.372 -18.514
v -202.940 1.122 -0.224
v -197.440 1.073 -0.296
v -197.680 1.289 -18.586
f 521 522 523 524
v -73.417 1.174 -145.791
v -101.717 1.296 -105.131
v -97.203 0.966 -101.989
v -68.903 1.191 -142.649
f 525 526 527 528
v -101.646 1.296 -105.228
v -111.926 1.228 -91.758
v -107.554 1.058 -88.422
v -97.274 0.965 -101.892
f 529 530 531 532
v -111.233 1.232 -92.399
v -115.083 1.224 -89.909
v -112.097 1.152 -85.291
v -108.247 1.061 -87.781
f 533 534 535 536
v -115.077 1.224 -89.913
v -122.837 1.199 -84.923
v -119.863 1.208 -80.297
v -112.103 1.152 -85.287
f 537 538 539 540
v -122.045 1.207 -85.271
v -130.275 1.092 -83.121
v -128.885 1.263 -77.799
v -120.655 1.206 -79.949
f 541 542 543 544
v -130.504 1.082 -83.050
v -136.194 1.083 -81.020
v -134.346 1.141 -75.840
v -128.656 1.262 -77.870
f 545 546 547 548
v -136.198 1.083 -81.019
v -143.868 1.024 -78.269
v -142.012 1.043 -73.091
v -134.342 1.141 -75.841
f 549 550 551 552
v -144.201 1.025 -78.124
v -159.001 1.196 -70.484
v -156.479 1.127 -65.596
v -141.679 1.043 -73.236
f 553 554 555 556
v -159.434 1.195 -70.206
v -174.254 1.229 -58.616
v -170.866 1.150 -54.284
v -156.046 1.123 -65.874
f 557 558 559 560
v -197.690 1.083 0.886
v -182.900 1.270 -31.374
v -187.900 1.355 -33.666
v -202.690 1.130 -1.406
f 561 562 563 564
v -182.977 1.273 -31.220
v -170.137 1.143 -55.150
v -174.983 1.235 -57.750
v -187.823 1.353 -33.820
f 565 566 567 568
v 210.996 2.554 223.275
v 208.496 2.486 207.695
v 201.584 2.480 208.805
v 204.084 2.545 224.385
f 569 570 571 572
v 108.876 2.060 218.675
v -17.684 2.097 239.765
v -15.876 2.065 250.615
v 110.684 2.328 229.525
f 573 574 575 576
v -17.767 2.097 239.779
v -39.307 2.055 243.709
v -37.333 2.126 254.531
v -15.793 2.066 250.601
f 577 578 579 580
v 204.137 2.337 202.825
v 108.877 2.060 218.675
v 110.683 2.328 229.525
v 205.943 2.557 213.675
f 581 582 583 584
v 10.716 1.931 261.425
v 83.904 2.069 249.225
v 82.096 2.329 238.375
v 8.908 2.134 250.575
f 585 586 587 588
v 157.190 0.437 255.239
v 219.640 0.455 245.499
v 219.100 0.630 242.041
v 156.650 0.435 251.781
f 589 590 591 592
v 219.640 0.455 245.499
v 256.270 0.366 239.785
v 255.730 0.391 236.327
v 219.100 0.630 242.041
f 593 594 595 596
v 216.981 2.570 222.081
v 217.621 0.494 243.821
v 221.119 0.555 243.719
v 220.479 2.559 221.979
f 597 598 599 600
v 217.715 0.466 244.339
v 221.923 0.398 256.569
v 225.232 0.383 255.431
v 221.025 0.580 243.201
f 601 602 603 604
usemtl asphalt
