# Baked ultra-low Key West silhouette; generated by bake_key_west_far_city.py
mtllib far_city.mtl
usemtl massing
v 176.159 1.338 190.625
v 214.850 1.338 275.447
v 182.561 1.338 290.175
v 143.870 1.338 205.353
v 176.159 9.638 190.625
v 214.850 9.638 275.447
v 182.561 9.638 290.175
v 143.870 9.638 205.353
f 8 7 6 5
f 1 2 6 5
f 2 3 7 6
f 3 4 8 7
f 4 1 5 8
v -24.868 0.707 -76.943
v -16.154 0.707 -61.193
v -27.932 0.707 -54.677
v -36.646 0.707 -70.427
v -24.868 4.607 -76.943
v -16.154 4.607 -61.193
v -27.932 4.607 -54.677
v -36.646 4.607 -70.427
f 16 15 14 13
f 9 10 14 13
f 10 11 15 14
f 11 12 16 15
f 12 9 13 16
v -100.481 1.184 -57.764
v -85.983 1.184 -65.408
v -79.039 1.184 -52.236
v -93.537 1.184 -44.592
v -100.481 5.084 -57.764
v -85.983 5.084 -65.408
v -79.039 5.084 -52.236
v -93.537 5.084 -44.592
f 24 23 22 21
f 17 18 22 21
f 18 19 23 22
f 19 20 24 23
f 20 17 21 24
v -99.751 0.824 -50.424
v -92.483 0.824 -39.899
v -102.769 0.824 -32.796
v -110.037 0.824 -43.321
v -99.751 4.724 -50.424
v -92.483 4.724 -39.899
v -102.769 4.724 -32.796
v -110.037 4.724 -43.321
f 32 31 30 29
f 25 26 30 29
f 26 27 31 30
f 27 28 32 31
f 28 25 29 32
v 35.674 2.230 -92.973
v 49.895 2.230 -65.799
v 32.866 2.230 -56.887
v 18.645 2.230 -84.061
v 35.674 6.130 -92.973
v 49.895 6.130 -65.799
v 32.866 6.130 -56.887
v 18.645 6.130 -84.061
f 40 39 38 37
f 33 34 38 37
f 34 35 39 38
f 35 36 40 39
f 36 33 37 40
v 7.631 1.040 -51.489
v 21.850 1.040 -61.622
v 32.789 1.040 -46.271
v 18.570 1.040 -36.138
v 7.631 4.940 -51.489
v 21.850 4.940 -61.622
v 32.789 4.940 -46.271
v 18.570 4.940 -36.138
f 48 47 46 45
f 41 42 46 45
f 42 43 47 46
f 43 44 48 47
f 44 41 45 48
v 17.812 2.054 -100.450
v 24.975 2.054 -88.444
v 13.888 2.054 -81.830
v 6.725 2.054 -93.836
v 17.812 5.954 -100.450
v 24.975 5.954 -88.444
v 13.888 5.954 -81.830
v 6.725 5.954 -93.836
f 56 55 54 53
f 49 50 54 53
f 50 51 55 54
f 51 52 56 55
f 52 49 53 56
v -16.912 0.958 -105.020
v -0.679 0.958 -113.578
v 5.752 0.958 -101.380
v -10.481 0.958 -92.822
v -16.912 4.858 -105.020
v -0.679 4.858 -113.578
v 5.752 4.858 -101.380
v -10.481 4.858 -92.822
f 64 63 62 61
f 57 58 62 61
f 58 59 63 62
f 59 60 64 63
f 60 57 61 64
v -188.511 1.736 -153.302
v -169.356 1.736 -135.884
v -182.529 1.736 -121.398
v -201.684 1.736 -138.816
v -188.511 5.636 -153.302
v -169.356 5.636 -135.884
v -182.529 5.636 -121.398
v -201.684 5.636 -138.816
f 72 71 70 69
f 65 66 70 69
f 66 67 71 70
f 67 68 72 71
f 68 65 69 72
v -180.761 0.970 -123.745
v -162.626 0.970 -114.447
v -170.199 0.970 -99.675
v -188.334 0.970 -108.973
v -180.761 4.870 -123.745
v -162.626 4.870 -114.447
v -170.199 4.870 -99.675
v -188.334 4.870 -108.973
f 80 79 78 77
f 73 74 78 77
f 74 75 79 78
f 75 76 80 79
f 76 73 77 80
v -212.638 0.978 -157.732
v -198.576 0.978 -174.703
v -181.782 0.978 -160.788
v -195.844 0.978 -143.817
v -212.638 4.878 -157.732
v -198.576 4.878 -174.703
v -181.782 4.878 -160.788
v -195.844 4.878 -143.817
f 88 87 86 85
f 81 82 86 85
f 82 83 87 86
f 83 84 88 87
f 84 81 85 88
v -219.444 1.724 -187.430
v -202.660 1.724 -197.339
v -194.236 1.724 -183.070
v -211.020 1.724 -173.161
v -219.444 5.624 -187.430
v -202.660 5.624 -197.339
v -194.236 5.624 -183.070
v -211.020 5.624 -173.161
f 96 95 94 93
f 89 90 94 93
f 90 91 95 94
f 91 92 96 95
f 92 89 93 96
v -229.464 0.759 -211.908
v -213.647 0.759 -201.876
v -222.516 0.759 -187.892
v -238.333 0.759 -197.924
v -229.464 4.659 -211.908
v -213.647 4.659 -201.876
v -222.516 4.659 -187.892
v -238.333 4.659 -197.924
f 104 103 102 101
f 97 98 102 101
f 98 99 103 102
f 99 100 104 103
f 100 97 101 104
v -257.237 0.682 -253.631
v -239.792 0.682 -242.414
v -248.423 0.682 -228.989
v -265.868 0.682 -240.206
v -257.237 4.582 -253.631
v -239.792 4.582 -242.414
v -248.423 4.582 -228.989
v -265.868 4.582 -240.206
f 112 111 110 109
f 105 106 110 109
f 106 107 111 110
f 107 108 112 111
f 108 105 109 112
v -176.800 1.177 -96.669
v -153.109 1.177 -87.621
v -159.560 1.177 -70.731
v -183.251 1.177 -79.779
v -176.800 5.077 -96.669
v -153.109 5.077 -87.621
v -159.560 5.077 -70.731
v -183.251 5.077 -79.779
f 120 119 118 117
f 113 114 118 117
f 114 115 119 118
f 115 116 120 119
f 116 113 117 120
v -174.245 0.914 -57.551
v -167.582 0.914 -75.813
v -149.535 0.914 -69.229
v -156.198 0.914 -50.967
v -174.245 4.814 -57.551
v -167.582 4.814 -75.813
v -149.535 4.814 -69.229
v -156.198 4.814 -50.967
f 128 127 126 125
f 121 122 126 125
f 122 123 127 126
f 123 124 128 127
f 124 121 125 128
v -165.671 0.879 -55.479
v -144.971 0.879 -48.547
v -151.129 0.879 -30.161
v -171.829 0.879 -37.093
v -165.671 4.779 -55.479
v -144.971 4.779 -48.547
v -151.129 4.779 -30.161
v -171.829 4.779 -37.093
f 136 135 134 133
f 129 130 134 133
f 130 131 135 134
f 131 132 136 135
f 132 129 133 136
v -161.995 0.832 -33.539
v -141.451 0.832 -29.436
v -145.045 0.832 -11.441
v -165.589 0.832 -15.544
v -161.995 4.732 -33.539
v -141.451 4.732 -29.436
v -145.045 4.732 -11.441
v -165.589 4.732 -15.544
f 144 143 142 141
f 137 138 142 141
f 138 139 143 142
f 139 140 144 143
f 140 137 141 144
v -156.015 0.774 -17.461
v -132.984 0.774 -5.547
v -143.345 0.774 14.481
v -166.376 0.774 2.567
v -156.015 4.674 -17.461
v -132.984 4.674 -5.547
v -143.345 4.674 14.481
v -166.376 4.674 2.567
f 152 151 150 149
f 145 146 150 149
f 146 147 151 150
f 147 148 152 151
f 148 145 149 152
v -153.081 0.675 7.854
v -131.969 0.675 13.408
v -136.699 0.675 31.386
v -157.811 0.675 25.832
v -153.081 4.575 7.854
v -131.969 4.575 13.408
v -136.699 4.575 31.386
v -157.811 4.575 25.832
f 160 159 158 157
f 153 154 158 157
f 154 155 159 158
f 155 156 160 159
f 156 153 157 160
v -157.826 1.101 31.818
v -132.879 1.101 23.521
v -126.094 1.101 43.922
v -151.041 1.101 52.219
v -157.826 5.001 31.818
v -132.879 5.001 23.521
v -126.094 5.001 43.922
v -151.041 5.001 52.219
f 168 167 166 165
f 161 162 166 165
f 162 163 167 166
f 163 164 168 167
f 164 161 165 168
v -148.318 1.141 54.655
v -126.879 1.141 47.102
v -118.182 1.141 71.785
v -139.621 1.141 79.338
v -148.318 5.041 54.655
v -126.879 5.041 47.102
v -118.182 5.041 71.785
v -139.621 5.041 79.338
f 176 175 174 173
f 169 170 174 173
f 170 171 175 174
f 171 172 176 175
f 172 169 173 176
v -110.360 1.057 101.127
v -96.689 1.057 89.296
v -88.280 1.057 99.013
v -101.951 1.057 110.844
v -110.360 4.957 101.127
v -96.689 4.957 89.296
v -88.280 4.957 99.013
v -101.951 4.957 110.844
f 184 183 182 181
f 177 178 182 181
f 178 179 183 182
f 179 180 184 183
f 180 177 181 184
v -125.820 0.801 70.747
v -103.752 0.801 76.063
v -108.640 0.801 96.353
v -130.708 0.801 91.037
v -125.820 4.701 70.747
v -103.752 4.701 76.063
v -108.640 4.701 96.353
v -130.708 4.701 91.037
f 192 191 190 189
f 185 186 190 189
f 186 187 191 190
f 187 188 192 191
f 188 185 189 192
v -95.193 1.131 113.934
v -80.193 1.131 101.302
v -70.067 1.131 113.326
v -85.067 1.131 125.958
v -95.193 5.031 113.934
v -80.193 5.031 101.302
v -70.067 5.031 113.326
v -85.067 5.031 125.958
f 200 199 198 197
f 193 194 198 197
f 194 195 199 198
f 195 196 200 199
f 196 193 197 200
v -69.095 1.064 109.622
v -46.417 1.064 111.299
v -48.085 1.064 133.858
v -70.763 1.064 132.181
v -69.095 4.964 109.622
v -46.417 4.964 111.299
v -48.085 4.964 133.858
v -70.763 4.964 132.181
f 208 207 206 205
f 201 202 206 205
f 202 203 207 206
f 203 204 208 207
f 204 201 205 208
v -34.253 1.025 138.541
v -18.513 1.025 133.236
v -13.287 1.025 148.739
v -29.027 1.025 154.044
v -34.253 4.925 138.541
v -18.513 4.925 133.236
v -13.287 4.925 148.739
v -29.027 4.925 154.044
f 216 215 214 213
f 209 210 214 213
f 210 211 215 214
f 211 212 216 215
f 212 209 213 216
v -36.548 0.999 120.680
v -29.420 0.999 139.815
v -44.732 0.999 145.520
v -51.860 0.999 126.385
v -36.548 4.899 120.680
v -29.420 4.899 139.815
v -44.732 4.899 145.520
v -51.860 4.899 126.385
f 224 223 222 221
f 217 218 222 221
f 218 219 223 222
f 219 220 224 223
f 220 217 221 224
v -14.867 0.974 153.805
v 0.877 0.974 145.203
v 8.467 0.974 159.095
v -7.277 0.974 167.697
v -14.867 4.874 153.805
v 0.877 4.874 145.203
v 8.467 4.874 159.095
v -7.277 4.874 167.697
f 232 231 230 229
f 225 226 230 229
f 226 227 231 230
f 227 228 232 231
f 228 225 229 232
v -76.578 0.949 -182.950
v -68.810 0.949 -169.179
v -80.882 0.949 -162.370
v -88.650 0.949 -176.141
v -76.578 4.849 -182.950
v -68.810 4.849 -169.179
v -80.882 4.849 -162.370
v -88.650 4.849 -176.141
f 240 239 238 237
f 233 234 238 237
f 234 235 239 238
f 235 236 240 239
f 236 233 237 240
v -87.858 1.050 -165.539
v -74.897 1.050 -141.319
v -89.022 1.050 -133.761
v -101.983 1.050 -157.981
v -87.858 4.950 -165.539
v -74.897 4.950 -141.319
v -89.022 4.950 -133.761
v -101.983 4.950 -157.981
f 248 247 246 245
f 241 242 246 245
f 242 243 247 246
f 243 244 248 247
f 244 241 245 248
v -61.269 1.836 -229.429
v -45.248 1.836 -239.864
v -35.391 1.836 -224.731
v -51.412 1.836 -214.296
v -61.269 5.736 -229.429
v -45.248 5.736 -239.864
v -35.391 5.736 -224.731
v -51.412 5.736 -214.296
f 256 255 254 253
f 249 250 254 253
f 250 251 255 254
f 251 252 256 255
f 252 249 253 256
v -76.360 1.304 -209.985
v -54.283 1.304 -224.038
v -44.440 1.304 -208.575
v -66.517 1.304 -194.522
v -76.360 5.204 -209.985
v -54.283 5.204 -224.038
v -44.440 5.204 -208.575
v -66.517 5.204 -194.522
f 264 263 262 261
f 257 258 262 261
f 258 259 263 262
f 259 260 264 263
f 260 257 261 264
v -145.376 1.267 -152.622
v -133.050 1.267 -180.213
v -110.544 1.267 -170.158
v -122.870 1.267 -142.567
v -145.376 7.067 -152.622
v -133.050 7.067 -180.213
v -110.544 7.067 -170.158
v -122.870 7.067 -142.567
f 272 271 270 269
f 265 266 270 269
f 266 267 271 270
f 267 268 272 271
f 268 265 269 272
v -164.415 1.453 -184.042
v -144.192 1.453 -194.935
v -134.585 1.453 -177.098
v -154.808 1.453 -166.205
v -164.415 5.353 -184.042
v -144.192 5.353 -194.935
v -134.585 5.353 -177.098
v -154.808 5.353 -166.205
f 280 279 278 277
f 273 274 278 277
f 274 275 279 278
f 275 276 280 279
f 276 273 277 280
v -164.894 1.142 -211.788
v -145.035 1.142 -201.823
v -152.166 1.142 -187.612
v -172.025 1.142 -197.577
v -164.894 5.042 -211.788
v -145.035 5.042 -201.823
v -152.166 5.042 -187.612
v -172.025 5.042 -197.577
f 288 287 286 285
f 281 282 286 285
f 282 283 287 286
f 283 284 288 287
f 284 281 285 288
v -166.299 0.733 -234.722
v -153.779 0.733 -217.589
v -171.421 0.733 -204.698
v -183.941 0.733 -221.831
v -166.299 4.633 -234.722
v -153.779 4.633 -217.589
v -171.421 4.633 -204.698
v -183.941 4.633 -221.831
f 296 295 294 293
f 289 290 294 293
f 290 291 295 294
f 291 292 296 295
f 292 289 293 296
v 44.783 0.829 5.446
v 64.355 0.829 4.398
v 65.257 0.829 21.254
v 45.685 0.829 22.302
v 44.783 4.729 5.446
v 64.355 4.729 4.398
v 65.257 4.729 21.254
v 45.685 4.729 22.302
f 304 303 302 301
f 297 298 302 301
f 298 299 303 302
f 299 300 304 303
f 300 297 301 304
v 67.449 0.722 -11.872
v 75.242 0.722 1.073
v 63.051 0.722 8.412
v 55.258 0.722 -4.533
v 67.449 4.622 -11.872
v 75.242 4.622 1.073
v 63.051 4.622 8.412
v 55.258 4.622 -4.533
f 312 311 310 309
f 305 306 310 309
f 306 307 311 310
f 307 308 312 311
f 308 305 309 312
v 37.928 0.861 25.707
v 52.762 0.861 20.596
v 57.792 0.861 35.193
v 42.958 0.861 40.304
v 37.928 4.761 25.707
v 52.762 4.761 20.596
v 57.792 4.761 35.193
v 42.958 4.761 40.304
f 320 319 318 317
f 313 314 318 317
f 314 315 319 318
f 315 316 320 319
f 316 313 317 320
v 25.024 0.958 42.539
v 41.558 0.958 35.734
v 48.196 0.958 51.861
v 31.662 0.958 58.666
v 25.024 4.858 42.539
v 41.558 4.858 35.734
v 48.196 4.858 51.861
v 31.662 4.858 58.666
f 328 327 326 325
f 321 322 326 325
f 322 323 327 326
f 323 324 328 327
f 324 321 325 328
v 29.729 0.790 53.484
v 40.171 0.790 67.850
v 28.111 0.790 76.616
v 17.669 0.790 62.250
v 29.729 4.690 53.484
v 40.171 4.690 67.850
v 28.111 4.690 76.616
v 17.669 4.690 62.250
f 336 335 334 333
f 329 330 334 333
f 330 331 335 334
f 331 332 336 335
f 332 329 333 336
v 8.191 0.707 78.027
v 23.401 0.707 69.291
v 30.329 0.707 81.353
v 15.119 0.707 90.089
v 8.191 4.607 78.027
v 23.401 4.607 69.291
v 30.329 4.607 81.353
v 15.119 4.607 90.089
f 344 343 342 341
f 337 338 342 341
f 338 339 343 342
f 339 340 344 343
f 340 337 341 344
v 4.472 0.894 86.681
v 21.200 0.894 106.350
v 9.408 0.894 116.379
v -7.320 0.894 96.710
v 4.472 4.794 86.681
v 21.200 4.794 106.350
v 9.408 4.794 116.379
v -7.320 4.794 96.710
f 352 351 350 349
f 345 346 350 349
f 346 347 351 350
f 347 348 352 351
f 348 345 349 352
v -41.643 1.130 90.901
v -28.332 1.130 65.327
v -3.717 1.130 78.139
v -17.028 1.130 103.713
v -41.643 5.030 90.901
v -28.332 5.030 65.327
v -3.717 5.030 78.139
v -17.028 5.030 103.713
f 360 359 358 357
f 353 354 358 357
f 354 355 359 358
f 355 356 360 359
f 356 353 357 360
v -58.287 0.992 83.593
v -52.883 0.992 62.442
v -29.533 0.992 68.407
v -34.937 0.992 89.558
v -58.287 4.892 83.593
v -52.883 4.892 62.442
v -29.533 4.892 68.407
v -34.937 4.892 89.558
f 368 367 366 365
f 361 362 366 365
f 362 363 367 366
f 363 364 368 367
f 364 361 365 368
v -77.086 0.990 65.264
v -64.005 0.990 46.749
v -47.434 0.990 58.456
v -60.515 0.990 76.971
v -77.086 4.890 65.264
v -64.005 4.890 46.749
v -47.434 4.890 58.456
v -60.515 4.890 76.971
f 376 375 374 373
f 369 370 374 373
f 370 371 375 374
f 371 372 376 375
f 372 369 373 376
v -97.529 1.030 50.139
v -82.532 1.030 29.936
v -68.191 1.030 40.581
v -83.188 1.030 60.784
v -97.529 4.930 50.139
v -82.532 4.930 29.936
v -68.191 4.930 40.581
v -83.188 4.930 60.784
f 384 383 382 381
f 377 378 382 381
f 378 379 383 382
f 379 380 384 383
f 380 377 381 384
v -106.624 0.983 16.391
v -85.804 0.983 6.879
v -77.256 0.983 25.589
v -98.076 0.983 35.101
v -106.624 4.883 16.391
v -85.804 4.883 6.879
v -77.256 4.883 25.589
v -98.076 4.883 35.101
f 392 391 390 389
f 385 386 390 389
f 386 387 391 390
f 387 388 392 391
f 388 385 389 392
v -102.405 1.079 -10.049
v -84.690 1.079 -5.660
v -89.375 1.079 13.249
v -107.090 1.079 8.860
v -102.405 4.979 -10.049
v -84.690 4.979 -5.660
v -89.375 4.979 13.249
v -107.090 4.979 8.860
f 400 399 398 397
f 393 394 398 397
f 394 395 399 398
f 395 396 400 399
f 396 393 397 400
v -118.407 1.268 -20.835
v -96.410 1.268 -35.487
v -84.153 1.268 -17.085
v -106.150 1.268 -2.433
v -118.407 5.168 -20.835
v -96.410 5.168 -35.487
v -84.153 5.168 -17.085
v -106.150 5.168 -2.433
f 408 407 406 405
f 401 402 406 405
f 402 403 407 406
f 403 404 408 407
f 404 401 405 408
v -56.569 1.236 -32.231
v -36.380 1.236 -40.215
v -31.111 1.236 -26.889
v -51.300 1.236 -18.905
v -56.569 5.136 -32.231
v -36.380 5.136 -40.215
v -31.111 5.136 -26.889
v -51.300 5.136 -18.905
f 416 415 414 413
f 409 410 414 413
f 410 411 415 414
f 411 412 416 415
f 412 409 413 416
v 8.343 1.550 -39.238
v 17.371 1.550 -20.521
v 4.437 1.550 -14.282
v -4.591 1.550 -32.999
v 8.343 5.450 -39.238
v 17.371 5.450 -20.521
v 4.437 5.450 -14.282
v -4.591 5.450 -32.999
f 424 423 422 421
f 417 418 422 421
f 418 419 423 422
f 419 420 424 423
f 420 417 421 424
v -2.605 1.310 -15.202
v 6.102 1.310 -0.148
v -7.575 1.310 7.762
v -16.282 1.310 -7.292
v -2.605 5.210 -15.202
v 6.102 5.210 -0.148
v -7.575 5.210 7.762
v -16.282 5.210 -7.292
f 432 431 430 429
f 425 426 430 429
f 426 427 431 430
f 427 428 432 431
f 428 425 429 432
v -55.144 1.410 4.417
v -51.213 1.410 -14.008
v -39.536 1.410 -11.517
v -43.467 1.410 6.908
v -55.144 5.310 4.417
v -51.213 5.310 -14.008
v -39.536 5.310 -11.517
v -43.467 5.310 6.908
f 440 439 438 437
f 433 434 438 437
f 434 435 439 438
f 435 436 440 439
f 436 433 437 440
v -41.749 1.844 20.114
v -19.619 1.844 7.324
v -10.231 1.844 23.566
v -32.361 1.844 36.356
v -41.749 7.644 20.114
v -19.619 7.644 7.324
v -10.231 7.644 23.566
v -32.361 7.644 36.356
f 448 447 446 445
f 441 442 446 445
f 442 443 447 446
f 443 444 448 447
f 444 441 445 448
v -42.064 1.047 -120.310
v -23.364 1.047 -127.515
v -17.476 1.047 -112.230
v -36.176 1.047 -105.025
v -42.064 4.947 -120.310
v -23.364 4.947 -127.515
v -17.476 4.947 -112.230
v -36.176 4.947 -105.025
f 456 455 454 453
f 449 450 454 453
f 450 451 455 454
f 451 452 456 455
f 452 449 453 456
v -64.012 1.494 -135.510
v -42.030 1.494 -140.020
v -38.088 1.494 -120.810
v -60.070 1.494 -116.300
v -64.012 5.394 -135.510
v -42.030 5.394 -140.020
v -38.088 5.394 -120.810
v -60.070 5.394 -116.300
f 464 463 462 461
f 457 458 462 461
f 458 459 463 462
f 459 460 464 463
f 460 457 461 464
v -21.689 1.798 -186.558
v -12.775 1.798 -170.473
v -26.691 1.798 -162.762
v -35.605 1.798 -178.847
v -21.689 5.698 -186.558
v -12.775 5.698 -170.473
v -26.691 5.698 -162.762
v -35.605 5.698 -178.847
f 472 471 470 469
f 465 466 470 469
f 466 467 471 470
f 467 468 472 471
f 468 465 469 472
v -7.096 1.247 -177.055
v 7.638 1.247 -163.046
v -3.924 1.247 -150.885
v -18.658 1.247 -164.894
v -7.096 5.147 -177.055
v 7.638 5.147 -163.046
v -3.924 5.147 -150.885
v -18.658 5.147 -164.894
f 480 479 478 477
f 473 474 478 477
f 474 475 479 478
f 475 476 480 479
f 476 473 477 480
v 9.384 1.451 -168.841
v 22.988 1.451 -149.950
v 8.836 1.451 -139.759
v -4.768 1.451 -158.650
v 9.384 5.351 -168.841
v 22.988 5.351 -149.950
v 8.836 5.351 -139.759
v -4.768 5.351 -158.650
f 488 487 486 485
f 481 482 486 485
f 482 483 487 486
f 483 484 488 487
f 484 481 485 488
v 26.386 1.458 -159.320
v 38.280 1.458 -143.415
v 25.154 1.458 -133.600
v 13.260 1.458 -149.505
v 26.386 5.358 -159.320
v 38.280 5.358 -143.415
v 25.154 5.358 -133.600
v 13.260 5.358 -149.505
f 496 495 494 493
f 489 490 494 493
f 490 491 495 494
f 491 492 496 495
f 492 489 493 496
v 44.686 1.663 -149.873
v 53.806 1.663 -133.490
v 41.154 1.663 -126.447
v 32.034 1.663 -142.830
v 44.686 5.563 -149.873
v 53.806 5.563 -133.490
v 41.154 5.563 -126.447
v 32.034 5.563 -142.830
f 504 503 502 501
f 497 498 502 501
f 498 499 503 502
f 499 500 504 503
f 500 497 501 504
v 66.776 1.542 -147.297
v 79.381 1.542 -125.441
v 64.924 1.542 -117.103
v 52.319 1.542 -138.959
v 66.776 5.442 -147.297
v 79.381 5.442 -125.441
v 64.924 5.442 -117.103
v 52.319 5.442 -138.959
f 512 511 510 509
f 505 506 510 509
f 506 507 511 510
f 507 508 512 511
f 508 505 509 512
v 84.582 1.512 -178.354
v 93.790 1.512 -149.886
v 77.158 1.512 -144.506
v 67.950 1.512 -172.974
v 84.582 5.412 -178.354
v 93.790 5.412 -149.886
v 77.158 5.412 -144.506
v 67.950 5.412 -172.974
f 520 519 518 517
f 513 514 518 517
f 514 515 519 518
f 515 516 520 519
f 516 513 517 520
v 67.174 1.683 -188.608
v 74.232 1.683 -173.882
v 59.606 1.683 -166.872
v 52.548 1.683 -181.598
v 67.174 5.583 -188.608
v 74.232 5.583 -173.882
v 59.606 5.583 -166.872
v 52.548 5.583 -181.598
f 528 527 526 525
f 521 522 526 525
f 522 523 527 526
f 523 524 528 527
f 524 521 525 528
v 50.909 1.429 -199.209
v 59.528 1.429 -183.807
v 46.491 1.429 -176.511
v 37.872 1.429 -191.913
v 50.909 5.329 -199.209
v 59.528 5.329 -183.807
v 46.491 5.329 -176.511
v 37.872 5.329 -191.913
f 536 535 534 533
f 529 530 534 533
f 530 531 535 534
f 531 532 536 535
f 532 529 533 536
v 35.927 1.350 -206.488
v 42.578 1.350 -191.738
v 28.193 1.350 -185.252
v 21.542 1.350 -200.002
v 35.927 5.250 -206.488
v 42.578 5.250 -191.738
v 28.193 5.250 -185.252
v 21.542 5.250 -200.002
f 544 543 542 541
f 537 538 542 541
f 538 539 543 542
f 539 540 544 543
f 540 537 541 544
v 18.935 1.665 -216.680
v 26.186 1.665 -201.426
v 13.045 1.665 -195.180
v 5.794 1.665 -210.434
v 18.935 5.565 -216.680
v 26.186 5.565 -201.426
v 13.045 5.565 -195.180
v 5.794 5.565 -210.434
f 552 551 550 549
f 545 546 550 549
f 546 547 551 550
f 547 548 552 551
f 548 545 549 552
v -15.423 1.245 -218.270
v 2.123 1.245 -227.764
v 10.203 1.245 -212.830
v -7.343 1.245 -203.336
v -15.423 5.145 -218.270
v 2.123 5.145 -227.764
v 10.203 5.145 -212.830
v -7.343 5.145 -203.336
f 560 559 558 557
f 553 554 558 557
f 554 555 559 558
f 555 556 560 559
f 556 553 557 560
v 118.502 0.649 -120.755
v 132.424 0.649 -127.991
v 138.538 0.649 -116.225
v 124.616 0.649 -108.989
v 118.502 4.549 -120.755
v 132.424 4.549 -127.991
v 138.538 4.549 -116.225
v 124.616 4.549 -108.989
f 568 567 566 565
f 561 562 566 565
f 562 563 567 566
f 563 564 568 567
f 564 561 565 568
v 118.582 0.859 -113.926
v 126.366 0.859 -100.199
v 115.318 0.859 -93.934
v 107.534 0.859 -107.661
v 118.582 4.759 -113.926
v 126.366 4.759 -100.199
v 115.318 4.759 -93.934
v 107.534 4.759 -107.661
f 576 575 574 573
f 569 570 574 573
f 570 571 575 574
f 571 572 576 575
f 572 569 573 576
v 113.942 0.837 -95.108
v 121.257 0.837 -81.875
v 109.818 0.837 -75.552
v 102.503 0.837 -88.785
v 113.942 4.737 -95.108
v 121.257 4.737 -81.875
v 109.818 4.737 -75.552
v 102.503 4.737 -88.785
f 584 583 582 581
f 577 578 582 581
f 578 579 583 582
f 579 580 584 583
f 580 577 581 584
v 101.656 0.625 -97.024
v 107.218 0.625 -97.959
v 108.144 0.625 -92.456
v 102.582 0.625 -91.521
v 101.656 4.525 -97.024
v 107.218 4.525 -97.959
v 108.144 4.525 -92.456
v 102.582 4.525 -91.521
f 592 591 590 589
f 585 586 590 589
f 586 587 591 590
f 587 588 592 591
f 588 585 589 592
v 153.076 0.859 -74.746
v 153.846 0.859 -97.163
v 173.904 0.859 -96.474
v 173.134 0.859 -74.057
v 153.076 4.759 -74.746
v 153.846 4.759 -97.163
v 173.904 4.759 -96.474
v 173.134 4.759 -74.057
f 600 599 598 597
f 593 594 598 597
f 594 595 599 598
f 595 596 600 599
f 596 593 597 600
v 187.924 1.008 -131.801
v 195.321 1.008 -117.693
v 183.356 1.008 -111.419
v 175.959 1.008 -125.527
v 187.924 4.908 -131.801
v 195.321 4.908 -117.693
v 183.356 4.908 -111.419
v 175.959 4.908 -125.527
f 608 607 606 605
f 601 602 606 605
f 602 603 607 606
f 603 604 608 607
f 604 601 605 608
v 204.890 0.992 -123.188
v 210.581 0.992 -108.128
v 196.830 0.992 -102.932
v 191.139 0.992 -117.992
v 204.890 4.892 -123.188
v 210.581 4.892 -108.128
v 196.830 4.892 -102.932
v 191.139 4.892 -117.992
f 616 615 614 613
f 609 610 614 613
f 610 611 615 614
f 611 612 616 615
f 612 609 613 616
v 218.555 1.368 -117.860
v 227.682 1.368 -103.530
v 215.545 1.368 -95.800
v 206.418 1.368 -110.130
v 218.555 5.268 -117.860
v 227.682 5.268 -103.530
v 215.545 5.268 -95.800
v 206.418 5.268 -110.130
f 624 623 622 621
f 617 618 622 621
f 618 619 623 622
f 619 620 624 623
f 620 617 621 624
v 235.921 1.206 -108.740
v 244.372 1.206 -93.622
v 232.239 1.206 -86.840
v 223.788 1.206 -101.958
v 235.921 5.106 -108.740
v 244.372 5.106 -93.622
v 232.239 5.106 -86.840
v 223.788 5.106 -101.958
f 632 631 630 629
f 625 626 630 629
f 626 627 631 630
f 627 628 632 631
f 628 625 629 632
v 248.605 2.276 -101.262
v 258.146 2.276 -85.740
v 247.795 2.276 -79.378
v 238.254 2.276 -94.900
v 248.605 6.176 -101.262
v 258.146 6.176 -85.740
v 247.795 6.176 -79.378
v 238.254 6.176 -94.900
f 640 639 638 637
f 633 634 638 637
f 634 635 639 638
f 635 636 640 639
f 636 633 637 640
v 65.184 0.934 -32.088
v 86.172 0.934 -27.332
v 82.156 0.934 -9.612
v 61.168 0.934 -14.368
v 65.184 4.834 -32.088
v 86.172 4.834 -27.332
v 82.156 4.834 -9.612
v 61.168 4.834 -14.368
f 648 647 646 645
f 641 642 646 645
f 642 643 647 646
f 643 644 648 647
f 644 641 645 648
v 70.801 0.839 -38.816
v 86.790 0.839 -47.426
v 94.039 0.839 -33.964
v 78.050 0.839 -25.354
v 70.801 4.739 -38.816
v 86.790 4.739 -47.426
v 94.039 4.739 -33.964
v 78.050 4.739 -25.354
f 656 655 654 653
f 649 650 654 653
f 650 651 655 654
f 651 652 656 655
f 652 649 653 656
v 79.860 0.961 -54.838
v 96.457 0.961 -64.391
v 103.980 0.961 -51.322
v 87.383 0.961 -41.769
v 79.860 4.861 -54.838
v 96.457 4.861 -64.391
v 103.980 4.861 -51.322
v 87.383 4.861 -41.769
f 664 663 662 661
f 657 658 662 661
f 658 659 663 662
f 659 660 664 663
f 660 657 661 664
v 89.166 0.860 -76.472
v 109.980 0.860 -81.137
v 113.694 0.860 -64.568
v 92.880 0.860 -59.903
v 89.166 4.760 -76.472
v 109.980 4.760 -81.137
v 113.694 4.760 -64.568
v 92.880 4.760 -59.903
f 672 671 670 669
f 665 666 670 669
f 666 667 671 670
f 667 668 672 671
f 668 665 669 672
v 139.665 1.463 -75.957
v 162.558 1.463 -64.368
v 151.935 1.463 -43.383
v 129.042 1.463 -54.972
v 139.665 5.363 -75.957
v 162.558 5.363 -64.368
v 151.935 5.363 -43.383
v 129.042 5.363 -54.972
f 680 679 678 677
f 673 674 678 677
f 674 675 679 678
f 675 676 680 679
f 676 673 677 680
v 159.834 0.965 -57.727
v 177.438 0.965 -48.468
v 169.846 0.965 -34.033
v 152.242 0.965 -43.292
v 159.834 4.865 -57.727
v 177.438 4.865 -48.468
v 169.846 4.865 -34.033
v 152.242 4.865 -43.292
f 688 687 686 685
f 681 682 686 685
f 682 683 687 686
f 683 684 688 687
f 684 681 685 688
v 169.843 0.936 -45.797
v 187.102 0.936 -48.633
v 189.917 0.936 -31.503
v 172.658 0.936 -28.667
v 169.843 4.836 -45.797
v 187.102 4.836 -48.633
v 189.917 4.836 -31.503
v 172.658 4.836 -28.667
f 696 695 694 693
f 689 690 694 693
f 690 691 695 694
f 691 692 696 695
f 692 689 693 696
v 128.390 0.784 -30.443
v 137.612 0.784 -12.527
v 124.070 0.784 -5.557
v 114.848 0.784 -23.473
v 128.390 4.684 -30.443
v 137.612 4.684 -12.527
v 124.070 4.684 -5.557
v 114.848 4.684 -23.473
f 704 703 702 701
f 697 698 702 701
f 698 699 703 702
f 699 700 704 703
f 700 697 701 704
v 107.665 0.729 10.446
v 108.643 0.729 -10.381
v 125.555 0.729 -9.586
v 124.577 0.729 11.241
v 107.665 4.629 10.446
v 108.643 4.629 -10.381
v 125.555 4.629 -9.586
v 124.577 4.629 11.241
f 712 711 710 709
f 705 706 710 709
f 706 707 711 710
f 707 708 712 711
f 708 705 709 712
v 91.573 0.832 22.205
v 103.378 0.832 0.965
v 122.467 0.832 11.575
v 110.662 0.832 32.815
v 91.573 4.732 22.205
v 103.378 4.732 0.965
v 122.467 4.732 11.575
v 110.662 4.732 32.815
f 720 719 718 717
f 713 714 718 717
f 714 715 719 718
f 715 716 720 719
f 716 713 717 720
v 81.057 0.902 40.005
v 98.094 0.902 31.528
v 103.043 0.902 41.475
v 86.006 0.902 49.952
v 81.057 4.802 40.005
v 98.094 4.802 31.528
v 103.043 4.802 41.475
v 86.006 4.802 49.952
f 728 727 726 725
f 721 722 726 725
f 722 723 727 726
f 723 724 728 727
f 724 721 725 728
v 108.599 0.598 36.063
v 116.639 0.598 31.822
v 118.841 0.598 35.997
v 110.801 0.598 40.238
v 108.599 4.498 36.063
v 116.639 4.498 31.822
v 118.841 4.498 35.997
v 110.801 4.498 40.238
f 736 735 734 733
f 729 730 734 733
f 730 731 735 734
f 731 732 736 735
f 732 729 733 736
v 112.276 0.857 39.621
v 119.687 0.857 53.484
v 109.184 0.857 59.099
v 101.773 0.857 45.236
v 112.276 4.757 39.621
v 119.687 4.757 53.484
v 109.184 4.757 59.099
v 101.773 4.757 45.236
f 744 743 742 741
f 737 738 742 741
f 738 739 743 742
f 739 740 744 743
f 740 737 741 744
v 114.162 1.180 66.114
v 119.417 1.180 41.539
v 139.278 1.180 45.786
v 134.023 1.180 70.361
v 114.162 5.080 66.114
v 119.417 5.080 41.539
v 139.278 5.080 45.786
v 134.023 5.080 70.361
f 752 751 750 749
f 745 746 750 749
f 746 747 751 750
f 747 748 752 751
f 748 745 749 752
v 153.938 1.179 55.436
v 171.151 1.179 54.312
v 172.022 1.179 67.664
v 154.809 1.179 68.788
v 153.938 5.079 55.436
v 171.151 5.079 54.312
v 172.022 5.079 67.664
v 154.809 5.079 68.788
f 760 759 758 757
f 753 754 758 757
f 754 755 759 758
f 755 756 760 759
f 756 753 757 760
v 69.197 1.218 63.467
v 80.854 1.218 84.205
v 70.663 1.218 89.933
v 59.006 1.218 69.195
v 69.197 5.118 63.467
v 80.854 5.118 84.205
v 70.663 5.118 89.933
v 59.006 5.118 69.195
f 768 767 766 765
f 761 762 766 765
f 762 763 767 766
f 763 764 768 767
f 764 761 765 768
v 83.482 0.786 73.889
v 105.465 0.786 84.361
v 96.438 0.786 103.311
v 74.455 0.786 92.839
v 83.482 4.686 73.889
v 105.465 4.686 84.361
v 96.438 4.686 103.311
v 74.455 4.686 92.839
f 776 775 774 773
f 769 770 774 773
f 770 771 775 774
f 771 772 776 775
f 772 769 773 776
v 93.087 0.992 92.452
v 112.023 0.992 88.468
v 114.813 0.992 101.728
v 95.877 0.992 105.712
v 93.087 4.892 92.452
v 112.023 4.892 88.468
v 114.813 4.892 101.728
v 95.877 4.892 105.712
f 784 783 782 781
f 777 778 782 781
f 778 779 783 782
f 779 780 784 783
f 780 777 781 784
v 122.986 0.962 83.536
v 147.745 0.962 101.941
v 134.614 0.962 119.604
v 109.855 0.962 101.199
v 122.986 4.862 83.536
v 147.745 4.862 101.941
v 134.614 4.862 119.604
v 109.855 4.862 101.199
f 792 791 790 789
f 785 786 790 789
f 786 787 791 790
f 787 788 792 791
f 788 785 789 792
v 168.285 0.414 98.813
v 168.662 0.414 116.989
v 152.355 0.414 117.327
v 151.978 0.414 99.151
v 168.285 4.314 98.813
v 168.662 4.314 116.989
v 152.355 4.314 117.327
v 151.978 4.314 99.151
f 800 799 798 797
f 793 794 798 797
f 794 795 799 798
f 795 796 800 799
f 796 793 797 800
v 46.372 0.824 109.934
v 55.389 0.824 126.862
v 40.588 0.824 134.746
v 31.571 0.824 117.818
v 46.372 4.724 109.934
v 55.389 4.724 126.862
v 40.588 4.724 134.746
v 31.571 4.724 117.818
f 808 807 806 805
f 801 802 806 805
f 802 803 807 806
f 803 804 808 807
f 804 801 805 808
v 61.373 1.047 121.790
v 69.409 1.047 134.230
v 57.767 1.047 141.750
v 49.731 1.047 129.310
v 61.373 4.947 121.790
v 69.409 4.947 134.230
v 57.767 4.947 141.750
v 49.731 4.947 129.310
f 816 815 814 813
f 809 810 814 813
f 810 811 815 814
f 811 812 816 815
f 812 809 813 816
v 65.628 1.238 148.241
v 69.130 1.238 127.362
v 84.732 1.238 129.979
v 81.230 1.238 150.858
v 65.628 5.138 148.241
v 69.130 5.138 127.362
v 84.732 5.138 129.979
v 81.230 5.138 150.858
f 824 823 822 821
f 817 818 822 821
f 818 819 823 822
f 819 820 824 823
f 820 817 821 824
v 79.690 0.948 156.426
v 100.284 0.948 142.324
v 107.550 0.948 152.934
v 86.956 0.948 167.036
v 79.690 4.848 156.426
v 100.284 4.848 142.324
v 107.550 4.848 152.934
v 86.956 4.848 167.036
f 832 831 830 829
f 825 826 830 829
f 826 827 831 830
f 827 828 832 831
f 828 825 829 832
v 101.276 1.250 160.390
v 122.065 1.250 151.225
v 130.964 1.250 171.410
v 110.175 1.250 180.575
v 101.276 5.150 160.390
v 122.065 5.150 151.225
v 130.964 5.150 171.410
v 110.175 5.150 180.575
f 840 839 838 837
f 833 834 838 837
f 834 835 839 838
f 835 836 840 839
f 836 833 837 840
v 136.501 1.321 156.749
v 150.439 1.321 158.669
v 148.579 1.321 172.171
v 134.641 1.321 170.251
v 136.501 5.221 156.749
v 150.439 5.221 158.669
v 148.579 5.221 172.171
v 134.641 5.221 170.251
f 848 847 846 845
f 841 842 846 845
f 842 843 847 846
f 843 844 848 847
f 844 841 845 848
v 166.943 1.086 145.987
v 177.643 1.086 167.392
v 158.197 1.086 177.113
v 147.497 1.086 155.708
v 166.943 4.986 145.987
v 177.643 4.986 167.392
v 158.197 4.986 177.113
v 147.497 4.986 155.708
f 856 855 854 853
f 849 850 854 853
f 850 851 855 854
f 851 852 856 855
f 852 849 853 856
v 172.579 1.570 254.242
v 176.337 1.570 252.458
v 177.581 1.570 255.078
v 173.823 1.570 256.862
v 172.579 5.470 254.242
v 176.337 5.470 252.458
v 177.581 5.470 255.078
v 173.823 5.470 256.862
f 864 863 862 861
f 857 858 862 861
f 858 859 863 862
f 859 860 864 863
f 860 857 861 864
v 176.620 1.611 148.507
v 199.199 1.611 159.674
v 190.040 1.611 178.193
v 167.461 1.611 167.026
v 176.620 5.511 148.507
v 199.199 5.511 159.674
v 190.040 5.511 178.193
v 167.461 5.511 167.026
f 872 871 870 869
f 865 866 870 869
f 866 867 871 870
f 867 868 872 871
f 868 865 869 872
v 209.317 1.118 155.303
v 215.614 1.118 175.316
v 199.083 1.118 180.517
v 192.786 1.118 160.504
v 209.317 5.018 155.303
v 215.614 5.018 175.316
v 199.083 5.018 180.517
v 192.786 5.018 160.504
f 880 879 878 877
f 873 874 878 877
f 874 875 879 878
f 875 876 880 879
f 876 873 877 880
v 215.007 1.370 165.595
v 238.091 1.370 174.440
v 231.093 1.370 192.705
v 208.009 1.370 183.860
v 215.007 5.270 165.595
v 238.091 5.270 174.440
v 231.093 5.270 192.705
v 208.009 5.270 183.860
f 888 887 886 885
f 881 882 886 885
f 882 883 887 886
f 883 884 888 887
f 884 881 885 888
v 228.101 0.900 186.056
v 249.695 0.900 181.957
v 252.919 0.900 198.944
v 231.325 0.900 203.043
v 228.101 4.800 186.056
v 249.695 4.800 181.957
v 252.919 4.800 198.944
v 231.325 4.800 203.043
f 896 895 894 893
f 889 890 894 893
f 890 891 895 894
f 891 892 896 895
f 892 889 893 896
v 186.508 0.935 99.532
v 187.562 0.935 119.975
v 172.552 0.935 120.748
v 171.498 0.935 100.305
v 186.508 4.835 99.532
v 187.562 4.835 119.975
v 172.552 4.835 120.748
v 171.498 4.835 100.305
f 904 903 902 901
f 897 898 902 901
f 898 899 903 902
f 899 900 904 903
f 900 897 901 904
v 185.556 0.838 117.747
v 191.809 0.838 97.511
v 209.484 0.838 102.973
v 203.231 0.838 123.209
v 185.556 4.738 117.747
v 191.809 4.738 97.511
v 209.484 4.738 102.973
v 203.231 4.738 123.209
f 912 911 910 909
f 905 906 910 909
f 906 907 911 910
f 907 908 912 911
f 908 905 909 912
v 219.929 1.148 104.879
v 225.515 1.148 123.458
v 210.471 1.148 127.981
v 204.885 1.148 109.402
v 219.929 5.048 104.879
v 225.515 5.048 123.458
v 210.471 5.048 127.981
v 204.885 5.048 109.402
f 920 919 918 917
f 913 914 918 917
f 914 915 919 918
f 915 916 920 919
f 916 913 917 920
v 229.432 1.463 108.957
v 254.173 1.463 116.919
v 247.568 1.463 137.443
v 222.827 1.463 129.481
v 229.432 5.363 108.957
v 254.173 5.363 116.919
v 247.568 5.363 137.443
v 222.827 5.363 129.481
f 928 927 926 925
f 921 922 926 925
f 922 923 927 926
f 923 924 928 927
f 924 921 925 928
v 189.686 0.886 47.577
v 197.347 0.886 65.248
v 180.474 0.886 72.563
v 172.813 0.886 54.892
v 189.686 4.786 47.577
v 197.347 4.786 65.248
v 180.474 4.786 72.563
v 172.813 4.786 54.892
f 936 935 934 933
f 929 930 934 933
f 930 931 935 934
f 931 932 936 935
f 932 929 933 936
v 208.337 0.864 50.028
v 217.472 0.864 70.634
v 200.423 0.864 78.192
v 191.288 0.864 57.586
v 208.337 4.764 50.028
v 217.472 4.764 70.634
v 200.423 4.764 78.192
v 191.288 4.764 57.586
f 944 943 942 941
f 937 938 942 941
f 938 939 943 942
f 939 940 944 943
f 940 937 941 944
v 208.843 1.349 69.508
v 227.945 1.349 55.907
v 240.537 1.349 73.592
v 221.435 1.349 87.193
v 208.843 5.249 69.508
v 227.945 5.249 55.907
v 240.537 5.249 73.592
v 221.435 5.249 87.193
f 952 951 950 949
f 945 946 950 949
f 946 947 951 950
f 947 948 952 951
f 948 945 949 952
v 233.520 1.229 65.171
v 247.477 1.229 53.773
v 256.440 1.229 64.749
v 242.483 1.229 76.147
v 233.520 5.129 65.171
v 247.477 5.129 53.773
v 256.440 5.129 64.749
v 242.483 5.129 76.147
f 960 959 958 957
f 953 954 958 957
f 954 955 959 958
f 955 956 960 959
f 956 953 957 960
v 199.002 1.847 -41.952
v 207.455 1.847 -27.330
v 194.478 1.847 -19.828
v 186.025 1.847 -34.450
v 199.002 5.747 -41.952
v 207.455 5.747 -27.330
v 194.478 5.747 -19.828
v 186.025 5.747 -34.450
f 968 967 966 965
f 961 962 966 965
f 962 963 967 966
f 963 964 968 967
f 964 961 965 968
v 200.992 1.516 -14.173
v 204.860 1.516 -35.017
v 224.308 1.516 -31.407
v 220.440 1.516 -10.563
v 200.992 5.416 -14.173
v 204.860 5.416 -35.017
v 224.308 5.416 -31.407
v 220.440 5.416 -10.563
f 976 975 974 973
f 969 970 974 973
f 970 971 975 974
f 971 972 976 975
f 972 969 973 976
v 249.276 1.447 -15.889
v 255.596 1.447 2.463
v 239.844 1.447 7.889
v 233.524 1.447 -10.463
v 249.276 5.347 -15.889
v 255.596 5.347 2.463
v 239.844 5.347 7.889
v 233.524 5.347 -10.463
f 984 983 982 981
f 977 978 982 981
f 978 979 983 982
f 979 980 984 983
f 980 977 981 984
v 253.170 1.092 -50.306
v 253.448 1.092 -29.718
v 235.410 1.092 -29.474
v 235.132 1.092 -50.062
v 253.170 4.992 -50.306
v 253.448 4.992 -29.718
v 235.410 4.992 -29.474
v 235.132 4.992 -50.062
f 992 991 990 989
f 985 986 990 989
f 986 987 991 990
f 987 988 992 991
f 988 985 989 992
v 229.532 1.146 -58.813
v 238.442 1.146 -43.253
v 226.068 1.146 -36.167
v 217.158 1.146 -51.727
v 229.532 5.046 -58.813
v 238.442 5.046 -43.253
v 226.068 5.046 -36.167
v 217.158 5.046 -51.727
f 1000 999 998 997
f 993 994 998 997
f 994 995 999 998
f 995 996 1000 999
f 996 993 997 1000
v 202.598 1.429 -63.714
v 217.864 1.429 -69.400
v 223.002 1.429 -55.606
v 207.736 1.429 -49.920
v 202.598 5.329 -63.714
v 217.864 5.329 -69.400
v 223.002 5.329 -55.606
v 207.736 5.329 -49.920
f 1008 1007 1006 1005
f 1001 1002 1006 1005
f 1002 1003 1007 1006
f 1003 1004 1008 1007
f 1004 1001 1005 1008
v 204.623 1.247 -77.965
v 207.373 1.247 -59.408
v 187.717 1.247 -56.495
v 184.967 1.247 -75.052
v 204.623 5.147 -77.965
v 207.373 5.147 -59.408
v 187.717 5.147 -56.495
v 184.967 5.147 -75.052
f 1016 1015 1014 1013
f 1009 1010 1014 1013
f 1010 1011 1015 1014
f 1011 1012 1016 1015
f 1012 1009 1013 1016
v 172.685 1.175 -90.108
v 192.315 1.175 -78.971
v 183.635 1.175 -63.672
v 164.005 1.175 -74.809
v 172.685 5.075 -90.108
v 192.315 5.075 -78.971
v 183.635 5.075 -63.672
v 164.005 5.075 -74.809
f 1024 1023 1022 1021
f 1017 1018 1022 1021
f 1018 1019 1023 1022
f 1019 1020 1024 1023
f 1020 1017 1021 1024
usemtl road
v 150.503 1.027 -113.853
v 254.653 1.153 -55.336
v 257.347 1.134 -60.131
v 153.197 0.975 -118.647
f 1025 1026 1027 1028
v -31.841 0.935 -204.838
v 60.249 1.218 -154.388
v 62.891 1.124 -159.212
v -29.199 0.948 -209.662
f 1029 1030 1031 1032
v 125.489 1.115 78.396
v 62.589 1.113 45.336
v 60.031 1.100 50.204
v 122.931 1.013 83.264
f 1033 1034 1035 1036
v 156.984 1.004 88.237
v 183.454 0.928 90.807
v 183.986 1.152 85.333
v 157.516 1.087 82.763
f 1037 1038 1039 1040
v 183.386 0.928 90.800
v 204.146 1.003 93.340
v 204.814 1.147 87.880
v 184.054 1.152 85.340
f 1041 1042 1043 1044
v 203.875 1.003 93.293
v 219.215 1.109 96.753
v 220.425 1.142 91.387
v 205.085 1.147 87.927
f 1045 1046 1047 1048
v 219.131 1.109 96.732
v 233.511 1.146 100.452
v 234.889 1.150 95.128
v 220.509 1.142 91.408
f 1049 1050 1051 1052
v 234.316 1.146 100.538
v 242.596 1.132 100.188
v 242.364 1.156 94.692
v 234.084 1.151 95.042
f 1053 1054 1055 1056
v 243.956 1.120 99.761
v 252.386 1.039 94.401
v 249.434 1.135 89.759
v 241.004 1.157 95.119
f 1057 1058 1059 1060
v -81.566 0.928 -116.918
v -4.616 0.988 -73.298
v -1.904 0.950 -78.082
v -78.854 0.933 -121.702
f 1061 1062 1063 1064
v -5.688 0.980 -74.399
v -1.908 0.999 -67.289
v 2.948 0.998 -69.871
v -0.832 0.952 -76.981
f 1065 1066 1067 1068
v -2.221 1.001 -68.798
v -2.801 0.998 -61.498
v 2.681 0.958 -61.062
v 3.261 0.991 -68.362
f 1069 1070 1071 1072
v -2.480 0.998 -62.586
v -32.310 0.888 -7.296
v -27.470 0.908 -4.684
v 2.360 0.965 -59.974
f 1073 1074 1075 1076
v 17.089 0.947 135.279
v 63.729 1.083 49.079
v 58.891 1.058 46.461
v 12.251 0.946 132.661
f 1077 1078 1079 1080
v 63.709 1.082 49.115
v 118.129 0.979 -47.935
v 113.331 1.006 -50.625
v 58.911 1.058 46.425
f 1081 1082 1083 1084
v 118.150 0.979 -47.975
v 154.270 1.024 -114.945
v 149.430 0.959 -117.555
v 113.310 1.005 -50.585
f 1085 1086 1087 1088
v 154.329 1.023 -115.060
v 166.769 1.035 -140.990
v 161.811 0.862 -143.370
v 149.371 0.959 -117.440
f 1089 1090 1091 1092
v -15.860 0.892 -257.209
v -22.520 0.944 -243.599
v -17.580 0.851 -241.181
v -10.920 0.768 -254.791
f 1093 1094 1095 1096
v -22.731 0.945 -243.000
v -26.901 0.991 -224.670
v -21.539 0.929 -223.450
v -17.369 0.849 -241.780
f 1097 1098 1099 1100
v -26.795 0.991 -225.025
v -33.095 0.922 -208.215
v -27.945 0.937 -206.285
v -21.645 0.925 -223.095
f 1101 1102 1103 1104
v -32.893 0.924 -208.640
v -49.663 0.891 -180.000
v -44.917 0.855 -177.220
v -28.147 0.938 -205.860
f 1105 1106 1107 1108
v -49.694 0.890 -179.945
v -82.614 0.911 -120.645
v -77.806 0.942 -117.975
v -44.886 0.855 -177.275
f 1109 1110 1111 1112
v -82.567 0.912 -120.727
v -87.677 0.885 -112.227
v -82.963 0.875 -109.393
v -77.853 0.942 -117.893
f 1113 1114 1115 1116
v -87.733 0.885 -112.130
v -131.333 0.796 -32.410
v -126.507 0.773 -29.770
v -82.907 0.875 -109.490
f 1117 1118 1119 1120
v 114.371 1.023 -46.889
v 254.641 1.132 32.830
v 257.359 1.083 28.049
v 117.089 1.023 -51.671
f 1121 1122 1123 1124
v -132.323 0.763 -30.271
v -124.223 0.868 3.399
v -117.417 0.838 1.761
v -125.517 0.745 -31.909
f 1125 1126 1127 1128
v -124.237 0.868 3.336
v -116.817 0.834 36.866
v -109.983 0.792 35.354
v -117.403 0.838 1.824
f 1129 1130 1131 1132
v -116.443 0.835 37.838
v -103.523 0.822 60.588
v -97.437 0.727 57.132
v -110.357 0.794 34.382
f 1133 1134 1135 1136
v -103.570 0.822 60.504
v -95.240 0.833 76.154
v -89.060 0.825 72.866
v -97.390 0.726 57.216
f 1137 1138 1139 1140
v -93.958 0.837 77.507
v -57.168 0.831 99.707
v -53.552 0.863 93.713
v -90.342 0.825 71.513
f 1141 1142 1143 1144
v -57.004 0.831 99.800
v 13.026 0.877 137.060
v 16.314 0.905 130.880
v -53.716 0.863 93.620
f 1145 1146 1147 1148
v 12.968 0.877 137.028
v 84.098 0.878 176.618
v 87.502 0.903 170.502
v 16.372 0.905 130.912
f 1149 1150 1151 1152
v 83.968 0.878 176.542
v 99.778 0.906 186.252
v 103.442 0.902 180.288
v 87.632 0.901 170.578
f 1153 1154 1155 1156
v 100.402 0.915 186.555
v 114.902 0.975 191.885
v 117.318 0.903 185.315
v 102.818 0.902 179.985
f 1157 1158 1159 1160
v 115.900 0.984 192.094
v 127.070 1.002 192.764
v 127.490 0.929 185.776
v 116.320 0.901 185.106
f 1161 1162 1163 1164
v 127.855 1.000 192.723
v 140.355 0.934 190.643
v 139.205 0.912 183.737
v 126.705 0.928 185.817
f 1165 1166 1167 1168
v 140.244 0.934 190.659
v 158.844 0.911 188.169
v 157.916 0.951 181.231
v 139.316 0.912 183.721
f 1169 1170 1171 1172
v 158.501 0.912 188.198
v 172.111 0.922 187.728
v 171.869 0.938 180.732
v 158.259 0.950 181.202
f 1173 1174 1175 1176
v 171.594 0.922 187.708
v 183.724 0.943 189.088
v 184.516 0.982 182.132
v 172.386 0.940 180.752
f 1177 1178 1179 1180
v 182.944 0.943 188.907
v 195.534 0.924 193.397
v 197.886 1.012 186.803
v 185.296 0.987 182.313
f 1181 1182 1183 1184
v 195.163 0.925 193.239
v 205.613 0.928 198.389
v 208.707 1.029 192.111
v 198.257 1.010 186.961
f 1185 1186 1187 1188
v 204.832 0.928 197.864
v 227.802 0.812 218.324
v 232.458 0.940 213.096
v 209.488 1.026 192.636
f 1189 1190 1191 1192
v 227.925 0.812 218.428
v 250.595 0.888 236.818
v 255.005 0.953 231.382
v 232.335 0.941 212.992
f 1193 1194 1195 1196
v -228.653 0.910 -254.124
v -170.794 0.877 -163.024
v -164.886 0.924 -166.776
v -222.744 0.918 -257.876
f 1197 1198 1199 1200
v -170.924 0.877 -163.245
v -160.044 0.884 -142.965
v -153.876 0.911 -146.275
v -164.756 0.925 -166.555
f 1201 1202 1203 1204
v -160.243 0.884 -143.407
v -150.613 0.890 -117.347
v -144.047 0.817 -119.773
v -153.677 0.907 -145.833
f 1205 1206 1207 1208
v -150.810 0.894 -118.182
v -149.900 0.850 -109.802
v -142.940 0.765 -110.558
v -143.850 0.818 -118.938
f 1209 1210 1211 1212
v -149.837 0.847 -109.424
v -132.337 0.762 -30.334
v -125.503 0.744 -31.846
v -143.003 0.763 -110.936
f 1213 1214 1215 1216
v -85.338 0.920 -112.560
v -146.438 0.875 -111.930
v -146.402 0.870 -108.430
v -85.302 0.907 -109.060
f 1217 1218 1219 1220
usemtl asphalt
