# Baked ultra-low Key West silhouette; generated by bake_key_west_far_city.py
mtllib far_city.mtl
usemtl massing
v -169.868 1.266 -74.224
v -145.572 1.266 -75.990
v -143.752 1.266 -50.936
v -168.048 1.266 -49.170
v -169.868 4.766 -74.224
v -145.572 4.766 -75.990
v -143.752 4.766 -50.936
v -168.048 4.766 -49.170
f 8 7 6 5
f 1 2 6 5
f 2 3 7 6
f 3 4 8 7
f 4 1 5 8
v -197.953 0.440 -102.129
v -190.344 0.440 -87.917
v -202.907 0.440 -81.191
v -210.516 0.440 -95.403
v -197.953 4.340 -102.129
v -190.344 4.340 -87.917
v -202.907 4.340 -81.191
v -210.516 4.340 -95.403
f 16 15 14 13
f 9 10 14 13
f 10 11 15 14
f 11 12 16 15
f 12 9 13 16
v -222.953 0.357 -78.309
v -207.000 0.357 -85.526
v -199.927 0.357 -69.891
v -215.880 0.357 -62.674
v -222.953 4.257 -78.309
v -207.000 4.257 -85.526
v -199.927 4.257 -69.891
v -215.880 4.257 -62.674
f 24 23 22 21
f 17 18 22 21
f 18 19 23 22
f 19 20 24 23
f 20 17 21 24
v -201.624 0.760 -233.789
v -180.550 0.760 -241.293
v -173.036 0.760 -220.191
v -194.110 0.760 -212.687
v -201.624 4.660 -233.789
v -180.550 4.660 -241.293
v -173.036 4.660 -220.191
v -194.110 4.660 -212.687
f 32 31 30 29
f 25 26 30 29
f 26 27 31 30
f 27 28 32 31
f 28 25 29 32
v -185.197 0.751 -241.143
v -179.917 0.751 -271.142
v -166.483 0.751 -268.777
v -171.763 0.751 -238.778
v -185.197 4.651 -241.143
v -179.917 4.651 -271.142
v -166.483 4.651 -268.777
v -171.763 4.651 -238.778
f 40 39 38 37
f 33 34 38 37
f 34 35 39 38
f 35 36 40 39
f 36 33 37 40
v -260.900 0.907 -247.018
v -241.162 0.907 -253.386
v -235.340 0.907 -235.342
v -255.078 0.907 -228.974
v -260.900 4.807 -247.018
v -241.162 4.807 -253.386
v -235.340 4.807 -235.342
v -255.078 4.807 -228.974
f 48 47 46 45
f 41 42 46 45
f 42 43 47 46
f 43 44 48 47
f 44 41 45 48
v -235.620 0.710 -71.666
v -211.296 0.710 -67.666
v -214.340 0.710 -49.154
v -238.664 0.710 -53.154
v -235.620 4.610 -71.666
v -211.296 4.610 -67.666
v -214.340 4.610 -49.154
v -238.664 4.610 -53.154
f 56 55 54 53
f 49 50 54 53
f 50 51 55 54
f 51 52 56 55
f 52 49 53 56
v -236.479 1.254 -164.963
v -212.102 1.254 -145.958
v -226.821 1.254 -127.077
v -251.198 1.254 -146.082
v -236.479 5.154 -164.963
v -212.102 5.154 -145.958
v -226.821 5.154 -127.077
v -251.198 5.154 -146.082
f 64 63 62 61
f 57 58 62 61
f 58 59 63 62
f 59 60 64 63
f 60 57 61 64
v -208.273 0.809 -193.156
v -206.752 0.809 -159.060
v -221.467 0.809 -158.404
v -222.988 0.809 -192.500
v -208.273 4.709 -193.156
v -206.752 4.709 -159.060
v -221.467 4.709 -158.404
v -222.988 4.709 -192.500
f 72 71 70 69
f 65 66 70 69
f 66 67 71 70
f 67 68 72 71
f 68 65 69 72
v -238.642 0.863 -197.539
v -225.480 0.863 -206.441
v -215.658 0.863 -191.921
v -228.820 0.863 -183.019
v -238.642 4.763 -197.539
v -225.480 4.763 -206.441
v -215.658 4.763 -191.921
v -228.820 4.763 -183.019
f 80 79 78 77
f 73 74 78 77
f 74 75 79 78
f 75 76 80 79
f 76 73 77 80
v -244.508 0.740 13.757
v -230.235 0.740 35.597
v -247.872 0.740 47.123
v -262.145 0.740 25.283
v -244.508 4.640 13.757
v -230.235 4.640 35.597
v -247.872 4.640 47.123
v -262.145 4.640 25.283
f 88 87 86 85
f 81 82 86 85
f 82 83 87 86
f 83 84 88 87
f 84 81 85 88
v -225.105 1.619 8.652
v -213.697 1.619 -16.831
v -192.075 1.619 -7.152
v -203.483 1.619 18.331
v -225.105 5.519 8.652
v -213.697 5.519 -16.831
v -192.075 5.519 -7.152
v -203.483 5.519 18.331
f 96 95 94 93
f 89 90 94 93
f 90 91 95 94
f 91 92 96 95
f 92 89 93 96
v -206.330 1.500 -20.595
v -175.127 1.500 -35.524
v -164.190 1.500 -12.665
v -195.393 1.500 2.264
v -206.330 7.300 -20.595
v -175.127 7.300 -35.524
v -164.190 7.300 -12.665
v -195.393 7.300 2.264
f 104 103 102 101
f 97 98 102 101
f 98 99 103 102
f 99 100 104 103
f 100 97 101 104
v -186.812 2.119 -35.178
v -164.949 2.119 -58.132
v -146.188 2.119 -40.262
v -168.051 2.119 -17.308
v -186.812 7.919 -35.178
v -164.949 7.919 -58.132
v -146.188 7.919 -40.262
v -168.051 7.919 -17.308
f 112 111 110 109
f 105 106 110 109
f 106 107 111 110
f 107 108 112 111
f 108 105 109 112
v -165.820 1.514 -82.905
v -146.802 1.514 -103.003
v -128.680 1.514 -85.855
v -147.698 1.514 -65.757
v -165.820 5.414 -82.905
v -146.802 5.414 -103.003
v -128.680 5.414 -85.855
v -147.698 5.414 -65.757
f 120 119 118 117
f 113 114 118 117
f 114 115 119 118
f 115 116 120 119
f 116 113 117 120
v -123.055 1.722 -144.884
v -108.819 1.722 -123.596
v -126.525 1.722 -111.756
v -140.761 1.722 -133.044
v -123.055 5.622 -144.884
v -108.819 5.622 -123.596
v -126.525 5.622 -111.756
v -140.761 5.622 -133.044
f 128 127 126 125
f 121 122 126 125
f 122 123 127 126
f 123 124 128 127
f 124 121 125 128
v -116.919 2.100 -169.445
v -91.385 2.100 -185.887
v -80.341 2.100 -168.735
v -105.875 2.100 -152.293
v -116.919 6.000 -169.445
v -91.385 6.000 -185.887
v -80.341 6.000 -168.735
v -105.875 6.000 -152.293
f 136 135 134 133
f 129 130 134 133
f 130 131 135 134
f 131 132 136 135
f 132 129 133 136
v -99.946 1.441 -205.199
v -72.035 1.441 -198.098
v -76.934 1.441 -178.841
v -104.845 1.441 -185.942
v -99.946 5.341 -205.199
v -72.035 5.341 -198.098
v -76.934 5.341 -178.841
v -104.845 5.341 -185.942
f 144 143 142 141
f 137 138 142 141
f 138 139 143 142
f 139 140 144 143
f 140 137 141 144
v -117.122 0.670 -243.096
v -113.352 0.670 -197.492
v -146.838 0.670 -194.724
v -150.608 0.670 -240.328
v -117.122 6.470 -243.096
v -113.352 6.470 -197.492
v -146.838 6.470 -194.724
v -150.608 6.470 -240.328
f 152 151 150 149
f 145 146 150 149
f 146 147 151 150
f 147 148 152 151
f 148 145 149 152
v -154.060 0.677 -182.363
v -145.275 0.677 -166.629
v -156.940 0.677 -160.117
v -165.725 0.677 -175.851
v -154.060 4.577 -182.363
v -145.275 4.577 -166.629
v -156.940 4.577 -160.117
v -165.725 4.577 -175.851
f 160 159 158 157
f 153 154 158 157
f 154 155 159 158
f 155 156 160 159
f 156 153 157 160
v -182.449 0.300 -150.443
v -171.309 0.300 -168.315
v -153.631 0.300 -157.297
v -164.771 0.300 -139.425
v -182.449 4.200 -150.443
v -171.309 4.200 -168.315
v -153.631 4.200 -157.297
v -164.771 4.200 -139.425
f 168 167 166 165
f 161 162 166 165
f 162 163 167 166
f 163 164 168 167
f 164 161 165 168
v -189.543 0.604 -134.933
v -175.623 0.604 -141.909
v -169.077 0.604 -128.847
v -182.997 0.604 -121.871
v -189.543 4.504 -134.933
v -175.623 4.504 -141.909
v -169.077 4.504 -128.847
v -182.997 4.504 -121.871
f 176 175 174 173
f 169 170 174 173
f 170 171 175 174
f 171 172 176 175
f 172 169 173 176
v -202.635 0.886 -116.290
v -189.017 0.886 -126.247
v -180.465 0.886 -114.550
v -194.083 0.886 -104.593
v -202.635 4.786 -116.290
v -189.017 4.786 -126.247
v -180.465 4.786 -114.550
v -194.083 4.786 -104.593
f 184 183 182 181
f 177 178 182 181
f 178 179 183 182
f 179 180 184 183
f 180 177 181 184
v -266.897 0.662 -24.466
v -255.028 0.662 -38.012
v -244.303 0.662 -28.614
v -256.172 0.662 -15.068
v -266.897 4.562 -24.466
v -255.028 4.562 -38.012
v -244.303 4.562 -28.614
v -256.172 4.562 -15.068
f 192 191 190 189
f 185 186 190 189
f 186 187 191 190
f 187 188 192 191
f 188 185 189 192
v -55.534 1.022 244.129
v -33.072 1.022 242.992
v -31.826 1.022 267.611
v -54.288 1.022 268.748
v -55.534 4.922 244.129
v -33.072 4.922 242.992
v -31.826 4.922 267.611
v -54.288 4.922 268.748
f 200 199 198 197
f 193 194 198 197
f 194 195 199 198
f 195 196 200 199
f 196 193 197 200
v -31.124 1.700 213.266
v -12.456 1.700 235.302
v -27.556 1.700 248.094
v -46.224 1.700 226.058
v -31.124 5.600 213.266
v -12.456 5.600 235.302
v -27.556 5.600 248.094
v -46.224 5.600 226.058
f 208 207 206 205
f 201 202 206 205
f 202 203 207 206
f 203 204 208 207
f 204 201 205 208
v -7.957 1.365 186.956
v -5.864 1.365 213.685
v -25.763 1.365 215.244
v -27.856 1.365 188.515
v -7.957 5.265 186.956
v -5.864 5.265 213.685
v -25.763 5.265 215.244
v -27.856 5.265 188.515
f 216 215 214 213
f 209 210 214 213
f 210 211 215 214
f 211 212 216 215
f 212 209 213 216
v 49.126 1.009 71.018
v 60.417 1.009 55.700
v 73.714 1.009 65.502
v 62.423 1.009 80.820
v 49.126 4.909 71.018
v 60.417 4.909 55.700
v 73.714 4.909 65.502
v 62.423 4.909 80.820
f 224 223 222 221
f 217 218 222 221
f 218 219 223 222
f 219 220 224 223
f 220 217 221 224
v 41.179 1.327 84.518
v 57.465 1.327 75.308
v 64.101 1.327 87.042
v 47.815 1.327 96.252
v 41.179 5.227 84.518
v 57.465 5.227 75.308
v 64.101 5.227 87.042
v 47.815 5.227 96.252
f 232 231 230 229
f 225 226 230 229
f 226 227 231 230
f 227 228 232 231
f 228 225 229 232
v 41.119 1.909 90.040
v 55.846 1.909 101.401
v 45.341 1.909 115.020
v 30.614 1.909 103.659
v 41.119 5.809 90.040
v 55.846 5.809 101.401
v 45.341 5.809 115.020
v 30.614 5.809 103.659
f 240 239 238 237
f 233 234 238 237
f 234 235 239 238
f 235 236 240 239
f 236 233 237 240
v 21.726 1.373 129.927
v 22.641 1.373 108.406
v 41.634 1.373 109.213
v 40.719 1.373 130.734
v 21.726 5.273 129.927
v 22.641 5.273 108.406
v 41.634 5.273 109.213
v 40.719 5.273 130.734
f 248 247 246 245
f 241 242 246 245
f 242 243 247 246
f 243 244 248 247
f 244 241 245 248
v 10.466 0.774 131.019
v 27.516 0.774 125.156
v 33.294 0.774 141.961
v 16.244 0.774 147.824
v 10.466 4.674 131.019
v 27.516 4.674 125.156
v 33.294 4.674 141.961
v 16.244 4.674 147.824
f 256 255 254 253
f 249 250 254 253
f 250 251 255 254
f 251 252 256 255
f 252 249 253 256
v -2.233 0.308 157.410
v 13.646 0.308 139.762
v 27.793 0.308 152.490
v 11.914 0.308 170.138
v -2.233 4.208 157.410
v 13.646 4.208 139.762
v 27.793 4.208 152.490
v 11.914 4.208 170.138
f 264 263 262 261
f 257 258 262 261
f 258 259 263 262
f 259 260 264 263
f 260 257 261 264
v 87.794 1.582 23.472
v 89.371 1.582 50.105
v 69.406 1.582 51.288
v 67.829 1.582 24.655
v 87.794 5.482 23.472
v 89.371 5.482 50.105
v 69.406 5.482 51.288
v 67.829 5.482 24.655
f 272 271 270 269
f 265 266 270 269
f 266 267 271 270
f 267 268 272 271
f 268 265 269 272
v 108.025 0.688 -32.656
v 123.993 0.688 -18.727
v 112.075 0.688 -5.064
v 96.107 0.688 -18.993
v 108.025 4.588 -32.656
v 123.993 4.588 -18.727
v 112.075 4.588 -5.064
v 96.107 4.588 -18.993
f 280 279 278 277
f 273 274 278 277
f 274 275 279 278
f 275 276 280 279
f 276 273 277 280
v 74.587 2.456 22.401
v 85.408 2.456 2.743
v 101.133 2.456 11.399
v 90.312 2.456 31.057
v 74.587 6.356 22.401
v 85.408 6.356 2.743
v 101.133 6.356 11.399
v 90.312 6.356 31.057
f 288 287 286 285
f 281 282 286 285
f 282 283 287 286
f 283 284 288 287
f 284 281 285 288
v 104.831 0.674 -9.276
v 112.342 0.674 4.716
v 102.729 0.674 9.876
v 95.218 0.674 -4.116
v 104.831 4.574 -9.276
v 112.342 4.574 4.716
v 102.729 4.574 9.876
v 95.218 4.574 -4.116
f 296 295 294 293
f 289 290 294 293
f 290 291 295 294
f 291 292 296 295
f 292 289 293 296
v 47.447 1.231 -66.805
v 66.286 1.231 -71.309
v 71.253 1.231 -50.535
v 52.414 1.231 -46.031
v 47.447 5.131 -66.805
v 66.286 5.131 -71.309
v 71.253 5.131 -50.535
v 52.414 5.131 -46.031
f 304 303 302 301
f 297 298 302 301
f 298 299 303 302
f 299 300 304 303
f 300 297 301 304
v 38.211 1.353 -32.677
v 41.003 1.353 -53.238
v 59.969 1.353 -50.663
v 57.177 1.353 -30.102
v 38.211 5.253 -32.677
v 41.003 5.253 -53.238
v 59.969 5.253 -50.663
v 57.177 5.253 -30.102
f 312 311 310 309
f 305 306 310 309
f 306 307 311 310
f 307 308 312 311
f 308 305 309 312
v 25.713 1.705 -9.552
v 34.313 1.705 -33.961
v 56.147 1.705 -26.268
v 47.547 1.705 -1.859
v 25.713 5.605 -9.552
v 34.313 5.605 -33.961
v 56.147 5.605 -26.268
v 47.547 5.605 -1.859
f 320 319 318 317
f 313 314 318 317
f 314 315 319 318
f 315 316 320 319
f 316 313 317 320
v 19.704 1.040 4.318
v 28.409 1.040 19.176
v 15.596 1.040 26.682
v 6.891 1.040 11.824
v 19.704 4.940 4.318
v 28.409 4.940 19.176
v 15.596 4.940 26.682
v 6.891 4.940 11.824
f 328 327 326 325
f 321 322 326 325
f 322 323 327 326
f 323 324 328 327
f 324 321 325 328
v 22.496 1.100 -16.490
v 44.862 1.100 -5.752
v 35.604 1.100 13.530
v 13.238 1.100 2.792
v 22.496 5.000 -16.490
v 44.862 5.000 -5.752
v 35.604 5.000 13.530
v 13.238 5.000 2.792
f 336 335 334 333
f 329 330 334 333
f 330 331 335 334
f 331 332 336 335
f 332 329 333 336
v -4.648 1.188 22.125
v 16.182 1.188 24.365
v 13.768 1.188 46.815
v -7.062 1.188 44.575
v -4.648 5.088 22.125
v 16.182 5.088 24.365
v 13.768 5.088 46.815
v -7.062 5.088 44.575
f 344 343 342 341
f 337 338 342 341
f 338 339 343 342
f 339 340 344 343
f 340 337 341 344
v -15.517 1.469 47.186
v 3.866 1.469 40.094
v 10.357 1.469 57.834
v -9.026 1.469 64.926
v -15.517 5.369 47.186
v 3.866 5.369 40.094
v 10.357 5.369 57.834
v -9.026 5.369 64.926
f 352 351 350 349
f 345 346 350 349
f 346 347 351 350
f 347 348 352 351
f 348 345 349 352
v -25.182 1.071 55.167
v 2.786 1.071 67.972
v -6.198 1.071 87.593
v -34.166 1.071 74.788
v -25.182 4.971 55.167
v 2.786 4.971 67.972
v -6.198 4.971 87.593
v -34.166 4.971 74.788
f 360 359 358 357
f 353 354 358 357
f 354 355 359 358
f 355 356 360 359
f 356 353 357 360
v 202.794 1.036 106.909
v 213.772 1.036 124.234
v 198.246 1.036 134.071
v 187.268 1.036 116.746
v 202.794 4.936 106.909
v 213.772 4.936 124.234
v 198.246 4.936 134.071
v 187.268 4.936 116.746
f 368 367 366 365
f 361 362 366 365
f 362 363 367 366
f 363 364 368 367
f 364 361 365 368
v 125.470 1.786 -42.772
v 147.678 1.786 -64.228
v 157.030 1.786 -54.548
v 134.822 1.786 -33.092
v 125.470 5.686 -42.772
v 147.678 5.686 -64.228
v 157.030 5.686 -54.548
v 134.822 5.686 -33.092
f 376 375 374 373
f 369 370 374 373
f 370 371 375 374
f 371 372 376 375
f 372 369 373 376
v 49.819 0.699 -102.666
v 71.806 0.699 -119.448
v 77.801 0.699 -111.594
v 55.814 0.699 -94.812
v 49.819 4.599 -102.666
v 71.806 4.599 -119.448
v 77.801 4.599 -111.594
v 55.814 4.599 -94.812
f 384 383 382 381
f 377 378 382 381
f 378 379 383 382
f 379 380 384 383
f 380 377 381 384
v 78.776 0.750 -84.416
v 95.581 0.750 -96.400
v 102.124 0.750 -87.224
v 85.319 0.750 -75.240
v 78.776 4.650 -84.416
v 95.581 4.650 -96.400
v 102.124 4.650 -87.224
v 85.319 4.650 -75.240
f 392 391 390 389
f 385 386 390 389
f 386 387 391 390
f 387 388 392 391
f 388 385 389 392
v -17.466 2.442 -160.430
v 6.573 2.442 -169.491
v 14.526 2.442 -148.390
v -9.513 2.442 -139.329
v -17.466 6.342 -160.430
v 6.573 6.342 -169.491
v 14.526 6.342 -148.390
v -9.513 6.342 -139.329
f 400 399 398 397
f 393 394 398 397
f 394 395 399 398
f 395 396 400 399
f 396 393 397 400
v -17.482 2.496 -140.701
v -4.618 2.496 -127.841
v -15.358 2.496 -117.099
v -28.222 2.496 -129.959
v -17.482 6.396 -140.701
v -4.618 6.396 -127.841
v -15.358 6.396 -117.099
v -28.222 6.396 -129.959
f 408 407 406 405
f 401 402 406 405
f 402 403 407 406
f 403 404 408 407
f 404 401 405 408
v -22.634 1.317 -117.631
v -12.732 1.317 -94.916
v -32.386 1.317 -86.349
v -42.288 1.317 -109.064
v -22.634 5.217 -117.631
v -12.732 5.217 -94.916
v -32.386 5.217 -86.349
v -42.288 5.217 -109.064
f 416 415 414 413
f 409 410 414 413
f 410 411 415 414
f 411 412 416 415
f 412 409 413 416
v 11.307 1.244 -77.215
v 21.280 1.244 -58.473
v 8.073 1.244 -51.445
v -1.900 1.244 -70.187
v 11.307 5.144 -77.215
v 21.280 5.144 -58.473
v 8.073 5.144 -51.445
v -1.900 5.144 -70.187
f 424 423 422 421
f 417 418 422 421
f 418 419 423 422
f 419 420 424 423
f 420 417 421 424
v 0.832 2.154 -89.014
v 24.042 2.154 -105.031
v 33.528 2.154 -91.286
v 10.318 2.154 -75.269
v 0.832 6.054 -89.014
v 24.042 6.054 -105.031
v 33.528 6.054 -91.286
v 10.318 6.054 -75.269
f 432 431 430 429
f 425 426 430 429
f 426 427 431 430
f 427 428 432 431
f 428 425 429 432
v -23.101 1.329 -36.695
v -8.214 1.329 -61.873
v 10.741 1.329 -50.665
v -4.146 1.329 -25.487
v -23.101 5.229 -36.695
v -8.214 5.229 -61.873
v 10.741 5.229 -50.665
v -4.146 5.229 -25.487
f 440 439 438 437
f 433 434 438 437
f 434 435 439 438
f 435 436 440 439
f 436 433 437 440
v -29.953 1.395 -41.588
v -0.370 1.395 -33.842
v -6.887 1.395 -8.952
v -36.470 1.395 -16.698
v -29.953 5.295 -41.588
v -0.370 5.295 -33.842
v -6.887 5.295 -8.952
v -36.470 5.295 -16.698
f 448 447 446 445
f 441 442 446 445
f 442 443 447 446
f 443 444 448 447
f 444 441 445 448
v -42.387 1.673 -11.898
v -19.440 1.673 -16.050
v -15.073 1.673 8.078
v -38.020 1.673 12.230
v -42.387 5.573 -11.898
v -19.440 5.573 -16.050
v -15.073 5.573 8.078
v -38.020 5.573 12.230
f 456 455 454 453
f 449 450 454 453
f 450 451 455 454
f 451 452 456 455
f 452 449 453 456
v -56.411 1.614 15.888
v -36.065 1.614 3.851
v -25.689 1.614 21.392
v -46.035 1.614 33.429
v -56.411 5.514 15.888
v -36.065 5.514 3.851
v -25.689 5.514 21.392
v -46.035 5.514 33.429
f 464 463 462 461
f 457 458 462 461
f 458 459 463 462
f 459 460 464 463
f 460 457 461 464
v -68.492 1.965 48.870
v -55.392 1.965 23.570
v -39.168 1.965 31.970
v -52.268 1.965 57.270
v -68.492 5.865 48.870
v -55.392 5.865 23.570
v -39.168 5.865 31.970
v -52.268 5.865 57.270
f 472 471 470 469
f 465 466 470 469
f 466 467 471 470
f 467 468 472 471
f 468 465 469 472
v -87.898 1.063 68.950
v -71.610 1.063 89.229
v -88.942 1.063 103.150
v -105.230 1.063 82.871
v -87.898 4.963 68.950
v -71.610 4.963 89.229
v -88.942 4.963 103.150
v -105.230 4.963 82.871
f 480 479 478 477
f 473 474 478 477
f 474 475 479 478
f 475 476 480 479
f 476 473 477 480
v -201.403 0.960 244.345
v -186.123 0.960 253.783
v -194.357 0.960 267.115
v -209.637 0.960 257.677
v -201.403 4.860 244.345
v -186.123 4.860 253.783
v -194.357 4.860 267.115
v -209.637 4.860 257.677
f 488 487 486 485
f 481 482 486 485
f 482 483 487 486
f 483 484 488 487
f 484 481 485 488
v -214.583 2.002 219.566
v -186.560 2.002 229.036
v -194.237 2.002 251.754
v -222.260 2.002 242.284
v -214.583 5.902 219.566
v -186.560 5.902 229.036
v -194.237 5.902 251.754
v -222.260 5.902 242.284
f 496 495 494 493
f 489 490 494 493
f 490 491 495 494
f 491 492 496 495
f 492 489 493 496
v -225.007 1.562 197.674
v -199.082 1.562 210.736
v -207.833 1.562 228.106
v -233.758 1.562 215.044
v -225.007 5.462 197.674
v -199.082 5.462 210.736
v -207.833 5.462 228.106
v -233.758 5.462 215.044
f 504 503 502 501
f 497 498 502 501
f 498 499 503 502
f 499 500 504 503
f 500 497 501 504
v -248.720 1.815 204.542
v -238.352 1.815 187.428
v -229.620 1.815 192.718
v -239.988 1.815 209.832
v -248.720 5.715 204.542
v -238.352 5.715 187.428
v -229.620 5.715 192.718
v -239.988 5.715 209.832
f 512 511 510 509
f 505 506 510 509
f 506 507 511 510
f 507 508 512 511
f 508 505 509 512
v -247.594 1.590 155.902
v -227.876 1.590 172.695
v -242.646 1.590 190.038
v -262.364 1.590 173.245
v -247.594 5.490 155.902
v -227.876 5.490 172.695
v -242.646 5.490 190.038
v -262.364 5.490 173.245
f 520 519 518 517
f 513 514 518 517
f 514 515 519 518
f 515 516 520 519
f 516 513 517 520
v 28.248 1.119 -144.262
v 37.177 1.119 -130.149
v 31.532 1.119 -126.578
v 22.603 1.119 -140.691
v 28.248 5.019 -144.262
v 37.177 5.019 -130.149
v 31.532 5.019 -126.578
v 22.603 5.019 -140.691
f 528 527 526 525
f 521 522 526 525
f 522 523 527 526
f 523 524 528 527
f 524 521 525 528
v -22.903 2.222 -146.940
v -18.175 2.222 -147.078
v -18.037 2.222 -142.360
v -22.765 2.222 -142.222
v -22.903 6.122 -146.940
v -18.175 6.122 -147.078
v -18.037 6.122 -142.360
v -22.765 6.122 -142.222
f 536 535 534 533
f 529 530 534 533
f 530 531 535 534
f 531 532 536 535
f 532 529 533 536
usemtl road
v 107.060 0.906 37.629
v 167.870 1.112 107.539
v 170.510 1.137 105.241
v 109.700 0.873 35.331
f 537 538 539 540
v 168.162 1.122 107.806
v 177.392 1.311 114.506
v 179.448 1.301 111.674
v 170.218 1.131 104.974
f 541 542 543 544
v 178.440 1.326 114.840
v 186.450 1.392 114.750
v 186.410 1.264 111.250
v 178.400 1.296 111.340
f 545 546 547 548
v 187.602 1.390 114.300
v 192.372 1.290 110.000
v 190.028 1.229 107.400
v 185.258 1.277 111.700
f 549 550 551 552
v 192.597 1.290 109.753
v 200.807 2.604 98.863
v 198.013 2.207 96.757
v 189.803 1.229 107.647
f 553 554 555 556
v 198.852 2.396 99.469
v 207.802 2.767 102.479
v 208.918 2.438 99.161
v 199.968 2.363 96.151
f 557 558 559 560
v 207.421 2.778 102.297
v 212.561 2.320 105.567
v 214.439 2.187 102.613
v 209.299 2.440 99.343
f 561 562 563 564
v 212.427 2.340 105.472
v 218.377 1.389 110.092
v 220.523 1.389 107.328
v 214.573 2.175 102.708
f 565 566 567 568
v 217.700 1.530 108.702
v 217.680 1.289 112.902
v 221.180 1.191 112.918
v 221.200 1.272 108.718
f 569 570 571 572
v 217.872 1.318 112.113
v 214.712 1.293 118.293
v 217.828 1.236 119.887
v 220.988 1.193 113.707
f 573 574 575 576
v 214.754 1.293 118.216
v 208.314 1.339 129.386
v 211.346 1.287 131.134
v 217.786 1.237 119.964
f 577 578 579 580
v -208.477 0.979 -257.143
v -258.127 0.924 -196.537
v -253.873 0.918 -193.052
v -204.223 0.928 -253.657
f 581 582 583 584
v -257.690 0.871 -186.787
v -233.910 0.999 -168.270
v -230.530 0.950 -172.610
v -254.310 0.870 -191.126
f 585 586 587 588
v 134.909 0.970 -23.031
v 130.309 0.933 -11.261
v 135.431 0.845 -9.259
v 140.031 0.932 -21.029
f 589 590 591 592
v 130.434 0.933 -11.536
v 105.944 0.926 35.204
v 110.816 0.854 37.756
v 135.306 0.853 -8.984
f 593 594 595 596
v 105.982 0.927 35.134
v 55.582 0.949 124.914
v 60.378 0.840 127.606
v 110.778 0.855 37.826
f 597 598 599 600
v 55.583 0.949 124.912
v 4.133 0.891 216.382
v 8.927 0.806 219.078
v 60.377 0.840 127.608
f 601 602 603 604
v 4.100 0.891 216.443
v -11.670 0.899 246.233
v -6.810 0.792 248.807
v 8.960 0.806 219.017
f 605 606 607 608
v -1.406 1.023 -103.021
v 13.854 0.902 -121.361
v 9.626 0.896 -124.879
v -5.634 0.888 -106.539
f 609 610 611 612
v 9.976 0.912 -121.011
v 50.246 0.959 -87.331
v 53.774 0.949 -91.549
v 13.504 0.929 -125.229
f 613 614 615 616
v 50.372 0.959 -87.231
v 130.452 0.954 -27.851
v 133.728 0.990 -32.269
v 53.648 0.950 -91.649
f 617 618 619 620
v 129.805 0.955 -28.529
v 135.185 0.974 -20.499
v 139.755 0.936 -23.561
v 134.375 0.977 -31.591
f 621 622 623 624
v -93.123 0.912 -239.559
v -132.793 0.910 -166.999
v -127.967 1.150 -164.361
v -88.297 0.959 -236.921
f 625 626 627 628
v -132.761 0.910 -167.057
v -171.231 0.903 -100.527
v -166.469 1.038 -97.773
v -127.999 1.149 -164.303
f 629 630 631 632
v -171.233 0.903 -100.523
v -191.563 0.917 -65.253
v -186.797 0.928 -62.507
v -166.467 1.038 -97.777
f 633 634 635 636
v -191.432 0.917 -65.458
v -202.852 0.931 -49.158
v -198.348 0.921 -46.002
v -186.928 0.929 -62.302
f 637 638 639 640
v -202.707 0.929 -49.347
v -215.977 0.859 -33.527
v -211.763 0.926 -29.993
v -198.493 0.922 -45.813
f 641 642 643 644
v -215.802 0.861 -33.717
v -231.312 0.854 -18.407
v -227.448 0.944 -14.493
v -211.938 0.927 -29.803
f 645 646 647 648
v -231.178 0.854 -18.531
v -253.628 0.886 0.859
v -250.032 0.967 5.021
v -227.582 0.945 -14.369
f 649 650 651 652
v 49.611 0.967 -90.785
v -40.739 0.960 70.345
v -35.941 0.972 73.035
v 54.409 0.963 -88.095
f 653 654 655 656
usemtl asphalt
