# Baked ultra-low Key West silhouette; generated by bake_key_west_far_city.py
mtllib far_city.mtl
usemtl massing
v -167.692 1.575 185.790
v -145.771 1.575 183.711
v -143.848 1.575 203.990
v -165.769 1.575 206.069
v -167.692 5.475 185.790
v -145.771 5.475 183.711
v -143.848 5.475 203.990
v -165.769 5.475 206.069
f 8 7 6 5
f 1 2 6 5
f 2 3 7 6
f 3 4 8 7
f 4 1 5 8
v -189.820 0.820 145.011
v -174.345 0.820 156.392
v -185.080 0.820 170.989
v -200.555 0.820 159.608
v -189.820 4.720 145.011
v -174.345 4.720 156.392
v -185.080 4.720 170.989
v -200.555 4.720 159.608
f 16 15 14 13
f 9 10 14 13
f 10 11 15 14
f 11 12 16 15
f 12 9 13 16
v -213.532 0.580 140.553
v -201.420 0.580 126.741
v -187.728 0.580 138.747
v -199.840 0.580 152.559
v -213.532 4.480 140.553
v -201.420 4.480 126.741
v -187.728 4.480 138.747
v -199.840 4.480 152.559
f 24 23 22 21
f 17 18 22 21
f 18 19 23 22
f 19 20 24 23
f 20 17 21 24
v -176.335 1.354 121.410
v -154.366 1.354 101.513
v -141.545 1.354 115.670
v -163.514 1.354 135.567
v -176.335 5.254 121.410
v -154.366 5.254 101.513
v -141.545 5.254 115.670
v -163.514 5.254 135.567
f 32 31 30 29
f 25 26 30 29
f 26 27 31 30
f 27 28 32 31
f 28 25 29 32
v -197.753 1.613 98.389
v -176.103 1.613 74.084
v -163.207 1.613 85.571
v -184.857 1.613 109.876
v -197.753 5.513 98.389
v -176.103 5.513 74.084
v -163.207 5.513 85.571
v -184.857 5.513 109.876
f 40 39 38 37
f 33 34 38 37
f 34 35 39 38
f 35 36 40 39
f 36 33 37 40
v -215.139 1.211 70.956
v -199.307 1.211 58.524
v -189.241 1.211 71.344
v -205.073 1.211 83.776
v -215.139 5.111 70.956
v -199.307 5.111 58.524
v -189.241 5.111 71.344
v -205.073 5.111 83.776
f 48 47 46 45
f 41 42 46 45
f 42 43 47 46
f 43 44 48 47
f 44 41 45 48
v -223.358 0.693 215.013
v -182.789 0.693 216.841
v -183.862 0.693 240.647
v -224.431 0.693 238.819
v -223.358 4.593 215.013
v -182.789 4.593 216.841
v -183.862 4.593 240.647
v -224.431 4.593 238.819
f 56 55 54 53
f 49 50 54 53
f 50 51 55 54
f 51 52 56 55
f 52 49 53 56
v -230.747 1.166 235.376
v -219.456 1.166 257.815
v -235.213 1.166 265.744
v -246.504 1.166 243.305
v -230.747 5.066 235.376
v -219.456 5.066 257.815
v -235.213 5.066 265.744
v -246.504 5.066 243.305
f 64 63 62 61
f 57 58 62 61
f 58 59 63 62
f 59 60 64 63
f 60 57 61 64
v -249.388 0.715 185.204
v -237.579 0.715 175.476
v -226.852 0.715 188.496
v -238.661 0.715 198.224
v -249.388 4.615 185.204
v -237.579 4.615 175.476
v -226.852 4.615 188.496
v -238.661 4.615 198.224
f 72 71 70 69
f 65 66 70 69
f 66 67 71 70
f 67 68 72 71
f 68 65 69 72
usemtl road
v -206.945 1.072 92.518
v -199.825 1.029 105.178
v -196.775 1.025 103.462
v -203.895 1.102 90.802
f 73 74 75 76
v -200.381 1.024 102.522
v -209.611 0.896 113.202
v -205.449 0.854 116.798
v -196.219 1.017 106.118
f 77 78 79 80
v -209.643 0.896 113.240
v -244.673 0.767 155.290
v -240.447 0.847 158.810
v -205.417 0.855 116.760
f 81 82 83 84
v -200.430 1.020 106.059
v -133.250 1.026 188.369
v -128.990 1.047 184.891
v -196.170 1.051 102.581
f 85 86 87 88
usemtl asphalt
