# Baked ultra-low Key West silhouette; generated by bake_key_west_far_city.py
mtllib far_city.mtl
usemtl massing
v -194.279 1.034 -210.583
v -189.688 1.034 -161.598
v -202.721 1.034 -160.377
v -207.312 1.034 -209.362
v -194.279 6.834 -210.583
v -189.688 6.834 -161.598
v -202.721 6.834 -160.377
v -207.312 6.834 -209.362
f 8 7 6 5
f 1 2 6 5
f 2 3 7 6
f 3 4 8 7
f 4 1 5 8
v -201.595 1.164 -83.991
v -192.514 1.164 -22.852
v -214.345 1.164 -19.609
v -223.426 1.164 -80.748
v -201.595 6.964 -83.991
v -192.514 6.964 -22.852
v -214.345 6.964 -19.609
v -223.426 6.964 -80.748
f 16 15 14 13
f 9 10 14 13
f 10 11 15 14
f 11 12 16 15
f 12 9 13 16
v 62.465 1.050 -221.550
v 74.915 1.050 -221.550
v 74.915 1.050 -213.850
v 62.465 1.050 -213.850
v 62.465 4.950 -221.550
v 74.915 4.950 -221.550
v 74.915 4.950 -213.850
v 62.465 4.950 -213.850
f 24 23 22 21
f 17 18 22 21
f 18 19 23 22
f 19 20 24 23
f 20 17 21 24
v -13.171 -0.183 -221.162
v 1.589 -0.183 -221.168
v 1.591 -0.183 -215.358
v -13.169 -0.183 -215.352
v -13.171 3.717 -221.162
v 1.589 3.717 -221.168
v 1.591 3.717 -215.358
v -13.169 3.717 -215.352
f 32 31 30 29
f 25 26 30 29
f 26 27 31 30
f 27 28 32 31
f 28 25 29 32
v 77.794 1.089 -222.097
v 98.706 1.089 -221.227
v 98.406 1.089 -214.003
v 77.494 1.089 -214.873
v 77.794 4.989 -222.097
v 98.706 4.989 -221.227
v 98.406 4.989 -214.003
v 77.494 4.989 -214.873
f 40 39 38 37
f 33 34 38 37
f 34 35 39 38
f 35 36 40 39
f 36 33 37 40
v 246.874 1.220 187.188
v 251.009 1.220 167.364
v 262.266 1.220 169.712
v 258.131 1.220 189.536
v 246.874 5.120 187.188
v 251.009 5.120 167.364
v 262.266 5.120 169.712
v 258.131 5.120 189.536
f 48 47 46 45
f 41 42 46 45
f 42 43 47 46
f 43 44 48 47
f 44 41 45 48
v 223.129 1.244 -166.735
v 241.444 1.244 -163.377
v 239.271 1.244 -151.525
v 220.956 1.244 -154.883
v 223.129 5.144 -166.735
v 241.444 5.144 -163.377
v 239.271 5.144 -151.525
v 220.956 5.144 -154.883
f 56 55 54 53
f 49 50 54 53
f 50 51 55 54
f 51 52 56 55
f 52 49 53 56
v 72.284 1.434 127.562
v 91.756 1.434 126.066
v 92.736 1.434 138.818
v 73.264 1.434 140.314
v 72.284 5.334 127.562
v 91.756 5.334 126.066
v 92.736 5.334 138.818
v 73.264 5.334 140.314
f 64 63 62 61
f 57 58 62 61
f 58 59 63 62
f 59 60 64 63
f 60 57 61 64
v 46.011 1.735 213.892
v 92.041 1.735 208.717
v 94.169 1.735 227.648
v 48.139 1.735 232.823
v 46.011 7.535 213.892
v 92.041 7.535 208.717
v 94.169 7.535 227.648
v 48.139 7.535 232.823
f 72 71 70 69
f 65 66 70 69
f 66 67 71 70
f 67 68 72 71
f 68 65 69 72
v -216.259 0.978 -231.269
v -193.309 0.978 -232.625
v -192.761 0.978 -223.351
v -215.711 0.978 -221.995
v -216.259 4.878 -231.269
v -193.309 4.878 -232.625
v -192.761 4.878 -223.351
v -215.711 4.878 -221.995
f 80 79 78 77
f 73 74 78 77
f 74 75 79 78
f 75 76 80 79
f 76 73 77 80
v 236.361 1.142 60.354
v 253.930 1.142 60.547
v 253.739 1.142 77.946
v 236.170 1.142 77.753
v 236.361 5.042 60.354
v 253.930 5.042 60.547
v 253.739 5.042 77.946
v 236.170 5.042 77.753
f 88 87 86 85
f 81 82 86 85
f 82 83 87 86
f 83 84 88 87
f 84 81 85 88
v 231.683 1.271 29.372
v 249.252 1.271 29.548
v 249.077 1.271 46.948
v 231.508 1.271 46.772
v 231.683 5.171 29.372
v 249.252 5.171 29.548
v 249.077 5.171 46.948
v 231.508 5.171 46.772
f 96 95 94 93
f 89 90 94 93
f 90 91 95 94
f 91 92 96 95
f 92 89 93 96
v 244.378 1.210 -8.480
v 261.917 1.210 -7.859
v 261.302 1.210 9.500
v 243.763 1.210 8.879
v 244.378 5.110 -8.480
v 261.917 5.110 -7.859
v 261.302 5.110 9.500
v 243.763 5.110 8.879
f 104 103 102 101
f 97 98 102 101
f 98 99 103 102
f 99 100 104 103
f 100 97 101 104
v 220.831 1.713 -150.278
v 245.517 1.713 -146.269
v 242.009 1.713 -124.662
v 217.323 1.713 -128.671
v 220.831 8.513 -150.278
v 245.517 8.513 -146.269
v 242.009 8.513 -124.662
v 217.323 8.513 -128.671
f 112 111 110 109
f 105 106 110 109
f 106 107 111 110
f 107 108 112 111
f 108 105 109 112
v 226.543 1.768 -104.700
v 235.085 1.768 -99.236
v 229.637 1.768 -90.720
v 221.095 1.768 -96.184
v 226.543 5.668 -104.700
v 235.085 5.668 -99.236
v 229.637 5.668 -90.720
v 221.095 5.668 -96.184
f 120 119 118 117
f 113 114 118 117
f 114 115 119 118
f 115 116 120 119
f 116 113 117 120
v 228.247 1.774 -92.357
v 236.780 1.774 -86.879
v 231.313 1.774 -78.363
v 222.780 1.774 -83.841
v 228.247 5.674 -92.357
v 236.780 5.674 -86.879
v 231.313 5.674 -78.363
v 222.780 5.674 -83.841
f 128 127 126 125
f 121 122 126 125
f 122 123 127 126
f 123 124 128 127
f 124 121 125 128
v 245.307 1.456 -32.420
v 247.864 1.456 -43.458
v 254.333 1.456 -41.960
v 251.776 1.456 -30.922
v 245.307 5.356 -32.420
v 247.864 5.356 -43.458
v 254.333 5.356 -41.960
v 251.776 5.356 -30.922
f 136 135 134 133
f 129 130 134 133
f 130 131 135 134
f 131 132 136 135
f 132 129 133 136
v 240.464 1.649 -58.990
v 253.660 1.649 -59.287
v 253.956 1.649 -46.130
v 240.760 1.649 -45.833
v 240.464 5.549 -58.990
v 253.660 5.549 -59.287
v 253.956 5.549 -46.130
v 240.760 5.549 -45.833
f 144 143 142 141
f 137 138 142 141
f 138 139 143 142
f 139 140 144 143
f 140 137 141 144
v 237.383 1.672 -107.745
v 250.609 1.672 -107.410
v 250.277 1.672 -94.275
v 237.051 1.672 -94.610
v 237.383 5.572 -107.745
v 250.609 5.572 -107.410
v 250.277 5.572 -94.275
v 237.051 5.572 -94.610
f 152 151 150 149
f 145 146 150 149
f 146 147 151 150
f 147 148 152 151
f 148 145 149 152
v -231.612 0.773 -166.446
v -225.918 0.773 -166.728
v -225.648 0.773 -161.274
v -231.342 0.773 -160.992
v -231.612 4.673 -166.446
v -225.918 4.673 -166.728
v -225.648 4.673 -161.274
v -231.342 4.673 -160.992
f 160 159 158 157
f 153 154 158 157
f 154 155 159 158
f 155 156 160 159
f 156 153 157 160
v -221.627 0.893 -121.505
v -200.660 0.893 -123.582
v -199.593 0.893 -112.815
v -220.560 0.893 -110.738
v -221.627 4.793 -121.505
v -200.660 4.793 -123.582
v -199.593 4.793 -112.815
v -220.560 4.793 -110.738
f 168 167 166 165
f 161 162 166 165
f 162 163 167 166
f 163 164 168 167
f 164 161 165 168
usemtl road
v 42.014 0.944 76.940
v 43.634 1.011 84.310
v 49.006 1.091 83.130
v 47.386 1.108 75.760
f 169 170 171 172
v 43.588 1.004 83.405
v 31.038 1.114 192.325
v 36.502 1.122 192.955
v 49.052 1.074 84.035
f 173 174 175 176
v 31.038 1.114 192.325
v 24.758 1.052 246.805
v 30.222 1.121 247.435
v 36.502 1.122 192.955
f 177 178 179 180
v -256.353 0.593 41.805
v -232.903 0.533 44.837
v -232.197 0.596 39.383
v -255.647 0.587 36.350
f 181 182 183 184
v -232.833 0.532 44.845
v 38.707 0.884 72.975
v 39.273 0.872 67.505
v -232.267 0.596 39.375
f 185 186 187 188
v 36.981 0.866 72.118
v 42.691 0.972 78.228
v 46.709 1.071 74.472
v 40.999 0.876 68.362
f 189 190 191 192
v -256.202 0.810 -220.113
v -242.162 1.219 -218.482
v -241.758 1.191 -221.958
v -255.798 0.816 -223.589
f 193 194 195 196
v -242.167 1.219 -218.482
v -239.987 1.195 -218.222
v -239.573 1.165 -221.698
v -241.753 1.191 -221.958
f 197 198 199 200
v -239.982 1.195 -218.222
v -231.052 1.229 -217.182
v -230.648 1.198 -220.658
v -239.578 1.165 -221.698
f 201 202 203 204
v -231.053 1.229 -217.182
v -201.003 1.321 -213.672
v -200.597 1.240 -217.148
v -230.647 1.198 -220.658
f 205 206 207 208
v -201.002 1.321 -213.672
v -185.752 1.260 -211.902
v -185.348 1.207 -215.378
v -200.598 1.240 -217.148
f 209 210 211 212
v -185.546 1.262 -211.890
v -129.746 1.148 -212.020
v -129.754 1.260 -215.520
v -185.554 1.204 -215.390
f 213 214 215 216
v -129.745 1.148 -212.020
v -116.015 0.969 -212.060
v -116.025 1.219 -215.560
v -129.755 1.260 -215.520
f 217 218 219 220
v -116.150 0.966 -212.065
v -73.030 1.226 -208.865
v -72.770 1.289 -212.355
v -115.890 1.219 -215.555
f 221 222 223 224
v -72.899 1.224 -208.860
v -15.869 1.280 -208.900
v -15.871 1.285 -212.400
v -72.901 1.290 -212.360
f 225 226 227 228
v -15.870 1.280 -208.900
v -7.250 1.107 -208.900
v -7.250 1.276 -212.400
v -15.870 1.285 -212.400
f 229 230 231 232
v -7.104 1.107 -208.906
v 14.106 1.206 -210.686
v 13.814 1.187 -214.174
v -7.396 1.275 -212.394
f 233 234 235 236
v 13.965 1.204 -210.680
v 40.825 1.469 -210.750
v 40.815 1.411 -214.250
v 13.955 1.192 -214.180
f 237 238 239 240
v 40.824 1.469 -210.750
v 102.034 1.484 -210.890
v 102.026 1.418 -214.390
v 40.816 1.411 -214.250
f 241 242 243 244
v 89.692 1.184 -105.730
v 46.622 0.969 -105.280
v 46.658 0.982 -101.780
v 89.728 1.192 -102.230
f 245 246 247 248
v 46.621 0.969 -105.280
v -211.439 0.710 -102.480
v -211.401 0.806 -98.980
v 46.659 0.982 -101.780
f 249 250 251 252
v -211.405 0.710 -102.480
v -227.995 0.679 -102.620
v -228.025 0.701 -99.120
v -211.435 0.806 -98.980
f 253 254 255 256
v -227.993 0.679 -102.620
v -249.573 0.574 -102.830
v -249.607 0.587 -99.330
v -228.027 0.701 -99.120
f 257 258 259 260
v 246.444 1.489 173.484
v 248.144 1.395 160.884
v 244.676 1.386 160.416
v 242.976 1.341 173.016
f 261 262 263 264
v 255.669 1.860 -82.623
v 250.559 2.010 -81.638
v 251.221 1.867 -78.202
v 256.331 1.602 -79.186
f 265 266 267 268
v 250.203 2.029 -81.530
v 243.593 1.951 -78.710
v 244.967 1.880 -75.490
v 251.577 1.789 -78.310
f 269 270 271 272
v 243.051 1.936 -78.346
v 235.841 1.811 -71.236
v 238.299 1.825 -68.744
v 245.509 1.896 -75.854
f 273 274 275 276
v 235.399 1.803 -70.511
v 232.469 1.669 -61.111
v 235.811 1.671 -60.069
v 238.741 1.834 -69.469
f 277 278 279 280
v 232.464 1.652 -60.087
v 236.414 1.467 -46.927
v 239.766 1.658 -47.933
v 235.816 1.692 -61.093
f 281 282 283 284
v 236.448 1.468 -46.824
v 242.678 1.702 -29.954
v 245.962 1.480 -31.166
v 239.732 1.660 -48.036
f 285 286 287 288
v 242.590 1.664 -30.296
v 244.250 2.770 -19.436
v 247.710 1.996 -19.964
v 246.050 1.483 -30.824
f 289 290 291 292
v 244.270 2.852 -20.072
v 241.040 1.450 -5.242
v 244.460 1.563 -4.498
v 247.690 1.985 -19.328
f 293 294 295 296
v 241.053 1.449 -5.297
v 238.113 1.493 6.393
v 241.507 1.472 7.247
v 244.447 1.564 -4.443
f 297 298 299 300
v 238.063 1.496 6.715
v 237.443 2.053 17.005
v 240.937 1.661 17.215
v 241.557 1.470 6.925
f 301 302 303 304
v -241.524 1.183 -220.104
v -251.334 0.541 -101.224
v -247.846 0.545 -100.936
v -238.036 1.135 -219.816
f 305 306 307 308
v -251.335 0.540 -101.211
v -255.945 1.109 -39.851
v -252.455 1.151 -39.589
v -247.845 0.544 -100.949
f 309 310 311 312
v -255.648 1.102 -38.738
v -251.748 1.148 -32.988
v -248.852 1.168 -34.952
v -252.752 1.160 -40.702
f 313 314 315 316
v -250.464 1.146 -32.228
v -240.554 1.074 -31.298
v -240.226 1.113 -34.782
v -250.136 1.161 -35.712
f 317 318 319 320
v -239.131 1.097 -31.825
v -234.211 1.168 -36.925
v -236.729 1.126 -39.355
v -241.649 1.104 -34.255
f 321 322 323 324
v -233.732 1.163 -37.933
v -226.272 0.663 -100.663
v -229.748 0.641 -101.077
v -237.208 1.124 -38.347
f 325 326 327 328
usemtl asphalt
