# Baked ultra-low Key West silhouette; generated by bake_key_west_far_city.py
mtllib far_city.mtl
usemtl massing
v -11.729 0.790 -19.295
v 3.582 0.790 -19.820
v 3.829 0.790 -12.645
v -11.482 0.790 -12.120
v -11.729 4.690 -19.295
v 3.582 4.690 -19.820
v 3.829 4.690 -12.645
v -11.482 4.690 -12.120
f 8 7 6 5
f 1 2 6 5
f 2 3 7 6
f 3 4 8 7
f 4 1 5 8
v 6.830 0.953 -12.174
v 12.449 0.953 -12.096
v 12.410 0.953 -9.266
v 6.791 0.953 -9.344
v 6.830 4.853 -12.174
v 12.449 4.853 -12.096
v 12.410 4.853 -9.266
v 6.791 4.853 -9.344
f 16 15 14 13
f 9 10 14 13
f 10 11 15 14
f 11 12 16 15
f 12 9 13 16
v 5.156 0.827 -30.932
v 16.661 0.827 -32.884
v 17.424 0.827 -28.388
v 5.919 0.827 -26.436
v 5.156 4.727 -30.932
v 16.661 4.727 -32.884
v 17.424 4.727 -28.388
v 5.919 4.727 -26.436
f 24 23 22 21
f 17 18 22 21
f 18 19 23 22
f 19 20 24 23
f 20 17 21 24
v 3.871 0.772 -38.666
v 17.279 0.772 -40.551
v 17.889 0.772 -36.214
v 4.481 0.772 -34.329
v 3.871 4.672 -38.666
v 17.279 4.672 -40.551
v 17.889 4.672 -36.214
v 4.481 4.672 -34.329
f 32 31 30 29
f 25 26 30 29
f 26 27 31 30
f 27 28 32 31
f 28 25 29 32
v 27.122 1.466 4.282
v 27.489 1.466 -11.304
v 34.358 1.466 -11.142
v 33.991 1.466 4.444
v 27.122 5.366 4.282
v 27.489 5.366 -11.304
v 34.358 5.366 -11.142
v 33.991 5.366 4.444
f 40 39 38 37
f 33 34 38 37
f 34 35 39 38
f 35 36 40 39
f 36 33 37 40
v 27.083 1.244 -12.655
v 27.127 1.244 -27.165
v 33.617 1.244 -27.145
v 33.573 1.244 -12.635
v 27.083 5.144 -12.655
v 27.127 5.144 -27.165
v 33.617 5.144 -27.145
v 33.573 5.144 -12.635
f 48 47 46 45
f 41 42 46 45
f 42 43 47 46
f 43 44 48 47
f 44 41 45 48
v 37.230 1.293 -11.029
v 37.787 1.293 -22.906
v 44.050 1.293 -22.611
v 43.493 1.293 -10.734
v 37.230 5.193 -11.029
v 37.787 5.193 -22.906
v 44.050 5.193 -22.611
v 43.493 5.193 -10.734
f 56 55 54 53
f 49 50 54 53
f 50 51 55 54
f 51 52 56 55
f 52 49 53 56
v 66.909 1.179 -109.732
v 79.441 1.179 -108.525
v 78.751 1.179 -101.348
v 66.219 1.179 -102.555
v 66.909 5.079 -109.732
v 79.441 5.079 -108.525
v 78.751 5.079 -101.348
v 66.219 5.079 -102.555
f 64 63 62 61
f 57 58 62 61
f 58 59 63 62
f 59 60 64 63
f 60 57 61 64
v 56.162 1.834 -153.262
v 59.328 1.834 -196.436
v 77.858 1.834 -195.078
v 74.692 1.834 -151.904
v 56.162 7.634 -153.262
v 59.328 7.634 -196.436
v 77.858 7.634 -195.078
v 74.692 7.634 -151.904
f 72 71 70 69
f 65 66 70 69
f 66 67 71 70
f 67 68 72 71
f 68 65 69 72
usemtl road
v 25.093 1.072 -255.892
v 26.642 1.151 -216.652
v 32.138 1.171 -216.868
v 30.588 1.151 -256.108
f 73 74 75 76
v 26.671 1.151 -216.347
v 35.081 1.270 -160.977
v 40.519 1.321 -161.803
v 32.109 1.173 -217.173
f 77 78 79 80
v 35.055 1.272 -161.230
v 42.215 1.369 -38.450
v 47.705 1.410 -38.770
v 40.545 1.325 -161.550
f 81 82 83 84
v 44.308 1.394 -35.938
v 106.318 1.564 -20.798
v 107.622 1.561 -26.142
v 45.612 1.385 -41.282
f 85 86 87 88
usemtl asphalt
