# Baked ultra-low Key West silhouette; generated by bake_key_west_far_city.py
mtllib far_city.mtl
usemtl massing
v -171.497 1.120 -63.941
v -142.531 1.120 -86.897
v -120.643 1.120 -59.279
v -149.609 1.120 -36.323
v -171.497 6.920 -63.941
v -142.531 6.920 -86.897
v -120.643 6.920 -59.279
v -149.609 6.920 -36.323
f 8 7 6 5
f 1 2 6 5
f 2 3 7 6
f 3 4 8 7
f 4 1 5 8
v 69.217 0.540 -104.718
v 78.621 0.540 -94.810
v 70.143 0.540 -86.762
v 60.739 0.540 -96.670
v 69.217 4.440 -104.718
v 78.621 4.440 -94.810
v 70.143 4.440 -86.762
v 60.739 4.440 -96.670
f 16 15 14 13
f 9 10 14 13
f 10 11 15 14
f 11 12 16 15
f 12 9 13 16
v 37.345 0.511 -103.428
v 47.477 0.511 -92.641
v 38.715 0.511 -84.412
v 28.583 0.511 -95.199
v 37.345 4.411 -103.428
v 47.477 4.411 -92.641
v 38.715 4.411 -84.412
v 28.583 4.411 -95.199
f 24 23 22 21
f 17 18 22 21
f 18 19 23 22
f 19 20 24 23
f 20 17 21 24
v 53.046 0.497 -120.104
v 62.920 0.497 -109.581
v 54.154 0.497 -101.356
v 44.280 0.497 -111.879
v 53.046 4.397 -120.104
v 62.920 4.397 -109.581
v 54.154 4.397 -101.356
v 44.280 4.397 -111.879
f 32 31 30 29
f 25 26 30 29
f 26 27 31 30
f 27 28 32 31
f 28 25 29 32
v 53.796 0.517 -88.517
v 63.973 0.517 -77.799
v 55.024 0.517 -69.303
v 44.847 0.517 -80.021
v 53.796 4.417 -88.517
v 63.973 4.417 -77.799
v 55.024 4.417 -69.303
v 44.847 4.417 -80.021
f 40 39 38 37
f 33 34 38 37
f 34 35 39 38
f 35 36 40 39
f 36 33 37 40
v 39.060 0.579 -72.973
v 49.280 0.579 -62.116
v 40.600 0.579 -53.947
v 30.380 0.579 -64.804
v 39.060 4.479 -72.973
v 49.280 4.479 -62.116
v 40.600 4.479 -53.947
v 30.380 4.479 -64.804
f 48 47 46 45
f 41 42 46 45
f 42 43 47 46
f 43 44 48 47
f 44 41 45 48
v 23.030 0.533 -87.919
v 33.049 0.533 -77.135
v 24.250 0.533 -68.961
v 14.231 0.533 -79.745
v 23.030 4.433 -87.919
v 33.049 4.433 -77.135
v 24.250 4.433 -68.961
v 14.231 4.433 -79.745
f 56 55 54 53
f 49 50 54 53
f 50 51 55 54
f 51 52 56 55
f 52 49 53 56
v -13.812 0.710 -43.203
v -0.839 0.710 -54.602
v 8.672 0.710 -43.777
v -4.301 0.710 -32.378
v -13.812 4.610 -43.203
v -0.839 4.610 -54.602
v 8.672 4.610 -43.777
v -4.301 4.610 -32.378
f 64 63 62 61
f 57 58 62 61
f 58 59 63 62
f 59 60 64 63
f 60 57 61 64
v 24.788 0.663 -57.307
v 34.923 0.663 -46.522
v 26.252 0.663 -38.373
v 16.117 0.663 -49.158
v 24.788 4.563 -57.307
v 34.923 4.563 -46.522
v 26.252 4.563 -38.373
v 16.117 4.563 -49.158
f 72 71 70 69
f 65 66 70 69
f 66 67 71 70
f 67 68 72 71
f 68 65 69 72
v 8.391 0.461 -72.335
v 18.699 0.461 -61.618
v 9.849 0.461 -53.105
v -0.459 0.461 -63.822
v 8.391 4.361 -72.335
v 18.699 4.361 -61.618
v 9.849 4.361 -53.105
v -0.459 4.361 -63.822
f 80 79 78 77
f 73 74 78 77
f 74 75 79 78
f 75 76 80 79
f 76 73 77 80
v 79.793 0.615 -16.159
v 84.380 0.615 -30.692
v 94.107 0.615 -27.621
v 89.520 0.615 -13.088
v 79.793 4.515 -16.159
v 84.380 4.515 -30.692
v 94.107 4.515 -27.621
v 89.520 4.515 -13.088
f 88 87 86 85
f 81 82 86 85
f 82 83 87 86
f 83 84 88 87
f 84 81 85 88
v 181.103 0.722 22.383
v 186.896 0.722 34.532
v 180.217 0.722 37.717
v 174.424 0.722 25.568
v 181.103 4.622 22.383
v 186.896 4.622 34.532
v 180.217 4.622 37.717
v 174.424 4.622 25.568
f 96 95 94 93
f 89 90 94 93
f 90 91 95 94
f 91 92 96 95
f 92 89 93 96
v 210.123 0.629 32.863
v 216.193 0.629 45.201
v 209.777 0.629 48.357
v 203.707 0.629 36.019
v 210.123 4.529 32.863
v 216.193 4.529 45.201
v 209.777 4.529 48.357
v 203.707 4.529 36.019
f 104 103 102 101
f 97 98 102 101
f 98 99 103 102
f 99 100 104 103
f 100 97 101 104
v 187.913 0.722 31.609
v 194.060 0.722 44.410
v 187.227 0.722 47.691
v 181.080 0.722 34.890
v 187.913 4.622 31.609
v 194.060 4.622 44.410
v 187.227 4.622 47.691
v 181.080 4.622 34.890
f 112 111 110 109
f 105 106 110 109
f 106 107 111 110
f 107 108 112 111
f 108 105 109 112
v 113.941 0.609 -11.832
v 117.880 0.609 3.397
v 110.319 0.609 5.352
v 106.380 0.609 -9.877
v 113.941 4.509 -11.832
v 117.880 4.509 3.397
v 110.319 4.509 5.352
v 106.380 4.509 -9.877
f 120 119 118 117
f 113 114 118 117
f 114 115 119 118
f 115 116 120 119
f 116 113 117 120
v 240.713 0.388 239.206
v 256.338 0.388 249.822
v 251.207 0.388 257.374
v 235.582 0.388 246.758
v 240.713 4.288 239.206
v 256.338 4.288 249.822
v 251.207 4.288 257.374
v 235.582 4.288 246.758
f 128 127 126 125
f 121 122 126 125
f 122 123 127 126
f 123 124 128 127
f 124 121 125 128
v 241.385 0.409 206.653
v 250.557 0.409 191.119
v 257.515 0.409 195.227
v 248.343 0.409 210.761
v 241.385 4.309 206.653
v 250.557 4.309 191.119
v 257.515 4.309 195.227
v 248.343 4.309 210.761
f 136 135 134 133
f 129 130 134 133
f 130 131 135 134
f 131 132 136 135
f 132 129 133 136
v 249.560 0.464 145.613
v 252.428 0.464 147.583
v 250.860 0.464 149.867
v 247.992 0.464 147.897
v 249.560 4.364 145.613
v 252.428 4.364 147.583
v 250.860 4.364 149.867
v 247.992 4.364 147.897
f 144 143 142 141
f 137 138 142 141
f 138 139 143 142
f 139 140 144 143
f 140 137 141 144
v 234.549 0.472 168.783
v 247.106 0.472 152.427
v 254.491 0.472 158.097
v 241.934 0.472 174.453
v 234.549 4.372 168.783
v 247.106 4.372 152.427
v 254.491 4.372 158.097
v 241.934 4.372 174.453
f 152 151 150 149
f 145 146 150 149
f 146 147 151 150
f 147 148 152 151
f 148 145 149 152
v 223.989 0.380 174.312
v 233.213 0.380 155.926
v 240.471 0.380 159.568
v 231.247 0.380 177.954
v 223.989 4.280 174.312
v 233.213 4.280 155.926
v 240.471 4.280 159.568
v 231.247 4.280 177.954
f 160 159 158 157
f 153 154 158 157
f 154 155 159 158
f 155 156 160 159
f 156 153 157 160
v 219.401 0.659 137.934
v 237.800 0.659 132.880
v 242.059 0.659 148.386
v 223.660 0.659 153.440
v 219.401 4.559 137.934
v 237.800 4.559 132.880
v 242.059 4.559 148.386
v 223.660 4.559 153.440
f 168 167 166 165
f 161 162 166 165
f 162 163 167 166
f 163 164 168 167
f 164 161 165 168
v 240.263 0.675 138.059
v 248.061 0.675 123.450
v 254.677 0.675 126.981
v 246.879 0.675 141.590
v 240.263 4.575 138.059
v 248.061 4.575 123.450
v 254.677 4.575 126.981
v 246.879 4.575 141.590
f 176 175 174 173
f 169 170 174 173
f 170 171 175 174
f 171 172 176 175
f 172 169 173 176
v 251.388 0.673 138.350
v 254.195 0.673 133.949
v 257.112 0.673 135.810
v 254.305 0.673 140.211
v 251.388 4.573 138.350
v 254.195 4.573 133.949
v 257.112 4.573 135.810
v 254.305 4.573 140.211
f 184 183 182 181
f 177 178 182 181
f 178 179 183 182
f 179 180 184 183
f 180 177 181 184
v 250.958 0.505 118.136
v 254.049 0.505 112.567
v 256.602 0.505 113.984
v 253.511 0.505 119.553
v 250.958 4.405 118.136
v 254.049 4.405 112.567
v 256.602 4.405 113.984
v 253.511 4.405 119.553
f 192 191 190 189
f 185 186 190 189
f 186 187 191 190
f 187 188 192 191
f 188 185 189 192
v 231.475 0.350 223.907
v 248.617 0.350 235.313
v 244.185 0.350 241.973
v 227.043 0.350 230.567
v 231.475 4.250 223.907
v 248.617 4.250 235.313
v 244.185 4.250 241.973
v 227.043 4.250 230.567
f 200 199 198 197
f 193 194 198 197
f 194 195 199 198
f 195 196 200 199
f 196 193 197 200
v 218.378 0.369 212.188
v 238.291 0.369 225.095
v 233.342 0.369 232.732
v 213.429 0.369 219.825
v 218.378 4.269 212.188
v 238.291 4.269 225.095
v 233.342 4.269 232.732
v 213.429 4.269 219.825
f 208 207 206 205
f 201 202 206 205
f 202 203 207 206
f 203 204 208 207
f 204 201 205 208
v 224.467 0.367 228.543
v 228.025 0.367 230.621
v 226.053 0.367 233.997
v 222.495 0.367 231.919
v 224.467 4.267 228.543
v 228.025 4.267 230.621
v 226.053 4.267 233.997
v 222.495 4.267 231.919
f 216 215 214 213
f 209 210 214 213
f 210 211 215 214
f 211 212 216 215
f 212 209 213 216
v 204.642 0.817 184.524
v 223.725 0.817 196.800
v 215.918 0.817 208.936
v 196.835 0.817 196.660
v 204.642 4.717 184.524
v 223.725 4.717 196.800
v 215.918 4.717 208.936
v 196.835 4.717 196.660
f 224 223 222 221
f 217 218 222 221
f 218 219 223 222
f 219 220 224 223
f 220 217 221 224
v 173.419 0.489 181.931
v 200.802 0.489 169.100
v 211.181 0.489 191.249
v 183.798 0.489 204.080
v 173.419 4.389 181.931
v 200.802 4.389 169.100
v 211.181 4.389 191.249
v 183.798 4.389 204.080
f 232 231 230 229
f 225 226 230 229
f 226 227 231 230
f 227 228 232 231
f 228 225 229 232
v 173.372 0.508 165.504
v 186.857 0.508 171.912
v 183.548 0.508 178.876
v 170.063 0.508 172.468
v 173.372 4.408 165.504
v 186.857 4.408 171.912
v 183.548 4.408 178.876
v 170.063 4.408 172.468
f 240 239 238 237
f 233 234 238 237
f 234 235 239 238
f 235 236 240 239
f 236 233 237 240
v 172.557 0.563 156.480
v 184.101 0.563 161.627
v 181.063 0.563 168.440
v 169.519 0.563 163.293
v 172.557 4.463 156.480
v 184.101 4.463 161.627
v 181.063 4.463 168.440
v 169.519 4.463 163.293
f 248 247 246 245
f 241 242 246 245
f 242 243 247 246
f 243 244 248 247
f 244 241 245 248
v 176.368 0.370 144.131
v 186.173 0.370 154.137
v 178.752 0.370 161.409
v 168.947 0.370 151.403
v 176.368 4.270 144.131
v 186.173 4.270 154.137
v 178.752 4.270 161.409
v 168.947 4.270 151.403
f 256 255 254 253
f 249 250 254 253
f 250 251 255 254
f 251 252 256 255
f 252 249 253 256
v -71.954 0.510 -244.324
v -60.365 0.510 -230.524
v -63.566 0.510 -227.836
v -75.155 0.510 -241.636
v -71.954 4.410 -244.324
v -60.365 4.410 -230.524
v -63.566 4.410 -227.836
v -75.155 4.410 -241.636
f 264 263 262 261
f 257 258 262 261
f 258 259 263 262
f 259 260 264 263
f 260 257 261 264
v -54.288 0.400 -239.598
v -49.973 0.400 -222.483
v -57.672 0.400 -220.542
v -61.987 0.400 -237.657
v -54.288 4.300 -239.598
v -49.973 4.300 -222.483
v -57.672 4.300 -220.542
v -61.987 4.300 -237.657
f 272 271 270 269
f 265 266 270 269
f 266 267 271 270
f 267 268 272 271
f 268 265 269 272
v -9.859 0.420 -244.775
v -1.416 0.420 -236.432
v -4.881 0.420 -232.925
v -13.324 0.420 -241.268
v -9.859 4.320 -244.775
v -1.416 4.320 -236.432
v -4.881 4.320 -232.925
v -13.324 4.320 -241.268
f 280 279 278 277
f 273 274 278 277
f 274 275 279 278
f 275 276 280 279
f 276 273 277 280
v -5.534 0.523 -238.271
v 5.749 0.523 -226.300
v 0.794 0.523 -221.629
v -10.489 0.523 -233.600
v -5.534 4.423 -238.271
v 5.749 4.423 -226.300
v 0.794 4.423 -221.629
v -10.489 4.423 -233.600
f 288 287 286 285
f 281 282 286 285
f 282 283 287 286
f 283 284 288 287
f 284 281 285 288
v 3.942 0.463 -227.410
v 11.668 0.463 -241.421
v 17.018 0.463 -238.470
v 9.292 0.463 -224.459
v 3.942 4.363 -227.410
v 11.668 4.363 -241.421
v 17.018 4.363 -238.470
v 9.292 4.363 -224.459
f 296 295 294 293
f 289 290 294 293
f 290 291 295 294
f 291 292 296 295
f 292 289 293 296
v 28.756 0.339 -243.399
v 39.574 0.339 -232.215
v 34.184 0.339 -227.001
v 23.366 0.339 -238.185
v 28.756 4.239 -243.399
v 39.574 4.239 -232.215
v 34.184 4.239 -227.001
v 23.366 4.239 -238.185
f 304 303 302 301
f 297 298 302 301
f 298 299 303 302
f 299 300 304 303
f 300 297 301 304
v 34.766 0.343 -238.137
v 44.314 0.343 -225.586
v 38.974 0.343 -221.523
v 29.426 0.343 -234.074
v 34.766 4.243 -238.137
v 44.314 4.243 -225.586
v 38.974 4.243 -221.523
v 29.426 4.243 -234.074
f 312 311 310 309
f 305 306 310 309
f 306 307 311 310
f 307 308 312 311
f 308 305 309 312
v 35.079 0.069 -240.057
v 43.721 0.069 -247.385
v 46.741 0.069 -243.823
v 38.099 0.069 -236.495
v 35.079 3.969 -240.057
v 43.721 3.969 -247.385
v 46.741 3.969 -243.823
v 38.099 3.969 -236.495
f 320 319 318 317
f 313 314 318 317
f 314 315 319 318
f 315 316 320 319
f 316 313 317 320
v 2.470 0.319 -260.119
v 14.114 0.319 -250.101
v 10.070 0.319 -245.401
v -1.574 0.319 -255.419
v 2.470 4.219 -260.119
v 14.114 4.219 -250.101
v 10.070 4.219 -245.401
v -1.574 4.219 -255.419
f 328 327 326 325
f 321 322 326 325
f 322 323 327 326
f 323 324 328 327
f 324 321 325 328
v 230.942 0.600 63.617
v 237.423 0.600 76.911
v 233.378 0.600 78.883
v 226.897 0.600 65.589
v 230.942 4.500 63.617
v 237.423 4.500 76.911
v 233.378 4.500 78.883
v 226.897 4.500 65.589
f 336 335 334 333
f 329 330 334 333
f 330 331 335 334
f 331 332 336 335
f 332 329 333 336
v 227.532 0.563 102.335
v 234.909 0.563 90.802
v 241.168 0.563 94.805
v 233.791 0.563 106.338
v 227.532 4.463 102.335
v 234.909 4.463 90.802
v 241.168 4.463 94.805
v 233.791 4.463 106.338
f 344 343 342 341
f 337 338 342 341
f 338 339 343 342
f 339 340 344 343
f 340 337 341 344
v 214.983 0.761 74.759
v 221.140 0.761 87.920
v 217.417 0.761 89.661
v 211.260 0.761 76.500
v 214.983 4.661 74.759
v 221.140 4.661 87.920
v 217.417 4.661 89.661
v 211.260 4.661 76.500
f 352 351 350 349
f 345 346 350 349
f 346 347 351 350
f 347 348 352 351
f 348 345 349 352
v 222.173 0.698 85.707
v 227.755 0.698 98.633
v 223.587 0.698 100.433
v 218.005 0.698 87.507
v 222.173 4.598 85.707
v 227.755 4.598 98.633
v 223.587 4.598 100.433
v 218.005 4.598 87.507
f 360 359 358 357
f 353 354 358 357
f 354 355 359 358
f 355 356 360 359
f 356 353 357 360
v 248.618 0.505 82.044
v 255.784 0.505 93.861
v 244.942 0.505 100.436
v 237.776 0.505 88.619
v 248.618 4.405 82.044
v 255.784 4.405 93.861
v 244.942 4.405 100.436
v 237.776 4.405 88.619
f 368 367 366 365
f 361 362 366 365
f 362 363 367 366
f 363 364 368 367
f 364 361 365 368
usemtl road
v 40.792 0.588 -164.670
v 34.982 0.575 -158.590
v 38.958 0.568 -154.790
v 44.768 0.586 -160.870
f 369 370 371 372
v 34.981 0.575 -158.589
v 7.051 0.749 -129.339
v 11.029 0.702 -125.541
v 38.959 0.568 -154.791
f 373 374 375 376
v 6.975 0.749 -129.256
v -21.925 0.722 -96.386
v -17.795 0.702 -92.754
v 11.105 0.703 -125.624
f 377 378 379 380
v -21.863 0.722 -96.454
v -65.123 0.698 -50.464
v -61.117 0.576 -46.696
v -17.857 0.703 -92.686
f 381 382 383 384
v -132.308 0.920 -253.978
v 7.176 0.725 -125.418
v 10.904 0.713 -129.462
v -128.580 0.909 -258.022
f 385 386 387 388
v 12.527 0.758 -44.780
v 79.727 0.627 -117.270
v 75.693 0.600 -121.010
v 8.493 0.879 -48.520
f 389 390 391 392
v 79.728 0.627 -117.272
v 84.968 0.627 -122.932
v 80.932 0.624 -126.668
v 75.692 0.600 -121.008
f 393 394 395 396
v -104.077 0.809 256.312
v -92.158 0.826 152.062
v -97.622 0.902 151.438
v -109.542 0.886 255.688
f 397 398 399 400
v -92.155 0.826 152.041
v -71.985 0.597 -37.679
v -77.455 0.575 -38.261
v -97.625 0.903 151.459
f 401 402 403 404
v -71.971 0.596 -38.050
v -72.591 0.662 -59.230
v -78.089 0.623 -59.070
v -77.469 0.576 -37.890
f 405 406 407 408
v -72.719 0.658 -59.982
v -77.719 0.767 -75.732
v -82.961 0.704 -74.068
v -77.961 0.629 -58.318
f 409 410 411 412
v -77.981 0.773 -76.313
v -91.121 0.827 -98.253
v -95.839 0.802 -95.427
v -82.699 0.706 -73.487
f 413 414 415 416
v -91.598 0.825 -98.845
v -146.218 0.887 -150.115
v -149.982 0.756 -146.105
v -95.362 0.802 -94.835
f 417 418 419 420
v -146.218 0.887 -150.115
v -237.428 0.705 -235.745
v -241.192 0.737 -231.735
v -149.982 0.756 -146.105
f 421 422 423 424
v 258.285 0.752 225.903
v 234.435 0.698 190.290
v 229.865 0.717 193.350
v 253.715 0.724 228.964
f 425 426 427 428
v 234.333 0.698 190.147
v 224.463 0.760 177.267
v 220.097 0.704 180.613
v 229.967 0.717 193.493
f 429 430 431 432
v 224.145 0.757 176.919
v 214.135 0.759 167.679
v 210.405 0.697 171.721
v 220.415 0.706 180.961
f 433 434 435 436
v 213.430 0.753 167.207
v 200.190 0.668 161.047
v 197.870 0.636 166.033
v 211.110 0.702 172.193
f 437 438 439 440
v 200.773 0.672 161.413
v 192.393 0.636 154.543
v 188.907 0.661 158.797
v 197.287 0.634 165.667
f 441 442 443 444
v 193.389 0.641 156.918
v 194.299 0.583 146.848
v 188.821 0.549 146.352
v 187.911 0.651 156.422
f 445 446 447 448
v 193.238 0.596 148.779
v 200.718 0.614 143.019
v 197.362 0.591 138.661
v 189.882 0.537 144.421
f 449 450 451 452
v 200.612 0.612 143.096
v 228.182 0.830 123.886
v 225.038 0.789 119.374
v 197.468 0.591 138.584
f 453 454 455 456
v 228.179 0.830 123.888
v 257.569 0.815 103.466
v 254.431 0.799 98.949
v 225.041 0.789 119.372
f 457 458 459 460
v 256.204 0.560 68.812
v 220.734 0.518 15.482
v 214.906 0.539 19.358
v 250.376 0.553 72.688
f 461 462 463 464
v 220.733 0.518 15.479
v 214.703 0.540 6.429
v 208.877 0.565 10.311
v 214.907 0.539 19.361
f 465 466 467 468
v 214.705 0.540 6.433
v 203.785 0.567 -10.007
v 197.955 0.603 -6.133
v 208.875 0.565 10.307
f 469 470 471 472
v 203.686 0.564 -10.148
v 178.876 0.662 -43.778
v 173.244 0.708 -39.622
v 198.054 0.603 -5.992
f 473 474 475 476
v -17.980 0.684 -96.577
v -190.387 1.034 -258.007
v -194.146 1.019 -253.993
v -21.740 0.674 -92.563
f 477 478 479 480
v 147.578 0.787 10.603
v 170.048 0.671 46.013
v 174.692 0.778 43.067
v 152.222 0.874 7.657
f 481 482 483 484
v 170.121 0.671 46.122
v 224.361 0.805 123.212
v 228.859 0.807 120.048
v 174.619 0.778 42.958
f 485 486 487 488
v 151.681 0.834 11.225
v 169.621 1.132 -4.025
v 166.059 0.937 -8.215
v 148.119 0.838 7.035
f 489 490 491 492
v 170.503 1.092 -5.435
v 173.833 0.856 -18.385
v 168.507 0.993 -19.755
v 165.177 0.952 -6.805
f 493 494 495 496
v 173.595 0.847 -20.367
v 166.065 0.842 -34.447
v 161.215 0.983 -31.853
v 168.745 1.013 -17.773
f 497 498 499 500
v 165.296 0.853 -35.346
v 147.976 0.982 -48.406
v 144.664 1.026 -44.014
v 161.984 0.969 -30.954
f 501 502 503 504
v 146.334 0.988 -48.960
v 136.564 0.981 -49.010
v 136.536 1.010 -43.510
v 146.306 1.023 -43.460
f 505 506 507 508
v 134.951 0.964 -48.497
v 122.951 1.048 -39.917
v 126.149 1.221 -35.443
v 138.149 0.992 -44.023
f 509 510 511 512
v 122.311 1.051 -39.276
v 114.641 1.050 -28.516
v 119.119 1.277 -25.324
v 126.789 1.199 -36.084
f 513 514 515 516
v 114.324 1.089 -25.906
v 116.474 1.026 -20.486
v 121.586 1.165 -22.514
v 119.436 1.235 -27.934
f 517 518 519 520
v 116.856 1.022 -19.816
v 124.416 0.907 -10.056
v 128.764 0.961 -13.424
v 121.204 1.220 -23.184
f 521 522 523 524
v 124.800 0.909 -9.652
v 137.740 0.865 1.438
v 141.320 0.879 -2.738
v 128.380 0.972 -13.828
f 525 526 527 528
v 137.643 0.865 1.351
v 148.013 0.785 11.131
v 151.787 0.872 7.129
v 141.417 0.881 -2.651
f 529 530 531 532
v 178.413 0.675 -44.291
v 128.303 0.713 -89.811
v 123.597 0.735 -84.629
v 173.707 0.705 -39.109
f 533 534 535 536
v 128.306 0.713 -89.809
v 122.196 0.708 -95.369
v 117.484 0.717 -90.191
v 123.594 0.735 -84.631
f 537 538 539 540
v 122.134 0.708 -95.423
v 85.244 0.604 -127.443
v 80.656 0.565 -122.157
v 117.546 0.718 -90.137
f 541 542 543 544
v 85.354 0.606 -127.344
v 45.184 0.539 -165.314
v 40.376 0.537 -160.226
v 80.546 0.565 -122.256
f 545 546 547 548
v 45.149 0.539 -165.346
v -56.246 0.595 -258.576
v -60.984 0.579 -253.424
v 40.411 0.537 -160.194
f 549 550 551 552
v 46.422 0.948 3.094
v 121.582 0.752 -78.416
v 117.538 0.783 -82.144
v 42.378 0.949 -0.634
f 553 554 555 556
v 121.583 0.752 -78.417
v 127.973 0.774 -85.357
v 123.927 0.766 -89.083
v 117.537 0.783 -82.143
f 557 558 559 560
v -255.698 0.747 187.774
v -235.458 0.120 184.224
v -236.062 1.005 180.776
v -256.302 0.949 184.327
f 561 562 563 564
v -235.220 0.120 184.164
v -133.730 0.822 151.214
v -134.810 0.841 147.886
v -236.300 1.002 180.836
f 565 566 567 568
v -134.439 0.820 151.292
v -128.669 0.853 151.852
v -128.331 0.912 148.368
v -134.101 0.850 147.808
f 569 570 571 572
v -129.151 0.841 151.734
v -121.291 1.068 154.884
v -119.989 0.938 151.636
v -127.849 0.920 148.486
f 573 574 575 576
v -120.651 1.108 155.010
v -112.441 1.014 155.060
v -112.419 0.950 151.560
v -120.629 0.936 151.510
f 577 578 579 580
v -112.275 1.013 155.053
v -94.735 0.865 153.493
v -95.045 0.876 150.007
v -112.585 0.949 151.567
f 581 582 583 584
v 218.645 0.560 18.963
v 225.265 0.625 15.423
v 223.615 0.586 12.337
v 216.995 0.567 15.877
f 585 586 587 588
v 225.266 0.625 15.423
v 255.566 0.641 -0.807
v 253.914 0.637 -3.893
v 223.614 0.586 12.337
f 589 590 591 592
v -149.202 0.866 -149.469
v -189.562 0.891 -116.739
v -187.358 1.153 -114.021
v -146.998 0.849 -146.751
f 593 594 595 596
v -189.563 0.891 -116.738
v -197.773 0.894 -110.068
v -195.567 0.957 -107.352
v -187.357 1.153 -114.022
f 597 598 599 600
v -198.069 0.895 -109.761
v -207.369 0.744 -97.381
v -204.571 0.801 -95.279
v -195.271 0.956 -107.659
f 601 602 603 604
v -207.655 0.736 -96.802
v -215.965 0.792 -67.132
v -212.595 0.832 -66.188
v -204.285 0.803 -95.858
f 605 606 607 608
v -216.006 0.793 -66.947
v -224.436 0.693 -16.207
v -220.984 0.692 -15.633
v -212.554 0.833 -66.373
f 609 610 611 612
v -224.459 0.696 -15.975
v -225.119 0.675 5.095
v -221.621 0.684 5.205
v -220.961 0.692 -15.865
f 613 614 615 616
v -225.115 0.675 5.279
v -223.595 0.538 25.809
v -220.105 0.559 25.551
v -221.625 0.685 5.021
f 617 618 619 620
v -223.592 0.537 25.516
v -224.152 0.528 31.466
v -220.668 0.541 31.794
v -220.108 0.558 25.844
f 621 622 623 624
v -240.866 0.793 -234.541
v -257.556 0.863 -202.145
v -254.444 0.903 -200.542
v -237.754 0.809 -232.939
f 625 626 627 628
v -256.944 1.086 -168.937
v -234.494 1.013 -154.547
v -232.606 1.006 -157.493
v -255.056 1.060 -171.884
f 629 630 631 632
v -234.492 1.013 -154.545
v -231.892 0.994 -152.885
v -230.008 0.984 -155.835
v -232.608 1.006 -157.495
f 633 634 635 636
v -232.084 0.995 -153.027
v -214.024 0.911 -137.657
v -211.756 0.857 -140.323
v -229.816 0.983 -155.693
f 637 638 639 640
v -214.506 0.912 -138.318
v -210.376 0.924 -128.388
v -207.144 0.884 -129.732
v -211.274 0.856 -139.662
f 641 642 643 644
v -209.738 0.914 -127.609
v -189.438 1.017 -113.929
v -187.482 0.913 -116.831
v -207.782 0.887 -130.511
f 645 646 647 648
v -113.841 0.929 254.245
v -139.021 1.315 252.385
v -139.279 1.331 255.875
v -114.099 0.919 257.735
f 649 650 651 652
v -137.499 1.284 254.711
v -125.799 1.369 221.451
v -129.101 1.374 220.289
v -140.801 1.353 253.549
f 653 654 655 656
v -125.859 1.370 221.598
v -110.499 1.393 188.018
v -113.681 1.423 186.562
v -129.041 1.374 220.142
f 657 658 659 660
v -73.962 0.599 -256.834
v -77.588 0.651 -250.144
v -74.512 0.654 -248.476
v -70.885 0.560 -255.166
f 661 662 663 664
v -77.795 0.644 -249.179
v -77.185 0.783 -241.079
v -73.695 0.831 -241.341
v -74.305 0.646 -249.441
f 665 666 667 668
v -254.651 0.872 -127.759
v -232.201 0.992 -154.905
v -234.899 1.009 -157.135
v -257.349 0.864 -129.989
f 669 670 671 672
v 127.167 0.776 -85.963
v 132.167 0.751 -90.803
v 129.733 0.746 -93.317
v 124.733 0.766 -88.477
f 673 674 675 676
v 132.146 0.750 -90.782
v 141.526 0.699 -99.562
v 139.134 0.683 -102.118
v 129.754 0.747 -93.338
f 677 678 679 680
v 139.941 0.709 -99.134
v 156.121 0.693 -95.444
v 156.899 0.697 -98.856
v 140.719 0.689 -102.546
f 681 682 683 684
v 155.669 0.694 -95.615
v 183.139 0.756 -80.565
v 184.821 0.737 -83.635
v 157.351 0.697 -98.685
f 685 686 687 688
v 182.864 0.755 -80.752
v 208.854 0.743 -59.222
v 211.086 0.774 -61.918
v 185.096 0.739 -83.448
f 689 690 691 692
v 208.769 0.743 -59.297
v 228.359 0.671 -40.817
v 230.761 0.774 -43.363
v 211.171 0.775 -61.843
f 693 694 695 696
v 228.257 0.670 -40.922
v 234.867 0.750 -33.552
v 237.473 0.701 -35.888
v 230.863 0.773 -43.258
f 697 698 699 700
v 234.425 0.734 -34.850
v 233.645 0.845 -24.400
v 237.135 0.840 -24.140
v 237.915 0.698 -34.590
f 701 702 703 704
v 233.802 0.841 -25.005
v 227.202 0.892 -10.735
v 230.378 0.759 -9.265
v 236.978 0.848 -23.535
f 705 706 707 708
v 227.498 0.896 -11.180
v 215.498 0.597 1.960
v 218.082 0.623 4.320
v 230.082 0.754 -8.820
f 709 710 711 712
v 215.525 0.599 1.931
v 210.525 0.592 7.161
v 213.055 0.578 9.579
v 218.055 0.621 4.349
f 713 714 715 716
usemtl asphalt
