# Baked ultra-low Key West silhouette; generated by bake_key_west_far_city.py
mtllib far_city.mtl
usemtl massing
v -196.872 0.542 159.446
v -169.860 0.542 190.090
v -184.068 0.542 202.614
v -211.080 0.542 171.970
v -196.872 4.042 159.446
v -169.860 4.042 190.090
v -184.068 4.042 202.614
v -211.080 4.042 171.970
f 8 7 6 5
f 1 2 6 5
f 2 3 7 6
f 3 4 8 7
f 4 1 5 8
v -3.609 0.512 243.151
v 9.682 0.512 257.961
v 4.769 0.512 262.369
v -8.522 0.512 247.559
v -3.609 4.412 243.151
v 9.682 4.412 257.961
v 4.769 4.412 262.369
v -8.522 4.412 247.559
f 16 15 14 13
f 9 10 14 13
f 10 11 15 14
f 11 12 16 15
f 12 9 13 16
v -125.942 0.964 180.019
v -114.679 0.964 169.811
v -108.198 0.964 176.961
v -119.461 0.964 187.169
v -125.942 7.764 180.019
v -114.679 7.764 169.811
v -108.198 7.764 176.961
v -119.461 7.764 187.169
f 24 23 22 21
f 17 18 22 21
f 18 19 23 22
f 19 20 24 23
f 20 17 21 24
v -106.859 0.824 103.314
v -106.323 0.824 89.054
v -95.361 0.824 89.466
v -95.897 0.824 103.726
v -106.859 4.724 103.314
v -106.323 4.724 89.054
v -95.361 4.724 89.466
v -95.897 4.724 103.726
f 32 31 30 29
f 25 26 30 29
f 26 27 31 30
f 27 28 32 31
f 28 25 29 32
v -184.231 1.006 75.169
v -166.918 1.006 107.721
v -180.549 1.006 114.971
v -197.862 1.006 82.419
v -184.231 4.906 75.169
v -166.918 4.906 107.721
v -180.549 4.906 114.971
v -197.862 4.906 82.419
f 40 39 38 37
f 33 34 38 37
f 34 35 39 38
f 35 36 40 39
f 36 33 37 40
v -183.720 0.759 189.708
v -160.590 0.759 214.655
v -181.100 0.759 233.672
v -204.230 0.759 208.725
v -183.720 6.559 189.708
v -160.590 6.559 214.655
v -181.100 6.559 233.672
v -204.230 6.559 208.725
f 48 47 46 45
f 41 42 46 45
f 42 43 47 46
f 43 44 48 47
f 44 41 45 48
v -76.589 0.809 207.730
v -69.267 0.809 215.751
v -74.371 0.809 220.410
v -81.693 0.809 212.389
v -76.589 4.709 207.730
v -69.267 4.709 215.751
v -74.371 4.709 220.410
v -81.693 4.709 212.389
f 56 55 54 53
f 49 50 54 53
f 50 51 55 54
f 51 52 56 55
f 52 49 53 56
v -42.000 0.567 168.552
v -31.989 0.567 179.343
v -39.840 0.567 186.628
v -49.851 0.567 175.837
v -42.000 4.467 168.552
v -31.989 4.467 179.343
v -39.840 4.467 186.628
v -49.851 4.467 175.837
f 64 63 62 61
f 57 58 62 61
f 58 59 63 62
f 59 60 64 63
f 60 57 61 64
v -23.729 0.753 82.835
v -15.059 0.753 78.485
v -9.651 0.753 89.265
v -18.321 0.753 93.615
v -23.729 4.653 82.835
v -15.059 4.653 78.485
v -9.651 4.653 89.265
v -18.321 4.653 93.615
f 72 71 70 69
f 65 66 70 69
f 66 67 71 70
f 67 68 72 71
f 68 65 69 72
v 17.048 0.180 237.422
v 27.214 0.180 248.615
v 22.432 0.180 252.958
v 12.266 0.180 241.765
v 17.048 4.080 237.422
v 27.214 4.080 248.615
v 22.432 4.080 252.958
v 12.266 4.080 241.765
f 80 79 78 77
f 73 74 78 77
f 74 75 79 78
f 75 76 80 79
f 76 73 77 80
v -17.976 0.214 161.593
v -13.472 0.214 156.661
v -11.604 0.214 158.367
v -16.108 0.214 163.299
v -17.976 4.114 161.593
v -13.472 4.114 156.661
v -11.604 4.114 158.367
v -16.108 4.114 163.299
f 88 87 86 85
f 81 82 86 85
f 82 83 87 86
f 83 84 88 87
f 84 81 85 88
v -22.318 0.164 164.124
v -16.318 0.164 160.252
v -14.702 0.164 162.756
v -20.702 0.164 166.628
v -22.318 4.064 164.124
v -16.318 4.064 160.252
v -14.702 4.064 162.756
v -20.702 4.064 166.628
f 96 95 94 93
f 89 90 94 93
f 90 91 95 94
f 91 92 96 95
f 92 89 93 96
v -27.934 0.111 165.007
v -21.438 0.111 165.926
v -21.906 0.111 169.233
v -28.402 0.111 168.314
v -27.934 4.011 165.007
v -21.438 4.011 165.926
v -21.906 4.011 169.233
v -28.402 4.011 168.314
f 104 103 102 101
f 97 98 102 101
f 98 99 103 102
f 99 100 104 103
f 100 97 101 104
v -197.205 0.462 145.588
v -196.483 0.462 171.668
v -216.895 0.462 172.232
v -217.617 0.462 146.152
v -197.205 4.362 145.588
v -196.483 4.362 171.668
v -216.895 4.362 172.232
v -217.617 4.362 146.152
f 112 111 110 109
f 105 106 110 109
f 106 107 111 110
f 107 108 112 111
f 108 105 109 112
v -222.392 0.790 228.372
v -205.394 0.790 246.183
v -213.048 0.790 253.488
v -230.046 0.790 235.677
v -222.392 4.690 228.372
v -205.394 4.690 246.183
v -213.048 4.690 253.488
v -230.046 4.690 235.677
f 120 119 118 117
f 113 114 118 117
f 114 115 119 118
f 115 116 120 119
f 116 113 117 120
v -246.154 0.460 196.803
v -234.539 0.460 210.528
v -237.646 0.460 213.157
v -249.261 0.460 199.432
v -246.154 4.360 196.803
v -234.539 4.360 210.528
v -237.646 4.360 213.157
v -249.261 4.360 199.432
f 128 127 126 125
f 121 122 126 125
f 122 123 127 126
f 123 124 128 127
f 124 121 125 128
v -229.952 0.505 179.736
v -218.029 0.505 193.101
v -221.148 0.505 195.884
v -233.071 0.505 182.519
v -229.952 4.405 179.736
v -218.029 4.405 193.101
v -221.148 4.405 195.884
v -233.071 4.405 182.519
f 136 135 134 133
f 129 130 134 133
f 130 131 135 134
f 131 132 136 135
f 132 129 133 136
v -263.513 0.496 194.906
v -247.767 0.496 185.758
v -245.747 0.496 189.234
v -261.493 0.496 198.382
v -263.513 4.396 194.906
v -247.767 4.396 185.758
v -245.747 4.396 189.234
v -261.493 4.396 198.382
f 144 143 142 141
f 137 138 142 141
f 138 139 143 142
f 139 140 144 143
f 140 137 141 144
v -249.971 0.375 178.709
v -233.506 0.375 170.744
v -231.529 0.375 174.831
v -247.994 0.375 182.796
v -249.971 4.275 178.709
v -233.506 4.275 170.744
v -231.529 4.275 174.831
v -247.994 4.275 182.796
f 152 151 150 149
f 145 146 150 149
f 146 147 151 150
f 147 148 152 151
f 148 145 149 152
v -232.502 0.377 162.625
v -218.645 0.377 156.779
v -217.238 0.377 160.115
v -231.095 0.377 165.961
v -232.502 4.277 162.625
v -218.645 4.277 156.779
v -217.238 4.277 160.115
v -231.095 4.277 165.961
f 160 159 158 157
f 153 154 158 157
f 154 155 159 158
f 155 156 160 159
f 156 153 157 160
v -233.355 0.375 167.689
v -221.436 0.375 163.573
v -220.525 0.375 166.211
v -232.444 0.375 170.327
v -233.355 4.275 167.689
v -221.436 4.275 163.573
v -220.525 4.275 166.211
v -232.444 4.275 170.327
f 168 167 166 165
f 161 162 166 165
f 162 163 167 166
f 163 164 168 167
f 164 161 165 168
v -229.208 0.428 171.353
v -223.711 0.428 169.182
v -222.792 0.428 171.507
v -228.289 0.428 173.678
v -229.208 4.328 171.353
v -223.711 4.328 169.182
v -222.792 4.328 171.507
v -228.289 4.328 173.678
f 176 175 174 173
f 169 170 174 173
f 170 171 175 174
f 171 172 176 175
f 172 169 173 176
v -166.923 0.835 27.870
v -160.333 0.835 27.930
v -160.377 0.835 32.750
v -166.967 0.835 32.690
v -166.923 4.735 27.870
v -160.333 4.735 27.930
v -160.377 4.735 32.750
v -166.967 4.735 32.690
f 184 183 182 181
f 177 178 182 181
f 178 179 183 182
f 179 180 184 183
f 180 177 181 184
usemtl road
v -219.747 0.611 109.800
v -222.277 0.539 122.980
v -215.403 0.544 124.300
v -212.873 0.617 111.120
f 185 186 187 188
v -218.450 0.679 17.542
v -219.060 0.605 110.442
v -213.560 0.617 110.478
v -212.950 0.576 17.578
f 189 190 191 192
v -231.117 0.527 111.991
v -216.537 0.595 113.201
v -216.083 0.603 107.719
v -230.663 0.513 106.509
f 193 194 195 196
v -214.429 0.528 -46.440
v -225.189 0.555 -46.510
v -225.211 0.559 -43.010
v -214.451 0.533 -42.940
f 197 198 199 200
v -193.457 1.026 254.894
v -164.777 0.989 224.394
v -168.783 0.963 220.626
v -197.463 0.959 251.126
f 201 202 203 204
v -164.769 0.989 224.386
v -137.309 0.734 194.946
v -141.331 0.772 191.194
v -168.791 0.963 220.634
f 205 206 207 208
v -137.309 0.734 194.945
v -131.109 0.713 188.295
v -135.131 0.719 184.545
v -141.331 0.772 191.195
f 209 210 211 212
v -63.989 0.559 246.304
v -130.729 0.694 183.864
v -135.511 0.676 188.976
v -68.771 0.547 251.416
f 213 214 215 216
v -130.760 0.694 183.836
v -193.970 0.595 126.106
v -198.690 0.586 131.274
v -135.480 0.676 189.004
f 217 218 219 220
v -193.971 0.595 126.104
v -213.951 0.584 107.874
v -218.669 0.558 113.046
v -198.689 0.586 131.276
f 221 222 223 224
v -214.453 0.533 -42.940
v -201.053 0.645 -42.840
v -201.027 0.715 -46.340
v -214.427 0.528 -46.440
f 225 226 227 228
v -202.657 0.647 -43.921
v -199.207 0.665 -35.581
v -195.973 0.668 -36.919
v -199.423 0.658 -45.259
f 229 230 231 232
v -198.451 0.676 -34.726
v -191.741 1.067 -30.936
v -190.019 0.979 -33.984
v -196.729 0.655 -37.774
f 233 234 235 236
v -190.836 1.142 -30.711
v -147.376 0.652 -31.811
v -147.464 0.677 -35.309
v -190.924 0.919 -34.209
f 237 238 239 240
v -107.195 0.752 49.473
v -99.355 0.844 45.153
v -101.045 0.893 42.087
v -108.885 0.759 46.407
f 241 242 243 244
v -99.987 0.835 45.357
v -75.797 0.806 42.387
v -76.223 0.808 38.913
v -100.413 0.894 41.883
f 245 246 247 248
v -171.151 0.973 114.511
v -163.421 1.056 104.221
v -166.219 1.106 102.119
v -173.949 1.013 112.409
f 249 250 251 252
v -163.109 1.063 103.537
v -157.819 1.020 78.847
v -161.241 1.023 78.113
v -166.531 1.104 102.803
f 253 254 255 256
v -159.562 1.024 80.230
v -137.432 1.007 80.630
v -137.368 0.991 77.130
v -159.498 1.010 76.730
f 257 258 259 260
v -137.553 1.007 80.623
v -118.003 0.896 82.343
v -117.697 0.886 78.857
v -137.247 0.991 77.137
f 261 262 263 264
v -117.768 0.894 82.348
v -107.308 0.863 81.858
v -107.472 0.822 78.362
v -117.932 0.889 78.852
f 265 266 267 268
v -106.368 0.862 81.531
v -98.178 0.693 75.641
v -100.222 0.697 72.799
v -108.412 0.833 78.689
f 269 270 271 272
v -97.463 0.653 74.006
v -99.813 0.757 54.946
v -103.287 0.736 55.374
v -100.937 0.730 74.434
f 273 274 275 276
v -100.249 0.752 53.990
v -106.739 0.748 46.770
v -109.341 0.772 49.110
v -102.851 0.723 56.330
f 277 278 279 280
v -106.736 0.748 46.773
v -110.236 0.767 42.863
v -112.844 0.789 45.197
v -109.344 0.772 49.107
f 281 282 283 284
v -111.487 0.762 42.281
v -138.787 0.837 41.461
v -138.893 0.875 44.959
v -111.593 0.779 45.779
f 285 286 287 288
v -138.846 0.837 41.460
v -183.526 1.005 41.620
v -183.514 1.006 45.120
v -138.834 0.875 44.960
f 289 290 291 292
v -184.545 1.005 41.952
v -190.675 0.987 46.382
v -188.625 0.986 49.218
v -182.495 1.012 44.788
f 293 294 295 296
v -191.392 0.981 47.634
v -192.252 0.965 56.684
v -188.768 1.020 57.016
v -187.908 0.986 47.966
f 297 298 299 300
v -192.130 0.970 57.511
v -187.440 1.055 69.011
v -184.200 1.069 67.689
v -188.890 1.013 56.189
f 301 302 303 304
v -186.579 1.065 69.927
v -177.499 1.115 74.297
v -175.981 1.067 71.143
v -185.061 1.045 66.773
f 305 306 307 308
v -177.295 1.115 74.380
v -160.085 1.024 80.140
v -158.975 1.008 76.820
v -176.185 1.068 71.060
f 309 310 311 312
v -85.707 0.725 108.069
v -88.317 0.633 89.289
v -91.783 0.714 89.771
v -89.173 0.760 108.551
f 313 314 315 316
v -88.548 0.638 88.632
v -97.698 0.653 73.322
v -100.702 0.738 75.118
v -91.552 0.709 90.428
f 317 318 319 320
v -71.888 0.641 164.986
v -44.988 0.801 190.236
v -42.592 0.774 187.684
v -69.492 0.646 162.434
f 321 322 323 324
v -44.949 0.800 190.271
v -25.889 0.694 207.131
v -23.571 0.657 204.509
v -42.631 0.775 187.649
f 325 326 327 328
v -25.342 0.693 207.460
v -17.622 0.621 210.340
v -16.398 0.584 207.060
v -24.118 0.664 204.180
f 329 330 331 332
v -17.548 0.621 210.365
v -7.788 0.499 213.515
v -6.712 0.471 210.185
v -16.472 0.585 207.035
f 333 334 335 336
v -195.132 0.631 129.965
v -190.002 0.624 125.145
v -192.398 0.622 122.595
v -197.528 0.624 127.415
f 337 338 339 340
v -190.001 0.624 125.145
v -183.461 0.850 118.995
v -185.859 0.899 116.445
v -192.399 0.622 122.595
f 341 342 343 344
v -184.079 0.839 119.371
v -171.969 0.973 115.111
v -173.131 1.024 111.809
v -185.241 0.922 116.069
f 345 346 347 348
v -173.639 0.987 114.830
v -167.139 0.935 120.000
v -164.961 0.973 117.260
v -171.461 1.015 112.090
f 349 350 351 352
v -167.205 0.936 119.945
v -146.865 1.039 137.815
v -144.555 1.020 135.185
v -164.895 0.974 117.315
f 353 354 355 356
v -146.909 1.039 137.775
v -117.519 0.981 165.415
v -115.121 0.949 162.865
v -144.511 1.020 135.225
f 357 358 359 360
v -116.237 0.972 165.888
v -100.887 0.756 165.158
v -101.053 0.747 161.662
v -116.403 0.954 162.392
f 361 362 363 364
v -100.987 0.758 165.160
v -70.707 0.640 165.460
v -70.673 0.645 161.960
v -100.953 0.745 161.660
f 365 366 367 368
v -70.558 0.639 165.455
v -52.208 0.676 164.065
v -52.472 0.609 160.575
v -70.822 0.643 161.965
f 369 370 371 372
v -52.602 0.670 164.050
v -42.432 0.675 165.590
v -41.908 0.620 162.130
v -52.078 0.612 160.590
f 373 374 375 376
v -43.289 0.665 165.206
v -31.529 0.657 174.986
v -29.291 0.511 172.294
v -41.051 0.634 162.514
f 377 378 379 380
v -31.685 0.661 174.838
v -15.745 0.488 191.798
v -13.195 0.443 189.402
v -29.135 0.508 172.442
f 381 382 383 384
v -15.957 0.488 191.522
v -9.227 0.420 202.372
v -6.253 0.422 200.528
v -12.983 0.440 189.678
f 385 386 387 388
v -9.488 0.417 201.532
v -8.998 0.486 211.932
v -5.502 0.486 211.768
v -5.992 0.432 201.368
f 389 390 391 392
v -8.999 0.486 211.789
v -9.469 0.632 225.159
v -5.971 0.692 225.281
v -5.501 0.488 211.911
f 393 394 395 396
v -8.913 0.618 223.939
v -24.623 0.853 238.569
v -22.237 0.885 241.131
v -6.527 0.713 226.501
f 397 398 399 400
v -23.747 0.849 238.129
v -31.617 0.855 239.579
v -30.983 0.886 243.021
v -23.113 0.897 241.571
f 401 402 403 404
v -30.562 0.854 239.713
v -42.902 0.955 233.973
v -44.378 0.959 237.147
v -32.038 0.876 242.887
f 405 406 407 408
v -42.393 0.954 234.332
v -68.863 0.920 207.452
v -71.357 0.955 209.908
v -44.887 0.964 236.788
f 409 410 411 412
v -68.960 0.919 207.361
v -106.540 0.908 174.611
v -108.840 1.031 177.249
v -71.260 0.955 209.999
f 413 414 415 416
v -106.278 0.907 174.896
v -114.908 0.950 163.106
v -117.732 0.980 165.174
v -109.102 1.052 176.964
f 417 418 419 420
v -165.480 1.061 104.791
v -149.350 0.926 111.361
v -148.030 0.964 108.119
v -164.160 1.086 101.549
f 421 422 423 424
v -148.649 0.916 111.490
v -87.399 0.755 110.060
v -87.481 0.713 106.560
v -148.731 0.969 107.990
f 425 426 427 428
v -87.572 0.756 110.055
v -68.422 0.717 111.505
v -68.158 0.679 108.015
v -87.308 0.711 106.565
f 429 430 431 432
v -68.022 0.718 111.489
v -55.392 0.750 109.529
v -55.928 0.707 106.071
v -68.558 0.679 108.031
f 433 434 435 436
v -54.523 0.751 109.130
v 0.597 0.831 62.020
v -1.677 0.817 59.360
v -56.797 0.711 106.470
f 437 438 439 440
v 0.719 0.830 61.906
v 8.369 0.812 53.986
v 5.851 0.793 51.554
v -1.799 0.818 59.474
f 441 442 443 444
v 8.541 0.807 53.777
v 18.671 0.729 39.377
v 15.809 0.716 37.363
v 5.679 0.797 51.763
f 445 446 447 448
v 18.206 0.735 39.829
v 24.886 0.699 35.409
v 22.954 0.687 32.491
v 16.274 0.717 36.911
f 449 450 451 452
v 23.821 0.698 35.697
v 34.261 0.674 36.287
v 34.459 0.682 32.793
v 24.019 0.683 32.203
f 453 454 455 456
v 32.901 0.686 35.506
v 37.481 0.652 42.426
v 40.399 0.651 40.494
v 35.819 0.673 33.574
f 457 458 459 460
v 37.236 0.663 41.063
v 35.856 0.637 46.993
v 39.264 0.636 47.787
v 40.644 0.634 41.857
f 461 462 463 464
v 36.396 0.636 46.084
v 10.336 0.858 69.314
v 12.664 0.827 71.926
v 38.724 0.642 48.696
f 465 466 467 468
v 10.211 0.859 69.436
v -29.399 0.807 112.576
v -26.821 0.764 114.944
v 12.789 0.826 71.804
f 469 470 471 472
v -29.305 0.807 112.482
v -40.505 0.872 122.952
v -38.115 0.761 125.508
v -26.915 0.763 115.038
f 473 474 475 476
v -40.159 0.867 122.700
v -48.609 0.876 127.390
v -46.911 0.790 130.450
v -38.461 0.762 125.760
f 477 478 479 480
v -47.954 0.876 127.181
v -64.114 0.894 128.981
v -63.726 0.840 132.459
v -47.566 0.793 130.659
f 481 482 483 484
v -63.925 0.893 128.970
v -131.425 1.007 129.150
v -131.415 0.956 132.650
v -63.915 0.840 132.470
f 485 486 487 488
v -131.572 1.007 129.157
v -138.782 0.998 129.787
v -138.478 0.974 133.273
v -131.268 0.956 132.643
f 489 490 491 492
v -139.635 1.001 130.098
v -146.715 1.024 135.068
v -144.705 1.033 137.932
v -137.625 0.973 132.962
f 493 494 495 496
v -98.359 0.700 75.755
v -84.749 0.120 68.295
v -86.431 0.120 65.225
v -100.041 0.694 72.685
f 497 498 499 500
v -192.629 0.929 -32.506
v -193.419 0.818 -2.566
v -189.921 0.989 -2.474
v -189.131 1.192 -32.414
f 501 502 503 504
v -199.290 0.641 -44.573
v -199.190 0.565 -55.173
v -202.690 0.536 -55.207
v -202.790 0.643 -44.607
f 505 506 507 508
v -199.190 0.565 -55.175
v -199.110 0.481 -64.305
v -202.610 0.552 -64.335
v -202.690 0.536 -55.205
f 509 510 511 512
v -199.872 0.508 -65.764
v -203.292 0.612 -68.104
v -205.268 0.685 -65.216
v -201.848 0.526 -62.876
f 513 514 515 516
v -204.348 0.581 -68.409
v -214.378 0.451 -68.019
v -214.242 0.499 -64.521
v -204.212 0.635 -64.911
f 517 518 519 520
v -216.060 0.511 -66.282
v -216.130 0.557 -55.642
v -212.630 0.562 -55.618
v -212.560 0.459 -66.258
f 521 522 523 524
v -216.130 0.557 -55.640
v -216.190 0.531 -44.700
v -212.690 0.542 -44.680
v -212.630 0.562 -55.620
f 525 526 527 528
v -214.437 0.540 -53.881
v -200.997 0.554 -53.441
v -200.883 0.589 -56.939
v -214.323 0.547 -57.379
f 529 530 531 532
v -216.190 0.531 -44.725
v -216.370 0.522 -35.705
v -212.870 0.564 -35.635
v -212.690 0.542 -44.655
f 533 534 535 536
v -216.370 0.522 -35.705
v -217.450 0.676 17.525
v -213.950 0.613 17.595
v -212.870 0.564 -35.635
f 537 538 539 540
v -255.679 0.359 -226.070
v -231.219 0.352 -230.630
v -231.861 0.348 -234.070
v -256.321 0.375 -229.510
f 541 542 543 544
v -229.811 0.362 -232.619
v -233.487 0.416 -256.269
v -236.945 0.376 -255.731
v -233.269 0.337 -232.081
f 545 546 547 548
v -67.687 0.593 247.696
v -73.237 0.559 253.926
v -70.623 0.549 256.254
v -65.073 0.600 250.024
f 549 550 551 552
usemtl asphalt
