# Baked ultra-low Key West silhouette; generated by bake_key_west_far_city.py
mtllib far_city.mtl
usemtl massing
v -34.401 1.447 85.547
v -17.647 1.447 88.368
v -19.379 1.447 98.653
v -36.133 1.447 95.832
v -34.401 5.347 85.547
v -17.647 5.347 88.368
v -19.379 5.347 98.653
v -36.133 5.347 95.832
f 8 7 6 5
f 1 2 6 5
f 2 3 7 6
f 3 4 8 7
f 4 1 5 8
v 83.560 1.807 -224.485
v 106.666 1.807 -222.088
v 104.400 1.807 -200.235
v 81.294 1.807 -202.632
v 83.560 8.107 -224.485
v 106.666 8.107 -222.088
v 104.400 8.107 -200.235
v 81.294 8.107 -202.632
f 16 15 14 13
f 9 10 14 13
f 10 11 15 14
f 11 12 16 15
f 12 9 13 16
v -100.223 2.160 -108.446
v -94.326 2.160 -133.706
v -73.457 2.160 -128.834
v -79.354 2.160 -103.574
v -100.223 5.660 -108.446
v -94.326 5.660 -133.706
v -73.457 5.660 -128.834
v -79.354 5.660 -103.574
f 24 23 22 21
f 17 18 22 21
f 18 19 23 22
f 19 20 24 23
f 20 17 21 24
v -142.731 1.139 -187.629
v -124.498 1.139 -179.122
v -131.389 1.139 -164.351
v -149.622 1.139 -172.858
v -142.731 7.439 -187.629
v -124.498 7.439 -179.122
v -131.389 7.439 -164.351
v -149.622 7.439 -172.858
f 32 31 30 29
f 25 26 30 29
f 26 27 31 30
f 27 28 32 31
f 28 25 29 32
v 229.852 1.210 -254.103
v 244.877 1.210 -268.904
v 256.548 1.210 -257.057
v 241.523 1.210 -242.256
v 229.852 7.510 -254.103
v 244.877 7.510 -268.904
v 256.548 7.510 -257.057
v 241.523 7.510 -242.256
f 40 39 38 37
f 33 34 38 37
f 34 35 39 38
f 35 36 40 39
f 36 33 37 40
v 207.285 0.966 -238.379
v 226.271 0.966 -231.689
v 220.235 0.966 -214.561
v 201.249 0.966 -221.251
v 207.285 4.866 -238.379
v 226.271 4.866 -231.689
v 220.235 4.866 -214.561
v 201.249 4.866 -221.251
f 48 47 46 45
f 41 42 46 45
f 42 43 47 46
f 43 44 48 47
f 44 41 45 48
v 188.259 0.950 -210.318
v 196.781 0.950 -226.468
v 210.021 0.950 -219.482
v 201.499 0.950 -203.332
v 188.259 4.850 -210.318
v 196.781 4.850 -226.468
v 210.021 4.850 -219.482
v 201.499 4.850 -203.332
f 56 55 54 53
f 49 50 54 53
f 50 51 55 54
f 51 52 56 55
f 52 49 53 56
v 175.518 0.913 -197.699
v 182.241 0.913 -217.372
v 197.722 0.913 -212.081
v 190.999 0.913 -192.408
v 175.518 4.813 -197.699
v 182.241 4.813 -217.372
v 197.722 4.813 -212.081
v 190.999 4.813 -192.408
f 64 63 62 61
f 57 58 62 61
f 58 59 63 62
f 59 60 64 63
f 60 57 61 64
v 160.058 0.755 -188.582
v 176.557 0.755 -203.270
v 187.322 0.755 -191.178
v 170.823 0.755 -176.490
v 160.058 4.655 -188.582
v 176.557 4.655 -203.270
v 187.322 4.655 -191.178
v 170.823 4.655 -176.490
f 72 71 70 69
f 65 66 70 69
f 66 67 71 70
f 67 68 72 71
f 68 65 69 72
v 156.287 0.879 -186.909
v 166.601 0.879 -178.640
v 159.313 0.879 -169.551
v 148.999 0.879 -177.820
v 156.287 4.779 -186.909
v 166.601 4.779 -178.640
v 159.313 4.779 -169.551
v 148.999 4.779 -177.820
f 80 79 78 77
f 73 74 78 77
f 74 75 79 78
f 75 76 80 79
f 76 73 77 80
v 138.258 0.860 -184.250
v 153.210 0.860 -173.407
v 142.842 0.860 -159.110
v 127.890 0.860 -169.953
v 138.258 4.760 -184.250
v 153.210 4.760 -173.407
v 142.842 4.760 -159.110
v 127.890 4.760 -169.953
f 88 87 86 85
f 81 82 86 85
f 82 83 87 86
f 83 84 88 87
f 84 81 85 88
v 108.044 0.928 -160.355
v 114.607 0.928 -180.387
v 127.616 0.928 -176.125
v 121.053 0.928 -156.093
v 108.044 4.828 -160.355
v 114.607 4.828 -180.387
v 127.616 4.828 -176.125
v 121.053 4.828 -156.093
f 96 95 94 93
f 89 90 94 93
f 90 91 95 94
f 91 92 96 95
f 92 89 93 96
v 217.527 0.895 -235.716
v 224.674 0.895 -255.813
v 240.333 0.895 -250.244
v 233.186 0.895 -230.147
v 217.527 4.795 -235.716
v 224.674 4.795 -255.813
v 240.333 4.795 -250.244
v 233.186 4.795 -230.147
f 104 103 102 101
f 97 98 102 101
f 98 99 103 102
f 99 100 104 103
f 100 97 101 104
v 121.224 0.929 -245.477
v 131.451 0.929 -262.583
v 147.476 0.929 -253.003
v 137.249 0.929 -235.897
v 121.224 4.829 -245.477
v 131.451 4.829 -262.583
v 147.476 4.829 -253.003
v 137.249 4.829 -235.897
f 112 111 110 109
f 105 106 110 109
f 106 107 111 110
f 107 108 112 111
f 108 105 109 112
v 112.450 0.918 -245.872
v 127.283 0.918 -233.307
v 120.270 0.918 -225.028
v 105.437 0.918 -237.593
v 112.450 4.818 -245.872
v 127.283 4.818 -233.307
v 120.270 4.818 -225.028
v 105.437 4.818 -237.593
f 120 119 118 117
f 113 114 118 117
f 114 115 119 118
f 115 116 120 119
f 116 113 117 120
v -73.953 1.406 -266.421
v -60.955 1.406 -251.313
v -74.547 1.406 -239.619
v -87.545 1.406 -254.727
v -73.953 5.306 -266.421
v -60.955 5.306 -251.313
v -74.547 5.306 -239.619
v -87.545 5.306 -254.727
f 128 127 126 125
f 121 122 126 125
f 122 123 127 126
f 123 124 128 127
f 124 121 125 128
v -74.369 1.429 -234.697
v -68.523 1.429 -249.623
v -52.591 1.429 -243.383
v -58.437 1.429 -228.457
v -74.369 5.329 -234.697
v -68.523 5.329 -249.623
v -52.591 5.329 -243.383
v -58.437 5.329 -228.457
f 136 135 134 133
f 129 130 134 133
f 130 131 135 134
f 131 132 136 135
f 132 129 133 136
v -59.846 1.014 -224.726
v -48.342 1.014 -237.133
v -39.154 1.014 -228.614
v -50.658 1.014 -216.207
v -59.846 4.914 -224.726
v -48.342 4.914 -237.133
v -39.154 4.914 -228.614
v -50.658 4.914 -216.207
f 144 143 142 141
f 137 138 142 141
f 138 139 143 142
f 139 140 144 143
f 140 137 141 144
v -40.641 1.130 -224.026
v -27.524 1.130 -212.947
v -36.539 1.130 -202.274
v -49.656 1.130 -213.353
v -40.641 5.030 -224.026
v -27.524 5.030 -212.947
v -36.539 5.030 -202.274
v -49.656 5.030 -213.353
f 152 151 150 149
f 145 146 150 149
f 146 147 151 150
f 147 148 152 151
f 148 145 149 152
v -30.943 1.087 -213.283
v -10.286 1.087 -201.665
v -19.457 1.087 -185.357
v -40.114 1.087 -196.975
v -30.943 4.987 -213.283
v -10.286 4.987 -201.665
v -19.457 4.987 -185.357
v -40.114 4.987 -196.975
f 160 159 158 157
f 153 154 158 157
f 154 155 159 158
f 155 156 160 159
f 156 153 157 160
v -28.202 1.169 -187.934
v -3.487 1.169 -196.072
v 3.522 1.169 -174.786
v -21.193 1.169 -166.648
v -28.202 5.069 -187.934
v -3.487 5.069 -196.072
v 3.522 5.069 -174.786
v -21.193 5.069 -166.648
f 168 167 166 165
f 161 162 166 165
f 162 163 167 166
f 163 164 168 167
f 164 161 165 168
v -58.685 1.260 -144.761
v -53.992 1.260 -165.292
v -34.515 1.260 -160.839
v -39.208 1.260 -140.308
v -58.685 5.160 -144.761
v -53.992 5.160 -165.292
v -34.515 5.160 -160.839
v -39.208 5.160 -140.308
f 176 175 174 173
f 169 170 174 173
f 170 171 175 174
f 171 172 176 175
f 172 169 173 176
v -63.211 1.368 -179.976
v -50.189 1.368 -169.457
v -59.829 1.368 -157.524
v -72.851 1.368 -168.043
v -63.211 5.268 -179.976
v -50.189 5.268 -169.457
v -59.829 5.268 -157.524
v -72.851 5.268 -168.043
f 184 183 182 181
f 177 178 182 181
f 178 179 183 182
f 179 180 184 183
f 180 177 181 184
v -66.712 1.197 -195.153
v -59.739 1.197 -169.090
v -77.388 1.197 -164.367
v -84.361 1.197 -190.430
v -66.712 5.097 -195.153
v -59.739 5.097 -169.090
v -77.388 5.097 -164.367
v -84.361 5.097 -190.430
f 192 191 190 189
f 185 186 190 189
f 186 187 191 190
f 187 188 192 191
f 188 185 189 192
v -90.534 1.251 -206.719
v -74.562 1.251 -207.232
v -74.026 1.251 -190.521
v -89.998 1.251 -190.008
v -90.534 5.151 -206.719
v -74.562 5.151 -207.232
v -74.026 5.151 -190.521
v -89.998 5.151 -190.008
f 200 199 198 197
f 193 194 198 197
f 194 195 199 198
f 195 196 200 199
f 196 193 197 200
v -105.277 1.426 -203.244
v -103.026 1.426 -223.157
v -86.203 1.426 -221.256
v -88.454 1.426 -201.343
v -105.277 5.326 -203.244
v -103.026 5.326 -223.157
v -86.203 5.326 -221.256
v -88.454 5.326 -201.343
f 208 207 206 205
f 201 202 206 205
f 202 203 207 206
f 203 204 208 207
f 204 201 205 208
v -122.230 1.223 -231.948
v -106.605 1.223 -240.803
v -97.430 1.223 -224.612
v -113.055 1.223 -215.757
v -122.230 5.123 -231.948
v -106.605 5.123 -240.803
v -97.430 5.123 -224.612
v -113.055 5.123 -215.757
f 216 215 214 213
f 209 210 214 213
f 210 211 215 214
f 211 212 216 215
f 212 209 213 216
v -139.177 1.152 -262.393
v -114.450 1.152 -255.171
v -119.943 1.152 -236.367
v -144.670 1.152 -243.589
v -139.177 5.052 -262.393
v -114.450 5.052 -255.171
v -119.943 5.052 -236.367
v -144.670 5.052 -243.589
f 224 223 222 221
f 217 218 222 221
f 218 219 223 222
f 219 220 224 223
f 220 217 221 224
v -197.834 1.149 -259.724
v -183.242 1.149 -247.338
v -194.566 1.149 -233.996
v -209.158 1.149 -246.382
v -197.834 5.049 -259.724
v -183.242 5.049 -247.338
v -194.566 5.049 -233.996
v -209.158 5.049 -246.382
f 232 231 230 229
f 225 226 230 229
f 226 227 231 230
f 227 228 232 231
f 228 225 229 232
v -194.128 1.551 -245.665
v -171.688 1.551 -240.806
v -175.792 1.551 -221.855
v -198.232 1.551 -226.714
v -194.128 5.451 -245.665
v -171.688 5.451 -240.806
v -175.792 5.451 -221.855
v -198.232 5.451 -226.714
f 240 239 238 237
f 233 234 238 237
f 234 235 239 238
f 235 236 240 239
f 236 233 237 240
v -174.002 1.152 -215.460
v -149.729 1.152 -214.895
v -150.218 1.152 -193.880
v -174.491 1.152 -194.445
v -174.002 5.052 -215.460
v -149.729 5.052 -214.895
v -150.218 5.052 -193.880
v -174.491 5.052 -194.445
f 248 247 246 245
f 241 242 246 245
f 242 243 247 246
f 243 244 248 247
f 244 241 245 248
v -175.206 1.246 -227.958
v -162.529 1.246 -217.507
v -171.734 1.246 -206.342
v -184.411 1.246 -216.793
v -175.206 5.146 -227.958
v -162.529 5.146 -217.507
v -171.734 5.146 -206.342
v -184.411 5.146 -216.793
f 256 255 254 253
f 249 250 254 253
f 250 251 255 254
f 251 252 256 255
f 252 249 253 256
v -152.951 1.230 -198.659
v -136.108 1.230 -189.053
v -142.549 1.230 -177.761
v -159.392 1.230 -187.367
v -152.951 5.130 -198.659
v -136.108 5.130 -189.053
v -142.549 5.130 -177.761
v -159.392 5.130 -187.367
f 264 263 262 261
f 257 258 262 261
f 258 259 263 262
f 259 260 264 263
f 260 257 261 264
v -127.805 1.114 -172.415
v -114.063 1.114 -161.007
v -123.395 1.114 -149.765
v -137.137 1.114 -161.173
v -127.805 5.014 -172.415
v -114.063 5.014 -161.007
v -123.395 5.014 -149.765
v -137.137 5.014 -161.173
f 272 271 270 269
f 265 266 270 269
f 266 267 271 270
f 267 268 272 271
f 268 265 269 272
v -118.143 0.876 -163.250
v -98.714 0.876 -150.461
v -107.857 0.876 -136.570
v -127.286 0.876 -149.359
v -118.143 4.776 -163.250
v -98.714 4.776 -150.461
v -107.857 4.776 -136.570
v -127.286 4.776 -149.359
f 280 279 278 277
f 273 274 278 277
f 274 275 279 278
f 275 276 280 279
f 276 273 277 280
v -112.683 0.885 -123.944
v -111.226 0.885 -141.473
v -96.337 0.885 -140.236
v -97.794 0.885 -122.707
v -112.683 4.785 -123.944
v -111.226 4.785 -141.473
v -96.337 4.785 -140.236
v -97.794 4.785 -122.707
f 288 287 286 285
f 281 282 286 285
f 282 283 287 286
f 283 284 288 287
f 284 281 285 288
v -120.656 0.699 -85.351
v -114.336 0.699 -80.970
v -118.524 0.699 -74.929
v -124.844 0.699 -79.310
v -120.656 4.599 -85.351
v -114.336 4.599 -80.970
v -118.524 4.599 -74.929
v -124.844 4.599 -79.310
f 296 295 294 293
f 289 290 294 293
f 290 291 295 294
f 291 292 296 295
f 292 289 293 296
v 53.064 0.995 -258.329
v 76.605 0.995 -252.939
v 71.896 0.995 -232.371
v 48.355 0.995 -237.761
v 53.064 4.895 -258.329
v 76.605 4.895 -252.939
v 71.896 4.895 -232.371
v 48.355 4.895 -237.761
f 304 303 302 301
f 297 298 302 301
f 298 299 303 302
f 299 300 304 303
f 300 297 301 304
v 0.577 1.051 -256.361
v 14.238 1.051 -245.043
v 6.563 1.051 -235.779
v -7.098 1.051 -247.097
v 0.577 4.951 -256.361
v 14.238 4.951 -245.043
v 6.563 4.951 -235.779
v -7.098 4.951 -247.097
f 312 311 310 309
f 305 306 310 309
f 306 307 311 310
f 307 308 312 311
f 308 305 309 312
v 17.460 1.107 -247.592
v 29.010 1.107 -230.450
v 12.980 1.107 -219.648
v 1.430 1.107 -236.790
v 17.460 5.007 -247.592
v 29.010 5.007 -230.450
v 12.980 5.007 -219.648
v 1.430 5.007 -236.790
f 320 319 318 317
f 313 314 318 317
f 314 315 319 318
f 315 316 320 319
f 316 313 317 320
v 20.731 0.858 -214.475
v 29.453 0.858 -226.196
v 38.149 0.858 -219.725
v 29.427 0.858 -208.004
v 20.731 4.758 -214.475
v 29.453 4.758 -226.196
v 38.149 4.758 -219.725
v 29.427 4.758 -208.004
f 328 327 326 325
f 321 322 326 325
f 322 323 327 326
f 323 324 328 327
f 324 321 325 328
usemtl road
v 236.310 1.008 -220.887
v 180.300 0.892 -173.347
v 183.860 0.857 -169.153
v 239.870 0.965 -216.693
f 329 330 331 332
v 180.372 0.892 -173.405
v 154.772 0.972 -153.115
v 158.188 0.920 -148.805
v 183.788 0.857 -169.095
f 333 334 335 336
v 155.607 0.974 -153.568
v 145.397 0.946 -150.148
v 147.143 0.870 -144.932
v 157.353 0.914 -148.352
f 337 338 339 340
v 146.041 0.947 -150.280
v 131.931 0.868 -149.100
v 132.389 0.847 -143.620
v 146.499 0.870 -144.800
f 341 342 343 344
v 132.138 0.869 -149.110
v 119.638 0.857 -149.010
v 119.682 0.820 -143.510
v 132.182 0.844 -143.610
f 345 346 347 348
v 119.825 0.856 -149.005
v 101.895 0.872 -150.085
v 101.565 0.867 -144.595
v 119.495 0.820 -143.515
f 349 350 351 352
v -108.813 1.134 -254.238
v -20.791 1.157 -148.748
v -16.569 1.172 -152.272
v -104.590 1.138 -257.762
f 353 354 355 356
v 56.588 0.917 -213.754
v 73.198 0.799 -196.124
v 77.202 0.708 -199.896
v 60.592 0.872 -217.526
f 357 358 359 360
v 72.930 0.800 -196.458
v 93.140 0.835 -166.908
v 97.680 0.740 -170.012
v 77.470 0.710 -199.562
f 361 362 363 364
v 92.775 0.836 -167.672
v 95.065 0.877 -160.012
v 100.335 0.801 -161.588
v 98.045 0.717 -169.248
f 365 366 367 368
v 95.066 0.877 -160.011
v 99.096 0.860 -146.551
v 104.364 0.822 -148.129
v 100.334 0.801 -161.589
f 369 370 371 372
v -156.010 2.476 201.680
v -124.610 2.305 201.320
v -124.650 2.453 197.820
v -156.050 2.579 198.180
f 373 374 375 376
v -124.430 2.305 201.309
v -78.230 1.988 195.989
v -78.630 2.229 192.511
v -124.830 2.453 197.831
f 377 378 379 380
v -78.278 1.989 195.993
v -69.458 1.847 195.223
v -69.762 2.188 191.737
v -78.582 2.228 192.507
f 381 382 383 384
v -70.301 1.893 195.088
v -62.151 1.248 198.588
v -60.769 1.560 195.372
v -68.919 2.169 191.872
f 385 386 387 388
v -61.723 1.239 198.710
v -52.433 0.902 200.120
v -51.907 1.023 196.660
v -61.197 1.592 195.250
f 389 390 391 392
v 202.725 2.301 121.057
v 29.155 2.348 148.377
v 30.865 2.558 159.243
v 204.435 2.411 131.923
f 393 394 395 396
v -15.767 0.599 194.473
v -13.177 0.120 210.263
v -9.723 0.120 209.697
v -12.313 0.583 193.907
f 397 398 399 400
v -236.149 0.873 -249.498
v -189.649 0.861 -194.178
v -184.291 0.861 -198.682
v -230.791 0.896 -254.002
f 401 402 403 404
v -189.660 0.861 -194.191
v -143.660 0.835 -138.941
v -138.280 0.895 -143.419
v -184.280 0.861 -198.669
f 405 406 407 408
v -143.627 0.835 -138.902
v -109.247 0.880 -98.802
v -103.933 0.897 -103.358
v -138.313 0.895 -143.458
f 409 410 411 412
v -109.356 0.881 -98.936
v -97.006 0.864 -83.006
v -91.474 0.992 -87.294
v -103.824 0.896 -103.224
f 413 414 415 416
v -97.212 0.866 -83.301
v -63.932 0.863 -29.811
v -57.988 0.850 -33.509
v -91.268 0.994 -86.999
f 417 418 419 420
v -63.985 0.863 -29.900
v -40.045 0.838 11.250
v -33.995 0.825 7.730
v -57.935 0.850 -33.420
f 421 422 423 424
v -40.043 0.838 11.254
v -37.843 0.864 15.024
v -31.797 0.832 11.496
v -33.997 0.825 7.726
f 425 426 427 428
v -37.853 0.864 15.007
v -9.913 0.868 63.527
v -3.847 0.795 60.033
v -31.787 0.832 11.513
f 429 430 431 432
v -9.912 0.868 63.528
v 3.998 0.945 87.658
v 10.062 0.819 84.162
v -3.848 0.795 60.032
f 433 434 435 436
v 3.978 0.945 87.623
v 13.698 1.141 104.943
v 19.802 1.067 101.517
v 10.082 0.819 84.197
f 437 438 439 440
v 13.396 1.127 104.231
v 18.876 1.529 122.591
v 25.584 1.545 120.589
v 20.104 1.088 102.229
f 441 442 443 444
v 18.878 1.529 122.597
v 19.488 1.586 124.627
v 26.192 1.585 122.613
v 25.582 1.545 120.583
f 445 446 447 448
v 19.378 1.572 124.136
v 22.568 2.245 145.556
v 29.492 2.250 144.524
v 26.302 1.595 123.104
f 449 450 451 452
v 103.909 0.706 -258.088
v 56.801 0.893 -217.728
v 60.379 0.840 -213.552
v 107.487 0.730 -253.912
f 453 454 455 456
v 56.725 0.894 -217.661
v 27.975 1.164 -191.121
v 31.705 1.096 -187.079
v 60.455 0.839 -213.619
f 457 458 459 460
v 28.128 1.162 -191.252
v -20.392 1.152 -152.662
v -16.968 1.118 -148.358
v 31.552 1.097 -186.948
f 461 462 463 464
v -20.479 1.151 -152.590
v -96.039 0.928 -87.230
v -92.441 0.938 -83.070
v -16.881 1.119 -148.430
f 465 466 467 468
v 22.843 2.273 146.486
v 26.823 2.497 155.256
v 33.197 2.459 152.364
v 29.217 2.224 143.594
f 469 470 471 472
v 26.806 2.497 155.219
v 33.446 2.487 170.319
v 39.854 2.534 167.501
v 33.214 2.460 152.401
f 473 474 475 476
v 37.430 2.251 174.354
v 204.080 1.505 150.484
v 202.520 2.453 139.596
v 35.870 2.570 163.466
f 477 478 479 480
v -255.126 2.373 221.458
v -155.156 2.291 205.360
v -156.904 2.542 194.500
v -256.874 2.614 210.598
f 481 482 483 484
v -155.156 2.291 205.360
v 37.524 2.252 174.340
v 35.776 2.571 163.480
v -156.904 2.542 194.500
f 485 486 487 488
v -35.789 1.596 109.270
v -33.649 1.469 117.930
v -30.251 1.488 117.090
v -32.391 1.633 108.430
f 489 490 491 492
v -33.615 1.465 118.048
v -28.415 1.173 134.138
v -25.085 1.168 133.062
v -30.285 1.491 116.972
f 493 494 495 496
v -28.481 1.169 133.858
v -25.931 1.718 150.958
v -22.469 1.754 150.442
v -25.019 1.171 133.342
f 497 498 499 500
v -25.939 1.713 150.894
v -24.699 2.441 161.994
v -21.221 2.450 161.606
v -22.461 1.759 150.506
f 501 502 503 504
v -196.400 2.483 189.506
v -197.960 2.078 179.286
v -201.420 2.061 179.814
v -199.860 2.479 190.034
f 505 506 507 508
v -197.960 2.078 179.286
v -202.830 1.249 147.336
v -206.290 1.252 147.864
v -201.420 2.061 179.814
f 509 510 511 512
v 96.822 0.877 -163.406
v 82.242 0.645 -158.496
v 83.998 0.627 -153.284
v 98.578 0.889 -158.194
f 513 514 515 516
v 82.224 0.645 -158.490
v 73.204 0.526 -155.380
v 74.996 0.575 -150.180
v 84.016 0.627 -153.290
f 517 518 519 520
v 72.879 0.527 -155.244
v 64.889 0.609 -151.284
v 67.331 0.620 -146.356
v 75.321 0.575 -150.316
f 521 522 523 524
v 64.237 0.604 -150.833
v 59.047 0.610 -146.003
v 62.793 0.695 -141.977
v 67.983 0.620 -146.807
f 525 526 527 528
v 58.400 0.591 -145.090
v 55.510 0.670 -138.470
v 60.550 0.753 -136.270
v 63.440 0.674 -142.890
f 529 530 531 532
v 55.338 0.684 -137.932
v 53.708 0.790 -130.122
v 59.092 0.827 -128.998
v 60.722 0.744 -136.808
f 533 534 535 536
v 53.668 0.795 -129.872
v 47.998 0.803 -80.232
v 53.462 0.808 -79.608
v 59.132 0.824 -129.248
f 537 538 539 540
v 48.047 0.804 -80.525
v 45.977 0.770 -71.345
v 51.343 0.784 -70.135
v 53.413 0.807 -79.315
f 541 542 543 544
v 46.131 0.775 -71.820
v 42.801 0.708 -64.020
v 47.859 0.745 -61.860
v 51.189 0.786 -69.660
f 545 546 547 548
v 43.035 0.707 -64.456
v 34.205 0.597 -51.086
v 38.795 0.682 -48.054
v 47.625 0.746 -61.424
f 549 550 551 552
v 34.255 0.597 -51.159
v 30.405 0.596 -45.719
v 34.895 0.612 -42.541
v 38.745 0.681 -47.981
f 553 554 555 556
v 30.407 0.596 -45.721
v 29.187 0.589 -44.001
v 33.673 0.623 -40.819
v 34.893 0.612 -42.539
f 557 558 559 560
v 29.115 0.588 -43.895
v 10.625 0.711 -15.065
v 15.255 0.683 -12.095
v 33.745 0.622 -40.925
f 561 562 563 564
v -25.083 0.753 6.319
v -18.283 0.643 6.499
v -18.137 0.701 1.001
v -24.937 0.719 0.821
f 565 566 567 568
v -17.427 0.644 6.386
v -3.867 0.652 2.356
v -5.433 0.746 -2.916
v -18.993 0.713 1.114
f 569 570 571 572
v -3.869 0.652 2.357
v 2.581 0.671 0.447
v 1.019 0.778 -4.827
v -5.431 0.746 -2.917
f 573 574 575 576
v 2.584 0.671 0.446
v 14.154 0.632 -2.994
v 12.586 0.660 -8.266
v 1.016 0.778 -4.826
f 577 578 579 580
v 10.733 0.699 -4.851
v 11.983 0.625 -0.621
v 17.257 0.594 -2.179
v 16.007 0.627 -6.409
f 581 582 583 584
v 12.122 0.620 -0.249
v 21.312 0.703 19.691
v 26.308 0.608 17.389
v 17.118 0.599 -2.551
f 585 586 587 588
v 21.511 0.703 20.048
v 31.521 0.678 35.308
v 36.119 0.563 32.292
v 26.109 0.605 17.032
f 589 590 591 592
v 31.429 0.675 35.159
v 62.129 0.644 89.169
v 66.911 0.614 86.451
v 36.211 0.564 32.441
f 593 594 595 596
v 64.892 0.599 90.535
v 109.242 0.941 84.485
v 108.498 0.903 79.035
v 64.148 0.639 85.085
f 597 598 599 600
v 12.072 0.706 -16.189
v -1.628 0.764 -11.629
v 0.108 0.766 -6.411
v 13.808 0.648 -10.971
f 601 602 603 604
v -1.631 0.764 -11.628
v -7.951 0.713 -9.518
v -6.209 0.729 -4.302
v 0.111 0.766 -6.412
f 605 606 607 608
v -7.950 0.713 -9.519
v -20.970 0.764 -5.179
v -19.230 0.722 0.039
v -6.210 0.729 -4.301
f 609 610 611 612
v -22.248 0.775 -4.287
v -27.158 0.714 1.853
v -22.862 0.692 5.287
v -17.952 0.710 -0.853
f 613 614 615 616
v 16.116 0.627 -5.779
v 15.686 0.691 -13.729
v 10.194 0.697 -13.431
v 10.624 0.703 -5.481
f 617 618 619 620
v -26.226 0.717 1.103
v -38.236 0.901 7.023
v -35.804 0.915 11.957
v -23.794 0.710 6.037
f 621 622 623 624
v -9.662 0.692 -5.964
v -7.232 0.692 0.666
v -2.068 0.731 -1.226
v -4.498 0.727 -7.856
f 625 626 627 628
v -3.831 0.651 -97.614
v -5.091 0.600 -82.184
v 0.391 0.576 -81.736
v 1.651 0.758 -97.166
f 629 630 631 632
v -4.354 0.581 -80.077
v 8.166 0.599 -66.757
v 12.174 0.615 -70.523
v -0.346 0.568 -83.843
f 633 634 635 636
v 8.143 0.599 -66.781
v 30.623 0.611 -42.271
v 34.677 0.619 -45.989
v 12.197 0.616 -70.499
f 637 638 639 640
v 74.643 0.743 106.618
v 69.453 0.746 111.928
v 73.387 0.762 115.772
v 78.577 0.812 110.462
f 641 642 643 644
v 70.449 0.748 111.277
v 60.509 0.750 115.027
v 62.451 0.674 120.173
v 72.391 0.751 116.423
f 645 646 647 648
v 60.988 0.748 114.894
v 37.968 1.212 119.084
v 38.952 1.190 124.496
v 61.972 0.670 120.306
f 649 650 651 652
v 38.140 1.205 119.059
v 22.520 1.574 120.889
v 23.160 1.709 126.351
v 38.780 1.195 124.521
f 653 654 655 656
v 29.190 2.348 148.372
v -23.780 2.158 156.362
v -22.140 2.476 167.238
v 30.830 2.558 159.248
f 657 658 659 660
v -23.834 2.158 156.370
v -109.294 2.321 170.120
v -107.546 2.545 180.980
v -22.086 2.476 167.230
f 661 662 663 664
v -109.281 2.321 170.118
v -198.991 2.325 184.338
v -197.269 2.509 195.202
v -107.559 2.545 180.982
f 665 666 667 668
v -199.051 2.325 184.348
v -256.921 2.375 194.174
v -255.079 2.541 205.019
v -197.209 2.509 195.192
f 669 670 671 672
v -52.085 0.891 200.138
v -42.445 0.713 199.668
v -42.615 0.802 196.172
v -52.255 1.037 196.642
f 673 674 675 676
v -42.275 0.710 199.651
v -26.915 0.594 197.391
v -27.425 0.702 193.929
v -42.785 0.805 196.189
f 677 678 679 680
v -26.975 0.593 197.399
v -13.845 0.541 195.929
v -14.235 0.641 192.451
v -27.365 0.702 193.921
f 681 682 683 684
v -13.751 0.541 195.916
v 15.429 0.558 191.026
v 14.851 0.725 187.574
v -14.329 0.642 192.464
f 685 686 687 688
v 15.649 0.558 190.974
v 29.189 0.695 186.854
v 28.171 1.123 183.506
v 14.631 0.723 187.626
f 689 690 691 692
v 29.812 0.685 186.515
v 35.462 1.238 181.725
v 33.198 1.733 179.055
v 27.548 1.080 183.845
f 693 694 695 696
v 36.045 1.418 180.737
v 38.365 2.496 169.257
v 34.935 2.534 168.563
v 32.615 1.609 180.043
f 697 698 699 700
v -7.721 0.898 60.245
v -19.071 1.199 66.465
v -17.389 1.227 69.535
v -6.039 0.894 63.315
f 701 702 703 704
v -19.073 1.199 66.466
v -43.283 1.616 79.766
v -41.597 1.636 82.834
v -17.387 1.227 69.534
f 705 706 707 708
v -44.110 1.642 81.824
v -37.380 1.653 103.284
v -34.040 1.660 102.236
v -40.770 1.622 80.776
f 709 710 711 712
v -37.401 1.653 103.210
v -35.781 1.596 109.300
v -32.399 1.633 108.400
v -34.019 1.659 102.310
f 713 714 715 716
v 6.250 0.925 84.344
v -7.020 1.517 90.954
v -5.460 1.502 94.086
v 7.810 0.924 87.476
f 717 718 719 720
v -4.668 1.455 91.751
v -16.658 1.145 67.231
v -19.802 1.260 68.769
v -7.812 1.559 93.289
f 721 722 723 724
v -7.851 1.560 93.203
v -6.131 1.567 97.263
v -2.909 1.459 95.897
v -4.629 1.455 91.837
f 725 726 727 728
v -6.233 1.563 96.939
v -4.783 1.636 103.849
v -1.357 1.571 103.131
v -2.807 1.462 96.221
f 729 730 731 732
v -4.749 1.637 103.983
v -2.589 1.567 111.333
v 0.769 1.513 110.347
v -1.391 1.570 102.997
f 733 734 735 736
v -2.592 1.568 111.323
v 1.738 1.329 126.403
v 5.102 1.324 125.437
v 0.772 1.513 110.357
f 737 738 739 740
v 3.813 1.324 127.625
v 22.623 1.628 123.295
v 21.837 1.544 119.885
v 3.027 1.325 124.215
f 741 742 743 744
v -1.278 1.575 109.129
v -32.318 1.529 115.799
v -31.582 1.420 119.221
v -0.542 1.495 112.551
f 745 746 747 748
v -14.041 1.789 103.564
v -25.371 1.748 105.474
v -24.789 1.747 108.926
v -13.459 1.796 107.016
f 749 750 751 752
v -14.993 1.778 96.970
v -26.663 1.768 99.160
v -26.017 1.756 102.600
v -14.347 1.786 100.410
f 753 754 755 756
v -4.876 1.493 94.867
v -15.026 1.779 96.977
v -14.314 1.785 100.403
v -4.164 1.531 98.293
f 757 758 759 760
v -26.684 1.768 99.164
v -36.054 1.673 101.044
v -35.366 1.643 104.476
v -25.996 1.756 102.596
f 761 762 763 764
v -25.395 1.747 105.479
v -34.405 1.632 107.129
v -33.775 1.610 110.571
v -24.765 1.748 108.921
f 765 766 767 768
v -3.361 1.577 101.764
v -14.041 1.789 103.564
v -13.459 1.796 107.016
v -2.779 1.629 105.216
f 769 770 771 772
v 2.988 1.325 124.224
v -27.182 1.162 131.904
v -26.318 1.194 135.296
v 3.852 1.324 127.616
f 773 774 775 776
v -2.158 0.563 -83.699
v -28.328 0.933 -86.589
v -28.712 0.866 -83.111
v -2.542 0.569 -80.221
f 777 778 779 780
usemtl asphalt
