# Baked ultra-low Key West silhouette; generated by bake_key_west_far_city.py
mtllib far_city.mtl
usemtl massing
v -190.380 1.386 131.339
v -160.545 1.386 136.328
v -163.400 1.386 153.401
v -193.235 1.386 148.412
v -190.380 7.686 131.339
v -160.545 7.686 136.328
v -163.400 7.686 153.401
v -193.235 7.686 148.412
f 8 7 6 5
f 1 2 6 5
f 2 3 7 6
f 3 4 8 7
f 4 1 5 8
v 111.527 1.104 10.836
v 130.972 1.104 23.213
v 123.353 1.104 35.184
v 103.908 1.104 22.807
v 111.527 4.604 10.836
v 130.972 4.604 23.213
v 123.353 4.604 35.184
v 103.908 4.604 22.807
f 16 15 14 13
f 9 10 14 13
f 10 11 15 14
f 11 12 16 15
f 12 9 13 16
v 111.625 1.345 -77.577
v 125.534 1.345 -64.429
v 111.575 1.345 -49.663
v 97.666 1.345 -62.811
v 111.625 5.245 -77.577
v 125.534 5.245 -64.429
v 111.575 5.245 -49.663
v 97.666 5.245 -62.811
f 24 23 22 21
f 17 18 22 21
f 18 19 23 22
f 19 20 24 23
f 20 17 21 24
v 117.031 1.676 -38.651
v 133.351 1.676 -55.365
v 145.349 1.676 -43.649
v 129.029 1.676 -26.935
v 117.031 5.576 -38.651
v 133.351 5.576 -55.365
v 145.349 5.576 -43.649
v 129.029 5.576 -26.935
f 32 31 30 29
f 25 26 30 29
f 26 27 31 30
f 27 28 32 31
f 28 25 29 32
v 146.490 1.299 -10.500
v 156.799 1.299 -21.464
v 168.630 1.299 -10.340
v 158.321 1.299 0.624
v 146.490 5.199 -10.500
v 156.799 5.199 -21.464
v 168.630 5.199 -10.340
v 158.321 5.199 0.624
f 40 39 38 37
f 33 34 38 37
f 34 35 39 38
f 35 36 40 39
f 36 33 37 40
v 148.632 1.080 -35.543
v 157.921 1.080 -23.260
v 146.388 1.080 -14.537
v 137.099 1.080 -26.820
v 148.632 4.980 -35.543
v 157.921 4.980 -23.260
v 146.388 4.980 -14.537
v 137.099 4.980 -26.820
f 48 47 46 45
f 41 42 46 45
f 42 43 47 46
f 43 44 48 47
f 44 41 45 48
v 168.053 1.755 -6.944
v 181.229 1.755 3.365
v 171.887 1.755 15.304
v 158.711 1.755 4.995
v 168.053 5.655 -6.944
v 181.229 5.655 3.365
v 171.887 5.655 15.304
v 158.711 5.655 4.995
f 56 55 54 53
f 49 50 54 53
f 50 51 55 54
f 51 52 56 55
f 52 49 53 56
v 172.773 1.567 25.120
v 194.367 1.567 10.406
v 205.607 1.567 26.900
v 184.013 1.567 41.614
v 172.773 5.467 25.120
v 194.367 5.467 10.406
v 205.607 5.467 26.900
v 184.013 5.467 41.614
f 64 63 62 61
f 57 58 62 61
f 58 59 63 62
f 59 60 64 63
f 60 57 61 64
v 196.947 1.241 63.043
v 206.495 1.241 34.899
v 226.353 1.241 41.637
v 216.805 1.241 69.781
v 196.947 5.141 63.043
v 206.495 5.141 34.899
v 226.353 5.141 41.637
v 216.805 5.141 69.781
f 72 71 70 69
f 65 66 70 69
f 66 67 71 70
f 67 68 72 71
f 68 65 69 72
v 229.105 1.015 61.533
v 242.123 1.015 73.466
v 230.095 1.015 86.587
v 217.077 1.015 74.654
v 229.105 4.915 61.533
v 242.123 4.915 73.466
v 230.095 4.915 86.587
v 217.077 4.915 74.654
f 80 79 78 77
f 73 74 78 77
f 74 75 79 78
f 75 76 80 79
f 76 73 77 80
v 243.159 1.089 75.789
v 252.547 1.089 86.616
v 240.421 1.089 97.131
v 231.033 1.089 86.304
v 243.159 4.989 75.789
v 252.547 4.989 86.616
v 240.421 4.989 97.131
v 231.033 4.989 86.304
f 88 87 86 85
f 81 82 86 85
f 82 83 87 86
f 83 84 88 87
f 84 81 85 88
v 250.686 1.120 90.888
v 266.878 1.120 103.801
v 254.794 1.120 118.952
v 238.602 1.120 106.039
v 250.686 5.020 90.888
v 266.878 5.020 103.801
v 254.794 5.020 118.952
v 238.602 5.020 106.039
f 96 95 94 93
f 89 90 94 93
f 90 91 95 94
f 91 92 96 95
f 92 89 93 96
v 242.706 0.977 36.009
v 254.540 0.977 23.417
v 264.174 0.977 32.471
v 252.340 0.977 45.063
v 242.706 4.877 36.009
v 254.540 4.877 23.417
v 264.174 4.877 32.471
v 252.340 4.877 45.063
f 104 103 102 101
f 97 98 102 101
f 98 99 103 102
f 99 100 104 103
f 100 97 101 104
v 226.494 1.589 16.519
v 238.705 1.589 1.149
v 250.426 1.589 10.461
v 238.215 1.589 25.831
v 226.494 5.489 16.519
v 238.705 5.489 1.149
v 250.426 5.489 10.461
v 238.215 5.489 25.831
f 112 111 110 109
f 105 106 110 109
f 106 107 111 110
f 107 108 112 111
f 108 105 109 112
v 218.256 2.118 -22.057
v 233.004 2.118 -11.021
v 220.884 2.118 5.177
v 206.136 2.118 -5.859
v 218.256 6.018 -22.057
v 233.004 6.018 -11.021
v 220.884 6.018 5.177
v 206.136 6.018 -5.859
f 120 119 118 117
f 113 114 118 117
f 114 115 119 118
f 115 116 120 119
f 116 113 117 120
v 191.875 0.837 -28.653
v 201.978 0.837 -40.566
v 210.985 0.837 -32.927
v 200.882 0.837 -21.014
v 191.875 4.737 -28.653
v 201.978 4.737 -40.566
v 210.985 4.737 -32.927
v 200.882 4.737 -21.014
f 128 127 126 125
f 121 122 126 125
f 122 123 127 126
f 123 124 128 127
f 124 121 125 128
v 192.392 1.336 -69.567
v 202.881 1.336 -46.940
v 178.748 1.336 -35.753
v 168.259 1.336 -58.380
v 192.392 5.236 -69.567
v 202.881 5.236 -46.940
v 178.748 5.236 -35.753
v 168.259 5.236 -58.380
f 136 135 134 133
f 129 130 134 133
f 130 131 135 134
f 131 132 136 135
f 132 129 133 136
v 159.287 1.528 -72.906
v 175.525 1.528 -75.836
v 178.193 1.528 -61.054
v 161.955 1.528 -58.124
v 159.287 5.428 -72.906
v 175.525 5.428 -75.836
v 178.193 5.428 -61.054
v 161.955 5.428 -58.124
f 144 143 142 141
f 137 138 142 141
f 138 139 143 142
f 139 140 144 143
f 140 137 141 144
v 159.078 1.628 -107.124
v 163.756 1.628 -85.903
v 137.682 1.628 -80.156
v 133.004 1.628 -101.377
v 159.078 5.528 -107.124
v 163.756 5.528 -85.903
v 137.682 5.528 -80.156
v 133.004 5.528 -101.377
f 152 151 150 149
f 145 146 150 149
f 146 147 151 150
f 147 148 152 151
f 148 145 149 152
v 97.534 1.359 -125.262
v 137.587 1.359 -111.566
v 127.106 1.359 -80.918
v 87.053 1.359 -94.614
v 97.534 7.159 -125.262
v 137.587 7.159 -111.566
v 127.106 7.159 -80.918
v 87.053 7.159 -94.614
f 160 159 158 157
f 153 154 158 157
f 154 155 159 158
f 155 156 160 159
f 156 153 157 160
v -136.957 1.516 -0.727
v -115.669 1.516 -7.370
v -110.003 1.516 10.787
v -131.291 1.516 17.430
v -136.957 5.416 -0.727
v -115.669 5.416 -7.370
v -110.003 5.416 10.787
v -131.291 5.416 17.430
f 168 167 166 165
f 161 162 166 165
f 162 163 167 166
f 163 164 168 167
f 164 161 165 168
v -155.631 1.156 9.757
v -129.142 1.156 6.245
v -125.929 1.156 30.483
v -152.418 1.156 33.995
v -155.631 5.056 9.757
v -129.142 5.056 6.245
v -125.929 5.056 30.483
v -152.418 5.056 33.995
f 176 175 174 173
f 169 170 174 173
f 170 171 175 174
f 171 172 176 175
f 172 169 173 176
v -119.493 1.114 -3.034
v -108.303 1.114 -16.031
v -100.027 1.114 -8.906
v -111.217 1.114 4.091
v -119.493 5.014 -3.034
v -108.303 5.014 -16.031
v -100.027 5.014 -8.906
v -111.217 5.014 4.091
f 184 183 182 181
f 177 178 182 181
f 178 179 183 182
f 179 180 184 183
f 180 177 181 184
v -182.515 1.004 -26.563
v -162.728 1.004 -50.983
v -145.145 1.004 -36.737
v -164.932 1.004 -12.317
v -182.515 4.904 -26.563
v -162.728 4.904 -50.983
v -145.145 4.904 -36.737
v -164.932 4.904 -12.317
f 192 191 190 189
f 185 186 190 189
f 186 187 191 190
f 187 188 192 191
f 188 185 189 192
v 205.091 0.877 149.917
v 207.225 0.877 128.041
v 223.229 0.877 129.603
v 221.095 0.877 151.479
v 205.091 4.777 149.917
v 207.225 4.777 128.041
v 223.229 4.777 129.603
v 221.095 4.777 151.479
f 200 199 198 197
f 193 194 198 197
f 194 195 199 198
f 195 196 200 199
f 196 193 197 200
v 197.453 1.067 109.777
v 212.517 1.067 121.954
v 204.427 1.067 131.963
v 189.363 1.067 119.786
v 197.453 4.967 109.777
v 212.517 4.967 121.954
v 204.427 4.967 131.963
v 189.363 4.967 119.786
f 208 207 206 205
f 201 202 206 205
f 202 203 207 206
f 203 204 208 207
f 204 201 205 208
v 178.805 0.903 112.186
v 185.638 0.903 104.161
v 191.995 0.903 109.574
v 185.162 0.903 117.599
v 178.805 4.803 112.186
v 185.638 4.803 104.161
v 191.995 4.803 109.574
v 185.162 4.803 117.599
f 216 215 214 213
f 209 210 214 213
f 210 211 215 214
f 211 212 216 215
f 212 209 213 216
v 174.265 0.976 87.052
v 186.401 0.976 95.936
v 179.615 0.976 105.208
v 167.479 0.976 96.324
v 174.265 4.876 87.052
v 186.401 4.876 95.936
v 179.615 4.876 105.208
v 167.479 4.876 96.324
f 224 223 222 221
f 217 218 222 221
f 218 219 223 222
f 219 220 224 223
f 220 217 221 224
v 153.230 0.798 51.899
v 162.837 0.798 71.089
v 148.950 0.798 78.041
v 139.343 0.798 58.851
v 153.230 4.698 51.899
v 162.837 4.698 71.089
v 148.950 4.698 78.041
v 139.343 4.698 58.851
f 232 231 230 229
f 225 226 230 229
f 226 227 231 230
f 227 228 232 231
f 228 225 229 232
v 165.044 1.039 67.480
v 175.744 1.039 81.239
v 163.296 1.039 90.920
v 152.596 1.039 77.161
v 165.044 4.939 67.480
v 175.744 4.939 81.239
v 163.296 4.939 90.920
v 152.596 4.939 77.161
f 240 239 238 237
f 233 234 238 237
f 234 235 239 238
f 235 236 240 239
f 236 233 237 240
v 137.306 0.899 45.243
v 148.292 0.899 54.476
v 141.434 0.899 62.637
v 130.448 0.899 53.404
v 137.306 4.799 45.243
v 148.292 4.799 54.476
v 141.434 4.799 62.637
v 130.448 4.799 53.404
f 248 247 246 245
f 241 242 246 245
f 242 243 247 246
f 243 244 248 247
f 244 241 245 248
v 127.462 0.865 26.914
v 140.527 0.865 41.133
v 131.198 0.865 49.706
v 118.133 0.865 35.487
v 127.462 4.765 26.914
v 140.527 4.765 41.133
v 131.198 4.765 49.706
v 118.133 4.765 35.487
f 256 255 254 253
f 249 250 254 253
f 250 251 255 254
f 251 252 256 255
f 252 249 253 256
v 101.142 0.921 1.161
v 113.085 0.921 10.962
v 106.538 0.921 18.939
v 94.595 0.921 9.138
v 101.142 4.821 1.161
v 113.085 4.821 10.962
v 106.538 4.821 18.939
v 94.595 4.821 9.138
f 264 263 262 261
f 257 258 262 261
f 258 259 263 262
f 259 260 264 263
f 260 257 261 264
v 82.291 0.965 -0.480
v 91.456 0.965 -11.115
v 100.849 0.965 -3.020
v 91.684 0.965 7.615
v 82.291 4.865 -0.480
v 91.456 4.865 -11.115
v 100.849 4.865 -3.020
v 91.684 4.865 7.615
f 272 271 270 269
f 265 266 270 269
f 266 267 271 270
f 267 268 272 271
f 268 265 269 272
v 69.874 0.886 -10.469
v 75.727 0.886 -26.376
v 89.926 0.886 -21.151
v 84.073 0.886 -5.244
v 69.874 4.786 -10.469
v 75.727 4.786 -26.376
v 89.926 4.786 -21.151
v 84.073 4.786 -5.244
f 280 279 278 277
f 273 274 278 277
f 274 275 279 278
f 275 276 280 279
f 276 273 277 280
v 61.488 1.265 -25.833
v 64.027 1.265 -44.592
v 79.872 1.265 -42.447
v 77.333 1.265 -23.688
v 61.488 5.165 -25.833
v 64.027 5.165 -44.592
v 79.872 5.165 -42.447
v 77.333 5.165 -23.688
f 288 287 286 285
f 281 282 286 285
f 282 283 287 286
f 283 284 288 287
f 284 281 285 288
v 39.179 1.264 -61.266
v 63.424 1.264 -60.152
v 62.441 1.264 -38.754
v 38.196 1.264 -39.868
v 39.179 5.164 -61.266
v 63.424 5.164 -60.152
v 62.441 5.164 -38.754
v 38.196 5.164 -39.868
f 296 295 294 293
f 289 290 294 293
f 290 291 295 294
f 291 292 296 295
f 292 289 293 296
v 242.771 1.002 155.048
v 258.842 1.002 167.647
v 248.489 1.002 180.852
v 232.418 1.002 168.253
v 242.771 4.902 155.048
v 258.842 4.902 167.647
v 248.489 4.902 180.852
v 232.418 4.902 168.253
f 304 303 302 301
f 297 298 302 301
f 298 299 303 302
f 299 300 304 303
f 300 297 301 304
v 220.858 1.038 170.158
v 243.797 1.038 177.901
v 237.282 1.038 197.202
v 214.343 1.038 189.459
v 220.858 4.938 170.158
v 243.797 4.938 177.901
v 237.282 4.938 197.202
v 214.343 4.938 189.459
f 312 311 310 309
f 305 306 310 309
f 306 307 311 310
f 307 308 312 311
f 308 305 309 312
v 196.299 0.870 208.140
v 205.240 0.870 188.599
v 224.781 0.870 197.540
v 215.840 0.870 217.081
v 196.299 4.770 208.140
v 205.240 4.770 188.599
v 224.781 4.770 197.540
v 215.840 4.770 217.081
f 320 319 318 317
f 313 314 318 317
f 314 315 319 318
f 315 316 320 319
f 316 313 317 320
v 183.363 0.870 204.609
v 204.711 0.870 212.951
v 198.717 0.870 228.291
v 177.369 0.870 219.949
v 183.363 4.770 204.609
v 204.711 4.770 212.951
v 198.717 4.770 228.291
v 177.369 4.770 219.949
f 328 327 326 325
f 321 322 326 325
f 322 323 327 326
f 323 324 328 327
f 324 321 325 328
v 168.780 0.784 220.639
v 177.455 0.784 232.802
v 166.660 0.784 240.501
v 157.985 0.784 228.338
v 168.780 4.684 220.639
v 177.455 4.684 232.802
v 166.660 4.684 240.501
v 157.985 4.684 228.338
f 336 335 334 333
f 329 330 334 333
f 330 331 335 334
f 331 332 336 335
f 332 329 333 336
v 144.407 0.968 236.950
v 168.372 0.968 240.911
v 165.073 0.968 260.870
v 141.108 0.968 256.909
v 144.407 4.868 236.950
v 168.372 4.868 240.911
v 165.073 4.868 260.870
v 141.108 4.868 256.909
f 344 343 342 341
f 337 338 342 341
f 338 339 343 342
f 339 340 344 343
f 340 337 341 344
v -157.317 1.198 146.954
v -140.525 1.198 158.921
v -149.323 1.198 171.266
v -166.115 1.198 159.299
v -157.317 5.098 146.954
v -140.525 5.098 158.921
v -149.323 5.098 171.266
v -166.115 5.098 159.299
f 352 351 350 349
f 345 346 350 349
f 346 347 351 350
f 347 348 352 351
f 348 345 349 352
v -153.584 1.180 160.553
v -126.163 1.180 167.133
v -130.356 1.180 184.607
v -157.777 1.180 178.027
v -153.584 5.080 160.553
v -126.163 5.080 167.133
v -130.356 5.080 184.607
v -157.777 5.080 178.027
f 360 359 358 357
f 353 354 358 357
f 354 355 359 358
f 355 356 360 359
f 356 353 357 360
v -144.319 1.172 184.798
v -119.464 1.172 181.023
v -116.401 1.172 201.182
v -141.256 1.172 204.957
v -144.319 5.072 184.798
v -119.464 5.072 181.023
v -116.401 5.072 201.182
v -141.256 5.072 204.957
f 368 367 366 365
f 361 362 366 365
f 362 363 367 366
f 363 364 368 367
f 364 361 365 368
v -121.440 1.335 199.162
v -101.446 1.335 201.745
v -104.360 1.335 224.298
v -124.354 1.335 221.715
v -121.440 5.235 199.162
v -101.446 5.235 201.745
v -104.360 5.235 224.298
v -124.354 5.235 221.715
f 376 375 374 373
f 369 370 374 373
f 370 371 375 374
f 371 372 376 375
f 372 369 373 376
v -108.752 1.315 235.668
v -100.270 1.315 217.335
v -85.668 1.315 224.092
v -94.150 1.315 242.425
v -108.752 5.215 235.668
v -100.270 5.215 217.335
v -85.668 5.215 224.092
v -94.150 5.215 242.425
f 384 383 382 381
f 377 378 382 381
f 378 379 383 382
f 379 380 384 383
f 380 377 381 384
v -98.286 1.179 244.942
v -86.164 1.179 234.210
v -76.294 1.179 245.358
v -88.416 1.179 256.090
v -98.286 5.079 244.942
v -86.164 5.079 234.210
v -76.294 5.079 245.358
v -88.416 5.079 256.090
f 392 391 390 389
f 385 386 390 389
f 386 387 391 390
f 387 388 392 391
f 388 385 389 392
v -149.216 1.468 232.301
v -130.550 1.468 242.139
v -139.204 1.468 258.559
v -157.870 1.468 248.721
v -149.216 5.368 232.301
v -130.550 5.368 242.139
v -139.204 5.368 258.559
v -157.870 5.368 248.721
f 400 399 398 397
f 393 394 398 397
f 394 395 399 398
f 395 396 400 399
f 396 393 397 400
v -160.380 1.598 220.639
v -145.529 1.598 230.720
v -153.920 1.598 243.081
v -168.771 1.598 233.000
v -160.380 5.498 220.639
v -145.529 5.498 230.720
v -153.920 5.498 243.081
v -168.771 5.498 233.000
f 408 407 406 405
f 401 402 406 405
f 402 403 407 406
f 403 404 408 407
f 404 401 405 408
v -168.690 1.407 204.837
v -154.053 1.407 218.378
v -163.770 1.407 228.883
v -178.407 1.407 215.342
v -168.690 5.307 204.837
v -154.053 5.307 218.378
v -163.770 5.307 228.883
v -178.407 5.307 215.342
f 416 415 414 413
f 409 410 414 413
f 410 411 415 414
f 411 412 416 415
f 412 409 413 416
v -183.609 1.185 192.329
v -168.289 1.185 204.279
v -178.111 1.185 216.871
v -193.431 1.185 204.921
v -183.609 5.085 192.329
v -168.289 5.085 204.279
v -178.111 5.085 216.871
v -193.431 5.085 204.921
f 424 423 422 421
f 417 418 422 421
f 418 419 423 422
f 419 420 424 423
f 420 417 421 424
v -201.104 1.170 197.883
v -199.890 1.170 177.749
v -180.196 1.170 178.937
v -181.410 1.170 199.071
v -201.104 5.070 197.883
v -199.890 5.070 177.749
v -180.196 5.070 178.937
v -181.410 5.070 199.071
f 432 431 430 429
f 425 426 430 429
f 426 427 431 430
f 427 428 432 431
f 428 425 429 432
v -222.429 1.123 169.764
v -212.147 1.123 152.237
v -197.251 1.123 160.976
v -207.533 1.123 178.503
v -222.429 5.023 169.764
v -212.147 5.023 152.237
v -197.251 5.023 160.976
v -207.533 5.023 178.503
f 440 439 438 437
f 433 434 438 437
f 434 435 439 438
f 435 436 440 439
f 436 433 437 440
v -234.392 0.839 208.783
v -220.631 0.839 224.817
v -235.428 0.839 237.517
v -249.189 0.839 221.483
v -234.392 4.739 208.783
v -220.631 4.739 224.817
v -235.428 4.739 237.517
v -249.189 4.739 221.483
f 448 447 446 445
f 441 442 446 445
f 442 443 447 446
f 443 444 448 447
f 444 441 445 448
v -266.763 0.932 198.792
v -243.147 0.932 194.987
v -240.037 0.932 214.288
v -263.653 0.932 218.093
v -266.763 4.832 198.792
v -243.147 4.832 194.987
v -240.037 4.832 214.288
v -263.653 4.832 218.093
f 456 455 454 453
f 449 450 454 453
f 450 451 455 454
f 451 452 456 455
f 452 449 453 456
v -231.977 0.769 238.960
v -222.683 0.769 226.443
v -208.143 0.769 237.240
v -217.437 0.769 249.757
v -231.977 4.669 238.960
v -222.683 4.669 226.443
v -208.143 4.669 237.240
v -217.437 4.669 249.757
f 464 463 462 461
f 457 458 462 461
f 458 459 463 462
f 459 460 464 463
f 460 457 461 464
v -210.944 1.056 241.288
v -197.704 1.056 252.016
v -206.776 1.056 263.212
v -220.016 1.056 252.484
v -210.944 4.956 241.288
v -197.704 4.956 252.016
v -206.776 4.956 263.212
v -220.016 4.956 252.484
f 472 471 470 469
f 465 466 470 469
f 466 467 471 470
f 467 468 472 471
f 468 465 469 472
v -32.950 1.479 1.922
v -12.598 1.479 9.097
v -18.090 1.479 24.678
v -38.442 1.479 17.503
v -32.950 5.379 1.922
v -12.598 5.379 9.097
v -18.090 5.379 24.678
v -38.442 5.379 17.503
f 480 479 478 477
f 473 474 478 477
f 474 475 479 478
f 475 476 480 479
f 476 473 477 480
v -7.292 0.748 20.343
v 6.070 0.748 31.921
v -2.868 0.748 42.237
v -16.230 0.748 30.659
v -7.292 4.648 20.343
v 6.070 4.648 31.921
v -2.868 4.648 42.237
v -16.230 4.648 30.659
f 488 487 486 485
f 481 482 486 485
f 482 483 487 486
f 483 484 488 487
f 484 481 485 488
v 4.849 0.763 32.295
v 20.410 0.763 46.530
v 10.151 0.763 57.745
v -5.410 0.763 43.510
v 4.849 4.663 32.295
v 20.410 4.663 46.530
v 10.151 4.663 57.745
v -5.410 4.663 43.510
f 496 495 494 493
f 489 490 494 493
f 490 491 495 494
f 491 492 496 495
f 492 489 493 496
v 11.328 0.639 50.365
v 27.071 0.639 58.389
v 20.432 0.639 71.415
v 4.689 0.639 63.391
v 11.328 4.539 50.365
v 27.071 4.539 58.389
v 20.432 4.539 71.415
v 4.689 4.539 63.391
f 504 503 502 501
f 497 498 502 501
f 498 499 503 502
f 499 500 504 503
f 500 497 501 504
v 39.353 0.886 78.356
v 51.119 0.886 89.447
v 40.507 0.886 100.704
v 28.741 0.886 89.613
v 39.353 4.786 78.356
v 51.119 4.786 89.447
v 40.507 4.786 100.704
v 28.741 4.786 89.613
f 512 511 510 509
f 505 506 510 509
f 506 507 511 510
f 507 508 512 511
f 508 505 509 512
v 27.996 0.052 60.936
v 43.148 0.052 73.744
v 32.684 0.052 86.124
v 17.532 0.052 73.316
v 27.996 3.952 60.936
v 43.148 3.952 73.744
v 32.684 3.952 86.124
v 17.532 3.952 73.316
f 520 519 518 517
f 513 514 518 517
f 514 515 519 518
f 515 516 520 519
f 516 513 517 520
v 58.020 0.838 89.000
v 61.993 0.838 112.780
v 42.720 0.838 116.000
v 38.747 0.838 92.220
v 58.020 4.738 89.000
v 61.993 4.738 112.780
v 42.720 4.738 116.000
v 38.747 4.738 92.220
f 528 527 526 525
f 521 522 526 525
f 522 523 527 526
f 523 524 528 527
f 524 521 525 528
v 64.040 1.100 104.052
v 77.785 1.100 115.674
v 67.660 1.100 127.648
v 53.915 1.100 116.026
v 64.040 5.000 104.052
v 77.785 5.000 115.674
v 67.660 5.000 127.648
v 53.915 5.000 116.026
f 536 535 534 533
f 529 530 534 533
f 530 531 535 534
f 531 532 536 535
f 532 529 533 536
v 70.354 0.978 119.376
v 90.303 0.978 126.550
v 84.306 0.978 143.224
v 64.357 0.978 136.050
v 70.354 4.878 119.376
v 90.303 4.878 126.550
v 84.306 4.878 143.224
v 64.357 4.878 136.050
f 544 543 542 541
f 537 538 542 541
f 538 539 543 542
f 539 540 544 543
f 540 537 541 544
v 97.667 0.939 133.596
v 101.189 0.939 154.055
v 82.553 0.939 157.264
v 79.031 0.939 136.805
v 97.667 4.839 133.596
v 101.189 4.839 154.055
v 82.553 4.839 157.264
v 79.031 4.839 136.805
f 552 551 550 549
f 545 546 550 549
f 546 547 551 550
f 547 548 552 551
f 548 545 549 552
v 92.185 0.927 168.182
v 92.285 0.927 149.343
v 110.055 0.927 149.438
v 109.955 0.927 168.277
v 92.185 4.827 168.182
v 92.285 4.827 149.343
v 110.055 4.827 149.438
v 109.955 4.827 168.277
f 560 559 558 557
f 553 554 558 557
f 554 555 559 558
f 555 556 560 559
f 556 553 557 560
v 111.018 0.884 162.386
v 121.997 0.884 172.913
v 112.522 0.884 182.794
v 101.543 0.884 172.267
v 111.018 4.784 162.386
v 121.997 4.784 172.913
v 112.522 4.784 182.794
v 101.543 4.784 172.267
f 568 567 566 565
f 561 562 566 565
f 562 563 567 566
f 563 564 568 567
f 564 561 565 568
v 131.269 0.703 179.986
v 131.811 0.703 196.607
v 113.851 0.703 197.194
v 113.309 0.703 180.573
v 131.269 4.603 179.986
v 131.811 4.603 196.607
v 113.851 4.603 197.194
v 113.309 4.603 180.573
f 576 575 574 573
f 569 570 574 573
f 570 571 575 574
f 571 572 576 575
f 572 569 573 576
v 150.241 1.107 190.918
v 150.941 1.107 214.928
v 131.279 1.107 215.502
v 130.579 1.107 191.492
v 150.241 5.007 190.918
v 150.941 5.007 214.928
v 131.279 5.007 215.502
v 130.579 5.007 191.492
f 584 583 582 581
f 577 578 582 581
f 578 579 583 582
f 579 580 584 583
f 580 577 581 584
v 180.700 1.057 152.883
v 192.551 1.057 170.220
v 175.000 1.057 182.217
v 163.149 1.057 164.880
v 180.700 4.957 152.883
v 192.551 4.957 170.220
v 175.000 4.957 182.217
v 163.149 4.957 164.880
f 592 591 590 589
f 585 586 590 589
f 586 587 591 590
f 587 588 592 591
f 588 585 589 592
v 159.903 0.806 140.566
v 176.176 0.806 155.474
v 166.557 0.806 165.974
v 150.284 0.806 151.066
v 159.903 4.706 140.566
v 176.176 4.706 155.474
v 166.557 4.706 165.974
v 150.284 4.706 151.066
f 600 599 598 597
f 593 594 598 597
f 594 595 599 598
f 595 596 600 599
f 596 593 597 600
v 140.357 0.987 112.951
v 152.526 0.987 122.759
v 144.023 0.987 133.309
v 131.854 0.987 123.501
v 140.357 4.887 112.951
v 152.526 4.887 122.759
v 144.023 4.887 133.309
v 131.854 4.887 123.501
f 608 607 606 605
f 601 602 606 605
f 602 603 607 606
f 603 604 608 607
f 604 601 605 608
v 153.615 0.818 124.160
v 165.656 0.818 140.627
v 151.005 0.818 151.340
v 138.964 0.818 134.873
v 153.615 4.718 124.160
v 165.656 4.718 140.627
v 151.005 4.718 151.340
v 138.964 4.718 134.873
f 616 615 614 613
f 609 610 614 613
f 610 611 615 614
f 611 612 616 615
f 612 609 613 616
v 123.498 1.144 97.391
v 141.841 1.144 105.754
v 134.822 1.144 121.149
v 116.479 1.144 112.786
v 123.498 5.044 97.391
v 141.841 5.044 105.754
v 134.822 5.044 121.149
v 116.479 5.044 112.786
f 624 623 622 621
f 617 618 622 621
f 618 619 623 622
f 619 620 624 623
f 620 617 621 624
v 120.096 0.998 82.488
v 130.855 0.998 96.868
v 117.404 0.998 106.932
v 106.645 0.998 92.552
v 120.096 4.898 82.488
v 130.855 4.898 96.868
v 117.404 4.898 106.932
v 106.645 4.898 92.552
f 632 631 630 629
f 625 626 630 629
f 626 627 631 630
f 627 628 632 631
f 628 625 629 632
v 103.511 0.905 71.037
v 117.267 0.905 82.145
v 108.629 0.905 92.843
v 94.873 0.905 81.735
v 103.511 4.805 71.037
v 117.267 4.805 82.145
v 108.629 4.805 92.843
v 94.873 4.805 81.735
f 640 639 638 637
f 633 634 638 637
f 634 635 639 638
f 635 636 640 639
f 636 633 637 640
v 92.028 0.992 57.384
v 104.669 0.992 67.159
v 95.732 0.992 78.716
v 83.091 0.992 68.941
v 92.028 4.892 57.384
v 104.669 4.892 67.159
v 95.732 4.892 78.716
v 83.091 4.892 68.941
f 648 647 646 645
f 641 642 646 645
f 642 643 647 646
f 643 644 648 647
f 644 641 645 648
v 80.934 0.816 43.114
v 94.182 0.816 57.108
v 84.466 0.816 66.306
v 71.218 0.816 52.312
v 80.934 4.716 43.114
v 94.182 4.716 57.108
v 84.466 4.716 66.306
v 71.218 4.716 52.312
f 656 655 654 653
f 649 650 654 653
f 650 651 655 654
f 651 652 656 655
f 652 649 653 656
v 70.815 0.758 27.768
v 83.969 0.758 41.157
v 74.325 0.758 50.632
v 61.171 0.758 37.243
v 70.815 4.658 27.768
v 83.969 4.658 41.157
v 74.325 4.658 50.632
v 61.171 4.658 37.243
f 664 663 662 661
f 657 658 662 661
f 658 659 663 662
f 659 660 664 663
f 660 657 661 664
v 51.620 1.118 14.493
v 71.010 1.118 25.158
v 63.140 1.118 39.467
v 43.750 1.118 28.802
v 51.620 5.018 14.493
v 71.010 5.018 25.158
v 63.140 5.018 39.467
v 43.750 5.018 28.802
f 672 671 670 669
f 665 666 670 669
f 666 667 671 670
f 667 668 672 671
f 668 665 669 672
v 45.222 0.923 0.224
v 58.380 0.923 12.726
v 47.938 0.923 23.716
v 34.780 0.923 11.214
v 45.222 4.823 0.224
v 58.380 4.823 12.726
v 47.938 4.823 23.716
v 34.780 4.823 11.214
f 680 679 678 677
f 673 674 678 677
f 674 675 679 678
f 675 676 680 679
f 676 673 677 680
v 34.914 0.974 -11.626
v 46.128 0.974 -1.499
v 36.966 0.974 8.646
v 25.752 0.974 -1.481
v 34.914 4.874 -11.626
v 46.128 4.874 -1.499
v 36.966 4.874 8.646
v 25.752 4.874 -1.481
f 688 687 686 685
f 681 682 686 685
f 682 683 687 686
f 683 684 688 687
f 684 681 685 688
v 16.846 0.801 -24.896
v 26.756 0.801 -36.395
v 35.634 0.801 -28.744
v 25.724 0.801 -17.245
v 16.846 4.701 -24.896
v 26.756 4.701 -36.395
v 35.634 4.701 -28.744
v 25.724 4.701 -17.245
f 696 695 694 693
f 689 690 694 693
f 690 691 695 694
f 691 692 696 695
f 692 689 693 696
v -116.167 0.843 91.011
v -115.453 0.843 67.832
v -94.813 0.843 68.469
v -95.527 0.843 91.648
v -116.167 4.743 91.011
v -115.453 4.743 67.832
v -94.813 4.743 68.469
v -95.527 4.743 91.648
f 704 703 702 701
f 697 698 702 701
f 698 699 703 702
f 699 700 704 703
f 700 697 701 704
v -87.530 0.781 84.417
v -68.507 0.781 92.399
v -75.490 0.781 109.043
v -94.513 0.781 101.061
v -87.530 4.681 84.417
v -68.507 4.681 92.399
v -75.490 4.681 109.043
v -94.513 4.681 101.061
f 712 711 710 709
f 705 706 710 709
f 706 707 711 710
f 707 708 712 711
f 708 705 709 712
v -68.308 0.899 95.158
v -54.980 0.899 111.812
v -69.112 0.899 123.122
v -82.440 0.899 106.468
v -68.308 4.799 95.158
v -54.980 4.799 111.812
v -69.112 4.799 123.122
v -82.440 4.799 106.468
f 720 719 718 717
f 713 714 718 717
f 714 715 719 718
f 715 716 720 719
f 716 713 717 720
v -69.221 0.982 131.050
v -64.124 0.982 115.031
v -48.039 0.982 120.150
v -53.136 0.982 136.169
v -69.221 4.882 131.050
v -64.124 4.882 115.031
v -48.039 4.882 120.150
v -53.136 4.882 136.169
f 728 727 726 725
f 721 722 726 725
f 722 723 727 726
f 723 724 728 727
f 724 721 725 728
v -58.509 0.619 139.109
v -46.057 0.619 128.575
v -35.671 0.619 140.851
v -48.123 0.619 151.385
v -58.509 4.519 139.109
v -46.057 4.519 128.575
v -35.671 4.519 140.851
v -48.123 4.519 151.385
f 736 735 734 733
f 729 730 734 733
f 730 731 735 734
f 731 732 736 735
f 732 729 733 736
v -29.410 1.132 137.576
v -19.112 1.132 157.277
v -36.650 1.132 166.444
v -46.948 1.132 146.743
v -29.410 5.032 137.576
v -19.112 5.032 157.277
v -36.650 5.032 166.444
v -46.948 5.032 146.743
f 744 743 742 741
f 737 738 742 741
f 738 739 743 742
f 739 740 744 743
f 740 737 741 744
v -35.573 1.060 169.051
v -25.874 1.060 155.443
v -12.087 1.060 165.269
v -21.786 1.060 178.877
v -35.573 4.960 169.051
v -25.874 4.960 155.443
v -12.087 4.960 165.269
v -21.786 4.960 178.877
f 752 751 750 749
f 745 746 750 749
f 746 747 751 750
f 747 748 752 751
f 748 745 749 752
v -4.368 0.843 169.735
v -2.135 0.843 189.711
v -20.152 0.843 191.725
v -22.385 0.843 171.749
v -4.368 4.743 169.735
v -2.135 4.743 189.711
v -20.152 4.743 191.725
v -22.385 4.743 171.749
f 760 759 758 757
f 753 754 758 757
f 754 755 759 758
f 755 756 760 759
f 756 753 757 760
v -1.747 0.895 187.016
v 9.543 0.895 194.635
v 2.087 0.895 205.684
v -9.203 0.895 198.065
v -1.747 4.795 187.016
v 9.543 4.795 194.635
v 2.087 4.795 205.684
v -9.203 4.795 198.065
f 768 767 766 765
f 761 762 766 765
f 762 763 767 766
f 763 764 768 767
f 764 761 765 768
v 0.794 1.020 202.733
v 19.598 1.020 197.028
v 25.266 1.020 215.707
v 6.462 1.020 221.412
v 0.794 4.920 202.733
v 19.598 4.920 197.028
v 25.266 4.920 215.707
v 6.462 4.920 221.412
f 776 775 774 773
f 769 770 774 773
f 770 771 775 774
f 771 772 776 775
f 772 769 773 776
v 25.036 0.858 214.142
v 35.578 0.858 221.934
v 28.124 0.858 232.018
v 17.582 0.858 224.226
v 25.036 4.758 214.142
v 35.578 4.758 221.934
v 28.124 4.758 232.018
v 17.582 4.758 224.226
f 784 783 782 781
f 777 778 782 781
f 778 779 783 782
f 779 780 784 783
f 780 777 781 784
v 25.373 0.844 239.304
v 34.468 0.844 228.939
v 43.307 0.844 236.696
v 34.212 0.844 247.061
v 25.373 4.744 239.304
v 34.468 4.744 228.939
v 43.307 4.744 236.696
v 34.212 4.744 247.061
f 792 791 790 789
f 785 786 790 789
f 786 787 791 790
f 787 788 792 791
f 788 785 789 792
v 36.224 0.878 258.589
v 40.717 0.878 239.788
v 59.556 0.878 244.291
v 55.063 0.878 263.092
v 36.224 4.778 258.589
v 40.717 4.778 239.788
v 59.556 4.778 244.291
v 55.063 4.778 263.092
f 800 799 798 797
f 793 794 798 797
f 794 795 799 798
f 795 796 800 799
f 796 793 797 800
v 102.665 1.460 217.916
v 116.392 1.460 230.064
v 102.355 1.460 245.924
v 88.628 1.460 233.776
v 102.665 5.360 217.916
v 116.392 5.360 230.064
v 102.355 5.360 245.924
v 88.628 5.360 233.776
f 808 807 806 805
f 801 802 806 805
f 802 803 807 806
f 803 804 808 807
f 804 801 805 808
v 73.074 0.922 215.019
v 85.719 0.922 195.771
v 98.766 0.922 204.341
v 86.121 0.922 223.589
v 73.074 4.822 215.019
v 85.719 4.822 195.771
v 98.766 4.822 204.341
v 86.121 4.822 223.589
f 816 815 814 813
f 809 810 814 813
f 810 811 815 814
f 811 812 816 815
f 812 809 813 816
v 64.425 1.807 176.062
v 79.793 1.807 190.197
v 69.435 1.807 201.458
v 54.067 1.807 187.323
v 64.425 5.707 176.062
v 79.793 5.707 190.197
v 69.435 5.707 201.458
v 54.067 5.707 187.323
f 824 823 822 821
f 817 818 822 821
f 818 819 823 822
f 819 820 824 823
f 820 817 821 824
v 22.228 1.430 132.489
v 43.748 1.430 136.656
v 40.152 1.430 155.231
v 18.632 1.430 151.064
v 22.228 5.330 132.489
v 43.748 5.330 136.656
v 40.152 5.330 155.231
v 18.632 5.330 151.064
f 832 831 830 829
f 825 826 830 829
f 826 827 831 830
f 827 828 832 831
f 828 825 829 832
v 50.019 0.881 159.215
v 68.735 0.881 167.651
v 60.381 0.881 186.185
v 41.665 0.881 177.749
v 50.019 4.781 159.215
v 68.735 4.781 167.651
v 60.381 4.781 186.185
v 41.665 4.781 177.749
f 840 839 838 837
f 833 834 838 837
f 834 835 839 838
f 835 836 840 839
f 836 833 837 840
v 38.043 1.155 145.797
v 56.197 1.155 165.756
v 43.437 1.155 177.363
v 25.283 1.155 157.404
v 38.043 5.055 145.797
v 56.197 5.055 165.756
v 43.437 5.055 177.363
v 25.283 5.055 157.404
f 848 847 846 845
f 841 842 846 845
f 842 843 847 846
f 843 844 848 847
f 844 841 845 848
v 15.697 0.842 120.821
v 29.035 0.842 131.965
v 19.783 0.842 143.039
v 6.445 0.842 131.895
v 15.697 4.742 120.821
v 29.035 4.742 131.965
v 19.783 4.742 143.039
v 6.445 4.742 131.895
f 856 855 854 853
f 849 850 854 853
f 850 851 855 854
f 851 852 856 855
f 852 849 853 856
v 7.330 0.937 105.004
v 17.861 0.937 118.528
v 6.910 0.937 127.056
v -3.621 0.937 113.532
v 7.330 4.837 105.004
v 17.861 4.837 118.528
v 6.910 4.837 127.056
v -3.621 4.837 113.532
f 864 863 862 861
f 857 858 862 861
f 858 859 863 862
f 859 860 864 863
f 860 857 861 864
v -9.580 1.078 91.938
v 6.719 1.078 106.774
v -4.320 1.078 118.902
v -20.619 1.078 104.066
v -9.580 4.978 91.938
v 6.719 4.978 106.774
v -4.320 4.978 118.902
v -20.619 4.978 104.066
f 872 871 870 869
f 865 866 870 869
f 866 867 871 870
f 867 868 872 871
f 868 865 869 872
v -17.426 1.110 80.923
v -5.524 1.110 89.855
v -12.594 1.110 99.277
v -24.496 1.110 90.345
v -17.426 5.010 80.923
v -5.524 5.010 89.855
v -12.594 5.010 99.277
v -24.496 5.010 90.345
f 880 879 878 877
f 873 874 878 877
f 874 875 879 878
f 875 876 880 879
f 876 873 877 880
v -29.481 1.143 65.033
v -17.038 1.143 78.178
v -28.099 1.143 88.647
v -40.542 1.143 75.502
v -29.481 5.043 65.033
v -17.038 5.043 78.178
v -28.099 5.043 88.647
v -40.542 5.043 75.502
f 888 887 886 885
f 881 882 886 885
f 882 883 887 886
f 883 884 888 887
f 884 881 885 888
v -49.072 0.757 50.398
v -31.367 0.757 63.491
v -39.008 0.757 73.822
v -56.713 0.757 60.729
v -49.072 4.657 50.398
v -31.367 4.657 63.491
v -39.008 4.657 73.822
v -56.713 4.657 60.729
f 896 895 894 893
f 889 890 894 893
f 890 891 895 894
f 891 892 896 895
f 892 889 893 896
v -71.021 0.976 42.205
v -57.856 0.976 25.934
v -49.079 0.976 33.035
v -62.244 0.976 49.306
v -71.021 4.876 42.205
v -57.856 4.876 25.934
v -49.079 4.876 33.035
v -62.244 4.876 49.306
f 904 903 902 901
f 897 898 902 901
f 898 899 903 902
f 899 900 904 903
f 900 897 901 904
v -239.964 1.423 -93.489
v -234.819 1.423 -72.469
v -253.196 1.423 -67.971
v -258.341 1.423 -88.991
v -239.964 5.323 -93.489
v -234.819 5.323 -72.469
v -253.196 5.323 -67.971
v -258.341 5.323 -88.991
f 912 911 910 909
f 905 906 910 909
f 906 907 911 910
f 907 908 912 911
f 908 905 909 912
v -60.156 1.048 185.056
v -49.784 1.048 194.204
v -56.504 1.048 201.824
v -66.876 1.048 192.676
v -60.156 4.948 185.056
v -49.784 4.948 194.204
v -56.504 4.948 201.824
v -66.876 4.948 192.676
f 920 919 918 917
f 913 914 918 917
f 914 915 919 918
f 915 916 920 919
f 916 913 917 920
v -43.825 1.049 196.600
v -31.102 1.049 216.667
v -46.295 1.049 226.300
v -59.018 1.049 206.233
v -43.825 4.949 196.600
v -31.102 4.949 216.667
v -46.295 4.949 226.300
v -59.018 4.949 206.233
f 928 927 926 925
f 921 922 926 925
f 922 923 927 926
f 923 924 928 927
f 924 921 925 928
v -39.635 1.065 212.455
v -20.077 1.065 220.214
v -26.405 1.065 236.165
v -45.963 1.065 228.406
v -39.635 4.965 212.455
v -20.077 4.965 220.214
v -26.405 4.965 236.165
v -45.963 4.965 228.406
f 936 935 934 933
f 929 930 934 933
f 930 931 935 934
f 931 932 936 935
f 932 929 933 936
v -28.288 0.968 226.263
v -10.081 0.968 232.696
v -15.092 0.968 246.877
v -33.299 0.968 240.444
v -28.288 4.868 226.263
v -10.081 4.868 232.696
v -15.092 4.868 246.877
v -33.299 4.868 240.444
f 944 943 942 941
f 937 938 942 941
f 938 939 943 942
f 939 940 944 943
f 940 937 941 944
v -19.155 0.989 257.672
v -11.287 0.989 247.664
v -5.965 0.989 251.848
v -13.833 0.989 261.856
v -19.155 4.889 257.672
v -11.287 4.889 247.664
v -5.965 4.889 251.848
v -13.833 4.889 261.856
f 952 951 950 949
f 945 946 950 949
f 946 947 951 950
f 947 948 952 951
f 948 945 949 952
v -12.540 0.933 251.166
v -4.010 0.933 240.923
v 2.560 0.933 246.394
v -5.970 0.933 256.637
v -12.540 4.833 251.166
v -4.010 4.833 240.923
v 2.560 4.833 246.394
v -5.970 4.833 256.637
f 960 959 958 957
f 953 954 958 957
f 954 955 959 958
f 955 956 960 959
f 956 953 957 960
v 243.650 0.957 183.452
v 247.769 0.957 178.659
v 251.690 0.957 182.028
v 247.571 0.957 186.821
v 243.650 4.857 183.452
v 247.769 4.857 178.659
v 251.690 4.857 182.028
v 247.571 4.857 186.821
f 968 967 966 965
f 961 962 966 965
f 962 963 967 966
f 963 964 968 967
f 964 961 965 968
v -250.755 0.980 94.830
v -234.659 0.980 110.667
v -247.985 0.980 124.210
v -264.081 0.980 108.373
v -250.755 4.880 94.830
v -234.659 4.880 110.667
v -247.985 4.880 124.210
v -264.081 4.880 108.373
f 976 975 974 973
f 969 970 974 973
f 970 971 975 974
f 971 972 976 975
f 972 969 973 976
v -245.558 0.851 92.438
v -226.036 0.851 79.592
v -212.382 0.851 100.342
v -231.904 0.851 113.188
v -245.558 4.751 92.438
v -226.036 4.751 79.592
v -212.382 4.751 100.342
v -231.904 4.751 113.188
f 984 983 982 981
f 977 978 982 981
f 978 979 983 982
f 979 980 984 983
f 980 977 981 984
v -226.550 0.909 88.667
v -219.049 0.909 67.083
v -197.550 0.909 74.553
v -205.051 0.909 96.137
v -226.550 4.809 88.667
v -219.049 4.809 67.083
v -197.550 4.809 74.553
v -205.051 4.809 96.137
f 992 991 990 989
f 985 986 990 989
f 986 987 991 990
f 987 988 992 991
f 988 985 989 992
v -184.767 1.011 48.223
v -178.743 1.011 72.507
v -198.213 1.011 77.337
v -204.237 1.011 53.053
v -184.767 4.911 48.223
v -178.743 4.911 72.507
v -198.213 4.911 77.337
v -204.237 4.911 53.053
f 1000 999 998 997
f 993 994 998 997
f 994 995 999 998
f 995 996 1000 999
f 996 993 997 1000
v -191.329 1.408 56.788
v -183.889 1.408 34.265
v -159.951 1.408 42.172
v -167.391 1.408 64.695
v -191.329 5.308 56.788
v -183.889 5.308 34.265
v -159.951 5.308 42.172
v -167.391 5.308 64.695
f 1008 1007 1006 1005
f 1001 1002 1006 1005
f 1002 1003 1007 1006
f 1003 1004 1008 1007
f 1004 1001 1005 1008
v -173.696 1.355 43.920
v -167.456 1.355 18.484
v -145.624 1.355 23.840
v -151.864 1.355 49.276
v -173.696 5.255 43.920
v -167.456 5.255 18.484
v -145.624 5.255 23.840
v -151.864 5.255 49.276
f 1016 1015 1014 1013
f 1009 1010 1014 1013
f 1010 1011 1015 1014
f 1011 1012 1016 1015
f 1012 1009 1013 1016
v -265.817 1.107 54.428
v -247.999 1.107 35.343
v -236.143 1.107 46.412
v -253.961 1.107 65.497
v -265.817 5.007 54.428
v -247.999 5.007 35.343
v -236.143 5.007 46.412
v -253.961 5.007 65.497
f 1024 1023 1022 1021
f 1017 1018 1022 1021
f 1018 1019 1023 1022
f 1019 1020 1024 1023
f 1020 1017 1021 1024
v -255.113 0.962 -14.987
v -252.685 0.962 -10.208
v -255.627 0.962 -8.713
v -258.055 0.962 -13.492
v -255.113 4.862 -14.987
v -252.685 4.862 -10.208
v -255.627 4.862 -8.713
v -258.055 4.862 -13.492
f 1032 1031 1030 1029
f 1025 1026 1030 1029
f 1026 1027 1031 1030
f 1027 1028 1032 1031
f 1028 1025 1029 1032
v -244.906 1.551 -8.898
v -239.200 1.551 9.256
v -256.134 1.551 14.578
v -261.840 1.551 -3.576
v -244.906 5.451 -8.898
v -239.200 5.451 9.256
v -256.134 5.451 14.578
v -261.840 5.451 -3.576
f 1040 1039 1038 1037
f 1033 1034 1038 1037
f 1034 1035 1039 1038
f 1035 1036 1040 1039
f 1036 1033 1037 1040
v -235.300 1.512 0.643
v -226.007 1.512 16.268
v -237.120 1.512 22.877
v -246.413 1.512 7.252
v -235.300 5.412 0.643
v -226.007 5.412 16.268
v -237.120 5.412 22.877
v -246.413 5.412 7.252
f 1048 1047 1046 1045
f 1041 1042 1046 1045
f 1042 1043 1047 1046
f 1043 1044 1048 1047
f 1044 1041 1045 1048
v -230.656 1.743 34.822
v -228.859 1.743 9.796
v -203.764 1.743 11.598
v -205.561 1.743 36.624
v -230.656 5.643 34.822
v -228.859 5.643 9.796
v -203.764 5.643 11.598
v -205.561 5.643 36.624
f 1056 1055 1054 1053
f 1049 1050 1054 1053
f 1050 1051 1055 1054
f 1051 1052 1056 1055
f 1052 1049 1053 1056
v -196.805 0.979 1.119
v -180.477 0.979 -7.706
v -174.495 0.979 3.361
v -190.823 0.979 12.186
v -196.805 4.879 1.119
v -180.477 4.879 -7.706
v -174.495 4.879 3.361
v -190.823 4.879 12.186
f 1064 1063 1062 1061
f 1057 1058 1062 1061
f 1058 1059 1063 1062
f 1059 1060 1064 1063
f 1060 1057 1061 1064
v -205.003 1.330 -18.529
v -191.433 1.330 -6.161
v -203.437 1.330 7.009
v -217.007 1.330 -5.359
v -205.003 5.230 -18.529
v -191.433 5.230 -6.161
v -203.437 5.230 7.009
v -217.007 5.230 -5.359
f 1072 1071 1070 1069
f 1065 1066 1070 1069
f 1066 1067 1071 1070
f 1067 1068 1072 1071
f 1068 1065 1069 1072
v -230.076 1.158 -17.834
v -216.129 1.158 -24.293
v -210.124 1.158 -11.326
v -224.071 1.158 -4.867
v -230.076 5.058 -17.834
v -216.129 5.058 -24.293
v -210.124 5.058 -11.326
v -224.071 5.058 -4.867
f 1080 1079 1078 1077
f 1073 1074 1078 1077
f 1074 1075 1079 1078
f 1075 1076 1080 1079
f 1076 1073 1077 1080
v -234.803 1.269 -34.728
v -223.000 1.269 -23.226
v -235.137 1.269 -10.772
v -246.940 1.269 -22.274
v -234.803 5.169 -34.728
v -223.000 5.169 -23.226
v -235.137 5.169 -10.772
v -246.940 5.169 -22.274
f 1088 1087 1086 1085
f 1081 1082 1086 1085
f 1082 1083 1087 1086
f 1083 1084 1088 1087
f 1084 1081 1085 1088
v -245.011 1.043 -42.305
v -242.810 1.043 -22.738
v -260.449 1.043 -20.755
v -262.650 1.043 -40.322
v -245.011 4.943 -42.305
v -242.810 4.943 -22.738
v -260.449 4.943 -20.755
v -262.650 4.943 -40.322
f 1096 1095 1094 1093
f 1089 1090 1094 1093
f 1090 1091 1095 1094
f 1091 1092 1096 1095
f 1092 1089 1093 1096
v -223.282 2.090 -80.474
v -204.738 2.090 -65.974
v -217.458 2.090 -49.706
v -236.002 2.090 -64.206
v -223.282 5.990 -80.474
v -204.738 5.990 -65.974
v -217.458 5.990 -49.706
v -236.002 5.990 -64.206
f 1104 1103 1102 1101
f 1097 1098 1102 1101
f 1098 1099 1103 1102
f 1099 1100 1104 1103
f 1100 1097 1101 1104
v -211.040 1.270 -58.875
v -191.102 1.270 -61.337
v -189.340 1.270 -47.065
v -209.278 1.270 -44.603
v -211.040 5.170 -58.875
v -191.102 5.170 -61.337
v -189.340 5.170 -47.065
v -209.278 5.170 -44.603
f 1112 1111 1110 1109
f 1105 1106 1110 1109
f 1106 1107 1111 1110
f 1107 1108 1112 1111
f 1108 1105 1109 1112
v -192.819 1.102 -51.084
v -174.783 1.102 -52.472
v -173.381 1.102 -34.256
v -191.417 1.102 -32.868
v -192.819 5.002 -51.084
v -174.783 5.002 -52.472
v -173.381 5.002 -34.256
v -191.417 5.002 -32.868
f 1120 1119 1118 1117
f 1113 1114 1118 1117
f 1114 1115 1119 1118
f 1115 1116 1120 1119
f 1116 1113 1117 1120
usemtl road
v -30.638 0.978 42.746
v 130.272 0.836 234.906
v 134.488 0.830 231.374
v -26.422 0.980 39.214
f 1121 1122 1123 1124
v -254.149 1.038 89.480
v -248.319 1.013 84.174
v -252.021 1.131 80.106
v -257.851 1.131 85.413
f 1125 1126 1127 1128
v -248.316 1.013 84.171
v -215.646 1.077 54.351
v -219.354 1.114 50.289
v -252.024 1.131 80.109
f 1129 1130 1131 1132
v -215.747 1.077 54.439
v -152.097 1.020 1.779
v -155.603 1.127 -2.459
v -219.253 1.115 50.201
f 1133 1134 1135 1136
v -152.054 1.019 1.742
v -121.824 1.117 -24.338
v -125.416 1.065 -28.502
v -155.646 1.127 -2.422
f 1137 1138 1139 1140
v 120.834 1.272 -84.142
v 253.894 0.965 74.377
v 258.106 1.044 70.841
v 125.046 1.340 -87.678
f 1141 1142 1143 1144
v -106.141 0.998 105.635
v 22.392 0.900 257.775
v 26.593 0.876 254.225
v -101.939 0.944 102.085
f 1145 1146 1147 1148
v 44.753 0.949 -20.030
v 207.913 0.986 170.200
v 212.087 0.966 166.620
v 48.927 0.963 -23.610
f 1149 1150 1151 1152
v -258.495 0.873 239.807
v -240.147 0.844 258.455
v -235.157 0.935 253.545
v -253.505 0.964 234.897
f 1153 1154 1155 1156
v 254.218 0.839 127.194
v 208.218 0.965 166.315
v 211.782 0.955 170.505
v 257.782 0.845 131.384
f 1157 1158 1159 1160
v 208.239 0.965 166.298
v 130.619 0.799 231.028
v 134.141 0.802 235.252
v 211.761 0.955 170.522
f 1161 1162 1163 1164
usemtl asphalt
