# Baked ultra-low Key West silhouette; generated by bake_key_west_far_city.py
mtllib far_city.mtl
usemtl massing
v -219.965 0.904 218.448
v -177.257 0.904 218.005
v -176.815 0.904 260.532
v -219.523 0.904 260.975
v -219.965 9.204 218.448
v -177.257 9.204 218.005
v -176.815 9.204 260.532
v -219.523 9.204 260.975
f 8 7 6 5
f 1 2 6 5
f 2 3 7 6
f 3 4 8 7
f 4 1 5 8
v -250.814 1.280 -186.457
v -142.524 1.280 -169.439
v -144.626 1.280 -156.063
v -252.916 1.280 -173.081
v -250.814 7.580 -186.457
v -142.524 7.580 -169.439
v -144.626 7.580 -156.063
v -252.916 7.580 -173.081
f 16 15 14 13
f 9 10 14 13
f 10 11 15 14
f 11 12 16 15
f 12 9 13 16
v 242.219 0.443 -241.710
v 252.420 0.443 -256.126
v 260.101 0.443 -250.690
v 249.900 0.443 -236.274
v 242.219 4.343 -241.710
v 252.420 4.343 -256.126
v 260.101 4.343 -250.690
v 249.900 4.343 -236.274
f 24 23 22 21
f 17 18 22 21
f 18 19 23 22
f 19 20 24 23
f 20 17 21 24
v 172.072 1.084 -153.184
v 292.457 1.084 -151.324
v 292.188 1.084 -133.896
v 171.803 1.084 -135.756
v 172.072 9.384 -153.184
v 292.457 9.384 -151.324
v 292.188 9.384 -133.896
v 171.803 9.384 -135.756
f 32 31 30 29
f 25 26 30 29
f 26 27 31 30
f 27 28 32 31
f 28 25 29 32
v -257.920 0.838 224.744
v -251.950 0.838 189.192
v -234.780 0.838 192.076
v -240.750 0.838 227.628
v -257.920 6.638 224.744
v -251.950 6.638 189.192
v -234.780 6.638 192.076
v -240.750 6.638 227.628
f 40 39 38 37
f 33 34 38 37
f 34 35 39 38
f 35 36 40 39
f 36 33 37 40
v -167.563 0.951 227.656
v -165.427 0.951 247.029
v -172.097 0.951 247.764
v -174.233 0.951 228.391
v -167.563 4.851 227.656
v -165.427 4.851 247.029
v -172.097 4.851 247.764
v -174.233 4.851 228.391
f 48 47 46 45
f 41 42 46 45
f 42 43 47 46
f 43 44 48 47
f 44 41 45 48
v -199.347 1.043 102.165
v -178.766 1.043 131.763
v -208.553 1.043 152.475
v -229.134 1.043 122.877
v -199.347 6.843 102.165
v -178.766 6.843 131.763
v -208.553 6.843 152.475
v -229.134 6.843 122.877
f 56 55 54 53
f 49 50 54 53
f 50 51 55 54
f 51 52 56 55
f 52 49 53 56
v -209.808 2.067 -49.705
v -186.111 2.067 -43.212
v -192.752 2.067 -18.975
v -216.449 2.067 -25.468
v -209.808 7.867 -49.705
v -186.111 7.867 -43.212
v -192.752 7.867 -18.975
v -216.449 7.867 -25.468
f 64 63 62 61
f 57 58 62 61
f 58 59 63 62
f 59 60 64 63
f 60 57 61 64
v -190.739 1.420 -25.461
v -188.533 1.420 -38.506
v -179.501 1.420 -36.979
v -181.707 1.420 -23.934
v -190.739 5.320 -25.461
v -188.533 5.320 -38.506
v -179.501 5.320 -36.979
v -181.707 5.320 -23.934
f 72 71 70 69
f 65 66 70 69
f 66 67 71 70
f 67 68 72 71
f 68 65 69 72
v -237.613 1.912 -73.719
v -234.965 1.912 -122.077
v -206.927 1.912 -120.541
v -209.575 1.912 -72.183
v -237.613 7.712 -73.719
v -234.965 7.712 -122.077
v -206.927 7.712 -120.541
v -209.575 7.712 -72.183
f 80 79 78 77
f 73 74 78 77
f 74 75 79 78
f 75 76 80 79
f 76 73 77 80
v 171.100 0.418 -160.525
v 171.461 0.418 -166.003
v 176.740 0.418 -165.655
v 176.379 0.418 -160.177
v 171.100 4.318 -160.525
v 171.461 4.318 -166.003
v 176.740 4.318 -165.655
v 176.379 4.318 -160.177
f 88 87 86 85
f 81 82 86 85
f 82 83 87 86
f 83 84 88 87
f 84 81 85 88
usemtl road
v -157.769 0.843 202.072
v -227.129 1.002 194.072
v -227.531 1.020 197.548
v -158.171 0.847 205.548
f 89 90 91 92
v -229.049 1.043 195.484
v -236.799 0.909 236.344
v -233.361 0.863 236.996
v -225.611 0.983 196.136
f 93 94 95 96
v -155.237 0.807 204.116
v -143.747 1.330 101.356
v -149.213 1.393 100.744
v -160.703 0.828 203.504
f 97 98 99 100
v -143.747 1.330 101.356
v -114.317 1.338 -161.794
v -119.783 1.204 -162.406
v -149.213 1.393 100.744
f 101 102 103 104
v -114.328 1.341 -161.707
v -110.118 0.900 -190.877
v -115.562 0.970 -191.663
v -119.772 1.201 -162.493
f 105 106 107 108
v -110.114 0.900 -190.909
v -109.204 0.871 -197.779
v -114.656 0.957 -198.501
v -115.566 0.970 -191.631
f 109 110 111 112
v -109.191 0.870 -197.898
v -104.131 0.807 -255.228
v -109.609 0.881 -255.712
v -114.669 0.956 -198.382
f 113 114 115 116
v 179.178 0.726 -166.160
v 194.648 0.820 -166.500
v 194.572 0.618 -170.000
v 179.102 0.696 -169.660
f 117 118 119 120
v 194.649 0.820 -166.500
v 230.899 0.969 -167.310
v 230.821 0.863 -170.810
v 194.571 0.618 -170.000
f 121 122 123 124
v 230.898 0.969 -167.310
v 256.038 1.008 -167.863
v 255.962 0.954 -171.362
v 230.822 0.863 -170.810
f 125 126 127 128
v -255.930 1.603 162.014
v -245.590 1.235 161.599
v -245.730 1.255 158.101
v -256.070 1.344 158.516
f 129 130 131 132
v -247.352 1.264 160.297
v -239.542 1.223 189.867
v -236.158 1.175 188.973
v -243.968 1.244 159.403
f 133 134 135 136
v -238.759 1.201 190.916
v -228.239 1.033 197.306
v -226.421 0.991 194.314
v -236.941 1.180 187.924
f 137 138 139 140
v 253.510 0.633 -218.505
v 253.460 0.620 -199.355
v 256.960 0.673 -199.345
v 257.010 0.637 -218.495
f 141 142 143 144
v -117.327 1.254 -163.828
v -194.297 1.852 -151.468
v -193.743 2.025 -148.012
v -116.773 1.357 -160.372
f 145 146 147 148
v -194.297 1.852 -151.468
v -256.277 1.656 -141.517
v -255.723 1.745 -138.061
v -193.743 2.025 -148.012
f 149 150 151 152
v -195.748 1.970 -149.465
v -183.918 1.739 -75.075
v -180.462 1.776 -75.625
v -192.292 1.932 -150.015
f 153 154 155 156
v -183.918 1.739 -75.075
v -174.178 0.903 -13.785
v -170.722 0.922 -14.335
v -180.462 1.776 -75.625
f 157 158 159 160
v -173.940 0.937 -14.978
v -179.730 0.910 -5.588
v -176.750 0.809 -3.752
v -170.960 0.888 -13.142
f 161 162 163 164
v -179.567 0.901 -5.811
v -196.907 1.289 14.369
v -194.253 1.307 16.651
v -176.913 0.811 -3.529
f 165 166 167 168
v -197.322 1.305 15.346
v -204.612 1.875 92.686
v -201.128 1.871 93.014
v -193.838 1.309 15.674
f 169 170 171 172
v -203.122 1.924 94.582
v -146.732 1.384 102.782
v -146.228 1.379 99.318
v -202.618 1.808 91.118
f 173 174 175 176
v -182.390 1.776 -77.089
v -233.500 1.923 -71.219
v -233.100 1.838 -67.741
v -181.990 1.728 -73.611
f 177 178 179 180
v -232.697 1.924 -71.123
v -235.857 1.937 -72.283
v -237.063 1.895 -68.997
v -233.903 1.849 -67.837
f 181 182 183 184
v -235.219 1.931 -71.873
v -239.789 1.991 -76.473
v -242.271 1.966 -74.007
v -237.701 1.903 -69.407
f 185 186 187 188
v -239.906 1.992 -76.581
v -245.046 2.028 -80.891
v -247.294 2.001 -78.209
v -242.154 1.965 -73.899
f 189 190 191 192
v -245.420 2.033 -81.131
v -250.290 2.119 -83.441
v -251.790 2.095 -80.279
v -246.920 2.000 -77.969
f 193 194 195 196
v -106.737 0.863 -257.215
v -113.706 0.928 -257.745
v -113.971 0.918 -254.255
v -107.003 0.845 -253.725
f 197 198 199 200
v -112.235 0.945 -199.863
v -156.435 1.601 -192.033
v -155.825 1.556 -188.587
v -111.625 0.924 -196.417
f 201 202 203 204
v -156.434 1.601 -192.033
v -169.764 1.294 -189.683
v -169.156 1.532 -186.237
v -155.826 1.556 -188.587
f 205 206 207 208
v -169.671 1.299 -189.697
v -228.561 1.552 -182.547
v -228.139 1.599 -179.073
v -169.249 1.532 -186.223
f 209 210 211 212
v -154.401 1.550 -190.579
v -158.331 1.674 -215.859
v -161.789 0.120 -215.321
v -157.859 1.555 -190.041
f 213 214 215 216
usemtl asphalt
