# Baked ultra-low Key West silhouette; generated by bake_key_west_far_city.py
mtllib far_city.mtl
usemtl massing
v -195.482 1.649 -103.389
v -192.102 1.649 -69.728
v -208.798 1.649 -68.051
v -212.178 1.649 -101.712
v -195.482 7.449 -103.389
v -192.102 7.449 -69.728
v -208.798 7.449 -68.051
v -212.178 7.449 -101.712
f 8 7 6 5
f 1 2 6 5
f 2 3 7 6
f 3 4 8 7
f 4 1 5 8
v -183.739 1.639 -223.015
v -180.689 1.639 -197.184
v -193.381 1.639 -195.685
v -196.431 1.639 -221.516
v -183.739 5.539 -223.015
v -180.689 5.539 -197.184
v -193.381 5.539 -195.685
v -196.431 5.539 -221.516
f 16 15 14 13
f 9 10 14 13
f 10 11 15 14
f 11 12 16 15
f 12 9 13 16
v -211.749 1.790 -244.541
v -181.350 1.790 -247.952
v -180.511 1.790 -240.479
v -210.910 1.790 -237.068
v -211.749 5.690 -244.541
v -181.350 5.690 -247.952
v -180.511 5.690 -240.479
v -210.910 5.690 -237.068
f 24 23 22 21
f 17 18 22 21
f 18 19 23 22
f 19 20 24 23
f 20 17 21 24
v -229.274 2.120 -221.923
v -227.927 2.120 -202.700
v -240.526 2.120 -201.817
v -241.873 2.120 -221.040
v -229.274 6.020 -221.923
v -227.927 6.020 -202.700
v -240.526 6.020 -201.817
v -241.873 6.020 -221.040
f 32 31 30 29
f 25 26 30 29
f 26 27 31 30
f 27 28 32 31
f 28 25 29 32
v -214.085 1.640 -178.719
v -183.381 1.640 -182.012
v -182.835 1.640 -176.921
v -213.539 1.640 -173.628
v -214.085 5.540 -178.719
v -183.381 5.540 -182.012
v -182.835 5.540 -176.921
v -213.539 5.540 -173.628
f 40 39 38 37
f 33 34 38 37
f 34 35 39 38
f 35 36 40 39
f 36 33 37 40
v -213.600 1.503 -32.929
v -213.490 1.503 -42.669
v -210.120 1.503 -42.631
v -210.230 1.503 -32.891
v -213.600 5.403 -32.929
v -213.490 5.403 -42.669
v -210.120 5.403 -42.631
v -210.230 5.403 -32.891
f 48 47 46 45
f 41 42 46 45
f 42 43 47 46
f 43 44 48 47
f 44 41 45 48
v -212.390 1.716 -13.084
v -208.160 1.716 -13.155
v -208.090 1.716 -9.016
v -212.320 1.716 -8.945
v -212.390 5.616 -13.084
v -208.160 5.616 -13.155
v -208.090 5.616 -9.016
v -212.320 5.616 -8.945
f 56 55 54 53
f 49 50 54 53
f 50 51 55 54
f 51 52 56 55
f 52 49 53 56
v -198.722 1.586 -134.848
v -189.564 1.586 -135.325
v -189.278 1.586 -129.832
v -198.436 1.586 -129.355
v -198.722 5.486 -134.848
v -189.564 5.486 -135.325
v -189.278 5.486 -129.832
v -198.436 5.486 -129.355
f 64 63 62 61
f 57 58 62 61
f 58 59 63 62
f 59 60 64 63
f 60 57 61 64
v -192.886 1.485 -111.904
v -185.946 1.485 -111.886
v -185.954 1.485 -108.856
v -192.894 1.485 -108.874
v -192.886 5.385 -111.904
v -185.946 5.385 -111.886
v -185.954 5.385 -108.856
v -192.894 5.385 -108.874
f 72 71 70 69
f 65 66 70 69
f 66 67 71 70
f 67 68 72 71
f 68 65 69 72
v -206.391 1.682 -157.059
v -192.967 1.682 -157.895
v -192.789 1.682 -155.041
v -206.213 1.682 -154.205
v -206.391 5.582 -157.059
v -192.967 5.582 -157.895
v -192.789 5.582 -155.041
v -206.213 5.582 -154.205
f 80 79 78 77
f 73 74 78 77
f 74 75 79 78
f 75 76 80 79
f 76 73 77 80
usemtl road
v -180.284 1.796 -63.929
v -160.593 0.882 -255.719
v -166.064 0.999 -256.281
v -185.756 1.850 -64.491
f 81 82 83 84
usemtl asphalt
