# Baked ultra-low Key West silhouette; generated by bake_key_west_far_city.py
mtllib far_city.mtl
usemtl massing
v -277.817 0.392 47.510
v -251.961 0.392 8.705
v -233.403 0.392 21.070
v -259.259 0.392 59.875
v -277.817 6.692 47.510
v -251.961 6.692 8.705
v -233.403 6.692 21.070
v -259.259 6.692 59.875
f 8 7 6 5
f 1 2 6 5
f 2 3 7 6
f 3 4 8 7
f 4 1 5 8
v -108.818 1.173 240.204
v -83.551 1.173 237.418
v -81.702 1.173 254.196
v -106.969 1.173 256.982
v -108.818 5.073 240.204
v -83.551 5.073 237.418
v -81.702 5.073 254.196
v -106.969 5.073 256.982
f 16 15 14 13
f 9 10 14 13
f 10 11 15 14
f 11 12 16 15
f 12 9 13 16
v -20.026 0.718 243.699
v -19.964 0.718 225.259
v -7.534 0.718 225.301
v -7.596 0.718 243.741
v -20.026 4.618 243.699
v -19.964 4.618 225.259
v -7.534 4.618 225.301
v -7.596 4.618 243.741
f 24 23 22 21
f 17 18 22 21
f 18 19 23 22
f 19 20 24 23
f 20 17 21 24
v -236.394 0.791 43.223
v -201.134 0.791 67.922
v -210.026 0.791 80.617
v -245.286 0.791 55.918
v -236.394 6.591 43.223
v -201.134 6.591 67.922
v -210.026 6.591 80.617
v -245.286 6.591 55.918
f 32 31 30 29
f 25 26 30 29
f 26 27 31 30
f 27 28 32 31
f 28 25 29 32
v -241.211 0.391 249.883
v -230.938 0.391 235.090
v -220.129 0.391 242.597
v -230.402 0.391 257.390
v -241.211 4.291 249.883
v -230.938 4.291 235.090
v -220.129 4.291 242.597
v -230.402 4.291 257.390
f 40 39 38 37
f 33 34 38 37
f 34 35 39 38
f 35 36 40 39
f 36 33 37 40
v -227.694 0.402 244.065
v -216.810 0.402 228.565
v -206.286 0.402 235.955
v -217.170 0.402 251.455
v -227.694 4.302 244.065
v -216.810 4.302 228.565
v -206.286 4.302 235.955
v -217.170 4.302 251.455
f 48 47 46 45
f 41 42 46 45
f 42 43 47 46
f 43 44 48 47
f 44 41 45 48
v -202.577 0.460 238.667
v -182.874 0.460 236.925
v -182.163 0.460 244.973
v -201.866 0.460 246.715
v -202.577 4.360 238.667
v -182.874 4.360 236.925
v -182.163 4.360 244.973
v -201.866 4.360 246.715
f 56 55 54 53
f 49 50 54 53
f 50 51 55 54
f 51 52 56 55
f 52 49 53 56
v -214.840 0.576 233.032
v -209.365 0.576 220.889
v -198.280 0.576 225.888
v -203.755 0.576 238.031
v -214.840 4.476 233.032
v -209.365 4.476 220.889
v -198.280 4.476 225.888
v -203.755 4.476 238.031
f 64 63 62 61
f 57 58 62 61
f 58 59 63 62
f 59 60 64 63
f 60 57 61 64
v -202.433 0.480 226.272
v -194.461 0.480 212.921
v -184.167 0.480 219.068
v -192.139 0.480 232.419
v -202.433 4.380 226.272
v -194.461 4.380 212.921
v -184.167 4.380 219.068
v -192.139 4.380 232.419
f 72 71 70 69
f 65 66 70 69
f 66 67 71 70
f 67 68 72 71
f 68 65 69 72
v -200.316 0.477 232.933
v -198.679 0.477 230.126
v -196.104 0.477 231.627
v -197.741 0.477 234.434
v -200.316 4.377 232.933
v -198.679 4.377 230.126
v -196.104 4.377 231.627
v -197.741 4.377 234.434
f 80 79 78 77
f 73 74 78 77
f 74 75 79 78
f 75 76 80 79
f 76 73 77 80
v -179.355 0.412 233.469
v -176.158 0.412 221.986
v -168.885 0.412 224.011
v -172.082 0.412 235.494
v -179.355 4.312 233.469
v -176.158 4.312 221.986
v -168.885 4.312 224.011
v -172.082 4.312 235.494
f 88 87 86 85
f 81 82 86 85
f 82 83 87 86
f 83 84 88 87
f 84 81 85 88
v -191.172 0.382 217.497
v -180.226 0.382 201.954
v -172.688 0.382 207.263
v -183.634 0.382 222.806
v -191.172 4.282 217.497
v -180.226 4.282 201.954
v -172.688 4.282 207.263
v -183.634 4.282 222.806
f 96 95 94 93
f 89 90 94 93
f 90 91 95 94
f 91 92 96 95
f 92 89 93 96
v -82.138 1.324 197.447
v -63.501 1.324 215.989
v -79.822 1.324 232.393
v -98.459 1.324 213.851
v -82.138 5.224 197.447
v -63.501 5.224 215.989
v -79.822 5.224 232.393
v -98.459 5.224 213.851
f 104 103 102 101
f 97 98 102 101
f 98 99 103 102
f 99 100 104 103
f 100 97 101 104
v -68.966 0.168 219.199
v -63.254 0.168 226.652
v -67.834 0.168 230.161
v -73.546 0.168 222.708
v -68.966 4.068 219.199
v -63.254 4.068 226.652
v -67.834 4.068 230.161
v -73.546 4.068 222.708
f 112 111 110 109
f 105 106 110 109
f 106 107 111 110
f 107 108 112 111
f 108 105 109 112
v -99.352 1.223 233.859
v -88.770 1.223 226.801
v -83.488 1.223 234.721
v -94.070 1.223 241.779
v -99.352 5.123 233.859
v -88.770 5.123 226.801
v -83.488 5.123 234.721
v -94.070 5.123 241.779
f 120 119 118 117
f 113 114 118 117
f 114 115 119 118
f 115 116 120 119
f 116 113 117 120
v -141.663 0.325 94.587
v -138.039 0.325 85.074
v -130.217 0.325 88.053
v -133.841 0.325 97.566
v -141.663 4.225 94.587
v -138.039 4.225 85.074
v -130.217 4.225 88.053
v -133.841 4.225 97.566
f 128 127 126 125
f 121 122 126 125
f 122 123 127 126
f 123 124 128 127
f 124 121 125 128
v -136.562 0.378 102.833
v -131.450 0.378 96.968
v -128.698 0.378 99.367
v -133.810 0.378 105.232
v -136.562 4.278 102.833
v -131.450 4.278 96.968
v -128.698 4.278 99.367
v -133.810 4.278 105.232
f 136 135 134 133
f 129 130 134 133
f 130 131 135 134
f 131 132 136 135
f 132 129 133 136
v -130.657 0.359 92.723
v -126.763 0.359 89.352
v -123.503 0.359 93.117
v -127.397 0.359 96.488
v -130.657 4.259 92.723
v -126.763 4.259 89.352
v -123.503 4.259 93.117
v -127.397 4.259 96.488
f 144 143 142 141
f 137 138 142 141
f 138 139 143 142
f 139 140 144 143
f 140 137 141 144
v -261.000 0.420 218.509
v -245.812 0.420 205.838
v -235.940 0.420 217.671
v -251.128 0.420 230.342
v -261.000 4.320 218.509
v -245.812 4.320 205.838
v -235.940 4.320 217.671
v -251.128 4.320 230.342
f 152 151 150 149
f 145 146 150 149
f 146 147 151 150
f 147 148 152 151
f 148 145 149 152
v -261.182 0.388 194.490
v -248.772 0.388 180.743
v -240.058 0.388 188.610
v -252.468 0.388 202.357
v -261.182 4.288 194.490
v -248.772 4.288 180.743
v -240.058 4.288 188.610
v -252.468 4.288 202.357
f 160 159 158 157
f 153 154 158 157
f 154 155 159 158
f 155 156 160 159
f 156 153 157 160
v -241.775 0.400 210.726
v -235.943 0.400 196.896
v -228.405 0.400 200.074
v -234.237 0.400 213.904
v -241.775 4.300 210.726
v -235.943 4.300 196.896
v -228.405 4.300 200.074
v -234.237 4.300 213.904
f 168 167 166 165
f 161 162 166 165
f 162 163 167 166
f 163 164 168 167
f 164 161 165 168
v -235.910 0.302 219.796
v -231.755 0.302 214.002
v -229.130 0.302 215.884
v -233.285 0.302 221.678
v -235.910 4.202 219.796
v -231.755 4.202 214.002
v -229.130 4.202 215.884
v -233.285 4.202 221.678
f 176 175 174 173
f 169 170 174 173
f 170 171 175 174
f 171 172 176 175
f 172 169 173 176
v -249.607 0.823 183.901
v -235.362 0.823 169.748
v -225.713 0.823 179.459
v -239.958 0.823 193.612
v -249.607 4.723 183.901
v -235.362 4.723 169.748
v -225.713 4.723 179.459
v -239.958 4.723 193.612
f 184 183 182 181
f 177 178 182 181
f 178 179 183 182
f 179 180 184 183
f 180 177 181 184
v -226.886 0.594 203.887
v -218.547 0.594 193.616
v -212.934 0.594 198.173
v -221.273 0.594 208.444
v -226.886 4.494 203.887
v -218.547 4.494 193.616
v -212.934 4.494 198.173
v -221.273 4.494 208.444
f 192 191 190 189
f 185 186 190 189
f 186 187 191 190
f 187 188 192 191
f 188 185 189 192
v -218.111 0.501 196.100
v -208.484 0.501 179.246
v -201.529 0.501 183.220
v -211.156 0.501 200.074
v -218.111 4.401 196.100
v -208.484 4.401 179.246
v -201.529 4.401 183.220
v -211.156 4.401 200.074
f 200 199 198 197
f 193 194 198 197
f 194 195 199 198
f 195 196 200 199
f 196 193 197 200
v -204.617 0.424 189.643
v -194.851 0.424 172.938
v -188.523 0.424 176.637
v -198.289 0.424 193.342
v -204.617 4.324 189.643
v -194.851 4.324 172.938
v -188.523 4.324 176.637
v -198.289 4.324 193.342
f 208 207 206 205
f 201 202 206 205
f 202 203 207 206
f 203 204 208 207
f 204 201 205 208
v -235.643 0.517 178.724
v -223.620 0.517 163.448
v -214.717 0.517 170.456
v -226.740 0.517 185.732
v -235.643 4.417 178.724
v -223.620 4.417 163.448
v -214.717 4.417 170.456
v -226.740 4.417 185.732
f 216 215 214 213
f 209 210 214 213
f 210 211 215 214
f 211 212 216 215
f 212 209 213 216
v -224.341 0.526 170.883
v -213.215 0.526 156.518
v -204.179 0.526 163.517
v -215.305 0.526 177.882
v -224.341 4.426 170.883
v -213.215 4.426 156.518
v -204.179 4.426 163.517
v -215.305 4.426 177.882
f 224 223 222 221
f 217 218 222 221
f 218 219 223 222
f 219 220 224 223
f 220 217 221 224
v -242.965 0.361 137.275
v -232.631 0.361 124.618
v -222.995 0.361 132.485
v -233.329 0.361 145.142
v -242.965 4.261 137.275
v -232.631 4.261 124.618
v -222.995 4.261 132.485
v -233.329 4.261 145.142
f 232 231 230 229
f 225 226 230 229
f 226 227 231 230
f 227 228 232 231
f 228 225 229 232
v -254.013 1.074 155.974
v -243.997 1.074 134.208
v -231.007 1.074 140.186
v -241.023 1.074 161.952
v -254.013 4.974 155.974
v -243.997 4.974 134.208
v -231.007 4.974 140.186
v -241.023 4.974 161.952
f 240 239 238 237
f 233 234 238 237
f 234 235 239 238
f 235 236 240 239
f 236 233 237 240
v -259.794 0.427 158.672
v -250.013 0.427 143.656
v -246.586 0.427 145.888
v -256.367 0.427 160.904
v -259.794 4.327 158.672
v -250.013 4.327 143.656
v -246.586 4.327 145.888
v -256.367 4.327 160.904
f 248 247 246 245
f 241 242 246 245
f 242 243 247 246
f 243 244 248 247
f 244 241 245 248
v -260.994 0.626 128.939
v -251.497 0.626 116.791
v -242.146 0.626 124.101
v -251.643 0.626 136.249
v -260.994 4.526 128.939
v -251.497 4.526 116.791
v -242.146 4.526 124.101
v -251.643 4.526 136.249
f 256 255 254 253
f 249 250 254 253
f 250 251 255 254
f 251 252 256 255
f 252 249 253 256
v -245.823 0.587 128.456
v -243.714 0.587 125.034
v -240.777 0.587 126.844
v -242.886 0.587 130.266
v -245.823 4.487 128.456
v -243.714 4.487 125.034
v -240.777 4.487 126.844
v -242.886 4.487 130.266
f 264 263 262 261
f 257 258 262 261
f 258 259 263 262
f 259 260 264 263
f 260 257 261 264
v -149.083 1.294 202.699
v -143.553 1.294 205.861
v -145.097 1.294 208.561
v -150.627 1.294 205.399
v -149.083 5.194 202.699
v -143.553 5.194 205.861
v -145.097 5.194 208.561
v -150.627 5.194 205.399
f 272 271 270 269
f 265 266 270 269
f 266 267 271 270
f 267 268 272 271
f 268 265 269 272
v -153.065 1.063 197.592
v -148.270 1.063 200.367
v -150.575 1.063 204.348
v -155.370 1.063 201.573
v -153.065 4.963 197.592
v -148.270 4.963 200.367
v -150.575 4.963 204.348
v -155.370 4.963 201.573
f 280 279 278 277
f 273 274 278 277
f 274 275 279 278
f 275 276 280 279
f 276 273 277 280
v -165.534 0.538 171.458
v -159.054 0.538 176.132
v -162.306 0.538 180.642
v -168.786 0.538 175.968
v -165.534 4.438 171.458
v -159.054 4.438 176.132
v -162.306 4.438 180.642
v -168.786 4.438 175.968
f 288 287 286 285
f 281 282 286 285
f 282 283 287 286
f 283 284 288 287
f 284 281 285 288
usemtl road
v -176.810 0.526 186.923
v -183.770 0.586 191.243
v -180.870 0.618 195.917
v -173.910 0.526 191.597
f 289 290 291 292
v -183.889 0.593 191.321
v -249.649 0.698 237.001
v -246.511 0.673 241.519
v -180.751 0.609 195.839
f 293 294 295 296
v -209.749 0.614 139.309
v -216.949 0.646 144.359
v -213.791 0.668 148.861
v -206.591 0.602 143.811
f 297 298 299 300
v -216.949 0.646 144.358
v -257.579 0.775 172.846
v -254.421 0.809 177.349
v -213.791 0.668 148.862
f 301 302 303 304
v -248.494 0.673 99.340
v -242.434 0.657 95.140
v -245.566 0.638 90.620
v -251.626 0.667 94.820
f 305 306 307 308
v -154.907 0.599 242.506
v -156.657 0.551 228.516
v -163.603 0.554 229.384
v -161.853 0.594 243.374
f 309 310 311 312
v -156.657 0.551 228.516
v -158.357 0.538 214.926
v -165.303 0.532 215.794
v -163.603 0.554 229.384
f 313 314 315 316
v -158.723 0.534 213.749
v -172.253 0.499 187.649
v -178.467 0.482 190.871
v -164.937 0.533 216.971
f 317 318 319 320
v -172.476 0.497 187.276
v -205.286 0.555 139.576
v -211.054 0.575 143.544
v -178.244 0.483 191.244
f 321 322 323 324
v -205.351 0.556 139.485
v -241.181 0.628 90.805
v -246.819 0.599 94.955
v -210.989 0.575 143.635
f 325 326 327 328
v -241.085 0.628 90.943
v -253.085 0.572 72.889
v -258.915 0.565 76.764
v -246.915 0.599 94.817
f 329 330 331 332
v -255.943 0.641 -0.642
v -253.803 0.633 -0.711
v -253.917 0.638 -4.209
v -256.057 0.636 -4.140
f 333 334 335 336
v -255.314 0.638 -1.486
v -225.544 0.595 42.974
v -222.636 0.582 41.026
v -252.406 0.636 -3.434
f 337 338 339 340
v -225.836 0.589 42.116
v -225.576 0.633 46.026
v -222.084 0.620 45.794
v -222.344 0.590 41.884
f 341 342 343 344
v -224.845 0.611 44.485
v -252.795 0.591 64.395
v -250.765 0.588 67.245
v -222.815 0.622 47.335
f 345 346 347 348
v -252.794 0.591 64.394
v -257.014 0.562 67.396
v -254.986 0.566 70.248
v -250.766 0.588 67.246
f 349 350 351 352
v -29.399 1.093 243.929
v -15.199 1.071 212.949
v -18.381 1.100 211.491
v -32.581 1.101 242.471
f 353 354 355 356
v -15.392 1.072 213.273
v -4.912 1.021 199.363
v -7.708 1.012 197.257
v -18.188 1.100 211.167
f 357 358 359 360
v -5.490 1.024 199.856
v 15.390 0.969 188.786
v 13.750 0.967 185.694
v -7.130 1.008 196.764
f 361 362 363 364
v 14.506 0.970 188.989
v 49.206 0.873 190.249
v 49.334 0.931 186.751
v 14.634 0.962 185.491
f 365 366 367 368
v 48.852 0.872 190.199
v 75.082 1.124 196.649
v 75.918 1.084 193.251
v 49.688 0.932 186.801
f 369 370 371 372
v 75.569 1.121 196.699
v 104.529 1.026 195.559
v 104.391 0.964 192.061
v 75.431 1.084 193.201
f 373 374 375 376
v 104.029 1.034 195.506
v 134.529 1.085 203.266
v 135.391 1.055 199.874
v 104.891 0.960 192.114
f 377 378 379 380
v 134.459 1.085 203.247
v 155.139 1.075 209.427
v 156.141 1.053 206.073
v 135.461 1.055 199.893
f 381 382 383 384
v 154.003 1.080 207.130
v 147.813 1.139 223.470
v 151.087 1.078 224.710
v 157.277 1.042 208.370
f 385 386 387 388
v -160.146 0.588 230.700
v -151.166 0.610 230.780
v -151.134 0.622 227.280
v -160.114 0.581 227.200
f 389 390 391 392
v -151.113 0.612 230.780
v -122.493 1.414 230.170
v -122.567 1.422 226.670
v -151.187 0.619 227.280
f 393 394 395 396
v -122.492 1.414 230.170
v -111.102 1.500 229.920
v -111.178 1.497 226.420
v -122.568 1.422 226.670
f 397 398 399 400
v -109.920 1.498 229.424
v -97.050 1.528 216.904
v -99.490 1.498 214.396
v -112.360 1.492 226.916
f 401 402 403 404
v -96.651 1.529 216.314
v -87.791 1.069 194.694
v -91.029 0.977 193.366
v -99.889 1.502 214.986
f 405 406 407 408
v -88.202 1.081 195.296
v -22.352 1.023 132.476
v -24.768 0.993 129.944
v -90.618 0.925 192.764
f 409 410 411 412
v -22.011 1.033 132.023
v -9.701 1.066 108.573
v -12.799 0.911 106.947
v -25.109 0.997 130.397
f 413 414 415 416
v -9.908 1.066 108.883
v -1.118 0.958 98.373
v -3.802 0.872 96.127
v -12.592 0.910 106.637
f 417 418 419 420
v -120.843 1.423 227.955
v -126.073 1.466 208.995
v -129.447 1.462 209.925
v -124.217 1.379 228.885
f 421 422 423 424
v -126.310 1.457 208.480
v -169.970 0.741 143.860
v -172.870 0.766 145.820
v -129.210 1.469 210.440
f 425 426 427 428
v -170.434 0.769 146.286
v -138.814 0.776 124.726
v -140.786 0.757 121.834
v -172.406 0.761 143.394
f 429 430 431 432
v -138.304 0.742 124.189
v -132.124 0.758 114.019
v -135.116 0.722 112.201
v -141.296 0.760 122.371
f 433 434 435 436
v -132.478 0.760 114.436
v -119.608 0.742 103.356
v -121.892 0.749 100.704
v -134.762 0.722 111.784
f 437 438 439 440
v -119.036 0.764 102.381
v -112.326 0.794 69.611
v -115.754 0.787 68.909
v -122.464 0.757 101.679
f 441 442 443 444
v -132.177 0.748 112.120
v -141.677 0.672 98.270
v -144.563 0.677 100.250
v -135.063 0.746 114.100
f 445 446 447 448
v -124.249 1.384 228.094
v -128.579 1.584 250.914
v -125.141 1.580 251.566
v -120.811 1.421 228.746
f 449 450 451 452
v -169.959 0.741 143.876
v -205.929 0.733 89.376
v -208.851 0.711 91.304
v -172.881 0.766 145.804
f 453 454 455 456
v -205.662 0.732 90.616
v -201.782 0.727 66.316
v -205.238 0.720 65.764
v -209.118 0.710 90.064
f 457 458 459 460
v -202.258 0.741 67.262
v -196.108 0.174 60.962
v -198.612 0.750 58.518
v -204.762 0.716 64.818
f 461 462 463 464
v -196.380 0.184 61.190
v -125.490 1.118 13.280
v -127.450 2.059 10.380
v -198.340 0.750 58.290
f 465 466 467 468
usemtl asphalt
