# Baked ultra-low Key West silhouette; generated by bake_key_west_far_city.py
mtllib far_city.mtl
usemtl massing
v -238.511 1.003 79.903
v -224.249 1.003 57.960
v -207.329 1.003 68.957
v -221.591 1.003 90.900
v -238.511 4.503 79.903
v -224.249 4.503 57.960
v -207.329 4.503 68.957
v -221.591 4.503 90.900
f 8 7 6 5
f 1 2 6 5
f 2 3 7 6
f 3 4 8 7
f 4 1 5 8
v -241.294 0.741 140.093
v -225.175 0.741 124.238
v -209.466 0.741 140.207
v -225.585 0.741 156.062
v -241.294 4.641 140.093
v -225.175 4.641 124.238
v -209.466 4.641 140.207
v -225.585 4.641 156.062
f 16 15 14 13
f 9 10 14 13
f 10 11 15 14
f 11 12 16 15
f 12 9 13 16
v -222.587 1.072 131.790
v -211.784 1.072 111.746
v -197.973 1.072 119.190
v -208.776 1.072 139.234
v -222.587 4.972 131.790
v -211.784 4.972 111.746
v -197.973 4.972 119.190
v -208.776 4.972 139.234
f 24 23 22 21
f 17 18 22 21
f 18 19 23 22
f 19 20 24 23
f 20 17 21 24
v -192.014 0.855 81.404
v -191.986 0.855 114.334
v -218.506 0.855 114.356
v -218.534 0.855 81.426
v -192.014 4.755 81.404
v -191.986 4.755 114.334
v -218.506 4.755 114.356
v -218.534 4.755 81.426
f 32 31 30 29
f 25 26 30 29
f 26 27 31 30
f 27 28 32 31
f 28 25 29 32
v -255.350 1.087 53.603
v -237.915 1.087 38.012
v -224.050 1.087 53.517
v -241.485 1.087 69.108
v -255.350 4.987 53.603
v -237.915 4.987 38.012
v -224.050 4.987 53.517
v -241.485 4.987 69.108
f 40 39 38 37
f 33 34 38 37
f 34 35 39 38
f 35 36 40 39
f 36 33 37 40
v -247.041 1.191 233.082
v -240.207 1.191 250.746
v -259.159 1.191 258.078
v -265.993 1.191 240.414
v -247.041 5.091 233.082
v -240.207 5.091 250.746
v -259.159 5.091 258.078
v -265.993 5.091 240.414
f 48 47 46 45
f 41 42 46 45
f 42 43 47 46
f 43 44 48 47
f 44 41 45 48
v -241.479 1.145 221.696
v -224.272 1.145 231.288
v -232.521 1.145 246.084
v -249.728 1.145 236.492
v -241.479 5.045 221.696
v -224.272 5.045 231.288
v -232.521 5.045 246.084
v -249.728 5.045 236.492
f 56 55 54 53
f 49 50 54 53
f 50 51 55 54
f 51 52 56 55
f 52 49 53 56
v -224.365 1.066 213.323
v -214.045 1.066 221.538
v -221.575 1.066 230.997
v -231.895 1.066 222.782
v -224.365 4.966 213.323
v -214.045 4.966 221.538
v -221.575 4.966 230.997
v -231.895 4.966 222.782
f 64 63 62 61
f 57 58 62 61
f 58 59 63 62
f 59 60 64 63
f 60 57 61 64
v -209.074 0.777 196.162
v -193.677 0.777 208.784
v -201.526 0.777 218.358
v -216.923 0.777 205.736
v -209.074 4.677 196.162
v -193.677 4.677 208.784
v -201.526 4.677 218.358
v -216.923 4.677 205.736
f 72 71 70 69
f 65 66 70 69
f 66 67 71 70
f 67 68 72 71
f 68 65 69 72
v -179.662 0.898 230.089
v -172.242 0.898 256.310
v -192.458 0.898 262.031
v -199.878 0.898 235.810
v -179.662 4.798 230.089
v -172.242 4.798 256.310
v -192.458 4.798 262.031
v -199.878 4.798 235.810
f 80 79 78 77
f 73 74 78 77
f 74 75 79 78
f 75 76 80 79
f 76 73 77 80
v -253.644 1.013 140.287
v -232.813 1.013 145.529
v -236.896 1.013 161.753
v -257.727 1.013 156.511
v -253.644 4.913 140.287
v -232.813 4.913 145.529
v -236.896 4.913 161.753
v -257.727 4.913 156.511
f 88 87 86 85
f 81 82 86 85
f 82 83 87 86
f 83 84 88 87
f 84 81 85 88
usemtl road
usemtl asphalt
