# Baked ultra-low Key West silhouette; generated by bake_key_west_far_city.py
mtllib far_city.mtl
usemtl massing
v -141.599 0.501 -129.581
v -85.843 0.501 -128.340
v -86.661 0.501 -91.579
v -142.417 0.501 -92.820
v -141.599 8.801 -129.581
v -85.843 8.801 -128.340
v -86.661 8.801 -91.579
v -142.417 8.801 -92.820
f 8 7 6 5
f 1 2 6 5
f 2 3 7 6
f 3 4 8 7
f 4 1 5 8
v -11.185 0.778 -186.557
v 183.342 0.778 -173.415
v 178.965 0.778 -108.623
v -15.562 0.778 -121.765
v -11.185 7.078 -186.557
v 183.342 7.078 -173.415
v 178.965 7.078 -108.623
v -15.562 7.078 -121.765
f 16 15 14 13
f 9 10 14 13
f 10 11 15 14
f 11 12 16 15
f 12 9 13 16
v 39.492 0.818 46.944
v 87.435 0.818 -17.722
v 114.868 0.818 2.616
v 66.925 0.818 67.282
v 39.492 4.318 46.944
v 87.435 4.318 -17.722
v 114.868 4.318 2.616
v 66.925 4.318 67.282
f 24 23 22 21
f 17 18 22 21
f 18 19 23 22
f 19 20 24 23
f 20 17 21 24
v 139.455 0.885 -14.667
v 216.115 0.885 -21.574
v 217.645 0.885 -4.593
v 140.985 0.885 2.314
v 139.455 7.185 -14.667
v 216.115 7.185 -21.574
v 217.645 7.185 -4.593
v 140.985 7.185 2.314
f 32 31 30 29
f 25 26 30 29
f 26 27 31 30
f 27 28 32 31
f 28 25 29 32
v -140.668 0.633 -233.957
v -102.062 0.633 -233.379
v -102.532 0.633 -201.983
v -141.138 0.633 -202.561
v -140.668 8.933 -233.957
v -102.062 8.933 -233.379
v -102.532 8.933 -201.983
v -141.138 8.933 -202.561
f 40 39 38 37
f 33 34 38 37
f 34 35 39 38
f 35 36 40 39
f 36 33 37 40
v -83.679 0.702 -199.980
v -83.431 0.702 -226.209
v -71.861 0.702 -226.100
v -72.109 0.702 -199.871
v -83.679 4.602 -199.980
v -83.431 4.602 -226.209
v -71.861 4.602 -226.100
v -72.109 4.602 -199.871
f 48 47 46 45
f 41 42 46 45
f 42 43 47 46
f 43 44 48 47
f 44 41 45 48
v -200.472 0.621 -207.416
v -182.457 0.621 -206.686
v -182.848 0.621 -197.024
v -200.863 0.621 -197.754
v -200.472 4.521 -207.416
v -182.457 4.521 -206.686
v -182.848 4.521 -197.024
v -200.863 4.521 -197.754
f 56 55 54 53
f 49 50 54 53
f 50 51 55 54
f 51 52 56 55
f 52 49 53 56
v -203.063 0.730 -209.254
v -202.735 0.730 -226.191
v -193.217 0.730 -226.006
v -193.545 0.730 -209.069
v -203.063 4.630 -209.254
v -202.735 4.630 -226.191
v -193.217 4.630 -226.006
v -193.545 4.630 -209.069
f 64 63 62 61
f 57 58 62 61
f 58 59 63 62
f 59 60 64 63
f 60 57 61 64
v -192.026 0.563 -209.449
v -190.944 0.563 -226.224
v -181.754 0.563 -225.631
v -182.836 0.563 -208.856
v -192.026 4.463 -209.449
v -190.944 4.463 -226.224
v -181.754 4.463 -225.631
v -182.836 4.463 -208.856
f 72 71 70 69
f 65 66 70 69
f 66 67 71 70
f 67 68 72 71
f 68 65 69 72
v -171.053 0.571 -225.354
v -171.037 0.571 -208.974
v -179.367 0.571 -208.966
v -179.383 0.571 -225.346
v -171.053 4.471 -225.354
v -171.037 4.471 -208.974
v -179.367 4.471 -208.966
v -179.383 4.471 -225.346
f 80 79 78 77
f 73 74 78 77
f 74 75 79 78
f 75 76 80 79
f 76 73 77 80
v -240.885 0.531 -245.277
v -222.840 0.531 -243.740
v -223.615 0.531 -234.643
v -241.660 0.531 -236.180
v -240.885 4.431 -245.277
v -222.840 4.431 -243.740
v -223.615 4.431 -234.643
v -241.660 4.431 -236.180
f 88 87 86 85
f 81 82 86 85
f 82 83 87 86
f 83 84 88 87
f 84 81 85 88
v -226.198 0.579 -245.355
v -216.840 0.579 -257.648
v -209.822 0.579 -252.305
v -219.180 0.579 -240.012
v -226.198 4.479 -245.355
v -216.840 4.479 -257.648
v -209.822 4.479 -252.305
v -219.180 4.479 -240.012
f 96 95 94 93
f 89 90 94 93
f 90 91 95 94
f 91 92 96 95
f 92 89 93 96
v -216.691 0.605 -249.582
v -205.182 0.605 -264.092
v -198.029 0.605 -258.418
v -209.538 0.605 -243.908
v -216.691 4.505 -249.582
v -205.182 4.505 -264.092
v -198.029 4.505 -258.418
v -209.538 4.505 -243.908
f 104 103 102 101
f 97 98 102 101
f 98 99 103 102
f 99 100 104 103
f 100 97 101 104
v -203.415 0.653 -250.854
v -192.204 0.653 -264.846
v -185.165 0.653 -259.206
v -196.376 0.653 -245.214
v -203.415 4.553 -250.854
v -192.204 4.553 -264.846
v -185.165 4.553 -259.206
v -196.376 4.553 -245.214
f 112 111 110 109
f 105 106 110 109
f 106 107 111 110
f 107 108 112 111
f 108 105 109 112
v -189.249 0.671 -251.797
v -178.392 0.671 -265.496
v -170.931 0.671 -259.583
v -181.788 0.671 -245.884
v -189.249 4.571 -251.797
v -178.392 4.571 -265.496
v -170.931 4.571 -259.583
v -181.788 4.571 -245.884
f 120 119 118 117
f 113 114 118 117
f 114 115 119 118
f 115 116 120 119
f 116 113 117 120
v -255.693 0.360 -244.024
v -250.220 0.360 -251.017
v -248.047 0.360 -249.316
v -253.520 0.360 -242.323
v -255.693 4.260 -244.024
v -250.220 4.260 -251.017
v -248.047 4.260 -249.316
v -253.520 4.260 -242.323
f 128 127 126 125
f 121 122 126 125
f 122 123 127 126
f 123 124 128 127
f 124 121 125 128
v -256.070 0.340 -245.240
v -252.165 0.340 -269.082
v -234.570 0.340 -266.200
v -238.475 0.340 -242.358
v -256.070 4.240 -245.240
v -252.165 4.240 -269.082
v -234.570 4.240 -266.200
v -238.475 4.240 -242.358
f 136 135 134 133
f 129 130 134 133
f 130 131 135 134
f 131 132 136 135
f 132 129 133 136
v 85.567 1.022 -118.256
v 116.477 1.022 -114.642
v 114.913 1.022 -101.264
v 84.003 1.022 -104.878
v 85.567 4.922 -118.256
v 116.477 4.922 -114.642
v 114.913 4.922 -101.264
v 84.003 4.922 -104.878
f 144 143 142 141
f 137 138 142 141
f 138 139 143 142
f 139 140 144 143
f 140 137 141 144
v 170.643 0.869 11.078
v 249.959 0.869 7.435
v 251.837 0.869 48.322
v 172.521 0.869 51.965
v 170.643 10.169 11.078
v 249.959 10.169 7.435
v 251.837 10.169 48.322
v 172.521 10.169 51.965
f 152 151 150 149
f 145 146 150 149
f 146 147 151 150
f 147 148 152 151
f 148 145 149 152
v -215.529 0.769 4.827
v -108.967 0.769 11.648
v -113.171 0.769 77.333
v -219.733 0.769 70.512
v -215.529 9.069 4.827
v -108.967 9.069 11.648
v -113.171 9.069 77.333
v -219.733 9.069 70.512
f 160 159 158 157
f 153 154 158 157
f 154 155 159 158
f 155 156 160 159
f 156 153 157 160
v 22.967 0.531 -206.353
v 29.756 0.531 -206.277
v 29.713 0.531 -202.427
v 22.924 0.531 -202.503
v 22.967 4.431 -206.353
v 29.756 4.431 -206.277
v 29.713 4.431 -202.427
v 22.924 4.431 -202.503
f 168 167 166 165
f 161 162 166 165
f 162 163 167 166
f 163 164 168 167
f 164 161 165 168
v -132.907 0.720 -89.258
v -82.084 0.720 -80.694
v -86.373 0.720 -55.242
v -137.196 0.720 -63.806
v -132.907 6.520 -89.258
v -82.084 6.520 -80.694
v -86.373 6.520 -55.242
v -137.196 6.520 -63.806
f 176 175 174 173
f 169 170 174 173
f 170 171 175 174
f 171 172 176 175
f 172 169 173 176
v -206.761 1.152 -3.576
v -203.758 1.152 -104.832
v -177.179 1.152 -104.044
v -180.182 1.152 -2.788
v -206.761 10.452 -3.576
v -203.758 10.452 -104.832
v -177.179 10.452 -104.044
v -180.182 10.452 -2.788
f 184 183 182 181
f 177 178 182 181
f 178 179 183 182
f 179 180 184 183
f 180 177 181 184
v -215.371 0.567 -145.174
v -186.548 0.567 -150.606
v -182.489 0.567 -129.066
v -211.312 0.567 -123.634
v -215.371 4.467 -145.174
v -186.548 4.467 -150.606
v -182.489 4.467 -129.066
v -211.312 4.467 -123.634
f 192 191 190 189
f 185 186 190 189
f 186 187 191 190
f 187 188 192 191
f 188 185 189 192
v -221.635 1.719 -130.889
v -187.623 1.719 -137.612
v -184.365 1.719 -121.131
v -218.377 1.719 -114.408
v -221.635 5.619 -130.889
v -187.623 5.619 -137.612
v -184.365 5.619 -121.131
v -218.377 5.619 -114.408
f 200 199 198 197
f 193 194 198 197
f 194 195 199 198
f 195 196 200 199
f 196 193 197 200
v -197.666 0.950 16.636
v -183.450 0.950 16.946
v -183.634 0.950 25.384
v -197.850 0.950 25.074
v -197.666 4.850 16.636
v -183.450 4.850 16.946
v -183.634 4.850 25.384
v -197.850 4.850 25.074
f 208 207 206 205
f 201 202 206 205
f 202 203 207 206
f 203 204 208 207
f 204 201 205 208
v -173.426 1.038 16.925
v -154.214 1.038 17.488
v -154.434 1.038 24.975
v -173.646 1.038 24.412
v -173.426 4.938 16.925
v -154.214 4.938 17.488
v -154.434 4.938 24.975
v -173.646 4.938 24.412
f 216 215 214 213
f 209 210 214 213
f 210 211 215 214
f 211 212 216 215
f 212 209 213 216
v -192.862 0.553 -168.620
v -192.347 0.553 -181.110
v -178.998 0.553 -180.560
v -179.513 0.553 -168.070
v -192.862 4.453 -168.620
v -192.347 4.453 -181.110
v -178.998 4.453 -180.560
v -179.513 4.453 -168.070
f 224 223 222 221
f 217 218 222 221
f 218 219 223 222
f 219 220 224 223
f 220 217 221 224
usemtl road
v 92.069 1.381 -186.473
v 106.119 1.127 -177.063
v 108.901 1.145 -181.217
v 94.851 1.666 -190.627
f 225 226 227 228
v 107.464 1.113 -176.640
v 115.144 1.086 -176.500
v 115.236 1.130 -181.500
v 107.556 1.158 -181.640
f 229 230 231 232
v 115.180 1.086 -176.500
v 146.830 1.040 -176.370
v 146.850 0.972 -181.370
v 115.200 1.130 -181.500
f 233 234 235 236
v 146.857 1.040 -176.370
v 179.497 0.963 -176.590
v 179.463 0.927 -181.590
v 146.823 0.972 -181.370
f 237 238 239 240
v 179.501 0.963 -176.590
v 189.221 0.961 -176.670
v 189.179 0.961 -181.670
v 179.459 0.927 -181.590
f 241 242 243 244
v 188.660 0.951 -176.729
v 205.520 1.128 -172.999
v 206.600 1.120 -177.881
v 189.740 0.963 -181.611
f 245 246 247 248
v 204.335 1.115 -173.630
v 209.865 1.119 -168.360
v 213.315 1.193 -171.980
v 207.785 1.154 -177.250
f 249 250 251 252
v 209.106 1.133 -169.891
v 209.706 1.070 -164.551
v 214.674 1.156 -165.109
v 214.074 1.189 -170.449
f 253 254 255 256
v 209.813 1.083 -165.603
v 208.183 1.034 -160.593
v 212.937 1.087 -159.047
v 214.567 1.146 -164.057
f 257 258 259 260
v 208.186 1.034 -160.603
v 206.576 0.998 -155.723
v 211.324 1.040 -154.157
v 212.934 1.087 -159.037
f 261 262 263 264
v 206.451 0.990 -155.013
v 206.081 0.972 -142.303
v 211.079 1.047 -142.157
v 211.449 1.044 -154.867
f 265 266 267 268
v 206.101 0.974 -141.906
v 207.991 1.138 -127.456
v 212.949 1.146 -128.104
v 211.059 1.047 -142.554
f 269 270 271 272
v 208.114 1.142 -126.944
v 213.524 1.088 -111.694
v 218.236 1.108 -113.366
v 212.826 1.147 -128.616
f 273 274 275 276
v 213.567 1.086 -111.582
v 215.927 1.036 -105.822
v 220.553 1.072 -107.718
v 218.193 1.109 -113.478
f 277 278 279 280
v 216.481 1.034 -104.994
v 220.651 1.025 -100.864
v 224.169 1.061 -104.416
v 219.999 1.075 -108.546
f 281 282 283 284
v 220.670 1.025 -100.845
v 226.290 1.058 -95.395
v 229.770 1.065 -98.985
v 224.150 1.061 -104.435
f 285 286 287 288
v 225.993 1.053 -95.741
v 241.403 1.062 -74.071
v 245.477 1.027 -76.969
v 230.067 1.064 -98.639
f 289 290 291 292
v 241.156 1.067 -74.504
v 247.636 1.046 -59.934
v 252.204 1.024 -61.966
v 245.724 1.026 -76.536
f 293 294 295 296
v 247.440 1.042 -61.263
v 242.700 1.127 -23.733
v 247.660 1.057 -23.107
v 252.400 1.023 -60.637
f 297 298 299 300
v 245.382 1.107 -25.912
v 219.382 1.149 -28.022
v 218.978 1.099 -23.038
v 244.978 1.100 -20.928
f 301 302 303 304
v 217.518 1.132 -27.398
v 210.728 1.068 -21.358
v 214.052 1.132 -17.622
v 220.842 1.095 -23.662
f 305 306 307 308
v 212.637 1.078 -21.978
v 134.517 1.130 -29.738
v 134.023 1.143 -24.762
v 212.143 1.134 -17.002
f 309 310 311 312
v 67.389 1.042 -120.384
v 60.929 1.108 -110.034
v 65.171 1.190 -107.386
v 71.631 1.102 -117.736
f 313 314 315 316
v 61.918 1.111 -110.939
v 23.468 1.039 -91.419
v 25.732 0.961 -86.961
v 64.182 1.188 -106.481
f 317 318 319 320
v 22.206 0.999 -88.470
v 25.266 0.975 -78.300
v 30.054 1.004 -79.740
v 26.994 1.025 -89.910
f 321 322 323 324
v 25.475 0.981 -77.806
v 40.475 1.026 -50.806
v 44.845 1.034 -53.234
v 29.845 0.999 -80.234
f 325 326 327 328
v 40.582 1.026 -50.630
v 57.432 1.023 -25.450
v 61.588 0.968 -28.230
v 44.738 1.033 -53.410
f 329 330 331 332
v 58.012 1.015 -24.839
v 66.122 1.063 -18.769
v 69.118 1.059 -22.771
v 61.008 0.969 -28.841
f 333 334 335 336
v 65.660 1.052 -19.218
v 123.060 0.891 53.302
v 126.980 1.024 50.198
v 69.580 1.064 -22.322
f 337 338 339 340
v 123.429 0.941 49.822
v 81.609 1.107 84.342
v 84.791 1.139 88.198
v 126.611 0.989 53.678
f 341 342 343 344
v 81.339 1.111 84.601
v 75.449 1.197 91.171
v 79.171 1.183 94.509
v 85.061 1.139 87.939
f 345 346 347 348
v 74.906 1.209 92.154
v 72.136 0.957 101.854
v 76.944 0.120 103.226
v 79.714 1.172 93.526
f 349 350 351 352
v 72.245 1.022 101.549
v 69.835 0.168 107.129
v 74.425 0.120 109.111
v 76.835 0.120 103.531
f 353 354 355 356
v 70.078 0.194 106.692
v 65.758 0.184 112.902
v 69.862 0.120 115.758
v 74.182 0.120 109.548
f 357 358 359 360
v 65.312 0.253 114.223
v 64.392 0.342 135.653
v 69.388 0.120 135.867
v 70.308 0.120 114.437
f 361 362 363 364
v 64.390 0.343 135.720
v 64.090 0.120 154.520
v 69.090 0.120 154.600
v 69.390 0.120 135.800
f 365 366 367 368
v 64.774 0.120 156.278
v 105.424 0.120 199.248
v 109.056 0.120 195.812
v 68.406 0.120 152.842
f 369 370 371 372
v 105.950 0.120 199.671
v 116.690 0.394 206.141
v 119.270 0.120 201.859
v 108.530 0.120 195.389
f 373 374 375 376
v 116.901 0.394 206.255
v 138.731 0.404 216.695
v 140.889 0.120 212.185
v 119.059 0.120 201.745
f 377 378 379 380
v 139.177 0.410 216.859
v 144.947 0.332 218.369
v 146.213 0.120 213.531
v 140.443 0.120 212.021
f 381 382 383 384
v 145.467 0.324 218.447
v 167.877 0.120 219.457
v 168.103 0.120 214.463
v 145.693 0.120 213.453
f 385 386 387 388
v 168.393 0.120 219.427
v 174.763 0.120 218.387
v 173.957 0.120 213.453
v 167.587 0.120 214.493
f 389 390 391 392
v 175.358 0.120 218.212
v 238.948 0.457 190.512
v 236.952 0.685 185.928
v 173.362 0.120 213.628
f 393 394 395 396
v -153.191 0.773 -191.464
v -154.281 0.673 -236.844
v -161.279 0.683 -236.676
v -160.189 0.809 -191.296
f 397 398 399 400
v -154.281 0.673 -236.825
v -154.638 0.632 -256.065
v -161.637 0.638 -255.935
v -161.279 0.683 -236.695
f 401 402 403 404
v -212.053 0.544 -188.290
v -156.673 0.833 -188.630
v -156.707 0.824 -194.130
v -212.087 0.584 -193.790
f 405 406 407 408
v -157.446 0.835 -188.736
v -147.446 0.695 -185.876
v -145.934 0.692 -191.164
v -155.934 0.813 -194.024
f 409 410 411 412
v -146.651 0.685 -185.770
v -70.991 0.819 -186.830
v -71.069 0.878 -192.330
v -146.729 0.692 -191.270
f 413 414 415 416
v -70.991 0.819 -186.830
v -51.211 0.810 -187.110
v -51.289 0.872 -192.610
v -71.069 0.878 -192.330
f 417 418 419 420
v -51.193 0.810 -187.111
v -19.963 0.670 -187.761
v -20.077 0.736 -193.259
v -51.307 0.872 -192.609
f 421 422 423 424
v -19.947 0.670 -187.761
v 83.373 1.123 -190.521
v 83.227 1.244 -196.019
v -20.093 0.736 -193.259
f 425 426 427 428
v 82.925 1.104 -190.546
v 89.165 1.347 -189.686
v 89.915 1.564 -195.134
v 83.675 1.268 -195.994
f 429 430 431 432
v 87.611 1.313 -190.451
v 91.531 1.362 -186.591
v 95.389 1.683 -190.509
v 91.469 1.617 -194.369
f 433 434 435 436
v -158.133 0.830 -192.369
v -161.903 0.785 -186.869
v -159.017 0.812 -184.891
v -155.247 0.819 -190.391
f 437 438 439 440
v -162.210 0.791 -185.861
v -162.140 0.869 -179.381
v -158.640 0.860 -179.419
v -158.710 0.809 -185.899
f 441 442 443 444
v -162.140 0.869 -179.384
v -162.000 0.867 -164.094
v -158.500 0.873 -164.126
v -158.640 0.860 -179.416
f 445 446 447 448
v -162.000 0.866 -164.070
v -161.710 0.695 -151.520
v -158.210 0.698 -151.600
v -158.500 0.873 -164.150
f 449 450 451 452
v -161.709 0.695 -151.514
v -161.319 0.618 -136.564
v -157.821 0.647 -136.656
v -158.211 0.698 -151.606
f 453 454 455 456
v -161.320 0.618 -136.580
v -161.230 0.624 -131.360
v -157.730 0.644 -131.420
v -157.820 0.647 -136.640
f 457 458 459 460
v -161.229 0.624 -131.327
v -160.739 0.564 -117.647
v -157.241 0.574 -117.773
v -157.731 0.644 -131.453
f 461 462 463 464
v -160.414 0.555 -116.693
v -156.324 0.520 -110.963
v -153.476 0.526 -112.997
v -157.566 0.577 -118.727
f 465 466 467 468
v -167.324 0.631 -114.127
v -168.504 0.702 -109.067
v -165.096 0.686 -108.273
v -163.916 0.595 -113.333
f 469 470 471 472
v -168.550 0.715 -108.643
v -168.470 0.860 -103.473
v -164.970 0.771 -103.527
v -165.050 0.679 -108.697
f 473 474 475 476
v -168.470 0.860 -103.473
v -167.920 1.071 -67.843
v -164.420 0.818 -67.897
v -164.970 0.771 -103.527
f 477 478 479 480
v -167.920 1.071 -67.836
v -167.730 0.994 -58.106
v -164.230 0.947 -58.174
v -164.420 0.818 -67.904
f 481 482 483 484
v -167.730 0.994 -58.137
v -167.720 1.101 -52.387
v -164.220 0.944 -52.393
v -164.230 0.947 -58.143
f 485 486 487 488
v -167.720 1.101 -52.368
v -167.390 0.983 -25.758
v -163.890 0.927 -25.802
v -164.220 0.944 -52.412
f 489 490 491 492
v -167.390 0.983 -25.756
v -167.350 1.024 -22.796
v -163.850 0.970 -22.844
v -163.890 0.927 -25.804
f 493 494 495 496
v -167.349 1.025 -22.760
v -166.569 0.962 -0.150
v -163.071 0.844 -0.270
v -163.851 0.969 -22.880
f 497 498 499 500
v -166.568 0.961 -0.117
v -166.238 0.879 6.083
v -162.742 0.947 5.897
v -163.072 0.845 -0.303
f 501 502 503 504
v -141.584 1.036 -111.239
v -154.574 0.522 -113.699
v -155.226 0.521 -110.261
v -142.236 0.896 -107.801
f 505 506 507 508
v -154.618 0.522 -113.707
v -165.338 0.674 -115.457
v -165.902 0.625 -112.003
v -155.182 0.521 -110.253
f 509 510 511 512
v -165.363 0.674 -115.461
v -178.343 0.681 -117.391
v -178.857 0.725 -113.929
v -165.877 0.625 -111.999
f 513 514 515 516
v -178.620 0.684 -117.410
v -197.440 0.768 -117.190
v -197.400 0.825 -113.690
v -178.580 0.722 -113.910
f 517 518 519 520
v -197.481 0.768 -117.189
v -209.211 0.788 -116.779
v -209.089 0.758 -113.281
v -197.359 0.826 -113.691
f 521 522 523 524
v -209.206 0.788 -116.779
v -227.476 0.160 -116.199
v -227.364 0.120 -112.701
v -209.094 0.758 -113.281
f 525 526 527 528
v 57.168 1.019 -27.714
v 54.028 1.055 -19.294
v 58.712 1.087 -17.546
v 61.852 0.952 -25.966
f 529 530 531 532
v 54.502 1.065 -20.082
v 44.992 1.083 -9.392
v 48.728 1.136 -6.068
v 58.238 1.093 -16.758
f 533 534 535 536
v 26.654 1.034 -90.616
v 21.544 1.041 -97.976
v 17.436 1.006 -95.124
v 22.546 0.984 -87.764
f 537 538 539 540
v 20.141 1.000 -98.964
v -14.849 1.155 -108.394
v -16.151 1.164 -103.566
v 18.839 1.040 -94.136
f 541 542 543 544
v -13.181 1.166 -106.913
v -16.201 1.146 -114.423
v -20.839 1.165 -112.557
v -17.819 1.159 -105.047
f 545 546 547 548
v -16.020 1.144 -113.534
v -17.080 1.125 -173.254
v -22.080 1.085 -173.166
v -21.020 1.171 -113.446
f 549 550 551 552
v -17.081 1.124 -173.274
v -17.521 0.720 -190.574
v -22.519 0.751 -190.446
v -22.079 1.085 -173.146
f 553 554 555 556
v 177.849 0.954 -177.195
v 185.959 1.149 -170.215
v 189.221 1.026 -174.005
v 181.111 0.928 -180.985
f 557 558 559 560
v 185.484 1.142 -170.763
v 192.284 1.140 -160.133
v 196.496 1.098 -162.827
v 189.696 1.045 -173.457
f 561 562 563 564
v 192.063 1.143 -160.567
v 195.413 1.044 -152.027
v 200.067 0.964 -153.853
v 196.717 1.091 -162.393
f 565 566 567 568
v 195.240 1.047 -152.969
v 195.140 1.070 -144.469
v 200.140 1.001 -144.411
v 200.240 0.949 -152.911
f 569 570 571 572
v 195.188 1.066 -144.927
v 192.948 1.138 -133.657
v 197.852 1.180 -132.683
v 200.092 1.001 -143.953
f 573 574 575 576
v 193.237 1.135 -134.424
v 188.707 1.129 -126.614
v 193.033 1.121 -124.106
v 197.563 1.185 -131.916
f 577 578 579 580
v 188.623 1.129 -126.457
v 183.893 1.115 -116.767
v 188.387 1.059 -114.573
v 193.117 1.124 -124.263
f 581 582 583 584
v 183.787 1.116 -116.515
v 180.887 1.029 -108.445
v 185.593 0.980 -106.755
v 188.493 1.058 -114.825
f 585 586 587 588
v 182.785 1.037 -105.142
v 210.525 1.099 -100.012
v 211.435 1.057 -104.928
v 183.695 1.045 -110.058
f 589 590 591 592
v 210.675 1.100 -99.989
v 217.275 1.085 -99.179
v 217.885 1.035 -104.141
v 211.285 1.057 -104.951
f 593 594 595 596
v 218.077 1.072 -99.210
v 222.907 1.013 -100.190
v 221.913 1.055 -105.090
v 217.083 1.035 -104.110
f 597 598 599 600
v 183.695 1.045 -110.058
v 141.865 1.051 -117.798
v 140.955 1.010 -112.882
v 182.785 1.037 -105.142
f 601 602 603 604
v 141.813 1.052 -117.807
v 134.903 1.119 -118.937
v 134.097 1.106 -114.003
v 141.007 1.009 -112.873
f 605 606 607 608
v 134.979 1.119 -118.924
v 117.579 1.219 -122.324
v 116.621 1.194 -117.416
v 134.021 1.107 -114.016
f 609 610 611 612
v 117.049 1.219 -122.369
v 87.859 1.166 -121.779
v 87.961 1.204 -116.781
v 117.151 1.188 -117.371
f 613 614 615 616
v 87.865 1.166 -121.780
v 81.235 1.083 -121.660
v 81.325 1.172 -116.660
v 87.955 1.204 -116.780
f 617 618 619 620
v 81.259 1.083 -121.660
v 69.489 1.002 -121.560
v 69.531 1.137 -116.560
v 81.301 1.171 -116.660
f 621 622 623 624
v 78.780 1.101 -119.125
v 79.050 0.201 -99.775
v 84.050 1.143 -99.845
v 83.780 1.140 -119.195
f 625 626 627 628
v 81.004 0.120 -97.370
v 95.874 0.372 -94.040
v 96.966 1.235 -98.920
v 82.096 1.154 -102.250
f 629 630 631 632
v 96.591 0.559 -93.986
v 106.351 1.212 -94.656
v 106.009 1.242 -99.644
v 96.249 1.240 -98.974
f 633 634 635 636
v 107.439 1.217 -94.990
v 112.859 1.228 -98.150
v 110.341 1.228 -102.470
v 104.921 1.251 -99.310
f 637 638 639 640
v 110.096 1.258 -98.313
v 111.676 1.298 -97.123
v 114.684 1.222 -101.117
v 113.104 1.231 -102.307
f 641 642 643 644
v 112.205 1.282 -96.818
v 114.165 1.231 -95.988
v 116.115 1.221 -100.592
v 114.155 1.223 -101.422
f 645 646 647 648
v 114.778 1.218 -95.816
v 117.378 1.213 -95.436
v 118.102 1.215 -100.384
v 115.502 1.222 -100.764
f 649 650 651 652
v 118.029 1.211 -95.427
v 120.689 1.227 -95.737
v 120.111 1.211 -100.703
v 117.451 1.217 -100.393
f 653 654 655 656
v 121.223 1.234 -95.859
v 124.093 1.265 -96.859
v 122.447 1.216 -101.581
v 119.577 1.212 -100.581
f 657 658 659 660
v 124.369 1.264 -96.974
v 127.169 1.250 -98.344
v 124.971 1.211 -102.836
v 122.171 1.216 -101.466
f 661 662 663 664
v 127.736 1.249 -98.726
v 136.756 1.147 -106.786
v 133.424 1.126 -110.514
v 124.404 1.215 -102.454
f 665 666 667 668
v 136.907 1.158 -106.933
v 143.227 0.968 -113.623
v 139.593 1.029 -117.057
v 133.273 1.128 -110.367
f 669 670 671 672
v 224.482 1.587 4.298
v 174.252 1.098 -0.372
v 173.928 1.027 3.112
v 224.158 1.808 7.782
f 673 674 675 676
v 174.247 1.098 -0.373
v 155.197 1.002 -2.093
v 154.883 0.905 1.393
v 173.933 1.027 3.113
f 677 678 679 680
v 154.155 0.981 -1.860
v 153.115 0.942 -1.250
v 154.885 0.912 1.770
v 155.925 0.906 1.160
f 681 682 683 684
v 152.371 0.924 -0.380
v 151.821 0.911 1.020
v 155.079 0.922 2.300
v 155.629 0.904 0.900
f 685 686 687 688
v 151.799 0.934 2.239
v 152.679 0.981 4.749
v 155.981 0.945 3.591
v 155.101 0.900 1.081
f 689 690 691 692
v 152.836 0.988 5.082
v 160.366 1.079 17.412
v 163.354 1.061 15.588
v 155.824 0.939 3.258
f 693 694 695 696
v 160.770 1.083 17.869
v 162.490 1.093 19.239
v 164.670 1.072 16.501
v 162.950 1.054 15.131
f 697 698 699 700
v 163.552 1.094 19.620
v 165.402 1.092 19.650
v 165.458 1.072 16.150
v 163.608 1.067 16.120
f 701 702 703 704
v 166.646 1.089 19.158
v 168.146 1.081 17.708
v 165.714 1.068 15.192
v 164.214 1.072 16.642
f 705 706 707 708
v 168.511 1.079 17.201
v 175.671 1.049 2.121
v 172.509 1.060 0.619
v 165.349 1.069 15.699
f 709 710 711 712
v -49.586 0.875 -189.319
v -46.626 0.970 -198.419
v -49.954 1.005 -199.501
v -52.914 0.874 -190.401
f 713 714 715 716
v -46.626 0.970 -198.420
v -42.866 1.051 -210.000
v -46.194 1.084 -211.080
v -49.954 1.005 -199.500
f 717 718 719 720
v -42.825 1.051 -210.144
v -32.260 1.020 -255.604
v -35.669 1.031 -256.396
v -46.235 1.084 -210.936
f 721 722 723 724
v -232.849 0.979 -168.370
v -226.429 0.993 -168.520
v -226.511 0.950 -172.020
v -232.931 0.872 -171.870
f 725 726 727 728
v -226.429 0.993 -168.520
v -216.589 0.906 -168.750
v -216.671 0.956 -172.250
v -226.511 0.950 -172.020
f 729 730 731 732
v -217.247 0.844 -168.863
v -211.307 1.063 -166.623
v -210.073 1.013 -169.897
v -216.013 0.956 -172.137
f 733 734 735 736
v -211.307 1.063 -166.622
v -198.887 1.487 -161.942
v -197.653 1.579 -165.218
v -210.073 1.013 -169.898
f 737 738 739 740
v -198.245 1.544 -161.830
v -182.605 1.103 -162.050
v -182.655 1.100 -165.550
v -198.295 1.674 -165.330
f 741 742 743 744
v -182.606 1.103 -162.050
v -160.226 0.844 -162.360
v -160.274 0.918 -165.860
v -182.654 1.100 -165.550
f 745 746 747 748
v 192.456 1.135 -159.896
v 193.946 1.101 -158.076
v 197.814 1.071 -161.244
v 196.324 1.101 -163.064
f 749 750 751 752
v 194.139 1.096 -157.866
v 195.819 1.051 -156.236
v 199.301 1.041 -159.824
v 197.621 1.075 -161.454
f 753 754 755 756
v 196.523 1.034 -155.755
v 198.783 0.989 -154.725
v 200.857 1.030 -159.275
v 198.597 1.052 -160.305
f 757 758 759 760
v 199.235 0.982 -154.569
v 201.685 0.953 -153.979
v 202.855 1.001 -158.841
v 200.405 1.034 -159.431
f 761 762 763 764
v 202.445 0.953 -153.916
v 205.015 0.963 -154.096
v 204.665 1.000 -159.084
v 202.095 1.009 -158.904
f 765 766 767 768
v 205.498 0.969 -154.178
v 207.808 1.000 -154.808
v 206.492 1.021 -159.632
v 204.182 0.999 -159.002
f 769 770 771 772
v 208.503 1.008 -155.118
v 210.383 1.029 -156.328
v 207.677 1.033 -160.532
v 205.797 1.011 -159.322
f 773 774 775 776
v 210.711 1.033 -156.580
v 212.241 1.067 -157.970
v 208.879 1.043 -161.670
v 207.349 1.031 -160.280
f 777 778 779 780
v 242.762 1.128 -24.056
v 236.662 1.306 -0.886
v 241.498 1.303 0.386
v 247.598 1.060 -22.784
f 781 782 783 784
v 236.688 1.248 -3.378
v 233.708 1.281 -3.858
v 233.152 1.383 -0.402
v 236.132 1.348 0.078
f 785 786 787 788
v 233.151 1.288 -3.858
v 230.181 1.334 -3.378
v 230.739 1.443 0.078
v 233.709 1.374 -0.402
f 789 790 791 792
v 229.638 1.345 -3.195
v 226.968 1.407 -1.775
v 228.612 1.516 1.315
v 231.282 1.428 -0.105
f 793 794 795 796
v 226.521 1.409 -1.435
v 224.451 1.436 0.745
v 226.989 1.622 3.155
v 229.059 1.494 0.975
f 797 798 799 800
v 224.131 1.442 1.217
v 222.871 1.490 3.947
v 226.049 1.737 5.413
v 227.309 1.596 2.683
f 801 802 803 804
v 222.719 1.502 4.501
v 222.579 1.568 5.861
v 226.061 1.797 6.219
v 226.201 1.705 4.859
f 805 806 807 808
v 222.581 1.567 5.848
v 222.401 1.677 7.478
v 225.879 1.911 7.862
v 226.059 1.798 6.232
f 809 810 811 812
v 222.433 1.733 8.056
v 223.093 2.032 10.976
v 226.507 2.109 10.204
v 225.847 1.864 7.284
f 813 814 815 816
v 223.307 2.080 11.502
v 224.877 2.276 14.072
v 227.863 2.230 12.248
v 226.293 2.065 9.678
f 817 818 819 820
v 231.631 2.228 17.980
v 234.751 2.061 18.050
v 234.829 2.061 14.550
v 231.709 2.197 14.480
f 821 822 823 824
v 235.321 2.031 17.967
v 238.271 1.864 17.027
v 237.209 1.903 13.693
v 234.259 2.091 14.633
f 825 826 827 828
v 238.791 1.832 16.759
v 241.281 1.687 14.889
v 239.179 1.754 12.091
v 236.689 1.940 13.961
f 829 830 831 832
v 241.682 1.674 14.467
v 243.412 1.582 11.897
v 240.508 1.631 9.943
v 238.778 1.786 12.513
f 833 834 835 836
v 243.655 1.567 11.355
v 244.425 1.481 8.355
v 241.035 1.533 7.485
v 240.265 1.660 10.485
f 837 838 839 840
v 244.474 1.467 7.773
v 244.214 1.407 4.693
v 240.726 1.461 4.987
v 240.986 1.553 8.067
f 841 842 843 844
v 244.067 1.395 4.124
v 242.797 1.326 1.294
v 239.603 1.389 2.726
v 240.873 1.477 5.556
f 845 846 847 848
v 242.476 1.315 0.813
v 240.356 1.249 -1.447
v 237.804 1.344 0.947
v 239.924 1.404 3.207
f 849 850 851 852
v 239.893 1.241 -1.800
v 237.223 1.242 -3.200
v 235.597 1.353 -0.100
v 238.267 1.351 1.300
f 853 854 855 856
v 225.254 2.300 14.508
v 227.644 2.355 16.488
v 229.876 2.251 13.792
v 227.486 2.211 11.812
f 857 858 859 860
v 228.146 2.346 16.779
v 231.056 2.256 17.869
v 232.284 2.178 14.591
v 229.374 2.262 13.501
f 861 862 863 864
v 113.074 1.215 -101.253
v 112.114 1.234 -102.753
v 109.166 1.215 -100.867
v 110.126 1.221 -99.367
f 865 866 867 868
v 112.277 1.230 -102.428
v 111.397 1.265 -104.758
v 108.123 1.251 -103.522
v 109.003 1.216 -101.192
f 869 870 871 872
v 111.494 1.259 -104.375
v 111.364 1.272 -105.335
v 107.896 1.261 -104.865
v 108.026 1.254 -103.905
f 873 874 875 876
v 71.099 1.082 -118.328
v 75.159 0.948 -127.138
v 71.981 0.981 -128.602
v 67.921 1.054 -119.792
f 877 878 879 880
v 75.319 0.971 -127.933
v 75.039 1.150 -135.743
v 71.541 1.146 -135.617
v 71.821 0.959 -127.807
f 881 882 883 884
v -201.953 0.777 8.739
v -164.443 0.917 7.739
v -164.537 0.888 4.241
v -202.047 0.760 5.241
f 885 886 887 888
v -164.492 0.916 7.740
v -154.922 0.806 7.750
v -154.918 0.741 4.250
v -164.488 0.889 4.240
f 889 890 891 892
v -155.446 0.809 7.669
v -150.846 0.879 9.119
v -149.794 0.888 5.781
v -154.394 0.761 4.331
f 893 894 895 896
v -151.673 0.863 8.560
v -148.373 0.942 12.580
v -145.667 0.948 10.360
v -148.967 0.899 6.340
f 897 898 899 900
v -148.190 0.946 12.772
v -145.620 1.001 15.082
v -143.280 0.986 12.478
v -145.850 0.945 10.168
f 901 902 903 904
v -145.321 1.006 15.298
v -142.201 1.029 17.088
v -140.459 1.010 14.052
v -143.579 0.982 12.262
f 905 906 907 908
v -141.804 1.034 17.255
v -138.854 1.055 18.085
v -137.906 1.065 14.715
v -140.856 1.004 13.885
f 909 910 911 912
v -138.549 1.066 18.142
v -135.669 1.246 18.422
v -135.331 1.151 14.938
v -138.211 1.055 14.658
f 913 914 915 916
v -135.399 1.270 18.427
v -130.029 1.356 18.117
v -130.231 1.265 14.623
v -135.601 1.141 14.933
f 917 918 919 920
v -165.950 0.999 -56.390
v -163.010 0.844 -56.440
v -163.070 0.864 -59.940
v -166.010 1.015 -59.890
f 921 922 923 924
v -163.026 0.845 -56.440
v -149.686 0.797 -56.550
v -149.714 0.802 -60.050
v -163.054 0.863 -59.940
f 925 926 927 928
v -147.950 0.789 -58.324
v -148.330 1.005 -86.504
v -151.830 0.896 -86.456
v -151.450 0.797 -58.276
f 929 930 931 932
v -153.424 0.523 -111.040
v -149.754 0.646 -116.800
v -152.706 0.614 -118.680
v -156.376 0.505 -112.920
f 933 934 935 936
v -149.481 0.666 -117.792
v -149.881 0.693 -131.242
v -153.379 0.655 -131.138
v -152.979 0.602 -117.688
f 937 938 939 940
v -149.880 0.693 -131.190
v -149.880 0.693 -131.520
v -153.380 0.656 -131.520
v -153.380 0.655 -131.190
f 941 942 943 944
v -149.880 0.693 -131.554
v -149.980 0.731 -136.714
v -153.480 0.671 -136.646
v -153.380 0.656 -131.486
f 945 946 947 948
v -149.980 0.731 -136.712
v -150.290 0.738 -153.922
v -153.790 0.719 -153.858
v -153.480 0.671 -136.648
f 949 950 951 952
v -150.290 0.738 -153.927
v -150.510 0.870 -164.197
v -154.010 0.867 -164.123
v -153.790 0.719 -153.853
f 953 954 955 956
v -150.511 0.871 -164.224
v -150.681 0.932 -168.864
v -154.179 0.934 -168.736
v -154.009 0.867 -164.096
f 957 958 959 960
v -150.681 0.932 -168.859
v -151.041 0.808 -179.529
v -154.539 0.822 -179.411
v -154.179 0.934 -168.741
f 961 962 963 964
v -151.041 0.808 -179.527
v -151.271 0.735 -186.587
v -154.769 0.801 -186.473
v -154.539 0.822 -179.413
f 965 966 967 968
v -151.625 0.746 -187.586
v -155.295 0.813 -192.436
v -158.085 0.831 -190.324
v -154.415 0.788 -185.474
f 969 970 971 972
v -167.760 0.610 -126.648
v -166.180 0.601 -128.598
v -168.900 0.589 -130.802
v -170.480 0.634 -128.852
f 973 974 975 976
v -165.909 0.599 -129.066
v -164.999 0.593 -131.406
v -168.261 0.606 -132.674
v -169.171 0.601 -130.334
f 977 978 979 980
v -164.883 0.597 -131.936
v -164.733 0.607 -134.456
v -168.227 0.598 -134.664
v -168.377 0.598 -132.144
f 981 982 983 984
v -164.797 0.609 -135.040
v -165.567 0.601 -137.740
v -168.933 0.591 -136.780
v -168.163 0.603 -134.080
f 985 986 987 988
v -165.830 0.593 -138.283
v -167.480 0.596 -140.573
v -170.320 0.630 -138.527
v -168.670 0.589 -136.237
f 989 990 991 992
v -167.909 0.605 -140.993
v -170.239 0.667 -142.593
v -172.221 0.676 -139.707
v -169.891 0.620 -138.107
f 993 994 995 996
v -170.797 0.688 -142.846
v -173.537 0.767 -143.546
v -174.403 0.729 -140.154
v -171.663 0.660 -139.454
f 997 998 999 1000
v -174.137 0.779 -143.592
v -176.957 0.799 -143.322
v -176.623 0.734 -139.838
v -173.803 0.716 -140.108
f 1001 1002 1003 1004
v -177.543 0.798 -143.160
v -180.103 0.783 -141.940
v -178.597 0.712 -138.780
v -176.037 0.740 -140.000
f 1005 1006 1007 1008
v -180.594 0.781 -141.591
v -182.574 0.764 -139.591
v -180.086 0.707 -137.129
v -178.106 0.714 -139.129
f 1009 1010 1011 1012
v -182.919 0.766 -139.093
v -184.099 0.769 -136.533
v -180.921 0.699 -135.067
v -179.741 0.709 -137.627
f 1013 1014 1015 1016
v -184.254 0.763 -135.943
v -184.484 0.729 -133.133
v -180.996 0.694 -132.847
v -180.766 0.704 -135.657
f 1017 1018 1019 1020
v -184.425 0.735 -132.516
v -183.665 0.775 -129.816
v -180.295 0.713 -130.764
v -181.055 0.694 -133.464
f 1021 1022 1023 1024
v -183.425 0.774 -129.303
v -182.005 0.742 -127.223
v -179.115 0.705 -129.197
v -180.535 0.709 -131.277
f 1025 1026 1027 1028
v -181.635 0.734 -126.829
v -179.645 0.704 -125.279
v -177.495 0.674 -128.041
v -179.485 0.710 -129.591
f 1029 1030 1031 1032
v -179.171 0.701 -125.016
v -176.791 0.691 -124.146
v -175.589 0.659 -127.434
v -177.969 0.683 -128.304
f 1033 1034 1035 1036
v -176.259 0.690 -124.041
v -173.739 0.685 -123.941
v -173.601 0.653 -127.439
v -176.121 0.661 -127.539
f 1037 1038 1039 1040
v -173.198 0.683 -124.005
v -170.768 0.681 -124.685
v -171.712 0.646 -128.055
v -174.142 0.655 -127.375
f 1041 1042 1043 1044
v -170.285 0.677 -124.903
v -168.165 0.629 -126.283
v -170.075 0.628 -129.217
v -172.195 0.648 -127.837
f 1045 1046 1047 1048
v -151.746 0.695 -138.430
v -159.586 0.644 -138.360
v -159.554 0.634 -134.860
v -151.714 0.676 -134.930
f 1049 1050 1051 1052
v -159.587 0.644 -138.360
v -165.947 0.590 -138.300
v -165.913 0.608 -134.800
v -159.553 0.634 -134.860
f 1053 1054 1055 1056
v -165.101 0.613 -138.091
v -166.421 0.578 -138.801
v -168.079 0.589 -135.719
v -166.759 0.607 -135.009
f 1057 1058 1059 1060
v -166.229 0.601 -128.541
v -165.319 0.596 -129.571
v -167.941 0.599 -131.889
v -168.851 0.588 -130.859
f 1061 1062 1063 1064
v -165.805 0.598 -129.187
v -164.795 0.598 -129.727
v -166.445 0.621 -132.813
v -167.455 0.610 -132.273
f 1065 1066 1067 1068
v -165.586 0.596 -129.520
v -159.446 0.638 -129.640
v -159.514 0.622 -133.140
v -165.654 0.614 -133.020
f 1069 1070 1071 1072
v -159.451 0.638 -129.640
v -151.601 0.661 -129.770
v -151.659 0.664 -133.270
v -159.509 0.622 -133.140
f 1073 1074 1075 1076
v -231.140 0.884 -170.129
v -231.160 0.785 -173.819
v -234.660 0.778 -173.801
v -234.640 0.922 -170.111
f 1077 1078 1079 1080
v -231.160 0.785 -173.820
v -231.300 0.769 -199.300
v -234.800 0.614 -199.280
v -234.660 0.778 -173.800
f 1081 1082 1083 1084
v -231.300 0.769 -199.292
v -231.320 0.512 -218.522
v -234.820 0.509 -218.518
v -234.800 0.614 -199.288
f 1085 1086 1087 1088
v -233.071 0.520 -220.270
v -256.001 0.655 -220.251
v -255.999 0.629 -216.751
v -233.069 0.455 -216.770
f 1089 1090 1091 1092
v -256.004 0.663 -197.598
v -233.054 0.731 -197.540
v -233.046 0.727 -201.040
v -255.996 0.660 -201.098
f 1093 1094 1095 1096
v -72.780 0.880 -189.556
v -72.540 0.867 -171.876
v -69.040 0.888 -171.924
v -69.280 0.892 -189.604
f 1097 1098 1099 1100
v -72.540 0.867 -171.877
v -72.450 0.947 -165.107
v -68.950 1.001 -165.153
v -69.040 0.888 -171.923
f 1101 1102 1103 1104
v -70.721 0.937 -166.880
v -152.281 0.895 -165.910
v -152.239 0.850 -162.410
v -70.679 0.970 -163.380
f 1105 1106 1107 1108
v -141.904 0.949 -142.400
v -70.264 1.020 -143.880
v -70.336 1.034 -147.380
v -141.976 0.901 -145.900
f 1109 1110 1111 1112
v -68.550 1.035 -145.666
v -68.950 1.000 -165.166
v -72.450 0.948 -165.094
v -72.050 1.025 -145.594
f 1113 1114 1115 1116
v -72.049 1.025 -145.578
v -71.199 0.981 -116.938
v -67.701 1.011 -117.042
v -68.551 1.035 -145.682
f 1117 1118 1119 1120
v -160.239 0.844 -162.360
v -152.249 0.850 -162.410
v -152.271 0.895 -165.910
v -160.261 0.918 -165.860
f 1121 1122 1123 1124
v -157.772 0.732 -238.510
v -166.242 0.698 -238.550
v -166.258 0.734 -235.050
v -157.788 0.726 -235.010
f 1125 1126 1127 1128
v -166.292 0.700 -238.549
v -203.832 0.784 -237.649
v -203.748 0.717 -234.151
v -166.208 0.731 -235.051
f 1129 1130 1131 1132
v -205.076 0.773 -237.086
v -212.786 0.829 -228.726
v -210.214 0.846 -226.354
v -202.504 0.727 -234.714
f 1133 1134 1135 1136
v -213.250 0.842 -227.567
v -213.820 0.559 -191.067
v -210.320 0.541 -191.013
v -209.750 0.831 -227.513
f 1137 1138 1139 1140
usemtl asphalt
