# Baked ultra-low Key West silhouette; generated by bake_key_west_far_city.py
mtllib far_city.mtl
usemtl massing
v -229.194 1.193 117.374
v -225.190 1.193 124.804
v -231.986 1.193 128.466
v -235.990 1.193 121.036
v -229.194 5.093 117.374
v -225.190 5.093 124.804
v -231.986 5.093 128.466
v -235.990 5.093 121.036
f 8 7 6 5
f 1 2 6 5
f 2 3 7 6
f 3 4 8 7
f 4 1 5 8
v -239.009 0.587 134.253
v -234.972 0.587 142.754
v -241.611 0.587 145.907
v -245.648 0.587 137.406
v -239.009 4.487 134.253
v -234.972 4.487 142.754
v -241.611 4.487 145.907
v -245.648 4.487 137.406
f 16 15 14 13
f 9 10 14 13
f 10 11 15 14
f 11 12 16 15
f 12 9 13 16
usemtl road
v -253.790 0.425 155.237
v -234.610 1.486 118.948
v -239.030 0.909 116.612
v -258.210 0.508 152.901
f 17 18 19 20
usemtl asphalt
